<?xml version="1.0" encoding="UTF-8"?>
<svg xmlns="http://www.w3.org/2000/svg" xmlns:xlink="http://www.w3.org/1999/xlink" version="1.2" >
<font id="Gotho-8ExWd200ExLt" horiz-adv-x="943">
<font-face  font-family="Gotho" units-per-em="2048" ascent="2146" descent="-555" font-style="normal" font-weight="100" font-stretch="extra-expanded" cap-height="1456" x-height="1082" underline-position="-100" underline-thickness="100" />
<missing-glyph horiz-adv-x="1090" d="M120 1456 L970 1456 L970 0 L120 0 L120 1456 Z M905 83 L905 1373 L577 728 L905 83 Z M507 728 L185 1359 L185 97 L507 728 Z M233 54 L851 54 L542 660 L233 54 Z M542 796 L851 1402 L233 1402 L542 796 Z " />
<glyph glyph-name="uni0000" horiz-adv-x="0" />
<glyph glyph-name="uni000D" unicode="&#xd;" horiz-adv-x="591" />
<glyph glyph-name="space" unicode="&#x20;" horiz-adv-x="591" />
<glyph glyph-name="uni0002" unicode="&#x2;" horiz-adv-x="0" />
<glyph glyph-name="uni0009" unicode="&#x9;" horiz-adv-x="591" />
<glyph glyph-name="exclam" unicode="&#x21;" horiz-adv-x="494" d="M202 403 L200 1456 L284 1456 L282 403 L202 403 Z M178 58 Q178 86 198.5 105.5 Q219 125 251 125 Q283 125 304.5 105.5 Q326 86 326 58 Q326 30 304.5 11.5 Q283 -7 251 -7 Q219 -7 198.5 11.5 Q178 30 178 58 Z " />
<glyph glyph-name="quotedbl" unicode="&#x22;" horiz-adv-x="644" d="M183 1390 L183 1536 L261 1536 L261 1395 L246 1105 L178 1105 L183 1390 Z M434 1390 L434 1536 L512 1536 L512 1395 L497 1105 L429 1105 L434 1390 Z " />
<glyph glyph-name="numbersign" unicode="&#x23;" horiz-adv-x="1364" d="M392 410 L71 410 L71 480 L407 480 L515 968 L162 968 L162 1040 L531 1040 L622 1456 L700 1456 L609 1040 L1033 1040 L1125 1456 L1204 1456 L1112 1040 L1410 1040 L1410 968 L1096 968 L989 480 L1320 480 L1320 410 L973 410 L883 0 L803 0 L894 410 L471 410 L381 0 L302 0 L392 410 Z M909 480 L1017 968 L593 968 L486 480 L909 480 Z " />
<glyph glyph-name="dollar" unicode="&#x24;" horiz-adv-x="1349" d="M670 -21 Q571 -18 476.5 6.5 Q382 31 308 82 Q234 133 189 214.5 Q144 296 144 413 L227 413 Q227 310 270.5 241 Q314 172 382 130.5 Q450 89 535 72 Q620 55 702 55 Q801 55 879.5 79 Q958 103 1012.5 143.5 Q1067 184 1095.5 238 Q1124 292 1124 351 Q1124 412 1103 459 Q1082 506 1031.5 545.5 Q981 585 898 619.5 Q815 654 691 688 Q577 720 486.5 755.5 Q396 791 332.5 838.5 Q269 886 235.5 950 Q202 1014 202 1104 Q202 1185 234 1252 Q266 1319 326 1367.5 Q386 1416 471 1444 Q556 1472 661 1476 L661 1669 L740 1669 L740 1476 Q847 1471 932 1440 Q1017 1409 1076 1353.5 Q1135 1298 1166 1219 Q1197 1140 1197 1039 L1114 1039 Q1114 1117 1087 1183 Q1060 1249 1007 1297.5 Q954 1346 876.5 1373.5 Q799 1401 697 1401 Q591 1401 513.5 1376.5 Q436 1352 385 1311 Q334 1270 309.5 1217 Q285 1164 285 1106 Q285 1047 302 1000 Q319 953 366.5 913 Q414 873 498.5 837 Q583 801 718 764 Q829 733 919 698.5 Q1009 664 1073 617 Q1137 570 1172 506.5 Q1207 443 1207 353 Q1207 270 1174.5 203.5 Q1142 137 1082 89 Q1022 41 937.5 13 Q853 -15 749 -20 L749 -208 L670 -208 L670 -21 Z " />
<glyph glyph-name="percent" unicode="&#x25;" horiz-adv-x="1828" d="M447 165 L1301 1303 L1362 1265 L509 127 L447 165 Z M1036 355 Q1036 417 1059.5 471.5 Q1083 526 1126.5 567 Q1170 608 1230.5 632 Q1291 656 1366 656 Q1440 656 1501 632 Q1562 608 1605.5 567 Q1649 526 1672.5 471.5 Q1696 417 1696 355 L1696 278 Q1696 217 1672.5 162.5 Q1649 108 1606 67.5 Q1563 27 1503 3 Q1443 -21 1369 -21 Q1293 -21 1231.5 3 Q1170 27 1126.5 67.5 Q1083 108 1059.5 162.5 Q1036 217 1036 278 L1036 355 Z M135 1176 Q135 1238 158.5 1292.5 Q182 1347 225.5 1388 Q269 1429 329.5 1453 Q390 1477 465 1477 Q539 1477 600 1453 Q661 1429 704.5 1388 Q748 1347 771.5 1292.5 Q795 1238 795 1176 L795 1099 Q795 1038 771.5 983.5 Q748 929 705 888.5 Q662 848 602 824 Q542 800 468 800 Q392 800 330.5 824 Q269 848 225.5 888.5 Q182 929 158.5 983.5 Q135 1038 135 1099 L135 1176 Z M1114 278 Q1114 235 1129.5 193.5 Q1145 152 1176.5 120 Q1208 88 1256 68 Q1304 48 1369 48 Q1432 48 1479 67.5 Q1526 87 1557 119.5 Q1588 152 1603 193.5 Q1618 235 1618 278 L1618 355 Q1618 399 1602.5 440.5 Q1587 482 1555.5 514.5 Q1524 547 1477 567 Q1430 587 1366 587 Q1303 587 1256 567 Q1209 547 1177.5 514.5 Q1146 482 1130 440.5 Q1114 399 1114 355 L1114 278 Z M213 1099 Q213 1056 228.5 1014.5 Q244 973 275.5 941 Q307 909 355 889 Q403 869 468 869 Q531 869 578 888.5 Q625 908 656 940.5 Q687 973 702 1014.5 Q717 1056 717 1099 L717 1176 Q717 1220 701.5 1261.5 Q686 1303 654.5 1335.5 Q623 1368 576 1388 Q529 1408 465 1408 Q402 1408 355 1388 Q308 1368 276.5 1335.5 Q245 1303 229 1261.5 Q213 1220 213 1176 L213 1099 Z " />
<glyph glyph-name="ampersand" unicode="&#x26;" horiz-adv-x="1500" d="M497 802 Q405 897 354 982 Q303 1067 303 1158 Q303 1230 329 1288.5 Q355 1347 404 1389 Q453 1431 522 1454 Q591 1477 678 1477 Q760 1477 823.5 1455.5 Q887 1434 930.5 1396.5 Q974 1359 996.5 1309.5 Q1019 1260 1019 1204 Q1019 1156 996.5 1112.5 Q974 1069 939.5 1031 Q905 993 864 961 Q823 929 787 905 L616 790 L1156 274 Q1219 347 1255 439 Q1291 531 1291 640 L1373 640 Q1373 509 1331.5 405.5 Q1290 302 1215 219 L1444 0 L1343 0 L1166 167 Q1066 82 940.5 31 Q815 -20 662 -20 Q540 -20 442.5 7 Q345 34 277 83.5 Q209 133 172.5 203.5 Q136 274 136 360 Q136 424 161 479.5 Q186 535 229 585.5 Q272 636 329 682 Q386 728 450 772 L497 802 Z M489 704 Q402 645 349 595 Q296 545 267 502.5 Q238 460 228.5 425 Q219 390 219 360 Q219 300 246 244.5 Q273 189 327.5 147 Q382 105 465.5 79.5 Q549 54 662 54 Q788 54 903.5 98 Q1019 142 1107 223 L585 716 Q577 724 569 731.5 Q561 739 553 747 L489 704 Z M747 961 Q785 985 819 1012 Q853 1039 879 1069.5 Q905 1100 920 1133.5 Q935 1167 935 1204 Q935 1243 918.5 1278.5 Q902 1314 869.5 1341.5 Q837 1369 789 1385.5 Q741 1402 678 1402 Q607 1402 552.5 1383 Q498 1364 461.5 1331 Q425 1298 406 1254 Q387 1210 387 1161 Q387 1089 430 1009.5 Q473 930 561 843 L747 961 Z " />
<glyph glyph-name="quotesingle" unicode="&#x27;" horiz-adv-x="411" d="M168 1374 L168 1536 L248 1536 L248 1379 L230 1109 L159 1109 L168 1374 Z " />
<glyph glyph-name="parenleft" unicode="&#x28;" horiz-adv-x="742" d="M683 -470 Q584 -420 492.5 -322.5 Q401 -225 330.5 -90 Q260 45 218 212 Q176 379 176 569 L176 587 Q176 769 218 935.5 Q260 1102 330.5 1239 Q401 1376 492.5 1476.5 Q584 1577 683 1627 L709 1568 Q622 1520 541 1424 Q460 1328 397 1199 Q334 1070 296.5 914.5 Q259 759 259 591 L259 567 Q259 399 296.5 243.5 Q334 88 397 -41.5 Q460 -171 541 -267.5 Q622 -364 709 -413 L683 -470 Z " />
<glyph glyph-name="parenright" unicode="&#x29;" horiz-adv-x="761" d="M35 -413 Q122 -365 203 -268.5 Q284 -172 347 -42 Q410 88 447.5 243.5 Q485 399 485 567 L485 591 Q485 759 447 914.5 Q409 1070 346 1200 Q283 1330 202 1426 Q121 1522 35 1570 L61 1627 Q159 1577 251 1476.5 Q343 1376 413.5 1239 Q484 1102 526.5 935.5 Q569 769 569 587 L569 569 Q569 379 526.5 212 Q484 45 413.5 -90 Q343 -225 251 -322.5 Q159 -420 61 -470 L35 -413 Z " />
<glyph glyph-name="asterisk" unicode="&#x2a;" horiz-adv-x="1031" d="M463 1010 L36 1127 L61 1201 L487 1073 L487 1456 L567 1456 L559 1071 L974 1207 L1002 1133 L577 1006 L868 698 L801 653 L519 968 L252 652 L187 696 L463 1010 Z " />
<glyph glyph-name="plus" unicode="&#x2b;" horiz-adv-x="1383" d="M88 719 L635 719 L635 1206 L719 1206 L719 719 L1286 719 L1286 640 L719 640 L719 146 L635 146 L635 640 L88 640 L88 719 Z " />
<glyph glyph-name="comma" unicode="&#x2c;" horiz-adv-x="462" d="M102 -222 Q156 -162 183 -103 Q210 -44 210 34 L210 172 L292 172 L292 36 Q292 -56 254.5 -132.5 Q217 -209 155 -263 L102 -222 Z " />
<glyph glyph-name="hyphen" unicode="&#x2d;" horiz-adv-x="723" d="M70 619 L70 693 L637 693 L637 619 L70 619 Z " />
<glyph glyph-name="period" unicode="&#x2e;" horiz-adv-x="541" d="M176 58 Q176 86 196.5 105.5 Q217 125 249 125 Q281 125 302.5 105.5 Q324 86 324 58 Q324 30 302.5 11.5 Q281 -7 249 -7 Q217 -7 196.5 11.5 Q176 30 176 58 Z " />
<glyph glyph-name="slash" unicode="&#x2f;" horiz-adv-x="947" d="M47 -125 L777 1456 L861 1456 L131 -125 L47 -125 Z " />
<glyph glyph-name="zero" unicode="0" horiz-adv-x="1350" d="M149 858 Q149 1008 184 1123.5 Q219 1239 285.5 1317.5 Q352 1396 450 1436.5 Q548 1477 674 1477 Q800 1477 898.5 1436.5 Q997 1396 1064 1317.5 Q1131 1239 1166 1123.5 Q1201 1008 1201 858 L1201 600 Q1201 450 1166.5 334.5 Q1132 219 1065.5 140 Q999 61 901.5 20.5 Q804 -20 677 -20 Q551 -20 453 20.5 Q355 61 287.5 140 Q220 219 184.5 334.5 Q149 450 149 600 L149 858 Z M232 595 Q232 472 259.5 372.5 Q287 273 342.5 202 Q398 131 481.5 92.5 Q565 54 677 54 Q789 54 872 92.5 Q955 131 1009.5 202 Q1064 273 1091 372.5 Q1118 472 1118 595 L1118 865 Q1118 990 1090.5 1089.5 Q1063 1189 1008 1258.5 Q953 1328 869.5 1365 Q786 1402 674 1402 Q563 1402 480 1365 Q397 1328 342 1258.5 Q287 1189 259.5 1089.5 Q232 990 232 865 L232 595 Z " />
<glyph glyph-name="one" unicode="1" horiz-adv-x="1349" d="M718 0 L718 1356 L223 1203 L223 1285 L785 1461 L801 1461 L801 0 L718 0 Z " />
<glyph glyph-name="two" unicode="2" horiz-adv-x="1349" d="M163 0 L163 71 L751 617 Q834 693 892 757.5 Q950 822 987.5 878 Q1025 934 1042 984 Q1059 1034 1059 1081 Q1059 1153 1032.5 1212.5 Q1006 1272 954.5 1314 Q903 1356 826 1379 Q749 1402 648 1402 Q555 1402 480 1375 Q405 1348 352.5 1299.5 Q300 1251 272 1185 Q244 1119 244 1041 L161 1041 Q161 1130 194 1209.5 Q227 1289 289.5 1348 Q352 1407 442.5 1441.5 Q533 1476 648 1476 Q762 1476 853.5 1450 Q945 1424 1009.5 1374.5 Q1074 1325 1108.5 1252 Q1143 1179 1143 1085 Q1143 1018 1113 950 Q1083 882 1033.5 814.5 Q984 747 919.5 681 Q855 615 787 552 L270 74 L1236 74 L1236 0 L163 0 Z " />
<glyph glyph-name="three" unicode="3" horiz-adv-x="1348" d="M205 401 Q205 325 241.5 261 Q278 197 342 151 Q406 105 494.5 79.5 Q583 54 686 54 Q791 54 872.5 76.5 Q954 99 1010.5 141.5 Q1067 184 1096.5 246 Q1126 308 1126 386 Q1126 471 1089.5 531 Q1053 591 988 629.5 Q923 668 832 686 Q741 704 633 704 L496 704 L496 780 L633 780 Q744 780 829.5 804.5 Q915 829 972.5 870 Q1030 911 1059.5 966 Q1089 1021 1089 1082 Q1089 1149 1065 1207.5 Q1041 1266 990 1309 Q939 1352 861 1377 Q783 1402 675 1402 Q584 1402 504.5 1379.5 Q425 1357 366 1314.5 Q307 1272 273.5 1211 Q240 1150 240 1074 L157 1074 Q157 1166 198 1240 Q239 1314 309.5 1366.5 Q380 1419 474 1447.5 Q568 1476 675 1476 Q788 1476 880 1449 Q972 1422 1037 1371 Q1102 1320 1137 1246 Q1172 1172 1172 1078 Q1172 1024 1150.5 973 Q1129 922 1088.5 878.5 Q1048 835 989.5 800.5 Q931 766 857 745 Q1028 709 1118.5 616.5 Q1209 524 1209 390 Q1209 292 1170 216 Q1131 140 1061 87.5 Q991 35 895 7.5 Q799 -20 686 -20 Q585 -20 484.5 5.5 Q384 31 303.5 83 Q223 135 172.5 214 Q122 293 122 401 L205 401 Z " />
<glyph glyph-name="four" unicode="4" horiz-adv-x="1349" d="M95 431 L923 1456 L1019 1456 L1019 459 L1314 459 L1314 385 L1019 385 L1019 0 L936 0 L936 385 L95 385 L95 431 Z M936 459 L936 1368 L850 1244 L215 459 L936 459 Z " />
<glyph glyph-name="five" unicode="5" horiz-adv-x="1349" d="M297 383 Q316 222 428 138 Q540 54 736 54 Q944 54 1047.5 159 Q1151 264 1151 462 Q1151 544 1122 614.5 Q1093 685 1037.5 736.5 Q982 788 900.5 817 Q819 846 714 846 Q646 846 591.5 838 Q537 830 492 816 Q447 802 409.5 781.5 Q372 761 338 735 L274 755 L356 1456 L1213 1456 L1213 1378 L430 1378 L361 834 Q383 849 419 864.5 Q455 880 501.5 893.5 Q548 907 603 915.5 Q658 924 718 924 Q832 924 927 892.5 Q1022 861 1090.5 801.5 Q1159 742 1197 657 Q1235 572 1235 464 Q1235 359 1207 270.5 Q1179 182 1118.5 117.5 Q1058 53 963.5 16.5 Q869 -20 736 -20 Q633 -20 542.5 4.5 Q452 29 382 79 Q312 129 268 205 Q224 281 214 383 L297 383 Z " />
<glyph glyph-name="six" unicode="6" horiz-adv-x="1349" d="M176 741 Q176 934 224 1073 Q272 1212 354.5 1301.5 Q437 1391 546.5 1433.5 Q656 1476 779 1476 Q815 1476 853.5 1473 Q892 1470 930 1464 Q968 1458 1003 1448.5 Q1038 1439 1067 1427 L1041 1356 Q1010 1367 981 1375.5 Q952 1384 921.5 1390 Q891 1396 857 1399 Q823 1402 781 1402 Q675 1402 580 1364 Q485 1326 413.5 1245.5 Q342 1165 300.5 1041 Q259 917 259 746 L259 745 Q290 792 335.5 831 Q381 870 439 899 Q497 928 566.5 944 Q636 960 715 960 Q835 960 929.5 924 Q1024 888 1088.5 824 Q1153 760 1187 672.5 Q1221 585 1221 482 Q1221 375 1184.5 283 Q1148 191 1082.5 123.5 Q1017 56 925 17.5 Q833 -21 722 -21 Q606 -21 506.5 14.5 Q407 50 333.5 117 Q260 184 218 280.5 Q176 377 176 500 L176 741 Z M259 501 Q259 397 293.5 314 Q328 231 390 173 Q452 115 537 84 Q622 53 722 53 Q819 53 896 88 Q973 123 1027 182.5 Q1081 242 1109.5 319.5 Q1138 397 1138 482 Q1138 567 1111 640.5 Q1084 714 1029.5 768.5 Q975 823 893.5 854.5 Q812 886 703 886 Q623 886 549.5 865 Q476 844 416.5 806.5 Q357 769 315.5 719 Q274 669 259 610 L259 501 Z " />
<glyph glyph-name="seven" unicode="7" horiz-adv-x="1348" d="M471 104 Q492 304 547.5 480.5 Q603 657 687.5 815 Q772 973 882 1114 Q992 1255 1121 1382 L92 1382 L92 1456 L1215 1456 L1215 1382 Q1098 1262 988.5 1127 Q879 992 790 836 Q701 680 638.5 498.5 Q576 317 553 104 L543 0 L460 0 L471 104 Z " />
<glyph glyph-name="eight" unicode="8" horiz-adv-x="1349" d="M122 382 Q122 448 147.5 506 Q173 564 219 611 Q265 658 330 692.5 Q395 727 473 747 Q405 767 349 799.5 Q293 832 253.5 875 Q214 918 192 971 Q170 1024 170 1084 Q170 1179 208.5 1252 Q247 1325 315 1375 Q383 1425 475 1450.5 Q567 1476 675 1476 Q782 1476 875 1450.5 Q968 1425 1037 1375 Q1106 1325 1146 1252 Q1186 1179 1186 1084 Q1186 1024 1163.5 971 Q1141 918 1100.5 875 Q1060 832 1003.5 799.5 Q947 767 879 747 Q957 727 1022.5 692 Q1088 657 1135.5 610 Q1183 563 1209 505.5 Q1235 448 1235 382 Q1235 283 1191.5 207.5 Q1148 132 1073 81.5 Q998 31 896.5 5.5 Q795 -20 679 -20 Q561 -20 459 5.5 Q357 31 282 81.5 Q207 132 164.5 207.5 Q122 283 122 382 Z M205 379 Q205 301 241 240 Q277 179 340.5 138 Q404 97 490.5 75.5 Q577 54 679 54 Q779 54 865 75.5 Q951 97 1014.5 138 Q1078 179 1114 240 Q1150 301 1150 379 Q1150 454 1113 515 Q1076 576 1012.5 619 Q949 662 862.5 685.5 Q776 709 677 709 Q577 709 490.5 685.5 Q404 662 340.5 619 Q277 576 241 515 Q205 454 205 379 Z M253 1087 Q253 1017 285 960.5 Q317 904 374 864.5 Q431 825 509 804 Q587 783 678 783 Q767 783 844.5 804 Q922 825 979.5 864.5 Q1037 904 1070 960.5 Q1103 1017 1103 1087 Q1103 1156 1069.5 1214 Q1036 1272 978 1313.5 Q920 1355 842 1378.5 Q764 1402 675 1402 Q585 1402 507.5 1380 Q430 1358 373.5 1317.5 Q317 1277 285 1218.5 Q253 1160 253 1087 Z " />
<glyph glyph-name="nine" unicode="9" horiz-adv-x="1349" d="M285 115 Q321 101 355.5 89.5 Q390 78 426 70 Q462 62 501 58 Q540 54 585 54 Q699 54 792 91.5 Q885 129 951 200.5 Q1017 272 1053 375 Q1089 478 1089 609 L1089 691 Q1056 639 1008.5 597 Q961 555 901.5 526 Q842 497 773 481.5 Q704 466 629 466 Q513 466 418 505 Q323 544 255 611 Q187 678 150 767.5 Q113 857 113 958 Q113 1068 151.5 1163 Q190 1258 259.5 1327.5 Q329 1397 425.5 1437 Q522 1477 637 1477 Q762 1477 861.5 1441.5 Q961 1406 1030 1334.5 Q1099 1263 1136 1156 Q1173 1049 1173 905 L1173 611 Q1173 460 1130.5 342 Q1088 224 1010.5 144 Q933 64 825.5 22 Q718 -20 588 -20 Q506 -20 422.5 -4.5 Q339 11 260 43 L285 115 Z M1089 908 Q1089 1031 1058.5 1123.5 Q1028 1216 970.5 1278.5 Q913 1341 830 1372 Q747 1403 642 1403 Q542 1403 461.5 1367 Q381 1331 324 1270 Q267 1209 236 1128 Q205 1047 205 958 Q205 877 233.5 801.5 Q262 726 317 667.5 Q372 609 451 574 Q530 539 630 539 Q729 539 807 565.5 Q885 592 942 633.5 Q999 675 1035.5 727 Q1072 779 1089 830 L1089 908 Z " />
<glyph glyph-name="colon" unicode="&#x3a;" horiz-adv-x="455" >
<g transform="translate(-31,0)" >
<path fill="black" d="M176 58 Q176 86 196.5 105.5 Q217 125 249 125 Q281 125 302.5 105.5 Q324 86 324 58 Q324 30 302.5 11.5 Q281 -7 249 -7 Q217 -7 196.5 11.5 Q176 30 176 58 Z " />
</g>
<g transform="translate(-20,945)" >
<path fill="black" d="M176 58 Q176 86 196.5 105.5 Q217 125 249 125 Q281 125 302.5 105.5 Q324 86 324 58 Q324 30 302.5 11.5 Q281 -7 249 -7 Q217 -7 196.5 11.5 Q176 30 176 58 Z " />
</g>
</glyph>
<glyph glyph-name="semicolon" unicode="&#x3b;" horiz-adv-x="447" >
<g transform="translate(-7,0)" >
<path fill="black" d="M102 -222 Q156 -162 183 -103 Q210 -44 210 34 L210 172 L292 172 L292 36 Q292 -56 254.5 -132.5 Q217 -209 155 -263 L102 -222 Z " />
</g>
<g transform="translate(-29,945)" >
<path fill="black" d="M176 58 Q176 86 196.5 105.5 Q217 125 249 125 Q281 125 302.5 105.5 Q324 86 324 58 Q324 30 302.5 11.5 Q281 -7 249 -7 Q217 -7 196.5 11.5 Q176 30 176 58 Z " />
</g>
</glyph>
<glyph glyph-name="less" unicode="&#x3c;" horiz-adv-x="1263" d="M97 697 L1099 1075 L1099 988 L206 661 L1099 336 L1099 248 L97 627 L97 697 Z " />
<glyph glyph-name="equal" unicode="&#x3d;" horiz-adv-x="1368" >
<g transform="translate(-19,-278)" >
<path fill="black" d="M196 706 L196 783 L1197 783 L1197 706 L196 706 Z " />
</g>
<g transform="translate(-19,131)" >
<path fill="black" d="M196 706 L196 783 L1197 783 L1197 706 L196 706 Z " />
</g>
</glyph>
<glyph glyph-name="greater" unicode="&#x3e;" horiz-adv-x="1266" d="M139 337 L1034 665 L139 991 L139 1078 L1145 700 L1145 630 L139 251 L139 337 Z " />
<glyph glyph-name="question" unicode="&#x3f;" horiz-adv-x="1082" d="M469 402 Q470 461 480 507 Q490 553 512 593.5 Q534 634 570.5 671.5 Q607 709 660 751 Q713 793 755.5 830 Q798 867 828 907 Q858 947 874 995 Q890 1043 890 1108 Q890 1172 869 1225.5 Q848 1279 806 1318 Q764 1357 701 1378.5 Q638 1400 554 1400 Q471 1400 404.5 1379.5 Q338 1359 291.5 1322 Q245 1285 219.5 1232.5 Q194 1180 192 1116 L109 1116 Q111 1202 146.5 1269 Q182 1336 243 1382 Q304 1428 384 1452 Q464 1476 554 1476 Q656 1476 734 1448.5 Q812 1421 865.5 1372 Q919 1323 946 1255 Q973 1187 973 1107 Q973 1041 956.5 985.5 Q940 930 906.5 880.5 Q873 831 822 785.5 Q771 740 703 693 Q618 635 585 560.5 Q552 486 552 402 L469 402 Z M442 58 Q442 86 462.5 105.5 Q483 125 515 125 Q547 125 568.5 105.5 Q590 86 590 58 Q590 30 568.5 11.5 Q547 -7 515 -7 Q483 -7 462.5 11.5 Q442 30 442 58 Z " />
<glyph glyph-name="at" unicode="&#x40;" horiz-adv-x="2274" d="M1517 -364 Q1478 -386 1425.5 -402.5 Q1373 -419 1315 -430.5 Q1257 -442 1197.5 -447.5 Q1138 -453 1085 -453 Q857 -453 678.5 -388.5 Q500 -324 379.5 -203 Q259 -82 200.5 90.5 Q142 263 153 478 Q164 690 243.5 863 Q323 1036 459.5 1158.5 Q596 1281 783 1348 Q970 1415 1197 1415 Q1443 1415 1621 1352 Q1799 1289 1912.5 1172.5 Q2026 1056 2076 890.5 Q2126 725 2116 519 Q2112 424 2084 328 Q2056 232 2001.5 154.5 Q1947 77 1864 28.5 Q1781 -20 1667 -20 Q1548 -20 1474.5 38.5 Q1401 97 1384 201 Q1318 91 1220 35.5 Q1122 -20 994 -20 Q911 -20 849 12.5 Q787 45 748 104 Q709 163 694 246.5 Q679 330 690 432 Q704 560 749.5 662.5 Q795 765 864.5 837.5 Q934 910 1023 949 Q1112 988 1213 988 Q1270 988 1314 979 Q1358 970 1393.5 955 Q1429 940 1459 920 Q1489 900 1519 879 L1460 301 Q1451 217 1472.5 166.5 Q1494 116 1529 90 Q1564 64 1604 56 Q1644 48 1673 48 Q1759 48 1824.5 84 Q1890 120 1935.5 183 Q1981 246 2007 332 Q2033 418 2039 519 Q2050 709 2007 861.5 Q1964 1014 1861 1121 Q1758 1228 1592 1285.5 Q1426 1343 1192 1343 Q995 1343 825 1282 Q655 1221 527 1108.5 Q399 996 321 836 Q243 676 231 478 Q220 292 272 134 Q324 -24 433.5 -138.5 Q543 -253 708.5 -318 Q874 -383 1090 -383 Q1143 -383 1197.5 -377.5 Q1252 -372 1304 -361.5 Q1356 -351 1402.5 -336.5 Q1449 -322 1486 -304 L1517 -364 Z M1437 847 Q1399 879 1343.5 898.5 Q1288 918 1212 918 Q1135 918 1062 889 Q989 860 929.5 800 Q870 740 827.5 648.5 Q785 557 769 432 Q759 351 768 281.5 Q777 212 805.5 161.5 Q834 111 882 82 Q930 53 998 53 Q1050 53 1103.5 65 Q1157 77 1208 109.5 Q1259 142 1304.5 198.5 Q1350 255 1386 344 L1437 847 Z " />
<glyph glyph-name="A" unicode="A" horiz-adv-x="1483" d="M694 1456 L788 1456 L1444 0 L1353 0 L1163 424 L320 424 L130 0 L39 0 L694 1456 Z M1129 499 L741 1364 L354 499 L1129 499 Z " />
<glyph glyph-name="B" unicode="B" horiz-adv-x="1488" d="M235 1456 L708 1456 Q840 1456 946 1434 Q1052 1412 1126 1365.5 Q1200 1319 1239.5 1248.5 Q1279 1178 1279 1080 Q1279 1020 1260 967.5 Q1241 915 1205 873 Q1169 831 1115.5 801 Q1062 771 993 756 Q1071 744 1137.5 712 Q1204 680 1252.5 633.5 Q1301 587 1328 528.5 Q1355 470 1355 405 Q1355 307 1315 231.5 Q1275 156 1203 104.5 Q1131 53 1031 26.5 Q931 0 810 0 L235 0 L235 1456 Z M810 76 Q917 76 1002.5 98.5 Q1088 121 1147.5 163 Q1207 205 1239 265.5 Q1271 326 1271 403 Q1271 465 1243 521 Q1215 577 1159.5 619 Q1104 661 1020 686 Q936 711 823 711 L320 711 L320 76 L810 76 Z M730 786 Q959 786 1076.5 859.5 Q1194 933 1194 1083 Q1194 1233 1071.5 1306.5 Q949 1380 708 1380 L320 1380 L320 786 L730 786 Z " />
<glyph glyph-name="C" unicode="C" horiz-adv-x="1594" d="M170 829 Q170 974 215.5 1093 Q261 1212 344.5 1297 Q428 1382 546 1429 Q664 1476 810 1476 Q944 1476 1053 1446 Q1162 1416 1243 1356.5 Q1324 1297 1373.5 1209.5 Q1423 1122 1436 1007 L1351 1007 Q1324 1198 1188.5 1299 Q1053 1400 810 1400 Q684 1400 581.5 1359 Q479 1318 406.5 1243.5 Q334 1169 294 1064 Q254 959 254 831 L254 627 Q254 500 293.5 395 Q333 290 405 214.5 Q477 139 579.5 97.5 Q682 56 808 56 Q1048 56 1186 152 Q1324 248 1351 449 L1436 449 Q1423 334 1373.5 246.5 Q1324 159 1243 100 Q1162 41 1052 10.5 Q942 -20 808 -20 Q663 -20 545 27 Q427 74 344 159 Q261 244 215.5 363 Q170 482 170 627 L170 829 Z " />
<glyph glyph-name="D" unicode="D" horiz-adv-x="1608" d="M235 1456 L720 1456 Q877 1456 1010 1409 Q1143 1362 1240 1277 Q1337 1192 1392 1072.5 Q1447 953 1447 807 L1447 648 Q1447 503 1392.5 383.5 Q1338 264 1240.5 179 Q1143 94 1009.5 47 Q876 0 718 0 L235 0 L235 1456 Z M718 76 Q859 76 977 118 Q1095 160 1181 235.5 Q1267 311 1315 416.5 Q1363 522 1363 648 L1363 810 Q1363 937 1315 1042 Q1267 1147 1181 1222 Q1095 1297 977.5 1338.5 Q860 1380 720 1380 L320 1380 L320 76 L718 76 Z " />
<glyph glyph-name="E" unicode="E" horiz-adv-x="1399" d="M235 1456 L1303 1456 L1303 1380 L320 1380 L320 787 L1182 787 L1182 712 L320 712 L320 76 L1304 76 L1304 0 L235 0 L235 1456 Z " />
<glyph glyph-name="F" unicode="F" horiz-adv-x="1401" d="M235 1456 L1317 1456 L1317 1380 L320 1380 L320 778 L1196 778 L1196 701 L320 701 L320 0 L235 0 L235 1456 Z " />
<glyph glyph-name="G" unicode="G" horiz-adv-x="1686" d="M195 843 Q195 986 242.5 1102.5 Q290 1219 377 1302 Q464 1385 585.5 1430.5 Q707 1476 854 1476 Q997 1476 1106.5 1443.5 Q1216 1411 1293 1354.5 Q1370 1298 1414.5 1221 Q1459 1144 1471 1055 L1388 1055 Q1375 1124 1339 1186.5 Q1303 1249 1239.5 1296.5 Q1176 1344 1081 1372 Q986 1400 854 1400 Q722 1400 615.5 1359.5 Q509 1319 434 1245.5 Q359 1172 319 1070 Q279 968 279 845 L279 631 Q279 503 321.5 397 Q364 291 442 215.5 Q520 140 630 98 Q740 56 875 56 Q981 56 1067 69.5 Q1153 83 1218.5 104 Q1284 125 1327 149 Q1370 173 1390 194 L1390 598 L871 598 L871 674 L1474 674 L1474 164 Q1452 138 1404.5 106 Q1357 74 1282.5 46 Q1208 18 1106.5 -1 Q1005 -20 875 -20 Q724 -20 599 26.5 Q474 73 384 158.5 Q294 244 244.5 364 Q195 484 195 631 L195 843 Z " />
<glyph glyph-name="H" unicode="H" horiz-adv-x="1729" d="M235 1456 L320 1456 L320 787 L1408 787 L1408 1456 L1493 1456 L1493 0 L1408 0 L1408 712 L320 712 L320 0 L235 0 L235 1456 Z " />
<glyph glyph-name="I" unicode="I" horiz-adv-x="644" d="M280 0 L280 1456 L365 1456 L365 0 L280 0 Z " />
<glyph glyph-name="J" unicode="J" horiz-adv-x="1351" d="M188 401 Q188 231 295 143.5 Q402 56 613 56 Q700 56 777.5 80.5 Q855 105 913 153 Q971 201 1004.5 272.5 Q1038 344 1038 439 L1038 1456 L1122 1456 L1122 439 Q1122 328 1083 242 Q1044 156 975.5 98 Q907 40 814 10 Q721 -20 613 -20 Q496 -20 402 5.5 Q308 31 241.5 83.5 Q175 136 139 215 Q103 294 103 401 L188 401 Z " />
<glyph glyph-name="K" unicode="K" horiz-adv-x="1558" d="M235 1456 L320 1456 L320 631 L1305 1456 L1420 1456 L656 805 L1480 0 L1372 0 L589 751 L320 535 L320 0 L235 0 L235 1456 Z " />
<glyph glyph-name="L" unicode="L" horiz-adv-x="1274" d="M235 1456 L321 1456 L321 76 L1209 76 L1209 0 L235 0 L235 1456 Z " />
<glyph glyph-name="M" unicode="M" horiz-adv-x="2111" d="M235 1456 L354 1456 L1054 117 L1755 1456 L1875 1456 L1875 0 L1792 0 L1792 675 L1796 1359 L1087 0 L1021 0 L317 1353 L320 675 L320 0 L235 0 L235 1456 Z " />
<glyph glyph-name="N" unicode="N" horiz-adv-x="1741" d="M235 1456 L321 1456 L1420 134 L1420 1456 L1504 1456 L1504 0 L1420 0 L321 1323 L321 0 L235 0 L235 1456 Z " />
<glyph glyph-name="O" unicode="O" horiz-adv-x="1644" d="M158 824 Q158 971 205 1091 Q252 1211 338.5 1296.5 Q425 1382 547.5 1429 Q670 1476 821 1476 Q973 1476 1095.5 1429 Q1218 1382 1305 1296.5 Q1392 1211 1439 1091 Q1486 971 1486 824 L1486 632 Q1486 485 1439.5 365 Q1393 245 1306.5 159.5 Q1220 74 1097.5 27 Q975 -20 823 -20 Q672 -20 549.5 27 Q427 74 340 159.5 Q253 245 205.5 365 Q158 485 158 632 L158 824 Z M243 632 Q243 503 282.5 397 Q322 291 396.5 215.5 Q471 140 579 98.5 Q687 57 823 57 Q961 57 1068.5 98.5 Q1176 140 1250.5 215.5 Q1325 291 1363.5 397 Q1402 503 1402 632 L1402 826 Q1402 954 1363 1059.5 Q1324 1165 1249.5 1240.5 Q1175 1316 1067 1357.5 Q959 1399 821 1399 Q685 1399 577.5 1357.5 Q470 1316 395.5 1240.5 Q321 1165 282 1059.5 Q243 954 243 826 L243 632 Z " />
<glyph glyph-name="P" unicode="P" horiz-adv-x="1484" d="M235 1456 L793 1456 Q933 1456 1039.5 1425 Q1146 1394 1218 1338 Q1290 1282 1326.5 1202.5 Q1363 1123 1363 1027 Q1363 929 1327 851 Q1291 773 1219 718.5 Q1147 664 1040.5 635 Q934 606 793 606 L320 606 L320 0 L235 0 L235 1456 Z M793 681 Q922 681 1013.5 708 Q1105 735 1164 781.5 Q1223 828 1250.5 890.5 Q1278 953 1278 1025 Q1278 1098 1250.5 1162.5 Q1223 1227 1164 1275.5 Q1105 1324 1013.5 1352 Q922 1380 793 1380 L320 1380 L320 681 L793 681 Z " />
<glyph glyph-name="Q" unicode="Q" horiz-adv-x="1643" d="M156 824 Q156 971 203 1091 Q250 1211 336.5 1296.5 Q423 1382 545.5 1429 Q668 1476 819 1476 Q971 1476 1093.5 1429 Q1216 1382 1303 1296.5 Q1390 1211 1437 1091 Q1484 971 1484 824 L1484 632 Q1484 527 1460 435.5 Q1436 344 1390.5 269 Q1345 194 1279.5 136 Q1214 78 1131 41 L1442 -207 L1383 -260 L1041 9 Q939 -20 821 -20 Q670 -20 547.5 27 Q425 74 338 159.5 Q251 245 203.5 365 Q156 485 156 632 L156 824 Z M241 632 Q241 503 280.5 397 Q320 291 394.5 215.5 Q469 140 577 98.5 Q685 57 821 57 Q959 57 1066.5 98.5 Q1174 140 1248.5 215.5 Q1323 291 1361.5 397 Q1400 503 1400 632 L1400 826 Q1400 954 1361 1059.5 Q1322 1165 1247.5 1240.5 Q1173 1316 1065 1357.5 Q957 1399 819 1399 Q683 1399 575.5 1357.5 Q468 1316 393.5 1240.5 Q319 1165 280 1059.5 Q241 954 241 826 L241 632 Z " />
<glyph glyph-name="R" unicode="R" horiz-adv-x="1609" d="M231 1455 L796 1455 Q934 1455 1041.5 1430 Q1149 1405 1222.5 1355.5 Q1296 1306 1334 1232 Q1372 1158 1372 1060 Q1372 1003 1350.5 948.5 Q1329 894 1287 847.5 Q1245 801 1183.5 766 Q1122 731 1042 712 Q1134 696 1195.5 664.5 Q1257 633 1294.5 588.5 Q1332 544 1348 489 Q1364 434 1364 371 L1364 234 Q1364 172 1382.5 116.5 Q1401 61 1449 24 L1449 -1 L1366 -1 Q1321 41 1300.5 104.5 Q1280 168 1280 236 L1280 369 Q1280 510 1167.5 591 Q1055 672 835 672 L316 672 L316 -1 L231 -1 L231 1455 Z M783 747 Q923 747 1019.5 772.5 Q1116 798 1175.5 841 Q1235 884 1261.5 941 Q1288 998 1288 1060 Q1288 1213 1167 1296 Q1046 1379 796 1379 L316 1379 L316 747 L783 747 Z " />
<glyph glyph-name="S" unicode="S" horiz-adv-x="1453" d="M197 413 Q197 345 221.5 292.5 Q246 240 287.5 200 Q329 160 384.5 132.5 Q440 105 502.5 88 Q565 71 631 63.5 Q697 56 759 56 Q872 56 965.5 77.5 Q1059 99 1126 138 Q1193 177 1230.5 231.5 Q1268 286 1268 353 Q1268 418 1240.5 468.5 Q1213 519 1151.5 560.5 Q1090 602 990 636.5 Q890 671 744 704 Q611 734 504.5 769 Q398 804 323.5 851 Q249 898 209 961.5 Q169 1025 169 1112 Q169 1196 213 1263 Q257 1330 334.5 1377.5 Q412 1425 518.5 1450.5 Q625 1476 750 1476 Q880 1476 987.5 1444 Q1095 1412 1172.5 1354.5 Q1250 1297 1293 1217.5 Q1336 1138 1336 1044 L1253 1044 Q1253 1121 1217.5 1186 Q1182 1251 1116 1298.5 Q1050 1346 957 1373 Q864 1400 750 1400 Q630 1400 537.5 1377 Q445 1354 381.5 1314.5 Q318 1275 285.5 1223 Q253 1171 253 1114 Q253 1058 277 1011 Q301 964 360 923 Q419 882 518.5 847 Q618 812 769 780 Q900 750 1008 714 Q1116 678 1193 628.5 Q1270 579 1312 512 Q1354 445 1354 355 Q1354 266 1307.5 196 Q1261 126 1180.5 78 Q1100 30 991.5 5 Q883 -20 759 -20 Q684 -20 606.5 -10 Q529 0 457.5 21.5 Q386 43 323 77 Q260 111 213.5 159.5 Q167 208 140 271 Q113 334 113 413 L197 413 Z " />
<glyph glyph-name="T" unicode="T" horiz-adv-x="1469" d="M692 1380 L65 1380 L65 1456 L1403 1456 L1403 1380 L776 1380 L776 0 L692 0 L692 1380 Z " />
<glyph glyph-name="U" unicode="U" horiz-adv-x="1633" d="M215 1456 L300 1456 L300 469 Q300 368 339.5 291 Q379 214 448 161.5 Q517 109 611.5 82.5 Q706 56 817 56 Q928 56 1022.5 82.5 Q1117 109 1186 161.5 Q1255 214 1294 291 Q1333 368 1333 469 L1333 1456 L1418 1456 L1418 469 Q1418 346 1372 254.5 Q1326 163 1245 102 Q1164 41 1054.5 10.5 Q945 -20 817 -20 Q689 -20 579 10.5 Q469 41 388 102 Q307 163 261 254.5 Q215 346 215 469 L215 1456 Z " />
<glyph glyph-name="V" unicode="V" horiz-adv-x="1478" d="M41 1456 L133 1456 L710 159 L740 77 L769 159 L1347 1456 L1439 1456 L787 0 L693 0 L41 1456 Z " />
<glyph glyph-name="W" unicode="W" horiz-adv-x="2221" d="M73 1456 L163 1456 L516 357 L589 110 L665 353 L1071 1456 L1156 1456 L1558 353 L1634 109 L1709 357 L2059 1456 L2149 1456 L1684 0 L1595 0 L1170 1182 L1113 1345 L1057 1182 L628 0 L539 0 L73 1456 Z " />
<glyph glyph-name="X" unicode="X" horiz-adv-x="1476" d="M686 741 L87 1456 L191 1456 L738 805 L1285 1456 L1389 1456 L790 741 L1410 0 L1308 0 L738 677 L166 0 L66 0 L686 741 Z " />
<glyph glyph-name="Y" unicode="Y" horiz-adv-x="1469" d="M689 551 L37 1456 L144 1456 L732 628 L1325 1456 L1426 1456 L774 551 L774 0 L689 0 L689 551 Z " />
<glyph glyph-name="Z" unicode="Z" horiz-adv-x="1469" d="M111 65 L1199 1381 L156 1381 L156 1456 L1319 1456 L1319 1397 L230 76 L1357 76 L1357 0 L111 0 L111 65 Z " />
<glyph glyph-name="bracketleft" unicode="&#x5b;" horiz-adv-x="542" d="M213 1664 L566 1664 L566 1590 L296 1590 L296 -238 L566 -238 L566 -312 L213 -312 L213 1664 Z " />
<glyph glyph-name="backslash" unicode="&#x5c;" horiz-adv-x="938" d="M67 1456 L153 1456 L882 -125 L797 -125 L67 1456 Z " />
<glyph glyph-name="bracketright" unicode="&#x5d;" horiz-adv-x="541" d="M-7 -238 L261 -238 L261 1590 L-7 1590 L-7 1664 L346 1664 L346 -312 L-7 -312 L-7 -238 Z " />
<glyph glyph-name="asciicircum" unicode="&#x5e;" horiz-adv-x="1020" d="M464 1456 L537 1456 L895 729 L807 729 L500 1347 L191 729 L105 729 L464 1456 Z " />
<glyph glyph-name="underscore" unicode="&#x5f;" horiz-adv-x="1025" d="M-1 -74 L-1 0 L1024 0 L1024 -74 L-1 -74 Z " />
<glyph glyph-name="grave" unicode="&#x60;" horiz-adv-x="659" d="M409 1264 L166 1536 L268 1536 L494 1264 L409 1264 Z " />
<glyph glyph-name="a" unicode="a" horiz-adv-x="1301" d="M146 785 Q146 847 182 904.5 Q218 962 282.5 1006 Q347 1050 436 1076 Q525 1102 631 1102 Q733 1102 818 1080.5 Q903 1059 964.5 1015.5 Q1026 972 1060 907.5 Q1094 843 1094 756 L1094 222 Q1094 193 1096 163 Q1098 133 1102.5 105 Q1107 77 1113.5 52.5 Q1120 28 1129 11 L1129 0 L1037 0 Q1024 35 1018 85.5 Q1012 136 1011 186 Q978 145 931.5 108 Q885 71 823.5 42.5 Q762 14 685.5 -3 Q609 -20 517 -20 Q425 -20 350.5 2.5 Q276 25 223 65 Q170 105 141.5 160 Q113 215 113 280 Q113 355 154 417 Q195 479 272 523 Q349 567 460 591 Q571 615 711 615 L1011 615 L1011 758 Q1011 886 912.5 957 Q814 1028 629 1028 Q544 1028 470.5 1009 Q397 990 343.5 957 Q290 924 259.5 879.5 Q229 835 229 784 L146 785 Z M1011 544 L719 544 Q597 544 500 525 Q403 506 335.5 471.5 Q268 437 232 389 Q196 341 196 282 Q196 235 219.5 194 Q243 153 285.5 122 Q328 91 388 73.5 Q448 56 520 56 Q610 56 687 73.5 Q764 91 825.5 123 Q887 155 934 199.5 Q981 244 1011 298 L1011 544 Z " />
<glyph glyph-name="b" unicode="b" horiz-adv-x="1350" d="M200 1536 L284 1536 L284 889 Q347 987 454 1044.5 Q561 1102 715 1102 Q832 1102 923.5 1063.5 Q1015 1025 1078 953.5 Q1141 882 1174 780.5 Q1207 679 1207 552 L1207 531 Q1207 408 1174 307 Q1141 206 1078.5 133 Q1016 60 925 20 Q834 -20 718 -20 Q564 -20 455 33.5 Q346 87 283 173 L281 0 L200 0 L200 1536 Z M284 285 Q307 236 344.5 194.5 Q382 153 435 122 Q488 91 557 73.5 Q626 56 713 56 Q817 56 894 92 Q971 128 1021.5 191.5 Q1072 255 1097 342 Q1122 429 1122 531 L1122 552 Q1122 654 1097.5 741 Q1073 828 1022 891.5 Q971 955 893.5 991 Q816 1027 710 1027 Q611 1027 539.5 1004 Q468 981 417.5 944.5 Q367 908 335 862 Q303 816 284 769 L284 285 Z " />
<glyph glyph-name="c" unicode="c" horiz-adv-x="1251" d="M116 562 Q116 679 151.5 778 Q187 877 255 949 Q323 1021 422.5 1061.5 Q522 1102 650 1102 Q746 1102 832.5 1077 Q919 1052 985 1003.5 Q1051 955 1092 884 Q1133 813 1137 722 L1056 722 Q1052 796 1017.5 853 Q983 910 927.5 949 Q872 988 800.5 1008 Q729 1028 650 1028 Q533 1028 447.5 990.5 Q362 953 307 889.5 Q252 826 225.5 741.5 Q199 657 199 562 L199 520 Q199 425 225.5 340 Q252 255 307 191.5 Q362 128 448 91 Q534 54 652 54 Q726 54 796.5 70.5 Q867 87 922.5 121.5 Q978 156 1014 208 Q1050 260 1056 331 L1137 331 Q1132 251 1091.5 186 Q1051 121 985 75.5 Q919 30 833.5 5 Q748 -20 652 -20 Q523 -20 423.5 20.5 Q324 61 255.5 133 Q187 205 151.5 304 Q116 403 116 520 L116 562 Z " />
<glyph glyph-name="d" unicode="d" horiz-adv-x="1350" d="M142 552 Q142 679 175.5 780.5 Q209 882 272.5 953.5 Q336 1025 427.5 1063.5 Q519 1102 634 1102 Q789 1102 896 1044.5 Q1003 987 1065 889 L1065 1536 L1149 1536 L1149 0 L1068 0 L1066 175 Q1004 88 895.5 34 Q787 -20 632 -20 Q517 -20 426 20 Q335 60 272 133 Q209 206 175.5 307 Q142 408 142 531 L142 552 Z M228 531 Q228 429 253 342 Q278 255 328.5 191.5 Q379 128 456 92 Q533 56 637 56 Q723 56 791.5 73 Q860 90 913 119.5 Q966 149 1003.5 190 Q1041 231 1065 279 L1065 776 Q1046 821 1013 866 Q980 911 929.5 947 Q879 983 807.5 1005 Q736 1027 639 1027 Q534 1027 456.5 991 Q379 955 328.5 891.5 Q278 828 253 741 Q228 654 228 552 L228 531 Z " />
<glyph glyph-name="e" unicode="e" horiz-adv-x="1246" d="M105 559 Q105 680 148.5 780 Q192 880 266.5 951.5 Q341 1023 440.5 1062.5 Q540 1102 652 1102 Q764 1102 856 1067 Q948 1032 1013.5 969 Q1079 906 1115 818.5 Q1151 731 1151 626 L1151 559 L188 559 L188 515 Q188 419 225 334.5 Q262 250 328 188 Q394 126 483.5 90 Q573 54 678 54 Q791 54 885.5 87 Q980 120 1059 202 L1115 162 Q1083 123 1040.5 89.5 Q998 56 944 32 Q890 8 823.5 -6 Q757 -20 677 -20 Q557 -20 452.5 19.5 Q348 59 270.5 130.5 Q193 202 149 300 Q105 398 105 515 L105 559 Z M1068 633 L1068 646 Q1068 722 1039 791 Q1010 860 956 912.5 Q902 965 825 996.5 Q748 1028 652 1028 Q558 1028 479 998.5 Q400 969 340 916.5 Q280 864 242.5 791.5 Q205 719 193 633 L1068 633 Z " />
<glyph glyph-name="f" unicode="f" horiz-adv-x="784" d="M302 1009 L79 1009 L79 1082 L302 1082 L302 1228 Q302 1308 326 1369 Q350 1430 395 1472 Q440 1514 505 1535.5 Q570 1557 652 1557 Q689 1557 728.5 1553.5 Q768 1550 806 1540 L795 1468 Q762 1475 732 1478 Q702 1481 655 1481 Q592 1481 542 1464 Q492 1447 457 1415 Q422 1383 403.5 1335.5 Q385 1288 385 1228 L385 1082 L720 1082 L720 1009 L385 1009 L385 0 L302 0 L302 1009 Z " />
<glyph glyph-name="g" unicode="g" horiz-adv-x="1291" d="M742 182 Q840 182 922.5 164 Q1005 146 1065 110.5 Q1125 75 1158.5 21 Q1192 -33 1192 -105 Q1192 -162 1152.5 -221.5 Q1113 -281 1036.5 -329 Q960 -377 848 -407.5 Q736 -438 592 -438 Q471 -438 379 -415.5 Q287 -393 224.5 -354.5 Q162 -316 130.5 -264.5 Q99 -213 99 -154 Q99 -101 121 -56 Q143 -11 180.5 25.5 Q218 62 267 90 Q316 118 369 137 Q331 157 307.5 190.5 Q284 224 284 275 Q284 307 293.5 333 Q303 359 318.5 381 Q334 403 354 421 Q374 439 394 453 Q342 474 300.5 504.5 Q259 535 229.5 571.5 Q200 608 184 649.5 Q168 691 168 736 L168 758 Q168 833 203 896 Q238 959 300.5 1004.5 Q363 1050 448.5 1076 Q534 1102 634 1102 Q723 1102 801 1082 L1182 1082 L1184 1009 L964 1009 Q1030 963 1066 899 Q1102 835 1102 758 L1102 736 Q1102 669 1067 609 Q1032 549 970 504 Q908 459 823 433 Q738 407 637 407 Q547 407 469 428 Q453 418 434.5 404.5 Q416 391 400.5 373.5 Q385 356 375 334 Q365 312 365 286 Q365 255 378 234.5 Q391 214 412.5 202.5 Q434 191 461.5 186.5 Q489 182 517 182 L742 182 Z M512 107 Q504 107 495 107 Q486 107 478 108 Q418 98 364 74 Q310 50 269.5 16 Q229 -18 205.5 -59.5 Q182 -101 182 -146 Q182 -191 206.5 -230.5 Q231 -270 281.5 -300 Q332 -330 409 -347 Q486 -364 592 -364 Q717 -364 813.5 -340 Q910 -316 975.5 -278 Q1041 -240 1075 -194.5 Q1109 -149 1109 -105 Q1109 -59 1088 -20.5 Q1067 18 1022.5 46.5 Q978 75 908.5 91 Q839 107 742 107 L512 107 Z M252 736 Q252 689 279 643.5 Q306 598 356.5 562 Q407 526 478 504 Q549 482 637 482 Q724 482 795 504 Q866 526 915.5 562 Q965 598 992 643.5 Q1019 689 1019 736 L1019 758 Q1019 811 991.5 860 Q964 909 914 946.5 Q864 984 792.5 1006 Q721 1028 634 1028 Q547 1028 476.5 1006 Q406 984 356 946.5 Q306 909 279 860 Q252 811 252 758 L252 736 Z " />
<glyph glyph-name="h" unicode="h" horiz-adv-x="1347" d="M202 1536 L285 1536 L285 843 Q316 899 361 946.5 Q406 994 463.5 1028.5 Q521 1063 590 1082.5 Q659 1102 738 1102 Q836 1102 912.5 1079.5 Q989 1057 1042 1009 Q1095 961 1122.5 885 Q1150 809 1150 702 L1150 0 L1067 0 L1067 702 Q1067 797 1042.5 859.5 Q1018 922 973 959.5 Q928 997 865 1012 Q802 1027 726 1027 Q628 1027 552.5 996.5 Q477 966 423 918.5 Q369 871 335 813.5 Q301 756 285 702 L285 0 L202 0 L202 1536 Z " />
<glyph glyph-name="i" unicode="i" horiz-adv-x="517" >
<g transform="translate(5,0)" >
<path fill="black" d="M214 0 L214 1082 L297 1082 L297 0 L214 0 Z " />
</g>
<g transform="translate(11,1351)" >
<path fill="black" d="M176 58 Q176 86 196.5 105.5 Q217 125 249 125 Q281 125 302.5 105.5 Q324 86 324 58 Q324 30 302.5 11.5 Q281 -7 249 -7 Q217 -7 196.5 11.5 Q176 30 176 58 Z " />
</g>
</glyph>
<glyph glyph-name="j" unicode="j" horiz-adv-x="541" d="M-157 -345 Q-137 -351 -106.5 -356 Q-76 -361 -44 -361 Q83 -361 150.5 -301.5 Q218 -242 218 -129 L218 1082 L302 1082 L302 -129 Q302 -278 211.5 -357.5 Q121 -437 -41 -437 Q-71 -437 -101.5 -432 Q-132 -427 -160 -418 L-157 -345 Z M191 1409 Q191 1437 211.5 1456.5 Q232 1476 264 1476 Q296 1476 317.5 1456.5 Q339 1437 339 1409 Q339 1381 317.5 1362.5 Q296 1344 264 1344 Q232 1344 211.5 1362.5 Q191 1381 191 1409 Z " />
<glyph glyph-name="k" unicode="k" horiz-adv-x="1173" d="M202 1536 L286 1536 L286 519 L437 644 L1002 1082 L1116 1082 L532 624 L1156 0 L1051 0 L466 572 L286 428 L286 0 L202 0 L202 1536 Z " />
<glyph glyph-name="l" unicode="l" horiz-adv-x="720" d="M219 1536 L304 1536 L304 261 Q304 196 319.5 155.5 Q335 115 361 93 Q387 71 421 63.5 Q455 56 493 56 Q529 56 558 59 Q587 62 619 66 L629 -6 Q616 -10 598 -12.5 Q580 -15 560.5 -16.5 Q541 -18 522 -19 Q503 -20 488 -20 Q427 -20 377 -6.5 Q327 7 292 39 Q257 71 238 125.5 Q219 180 219 261 L219 1536 Z " />
<glyph glyph-name="m" unicode="m" horiz-adv-x="2197" d="M190 1082 L273 1082 L274 854 L274 842 Q304 898 348.5 946 Q393 994 450 1028.5 Q507 1063 576 1082.5 Q645 1102 725 1102 Q885 1102 988.5 1043.5 Q1092 985 1126 853 Q1155 906 1200 951 Q1245 996 1304.5 1030 Q1364 1064 1437 1083 Q1510 1102 1595 1102 Q1694 1102 1771.5 1079.5 Q1849 1057 1903 1008.5 Q1957 960 1985 884.5 Q2013 809 2013 702 L2013 0 L1930 0 L1930 703 Q1930 799 1904.5 861.5 Q1879 924 1833 961 Q1787 998 1723.5 1013 Q1660 1028 1584 1027 Q1474 1026 1392.5 994 Q1311 962 1256.5 914.5 Q1202 867 1173.5 812.5 Q1145 758 1141 713 L1141 0 L1058 0 L1058 718 Q1058 808 1032.5 867.5 Q1007 927 961 962.5 Q915 998 851.5 1012.5 Q788 1027 712 1027 Q610 1027 534.5 995 Q459 963 405.5 914 Q352 865 320 806 Q288 747 274 693 L274 0 L190 0 L190 1082 Z " />
<glyph glyph-name="n" unicode="n" horiz-adv-x="1346" d="M202 1082 L284 1082 L285 851 L285 843 Q316 899 361 946.5 Q406 994 463.5 1028.5 Q521 1063 590 1082.5 Q659 1102 738 1102 Q836 1102 912.5 1079.5 Q989 1057 1042 1009 Q1095 961 1122.5 885 Q1150 809 1150 702 L1150 0 L1067 0 L1067 702 Q1067 797 1042.5 859.5 Q1018 922 973 959.5 Q928 997 865 1012 Q802 1027 726 1027 Q628 1027 552.5 996.5 Q477 966 423 918.5 Q369 871 335 813.5 Q301 756 285 702 L285 0 L202 0 L202 1082 Z " />
<glyph glyph-name="o" unicode="o" horiz-adv-x="1359" d="M108 560 Q108 679 149.5 778.5 Q191 878 266 950 Q341 1022 446 1062 Q551 1102 678 1102 Q807 1102 912.5 1062 Q1018 1022 1093 950 Q1168 878 1209 778.5 Q1250 679 1250 560 L1250 522 Q1250 404 1209 304.5 Q1168 205 1093 133 Q1018 61 913.5 20.5 Q809 -20 681 -20 Q553 -20 447.5 20.5 Q342 61 266.5 133 Q191 205 149.5 304.5 Q108 404 108 522 L108 560 Z M191 522 Q191 428 224 343.5 Q257 259 319.5 194.5 Q382 130 473 92 Q564 54 681 54 Q797 54 887 92 Q977 130 1039.5 194.5 Q1102 259 1134.5 343.5 Q1167 428 1167 522 L1167 560 Q1167 652 1134.5 736.5 Q1102 821 1039.5 885.5 Q977 950 886 989 Q795 1028 678 1028 Q563 1028 472 989 Q381 950 319 885.5 Q257 821 224 736.5 Q191 652 191 560 L191 522 Z " />
<glyph glyph-name="p" unicode="p" horiz-adv-x="1349" d="M200 1082 L281 1082 L284 893 Q348 990 455 1046 Q562 1102 715 1102 Q832 1102 923.5 1063.5 Q1015 1025 1078 953.5 Q1141 882 1174 780.5 Q1207 679 1207 552 L1207 531 Q1207 408 1174 307 Q1141 206 1078.5 133 Q1016 60 925 20 Q834 -20 718 -20 Q565 -20 456 32 Q347 84 284 167 L284 -416 L200 -416 L200 1082 Z M284 274 Q308 227 345.5 186.5 Q383 146 436 116.5 Q489 87 557.5 70.5 Q626 54 711 54 Q815 54 892.5 90 Q970 126 1021 190 Q1072 254 1097.5 341.5 Q1123 429 1123 531 L1123 552 Q1123 654 1097.5 741 Q1072 828 1021 891.5 Q970 955 892 991 Q814 1027 709 1027 Q613 1027 542 1005 Q471 983 420 948 Q369 913 336.5 868 Q304 823 284 778 L284 274 Z " />
<glyph glyph-name="q" unicode="q" horiz-adv-x="1351" d="M1066 169 Q1002 84 893.5 32 Q785 -20 632 -20 Q517 -20 426 20 Q335 60 272 133 Q209 206 175.5 307 Q142 408 142 531 L142 552 Q142 679 175.5 780.5 Q209 882 272.5 953.5 Q336 1025 427.5 1063.5 Q519 1102 635 1102 Q787 1102 894.5 1045.5 Q1002 989 1066 894 L1067 1082 L1149 1082 L1149 -416 L1066 -416 L1066 169 Z M228 531 Q228 429 253 341.5 Q278 254 329 190 Q380 126 457 90 Q534 54 638 54 Q723 54 791.5 71 Q860 88 913.5 118.5 Q967 149 1004.5 190 Q1042 231 1066 279 L1066 775 Q1047 820 1013.5 865 Q980 910 929 946.5 Q878 983 807 1005.5 Q736 1028 640 1028 Q535 1028 457.5 992 Q380 956 329 892 Q278 828 253 741 Q228 654 228 552 L228 531 Z " />
<glyph glyph-name="r" unicode="r" horiz-adv-x="824" d="M202 1082 L284 1082 L285 898 L285 872 Q339 978 441 1040 Q543 1102 696 1102 Q725 1102 749 1098.5 Q773 1095 788 1090 L781 1016 Q761 1019 739.5 1021 Q718 1023 695 1023 Q608 1023 539.5 1000 Q471 977 419.5 936.5 Q368 896 334.5 840.5 Q301 785 285 719 L285 0 L202 0 L202 1082 Z " />
<glyph glyph-name="s" unicode="s" horiz-adv-x="1228" d="M211 287 Q217 220 255.5 175 Q294 130 352 103 Q410 76 480.5 65 Q551 54 619 54 Q712 54 782.5 72.5 Q853 91 900.5 121.5 Q948 152 972.5 191 Q997 230 997 270 Q997 305 981 341 Q965 377 922.5 410 Q880 443 805 471 Q730 499 613 520 Q504 540 421 564 Q338 588 282.5 623 Q227 658 199 706 Q171 754 171 820 Q171 878 201 929.5 Q231 981 287.5 1019 Q344 1057 425.5 1079.5 Q507 1102 610 1102 Q720 1102 807 1078.5 Q894 1055 954 1013.5 Q1014 972 1046 914 Q1078 856 1078 787 L994 787 Q994 834 968.5 877.5 Q943 921 894.5 954.5 Q846 988 774.5 1008 Q703 1028 610 1028 Q515 1028 447.5 1009.5 Q380 991 337 961.5 Q294 932 274 895.5 Q254 859 254 823 Q254 784 268 751 Q282 718 323 689.5 Q364 661 439 636 Q514 611 636 588 Q753 566 837 538 Q921 510 975 472 Q1029 434 1054.5 385 Q1080 336 1080 272 Q1080 208 1047.5 154 Q1015 100 955 61.5 Q895 23 810 1.5 Q725 -20 619 -20 Q500 -20 408.5 5 Q317 30 254.5 72.5 Q192 115 160 170.5 Q128 226 128 287 L211 287 Z " />
<glyph glyph-name="t" unicode="t" horiz-adv-x="782" d="M281 1009 L42 1009 L42 1082 L281 1082 L281 1368 L366 1368 L366 1082 L655 1082 L655 1009 L366 1009 L366 261 Q366 196 381.5 155.5 Q397 115 423 93 Q449 71 483 63.5 Q517 56 555 56 Q591 56 620 59 Q649 62 681 66 L691 -6 Q678 -10 660 -12.5 Q642 -15 622.5 -16.5 Q603 -18 584 -19 Q565 -20 550 -20 Q489 -20 439 -6.5 Q389 7 354 39 Q319 71 300 125.5 Q281 180 281 261 L281 1009 Z " />
<glyph glyph-name="u" unicode="u" horiz-adv-x="1346" d="M197 1082 L280 1082 L280 391 Q280 297 306.5 233 Q333 169 379.5 129.5 Q426 90 489.5 73 Q553 56 627 56 Q730 56 805.5 76.5 Q881 97 933.5 133 Q986 169 1017 217 Q1048 265 1063 320 L1063 1082 L1148 1082 L1148 0 L1065 0 L1064 168 Q1006 81 897 30.5 Q788 -20 624 -20 Q529 -20 450.5 2.5 Q372 25 315.5 74.5 Q259 124 228 202.5 Q197 281 197 393 L197 1082 Z " />
<glyph glyph-name="v" unicode="v" horiz-adv-x="1175" d="M50 1082 L138 1082 L589 113 L1039 1082 L1127 1082 L626 0 L550 0 L50 1082 Z " />
<glyph glyph-name="w" unicode="w" horiz-adv-x="1859" d="M95 1082 L186 1082 L453 286 L513 91 L587 288 L884 1082 L964 1082 L1258 291 L1334 90 L1395 287 L1660 1082 L1753 1082 L1375 0 L1296 0 L973 833 L922 993 L868 832 L549 0 L472 0 L95 1082 Z " />
<glyph glyph-name="x" unicode="x" horiz-adv-x="1179" d="M540 553 L87 1082 L188 1082 L589 618 L989 1082 L1090 1082 L638 553 L1113 0 L1012 0 L588 489 L165 0 L64 0 L540 553 Z " />
<glyph glyph-name="y" unicode="y" horiz-adv-x="1172" d="M114 -353 Q123 -355 135 -356.5 Q147 -358 159.5 -359 Q172 -360 182.5 -360.5 Q193 -361 199 -361 Q259 -361 303.5 -346.5 Q348 -332 381.5 -305.5 Q415 -279 440 -241 Q465 -203 486 -155 L559 8 L49 1082 L139 1082 L607 114 L1042 1082 L1132 1082 L562 -177 Q546 -213 523 -258 Q500 -303 461 -342.5 Q422 -382 363 -409.5 Q304 -437 215 -437 Q205 -437 191 -436 Q177 -435 162.5 -433.5 Q148 -432 135.5 -430 Q123 -428 115 -425 L114 -353 Z " />
<glyph glyph-name="z" unicode="z" horiz-adv-x="1178" d="M104 63 L936 1007 L139 1007 L139 1082 L1051 1082 L1051 1017 L219 74 L1118 74 L1118 0 L104 0 L104 63 Z " />
<glyph glyph-name="braceleft" unicode="&#x7b;" horiz-adv-x="796" d="M381 273 Q381 335 364 384.5 Q347 434 311.5 469.5 Q276 505 220 524 Q164 543 86 543 L86 626 Q164 626 220 645 Q276 664 311.5 698.5 Q347 733 364 782.5 Q381 832 381 893 L381 1132 Q381 1211 400 1282.5 Q419 1354 464 1414.5 Q509 1475 583.5 1521.5 Q658 1568 769 1597 L790 1538 Q703 1515 641.5 1476 Q580 1437 540.5 1384.5 Q501 1332 482.5 1268 Q464 1204 464 1132 L464 893 Q464 839 451 790.5 Q438 742 410.5 701.5 Q383 661 340 631 Q297 601 237 584 Q297 567 340 537 Q383 507 410.5 466.5 Q438 426 451 376.5 Q464 327 464 273 L464 37 Q464 -109 543.5 -213.5 Q623 -318 795 -365 L769 -425 Q658 -396 583.5 -350 Q509 -304 464 -244 Q419 -184 400 -113 Q381 -42 381 37 L381 273 Z " />
<glyph glyph-name="bar" unicode="&#x7c;" horiz-adv-x="501" d="M217 -270 L217 1456 L295 1456 L295 -270 L217 -270 Z " />
<glyph glyph-name="braceright" unicode="&#x7d;" horiz-adv-x="797" d="M3 -365 Q175 -318 254 -213.5 Q333 -109 333 37 L333 273 Q333 329 346.5 378.5 Q360 428 389 468.5 Q418 509 462.5 538.5 Q507 568 570 584 Q507 600 462.5 629.5 Q418 659 389 699 Q360 739 346.5 788.5 Q333 838 333 893 L333 1132 Q333 1204 315 1268 Q297 1332 257.5 1384.5 Q218 1437 156.5 1476 Q95 1515 8 1538 L28 1597 Q140 1568 214.5 1521.5 Q289 1475 334 1414.5 Q379 1354 397.5 1282.5 Q416 1211 416 1132 L416 893 Q416 832 433 782.5 Q450 733 486 698.5 Q522 664 577.5 645 Q633 626 711 626 L711 543 Q633 543 577.5 524 Q522 505 486 469.5 Q450 434 433 384.5 Q416 335 416 273 L416 37 Q416 -42 397.5 -113 Q379 -184 334 -244 Q289 -304 214.5 -350 Q140 -396 28 -425 L3 -365 Z " />
<glyph glyph-name="asciitilde" unicode="&#x7e;" horiz-adv-x="1692" d="M188 457 Q188 523 208 582 Q228 641 269 685 Q310 729 372 754.5 Q434 780 518 780 Q572 780 617.5 770 Q663 760 705 741 Q747 722 788.5 694.5 Q830 667 877 632 Q921 599 958 576 Q995 553 1028.5 538.5 Q1062 524 1095.5 517 Q1129 510 1167 510 Q1228 510 1274.5 527.5 Q1321 545 1352.5 577.5 Q1384 610 1400.5 656 Q1417 702 1417 758 L1498 757 Q1498 693 1477 634.5 Q1456 576 1414.5 532 Q1373 488 1311 461.5 Q1249 435 1167 435 Q1113 435 1068.5 444.5 Q1024 454 982.5 473 Q941 492 899 519 Q857 546 809 582 Q766 614 731 636.5 Q696 659 662 674 Q628 689 593.5 696 Q559 703 518 703 Q400 703 334.5 640.5 Q269 578 269 457 L188 457 Z " />
<glyph glyph-name="uni00A0" unicode="&#xa0;" horiz-adv-x="591" />
<glyph glyph-name="exclamdown" unicode="&#xa1;" horiz-adv-x="500" d="M214 694 L295 694 L296 -359 L212 -359 L214 694 Z M170 1036 Q170 1064 190.5 1083.5 Q211 1103 243 1103 Q275 1103 296.5 1083.5 Q318 1064 318 1036 Q318 1008 296.5 989.5 Q275 971 243 971 Q211 971 190.5 989.5 Q170 1008 170 1036 Z " />
<glyph glyph-name="cent" unicode="&#xa2;" horiz-adv-x="1112" d="M650 -19 Q532 -12 440.5 31.5 Q349 75 286 146.5 Q223 218 190.5 313.5 Q158 409 158 520 L158 562 Q158 674 190.5 769.5 Q223 865 286 936.5 Q349 1008 440.5 1051 Q532 1094 650 1101 L650 1318 L734 1318 L734 1101 Q823 1096 902.5 1068.5 Q982 1041 1042 992.5 Q1102 944 1138.5 876 Q1175 808 1179 722 L1098 722 Q1094 796 1059.5 853 Q1025 910 969.5 949 Q914 988 842.5 1008 Q771 1028 692 1028 Q575 1028 489.5 990.5 Q404 953 349 889.5 Q294 826 267.5 741.5 Q241 657 241 562 L241 520 Q241 425 267.5 340 Q294 255 349 191.5 Q404 128 490 91 Q576 54 694 54 Q768 54 838.5 70.5 Q909 87 964.5 121.5 Q1020 156 1056 208 Q1092 260 1098 331 L1179 331 Q1175 255 1138 192.5 Q1101 130 1041 85 Q981 40 902 13 Q823 -14 734 -19 L734 -245 L650 -245 L650 -19 Z " />
<glyph glyph-name="sterling" unicode="&#xa3;" horiz-adv-x="1386" d="M118 76 L256 76 Q288 84 310.5 111.5 Q333 139 347 178 Q361 217 367 262 Q373 307 372 350 L363 658 L113 658 L113 733 L361 733 L352 1039 Q349 1143 380 1224 Q411 1305 469.5 1361 Q528 1417 611.5 1446.5 Q695 1476 797 1476 Q907 1476 991.5 1447.5 Q1076 1419 1133.5 1368 Q1191 1317 1221 1246 Q1251 1175 1251 1089 L1166 1089 Q1166 1172 1136.5 1231 Q1107 1290 1056 1327.5 Q1005 1365 937.5 1382.5 Q870 1400 794 1400 Q711 1400 643.5 1376.5 Q576 1353 528.5 1307.5 Q481 1262 455.5 1194.5 Q430 1127 430 1039 L441 733 L879 733 L879 658 L444 658 L455 350 Q458 259 439.5 190 Q421 121 380 76 L1282 76 L1282 0 L118 0 L118 76 Z " />
<glyph glyph-name="currency" unicode="&#xa4;" horiz-adv-x="1796" d="M339 207 Q263 288 220 390 Q177 492 177 608 Q177 729 223.5 834 Q270 939 351 1021 L135 1205 L196 1264 L415 1078 Q511 1152 632.5 1193 Q754 1234 892 1234 Q1031 1234 1152.5 1192.5 Q1274 1151 1370 1076 L1593 1265 L1654 1205 L1434 1018 Q1515 937 1560 832.5 Q1605 728 1605 608 Q1605 493 1563 392 Q1521 291 1446 210 L1654 33 L1593 -27 L1384 150 Q1287 70 1161.5 25 Q1036 -20 892 -20 Q749 -20 624 24.5 Q499 69 402 148 L196 -26 L135 33 L339 207 Z M259 608 Q259 494 309 394 Q359 294 445.5 219 Q532 144 647 101 Q762 58 892 58 Q1022 58 1137 101 Q1252 144 1338 219 Q1424 294 1474 394 Q1524 494 1524 608 Q1524 722 1474 821.5 Q1424 921 1338 995.5 Q1252 1070 1137 1113 Q1022 1156 892 1156 Q762 1156 647 1113 Q532 1070 445.5 995.5 Q359 921 309 821.5 Q259 722 259 608 Z " />
<glyph glyph-name="yen" unicode="&#xa5;" horiz-adv-x="1251" d="M121 395 L580 395 L580 619 L121 619 L121 689 L539 689 L37 1456 L133 1456 L600 721 L609 705 L637 705 L647 723 L1113 1456 L1209 1456 L705 689 L1125 689 L1125 619 L664 619 L664 395 L1125 395 L1125 325 L664 325 L664 0 L580 0 L580 325 L121 325 L121 395 Z " />
<glyph glyph-name="brokenbar" unicode="&#xa6;" horiz-adv-x="490" d="M203 -270 L203 490 L286 490 L286 -270 L203 -270 Z M203 698 L203 1458 L286 1458 L286 698 L203 698 Z " />
<glyph glyph-name="section" unicode="&#xa7;" horiz-adv-x="1472" d="M218 -62 Q218 -165 264 -234 Q310 -303 382.5 -344.5 Q455 -386 544.5 -403.5 Q634 -421 722 -421 Q833 -421 918.5 -400.5 Q1004 -380 1063 -343.5 Q1122 -307 1152.5 -256.5 Q1183 -206 1183 -147 Q1183 -92 1163 -49 Q1143 -6 1091.5 30 Q1040 66 951 96.5 Q862 127 723 158 Q591 185 484 217 Q377 249 301 294.5 Q225 340 183.5 402 Q142 464 142 551 Q142 655 223 726 Q304 797 446 824 Q325 871 260.5 941.5 Q196 1012 196 1125 Q196 1205 235 1269.5 Q274 1334 345.5 1380 Q417 1426 518 1451 Q619 1476 744 1476 Q873 1476 975 1448 Q1077 1420 1148 1365 Q1219 1310 1256.5 1229.5 Q1294 1149 1294 1045 L1211 1045 Q1211 1119 1180.5 1184 Q1150 1249 1091 1297.5 Q1032 1346 944.5 1374 Q857 1402 744 1402 Q624 1402 536 1380.5 Q448 1359 391 1321.5 Q334 1284 306.5 1234.5 Q279 1185 279 1128 Q279 1069 299 1024.5 Q319 980 371.5 944.5 Q424 909 515 879 Q606 849 748 817 Q882 787 988.5 755.5 Q1095 724 1168.5 680.5 Q1242 637 1281 577 Q1320 517 1320 431 Q1320 380 1298 337 Q1276 294 1235 259.5 Q1194 225 1134.5 200.5 Q1075 176 1001 162 Q1066 138 1115.5 109 Q1165 80 1198.5 43.5 Q1232 7 1249.5 -39.5 Q1267 -86 1267 -145 Q1267 -228 1228.5 -293 Q1190 -358 1118.5 -403 Q1047 -448 946.5 -471.5 Q846 -495 722 -495 Q614 -495 508.5 -473 Q403 -451 320 -401 Q237 -351 186 -268.5 Q135 -186 135 -64 L218 -62 Z M225 553 Q225 491 247.5 446.5 Q270 402 329 366.5 Q388 331 490 299.5 Q592 268 751 232 Q783 225 812 218 Q841 211 869 203 Q958 207 1026.5 226 Q1095 245 1141.5 275 Q1188 305 1212.5 344.5 Q1237 384 1237 428 Q1237 487 1211.5 532 Q1186 577 1125 614 Q1064 651 963 683.5 Q862 716 710 749 Q669 758 631.5 767 Q594 776 559 786 Q473 781 410 761 Q347 741 306 710 Q265 679 245 639 Q225 599 225 553 Z " />
<glyph glyph-name="dieresis" unicode="&#xa8;" horiz-adv-x="1079" >
<g transform="translate(22,1352)" >
<path fill="black" d="M176 58 Q176 86 196.5 105.5 Q217 125 249 125 Q281 125 302.5 105.5 Q324 86 324 58 Q324 30 302.5 11.5 Q281 -7 249 -7 Q217 -7 196.5 11.5 Q176 30 176 58 Z " />
</g>
<g transform="translate(554,1352)" >
<path fill="black" d="M176 58 Q176 86 196.5 105.5 Q217 125 249 125 Q281 125 302.5 105.5 Q324 86 324 58 Q324 30 302.5 11.5 Q281 -7 249 -7 Q217 -7 196.5 11.5 Q176 30 176 58 Z " />
</g>
</glyph>
<glyph glyph-name="copyright" unicode="&#xa9;" horiz-adv-x="1991" d="M143 729 Q143 835 173.5 931.5 Q204 1028 259.5 1111 Q315 1194 393 1261.5 Q471 1329 565.5 1376.5 Q660 1424 769 1450 Q878 1476 995 1476 Q1113 1476 1221.5 1450 Q1330 1424 1424.5 1376.5 Q1519 1329 1597 1261.5 Q1675 1194 1730.5 1111 Q1786 1028 1816.5 931.5 Q1847 835 1847 729 Q1847 623 1816.5 526.5 Q1786 430 1730.5 346.5 Q1675 263 1597 195.5 Q1519 128 1424.5 79.5 Q1330 31 1221 5 Q1112 -21 995 -21 Q878 -21 769 5 Q660 31 565.5 79.5 Q471 128 393 195.5 Q315 263 259.5 346.5 Q204 430 173.5 526.5 Q143 623 143 729 Z M219 729 Q219 586 280.5 461.5 Q342 337 447.5 245 Q553 153 694 100 Q835 47 995 47 Q1155 47 1296 100 Q1437 153 1542.5 245 Q1648 337 1709.5 461.5 Q1771 586 1771 729 Q1771 872 1709.5 996 Q1648 1120 1542.5 1211.5 Q1437 1303 1296 1355.5 Q1155 1408 995 1408 Q835 1408 694 1355.5 Q553 1303 447.5 1211.5 Q342 1120 280.5 996 Q219 872 219 729 Z M598 772 Q598 858 626 929 Q654 1000 705 1051 Q756 1102 827.5 1130.5 Q899 1159 986 1159 Q1069 1159 1136 1139.5 Q1203 1120 1250.5 1081 Q1298 1042 1323.5 983 Q1349 924 1349 846 L1274 846 Q1274 971 1199.5 1030.5 Q1125 1090 986 1090 Q912 1090 854.5 1065.5 Q797 1041 757 998.5 Q717 956 696.5 898 Q676 840 676 773 L676 685 Q676 618 696.5 560 Q717 502 757 459.5 Q797 417 854.5 393 Q912 369 986 369 Q1124 369 1198.5 427 Q1273 485 1273 612 L1348 612 Q1348 533 1322.5 474 Q1297 415 1250 376 Q1203 337 1136 317.5 Q1069 298 986 298 Q899 298 827.5 326 Q756 354 705 405 Q654 456 626 527.5 Q598 599 598 685 L598 772 Z " />
<glyph glyph-name="guillemotleft" unicode="&#xab;" horiz-adv-x="1094" >
<g transform="translate(39,-29)" >
<path fill="black" d="M130 549 L130 568 L484 942 L578 942 L231 559 L578 175 L484 175 L130 549 Z " />
</g>
<g transform="translate(324,-29)" >
<path fill="black" d="M130 549 L130 568 L484 942 L578 942 L231 559 L578 175 L484 175 L130 549 Z " />
</g>
</glyph>
<glyph glyph-name="logicalnot" unicode="&#xac;" horiz-adv-x="1326" d="M147 763 L1104 763 L1104 392 L1021 392 L1021 687 L147 687 L147 763 Z " />
<glyph glyph-name="uni00AD" unicode="&#xad;" horiz-adv-x="722" >
<path fill="black" d="M70 619 L70 693 L637 693 L637 619 L70 619 Z " />
</glyph>
<glyph glyph-name="registered" unicode="&#xae;" horiz-adv-x="2000" d="M135 729 Q135 835 165.5 931.5 Q196 1028 251.5 1111 Q307 1194 385 1261.5 Q463 1329 557.5 1376.5 Q652 1424 761 1450 Q870 1476 987 1476 Q1105 1476 1213.5 1450 Q1322 1424 1416.5 1376.5 Q1511 1329 1589 1261.5 Q1667 1194 1722.5 1111 Q1778 1028 1808.5 931.5 Q1839 835 1839 729 Q1839 623 1808.5 526.5 Q1778 430 1722.5 346.5 Q1667 263 1589 195.5 Q1511 128 1416.5 79.5 Q1322 31 1213 5 Q1104 -21 987 -21 Q870 -21 761 5 Q652 31 557.5 79.5 Q463 128 385 195.5 Q307 263 251.5 346.5 Q196 430 165.5 526.5 Q135 623 135 729 Z M210 729 Q210 586 271.5 461.5 Q333 337 438.5 245 Q544 153 685.5 100 Q827 47 987 47 Q1146 47 1287.5 100 Q1429 153 1534.5 245 Q1640 337 1701.5 461.5 Q1763 586 1763 729 Q1763 872 1701.5 996 Q1640 1120 1534.5 1211.5 Q1429 1303 1287.5 1355.5 Q1146 1408 987 1408 Q827 1408 685.5 1355.5 Q544 1303 438.5 1211.5 Q333 1120 271.5 996 Q210 872 210 729 Z M701 1158 L993 1158 Q1167 1158 1255.5 1097 Q1344 1036 1344 915 Q1344 844 1300 790 Q1256 736 1175 711 Q1216 698 1244 677.5 Q1272 657 1289 630.5 Q1306 604 1313.5 573 Q1321 542 1321 507 L1321 467 Q1321 429 1326 396 Q1331 363 1341 340 L1341 324 L1259 324 Q1253 337 1249.5 357 Q1246 377 1244.5 398 Q1243 419 1242.5 438 Q1242 457 1242 468 L1242 506 Q1242 551 1230.5 582.5 Q1219 614 1193.5 634 Q1168 654 1126.5 663.5 Q1085 673 1026 673 L778 673 L778 324 L701 324 L701 1158 Z M1018 744 Q1069 744 1114 755 Q1159 766 1192.5 787.5 Q1226 809 1246 840.5 Q1266 872 1266 914 Q1266 959 1252.5 992 Q1239 1025 1207 1046 Q1175 1067 1122.5 1077.5 Q1070 1088 993 1088 L778 1088 L778 744 L1018 744 Z " />
<glyph glyph-name="overscore" unicode="&#xaf;" horiz-adv-x="991" d="M160 1366 L160 1438 L856 1438 L856 1366 L160 1366 Z " />
<glyph glyph-name="degree" unicode="&#xb0;" horiz-adv-x="937" d="M184 1232 Q184 1282 206.5 1326.5 Q229 1371 268 1404 Q307 1437 359 1456.5 Q411 1476 470 1476 Q527 1476 578.5 1456.5 Q630 1437 668 1404 Q706 1371 728.5 1326.5 Q751 1282 751 1232 Q751 1181 728.5 1137 Q706 1093 668 1060.5 Q630 1028 578.5 1009.5 Q527 991 470 991 Q411 991 359 1009.5 Q307 1028 268 1060.5 Q229 1093 206.5 1137 Q184 1181 184 1232 Z M259 1232 Q259 1195 275 1164 Q291 1133 319.5 1110.5 Q348 1088 386.5 1075 Q425 1062 470 1062 Q514 1062 551.5 1075 Q589 1088 616 1110.5 Q643 1133 658.5 1164 Q674 1195 674 1232 Q674 1270 658.5 1301.5 Q643 1333 616 1356.5 Q589 1380 551.5 1393 Q514 1406 470 1406 Q425 1406 386.5 1393 Q348 1380 319.5 1356.5 Q291 1333 275 1301.5 Q259 1270 259 1232 Z " />
<glyph glyph-name="plusminus" unicode="&#xb1;" horiz-adv-x="1295" d="M90 815 L614 815 L614 1267 L694 1267 L694 815 L1189 815 L1189 741 L694 741 L694 289 L614 289 L614 741 L90 741 L90 815 Z M149 74 L1151 74 L1151 -1 L149 -1 L149 74 Z " />
<glyph glyph-name="twosuperior" unicode="&#xb2;" horiz-adv-x="877" d="M127 665 L126 722 L475 1011 Q570 1090 612 1144 Q654 1198 654 1244 Q654 1315 597.5 1357 Q541 1399 430 1399 Q368 1399 321.5 1385.5 Q275 1372 243.5 1348.5 Q212 1325 196 1292.5 Q180 1260 180 1222 L101 1222 Q101 1272 123.5 1316 Q146 1360 188.5 1393 Q231 1426 292 1445.5 Q353 1465 429 1465 Q497 1465 553 1450 Q609 1435 649 1406.5 Q689 1378 711 1337.5 Q733 1297 733 1245 Q733 1208 715 1171.5 Q697 1135 667 1099.5 Q637 1064 597.5 1029 Q558 994 514 960 L225 731 L786 731 L786 665 L127 665 Z " />
<glyph glyph-name="threesuperior" unicode="&#xb3;" horiz-adv-x="877" d="M172 883 Q172 847 192 817 Q212 787 248 765 Q284 743 333 731 Q382 719 440 719 Q559 719 624 761.5 Q689 804 689 879 Q689 921 668.5 950.5 Q648 980 611.5 998.5 Q575 1017 523.5 1026 Q472 1035 410 1035 L323 1035 L323 1098 L410 1098 Q473 1098 521.5 1109.5 Q570 1121 602 1141.5 Q634 1162 650.5 1189 Q667 1216 667 1247 Q667 1279 653.5 1306.5 Q640 1334 611.5 1354.5 Q583 1375 539 1387 Q495 1399 434 1399 Q383 1399 338.5 1388.5 Q294 1378 261 1358 Q228 1338 209.5 1310 Q191 1282 191 1246 L113 1246 Q113 1296 138 1336 Q163 1376 206.5 1405 Q250 1434 308.5 1449.5 Q367 1465 434 1465 Q505 1465 562.5 1450.5 Q620 1436 661 1408 Q702 1380 724.5 1339 Q747 1298 747 1246 Q747 1189 700 1141 Q653 1093 566 1069 Q666 1049 717 999.5 Q768 950 768 878 Q768 825 743 783 Q718 741 674.5 712.5 Q631 684 571 669 Q511 654 440 654 Q377 654 315 667.5 Q253 681 203.5 709.5 Q154 738 123.5 781 Q93 824 93 883 L172 883 Z " />
<glyph glyph-name="acute" unicode="&#xb4;" horiz-adv-x="631" d="M377 1536 L479 1536 L234 1264 L150 1264 L377 1536 Z " />
<glyph glyph-name="mu" unicode="&#xb5;" horiz-adv-x="1350" d="M203 1082 L284 1082 L284 444 Q284 327 313.5 251.5 Q343 176 392.5 132 Q442 88 506 71 Q570 54 639 54 Q749 54 825.5 77.5 Q902 101 952 143 Q1002 185 1029 243.5 Q1056 302 1067 372 L1067 1082 L1150 1082 L1150 0 L1074 0 L1069 191 Q1014 94 911 37 Q808 -20 649 -20 Q595 -20 542.5 -11.5 Q490 -3 443 16.5 Q396 36 355 68 Q314 100 284 146 L284 -416 L203 -416 L203 1082 Z " />
<glyph glyph-name="paragraph" unicode="&#xb6;" horiz-adv-x="1143" d="M849 0 L849 520 L704 520 Q561 520 451 555 Q341 590 266 652.5 Q191 715 152.5 801 Q114 887 114 988 Q114 1089 152.5 1174.5 Q191 1260 266 1322.5 Q341 1385 451 1420.5 Q561 1456 704 1456 L932 1456 L932 0 L849 0 Z " />
<glyph glyph-name="middot" unicode="&#xb7;" horiz-adv-x="574" d="M210 711 Q210 740 231.5 759.5 Q253 779 285 779 Q317 779 338.5 759.5 Q360 740 360 711 Q360 682 338.5 663 Q317 644 285 644 Q253 644 231.5 663 Q210 682 210 711 Z " />
<glyph glyph-name="cedilla" unicode="&#xb8;" horiz-adv-x="591" d="M103 -374 Q150 -374 199 -366.5 Q248 -359 287.5 -343 Q327 -327 352 -302 Q377 -277 377 -242 Q377 -211 363 -190 Q349 -169 321 -156 Q293 -143 251 -136 Q209 -129 154 -124 L185 0 L260 0 L247 -71 Q286 -75 323.5 -85 Q361 -95 390.5 -114.5 Q420 -134 437.5 -165 Q455 -196 455 -241 Q455 -285 431.5 -320.5 Q408 -356 363.5 -381.5 Q319 -407 255 -421 Q191 -435 111 -435 L103 -374 Z " />
<glyph glyph-name="onesuperior" unicode="&#xb9;" horiz-adv-x="877" d="M449 665 L449 1362 L156 1286 L156 1355 L516 1456 L528 1456 L528 665 L449 665 Z " />
<glyph glyph-name="guillemotright" unicode="&#xbb;" horiz-adv-x="1085" >
<g transform="translate(25,0)" >
<path fill="black" d="M472 551 L125 942 L219 942 L571 560 L571 541 L219 167 L125 167 L472 551 Z " />
</g>
<g transform="translate(323,0)" >
<path fill="black" d="M472 551 L125 942 L219 942 L571 560 L571 541 L219 167 L125 167 L472 551 Z " />
</g>
</glyph>
<glyph glyph-name="onequarter" unicode="&#xbc;" horiz-adv-x="1474" d="M1207 1311 L1270 1273 L417 135 L354 173 L1207 1311 Z M902 244 L1396 789 L1483 789 L1483 263 L1653 263 L1653 197 L1483 197 L1483 0 L1404 0 L1404 197 L904 197 L902 244 Z M459 664 L459 1361 L166 1285 L166 1354 L526 1455 L538 1455 L538 664 L459 664 Z M1404 263 L1404 707 L1355 636 L998 263 L1404 263 Z " />
<glyph glyph-name="onehalf" unicode="&#xbd;" horiz-adv-x="1525" d="M451 664 L432 664 L432 1361 L139 1285 L139 1354 L499 1455 L511 1455 L511 744 L930 1303 L993 1265 L140 127 L77 165 L451 664 Z M1023 57 L1372 346 Q1467 425 1509 479 Q1551 533 1551 579 Q1551 650 1494.5 692 Q1438 734 1327 734 Q1265 734 1218.5 720.5 Q1172 707 1140.5 683.5 Q1109 660 1093 627.5 Q1077 595 1077 557 L998 557 Q998 607 1020.5 651 Q1043 695 1085.5 728 Q1128 761 1189 780.5 Q1250 800 1326 800 Q1394 800 1450 785 Q1506 770 1546 741.5 Q1586 713 1608 672.5 Q1630 632 1630 580 Q1630 543 1612 506.5 Q1594 470 1564 434.5 Q1534 399 1494.5 364 Q1455 329 1411 295 L1122 66 L1683 66 L1683 0 L1024 0 L1023 57 Z " />
<glyph glyph-name="threequarters" unicode="&#xbe;" horiz-adv-x="1588" d="M445 656 Q388 661 334 677 Q280 693 238.5 721 Q197 749 171.5 789.5 Q146 830 146 883 L225 883 Q225 847 245 817 Q265 787 301 765 Q337 743 386 731 Q435 719 492 719 L690 983 Q653 1010 595 1022.5 Q537 1035 463 1035 L376 1035 L376 1098 L463 1098 Q526 1098 574.5 1109.5 Q623 1121 655 1141.5 Q687 1162 703.5 1189 Q720 1216 720 1247 Q720 1279 706.5 1306.5 Q693 1334 664.5 1354.5 Q636 1375 592 1387 Q548 1399 487 1399 Q436 1399 391.5 1388.5 Q347 1378 314 1358 Q281 1338 262.5 1310 Q244 1282 244 1246 L166 1246 Q166 1296 191 1336 Q216 1376 259.5 1405 Q303 1434 361.5 1449.5 Q420 1465 487 1465 Q558 1465 615.5 1450.5 Q673 1436 714 1408 Q755 1380 777.5 1339 Q800 1298 800 1246 Q800 1189 753 1141 Q706 1093 619 1069 Q681 1056 726 1031 L930 1303 L993 1265 L783 985 Q821 939 821 878 Q821 829 800 789.5 Q779 750 741 721.5 Q703 693 650.5 676.5 Q598 660 536 655 L140 127 L77 165 L445 656 Z M899 244 L1393 789 L1480 789 L1480 263 L1650 263 L1650 197 L1480 197 L1480 0 L1401 0 L1401 197 L901 197 L899 244 Z M1401 263 L1401 707 L1352 636 L995 263 L1401 263 Z M591 728 Q664 744 703 783 Q742 822 742 879 Q742 903 736 922 L591 728 Z " />
<glyph glyph-name="questiondown" unicode="&#xbf;" horiz-adv-x="1102" d="M990 -21 Q989 -111 954.5 -178.5 Q920 -246 861.5 -291 Q803 -336 724.5 -359 Q646 -382 556 -382 Q454 -382 374 -355.5 Q294 -329 238.5 -280.5 Q183 -232 154 -164 Q125 -96 125 -13 Q125 62 147 124.5 Q169 187 209 241.5 Q249 296 305 344.5 Q361 393 428 440 Q471 469 494.5 496 Q518 523 529.5 552.5 Q541 582 543 616 Q545 650 545 692 L628 692 Q627 633 622.5 593 Q618 553 602 520 Q586 487 555.5 455.5 Q525 424 471 381 Q418 339 370.5 299.5 Q323 260 287 214.5 Q251 169 229.5 114 Q208 59 208 -14 Q208 -152 297 -229 Q386 -306 556 -306 Q639 -306 703.5 -285.5 Q768 -265 812.5 -227.5 Q857 -190 881 -137.5 Q905 -85 907 -21 L990 -21 Z M506 1034 Q506 1062 526.5 1081.5 Q547 1101 579 1101 Q611 1101 632.5 1081.5 Q654 1062 654 1034 Q654 1006 632.5 987.5 Q611 969 579 969 Q547 969 526.5 987.5 Q506 1006 506 1034 Z " />
<glyph glyph-name="Agrave" unicode="&#xc0;" horiz-adv-x="1483" >
<path fill="black" d="M694 1456 L788 1456 L1444 0 L1353 0 L1163 424 L320 424 L130 0 L39 0 L694 1456 Z M1129 499 L741 1364 L354 499 L1129 499 Z " />
<g transform="translate(309,318)" >
<path fill="black" d="M409 1264 L166 1536 L268 1536 L494 1264 L409 1264 Z " />
</g>
</glyph>
<glyph glyph-name="Aacute" unicode="&#xc1;" horiz-adv-x="1483" >
<path fill="black" d="M694 1456 L788 1456 L1444 0 L1353 0 L1163 424 L320 424 L130 0 L39 0 L694 1456 Z M1129 499 L741 1364 L354 499 L1129 499 Z " />
<g transform="translate(536,318)" >
<path fill="black" d="M377 1536 L479 1536 L234 1264 L150 1264 L377 1536 Z " />
</g>
</glyph>
<glyph glyph-name="Acircumflex" unicode="&#xc2;" horiz-adv-x="1483" >
<path fill="black" d="M694 1456 L788 1456 L1444 0 L1353 0 L1163 424 L320 424 L130 0 L39 0 L694 1456 Z M1129 499 L741 1364 L354 499 L1129 499 Z " />
<g transform="translate(251,318)" >
<path fill="black" d="M185 1275 L463 1521 L522 1521 L803 1272 L803 1262 L710 1262 L491 1452 L274 1262 L185 1262 L185 1275 Z " />
</g>
</glyph>
<glyph glyph-name="Atilde" unicode="&#xc3;" horiz-adv-x="1483" >
<path fill="black" d="M694 1456 L788 1456 L1444 0 L1353 0 L1163 424 L320 424 L130 0 L39 0 L694 1456 Z M1129 499 L741 1364 L354 499 L1129 499 Z " />
<g transform="translate(251,330)" >
<path fill="black" d="M113 1278 Q113 1322 129.5 1358 Q146 1394 175.5 1419 Q205 1444 244.5 1457.5 Q284 1471 329 1471 Q391 1471 433 1452.5 Q475 1434 511.5 1412 Q548 1390 584.5 1371.5 Q621 1353 671 1353 Q700 1353 726 1361.5 Q752 1370 771.5 1386.5 Q791 1403 802.5 1426.5 Q814 1450 814 1480 L890 1478 Q890 1433 873 1396.5 Q856 1360 826.5 1334 Q797 1308 757 1294 Q717 1280 672 1280 Q608 1280 566.5 1298.5 Q525 1317 490.5 1339.5 Q456 1362 420 1380.5 Q384 1399 331 1399 Q301 1399 275.5 1391 Q250 1383 230.5 1367.5 Q211 1352 200 1329.5 Q189 1307 189 1277 L113 1278 Z " />
</g>
</glyph>
<glyph glyph-name="Adieresis" unicode="&#xc4;" horiz-adv-x="1483" >
<path fill="black" d="M694 1456 L788 1456 L1444 0 L1353 0 L1163 424 L320 424 L130 0 L39 0 L694 1456 Z M1129 499 L741 1364 L354 499 L1129 499 Z " />
<g transform="translate(229,1670)" >
<path fill="black" d="M176 58 Q176 86 196.5 105.5 Q217 125 249 125 Q281 125 302.5 105.5 Q324 86 324 58 Q324 30 302.5 11.5 Q281 -7 249 -7 Q217 -7 196.5 11.5 Q176 30 176 58 Z " />
</g>
<g transform="translate(761,1670)" >
<path fill="black" d="M176 58 Q176 86 196.5 105.5 Q217 125 249 125 Q281 125 302.5 105.5 Q324 86 324 58 Q324 30 302.5 11.5 Q281 -7 249 -7 Q217 -7 196.5 11.5 Q176 30 176 58 Z " />
</g>
</glyph>
<glyph glyph-name="Aring" unicode="&#xc5;" horiz-adv-x="1483" >
<path fill="black" d="M694 1456 L788 1456 L1444 0 L1353 0 L1163 424 L320 424 L130 0 L39 0 L694 1456 Z M1129 499 L741 1364 L354 499 L1129 499 Z " />
<g transform="translate(397,320)" >
<path fill="black" d="M138 1388 Q138 1426 154 1459 Q170 1492 198.5 1516.5 Q227 1541 265.5 1555 Q304 1569 349 1569 Q393 1569 431.5 1555 Q470 1541 498.5 1516.5 Q527 1492 543.5 1459 Q560 1426 560 1388 Q560 1350 543.5 1317.5 Q527 1285 498.5 1261 Q470 1237 431.5 1223.5 Q393 1210 349 1210 Q304 1210 265.5 1223.5 Q227 1237 198.5 1261 Q170 1285 154 1317.5 Q138 1350 138 1388 Z M208 1388 Q208 1363 218.5 1341.5 Q229 1320 248 1304.5 Q267 1289 292.5 1280.5 Q318 1272 349 1272 Q411 1272 450 1304.5 Q489 1337 489 1388 Q489 1440 450 1473.5 Q411 1507 349 1507 Q318 1507 292.5 1498 Q267 1489 248 1473.5 Q229 1458 218.5 1436 Q208 1414 208 1388 Z " />
</g>
</glyph>
<glyph glyph-name="AE" unicode="&#xc6;" horiz-adv-x="2194" d="M1108 1456 L2064 1456 L2064 1382 L1231 1382 L1260 796 L1966 796 L1966 722 L1264 722 L1296 74 L2138 74 L2138 0 L1217 0 L1196 410 L449 410 L152 0 L51 0 L1108 1456 Z M1193 488 L1148 1375 L506 488 L1193 488 Z " />
<glyph glyph-name="Ccedilla" unicode="&#xc7;" horiz-adv-x="1594" d="M697 -384 Q744 -384 793 -376.5 Q842 -369 881.5 -353 Q921 -337 946 -312 Q971 -287 971 -252 Q971 -221 957 -200 Q943 -179 915 -166 Q887 -153 845 -146 Q803 -139 748 -134 L777 -19 Q638 -14 526 35 Q414 84 335 168.5 Q256 253 213 369.5 Q170 486 170 627 L170 829 Q170 974 215.5 1093 Q261 1212 344.5 1297 Q428 1382 546 1429 Q664 1476 810 1476 Q944 1476 1053 1446 Q1162 1416 1243 1356.5 Q1324 1297 1373.5 1209.5 Q1423 1122 1436 1007 L1351 1007 Q1324 1198 1188.5 1299 Q1053 1400 810 1400 Q684 1400 581.5 1359 Q479 1318 406.5 1243.5 Q334 1169 294 1064 Q254 959 254 831 L254 627 Q254 500 293.5 395 Q333 290 405 214.5 Q477 139 579.5 97.5 Q682 56 808 56 Q1048 56 1186 152 Q1324 248 1351 449 L1436 449 Q1423 339 1377 254 Q1331 169 1256 110 Q1181 51 1079 18.5 Q977 -14 852 -19 L841 -81 Q880 -85 917.5 -95 Q955 -105 984.5 -124.5 Q1014 -144 1031.5 -175 Q1049 -206 1049 -251 Q1049 -295 1025.5 -330.5 Q1002 -366 957.5 -391.5 Q913 -417 849 -431 Q785 -445 705 -445 L697 -384 Z " />
<glyph glyph-name="Egrave" unicode="&#xc8;" horiz-adv-x="1399" >
<path fill="black" d="M235 1456 L1303 1456 L1303 1380 L320 1380 L320 787 L1182 787 L1182 712 L320 712 L320 76 L1304 76 L1304 0 L235 0 L235 1456 Z " />
<g transform="translate(309,320)" >
<path fill="black" d="M409 1264 L166 1536 L268 1536 L494 1264 L409 1264 Z " />
</g>
</glyph>
<glyph glyph-name="Eacute" unicode="&#xc9;" horiz-adv-x="1399" >
<path fill="black" d="M235 1456 L1303 1456 L1303 1380 L320 1380 L320 787 L1182 787 L1182 712 L320 712 L320 76 L1304 76 L1304 0 L235 0 L235 1456 Z " />
<g transform="translate(536,320)" >
<path fill="black" d="M377 1536 L479 1536 L234 1264 L150 1264 L377 1536 Z " />
</g>
</glyph>
<glyph glyph-name="Ecircumflex" unicode="&#xca;" horiz-adv-x="1399" >
<path fill="black" d="M235 1456 L1303 1456 L1303 1380 L320 1380 L320 787 L1182 787 L1182 712 L320 712 L320 76 L1304 76 L1304 0 L235 0 L235 1456 Z " />
<g transform="translate(251,320)" >
<path fill="black" d="M185 1275 L463 1521 L522 1521 L803 1272 L803 1262 L710 1262 L491 1452 L274 1262 L185 1262 L185 1275 Z " />
</g>
</glyph>
<glyph glyph-name="Edieresis" unicode="&#xcb;" horiz-adv-x="1399" >
<path fill="black" d="M235 1456 L1303 1456 L1303 1380 L320 1380 L320 787 L1182 787 L1182 712 L320 712 L320 76 L1304 76 L1304 0 L235 0 L235 1456 Z " />
<g transform="translate(229,1672)" >
<path fill="black" d="M176 58 Q176 86 196.5 105.5 Q217 125 249 125 Q281 125 302.5 105.5 Q324 86 324 58 Q324 30 302.5 11.5 Q281 -7 249 -7 Q217 -7 196.5 11.5 Q176 30 176 58 Z " />
</g>
<g transform="translate(761,1672)" >
<path fill="black" d="M176 58 Q176 86 196.5 105.5 Q217 125 249 125 Q281 125 302.5 105.5 Q324 86 324 58 Q324 30 302.5 11.5 Q281 -7 249 -7 Q217 -7 196.5 11.5 Q176 30 176 58 Z " />
</g>
</glyph>
<glyph glyph-name="Igrave" unicode="&#xcc;" horiz-adv-x="644" >
<path fill="black" d="M280 0 L280 1456 L365 1456 L365 0 L280 0 Z " />
<g transform="translate(-111,320)" >
<path fill="black" d="M409 1264 L166 1536 L268 1536 L494 1264 L409 1264 Z " />
</g>
</glyph>
<glyph glyph-name="Iacute" unicode="&#xcd;" horiz-adv-x="644" >
<path fill="black" d="M280 0 L280 1456 L365 1456 L365 0 L280 0 Z " />
<g transform="translate(116,320)" >
<path fill="black" d="M377 1536 L479 1536 L234 1264 L150 1264 L377 1536 Z " />
</g>
</glyph>
<glyph glyph-name="Icircumflex" unicode="&#xce;" horiz-adv-x="644" >
<g transform="translate(-169,320)" >
<path fill="black" d="M185 1275 L463 1521 L522 1521 L803 1272 L803 1262 L710 1262 L491 1452 L274 1262 L185 1262 L185 1275 Z " />
</g>
<path fill="black" d="M280 0 L280 1456 L365 1456 L365 0 L280 0 Z " />
</glyph>
<glyph glyph-name="Idieresis" unicode="&#xcf;" horiz-adv-x="644" >
<path fill="black" d="M280 0 L280 1456 L365 1456 L365 0 L280 0 Z " />
<g transform="translate(-191,1672)" >
<path fill="black" d="M176 58 Q176 86 196.5 105.5 Q217 125 249 125 Q281 125 302.5 105.5 Q324 86 324 58 Q324 30 302.5 11.5 Q281 -7 249 -7 Q217 -7 196.5 11.5 Q176 30 176 58 Z " />
</g>
<g transform="translate(341,1672)" >
<path fill="black" d="M176 58 Q176 86 196.5 105.5 Q217 125 249 125 Q281 125 302.5 105.5 Q324 86 324 58 Q324 30 302.5 11.5 Q281 -7 249 -7 Q217 -7 196.5 11.5 Q176 30 176 58 Z " />
</g>
</glyph>
<glyph glyph-name="Eth" unicode="&#xd0;" horiz-adv-x="1608" d="M235 703 L64 703 L64 778 L235 778 L235 1456 L720 1456 Q877 1456 1010 1409 Q1143 1362 1240 1277 Q1337 1192 1392 1072.5 Q1447 953 1447 807 L1447 648 Q1447 503 1392.5 383.5 Q1338 264 1240.5 179 Q1143 94 1009.5 47 Q876 0 718 0 L235 0 L235 703 Z M718 76 Q859 76 977 118 Q1095 160 1181 235.5 Q1267 311 1315 416.5 Q1363 522 1363 648 L1363 810 Q1363 937 1315 1042 Q1267 1147 1181 1222 Q1095 1297 977.5 1338.5 Q860 1380 720 1380 L320 1380 L320 778 L775 778 L775 703 L320 703 L320 76 L718 76 Z " />
<glyph glyph-name="Ntilde" unicode="&#xd1;" horiz-adv-x="1741" >
<path fill="black" d="M235 1456 L321 1456 L1420 134 L1420 1456 L1504 1456 L1504 0 L1420 0 L321 1323 L321 0 L235 0 L235 1456 Z " />
<g transform="translate(379,330)" >
<path fill="black" d="M113 1278 Q113 1322 129.5 1358 Q146 1394 175.5 1419 Q205 1444 244.5 1457.5 Q284 1471 329 1471 Q391 1471 433 1452.5 Q475 1434 511.5 1412 Q548 1390 584.5 1371.5 Q621 1353 671 1353 Q700 1353 726 1361.5 Q752 1370 771.5 1386.5 Q791 1403 802.5 1426.5 Q814 1450 814 1480 L890 1478 Q890 1433 873 1396.5 Q856 1360 826.5 1334 Q797 1308 757 1294 Q717 1280 672 1280 Q608 1280 566.5 1298.5 Q525 1317 490.5 1339.5 Q456 1362 420 1380.5 Q384 1399 331 1399 Q301 1399 275.5 1391 Q250 1383 230.5 1367.5 Q211 1352 200 1329.5 Q189 1307 189 1277 L113 1278 Z " />
</g>
</glyph>
<glyph glyph-name="Ograve" unicode="&#xd2;" horiz-adv-x="1644" >
<path fill="black" d="M158 824 Q158 971 205 1091 Q252 1211 338.5 1296.5 Q425 1382 547.5 1429 Q670 1476 821 1476 Q973 1476 1095.5 1429 Q1218 1382 1305 1296.5 Q1392 1211 1439 1091 Q1486 971 1486 824 L1486 632 Q1486 485 1439.5 365 Q1393 245 1306.5 159.5 Q1220 74 1097.5 27 Q975 -20 823 -20 Q672 -20 549.5 27 Q427 74 340 159.5 Q253 245 205.5 365 Q158 485 158 632 L158 824 Z M243 632 Q243 503 282.5 397 Q322 291 396.5 215.5 Q471 140 579 98.5 Q687 57 823 57 Q961 57 1068.5 98.5 Q1176 140 1250.5 215.5 Q1325 291 1363.5 397 Q1402 503 1402 632 L1402 826 Q1402 954 1363 1059.5 Q1324 1165 1249.5 1240.5 Q1175 1316 1067 1357.5 Q959 1399 821 1399 Q685 1399 577.5 1357.5 Q470 1316 395.5 1240.5 Q321 1165 282 1059.5 Q243 954 243 826 L243 632 Z " />
<g transform="translate(382,335)" >
<path fill="black" d="M409 1264 L166 1536 L268 1536 L494 1264 L409 1264 Z " />
</g>
</glyph>
<glyph glyph-name="Oacute" unicode="&#xd3;" horiz-adv-x="1644" >
<path fill="black" d="M158 824 Q158 971 205 1091 Q252 1211 338.5 1296.5 Q425 1382 547.5 1429 Q670 1476 821 1476 Q973 1476 1095.5 1429 Q1218 1382 1305 1296.5 Q1392 1211 1439 1091 Q1486 971 1486 824 L1486 632 Q1486 485 1439.5 365 Q1393 245 1306.5 159.5 Q1220 74 1097.5 27 Q975 -20 823 -20 Q672 -20 549.5 27 Q427 74 340 159.5 Q253 245 205.5 365 Q158 485 158 632 L158 824 Z M243 632 Q243 503 282.5 397 Q322 291 396.5 215.5 Q471 140 579 98.5 Q687 57 823 57 Q961 57 1068.5 98.5 Q1176 140 1250.5 215.5 Q1325 291 1363.5 397 Q1402 503 1402 632 L1402 826 Q1402 954 1363 1059.5 Q1324 1165 1249.5 1240.5 Q1175 1316 1067 1357.5 Q959 1399 821 1399 Q685 1399 577.5 1357.5 Q470 1316 395.5 1240.5 Q321 1165 282 1059.5 Q243 954 243 826 L243 632 Z " />
<g transform="translate(609,335)" >
<path fill="black" d="M377 1536 L479 1536 L234 1264 L150 1264 L377 1536 Z " />
</g>
</glyph>
<glyph glyph-name="Ocircumflex" unicode="&#xd4;" horiz-adv-x="1644" >
<path fill="black" d="M158 824 Q158 971 205 1091 Q252 1211 338.5 1296.5 Q425 1382 547.5 1429 Q670 1476 821 1476 Q973 1476 1095.5 1429 Q1218 1382 1305 1296.5 Q1392 1211 1439 1091 Q1486 971 1486 824 L1486 632 Q1486 485 1439.5 365 Q1393 245 1306.5 159.5 Q1220 74 1097.5 27 Q975 -20 823 -20 Q672 -20 549.5 27 Q427 74 340 159.5 Q253 245 205.5 365 Q158 485 158 632 L158 824 Z M243 632 Q243 503 282.5 397 Q322 291 396.5 215.5 Q471 140 579 98.5 Q687 57 823 57 Q961 57 1068.5 98.5 Q1176 140 1250.5 215.5 Q1325 291 1363.5 397 Q1402 503 1402 632 L1402 826 Q1402 954 1363 1059.5 Q1324 1165 1249.5 1240.5 Q1175 1316 1067 1357.5 Q959 1399 821 1399 Q685 1399 577.5 1357.5 Q470 1316 395.5 1240.5 Q321 1165 282 1059.5 Q243 954 243 826 L243 632 Z " />
<g transform="translate(324,335)" >
<path fill="black" d="M185 1275 L463 1521 L522 1521 L803 1272 L803 1262 L710 1262 L491 1452 L274 1262 L185 1262 L185 1275 Z " />
</g>
</glyph>
<glyph glyph-name="Otilde" unicode="&#xd5;" horiz-adv-x="1644" >
<path fill="black" d="M158 824 Q158 971 205 1091 Q252 1211 338.5 1296.5 Q425 1382 547.5 1429 Q670 1476 821 1476 Q973 1476 1095.5 1429 Q1218 1382 1305 1296.5 Q1392 1211 1439 1091 Q1486 971 1486 824 L1486 632 Q1486 485 1439.5 365 Q1393 245 1306.5 159.5 Q1220 74 1097.5 27 Q975 -20 823 -20 Q672 -20 549.5 27 Q427 74 340 159.5 Q253 245 205.5 365 Q158 485 158 632 L158 824 Z M243 632 Q243 503 282.5 397 Q322 291 396.5 215.5 Q471 140 579 98.5 Q687 57 823 57 Q961 57 1068.5 98.5 Q1176 140 1250.5 215.5 Q1325 291 1363.5 397 Q1402 503 1402 632 L1402 826 Q1402 954 1363 1059.5 Q1324 1165 1249.5 1240.5 Q1175 1316 1067 1357.5 Q959 1399 821 1399 Q685 1399 577.5 1357.5 Q470 1316 395.5 1240.5 Q321 1165 282 1059.5 Q243 954 243 826 L243 632 Z " />
<g transform="translate(324,347)" >
<path fill="black" d="M113 1278 Q113 1322 129.5 1358 Q146 1394 175.5 1419 Q205 1444 244.5 1457.5 Q284 1471 329 1471 Q391 1471 433 1452.5 Q475 1434 511.5 1412 Q548 1390 584.5 1371.5 Q621 1353 671 1353 Q700 1353 726 1361.5 Q752 1370 771.5 1386.5 Q791 1403 802.5 1426.5 Q814 1450 814 1480 L890 1478 Q890 1433 873 1396.5 Q856 1360 826.5 1334 Q797 1308 757 1294 Q717 1280 672 1280 Q608 1280 566.5 1298.5 Q525 1317 490.5 1339.5 Q456 1362 420 1380.5 Q384 1399 331 1399 Q301 1399 275.5 1391 Q250 1383 230.5 1367.5 Q211 1352 200 1329.5 Q189 1307 189 1277 L113 1278 Z " />
</g>
</glyph>
<glyph glyph-name="Odieresis" unicode="&#xd6;" horiz-adv-x="1644" >
<path fill="black" d="M158 824 Q158 971 205 1091 Q252 1211 338.5 1296.5 Q425 1382 547.5 1429 Q670 1476 821 1476 Q973 1476 1095.5 1429 Q1218 1382 1305 1296.5 Q1392 1211 1439 1091 Q1486 971 1486 824 L1486 632 Q1486 485 1439.5 365 Q1393 245 1306.5 159.5 Q1220 74 1097.5 27 Q975 -20 823 -20 Q672 -20 549.5 27 Q427 74 340 159.5 Q253 245 205.5 365 Q158 485 158 632 L158 824 Z M243 632 Q243 503 282.5 397 Q322 291 396.5 215.5 Q471 140 579 98.5 Q687 57 823 57 Q961 57 1068.5 98.5 Q1176 140 1250.5 215.5 Q1325 291 1363.5 397 Q1402 503 1402 632 L1402 826 Q1402 954 1363 1059.5 Q1324 1165 1249.5 1240.5 Q1175 1316 1067 1357.5 Q959 1399 821 1399 Q685 1399 577.5 1357.5 Q470 1316 395.5 1240.5 Q321 1165 282 1059.5 Q243 954 243 826 L243 632 Z " />
<g transform="translate(302,1687)" >
<path fill="black" d="M176 58 Q176 86 196.5 105.5 Q217 125 249 125 Q281 125 302.5 105.5 Q324 86 324 58 Q324 30 302.5 11.5 Q281 -7 249 -7 Q217 -7 196.5 11.5 Q176 30 176 58 Z " />
</g>
<g transform="translate(834,1687)" >
<path fill="black" d="M176 58 Q176 86 196.5 105.5 Q217 125 249 125 Q281 125 302.5 105.5 Q324 86 324 58 Q324 30 302.5 11.5 Q281 -7 249 -7 Q217 -7 196.5 11.5 Q176 30 176 58 Z " />
</g>
</glyph>
<glyph glyph-name="multiply" unicode="&#xd7;" horiz-adv-x="1268" d="M565 479 L145 836 L203 893 L627 532 L1051 893 L1109 836 L689 480 L1139 97 L1081 42 L627 427 L174 42 L116 97 L565 479 Z " />
<glyph glyph-name="Oslash" unicode="&#xd8;" horiz-adv-x="1374" d="M370 132 Q268 218 213 345 Q158 472 158 632 L158 824 Q158 971 205 1091 Q252 1211 338.5 1296.5 Q425 1382 547.5 1429 Q670 1476 821 1476 Q961 1476 1075 1436.5 Q1189 1397 1275 1324 L1408 1499 L1498 1499 L1327 1274 Q1404 1189 1445 1075.5 Q1486 962 1486 824 L1486 632 Q1486 485 1439.5 365 Q1393 245 1306.5 159.5 Q1220 74 1097.5 27 Q975 -20 823 -20 Q706 -20 607 7.5 Q508 35 428 88 L301 -79 L210 -79 L370 132 Z M1228 1261 Q1153 1327 1051.5 1363 Q950 1399 821 1399 Q685 1399 577.5 1357.5 Q470 1316 395.5 1240.5 Q321 1165 282 1059.5 Q243 954 243 826 L243 632 Q243 493 288 382 Q333 271 418 195 L1228 1261 Z M1402 826 Q1402 942 1370.5 1038.5 Q1339 1135 1278 1209 L475 151 Q544 105 631 81 Q718 57 823 57 Q961 57 1068.5 98.5 Q1176 140 1250.5 215.5 Q1325 291 1363.5 397 Q1402 503 1402 632 L1402 826 Z " />
<glyph glyph-name="Ugrave" unicode="&#xd9;" horiz-adv-x="1633" >
<path fill="black" d="M215 1456 L300 1456 L300 469 Q300 368 339.5 291 Q379 214 448 161.5 Q517 109 611.5 82.5 Q706 56 817 56 Q928 56 1022.5 82.5 Q1117 109 1186 161.5 Q1255 214 1294 291 Q1333 368 1333 469 L1333 1456 L1418 1456 L1418 469 Q1418 346 1372 254.5 Q1326 163 1245 102 Q1164 41 1054.5 10.5 Q945 -20 817 -20 Q689 -20 579 10.5 Q469 41 388 102 Q307 163 261 254.5 Q215 346 215 469 L215 1456 Z " />
<g transform="translate(398,318)" >
<path fill="black" d="M409 1264 L166 1536 L268 1536 L494 1264 L409 1264 Z " />
</g>
</glyph>
<glyph glyph-name="Uacute" unicode="&#xda;" horiz-adv-x="1633" >
<path fill="black" d="M215 1456 L300 1456 L300 469 Q300 368 339.5 291 Q379 214 448 161.5 Q517 109 611.5 82.5 Q706 56 817 56 Q928 56 1022.5 82.5 Q1117 109 1186 161.5 Q1255 214 1294 291 Q1333 368 1333 469 L1333 1456 L1418 1456 L1418 469 Q1418 346 1372 254.5 Q1326 163 1245 102 Q1164 41 1054.5 10.5 Q945 -20 817 -20 Q689 -20 579 10.5 Q469 41 388 102 Q307 163 261 254.5 Q215 346 215 469 L215 1456 Z " />
<g transform="translate(625,318)" >
<path fill="black" d="M377 1536 L479 1536 L234 1264 L150 1264 L377 1536 Z " />
</g>
</glyph>
<glyph glyph-name="Ucircumflex" unicode="&#xdb;" horiz-adv-x="1633" >
<path fill="black" d="M215 1456 L300 1456 L300 469 Q300 368 339.5 291 Q379 214 448 161.5 Q517 109 611.5 82.5 Q706 56 817 56 Q928 56 1022.5 82.5 Q1117 109 1186 161.5 Q1255 214 1294 291 Q1333 368 1333 469 L1333 1456 L1418 1456 L1418 469 Q1418 346 1372 254.5 Q1326 163 1245 102 Q1164 41 1054.5 10.5 Q945 -20 817 -20 Q689 -20 579 10.5 Q469 41 388 102 Q307 163 261 254.5 Q215 346 215 469 L215 1456 Z " />
<g transform="translate(340,318)" >
<path fill="black" d="M185 1275 L463 1521 L522 1521 L803 1272 L803 1262 L710 1262 L491 1452 L274 1262 L185 1262 L185 1275 Z " />
</g>
</glyph>
<glyph glyph-name="Udieresis" unicode="&#xdc;" horiz-adv-x="1633" >
<path fill="black" d="M215 1456 L300 1456 L300 469 Q300 368 339.5 291 Q379 214 448 161.5 Q517 109 611.5 82.5 Q706 56 817 56 Q928 56 1022.5 82.5 Q1117 109 1186 161.5 Q1255 214 1294 291 Q1333 368 1333 469 L1333 1456 L1418 1456 L1418 469 Q1418 346 1372 254.5 Q1326 163 1245 102 Q1164 41 1054.5 10.5 Q945 -20 817 -20 Q689 -20 579 10.5 Q469 41 388 102 Q307 163 261 254.5 Q215 346 215 469 L215 1456 Z " />
<g transform="translate(318,1670)" >
<path fill="black" d="M176 58 Q176 86 196.5 105.5 Q217 125 249 125 Q281 125 302.5 105.5 Q324 86 324 58 Q324 30 302.5 11.5 Q281 -7 249 -7 Q217 -7 196.5 11.5 Q176 30 176 58 Z " />
</g>
<g transform="translate(850,1670)" >
<path fill="black" d="M176 58 Q176 86 196.5 105.5 Q217 125 249 125 Q281 125 302.5 105.5 Q324 86 324 58 Q324 30 302.5 11.5 Q281 -7 249 -7 Q217 -7 196.5 11.5 Q176 30 176 58 Z " />
</g>
</glyph>
<glyph glyph-name="Yacute" unicode="&#xdd;" horiz-adv-x="1469" >
<path fill="black" d="M689 551 L37 1456 L144 1456 L732 628 L1325 1456 L1426 1456 L774 551 L774 0 L689 0 L689 551 Z " />
<g transform="translate(524,309)" >
<path fill="black" d="M377 1536 L479 1536 L234 1264 L150 1264 L377 1536 Z " />
</g>
</glyph>
<glyph glyph-name="Thorn" unicode="&#xde;" horiz-adv-x="1461" d="M235 1456 L318 1456 L318 1147 L750 1147 Q882 1147 984 1116 Q1086 1085 1155 1030.5 Q1224 976 1259.5 901 Q1295 826 1295 738 Q1295 650 1259.5 575 Q1224 500 1155 445.5 Q1086 391 984 360.5 Q882 330 750 330 L318 330 L318 0 L235 0 L235 1456 Z M750 404 Q873 404 960.5 433.5 Q1048 463 1104 510.5 Q1160 558 1186 617 Q1212 676 1212 736 Q1212 798 1186 858.5 Q1160 919 1104 966.5 Q1048 1014 960.5 1043.5 Q873 1073 750 1073 L318 1073 L318 404 L750 404 Z " />
<glyph glyph-name="germandbls" unicode="&#xdf;" horiz-adv-x="1426" d="M194 0 L194 1136 Q194 1333 299 1436 Q404 1539 597 1539 Q671 1539 740.5 1519 Q810 1499 863 1461.5 Q916 1424 948 1370.5 Q980 1317 980 1249 Q980 1200 969.5 1163.5 Q959 1127 943 1096 Q927 1065 908 1037 Q889 1009 873 978.5 Q857 948 846.5 911.5 Q836 875 836 827 Q836 776 869.5 736 Q903 696 952.5 660 Q1002 624 1060.5 588.5 Q1119 553 1168.5 511.5 Q1218 470 1251.5 419 Q1285 368 1285 301 Q1285 223 1244.5 163 Q1204 103 1140 62 Q1076 21 997.5 0 Q919 -21 842 -21 Q790 -21 734 -14 Q678 -7 627 5 Q576 17 534 32.5 Q492 48 468 65 L501 136 Q525 121 561.5 106.5 Q598 92 642 80 Q686 68 734.5 60.5 Q783 53 830 53 Q913 53 981.5 73.5 Q1050 94 1099 128.5 Q1148 163 1175 209 Q1202 255 1202 306 Q1202 362 1168.5 404.5 Q1135 447 1085.5 484.5 Q1036 522 977.5 557 Q919 592 869.5 631.5 Q820 671 786.5 718.5 Q753 766 753 829 Q753 878 763.5 916 Q774 954 789 986 Q804 1018 822.5 1046.5 Q841 1075 856 1105 Q871 1135 881.5 1169 Q892 1203 892 1247 Q892 1295 868 1335 Q844 1375 804.5 1404 Q765 1433 714 1449 Q663 1465 609 1465 Q534 1465 472.5 1447 Q411 1429 367.5 1389.5 Q324 1350 300.5 1287.5 Q277 1225 277 1136 L277 0 L194 0 Z " />
<glyph glyph-name="agrave" unicode="&#xe0;" horiz-adv-x="1301" >
<path fill="black" d="M146 785 Q146 847 182 904.5 Q218 962 282.5 1006 Q347 1050 436 1076 Q525 1102 631 1102 Q733 1102 818 1080.5 Q903 1059 964.5 1015.5 Q1026 972 1060 907.5 Q1094 843 1094 756 L1094 222 Q1094 193 1096 163 Q1098 133 1102.5 105 Q1107 77 1113.5 52.5 Q1120 28 1129 11 L1129 0 L1037 0 Q1024 35 1018 85.5 Q1012 136 1011 186 Q978 145 931.5 108 Q885 71 823.5 42.5 Q762 14 685.5 -3 Q609 -20 517 -20 Q425 -20 350.5 2.5 Q276 25 223 65 Q170 105 141.5 160 Q113 215 113 280 Q113 355 154 417 Q195 479 272 523 Q349 567 460 591 Q571 615 711 615 L1011 615 L1011 758 Q1011 886 912.5 957 Q814 1028 629 1028 Q544 1028 470.5 1009 Q397 990 343.5 957 Q290 924 259.5 879.5 Q229 835 229 784 L146 785 Z M1011 544 L719 544 Q597 544 500 525 Q403 506 335.5 471.5 Q268 437 232 389 Q196 341 196 282 Q196 235 219.5 194 Q243 153 285.5 122 Q328 91 388 73.5 Q448 56 520 56 Q610 56 687 73.5 Q764 91 825.5 123 Q887 155 934 199.5 Q981 244 1011 298 L1011 544 Z " />
<g transform="translate(259,0)" >
<path fill="black" d="M409 1264 L166 1536 L268 1536 L494 1264 L409 1264 Z " />
</g>
</glyph>
<glyph glyph-name="aacute" unicode="&#xe1;" horiz-adv-x="1301" >
<path fill="black" d="M146 785 Q146 847 182 904.5 Q218 962 282.5 1006 Q347 1050 436 1076 Q525 1102 631 1102 Q733 1102 818 1080.5 Q903 1059 964.5 1015.5 Q1026 972 1060 907.5 Q1094 843 1094 756 L1094 222 Q1094 193 1096 163 Q1098 133 1102.5 105 Q1107 77 1113.5 52.5 Q1120 28 1129 11 L1129 0 L1037 0 Q1024 35 1018 85.5 Q1012 136 1011 186 Q978 145 931.5 108 Q885 71 823.5 42.5 Q762 14 685.5 -3 Q609 -20 517 -20 Q425 -20 350.5 2.5 Q276 25 223 65 Q170 105 141.5 160 Q113 215 113 280 Q113 355 154 417 Q195 479 272 523 Q349 567 460 591 Q571 615 711 615 L1011 615 L1011 758 Q1011 886 912.5 957 Q814 1028 629 1028 Q544 1028 470.5 1009 Q397 990 343.5 957 Q290 924 259.5 879.5 Q229 835 229 784 L146 785 Z M1011 544 L719 544 Q597 544 500 525 Q403 506 335.5 471.5 Q268 437 232 389 Q196 341 196 282 Q196 235 219.5 194 Q243 153 285.5 122 Q328 91 388 73.5 Q448 56 520 56 Q610 56 687 73.5 Q764 91 825.5 123 Q887 155 934 199.5 Q981 244 1011 298 L1011 544 Z " />
<g transform="translate(486,0)" >
<path fill="black" d="M377 1536 L479 1536 L234 1264 L150 1264 L377 1536 Z " />
</g>
</glyph>
<glyph glyph-name="acircumflex" unicode="&#xe2;" horiz-adv-x="1301" >
<path fill="black" d="M146 785 Q146 847 182 904.5 Q218 962 282.5 1006 Q347 1050 436 1076 Q525 1102 631 1102 Q733 1102 818 1080.5 Q903 1059 964.5 1015.5 Q1026 972 1060 907.5 Q1094 843 1094 756 L1094 222 Q1094 193 1096 163 Q1098 133 1102.5 105 Q1107 77 1113.5 52.5 Q1120 28 1129 11 L1129 0 L1037 0 Q1024 35 1018 85.5 Q1012 136 1011 186 Q978 145 931.5 108 Q885 71 823.5 42.5 Q762 14 685.5 -3 Q609 -20 517 -20 Q425 -20 350.5 2.5 Q276 25 223 65 Q170 105 141.5 160 Q113 215 113 280 Q113 355 154 417 Q195 479 272 523 Q349 567 460 591 Q571 615 711 615 L1011 615 L1011 758 Q1011 886 912.5 957 Q814 1028 629 1028 Q544 1028 470.5 1009 Q397 990 343.5 957 Q290 924 259.5 879.5 Q229 835 229 784 L146 785 Z M1011 544 L719 544 Q597 544 500 525 Q403 506 335.5 471.5 Q268 437 232 389 Q196 341 196 282 Q196 235 219.5 194 Q243 153 285.5 122 Q328 91 388 73.5 Q448 56 520 56 Q610 56 687 73.5 Q764 91 825.5 123 Q887 155 934 199.5 Q981 244 1011 298 L1011 544 Z " />
<g transform="translate(201,0)" >
<path fill="black" d="M185 1275 L463 1521 L522 1521 L803 1272 L803 1262 L710 1262 L491 1452 L274 1262 L185 1262 L185 1275 Z " />
</g>
</glyph>
<glyph glyph-name="atilde" unicode="&#xe3;" horiz-adv-x="1301" >
<path fill="black" d="M146 785 Q146 847 182 904.5 Q218 962 282.5 1006 Q347 1050 436 1076 Q525 1102 631 1102 Q733 1102 818 1080.5 Q903 1059 964.5 1015.5 Q1026 972 1060 907.5 Q1094 843 1094 756 L1094 222 Q1094 193 1096 163 Q1098 133 1102.5 105 Q1107 77 1113.5 52.5 Q1120 28 1129 11 L1129 0 L1037 0 Q1024 35 1018 85.5 Q1012 136 1011 186 Q978 145 931.5 108 Q885 71 823.5 42.5 Q762 14 685.5 -3 Q609 -20 517 -20 Q425 -20 350.5 2.5 Q276 25 223 65 Q170 105 141.5 160 Q113 215 113 280 Q113 355 154 417 Q195 479 272 523 Q349 567 460 591 Q571 615 711 615 L1011 615 L1011 758 Q1011 886 912.5 957 Q814 1028 629 1028 Q544 1028 470.5 1009 Q397 990 343.5 957 Q290 924 259.5 879.5 Q229 835 229 784 L146 785 Z M1011 544 L719 544 Q597 544 500 525 Q403 506 335.5 471.5 Q268 437 232 389 Q196 341 196 282 Q196 235 219.5 194 Q243 153 285.5 122 Q328 91 388 73.5 Q448 56 520 56 Q610 56 687 73.5 Q764 91 825.5 123 Q887 155 934 199.5 Q981 244 1011 298 L1011 544 Z " />
<g transform="translate(201,12)" >
<path fill="black" d="M113 1278 Q113 1322 129.5 1358 Q146 1394 175.5 1419 Q205 1444 244.5 1457.5 Q284 1471 329 1471 Q391 1471 433 1452.5 Q475 1434 511.5 1412 Q548 1390 584.5 1371.5 Q621 1353 671 1353 Q700 1353 726 1361.5 Q752 1370 771.5 1386.5 Q791 1403 802.5 1426.5 Q814 1450 814 1480 L890 1478 Q890 1433 873 1396.5 Q856 1360 826.5 1334 Q797 1308 757 1294 Q717 1280 672 1280 Q608 1280 566.5 1298.5 Q525 1317 490.5 1339.5 Q456 1362 420 1380.5 Q384 1399 331 1399 Q301 1399 275.5 1391 Q250 1383 230.5 1367.5 Q211 1352 200 1329.5 Q189 1307 189 1277 L113 1278 Z " />
</g>
</glyph>
<glyph glyph-name="adieresis" unicode="&#xe4;" horiz-adv-x="1301" >
<path fill="black" d="M146 785 Q146 847 182 904.5 Q218 962 282.5 1006 Q347 1050 436 1076 Q525 1102 631 1102 Q733 1102 818 1080.5 Q903 1059 964.5 1015.5 Q1026 972 1060 907.5 Q1094 843 1094 756 L1094 222 Q1094 193 1096 163 Q1098 133 1102.5 105 Q1107 77 1113.5 52.5 Q1120 28 1129 11 L1129 0 L1037 0 Q1024 35 1018 85.5 Q1012 136 1011 186 Q978 145 931.5 108 Q885 71 823.5 42.5 Q762 14 685.5 -3 Q609 -20 517 -20 Q425 -20 350.5 2.5 Q276 25 223 65 Q170 105 141.5 160 Q113 215 113 280 Q113 355 154 417 Q195 479 272 523 Q349 567 460 591 Q571 615 711 615 L1011 615 L1011 758 Q1011 886 912.5 957 Q814 1028 629 1028 Q544 1028 470.5 1009 Q397 990 343.5 957 Q290 924 259.5 879.5 Q229 835 229 784 L146 785 Z M1011 544 L719 544 Q597 544 500 525 Q403 506 335.5 471.5 Q268 437 232 389 Q196 341 196 282 Q196 235 219.5 194 Q243 153 285.5 122 Q328 91 388 73.5 Q448 56 520 56 Q610 56 687 73.5 Q764 91 825.5 123 Q887 155 934 199.5 Q981 244 1011 298 L1011 544 Z " />
<g transform="translate(179,1352)" >
<path fill="black" d="M176 58 Q176 86 196.5 105.5 Q217 125 249 125 Q281 125 302.5 105.5 Q324 86 324 58 Q324 30 302.5 11.5 Q281 -7 249 -7 Q217 -7 196.5 11.5 Q176 30 176 58 Z " />
</g>
<g transform="translate(711,1352)" >
<path fill="black" d="M176 58 Q176 86 196.5 105.5 Q217 125 249 125 Q281 125 302.5 105.5 Q324 86 324 58 Q324 30 302.5 11.5 Q281 -7 249 -7 Q217 -7 196.5 11.5 Q176 30 176 58 Z " />
</g>
</glyph>
<glyph glyph-name="aring" unicode="&#xe5;" horiz-adv-x="1301" >
<path fill="black" d="M146 785 Q146 847 182 904.5 Q218 962 282.5 1006 Q347 1050 436 1076 Q525 1102 631 1102 Q733 1102 818 1080.5 Q903 1059 964.5 1015.5 Q1026 972 1060 907.5 Q1094 843 1094 756 L1094 222 Q1094 193 1096 163 Q1098 133 1102.5 105 Q1107 77 1113.5 52.5 Q1120 28 1129 11 L1129 0 L1037 0 Q1024 35 1018 85.5 Q1012 136 1011 186 Q978 145 931.5 108 Q885 71 823.5 42.5 Q762 14 685.5 -3 Q609 -20 517 -20 Q425 -20 350.5 2.5 Q276 25 223 65 Q170 105 141.5 160 Q113 215 113 280 Q113 355 154 417 Q195 479 272 523 Q349 567 460 591 Q571 615 711 615 L1011 615 L1011 758 Q1011 886 912.5 957 Q814 1028 629 1028 Q544 1028 470.5 1009 Q397 990 343.5 957 Q290 924 259.5 879.5 Q229 835 229 784 L146 785 Z M1011 544 L719 544 Q597 544 500 525 Q403 506 335.5 471.5 Q268 437 232 389 Q196 341 196 282 Q196 235 219.5 194 Q243 153 285.5 122 Q328 91 388 73.5 Q448 56 520 56 Q610 56 687 73.5 Q764 91 825.5 123 Q887 155 934 199.5 Q981 244 1011 298 L1011 544 Z " />
<g transform="translate(347,2)" >
<path fill="black" d="M138 1388 Q138 1426 154 1459 Q170 1492 198.5 1516.5 Q227 1541 265.5 1555 Q304 1569 349 1569 Q393 1569 431.5 1555 Q470 1541 498.5 1516.5 Q527 1492 543.5 1459 Q560 1426 560 1388 Q560 1350 543.5 1317.5 Q527 1285 498.5 1261 Q470 1237 431.5 1223.5 Q393 1210 349 1210 Q304 1210 265.5 1223.5 Q227 1237 198.5 1261 Q170 1285 154 1317.5 Q138 1350 138 1388 Z M208 1388 Q208 1363 218.5 1341.5 Q229 1320 248 1304.5 Q267 1289 292.5 1280.5 Q318 1272 349 1272 Q411 1272 450 1304.5 Q489 1337 489 1388 Q489 1440 450 1473.5 Q411 1507 349 1507 Q318 1507 292.5 1498 Q267 1489 248 1473.5 Q229 1458 218.5 1436 Q208 1414 208 1388 Z " />
</g>
</glyph>
<glyph glyph-name="ae" unicode="&#xe6;" horiz-adv-x="2081" d="M144 778 Q144 848 178 907.5 Q212 967 275 1010 Q338 1053 427 1077.5 Q516 1102 627 1102 Q788 1102 895.5 1035.5 Q1003 969 1036 836 Q1069 898 1116.5 947 Q1164 996 1223.5 1030.5 Q1283 1065 1352.5 1083.5 Q1422 1102 1499 1102 Q1614 1102 1705 1071 Q1796 1040 1859 981.5 Q1922 923 1955.5 839.5 Q1989 756 1989 651 L1989 560 L1053 560 L1053 504 Q1053 410 1080 328 Q1107 246 1164 185 Q1221 124 1309.5 89 Q1398 54 1521 54 Q1652 54 1750.5 89.5 Q1849 125 1917 179 L1958 118 Q1927 94 1888 69 Q1849 44 1796.5 24.5 Q1744 5 1676.5 -7.5 Q1609 -20 1521 -20 Q1349 -20 1229.5 43.5 Q1110 107 1045 216 L1043 215 L1046 213 Q1024 174 981 132.5 Q938 91 874.5 57 Q811 23 726.5 1.5 Q642 -20 536 -20 Q433 -20 353.5 2 Q274 24 220 64.5 Q166 105 138 161.5 Q110 218 110 288 Q110 365 143 428.5 Q176 492 241.5 537 Q307 582 404 606.5 Q501 631 629 631 L967 631 L967 720 Q967 866 883.5 947 Q800 1028 627 1028 Q531 1028 456.5 1008 Q382 988 330.5 953 Q279 918 252 871 Q225 824 225 769 L144 778 Z M967 558 L631 558 Q519 558 436.5 536 Q354 514 300 476.5 Q246 439 220 389 Q194 339 194 284 Q194 178 282.5 115.5 Q371 53 540 53 Q618 53 689 71 Q760 89 816.5 116.5 Q873 144 912.5 176 Q952 208 967 236 L967 558 Z M1906 634 L1906 666 Q1906 742 1880.5 808 Q1855 874 1804 923 Q1753 972 1677 1000 Q1601 1028 1499 1028 Q1405 1028 1328 998 Q1251 968 1194 915 Q1137 862 1102.5 790 Q1068 718 1057 634 L1906 634 Z " />
<glyph glyph-name="ccedilla" unicode="&#xe7;" horiz-adv-x="1251" d="M538 -384 Q585 -384 634 -376.5 Q683 -369 722.5 -353 Q762 -337 787 -312 Q812 -287 812 -252 Q812 -221 798 -200 Q784 -179 756 -166 Q728 -153 686 -146 Q644 -139 589 -134 L618 -19 Q497 -13 403.5 29.5 Q310 72 246 143.5 Q182 215 149 311.5 Q116 408 116 520 L116 562 Q116 679 151.5 778 Q187 877 255 949 Q323 1021 422.5 1061.5 Q522 1102 650 1102 Q746 1102 832.5 1077 Q919 1052 985 1003.5 Q1051 955 1092 884 Q1133 813 1137 722 L1056 722 Q1052 796 1017.5 853 Q983 910 927.5 949 Q872 988 800.5 1008 Q729 1028 650 1028 Q533 1028 447.5 990.5 Q362 953 307 889.5 Q252 826 225.5 741.5 Q199 657 199 562 L199 520 Q199 425 225.5 340 Q252 255 307 191.5 Q362 128 448 91 Q534 54 652 54 Q726 54 796.5 70.5 Q867 87 922.5 121.5 Q978 156 1014 208 Q1050 260 1056 331 L1137 331 Q1133 255 1096 193 Q1059 131 999 85.5 Q939 40 860.5 13 Q782 -14 693 -19 L682 -81 Q721 -85 758.5 -95 Q796 -105 825.5 -124.5 Q855 -144 872.5 -175 Q890 -206 890 -251 Q890 -295 866.5 -330.5 Q843 -366 798.5 -391.5 Q754 -417 690 -431 Q626 -445 546 -445 L538 -384 Z " />
<glyph glyph-name="egrave" unicode="&#xe8;" horiz-adv-x="1246" >
<path fill="black" d="M105 559 Q105 680 148.5 780 Q192 880 266.5 951.5 Q341 1023 440.5 1062.5 Q540 1102 652 1102 Q764 1102 856 1067 Q948 1032 1013.5 969 Q1079 906 1115 818.5 Q1151 731 1151 626 L1151 559 L188 559 L188 515 Q188 419 225 334.5 Q262 250 328 188 Q394 126 483.5 90 Q573 54 678 54 Q791 54 885.5 87 Q980 120 1059 202 L1115 162 Q1083 123 1040.5 89.5 Q998 56 944 32 Q890 8 823.5 -6 Q757 -20 677 -20 Q557 -20 452.5 19.5 Q348 59 270.5 130.5 Q193 202 149 300 Q105 398 105 515 L105 559 Z M1068 633 L1068 646 Q1068 722 1039 791 Q1010 860 956 912.5 Q902 965 825 996.5 Q748 1028 652 1028 Q558 1028 479 998.5 Q400 969 340 916.5 Q280 864 242.5 791.5 Q205 719 193 633 L1068 633 Z " />
<g transform="translate(247,-1)" >
<path fill="black" d="M409 1264 L166 1536 L268 1536 L494 1264 L409 1264 Z " />
</g>
</glyph>
<glyph glyph-name="eacute" unicode="&#xe9;" horiz-adv-x="1246" >
<path fill="black" d="M105 559 Q105 680 148.5 780 Q192 880 266.5 951.5 Q341 1023 440.5 1062.5 Q540 1102 652 1102 Q764 1102 856 1067 Q948 1032 1013.5 969 Q1079 906 1115 818.5 Q1151 731 1151 626 L1151 559 L188 559 L188 515 Q188 419 225 334.5 Q262 250 328 188 Q394 126 483.5 90 Q573 54 678 54 Q791 54 885.5 87 Q980 120 1059 202 L1115 162 Q1083 123 1040.5 89.5 Q998 56 944 32 Q890 8 823.5 -6 Q757 -20 677 -20 Q557 -20 452.5 19.5 Q348 59 270.5 130.5 Q193 202 149 300 Q105 398 105 515 L105 559 Z M1068 633 L1068 646 Q1068 722 1039 791 Q1010 860 956 912.5 Q902 965 825 996.5 Q748 1028 652 1028 Q558 1028 479 998.5 Q400 969 340 916.5 Q280 864 242.5 791.5 Q205 719 193 633 L1068 633 Z " />
<g transform="translate(474,-1)" >
<path fill="black" d="M377 1536 L479 1536 L234 1264 L150 1264 L377 1536 Z " />
</g>
</glyph>
<glyph glyph-name="ecircumflex" unicode="&#xea;" horiz-adv-x="1246" >
<path fill="black" d="M105 559 Q105 680 148.5 780 Q192 880 266.5 951.5 Q341 1023 440.5 1062.5 Q540 1102 652 1102 Q764 1102 856 1067 Q948 1032 1013.5 969 Q1079 906 1115 818.5 Q1151 731 1151 626 L1151 559 L188 559 L188 515 Q188 419 225 334.5 Q262 250 328 188 Q394 126 483.5 90 Q573 54 678 54 Q791 54 885.5 87 Q980 120 1059 202 L1115 162 Q1083 123 1040.5 89.5 Q998 56 944 32 Q890 8 823.5 -6 Q757 -20 677 -20 Q557 -20 452.5 19.5 Q348 59 270.5 130.5 Q193 202 149 300 Q105 398 105 515 L105 559 Z M1068 633 L1068 646 Q1068 722 1039 791 Q1010 860 956 912.5 Q902 965 825 996.5 Q748 1028 652 1028 Q558 1028 479 998.5 Q400 969 340 916.5 Q280 864 242.5 791.5 Q205 719 193 633 L1068 633 Z " />
<g transform="translate(189,-1)" >
<path fill="black" d="M185 1275 L463 1521 L522 1521 L803 1272 L803 1262 L710 1262 L491 1452 L274 1262 L185 1262 L185 1275 Z " />
</g>
</glyph>
<glyph glyph-name="edieresis" unicode="&#xeb;" horiz-adv-x="1246" >
<path fill="black" d="M105 559 Q105 680 148.5 780 Q192 880 266.5 951.5 Q341 1023 440.5 1062.5 Q540 1102 652 1102 Q764 1102 856 1067 Q948 1032 1013.5 969 Q1079 906 1115 818.5 Q1151 731 1151 626 L1151 559 L188 559 L188 515 Q188 419 225 334.5 Q262 250 328 188 Q394 126 483.5 90 Q573 54 678 54 Q791 54 885.5 87 Q980 120 1059 202 L1115 162 Q1083 123 1040.5 89.5 Q998 56 944 32 Q890 8 823.5 -6 Q757 -20 677 -20 Q557 -20 452.5 19.5 Q348 59 270.5 130.5 Q193 202 149 300 Q105 398 105 515 L105 559 Z M1068 633 L1068 646 Q1068 722 1039 791 Q1010 860 956 912.5 Q902 965 825 996.5 Q748 1028 652 1028 Q558 1028 479 998.5 Q400 969 340 916.5 Q280 864 242.5 791.5 Q205 719 193 633 L1068 633 Z " />
<g transform="translate(167,1351)" >
<path fill="black" d="M176 58 Q176 86 196.5 105.5 Q217 125 249 125 Q281 125 302.5 105.5 Q324 86 324 58 Q324 30 302.5 11.5 Q281 -7 249 -7 Q217 -7 196.5 11.5 Q176 30 176 58 Z " />
</g>
<g transform="translate(699,1351)" >
<path fill="black" d="M176 58 Q176 86 196.5 105.5 Q217 125 249 125 Q281 125 302.5 105.5 Q324 86 324 58 Q324 30 302.5 11.5 Q281 -7 249 -7 Q217 -7 196.5 11.5 Q176 30 176 58 Z " />
</g>
</glyph>
<glyph glyph-name="igrave" unicode="&#xec;" horiz-adv-x="502" >
<path fill="black" d="M214 0 L214 1082 L297 1082 L297 0 L214 0 Z " />
<g transform="translate(-177,-19)" >
<path fill="black" d="M409 1264 L166 1536 L268 1536 L494 1264 L409 1264 Z " />
</g>
</glyph>
<glyph glyph-name="iacute" unicode="&#xed;" horiz-adv-x="502" >
<path fill="black" d="M214 0 L214 1082 L297 1082 L297 0 L214 0 Z " />
<g transform="translate(50,-19)" >
<path fill="black" d="M377 1536 L479 1536 L234 1264 L150 1264 L377 1536 Z " />
</g>
</glyph>
<glyph glyph-name="icircumflex" unicode="&#xee;" horiz-adv-x="502" >
<g transform="translate(-235,-19)" >
<path fill="black" d="M185 1275 L463 1521 L522 1521 L803 1272 L803 1262 L710 1262 L491 1452 L274 1262 L185 1262 L185 1275 Z " />
</g>
<path fill="black" d="M214 0 L214 1082 L297 1082 L297 0 L214 0 Z " />
</glyph>
<glyph glyph-name="idieresis" unicode="&#xef;" horiz-adv-x="502" >
<path fill="black" d="M214 0 L214 1082 L297 1082 L297 0 L214 0 Z " />
<g transform="translate(-257,1333)" >
<path fill="black" d="M176 58 Q176 86 196.5 105.5 Q217 125 249 125 Q281 125 302.5 105.5 Q324 86 324 58 Q324 30 302.5 11.5 Q281 -7 249 -7 Q217 -7 196.5 11.5 Q176 30 176 58 Z " />
</g>
<g transform="translate(275,1333)" >
<path fill="black" d="M176 58 Q176 86 196.5 105.5 Q217 125 249 125 Q281 125 302.5 105.5 Q324 86 324 58 Q324 30 302.5 11.5 Q281 -7 249 -7 Q217 -7 196.5 11.5 Q176 30 176 58 Z " />
</g>
</glyph>
<glyph glyph-name="eth" unicode="&#xf0;" horiz-adv-x="1423" d="M571 1187 L826 1314 Q734 1377 625 1423.5 Q516 1470 394 1505 L423 1578 Q572 1536 692.5 1481.5 Q813 1427 910 1355 L1148 1473 L1188 1414 L970 1306 Q1112 1181 1182.5 1012.5 Q1253 844 1253 619 L1253 535 Q1253 412 1215.5 309.5 Q1178 207 1111.5 134 Q1045 61 953 20.5 Q861 -20 751 -20 Q630 -20 529 17.5 Q428 55 355 121 Q282 187 241.5 275.5 Q201 364 201 466 Q201 582 236.5 673.5 Q272 765 339 828 Q406 891 501.5 924.5 Q597 958 717 958 Q783 958 846.5 946.5 Q910 935 967 913.5 Q1024 892 1072.5 861 Q1121 830 1157 791 Q1132 949 1062.5 1065 Q993 1181 889 1266 L611 1129 L571 1187 Z M285 466 Q285 390 316 316.5 Q347 243 407 185.5 Q467 128 554.5 93 Q642 58 756 58 Q851 58 927.5 93.5 Q1004 129 1058 192.5 Q1112 256 1141 343.5 Q1170 431 1170 535 L1170 621 Q1170 635 1170 648.5 Q1170 662 1169 675 Q1148 713 1110.5 750 Q1073 787 1018 816 Q963 845 889.5 863 Q816 881 724 881 Q610 881 527 849 Q444 817 390 761.5 Q336 706 310.5 630 Q285 554 285 466 Z " />
<glyph glyph-name="ntilde" unicode="&#xf1;" horiz-adv-x="1346" >
<path fill="black" d="M202 1082 L284 1082 L285 851 L285 843 Q316 899 361 946.5 Q406 994 463.5 1028.5 Q521 1063 590 1082.5 Q659 1102 738 1102 Q836 1102 912.5 1079.5 Q989 1057 1042 1009 Q1095 961 1122.5 885 Q1150 809 1150 702 L1150 0 L1067 0 L1067 702 Q1067 797 1042.5 859.5 Q1018 922 973 959.5 Q928 997 865 1012 Q802 1027 726 1027 Q628 1027 552.5 996.5 Q477 966 423 918.5 Q369 871 335 813.5 Q301 756 285 702 L285 0 L202 0 L202 1082 Z " />
<g transform="translate(201,10)" >
<path fill="black" d="M113 1278 Q113 1322 129.5 1358 Q146 1394 175.5 1419 Q205 1444 244.5 1457.5 Q284 1471 329 1471 Q391 1471 433 1452.5 Q475 1434 511.5 1412 Q548 1390 584.5 1371.5 Q621 1353 671 1353 Q700 1353 726 1361.5 Q752 1370 771.5 1386.5 Q791 1403 802.5 1426.5 Q814 1450 814 1480 L890 1478 Q890 1433 873 1396.5 Q856 1360 826.5 1334 Q797 1308 757 1294 Q717 1280 672 1280 Q608 1280 566.5 1298.5 Q525 1317 490.5 1339.5 Q456 1362 420 1380.5 Q384 1399 331 1399 Q301 1399 275.5 1391 Q250 1383 230.5 1367.5 Q211 1352 200 1329.5 Q189 1307 189 1277 L113 1278 Z " />
</g>
</glyph>
<glyph glyph-name="ograve" unicode="&#xf2;" horiz-adv-x="1359" >
<path fill="black" d="M108 560 Q108 679 149.5 778.5 Q191 878 266 950 Q341 1022 446 1062 Q551 1102 678 1102 Q807 1102 912.5 1062 Q1018 1022 1093 950 Q1168 878 1209 778.5 Q1250 679 1250 560 L1250 522 Q1250 404 1209 304.5 Q1168 205 1093 133 Q1018 61 913.5 20.5 Q809 -20 681 -20 Q553 -20 447.5 20.5 Q342 61 266.5 133 Q191 205 149.5 304.5 Q108 404 108 522 L108 560 Z M191 522 Q191 428 224 343.5 Q257 259 319.5 194.5 Q382 130 473 92 Q564 54 681 54 Q797 54 887 92 Q977 130 1039.5 194.5 Q1102 259 1134.5 343.5 Q1167 428 1167 522 L1167 560 Q1167 652 1134.5 736.5 Q1102 821 1039.5 885.5 Q977 950 886 989 Q795 1028 678 1028 Q563 1028 472 989 Q381 950 319 885.5 Q257 821 224 736.5 Q191 652 191 560 L191 522 Z " />
<g transform="translate(248,-2)" >
<path fill="black" d="M409 1264 L166 1536 L268 1536 L494 1264 L409 1264 Z " />
</g>
</glyph>
<glyph glyph-name="oacute" unicode="&#xf3;" horiz-adv-x="1359" >
<path fill="black" d="M108 560 Q108 679 149.5 778.5 Q191 878 266 950 Q341 1022 446 1062 Q551 1102 678 1102 Q807 1102 912.5 1062 Q1018 1022 1093 950 Q1168 878 1209 778.5 Q1250 679 1250 560 L1250 522 Q1250 404 1209 304.5 Q1168 205 1093 133 Q1018 61 913.5 20.5 Q809 -20 681 -20 Q553 -20 447.5 20.5 Q342 61 266.5 133 Q191 205 149.5 304.5 Q108 404 108 522 L108 560 Z M191 522 Q191 428 224 343.5 Q257 259 319.5 194.5 Q382 130 473 92 Q564 54 681 54 Q797 54 887 92 Q977 130 1039.5 194.5 Q1102 259 1134.5 343.5 Q1167 428 1167 522 L1167 560 Q1167 652 1134.5 736.5 Q1102 821 1039.5 885.5 Q977 950 886 989 Q795 1028 678 1028 Q563 1028 472 989 Q381 950 319 885.5 Q257 821 224 736.5 Q191 652 191 560 L191 522 Z " />
<g transform="translate(475,-2)" >
<path fill="black" d="M377 1536 L479 1536 L234 1264 L150 1264 L377 1536 Z " />
</g>
</glyph>
<glyph glyph-name="ocircumflex" unicode="&#xf4;" horiz-adv-x="1359" >
<path fill="black" d="M108 560 Q108 679 149.5 778.5 Q191 878 266 950 Q341 1022 446 1062 Q551 1102 678 1102 Q807 1102 912.5 1062 Q1018 1022 1093 950 Q1168 878 1209 778.5 Q1250 679 1250 560 L1250 522 Q1250 404 1209 304.5 Q1168 205 1093 133 Q1018 61 913.5 20.5 Q809 -20 681 -20 Q553 -20 447.5 20.5 Q342 61 266.5 133 Q191 205 149.5 304.5 Q108 404 108 522 L108 560 Z M191 522 Q191 428 224 343.5 Q257 259 319.5 194.5 Q382 130 473 92 Q564 54 681 54 Q797 54 887 92 Q977 130 1039.5 194.5 Q1102 259 1134.5 343.5 Q1167 428 1167 522 L1167 560 Q1167 652 1134.5 736.5 Q1102 821 1039.5 885.5 Q977 950 886 989 Q795 1028 678 1028 Q563 1028 472 989 Q381 950 319 885.5 Q257 821 224 736.5 Q191 652 191 560 L191 522 Z " />
<g transform="translate(190,-2)" >
<path fill="black" d="M185 1275 L463 1521 L522 1521 L803 1272 L803 1262 L710 1262 L491 1452 L274 1262 L185 1262 L185 1275 Z " />
</g>
</glyph>
<glyph glyph-name="otilde" unicode="&#xf5;" horiz-adv-x="1359" >
<path fill="black" d="M108 560 Q108 679 149.5 778.5 Q191 878 266 950 Q341 1022 446 1062 Q551 1102 678 1102 Q807 1102 912.5 1062 Q1018 1022 1093 950 Q1168 878 1209 778.5 Q1250 679 1250 560 L1250 522 Q1250 404 1209 304.5 Q1168 205 1093 133 Q1018 61 913.5 20.5 Q809 -20 681 -20 Q553 -20 447.5 20.5 Q342 61 266.5 133 Q191 205 149.5 304.5 Q108 404 108 522 L108 560 Z M191 522 Q191 428 224 343.5 Q257 259 319.5 194.5 Q382 130 473 92 Q564 54 681 54 Q797 54 887 92 Q977 130 1039.5 194.5 Q1102 259 1134.5 343.5 Q1167 428 1167 522 L1167 560 Q1167 652 1134.5 736.5 Q1102 821 1039.5 885.5 Q977 950 886 989 Q795 1028 678 1028 Q563 1028 472 989 Q381 950 319 885.5 Q257 821 224 736.5 Q191 652 191 560 L191 522 Z " />
<g transform="translate(190,10)" >
<path fill="black" d="M113 1278 Q113 1322 129.5 1358 Q146 1394 175.5 1419 Q205 1444 244.5 1457.5 Q284 1471 329 1471 Q391 1471 433 1452.5 Q475 1434 511.5 1412 Q548 1390 584.5 1371.5 Q621 1353 671 1353 Q700 1353 726 1361.5 Q752 1370 771.5 1386.5 Q791 1403 802.5 1426.5 Q814 1450 814 1480 L890 1478 Q890 1433 873 1396.5 Q856 1360 826.5 1334 Q797 1308 757 1294 Q717 1280 672 1280 Q608 1280 566.5 1298.5 Q525 1317 490.5 1339.5 Q456 1362 420 1380.5 Q384 1399 331 1399 Q301 1399 275.5 1391 Q250 1383 230.5 1367.5 Q211 1352 200 1329.5 Q189 1307 189 1277 L113 1278 Z " />
</g>
</glyph>
<glyph glyph-name="odieresis" unicode="&#xf6;" horiz-adv-x="1359" >
<path fill="black" d="M108 560 Q108 679 149.5 778.5 Q191 878 266 950 Q341 1022 446 1062 Q551 1102 678 1102 Q807 1102 912.5 1062 Q1018 1022 1093 950 Q1168 878 1209 778.5 Q1250 679 1250 560 L1250 522 Q1250 404 1209 304.5 Q1168 205 1093 133 Q1018 61 913.5 20.5 Q809 -20 681 -20 Q553 -20 447.5 20.5 Q342 61 266.5 133 Q191 205 149.5 304.5 Q108 404 108 522 L108 560 Z M191 522 Q191 428 224 343.5 Q257 259 319.5 194.5 Q382 130 473 92 Q564 54 681 54 Q797 54 887 92 Q977 130 1039.5 194.5 Q1102 259 1134.5 343.5 Q1167 428 1167 522 L1167 560 Q1167 652 1134.5 736.5 Q1102 821 1039.5 885.5 Q977 950 886 989 Q795 1028 678 1028 Q563 1028 472 989 Q381 950 319 885.5 Q257 821 224 736.5 Q191 652 191 560 L191 522 Z " />
<g transform="translate(168,1350)" >
<path fill="black" d="M176 58 Q176 86 196.5 105.5 Q217 125 249 125 Q281 125 302.5 105.5 Q324 86 324 58 Q324 30 302.5 11.5 Q281 -7 249 -7 Q217 -7 196.5 11.5 Q176 30 176 58 Z " />
</g>
<g transform="translate(700,1350)" >
<path fill="black" d="M176 58 Q176 86 196.5 105.5 Q217 125 249 125 Q281 125 302.5 105.5 Q324 86 324 58 Q324 30 302.5 11.5 Q281 -7 249 -7 Q217 -7 196.5 11.5 Q176 30 176 58 Z " />
</g>
</glyph>
<glyph glyph-name="divide" unicode="&#xf7;" horiz-adv-x="1393" d="M88 668 L88 748 L1286 748 L1286 668 L88 668 Z M626 296 Q626 324 646.5 343.5 Q667 363 699 363 Q731 363 752.5 343.5 Q774 324 774 296 Q774 268 752.5 249.5 Q731 231 699 231 Q667 231 646.5 249.5 Q626 268 626 296 Z M626 1082 Q626 1110 646.5 1129.5 Q667 1149 699 1149 Q731 1149 752.5 1129.5 Q774 1110 774 1082 Q774 1054 752.5 1035.5 Q731 1017 699 1017 Q667 1017 646.5 1035.5 Q626 1054 626 1082 Z " />
<glyph glyph-name="oslash" unicode="&#xf8;" horiz-adv-x="1129" d="M363 59 Q242 128 174 248 Q106 368 106 522 L106 560 Q106 679 147.5 778.5 Q189 878 264 950 Q339 1022 444 1062 Q549 1102 676 1102 Q751 1102 817.5 1088.5 Q884 1075 942 1049 L1041 1217 L1125 1217 L1007 1015 Q1121 944 1184.5 826.5 Q1248 709 1248 560 L1248 522 Q1248 404 1207 304.5 Q1166 205 1091 133 Q1016 61 911.5 20.5 Q807 -20 679 -20 Q610 -20 547 -8 Q484 4 428 27 L329 -143 L245 -143 L363 59 Z M903 981 Q854 1004 797.5 1016 Q741 1028 676 1028 Q561 1028 470 989 Q379 950 317 885.5 Q255 821 222 736.5 Q189 652 189 560 L189 522 Q189 461 203 403.5 Q217 346 244 295 Q271 244 311 201 Q351 158 403 126 L903 981 Z M467 94 Q562 54 679 54 Q795 54 885 92 Q975 130 1037.5 194.5 Q1100 259 1132.5 343.5 Q1165 428 1165 522 L1165 560 Q1165 617 1152 672.5 Q1139 728 1114 777.5 Q1089 827 1051.5 869.5 Q1014 912 966 945 L467 94 Z " />
<glyph glyph-name="ugrave" unicode="&#xf9;" horiz-adv-x="1346" >
<path fill="black" d="M197 1082 L280 1082 L280 391 Q280 297 306.5 233 Q333 169 379.5 129.5 Q426 90 489.5 73 Q553 56 627 56 Q730 56 805.5 76.5 Q881 97 933.5 133 Q986 169 1017 217 Q1048 265 1063 320 L1063 1082 L1148 1082 L1148 0 L1065 0 L1064 168 Q1006 81 897 30.5 Q788 -20 624 -20 Q529 -20 450.5 2.5 Q372 25 315.5 74.5 Q259 124 228 202.5 Q197 281 197 393 L197 1082 Z " />
<g transform="translate(260,0)" >
<path fill="black" d="M409 1264 L166 1536 L268 1536 L494 1264 L409 1264 Z " />
</g>
</glyph>
<glyph glyph-name="uacute" unicode="&#xfa;" horiz-adv-x="1346" >
<path fill="black" d="M197 1082 L280 1082 L280 391 Q280 297 306.5 233 Q333 169 379.5 129.5 Q426 90 489.5 73 Q553 56 627 56 Q730 56 805.5 76.5 Q881 97 933.5 133 Q986 169 1017 217 Q1048 265 1063 320 L1063 1082 L1148 1082 L1148 0 L1065 0 L1064 168 Q1006 81 897 30.5 Q788 -20 624 -20 Q529 -20 450.5 2.5 Q372 25 315.5 74.5 Q259 124 228 202.5 Q197 281 197 393 L197 1082 Z " />
<g transform="translate(487,0)" >
<path fill="black" d="M377 1536 L479 1536 L234 1264 L150 1264 L377 1536 Z " />
</g>
</glyph>
<glyph glyph-name="ucircumflex" unicode="&#xfb;" horiz-adv-x="1346" >
<path fill="black" d="M197 1082 L280 1082 L280 391 Q280 297 306.5 233 Q333 169 379.5 129.5 Q426 90 489.5 73 Q553 56 627 56 Q730 56 805.5 76.5 Q881 97 933.5 133 Q986 169 1017 217 Q1048 265 1063 320 L1063 1082 L1148 1082 L1148 0 L1065 0 L1064 168 Q1006 81 897 30.5 Q788 -20 624 -20 Q529 -20 450.5 2.5 Q372 25 315.5 74.5 Q259 124 228 202.5 Q197 281 197 393 L197 1082 Z " />
<g transform="translate(202,0)" >
<path fill="black" d="M185 1275 L463 1521 L522 1521 L803 1272 L803 1262 L710 1262 L491 1452 L274 1262 L185 1262 L185 1275 Z " />
</g>
</glyph>
<glyph glyph-name="udieresis" unicode="&#xfc;" horiz-adv-x="1346" >
<path fill="black" d="M197 1082 L280 1082 L280 391 Q280 297 306.5 233 Q333 169 379.5 129.5 Q426 90 489.5 73 Q553 56 627 56 Q730 56 805.5 76.5 Q881 97 933.5 133 Q986 169 1017 217 Q1048 265 1063 320 L1063 1082 L1148 1082 L1148 0 L1065 0 L1064 168 Q1006 81 897 30.5 Q788 -20 624 -20 Q529 -20 450.5 2.5 Q372 25 315.5 74.5 Q259 124 228 202.5 Q197 281 197 393 L197 1082 Z " />
<g transform="translate(180,1352)" >
<path fill="black" d="M176 58 Q176 86 196.5 105.5 Q217 125 249 125 Q281 125 302.5 105.5 Q324 86 324 58 Q324 30 302.5 11.5 Q281 -7 249 -7 Q217 -7 196.5 11.5 Q176 30 176 58 Z " />
</g>
<g transform="translate(712,1352)" >
<path fill="black" d="M176 58 Q176 86 196.5 105.5 Q217 125 249 125 Q281 125 302.5 105.5 Q324 86 324 58 Q324 30 302.5 11.5 Q281 -7 249 -7 Q217 -7 196.5 11.5 Q176 30 176 58 Z " />
</g>
</glyph>
<glyph glyph-name="yacute" unicode="&#xfd;" horiz-adv-x="1172" >
<path fill="black" d="M114 -353 Q123 -355 135 -356.5 Q147 -358 159.5 -359 Q172 -360 182.5 -360.5 Q193 -361 199 -361 Q259 -361 303.5 -346.5 Q348 -332 381.5 -305.5 Q415 -279 440 -241 Q465 -203 486 -155 L559 8 L49 1082 L139 1082 L607 114 L1042 1082 L1132 1082 L562 -177 Q546 -213 523 -258 Q500 -303 461 -342.5 Q422 -382 363 -409.5 Q304 -437 215 -437 Q205 -437 191 -436 Q177 -435 162.5 -433.5 Q148 -432 135.5 -430 Q123 -428 115 -425 L114 -353 Z " />
<g transform="translate(414,0)" >
<path fill="black" d="M377 1536 L479 1536 L234 1264 L150 1264 L377 1536 Z " />
</g>
</glyph>
<glyph glyph-name="thorn" unicode="&#xfe;" horiz-adv-x="1354" d="M201 1536 L285 1536 L285 893 Q349 990 456 1046 Q563 1102 716 1102 Q833 1102 924.5 1063.5 Q1016 1025 1079 953.5 Q1142 882 1175 780.5 Q1208 679 1208 552 L1208 531 Q1208 408 1175 307 Q1142 206 1079.5 133 Q1017 60 926 20 Q835 -20 719 -20 Q566 -20 457 32 Q348 84 285 167 L285 -416 L201 -416 L201 1536 Z M285 274 Q309 227 346.5 186.5 Q384 146 437 116.5 Q490 87 558.5 70.5 Q627 54 712 54 Q816 54 893.5 90 Q971 126 1022 190 Q1073 254 1098.5 341.5 Q1124 429 1124 531 L1124 552 Q1124 654 1098.5 741 Q1073 828 1022 891.5 Q971 955 893 991 Q815 1027 710 1027 Q614 1027 543 1005 Q472 983 421 948 Q370 913 337.5 868 Q305 823 285 778 L285 274 Z " />
<glyph glyph-name="ydieresis" unicode="&#xff;" horiz-adv-x="1172" >
<path fill="black" d="M114 -353 Q123 -355 135 -356.5 Q147 -358 159.5 -359 Q172 -360 182.5 -360.5 Q193 -361 199 -361 Q259 -361 303.5 -346.5 Q348 -332 381.5 -305.5 Q415 -279 440 -241 Q465 -203 486 -155 L559 8 L49 1082 L139 1082 L607 114 L1042 1082 L1132 1082 L562 -177 Q546 -213 523 -258 Q500 -303 461 -342.5 Q422 -382 363 -409.5 Q304 -437 215 -437 Q205 -437 191 -436 Q177 -435 162.5 -433.5 Q148 -432 135.5 -430 Q123 -428 115 -425 L114 -353 Z " />
<g transform="translate(107,1352)" >
<path fill="black" d="M176 58 Q176 86 196.5 105.5 Q217 125 249 125 Q281 125 302.5 105.5 Q324 86 324 58 Q324 30 302.5 11.5 Q281 -7 249 -7 Q217 -7 196.5 11.5 Q176 30 176 58 Z " />
</g>
<g transform="translate(639,1352)" >
<path fill="black" d="M176 58 Q176 86 196.5 105.5 Q217 125 249 125 Q281 125 302.5 105.5 Q324 86 324 58 Q324 30 302.5 11.5 Q281 -7 249 -7 Q217 -7 196.5 11.5 Q176 30 176 58 Z " />
</g>
</glyph>
<glyph glyph-name="Amacron" unicode="&#x100;" horiz-adv-x="1483" d="M694 1456 L788 1456 L1444 0 L1353 0 L1163 424 L320 424 L130 0 L39 0 L694 1456 Z M1129 499 L741 1364 L354 499 L1129 499 Z M398 1766 L1094 1766 L1094 1694 L398 1694 L398 1766 Z " />
<glyph glyph-name="amacron" unicode="&#x101;" horiz-adv-x="1301" d="M146 785 Q146 847 182 904.5 Q218 962 282.5 1006 Q347 1050 436 1076 Q525 1102 631 1102 Q733 1102 818 1080.5 Q903 1059 964.5 1015.5 Q1026 972 1060 907.5 Q1094 843 1094 756 L1094 222 Q1094 193 1096 163 Q1098 133 1102.5 105 Q1107 77 1113.5 52.5 Q1120 28 1129 11 L1129 0 L1037 0 Q1024 35 1018 85.5 Q1012 136 1011 186 Q978 145 931.5 108 Q885 71 823.5 42.5 Q762 14 685.5 -3 Q609 -20 517 -20 Q425 -20 350.5 2.5 Q276 25 223 65 Q170 105 141.5 160 Q113 215 113 280 Q113 355 154 417 Q195 479 272 523 Q349 567 460 591 Q571 615 711 615 L1011 615 L1011 758 Q1011 886 912.5 957 Q814 1028 629 1028 Q544 1028 470.5 1009 Q397 990 343.5 957 Q290 924 259.5 879.5 Q229 835 229 784 L146 785 Z M1011 544 L719 544 Q597 544 500 525 Q403 506 335.5 471.5 Q268 437 232 389 Q196 341 196 282 Q196 235 219.5 194 Q243 153 285.5 122 Q328 91 388 73.5 Q448 56 520 56 Q610 56 687 73.5 Q764 91 825.5 123 Q887 155 934 199.5 Q981 244 1011 298 L1011 544 Z M348 1448 L1044 1448 L1044 1376 L348 1376 L348 1448 Z " />
<glyph glyph-name="Abreve" unicode="&#x102;" horiz-adv-x="1483" >
<path fill="black" d="M694 1456 L788 1456 L1444 0 L1353 0 L1163 424 L320 424 L130 0 L39 0 L694 1456 Z M1129 499 L741 1364 L354 499 L1129 499 Z " />
<g transform="translate(230,322)" >
<path fill="black" d="M253 1488 Q253 1451 267 1417.5 Q281 1384 311.5 1359 Q342 1334 391.5 1319.5 Q441 1305 512 1305 Q581 1305 630 1320 Q679 1335 710.5 1360 Q742 1385 756.5 1418 Q771 1451 771 1488 L848 1488 Q848 1433 825 1386.5 Q802 1340 758.5 1306.5 Q715 1273 653 1254.5 Q591 1236 512 1236 Q433 1236 370 1254.5 Q307 1273 263.5 1306.5 Q220 1340 197 1386.5 Q174 1433 174 1488 L253 1488 Z " />
</g>
</glyph>
<glyph glyph-name="abreve" unicode="&#x103;" horiz-adv-x="1301" >
<path fill="black" d="M146 785 Q146 847 182 904.5 Q218 962 282.5 1006 Q347 1050 436 1076 Q525 1102 631 1102 Q733 1102 818 1080.5 Q903 1059 964.5 1015.5 Q1026 972 1060 907.5 Q1094 843 1094 756 L1094 222 Q1094 193 1096 163 Q1098 133 1102.5 105 Q1107 77 1113.5 52.5 Q1120 28 1129 11 L1129 0 L1037 0 Q1024 35 1018 85.5 Q1012 136 1011 186 Q978 145 931.5 108 Q885 71 823.5 42.5 Q762 14 685.5 -3 Q609 -20 517 -20 Q425 -20 350.5 2.5 Q276 25 223 65 Q170 105 141.5 160 Q113 215 113 280 Q113 355 154 417 Q195 479 272 523 Q349 567 460 591 Q571 615 711 615 L1011 615 L1011 758 Q1011 886 912.5 957 Q814 1028 629 1028 Q544 1028 470.5 1009 Q397 990 343.5 957 Q290 924 259.5 879.5 Q229 835 229 784 L146 785 Z M1011 544 L719 544 Q597 544 500 525 Q403 506 335.5 471.5 Q268 437 232 389 Q196 341 196 282 Q196 235 219.5 194 Q243 153 285.5 122 Q328 91 388 73.5 Q448 56 520 56 Q610 56 687 73.5 Q764 91 825.5 123 Q887 155 934 199.5 Q981 244 1011 298 L1011 544 Z " />
<g transform="translate(180,4)" >
<path fill="black" d="M253 1488 Q253 1451 267 1417.5 Q281 1384 311.5 1359 Q342 1334 391.5 1319.5 Q441 1305 512 1305 Q581 1305 630 1320 Q679 1335 710.5 1360 Q742 1385 756.5 1418 Q771 1451 771 1488 L848 1488 Q848 1433 825 1386.5 Q802 1340 758.5 1306.5 Q715 1273 653 1254.5 Q591 1236 512 1236 Q433 1236 370 1254.5 Q307 1273 263.5 1306.5 Q220 1340 197 1386.5 Q174 1433 174 1488 L253 1488 Z " />
</g>
</glyph>
<glyph glyph-name="Aogonek" unicode="&#x104;" horiz-adv-x="1483" d="M694 1456 L788 1456 L1444 0 L1439 0 Q1397 -27 1356.5 -55 Q1316 -83 1284.5 -112.5 Q1253 -142 1234 -174 Q1215 -206 1215 -241 Q1215 -259 1220 -275.5 Q1225 -292 1237.5 -304 Q1250 -316 1271.5 -323.5 Q1293 -331 1325 -331 Q1372 -331 1403 -319 Q1434 -307 1455 -296 L1475 -359 Q1451 -374 1413 -388.5 Q1375 -403 1318 -403 Q1236 -403 1186 -364 Q1136 -325 1136 -245 Q1136 -212 1153.5 -178.5 Q1171 -145 1200 -113 Q1229 -81 1267.5 -50 Q1306 -19 1349 8 L1163 424 L320 424 L130 0 L39 0 L694 1456 Z M1129 499 L741 1364 L354 499 L1129 499 Z " />
<glyph glyph-name="aogonek" unicode="&#x105;" horiz-adv-x="1301" d="M1125 0 Q1083 -27 1042.5 -55 Q1002 -83 970.5 -112.5 Q939 -142 920 -174 Q901 -206 901 -241 Q901 -259 906 -275.5 Q911 -292 923.5 -304 Q936 -316 957.5 -323.5 Q979 -331 1011 -331 Q1058 -331 1089 -319 Q1120 -307 1141 -296 L1161 -359 Q1137 -374 1099 -388.5 Q1061 -403 1004 -403 Q922 -403 872 -364 Q822 -325 822 -245 Q822 -212 839 -179 Q856 -146 885 -113.5 Q914 -81 952.5 -50.5 Q991 -20 1034 7 Q1023 42 1017.5 90.5 Q1012 139 1011 186 Q978 145 931.5 108 Q885 71 823.5 42.5 Q762 14 685.5 -3 Q609 -20 517 -20 Q425 -20 350.5 2.5 Q276 25 223 65 Q170 105 141.5 160 Q113 215 113 280 Q113 355 154 417 Q195 479 272 523 Q349 567 460 591 Q571 615 711 615 L1011 615 L1011 758 Q1011 886 912.5 957 Q814 1028 629 1028 Q544 1028 470.5 1009 Q397 990 343.5 957 Q290 924 259.5 879.5 Q229 835 229 784 L146 785 Q146 847 182 904.5 Q218 962 282.5 1006 Q347 1050 436 1076 Q525 1102 631 1102 Q733 1102 818 1080.5 Q903 1059 964.5 1015.5 Q1026 972 1060 907.5 Q1094 843 1094 756 L1094 222 Q1094 193 1096 163 Q1098 133 1102.5 105 Q1107 77 1113.5 52.5 Q1120 28 1129 11 L1129 0 L1125 0 Z M1011 544 L719 544 Q597 544 500 525 Q403 506 335.5 471.5 Q268 437 232 389 Q196 341 196 282 Q196 235 219.5 194 Q243 153 285.5 122 Q328 91 388 73.5 Q448 56 520 56 Q610 56 687 73.5 Q764 91 825.5 123 Q887 155 934 199.5 Q981 244 1011 298 L1011 544 Z " />
<glyph glyph-name="Cacute" unicode="&#x106;" horiz-adv-x="1594" >
<path fill="black" d="M170 829 Q170 974 215.5 1093 Q261 1212 344.5 1297 Q428 1382 546 1429 Q664 1476 810 1476 Q944 1476 1053 1446 Q1162 1416 1243 1356.5 Q1324 1297 1373.5 1209.5 Q1423 1122 1436 1007 L1351 1007 Q1324 1198 1188.5 1299 Q1053 1400 810 1400 Q684 1400 581.5 1359 Q479 1318 406.5 1243.5 Q334 1169 294 1064 Q254 959 254 831 L254 627 Q254 500 293.5 395 Q333 290 405 214.5 Q477 139 579.5 97.5 Q682 56 808 56 Q1048 56 1186 152 Q1324 248 1351 449 L1436 449 Q1423 334 1373.5 246.5 Q1324 159 1243 100 Q1162 41 1052 10.5 Q942 -20 808 -20 Q663 -20 545 27 Q427 74 344 159 Q261 244 215.5 363 Q170 482 170 627 L170 829 Z " />
<g transform="translate(607,341)" >
<path fill="black" d="M377 1536 L479 1536 L234 1264 L150 1264 L377 1536 Z " />
</g>
</glyph>
<glyph glyph-name="cacute" unicode="&#x107;" horiz-adv-x="1251" >
<path fill="black" d="M116 562 Q116 679 151.5 778 Q187 877 255 949 Q323 1021 422.5 1061.5 Q522 1102 650 1102 Q746 1102 832.5 1077 Q919 1052 985 1003.5 Q1051 955 1092 884 Q1133 813 1137 722 L1056 722 Q1052 796 1017.5 853 Q983 910 927.5 949 Q872 988 800.5 1008 Q729 1028 650 1028 Q533 1028 447.5 990.5 Q362 953 307 889.5 Q252 826 225.5 741.5 Q199 657 199 562 L199 520 Q199 425 225.5 340 Q252 255 307 191.5 Q362 128 448 91 Q534 54 652 54 Q726 54 796.5 70.5 Q867 87 922.5 121.5 Q978 156 1014 208 Q1050 260 1056 331 L1137 331 Q1132 251 1091.5 186 Q1051 121 985 75.5 Q919 30 833.5 5 Q748 -20 652 -20 Q523 -20 423.5 20.5 Q324 61 255.5 133 Q187 205 151.5 304 Q116 403 116 520 L116 562 Z " />
<g transform="translate(448,-2)" >
<path fill="black" d="M377 1536 L479 1536 L234 1264 L150 1264 L377 1536 Z " />
</g>
</glyph>
<glyph glyph-name="Cdotaccent" unicode="&#x10a;" horiz-adv-x="1594" >
<path fill="black" d="M170 829 Q170 974 215.5 1093 Q261 1212 344.5 1297 Q428 1382 546 1429 Q664 1476 810 1476 Q944 1476 1053 1446 Q1162 1416 1243 1356.5 Q1324 1297 1373.5 1209.5 Q1423 1122 1436 1007 L1351 1007 Q1324 1198 1188.5 1299 Q1053 1400 810 1400 Q684 1400 581.5 1359 Q479 1318 406.5 1243.5 Q334 1169 294 1064 Q254 959 254 831 L254 627 Q254 500 293.5 395 Q333 290 405 214.5 Q477 139 579.5 97.5 Q682 56 808 56 Q1048 56 1186 152 Q1324 248 1351 449 L1436 449 Q1423 334 1373.5 246.5 Q1324 159 1243 100 Q1162 41 1052 10.5 Q942 -20 808 -20 Q663 -20 545 27 Q427 74 344 159 Q261 244 215.5 363 Q170 482 170 627 L170 829 Z " />
<g transform="translate(565,1673)" >
<path fill="black" d="M176 58 Q176 86 196.5 105.5 Q217 125 249 125 Q281 125 302.5 105.5 Q324 86 324 58 Q324 30 302.5 11.5 Q281 -7 249 -7 Q217 -7 196.5 11.5 Q176 30 176 58 Z " />
</g>
</glyph>
<glyph glyph-name="cdotaccent" unicode="&#x10b;" horiz-adv-x="1251" >
<path fill="black" d="M116 562 Q116 679 151.5 778 Q187 877 255 949 Q323 1021 422.5 1061.5 Q522 1102 650 1102 Q746 1102 832.5 1077 Q919 1052 985 1003.5 Q1051 955 1092 884 Q1133 813 1137 722 L1056 722 Q1052 796 1017.5 853 Q983 910 927.5 949 Q872 988 800.5 1008 Q729 1028 650 1028 Q533 1028 447.5 990.5 Q362 953 307 889.5 Q252 826 225.5 741.5 Q199 657 199 562 L199 520 Q199 425 225.5 340 Q252 255 307 191.5 Q362 128 448 91 Q534 54 652 54 Q726 54 796.5 70.5 Q867 87 922.5 121.5 Q978 156 1014 208 Q1050 260 1056 331 L1137 331 Q1132 251 1091.5 186 Q1051 121 985 75.5 Q919 30 833.5 5 Q748 -20 652 -20 Q523 -20 423.5 20.5 Q324 61 255.5 133 Q187 205 151.5 304 Q116 403 116 520 L116 562 Z " />
<g transform="translate(406,1330)" >
<path fill="black" d="M176 58 Q176 86 196.5 105.5 Q217 125 249 125 Q281 125 302.5 105.5 Q324 86 324 58 Q324 30 302.5 11.5 Q281 -7 249 -7 Q217 -7 196.5 11.5 Q176 30 176 58 Z " />
</g>
</glyph>
<glyph glyph-name="Ccaron" unicode="&#x10c;" horiz-adv-x="1594" >
<path fill="black" d="M170 829 Q170 974 215.5 1093 Q261 1212 344.5 1297 Q428 1382 546 1429 Q664 1476 810 1476 Q944 1476 1053 1446 Q1162 1416 1243 1356.5 Q1324 1297 1373.5 1209.5 Q1423 1122 1436 1007 L1351 1007 Q1324 1198 1188.5 1299 Q1053 1400 810 1400 Q684 1400 581.5 1359 Q479 1318 406.5 1243.5 Q334 1169 294 1064 Q254 959 254 831 L254 627 Q254 500 293.5 395 Q333 290 405 214.5 Q477 139 579.5 97.5 Q682 56 808 56 Q1048 56 1186 152 Q1324 248 1351 449 L1436 449 Q1423 334 1373.5 246.5 Q1324 159 1243 100 Q1162 41 1052 10.5 Q942 -20 808 -20 Q663 -20 545 27 Q427 74 344 159 Q261 244 215.5 363 Q170 482 170 627 L170 829 Z " />
<g transform="translate(330,345)" >
<path fill="black" d="M175 1512 L257 1512 L483 1305 L710 1512 L788 1512 L788 1500 L521 1245 L444 1245 L175 1501 L175 1512 Z " />
</g>
</glyph>
<glyph glyph-name="ccaron" unicode="&#x10d;" horiz-adv-x="1251" >
<path fill="black" d="M116 562 Q116 679 151.5 778 Q187 877 255 949 Q323 1021 422.5 1061.5 Q522 1102 650 1102 Q746 1102 832.5 1077 Q919 1052 985 1003.5 Q1051 955 1092 884 Q1133 813 1137 722 L1056 722 Q1052 796 1017.5 853 Q983 910 927.5 949 Q872 988 800.5 1008 Q729 1028 650 1028 Q533 1028 447.5 990.5 Q362 953 307 889.5 Q252 826 225.5 741.5 Q199 657 199 562 L199 520 Q199 425 225.5 340 Q252 255 307 191.5 Q362 128 448 91 Q534 54 652 54 Q726 54 796.5 70.5 Q867 87 922.5 121.5 Q978 156 1014 208 Q1050 260 1056 331 L1137 331 Q1132 251 1091.5 186 Q1051 121 985 75.5 Q919 30 833.5 5 Q748 -20 652 -20 Q523 -20 423.5 20.5 Q324 61 255.5 133 Q187 205 151.5 304 Q116 403 116 520 L116 562 Z " />
<g transform="translate(171,2)" >
<path fill="black" d="M175 1512 L257 1512 L483 1305 L710 1512 L788 1512 L788 1500 L521 1245 L444 1245 L175 1501 L175 1512 Z " />
</g>
</glyph>
<glyph glyph-name="Dcaron" unicode="&#x10e;" horiz-adv-x="1608" >
<path fill="black" d="M235 1456 L720 1456 Q877 1456 1010 1409 Q1143 1362 1240 1277 Q1337 1192 1392 1072.5 Q1447 953 1447 807 L1447 648 Q1447 503 1392.5 383.5 Q1338 264 1240.5 179 Q1143 94 1009.5 47 Q876 0 718 0 L235 0 L235 1456 Z M718 76 Q859 76 977 118 Q1095 160 1181 235.5 Q1267 311 1315 416.5 Q1363 522 1363 648 L1363 810 Q1363 937 1315 1042 Q1267 1147 1181 1222 Q1095 1297 977.5 1338.5 Q860 1380 720 1380 L320 1380 L320 76 L718 76 Z " />
<g transform="translate(226,324)" >
<path fill="black" d="M175 1512 L257 1512 L483 1305 L710 1512 L788 1512 L788 1500 L521 1245 L444 1245 L175 1501 L175 1512 Z " />
</g>
</glyph>
<glyph glyph-name="dcaron" unicode="&#x10f;" horiz-adv-x="1278" >
<path fill="black" d="M142 552 Q142 679 175.5 780.5 Q209 882 272.5 953.5 Q336 1025 427.5 1063.5 Q519 1102 634 1102 Q789 1102 896 1044.5 Q1003 987 1065 889 L1065 1536 L1149 1536 L1149 0 L1068 0 L1066 175 Q1004 88 895.5 34 Q787 -20 632 -20 Q517 -20 426 20 Q335 60 272 133 Q209 206 175.5 307 Q142 408 142 531 L142 552 Z M228 531 Q228 429 253 342 Q278 255 328.5 191.5 Q379 128 456 92 Q533 56 637 56 Q723 56 791.5 73 Q860 90 913 119.5 Q966 149 1003.5 190 Q1041 231 1065 279 L1065 776 Q1046 821 1013 866 Q980 911 929.5 947 Q879 983 807.5 1005 Q736 1027 639 1027 Q534 1027 456.5 991 Q379 955 328.5 891.5 Q278 828 253 741 Q228 654 228 552 L228 531 Z " />
<g transform="translate(935,1395)" >
<path fill="black" d="M-782 -463 Q-740 -412 -719.5 -363 Q-699 -314 -699 -247 L-699 -168 L-617 -168 L-617 -245 Q-617 -324 -647.5 -390.5 Q-678 -457 -729 -504 L-782 -463 Z " />
</g>
</glyph>
<glyph glyph-name="Dcroat" unicode="&#x110;" horiz-adv-x="1608" >
<path fill="black" d="M235 703 L64 703 L64 778 L235 778 L235 1456 L720 1456 Q877 1456 1010 1409 Q1143 1362 1240 1277 Q1337 1192 1392 1072.5 Q1447 953 1447 807 L1447 648 Q1447 503 1392.5 383.5 Q1338 264 1240.5 179 Q1143 94 1009.5 47 Q876 0 718 0 L235 0 L235 703 Z M718 76 Q859 76 977 118 Q1095 160 1181 235.5 Q1267 311 1315 416.5 Q1363 522 1363 648 L1363 810 Q1363 937 1315 1042 Q1267 1147 1181 1222 Q1095 1297 977.5 1338.5 Q860 1380 720 1380 L320 1380 L320 778 L775 778 L775 703 L320 703 L320 76 L718 76 Z " />
</glyph>
<glyph glyph-name="dslash" unicode="&#x111;" horiz-adv-x="1359" d="M142 552 Q142 679 175.5 780.5 Q209 882 272.5 953.5 Q336 1025 427.5 1063.5 Q519 1102 634 1102 Q789 1102 896 1044.5 Q1003 987 1065 889 L1065 1271 L634 1271 L634 1345 L1065 1345 L1065 1536 L1149 1536 L1149 1345 L1344 1345 L1344 1271 L1149 1271 L1149 0 L1068 0 L1066 175 Q1004 88 895.5 34 Q787 -20 632 -20 Q517 -20 426 20 Q335 60 272 133 Q209 206 175.5 307 Q142 408 142 531 L142 552 Z M228 531 Q228 429 253 342 Q278 255 328.5 191.5 Q379 128 456 92 Q533 56 637 56 Q723 56 791.5 73 Q860 90 913 119.5 Q966 149 1003.5 190 Q1041 231 1065 279 L1065 776 Q1046 821 1013 866 Q980 911 929.5 947 Q879 983 807.5 1005 Q736 1027 639 1027 Q534 1027 456.5 991 Q379 955 328.5 891.5 Q278 828 253 741 Q228 654 228 552 L228 531 Z " />
<glyph glyph-name="Emacron" unicode="&#x112;" horiz-adv-x="1399" d="M235 1456 L1303 1456 L1303 1380 L320 1380 L320 787 L1182 787 L1182 712 L320 712 L320 76 L1304 76 L1304 0 L235 0 L235 1456 Z M398 1768 L1094 1768 L1094 1696 L398 1696 L398 1768 Z " />
<glyph glyph-name="emacron" unicode="&#x113;" horiz-adv-x="1246" d="M105 559 Q105 680 148.5 780 Q192 880 266.5 951.5 Q341 1023 440.5 1062.5 Q540 1102 652 1102 Q764 1102 856 1067 Q948 1032 1013.5 969 Q1079 906 1115 818.5 Q1151 731 1151 626 L1151 559 L188 559 L188 515 Q188 419 225 334.5 Q262 250 328 188 Q394 126 483.5 90 Q573 54 678 54 Q791 54 885.5 87 Q980 120 1059 202 L1115 162 Q1083 123 1040.5 89.5 Q998 56 944 32 Q890 8 823.5 -6 Q757 -20 677 -20 Q557 -20 452.5 19.5 Q348 59 270.5 130.5 Q193 202 149 300 Q105 398 105 515 L105 559 Z M1068 633 L1068 646 Q1068 722 1039 791 Q1010 860 956 912.5 Q902 965 825 996.5 Q748 1028 652 1028 Q558 1028 479 998.5 Q400 969 340 916.5 Q280 864 242.5 791.5 Q205 719 193 633 L1068 633 Z M336 1447 L1032 1447 L1032 1375 L336 1375 L336 1447 Z " />
<glyph glyph-name="Edotaccent" unicode="&#x116;" horiz-adv-x="1399" >
<path fill="black" d="M235 1456 L1303 1456 L1303 1380 L320 1380 L320 787 L1182 787 L1182 712 L320 712 L320 76 L1304 76 L1304 0 L235 0 L235 1456 Z " />
<g transform="translate(494,1652)" >
<path fill="black" d="M176 58 Q176 86 196.5 105.5 Q217 125 249 125 Q281 125 302.5 105.5 Q324 86 324 58 Q324 30 302.5 11.5 Q281 -7 249 -7 Q217 -7 196.5 11.5 Q176 30 176 58 Z " />
</g>
</glyph>
<glyph glyph-name="edotaccent" unicode="&#x117;" horiz-adv-x="1246" >
<path fill="black" d="M105 559 Q105 680 148.5 780 Q192 880 266.5 951.5 Q341 1023 440.5 1062.5 Q540 1102 652 1102 Q764 1102 856 1067 Q948 1032 1013.5 969 Q1079 906 1115 818.5 Q1151 731 1151 626 L1151 559 L188 559 L188 515 Q188 419 225 334.5 Q262 250 328 188 Q394 126 483.5 90 Q573 54 678 54 Q791 54 885.5 87 Q980 120 1059 202 L1115 162 Q1083 123 1040.5 89.5 Q998 56 944 32 Q890 8 823.5 -6 Q757 -20 677 -20 Q557 -20 452.5 19.5 Q348 59 270.5 130.5 Q193 202 149 300 Q105 398 105 515 L105 559 Z M1068 633 L1068 646 Q1068 722 1039 791 Q1010 860 956 912.5 Q902 965 825 996.5 Q748 1028 652 1028 Q558 1028 479 998.5 Q400 969 340 916.5 Q280 864 242.5 791.5 Q205 719 193 633 L1068 633 Z " />
<g transform="translate(432,1331)" >
<path fill="black" d="M176 58 Q176 86 196.5 105.5 Q217 125 249 125 Q281 125 302.5 105.5 Q324 86 324 58 Q324 30 302.5 11.5 Q281 -7 249 -7 Q217 -7 196.5 11.5 Q176 30 176 58 Z " />
</g>
</glyph>
<glyph glyph-name="Eogonek" unicode="&#x118;" horiz-adv-x="1399" d="M235 1456 L1303 1456 L1303 1380 L320 1380 L320 787 L1182 787 L1182 712 L320 712 L320 76 L1304 76 L1304 0 L1232 0 Q1190 -27 1149.5 -55 Q1109 -83 1077.5 -112.5 Q1046 -142 1027 -174 Q1008 -206 1008 -241 Q1008 -259 1013 -275.5 Q1018 -292 1030.5 -304 Q1043 -316 1064.5 -323.5 Q1086 -331 1118 -331 Q1165 -331 1196 -319 Q1227 -307 1248 -296 L1268 -359 Q1244 -374 1206 -388.5 Q1168 -403 1111 -403 Q1029 -403 979 -364 Q929 -325 929 -245 Q929 -213 945 -181 Q961 -149 988.5 -117.5 Q1016 -86 1052.5 -56.5 Q1089 -27 1130 0 L235 0 L235 1456 Z " />
<glyph glyph-name="eogonek" unicode="&#x119;" horiz-adv-x="1246" d="M105 559 Q105 680 148.5 780 Q192 880 266.5 951.5 Q341 1023 440.5 1062.5 Q540 1102 652 1102 Q764 1102 856 1067 Q948 1032 1013.5 969 Q1079 906 1115 818.5 Q1151 731 1151 626 L1151 559 L188 559 L188 515 Q188 419 225 334.5 Q262 250 328 188 Q394 126 483.5 90 Q573 54 678 54 Q791 54 885.5 87 Q980 120 1059 202 L1115 162 Q1089 131 1058 104 Q1027 77 988 55 L996 51 Q954 24 913.5 -4 Q873 -32 841.5 -61.5 Q810 -91 791 -123 Q772 -155 772 -190 Q772 -208 777 -224.5 Q782 -241 794.5 -253 Q807 -265 828.5 -272.5 Q850 -280 882 -280 Q929 -280 960 -268 Q991 -256 1012 -245 L1032 -308 Q1008 -323 970 -337.5 Q932 -352 875 -352 Q793 -352 743 -313 Q693 -274 693 -194 Q693 -146 726.5 -99.5 Q760 -53 814 -8 Q751 -20 677 -20 Q557 -20 452.5 19.5 Q348 59 270.5 130.5 Q193 202 149 300 Q105 398 105 515 L105 559 Z M1068 633 L1068 646 Q1068 722 1039 791 Q1010 860 956 912.5 Q902 965 825 996.5 Q748 1028 652 1028 Q558 1028 479 998.5 Q400 969 340 916.5 Q280 864 242.5 791.5 Q205 719 193 633 L1068 633 Z " />
<glyph glyph-name="Ecaron" unicode="&#x11a;" horiz-adv-x="1399" >
<path fill="black" d="M235 1456 L1303 1456 L1303 1380 L320 1380 L320 787 L1182 787 L1182 712 L320 712 L320 76 L1304 76 L1304 0 L235 0 L235 1456 Z " />
<g transform="translate(259,324)" >
<path fill="black" d="M175 1512 L257 1512 L483 1305 L710 1512 L788 1512 L788 1500 L521 1245 L444 1245 L175 1501 L175 1512 Z " />
</g>
</glyph>
<glyph glyph-name="ecaron" unicode="&#x11b;" horiz-adv-x="1246" >
<path fill="black" d="M105 559 Q105 680 148.5 780 Q192 880 266.5 951.5 Q341 1023 440.5 1062.5 Q540 1102 652 1102 Q764 1102 856 1067 Q948 1032 1013.5 969 Q1079 906 1115 818.5 Q1151 731 1151 626 L1151 559 L188 559 L188 515 Q188 419 225 334.5 Q262 250 328 188 Q394 126 483.5 90 Q573 54 678 54 Q791 54 885.5 87 Q980 120 1059 202 L1115 162 Q1083 123 1040.5 89.5 Q998 56 944 32 Q890 8 823.5 -6 Q757 -20 677 -20 Q557 -20 452.5 19.5 Q348 59 270.5 130.5 Q193 202 149 300 Q105 398 105 515 L105 559 Z M1068 633 L1068 646 Q1068 722 1039 791 Q1010 860 956 912.5 Q902 965 825 996.5 Q748 1028 652 1028 Q558 1028 479 998.5 Q400 969 340 916.5 Q280 864 242.5 791.5 Q205 719 193 633 L1068 633 Z " />
<g transform="translate(197,3)" >
<path fill="black" d="M175 1512 L257 1512 L483 1305 L710 1512 L788 1512 L788 1500 L521 1245 L444 1245 L175 1501 L175 1512 Z " />
</g>
</glyph>
<glyph glyph-name="Gbreve" unicode="&#x11e;" horiz-adv-x="1686" >
<path fill="black" d="M195 843 Q195 986 242.5 1102.5 Q290 1219 377 1302 Q464 1385 585.5 1430.5 Q707 1476 854 1476 Q997 1476 1106.5 1443.5 Q1216 1411 1293 1354.5 Q1370 1298 1414.5 1221 Q1459 1144 1471 1055 L1388 1055 Q1375 1124 1339 1186.5 Q1303 1249 1239.5 1296.5 Q1176 1344 1081 1372 Q986 1400 854 1400 Q722 1400 615.5 1359.5 Q509 1319 434 1245.5 Q359 1172 319 1070 Q279 968 279 845 L279 631 Q279 503 321.5 397 Q364 291 442 215.5 Q520 140 630 98 Q740 56 875 56 Q981 56 1067 69.5 Q1153 83 1218.5 104 Q1284 125 1327 149 Q1370 173 1390 194 L1390 598 L871 598 L871 674 L1474 674 L1474 164 Q1452 138 1404.5 106 Q1357 74 1282.5 46 Q1208 18 1106.5 -1 Q1005 -20 875 -20 Q724 -20 599 26.5 Q474 73 384 158.5 Q294 244 244.5 364 Q195 484 195 631 L195 843 Z " />
<g transform="translate(326,345)" >
<path fill="black" d="M253 1488 Q253 1451 267 1417.5 Q281 1384 311.5 1359 Q342 1334 391.5 1319.5 Q441 1305 512 1305 Q581 1305 630 1320 Q679 1335 710.5 1360 Q742 1385 756.5 1418 Q771 1451 771 1488 L848 1488 Q848 1433 825 1386.5 Q802 1340 758.5 1306.5 Q715 1273 653 1254.5 Q591 1236 512 1236 Q433 1236 370 1254.5 Q307 1273 263.5 1306.5 Q220 1340 197 1386.5 Q174 1433 174 1488 L253 1488 Z " />
</g>
</glyph>
<glyph glyph-name="gbreve" unicode="&#x11f;" horiz-adv-x="1352" >
<path fill="black" d="M273 -199 Q350 -280 439.5 -320.5 Q529 -361 647 -361 Q749 -361 827 -335 Q905 -309 957.5 -260 Q1010 -211 1037 -141.5 Q1064 -72 1064 15 L1064 173 Q1003 87 894.5 33.5 Q786 -20 632 -20 Q517 -20 426 20 Q335 60 272 133 Q209 206 175.5 307 Q142 408 142 531 L142 552 Q142 679 175.5 780.5 Q209 882 272 953.5 Q335 1025 426.5 1063.5 Q518 1102 634 1102 Q789 1102 895.5 1044 Q1002 986 1065 888 L1067 1082 L1149 1082 L1149 17 Q1149 -88 1114.5 -171.5 Q1080 -255 1015.5 -313.5 Q951 -372 858.5 -403 Q766 -434 650 -434 Q512 -434 401.5 -385.5 Q291 -337 219 -251 L273 -199 Z M226 531 Q226 429 251 342 Q276 255 327 191.5 Q378 128 455.5 92 Q533 56 637 56 Q724 56 793 73.5 Q862 91 914.5 121.5 Q967 152 1004 194 Q1041 236 1064 285 L1064 769 Q1045 815 1013.5 861 Q982 907 932 944 Q882 981 810.5 1004 Q739 1027 640 1027 Q535 1027 457 991 Q379 955 327.5 891.5 Q276 828 251 741 Q226 654 226 552 L226 531 Z " />
<g transform="translate(166,2)" >
<path fill="black" d="M253 1488 Q253 1451 267 1417.5 Q281 1384 311.5 1359 Q342 1334 391.5 1319.5 Q441 1305 512 1305 Q581 1305 630 1320 Q679 1335 710.5 1360 Q742 1385 756.5 1418 Q771 1451 771 1488 L848 1488 Q848 1433 825 1386.5 Q802 1340 758.5 1306.5 Q715 1273 653 1254.5 Q591 1236 512 1236 Q433 1236 370 1254.5 Q307 1273 263.5 1306.5 Q220 1340 197 1386.5 Q174 1433 174 1488 L253 1488 Z " />
</g>
</glyph>
<glyph glyph-name="Gdotaccent" unicode="&#x120;" horiz-adv-x="1686" >
<path fill="black" d="M195 843 Q195 986 242.5 1102.5 Q290 1219 377 1302 Q464 1385 585.5 1430.5 Q707 1476 854 1476 Q997 1476 1106.5 1443.5 Q1216 1411 1293 1354.5 Q1370 1298 1414.5 1221 Q1459 1144 1471 1055 L1388 1055 Q1375 1124 1339 1186.5 Q1303 1249 1239.5 1296.5 Q1176 1344 1081 1372 Q986 1400 854 1400 Q722 1400 615.5 1359.5 Q509 1319 434 1245.5 Q359 1172 319 1070 Q279 968 279 845 L279 631 Q279 503 321.5 397 Q364 291 442 215.5 Q520 140 630 98 Q740 56 875 56 Q981 56 1067 69.5 Q1153 83 1218.5 104 Q1284 125 1327 149 Q1370 173 1390 194 L1390 598 L871 598 L871 674 L1474 674 L1474 164 Q1452 138 1404.5 106 Q1357 74 1282.5 46 Q1208 18 1106.5 -1 Q1005 -20 875 -20 Q724 -20 599 26.5 Q474 73 384 158.5 Q294 244 244.5 364 Q195 484 195 631 L195 843 Z " />
<g transform="translate(590,1673)" >
<path fill="black" d="M176 58 Q176 86 196.5 105.5 Q217 125 249 125 Q281 125 302.5 105.5 Q324 86 324 58 Q324 30 302.5 11.5 Q281 -7 249 -7 Q217 -7 196.5 11.5 Q176 30 176 58 Z " />
</g>
</glyph>
<glyph glyph-name="gdotaccent" unicode="&#x121;" horiz-adv-x="1352" >
<path fill="black" d="M273 -199 Q350 -280 439.5 -320.5 Q529 -361 647 -361 Q749 -361 827 -335 Q905 -309 957.5 -260 Q1010 -211 1037 -141.5 Q1064 -72 1064 15 L1064 173 Q1003 87 894.5 33.5 Q786 -20 632 -20 Q517 -20 426 20 Q335 60 272 133 Q209 206 175.5 307 Q142 408 142 531 L142 552 Q142 679 175.5 780.5 Q209 882 272 953.5 Q335 1025 426.5 1063.5 Q518 1102 634 1102 Q789 1102 895.5 1044 Q1002 986 1065 888 L1067 1082 L1149 1082 L1149 17 Q1149 -88 1114.5 -171.5 Q1080 -255 1015.5 -313.5 Q951 -372 858.5 -403 Q766 -434 650 -434 Q512 -434 401.5 -385.5 Q291 -337 219 -251 L273 -199 Z M226 531 Q226 429 251 342 Q276 255 327 191.5 Q378 128 455.5 92 Q533 56 637 56 Q724 56 793 73.5 Q862 91 914.5 121.5 Q967 152 1004 194 Q1041 236 1064 285 L1064 769 Q1045 815 1013.5 861 Q982 907 932 944 Q882 981 810.5 1004 Q739 1027 640 1027 Q535 1027 457 991 Q379 955 327.5 891.5 Q276 828 251 741 Q226 654 226 552 L226 531 Z " />
<g transform="translate(430,1330)" >
<path fill="black" d="M176 58 Q176 86 196.5 105.5 Q217 125 249 125 Q281 125 302.5 105.5 Q324 86 324 58 Q324 30 302.5 11.5 Q281 -7 249 -7 Q217 -7 196.5 11.5 Q176 30 176 58 Z " />
</g>
</glyph>
<glyph glyph-name="uni0122" unicode="&#x122;" horiz-adv-x="1404" >
<path fill="black" d="M195 843 Q195 986 242.5 1102.5 Q290 1219 377 1302 Q464 1385 585.5 1430.5 Q707 1476 854 1476 Q997 1476 1106.5 1443.5 Q1216 1411 1293 1354.5 Q1370 1298 1414.5 1221 Q1459 1144 1471 1055 L1388 1055 Q1375 1124 1339 1186.5 Q1303 1249 1239.5 1296.5 Q1176 1344 1081 1372 Q986 1400 854 1400 Q722 1400 615.5 1359.5 Q509 1319 434 1245.5 Q359 1172 319 1070 Q279 968 279 845 L279 631 Q279 503 321.5 397 Q364 291 442 215.5 Q520 140 630 98 Q740 56 875 56 Q981 56 1067 69.5 Q1153 83 1218.5 104 Q1284 125 1327 149 Q1370 173 1390 194 L1390 598 L871 598 L871 674 L1474 674 L1474 164 Q1452 138 1404.5 106 Q1357 74 1282.5 46 Q1208 18 1106.5 -1 Q1005 -20 875 -20 Q724 -20 599 26.5 Q474 73 384 158.5 Q294 244 244.5 364 Q195 484 195 631 L195 843 Z " />
<g transform="translate(481,-246)" >
<path fill="black" d="M-782 -463 Q-740 -412 -719.5 -363 Q-699 -314 -699 -247 L-699 -168 L-617 -168 L-617 -245 Q-617 -324 -647.5 -390.5 Q-678 -457 -729 -504 L-782 -463 Z " />
</g>
</glyph>
<glyph glyph-name="uni0123" unicode="&#x123;" horiz-adv-x="1352" >
<path fill="black" d="M273 -199 Q350 -280 439.5 -320.5 Q529 -361 647 -361 Q749 -361 827 -335 Q905 -309 957.5 -260 Q1010 -211 1037 -141.5 Q1064 -72 1064 15 L1064 173 Q1003 87 894.5 33.5 Q786 -20 632 -20 Q517 -20 426 20 Q335 60 272 133 Q209 206 175.5 307 Q142 408 142 531 L142 552 Q142 679 175.5 780.5 Q209 882 272 953.5 Q335 1025 426.5 1063.5 Q518 1102 634 1102 Q789 1102 895.5 1044 Q1002 986 1065 888 L1067 1082 L1149 1082 L1149 17 Q1149 -88 1114.5 -171.5 Q1080 -255 1015.5 -313.5 Q951 -372 858.5 -403 Q766 -434 650 -434 Q512 -434 401.5 -385.5 Q291 -337 219 -251 L273 -199 Z M226 531 Q226 429 251 342 Q276 255 327 191.5 Q378 128 455.5 92 Q533 56 637 56 Q724 56 793 73.5 Q862 91 914.5 121.5 Q967 152 1004 194 Q1041 236 1064 285 L1064 769 Q1045 815 1013.5 861 Q982 907 932 944 Q882 981 810.5 1004 Q739 1027 640 1027 Q535 1027 457 991 Q379 955 327.5 891.5 Q276 828 251 741 Q226 654 226 552 L226 531 Z " />
<g transform="translate(463,42)" >
<path fill="black" d="M173 1356 Q173 1422 198.5 1475 Q224 1528 256 1568 L317 1537 Q288 1488 272.5 1447 Q257 1406 257 1357 L257 1228 L173 1228 L173 1356 Z " />
</g>
</glyph>
<glyph glyph-name="Hbar" unicode="&#x126;" horiz-adv-x="1399" d="M190 1027 L25 1027 L25 1099 L190 1099 L190 1456 L275 1456 L275 1099 L1363 1099 L1363 1456 L1448 1456 L1448 1099 L1631 1099 L1631 1027 L1448 1027 L1448 0 L1363 0 L1363 712 L275 712 L275 0 L190 0 L190 1027 Z M1363 787 L1363 1027 L275 1027 L275 787 L1363 787 Z " />
<glyph glyph-name="hbar" unicode="&#x127;" horiz-adv-x="1347" d="M202 1271 L30 1271 L30 1346 L202 1346 L202 1536 L285 1536 L285 1346 L741 1346 L741 1271 L285 1271 L285 843 Q316 899 361 946.5 Q406 994 463.5 1028.5 Q521 1063 590 1082.5 Q659 1102 738 1102 Q836 1102 912.5 1079.5 Q989 1057 1042 1009 Q1095 961 1122.5 885 Q1150 809 1150 702 L1150 0 L1067 0 L1067 702 Q1067 797 1042.5 859.5 Q1018 922 973 959.5 Q928 997 865 1012 Q802 1027 726 1027 Q628 1027 552.5 996.5 Q477 966 423 918.5 Q369 871 335 813.5 Q301 756 285 702 L285 0 L202 0 L202 1271 Z " />
<glyph glyph-name="Itilde" unicode="&#x128;" horiz-adv-x="644" >
<g transform="translate(-169,332)" >
<path fill="black" d="M113 1278 Q113 1322 129.5 1358 Q146 1394 175.5 1419 Q205 1444 244.5 1457.5 Q284 1471 329 1471 Q391 1471 433 1452.5 Q475 1434 511.5 1412 Q548 1390 584.5 1371.5 Q621 1353 671 1353 Q700 1353 726 1361.5 Q752 1370 771.5 1386.5 Q791 1403 802.5 1426.5 Q814 1450 814 1480 L890 1478 Q890 1433 873 1396.5 Q856 1360 826.5 1334 Q797 1308 757 1294 Q717 1280 672 1280 Q608 1280 566.5 1298.5 Q525 1317 490.5 1339.5 Q456 1362 420 1380.5 Q384 1399 331 1399 Q301 1399 275.5 1391 Q250 1383 230.5 1367.5 Q211 1352 200 1329.5 Q189 1307 189 1277 L113 1278 Z " />
</g>
<path fill="black" d="M280 0 L280 1456 L365 1456 L365 0 L280 0 Z " />
</glyph>
<glyph glyph-name="itilde" unicode="&#x129;" horiz-adv-x="502" >
<g transform="translate(-235,-7)" >
<path fill="black" d="M113 1278 Q113 1322 129.5 1358 Q146 1394 175.5 1419 Q205 1444 244.5 1457.5 Q284 1471 329 1471 Q391 1471 433 1452.5 Q475 1434 511.5 1412 Q548 1390 584.5 1371.5 Q621 1353 671 1353 Q700 1353 726 1361.5 Q752 1370 771.5 1386.5 Q791 1403 802.5 1426.5 Q814 1450 814 1480 L890 1478 Q890 1433 873 1396.5 Q856 1360 826.5 1334 Q797 1308 757 1294 Q717 1280 672 1280 Q608 1280 566.5 1298.5 Q525 1317 490.5 1339.5 Q456 1362 420 1380.5 Q384 1399 331 1399 Q301 1399 275.5 1391 Q250 1383 230.5 1367.5 Q211 1352 200 1329.5 Q189 1307 189 1277 L113 1278 Z " />
</g>
<path fill="black" d="M214 0 L214 1082 L297 1082 L297 0 L214 0 Z " />
</glyph>
<glyph glyph-name="Imacron" unicode="&#x12a;" horiz-adv-x="644" >
<path fill="black" d="M280 0 L280 1456 L365 1456 L365 0 L280 0 Z " />
<g transform="translate(-182,330)" >
<path fill="black" d="M160 1366 L160 1438 L856 1438 L856 1366 L160 1366 Z " />
</g>
</glyph>
<glyph glyph-name="imacron" unicode="&#x12b;" horiz-adv-x="502" >
<path fill="black" d="M214 0 L214 1082 L297 1082 L297 0 L214 0 Z " />
<g transform="translate(-248,-9)" >
<path fill="black" d="M160 1366 L160 1438 L856 1438 L856 1366 L160 1366 Z " />
</g>
</glyph>
<glyph glyph-name="Iogonek" unicode="&#x12e;" horiz-adv-x="644" d="M280 1456 L365 1456 L365 0 L352 0 Q310 -27 269.5 -55 Q229 -83 197.5 -112.5 Q166 -142 147 -174 Q128 -206 128 -241 Q128 -259 133 -275.5 Q138 -292 150.5 -304 Q163 -316 184.5 -323.5 Q206 -331 238 -331 Q285 -331 316 -319 Q347 -307 368 -296 L388 -359 Q364 -374 326 -388.5 Q288 -403 231 -403 Q149 -403 99 -364 Q49 -325 49 -245 Q49 -211 68 -175.5 Q87 -140 119 -106.5 Q151 -73 192.5 -41 Q234 -9 280 19 L280 1456 Z " />
<glyph glyph-name="iogonek" unicode="&#x12f;" horiz-adv-x="517" d="M335 -359 Q311 -374 273 -388.5 Q235 -403 178 -403 Q96 -403 46 -364 Q-4 -325 -4 -245 Q-4 -211 14 -177 Q32 -143 63 -109.5 Q94 -76 134 -45 Q174 -14 219 14 L219 1082 L302 1082 L302 0 L299 0 Q257 -27 216.5 -55 Q176 -83 144.5 -112.5 Q113 -142 94 -174 Q75 -206 75 -241 Q75 -259 80 -275.5 Q85 -292 97.5 -304 Q110 -316 131.5 -323.5 Q153 -331 185 -331 Q232 -331 263 -319 Q294 -307 315 -296 L335 -359 Z M187 1409 Q187 1437 207.5 1456.5 Q228 1476 260 1476 Q292 1476 313.5 1456.5 Q335 1437 335 1409 Q335 1381 313.5 1362.5 Q292 1344 260 1344 Q228 1344 207.5 1362.5 Q187 1381 187 1409 Z " />
<glyph glyph-name="Idot" unicode="&#x130;" horiz-adv-x="644" >
<path fill="black" d="M280 0 L280 1456 L365 1456 L365 0 L280 0 Z " />
<g transform="translate(74,1652)" >
<path fill="black" d="M176 58 Q176 86 196.5 105.5 Q217 125 249 125 Q281 125 302.5 105.5 Q324 86 324 58 Q324 30 302.5 11.5 Q281 -7 249 -7 Q217 -7 196.5 11.5 Q176 30 176 58 Z " />
</g>
</glyph>
<glyph glyph-name="dotlessi" unicode="&#x131;" horiz-adv-x="502" d="M214 0 L214 1082 L297 1082 L297 0 L214 0 Z " />
<glyph glyph-name="uni0136" unicode="&#x136;" horiz-adv-x="1297" >
<path fill="black" d="M235 1456 L320 1456 L320 631 L1305 1456 L1420 1456 L656 805 L1480 0 L1372 0 L589 751 L320 535 L320 0 L235 0 L235 1456 Z " />
<g transform="translate(383,-138)" >
<path fill="black" d="M-782 -463 Q-740 -412 -719.5 -363 Q-699 -314 -699 -247 L-699 -168 L-617 -168 L-617 -245 Q-617 -324 -647.5 -390.5 Q-678 -457 -729 -504 L-782 -463 Z " />
</g>
</glyph>
<glyph glyph-name="uni0137" unicode="&#x137;" horiz-adv-x="984" >
<path fill="black" d="M202 1536 L286 1536 L286 519 L437 644 L1002 1082 L1116 1082 L532 624 L1156 0 L1051 0 L466 572 L286 428 L286 0 L202 0 L202 1536 Z " />
<g transform="translate(272,-139)" >
<path fill="black" d="M-782 -463 Q-740 -412 -719.5 -363 Q-699 -314 -699 -247 L-699 -168 L-617 -168 L-617 -245 Q-617 -324 -647.5 -390.5 Q-678 -457 -729 -504 L-782 -463 Z " />
</g>
</glyph>
<glyph glyph-name="Lacute" unicode="&#x139;" horiz-adv-x="1274" >
<path fill="black" d="M235 1456 L321 1456 L321 76 L1209 76 L1209 0 L235 0 L235 1456 Z " />
<g transform="translate(76,267)" >
<path fill="black" d="M377 1536 L479 1536 L234 1264 L150 1264 L377 1536 Z " />
</g>
</glyph>
<glyph glyph-name="lacute" unicode="&#x13a;" horiz-adv-x="720" >
<path fill="black" d="M219 1536 L304 1536 L304 261 Q304 196 319.5 155.5 Q335 115 361 93 Q387 71 421 63.5 Q455 56 493 56 Q529 56 558 59 Q587 62 619 66 L629 -6 Q616 -10 598 -12.5 Q580 -15 560.5 -16.5 Q541 -18 522 -19 Q503 -20 488 -20 Q427 -20 377 -6.5 Q327 7 292 39 Q257 71 238 125.5 Q219 180 219 261 L219 1536 Z " />
<g transform="translate(55,386)" >
<path fill="black" d="M377 1536 L479 1536 L234 1264 L150 1264 L377 1536 Z " />
</g>
</glyph>
<glyph glyph-name="uni013B" unicode="&#x13b;" horiz-adv-x="1067" >
<path fill="black" d="M235 1456 L321 1456 L321 76 L1209 76 L1209 0 L235 0 L235 1456 Z " />
<g transform="translate(376,-234)" >
<path fill="black" d="M-782 -463 Q-740 -412 -719.5 -363 Q-699 -314 -699 -247 L-699 -168 L-617 -168 L-617 -245 Q-617 -324 -647.5 -390.5 Q-678 -457 -729 -504 L-782 -463 Z " />
</g>
</glyph>
<glyph glyph-name="uni013C" unicode="&#x13c;" horiz-adv-x="438" >
<path fill="black" d="M219 1536 L304 1536 L304 261 Q304 196 319.5 155.5 Q335 115 361 93 Q387 71 421 63.5 Q455 56 493 56 Q529 56 558 59 Q587 62 619 66 L629 -6 Q616 -10 598 -12.5 Q580 -15 560.5 -16.5 Q541 -18 522 -19 Q503 -20 488 -20 Q427 -20 377 -6.5 Q327 7 292 39 Q257 71 238 125.5 Q219 180 219 261 L219 1536 Z " />
<g transform="translate(-27,-234)" >
<path fill="black" d="M-782 -463 Q-740 -412 -719.5 -363 Q-699 -314 -699 -247 L-699 -168 L-617 -168 L-617 -245 Q-617 -324 -647.5 -390.5 Q-678 -457 -729 -504 L-782 -463 Z " />
</g>
</glyph>
<glyph glyph-name="Lcaron" unicode="&#x13d;" horiz-adv-x="1067" >
<path fill="black" d="M235 1456 L321 1456 L321 76 L1209 76 L1209 0 L235 0 L235 1456 Z " />
<g transform="translate(406,1314)" >
<path fill="black" d="M-782 -463 Q-740 -412 -719.5 -363 Q-699 -314 -699 -247 L-699 -168 L-617 -168 L-617 -245 Q-617 -324 -647.5 -390.5 Q-678 -457 -729 -504 L-782 -463 Z " />
</g>
</glyph>
<glyph glyph-name="lcaron" unicode="&#x13e;" horiz-adv-x="588" >
<path fill="black" d="M219 1536 L304 1536 L304 261 Q304 196 319.5 155.5 Q335 115 361 93 Q387 71 421 63.5 Q455 56 493 56 Q529 56 558 59 Q587 62 619 66 L629 -6 Q616 -10 598 -12.5 Q580 -15 560.5 -16.5 Q541 -18 522 -19 Q503 -20 488 -20 Q427 -20 377 -6.5 Q327 7 292 39 Q257 71 238 125.5 Q219 180 219 261 L219 1536 Z " />
<g transform="translate(260,1395)" >
<path fill="black" d="M-782 -463 Q-740 -412 -719.5 -363 Q-699 -314 -699 -247 L-699 -168 L-617 -168 L-617 -245 Q-617 -324 -647.5 -390.5 Q-678 -457 -729 -504 L-782 -463 Z " />
</g>
</glyph>
<glyph glyph-name="Lslash" unicode="&#x141;" horiz-adv-x="1070" d="M227 705 L14 649 L14 720 L227 776 L227 1456 L313 1456 L313 799 L722 907 L722 836 L313 728 L313 76 L1201 76 L1201 0 L227 0 L227 705 Z " />
<glyph glyph-name="lslash" unicode="&#x142;" horiz-adv-x="515" d="M272 753 L23 671 L23 743 L272 825 L272 1536 L357 1536 L357 853 L590 930 L590 858 L357 781 L357 261 Q357 196 372.5 155.5 Q388 115 414 93 Q440 71 474 63.5 Q508 56 546 56 Q582 56 611 59 Q640 62 672 66 L682 -6 Q669 -10 651 -12.5 Q633 -15 613.5 -16.5 Q594 -18 575 -19 Q556 -20 541 -20 Q480 -20 430 -6.5 Q380 7 345 39 Q310 71 291 125.5 Q272 180 272 261 L272 753 Z " />
<glyph glyph-name="Nacute" unicode="&#x143;" horiz-adv-x="1741" >
<path fill="black" d="M235 1456 L321 1456 L1420 134 L1420 1456 L1504 1456 L1504 0 L1420 0 L321 1323 L321 0 L235 0 L235 1456 Z " />
<g transform="translate(664,318)" >
<path fill="black" d="M377 1536 L479 1536 L234 1264 L150 1264 L377 1536 Z " />
</g>
</glyph>
<glyph glyph-name="nacute" unicode="&#x144;" horiz-adv-x="1346" >
<path fill="black" d="M202 1082 L284 1082 L285 851 L285 843 Q316 899 361 946.5 Q406 994 463.5 1028.5 Q521 1063 590 1082.5 Q659 1102 738 1102 Q836 1102 912.5 1079.5 Q989 1057 1042 1009 Q1095 961 1122.5 885 Q1150 809 1150 702 L1150 0 L1067 0 L1067 702 Q1067 797 1042.5 859.5 Q1018 922 973 959.5 Q928 997 865 1012 Q802 1027 726 1027 Q628 1027 552.5 996.5 Q477 966 423 918.5 Q369 871 335 813.5 Q301 756 285 702 L285 0 L202 0 L202 1082 Z " />
<g transform="translate(486,-2)" >
<path fill="black" d="M377 1536 L479 1536 L234 1264 L150 1264 L377 1536 Z " />
</g>
</glyph>
<glyph glyph-name="uni0145" unicode="&#x145;" horiz-adv-x="1452" >
<path fill="black" d="M235 1456 L321 1456 L1420 134 L1420 1456 L1504 1456 L1504 0 L1420 0 L321 1323 L321 0 L235 0 L235 1456 Z " />
<g transform="translate(477,-234)" >
<path fill="black" d="M-782 -463 Q-740 -412 -719.5 -363 Q-699 -314 -699 -247 L-699 -168 L-617 -168 L-617 -245 Q-617 -324 -647.5 -390.5 Q-678 -457 -729 -504 L-782 -463 Z " />
</g>
</glyph>
<glyph glyph-name="uni0146" unicode="&#x146;" horiz-adv-x="1123" >
<path fill="black" d="M202 1082 L284 1082 L285 851 L285 843 Q316 899 361 946.5 Q406 994 463.5 1028.5 Q521 1063 590 1082.5 Q659 1102 738 1102 Q836 1102 912.5 1079.5 Q989 1057 1042 1009 Q1095 961 1122.5 885 Q1150 809 1150 702 L1150 0 L1067 0 L1067 702 Q1067 797 1042.5 859.5 Q1018 922 973 959.5 Q928 997 865 1012 Q802 1027 726 1027 Q628 1027 552.5 996.5 Q477 966 423 918.5 Q369 871 335 813.5 Q301 756 285 702 L285 0 L202 0 L202 1082 Z " />
<g transform="translate(327,-234)" >
<path fill="black" d="M-782 -463 Q-740 -412 -719.5 -363 Q-699 -314 -699 -247 L-699 -168 L-617 -168 L-617 -245 Q-617 -324 -647.5 -390.5 Q-678 -457 -729 -504 L-782 -463 Z " />
</g>
</glyph>
<glyph glyph-name="Ncaron" unicode="&#x147;" horiz-adv-x="1741" >
<path fill="black" d="M235 1456 L321 1456 L1420 134 L1420 1456 L1504 1456 L1504 0 L1420 0 L321 1323 L321 0 L235 0 L235 1456 Z " />
<g transform="translate(387,322)" >
<path fill="black" d="M175 1512 L257 1512 L483 1305 L710 1512 L788 1512 L788 1500 L521 1245 L444 1245 L175 1501 L175 1512 Z " />
</g>
</glyph>
<glyph glyph-name="ncaron" unicode="&#x148;" horiz-adv-x="1346" >
<path fill="black" d="M202 1082 L284 1082 L285 851 L285 843 Q316 899 361 946.5 Q406 994 463.5 1028.5 Q521 1063 590 1082.5 Q659 1102 738 1102 Q836 1102 912.5 1079.5 Q989 1057 1042 1009 Q1095 961 1122.5 885 Q1150 809 1150 702 L1150 0 L1067 0 L1067 702 Q1067 797 1042.5 859.5 Q1018 922 973 959.5 Q928 997 865 1012 Q802 1027 726 1027 Q628 1027 552.5 996.5 Q477 966 423 918.5 Q369 871 335 813.5 Q301 756 285 702 L285 0 L202 0 L202 1082 Z " />
<g transform="translate(209,2)" >
<path fill="black" d="M175 1512 L257 1512 L483 1305 L710 1512 L788 1512 L788 1500 L521 1245 L444 1245 L175 1501 L175 1512 Z " />
</g>
</glyph>
<glyph glyph-name="Eng" unicode="&#x14a;" horiz-adv-x="1735" d="M235 1456 L320 1456 L1418 127 L1418 1456 L1502 1456 L1502 -88 Q1502 -173 1478.5 -238 Q1455 -303 1410 -347.5 Q1365 -392 1300.5 -414.5 Q1236 -437 1154 -437 Q1117 -437 1086 -432.5 Q1055 -428 1020 -418 L1036 -344 Q1055 -350 1088.5 -355.5 Q1122 -361 1154 -361 Q1281 -361 1349.5 -290 Q1418 -219 1418 -88 L1418 0 L320 1330 L320 0 L235 0 L235 1456 Z " />
<glyph glyph-name="eng" unicode="&#x14b;" horiz-adv-x="1351" d="M200 1082 L274 1082 L282 870 Q341 978 451.5 1040 Q562 1102 725 1102 Q829 1102 909 1076 Q989 1050 1043 995 Q1097 940 1124.5 853.5 Q1152 767 1152 646 L1152 -89 Q1152 -173 1128.5 -238 Q1105 -303 1060 -347.5 Q1015 -392 950.5 -414.5 Q886 -437 805 -437 Q761 -437 725 -432.5 Q689 -428 648 -418 L664 -344 Q685 -350 726 -355.5 Q767 -361 805 -361 Q932 -361 1000.5 -290.5 Q1069 -220 1069 -89 L1069 647 Q1069 759 1042 832 Q1015 905 968 948.5 Q921 992 857 1009.5 Q793 1027 719 1027 Q617 1027 541.5 1001.5 Q466 976 414 932.5 Q362 889 330 831.5 Q298 774 283 710 L283 0 L200 0 L200 1082 Z " />
<glyph glyph-name="Omacron" unicode="&#x14c;" horiz-adv-x="1644" >
<path fill="black" d="M158 824 Q158 971 205 1091 Q252 1211 338.5 1296.5 Q425 1382 547.5 1429 Q670 1476 821 1476 Q973 1476 1095.5 1429 Q1218 1382 1305 1296.5 Q1392 1211 1439 1091 Q1486 971 1486 824 L1486 632 Q1486 485 1439.5 365 Q1393 245 1306.5 159.5 Q1220 74 1097.5 27 Q975 -20 823 -20 Q672 -20 549.5 27 Q427 74 340 159.5 Q253 245 205.5 365 Q158 485 158 632 L158 824 Z M243 632 Q243 503 282.5 397 Q322 291 396.5 215.5 Q471 140 579 98.5 Q687 57 823 57 Q961 57 1068.5 98.5 Q1176 140 1250.5 215.5 Q1325 291 1363.5 397 Q1402 503 1402 632 L1402 826 Q1402 954 1363 1059.5 Q1324 1165 1249.5 1240.5 Q1175 1316 1067 1357.5 Q959 1399 821 1399 Q685 1399 577.5 1357.5 Q470 1316 395.5 1240.5 Q321 1165 282 1059.5 Q243 954 243 826 L243 632 Z " />
<g transform="translate(311,345)" >
<path fill="black" d="M160 1366 L160 1438 L856 1438 L856 1366 L160 1366 Z " />
</g>
</glyph>
<glyph glyph-name="omacron" unicode="&#x14d;" horiz-adv-x="1359" >
<path fill="black" d="M108 560 Q108 679 149.5 778.5 Q191 878 266 950 Q341 1022 446 1062 Q551 1102 678 1102 Q807 1102 912.5 1062 Q1018 1022 1093 950 Q1168 878 1209 778.5 Q1250 679 1250 560 L1250 522 Q1250 404 1209 304.5 Q1168 205 1093 133 Q1018 61 913.5 20.5 Q809 -20 681 -20 Q553 -20 447.5 20.5 Q342 61 266.5 133 Q191 205 149.5 304.5 Q108 404 108 522 L108 560 Z M191 522 Q191 428 224 343.5 Q257 259 319.5 194.5 Q382 130 473 92 Q564 54 681 54 Q797 54 887 92 Q977 130 1039.5 194.5 Q1102 259 1134.5 343.5 Q1167 428 1167 522 L1167 560 Q1167 652 1134.5 736.5 Q1102 821 1039.5 885.5 Q977 950 886 989 Q795 1028 678 1028 Q563 1028 472 989 Q381 950 319 885.5 Q257 821 224 736.5 Q191 652 191 560 L191 522 Z " />
<g transform="translate(177,8)" >
<path fill="black" d="M160 1366 L160 1438 L856 1438 L856 1366 L160 1366 Z " />
</g>
</glyph>
<glyph glyph-name="Ohungarumlaut" unicode="&#x150;" horiz-adv-x="1644" d="M158 824 Q158 971 205 1091 Q252 1211 338.5 1296.5 Q425 1382 547.5 1429 Q670 1476 821 1476 Q973 1476 1095.5 1429 Q1218 1382 1305 1296.5 Q1392 1211 1439 1091 Q1486 971 1486 824 L1486 632 Q1486 485 1439.5 365 Q1393 245 1306.5 159.5 Q1220 74 1097.5 27 Q975 -20 823 -20 Q672 -20 549.5 27 Q427 74 340 159.5 Q253 245 205.5 365 Q158 485 158 632 L158 824 Z M243 632 Q243 503 282.5 397 Q322 291 396.5 215.5 Q471 140 579 98.5 Q687 57 823 57 Q961 57 1068.5 98.5 Q1176 140 1250.5 215.5 Q1325 291 1363.5 397 Q1402 503 1402 632 L1402 826 Q1402 954 1363 1059.5 Q1324 1165 1249.5 1240.5 Q1175 1316 1067 1357.5 Q959 1399 821 1399 Q685 1399 577.5 1357.5 Q470 1316 395.5 1240.5 Q321 1165 282 1059.5 Q243 954 243 826 L243 632 Z M1205 1871 L1318 1871 L975 1567 L875 1567 L1205 1871 Z M860 1871 L968 1871 L680 1567 L586 1567 L860 1871 Z " />
<glyph glyph-name="ohungarumlaut" unicode="&#x151;" horiz-adv-x="1359" d="M108 560 Q108 679 149.5 778.5 Q191 878 266 950 Q341 1022 446 1062 Q551 1102 678 1102 Q807 1102 912.5 1062 Q1018 1022 1093 950 Q1168 878 1209 778.5 Q1250 679 1250 560 L1250 522 Q1250 404 1209 304.5 Q1168 205 1093 133 Q1018 61 913.5 20.5 Q809 -20 681 -20 Q553 -20 447.5 20.5 Q342 61 266.5 133 Q191 205 149.5 304.5 Q108 404 108 522 L108 560 Z M191 522 Q191 428 224 343.5 Q257 259 319.5 194.5 Q382 130 473 92 Q564 54 681 54 Q797 54 887 92 Q977 130 1039.5 194.5 Q1102 259 1134.5 343.5 Q1167 428 1167 522 L1167 560 Q1167 652 1134.5 736.5 Q1102 821 1039.5 885.5 Q977 950 886 989 Q795 1028 678 1028 Q563 1028 472 989 Q381 950 319 885.5 Q257 821 224 736.5 Q191 652 191 560 L191 522 Z M1071 1534 L1184 1534 L841 1230 L741 1230 L1071 1534 Z M726 1534 L834 1534 L546 1230 L452 1230 L726 1534 Z " />
<glyph glyph-name="OE" unicode="&#x152;" horiz-adv-x="1890" d="M133 880 Q133 1012 178.5 1122 Q224 1232 307 1310.5 Q390 1389 505.5 1432.5 Q621 1476 760 1476 Q863 1476 962.5 1470 Q1062 1464 1152 1456 L2160 1456 L2160 1380 L1177 1380 L1177 787 L2039 787 L2039 712 L1177 712 L1177 76 L2161 76 L2161 0 L1152 0 Q1062 -8 963.5 -14.5 Q865 -21 762 -21 Q623 -21 507 22.5 Q391 66 308 145 Q225 224 179 334 Q133 444 133 576 L133 880 Z M217 576 Q217 459 255.5 363 Q294 267 365 198 Q436 129 537 91 Q638 53 762 53 Q845 53 931 56.5 Q1017 60 1092 68 L1092 1388 Q1015 1396 931.5 1399 Q848 1402 760 1402 Q636 1402 535.5 1365 Q435 1328 364 1260.5 Q293 1193 255 1097 Q217 1001 217 882 L217 576 Z " />
<glyph glyph-name="oe" unicode="&#x153;" horiz-adv-x="2300" d="M111 560 Q111 679 152 778.5 Q193 878 268 950 Q343 1022 448 1062 Q553 1102 680 1102 Q778 1102 862 1078.5 Q946 1055 1014 1012 Q1082 969 1132 907.5 Q1182 846 1212 771 Q1242 847 1292.5 908 Q1343 969 1408.5 1012 Q1474 1055 1552.5 1078.5 Q1631 1102 1717 1102 Q1828 1102 1920 1070.5 Q2012 1039 2078.5 980.5 Q2145 922 2181.5 839 Q2218 756 2218 652 L2218 560 L1258 560 L1258 504 Q1258 410 1293 328 Q1328 246 1390 185 Q1452 124 1537.5 89 Q1623 54 1724 54 Q1798 54 1858.5 62.5 Q1919 71 1968 87.5 Q2017 104 2056.5 127 Q2096 150 2129 180 L2170 121 Q2098 57 1989 18.5 Q1880 -20 1724 -20 Q1639 -20 1559.5 3.5 Q1480 27 1413 70 Q1346 113 1294 173.5 Q1242 234 1211 309 Q1181 234 1131 173 Q1081 112 1013.5 69.5 Q946 27 862.5 3.5 Q779 -20 682 -20 Q554 -20 449 20.5 Q344 61 269 133 Q194 205 152.5 304.5 Q111 404 111 522 L111 560 Z M194 522 Q194 428 226.5 343.5 Q259 259 321.5 194.5 Q384 130 475 92 Q566 54 682 54 Q797 54 887 92 Q977 130 1039.5 194.5 Q1102 259 1134.5 343.5 Q1167 428 1167 522 L1167 560 Q1167 652 1134.5 736.5 Q1102 821 1039.5 885.5 Q977 950 886.5 989 Q796 1028 680 1028 Q565 1028 474.5 989 Q384 950 321.5 885.5 Q259 821 226.5 736.5 Q194 652 194 560 L194 522 Z M2134 635 L2134 666 Q2134 742 2104.5 808 Q2075 874 2020.5 923 Q1966 972 1889 1000 Q1812 1028 1717 1028 Q1623 1028 1544.5 998 Q1466 968 1407 915 Q1348 862 1311 790.5 Q1274 719 1263 635 L2134 635 Z " />
<glyph glyph-name="Racute" unicode="&#x154;" horiz-adv-x="1597" >
<path fill="black" d="M230 1456 L789 1456 Q917 1456 1023.5 1428.5 Q1130 1401 1206.5 1347 Q1283 1293 1325.5 1214 Q1368 1135 1368 1032 Q1368 957 1338.5 891 Q1309 825 1257.5 773 Q1206 721 1135.5 685 Q1065 649 984 634 L1442 14 L1442 0 L1352 0 L902 616 L315 616 L315 0 L230 0 L230 1456 Z M315 692 L842 692 Q952 692 1034.5 720.5 Q1117 749 1172.5 796.5 Q1228 844 1256 905.5 Q1284 967 1284 1032 Q1284 1113 1249.5 1177.5 Q1215 1242 1151 1287 Q1087 1332 995.5 1356 Q904 1380 789 1380 L315 1380 L315 692 Z " />
<g transform="translate(521,318)" >
<path fill="black" d="M377 1536 L479 1536 L234 1264 L150 1264 L377 1536 Z " />
</g>
</glyph>
<glyph glyph-name="racute" unicode="&#x155;" horiz-adv-x="824" >
<path fill="black" d="M202 1082 L284 1082 L285 898 L285 872 Q339 978 441 1040 Q543 1102 696 1102 Q725 1102 749 1098.5 Q773 1095 788 1090 L781 1016 Q761 1019 739.5 1021 Q718 1023 695 1023 Q608 1023 539.5 1000 Q471 977 419.5 936.5 Q368 896 334.5 840.5 Q301 785 285 719 L285 0 L202 0 L202 1082 Z " />
<g transform="translate(288,-2)" >
<path fill="black" d="M377 1536 L479 1536 L234 1264 L150 1264 L377 1536 Z " />
</g>
</glyph>
<glyph glyph-name="uni0156" unicode="&#x156;" horiz-adv-x="1323" >
<path fill="black" d="M230 1456 L789 1456 Q917 1456 1023.5 1428.5 Q1130 1401 1206.5 1347 Q1283 1293 1325.5 1214 Q1368 1135 1368 1032 Q1368 957 1338.5 891 Q1309 825 1257.5 773 Q1206 721 1135.5 685 Q1065 649 984 634 L1442 14 L1442 0 L1352 0 L902 616 L315 616 L315 0 L230 0 L230 1456 Z M315 692 L842 692 Q952 692 1034.5 720.5 Q1117 749 1172.5 796.5 Q1228 844 1256 905.5 Q1284 967 1284 1032 Q1284 1113 1249.5 1177.5 Q1215 1242 1151 1287 Q1087 1332 995.5 1356 Q904 1380 789 1380 L315 1380 L315 692 Z " />
<g transform="translate(359,-234)" >
<path fill="black" d="M-782 -463 Q-740 -412 -719.5 -363 Q-699 -314 -699 -247 L-699 -168 L-617 -168 L-617 -245 Q-617 -324 -647.5 -390.5 Q-678 -457 -729 -504 L-782 -463 Z " />
</g>
</glyph>
<glyph glyph-name="uni0157" unicode="&#x157;" horiz-adv-x="687" >
<path fill="black" d="M202 1082 L284 1082 L285 898 L285 872 Q339 978 441 1040 Q543 1102 696 1102 Q725 1102 749 1098.5 Q773 1095 788 1090 L781 1016 Q761 1019 739.5 1021 Q718 1023 695 1023 Q608 1023 539.5 1000 Q471 977 419.5 936.5 Q368 896 334.5 840.5 Q301 785 285 719 L285 0 L202 0 L202 1082 Z " />
<g transform="translate(-39,-227)" >
<path fill="black" d="M-782 -463 Q-740 -412 -719.5 -363 Q-699 -314 -699 -247 L-699 -168 L-617 -168 L-617 -245 Q-617 -324 -647.5 -390.5 Q-678 -457 -729 -504 L-782 -463 Z " />
</g>
</glyph>
<glyph glyph-name="Rcaron" unicode="&#x158;" horiz-adv-x="1597" >
<path fill="black" d="M230 1456 L789 1456 Q917 1456 1023.5 1428.5 Q1130 1401 1206.5 1347 Q1283 1293 1325.5 1214 Q1368 1135 1368 1032 Q1368 957 1338.5 891 Q1309 825 1257.5 773 Q1206 721 1135.5 685 Q1065 649 984 634 L1442 14 L1442 0 L1352 0 L902 616 L315 616 L315 0 L230 0 L230 1456 Z M315 692 L842 692 Q952 692 1034.5 720.5 Q1117 749 1172.5 796.5 Q1228 844 1256 905.5 Q1284 967 1284 1032 Q1284 1113 1249.5 1177.5 Q1215 1242 1151 1287 Q1087 1332 995.5 1356 Q904 1380 789 1380 L315 1380 L315 692 Z " />
<g transform="translate(244,322)" >
<path fill="black" d="M175 1512 L257 1512 L483 1305 L710 1512 L788 1512 L788 1500 L521 1245 L444 1245 L175 1501 L175 1512 Z " />
</g>
</glyph>
<glyph glyph-name="rcaron" unicode="&#x159;" horiz-adv-x="824" >
<path fill="black" d="M202 1082 L284 1082 L285 898 L285 872 Q339 978 441 1040 Q543 1102 696 1102 Q725 1102 749 1098.5 Q773 1095 788 1090 L781 1016 Q761 1019 739.5 1021 Q718 1023 695 1023 Q608 1023 539.5 1000 Q471 977 419.5 936.5 Q368 896 334.5 840.5 Q301 785 285 719 L285 0 L202 0 L202 1082 Z " />
<g transform="translate(11,2)" >
<path fill="black" d="M175 1512 L257 1512 L483 1305 L710 1512 L788 1512 L788 1500 L521 1245 L444 1245 L175 1501 L175 1512 Z " />
</g>
</glyph>
<glyph glyph-name="Sacute" unicode="&#x15a;" horiz-adv-x="1453" >
<path fill="black" d="M197 413 Q197 345 221.5 292.5 Q246 240 287.5 200 Q329 160 384.5 132.5 Q440 105 502.5 88 Q565 71 631 63.5 Q697 56 759 56 Q872 56 965.5 77.5 Q1059 99 1126 138 Q1193 177 1230.5 231.5 Q1268 286 1268 353 Q1268 418 1240.5 468.5 Q1213 519 1151.5 560.5 Q1090 602 990 636.5 Q890 671 744 704 Q611 734 504.5 769 Q398 804 323.5 851 Q249 898 209 961.5 Q169 1025 169 1112 Q169 1196 213 1263 Q257 1330 334.5 1377.5 Q412 1425 518.5 1450.5 Q625 1476 750 1476 Q880 1476 987.5 1444 Q1095 1412 1172.5 1354.5 Q1250 1297 1293 1217.5 Q1336 1138 1336 1044 L1253 1044 Q1253 1121 1217.5 1186 Q1182 1251 1116 1298.5 Q1050 1346 957 1373 Q864 1400 750 1400 Q630 1400 537.5 1377 Q445 1354 381.5 1314.5 Q318 1275 285.5 1223 Q253 1171 253 1114 Q253 1058 277 1011 Q301 964 360 923 Q419 882 518.5 847 Q618 812 769 780 Q900 750 1008 714 Q1116 678 1193 628.5 Q1270 579 1312 512 Q1354 445 1354 355 Q1354 266 1307.5 196 Q1261 126 1180.5 78 Q1100 30 991.5 5 Q883 -20 759 -20 Q684 -20 606.5 -10 Q529 0 457.5 21.5 Q386 43 323 77 Q260 111 213.5 159.5 Q167 208 140 271 Q113 334 113 413 L197 413 Z " />
<g transform="translate(550,335)" >
<path fill="black" d="M377 1536 L479 1536 L234 1264 L150 1264 L377 1536 Z " />
</g>
</glyph>
<glyph glyph-name="sacute" unicode="&#x15b;" horiz-adv-x="1228" >
<path fill="black" d="M211 287 Q217 220 255.5 175 Q294 130 352 103 Q410 76 480.5 65 Q551 54 619 54 Q712 54 782.5 72.5 Q853 91 900.5 121.5 Q948 152 972.5 191 Q997 230 997 270 Q997 305 981 341 Q965 377 922.5 410 Q880 443 805 471 Q730 499 613 520 Q504 540 421 564 Q338 588 282.5 623 Q227 658 199 706 Q171 754 171 820 Q171 878 201 929.5 Q231 981 287.5 1019 Q344 1057 425.5 1079.5 Q507 1102 610 1102 Q720 1102 807 1078.5 Q894 1055 954 1013.5 Q1014 972 1046 914 Q1078 856 1078 787 L994 787 Q994 834 968.5 877.5 Q943 921 894.5 954.5 Q846 988 774.5 1008 Q703 1028 610 1028 Q515 1028 447.5 1009.5 Q380 991 337 961.5 Q294 932 274 895.5 Q254 859 254 823 Q254 784 268 751 Q282 718 323 689.5 Q364 661 439 636 Q514 611 636 588 Q753 566 837 538 Q921 510 975 472 Q1029 434 1054.5 385 Q1080 336 1080 272 Q1080 208 1047.5 154 Q1015 100 955 61.5 Q895 23 810 1.5 Q725 -20 619 -20 Q500 -20 408.5 5 Q317 30 254.5 72.5 Q192 115 160 170.5 Q128 226 128 287 L211 287 Z " />
<g transform="translate(415,-2)" >
<path fill="black" d="M377 1536 L479 1536 L234 1264 L150 1264 L377 1536 Z " />
</g>
</glyph>
<glyph glyph-name="Scedilla" unicode="&#x15e;" horiz-adv-x="1453" d="M640 -382 Q687 -382 736 -374.5 Q785 -367 824.5 -351 Q864 -335 889 -310 Q914 -285 914 -250 Q914 -219 900 -198 Q886 -177 858 -164 Q830 -151 788 -144 Q746 -137 691 -132 L719 -19 Q610 -16 501.5 9.5 Q393 35 307 86.5 Q221 138 167 218.5 Q113 299 113 413 L197 413 Q197 345 221.5 292.5 Q246 240 287.5 200 Q329 160 384.5 132.5 Q440 105 502.5 88 Q565 71 631 63.5 Q697 56 759 56 Q872 56 965.5 77.5 Q1059 99 1126 138 Q1193 177 1230.5 231.5 Q1268 286 1268 353 Q1268 418 1240.5 468.5 Q1213 519 1151.5 560.5 Q1090 602 990 636.5 Q890 671 744 704 Q611 734 504.5 769 Q398 804 323.5 851 Q249 898 209 961.5 Q169 1025 169 1112 Q169 1196 213 1263 Q257 1330 334.5 1377.5 Q412 1425 518.5 1450.5 Q625 1476 750 1476 Q880 1476 987.5 1444 Q1095 1412 1172.5 1354.5 Q1250 1297 1293 1217.5 Q1336 1138 1336 1044 L1253 1044 Q1253 1121 1217.5 1186 Q1182 1251 1116 1298.5 Q1050 1346 957 1373 Q864 1400 750 1400 Q630 1400 537.5 1377 Q445 1354 381.5 1314.5 Q318 1275 285.5 1223 Q253 1171 253 1114 Q253 1058 277 1011 Q301 964 360 923 Q419 882 518.5 847 Q618 812 769 780 Q900 750 1008 714 Q1116 678 1193 628.5 Q1270 579 1312 512 Q1354 445 1354 355 Q1354 269 1311 201 Q1268 133 1192.5 85.5 Q1117 38 1015 11 Q913 -16 795 -19 L784 -79 Q823 -83 860.5 -93 Q898 -103 927.5 -122.5 Q957 -142 974.5 -173 Q992 -204 992 -249 Q992 -293 968.5 -328.5 Q945 -364 900.5 -389.5 Q856 -415 792 -429 Q728 -443 648 -443 L640 -382 Z " />
<glyph glyph-name="scedilla" unicode="&#x15f;" horiz-adv-x="1228" d="M505 -380 Q552 -380 601 -372.5 Q650 -365 689.5 -349 Q729 -333 754 -308 Q779 -283 779 -248 Q779 -217 765 -196 Q751 -175 723 -162 Q695 -149 653 -142 Q611 -135 556 -130 L584 -19 Q473 -15 388 11 Q303 37 245.5 79 Q188 121 158 174.5 Q128 228 128 287 L211 287 Q217 220 255.5 175 Q294 130 352 103 Q410 76 480.5 65 Q551 54 619 54 Q712 54 782.5 72.5 Q853 91 900.5 121.5 Q948 152 972.5 191 Q997 230 997 270 Q997 305 981 341 Q965 377 922.5 410 Q880 443 805 471 Q730 499 613 520 Q504 540 421 564 Q338 588 282.5 623 Q227 658 199 706 Q171 754 171 820 Q171 878 201 929.5 Q231 981 287.5 1019 Q344 1057 425.5 1079.5 Q507 1102 610 1102 Q720 1102 807 1078.5 Q894 1055 954 1013.5 Q1014 972 1046 914 Q1078 856 1078 787 L994 787 Q994 834 968.5 877.5 Q943 921 894.5 954.5 Q846 988 774.5 1008 Q703 1028 610 1028 Q515 1028 447.5 1009.5 Q380 991 337 961.5 Q294 932 274 895.5 Q254 859 254 823 Q254 784 268 751 Q282 718 323 689.5 Q364 661 439 636 Q514 611 636 588 Q753 566 837 538 Q921 510 975 472 Q1029 434 1054.5 385 Q1080 336 1080 272 Q1080 211 1050.5 159 Q1021 107 966.5 69 Q912 31 834.5 8 Q757 -15 660 -19 L649 -77 Q688 -81 725.5 -91 Q763 -101 792.5 -120.5 Q822 -140 839.5 -171 Q857 -202 857 -247 Q857 -291 833.5 -326.5 Q810 -362 765.5 -387.5 Q721 -413 657 -427 Q593 -441 513 -441 L505 -380 Z " />
<glyph glyph-name="Scaron" unicode="&#x160;" horiz-adv-x="1453" >
<path fill="black" d="M197 413 Q197 345 221.5 292.5 Q246 240 287.5 200 Q329 160 384.5 132.5 Q440 105 502.5 88 Q565 71 631 63.5 Q697 56 759 56 Q872 56 965.5 77.5 Q1059 99 1126 138 Q1193 177 1230.5 231.5 Q1268 286 1268 353 Q1268 418 1240.5 468.5 Q1213 519 1151.5 560.5 Q1090 602 990 636.5 Q890 671 744 704 Q611 734 504.5 769 Q398 804 323.5 851 Q249 898 209 961.5 Q169 1025 169 1112 Q169 1196 213 1263 Q257 1330 334.5 1377.5 Q412 1425 518.5 1450.5 Q625 1476 750 1476 Q880 1476 987.5 1444 Q1095 1412 1172.5 1354.5 Q1250 1297 1293 1217.5 Q1336 1138 1336 1044 L1253 1044 Q1253 1121 1217.5 1186 Q1182 1251 1116 1298.5 Q1050 1346 957 1373 Q864 1400 750 1400 Q630 1400 537.5 1377 Q445 1354 381.5 1314.5 Q318 1275 285.5 1223 Q253 1171 253 1114 Q253 1058 277 1011 Q301 964 360 923 Q419 882 518.5 847 Q618 812 769 780 Q900 750 1008 714 Q1116 678 1193 628.5 Q1270 579 1312 512 Q1354 445 1354 355 Q1354 266 1307.5 196 Q1261 126 1180.5 78 Q1100 30 991.5 5 Q883 -20 759 -20 Q684 -20 606.5 -10 Q529 0 457.5 21.5 Q386 43 323 77 Q260 111 213.5 159.5 Q167 208 140 271 Q113 334 113 413 L197 413 Z " />
<g transform="translate(273,339)" >
<path fill="black" d="M175 1512 L257 1512 L483 1305 L710 1512 L788 1512 L788 1500 L521 1245 L444 1245 L175 1501 L175 1512 Z " />
</g>
</glyph>
<glyph glyph-name="scaron" unicode="&#x161;" horiz-adv-x="1228" >
<path fill="black" d="M211 287 Q217 220 255.5 175 Q294 130 352 103 Q410 76 480.5 65 Q551 54 619 54 Q712 54 782.5 72.5 Q853 91 900.5 121.5 Q948 152 972.5 191 Q997 230 997 270 Q997 305 981 341 Q965 377 922.5 410 Q880 443 805 471 Q730 499 613 520 Q504 540 421 564 Q338 588 282.5 623 Q227 658 199 706 Q171 754 171 820 Q171 878 201 929.5 Q231 981 287.5 1019 Q344 1057 425.5 1079.5 Q507 1102 610 1102 Q720 1102 807 1078.5 Q894 1055 954 1013.5 Q1014 972 1046 914 Q1078 856 1078 787 L994 787 Q994 834 968.5 877.5 Q943 921 894.5 954.5 Q846 988 774.5 1008 Q703 1028 610 1028 Q515 1028 447.5 1009.5 Q380 991 337 961.5 Q294 932 274 895.5 Q254 859 254 823 Q254 784 268 751 Q282 718 323 689.5 Q364 661 439 636 Q514 611 636 588 Q753 566 837 538 Q921 510 975 472 Q1029 434 1054.5 385 Q1080 336 1080 272 Q1080 208 1047.5 154 Q1015 100 955 61.5 Q895 23 810 1.5 Q725 -20 619 -20 Q500 -20 408.5 5 Q317 30 254.5 72.5 Q192 115 160 170.5 Q128 226 128 287 L211 287 Z " />
<g transform="translate(138,2)" >
<path fill="black" d="M175 1512 L257 1512 L483 1305 L710 1512 L788 1512 L788 1500 L521 1245 L444 1245 L175 1501 L175 1512 Z " />
</g>
</glyph>
<glyph glyph-name="uni0162" unicode="&#x162;" horiz-adv-x="1469" d="M617 -374 Q664 -374 713 -366.5 Q762 -359 801.5 -343 Q841 -327 866 -302 Q891 -277 891 -242 Q891 -211 877 -190 Q863 -169 835 -156 Q807 -143 765 -136 Q723 -129 668 -124 L699 0 L692 0 L692 1380 L65 1380 L65 1456 L1403 1456 L1403 1380 L776 1380 L776 0 L774 0 L761 -71 Q800 -75 837.5 -85 Q875 -95 904.5 -114.5 Q934 -134 951.5 -165 Q969 -196 969 -241 Q969 -285 945.5 -320.5 Q922 -356 877.5 -381.5 Q833 -407 769 -421 Q705 -435 625 -435 L617 -374 Z " />
<glyph glyph-name="uni0163" unicode="&#x163;" horiz-adv-x="782" d="M384 -374 Q431 -374 480 -366.5 Q529 -359 568.5 -343 Q608 -327 633 -302 Q658 -277 658 -242 Q658 -211 644 -190 Q630 -169 602 -156 Q574 -143 532 -136 Q490 -129 435 -124 L463 -12 Q421 -4 387 15 Q353 34 329.5 66.5 Q306 99 293.5 147 Q281 195 281 261 L281 1009 L42 1009 L42 1082 L281 1082 L281 1368 L366 1368 L366 1082 L655 1082 L655 1009 L366 1009 L366 261 Q366 196 381.5 155.5 Q397 115 423 93 Q449 71 483 63.5 Q517 56 555 56 Q591 56 620 59 Q649 62 681 66 L691 -6 Q678 -10 660 -12.5 Q642 -15 622.5 -16.5 Q603 -18 584 -19 Q565 -20 550 -20 L537 -20 L528 -71 Q567 -75 604.5 -85 Q642 -95 671.5 -114.5 Q701 -134 718.5 -165 Q736 -196 736 -241 Q736 -285 712.5 -320.5 Q689 -356 644.5 -381.5 Q600 -407 536 -421 Q472 -435 392 -435 L384 -374 Z " />
<glyph glyph-name="Tcaron" unicode="&#x164;" horiz-adv-x="1469" >
<path fill="black" d="M692 1380 L65 1380 L65 1456 L1403 1456 L1403 1380 L776 1380 L776 0 L692 0 L692 1380 Z " />
<g transform="translate(247,315)" >
<path fill="black" d="M175 1512 L257 1512 L483 1305 L710 1512 L788 1512 L788 1500 L521 1245 L444 1245 L175 1501 L175 1512 Z " />
</g>
</glyph>
<glyph glyph-name="tcaron" unicode="&#x165;" horiz-adv-x="693" >
<path fill="black" d="M281 1009 L42 1009 L42 1082 L281 1082 L281 1368 L366 1368 L366 1082 L655 1082 L655 1009 L366 1009 L366 261 Q366 196 381.5 155.5 Q397 115 423 93 Q449 71 483 63.5 Q517 56 555 56 Q591 56 620 59 Q649 62 681 66 L691 -6 Q678 -10 660 -12.5 Q642 -15 622.5 -16.5 Q603 -18 584 -19 Q565 -20 550 -20 Q489 -20 439 -6.5 Q389 7 354 39 Q319 71 300 125.5 Q281 180 281 261 L281 1009 Z " />
<g transform="translate(323,1439)" >
<path fill="black" d="M-782 -463 Q-740 -412 -719.5 -363 Q-699 -314 -699 -247 L-699 -168 L-617 -168 L-617 -245 Q-617 -324 -647.5 -390.5 Q-678 -457 -729 -504 L-782 -463 Z " />
</g>
</glyph>
<glyph glyph-name="Tbar" unicode="&#x166;" horiz-adv-x="1469" d="M692 842 L361 842 L361 917 L692 917 L692 1380 L65 1380 L65 1456 L1403 1456 L1403 1380 L776 1380 L776 917 L1072 917 L1072 842 L776 842 L776 0 L692 0 L692 842 Z " />
<glyph glyph-name="tbar" unicode="&#x167;" horiz-adv-x="782" d="M281 627 L42 627 L42 702 L281 702 L281 1009 L42 1009 L42 1082 L281 1082 L281 1368 L366 1368 L366 1082 L655 1082 L655 1009 L366 1009 L366 702 L753 702 L753 627 L366 627 L366 261 Q366 196 381.5 155.5 Q397 115 423 93 Q449 71 483 63.5 Q517 56 555 56 Q591 56 620 59 Q649 62 681 66 L691 -6 Q678 -10 660 -12.5 Q642 -15 622.5 -16.5 Q603 -18 584 -19 Q565 -20 550 -20 Q489 -20 439 -6.5 Q389 7 354 39 Q319 71 300 125.5 Q281 180 281 261 L281 627 Z " />
<glyph glyph-name="Utilde" unicode="&#x168;" horiz-adv-x="1633" >
<path fill="black" d="M215 1456 L300 1456 L300 469 Q300 368 339.5 291 Q379 214 448 161.5 Q517 109 611.5 82.5 Q706 56 817 56 Q928 56 1022.5 82.5 Q1117 109 1186 161.5 Q1255 214 1294 291 Q1333 368 1333 469 L1333 1456 L1418 1456 L1418 469 Q1418 346 1372 254.5 Q1326 163 1245 102 Q1164 41 1054.5 10.5 Q945 -20 817 -20 Q689 -20 579 10.5 Q469 41 388 102 Q307 163 261 254.5 Q215 346 215 469 L215 1456 Z " />
<g transform="translate(340,330)" >
<path fill="black" d="M113 1278 Q113 1322 129.5 1358 Q146 1394 175.5 1419 Q205 1444 244.5 1457.5 Q284 1471 329 1471 Q391 1471 433 1452.5 Q475 1434 511.5 1412 Q548 1390 584.5 1371.5 Q621 1353 671 1353 Q700 1353 726 1361.5 Q752 1370 771.5 1386.5 Q791 1403 802.5 1426.5 Q814 1450 814 1480 L890 1478 Q890 1433 873 1396.5 Q856 1360 826.5 1334 Q797 1308 757 1294 Q717 1280 672 1280 Q608 1280 566.5 1298.5 Q525 1317 490.5 1339.5 Q456 1362 420 1380.5 Q384 1399 331 1399 Q301 1399 275.5 1391 Q250 1383 230.5 1367.5 Q211 1352 200 1329.5 Q189 1307 189 1277 L113 1278 Z " />
</g>
</glyph>
<glyph glyph-name="utilde" unicode="&#x169;" horiz-adv-x="1346" >
<path fill="black" d="M197 1082 L280 1082 L280 391 Q280 297 306.5 233 Q333 169 379.5 129.5 Q426 90 489.5 73 Q553 56 627 56 Q730 56 805.5 76.5 Q881 97 933.5 133 Q986 169 1017 217 Q1048 265 1063 320 L1063 1082 L1148 1082 L1148 0 L1065 0 L1064 168 Q1006 81 897 30.5 Q788 -20 624 -20 Q529 -20 450.5 2.5 Q372 25 315.5 74.5 Q259 124 228 202.5 Q197 281 197 393 L197 1082 Z " />
<g transform="translate(202,12)" >
<path fill="black" d="M113 1278 Q113 1322 129.5 1358 Q146 1394 175.5 1419 Q205 1444 244.5 1457.5 Q284 1471 329 1471 Q391 1471 433 1452.5 Q475 1434 511.5 1412 Q548 1390 584.5 1371.5 Q621 1353 671 1353 Q700 1353 726 1361.5 Q752 1370 771.5 1386.5 Q791 1403 802.5 1426.5 Q814 1450 814 1480 L890 1478 Q890 1433 873 1396.5 Q856 1360 826.5 1334 Q797 1308 757 1294 Q717 1280 672 1280 Q608 1280 566.5 1298.5 Q525 1317 490.5 1339.5 Q456 1362 420 1380.5 Q384 1399 331 1399 Q301 1399 275.5 1391 Q250 1383 230.5 1367.5 Q211 1352 200 1329.5 Q189 1307 189 1277 L113 1278 Z " />
</g>
</glyph>
<glyph glyph-name="Umacron" unicode="&#x16a;" horiz-adv-x="1633" >
<path fill="black" d="M215 1456 L300 1456 L300 469 Q300 368 339.5 291 Q379 214 448 161.5 Q517 109 611.5 82.5 Q706 56 817 56 Q928 56 1022.5 82.5 Q1117 109 1186 161.5 Q1255 214 1294 291 Q1333 368 1333 469 L1333 1456 L1418 1456 L1418 469 Q1418 346 1372 254.5 Q1326 163 1245 102 Q1164 41 1054.5 10.5 Q945 -20 817 -20 Q689 -20 579 10.5 Q469 41 388 102 Q307 163 261 254.5 Q215 346 215 469 L215 1456 Z " />
<g transform="translate(327,328)" >
<path fill="black" d="M160 1366 L160 1438 L856 1438 L856 1366 L160 1366 Z " />
</g>
</glyph>
<glyph glyph-name="umacron" unicode="&#x16b;" horiz-adv-x="1346" d="M197 1082 L280 1082 L280 391 Q280 297 306.5 233 Q333 169 379.5 129.5 Q426 90 489.5 73 Q553 56 627 56 Q730 56 805.5 76.5 Q881 97 933.5 133 Q986 169 1017 217 Q1048 265 1063 320 L1063 1082 L1148 1082 L1148 0 L1065 0 L1064 168 Q1006 81 897 30.5 Q788 -20 624 -20 Q529 -20 450.5 2.5 Q372 25 315.5 74.5 Q259 124 228 202.5 Q197 281 197 393 L197 1082 Z M349 1448 L1045 1448 L1045 1376 L349 1376 L349 1448 Z " />
<glyph glyph-name="Uring" unicode="&#x16e;" horiz-adv-x="1633" >
<path fill="black" d="M215 1456 L300 1456 L300 469 Q300 368 339.5 291 Q379 214 448 161.5 Q517 109 611.5 82.5 Q706 56 817 56 Q928 56 1022.5 82.5 Q1117 109 1186 161.5 Q1255 214 1294 291 Q1333 368 1333 469 L1333 1456 L1418 1456 L1418 469 Q1418 346 1372 254.5 Q1326 163 1245 102 Q1164 41 1054.5 10.5 Q945 -20 817 -20 Q689 -20 579 10.5 Q469 41 388 102 Q307 163 261 254.5 Q215 346 215 469 L215 1456 Z " />
<g transform="translate(486,320)" >
<path fill="black" d="M138 1388 Q138 1426 154 1459 Q170 1492 198.5 1516.5 Q227 1541 265.5 1555 Q304 1569 349 1569 Q393 1569 431.5 1555 Q470 1541 498.5 1516.5 Q527 1492 543.5 1459 Q560 1426 560 1388 Q560 1350 543.5 1317.5 Q527 1285 498.5 1261 Q470 1237 431.5 1223.5 Q393 1210 349 1210 Q304 1210 265.5 1223.5 Q227 1237 198.5 1261 Q170 1285 154 1317.5 Q138 1350 138 1388 Z M208 1388 Q208 1363 218.5 1341.5 Q229 1320 248 1304.5 Q267 1289 292.5 1280.5 Q318 1272 349 1272 Q411 1272 450 1304.5 Q489 1337 489 1388 Q489 1440 450 1473.5 Q411 1507 349 1507 Q318 1507 292.5 1498 Q267 1489 248 1473.5 Q229 1458 218.5 1436 Q208 1414 208 1388 Z " />
</g>
</glyph>
<glyph glyph-name="uring" unicode="&#x16f;" horiz-adv-x="1346" >
<path fill="black" d="M197 1082 L280 1082 L280 391 Q280 297 306.5 233 Q333 169 379.5 129.5 Q426 90 489.5 73 Q553 56 627 56 Q730 56 805.5 76.5 Q881 97 933.5 133 Q986 169 1017 217 Q1048 265 1063 320 L1063 1082 L1148 1082 L1148 0 L1065 0 L1064 168 Q1006 81 897 30.5 Q788 -20 624 -20 Q529 -20 450.5 2.5 Q372 25 315.5 74.5 Q259 124 228 202.5 Q197 281 197 393 L197 1082 Z " />
<g transform="translate(348,2)" >
<path fill="black" d="M138 1388 Q138 1426 154 1459 Q170 1492 198.5 1516.5 Q227 1541 265.5 1555 Q304 1569 349 1569 Q393 1569 431.5 1555 Q470 1541 498.5 1516.5 Q527 1492 543.5 1459 Q560 1426 560 1388 Q560 1350 543.5 1317.5 Q527 1285 498.5 1261 Q470 1237 431.5 1223.5 Q393 1210 349 1210 Q304 1210 265.5 1223.5 Q227 1237 198.5 1261 Q170 1285 154 1317.5 Q138 1350 138 1388 Z M208 1388 Q208 1363 218.5 1341.5 Q229 1320 248 1304.5 Q267 1289 292.5 1280.5 Q318 1272 349 1272 Q411 1272 450 1304.5 Q489 1337 489 1388 Q489 1440 450 1473.5 Q411 1507 349 1507 Q318 1507 292.5 1498 Q267 1489 248 1473.5 Q229 1458 218.5 1436 Q208 1414 208 1388 Z " />
</g>
</glyph>
<glyph glyph-name="Uhungarumlaut" unicode="&#x170;" horiz-adv-x="1633" d="M215 1456 L300 1456 L300 469 Q300 368 339.5 291 Q379 214 448 161.5 Q517 109 611.5 82.5 Q706 56 817 56 Q928 56 1022.5 82.5 Q1117 109 1186 161.5 Q1255 214 1294 291 Q1333 368 1333 469 L1333 1456 L1418 1456 L1418 469 Q1418 346 1372 254.5 Q1326 163 1245 102 Q1164 41 1054.5 10.5 Q945 -20 817 -20 Q689 -20 579 10.5 Q469 41 388 102 Q307 163 261 254.5 Q215 346 215 469 L215 1456 Z M1221 1854 L1334 1854 L991 1550 L891 1550 L1221 1854 Z M876 1854 L984 1854 L696 1550 L602 1550 L876 1854 Z " />
<glyph glyph-name="uhungarumlaut" unicode="&#x171;" horiz-adv-x="1346" d="M197 1082 L280 1082 L280 391 Q280 297 306.5 233 Q333 169 379.5 129.5 Q426 90 489.5 73 Q553 56 627 56 Q730 56 805.5 76.5 Q881 97 933.5 133 Q986 169 1017 217 Q1048 265 1063 320 L1063 1082 L1148 1082 L1148 0 L1065 0 L1064 168 Q1006 81 897 30.5 Q788 -20 624 -20 Q529 -20 450.5 2.5 Q372 25 315.5 74.5 Q259 124 228 202.5 Q197 281 197 393 L197 1082 Z M753 1232 L1083 1536 L1196 1536 L853 1232 L753 1232 Z M738 1536 L846 1536 L558 1232 L464 1232 L738 1536 Z " />
<glyph glyph-name="Uogonek" unicode="&#x172;" horiz-adv-x="1633" d="M215 1456 L300 1456 L300 469 Q300 368 339.5 291 Q379 214 448 161.5 Q517 109 611.5 82.5 Q706 56 817 56 Q928 56 1022.5 82.5 Q1117 109 1186 161.5 Q1255 214 1294 291 Q1333 368 1333 469 L1333 1456 L1418 1456 L1418 469 Q1418 387 1397 318.5 Q1376 250 1337 195.5 Q1298 141 1243 100.5 Q1188 60 1120 33 Q1078 6 1038.5 -22 Q999 -50 968.5 -79 Q938 -108 919 -139.5 Q900 -171 900 -206 Q900 -224 905 -240.5 Q910 -257 922.5 -269 Q935 -281 956.5 -288.5 Q978 -296 1010 -296 Q1057 -296 1088 -284 Q1119 -272 1140 -261 L1160 -324 Q1136 -339 1098 -353.5 Q1060 -368 1003 -368 Q921 -368 871 -329 Q821 -290 821 -210 Q821 -159 860 -108 Q899 -57 959 -10 Q925 -15 889.5 -17.5 Q854 -20 817 -20 Q689 -20 579 10.5 Q469 41 388 102 Q307 163 261 254.5 Q215 346 215 469 L215 1456 Z " />
<glyph glyph-name="uogonek" unicode="&#x173;" horiz-adv-x="1346" d="M197 1082 L280 1082 L280 391 Q280 297 306.5 233 Q333 169 379.5 129.5 Q426 90 489.5 73 Q553 56 627 56 Q730 56 805.5 76.5 Q881 97 933.5 133 Q986 169 1017 217 Q1048 265 1063 320 L1063 1082 L1148 1082 L1148 0 L1145 0 Q1103 -27 1062.5 -55 Q1022 -83 990.5 -112.5 Q959 -142 940 -174 Q921 -206 921 -241 Q921 -259 926 -275.5 Q931 -292 943.5 -304 Q956 -316 977.5 -323.5 Q999 -331 1031 -331 Q1078 -331 1109 -319 Q1140 -307 1161 -296 L1181 -359 Q1157 -374 1119 -388.5 Q1081 -403 1024 -403 Q942 -403 892 -364 Q842 -325 842 -245 Q842 -211 860 -177 Q878 -143 909 -109.5 Q940 -76 980 -45 Q1020 -14 1065 14 L1064 168 Q1006 81 897 30.5 Q788 -20 624 -20 Q529 -20 450.5 2.5 Q372 25 315.5 74.5 Q259 124 228 202.5 Q197 281 197 393 L197 1082 Z " />
<glyph glyph-name="Wcircumflex" unicode="&#x174;" horiz-adv-x="2221" >
<path fill="black" d="M73 1456 L163 1456 L516 357 L589 110 L665 353 L1071 1456 L1156 1456 L1558 353 L1634 109 L1709 357 L2059 1456 L2149 1456 L1684 0 L1595 0 L1170 1182 L1113 1345 L1057 1182 L628 0 L539 0 L73 1456 Z " />
<g transform="translate(619,318)" >
<path fill="black" d="M185 1275 L463 1521 L522 1521 L803 1272 L803 1262 L710 1262 L491 1452 L274 1262 L185 1262 L185 1275 Z " />
</g>
</glyph>
<glyph glyph-name="wcircumflex" unicode="&#x175;" horiz-adv-x="1859" >
<path fill="black" d="M95 1082 L186 1082 L453 286 L513 91 L587 288 L884 1082 L964 1082 L1258 291 L1334 90 L1395 287 L1660 1082 L1753 1082 L1375 0 L1296 0 L973 833 L922 993 L868 832 L549 0 L472 0 L95 1082 Z " />
<g transform="translate(428,0)" >
<path fill="black" d="M185 1275 L463 1521 L522 1521 L803 1272 L803 1262 L710 1262 L491 1452 L274 1262 L185 1262 L185 1275 Z " />
</g>
</glyph>
<glyph glyph-name="Ycircumflex" unicode="&#x176;" horiz-adv-x="1469" >
<path fill="black" d="M689 551 L37 1456 L144 1456 L732 628 L1325 1456 L1426 1456 L774 551 L774 0 L689 0 L689 551 Z " />
<g transform="translate(239,309)" >
<path fill="black" d="M185 1275 L463 1521 L522 1521 L803 1272 L803 1262 L710 1262 L491 1452 L274 1262 L185 1262 L185 1275 Z " />
</g>
</glyph>
<glyph glyph-name="ycircumflex" unicode="&#x177;" horiz-adv-x="1172" >
<path fill="black" d="M114 -353 Q123 -355 135 -356.5 Q147 -358 159.5 -359 Q172 -360 182.5 -360.5 Q193 -361 199 -361 Q259 -361 303.5 -346.5 Q348 -332 381.5 -305.5 Q415 -279 440 -241 Q465 -203 486 -155 L559 8 L49 1082 L139 1082 L607 114 L1042 1082 L1132 1082 L562 -177 Q546 -213 523 -258 Q500 -303 461 -342.5 Q422 -382 363 -409.5 Q304 -437 215 -437 Q205 -437 191 -436 Q177 -435 162.5 -433.5 Q148 -432 135.5 -430 Q123 -428 115 -425 L114 -353 Z " />
<g transform="translate(129,0)" >
<path fill="black" d="M185 1275 L463 1521 L522 1521 L803 1272 L803 1262 L710 1262 L491 1452 L274 1262 L185 1262 L185 1275 Z " />
</g>
</glyph>
<glyph glyph-name="Ydieresis" unicode="&#x178;" horiz-adv-x="1469" >
<path fill="black" d="M689 551 L37 1456 L144 1456 L732 628 L1325 1456 L1426 1456 L774 551 L774 0 L689 0 L689 551 Z " />
<g transform="translate(217,1661)" >
<path fill="black" d="M176 58 Q176 86 196.5 105.5 Q217 125 249 125 Q281 125 302.5 105.5 Q324 86 324 58 Q324 30 302.5 11.5 Q281 -7 249 -7 Q217 -7 196.5 11.5 Q176 30 176 58 Z " />
</g>
<g transform="translate(749,1661)" >
<path fill="black" d="M176 58 Q176 86 196.5 105.5 Q217 125 249 125 Q281 125 302.5 105.5 Q324 86 324 58 Q324 30 302.5 11.5 Q281 -7 249 -7 Q217 -7 196.5 11.5 Q176 30 176 58 Z " />
</g>
</glyph>
<glyph glyph-name="Zacute" unicode="&#x179;" horiz-adv-x="1469" >
<path fill="black" d="M111 65 L1199 1381 L156 1381 L156 1456 L1319 1456 L1319 1397 L230 76 L1357 76 L1357 0 L111 0 L111 65 Z " />
<g transform="translate(525,318)" >
<path fill="black" d="M377 1536 L479 1536 L234 1264 L150 1264 L377 1536 Z " />
</g>
</glyph>
<glyph glyph-name="zacute" unicode="&#x17a;" horiz-adv-x="1178" >
<path fill="black" d="M104 63 L936 1007 L139 1007 L139 1082 L1051 1082 L1051 1017 L219 74 L1118 74 L1118 0 L104 0 L104 63 Z " />
<g transform="translate(405,0)" >
<path fill="black" d="M377 1536 L479 1536 L234 1264 L150 1264 L377 1536 Z " />
</g>
</glyph>
<glyph glyph-name="Zdotaccent" unicode="&#x17b;" horiz-adv-x="1469" >
<path fill="black" d="M111 65 L1199 1381 L156 1381 L156 1456 L1319 1456 L1319 1397 L230 76 L1357 76 L1357 0 L111 0 L111 65 Z " />
<g transform="translate(483,1650)" >
<path fill="black" d="M176 58 Q176 86 196.5 105.5 Q217 125 249 125 Q281 125 302.5 105.5 Q324 86 324 58 Q324 30 302.5 11.5 Q281 -7 249 -7 Q217 -7 196.5 11.5 Q176 30 176 58 Z " />
</g>
</glyph>
<glyph glyph-name="zdotaccent" unicode="&#x17c;" horiz-adv-x="1178" >
<path fill="black" d="M104 63 L936 1007 L139 1007 L139 1082 L1051 1082 L1051 1017 L219 74 L1118 74 L1118 0 L104 0 L104 63 Z " />
<g transform="translate(363,1332)" >
<path fill="black" d="M176 58 Q176 86 196.5 105.5 Q217 125 249 125 Q281 125 302.5 105.5 Q324 86 324 58 Q324 30 302.5 11.5 Q281 -7 249 -7 Q217 -7 196.5 11.5 Q176 30 176 58 Z " />
</g>
</glyph>
<glyph glyph-name="Zcaron" unicode="&#x17d;" horiz-adv-x="1469" >
<path fill="black" d="M111 65 L1199 1381 L156 1381 L156 1456 L1319 1456 L1319 1397 L230 76 L1357 76 L1357 0 L111 0 L111 65 Z " />
<g transform="translate(248,322)" >
<path fill="black" d="M175 1512 L257 1512 L483 1305 L710 1512 L788 1512 L788 1500 L521 1245 L444 1245 L175 1501 L175 1512 Z " />
</g>
</glyph>
<glyph glyph-name="zcaron" unicode="&#x17e;" horiz-adv-x="1178" >
<path fill="black" d="M104 63 L936 1007 L139 1007 L139 1082 L1051 1082 L1051 1017 L219 74 L1118 74 L1118 0 L104 0 L104 63 Z " />
<g transform="translate(128,4)" >
<path fill="black" d="M175 1512 L257 1512 L483 1305 L710 1512 L788 1512 L788 1500 L521 1245 L444 1245 L175 1501 L175 1512 Z " />
</g>
</glyph>
<glyph glyph-name="florin" unicode="&#x192;" horiz-adv-x="781" d="M-84 -346 Q-65 -352 -31 -357.5 Q3 -363 34 -363 Q162 -363 230.5 -291.5 Q299 -220 299 -89 L299 1009 L76 1009 L76 1082 L299 1082 L299 1228 Q299 1308 322.5 1369 Q346 1430 391 1472 Q436 1514 500.5 1535.5 Q565 1557 646 1557 Q684 1557 724 1553 Q764 1549 802 1539 L790 1467 Q757 1475 727 1478 Q697 1481 650 1481 Q524 1481 453 1415 Q382 1349 382 1228 L382 1082 L713 1082 L713 1009 L382 1009 L382 -89 Q382 -258 290 -347.5 Q198 -437 34 -437 Q-3 -437 -34 -432.5 Q-65 -428 -100 -418 L-84 -346 Z " />
<glyph glyph-name="Ohorn" unicode="&#x1a0;" horiz-adv-x="1446" d="M191 824 Q191 971 238 1091 Q285 1211 371.5 1296.5 Q458 1382 580.5 1429 Q703 1476 854 1476 Q1024 1476 1156 1418.5 Q1288 1361 1376 1255 Q1465 1256 1521.5 1276.5 Q1578 1297 1611 1334.5 Q1644 1372 1656.5 1427 Q1669 1482 1669 1552 L1751 1552 Q1751 1470 1733.5 1405 Q1716 1340 1677 1293.5 Q1638 1247 1576 1220 Q1514 1193 1425 1186 Q1471 1111 1495 1020 Q1519 929 1519 824 L1519 632 Q1519 485 1472.5 365 Q1426 245 1339.5 159.5 Q1253 74 1130.5 27 Q1008 -20 856 -20 Q705 -20 582.5 27 Q460 74 373 159.5 Q286 245 238.5 365 Q191 485 191 632 L191 824 Z M276 632 Q276 503 315.5 397 Q355 291 429.5 215.5 Q504 140 612 98.5 Q720 57 856 57 Q994 57 1101.5 98.5 Q1209 140 1283.5 215.5 Q1358 291 1396.5 397 Q1435 503 1435 632 L1435 826 Q1435 954 1396 1059.5 Q1357 1165 1282.5 1240.5 Q1208 1316 1100 1357.5 Q992 1399 854 1399 Q718 1399 610.5 1357.5 Q503 1316 428.5 1240.5 Q354 1165 315 1059.5 Q276 954 276 826 L276 632 Z " />
<glyph glyph-name="ohorn" unicode="&#x1a1;" horiz-adv-x="1132" d="M106 560 Q106 679 147.5 778.5 Q189 878 264 950 Q339 1022 444 1062 Q549 1102 676 1102 Q803 1102 906 1063.5 Q1009 1025 1084 955 Q1158 957 1204 974.5 Q1250 992 1275.5 1023 Q1301 1054 1309.5 1098 Q1318 1142 1318 1197 L1397 1197 Q1397 1131 1384 1078 Q1371 1025 1341 986.5 Q1311 948 1262.5 924 Q1214 900 1142 892 Q1193 824 1220.5 740.5 Q1248 657 1248 560 L1248 522 Q1248 404 1207 304.5 Q1166 205 1091 133 Q1016 61 911.5 20.5 Q807 -20 679 -20 Q551 -20 445.5 20.5 Q340 61 264.5 133 Q189 205 147.5 304.5 Q106 404 106 522 L106 560 Z M189 522 Q189 428 222 343.5 Q255 259 317.5 194.5 Q380 130 471 92 Q562 54 679 54 Q795 54 885 92 Q975 130 1037.5 194.5 Q1100 259 1132.5 343.5 Q1165 428 1165 522 L1165 560 Q1165 652 1132.5 736.5 Q1100 821 1037.5 885.5 Q975 950 884 989 Q793 1028 676 1028 Q561 1028 470 989 Q379 950 317 885.5 Q255 821 222 736.5 Q189 652 189 560 L189 522 Z " />
<glyph glyph-name="Uhorn" unicode="&#x1af;" horiz-adv-x="1378" d="M215 1456 L300 1456 L300 469 Q300 368 339.5 291 Q379 214 448 161.5 Q517 109 611.5 82.5 Q706 56 817 56 Q928 56 1022.5 82.5 Q1117 109 1186 161.5 Q1255 214 1294 291 Q1333 368 1333 469 L1333 1456 L1418 1456 L1418 1248 Q1501 1251 1555 1272.5 Q1609 1294 1640 1332 Q1671 1370 1683 1424.5 Q1695 1479 1695 1548 L1775 1548 Q1775 1461 1756 1393.5 Q1737 1326 1694.5 1279 Q1652 1232 1584 1206.5 Q1516 1181 1418 1177 L1418 469 Q1418 346 1372 254.5 Q1326 163 1245 102 Q1164 41 1054.5 10.5 Q945 -20 817 -20 Q689 -20 579 10.5 Q469 41 388 102 Q307 163 261 254.5 Q215 346 215 469 L215 1456 Z " />
<glyph glyph-name="uhorn" unicode="&#x1b0;" horiz-adv-x="1162" d="M197 1082 L280 1082 L280 391 Q280 297 306.5 233 Q333 169 379.5 129.5 Q426 90 489.5 73 Q553 56 627 56 Q730 56 805.5 76.5 Q881 97 933.5 133 Q986 169 1017 217 Q1048 265 1063 320 L1063 1082 L1148 1082 L1148 948 Q1216 952 1258 969.5 Q1300 987 1323 1017 Q1346 1047 1354 1089.5 Q1362 1132 1362 1186 L1440 1186 Q1440 1116 1425.5 1061.5 Q1411 1007 1377 968.5 Q1343 930 1287 908.5 Q1231 887 1148 882 L1148 0 L1065 0 L1064 168 Q1006 81 897 30.5 Q788 -20 624 -20 Q529 -20 450.5 2.5 Q372 25 315.5 74.5 Q259 124 228 202.5 Q197 281 197 393 L197 1082 Z " />
<glyph glyph-name="uni0218" unicode="&#x218;" horiz-adv-x="1212" >
<path fill="black" d="M197 413 Q197 345 221.5 292.5 Q246 240 287.5 200 Q329 160 384.5 132.5 Q440 105 502.5 88 Q565 71 631 63.5 Q697 56 759 56 Q872 56 965.5 77.5 Q1059 99 1126 138 Q1193 177 1230.5 231.5 Q1268 286 1268 353 Q1268 418 1240.5 468.5 Q1213 519 1151.5 560.5 Q1090 602 990 636.5 Q890 671 744 704 Q611 734 504.5 769 Q398 804 323.5 851 Q249 898 209 961.5 Q169 1025 169 1112 Q169 1196 213 1263 Q257 1330 334.5 1377.5 Q412 1425 518.5 1450.5 Q625 1476 750 1476 Q880 1476 987.5 1444 Q1095 1412 1172.5 1354.5 Q1250 1297 1293 1217.5 Q1336 1138 1336 1044 L1253 1044 Q1253 1121 1217.5 1186 Q1182 1251 1116 1298.5 Q1050 1346 957 1373 Q864 1400 750 1400 Q630 1400 537.5 1377 Q445 1354 381.5 1314.5 Q318 1275 285.5 1223 Q253 1171 253 1114 Q253 1058 277 1011 Q301 964 360 923 Q419 882 518.5 847 Q618 812 769 780 Q900 750 1008 714 Q1116 678 1193 628.5 Q1270 579 1312 512 Q1354 445 1354 355 Q1354 266 1307.5 196 Q1261 126 1180.5 78 Q1100 30 991.5 5 Q883 -20 759 -20 Q684 -20 606.5 -10 Q529 0 457.5 21.5 Q386 43 323 77 Q260 111 213.5 159.5 Q167 208 140 271 Q113 334 113 413 L197 413 Z " />
<g transform="translate(383,-252)" >
<path fill="black" d="M-782 -463 Q-740 -412 -719.5 -363 Q-699 -314 -699 -247 L-699 -168 L-617 -168 L-617 -245 Q-617 -324 -647.5 -390.5 Q-678 -457 -729 -504 L-782 -463 Z " />
</g>
</glyph>
<glyph glyph-name="uni0219" unicode="&#x219;" horiz-adv-x="1027" >
<path fill="black" d="M211 287 Q217 220 255.5 175 Q294 130 352 103 Q410 76 480.5 65 Q551 54 619 54 Q712 54 782.5 72.5 Q853 91 900.5 121.5 Q948 152 972.5 191 Q997 230 997 270 Q997 305 981 341 Q965 377 922.5 410 Q880 443 805 471 Q730 499 613 520 Q504 540 421 564 Q338 588 282.5 623 Q227 658 199 706 Q171 754 171 820 Q171 878 201 929.5 Q231 981 287.5 1019 Q344 1057 425.5 1079.5 Q507 1102 610 1102 Q720 1102 807 1078.5 Q894 1055 954 1013.5 Q1014 972 1046 914 Q1078 856 1078 787 L994 787 Q994 834 968.5 877.5 Q943 921 894.5 954.5 Q846 988 774.5 1008 Q703 1028 610 1028 Q515 1028 447.5 1009.5 Q380 991 337 961.5 Q294 932 274 895.5 Q254 859 254 823 Q254 784 268 751 Q282 718 323 689.5 Q364 661 439 636 Q514 611 636 588 Q753 566 837 538 Q921 510 975 472 Q1029 434 1054.5 385 Q1080 336 1080 272 Q1080 208 1047.5 154 Q1015 100 955 61.5 Q895 23 810 1.5 Q725 -20 619 -20 Q500 -20 408.5 5 Q317 30 254.5 72.5 Q192 115 160 170.5 Q128 226 128 287 L211 287 Z " />
<g transform="translate(275,-250)" >
<path fill="black" d="M-782 -463 Q-740 -412 -719.5 -363 Q-699 -314 -699 -247 L-699 -168 L-617 -168 L-617 -245 Q-617 -324 -647.5 -390.5 Q-678 -457 -729 -504 L-782 -463 Z " />
</g>
</glyph>
<glyph glyph-name="uni021A" unicode="&#x21a;" horiz-adv-x="1224" >
<path fill="black" d="M692 1380 L65 1380 L65 1456 L1403 1456 L1403 1380 L776 1380 L776 0 L692 0 L692 1380 Z " />
<g transform="translate(364,-244)" >
<path fill="black" d="M-782 -463 Q-740 -412 -719.5 -363 Q-699 -314 -699 -247 L-699 -168 L-617 -168 L-617 -245 Q-617 -324 -647.5 -390.5 Q-678 -457 -729 -504 L-782 -463 Z " />
</g>
</glyph>
<glyph glyph-name="uni021B" unicode="&#x21b;" horiz-adv-x="653" >
<path fill="black" d="M281 1009 L42 1009 L42 1082 L281 1082 L281 1368 L366 1368 L366 1082 L655 1082 L655 1009 L366 1009 L366 261 Q366 196 381.5 155.5 Q397 115 423 93 Q449 71 483 63.5 Q517 56 555 56 Q591 56 620 59 Q649 62 681 66 L691 -6 Q678 -10 660 -12.5 Q642 -15 622.5 -16.5 Q603 -18 584 -19 Q565 -20 550 -20 Q489 -20 439 -6.5 Q389 7 354 39 Q319 71 300 125.5 Q281 180 281 261 L281 1009 Z " />
<g transform="translate(173,-244)" >
<path fill="black" d="M-782 -463 Q-740 -412 -719.5 -363 Q-699 -314 -699 -247 L-699 -168 L-617 -168 L-617 -245 Q-617 -324 -647.5 -390.5 Q-678 -457 -729 -504 L-782 -463 Z " />
</g>
</glyph>
<glyph glyph-name="uni0298" unicode="&#x298;" horiz-adv-x="1374" d="M158 824 Q158 971 205 1091 Q252 1211 338.5 1296.5 Q425 1382 547.5 1429 Q670 1476 821 1476 Q973 1476 1095.5 1429 Q1218 1382 1305 1296.5 Q1392 1211 1439 1091 Q1486 971 1486 824 L1486 632 Q1486 485 1439.5 365 Q1393 245 1306.5 159.5 Q1220 74 1097.5 27 Q975 -20 823 -20 Q672 -20 549.5 27 Q427 74 340 159.5 Q253 245 205.5 365 Q158 485 158 632 L158 824 Z M243 632 Q243 503 282.5 397 Q322 291 396.5 215.5 Q471 140 579 98.5 Q687 57 823 57 Q961 57 1068.5 98.5 Q1176 140 1250.5 215.5 Q1325 291 1363.5 397 Q1402 503 1402 632 L1402 826 Q1402 954 1363 1059.5 Q1324 1165 1249.5 1240.5 Q1175 1316 1067 1357.5 Q959 1399 821 1399 Q685 1399 577.5 1357.5 Q470 1316 395.5 1240.5 Q321 1165 282 1059.5 Q243 954 243 826 L243 632 Z M747 729 Q747 758 768.5 777.5 Q790 797 822 797 Q854 797 875.5 777.5 Q897 758 897 729 Q897 700 875.5 681 Q854 662 822 662 Q790 662 768.5 681 Q747 700 747 729 Z " />
<glyph glyph-name="uni02AA" unicode="&#x2aa;" horiz-adv-x="1227" d="M219 1536 L304 1536 L304 261 Q304 251 304 242 Q304 233 305 225 Q431 137 568.5 95.5 Q706 54 861 54 Q948 54 1016 72.5 Q1084 91 1130.5 121.5 Q1177 152 1201 191 Q1225 230 1225 270 Q1225 306 1208.5 342 Q1192 378 1149 410.5 Q1106 443 1031.5 471 Q957 499 840 520 Q731 540 648 564 Q565 588 509.5 623 Q454 658 425.5 706 Q397 754 397 820 Q397 878 427.5 929.5 Q458 981 515 1019 Q572 1057 653.5 1079.5 Q735 1102 837 1102 Q947 1102 1034 1078.5 Q1121 1055 1181 1013.5 Q1241 972 1273 914 Q1305 856 1305 787 L1221 787 Q1221 834 1196 877.5 Q1171 921 1122 954.5 Q1073 988 1001.5 1008 Q930 1028 837 1028 Q742 1028 674 1009.5 Q606 991 563 961.5 Q520 932 500 895.5 Q480 859 480 823 Q480 781 495 747.5 Q510 714 552 686 Q594 658 668.5 634.5 Q743 611 861 588 Q975 567 1059 539.5 Q1143 512 1198.5 474.5 Q1254 437 1281 387.5 Q1308 338 1308 272 Q1308 208 1276 154 Q1244 100 1185 61 Q1126 22 1044 0.5 Q962 -21 861 -21 Q798 -21 740 -14.5 Q682 -8 628 3 L629 -6 Q616 -10 598 -12.5 Q580 -15 560.5 -16.5 Q541 -18 522 -19 Q503 -20 488 -20 Q427 -20 377 -6.5 Q327 7 292 39 Q257 71 238 125.5 Q219 180 219 261 L219 1536 Z M352 101 Q369 83 391 73.5 Q413 64 439 60 Q415 70 393.5 80 Q372 90 352 101 Z " />
<glyph glyph-name="uni02AD" unicode="&#x2ad;" horiz-adv-x="1145" d="M139 581 L1006 581 L1006 0 L928 0 L928 514 L216 514 L216 0 L139 0 L139 581 Z M139 1455 L1006 1455 L1006 874 L928 874 L928 1388 L216 1388 L216 874 L139 874 L139 1455 Z " />
<glyph glyph-name="uni02AF" unicode="&#x2af;" horiz-adv-x="1653" d="M387 764 Q387 829 376 879 Q365 929 339 962.5 Q313 996 270 1013.5 Q227 1031 163 1031 Q131 1031 99.5 1026 Q68 1021 50 1016 L36 1084 Q71 1092 101.5 1097 Q132 1102 169 1102 Q329 1102 399.5 1015 Q470 928 470 764 L470 426 Q470 316 495.5 244 Q521 172 566 130 Q611 88 673 71.5 Q735 55 809 55 Q911 55 987.5 87 Q1064 119 1118 168 Q1172 217 1204.5 276 Q1237 335 1252 389 L1252 1082 L1335 1082 L1335 -99 Q1335 -164 1346 -214 Q1357 -264 1383 -297.5 Q1409 -331 1452 -348.5 Q1495 -366 1559 -366 Q1591 -366 1622.5 -361 Q1654 -356 1673 -351 L1687 -419 Q1653 -427 1621.5 -432 Q1590 -437 1554 -437 Q1394 -437 1323 -350 Q1252 -263 1252 -99 L1252 239 Q1222 183 1178 135.5 Q1134 88 1077 53.5 Q1020 19 950.5 -0.5 Q881 -20 801 -20 Q703 -20 626 5 Q549 30 496 84 Q443 138 415 222.5 Q387 307 387 426 L387 764 Z " />
<glyph glyph-name="uni02B5" unicode="&#x2b5;" horiz-adv-x="739" d="M48 721 Q80 713 136 713 Q188 713 234 729 Q280 745 318 773.5 Q356 802 383.5 842 Q411 882 425 930 L425 1455 L507 1455 L507 536 Q507 450 592 450 Q613 450 638.5 452 Q664 454 691 462 L691 387 Q659 379 627 375 Q595 371 568 371 Q492 371 458.5 416.5 Q425 462 425 532 L425 804 Q377 728 301.5 684 Q226 640 132 640 Q74 640 48 646 L48 721 Z " />
<glyph glyph-name="uni02B9" unicode="&#x2b9;" horiz-adv-x="401" d="M231 1560 L314 1560 L156 1139 L88 1139 L231 1560 Z " />
<glyph glyph-name="uni02BA" unicode="&#x2ba;" horiz-adv-x="620" >
<path fill="black" d="M231 1560 L314 1560 L156 1139 L88 1139 L231 1560 Z " />
<g transform="translate(195,0)" >
<path fill="black" d="M231 1560 L314 1560 L156 1139 L88 1139 L231 1560 Z " />
</g>
</glyph>
<glyph glyph-name="uni02BB" unicode="&#x2bb;" horiz-adv-x="382" d="M96 1272 Q96 1366 133 1442.5 Q170 1519 233 1574 L286 1534 Q233 1473 206 1413 Q179 1353 179 1274 L179 1101 L96 1101 L96 1272 Z " />
<glyph glyph-name="uni02BC" unicode="&#x2bc;" horiz-adv-x="396" d="M89 1170 Q143 1230 169.5 1288.5 Q196 1347 196 1426 L196 1536 L279 1536 L279 1428 Q279 1335 242 1259 Q205 1183 142 1129 L89 1170 Z " />
<glyph glyph-name="uni02BD" unicode="&#x2bd;" horiz-adv-x="382" d="M233 1101 Q170 1156 133 1232.5 Q96 1309 96 1403 L96 1574 L179 1574 L179 1401 Q179 1322 206 1262 Q233 1202 286 1141 L233 1101 Z " />
<glyph glyph-name="uni02BE" unicode="&#x2be;" horiz-adv-x="352" d="M91 1248 Q132 1248 158.5 1271.5 Q185 1295 185 1332 Q185 1370 158.5 1394.5 Q132 1419 91 1419 L91 1483 Q126 1483 156.5 1471 Q187 1459 210 1439 Q233 1419 246.5 1391.5 Q260 1364 260 1332 Q260 1301 246.5 1274 Q233 1247 210 1227 Q187 1207 156.5 1196 Q126 1185 91 1185 L91 1248 Z " />
<glyph glyph-name="uni02BF" unicode="&#x2bf;" horiz-adv-x="352" d="M260 1185 Q226 1185 195 1196 Q164 1207 141 1227 Q118 1247 104.5 1274 Q91 1301 91 1332 Q91 1364 104.5 1391.5 Q118 1419 141 1439 Q164 1459 195 1471 Q226 1483 260 1483 L260 1419 Q220 1419 192.5 1394.5 Q165 1370 165 1332 Q165 1295 192.5 1271.5 Q220 1248 260 1248 L260 1185 Z " />
<glyph glyph-name="uni02C0" unicode="&#x2c0;" horiz-adv-x="896" d="M367 967 L405 967 Q492 967 552.5 994.5 Q613 1022 650.5 1069.5 Q688 1117 704.5 1180 Q721 1243 721 1313 L721 1407 Q721 1477 701.5 1536.5 Q682 1596 642.5 1639.5 Q603 1683 544 1708 Q485 1733 406 1733 Q354 1733 304.5 1720.5 Q255 1708 216 1682.5 Q177 1657 152 1618 Q127 1579 124 1525 L45 1525 Q48 1592 78 1644.5 Q108 1697 157 1733 Q206 1769 270.5 1787.5 Q335 1806 406 1806 Q501 1806 574.5 1776 Q648 1746 698.5 1693 Q749 1640 775.5 1566.5 Q802 1493 802 1407 L802 1313 Q802 1228 781 1154.5 Q760 1081 716.5 1026 Q673 971 606.5 937 Q540 903 448 897 L448 651 L367 651 L367 967 Z " />
</font>
</svg>
