<?xml version="1.0" encoding="UTF-8"?>
<svg xmlns="http://www.w3.org/2000/svg" xmlns:xlink="http://www.w3.org/1999/xlink" version="1.2" >
<font id="Gotho-3Cd200ExLt" horiz-adv-x="602">
<font-face  font-family="Gotho" units-per-em="2048" ascent="2146" descent="-555" font-style="normal" font-weight="100" font-stretch="condensed" cap-height="1456" x-height="1082" underline-position="-100" underline-thickness="100" />
<missing-glyph horiz-adv-x="658" d="M93 1456 L565 1456 L565 0 L93 0 L93 1456 Z M529 87 L529 1369 L348 728 L529 87 Z M309 728 L129 1362 L129 94 L309 728 Z M157 54 L499 54 L328 659 L157 54 Z M328 797 L499 1402 L157 1402 L328 797 Z " />
<glyph glyph-name="uni0000" horiz-adv-x="0" />
<glyph glyph-name="uni000D" unicode="&#xd;" horiz-adv-x="382" />
<glyph glyph-name="space" unicode="&#x20;" horiz-adv-x="382" />
<glyph glyph-name="uni0002" unicode="&#x2;" horiz-adv-x="0" />
<glyph glyph-name="uni0009" unicode="&#x9;" horiz-adv-x="382" />
<glyph glyph-name="exclam" unicode="&#x21;" horiz-adv-x="345" d="M138 403 L136 1456 L206 1456 L203 403 L138 403 Z M175 -7 Q152 -7 138 11.5 Q124 30 124 57 Q124 83 138 102 Q152 121 175 121 Q198 121 212.5 102 Q227 83 227 57 Q227 30 212.5 11.5 Q198 -7 175 -7 Z " />
<glyph glyph-name="quotedbl" unicode="&#x22;" horiz-adv-x="464" d="M128 1391 L128 1536 L192 1536 L192 1394 L179 1109 L123 1109 L128 1391 Z M306 1391 L306 1536 L370 1536 L370 1394 L357 1109 L301 1109 L306 1391 Z " />
<glyph glyph-name="numbersign" unicode="&#x23;" horiz-adv-x="825" d="M244 410 L71 410 L71 476 L253 476 L313 972 L122 972 L122 1040 L322 1040 L373 1456 L429 1456 L378 1040 L598 1040 L649 1456 L706 1456 L655 1040 L815 1040 L815 972 L646 972 L585 476 L765 476 L765 410 L577 410 L526 0 L469 0 L520 410 L301 410 L251 0 L194 0 L244 410 Z M528 476 L589 972 L370 972 L309 476 L528 476 Z " />
<glyph glyph-name="dollar" unicode="&#x24;" horiz-adv-x="807" d="M393 -20 Q339 -16 287 8.5 Q235 33 194.5 84 Q154 135 129 215.5 Q104 296 104 412 L171 412 Q171 308 193.5 238.5 Q216 169 251 127 Q286 85 330 67.5 Q374 50 416 50 Q469 50 509.5 74.5 Q550 99 578.5 140.5 Q607 182 621.5 236 Q636 290 636 349 Q636 411 625 459.5 Q614 508 588 548 Q562 588 518.5 622.5 Q475 657 410 690 Q347 722 296 757.5 Q245 793 209.5 840 Q174 887 155 951 Q136 1015 136 1105 Q136 1185 154 1251 Q172 1317 205 1365 Q238 1413 285 1441.5 Q332 1470 390 1476 L390 1668 L447 1668 L447 1475 Q565 1462 632 1351 Q699 1240 699 1040 L631 1040 Q631 1118 617 1185 Q603 1252 576 1301 Q549 1350 509 1378 Q469 1406 416 1406 Q362 1406 322 1381 Q282 1356 256 1314.5 Q230 1273 217 1219 Q204 1165 204 1107 Q204 1048 213.5 1000.5 Q223 953 248 912.5 Q273 872 317.5 836.5 Q362 801 432 765 Q494 733 544.5 698 Q595 663 630.5 616 Q666 569 685.5 505 Q705 441 705 351 Q705 270 687 204.5 Q669 139 635.5 91.5 Q602 44 554.5 15.5 Q507 -13 449 -19 L449 -208 L393 -208 L393 -20 Z " />
<glyph glyph-name="percent" unicode="&#x25;" horiz-adv-x="1066" d="M270 164 L744 1302 L789 1266 L313 128 L270 164 Z M594 357 Q594 419 607 473.5 Q620 528 644.5 568.5 Q669 609 703.5 633 Q738 657 781 657 Q825 657 859.5 633 Q894 609 919 568.5 Q944 528 957 473.5 Q970 419 970 357 L970 279 Q970 218 957 163 Q944 108 919.5 67.5 Q895 27 860 3 Q825 -21 782 -21 Q739 -21 704 3 Q669 27 644.5 67.5 Q620 108 607 163 Q594 218 594 279 L594 357 Z M100 1178 Q100 1240 113 1294.5 Q126 1349 150.5 1389.5 Q175 1430 209.5 1454 Q244 1478 287 1478 Q331 1478 365.5 1454 Q400 1430 425 1389.5 Q450 1349 463 1294.5 Q476 1240 476 1178 L476 1100 Q476 1039 463 984 Q450 929 425.5 888.5 Q401 848 366 824 Q331 800 288 800 Q245 800 210 824 Q175 848 150.5 888.5 Q126 929 113 984 Q100 1039 100 1100 L100 1178 Z M651 279 Q651 235 659 193 Q667 151 683 118 Q699 85 724 65 Q749 45 782 45 Q816 45 840.5 65 Q865 85 881 118 Q897 151 905 193 Q913 235 913 279 L913 357 Q913 405 905 447.5 Q897 490 880.5 522 Q864 554 839 572.5 Q814 591 781 591 Q748 591 724 572.5 Q700 554 683.5 522 Q667 490 659 447.5 Q651 405 651 357 L651 279 Z M157 1100 Q157 1056 165 1014 Q173 972 189 939 Q205 906 230 886 Q255 866 288 866 Q322 866 346.5 886 Q371 906 387 939 Q403 972 411 1014 Q419 1056 419 1100 L419 1178 Q419 1226 411 1268.5 Q403 1311 386.5 1343 Q370 1375 345 1393.5 Q320 1412 287 1412 Q254 1412 230 1393.5 Q206 1375 189.5 1343 Q173 1311 165 1268.5 Q157 1226 157 1178 L157 1100 Z " />
<glyph glyph-name="ampersand" unicode="&#x26;" horiz-adv-x="893" d="M842 0 L760 0 L668 160 Q614 79 545.5 29.5 Q477 -20 396 -20 Q327 -20 272 7 Q217 34 178.5 83.5 Q140 133 119.5 203 Q99 273 99 359 Q99 422 113 477.5 Q127 533 151 583.5 Q175 634 207.5 680 Q240 726 277 770 L302 799 Q250 897 219.5 982 Q189 1067 189 1160 Q189 1231 204 1289.5 Q219 1348 247.5 1389.5 Q276 1431 316 1454 Q356 1477 406 1477 Q454 1477 491 1455.5 Q528 1434 553.5 1397 Q579 1360 592.5 1311 Q606 1262 606 1206 Q606 1158 594 1115 Q582 1072 563 1034 Q544 996 521 964 Q498 932 477 907 L383 795 L673 293 Q702 364 719 451 Q736 538 736 639 L798 639 Q798 513 772.5 413.5 Q747 314 709 231 L842 0 Z M348 717 L336 738 L308 705 Q261 647 233 597 Q205 547 190.5 504 Q176 461 171.5 425 Q167 389 167 359 Q167 299 181 243 Q195 187 223.5 144.5 Q252 102 295.5 76.5 Q339 51 397 51 Q464 51 525.5 94.5 Q587 138 635 218 L348 717 Z M442 960 Q484 1010 513 1070.5 Q542 1131 542 1206 Q542 1245 533.5 1281 Q525 1317 507.5 1345 Q490 1373 464.5 1389.5 Q439 1406 406 1406 Q369 1406 341 1386.5 Q313 1367 294 1334 Q275 1301 265.5 1256.5 Q256 1212 256 1162 Q256 1092 280 1015.5 Q304 939 350 854 L442 960 Z " />
<glyph glyph-name="quotesingle" unicode="&#x27;" horiz-adv-x="294" d="M115 1373 L115 1536 L183 1536 L183 1377 L169 1111 L110 1111 L115 1373 Z " />
<glyph glyph-name="parenleft" unicode="&#x28;" horiz-adv-x="476" d="M413 -470 Q359 -419 307 -321.5 Q255 -224 213.5 -88.5 Q172 47 146.5 213.5 Q121 380 121 569 L121 587 Q121 767 146.5 933 Q172 1099 213.5 1236.5 Q255 1374 307 1475 Q359 1576 413 1626 L431 1570 Q385 1522 341 1425.5 Q297 1329 262.5 1199 Q228 1069 207.5 913.5 Q187 758 187 591 L187 567 Q187 400 207.5 244 Q228 88 262.5 -42 Q297 -172 341 -269 Q385 -366 431 -415 L413 -470 Z " />
<glyph glyph-name="parenright" unicode="&#x29;" horiz-adv-x="486" d="M47 -415 Q94 -367 137.5 -270 Q181 -173 215.5 -42.5 Q250 88 270.5 244 Q291 400 291 567 L291 591 Q291 758 270 914 Q249 1070 214.5 1200 Q180 1330 136 1427 Q92 1524 47 1572 L64 1626 Q119 1576 171.5 1475 Q224 1374 265.5 1236.5 Q307 1099 332 933 Q357 767 357 587 L357 569 Q357 380 332 213.5 Q307 47 265.5 -88.5 Q224 -224 171.5 -321.5 Q119 -419 64 -470 L47 -415 Z " />
<glyph glyph-name="asterisk" unicode="&#x2a;" horiz-adv-x="716" d="M313 1011 L32 1130 L53 1200 L334 1070 L331 1456 L398 1456 L392 1069 L666 1206 L688 1137 L407 1007 L598 698 L543 655 L359 971 L185 654 L130 695 L313 1011 Z " />
<glyph glyph-name="plus" unicode="&#x2b;" horiz-adv-x="820" d="M369 642 L75 642 L75 715 L369 715 L369 1206 L437 1206 L437 715 L741 715 L741 642 L437 642 L437 146 L369 146 L369 642 Z " />
<glyph glyph-name="comma" unicode="&#x2c;" horiz-adv-x="336" d="M70 -222 Q107 -163 126 -104.5 Q145 -46 145 32 L145 169 L218 169 L218 35 Q218 -58 190 -132.5 Q162 -207 117 -261 L70 -222 Z " />
<glyph glyph-name="hyphen" unicode="&#x2d;" horiz-adv-x="462" d="M66 623 L66 693 L388 693 L388 623 L66 623 Z " />
<glyph glyph-name="period" unicode="&#x2e;" horiz-adv-x="395" d="M185 -7 Q158 -7 142 11.5 Q126 30 126 57 Q126 85 142 104 Q158 123 185 123 Q211 123 228 104 Q245 85 245 57 Q245 30 228 11.5 Q211 -7 185 -7 Z " />
<glyph glyph-name="slash" unicode="&#x2f;" horiz-adv-x="582" d="M47 -125 L449 1456 L512 1456 L111 -125 L47 -125 Z " />
<glyph glyph-name="zero" unicode="0" horiz-adv-x="807" d="M106 859 Q106 1008 126 1123 Q146 1238 184.5 1316.5 Q223 1395 278 1436 Q333 1477 403 1477 Q474 1477 529.5 1436 Q585 1395 623 1316.5 Q661 1238 681 1123 Q701 1008 701 859 L701 599 Q701 450 681 334.5 Q661 219 623 140.5 Q585 62 530 21 Q475 -20 404 -20 Q334 -20 279 21 Q224 62 185.5 140.5 Q147 219 126.5 334.5 Q106 450 106 599 L106 859 Z M632 864 Q632 989 617.5 1089 Q603 1189 574.5 1259.5 Q546 1330 503 1368 Q460 1406 403 1406 Q346 1406 303 1368 Q260 1330 231.5 1259.5 Q203 1189 188.5 1089 Q174 989 174 864 L174 595 Q174 472 188.5 372 Q203 272 232 200.5 Q261 129 304 90 Q347 51 404 51 Q462 51 504.5 90 Q547 129 575.5 200.5 Q604 272 618 372 Q632 472 632 595 L632 864 Z " />
<glyph glyph-name="one" unicode="1" horiz-adv-x="808" d="M416 0 L416 1362 L147 1208 L147 1286 L473 1461 L485 1461 L485 0 L416 0 Z " />
<glyph glyph-name="two" unicode="2" horiz-adv-x="808" d="M105 0 L105 67 L438 614 Q485 691 516.5 755.5 Q548 820 567 877 Q586 934 594.5 984 Q603 1034 603 1082 Q603 1155 589.5 1214.5 Q576 1274 549 1316.5 Q522 1359 482 1382 Q442 1405 390 1405 Q340 1405 301.5 1377.5 Q263 1350 236.5 1301.5 Q210 1253 196.5 1186.5 Q183 1120 183 1042 L115 1042 Q115 1131 133 1210 Q151 1289 186 1348 Q221 1407 272.5 1441.5 Q324 1476 391 1476 Q456 1476 508 1450.5 Q560 1425 596.5 1375 Q633 1325 652.5 1252.5 Q672 1180 672 1085 Q672 1018 656 950 Q640 882 613 814.5 Q586 747 550.5 680.5 Q515 614 477 550 L191 71 L721 71 L721 0 L105 0 Z " />
<glyph glyph-name="three" unicode="3" horiz-adv-x="808" d="M160 402 Q160 325 178.5 260.5 Q197 196 229.5 149.5 Q262 103 307 77 Q352 51 405 51 Q516 51 576 138.5 Q636 226 636 385 Q636 471 617 532 Q598 593 564 631.5 Q530 670 483 688 Q436 706 379 706 L300 706 L300 778 L379 778 Q437 778 481.5 802.5 Q526 827 556 868.5 Q586 910 601 965.5 Q616 1021 616 1082 Q616 1150 603.5 1208.5 Q591 1267 564.5 1311 Q538 1355 498 1380 Q458 1405 402 1405 Q354 1405 313 1382 Q272 1359 242 1316.5 Q212 1274 194.5 1212.5 Q177 1151 177 1074 L110 1074 Q110 1166 132.5 1240 Q155 1314 194.5 1366.5 Q234 1419 287.5 1447.5 Q341 1476 402 1476 Q466 1476 518 1449 Q570 1422 607 1371 Q644 1320 664 1246 Q684 1172 684 1078 Q684 1024 672.5 972.5 Q661 921 638.5 877.5 Q616 834 583 800 Q550 766 508 745 Q605 710 654.5 618 Q704 526 704 389 Q704 292 681.5 215.5 Q659 139 619 87 Q579 35 524.5 7.5 Q470 -20 405 -20 Q348 -20 292 5.5 Q236 31 191.5 83 Q147 135 119.5 214.5 Q92 294 92 402 L160 402 Z " />
<glyph glyph-name="four" unicode="4" horiz-adv-x="807" d="M76 430 L524 1456 L603 1456 L603 458 L759 458 L759 387 L603 387 L603 0 L534 0 L534 387 L76 387 L76 430 Z M534 458 L534 1332 L161 458 L534 458 Z " />
<glyph glyph-name="five" unicode="5" horiz-adv-x="808" d="M206 383 Q217 220 275.5 135.5 Q334 51 435 51 Q544 51 598 156 Q652 261 652 462 Q652 545 637 615.5 Q622 686 592.5 738 Q563 790 520.5 819.5 Q478 849 422 849 Q349 849 304.5 819 Q260 789 225 737 L172 757 L220 1456 L704 1456 L704 1383 L277 1383 L243 831 Q255 846 274 862 Q293 878 317.5 891.5 Q342 905 371 913.5 Q400 922 432 922 Q497 922 550 890.5 Q603 859 640.5 800 Q678 741 699 656 Q720 571 720 464 Q720 359 703.5 270.5 Q687 182 652.5 117.5 Q618 53 564 16.5 Q510 -20 435 -20 Q377 -20 325 4.5 Q273 29 233.5 79 Q194 129 169.5 205 Q145 281 140 383 L206 383 Z " />
<glyph glyph-name="six" unicode="6" horiz-adv-x="808" d="M120 741 Q120 935 147.5 1074 Q175 1213 222 1302 Q269 1391 332 1433.5 Q395 1476 467 1476 Q509 1476 551.5 1464 Q594 1452 626 1427 L610 1359 Q578 1381 547.5 1393 Q517 1405 472 1405 Q414 1405 363.5 1368.5 Q313 1332 274.5 1254.5 Q236 1177 213.5 1058 Q191 939 189 774 Q207 815 231.5 848.5 Q256 882 286.5 907 Q317 932 353 945.5 Q389 959 430 959 Q498 959 550.5 923 Q603 887 639 823 Q675 759 694 671.5 Q713 584 713 482 Q713 375 692.5 283 Q672 191 634.5 123.5 Q597 56 544.5 17.5 Q492 -21 428 -21 Q363 -21 306.5 14.5 Q250 50 208.5 117 Q167 184 143.5 280.5 Q120 377 120 499 L120 741 Z M189 500 Q189 395 207 311.5 Q225 228 257 169.5 Q289 111 332.5 80 Q376 49 428 49 Q479 49 519.5 84.5 Q560 120 588 179.5 Q616 239 630.5 317.5 Q645 396 645 482 Q645 567 631 641.5 Q617 716 588.5 771 Q560 826 517.5 857.5 Q475 889 418 889 Q378 889 341.5 870.5 Q305 852 275 820 Q245 788 222.5 743.5 Q200 699 189 647 L189 500 Z " />
<glyph glyph-name="seven" unicode="7" horiz-adv-x="809" d="M284 102 Q298 302 329 479.5 Q360 657 405 816 Q450 975 509 1116.5 Q568 1258 638 1385 L77 1385 L77 1456 L711 1456 L711 1385 Q641 1268 581.5 1133.5 Q522 999 475.5 841.5 Q429 684 397.5 501 Q366 318 352 102 L346 0 L277 0 L284 102 Z " />
<glyph glyph-name="eight" unicode="8" horiz-adv-x="808" d="M406 -20 Q340 -20 283 5.5 Q226 31 184 81 Q142 131 118 206.5 Q94 282 94 381 Q94 448 108.5 506 Q123 564 149 611 Q175 658 211.5 692.5 Q248 727 292 746 Q214 785 166.5 874 Q119 963 119 1084 Q119 1179 141 1252.5 Q163 1326 201 1375.5 Q239 1425 291 1450.5 Q343 1476 404 1476 Q464 1476 516.5 1450.5 Q569 1425 608 1375.5 Q647 1326 669 1252.5 Q691 1179 691 1084 Q691 1024 678.5 971 Q666 918 643 874.5 Q620 831 588 798.5 Q556 766 517 746 Q561 727 597.5 692.5 Q634 658 660.5 611 Q687 564 702 506 Q717 448 717 381 Q717 282 692.5 206.5 Q668 131 626 81 Q584 31 527.5 5.5 Q471 -20 406 -20 Z M406 51 Q457 51 501.5 72.5 Q546 94 578 135.5 Q610 177 628.5 238 Q647 299 647 378 Q647 454 628.5 515.5 Q610 577 577.5 620.5 Q545 664 500.5 687.5 Q456 711 405 711 Q353 711 308.5 687.5 Q264 664 231.5 620.5 Q199 577 180.5 515.5 Q162 454 162 378 Q162 299 180.5 238 Q199 177 231.5 135.5 Q264 94 309 72.5 Q354 51 406 51 Z M405 781 Q451 781 490.5 802.5 Q530 824 559 863.5 Q588 903 604.5 960 Q621 1017 621 1088 Q621 1158 604.5 1216 Q588 1274 558.5 1316 Q529 1358 489.5 1381.5 Q450 1405 404 1405 Q357 1405 317.5 1383 Q278 1361 249.5 1320 Q221 1279 205 1220.5 Q189 1162 189 1088 Q189 1017 205 960 Q221 903 249.5 863.5 Q278 824 318 802.5 Q358 781 405 781 Z " />
<glyph glyph-name="nine" unicode="9" horiz-adv-x="808" d="M188 111 Q226 82 263.5 66 Q301 50 349 50 Q410 50 459.5 88.5 Q509 127 544 199 Q579 271 598 375 Q617 479 617 611 L617 661 Q579 569 516 517.5 Q453 466 377 466 Q311 466 258 505 Q205 544 167 611.5 Q129 679 108.5 768.5 Q88 858 88 958 Q88 1067 110 1162 Q132 1257 171.5 1327 Q211 1397 265 1437 Q319 1477 383 1477 Q453 1477 509 1441.5 Q565 1406 604.5 1334.5 Q644 1263 665 1155.5 Q686 1048 686 905 L686 613 Q686 461 661.5 343 Q637 225 593.5 144.5 Q550 64 489 22 Q428 -20 354 -20 Q308 -20 262 -4.5 Q216 11 171 43 L188 111 Z M617 907 Q617 1156 555.5 1281 Q494 1406 384 1406 Q334 1406 292.5 1369.5 Q251 1333 221.5 1271.5 Q192 1210 176 1128.5 Q160 1047 160 958 Q160 877 175 800.5 Q190 724 218.5 665.5 Q247 607 288 571.5 Q329 536 381 536 Q431 536 470.5 560.5 Q510 585 539 625 Q568 665 587.5 714.5 Q607 764 617 813 L617 907 Z " />
<glyph glyph-name="colon" unicode="&#x3a;" horiz-adv-x="326" >
<g transform="translate(-7,0)" >
<path fill="black" d="M185 -7 Q158 -7 142 11.5 Q126 30 126 57 Q126 85 142 104 Q158 123 185 123 Q211 123 228 104 Q245 85 245 57 Q245 30 228 11.5 Q211 -7 185 -7 Z " />
</g>
<g transform="translate(-16,945)" >
<path fill="black" d="M185 -7 Q158 -7 142 11.5 Q126 30 126 57 Q126 85 142 104 Q158 123 185 123 Q211 123 228 104 Q245 85 245 57 Q245 30 228 11.5 Q211 -7 185 -7 Z " />
</g>
</glyph>
<glyph glyph-name="semicolon" unicode="&#x3b;" horiz-adv-x="315" >
<g transform="translate(-5,0)" >
<path fill="black" d="M70 -222 Q107 -163 126 -104.5 Q145 -46 145 32 L145 169 L218 169 L218 35 Q218 -58 190 -132.5 Q162 -207 117 -261 L70 -222 Z " />
</g>
<g transform="translate(-8,949)" >
<path fill="black" d="M185 -7 Q158 -7 142 11.5 Q126 30 126 57 Q126 85 142 104 Q158 123 185 123 Q211 123 228 104 Q245 85 245 57 Q245 30 228 11.5 Q211 -7 185 -7 Z " />
</g>
</glyph>
<glyph glyph-name="less" unicode="&#x3c;" horiz-adv-x="753" d="M78 696 L635 1074 L635 993 L153 662 L635 333 L635 251 L78 630 L78 696 Z " />
<glyph glyph-name="equal" unicode="&#x3d;" horiz-adv-x="814" d="M124 430 L124 502 L685 502 L685 430 L124 430 Z M124 838 L124 910 L685 910 L685 838 L124 838 Z " />
<glyph glyph-name="greater" unicode="&#x3e;" horiz-adv-x="757" d="M105 335 L589 666 L105 996 L105 1077 L667 699 L667 633 L105 254 L105 335 Z " />
<glyph glyph-name="question" unicode="&#x3f;" horiz-adv-x="666" d="M282 402 Q282 460 288 506 Q294 552 306.5 592 Q319 632 339 670 Q359 708 388 750 Q417 792 439.5 829 Q462 866 478.5 906 Q495 946 503.5 994 Q512 1042 512 1108 Q512 1173 501.5 1227 Q491 1281 469 1321 Q447 1361 415 1383 Q383 1405 339 1405 Q297 1405 262.5 1384 Q228 1363 203.5 1325 Q179 1287 165.5 1234 Q152 1181 151 1116 L83 1116 Q84 1202 104.5 1269 Q125 1336 159.5 1382 Q194 1428 240.5 1452 Q287 1476 339 1476 Q398 1476 443 1448.5 Q488 1421 519 1371.5 Q550 1322 565.5 1255 Q581 1188 581 1108 Q581 1042 571 987 Q561 932 541.5 883 Q522 834 493.5 788 Q465 742 427 694 Q382 636 365 561.5 Q348 487 348 402 L282 402 Z M319 -7 Q296 -7 282 11.5 Q268 30 268 57 Q268 83 282 102 Q296 121 319 121 Q342 121 356.5 102 Q371 83 371 57 Q371 30 356.5 11.5 Q342 -7 319 -7 Z " />
<glyph glyph-name="at" unicode="&#x40;" horiz-adv-x="1308" d="M869 -364 Q848 -385 818.5 -402 Q789 -419 756.5 -430 Q724 -441 691 -447 Q658 -453 628 -453 Q501 -453 401.5 -388.5 Q302 -324 235 -203 Q168 -82 135 90.5 Q102 263 108 478 Q114 691 157.5 863.5 Q201 1036 276.5 1158.5 Q352 1281 456.5 1347.5 Q561 1414 688 1414 Q823 1414 922 1351.5 Q1021 1289 1084.5 1172.5 Q1148 1056 1176.5 891 Q1205 726 1199 520 Q1197 424 1181.5 328 Q1166 232 1135 154.5 Q1104 77 1056.5 28.5 Q1009 -20 943 -20 Q877 -20 836 34.5 Q795 89 784 186 Q710 -20 576 -20 Q530 -20 495 12.5 Q460 45 438 104.5 Q416 164 407.5 247.5 Q399 331 405 433 Q413 560 438.5 662.5 Q464 765 503 837.5 Q542 910 592 949 Q642 988 698 988 Q731 988 756 979 Q781 970 801 955 Q821 940 838 920 Q855 900 872 879 L840 299 Q835 214 845.5 164 Q856 114 874 88 Q892 62 913 54 Q934 46 950 46 Q995 46 1029.5 82 Q1064 118 1088.5 181.5 Q1113 245 1127 331.5 Q1141 418 1144 520 Q1150 711 1127 863.5 Q1104 1016 1048 1123 Q992 1230 902 1287.5 Q812 1345 684 1345 Q576 1345 484 1284 Q392 1223 323 1110.5 Q254 998 212.5 837.5 Q171 677 165 478 Q159 292 187 133.5 Q215 -25 274.5 -140.5 Q334 -256 423.5 -321 Q513 -386 630 -386 Q689 -386 749.5 -364.5 Q810 -343 852 -307 L869 -364 Z M813 862 Q792 889 763.5 905 Q735 921 699 921 Q657 921 618.5 892 Q580 863 548.5 803 Q517 743 495.5 651 Q474 559 465 433 Q459 352 464 281.5 Q469 211 484 159.5 Q499 108 524.5 78.5 Q550 49 586 49 Q612 49 639 60.5 Q666 72 692 103.5 Q718 135 741 189.5 Q764 244 783 329 L813 862 Z " />
<glyph glyph-name="A" unicode="A" horiz-adv-x="893" d="M412 1456 L481 1456 L847 0 L773 0 L670 426 L223 426 L120 0 L46 0 L412 1456 Z M653 497 L446 1353 L240 497 L653 497 Z " />
<glyph glyph-name="B" unicode="B" horiz-adv-x="886" d="M151 1456 L428 1456 Q503 1456 562.5 1434 Q622 1412 663.5 1366 Q705 1320 727 1249 Q749 1178 749 1081 Q749 1021 738 968 Q727 915 705 872.5 Q683 830 652 800 Q621 770 580 755 Q627 745 665 713 Q703 681 730 634 Q757 587 772 528 Q787 469 787 404 Q787 306 764.5 230.5 Q742 155 701.5 104 Q661 53 603.5 26.5 Q546 0 477 0 L151 0 L151 1456 Z M477 72 Q534 72 578.5 94.5 Q623 117 654 159.5 Q685 202 701.5 263 Q718 324 718 402 Q718 464 703.5 520.5 Q689 577 660 620 Q631 663 587.5 688 Q544 713 485 713 L221 713 L221 72 L477 72 Z M437 784 Q555 784 616 858 Q677 932 677 1084 Q677 1385 428 1385 L221 1385 L221 784 L437 784 Z " />
<glyph glyph-name="C" unicode="C" horiz-adv-x="940" d="M123 915 Q123 1049 147.5 1153.5 Q172 1258 218 1329.5 Q264 1401 330.5 1438.5 Q397 1476 480 1476 Q557 1476 619 1452 Q681 1428 726 1372.5 Q771 1317 798.5 1228 Q826 1139 833 1008 L762 1008 Q755 1119 734.5 1195 Q714 1271 679 1317.5 Q644 1364 594.5 1384.5 Q545 1405 480 1405 Q343 1405 268.5 1280 Q194 1155 194 917 L194 560 Q194 438 213 343 Q232 248 268 183 Q304 118 357 84.5 Q410 51 478 51 Q542 51 592 69 Q642 87 677.5 132 Q713 177 734 254 Q755 331 762 449 L833 449 Q826 318 798.5 228.5 Q771 139 725.5 83.5 Q680 28 617.5 3.5 Q555 -21 478 -21 Q395 -21 329 18 Q263 57 217.5 131 Q172 205 147.5 313.5 Q123 422 123 560 L123 915 Z " />
<glyph glyph-name="D" unicode="D" horiz-adv-x="947" d="M151 1456 L424 1456 Q513 1456 587 1419 Q661 1382 714.5 1311 Q768 1240 797.5 1135 Q827 1030 827 895 L827 561 Q827 426 797.5 321 Q768 216 714.5 145 Q661 74 586.5 37 Q512 0 422 0 L151 0 L151 1456 Z M422 72 Q499 72 561 104.5 Q623 137 667 199 Q711 261 734.5 352.5 Q758 444 758 561 L758 898 Q758 1015 734 1105.5 Q710 1196 666.5 1258.5 Q623 1321 561.5 1353 Q500 1385 424 1385 L221 1385 L221 72 L422 72 Z " />
<glyph glyph-name="E" unicode="E" horiz-adv-x="829" d="M151 1456 L752 1456 L752 1385 L221 1385 L221 785 L686 785 L686 714 L221 714 L221 72 L753 72 L753 0 L151 0 L151 1456 Z " />
<glyph glyph-name="F" unicode="F" horiz-adv-x="825" d="M151 1456 L756 1456 L756 1385 L221 1385 L221 777 L690 777 L690 704 L221 704 L221 0 L151 0 L151 1456 Z " />
<glyph glyph-name="G" unicode="G" horiz-adv-x="987" d="M135 932 Q135 1064 160.5 1165.5 Q186 1267 233 1336 Q280 1405 348 1440.5 Q416 1476 500 1476 Q663 1476 749.5 1368 Q836 1260 849 1057 L780 1057 Q773 1139 754.5 1203.5 Q736 1268 702.5 1313 Q669 1358 619.5 1381.5 Q570 1405 501 1405 Q359 1405 282.5 1283 Q206 1161 206 934 L206 543 Q206 425 227 333 Q248 241 288 178.5 Q328 116 385 83.5 Q442 51 514 51 Q570 51 614.5 67 Q659 83 692 105.5 Q725 128 747.5 151.5 Q770 175 780 190 L780 599 L509 599 L509 671 L850 671 L850 161 Q837 142 810.5 111 Q784 80 742.5 50.5 Q701 21 644 0 Q587 -21 513 -21 Q428 -21 358 16 Q288 53 238.5 124.5 Q189 196 162 301.5 Q135 407 135 543 L135 932 Z " />
<glyph glyph-name="H" unicode="H" horiz-adv-x="1015" d="M151 1456 L221 1456 L221 785 L794 785 L794 1456 L864 1456 L864 0 L794 0 L794 714 L221 714 L221 0 L151 0 L151 1456 Z " />
<glyph glyph-name="I" unicode="I" horiz-adv-x="417" d="M174 0 L174 1456 L243 1456 L243 0 L174 0 Z " />
<glyph glyph-name="J" unicode="J" horiz-adv-x="804" d="M148 401 Q148 230 204 141 Q260 52 367 52 Q413 52 453 76.5 Q493 101 523 150 Q553 199 570.5 271 Q588 343 588 439 L588 1456 L657 1456 L657 439 Q657 328 635 242 Q613 156 574 98 Q535 40 482 10 Q429 -20 367 -20 Q302 -20 248.5 5.5 Q195 31 157.5 83.5 Q120 136 99.5 215 Q79 294 79 401 L148 401 Z " />
<glyph glyph-name="K" unicode="K" horiz-adv-x="917" d="M151 1456 L221 1456 L221 644 L363 860 L736 1456 L828 1456 L411 807 L858 0 L772 0 L366 744 L221 542 L221 0 L151 0 L151 1456 Z " />
<glyph glyph-name="L" unicode="L" horiz-adv-x="767" d="M151 1456 L221 1456 L221 72 L706 72 L706 0 L151 0 L151 1456 Z " />
<glyph glyph-name="M" unicode="M" horiz-adv-x="1231" d="M151 1456 L249 1456 L615 126 L982 1456 L1080 1456 L1080 0 L1010 0 L1010 680 L1016 1325 L640 0 L588 0 L216 1318 L221 680 L221 0 L151 0 L151 1456 Z " />
<glyph glyph-name="N" unicode="N" horiz-adv-x="1021" d="M151 1456 L225 1456 L800 140 L800 1456 L869 1456 L869 0 L795 0 L221 1318 L221 0 L151 0 L151 1456 Z " />
<glyph glyph-name="O" unicode="O" horiz-adv-x="972" d="M117 912 Q117 1049 142.5 1154 Q168 1259 216 1330.5 Q264 1402 332 1439 Q400 1476 485 1476 Q571 1476 639 1439 Q707 1402 755 1330.5 Q803 1259 828.5 1154 Q854 1049 854 912 L854 544 Q854 408 828.5 302.5 Q803 197 755.5 125 Q708 53 640 16 Q572 -21 486 -21 Q401 -21 333 16 Q265 53 217 125 Q169 197 143 302.5 Q117 408 117 544 L117 912 Z M784 914 Q784 1152 707.5 1277.5 Q631 1403 485 1403 Q340 1403 263.5 1277.5 Q187 1152 187 914 L187 544 Q187 304 264.5 178 Q342 52 486 52 Q632 52 708 178 Q784 304 784 544 L784 914 Z " />
<glyph glyph-name="P" unicode="P" horiz-adv-x="887" d="M151 1456 L472 1456 Q552 1456 612.5 1425 Q673 1394 714 1338 Q755 1282 776 1203 Q797 1124 797 1028 Q797 930 776 852 Q755 774 714 720 Q673 666 612.5 637 Q552 608 472 608 L221 608 L221 0 L151 0 L151 1456 Z M472 679 Q540 679 588.5 706 Q637 733 667.5 780 Q698 827 712.5 890.5 Q727 954 727 1026 Q727 1100 712.5 1165 Q698 1230 667.5 1279 Q637 1328 588.5 1356.5 Q540 1385 472 1385 L221 1385 L221 679 L472 679 Z " />
<glyph glyph-name="Q" unicode="Q" horiz-adv-x="972" d="M841 -211 L795 -260 L600 -2 Q574 -11 545 -16 Q516 -21 485 -21 Q400 -21 332 16 Q264 53 216 125 Q168 197 142 302.5 Q116 408 116 544 L116 912 Q116 1049 141.5 1154 Q167 1259 215 1330.5 Q263 1402 331 1439 Q399 1476 484 1476 Q570 1476 638.5 1439 Q707 1402 755 1330.5 Q803 1259 828.5 1154 Q854 1049 854 912 L854 544 Q854 350 804 220.5 Q754 91 663 30 L841 -211 Z M783 914 Q783 1152 706.5 1277.5 Q630 1403 484 1403 Q340 1403 263 1277.5 Q186 1152 186 914 L186 544 Q186 304 263.5 178 Q341 52 485 52 Q631 52 707 178 Q783 304 783 544 L783 914 Z " />
<glyph glyph-name="R" unicode="R" horiz-adv-x="949" d="M150 1455 L475 1455 Q630 1455 713.5 1356 Q797 1257 797 1061 Q797 1004 785 949 Q773 894 749 847 Q725 800 690 764.5 Q655 729 610 711 Q662 696 697 664.5 Q732 633 753 589 Q774 545 783 489.5 Q792 434 792 371 L792 234 Q792 172 802 116.5 Q812 61 840 24 L840 -1 L768 -1 Q742 41 732.5 104 Q723 167 723 236 L723 369 Q723 511 664 592.5 Q605 674 492 674 L220 674 L220 -1 L150 -1 L150 1455 Z M466 745 Q538 745 587.5 771 Q637 797 668.5 840.5 Q700 884 714 941.5 Q728 999 728 1061 Q728 1216 666 1300 Q604 1384 474 1384 L220 1384 L220 745 L466 745 Z " />
<glyph glyph-name="S" unicode="S" horiz-adv-x="863" d="M156 413 Q156 310 183 240.5 Q210 171 252 129 Q294 87 346 69.5 Q398 52 449 52 Q508 52 556.5 73.5 Q605 95 639.5 134.5 Q674 174 693 229.5 Q712 285 712 352 Q712 418 698 469.5 Q684 521 652 562.5 Q620 604 567 639 Q514 674 436 707 Q363 737 304 772 Q245 807 203.5 853.5 Q162 900 139.5 963 Q117 1026 117 1113 Q117 1197 141.5 1264 Q166 1331 209.5 1378 Q253 1425 313.5 1450.5 Q374 1476 445 1476 Q519 1476 580 1444 Q641 1412 684 1354.5 Q727 1297 750.5 1218 Q774 1139 774 1044 L705 1044 Q705 1121 687 1187 Q669 1253 635.5 1301.5 Q602 1350 553.5 1377.5 Q505 1405 444 1405 Q382 1405 334 1381.5 Q286 1358 253.5 1318 Q221 1278 204 1225.5 Q187 1173 187 1115 Q187 1059 200 1011.5 Q213 964 244.5 923 Q276 882 328 846 Q380 810 458 778 Q533 749 593 713 Q653 677 695 627.5 Q737 578 760 511.5 Q783 445 783 354 Q783 265 757.5 195.5 Q732 126 687 78 Q642 30 581 5 Q520 -20 449 -20 Q385 -20 320.5 2.5 Q256 25 204 76.5 Q152 128 119.5 210.5 Q87 293 87 413 L156 413 Z " />
<glyph glyph-name="T" unicode="T" horiz-adv-x="871" d="M401 1385 L61 1385 L61 1456 L810 1456 L810 1385 L471 1385 L471 0 L401 0 L401 1385 Z " />
<glyph glyph-name="U" unicode="U" horiz-adv-x="958" d="M139 1456 L209 1456 L209 426 Q209 324 229.5 252.5 Q250 181 286 136.5 Q322 92 371.5 71.5 Q421 51 479 51 Q538 51 587.5 71.5 Q637 92 673 136.5 Q709 181 729 252.5 Q749 324 749 426 L749 1456 L819 1456 L819 426 Q819 303 793 218 Q767 133 721 80 Q675 27 613 3 Q551 -21 479 -21 Q407 -21 344.5 3 Q282 27 236.5 80 Q191 133 165 218 Q139 303 139 426 L139 1456 Z " />
<glyph glyph-name="V" unicode="V" horiz-adv-x="887" d="M47 1456 L124 1456 L432 155 L443 102 L454 155 L764 1456 L841 1456 L480 0 L407 0 L47 1456 Z " />
<glyph glyph-name="W" unicode="W" horiz-adv-x="1281" d="M66 1456 L139 1456 L324 329 L356 124 L391 325 L608 1456 L679 1456 L894 325 L928 125 L962 329 L1147 1456 L1218 1456 L968 0 L894 0 L668 1197 L644 1329 L619 1197 L391 0 L317 0 L66 1456 Z " />
<glyph glyph-name="X" unicode="X" horiz-adv-x="882" d="M398 742 L72 1456 L155 1456 L441 803 L726 1456 L809 1456 L484 742 L822 0 L738 0 L441 680 L144 0 L61 0 L398 742 Z " />
<glyph glyph-name="Y" unicode="Y" horiz-adv-x="872" d="M400 551 L45 1456 L129 1456 L435 623 L745 1456 L825 1456 L470 551 L470 0 L400 0 L400 551 Z " />
<glyph glyph-name="Z" unicode="Z" horiz-adv-x="871" d="M86 61 L687 1385 L108 1385 L108 1456 L765 1456 L765 1401 L165 72 L785 72 L785 0 L86 0 L86 61 Z " />
<glyph glyph-name="bracketleft" unicode="&#x5b;" horiz-adv-x="368" d="M139 1664 L350 1664 L350 1593 L206 1593 L206 -241 L350 -241 L350 -312 L139 -312 L139 1664 Z " />
<glyph glyph-name="backslash" unicode="&#x5c;" horiz-adv-x="582" d="M59 1456 L128 1456 L532 -125 L465 -125 L59 1456 Z " />
<glyph glyph-name="bracketright" unicode="&#x5d;" horiz-adv-x="368" d="M24 -241 L167 -241 L167 1593 L24 1593 L24 1664 L236 1664 L236 -312 L24 -312 L24 -241 Z " />
<glyph glyph-name="asciicircum" unicode="&#x5e;" horiz-adv-x="621" d="M280 1456 L333 1456 L533 729 L467 729 L306 1354 L144 729 L80 729 L280 1456 Z " />
<glyph glyph-name="underscore" unicode="&#x5f;" horiz-adv-x="632" d="M26 -71 L26 0 L605 0 L605 -71 L26 -71 Z " />
<glyph glyph-name="grave" unicode="&#x60;" horiz-adv-x="472" d="M277 1265 L106 1536 L195 1536 L348 1265 L277 1265 Z " />
<glyph glyph-name="a" unicode="a" horiz-adv-x="779" d="M591 0 Q585 31 581 74 Q577 117 576 162 Q558 125 533.5 92 Q509 59 476.5 34 Q444 9 404.5 -6 Q365 -21 318 -21 Q266 -21 224 -3 Q182 15 152 52 Q122 89 105.5 145.5 Q89 202 89 278 Q89 352 109 413.5 Q129 475 168.5 519 Q208 563 267.5 588 Q327 613 406 613 L575 613 L575 791 Q575 920 524.5 976 Q474 1032 380 1032 Q336 1032 298.5 1014.5 Q261 997 234 964.5 Q207 932 191.5 886.5 Q176 841 176 784 L107 785 Q107 852 127 910 Q147 968 183.5 1010.5 Q220 1053 270.5 1077.5 Q321 1102 382 1102 Q439 1102 487 1085.5 Q535 1069 569.5 1032 Q604 995 623.5 935 Q643 875 643 789 L643 221 Q643 192 644.5 162 Q646 132 648.5 104 Q651 76 655 52 Q659 28 664 10 L664 0 L591 0 Z M575 545 L411 545 Q344 545 296 525.5 Q248 506 217 471 Q186 436 171.5 387 Q157 338 157 278 Q157 162 203 106.5 Q249 51 325 51 Q372 51 411 67 Q450 83 481.5 112 Q513 141 536.5 181 Q560 221 575 270 L575 545 Z " />
<glyph glyph-name="b" unicode="b" horiz-adv-x="807" d="M133 1536 L200 1536 L200 934 Q235 1012 292.5 1057 Q350 1102 431 1102 Q497 1102 548 1074.5 Q599 1047 634 986.5 Q669 926 687.5 829.5 Q706 733 706 595 L706 488 Q706 355 687.5 258.5 Q669 162 634 100 Q599 38 548.5 8.5 Q498 -21 433 -21 Q349 -21 291.5 22.5 Q234 66 199 136 L197 0 L133 0 L133 1536 Z M200 241 Q212 201 231.5 166 Q251 131 278.5 105.5 Q306 80 341.5 65.5 Q377 51 422 51 Q532 51 584.5 155.5 Q637 260 637 488 L637 595 Q637 822 586 926.5 Q535 1031 422 1031 Q372 1031 335 1011.5 Q298 992 271.5 961 Q245 930 228 891 Q211 852 200 812 L200 241 Z " />
<glyph glyph-name="c" unicode="c" horiz-adv-x="753" d="M88 605 Q88 861 166.5 981.5 Q245 1102 391 1102 Q447 1102 496.5 1081.5 Q546 1061 583 1015.5 Q620 970 642.5 898 Q665 826 667 723 L601 723 Q599 810 581.5 869 Q564 928 535.5 964 Q507 1000 470 1015.5 Q433 1031 391 1031 Q266 1031 211.5 924 Q157 817 157 605 L157 477 Q157 264 211.5 157 Q266 50 392 50 Q431 50 467.5 62 Q504 74 532.5 105.5 Q561 137 579.5 191 Q598 245 601 330 L667 330 Q664 238 641.5 171.5 Q619 105 581.5 62.5 Q544 20 495.5 -0.5 Q447 -21 392 -21 Q245 -21 166.5 100.5 Q88 222 88 477 L88 605 Z " />
<glyph glyph-name="d" unicode="d" horiz-adv-x="807" d="M100 595 Q100 733 119 829.5 Q138 926 173.5 986.5 Q209 1047 260 1074.5 Q311 1102 376 1102 Q457 1102 513.5 1057.5 Q570 1013 605 936 L605 1536 L674 1536 L674 0 L609 0 L606 132 Q572 63 514.5 21 Q457 -21 376 -21 Q311 -21 259.5 8.5 Q208 38 172.5 100 Q137 162 118.5 258.5 Q100 355 100 488 L100 595 Z M605 825 Q594 863 576 900 Q558 937 532 966 Q506 995 470 1013 Q434 1031 386 1031 Q275 1031 222.5 926.5 Q170 822 170 595 L170 488 Q170 260 222.5 155.5 Q275 51 385 51 Q428 51 463 64.5 Q498 78 525 102 Q552 126 572 158.5 Q592 191 605 229 L605 825 Z " />
<glyph glyph-name="e" unicode="e" horiz-adv-x="759" d="M84 602 Q84 734 108.5 828.5 Q133 923 175 983.5 Q217 1044 273 1073 Q329 1102 392 1102 Q458 1102 510.5 1077 Q563 1052 599.5 997.5 Q636 943 656 857 Q676 771 676 650 L676 562 L152 562 L152 473 Q152 365 171 285.5 Q190 206 224.5 153.5 Q259 101 306 75 Q353 49 409 49 Q473 49 524 73 Q575 97 618 157 L651 109 Q617 54 558 16.5 Q499 -21 407 -21 Q338 -21 278.5 8 Q219 37 176 98 Q133 159 108.5 252 Q84 345 84 473 L84 602 Z M607 633 L607 666 Q606 851 550.5 941 Q495 1031 392 1031 Q340 1031 297 1007.5 Q254 984 222.5 935 Q191 886 173 811 Q155 736 152 633 L607 633 Z " />
<glyph glyph-name="f" unicode="f" horiz-adv-x="497" d="M188 1012 L67 1012 L67 1082 L188 1082 L188 1229 Q188 1389 243 1473 Q298 1557 394 1557 Q416 1557 437.5 1553.5 Q459 1550 481 1540 L475 1471 Q458 1479 441.5 1482.5 Q425 1486 400 1486 Q334 1486 295.5 1419 Q257 1352 257 1229 L257 1082 L436 1082 L436 1012 L257 1012 L257 0 L188 0 L188 1012 Z " />
<glyph glyph-name="g" unicode="g" horiz-adv-x="771" d="M442 181 Q498 181 544.5 163.5 Q591 146 624.5 110 Q658 74 676.5 20.5 Q695 -33 695 -105 Q695 -162 672.5 -221.5 Q650 -281 607 -329 Q564 -377 500.5 -407.5 Q437 -438 356 -438 Q286 -438 233 -415.5 Q180 -393 144.5 -354.5 Q109 -316 91 -264.5 Q73 -213 73 -154 Q73 -100 85.5 -54.5 Q98 -9 118.5 28 Q139 65 166 93 Q193 121 222 140 Q199 160 185 193 Q171 226 171 277 Q171 341 192 384.5 Q213 428 238 457 Q178 500 144 574 Q110 648 110 737 L110 759 Q110 834 130 896.5 Q150 959 185.5 1005 Q221 1051 270.5 1076.5 Q320 1102 378 1102 Q429 1102 474 1082 L692 1082 L693 1012 L565 1012 Q603 966 624 901.5 Q645 837 645 759 L645 737 Q645 670 625.5 610.5 Q606 551 570.5 506.5 Q535 462 486.5 436 Q438 410 380 410 Q330 410 288 428 Q270 408 252 373 Q234 338 234 286 Q234 254 241 233.5 Q248 213 259.5 201.5 Q271 190 286 185.5 Q301 181 317 181 L442 181 Z M309 111 Q304 111 300 111 Q296 111 291 112 Q260 103 232.5 78 Q205 53 184 18.5 Q163 -16 151 -59 Q139 -102 139 -147 Q139 -193 152 -233 Q165 -273 191.5 -303 Q218 -333 259 -350.5 Q300 -368 356 -368 Q422 -368 472.5 -343.5 Q523 -319 557.5 -281 Q592 -243 609.5 -196.5 Q627 -150 627 -105 Q627 -59 616.5 -19.5 Q606 20 583.5 49 Q561 78 525.5 94.5 Q490 111 439 111 L309 111 Z M180 737 Q180 690 194 644 Q208 598 234 561.5 Q260 525 297 502.5 Q334 480 380 480 Q425 480 461.5 502.5 Q498 525 523.5 561.5 Q549 598 563 644 Q577 690 577 737 L577 759 Q577 813 563 862 Q549 911 523 948.5 Q497 986 460 1008.5 Q423 1031 378 1031 Q333 1031 296.5 1008.5 Q260 986 234 948.5 Q208 911 194 862 Q180 813 180 759 L180 737 Z " />
<glyph glyph-name="h" unicode="h" horiz-adv-x="803" d="M132 1536 L200 1536 L200 880 Q218 929 242.5 969.5 Q267 1010 298 1039.5 Q329 1069 365 1085.5 Q401 1102 442 1102 Q496 1102 538.5 1079.5 Q581 1057 611 1009 Q641 961 656.5 885 Q672 809 672 702 L672 0 L605 0 L605 702 Q605 798 592 862 Q579 926 555.5 963.5 Q532 1001 499.5 1016.5 Q467 1032 427 1032 Q379 1032 341 1004 Q303 976 275 932 Q247 888 228.5 834 Q210 780 200 728 L200 0 L132 0 L132 1536 Z " />
<glyph glyph-name="i" unicode="i" horiz-adv-x="351" >
<g transform="translate(1,0)" >
<path fill="black" d="M140 0 L140 1082 L210 1082 L210 0 L140 0 Z " />
</g>
<g transform="translate(-13,702)" >
<path fill="black" d="M190 646 Q167 646 153 664.5 Q139 683 139 710 Q139 736 153 755 Q167 774 190 774 Q213 774 227.5 755 Q242 736 242 710 Q242 683 227.5 664.5 Q213 646 190 646 Z " />
</g>
</glyph>
<glyph glyph-name="j" unicode="j" horiz-adv-x="361" >
<g transform="translate(7,0)" >
<path fill="black" d="M-61 -349 Q-50 -355 -33.5 -360.5 Q-17 -366 0 -366 Q66 -366 100 -305 Q134 -244 134 -129 L134 1082 L203 1082 L203 -129 Q203 -279 152.5 -358 Q102 -437 7 -437 Q-28 -437 -63 -417 L-61 -349 Z " />
</g>
<g transform="translate(-12,702)" >
<path fill="black" d="M190 646 Q167 646 153 664.5 Q139 683 139 710 Q139 736 153 755 Q167 774 190 774 Q213 774 227.5 755 Q242 736 242 710 Q242 683 227.5 664.5 Q213 646 190 646 Z " />
</g>
</glyph>
<glyph glyph-name="k" unicode="k" horiz-adv-x="715" d="M132 1536 L200 1536 L200 530 L279 642 L571 1082 L659 1082 L343 625 L683 0 L600 0 L299 563 L200 438 L200 0 L132 0 L132 1536 Z " />
<glyph glyph-name="l" unicode="l" horiz-adv-x="454" d="M380 -7 Q366 -14 342 -17 Q318 -20 298 -20 Q262 -20 233 -6.5 Q204 7 183.5 39 Q163 71 152 125.5 Q141 180 141 261 L141 1536 L209 1536 L209 261 Q209 195 217 154 Q225 113 238.5 90.5 Q252 68 270.5 60 Q289 52 309 52 Q328 52 344 54.5 Q360 57 376 61 L380 -7 Z " />
<glyph glyph-name="m" unicode="m" horiz-adv-x="1267" d="M128 1082 L194 1082 L196 880 Q213 929 237 969.5 Q261 1010 291.5 1039.5 Q322 1069 359 1085.5 Q396 1102 438 1102 Q521 1102 577.5 1050 Q634 998 656 882 Q673 929 697.5 969.5 Q722 1010 754 1039.5 Q786 1069 825 1085.5 Q864 1102 910 1102 Q965 1102 1008 1079.5 Q1051 1057 1081 1009 Q1111 961 1126.5 885 Q1142 809 1142 702 L1142 0 L1075 0 L1075 702 Q1075 799 1062 863 Q1049 927 1025 964.5 Q1001 1002 967.5 1017 Q934 1032 893 1031 Q841 1030 801 1001.5 Q761 973 733 930 Q705 887 689.5 836 Q674 785 669 740 L669 720 L669 0 L601 0 L601 719 Q601 810 587.5 870.5 Q574 931 550 967 Q526 1003 493 1017.5 Q460 1032 420 1032 Q370 1032 332 1003.5 Q294 975 267 930 Q240 885 222.5 830 Q205 775 196 723 L196 0 L128 0 L128 1082 Z " />
<glyph glyph-name="n" unicode="n" horiz-adv-x="803" d="M132 1082 L198 1082 L200 878 Q218 927 242.5 968 Q267 1009 298 1039 Q329 1069 365.5 1085.5 Q402 1102 444 1102 Q498 1102 540.5 1079.5 Q583 1057 612.5 1009 Q642 961 657.5 885 Q673 809 673 702 L673 0 L605 0 L605 702 Q605 798 592 862 Q579 926 555.5 963.5 Q532 1001 499.5 1016.5 Q467 1032 427 1032 Q379 1032 341.5 1003.5 Q304 975 276 930.5 Q248 886 229 831.5 Q210 777 200 725 L200 0 L132 0 L132 1082 Z " />
<glyph glyph-name="o" unicode="o" horiz-adv-x="808" d="M101 603 Q101 723 121.5 815.5 Q142 908 181 972 Q220 1036 276 1069 Q332 1102 403 1102 Q475 1102 531.5 1069 Q588 1036 627 972 Q666 908 686.5 815.5 Q707 723 707 603 L707 479 Q707 359 686.5 266 Q666 173 627 109.5 Q588 46 532 12.5 Q476 -21 405 -21 Q333 -21 276.5 12.5 Q220 46 181 109.5 Q142 173 121.5 266 Q101 359 101 479 L101 603 Z M169 479 Q169 385 183.5 306 Q198 227 227.5 170 Q257 113 301 81.5 Q345 50 405 50 Q465 50 509 81.5 Q553 113 582 170 Q611 227 625 306 Q639 385 639 479 L639 603 Q639 695 624.5 773.5 Q610 852 580.5 909 Q551 966 507 998.5 Q463 1031 403 1031 Q344 1031 300 998.5 Q256 966 227 909 Q198 852 183.5 773.5 Q169 695 169 603 L169 479 Z " />
<glyph glyph-name="p" unicode="p" horiz-adv-x="807" d="M132 1082 L197 1082 L199 935 Q234 1013 291.5 1057.5 Q349 1102 431 1102 Q496 1102 547.5 1074.5 Q599 1047 634 986.5 Q669 926 687.5 829.5 Q706 733 706 595 L706 488 Q706 355 687.5 258.5 Q669 162 634 100 Q599 38 548.5 8.5 Q498 -21 433 -21 Q351 -21 293 20 Q235 61 200 128 L200 -416 L132 -416 L132 1082 Z M200 231 Q213 192 232.5 159 Q252 126 279.5 101.5 Q307 77 342 63.5 Q377 50 420 50 Q531 50 584 155 Q637 260 637 488 L637 595 Q637 822 584 926.5 Q531 1031 419 1031 Q371 1031 335 1013 Q299 995 272.5 965.5 Q246 936 228.5 899 Q211 862 200 823 L200 231 Z " />
<glyph glyph-name="q" unicode="q" horiz-adv-x="808" d="M605 126 Q570 60 513 19.5 Q456 -21 376 -21 Q310 -21 259 8.5 Q208 38 172.5 100 Q137 162 118.5 258.5 Q100 355 100 488 L100 595 Q100 733 118.5 829.5 Q137 926 172.5 986.5 Q208 1047 259.5 1074.5 Q311 1102 377 1102 Q458 1102 515 1058 Q572 1014 607 939 L610 1082 L674 1082 L674 -416 L605 -416 L605 126 Z M605 828 Q594 866 576 902 Q558 938 531.5 967 Q505 996 469.5 1013.5 Q434 1031 387 1031 Q276 1031 223 926.5 Q170 822 170 595 L170 488 Q170 260 222.5 155 Q275 50 386 50 Q429 50 463.5 63.5 Q498 77 525 100.5 Q552 124 572 156.5 Q592 189 605 227 L605 828 Z " />
<glyph glyph-name="r" unicode="r" horiz-adv-x="514" d="M132 1082 L199 1082 L200 897 L200 889 Q230 988 283.5 1045 Q337 1102 415 1102 Q431 1102 445 1099 Q459 1096 468 1091 L465 1019 Q443 1025 413 1025 Q368 1025 332.5 1002.5 Q297 980 270.5 939.5 Q244 899 226.5 844 Q209 789 200 723 L200 0 L132 0 L132 1082 Z " />
<glyph glyph-name="s" unicode="s" horiz-adv-x="740" d="M158 275 Q161 207 181.5 163.5 Q202 120 232 95 Q262 70 299 60.5 Q336 51 372 51 Q419 51 455.5 68 Q492 85 517 113.5 Q542 142 554.5 179.5 Q567 217 567 258 Q567 294 556.5 325 Q546 356 521.5 386.5 Q497 417 457 449 Q417 481 358 518 Q301 554 256 585.5 Q211 617 180 652 Q149 687 132.5 729 Q116 771 116 827 Q116 885 133 935.5 Q150 986 182.5 1023 Q215 1060 261.5 1081 Q308 1102 366 1102 Q428 1102 477 1080 Q526 1058 560.5 1017.5 Q595 977 613.5 920 Q632 863 632 794 L563 794 Q563 841 550 884 Q537 927 512.5 959.5 Q488 992 451 1011.5 Q414 1031 366 1031 Q317 1031 282.5 1013 Q248 995 225.5 966.5 Q203 938 192.5 902 Q182 866 182 830 Q182 796 191 768.5 Q200 741 223.5 714 Q247 687 286.5 656 Q326 625 387 584 Q442 549 487.5 518 Q533 487 565.5 451 Q598 415 616 369.5 Q634 324 634 260 Q634 196 615.5 144 Q597 92 562.5 55.5 Q528 19 479.5 -0.5 Q431 -20 371 -20 Q303 -20 250.5 3 Q198 26 162.5 66 Q127 106 109 160 Q91 214 91 275 L158 275 Z " />
<glyph glyph-name="t" unicode="t" horiz-adv-x="490" d="M177 1012 L47 1012 L47 1082 L177 1082 L177 1369 L245 1369 L245 1082 L399 1082 L399 1012 L245 1012 L245 261 Q245 195 253 154 Q261 113 274.5 90.5 Q288 68 306.5 60 Q325 52 345 52 Q364 52 380 54.5 Q396 57 412 61 L416 -7 Q402 -14 378 -17 Q354 -20 334 -20 Q298 -20 269 -6.5 Q240 7 219.5 39 Q199 71 188 125.5 Q177 180 177 261 L177 1012 Z " />
<glyph glyph-name="u" unicode="u" horiz-adv-x="803" d="M130 1082 L198 1082 L198 391 Q198 296 211.5 231 Q225 166 249 126.5 Q273 87 305.5 69.5 Q338 52 375 52 Q426 52 464.5 70 Q503 88 530.5 120 Q558 152 575.5 195.5 Q593 239 602 289 L602 1082 L672 1082 L672 0 L605 0 L603 147 Q570 69 512 24.5 Q454 -20 368 -20 Q315 -20 271 2.5 Q227 25 195.5 74 Q164 123 147 202 Q130 281 130 393 L130 1082 Z " />
<glyph glyph-name="v" unicode="v" horiz-adv-x="711" d="M52 1082 L123 1082 L356 124 L587 1082 L659 1082 L386 0 L325 0 L52 1082 Z " />
<glyph glyph-name="w" unicode="w" horiz-adv-x="1082" d="M73 1082 L145 1082 L291 291 L314 129 L343 293 L509 1082 L568 1082 L733 295 L763 122 L789 292 L933 1082 L1003 1082 L796 0 L735 0 L557 829 L538 948 L517 829 L341 0 L280 0 L73 1082 Z " />
<glyph glyph-name="x" unicode="x" horiz-adv-x="714" d="M316 554 L72 1082 L151 1082 L358 616 L563 1082 L643 1082 L397 554 L654 0 L575 0 L357 492 L139 0 L59 0 L316 554 Z " />
<glyph glyph-name="y" unicode="y" horiz-adv-x="706" d="M90 -358 Q99 -361 113.5 -363.5 Q128 -366 135 -366 Q167 -366 191 -351 Q215 -336 233.5 -309 Q252 -282 265.5 -243.5 Q279 -205 291 -158 L329 1 L49 1082 L124 1082 L360 128 L587 1082 L661 1082 L349 -178 Q340 -213 327 -258 Q314 -303 291.5 -343 Q269 -383 235 -410 Q201 -437 151 -437 Q137 -437 118.5 -433.5 Q100 -430 91 -425 L90 -358 Z " />
<glyph glyph-name="z" unicode="z" horiz-adv-x="715" d="M84 60 L542 1010 L101 1010 L101 1082 L619 1082 L619 1020 L161 71 L652 71 L652 0 L84 0 L84 60 Z " />
<glyph glyph-name="braceleft" unicode="&#x7b;" horiz-adv-x="498" d="M450 -428 Q387 -399 345 -353 Q303 -307 277.5 -247.5 Q252 -188 241 -117 Q230 -46 230 33 L230 272 Q230 334 221 384 Q212 434 193 469.5 Q174 505 144 524 Q114 543 72 543 L72 622 Q114 622 144 641 Q174 660 193 695.5 Q212 731 221 781 Q230 831 230 892 L230 1132 Q230 1211 241 1282.5 Q252 1354 277.5 1414.5 Q303 1475 345 1521.5 Q387 1568 450 1597 L466 1540 Q420 1517 388 1477.5 Q356 1438 336 1385.5 Q316 1333 306.5 1268.5 Q297 1204 297 1132 L297 892 Q297 837 289 788 Q281 739 264 698.5 Q247 658 220.5 628 Q194 598 157 582 Q194 566 220.5 536.5 Q247 507 264 466.5 Q281 426 289 376.5 Q297 327 297 272 L297 33 Q297 -113 337.5 -218 Q378 -323 469 -371 L450 -428 Z " />
<glyph glyph-name="bar" unicode="&#x7c;" horiz-adv-x="364" d="M153 -270 L153 1456 L217 1456 L217 -270 L153 -270 Z " />
<glyph glyph-name="braceright" unicode="&#x7d;" horiz-adv-x="498" d="M31 -371 Q122 -323 162.5 -218 Q203 -113 203 33 L203 272 Q203 328 211 377.5 Q219 427 236.5 467.5 Q254 508 281 538 Q308 568 345 583 Q308 598 281 627.5 Q254 657 236.5 697.5 Q219 738 211 787.5 Q203 837 203 892 L203 1132 Q203 1204 193.5 1268.5 Q184 1333 163.5 1385.5 Q143 1438 111 1477.5 Q79 1517 33 1540 L49 1597 Q112 1568 154.5 1521.5 Q197 1475 222.5 1414.5 Q248 1354 258.5 1282.5 Q269 1211 269 1132 L269 892 Q269 831 278 781 Q287 731 306 695.5 Q325 660 355 641 Q385 622 426 622 L426 543 Q385 543 355 524 Q325 505 306 469.5 Q287 434 278 384 Q269 334 269 272 L269 33 Q269 -46 258.5 -117 Q248 -188 222.5 -247.5 Q197 -307 154.5 -353 Q112 -399 49 -428 L31 -371 Z " />
<glyph glyph-name="asciitilde" unicode="&#x7e;" horiz-adv-x="987" d="M126 458 Q126 524 138 582 Q150 640 174 684 Q198 728 234 753.5 Q270 779 317 779 Q376 779 420.5 739.5 Q465 700 514 630 Q561 564 594.5 536 Q628 508 668 508 Q699 508 723.5 525.5 Q748 543 765 575.5 Q782 608 791 654 Q800 700 800 757 L859 756 Q859 692 846.5 634 Q834 576 809.5 532 Q785 488 749.5 462 Q714 436 668 436 Q639 436 614 445.5 Q589 455 565.5 473.5 Q542 492 519 520 Q496 548 470 584 Q448 616 429 639 Q410 662 392.5 677 Q375 692 357 699 Q339 706 318 706 Q257 706 222.5 643 Q188 580 188 458 L126 458 Z " />
<glyph glyph-name="uni00A0" unicode="&#xa0;" horiz-adv-x="382" />
<glyph glyph-name="exclamdown" unicode="&#xa1;" horiz-adv-x="347" d="M144 694 L207 694 L211 -359 L139 -359 L144 694 Z M170 975 Q147 975 133 993.5 Q119 1012 119 1039 Q119 1066 133 1084.5 Q147 1103 170 1103 Q193 1103 207.5 1084.5 Q222 1066 222 1039 Q222 1012 207.5 993.5 Q193 975 170 975 Z " />
<glyph glyph-name="cent" unicode="&#xa2;" horiz-adv-x="964" d="M381 -19 Q254 -3 186 119 Q118 241 118 477 L118 605 Q118 843 186 963.5 Q254 1084 381 1100 L381 1318 L444 1318 L444 1101 Q496 1097 541.5 1074.5 Q587 1052 620.5 1006.5 Q654 961 674.5 891 Q695 821 697 723 L631 723 Q629 810 611.5 869 Q594 928 565.5 964 Q537 1000 500 1015.5 Q463 1031 421 1031 Q296 1031 241.5 924 Q187 817 187 605 L187 477 Q187 264 241.5 157 Q296 50 422 50 Q461 50 497.5 62 Q534 74 562.5 105.5 Q591 137 609.5 191 Q628 245 631 330 L697 330 Q694 243 673.5 178.5 Q653 114 619 71.5 Q585 29 540 6.5 Q495 -16 444 -20 L444 -245 L381 -245 L381 -19 Z " />
<glyph glyph-name="sterling" unicode="&#xa3;" horiz-adv-x="830" d="M93 72 L165 72 Q183 80 195 107.5 Q207 135 214.5 174 Q222 213 225 258.5 Q228 304 227 347 L222 660 L90 660 L90 731 L221 731 L216 1039 Q215 1143 233 1224 Q251 1305 285 1361 Q319 1417 367.5 1446.5 Q416 1476 474 1476 Q536 1476 584.5 1447.5 Q633 1419 666 1368 Q699 1317 716.5 1246 Q734 1175 734 1089 L664 1089 Q664 1173 648.5 1233 Q633 1293 607 1331 Q581 1369 545.5 1387 Q510 1405 471 1405 Q386 1405 334.5 1311.5 Q283 1218 283 1039 L289 731 L526 731 L526 660 L290 660 L296 347 Q301 160 250 72 L749 72 L750 0 L93 0 L93 72 Z " />
<glyph glyph-name="currency" unicode="&#xa4;" horiz-adv-x="1217" d="M97 29 L236 205 Q184 286 155 388.5 Q126 491 126 608 Q126 730 157.5 835.5 Q189 941 244 1023 L97 1209 L148 1264 L291 1083 Q354 1155 434.5 1194.5 Q515 1234 606 1234 Q697 1234 777.5 1194 Q858 1154 922 1082 L1067 1265 L1118 1209 L969 1020 Q1024 938 1055 833.5 Q1086 729 1086 608 Q1086 492 1057 390.5 Q1028 289 977 208 L1118 29 L1067 -27 L931 144 Q866 66 783 23 Q700 -20 606 -20 Q512 -20 429 23 Q346 66 282 143 L148 -26 L97 29 Z M606 53 Q690 53 765 96.5 Q840 140 896.5 215.5 Q953 291 985.5 392 Q1018 493 1018 608 Q1018 723 985.5 823.5 Q953 924 896.5 999 Q840 1074 765 1117.5 Q690 1161 606 1161 Q521 1161 446 1117.5 Q371 1074 315 999 Q259 924 226 823.5 Q193 723 193 608 Q193 493 226 392 Q259 291 315 215.5 Q371 140 446 96.5 Q521 53 606 53 Z " />
<glyph glyph-name="yen" unicode="&#xa5;" horiz-adv-x="754" d="M340 325 L94 325 L94 392 L340 392 L340 619 L94 619 L94 686 L322 686 L45 1456 L123 1456 L376 725 L376 723 L377 726 L630 1456 L707 1456 L430 686 L656 686 L656 619 L409 619 L409 392 L656 392 L656 325 L409 325 L409 0 L340 0 L340 325 Z " />
<glyph glyph-name="brokenbar" unicode="&#xa6;" horiz-adv-x="357" d="M142 -270 L142 489 L215 489 L215 -270 L142 -270 Z M142 698 L142 1457 L215 1457 L215 698 L142 698 Z " />
<glyph glyph-name="section" unicode="&#xa7;" horiz-adv-x="876" d="M166 -62 Q166 -166 190 -235.5 Q214 -305 252 -347 Q290 -389 337.5 -406.5 Q385 -424 431 -424 Q489 -424 533.5 -403.5 Q578 -383 608.5 -346 Q639 -309 655 -258.5 Q671 -208 671 -148 Q671 -93 660 -49.5 Q649 -6 621 30 Q593 66 545 97 Q497 128 423 159 Q350 186 291 218.5 Q232 251 190 296 Q148 341 125 403 Q102 465 102 551 Q102 655 148 725.5 Q194 796 275 823 Q205 871 167.5 941.5 Q130 1012 130 1126 Q130 1206 152 1270.5 Q174 1335 214.5 1380.5 Q255 1426 312.5 1451 Q370 1476 441 1476 Q514 1476 571.5 1448 Q629 1420 669.5 1365 Q710 1310 731.5 1229.5 Q753 1149 753 1045 L684 1045 Q684 1120 668.5 1185.5 Q653 1251 622 1300 Q591 1349 545.5 1377.5 Q500 1406 441 1406 Q378 1406 332.5 1384 Q287 1362 257.5 1324.5 Q228 1287 213.5 1236.5 Q199 1186 199 1129 Q199 1069 209.5 1024.5 Q220 980 248 944 Q276 908 325 877.5 Q374 847 451 816 Q526 786 585 754.5 Q644 723 684.5 679.5 Q725 636 746.5 576.5 Q768 517 768 431 Q768 329 719 259 Q670 189 584 163 Q622 139 650.5 110 Q679 81 699 44 Q719 7 729 -39.5 Q739 -86 739 -146 Q739 -229 717 -293.5 Q695 -358 654.5 -403 Q614 -448 557.5 -471.5 Q501 -495 431 -495 Q369 -495 309.5 -473 Q250 -451 203 -401 Q156 -351 127 -268.5 Q98 -186 98 -64 L166 -62 Z M448 230 Q465 223 481 216.5 Q497 210 512 202 Q557 207 592 226.5 Q627 246 651 276 Q675 306 687.5 345 Q700 384 700 428 Q700 487 687 533 Q674 579 641.5 616.5 Q609 654 555.5 686 Q502 718 421 750 Q398 759 377 768 Q356 777 336 787 Q293 781 262 760.5 Q231 740 210.5 709 Q190 678 180 638 Q170 598 170 553 Q170 490 182 444.5 Q194 399 225 363 Q256 327 310 295.5 Q364 264 448 230 Z " />
<glyph glyph-name="dieresis" unicode="&#xa8;" horiz-adv-x="745" d="M185 1349 Q159 1349 144 1367.5 Q129 1386 129 1412 Q129 1439 144 1458 Q159 1477 185 1477 Q211 1477 227.5 1458 Q244 1439 244 1412 Q244 1386 227.5 1367.5 Q211 1349 185 1349 Z M545 1349 Q519 1349 504 1367.5 Q489 1386 489 1412 Q489 1439 504 1458 Q519 1477 545 1477 Q571 1477 587.5 1458 Q604 1439 604 1412 Q604 1386 587.5 1367.5 Q571 1349 545 1349 Z " />
<glyph glyph-name="copyright" unicode="&#xa9;" horiz-adv-x="1351" d="M674 -21 Q556 -21 451.5 36.5 Q347 94 269 195 Q191 296 146 433 Q101 570 101 729 Q101 888 146 1024.5 Q191 1161 269 1261.5 Q347 1362 451.5 1419 Q556 1476 674 1476 Q793 1476 897.5 1419 Q1002 1362 1079.5 1261.5 Q1157 1161 1202 1024.5 Q1247 888 1247 729 Q1247 570 1202 433 Q1157 296 1079.5 195 Q1002 94 897.5 36.5 Q793 -21 674 -21 Z M674 45 Q780 45 873.5 98 Q967 151 1037 243.5 Q1107 336 1148 460.5 Q1189 585 1189 729 Q1189 873 1148 997 Q1107 1121 1037 1213 Q967 1305 873.5 1357.5 Q780 1410 674 1410 Q568 1410 474 1357.5 Q380 1305 310 1213 Q240 1121 199.5 997 Q159 873 159 729 Q159 585 199.5 460.5 Q240 336 310 243.5 Q380 151 474 98 Q568 45 674 45 Z M405 771 Q405 857 423.5 928 Q442 999 476.5 1050 Q511 1101 559.5 1129.5 Q608 1158 667 1158 Q723 1158 769 1138.5 Q815 1119 847.5 1080 Q880 1041 898 982 Q916 923 916 845 L855 845 Q855 971 806.5 1031.5 Q758 1092 667 1092 Q619 1092 582 1067 Q545 1042 519.5 999 Q494 956 480.5 897.5 Q467 839 467 772 L467 686 Q467 618 480.5 559.5 Q494 501 519.5 458 Q545 415 582 390.5 Q619 366 667 366 Q758 366 806 425 Q854 484 854 613 L915 613 Q915 534 897.5 475 Q880 416 847.5 377 Q815 338 769 318.5 Q723 299 667 299 Q608 299 559.5 327 Q511 355 476.5 406 Q442 457 423.5 528.5 Q405 600 405 686 L405 771 Z " />
<glyph glyph-name="guillemotleft" unicode="&#xab;" horiz-adv-x="671" >
<g transform="translate(23,-30)" >
<path fill="black" d="M99 549 L99 568 L295 942 L358 942 L170 559 L358 176 L295 176 L99 549 Z " />
</g>
<g transform="translate(268,-29)" >
<path fill="black" d="M99 549 L99 568 L295 942 L358 942 L170 559 L358 176 L295 176 L99 549 Z " />
</g>
</glyph>
<glyph glyph-name="logicalnot" unicode="&#xac;" horiz-adv-x="794" d="M108 761 L645 761 L645 393 L582 393 L582 690 L108 690 L108 761 Z " />
<glyph glyph-name="uni00AD" unicode="&#xad;" horiz-adv-x="462" >
<g transform="translate(9,0)" >
<path fill="black" d="M66 623 L66 693 L388 693 L388 623 L66 623 Z " />
</g>
</glyph>
<glyph glyph-name="registered" unicode="&#xae;" horiz-adv-x="1355" d="M669 -21 Q551 -21 446.5 36.5 Q342 94 264.5 195 Q187 296 142 433 Q97 570 97 729 Q97 888 142 1024.5 Q187 1161 264.5 1261.5 Q342 1362 446.5 1419 Q551 1476 669 1476 Q788 1476 892 1419 Q996 1362 1074 1261.5 Q1152 1161 1197 1024.5 Q1242 888 1242 729 Q1242 570 1197 433 Q1152 296 1074 195 Q996 94 892 36.5 Q788 -21 669 -21 Z M669 45 Q775 45 868.5 98 Q962 151 1032 243.5 Q1102 336 1143 460.5 Q1184 585 1184 729 Q1184 873 1143 997 Q1102 1121 1032 1213 Q962 1305 868.5 1357.5 Q775 1410 669 1410 Q563 1410 469 1357.5 Q375 1305 305 1213 Q235 1121 194 997 Q153 873 153 729 Q153 585 194 460.5 Q235 336 305 243.5 Q375 151 469 98 Q563 45 669 45 Z M470 1158 L671 1158 Q789 1158 850 1097 Q911 1036 911 915 Q911 843 880.5 791 Q850 739 793 711 Q852 687 874.5 631.5 Q897 576 897 507 L897 467 Q897 429 900.5 396 Q904 363 911 340 L911 324 L846 324 Q842 337 839.5 357 Q837 377 836 398 Q835 419 835 438 Q835 457 835 468 L835 506 Q835 597 803.5 635.5 Q772 674 694 674 L533 674 L533 324 L470 324 L470 1158 Z M688 742 Q721 742 750 753 Q779 764 801 786 Q823 808 836 840.5 Q849 873 849 915 Q849 960 840 993 Q831 1026 810 1047.5 Q789 1069 755 1079.5 Q721 1090 671 1090 L533 1090 L533 742 L688 742 Z " />
<glyph glyph-name="overscore" unicode="&#xaf;" horiz-adv-x="623" d="M118 1369 L118 1438 L517 1438 L517 1369 L118 1369 Z " />
<glyph glyph-name="degree" unicode="&#xb0;" horiz-adv-x="648" d="M324 992 Q284 992 248.5 1010.5 Q213 1029 186.5 1061.5 Q160 1094 144.5 1138 Q129 1182 129 1233 Q129 1283 144.5 1327 Q160 1371 186.5 1404 Q213 1437 248.5 1456.5 Q284 1476 324 1476 Q363 1476 398 1456.5 Q433 1437 459.5 1404 Q486 1371 501 1327 Q516 1283 516 1233 Q516 1182 501 1138 Q486 1094 459.5 1061.5 Q433 1029 398 1010.5 Q363 992 324 992 Z M324 1061 Q353 1061 377 1074 Q401 1087 419 1109.5 Q437 1132 447 1164 Q457 1196 457 1233 Q457 1271 447 1303.5 Q437 1336 419 1359.5 Q401 1383 377 1396 Q353 1409 324 1409 Q296 1409 271 1396 Q246 1383 227.5 1359.5 Q209 1336 198.5 1303.5 Q188 1271 188 1233 Q188 1196 198.5 1164 Q209 1132 227.5 1109.5 Q246 1087 271 1074 Q296 1061 324 1061 Z " />
<glyph glyph-name="plusminus" unicode="&#xb1;" horiz-adv-x="775" d="M361 743 L78 743 L78 813 L361 813 L361 1267 L423 1267 L423 813 L690 813 L690 743 L423 743 L423 289 L361 289 L361 743 Z M118 70 L677 70 L677 -1 L118 -1 L118 70 Z " />
<glyph glyph-name="twosuperior" unicode="&#xb2;" horiz-adv-x="544" d="M102 664 L102 719 L295 1010 Q346 1088 368 1142.5 Q390 1197 390 1243 Q390 1315 361 1358.5 Q332 1402 275 1402 Q243 1402 219 1388.5 Q195 1375 179 1351 Q163 1327 155 1294 Q147 1261 147 1222 L88 1222 Q88 1272 101 1316 Q114 1360 138 1393 Q162 1426 196.5 1445 Q231 1464 274 1464 Q355 1464 402.5 1406 Q450 1348 450 1245 Q450 1208 440 1171.5 Q430 1135 412.5 1099.5 Q395 1064 373 1028.5 Q351 993 327 957 L177 726 L477 726 L477 664 L102 664 Z " />
<glyph glyph-name="threesuperior" unicode="&#xb3;" horiz-adv-x="544" d="M144 882 Q144 845 154 814.5 Q164 784 182.5 762 Q201 740 226 727.5 Q251 715 281 715 Q341 715 375 758 Q409 801 409 877 Q409 962 369 998.5 Q329 1035 265 1035 L215 1035 L215 1096 L265 1096 Q298 1096 322.5 1108 Q347 1120 363.5 1140 Q380 1160 388.5 1187.5 Q397 1215 397 1246 Q397 1279 390 1307.5 Q383 1336 368 1357 Q353 1378 330.5 1390 Q308 1402 277 1402 Q251 1402 228.5 1391 Q206 1380 189 1360 Q172 1340 162.5 1311 Q153 1282 153 1246 L94 1246 Q94 1295 108.5 1335.5 Q123 1376 148 1404.5 Q173 1433 206.5 1448.5 Q240 1464 277 1464 Q358 1464 407 1407 Q456 1350 456 1245 Q456 1188 429.5 1140 Q403 1092 355 1068 Q411 1048 439.5 998.5 Q468 949 468 877 Q468 823 453.5 781.5 Q439 740 413.5 711.5 Q388 683 353.5 668 Q319 653 279 653 Q244 653 209 666.5 Q174 680 146.5 708.5 Q119 737 101.5 780 Q84 823 84 882 L144 882 Z " />
<glyph glyph-name="acute" unicode="&#xb4;" horiz-adv-x="457" d="M262 1536 L351 1536 L179 1265 L108 1265 L262 1536 Z " />
<glyph glyph-name="mu" unicode="&#xb5;" horiz-adv-x="814" d="M136 1082 L203 1082 L203 443 Q203 325 218 249 Q233 173 258.5 129 Q284 85 317.5 67.5 Q351 50 388 50 Q442 50 481 71 Q520 92 546.5 130 Q573 168 588 221 Q603 274 610 338 L610 1082 L679 1082 L679 0 L615 0 L612 166 Q580 78 526.5 29 Q473 -20 393 -20 Q336 -20 286 14.5 Q236 49 203 135 L203 -416 L136 -416 L136 1082 Z " />
<glyph glyph-name="paragraph" unicode="&#xb6;" horiz-adv-x="695" d="M491 0 L491 520 L415 520 Q336 520 274.5 555 Q213 590 171.5 652.5 Q130 715 108.5 801 Q87 887 87 988 Q87 1089 108.5 1174.5 Q130 1260 171.5 1322.5 Q213 1385 274.5 1420.5 Q336 1456 415 1456 L555 1456 L555 0 L491 0 Z " />
<glyph glyph-name="middot" unicode="&#xb7;" horiz-adv-x="386" d="M190 646 Q167 646 153 664.5 Q139 683 139 710 Q139 736 153 755 Q167 774 190 774 Q213 774 227.5 755 Q242 736 242 710 Q242 683 227.5 664.5 Q213 646 190 646 Z " />
<glyph glyph-name="cedilla" unicode="&#xb8;" horiz-adv-x="386" d="M88 -376 Q113 -376 138 -368.5 Q163 -361 183 -344.5 Q203 -328 215.5 -303 Q228 -278 228 -242 Q228 -211 221 -190 Q214 -169 199 -156 Q184 -143 161.5 -135.5 Q139 -128 109 -123 L128 0 L184 0 L177 -72 Q198 -76 218 -86 Q238 -96 254 -115.5 Q270 -135 279.5 -166 Q289 -197 289 -242 Q289 -330 238 -382.5 Q187 -435 93 -435 L88 -376 Z " />
<glyph glyph-name="onesuperior" unicode="&#xb9;" horiz-adv-x="544" d="M278 664 L278 1366 L122 1289 L122 1354 L331 1455 L338 1455 L338 664 L278 664 Z " />
<glyph glyph-name="guillemotright" unicode="&#xbb;" horiz-adv-x="666" >
<g transform="translate(20,0)" >
<path fill="black" d="M282 551 L93 942 L157 942 L352 560 L352 541 L157 168 L93 168 L282 551 Z " />
</g>
<g transform="translate(269,0)" >
<path fill="black" d="M282 551 L93 942 L157 942 L352 560 L352 541 L157 168 L93 168 L282 551 Z " />
</g>
</glyph>
<glyph glyph-name="onequarter" unicode="&#xbc;" horiz-adv-x="1264" d="M769 1310 L814 1274 L339 136 L296 172 L769 1310 Z M538 242 L807 789 L869 789 L869 261 L958 261 L958 198 L869 198 L869 0 L811 0 L811 198 L539 198 L538 242 Z M277 664 L277 1366 L121 1289 L121 1354 L330 1455 L337 1455 L337 664 L277 664 Z M811 261 L811 691 L788 640 L604 261 L811 261 Z " />
<glyph glyph-name="onehalf" unicode="&#xbd;" horiz-adv-x="1309" d="M275 664 L254 664 L254 1366 L98 1289 L98 1354 L307 1455 L314 1455 L314 758 L540 1302 L585 1266 L110 128 L67 164 L275 664 Z M606 55 L799 346 Q850 424 872 478.5 Q894 533 894 579 Q894 651 865 694.5 Q836 738 779 738 Q747 738 723 724.5 Q699 711 683 687 Q667 663 659 630 Q651 597 651 558 L592 558 Q592 608 605 652 Q618 696 642 729 Q666 762 700.5 781 Q735 800 778 800 Q859 800 906.5 742 Q954 684 954 581 Q954 544 944 507.5 Q934 471 916.5 435.5 Q899 400 877 364.5 Q855 329 831 293 L681 62 L981 62 L981 0 L606 0 L606 55 Z " />
<glyph glyph-name="threequarters" unicode="&#xbe;" horiz-adv-x="1358" d="M272 657 Q241 663 212.5 679.5 Q184 696 162 724 Q140 752 126.5 791.5 Q113 831 113 882 L173 882 Q173 813 207.5 767 Q242 721 296 716 L409 986 Q389 1012 360 1023.5 Q331 1035 294 1035 L244 1035 L244 1096 L294 1096 Q327 1096 351.5 1108 Q376 1120 392.5 1140 Q409 1160 417.5 1187.5 Q426 1215 426 1246 Q426 1279 419 1307.5 Q412 1336 397 1357 Q382 1378 359.5 1390 Q337 1402 306 1402 Q280 1402 257.5 1391 Q235 1380 218 1360 Q201 1340 191.5 1311 Q182 1282 182 1246 L123 1246 Q123 1295 137.5 1335.5 Q152 1376 177 1404.5 Q202 1433 235.5 1448.5 Q269 1464 306 1464 Q387 1464 436 1407 Q485 1350 485 1245 Q485 1188 458.5 1140 Q432 1092 384 1068 Q412 1057 431 1041 L540 1302 L585 1266 L471 993 Q497 944 497 877 Q497 827 484.5 787.5 Q472 748 449.5 719.5 Q427 691 396.5 674.5 Q366 658 330 654 L110 128 L67 164 L272 657 Z M747 242 L1016 789 L1078 789 L1078 261 L1167 261 L1167 198 L1078 198 L1078 0 L1020 0 L1020 198 L748 198 L747 242 Z M1020 261 L1020 691 L997 640 L813 261 L1020 261 Z M359 724 Q397 739 417.5 778.5 Q438 818 438 877 Q438 886 437.5 893.5 Q437 901 436 909 L359 724 Z " />
<glyph glyph-name="questiondown" unicode="&#xbf;" horiz-adv-x="674" d="M589 -21 Q588 -111 568.5 -178.5 Q549 -246 515.5 -291 Q482 -336 436.5 -359 Q391 -382 339 -382 Q280 -382 234 -355.5 Q188 -329 156 -280.5 Q124 -232 107 -164 Q90 -96 90 -13 Q90 62 102.5 124 Q115 186 137.5 240.5 Q160 295 191 344.5 Q222 394 259 443 Q281 471 293.5 498 Q306 525 312.5 554 Q319 583 320.5 617 Q322 651 322 693 L387 693 Q387 635 383.5 595 Q380 555 371 522.5 Q362 490 344.5 458.5 Q327 427 298 385 Q270 343 244.5 303.5 Q219 264 200 218 Q181 172 169.5 116 Q158 60 158 -14 Q158 -154 204.5 -232.5 Q251 -311 339 -311 Q381 -311 414.5 -290 Q448 -269 471.5 -231 Q495 -193 507.5 -139.5 Q520 -86 520 -21 L589 -21 Z M352 973 Q329 973 315 991.5 Q301 1010 301 1037 Q301 1064 315 1082.5 Q329 1101 352 1101 Q375 1101 389.5 1082.5 Q404 1064 404 1037 Q404 1010 389.5 991.5 Q375 973 352 973 Z " />
<glyph glyph-name="Agrave" unicode="&#xc0;" horiz-adv-x="893" >
<path fill="black" d="M412 1456 L481 1456 L847 0 L773 0 L670 426 L223 426 L120 0 L46 0 L412 1456 Z M653 497 L446 1353 L240 497 L653 497 Z " />
<g transform="translate(144,317)" >
<path fill="black" d="M277 1265 L106 1536 L195 1536 L348 1265 L277 1265 Z " />
</g>
</glyph>
<glyph glyph-name="Aacute" unicode="&#xc1;" horiz-adv-x="893" >
<path fill="black" d="M412 1456 L481 1456 L847 0 L773 0 L670 426 L223 426 L120 0 L46 0 L412 1456 Z M653 497 L446 1353 L240 497 L653 497 Z " />
<g transform="translate(293,317)" >
<path fill="black" d="M262 1536 L351 1536 L179 1265 L108 1265 L262 1536 Z " />
</g>
</glyph>
<glyph glyph-name="Acircumflex" unicode="&#xc2;" horiz-adv-x="893" >
<path fill="black" d="M412 1456 L481 1456 L847 0 L773 0 L670 426 L223 426 L120 0 L46 0 L412 1456 Z M653 497 L446 1353 L240 497 L653 497 Z " />
<g transform="translate(137,317)" >
<path fill="black" d="M129 1276 L288 1520 L333 1520 L494 1272 L494 1262 L427 1262 L310 1454 L193 1262 L129 1262 L129 1276 Z " />
</g>
</glyph>
<glyph glyph-name="Atilde" unicode="&#xc3;" horiz-adv-x="893" >
<path fill="black" d="M412 1456 L481 1456 L847 0 L773 0 L670 426 L223 426 L120 0 L46 0 L412 1456 Z M653 497 L446 1353 L240 497 L653 497 Z " />
<g transform="translate(137,331)" >
<path fill="black" d="M93 1280 Q93 1368 128.5 1419 Q164 1470 218 1470 Q251 1470 274.5 1451.5 Q298 1433 318 1410.5 Q338 1388 358.5 1369.5 Q379 1351 407 1351 Q438 1351 460 1384.5 Q482 1418 482 1479 L534 1477 Q534 1433 524.5 1397 Q515 1361 498 1335 Q481 1309 458.5 1295 Q436 1281 409 1281 Q374 1281 351 1300 Q328 1319 309 1341.5 Q290 1364 270 1382.5 Q250 1401 221 1401 Q189 1401 167.5 1370 Q146 1339 146 1279 L93 1280 Z " />
</g>
</glyph>
<glyph glyph-name="Adieresis" unicode="&#xc4;" horiz-adv-x="893" d="M412 1456 L481 1456 L847 0 L773 0 L670 426 L223 426 L120 0 L46 0 L412 1456 Z M653 497 L446 1353 L240 497 L653 497 Z M622 1666 Q596 1666 581 1684.5 Q566 1703 566 1729 Q566 1756 581 1775 Q596 1794 622 1794 Q648 1794 664.5 1775 Q681 1756 681 1729 Q681 1703 664.5 1684.5 Q648 1666 622 1666 Z M264 1666 Q238 1666 222 1684.5 Q206 1703 206 1730 Q206 1756 222 1775 Q238 1794 264 1794 Q289 1794 304.5 1775 Q320 1756 320 1730 Q320 1703 304.5 1684.5 Q289 1666 264 1666 Z " />
<glyph glyph-name="Aring" unicode="&#xc5;" horiz-adv-x="893" d="M412 1456 L481 1456 L847 0 L773 0 L670 426 L223 426 L120 0 L46 0 L412 1456 Z M653 497 L446 1353 L240 497 L653 497 Z M449 1530 Q418 1530 391.5 1543 Q365 1556 345.5 1579.5 Q326 1603 314.5 1635.5 Q303 1668 303 1706 Q303 1744 314.5 1776.5 Q326 1809 345.5 1833 Q365 1857 391.5 1871 Q418 1885 449 1885 Q480 1885 507 1871 Q534 1857 553.5 1833 Q573 1809 584 1776.5 Q595 1744 595 1706 Q595 1668 584 1635.5 Q573 1603 553.5 1579.5 Q534 1556 507 1543 Q480 1530 449 1530 Z M449 1590 Q491 1590 516.5 1622.5 Q542 1655 542 1706 Q542 1758 516.5 1791.5 Q491 1825 449 1825 Q407 1825 381.5 1791.5 Q356 1758 356 1706 Q356 1655 381.5 1622.5 Q407 1590 449 1590 Z " />
<glyph glyph-name="AE" unicode="&#xc6;" horiz-adv-x="1284" d="M629 1456 L1186 1456 L1186 1385 L728 1385 L745 794 L1131 794 L1131 724 L747 724 L765 71 L1226 71 L1226 0 L698 0 L687 413 L291 413 L130 0 L47 0 L629 1456 Z M685 486 L661 1364 L319 486 L685 486 Z " />
<glyph glyph-name="Ccedilla" unicode="&#xc7;" horiz-adv-x="940" d="M413 -386 Q438 -386 463 -378.5 Q488 -371 508 -354.5 Q528 -338 540.5 -313 Q553 -288 553 -252 Q553 -221 546 -200 Q539 -179 524 -166 Q509 -153 486.5 -145.5 Q464 -138 434 -133 L451 -20 Q374 -14 313 28 Q252 70 210 144 Q168 218 145.5 322.5 Q123 427 123 560 L123 915 Q123 1049 147.5 1153.5 Q172 1258 218 1329.5 Q264 1401 330.5 1438.5 Q397 1476 480 1476 Q557 1476 619 1452 Q681 1428 726 1372.5 Q771 1317 798.5 1228 Q826 1139 833 1008 L762 1008 Q755 1119 734.5 1195 Q714 1271 679 1317.5 Q644 1364 594.5 1384.5 Q545 1405 480 1405 Q343 1405 268.5 1280 Q194 1155 194 917 L194 560 Q194 438 213 343 Q232 248 268 183 Q304 118 357 84.5 Q410 51 478 51 Q542 51 592 69 Q642 87 677.5 132 Q713 177 734 254 Q755 331 762 449 L833 449 Q826 325 801 237.5 Q776 150 734.5 94.5 Q693 39 636 11.5 Q579 -16 508 -20 L502 -82 Q523 -86 543 -96 Q563 -106 579 -125.5 Q595 -145 604.5 -176 Q614 -207 614 -252 Q614 -340 563 -392.5 Q512 -445 418 -445 L413 -386 Z " />
<glyph glyph-name="Egrave" unicode="&#xc8;" horiz-adv-x="829" >
<path fill="black" d="M151 1456 L752 1456 L752 1385 L221 1385 L221 785 L686 785 L686 714 L221 714 L221 72 L753 72 L753 0 L151 0 L151 1456 Z " />
<g transform="translate(137,319)" >
<path fill="black" d="M277 1265 L106 1536 L195 1536 L348 1265 L277 1265 Z " />
</g>
</glyph>
<glyph glyph-name="Eacute" unicode="&#xc9;" horiz-adv-x="829" >
<path fill="black" d="M151 1456 L752 1456 L752 1385 L221 1385 L221 785 L686 785 L686 714 L221 714 L221 72 L753 72 L753 0 L151 0 L151 1456 Z " />
<g transform="translate(286,319)" >
<path fill="black" d="M262 1536 L351 1536 L179 1265 L108 1265 L262 1536 Z " />
</g>
</glyph>
<glyph glyph-name="Ecircumflex" unicode="&#xca;" horiz-adv-x="829" >
<path fill="black" d="M151 1456 L752 1456 L752 1385 L221 1385 L221 785 L686 785 L686 714 L221 714 L221 72 L753 72 L753 0 L151 0 L151 1456 Z " />
<g transform="translate(130,319)" >
<path fill="black" d="M129 1276 L288 1520 L333 1520 L494 1272 L494 1262 L427 1262 L310 1454 L193 1262 L129 1262 L129 1276 Z " />
</g>
</glyph>
<glyph glyph-name="Edieresis" unicode="&#xcb;" horiz-adv-x="829" d="M151 1456 L752 1456 L752 1385 L221 1385 L221 785 L686 785 L686 714 L221 714 L221 72 L753 72 L753 0 L151 0 L151 1456 Z M615 1668 Q589 1668 574 1686.5 Q559 1705 559 1731 Q559 1758 574 1777 Q589 1796 615 1796 Q641 1796 657.5 1777 Q674 1758 674 1731 Q674 1705 657.5 1686.5 Q641 1668 615 1668 Z M257 1668 Q231 1668 215 1686.5 Q199 1705 199 1732 Q199 1758 215 1777 Q231 1796 257 1796 Q282 1796 297.5 1777 Q313 1758 313 1732 Q313 1705 297.5 1686.5 Q282 1668 257 1668 Z " />
<glyph glyph-name="Igrave" unicode="&#xcc;" horiz-adv-x="417" >
<path fill="black" d="M174 0 L174 1456 L243 1456 L243 0 L174 0 Z " />
<g transform="translate(-95,319)" >
<path fill="black" d="M277 1265 L106 1536 L195 1536 L348 1265 L277 1265 Z " />
</g>
</glyph>
<glyph glyph-name="Iacute" unicode="&#xcd;" horiz-adv-x="417" >
<path fill="black" d="M174 0 L174 1456 L243 1456 L243 0 L174 0 Z " />
<g transform="translate(54,319)" >
<path fill="black" d="M262 1536 L351 1536 L179 1265 L108 1265 L262 1536 Z " />
</g>
</glyph>
<glyph glyph-name="Icircumflex" unicode="&#xce;" horiz-adv-x="417" >
<path fill="black" d="M174 0 L174 1456 L243 1456 L243 0 L174 0 Z " />
<g transform="translate(-102,319)" >
<path fill="black" d="M129 1276 L288 1520 L333 1520 L494 1272 L494 1262 L427 1262 L310 1454 L193 1262 L129 1262 L129 1276 Z " />
</g>
</glyph>
<glyph glyph-name="Idieresis" unicode="&#xcf;" horiz-adv-x="417" >
<g transform="translate(-162,319)" >
<path fill="black" d="M185 1349 Q159 1349 144 1367.5 Q129 1386 129 1412 Q129 1439 144 1458 Q159 1477 185 1477 Q211 1477 227.5 1458 Q244 1439 244 1412 Q244 1386 227.5 1367.5 Q211 1349 185 1349 Z M545 1349 Q519 1349 504 1367.5 Q489 1386 489 1412 Q489 1439 504 1458 Q519 1477 545 1477 Q571 1477 587.5 1458 Q604 1439 604 1412 Q604 1386 587.5 1367.5 Q571 1349 545 1349 Z " />
</g>
<path fill="black" d="M174 0 L174 1456 L243 1456 L243 0 L174 0 Z " />
</glyph>
<glyph glyph-name="Eth" unicode="&#xd0;" horiz-adv-x="947" d="M151 705 L55 705 L55 776 L151 776 L151 1456 L424 1456 Q513 1456 587 1419 Q661 1382 714.5 1311 Q768 1240 797.5 1135 Q827 1030 827 895 L827 561 Q827 426 797.5 321 Q768 216 714.5 145 Q661 74 586.5 37 Q512 0 422 0 L151 0 L151 705 Z M422 72 Q499 72 561 104.5 Q623 137 667 199 Q711 261 734.5 352.5 Q758 444 758 561 L758 898 Q758 1015 734 1105.5 Q710 1196 666.5 1258.5 Q623 1321 561.5 1353 Q500 1385 424 1385 L221 1385 L221 776 L461 776 L461 705 L221 705 L221 72 L422 72 Z " />
<glyph glyph-name="Ntilde" unicode="&#xd1;" horiz-adv-x="1021" >
<path fill="black" d="M151 1456 L225 1456 L800 140 L800 1456 L869 1456 L869 0 L795 0 L221 1318 L221 0 L151 0 L151 1456 Z " />
<g transform="translate(201,331)" >
<path fill="black" d="M93 1280 Q93 1368 128.5 1419 Q164 1470 218 1470 Q251 1470 274.5 1451.5 Q298 1433 318 1410.5 Q338 1388 358.5 1369.5 Q379 1351 407 1351 Q438 1351 460 1384.5 Q482 1418 482 1479 L534 1477 Q534 1433 524.5 1397 Q515 1361 498 1335 Q481 1309 458.5 1295 Q436 1281 409 1281 Q374 1281 351 1300 Q328 1319 309 1341.5 Q290 1364 270 1382.5 Q250 1401 221 1401 Q189 1401 167.5 1370 Q146 1339 146 1279 L93 1280 Z " />
</g>
</glyph>
<glyph glyph-name="Ograve" unicode="&#xd2;" horiz-adv-x="972" >
<path fill="black" d="M117 912 Q117 1049 142.5 1154 Q168 1259 216 1330.5 Q264 1402 332 1439 Q400 1476 485 1476 Q571 1476 639 1439 Q707 1402 755 1330.5 Q803 1259 828.5 1154 Q854 1049 854 912 L854 544 Q854 408 828.5 302.5 Q803 197 755.5 125 Q708 53 640 16 Q572 -21 486 -21 Q401 -21 333 16 Q265 53 217 125 Q169 197 143 302.5 Q117 408 117 544 L117 912 Z M784 914 Q784 1152 707.5 1277.5 Q631 1403 485 1403 Q340 1403 263.5 1277.5 Q187 1152 187 914 L187 544 Q187 304 264.5 178 Q342 52 486 52 Q632 52 708 178 Q784 304 784 544 L784 914 Z " />
<g transform="translate(180,335)" >
<path fill="black" d="M277 1265 L106 1536 L195 1536 L348 1265 L277 1265 Z " />
</g>
</glyph>
<glyph glyph-name="Oacute" unicode="&#xd3;" horiz-adv-x="972" >
<path fill="black" d="M117 912 Q117 1049 142.5 1154 Q168 1259 216 1330.5 Q264 1402 332 1439 Q400 1476 485 1476 Q571 1476 639 1439 Q707 1402 755 1330.5 Q803 1259 828.5 1154 Q854 1049 854 912 L854 544 Q854 408 828.5 302.5 Q803 197 755.5 125 Q708 53 640 16 Q572 -21 486 -21 Q401 -21 333 16 Q265 53 217 125 Q169 197 143 302.5 Q117 408 117 544 L117 912 Z M784 914 Q784 1152 707.5 1277.5 Q631 1403 485 1403 Q340 1403 263.5 1277.5 Q187 1152 187 914 L187 544 Q187 304 264.5 178 Q342 52 486 52 Q632 52 708 178 Q784 304 784 544 L784 914 Z " />
<g transform="translate(329,335)" >
<path fill="black" d="M262 1536 L351 1536 L179 1265 L108 1265 L262 1536 Z " />
</g>
</glyph>
<glyph glyph-name="Ocircumflex" unicode="&#xd4;" horiz-adv-x="972" >
<path fill="black" d="M117 912 Q117 1049 142.5 1154 Q168 1259 216 1330.5 Q264 1402 332 1439 Q400 1476 485 1476 Q571 1476 639 1439 Q707 1402 755 1330.5 Q803 1259 828.5 1154 Q854 1049 854 912 L854 544 Q854 408 828.5 302.5 Q803 197 755.5 125 Q708 53 640 16 Q572 -21 486 -21 Q401 -21 333 16 Q265 53 217 125 Q169 197 143 302.5 Q117 408 117 544 L117 912 Z M784 914 Q784 1152 707.5 1277.5 Q631 1403 485 1403 Q340 1403 263.5 1277.5 Q187 1152 187 914 L187 544 Q187 304 264.5 178 Q342 52 486 52 Q632 52 708 178 Q784 304 784 544 L784 914 Z " />
<g transform="translate(173,335)" >
<path fill="black" d="M129 1276 L288 1520 L333 1520 L494 1272 L494 1262 L427 1262 L310 1454 L193 1262 L129 1262 L129 1276 Z " />
</g>
</glyph>
<glyph glyph-name="Otilde" unicode="&#xd5;" horiz-adv-x="972" >
<path fill="black" d="M117 912 Q117 1049 142.5 1154 Q168 1259 216 1330.5 Q264 1402 332 1439 Q400 1476 485 1476 Q571 1476 639 1439 Q707 1402 755 1330.5 Q803 1259 828.5 1154 Q854 1049 854 912 L854 544 Q854 408 828.5 302.5 Q803 197 755.5 125 Q708 53 640 16 Q572 -21 486 -21 Q401 -21 333 16 Q265 53 217 125 Q169 197 143 302.5 Q117 408 117 544 L117 912 Z M784 914 Q784 1152 707.5 1277.5 Q631 1403 485 1403 Q340 1403 263.5 1277.5 Q187 1152 187 914 L187 544 Q187 304 264.5 178 Q342 52 486 52 Q632 52 708 178 Q784 304 784 544 L784 914 Z " />
<g transform="translate(173,349)" >
<path fill="black" d="M93 1280 Q93 1368 128.5 1419 Q164 1470 218 1470 Q251 1470 274.5 1451.5 Q298 1433 318 1410.5 Q338 1388 358.5 1369.5 Q379 1351 407 1351 Q438 1351 460 1384.5 Q482 1418 482 1479 L534 1477 Q534 1433 524.5 1397 Q515 1361 498 1335 Q481 1309 458.5 1295 Q436 1281 409 1281 Q374 1281 351 1300 Q328 1319 309 1341.5 Q290 1364 270 1382.5 Q250 1401 221 1401 Q189 1401 167.5 1370 Q146 1339 146 1279 L93 1280 Z " />
</g>
</glyph>
<glyph glyph-name="Odieresis" unicode="&#xd6;" horiz-adv-x="972" >
<g transform="translate(113,335)" >
<path fill="black" d="M185 1349 Q159 1349 144 1367.5 Q129 1386 129 1412 Q129 1439 144 1458 Q159 1477 185 1477 Q211 1477 227.5 1458 Q244 1439 244 1412 Q244 1386 227.5 1367.5 Q211 1349 185 1349 Z M545 1349 Q519 1349 504 1367.5 Q489 1386 489 1412 Q489 1439 504 1458 Q519 1477 545 1477 Q571 1477 587.5 1458 Q604 1439 604 1412 Q604 1386 587.5 1367.5 Q571 1349 545 1349 Z " />
</g>
<path fill="black" d="M117 912 Q117 1049 142.5 1154 Q168 1259 216 1330.5 Q264 1402 332 1439 Q400 1476 485 1476 Q571 1476 639 1439 Q707 1402 755 1330.5 Q803 1259 828.5 1154 Q854 1049 854 912 L854 544 Q854 408 828.5 302.5 Q803 197 755.5 125 Q708 53 640 16 Q572 -21 486 -21 Q401 -21 333 16 Q265 53 217 125 Q169 197 143 302.5 Q117 408 117 544 L117 912 Z M784 914 Q784 1152 707.5 1277.5 Q631 1403 485 1403 Q340 1403 263.5 1277.5 Q187 1152 187 914 L187 544 Q187 304 264.5 178 Q342 52 486 52 Q632 52 708 178 Q784 304 784 544 L784 914 Z " />
</glyph>
<glyph glyph-name="multiply" unicode="&#xd7;" horiz-adv-x="762" d="M87 86 L337 468 L101 828 L146 881 L377 528 L608 881 L652 828 L416 468 L666 86 L621 34 L377 407 L133 34 L87 86 Z " />
<glyph glyph-name="Oslash" unicode="&#xd8;" horiz-adv-x="1183" d="M227 124 Q178 196 152 301 Q126 406 126 544 L126 912 Q126 1049 151.5 1154 Q177 1259 225 1330.5 Q273 1402 341 1439 Q409 1476 494 1476 Q651 1476 745 1356 L805 1499 L867 1499 L783 1299 Q822 1228 842.5 1131.5 Q863 1035 863 912 L863 544 Q863 408 837.5 302.5 Q812 197 764.5 125 Q717 53 649 16 Q581 -21 495 -21 Q357 -21 267 74 L203 -78 L142 -78 L227 124 Z M714 1281 Q636 1403 494 1403 Q349 1403 272.5 1277.5 Q196 1152 196 914 L196 544 Q196 328 260 203 L714 1281 Z M793 914 Q793 1096 747 1214 L297 146 Q373 52 495 52 Q641 52 717 178 Q793 304 793 544 L793 914 Z " />
<glyph glyph-name="Ugrave" unicode="&#xd9;" horiz-adv-x="958" >
<path fill="black" d="M139 1456 L209 1456 L209 426 Q209 324 229.5 252.5 Q250 181 286 136.5 Q322 92 371.5 71.5 Q421 51 479 51 Q538 51 587.5 71.5 Q637 92 673 136.5 Q709 181 729 252.5 Q749 324 749 426 L749 1456 L819 1456 L819 426 Q819 303 793 218 Q767 133 721 80 Q675 27 613 3 Q551 -21 479 -21 Q407 -21 344.5 3 Q282 27 236.5 80 Q191 133 165 218 Q139 303 139 426 L139 1456 Z " />
<g transform="translate(183,317)" >
<path fill="black" d="M277 1265 L106 1536 L195 1536 L348 1265 L277 1265 Z " />
</g>
</glyph>
<glyph glyph-name="Uacute" unicode="&#xda;" horiz-adv-x="958" >
<path fill="black" d="M139 1456 L209 1456 L209 426 Q209 324 229.5 252.5 Q250 181 286 136.5 Q322 92 371.5 71.5 Q421 51 479 51 Q538 51 587.5 71.5 Q637 92 673 136.5 Q709 181 729 252.5 Q749 324 749 426 L749 1456 L819 1456 L819 426 Q819 303 793 218 Q767 133 721 80 Q675 27 613 3 Q551 -21 479 -21 Q407 -21 344.5 3 Q282 27 236.5 80 Q191 133 165 218 Q139 303 139 426 L139 1456 Z " />
<g transform="translate(332,317)" >
<path fill="black" d="M262 1536 L351 1536 L179 1265 L108 1265 L262 1536 Z " />
</g>
</glyph>
<glyph glyph-name="Ucircumflex" unicode="&#xdb;" horiz-adv-x="958" >
<path fill="black" d="M139 1456 L209 1456 L209 426 Q209 324 229.5 252.5 Q250 181 286 136.5 Q322 92 371.5 71.5 Q421 51 479 51 Q538 51 587.5 71.5 Q637 92 673 136.5 Q709 181 729 252.5 Q749 324 749 426 L749 1456 L819 1456 L819 426 Q819 303 793 218 Q767 133 721 80 Q675 27 613 3 Q551 -21 479 -21 Q407 -21 344.5 3 Q282 27 236.5 80 Q191 133 165 218 Q139 303 139 426 L139 1456 Z " />
<g transform="translate(176,317)" >
<path fill="black" d="M129 1276 L288 1520 L333 1520 L494 1272 L494 1262 L427 1262 L310 1454 L193 1262 L129 1262 L129 1276 Z " />
</g>
</glyph>
<glyph glyph-name="Udieresis" unicode="&#xdc;" horiz-adv-x="958" >
<g transform="translate(116,317)" >
<path fill="black" d="M185 1349 Q159 1349 144 1367.5 Q129 1386 129 1412 Q129 1439 144 1458 Q159 1477 185 1477 Q211 1477 227.5 1458 Q244 1439 244 1412 Q244 1386 227.5 1367.5 Q211 1349 185 1349 Z M545 1349 Q519 1349 504 1367.5 Q489 1386 489 1412 Q489 1439 504 1458 Q519 1477 545 1477 Q571 1477 587.5 1458 Q604 1439 604 1412 Q604 1386 587.5 1367.5 Q571 1349 545 1349 Z " />
</g>
<path fill="black" d="M139 1456 L209 1456 L209 426 Q209 324 229.5 252.5 Q250 181 286 136.5 Q322 92 371.5 71.5 Q421 51 479 51 Q538 51 587.5 71.5 Q637 92 673 136.5 Q709 181 729 252.5 Q749 324 749 426 L749 1456 L819 1456 L819 426 Q819 303 793 218 Q767 133 721 80 Q675 27 613 3 Q551 -21 479 -21 Q407 -21 344.5 3 Q282 27 236.5 80 Q191 133 165 218 Q139 303 139 426 L139 1456 Z " />
</glyph>
<glyph glyph-name="Yacute" unicode="&#xdd;" horiz-adv-x="872" >
<path fill="black" d="M400 551 L45 1456 L129 1456 L435 623 L745 1456 L825 1456 L470 551 L470 0 L400 0 L400 551 Z " />
<g transform="translate(282,308)" >
<path fill="black" d="M262 1536 L351 1536 L179 1265 L108 1265 L262 1536 Z " />
</g>
</glyph>
<glyph glyph-name="Thorn" unicode="&#xde;" horiz-adv-x="866" d="M151 1456 L219 1456 L219 1146 L446 1146 Q521 1146 579 1115 Q637 1084 676 1029.5 Q715 975 735.5 900.5 Q756 826 756 738 Q756 650 735.5 575.5 Q715 501 676 446.5 Q637 392 579 361.5 Q521 331 446 331 L219 331 L219 0 L151 0 L151 1456 Z M446 401 Q511 401 556.5 431 Q602 461 631.5 508.5 Q661 556 674.5 616 Q688 676 688 736 Q688 799 674.5 860 Q661 921 631.5 969 Q602 1017 556.5 1046.5 Q511 1076 446 1076 L219 1076 L219 401 L446 401 Z " />
<glyph glyph-name="germandbls" unicode="&#xdf;" horiz-adv-x="854" d="M131 0 L131 1138 Q131 1333 193 1435.5 Q255 1538 368 1538 Q412 1538 452.5 1518 Q493 1498 523.5 1461 Q554 1424 572 1370.5 Q590 1317 590 1250 Q590 1178 577.5 1130 Q565 1082 550 1039.5 Q535 997 522.5 949 Q510 901 510 827 Q510 776 528 736 Q546 696 573 660 Q600 624 632 588.5 Q664 553 691 511.5 Q718 470 736 419 Q754 368 754 300 Q754 223 732 163 Q710 103 674.5 62 Q639 21 594 0 Q549 -21 502 -21 Q474 -21 443 -14 Q412 -7 384.5 5 Q357 17 334 32.5 Q311 48 298 65 L318 132 Q331 117 350.5 102.5 Q370 88 393.5 76 Q417 64 443.5 56.5 Q470 49 495 49 Q539 49 574 69.5 Q609 90 634 125.5 Q659 161 672.5 207.5 Q686 254 686 306 Q686 362 668 405 Q650 448 623 485 Q596 522 564 557 Q532 592 505 631.5 Q478 671 460 718.5 Q442 766 442 829 Q442 903 454.5 953.5 Q467 1004 482 1048 Q497 1092 509.5 1138 Q522 1184 522 1249 Q522 1297 509.5 1337 Q497 1377 476.5 1406 Q456 1435 429 1451.5 Q402 1468 373 1468 Q333 1468 301 1450 Q269 1432 246 1392.5 Q223 1353 210.5 1290 Q198 1227 198 1138 L198 0 L131 0 Z " />
<glyph glyph-name="agrave" unicode="&#xe0;" horiz-adv-x="779" >
<path fill="black" d="M591 0 Q585 31 581 74 Q577 117 576 162 Q558 125 533.5 92 Q509 59 476.5 34 Q444 9 404.5 -6 Q365 -21 318 -21 Q266 -21 224 -3 Q182 15 152 52 Q122 89 105.5 145.5 Q89 202 89 278 Q89 352 109 413.5 Q129 475 168.5 519 Q208 563 267.5 588 Q327 613 406 613 L575 613 L575 791 Q575 920 524.5 976 Q474 1032 380 1032 Q336 1032 298.5 1014.5 Q261 997 234 964.5 Q207 932 191.5 886.5 Q176 841 176 784 L107 785 Q107 852 127 910 Q147 968 183.5 1010.5 Q220 1053 270.5 1077.5 Q321 1102 382 1102 Q439 1102 487 1085.5 Q535 1069 569.5 1032 Q604 995 623.5 935 Q643 875 643 789 L643 221 Q643 192 644.5 162 Q646 132 648.5 104 Q651 76 655 52 Q659 28 664 10 L664 0 L591 0 Z M575 545 L411 545 Q344 545 296 525.5 Q248 506 217 471 Q186 436 171.5 387 Q157 338 157 278 Q157 162 203 106.5 Q249 51 325 51 Q372 51 411 67 Q450 83 481.5 112 Q513 141 536.5 181 Q560 221 575 270 L575 545 Z " />
<g transform="translate(109,-1)" >
<path fill="black" d="M277 1265 L106 1536 L195 1536 L348 1265 L277 1265 Z " />
</g>
</glyph>
<glyph glyph-name="aacute" unicode="&#xe1;" horiz-adv-x="779" >
<path fill="black" d="M591 0 Q585 31 581 74 Q577 117 576 162 Q558 125 533.5 92 Q509 59 476.5 34 Q444 9 404.5 -6 Q365 -21 318 -21 Q266 -21 224 -3 Q182 15 152 52 Q122 89 105.5 145.5 Q89 202 89 278 Q89 352 109 413.5 Q129 475 168.5 519 Q208 563 267.5 588 Q327 613 406 613 L575 613 L575 791 Q575 920 524.5 976 Q474 1032 380 1032 Q336 1032 298.5 1014.5 Q261 997 234 964.5 Q207 932 191.5 886.5 Q176 841 176 784 L107 785 Q107 852 127 910 Q147 968 183.5 1010.5 Q220 1053 270.5 1077.5 Q321 1102 382 1102 Q439 1102 487 1085.5 Q535 1069 569.5 1032 Q604 995 623.5 935 Q643 875 643 789 L643 221 Q643 192 644.5 162 Q646 132 648.5 104 Q651 76 655 52 Q659 28 664 10 L664 0 L591 0 Z M575 545 L411 545 Q344 545 296 525.5 Q248 506 217 471 Q186 436 171.5 387 Q157 338 157 278 Q157 162 203 106.5 Q249 51 325 51 Q372 51 411 67 Q450 83 481.5 112 Q513 141 536.5 181 Q560 221 575 270 L575 545 Z " />
<g transform="translate(258,-1)" >
<path fill="black" d="M262 1536 L351 1536 L179 1265 L108 1265 L262 1536 Z " />
</g>
</glyph>
<glyph glyph-name="acircumflex" unicode="&#xe2;" horiz-adv-x="779" >
<path fill="black" d="M591 0 Q585 31 581 74 Q577 117 576 162 Q558 125 533.5 92 Q509 59 476.5 34 Q444 9 404.5 -6 Q365 -21 318 -21 Q266 -21 224 -3 Q182 15 152 52 Q122 89 105.5 145.5 Q89 202 89 278 Q89 352 109 413.5 Q129 475 168.5 519 Q208 563 267.5 588 Q327 613 406 613 L575 613 L575 791 Q575 920 524.5 976 Q474 1032 380 1032 Q336 1032 298.5 1014.5 Q261 997 234 964.5 Q207 932 191.5 886.5 Q176 841 176 784 L107 785 Q107 852 127 910 Q147 968 183.5 1010.5 Q220 1053 270.5 1077.5 Q321 1102 382 1102 Q439 1102 487 1085.5 Q535 1069 569.5 1032 Q604 995 623.5 935 Q643 875 643 789 L643 221 Q643 192 644.5 162 Q646 132 648.5 104 Q651 76 655 52 Q659 28 664 10 L664 0 L591 0 Z M575 545 L411 545 Q344 545 296 525.5 Q248 506 217 471 Q186 436 171.5 387 Q157 338 157 278 Q157 162 203 106.5 Q249 51 325 51 Q372 51 411 67 Q450 83 481.5 112 Q513 141 536.5 181 Q560 221 575 270 L575 545 Z " />
<g transform="translate(102,-1)" >
<path fill="black" d="M129 1276 L288 1520 L333 1520 L494 1272 L494 1262 L427 1262 L310 1454 L193 1262 L129 1262 L129 1276 Z " />
</g>
</glyph>
<glyph glyph-name="atilde" unicode="&#xe3;" horiz-adv-x="779" >
<path fill="black" d="M591 0 Q585 31 581 74 Q577 117 576 162 Q558 125 533.5 92 Q509 59 476.5 34 Q444 9 404.5 -6 Q365 -21 318 -21 Q266 -21 224 -3 Q182 15 152 52 Q122 89 105.5 145.5 Q89 202 89 278 Q89 352 109 413.5 Q129 475 168.5 519 Q208 563 267.5 588 Q327 613 406 613 L575 613 L575 791 Q575 920 524.5 976 Q474 1032 380 1032 Q336 1032 298.5 1014.5 Q261 997 234 964.5 Q207 932 191.5 886.5 Q176 841 176 784 L107 785 Q107 852 127 910 Q147 968 183.5 1010.5 Q220 1053 270.5 1077.5 Q321 1102 382 1102 Q439 1102 487 1085.5 Q535 1069 569.5 1032 Q604 995 623.5 935 Q643 875 643 789 L643 221 Q643 192 644.5 162 Q646 132 648.5 104 Q651 76 655 52 Q659 28 664 10 L664 0 L591 0 Z M575 545 L411 545 Q344 545 296 525.5 Q248 506 217 471 Q186 436 171.5 387 Q157 338 157 278 Q157 162 203 106.5 Q249 51 325 51 Q372 51 411 67 Q450 83 481.5 112 Q513 141 536.5 181 Q560 221 575 270 L575 545 Z " />
<g transform="translate(102,13)" >
<path fill="black" d="M93 1280 Q93 1368 128.5 1419 Q164 1470 218 1470 Q251 1470 274.5 1451.5 Q298 1433 318 1410.5 Q338 1388 358.5 1369.5 Q379 1351 407 1351 Q438 1351 460 1384.5 Q482 1418 482 1479 L534 1477 Q534 1433 524.5 1397 Q515 1361 498 1335 Q481 1309 458.5 1295 Q436 1281 409 1281 Q374 1281 351 1300 Q328 1319 309 1341.5 Q290 1364 270 1382.5 Q250 1401 221 1401 Q189 1401 167.5 1370 Q146 1339 146 1279 L93 1280 Z " />
</g>
</glyph>
<glyph glyph-name="adieresis" unicode="&#xe4;" horiz-adv-x="779" d="M591 0 Q585 31 581 74 Q577 117 576 162 Q558 125 533.5 92 Q509 59 476.5 34 Q444 9 404.5 -6 Q365 -21 318 -21 Q266 -21 224 -3 Q182 15 152 52 Q122 89 105.5 145.5 Q89 202 89 278 Q89 352 109 413.5 Q129 475 168.5 519 Q208 563 267.5 588 Q327 613 406 613 L575 613 L575 791 Q575 920 524.5 976 Q474 1032 380 1032 Q336 1032 298.5 1014.5 Q261 997 234 964.5 Q207 932 191.5 886.5 Q176 841 176 784 L107 785 Q107 852 127 910 Q147 968 183.5 1010.5 Q220 1053 270.5 1077.5 Q321 1102 382 1102 Q439 1102 487 1085.5 Q535 1069 569.5 1032 Q604 995 623.5 935 Q643 875 643 789 L643 221 Q643 192 644.5 162 Q646 132 648.5 104 Q651 76 655 52 Q659 28 664 10 L664 0 L591 0 Z M575 545 L411 545 Q344 545 296 525.5 Q248 506 217 471 Q186 436 171.5 387 Q157 338 157 278 Q157 162 203 106.5 Q249 51 325 51 Q372 51 411 67 Q450 83 481.5 112 Q513 141 536.5 181 Q560 221 575 270 L575 545 Z M587 1348 Q561 1348 546 1366.5 Q531 1385 531 1411 Q531 1438 546 1457 Q561 1476 587 1476 Q613 1476 629.5 1457 Q646 1438 646 1411 Q646 1385 629.5 1366.5 Q613 1348 587 1348 Z M229 1348 Q203 1348 187 1366.5 Q171 1385 171 1412 Q171 1438 187 1457 Q203 1476 229 1476 Q254 1476 269.5 1457 Q285 1438 285 1412 Q285 1385 269.5 1366.5 Q254 1348 229 1348 Z " />
<glyph glyph-name="aring" unicode="&#xe5;" horiz-adv-x="779" d="M591 0 Q585 31 581 74 Q577 117 576 162 Q558 125 533.5 92 Q509 59 476.5 34 Q444 9 404.5 -6 Q365 -21 318 -21 Q266 -21 224 -3 Q182 15 152 52 Q122 89 105.5 145.5 Q89 202 89 278 Q89 352 109 413.5 Q129 475 168.5 519 Q208 563 267.5 588 Q327 613 406 613 L575 613 L575 791 Q575 920 524.5 976 Q474 1032 380 1032 Q336 1032 298.5 1014.5 Q261 997 234 964.5 Q207 932 191.5 886.5 Q176 841 176 784 L107 785 Q107 852 127 910 Q147 968 183.5 1010.5 Q220 1053 270.5 1077.5 Q321 1102 382 1102 Q439 1102 487 1085.5 Q535 1069 569.5 1032 Q604 995 623.5 935 Q643 875 643 789 L643 221 Q643 192 644.5 162 Q646 132 648.5 104 Q651 76 655 52 Q659 28 664 10 L664 0 L591 0 Z M575 545 L411 545 Q344 545 296 525.5 Q248 506 217 471 Q186 436 171.5 387 Q157 338 157 278 Q157 162 203 106.5 Q249 51 325 51 Q372 51 411 67 Q450 83 481.5 112 Q513 141 536.5 181 Q560 221 575 270 L575 545 Z M414 1212 Q383 1212 356.5 1225 Q330 1238 310.5 1261.5 Q291 1285 279.5 1317.5 Q268 1350 268 1388 Q268 1426 279.5 1458.5 Q291 1491 310.5 1515 Q330 1539 356.5 1553 Q383 1567 414 1567 Q445 1567 472 1553 Q499 1539 518.5 1515 Q538 1491 549 1458.5 Q560 1426 560 1388 Q560 1350 549 1317.5 Q538 1285 518.5 1261.5 Q499 1238 472 1225 Q445 1212 414 1212 Z M414 1272 Q456 1272 481.5 1304.5 Q507 1337 507 1388 Q507 1440 481.5 1473.5 Q456 1507 414 1507 Q372 1507 346.5 1473.5 Q321 1440 321 1388 Q321 1337 346.5 1304.5 Q372 1272 414 1272 Z " />
<glyph glyph-name="ae" unicode="&#xe6;" horiz-adv-x="1208" d="M555 631 L555 720 Q555 869 511 950 Q467 1031 378 1031 Q329 1031 290.5 1011 Q252 991 225.5 956 Q199 921 185 873 Q171 825 171 769 L104 778 Q104 848 123.5 907.5 Q143 967 178.5 1010 Q214 1053 264.5 1077.5 Q315 1102 378 1102 Q463 1102 523 1045.5 Q583 989 607 874 Q646 981 710.5 1041.5 Q775 1102 856 1102 Q922 1102 973.5 1071 Q1025 1040 1060.5 982 Q1096 924 1115 840.5 Q1134 757 1134 653 L1134 564 L624 564 L624 503 Q624 409 638.5 326.5 Q653 244 683 182.5 Q713 121 760 85.5 Q807 50 872 50 Q944 50 997.5 86 Q1051 122 1089 176 L1116 119 Q1100 94 1078 69.5 Q1056 45 1026 25 Q996 5 957.5 -7.5 Q919 -20 870 -20 Q776 -20 710 38 Q644 96 606 198 Q592 160 567.5 121 Q543 82 507.5 50.5 Q472 19 426 -0.5 Q380 -20 323 -20 Q266 -20 221.5 2 Q177 24 146.5 64 Q116 104 100 160.5 Q84 217 84 287 Q84 364 103 427.5 Q122 491 159 536 Q196 581 251 606 Q306 631 378 631 L555 631 Z M555 562 L379 562 Q321 562 278.5 539.5 Q236 517 208 478.5 Q180 440 166.5 389.5 Q153 339 153 283 Q153 174 198.5 111.5 Q244 49 332 49 Q370 49 405.5 65 Q441 81 470.5 105.5 Q500 130 522 160 Q544 190 555 217 L555 562 Z M1066 633 L1066 665 Q1066 742 1053 808.5 Q1040 875 1014 924.5 Q988 974 948.5 1002.5 Q909 1031 856 1031 Q806 1031 766 1000.5 Q726 970 696.5 916.5 Q667 863 649 790.5 Q631 718 626 633 L1066 633 Z " />
<glyph glyph-name="ccedilla" unicode="&#xe7;" horiz-adv-x="753" d="M323 -386 Q348 -386 373 -378.5 Q398 -371 418 -354.5 Q438 -338 450.5 -313 Q463 -288 463 -252 Q463 -221 456 -200 Q449 -179 434 -166 Q419 -153 396.5 -145.5 Q374 -138 344 -133 L362 -20 Q229 -8 158.5 114 Q88 236 88 477 L88 605 Q88 861 166.5 981.5 Q245 1102 391 1102 Q447 1102 496.5 1081.5 Q546 1061 583 1015.5 Q620 970 642.5 898 Q665 826 667 723 L601 723 Q599 810 581.5 869 Q564 928 535.5 964 Q507 1000 470 1015.5 Q433 1031 391 1031 Q266 1031 211.5 924 Q157 817 157 605 L157 477 Q157 264 211.5 157 Q266 50 392 50 Q431 50 467.5 62 Q504 74 532.5 105.5 Q561 137 579.5 191 Q598 245 601 330 L667 330 Q664 244 644 180 Q624 116 590.5 73 Q557 30 512.5 7 Q468 -16 418 -20 L412 -82 Q433 -86 453 -96 Q473 -106 489 -125.5 Q505 -145 514.5 -176 Q524 -207 524 -252 Q524 -340 473 -392.5 Q422 -445 328 -445 L323 -386 Z " />
<glyph glyph-name="egrave" unicode="&#xe8;" horiz-adv-x="759" >
<path fill="black" d="M84 602 Q84 734 108.5 828.5 Q133 923 175 983.5 Q217 1044 273 1073 Q329 1102 392 1102 Q458 1102 510.5 1077 Q563 1052 599.5 997.5 Q636 943 656 857 Q676 771 676 650 L676 562 L152 562 L152 473 Q152 365 171 285.5 Q190 206 224.5 153.5 Q259 101 306 75 Q353 49 409 49 Q473 49 524 73 Q575 97 618 157 L651 109 Q617 54 558 16.5 Q499 -21 407 -21 Q338 -21 278.5 8 Q219 37 176 98 Q133 159 108.5 252 Q84 345 84 473 L84 602 Z M607 633 L607 666 Q606 851 550.5 941 Q495 1031 392 1031 Q340 1031 297 1007.5 Q254 984 222.5 935 Q191 886 173 811 Q155 736 152 633 L607 633 Z " />
<g transform="translate(99,-2)" >
<path fill="black" d="M277 1265 L106 1536 L195 1536 L348 1265 L277 1265 Z " />
</g>
</glyph>
<glyph glyph-name="eacute" unicode="&#xe9;" horiz-adv-x="759" >
<path fill="black" d="M84 602 Q84 734 108.5 828.5 Q133 923 175 983.5 Q217 1044 273 1073 Q329 1102 392 1102 Q458 1102 510.5 1077 Q563 1052 599.5 997.5 Q636 943 656 857 Q676 771 676 650 L676 562 L152 562 L152 473 Q152 365 171 285.5 Q190 206 224.5 153.5 Q259 101 306 75 Q353 49 409 49 Q473 49 524 73 Q575 97 618 157 L651 109 Q617 54 558 16.5 Q499 -21 407 -21 Q338 -21 278.5 8 Q219 37 176 98 Q133 159 108.5 252 Q84 345 84 473 L84 602 Z M607 633 L607 666 Q606 851 550.5 941 Q495 1031 392 1031 Q340 1031 297 1007.5 Q254 984 222.5 935 Q191 886 173 811 Q155 736 152 633 L607 633 Z " />
<g transform="translate(248,-2)" >
<path fill="black" d="M262 1536 L351 1536 L179 1265 L108 1265 L262 1536 Z " />
</g>
</glyph>
<glyph glyph-name="ecircumflex" unicode="&#xea;" horiz-adv-x="759" >
<path fill="black" d="M84 602 Q84 734 108.5 828.5 Q133 923 175 983.5 Q217 1044 273 1073 Q329 1102 392 1102 Q458 1102 510.5 1077 Q563 1052 599.5 997.5 Q636 943 656 857 Q676 771 676 650 L676 562 L152 562 L152 473 Q152 365 171 285.5 Q190 206 224.5 153.5 Q259 101 306 75 Q353 49 409 49 Q473 49 524 73 Q575 97 618 157 L651 109 Q617 54 558 16.5 Q499 -21 407 -21 Q338 -21 278.5 8 Q219 37 176 98 Q133 159 108.5 252 Q84 345 84 473 L84 602 Z M607 633 L607 666 Q606 851 550.5 941 Q495 1031 392 1031 Q340 1031 297 1007.5 Q254 984 222.5 935 Q191 886 173 811 Q155 736 152 633 L607 633 Z " />
<g transform="translate(92,-2)" >
<path fill="black" d="M129 1276 L288 1520 L333 1520 L494 1272 L494 1262 L427 1262 L310 1454 L193 1262 L129 1262 L129 1276 Z " />
</g>
</glyph>
<glyph glyph-name="edieresis" unicode="&#xeb;" horiz-adv-x="759" d="M84 602 Q84 734 108.5 828.5 Q133 923 175 983.5 Q217 1044 273 1073 Q329 1102 392 1102 Q458 1102 510.5 1077 Q563 1052 599.5 997.5 Q636 943 656 857 Q676 771 676 650 L676 562 L152 562 L152 473 Q152 365 171 285.5 Q190 206 224.5 153.5 Q259 101 306 75 Q353 49 409 49 Q473 49 524 73 Q575 97 618 157 L651 109 Q617 54 558 16.5 Q499 -21 407 -21 Q338 -21 278.5 8 Q219 37 176 98 Q133 159 108.5 252 Q84 345 84 473 L84 602 Z M607 633 L607 666 Q606 851 550.5 941 Q495 1031 392 1031 Q340 1031 297 1007.5 Q254 984 222.5 935 Q191 886 173 811 Q155 736 152 633 L607 633 Z M577 1347 Q551 1347 536 1365.5 Q521 1384 521 1410 Q521 1437 536 1456 Q551 1475 577 1475 Q603 1475 619.5 1456 Q636 1437 636 1410 Q636 1384 619.5 1365.5 Q603 1347 577 1347 Z M219 1347 Q193 1347 177 1365.5 Q161 1384 161 1411 Q161 1437 177 1456 Q193 1475 219 1475 Q244 1475 259.5 1456 Q275 1437 275 1411 Q275 1384 259.5 1365.5 Q244 1347 219 1347 Z " />
<glyph glyph-name="igrave" unicode="&#xec;" horiz-adv-x="346" >
<path fill="black" d="M140 0 L140 1082 L210 1082 L210 0 L140 0 Z " />
<g transform="translate(-127,-21)" >
<path fill="black" d="M277 1265 L106 1536 L195 1536 L348 1265 L277 1265 Z " />
</g>
</glyph>
<glyph glyph-name="iacute" unicode="&#xed;" horiz-adv-x="346" >
<path fill="black" d="M140 0 L140 1082 L210 1082 L210 0 L140 0 Z " />
<g transform="translate(22,-21)" >
<path fill="black" d="M262 1536 L351 1536 L179 1265 L108 1265 L262 1536 Z " />
</g>
</glyph>
<glyph glyph-name="icircumflex" unicode="&#xee;" horiz-adv-x="346" >
<g transform="translate(-134,-21)" >
<path fill="black" d="M129 1276 L288 1520 L333 1520 L494 1272 L494 1262 L427 1262 L310 1454 L193 1262 L129 1262 L129 1276 Z " />
</g>
<path fill="black" d="M140 0 L140 1082 L210 1082 L210 0 L140 0 Z " />
</glyph>
<glyph glyph-name="idieresis" unicode="&#xef;" horiz-adv-x="346" >
<g transform="translate(-194,-21)" >
<path fill="black" d="M185 1349 Q159 1349 144 1367.5 Q129 1386 129 1412 Q129 1439 144 1458 Q159 1477 185 1477 Q211 1477 227.5 1458 Q244 1439 244 1412 Q244 1386 227.5 1367.5 Q211 1349 185 1349 Z M545 1349 Q519 1349 504 1367.5 Q489 1386 489 1412 Q489 1439 504 1458 Q519 1477 545 1477 Q571 1477 587.5 1458 Q604 1439 604 1412 Q604 1386 587.5 1367.5 Q571 1349 545 1349 Z " />
</g>
<path fill="black" d="M140 0 L140 1082 L210 1082 L210 0 L140 0 Z " />
</glyph>
<glyph glyph-name="eth" unicode="&#xf0;" horiz-adv-x="844" d="M728 535 Q728 412 706.5 309.5 Q685 207 646.5 134 Q608 61 555 20.5 Q502 -20 439 -20 Q370 -20 313 17.5 Q256 55 215 120.5 Q174 186 151.5 274.5 Q129 363 129 465 Q129 581 149.5 672.5 Q170 764 207.5 827 Q245 890 299 923.5 Q353 957 420 957 Q489 957 549.5 919 Q610 881 651 810 Q636 959 599.5 1069.5 Q563 1180 509 1262 L356 1132 L328 1189 L473 1312 Q422 1378 361.5 1425.5 Q301 1473 234 1509 L257 1578 Q419 1495 526 1358 L658 1470 L686 1414 L562 1308 Q644 1184 686 1013.5 Q728 843 728 618 L728 535 Z M443 54 Q493 54 533 90 Q573 126 601.5 190 Q630 254 645 342 Q660 430 660 535 L660 620 Q660 636 660 651.5 Q660 667 659 682 Q648 720 628 756 Q608 792 579.5 820.5 Q551 849 513.5 866 Q476 883 429 883 Q370 883 326.5 851 Q283 819 254.5 763 Q226 707 212 630.5 Q198 554 198 465 Q198 388 214 314 Q230 240 261 182.5 Q292 125 338 89.5 Q384 54 443 54 Z " />
<glyph glyph-name="ntilde" unicode="&#xf1;" horiz-adv-x="803" >
<path fill="black" d="M132 1082 L198 1082 L200 878 Q218 927 242.5 968 Q267 1009 298 1039 Q329 1069 365.5 1085.5 Q402 1102 444 1102 Q498 1102 540.5 1079.5 Q583 1057 612.5 1009 Q642 961 657.5 885 Q673 809 673 702 L673 0 L605 0 L605 702 Q605 798 592 862 Q579 926 555.5 963.5 Q532 1001 499.5 1016.5 Q467 1032 427 1032 Q379 1032 341.5 1003.5 Q304 975 276 930.5 Q248 886 229 831.5 Q210 777 200 725 L200 0 L132 0 L132 1082 Z " />
<g transform="translate(101,11)" >
<path fill="black" d="M93 1280 Q93 1368 128.5 1419 Q164 1470 218 1470 Q251 1470 274.5 1451.5 Q298 1433 318 1410.5 Q338 1388 358.5 1369.5 Q379 1351 407 1351 Q438 1351 460 1384.5 Q482 1418 482 1479 L534 1477 Q534 1433 524.5 1397 Q515 1361 498 1335 Q481 1309 458.5 1295 Q436 1281 409 1281 Q374 1281 351 1300 Q328 1319 309 1341.5 Q290 1364 270 1382.5 Q250 1401 221 1401 Q189 1401 167.5 1370 Q146 1339 146 1279 L93 1280 Z " />
</g>
</glyph>
<glyph glyph-name="ograve" unicode="&#xf2;" horiz-adv-x="808" >
<path fill="black" d="M101 603 Q101 723 121.5 815.5 Q142 908 181 972 Q220 1036 276 1069 Q332 1102 403 1102 Q475 1102 531.5 1069 Q588 1036 627 972 Q666 908 686.5 815.5 Q707 723 707 603 L707 479 Q707 359 686.5 266 Q666 173 627 109.5 Q588 46 532 12.5 Q476 -21 405 -21 Q333 -21 276.5 12.5 Q220 46 181 109.5 Q142 173 121.5 266 Q101 359 101 479 L101 603 Z M169 479 Q169 385 183.5 306 Q198 227 227.5 170 Q257 113 301 81.5 Q345 50 405 50 Q465 50 509 81.5 Q553 113 582 170 Q611 227 625 306 Q639 385 639 479 L639 603 Q639 695 624.5 773.5 Q610 852 580.5 909 Q551 966 507 998.5 Q463 1031 403 1031 Q344 1031 300 998.5 Q256 966 227 909 Q198 852 183.5 773.5 Q169 695 169 603 L169 479 Z " />
<g transform="translate(103,-3)" >
<path fill="black" d="M277 1265 L106 1536 L195 1536 L348 1265 L277 1265 Z " />
</g>
</glyph>
<glyph glyph-name="oacute" unicode="&#xf3;" horiz-adv-x="808" >
<path fill="black" d="M101 603 Q101 723 121.5 815.5 Q142 908 181 972 Q220 1036 276 1069 Q332 1102 403 1102 Q475 1102 531.5 1069 Q588 1036 627 972 Q666 908 686.5 815.5 Q707 723 707 603 L707 479 Q707 359 686.5 266 Q666 173 627 109.5 Q588 46 532 12.5 Q476 -21 405 -21 Q333 -21 276.5 12.5 Q220 46 181 109.5 Q142 173 121.5 266 Q101 359 101 479 L101 603 Z M169 479 Q169 385 183.5 306 Q198 227 227.5 170 Q257 113 301 81.5 Q345 50 405 50 Q465 50 509 81.5 Q553 113 582 170 Q611 227 625 306 Q639 385 639 479 L639 603 Q639 695 624.5 773.5 Q610 852 580.5 909 Q551 966 507 998.5 Q463 1031 403 1031 Q344 1031 300 998.5 Q256 966 227 909 Q198 852 183.5 773.5 Q169 695 169 603 L169 479 Z " />
<g transform="translate(252,-3)" >
<path fill="black" d="M262 1536 L351 1536 L179 1265 L108 1265 L262 1536 Z " />
</g>
</glyph>
<glyph glyph-name="ocircumflex" unicode="&#xf4;" horiz-adv-x="808" >
<path fill="black" d="M101 603 Q101 723 121.5 815.5 Q142 908 181 972 Q220 1036 276 1069 Q332 1102 403 1102 Q475 1102 531.5 1069 Q588 1036 627 972 Q666 908 686.5 815.5 Q707 723 707 603 L707 479 Q707 359 686.5 266 Q666 173 627 109.5 Q588 46 532 12.5 Q476 -21 405 -21 Q333 -21 276.5 12.5 Q220 46 181 109.5 Q142 173 121.5 266 Q101 359 101 479 L101 603 Z M169 479 Q169 385 183.5 306 Q198 227 227.5 170 Q257 113 301 81.5 Q345 50 405 50 Q465 50 509 81.5 Q553 113 582 170 Q611 227 625 306 Q639 385 639 479 L639 603 Q639 695 624.5 773.5 Q610 852 580.5 909 Q551 966 507 998.5 Q463 1031 403 1031 Q344 1031 300 998.5 Q256 966 227 909 Q198 852 183.5 773.5 Q169 695 169 603 L169 479 Z " />
<g transform="translate(96,-3)" >
<path fill="black" d="M129 1276 L288 1520 L333 1520 L494 1272 L494 1262 L427 1262 L310 1454 L193 1262 L129 1262 L129 1276 Z " />
</g>
</glyph>
<glyph glyph-name="otilde" unicode="&#xf5;" horiz-adv-x="808" >
<path fill="black" d="M101 603 Q101 723 121.5 815.5 Q142 908 181 972 Q220 1036 276 1069 Q332 1102 403 1102 Q475 1102 531.5 1069 Q588 1036 627 972 Q666 908 686.5 815.5 Q707 723 707 603 L707 479 Q707 359 686.5 266 Q666 173 627 109.5 Q588 46 532 12.5 Q476 -21 405 -21 Q333 -21 276.5 12.5 Q220 46 181 109.5 Q142 173 121.5 266 Q101 359 101 479 L101 603 Z M169 479 Q169 385 183.5 306 Q198 227 227.5 170 Q257 113 301 81.5 Q345 50 405 50 Q465 50 509 81.5 Q553 113 582 170 Q611 227 625 306 Q639 385 639 479 L639 603 Q639 695 624.5 773.5 Q610 852 580.5 909 Q551 966 507 998.5 Q463 1031 403 1031 Q344 1031 300 998.5 Q256 966 227 909 Q198 852 183.5 773.5 Q169 695 169 603 L169 479 Z " />
<g transform="translate(96,11)" >
<path fill="black" d="M93 1280 Q93 1368 128.5 1419 Q164 1470 218 1470 Q251 1470 274.5 1451.5 Q298 1433 318 1410.5 Q338 1388 358.5 1369.5 Q379 1351 407 1351 Q438 1351 460 1384.5 Q482 1418 482 1479 L534 1477 Q534 1433 524.5 1397 Q515 1361 498 1335 Q481 1309 458.5 1295 Q436 1281 409 1281 Q374 1281 351 1300 Q328 1319 309 1341.5 Q290 1364 270 1382.5 Q250 1401 221 1401 Q189 1401 167.5 1370 Q146 1339 146 1279 L93 1280 Z " />
</g>
</glyph>
<glyph glyph-name="odieresis" unicode="&#xf6;" horiz-adv-x="808" >
<g transform="translate(36,-3)" >
<path fill="black" d="M185 1349 Q159 1349 144 1367.5 Q129 1386 129 1412 Q129 1439 144 1458 Q159 1477 185 1477 Q211 1477 227.5 1458 Q244 1439 244 1412 Q244 1386 227.5 1367.5 Q211 1349 185 1349 Z M545 1349 Q519 1349 504 1367.5 Q489 1386 489 1412 Q489 1439 504 1458 Q519 1477 545 1477 Q571 1477 587.5 1458 Q604 1439 604 1412 Q604 1386 587.5 1367.5 Q571 1349 545 1349 Z " />
</g>
<path fill="black" d="M101 603 Q101 723 121.5 815.5 Q142 908 181 972 Q220 1036 276 1069 Q332 1102 403 1102 Q475 1102 531.5 1069 Q588 1036 627 972 Q666 908 686.5 815.5 Q707 723 707 603 L707 479 Q707 359 686.5 266 Q666 173 627 109.5 Q588 46 532 12.5 Q476 -21 405 -21 Q333 -21 276.5 12.5 Q220 46 181 109.5 Q142 173 121.5 266 Q101 359 101 479 L101 603 Z M169 479 Q169 385 183.5 306 Q198 227 227.5 170 Q257 113 301 81.5 Q345 50 405 50 Q465 50 509 81.5 Q553 113 582 170 Q611 227 625 306 Q639 385 639 479 L639 603 Q639 695 624.5 773.5 Q610 852 580.5 909 Q551 966 507 998.5 Q463 1031 403 1031 Q344 1031 300 998.5 Q256 966 227 909 Q198 852 183.5 773.5 Q169 695 169 603 L169 479 Z " />
</glyph>
<glyph glyph-name="divide" unicode="&#xf7;" horiz-adv-x="828" d="M74 672 L74 746 L742 746 L742 672 L74 672 Z M414 234 Q391 234 377 252.5 Q363 271 363 298 Q363 324 377 343 Q391 362 414 362 Q437 362 451.5 343 Q466 324 466 298 Q466 271 451.5 252.5 Q437 234 414 234 Z M414 1018 Q391 1018 377 1036.5 Q363 1055 363 1082 Q363 1108 377 1127 Q391 1146 414 1146 Q437 1146 451.5 1127 Q466 1108 466 1082 Q466 1055 451.5 1036.5 Q437 1018 414 1018 Z " />
<glyph glyph-name="oslash" unicode="&#xf8;" horiz-adv-x="980" d="M227 62 Q170 124 140.5 229 Q111 334 111 479 L111 603 Q111 723 131.5 815.5 Q152 908 191 972 Q230 1036 286 1069 Q342 1102 413 1102 Q492 1102 552 1063 L602 1217 L658 1217 L596 1026 Q655 965 686 858.5 Q717 752 717 603 L717 479 Q717 359 696.5 266 Q676 173 637 109.5 Q598 46 542 12.5 Q486 -21 415 -21 Q332 -21 270 23 L216 -143 L160 -143 L227 62 Z M293 95 Q346 50 415 50 Q475 50 519 81.5 Q563 113 592 170 Q621 227 635 306 Q649 385 649 479 L649 603 Q649 711 629.5 799 Q610 887 569 945 L293 95 Z M528 990 Q504 1010 475.5 1020.5 Q447 1031 413 1031 Q354 1031 310 998.5 Q266 966 237 909 Q208 852 193.5 773.5 Q179 695 179 603 L179 479 Q179 372 197 286 Q215 200 253 143 L528 990 Z " />
<glyph glyph-name="ugrave" unicode="&#xf9;" horiz-adv-x="803" >
<path fill="black" d="M130 1082 L198 1082 L198 391 Q198 296 211.5 231 Q225 166 249 126.5 Q273 87 305.5 69.5 Q338 52 375 52 Q426 52 464.5 70 Q503 88 530.5 120 Q558 152 575.5 195.5 Q593 239 602 289 L602 1082 L672 1082 L672 0 L605 0 L603 147 Q570 69 512 24.5 Q454 -20 368 -20 Q315 -20 271 2.5 Q227 25 195.5 74 Q164 123 147 202 Q130 281 130 393 L130 1082 Z " />
<g transform="translate(108,0)" >
<path fill="black" d="M277 1265 L106 1536 L195 1536 L348 1265 L277 1265 Z " />
</g>
</glyph>
<glyph glyph-name="uacute" unicode="&#xfa;" horiz-adv-x="803" >
<path fill="black" d="M130 1082 L198 1082 L198 391 Q198 296 211.5 231 Q225 166 249 126.5 Q273 87 305.5 69.5 Q338 52 375 52 Q426 52 464.5 70 Q503 88 530.5 120 Q558 152 575.5 195.5 Q593 239 602 289 L602 1082 L672 1082 L672 0 L605 0 L603 147 Q570 69 512 24.5 Q454 -20 368 -20 Q315 -20 271 2.5 Q227 25 195.5 74 Q164 123 147 202 Q130 281 130 393 L130 1082 Z " />
<g transform="translate(257,0)" >
<path fill="black" d="M262 1536 L351 1536 L179 1265 L108 1265 L262 1536 Z " />
</g>
</glyph>
<glyph glyph-name="ucircumflex" unicode="&#xfb;" horiz-adv-x="803" >
<path fill="black" d="M130 1082 L198 1082 L198 391 Q198 296 211.5 231 Q225 166 249 126.5 Q273 87 305.5 69.5 Q338 52 375 52 Q426 52 464.5 70 Q503 88 530.5 120 Q558 152 575.5 195.5 Q593 239 602 289 L602 1082 L672 1082 L672 0 L605 0 L603 147 Q570 69 512 24.5 Q454 -20 368 -20 Q315 -20 271 2.5 Q227 25 195.5 74 Q164 123 147 202 Q130 281 130 393 L130 1082 Z " />
<g transform="translate(101,0)" >
<path fill="black" d="M129 1276 L288 1520 L333 1520 L494 1272 L494 1262 L427 1262 L310 1454 L193 1262 L129 1262 L129 1276 Z " />
</g>
</glyph>
<glyph glyph-name="udieresis" unicode="&#xfc;" horiz-adv-x="803" d="M130 1082 L198 1082 L198 391 Q198 296 211.5 231 Q225 166 249 126.5 Q273 87 305.5 69.5 Q338 52 375 52 Q426 52 464.5 70 Q503 88 530.5 120 Q558 152 575.5 195.5 Q593 239 602 289 L602 1082 L672 1082 L672 0 L605 0 L603 147 Q570 69 512 24.5 Q454 -20 368 -20 Q315 -20 271 2.5 Q227 25 195.5 74 Q164 123 147 202 Q130 281 130 393 L130 1082 Z M586 1349 Q560 1349 545 1367.5 Q530 1386 530 1412 Q530 1439 545 1458 Q560 1477 586 1477 Q612 1477 628.5 1458 Q645 1439 645 1412 Q645 1386 628.5 1367.5 Q612 1349 586 1349 Z M228 1349 Q202 1349 186 1367.5 Q170 1386 170 1413 Q170 1439 186 1458 Q202 1477 228 1477 Q253 1477 268.5 1458 Q284 1439 284 1413 Q284 1386 268.5 1367.5 Q253 1349 228 1349 Z " />
<glyph glyph-name="yacute" unicode="&#xfd;" horiz-adv-x="706" >
<path fill="black" d="M90 -358 Q99 -361 113.5 -363.5 Q128 -366 135 -366 Q167 -366 191 -351 Q215 -336 233.5 -309 Q252 -282 265.5 -243.5 Q279 -205 291 -158 L329 1 L49 1082 L124 1082 L360 128 L587 1082 L661 1082 L349 -178 Q340 -213 327 -258 Q314 -303 291.5 -343 Q269 -383 235 -410 Q201 -437 151 -437 Q137 -437 118.5 -433.5 Q100 -430 91 -425 L90 -358 Z " />
<g transform="translate(217,0)" >
<path fill="black" d="M262 1536 L351 1536 L179 1265 L108 1265 L262 1536 Z " />
</g>
</glyph>
<glyph glyph-name="thorn" unicode="&#xfe;" horiz-adv-x="812" d="M133 1536 L202 1536 L202 926 Q238 1007 295 1054.5 Q352 1102 431 1102 Q497 1102 548 1063.5 Q599 1025 634.5 954 Q670 883 688.5 781 Q707 679 707 552 L707 531 Q707 408 688.5 306.5 Q670 205 635 132.5 Q600 60 549 20 Q498 -20 433 -20 Q352 -20 295 23.5 Q238 67 202 139 L202 -416 L133 -416 L133 1536 Z M202 257 Q215 212 234.5 174.5 Q254 137 281 109.5 Q308 82 343.5 66.5 Q379 51 422 51 Q477 51 517.5 87 Q558 123 585 187.5 Q612 252 625 340 Q638 428 638 531 L638 552 Q638 655 625 743 Q612 831 585 895 Q558 959 517 995 Q476 1031 420 1031 Q372 1031 336.5 1010.5 Q301 990 274.5 957 Q248 924 230.5 882 Q213 840 202 796 L202 257 Z " />
<glyph glyph-name="ydieresis" unicode="&#xff;" horiz-adv-x="706" d="M90 -358 Q99 -361 113.5 -363.5 Q128 -366 135 -366 Q167 -366 191 -351 Q215 -336 233.5 -309 Q252 -282 265.5 -243.5 Q279 -205 291 -158 L329 1 L49 1082 L124 1082 L360 128 L587 1082 L661 1082 L349 -178 Q340 -213 327 -258 Q314 -303 291.5 -343 Q269 -383 235 -410 Q201 -437 151 -437 Q137 -437 118.5 -433.5 Q100 -430 91 -425 L90 -358 Z M546 1349 Q520 1349 505 1367.5 Q490 1386 490 1412 Q490 1439 505 1458 Q520 1477 546 1477 Q572 1477 588.5 1458 Q605 1439 605 1412 Q605 1386 588.5 1367.5 Q572 1349 546 1349 Z M188 1349 Q162 1349 146 1367.5 Q130 1386 130 1413 Q130 1439 146 1458 Q162 1477 188 1477 Q213 1477 228.5 1458 Q244 1439 244 1413 Q244 1386 228.5 1367.5 Q213 1349 188 1349 Z " />
<glyph glyph-name="Amacron" unicode="&#x100;" horiz-adv-x="893" d="M412 1456 L481 1456 L847 0 L773 0 L670 426 L223 426 L120 0 L46 0 L412 1456 Z M653 497 L446 1353 L240 497 L653 497 Z M249 1766 L648 1766 L648 1697 L249 1697 L249 1766 Z " />
<glyph glyph-name="amacron" unicode="&#x101;" horiz-adv-x="779" d="M591 0 Q585 31 581 74 Q577 117 576 162 Q558 125 533.5 92 Q509 59 476.5 34 Q444 9 404.5 -6 Q365 -21 318 -21 Q266 -21 224 -3 Q182 15 152 52 Q122 89 105.5 145.5 Q89 202 89 278 Q89 352 109 413.5 Q129 475 168.5 519 Q208 563 267.5 588 Q327 613 406 613 L575 613 L575 791 Q575 920 524.5 976 Q474 1032 380 1032 Q336 1032 298.5 1014.5 Q261 997 234 964.5 Q207 932 191.5 886.5 Q176 841 176 784 L107 785 Q107 852 127 910 Q147 968 183.5 1010.5 Q220 1053 270.5 1077.5 Q321 1102 382 1102 Q439 1102 487 1085.5 Q535 1069 569.5 1032 Q604 995 623.5 935 Q643 875 643 789 L643 221 Q643 192 644.5 162 Q646 132 648.5 104 Q651 76 655 52 Q659 28 664 10 L664 0 L591 0 Z M575 545 L411 545 Q344 545 296 525.5 Q248 506 217 471 Q186 436 171.5 387 Q157 338 157 278 Q157 162 203 106.5 Q249 51 325 51 Q372 51 411 67 Q450 83 481.5 112 Q513 141 536.5 181 Q560 221 575 270 L575 545 Z M214 1448 L613 1448 L613 1379 L214 1379 L214 1448 Z " />
<glyph glyph-name="Abreve" unicode="&#x102;" horiz-adv-x="893" >
<path fill="black" d="M412 1456 L481 1456 L847 0 L773 0 L670 426 L223 426 L120 0 L46 0 L412 1456 Z M653 497 L446 1353 L240 497 L653 497 Z " />
<g transform="translate(93,322)" >
<path fill="black" d="M184 1488 Q184 1450 193 1416.5 Q202 1383 221.5 1357.5 Q241 1332 272.5 1317.5 Q304 1303 350 1303 Q394 1303 425 1318 Q456 1333 476 1358.5 Q496 1384 505.5 1417.5 Q515 1451 515 1488 L582 1488 Q582 1433 566 1386.5 Q550 1340 520 1306.5 Q490 1273 447 1254.5 Q404 1236 350 1236 Q296 1236 253 1254.5 Q210 1273 180 1306.5 Q150 1340 134 1386.5 Q118 1433 118 1488 L184 1488 Z " />
</g>
</glyph>
<glyph glyph-name="abreve" unicode="&#x103;" horiz-adv-x="779" >
<path fill="black" d="M591 0 Q585 31 581 74 Q577 117 576 162 Q558 125 533.5 92 Q509 59 476.5 34 Q444 9 404.5 -6 Q365 -21 318 -21 Q266 -21 224 -3 Q182 15 152 52 Q122 89 105.5 145.5 Q89 202 89 278 Q89 352 109 413.5 Q129 475 168.5 519 Q208 563 267.5 588 Q327 613 406 613 L575 613 L575 791 Q575 920 524.5 976 Q474 1032 380 1032 Q336 1032 298.5 1014.5 Q261 997 234 964.5 Q207 932 191.5 886.5 Q176 841 176 784 L107 785 Q107 852 127 910 Q147 968 183.5 1010.5 Q220 1053 270.5 1077.5 Q321 1102 382 1102 Q439 1102 487 1085.5 Q535 1069 569.5 1032 Q604 995 623.5 935 Q643 875 643 789 L643 221 Q643 192 644.5 162 Q646 132 648.5 104 Q651 76 655 52 Q659 28 664 10 L664 0 L591 0 Z M575 545 L411 545 Q344 545 296 525.5 Q248 506 217 471 Q186 436 171.5 387 Q157 338 157 278 Q157 162 203 106.5 Q249 51 325 51 Q372 51 411 67 Q450 83 481.5 112 Q513 141 536.5 181 Q560 221 575 270 L575 545 Z " />
<g transform="translate(58,4)" >
<path fill="black" d="M184 1488 Q184 1450 193 1416.5 Q202 1383 221.5 1357.5 Q241 1332 272.5 1317.5 Q304 1303 350 1303 Q394 1303 425 1318 Q456 1333 476 1358.5 Q496 1384 505.5 1417.5 Q515 1451 515 1488 L582 1488 Q582 1433 566 1386.5 Q550 1340 520 1306.5 Q490 1273 447 1254.5 Q404 1236 350 1236 Q296 1236 253 1254.5 Q210 1273 180 1306.5 Q150 1340 134 1386.5 Q118 1433 118 1488 L184 1488 Z " />
</g>
</glyph>
<glyph glyph-name="Aogonek" unicode="&#x104;" horiz-adv-x="893" d="M412 1456 L481 1456 L847 0 L837 0 Q813 -27 791.5 -55 Q770 -83 753 -113 Q736 -143 726 -175 Q716 -207 716 -242 Q716 -278 728 -305.5 Q740 -333 774 -333 Q800 -333 816.5 -321 Q833 -309 845 -297 L856 -358 Q842 -373 820 -387.5 Q798 -402 764 -402 Q716 -402 686 -363.5 Q656 -325 656 -246 Q656 -180 689 -116.5 Q722 -53 773 1 L670 426 L223 426 L120 0 L46 0 L412 1456 Z M653 497 L446 1353 L240 497 L653 497 Z " />
<glyph glyph-name="aogonek" unicode="&#x105;" horiz-adv-x="779" d="M591 0 Q585 31 581 74 Q577 117 576 162 Q558 125 533.5 92 Q509 59 476.5 34 Q444 9 404.5 -6 Q365 -21 318 -21 Q266 -21 224 -3 Q182 15 152 52 Q122 89 105.5 145.5 Q89 202 89 278 Q89 352 109 413.5 Q129 475 168.5 519 Q208 563 267.5 588 Q327 613 406 613 L575 613 L575 791 Q575 920 524.5 976 Q474 1032 380 1032 Q336 1032 298.5 1014.5 Q261 997 234 964.5 Q207 932 191.5 886.5 Q176 841 176 784 L107 785 Q107 852 127 910 Q147 968 183.5 1010.5 Q220 1053 270.5 1077.5 Q321 1102 382 1102 Q439 1102 487 1085.5 Q535 1069 569.5 1032 Q604 995 623.5 935 Q643 875 643 789 L643 221 Q643 192 644.5 162 Q646 132 648.5 104 Q651 76 655 52 Q659 28 664 10 L664 0 L657 0 Q633 -27 611.5 -55 Q590 -83 573 -113 Q556 -143 546 -175 Q536 -207 536 -242 Q536 -278 548 -305.5 Q560 -333 594 -333 Q620 -333 636.5 -321 Q653 -309 665 -297 L676 -358 Q662 -373 640 -387.5 Q618 -402 584 -402 Q536 -402 506 -363.5 Q476 -325 476 -246 Q476 -181 508.5 -117.5 Q541 -54 592 0 L591 0 Z M575 545 L411 545 Q344 545 296 525.5 Q248 506 217 471 Q186 436 171.5 387 Q157 338 157 278 Q157 162 203 106.5 Q249 51 325 51 Q372 51 411 67 Q450 83 481.5 112 Q513 141 536.5 181 Q560 221 575 270 L575 545 Z " />
<glyph glyph-name="Cacute" unicode="&#x106;" horiz-adv-x="940" >
<path fill="black" d="M123 915 Q123 1049 147.5 1153.5 Q172 1258 218 1329.5 Q264 1401 330.5 1438.5 Q397 1476 480 1476 Q557 1476 619 1452 Q681 1428 726 1372.5 Q771 1317 798.5 1228 Q826 1139 833 1008 L762 1008 Q755 1119 734.5 1195 Q714 1271 679 1317.5 Q644 1364 594.5 1384.5 Q545 1405 480 1405 Q343 1405 268.5 1280 Q194 1155 194 917 L194 560 Q194 438 213 343 Q232 248 268 183 Q304 118 357 84.5 Q410 51 478 51 Q542 51 592 69 Q642 87 677.5 132 Q713 177 734 254 Q755 331 762 449 L833 449 Q826 318 798.5 228.5 Q771 139 725.5 83.5 Q680 28 617.5 3.5 Q555 -21 478 -21 Q395 -21 329 18 Q263 57 217.5 131 Q172 205 147.5 313.5 Q123 422 123 560 L123 915 Z " />
<g transform="translate(325,340)" >
<path fill="black" d="M262 1536 L351 1536 L179 1265 L108 1265 L262 1536 Z " />
</g>
</glyph>
<glyph glyph-name="cacute" unicode="&#x107;" horiz-adv-x="753" >
<path fill="black" d="M88 605 Q88 861 166.5 981.5 Q245 1102 391 1102 Q447 1102 496.5 1081.5 Q546 1061 583 1015.5 Q620 970 642.5 898 Q665 826 667 723 L601 723 Q599 810 581.5 869 Q564 928 535.5 964 Q507 1000 470 1015.5 Q433 1031 391 1031 Q266 1031 211.5 924 Q157 817 157 605 L157 477 Q157 264 211.5 157 Q266 50 392 50 Q431 50 467.5 62 Q504 74 532.5 105.5 Q561 137 579.5 191 Q598 245 601 330 L667 330 Q664 238 641.5 171.5 Q619 105 581.5 62.5 Q544 20 495.5 -0.5 Q447 -21 392 -21 Q245 -21 166.5 100.5 Q88 222 88 477 L88 605 Z " />
<g transform="translate(234,-3)" >
<path fill="black" d="M262 1536 L351 1536 L179 1265 L108 1265 L262 1536 Z " />
</g>
</glyph>
<glyph glyph-name="Cdotaccent" unicode="&#x10a;" horiz-adv-x="940" >
<path fill="black" d="M123 915 Q123 1049 147.5 1153.5 Q172 1258 218 1329.5 Q264 1401 330.5 1438.5 Q397 1476 480 1476 Q557 1476 619 1452 Q681 1428 726 1372.5 Q771 1317 798.5 1228 Q826 1139 833 1008 L762 1008 Q755 1119 734.5 1195 Q714 1271 679 1317.5 Q644 1364 594.5 1384.5 Q545 1405 480 1405 Q343 1405 268.5 1280 Q194 1155 194 917 L194 560 Q194 438 213 343 Q232 248 268 183 Q304 118 357 84.5 Q410 51 478 51 Q542 51 592 69 Q642 87 677.5 132 Q713 177 734 254 Q755 331 762 449 L833 449 Q826 318 798.5 228.5 Q771 139 725.5 83.5 Q680 28 617.5 3.5 Q555 -21 478 -21 Q395 -21 329 18 Q263 57 217.5 131 Q172 205 147.5 313.5 Q123 422 123 560 L123 915 Z " />
<g transform="translate(294,1676)" >
<path fill="black" d="M185 -7 Q158 -7 142 11.5 Q126 30 126 57 Q126 85 142 104 Q158 123 185 123 Q211 123 228 104 Q245 85 245 57 Q245 30 228 11.5 Q211 -7 185 -7 Z " />
</g>
</glyph>
<glyph glyph-name="cdotaccent" unicode="&#x10b;" horiz-adv-x="753" >
<path fill="black" d="M88 605 Q88 861 166.5 981.5 Q245 1102 391 1102 Q447 1102 496.5 1081.5 Q546 1061 583 1015.5 Q620 970 642.5 898 Q665 826 667 723 L601 723 Q599 810 581.5 869 Q564 928 535.5 964 Q507 1000 470 1015.5 Q433 1031 391 1031 Q266 1031 211.5 924 Q157 817 157 605 L157 477 Q157 264 211.5 157 Q266 50 392 50 Q431 50 467.5 62 Q504 74 532.5 105.5 Q561 137 579.5 191 Q598 245 601 330 L667 330 Q664 238 641.5 171.5 Q619 105 581.5 62.5 Q544 20 495.5 -0.5 Q447 -21 392 -21 Q245 -21 166.5 100.5 Q88 222 88 477 L88 605 Z " />
<g transform="translate(203,1333)" >
<path fill="black" d="M185 -7 Q158 -7 142 11.5 Q126 30 126 57 Q126 85 142 104 Q158 123 185 123 Q211 123 228 104 Q245 85 245 57 Q245 30 228 11.5 Q211 -7 185 -7 Z " />
</g>
</glyph>
<glyph glyph-name="Ccaron" unicode="&#x10c;" horiz-adv-x="940" >
<path fill="black" d="M123 915 Q123 1049 147.5 1153.5 Q172 1258 218 1329.5 Q264 1401 330.5 1438.5 Q397 1476 480 1476 Q557 1476 619 1452 Q681 1428 726 1372.5 Q771 1317 798.5 1228 Q826 1139 833 1008 L762 1008 Q755 1119 734.5 1195 Q714 1271 679 1317.5 Q644 1364 594.5 1384.5 Q545 1405 480 1405 Q343 1405 268.5 1280 Q194 1155 194 917 L194 560 Q194 438 213 343 Q232 248 268 183 Q304 118 357 84.5 Q410 51 478 51 Q542 51 592 69 Q642 87 677.5 132 Q713 177 734 254 Q755 331 762 449 L833 449 Q826 318 798.5 228.5 Q771 139 725.5 83.5 Q680 28 617.5 3.5 Q555 -21 478 -21 Q395 -21 329 18 Q263 57 217.5 131 Q172 205 147.5 313.5 Q123 422 123 560 L123 915 Z " />
<g transform="translate(175,345)" >
<path fill="black" d="M120 1500 L120 1511 L184 1511 L304 1302 L424 1511 L486 1511 L486 1498 L331 1244 L276 1244 L120 1500 Z " />
</g>
</glyph>
<glyph glyph-name="ccaron" unicode="&#x10d;" horiz-adv-x="753" >
<path fill="black" d="M88 605 Q88 861 166.5 981.5 Q245 1102 391 1102 Q447 1102 496.5 1081.5 Q546 1061 583 1015.5 Q620 970 642.5 898 Q665 826 667 723 L601 723 Q599 810 581.5 869 Q564 928 535.5 964 Q507 1000 470 1015.5 Q433 1031 391 1031 Q266 1031 211.5 924 Q157 817 157 605 L157 477 Q157 264 211.5 157 Q266 50 392 50 Q431 50 467.5 62 Q504 74 532.5 105.5 Q561 137 579.5 191 Q598 245 601 330 L667 330 Q664 238 641.5 171.5 Q619 105 581.5 62.5 Q544 20 495.5 -0.5 Q447 -21 392 -21 Q245 -21 166.5 100.5 Q88 222 88 477 L88 605 Z " />
<g transform="translate(84,2)" >
<path fill="black" d="M120 1500 L120 1511 L184 1511 L304 1302 L424 1511 L486 1511 L486 1498 L331 1244 L276 1244 L120 1500 Z " />
</g>
</glyph>
<glyph glyph-name="Dcaron" unicode="&#x10e;" horiz-adv-x="947" d="M151 1456 L424 1456 Q513 1456 587 1419 Q661 1382 714.5 1311 Q768 1240 797.5 1135 Q827 1030 827 895 L827 561 Q827 426 797.5 321 Q768 216 714.5 145 Q661 74 586.5 37 Q512 0 422 0 L151 0 L151 1456 Z M422 72 Q499 72 561 104.5 Q623 137 667 199 Q711 261 734.5 352.5 Q758 444 758 561 L758 898 Q758 1015 734 1105.5 Q710 1196 666.5 1258.5 Q623 1321 561.5 1353 Q500 1385 424 1385 L221 1385 L221 72 L422 72 Z M391 1568 L235 1824 L235 1835 L299 1835 L419 1626 L539 1835 L601 1835 L601 1822 L446 1568 L391 1568 Z " />
<glyph glyph-name="dcaron" unicode="&#x10f;" horiz-adv-x="1103" d="M100 595 Q100 733 119 829.5 Q138 926 173.5 986.5 Q209 1047 260 1074.5 Q311 1102 376 1102 Q383 1102 390 1102 Q397 1102 403 1101 Q404 1112 404.5 1123.5 Q405 1135 405 1147 L405 1226 L468 1226 L468 1149 Q468 1117 465 1085 Q512 1066 546.5 1028 Q581 990 605 936 L605 1536 L674 1536 L674 0 L609 0 L606 132 Q572 63 514.5 21 Q457 -21 376 -21 Q311 -21 259.5 8.5 Q208 38 172.5 100 Q137 162 118.5 258.5 Q100 355 100 488 L100 595 Z M605 825 Q596 856 583 886 Q570 916 551.5 942.5 Q533 969 508.5 989 Q484 1009 453 1020 Q435 946 398 893 L358 932 Q381 982 393 1031 L386 1031 Q275 1031 222.5 926.5 Q170 822 170 595 L170 488 Q170 260 222.5 155.5 Q275 51 385 51 Q428 51 463 64.5 Q498 78 525 102 Q552 126 572 158.5 Q592 191 605 229 L605 825 Z " />
<glyph glyph-name="Dcroat" unicode="&#x110;" horiz-adv-x="947" >
<path fill="black" d="M151 705 L55 705 L55 776 L151 776 L151 1456 L424 1456 Q513 1456 587 1419 Q661 1382 714.5 1311 Q768 1240 797.5 1135 Q827 1030 827 895 L827 561 Q827 426 797.5 321 Q768 216 714.5 145 Q661 74 586.5 37 Q512 0 422 0 L151 0 L151 705 Z M422 72 Q499 72 561 104.5 Q623 137 667 199 Q711 261 734.5 352.5 Q758 444 758 561 L758 898 Q758 1015 734 1105.5 Q710 1196 666.5 1258.5 Q623 1321 561.5 1353 Q500 1385 424 1385 L221 1385 L221 776 L461 776 L461 705 L221 705 L221 72 L422 72 Z " />
</glyph>
<glyph glyph-name="dslash" unicode="&#x111;" horiz-adv-x="825" d="M607 147 Q572 72 514.5 26 Q457 -20 376 -20 Q311 -20 260 20 Q209 60 173.5 132.5 Q138 205 119 306.5 Q100 408 100 531 L100 552 Q100 679 119 781 Q138 883 173.5 954 Q209 1025 260 1063.5 Q311 1102 376 1102 Q456 1102 513 1054 Q570 1006 605 924 L605 1273 L380 1273 L380 1343 L605 1343 L605 1536 L674 1536 L674 1343 L784 1343 L784 1273 L674 1273 L674 0 L610 0 L607 147 Z M605 796 Q594 840 576 882 Q558 924 532 957 Q506 990 470 1010.5 Q434 1031 386 1031 Q331 1031 290 995 Q249 959 222.5 895 Q196 831 183 743 Q170 655 170 552 L170 531 Q170 428 183 340 Q196 252 222.5 188 Q249 124 289.5 88 Q330 52 385 52 Q428 52 463 67.5 Q498 83 525 110.5 Q552 138 572 175.5 Q592 213 605 258 L605 796 Z " />
<glyph glyph-name="Emacron" unicode="&#x112;" horiz-adv-x="829" d="M151 1456 L752 1456 L752 1385 L221 1385 L221 785 L686 785 L686 714 L221 714 L221 72 L753 72 L753 0 L151 0 L151 1456 Z M242 1768 L641 1768 L641 1699 L242 1699 L242 1768 Z " />
<glyph glyph-name="emacron" unicode="&#x113;" horiz-adv-x="759" d="M84 602 Q84 734 108.5 828.5 Q133 923 175 983.5 Q217 1044 273 1073 Q329 1102 392 1102 Q458 1102 510.5 1077 Q563 1052 599.5 997.5 Q636 943 656 857 Q676 771 676 650 L676 562 L152 562 L152 473 Q152 365 171 285.5 Q190 206 224.5 153.5 Q259 101 306 75 Q353 49 409 49 Q473 49 524 73 Q575 97 618 157 L651 109 Q617 54 558 16.5 Q499 -21 407 -21 Q338 -21 278.5 8 Q219 37 176 98 Q133 159 108.5 252 Q84 345 84 473 L84 602 Z M607 633 L607 666 Q606 851 550.5 941 Q495 1031 392 1031 Q340 1031 297 1007.5 Q254 984 222.5 935 Q191 886 173 811 Q155 736 152 633 L607 633 Z M204 1447 L603 1447 L603 1378 L204 1378 L204 1447 Z " />
<glyph glyph-name="Edotaccent" unicode="&#x116;" horiz-adv-x="829" d="M151 1456 L752 1456 L752 1385 L221 1385 L221 785 L686 785 L686 714 L221 714 L221 72 L753 72 L753 0 L151 0 L151 1456 Z M437 1648 Q411 1648 396 1666.5 Q381 1685 381 1711 Q381 1738 396 1757 Q411 1776 437 1776 Q463 1776 479.5 1757 Q496 1738 496 1711 Q496 1685 479.5 1666.5 Q463 1648 437 1648 Z " />
<glyph glyph-name="edotaccent" unicode="&#x117;" horiz-adv-x="759" d="M84 602 Q84 734 108.5 828.5 Q133 923 175 983.5 Q217 1044 273 1073 Q329 1102 392 1102 Q458 1102 510.5 1077 Q563 1052 599.5 997.5 Q636 943 656 857 Q676 771 676 650 L676 562 L152 562 L152 473 Q152 365 171 285.5 Q190 206 224.5 153.5 Q259 101 306 75 Q353 49 409 49 Q473 49 524 73 Q575 97 618 157 L651 109 Q617 54 558 16.5 Q499 -21 407 -21 Q338 -21 278.5 8 Q219 37 176 98 Q133 159 108.5 252 Q84 345 84 473 L84 602 Z M607 633 L607 666 Q606 851 550.5 941 Q495 1031 392 1031 Q340 1031 297 1007.5 Q254 984 222.5 935 Q191 886 173 811 Q155 736 152 633 L607 633 Z M399 1327 Q373 1327 358 1345.5 Q343 1364 343 1390 Q343 1417 358 1436 Q373 1455 399 1455 Q425 1455 441.5 1436 Q458 1417 458 1390 Q458 1364 441.5 1345.5 Q425 1327 399 1327 Z " />
<glyph glyph-name="Eogonek" unicode="&#x118;" horiz-adv-x="829" d="M151 1456 L752 1456 L752 1385 L221 1385 L221 785 L686 785 L686 714 L221 714 L221 72 L753 72 L753 0 L706 0 Q682 -27 660.5 -55 Q639 -83 622 -113 Q605 -143 595 -175 Q585 -207 585 -242 Q585 -278 597 -305.5 Q609 -333 643 -333 Q669 -333 685.5 -321 Q702 -309 714 -297 L725 -358 Q711 -373 689 -387.5 Q667 -402 633 -402 Q585 -402 555 -363.5 Q525 -325 525 -246 Q525 -181 557.5 -117.5 Q590 -54 641 0 L151 0 L151 1456 Z " />
<glyph glyph-name="eogonek" unicode="&#x119;" horiz-adv-x="759" d="M599 -305 Q585 -320 563 -334.5 Q541 -349 507 -349 Q459 -349 429 -310.5 Q399 -272 399 -193 Q399 -148 415 -103.5 Q431 -59 458 -17 Q437 -21 407 -21 Q338 -21 278.5 8 Q219 37 176 98 Q133 159 108.5 252 Q84 345 84 473 L84 602 Q84 734 108.5 828.5 Q133 923 175 983.5 Q217 1044 273 1073 Q329 1102 392 1102 Q458 1102 510.5 1077 Q563 1052 599.5 997.5 Q636 943 656 857 Q676 771 676 650 L676 562 L152 562 L152 473 Q152 365 171 285.5 Q190 206 224.5 153.5 Q259 101 306 75 Q353 49 409 49 Q473 49 524 73 Q575 97 618 157 L651 109 Q631 77 604.5 51.5 Q578 26 543 8 Q508 -37 483.5 -84.5 Q459 -132 459 -189 Q459 -225 471 -252.5 Q483 -280 517 -280 Q543 -280 559.5 -268 Q576 -256 588 -244 L599 -305 Z M607 633 L607 666 Q606 851 550.5 941 Q495 1031 392 1031 Q340 1031 297 1007.5 Q254 984 222.5 935 Q191 886 173 811 Q155 736 152 633 L607 633 Z " />
<glyph glyph-name="Ecaron" unicode="&#x11a;" horiz-adv-x="829" d="M151 1456 L752 1456 L752 1385 L221 1385 L221 785 L686 785 L686 714 L221 714 L221 72 L753 72 L753 0 L151 0 L151 1456 Z M412 1568 L256 1824 L256 1835 L320 1835 L440 1626 L560 1835 L622 1835 L622 1822 L467 1568 L412 1568 Z " />
<glyph glyph-name="ecaron" unicode="&#x11b;" horiz-adv-x="759" d="M84 602 Q84 734 108.5 828.5 Q133 923 175 983.5 Q217 1044 273 1073 Q329 1102 392 1102 Q458 1102 510.5 1077 Q563 1052 599.5 997.5 Q636 943 656 857 Q676 771 676 650 L676 562 L152 562 L152 473 Q152 365 171 285.5 Q190 206 224.5 153.5 Q259 101 306 75 Q353 49 409 49 Q473 49 524 73 Q575 97 618 157 L651 109 Q617 54 558 16.5 Q499 -21 407 -21 Q338 -21 278.5 8 Q219 37 176 98 Q133 159 108.5 252 Q84 345 84 473 L84 602 Z M607 633 L607 666 Q606 851 550.5 941 Q495 1031 392 1031 Q340 1031 297 1007.5 Q254 984 222.5 935 Q191 886 173 811 Q155 736 152 633 L607 633 Z M374 1247 L218 1503 L218 1514 L282 1514 L402 1305 L522 1514 L584 1514 L584 1501 L429 1247 L374 1247 Z " />
<glyph glyph-name="Gbreve" unicode="&#x11e;" horiz-adv-x="987" >
<path fill="black" d="M135 932 Q135 1064 160.5 1165.5 Q186 1267 233 1336 Q280 1405 348 1440.5 Q416 1476 500 1476 Q663 1476 749.5 1368 Q836 1260 849 1057 L780 1057 Q773 1139 754.5 1203.5 Q736 1268 702.5 1313 Q669 1358 619.5 1381.5 Q570 1405 501 1405 Q359 1405 282.5 1283 Q206 1161 206 934 L206 543 Q206 425 227 333 Q248 241 288 178.5 Q328 116 385 83.5 Q442 51 514 51 Q570 51 614.5 67 Q659 83 692 105.5 Q725 128 747.5 151.5 Q770 175 780 190 L780 599 L509 599 L509 671 L850 671 L850 161 Q837 142 810.5 111 Q784 80 742.5 50.5 Q701 21 644 0 Q587 -21 513 -21 Q428 -21 358 16 Q288 53 238.5 124.5 Q189 196 162 301.5 Q135 407 135 543 L135 932 Z " />
<g transform="translate(136,345)" >
<path fill="black" d="M184 1488 Q184 1450 193 1416.5 Q202 1383 221.5 1357.5 Q241 1332 272.5 1317.5 Q304 1303 350 1303 Q394 1303 425 1318 Q456 1333 476 1358.5 Q496 1384 505.5 1417.5 Q515 1451 515 1488 L582 1488 Q582 1433 566 1386.5 Q550 1340 520 1306.5 Q490 1273 447 1254.5 Q404 1236 350 1236 Q296 1236 253 1254.5 Q210 1273 180 1306.5 Q150 1340 134 1386.5 Q118 1433 118 1488 L184 1488 Z " />
</g>
</glyph>
<glyph glyph-name="gbreve" unicode="&#x11f;" horiz-adv-x="808" >
<path fill="black" d="M181 -227 Q223 -295 276.5 -330 Q330 -365 392 -365 Q446 -365 486 -348 Q526 -331 552.5 -293 Q579 -255 592.5 -194.5 Q606 -134 606 -46 L606 130 Q571 62 514 20.5 Q457 -21 376 -21 Q312 -21 260.5 8.5 Q209 38 174 100 Q139 162 120 258.5 Q101 355 101 488 L101 595 Q101 733 119.5 829.5 Q138 926 173.5 986.5 Q209 1047 260.5 1074.5 Q312 1102 377 1102 Q460 1102 516.5 1056.5 Q573 1011 608 932 L611 1082 L675 1082 L675 -45 Q675 -149 656 -223 Q637 -297 601 -344 Q565 -391 513.5 -412.5 Q462 -434 396 -434 Q322 -434 254.5 -391.5 Q187 -349 145 -277 L181 -227 Z M606 816 Q596 856 578.5 894.5 Q561 933 535 963.5 Q509 994 472.5 1012.5 Q436 1031 387 1031 Q277 1031 223 926.5 Q169 822 169 595 L169 488 Q169 260 222.5 155.5 Q276 51 385 51 Q430 51 465.5 65 Q501 79 528 104 Q555 129 574.5 163.5 Q594 198 606 238 L606 816 Z " />
<g transform="translate(48,2)" >
<path fill="black" d="M184 1488 Q184 1450 193 1416.5 Q202 1383 221.5 1357.5 Q241 1332 272.5 1317.5 Q304 1303 350 1303 Q394 1303 425 1318 Q456 1333 476 1358.5 Q496 1384 505.5 1417.5 Q515 1451 515 1488 L582 1488 Q582 1433 566 1386.5 Q550 1340 520 1306.5 Q490 1273 447 1254.5 Q404 1236 350 1236 Q296 1236 253 1254.5 Q210 1273 180 1306.5 Q150 1340 134 1386.5 Q118 1433 118 1488 L184 1488 Z " />
</g>
</glyph>
<glyph glyph-name="Gdotaccent" unicode="&#x120;" horiz-adv-x="987" >
<path fill="black" d="M135 932 Q135 1064 160.5 1165.5 Q186 1267 233 1336 Q280 1405 348 1440.5 Q416 1476 500 1476 Q663 1476 749.5 1368 Q836 1260 849 1057 L780 1057 Q773 1139 754.5 1203.5 Q736 1268 702.5 1313 Q669 1358 619.5 1381.5 Q570 1405 501 1405 Q359 1405 282.5 1283 Q206 1161 206 934 L206 543 Q206 425 227 333 Q248 241 288 178.5 Q328 116 385 83.5 Q442 51 514 51 Q570 51 614.5 67 Q659 83 692 105.5 Q725 128 747.5 151.5 Q770 175 780 190 L780 599 L509 599 L509 671 L850 671 L850 161 Q837 142 810.5 111 Q784 80 742.5 50.5 Q701 21 644 0 Q587 -21 513 -21 Q428 -21 358 16 Q288 53 238.5 124.5 Q189 196 162 301.5 Q135 407 135 543 L135 932 Z " />
<g transform="translate(305,1676)" >
<path fill="black" d="M185 -7 Q158 -7 142 11.5 Q126 30 126 57 Q126 85 142 104 Q158 123 185 123 Q211 123 228 104 Q245 85 245 57 Q245 30 228 11.5 Q211 -7 185 -7 Z " />
</g>
</glyph>
<glyph glyph-name="gdotaccent" unicode="&#x121;" horiz-adv-x="808" d="M181 -227 Q223 -295 276.5 -330 Q330 -365 392 -365 Q446 -365 486 -348 Q526 -331 552.5 -293 Q579 -255 592.5 -194.5 Q606 -134 606 -46 L606 130 Q571 62 514 20.5 Q457 -21 376 -21 Q312 -21 260.5 8.5 Q209 38 174 100 Q139 162 120 258.5 Q101 355 101 488 L101 595 Q101 733 119.5 829.5 Q138 926 173.5 986.5 Q209 1047 260.5 1074.5 Q312 1102 377 1102 Q460 1102 516.5 1056.5 Q573 1011 608 932 L611 1082 L675 1082 L675 -45 Q675 -149 656 -223 Q637 -297 601 -344 Q565 -391 513.5 -412.5 Q462 -434 396 -434 Q322 -434 254.5 -391.5 Q187 -349 145 -277 L181 -227 Z M606 816 Q596 856 578.5 894.5 Q561 933 535 963.5 Q509 994 472.5 1012.5 Q436 1031 387 1031 Q277 1031 223 926.5 Q169 822 169 595 L169 488 Q169 260 222.5 155.5 Q276 51 385 51 Q430 51 465.5 65 Q501 79 528 104 Q555 129 574.5 163.5 Q594 198 606 238 L606 816 Z M399 1326 Q373 1326 358 1344.5 Q343 1363 343 1389 Q343 1416 358 1435 Q373 1454 399 1454 Q425 1454 441.5 1435 Q458 1416 458 1389 Q458 1363 441.5 1344.5 Q425 1326 399 1326 Z " />
<glyph glyph-name="uni0122" unicode="&#x122;" horiz-adv-x="1205" >
<path fill="black" d="M135 932 Q135 1064 160.5 1165.5 Q186 1267 233 1336 Q280 1405 348 1440.5 Q416 1476 500 1476 Q663 1476 749.5 1368 Q836 1260 849 1057 L780 1057 Q773 1139 754.5 1203.5 Q736 1268 702.5 1313 Q669 1358 619.5 1381.5 Q570 1405 501 1405 Q359 1405 282.5 1283 Q206 1161 206 934 L206 543 Q206 425 227 333 Q248 241 288 178.5 Q328 116 385 83.5 Q442 51 514 51 Q570 51 614.5 67 Q659 83 692 105.5 Q725 128 747.5 151.5 Q770 175 780 190 L780 599 L509 599 L509 671 L850 671 L850 161 Q837 142 810.5 111 Q784 80 742.5 50.5 Q701 21 644 0 Q587 -21 513 -21 Q428 -21 358 16 Q288 53 238.5 124.5 Q189 196 162 301.5 Q135 407 135 543 L135 932 Z " />
<g transform="translate(399,-246)" >
<path fill="black" d="M-418 -463 Q-394 -412 -382.5 -363 Q-371 -314 -371 -248 L-371 -169 L-308 -169 L-308 -246 Q-308 -325 -327 -390.5 Q-346 -456 -378 -502 L-418 -463 Z " />
</g>
</glyph>
<glyph glyph-name="uni0123" unicode="&#x123;" horiz-adv-x="808" >
<path fill="black" d="M181 -227 Q223 -295 276.5 -330 Q330 -365 392 -365 Q446 -365 486 -348 Q526 -331 552.5 -293 Q579 -255 592.5 -194.5 Q606 -134 606 -46 L606 130 Q571 62 514 20.5 Q457 -21 376 -21 Q312 -21 260.5 8.5 Q209 38 174 100 Q139 162 120 258.5 Q101 355 101 488 L101 595 Q101 733 119.5 829.5 Q138 926 173.5 986.5 Q209 1047 260.5 1074.5 Q312 1102 377 1102 Q460 1102 516.5 1056.5 Q573 1011 608 932 L611 1082 L675 1082 L675 -45 Q675 -149 656 -223 Q637 -297 601 -344 Q565 -391 513.5 -412.5 Q462 -434 396 -434 Q322 -434 254.5 -391.5 Q187 -349 145 -277 L181 -227 Z M606 816 Q596 856 578.5 894.5 Q561 933 535 963.5 Q509 994 472.5 1012.5 Q436 1031 387 1031 Q277 1031 223 926.5 Q169 822 169 595 L169 488 Q169 260 222.5 155.5 Q276 51 385 51 Q430 51 465.5 65 Q501 79 528 104 Q555 129 574.5 163.5 Q594 198 606 238 L606 816 Z " />
<g transform="translate(245,40)" >
<path fill="black" d="M123 1359 Q123 1424 140.5 1475 Q158 1526 179 1566 L224 1539 Q207 1490 197 1449.5 Q187 1409 187 1361 L187 1231 L123 1231 L123 1359 Z " />
</g>
</glyph>
<glyph glyph-name="Hbar" unicode="&#x126;" horiz-adv-x="1204" d="M140 1027 L42 1027 L42 1095 L140 1095 L140 1456 L210 1456 L210 1095 L783 1095 L783 1456 L853 1456 L853 1095 L943 1095 L943 1027 L853 1027 L853 0 L783 0 L783 714 L210 714 L210 0 L140 0 L140 1027 Z M783 785 L783 1027 L210 1027 L210 785 L783 785 Z " />
<glyph glyph-name="hbar" unicode="&#x127;" horiz-adv-x="803" d="M132 1273 L33 1273 L33 1344 L132 1344 L132 1536 L200 1536 L200 1344 L439 1344 L439 1273 L200 1273 L200 880 Q218 929 242.5 969.5 Q267 1010 298 1039.5 Q329 1069 365 1085.5 Q401 1102 442 1102 Q496 1102 538.5 1079.5 Q581 1057 611 1009 Q641 961 656.5 885 Q672 809 672 702 L672 0 L605 0 L605 702 Q605 798 592 862 Q579 926 555.5 963.5 Q532 1001 499.5 1016.5 Q467 1032 427 1032 Q379 1032 341 1004 Q303 976 275 932 Q247 888 228.5 834 Q210 780 200 728 L200 0 L132 0 L132 1273 Z " />
<glyph glyph-name="Itilde" unicode="&#x128;" horiz-adv-x="417" >
<path fill="black" d="M174 0 L174 1456 L243 1456 L243 0 L174 0 Z " />
<g transform="translate(-102,333)" >
<path fill="black" d="M93 1280 Q93 1368 128.5 1419 Q164 1470 218 1470 Q251 1470 274.5 1451.5 Q298 1433 318 1410.5 Q338 1388 358.5 1369.5 Q379 1351 407 1351 Q438 1351 460 1384.5 Q482 1418 482 1479 L534 1477 Q534 1433 524.5 1397 Q515 1361 498 1335 Q481 1309 458.5 1295 Q436 1281 409 1281 Q374 1281 351 1300 Q328 1319 309 1341.5 Q290 1364 270 1382.5 Q250 1401 221 1401 Q189 1401 167.5 1370 Q146 1339 146 1279 L93 1280 Z " />
</g>
</glyph>
<glyph glyph-name="itilde" unicode="&#x129;" horiz-adv-x="346" >
<g transform="translate(-134,-7)" >
<path fill="black" d="M93 1280 Q93 1368 128.5 1419 Q164 1470 218 1470 Q251 1470 274.5 1451.5 Q298 1433 318 1410.5 Q338 1388 358.5 1369.5 Q379 1351 407 1351 Q438 1351 460 1384.5 Q482 1418 482 1479 L534 1477 Q534 1433 524.5 1397 Q515 1361 498 1335 Q481 1309 458.5 1295 Q436 1281 409 1281 Q374 1281 351 1300 Q328 1319 309 1341.5 Q290 1364 270 1382.5 Q250 1401 221 1401 Q189 1401 167.5 1370 Q146 1339 146 1279 L93 1280 Z " />
</g>
<path fill="black" d="M140 0 L140 1082 L210 1082 L210 0 L140 0 Z " />
</glyph>
<glyph glyph-name="Imacron" unicode="&#x12a;" horiz-adv-x="417" >
<path fill="black" d="M174 0 L174 1456 L243 1456 L243 0 L174 0 Z " />
<g transform="translate(-108,330)" >
<path fill="black" d="M118 1369 L118 1438 L517 1438 L517 1369 L118 1369 Z " />
</g>
</glyph>
<glyph glyph-name="imacron" unicode="&#x12b;" horiz-adv-x="346" >
<path fill="black" d="M140 0 L140 1082 L210 1082 L210 0 L140 0 Z " />
<g transform="translate(-140,-10)" >
<path fill="black" d="M118 1369 L118 1438 L517 1438 L517 1369 L118 1369 Z " />
</g>
</glyph>
<glyph glyph-name="Iogonek" unicode="&#x12e;" horiz-adv-x="417" d="M174 1456 L243 1456 L243 0 L231 0 Q207 -27 185.5 -55 Q164 -83 147 -113 Q130 -143 120 -175 Q110 -207 110 -242 Q110 -278 122 -305.5 Q134 -333 168 -333 Q194 -333 210.5 -321 Q227 -309 239 -297 L250 -358 Q236 -373 214 -387.5 Q192 -402 158 -402 Q110 -402 80 -363.5 Q50 -325 50 -246 Q50 -178 85 -112 Q120 -46 174 9 L174 1456 Z " />
<glyph glyph-name="iogonek" unicode="&#x12f;" horiz-adv-x="351" d="M224 -358 Q210 -373 188 -387.5 Q166 -402 132 -402 Q84 -402 54 -363.5 Q24 -325 24 -246 Q24 -180 57 -116.5 Q90 -53 141 1 L141 1082 L211 1082 L211 0 L205 0 Q181 -27 159.5 -55 Q138 -83 121 -113 Q104 -143 94 -175 Q84 -207 84 -242 Q84 -278 96 -305.5 Q108 -333 142 -333 Q168 -333 184.5 -321 Q201 -309 213 -297 L224 -358 Z M177 1348 Q154 1348 140 1366.5 Q126 1385 126 1412 Q126 1439 140 1457.5 Q154 1476 177 1476 Q200 1476 214.5 1457.5 Q229 1439 229 1412 Q229 1385 214.5 1366.5 Q200 1348 177 1348 Z " />
<glyph glyph-name="Idot" unicode="&#x130;" horiz-adv-x="417" >
<path fill="black" d="M174 0 L174 1456 L243 1456 L243 0 L174 0 Z " />
<g transform="translate(23,1655)" >
<path fill="black" d="M185 -7 Q158 -7 142 11.5 Q126 30 126 57 Q126 85 142 104 Q158 123 185 123 Q211 123 228 104 Q245 85 245 57 Q245 30 228 11.5 Q211 -7 185 -7 Z " />
</g>
</glyph>
<glyph glyph-name="dotlessi" unicode="&#x131;" horiz-adv-x="346" d="M140 0 L140 1082 L210 1082 L210 0 L140 0 Z " />
<glyph glyph-name="uni0136" unicode="&#x136;" horiz-adv-x="1116" >
<path fill="black" d="M151 1456 L221 1456 L221 644 L363 860 L736 1456 L828 1456 L411 807 L858 0 L772 0 L366 744 L221 542 L221 0 L151 0 L151 1456 Z " />
<g transform="translate(318,-138)" >
<path fill="black" d="M-418 -463 Q-394 -412 -382.5 -363 Q-371 -314 -371 -248 L-371 -169 L-308 -169 L-308 -246 Q-308 -325 -327 -390.5 Q-346 -456 -378 -502 L-418 -463 Z " />
</g>
</glyph>
<glyph glyph-name="uni0137" unicode="&#x137;" horiz-adv-x="860" >
<path fill="black" d="M132 1536 L200 1536 L200 530 L279 642 L571 1082 L659 1082 L343 625 L683 0 L600 0 L299 563 L200 438 L200 0 L132 0 L132 1536 Z " />
<g transform="translate(225,-139)" >
<path fill="black" d="M-418 -463 Q-394 -412 -382.5 -363 Q-371 -314 -371 -248 L-371 -169 L-308 -169 L-308 -246 Q-308 -325 -327 -390.5 Q-346 -456 -378 -502 L-418 -463 Z " />
</g>
</glyph>
<glyph glyph-name="Lacute" unicode="&#x139;" horiz-adv-x="767" >
<path fill="black" d="M151 1456 L221 1456 L221 72 L706 72 L706 0 L151 0 L151 1456 Z " />
<g transform="translate(35,264)" >
<path fill="black" d="M262 1536 L351 1536 L179 1265 L108 1265 L262 1536 Z " />
</g>
</glyph>
<glyph glyph-name="lacute" unicode="&#x13a;" horiz-adv-x="454" >
<path fill="black" d="M380 -7 Q366 -14 342 -17 Q318 -20 298 -20 Q262 -20 233 -6.5 Q204 7 183.5 39 Q163 71 152 125.5 Q141 180 141 261 L141 1536 L209 1536 L209 261 Q209 195 217 154 Q225 113 238.5 90.5 Q252 68 270.5 60 Q289 52 309 52 Q328 52 344 54.5 Q360 57 376 61 L380 -7 Z " />
<g transform="translate(23,384)" >
<path fill="black" d="M262 1536 L351 1536 L179 1265 L108 1265 L262 1536 Z " />
</g>
</glyph>
<glyph glyph-name="uni013B" unicode="&#x13b;" horiz-adv-x="928" >
<path fill="black" d="M151 1456 L221 1456 L221 72 L706 72 L706 0 L151 0 L151 1456 Z " />
<g transform="translate(310,-234)" >
<path fill="black" d="M-418 -463 Q-394 -412 -382.5 -363 Q-371 -314 -371 -248 L-371 -169 L-308 -169 L-308 -246 Q-308 -325 -327 -390.5 Q-346 -456 -378 -502 L-418 -463 Z " />
</g>
</glyph>
<glyph glyph-name="uni013C" unicode="&#x13c;" horiz-adv-x="408" >
<path fill="black" d="M380 -7 Q366 -14 342 -17 Q318 -20 298 -20 Q262 -20 233 -6.5 Q204 7 183.5 39 Q163 71 152 125.5 Q141 180 141 261 L141 1536 L209 1536 L209 261 Q209 195 217 154 Q225 113 238.5 90.5 Q252 68 270.5 60 Q289 52 309 52 Q328 52 344 54.5 Q360 57 376 61 L380 -7 Z " />
<g transform="translate(-21,-234)" >
<path fill="black" d="M-418 -463 Q-394 -412 -382.5 -363 Q-371 -314 -371 -248 L-371 -169 L-308 -169 L-308 -246 Q-308 -325 -327 -390.5 Q-346 -456 -378 -502 L-418 -463 Z " />
</g>
</glyph>
<glyph glyph-name="Lcaron" unicode="&#x13d;" horiz-adv-x="928" >
<path fill="black" d="M151 1456 L221 1456 L221 72 L706 72 L706 0 L151 0 L151 1456 Z " />
<g transform="translate(340,1314)" >
<path fill="black" d="M-418 -463 Q-394 -412 -382.5 -363 Q-371 -314 -371 -248 L-371 -169 L-308 -169 L-308 -246 Q-308 -325 -327 -390.5 Q-346 -456 -378 -502 L-418 -463 Z " />
</g>
</glyph>
<glyph glyph-name="lcaron" unicode="&#x13e;" horiz-adv-x="532" >
<path fill="black" d="M380 -7 Q366 -14 342 -17 Q318 -20 298 -20 Q262 -20 233 -6.5 Q204 7 183.5 39 Q163 71 152 125.5 Q141 180 141 261 L141 1536 L209 1536 L209 261 Q209 195 217 154 Q225 113 238.5 90.5 Q252 68 270.5 60 Q289 52 309 52 Q328 52 344 54.5 Q360 57 376 61 L380 -7 Z " />
<g transform="translate(220,1395)" >
<path fill="black" d="M-418 -463 Q-394 -412 -382.5 -363 Q-371 -314 -371 -248 L-371 -169 L-308 -169 L-308 -246 Q-308 -325 -327 -390.5 Q-346 -456 -378 -502 L-418 -463 Z " />
</g>
</glyph>
<glyph glyph-name="Lslash" unicode="&#x141;" horiz-adv-x="931" d="M158 708 L37 651 L37 719 L158 776 L158 1456 L228 1456 L228 809 L433 906 L433 838 L228 741 L228 72 L713 72 L713 0 L158 0 L158 708 Z " />
<glyph glyph-name="lslash" unicode="&#x142;" horiz-adv-x="472" d="M177 753 L40 673 L40 743 L177 823 L177 1536 L245 1536 L245 862 L362 930 L362 860 L245 792 L245 261 Q245 195 253 154 Q261 113 274.5 90.5 Q288 68 306.5 60 Q325 52 345 52 Q364 52 380 54.5 Q396 57 412 61 L416 -7 Q402 -14 378 -17 Q354 -20 334 -20 Q298 -20 269 -6.5 Q240 7 219.5 39 Q199 71 188 125.5 Q177 180 177 261 L177 753 Z " />
<glyph glyph-name="Nacute" unicode="&#x143;" horiz-adv-x="1021" >
<path fill="black" d="M151 1456 L225 1456 L800 140 L800 1456 L869 1456 L869 0 L795 0 L221 1318 L221 0 L151 0 L151 1456 Z " />
<g transform="translate(357,317)" >
<path fill="black" d="M262 1536 L351 1536 L179 1265 L108 1265 L262 1536 Z " />
</g>
</glyph>
<glyph glyph-name="nacute" unicode="&#x144;" horiz-adv-x="803" >
<path fill="black" d="M132 1082 L198 1082 L200 878 Q218 927 242.5 968 Q267 1009 298 1039 Q329 1069 365.5 1085.5 Q402 1102 444 1102 Q498 1102 540.5 1079.5 Q583 1057 612.5 1009 Q642 961 657.5 885 Q673 809 673 702 L673 0 L605 0 L605 702 Q605 798 592 862 Q579 926 555.5 963.5 Q532 1001 499.5 1016.5 Q467 1032 427 1032 Q379 1032 341.5 1003.5 Q304 975 276 930.5 Q248 886 229 831.5 Q210 777 200 725 L200 0 L132 0 L132 1082 Z " />
<g transform="translate(257,-3)" >
<path fill="black" d="M262 1536 L351 1536 L179 1265 L108 1265 L262 1536 Z " />
</g>
</glyph>
<glyph glyph-name="uni0145" unicode="&#x145;" horiz-adv-x="1245" >
<path fill="black" d="M151 1456 L225 1456 L800 140 L800 1456 L869 1456 L869 0 L795 0 L221 1318 L221 0 L151 0 L151 1456 Z " />
<g transform="translate(394,-234)" >
<path fill="black" d="M-418 -463 Q-394 -412 -382.5 -363 Q-371 -314 -371 -248 L-371 -169 L-308 -169 L-308 -246 Q-308 -325 -327 -390.5 Q-346 -456 -378 -502 L-418 -463 Z " />
</g>
</glyph>
<glyph glyph-name="uni0146" unicode="&#x146;" horiz-adv-x="973" >
<path fill="black" d="M132 1082 L198 1082 L200 878 Q218 927 242.5 968 Q267 1009 298 1039 Q329 1069 365.5 1085.5 Q402 1102 444 1102 Q498 1102 540.5 1079.5 Q583 1057 612.5 1009 Q642 961 657.5 885 Q673 809 673 702 L673 0 L605 0 L605 702 Q605 798 592 862 Q579 926 555.5 963.5 Q532 1001 499.5 1016.5 Q467 1032 427 1032 Q379 1032 341.5 1003.5 Q304 975 276 930.5 Q248 886 229 831.5 Q210 777 200 725 L200 0 L132 0 L132 1082 Z " />
<g transform="translate(270,-234)" >
<path fill="black" d="M-418 -463 Q-394 -412 -382.5 -363 Q-371 -314 -371 -248 L-371 -169 L-308 -169 L-308 -246 Q-308 -325 -327 -390.5 Q-346 -456 -378 -502 L-418 -463 Z " />
</g>
</glyph>
<glyph glyph-name="Ncaron" unicode="&#x147;" horiz-adv-x="1021" >
<path fill="black" d="M151 1456 L225 1456 L800 140 L800 1456 L869 1456 L869 0 L795 0 L221 1318 L221 0 L151 0 L151 1456 Z " />
<g transform="translate(207,322)" >
<path fill="black" d="M120 1500 L120 1511 L184 1511 L304 1302 L424 1511 L486 1511 L486 1498 L331 1244 L276 1244 L120 1500 Z " />
</g>
</glyph>
<glyph glyph-name="ncaron" unicode="&#x148;" horiz-adv-x="803" d="M132 1082 L198 1082 L200 878 Q218 927 242.5 968 Q267 1009 298 1039 Q329 1069 365.5 1085.5 Q402 1102 444 1102 Q498 1102 540.5 1079.5 Q583 1057 612.5 1009 Q642 961 657.5 885 Q673 809 673 702 L673 0 L605 0 L605 702 Q605 798 592 862 Q579 926 555.5 963.5 Q532 1001 499.5 1016.5 Q467 1032 427 1032 Q379 1032 341.5 1003.5 Q304 975 276 930.5 Q248 886 229 831.5 Q210 777 200 725 L200 0 L132 0 L132 1082 Z M383 1246 L227 1502 L227 1513 L291 1513 L411 1304 L531 1513 L593 1513 L593 1500 L438 1246 L383 1246 Z " />
<glyph glyph-name="Eng" unicode="&#x14a;" horiz-adv-x="1016" d="M150 1456 L220 1456 L796 160 L796 1456 L866 1456 L866 -88 Q866 -259 812.5 -348 Q759 -437 665 -437 Q643 -437 625 -432 Q607 -427 587 -417 L595 -348 Q607 -354 626 -360 Q645 -366 662 -366 Q726 -366 761 -294 Q796 -222 796 -88 L796 0 L220 1296 L220 0 L150 0 L150 1456 Z " />
<glyph glyph-name="eng" unicode="&#x14b;" horiz-adv-x="807" d="M397 -348 Q409 -354 431 -360 Q453 -366 473 -366 Q537 -366 572.5 -294.5 Q608 -223 608 -89 L608 646 Q608 759 594.5 833.5 Q581 908 556.5 952 Q532 996 498.5 1013.5 Q465 1031 425 1031 Q376 1031 339 1009 Q302 987 275 949.5 Q248 912 230 861 Q212 810 201 753 L201 0 L133 0 L133 1082 L194 1082 L200 884 Q234 987 293 1044.5 Q352 1102 438 1102 Q496 1102 540 1076 Q584 1050 614 994.5 Q644 939 659.5 852.5 Q675 766 675 645 L675 -89 Q675 -259 622.5 -348 Q570 -437 476 -437 Q452 -437 431.5 -432 Q411 -427 388 -417 L397 -348 Z " />
<glyph glyph-name="Omacron" unicode="&#x14c;" horiz-adv-x="972" >
<path fill="black" d="M117 912 Q117 1049 142.5 1154 Q168 1259 216 1330.5 Q264 1402 332 1439 Q400 1476 485 1476 Q571 1476 639 1439 Q707 1402 755 1330.5 Q803 1259 828.5 1154 Q854 1049 854 912 L854 544 Q854 408 828.5 302.5 Q803 197 755.5 125 Q708 53 640 16 Q572 -21 486 -21 Q401 -21 333 16 Q265 53 217 125 Q169 197 143 302.5 Q117 408 117 544 L117 912 Z M784 914 Q784 1152 707.5 1277.5 Q631 1403 485 1403 Q340 1403 263.5 1277.5 Q187 1152 187 914 L187 544 Q187 304 264.5 178 Q342 52 486 52 Q632 52 708 178 Q784 304 784 544 L784 914 Z " />
<g transform="translate(167,346)" >
<path fill="black" d="M118 1369 L118 1438 L517 1438 L517 1369 L118 1369 Z " />
</g>
</glyph>
<glyph glyph-name="omacron" unicode="&#x14d;" horiz-adv-x="808" >
<path fill="black" d="M101 603 Q101 723 121.5 815.5 Q142 908 181 972 Q220 1036 276 1069 Q332 1102 403 1102 Q475 1102 531.5 1069 Q588 1036 627 972 Q666 908 686.5 815.5 Q707 723 707 603 L707 479 Q707 359 686.5 266 Q666 173 627 109.5 Q588 46 532 12.5 Q476 -21 405 -21 Q333 -21 276.5 12.5 Q220 46 181 109.5 Q142 173 121.5 266 Q101 359 101 479 L101 603 Z M169 479 Q169 385 183.5 306 Q198 227 227.5 170 Q257 113 301 81.5 Q345 50 405 50 Q465 50 509 81.5 Q553 113 582 170 Q611 227 625 306 Q639 385 639 479 L639 603 Q639 695 624.5 773.5 Q610 852 580.5 909 Q551 966 507 998.5 Q463 1031 403 1031 Q344 1031 300 998.5 Q256 966 227 909 Q198 852 183.5 773.5 Q169 695 169 603 L169 479 Z " />
<g transform="translate(90,8)" >
<path fill="black" d="M118 1369 L118 1438 L517 1438 L517 1369 L118 1369 Z " />
</g>
</glyph>
<glyph glyph-name="Ohungarumlaut" unicode="&#x150;" horiz-adv-x="972" d="M117 912 Q117 1049 142.5 1154 Q168 1259 216 1330.5 Q264 1402 332 1439 Q400 1476 485 1476 Q571 1476 639 1439 Q707 1402 755 1330.5 Q803 1259 828.5 1154 Q854 1049 854 912 L854 544 Q854 408 828.5 302.5 Q803 197 755.5 125 Q708 53 640 16 Q572 -21 486 -21 Q401 -21 333 16 Q265 53 217 125 Q169 197 143 302.5 Q117 408 117 544 L117 912 Z M784 914 Q784 1152 707.5 1277.5 Q631 1403 485 1403 Q340 1403 263.5 1277.5 Q187 1152 187 914 L187 544 Q187 304 264.5 178 Q342 52 486 52 Q632 52 708 178 Q784 304 784 544 L784 914 Z M692 1871 L773 1871 L585 1567 L514 1567 L692 1871 Z M490 1871 L568 1871 L410 1567 L345 1567 L490 1871 Z " />
<glyph glyph-name="ohungarumlaut" unicode="&#x151;" horiz-adv-x="808" d="M101 603 Q101 723 121.5 815.5 Q142 908 181 972 Q220 1036 276 1069 Q332 1102 403 1102 Q475 1102 531.5 1069 Q588 1036 627 972 Q666 908 686.5 815.5 Q707 723 707 603 L707 479 Q707 359 686.5 266 Q666 173 627 109.5 Q588 46 532 12.5 Q476 -21 405 -21 Q333 -21 276.5 12.5 Q220 46 181 109.5 Q142 173 121.5 266 Q101 359 101 479 L101 603 Z M169 479 Q169 385 183.5 306 Q198 227 227.5 170 Q257 113 301 81.5 Q345 50 405 50 Q465 50 509 81.5 Q553 113 582 170 Q611 227 625 306 Q639 385 639 479 L639 603 Q639 695 624.5 773.5 Q610 852 580.5 909 Q551 966 507 998.5 Q463 1031 403 1031 Q344 1031 300 998.5 Q256 966 227 909 Q198 852 183.5 773.5 Q169 695 169 603 L169 479 Z M615 1533 L696 1533 L508 1229 L437 1229 L615 1533 Z M413 1533 L491 1533 L333 1229 L268 1229 L413 1533 Z " />
<glyph glyph-name="OE" unicode="&#x152;" horiz-adv-x="1611" d="M98 880 Q98 1012 124 1122 Q150 1232 196.5 1310.5 Q243 1389 308.5 1432.5 Q374 1476 453 1476 Q510 1476 564 1470 Q618 1464 668 1456 L1238 1456 L1238 1385 L707 1385 L707 785 L1172 785 L1172 714 L707 714 L707 72 L1239 72 L1239 0 L668 0 Q618 -8 565 -14.5 Q512 -21 455 -21 Q376 -21 310.5 22.5 Q245 66 197.5 145 Q150 224 124 334 Q98 444 98 576 L98 880 Z M637 1392 Q594 1400 548.5 1403 Q503 1406 453 1406 Q387 1406 334 1368.5 Q281 1331 243.5 1262.5 Q206 1194 186 1097.5 Q166 1001 166 882 L166 576 Q166 459 186.5 362 Q207 265 245 196 Q283 127 336 88.5 Q389 50 455 50 Q501 50 548 53 Q595 56 637 64 L637 1392 Z " />
<glyph glyph-name="oe" unicode="&#x153;" horiz-adv-x="1322" d="M88 560 Q88 679 111 778.5 Q134 878 176 950 Q218 1022 277 1062 Q336 1102 409 1102 Q460 1102 504.5 1082 Q549 1062 585.5 1024.5 Q622 987 650 934 Q678 881 696 815 Q715 881 743 934 Q771 987 806 1024.5 Q841 1062 881.5 1082 Q922 1102 967 1102 Q1032 1102 1084.5 1070.5 Q1137 1039 1173.5 981 Q1210 923 1230 840 Q1250 757 1250 653 L1250 564 L732 564 L732 503 Q732 409 750 326.5 Q768 244 800 182.5 Q832 121 877.5 85.5 Q923 50 977 50 Q1058 50 1109.5 83.5 Q1161 117 1198 177 L1227 121 Q1188 56 1126 18 Q1064 -20 975 -20 Q929 -20 886.5 0 Q844 20 808 57 Q772 94 743.5 147 Q715 200 696 265 Q677 199 649 146.5 Q621 94 584.5 57 Q548 20 503.5 0 Q459 -20 408 -20 Q336 -20 277 20 Q218 60 176 132 Q134 204 111 303.5 Q88 403 88 522 L88 560 Z M157 522 Q157 428 173.5 342 Q190 256 221.5 191.5 Q253 127 300 88.5 Q347 50 408 50 Q469 50 515.5 88.5 Q562 127 593.5 191.5 Q625 256 641.5 342 Q658 428 658 522 L658 560 Q658 653 641.5 738 Q625 823 593.5 888 Q562 953 515.5 992 Q469 1031 409 1031 Q348 1031 300.5 992 Q253 953 221.5 888 Q190 823 173.5 738 Q157 653 157 560 L157 522 Z M1183 634 L1183 666 Q1183 743 1168 809.5 Q1153 876 1125.5 925.5 Q1098 975 1058 1003 Q1018 1031 967 1031 Q919 1031 878.5 1000.5 Q838 970 808 917 Q778 864 759 791 Q740 718 734 634 L1183 634 Z " />
<glyph glyph-name="Racute" unicode="&#x154;" horiz-adv-x="934" >
<path fill="black" d="M149 1456 L467 1456 Q540 1456 600 1428.5 Q660 1401 703 1347 Q746 1293 769.5 1214 Q793 1135 793 1033 Q793 958 777 892 Q761 826 733 774.5 Q705 723 666.5 687 Q628 651 583 636 L833 14 L833 0 L759 0 L513 617 L219 617 L219 0 L149 0 L149 1456 Z M219 689 L490 689 Q548 689 591.5 718 Q635 747 664 795 Q693 843 707.5 905 Q722 967 722 1033 Q722 1115 704.5 1180.5 Q687 1246 654.5 1291.5 Q622 1337 574.5 1361 Q527 1385 467 1385 L219 1385 L219 689 Z " />
<g transform="translate(277,317)" >
<path fill="black" d="M262 1536 L351 1536 L179 1265 L108 1265 L262 1536 Z " />
</g>
</glyph>
<glyph glyph-name="racute" unicode="&#x155;" horiz-adv-x="514" >
<path fill="black" d="M132 1082 L199 1082 L200 897 L200 889 Q230 988 283.5 1045 Q337 1102 415 1102 Q431 1102 445 1099 Q459 1096 468 1091 L465 1019 Q443 1025 413 1025 Q368 1025 332.5 1002.5 Q297 980 270.5 939.5 Q244 899 226.5 844 Q209 789 200 723 L200 0 L132 0 L132 1082 Z " />
<g transform="translate(147,-3)" >
<path fill="black" d="M262 1536 L351 1536 L179 1265 L108 1265 L262 1536 Z " />
</g>
</glyph>
<glyph glyph-name="uni0156" unicode="&#x156;" horiz-adv-x="1137" >
<path fill="black" d="M149 1456 L467 1456 Q540 1456 600 1428.5 Q660 1401 703 1347 Q746 1293 769.5 1214 Q793 1135 793 1033 Q793 958 777 892 Q761 826 733 774.5 Q705 723 666.5 687 Q628 651 583 636 L833 14 L833 0 L759 0 L513 617 L219 617 L219 0 L149 0 L149 1456 Z M219 689 L490 689 Q548 689 591.5 718 Q635 747 664 795 Q693 843 707.5 905 Q722 967 722 1033 Q722 1115 704.5 1180.5 Q687 1246 654.5 1291.5 Q622 1337 574.5 1361 Q527 1385 467 1385 L219 1385 L219 689 Z " />
<g transform="translate(297,-234)" >
<path fill="black" d="M-418 -463 Q-394 -412 -382.5 -363 Q-371 -314 -371 -248 L-371 -169 L-308 -169 L-308 -246 Q-308 -325 -327 -390.5 Q-346 -456 -378 -502 L-418 -463 Z " />
</g>
</glyph>
<glyph glyph-name="uni0157" unicode="&#x157;" horiz-adv-x="612" >
<path fill="black" d="M132 1082 L199 1082 L200 897 L200 889 Q230 988 283.5 1045 Q337 1102 415 1102 Q431 1102 445 1099 Q459 1096 468 1091 L465 1019 Q443 1025 413 1025 Q368 1025 332.5 1002.5 Q297 980 270.5 939.5 Q244 899 226.5 844 Q209 789 200 723 L200 0 L132 0 L132 1082 Z " />
<g transform="translate(-31,-227)" >
<path fill="black" d="M-418 -463 Q-394 -412 -382.5 -363 Q-371 -314 -371 -248 L-371 -169 L-308 -169 L-308 -246 Q-308 -325 -327 -390.5 Q-346 -456 -378 -502 L-418 -463 Z " />
</g>
</glyph>
<glyph glyph-name="Rcaron" unicode="&#x158;" horiz-adv-x="934" d="M149 1456 L467 1456 Q540 1456 600 1428.5 Q660 1401 703 1347 Q746 1293 769.5 1214 Q793 1135 793 1033 Q793 958 777 892 Q761 826 733 774.5 Q705 723 666.5 687 Q628 651 583 636 L833 14 L833 0 L759 0 L513 617 L219 617 L219 0 L149 0 L149 1456 Z M219 689 L490 689 Q548 689 591.5 718 Q635 747 664 795 Q693 843 707.5 905 Q722 967 722 1033 Q722 1115 704.5 1180.5 Q687 1246 654.5 1291.5 Q622 1337 574.5 1361 Q527 1385 467 1385 L219 1385 L219 689 Z M403 1566 L247 1822 L247 1833 L311 1833 L431 1624 L551 1833 L613 1833 L613 1820 L458 1566 L403 1566 Z " />
<glyph glyph-name="rcaron" unicode="&#x159;" horiz-adv-x="514" >
<path fill="black" d="M132 1082 L199 1082 L200 897 L200 889 Q230 988 283.5 1045 Q337 1102 415 1102 Q431 1102 445 1099 Q459 1096 468 1091 L465 1019 Q443 1025 413 1025 Q368 1025 332.5 1002.5 Q297 980 270.5 939.5 Q244 899 226.5 844 Q209 789 200 723 L200 0 L132 0 L132 1082 Z " />
<g transform="translate(-3,2)" >
<path fill="black" d="M120 1500 L120 1511 L184 1511 L304 1302 L424 1511 L486 1511 L486 1498 L331 1244 L276 1244 L120 1500 Z " />
</g>
</glyph>
<glyph glyph-name="Sacute" unicode="&#x15a;" horiz-adv-x="863" >
<path fill="black" d="M156 413 Q156 310 183 240.5 Q210 171 252 129 Q294 87 346 69.5 Q398 52 449 52 Q508 52 556.5 73.5 Q605 95 639.5 134.5 Q674 174 693 229.5 Q712 285 712 352 Q712 418 698 469.5 Q684 521 652 562.5 Q620 604 567 639 Q514 674 436 707 Q363 737 304 772 Q245 807 203.5 853.5 Q162 900 139.5 963 Q117 1026 117 1113 Q117 1197 141.5 1264 Q166 1331 209.5 1378 Q253 1425 313.5 1450.5 Q374 1476 445 1476 Q519 1476 580 1444 Q641 1412 684 1354.5 Q727 1297 750.5 1218 Q774 1139 774 1044 L705 1044 Q705 1121 687 1187 Q669 1253 635.5 1301.5 Q602 1350 553.5 1377.5 Q505 1405 444 1405 Q382 1405 334 1381.5 Q286 1358 253.5 1318 Q221 1278 204 1225.5 Q187 1173 187 1115 Q187 1059 200 1011.5 Q213 964 244.5 923 Q276 882 328 846 Q380 810 458 778 Q533 749 593 713 Q653 677 695 627.5 Q737 578 760 511.5 Q783 445 783 354 Q783 265 757.5 195.5 Q732 126 687 78 Q642 30 581 5 Q520 -20 449 -20 Q385 -20 320.5 2.5 Q256 25 204 76.5 Q152 128 119.5 210.5 Q87 293 87 413 L156 413 Z " />
<g transform="translate(293,335)" >
<path fill="black" d="M262 1536 L351 1536 L179 1265 L108 1265 L262 1536 Z " />
</g>
</glyph>
<glyph glyph-name="sacute" unicode="&#x15b;" horiz-adv-x="740" >
<path fill="black" d="M158 275 Q161 207 181.5 163.5 Q202 120 232 95 Q262 70 299 60.5 Q336 51 372 51 Q419 51 455.5 68 Q492 85 517 113.5 Q542 142 554.5 179.5 Q567 217 567 258 Q567 294 556.5 325 Q546 356 521.5 386.5 Q497 417 457 449 Q417 481 358 518 Q301 554 256 585.5 Q211 617 180 652 Q149 687 132.5 729 Q116 771 116 827 Q116 885 133 935.5 Q150 986 182.5 1023 Q215 1060 261.5 1081 Q308 1102 366 1102 Q428 1102 477 1080 Q526 1058 560.5 1017.5 Q595 977 613.5 920 Q632 863 632 794 L563 794 Q563 841 550 884 Q537 927 512.5 959.5 Q488 992 451 1011.5 Q414 1031 366 1031 Q317 1031 282.5 1013 Q248 995 225.5 966.5 Q203 938 192.5 902 Q182 866 182 830 Q182 796 191 768.5 Q200 741 223.5 714 Q247 687 286.5 656 Q326 625 387 584 Q442 549 487.5 518 Q533 487 565.5 451 Q598 415 616 369.5 Q634 324 634 260 Q634 196 615.5 144 Q597 92 562.5 55.5 Q528 19 479.5 -0.5 Q431 -20 371 -20 Q303 -20 250.5 3 Q198 26 162.5 66 Q127 106 109 160 Q91 214 91 275 L158 275 Z " />
<g transform="translate(222,-3)" >
<path fill="black" d="M262 1536 L351 1536 L179 1265 L108 1265 L262 1536 Z " />
</g>
</glyph>
<glyph glyph-name="Scedilla" unicode="&#x15e;" horiz-adv-x="863" d="M381 -384 Q406 -384 431 -376.5 Q456 -369 476 -352.5 Q496 -336 508.5 -311 Q521 -286 521 -250 Q521 -219 514 -198 Q507 -177 492 -164 Q477 -151 454.5 -143.5 Q432 -136 402 -131 L419 -19 Q358 -14 298.5 11.5 Q239 37 192 89 Q145 141 116 220.5 Q87 300 87 413 L156 413 Q156 310 183 240.5 Q210 171 252 129 Q294 87 346 69.5 Q398 52 449 52 Q508 52 556.5 73.5 Q605 95 639.5 134.5 Q674 174 693 229.5 Q712 285 712 352 Q712 418 698 469.5 Q684 521 652 562.5 Q620 604 567 639 Q514 674 436 707 Q363 737 304 772 Q245 807 203.5 853.5 Q162 900 139.5 963 Q117 1026 117 1113 Q117 1197 141.5 1264 Q166 1331 209.5 1378 Q253 1425 313.5 1450.5 Q374 1476 445 1476 Q519 1476 580 1444 Q641 1412 684 1354.5 Q727 1297 750.5 1218 Q774 1139 774 1044 L705 1044 Q705 1121 687 1187 Q669 1253 635.5 1301.5 Q602 1350 553.5 1377.5 Q505 1405 444 1405 Q382 1405 334 1381.5 Q286 1358 253.5 1318 Q221 1278 204 1225.5 Q187 1173 187 1115 Q187 1059 200 1011.5 Q213 964 244.5 923 Q276 882 328 846 Q380 810 458 778 Q533 749 593 713 Q653 677 695 627.5 Q737 578 760 511.5 Q783 445 783 354 Q783 269 760 201.5 Q737 134 695.5 86.5 Q654 39 598 12 Q542 -15 476 -19 L470 -80 Q491 -84 511 -94 Q531 -104 547 -123.5 Q563 -143 572.5 -174 Q582 -205 582 -250 Q582 -338 531 -390.5 Q480 -443 386 -443 L381 -384 Z " />
<glyph glyph-name="scedilla" unicode="&#x15f;" horiz-adv-x="740" d="M310 -382 Q335 -382 360 -374.5 Q385 -367 405 -350.5 Q425 -334 437.5 -309 Q450 -284 450 -248 Q450 -217 443 -196 Q436 -175 421 -162 Q406 -149 383.5 -141.5 Q361 -134 331 -129 L348 -19 Q285 -15 237 9.5 Q189 34 156.5 73.5 Q124 113 107.5 165 Q91 217 91 275 L158 275 Q161 207 181.5 163.5 Q202 120 232 95 Q262 70 299 60.5 Q336 51 372 51 Q419 51 455.5 68 Q492 85 517 113.5 Q542 142 554.5 179.5 Q567 217 567 258 Q567 294 556.5 325 Q546 356 521.5 386.5 Q497 417 457 449 Q417 481 358 518 Q301 554 256 585.5 Q211 617 180 652 Q149 687 132.5 729 Q116 771 116 827 Q116 885 133 935.5 Q150 986 182.5 1023 Q215 1060 261.5 1081 Q308 1102 366 1102 Q428 1102 477 1080 Q526 1058 560.5 1017.5 Q595 977 613.5 920 Q632 863 632 794 L563 794 Q563 841 550 884 Q537 927 512.5 959.5 Q488 992 451 1011.5 Q414 1031 366 1031 Q317 1031 282.5 1013 Q248 995 225.5 966.5 Q203 938 192.5 902 Q182 866 182 830 Q182 796 191 768.5 Q200 741 223.5 714 Q247 687 286.5 656 Q326 625 387 584 Q442 549 487.5 518 Q533 487 565.5 451 Q598 415 616 369.5 Q634 324 634 260 Q634 200 618 151.5 Q602 103 572 67 Q542 31 500 9 Q458 -13 405 -18 L399 -78 Q420 -82 440 -92 Q460 -102 476 -121.5 Q492 -141 501.5 -172 Q511 -203 511 -248 Q511 -336 460 -388.5 Q409 -441 315 -441 L310 -382 Z " />
<glyph glyph-name="Scaron" unicode="&#x160;" horiz-adv-x="863" >
<path fill="black" d="M156 413 Q156 310 183 240.5 Q210 171 252 129 Q294 87 346 69.5 Q398 52 449 52 Q508 52 556.5 73.5 Q605 95 639.5 134.5 Q674 174 693 229.5 Q712 285 712 352 Q712 418 698 469.5 Q684 521 652 562.5 Q620 604 567 639 Q514 674 436 707 Q363 737 304 772 Q245 807 203.5 853.5 Q162 900 139.5 963 Q117 1026 117 1113 Q117 1197 141.5 1264 Q166 1331 209.5 1378 Q253 1425 313.5 1450.5 Q374 1476 445 1476 Q519 1476 580 1444 Q641 1412 684 1354.5 Q727 1297 750.5 1218 Q774 1139 774 1044 L705 1044 Q705 1121 687 1187 Q669 1253 635.5 1301.5 Q602 1350 553.5 1377.5 Q505 1405 444 1405 Q382 1405 334 1381.5 Q286 1358 253.5 1318 Q221 1278 204 1225.5 Q187 1173 187 1115 Q187 1059 200 1011.5 Q213 964 244.5 923 Q276 882 328 846 Q380 810 458 778 Q533 749 593 713 Q653 677 695 627.5 Q737 578 760 511.5 Q783 445 783 354 Q783 265 757.5 195.5 Q732 126 687 78 Q642 30 581 5 Q520 -20 449 -20 Q385 -20 320.5 2.5 Q256 25 204 76.5 Q152 128 119.5 210.5 Q87 293 87 413 L156 413 Z " />
<g transform="translate(143,340)" >
<path fill="black" d="M120 1500 L120 1511 L184 1511 L304 1302 L424 1511 L486 1511 L486 1498 L331 1244 L276 1244 L120 1500 Z " />
</g>
</glyph>
<glyph glyph-name="scaron" unicode="&#x161;" horiz-adv-x="740" >
<path fill="black" d="M158 275 Q161 207 181.5 163.5 Q202 120 232 95 Q262 70 299 60.5 Q336 51 372 51 Q419 51 455.5 68 Q492 85 517 113.5 Q542 142 554.5 179.5 Q567 217 567 258 Q567 294 556.5 325 Q546 356 521.5 386.5 Q497 417 457 449 Q417 481 358 518 Q301 554 256 585.5 Q211 617 180 652 Q149 687 132.5 729 Q116 771 116 827 Q116 885 133 935.5 Q150 986 182.5 1023 Q215 1060 261.5 1081 Q308 1102 366 1102 Q428 1102 477 1080 Q526 1058 560.5 1017.5 Q595 977 613.5 920 Q632 863 632 794 L563 794 Q563 841 550 884 Q537 927 512.5 959.5 Q488 992 451 1011.5 Q414 1031 366 1031 Q317 1031 282.5 1013 Q248 995 225.5 966.5 Q203 938 192.5 902 Q182 866 182 830 Q182 796 191 768.5 Q200 741 223.5 714 Q247 687 286.5 656 Q326 625 387 584 Q442 549 487.5 518 Q533 487 565.5 451 Q598 415 616 369.5 Q634 324 634 260 Q634 196 615.5 144 Q597 92 562.5 55.5 Q528 19 479.5 -0.5 Q431 -20 371 -20 Q303 -20 250.5 3 Q198 26 162.5 66 Q127 106 109 160 Q91 214 91 275 L158 275 Z " />
<g transform="translate(72,2)" >
<path fill="black" d="M120 1500 L120 1511 L184 1511 L304 1302 L424 1511 L486 1511 L486 1498 L331 1244 L276 1244 L120 1500 Z " />
</g>
</glyph>
<glyph glyph-name="uni0162" unicode="&#x162;" horiz-adv-x="871" d="M369 -376 Q394 -376 419 -368.5 Q444 -361 464 -344.5 Q484 -328 496.5 -303 Q509 -278 509 -242 Q509 -211 502 -190 Q495 -169 480 -156 Q465 -143 442.5 -135.5 Q420 -128 390 -123 L409 0 L401 0 L401 1385 L61 1385 L61 1456 L810 1456 L810 1385 L471 1385 L471 0 L465 0 L458 -72 Q479 -76 499 -86 Q519 -96 535 -115.5 Q551 -135 560.5 -166 Q570 -197 570 -242 Q570 -330 519 -382.5 Q468 -435 374 -435 L369 -376 Z " />
<glyph glyph-name="uni0163" unicode="&#x163;" horiz-adv-x="490" d="M243 -376 Q268 -376 293 -368.5 Q318 -361 338 -344.5 Q358 -328 370.5 -303 Q383 -278 383 -242 Q383 -211 376 -190 Q369 -169 354 -156 Q339 -143 316.5 -135.5 Q294 -128 264 -123 L281 -12 Q257 -3 238 16.5 Q219 36 205.5 68.5 Q192 101 184.5 148.5 Q177 196 177 261 L177 1012 L47 1012 L47 1082 L177 1082 L177 1369 L245 1369 L245 1082 L399 1082 L399 1012 L245 1012 L245 261 Q245 195 253 154 Q261 113 274.5 90.5 Q288 68 306.5 60 Q325 52 345 52 Q364 52 380 54.5 Q396 57 412 61 L416 -7 Q402 -14 379.5 -17 Q357 -20 337 -20 L332 -72 Q353 -76 373 -86 Q393 -96 409 -115.5 Q425 -135 434.5 -166 Q444 -197 444 -242 Q444 -330 393 -382.5 Q342 -435 248 -435 L243 -376 Z " />
<glyph glyph-name="Tcaron" unicode="&#x164;" horiz-adv-x="871" d="M401 1385 L61 1385 L61 1456 L810 1456 L810 1385 L471 1385 L471 0 L401 0 L401 1385 Z M406 1559 L250 1815 L250 1826 L314 1826 L434 1617 L554 1826 L616 1826 L616 1813 L461 1559 L406 1559 Z " />
<glyph glyph-name="tcaron" unicode="&#x165;" horiz-adv-x="618" >
<path fill="black" d="M177 1012 L47 1012 L47 1082 L177 1082 L177 1369 L245 1369 L245 1082 L399 1082 L399 1012 L245 1012 L245 261 Q245 195 253 154 Q261 113 274.5 90.5 Q288 68 306.5 60 Q325 52 345 52 Q364 52 380 54.5 Q396 57 412 61 L416 -7 Q402 -14 378 -17 Q354 -20 334 -20 Q298 -20 269 -6.5 Q240 7 219.5 39 Q199 71 188 125.5 Q177 180 177 261 L177 1012 Z " />
<g transform="translate(271,1439)" >
<path fill="black" d="M-418 -463 Q-394 -412 -382.5 -363 Q-371 -314 -371 -248 L-371 -169 L-308 -169 L-308 -246 Q-308 -325 -327 -390.5 Q-346 -456 -378 -502 L-418 -463 Z " />
</g>
</glyph>
<glyph glyph-name="Tbar" unicode="&#x166;" horiz-adv-x="871" d="M401 843 L225 843 L225 914 L401 914 L401 1385 L61 1385 L61 1456 L810 1456 L810 1385 L471 1385 L471 914 L631 914 L631 843 L471 843 L471 0 L401 0 L401 843 Z " />
<glyph glyph-name="tbar" unicode="&#x167;" horiz-adv-x="490" d="M177 629 L43 629 L43 700 L177 700 L177 1012 L47 1012 L47 1082 L177 1082 L177 1369 L245 1369 L245 1082 L399 1082 L399 1012 L245 1012 L245 700 L449 700 L449 629 L245 629 L245 261 Q245 195 253 154 Q261 113 274.5 90.5 Q288 68 306.5 60 Q325 52 345 52 Q364 52 380 54.5 Q396 57 412 61 L416 -7 Q402 -14 378 -17 Q354 -20 334 -20 Q298 -20 269 -6.5 Q240 7 219.5 39 Q199 71 188 125.5 Q177 180 177 261 L177 629 Z " />
<glyph glyph-name="Utilde" unicode="&#x168;" horiz-adv-x="958" >
<path fill="black" d="M139 1456 L209 1456 L209 426 Q209 324 229.5 252.5 Q250 181 286 136.5 Q322 92 371.5 71.5 Q421 51 479 51 Q538 51 587.5 71.5 Q637 92 673 136.5 Q709 181 729 252.5 Q749 324 749 426 L749 1456 L819 1456 L819 426 Q819 303 793 218 Q767 133 721 80 Q675 27 613 3 Q551 -21 479 -21 Q407 -21 344.5 3 Q282 27 236.5 80 Q191 133 165 218 Q139 303 139 426 L139 1456 Z " />
<g transform="translate(176,331)" >
<path fill="black" d="M93 1280 Q93 1368 128.5 1419 Q164 1470 218 1470 Q251 1470 274.5 1451.5 Q298 1433 318 1410.5 Q338 1388 358.5 1369.5 Q379 1351 407 1351 Q438 1351 460 1384.5 Q482 1418 482 1479 L534 1477 Q534 1433 524.5 1397 Q515 1361 498 1335 Q481 1309 458.5 1295 Q436 1281 409 1281 Q374 1281 351 1300 Q328 1319 309 1341.5 Q290 1364 270 1382.5 Q250 1401 221 1401 Q189 1401 167.5 1370 Q146 1339 146 1279 L93 1280 Z " />
</g>
</glyph>
<glyph glyph-name="utilde" unicode="&#x169;" horiz-adv-x="803" >
<path fill="black" d="M130 1082 L198 1082 L198 391 Q198 296 211.5 231 Q225 166 249 126.5 Q273 87 305.5 69.5 Q338 52 375 52 Q426 52 464.5 70 Q503 88 530.5 120 Q558 152 575.5 195.5 Q593 239 602 289 L602 1082 L672 1082 L672 0 L605 0 L603 147 Q570 69 512 24.5 Q454 -20 368 -20 Q315 -20 271 2.5 Q227 25 195.5 74 Q164 123 147 202 Q130 281 130 393 L130 1082 Z " />
<g transform="translate(101,14)" >
<path fill="black" d="M93 1280 Q93 1368 128.5 1419 Q164 1470 218 1470 Q251 1470 274.5 1451.5 Q298 1433 318 1410.5 Q338 1388 358.5 1369.5 Q379 1351 407 1351 Q438 1351 460 1384.5 Q482 1418 482 1479 L534 1477 Q534 1433 524.5 1397 Q515 1361 498 1335 Q481 1309 458.5 1295 Q436 1281 409 1281 Q374 1281 351 1300 Q328 1319 309 1341.5 Q290 1364 270 1382.5 Q250 1401 221 1401 Q189 1401 167.5 1370 Q146 1339 146 1279 L93 1280 Z " />
</g>
</glyph>
<glyph glyph-name="Umacron" unicode="&#x16a;" horiz-adv-x="958" >
<path fill="black" d="M139 1456 L209 1456 L209 426 Q209 324 229.5 252.5 Q250 181 286 136.5 Q322 92 371.5 71.5 Q421 51 479 51 Q538 51 587.5 71.5 Q637 92 673 136.5 Q709 181 729 252.5 Q749 324 749 426 L749 1456 L819 1456 L819 426 Q819 303 793 218 Q767 133 721 80 Q675 27 613 3 Q551 -21 479 -21 Q407 -21 344.5 3 Q282 27 236.5 80 Q191 133 165 218 Q139 303 139 426 L139 1456 Z " />
<g transform="translate(170,328)" >
<path fill="black" d="M118 1369 L118 1438 L517 1438 L517 1369 L118 1369 Z " />
</g>
</glyph>
<glyph glyph-name="umacron" unicode="&#x16b;" horiz-adv-x="803" d="M130 1082 L198 1082 L198 391 Q198 296 211.5 231 Q225 166 249 126.5 Q273 87 305.5 69.5 Q338 52 375 52 Q426 52 464.5 70 Q503 88 530.5 120 Q558 152 575.5 195.5 Q593 239 602 289 L602 1082 L672 1082 L672 0 L605 0 L603 147 Q570 69 512 24.5 Q454 -20 368 -20 Q315 -20 271 2.5 Q227 25 195.5 74 Q164 123 147 202 Q130 281 130 393 L130 1082 Z M213 1449 L612 1449 L612 1380 L213 1380 L213 1449 Z " />
<glyph glyph-name="Uring" unicode="&#x16e;" horiz-adv-x="958" >
<path fill="black" d="M139 1456 L209 1456 L209 426 Q209 324 229.5 252.5 Q250 181 286 136.5 Q322 92 371.5 71.5 Q421 51 479 51 Q538 51 587.5 71.5 Q637 92 673 136.5 Q709 181 729 252.5 Q749 324 749 426 L749 1456 L819 1456 L819 426 Q819 303 793 218 Q767 133 721 80 Q675 27 613 3 Q551 -21 479 -21 Q407 -21 344.5 3 Q282 27 236.5 80 Q191 133 165 218 Q139 303 139 426 L139 1456 Z " />
<g transform="translate(239,319)" >
<path fill="black" d="M249 1211 Q218 1211 191.5 1224 Q165 1237 145.5 1260.5 Q126 1284 114.5 1316.5 Q103 1349 103 1387 Q103 1425 114.5 1457.5 Q126 1490 145.5 1514 Q165 1538 191.5 1552 Q218 1566 249 1566 Q280 1566 307 1552 Q334 1538 353.5 1514 Q373 1490 384 1457.5 Q395 1425 395 1387 Q395 1349 384 1316.5 Q373 1284 353.5 1260.5 Q334 1237 307 1224 Q280 1211 249 1211 Z M249 1271 Q291 1271 316.5 1303.5 Q342 1336 342 1387 Q342 1439 316.5 1472.5 Q291 1506 249 1506 Q207 1506 181.5 1472.5 Q156 1439 156 1387 Q156 1336 181.5 1303.5 Q207 1271 249 1271 Z " />
</g>
</glyph>
<glyph glyph-name="uring" unicode="&#x16f;" horiz-adv-x="803" d="M130 1082 L198 1082 L198 391 Q198 296 211.5 231 Q225 166 249 126.5 Q273 87 305.5 69.5 Q338 52 375 52 Q426 52 464.5 70 Q503 88 530.5 120 Q558 152 575.5 195.5 Q593 239 602 289 L602 1082 L672 1082 L672 0 L605 0 L603 147 Q570 69 512 24.5 Q454 -20 368 -20 Q315 -20 271 2.5 Q227 25 195.5 74 Q164 123 147 202 Q130 281 130 393 L130 1082 Z M413 1213 Q382 1213 355.5 1226 Q329 1239 309.5 1262.5 Q290 1286 278.5 1318.5 Q267 1351 267 1389 Q267 1427 278.5 1459.5 Q290 1492 309.5 1516 Q329 1540 355.5 1554 Q382 1568 413 1568 Q444 1568 471 1554 Q498 1540 517.5 1516 Q537 1492 548 1459.5 Q559 1427 559 1389 Q559 1351 548 1318.5 Q537 1286 517.5 1262.5 Q498 1239 471 1226 Q444 1213 413 1213 Z M413 1273 Q455 1273 480.5 1305.5 Q506 1338 506 1389 Q506 1441 480.5 1474.5 Q455 1508 413 1508 Q371 1508 345.5 1474.5 Q320 1441 320 1389 Q320 1338 345.5 1305.5 Q371 1273 413 1273 Z " />
<glyph glyph-name="Uhungarumlaut" unicode="&#x170;" horiz-adv-x="958" d="M139 1456 L209 1456 L209 426 Q209 324 229.5 252.5 Q250 181 286 136.5 Q322 92 371.5 71.5 Q421 51 479 51 Q538 51 587.5 71.5 Q637 92 673 136.5 Q709 181 729 252.5 Q749 324 749 426 L749 1456 L819 1456 L819 426 Q819 303 793 218 Q767 133 721 80 Q675 27 613 3 Q551 -21 479 -21 Q407 -21 344.5 3 Q282 27 236.5 80 Q191 133 165 218 Q139 303 139 426 L139 1456 Z M695 1853 L776 1853 L588 1549 L517 1549 L695 1853 Z M493 1853 L571 1853 L413 1549 L348 1549 L493 1853 Z " />
<glyph glyph-name="uhungarumlaut" unicode="&#x171;" horiz-adv-x="803" d="M130 1082 L198 1082 L198 391 Q198 296 211.5 231 Q225 166 249 126.5 Q273 87 305.5 69.5 Q338 52 375 52 Q426 52 464.5 70 Q503 88 530.5 120 Q558 152 575.5 195.5 Q593 239 602 289 L602 1082 L672 1082 L672 0 L605 0 L603 147 Q570 69 512 24.5 Q454 -20 368 -20 Q315 -20 271 2.5 Q227 25 195.5 74 Q164 123 147 202 Q130 281 130 393 L130 1082 Z M442 1232 L620 1536 L701 1536 L513 1232 L442 1232 Z M418 1536 L496 1536 L338 1232 L273 1232 L418 1536 Z " />
<glyph glyph-name="Uogonek" unicode="&#x172;" horiz-adv-x="958" d="M675 -323 Q661 -338 639 -352.5 Q617 -367 583 -367 Q535 -367 505 -328.5 Q475 -290 475 -211 Q475 -160 495 -110.5 Q515 -61 549 -15 Q515 -21 479 -21 Q407 -21 344.5 3 Q282 27 236.5 80 Q191 133 165 218 Q139 303 139 426 L139 1456 L209 1456 L209 426 Q209 324 229.5 252.5 Q250 181 286 136.5 Q322 92 371.5 71.5 Q421 51 479 51 Q538 51 587.5 71.5 Q637 92 673 136.5 Q709 181 729 252.5 Q749 324 749 426 L749 1456 L819 1456 L819 426 Q819 341 806 273.5 Q793 206 769.5 155.5 Q746 105 713 70 Q680 35 639 14 Q597 -36 566 -89.5 Q535 -143 535 -207 Q535 -243 547 -270.5 Q559 -298 593 -298 Q619 -298 635.5 -286 Q652 -274 664 -262 L675 -323 Z " />
<glyph glyph-name="uogonek" unicode="&#x173;" horiz-adv-x="803" d="M603 147 Q570 69 512 24.5 Q454 -20 368 -20 Q315 -20 271 2.5 Q227 25 195.5 74 Q164 123 147 202 Q130 281 130 393 L130 1082 L198 1082 L198 391 Q198 296 211.5 231 Q225 166 249 126.5 Q273 87 305.5 69.5 Q338 52 375 52 Q426 52 464.5 70 Q503 88 530.5 120 Q558 152 575.5 195.5 Q593 239 602 289 L602 1082 L672 1082 L672 0 L668 0 Q644 -27 622.5 -55 Q601 -83 584 -113 Q567 -143 557 -175 Q547 -207 547 -242 Q547 -278 559 -305.5 Q571 -333 605 -333 Q631 -333 647.5 -321 Q664 -309 676 -297 L687 -358 Q673 -373 651 -387.5 Q629 -402 595 -402 Q547 -402 517 -363.5 Q487 -325 487 -246 Q487 -180 520 -116 Q553 -52 605 2 L603 147 Z " />
<glyph glyph-name="Wcircumflex" unicode="&#x174;" horiz-adv-x="1281" >
<path fill="black" d="M66 1456 L139 1456 L324 329 L356 124 L391 325 L608 1456 L679 1456 L894 325 L928 125 L962 329 L1147 1456 L1218 1456 L968 0 L894 0 L668 1197 L644 1329 L619 1197 L391 0 L317 0 L66 1456 Z " />
<g transform="translate(333,317)" >
<path fill="black" d="M129 1276 L288 1520 L333 1520 L494 1272 L494 1262 L427 1262 L310 1454 L193 1262 L129 1262 L129 1276 Z " />
</g>
</glyph>
<glyph glyph-name="wcircumflex" unicode="&#x175;" horiz-adv-x="1082" >
<path fill="black" d="M73 1082 L145 1082 L291 291 L314 129 L343 293 L509 1082 L568 1082 L733 295 L763 122 L789 292 L933 1082 L1003 1082 L796 0 L735 0 L557 829 L538 948 L517 829 L341 0 L280 0 L73 1082 Z " />
<g transform="translate(226,0)" >
<path fill="black" d="M129 1276 L288 1520 L333 1520 L494 1272 L494 1262 L427 1262 L310 1454 L193 1262 L129 1262 L129 1276 Z " />
</g>
</glyph>
<glyph glyph-name="Ycircumflex" unicode="&#x176;" horiz-adv-x="872" >
<path fill="black" d="M400 551 L45 1456 L129 1456 L435 623 L745 1456 L825 1456 L470 551 L470 0 L400 0 L400 551 Z " />
<g transform="translate(126,308)" >
<path fill="black" d="M129 1276 L288 1520 L333 1520 L494 1272 L494 1262 L427 1262 L310 1454 L193 1262 L129 1262 L129 1276 Z " />
</g>
</glyph>
<glyph glyph-name="ycircumflex" unicode="&#x177;" horiz-adv-x="706" >
<path fill="black" d="M90 -358 Q99 -361 113.5 -363.5 Q128 -366 135 -366 Q167 -366 191 -351 Q215 -336 233.5 -309 Q252 -282 265.5 -243.5 Q279 -205 291 -158 L329 1 L49 1082 L124 1082 L360 128 L587 1082 L661 1082 L349 -178 Q340 -213 327 -258 Q314 -303 291.5 -343 Q269 -383 235 -410 Q201 -437 151 -437 Q137 -437 118.5 -433.5 Q100 -430 91 -425 L90 -358 Z " />
<g transform="translate(61,0)" >
<path fill="black" d="M129 1276 L288 1520 L333 1520 L494 1272 L494 1262 L427 1262 L310 1454 L193 1262 L129 1262 L129 1276 Z " />
</g>
</glyph>
<glyph glyph-name="Ydieresis" unicode="&#x178;" horiz-adv-x="872" >
<g transform="translate(66,308)" >
<path fill="black" d="M185 1349 Q159 1349 144 1367.5 Q129 1386 129 1412 Q129 1439 144 1458 Q159 1477 185 1477 Q211 1477 227.5 1458 Q244 1439 244 1412 Q244 1386 227.5 1367.5 Q211 1349 185 1349 Z M545 1349 Q519 1349 504 1367.5 Q489 1386 489 1412 Q489 1439 504 1458 Q519 1477 545 1477 Q571 1477 587.5 1458 Q604 1439 604 1412 Q604 1386 587.5 1367.5 Q571 1349 545 1349 Z " />
</g>
<path fill="black" d="M400 551 L45 1456 L129 1456 L435 623 L745 1456 L825 1456 L470 551 L470 0 L400 0 L400 551 Z " />
</glyph>
<glyph glyph-name="Zacute" unicode="&#x179;" horiz-adv-x="871" >
<path fill="black" d="M86 61 L687 1385 L108 1385 L108 1456 L765 1456 L765 1401 L165 72 L785 72 L785 0 L86 0 L86 61 Z " />
<g transform="translate(280,317)" >
<path fill="black" d="M262 1536 L351 1536 L179 1265 L108 1265 L262 1536 Z " />
</g>
</glyph>
<glyph glyph-name="zacute" unicode="&#x17a;" horiz-adv-x="715" >
<path fill="black" d="M84 60 L542 1010 L101 1010 L101 1082 L619 1082 L619 1020 L161 71 L652 71 L652 0 L84 0 L84 60 Z " />
<g transform="translate(214,0)" >
<path fill="black" d="M262 1536 L351 1536 L179 1265 L108 1265 L262 1536 Z " />
</g>
</glyph>
<glyph glyph-name="Zdotaccent" unicode="&#x17b;" horiz-adv-x="871" d="M86 61 L687 1385 L108 1385 L108 1456 L765 1456 L765 1401 L165 72 L785 72 L785 0 L86 0 L86 61 Z M431 1646 Q405 1646 390 1664.5 Q375 1683 375 1709 Q375 1736 390 1755 Q405 1774 431 1774 Q457 1774 473.5 1755 Q490 1736 490 1709 Q490 1683 473.5 1664.5 Q457 1646 431 1646 Z " />
<glyph glyph-name="zdotaccent" unicode="&#x17c;" horiz-adv-x="715" d="M84 60 L542 1010 L101 1010 L101 1082 L619 1082 L619 1020 L161 71 L652 71 L652 0 L84 0 L84 60 Z M365 1329 Q339 1329 324 1347.5 Q309 1366 309 1392 Q309 1419 324 1438 Q339 1457 365 1457 Q391 1457 407.5 1438 Q424 1419 424 1392 Q424 1366 407.5 1347.5 Q391 1329 365 1329 Z " />
<glyph glyph-name="Zcaron" unicode="&#x17d;" horiz-adv-x="871" d="M86 61 L687 1385 L108 1385 L108 1456 L765 1456 L765 1401 L165 72 L785 72 L785 0 L86 0 L86 61 Z M406 1566 L250 1822 L250 1833 L314 1833 L434 1624 L554 1833 L616 1833 L616 1820 L461 1566 L406 1566 Z " />
<glyph glyph-name="zcaron" unicode="&#x17e;" horiz-adv-x="715" d="M84 60 L542 1010 L101 1010 L101 1082 L619 1082 L619 1020 L161 71 L652 71 L652 0 L84 0 L84 60 Z M340 1249 L184 1505 L184 1516 L248 1516 L368 1307 L488 1516 L550 1516 L550 1503 L395 1249 L340 1249 Z " />
<glyph glyph-name="florin" unicode="&#x192;" horiz-adv-x="494" d="M-14 -349 Q-3 -355 16 -360.5 Q35 -366 52 -366 Q118 -366 152.5 -294.5 Q187 -223 187 -89 L187 1012 L65 1012 L65 1082 L187 1082 L187 1229 Q187 1389 240 1473 Q293 1557 389 1557 Q412 1557 434 1553 Q456 1549 479 1539 L471 1471 Q453 1479 436.5 1482.5 Q420 1486 395 1486 Q328 1486 291 1419 Q254 1352 254 1229 L254 1082 L429 1082 L429 1012 L254 1012 L254 -89 Q254 -259 201.5 -348 Q149 -437 54 -437 Q34 -437 15.5 -432 Q-3 -427 -23 -417 L-14 -349 Z " />
<glyph glyph-name="Ohorn" unicode="&#x1a0;" horiz-adv-x="1241" d="M141 912 Q141 1049 166.5 1154 Q192 1259 240 1330.5 Q288 1402 356 1439 Q424 1476 509 1476 Q615 1476 693.5 1420.5 Q772 1365 819 1256 Q891 1272 916.5 1347 Q942 1422 942 1549 L1002 1549 Q1002 1397 965 1306 Q928 1215 842 1192 Q878 1075 878 912 L878 544 Q878 408 852.5 302.5 Q827 197 779.5 125 Q732 53 664 16 Q596 -21 510 -21 Q425 -21 357 16 Q289 53 241 125 Q193 197 167 302.5 Q141 408 141 544 L141 912 Z M211 544 Q211 304 288.5 178 Q366 52 510 52 Q656 52 732 178 Q808 304 808 544 L808 914 Q808 1152 731.5 1277.5 Q655 1403 509 1403 Q364 1403 287.5 1277.5 Q211 1152 211 914 L211 544 Z " />
<glyph glyph-name="ohorn" unicode="&#x1a1;" horiz-adv-x="982" d="M110 603 Q110 723 130.5 815.5 Q151 908 190 972 Q229 1036 285 1069 Q341 1102 412 1102 Q488 1102 547 1065.5 Q606 1029 645 957 Q679 963 700 981.5 Q721 1000 732.5 1030.5 Q744 1061 748 1103 Q752 1145 752 1197 L809 1197 Q809 1069 778.5 993 Q748 917 672 897 Q716 779 716 603 L716 479 Q716 359 695.5 266 Q675 173 636 109.5 Q597 46 541 12.5 Q485 -21 414 -21 Q342 -21 285.5 12.5 Q229 46 190 109.5 Q151 173 130.5 266 Q110 359 110 479 L110 603 Z M178 479 Q178 385 192.5 306 Q207 227 236.5 170 Q266 113 310 81.5 Q354 50 414 50 Q474 50 518 81.5 Q562 113 591 170 Q620 227 634 306 Q648 385 648 479 L648 603 Q648 695 633.5 773.5 Q619 852 589.5 909 Q560 966 516 998.5 Q472 1031 412 1031 Q353 1031 309 998.5 Q265 966 236 909 Q207 852 192.5 773.5 Q178 695 178 603 L178 479 Z " />
<glyph glyph-name="Uhorn" unicode="&#x1af;" horiz-adv-x="1187" d="M148 1456 L218 1456 L218 426 Q218 324 238.5 252.5 Q259 181 295 136.5 Q331 92 380.5 71.5 Q430 51 488 51 Q547 51 596.5 71.5 Q646 92 682 136.5 Q718 181 738 252.5 Q758 324 758 426 L758 1456 L828 1456 L828 1249 Q871 1255 898.5 1277 Q926 1299 942 1337 Q958 1375 964 1428.5 Q970 1482 970 1549 L1028 1549 Q1028 1464 1017.5 1398 Q1007 1332 983.5 1285.5 Q960 1239 922 1213 Q884 1187 828 1181 L828 426 Q828 303 802 218 Q776 133 730 80 Q684 27 622 3 Q560 -21 488 -21 Q416 -21 353.5 3 Q291 27 245.5 80 Q200 133 174 218 Q148 303 148 426 L148 1456 Z " />
<glyph glyph-name="uhorn" unicode="&#x1b0;" horiz-adv-x="1010" d="M139 1082 L207 1082 L207 391 Q207 296 220.5 231 Q234 166 258 126.5 Q282 87 314.5 69.5 Q347 52 384 52 Q435 52 473.5 70 Q512 88 539.5 120 Q567 152 584.5 195.5 Q602 239 611 289 L611 1082 L681 1082 L681 950 Q715 956 735.5 974 Q756 992 767 1022 Q778 1052 781.5 1093 Q785 1134 785 1186 L842 1186 Q842 1119 834 1065.5 Q826 1012 807.5 974 Q789 936 758 913.5 Q727 891 681 885 L681 0 L614 0 L612 147 Q579 69 521 24.5 Q463 -20 377 -20 Q324 -20 280 2.5 Q236 25 204.5 74 Q173 123 156 202 Q139 281 139 393 L139 1082 Z " />
<glyph glyph-name="uni0218" unicode="&#x218;" horiz-adv-x="1047" >
<path fill="black" d="M156 413 Q156 310 183 240.5 Q210 171 252 129 Q294 87 346 69.5 Q398 52 449 52 Q508 52 556.5 73.5 Q605 95 639.5 134.5 Q674 174 693 229.5 Q712 285 712 352 Q712 418 698 469.5 Q684 521 652 562.5 Q620 604 567 639 Q514 674 436 707 Q363 737 304 772 Q245 807 203.5 853.5 Q162 900 139.5 963 Q117 1026 117 1113 Q117 1197 141.5 1264 Q166 1331 209.5 1378 Q253 1425 313.5 1450.5 Q374 1476 445 1476 Q519 1476 580 1444 Q641 1412 684 1354.5 Q727 1297 750.5 1218 Q774 1139 774 1044 L705 1044 Q705 1121 687 1187 Q669 1253 635.5 1301.5 Q602 1350 553.5 1377.5 Q505 1405 444 1405 Q382 1405 334 1381.5 Q286 1358 253.5 1318 Q221 1278 204 1225.5 Q187 1173 187 1115 Q187 1059 200 1011.5 Q213 964 244.5 923 Q276 882 328 846 Q380 810 458 778 Q533 749 593 713 Q653 677 695 627.5 Q737 578 760 511.5 Q783 445 783 354 Q783 265 757.5 195.5 Q732 126 687 78 Q642 30 581 5 Q520 -20 449 -20 Q385 -20 320.5 2.5 Q256 25 204 76.5 Q152 128 119.5 210.5 Q87 293 87 413 L156 413 Z " />
<g transform="translate(317,-252)" >
<path fill="black" d="M-418 -463 Q-394 -412 -382.5 -363 Q-371 -314 -371 -248 L-371 -169 L-308 -169 L-308 -246 Q-308 -325 -327 -390.5 Q-346 -456 -378 -502 L-418 -463 Z " />
</g>
</glyph>
<glyph glyph-name="uni0219" unicode="&#x219;" horiz-adv-x="895" >
<path fill="black" d="M158 275 Q161 207 181.5 163.5 Q202 120 232 95 Q262 70 299 60.5 Q336 51 372 51 Q419 51 455.5 68 Q492 85 517 113.5 Q542 142 554.5 179.5 Q567 217 567 258 Q567 294 556.5 325 Q546 356 521.5 386.5 Q497 417 457 449 Q417 481 358 518 Q301 554 256 585.5 Q211 617 180 652 Q149 687 132.5 729 Q116 771 116 827 Q116 885 133 935.5 Q150 986 182.5 1023 Q215 1060 261.5 1081 Q308 1102 366 1102 Q428 1102 477 1080 Q526 1058 560.5 1017.5 Q595 977 613.5 920 Q632 863 632 794 L563 794 Q563 841 550 884 Q537 927 512.5 959.5 Q488 992 451 1011.5 Q414 1031 366 1031 Q317 1031 282.5 1013 Q248 995 225.5 966.5 Q203 938 192.5 902 Q182 866 182 830 Q182 796 191 768.5 Q200 741 223.5 714 Q247 687 286.5 656 Q326 625 387 584 Q442 549 487.5 518 Q533 487 565.5 451 Q598 415 616 369.5 Q634 324 634 260 Q634 196 615.5 144 Q597 92 562.5 55.5 Q528 19 479.5 -0.5 Q431 -20 371 -20 Q303 -20 250.5 3 Q198 26 162.5 66 Q127 106 109 160 Q91 214 91 275 L158 275 Z " />
<g transform="translate(228,-250)" >
<path fill="black" d="M-418 -463 Q-394 -412 -382.5 -363 Q-371 -314 -371 -248 L-371 -169 L-308 -169 L-308 -246 Q-308 -325 -327 -390.5 Q-346 -456 -378 -502 L-418 -463 Z " />
</g>
</glyph>
<glyph glyph-name="uni021A" unicode="&#x21a;" horiz-adv-x="1056" >
<path fill="black" d="M401 1385 L61 1385 L61 1456 L810 1456 L810 1385 L471 1385 L471 0 L401 0 L401 1385 Z " />
<g transform="translate(301,-244)" >
<path fill="black" d="M-418 -463 Q-394 -412 -382.5 -363 Q-371 -314 -371 -248 L-371 -169 L-308 -169 L-308 -246 Q-308 -325 -327 -390.5 Q-346 -456 -378 -502 L-418 -463 Z " />
</g>
</glyph>
<glyph glyph-name="uni021B" unicode="&#x21b;" horiz-adv-x="584" >
<path fill="black" d="M177 1012 L47 1012 L47 1082 L177 1082 L177 1369 L245 1369 L245 1082 L399 1082 L399 1012 L245 1012 L245 261 Q245 195 253 154 Q261 113 274.5 90.5 Q288 68 306.5 60 Q325 52 345 52 Q364 52 380 54.5 Q396 57 412 61 L416 -7 Q402 -14 378 -17 Q354 -20 334 -20 Q298 -20 269 -6.5 Q240 7 219.5 39 Q199 71 188 125.5 Q177 180 177 261 L177 1012 Z " />
<g transform="translate(144,-244)" >
<path fill="black" d="M-418 -463 Q-394 -412 -382.5 -363 Q-371 -314 -371 -248 L-371 -169 L-308 -169 L-308 -246 Q-308 -325 -327 -390.5 Q-346 -456 -378 -502 L-418 -463 Z " />
</g>
</glyph>
<glyph glyph-name="uni0298" unicode="&#x298;" horiz-adv-x="1183" d="M126 912 Q126 1049 151.5 1154 Q177 1259 225 1330.5 Q273 1402 341 1439 Q409 1476 494 1476 Q580 1476 648 1439 Q716 1402 764 1330.5 Q812 1259 837.5 1154 Q863 1049 863 912 L863 544 Q863 408 837.5 302.5 Q812 197 764.5 125 Q717 53 649 16 Q581 -21 495 -21 Q410 -21 342 16 Q274 53 226 125 Q178 197 152 302.5 Q126 408 126 544 L126 912 Z M793 914 Q793 1152 716.5 1277.5 Q640 1403 494 1403 Q349 1403 272.5 1277.5 Q196 1152 196 914 L196 544 Q196 304 273.5 178 Q351 52 495 52 Q641 52 717 178 Q793 304 793 544 L793 914 Z M486 665 Q463 665 448.5 683.5 Q434 702 434 729 Q434 756 448.5 775 Q463 794 486 794 Q509 794 523.5 775 Q538 756 538 729 Q538 702 523.5 683.5 Q509 665 486 665 Z " />
<glyph glyph-name="uni02AA" unicode="&#x2aa;" horiz-adv-x="1065" d="M389 -7 Q375 -14 351 -17 Q327 -20 307 -20 Q271 -20 242 -6.5 Q213 7 192.5 39 Q172 71 161 125.5 Q150 180 150 261 L150 1536 L218 1536 L218 261 Q218 245 218.5 231 Q219 217 220 203 Q293 125 369 87.5 Q445 50 523 50 Q569 50 604.5 69 Q640 88 664.5 118.5 Q689 149 701.5 188.5 Q714 228 714 269 Q714 305 705 341.5 Q696 378 673.5 411.5 Q651 445 611.5 473.5 Q572 502 511 522 Q450 542 403.5 566 Q357 590 325.5 625 Q294 660 278 708 Q262 756 262 822 Q262 880 279.5 931 Q297 982 329.5 1020 Q362 1058 408.5 1080 Q455 1102 513 1102 Q575 1102 624.5 1079 Q674 1056 708.5 1014.5 Q743 973 761 915 Q779 857 779 788 L711 788 Q711 836 698 879.5 Q685 923 659.5 957 Q634 991 597.5 1011 Q561 1031 513 1031 Q464 1031 429.5 1012.5 Q395 994 373 964 Q351 934 340.5 897 Q330 860 330 824 Q330 782 338.5 748 Q347 714 369 685 Q391 656 430 632 Q469 608 530 587 Q594 566 641 538.5 Q688 511 719 473.5 Q750 436 765.5 386 Q781 336 781 270 Q781 206 762.5 152.5 Q744 99 710 60.5 Q676 22 628.5 0.5 Q581 -21 523 -21 Q488 -21 454 -14 Q420 -7 388 5 L389 -7 Z M252 84 Q267 62 292 55 Q281 62 271.5 69 Q262 76 252 84 Z " />
<glyph glyph-name="uni02AD" unicode="&#x2ad;" horiz-adv-x="694" d="M100 581 L593 581 L593 0 L537 0 L537 516 L158 516 L158 0 L100 0 L100 581 Z M100 1455 L593 1455 L593 874 L537 874 L537 1390 L158 1390 L158 874 L100 874 L100 1455 Z " />
<glyph glyph-name="uni02AF" unicode="&#x2af;" horiz-adv-x="970" d="M705 206 Q688 157 664.5 115.5 Q641 74 610.5 44 Q580 14 543.5 -3 Q507 -20 465 -20 Q411 -20 367.5 5 Q324 30 294 83.5 Q264 137 248 221.5 Q232 306 232 425 L232 762 Q232 895 205 965 Q178 1035 112 1035 Q96 1035 79.5 1029.5 Q63 1024 52 1019 L46 1083 Q65 1092 83 1097 Q101 1102 122 1102 Q211 1102 256 1015 Q301 928 301 762 L301 425 Q301 314 314 241.5 Q327 169 350.5 126.5 Q374 84 406 67 Q438 50 476 50 Q528 50 567.5 80.5 Q607 111 634.5 158 Q662 205 679.5 262 Q697 319 705 372 L705 1082 L774 1082 L774 -97 Q774 -230 801 -300 Q828 -370 894 -370 Q911 -370 927 -364.5 Q943 -359 952 -354 L960 -418 Q940 -427 922 -432 Q904 -437 883 -437 Q796 -437 750.5 -350 Q705 -263 705 -97 L705 206 Z " />
<glyph glyph-name="uni02B5" unicode="&#x2b5;" horiz-adv-x="467" d="M253 795 Q227 723 187.5 681.5 Q148 640 98 640 Q83 640 72 642 Q61 644 53 646 L53 716 Q62 713 75.5 710.5 Q89 708 105 708 Q132 708 155.5 723 Q179 738 198 766 Q217 794 231 832.5 Q245 871 253 917 L253 1455 L314 1455 L314 534 Q314 447 362 447 Q374 447 387.5 449.5 Q401 452 415 460 L415 388 Q395 380 376 377 Q357 374 340 374 Q294 374 273.5 418 Q253 462 253 531 L253 795 Z " />
<glyph glyph-name="uni02B9" unicode="&#x2b9;" horiz-adv-x="284" d="M148 1560 L213 1560 L117 1136 L69 1136 L148 1560 Z " />
<glyph glyph-name="uni02BA" unicode="&#x2ba;" horiz-adv-x="424" >
<g transform="translate(9,0)" >
<path fill="black" d="M148 1560 L213 1560 L117 1136 L69 1136 L148 1560 Z " />
</g>
<g transform="translate(166,0)" >
<path fill="black" d="M148 1560 L213 1560 L117 1136 L69 1136 L148 1560 Z " />
</g>
</glyph>
<glyph glyph-name="uni02BB" unicode="&#x2bb;" horiz-adv-x="284" d="M80 1276 Q80 1370 103 1445.5 Q126 1521 164 1575 L205 1536 Q175 1476 160 1417 Q145 1358 145 1278 L145 1106 L80 1106 L80 1276 Z " />
<glyph glyph-name="uni02BC" unicode="&#x2bc;" horiz-adv-x="287" d="M82 1172 Q111 1232 126 1290.5 Q141 1349 141 1427 L141 1536 L206 1536 L206 1429 Q206 1336 182.5 1261.5 Q159 1187 121 1133 L82 1172 Z " />
<glyph glyph-name="uni02BD" unicode="&#x2bd;" horiz-adv-x="284" d="M164 1106 Q126 1160 103 1235.5 Q80 1311 80 1405 L80 1575 L145 1575 L145 1402 Q145 1323 160 1264 Q175 1205 205 1145 L164 1106 Z " />
<glyph glyph-name="uni02BE" unicode="&#x2be;" horiz-adv-x="249" d="M74 1250 Q97 1250 112.5 1273.5 Q128 1297 128 1333 Q128 1371 112.5 1395 Q97 1419 74 1419 L74 1482 Q95 1482 114 1470.5 Q133 1459 146.5 1438.5 Q160 1418 168 1391 Q176 1364 176 1333 Q176 1302 168 1276 Q160 1250 146.5 1230.5 Q133 1211 114 1200 Q95 1189 74 1189 L74 1250 Z " />
<glyph glyph-name="uni02BF" unicode="&#x2bf;" horiz-adv-x="249" d="M176 1189 Q155 1189 136.5 1200 Q118 1211 104 1230.5 Q90 1250 82 1276 Q74 1302 74 1333 Q74 1364 82 1391 Q90 1418 104 1438.5 Q118 1459 136.5 1470.5 Q155 1482 176 1482 L176 1419 Q152 1419 136.5 1395 Q121 1371 121 1333 Q121 1297 136.5 1273.5 Q152 1250 176 1250 L176 1189 Z " />
<glyph glyph-name="uni02C0" unicode="&#x2c0;" horiz-adv-x="552" d="M225 964 L251 964 Q297 964 328.5 991.5 Q360 1019 379 1066.5 Q398 1114 406.5 1177.5 Q415 1241 415 1313 L415 1407 Q415 1478 405.5 1538 Q396 1598 376 1642 Q356 1686 325.5 1711 Q295 1736 253 1736 Q225 1736 199.5 1723.5 Q174 1711 154.5 1685.5 Q135 1660 123 1620 Q111 1580 109 1525 L51 1525 Q52 1593 68.5 1645.5 Q85 1698 112 1733.5 Q139 1769 175.5 1787.5 Q212 1806 253 1806 Q307 1806 349 1776 Q391 1746 419.5 1693 Q448 1640 462.5 1567 Q477 1494 477 1407 L477 1313 Q477 1231 466 1159.5 Q455 1088 431.5 1033 Q408 978 372.5 943 Q337 908 288 898 L288 651 L225 651 L225 964 Z " />
<glyph glyph-name="uni02C1" unicode="&#x2c1;" horiz-adv-x="552" d="M266 898 Q217 907 181 942 Q145 977 121.5 1032 Q98 1087 86.5 1158.5 Q75 1230 75 1313 L75 1407 Q75 1494 90 1567 Q105 1640 133.5 1693 Q162 1746 203.5 1776 Q245 1806 299 1806 Q340 1806 376.5 1787.5 Q413 1769 440.5 1733.5 Q468 1698 484.5 1645.5 Q501 1593 503 1525 L445 1525 Q443 1580 430.5 1620 Q418 1660 398.5 1685.5 Q379 1711 353.5 1723.5 Q328 1736 299 1736 Q257 1736 227 1711 Q197 1686 177 1642 Q157 1598 147.5 1538 Q138 1478 138 1407 L138 1313 Q138 1241 146 1177.5 Q154 1114 173.5 1066.5 Q193 1019 224.5 991.5 Q256 964 302 964 L328 964 L328 651 L266 651 L266 898 Z " />
<glyph glyph-name="uni02C2" unicode="&#x2c2;" horiz-adv-x="637" d="M75 996 L562 1329 L562 1251 L207 1002 L128 962 L207 921 L562 673 L562 596 L75 930 L75 996 Z " />
<glyph glyph-name="uni02C3" unicode="&#x2c3;" horiz-adv-x="622" d="M50 673 L405 921 L484 962 L405 1002 L50 1251 L50 1329 L536 996 L536 930 L50 596 L50 673 Z " />
<glyph glyph-name="uni02C4" unicode="&#x2c4;" horiz-adv-x="610" d="M280 1310 L335 1310 L553 583 L491 583 L332 1129 L308 1228 L283 1129 L126 583 L62 583 L280 1310 Z " />
<glyph glyph-name="uni02C5" unicode="&#x2c5;" horiz-adv-x="625" d="M62 1310 L126 1310 L283 764 L308 665 L332 764 L491 1310 L553 1310 L335 583 L280 583 L62 1310 Z " />
<glyph glyph-name="circumflex" unicode="&#x2c6;" horiz-adv-x="621" d="M129 1276 L288 1520 L333 1520 L494 1272 L494 1262 L427 1262 L310 1454 L193 1262 L129 1262 L129 1276 Z " />
<glyph glyph-name="caron" unicode="&#x2c7;" horiz-adv-x="596" d="M120 1500 L120 1511 L184 1511 L304 1302 L424 1511 L486 1511 L486 1498 L331 1244 L276 1244 L120 1500 Z " />
<glyph glyph-name="uni02C8" unicode="&#x2c8;" horiz-adv-x="205" d="M75 1151 L75 1559 L131 1559 L131 1151 L75 1151 Z " />
<glyph glyph-name="uni02C9" unicode="&#x2c9;" horiz-adv-x="624" >
<g transform="translate(9,0)" >
<path fill="black" d="M118 1369 L118 1438 L517 1438 L517 1369 L118 1369 Z " />
</g>
</glyph>
<glyph glyph-name="uni02CA" unicode="&#x2ca;" horiz-adv-x="392" >
<g transform="translate(-11,0)" >
<path fill="black" d="M262 1536 L351 1536 L179 1265 L108 1265 L262 1536 Z " />
</g>
</glyph>
<glyph glyph-name="uni02CB" unicode="&#x2cb;" horiz-adv-x="396" >
<g transform="translate(1,0)" >
<path fill="black" d="M277 1265 L106 1536 L195 1536 L348 1265 L277 1265 Z " />
</g>
</glyph>
<glyph glyph-name="uni02CC" unicode="&#x2cc;" horiz-adv-x="205" d="M75 -532 L75 -132 L131 -132 L131 -532 L75 -532 Z " />
<glyph glyph-name="uni02CD" unicode="&#x2cd;" horiz-adv-x="587" >
<g transform="translate(-11,-1600)" >
<path fill="black" d="M118 1369 L118 1438 L517 1438 L517 1369 L118 1369 Z " />
</g>
</glyph>
<glyph glyph-name="uni02CE" unicode="&#x2ce;" horiz-adv-x="396" >
<g transform="translate(1,-1617)" >
<path fill="black" d="M277 1265 L106 1536 L195 1536 L348 1265 L277 1265 Z " />
</g>
</glyph>
<glyph glyph-name="uni02CF" unicode="&#x2cf;" horiz-adv-x="392" >
<g transform="translate(-11,-1617)" >
<path fill="black" d="M262 1536 L351 1536 L179 1265 L108 1265 L262 1536 Z " />
</g>
</glyph>
<glyph glyph-name="uni02D0" unicode="&#x2d0;" horiz-adv-x="320" d="M101 0 L156 120 L165 120 L219 0 L101 0 Z M101 1065 L219 1065 L165 945 L156 945 L101 1065 Z " />
<glyph glyph-name="uni02D1" unicode="&#x2d1;" horiz-adv-x="320" d="M101 1065 L219 1065 L165 945 L156 945 L101 1065 Z " />
<glyph glyph-name="uni02D2" unicode="&#x2d2;" horiz-adv-x="249" >
<g transform="translate(9,-1006)" >
<path fill="black" d="M74 1250 Q97 1250 112.5 1273.5 Q128 1297 128 1333 Q128 1371 112.5 1395 Q97 1419 74 1419 L74 1482 Q95 1482 114 1470.5 Q133 1459 146.5 1438.5 Q160 1418 168 1391 Q176 1364 176 1333 Q176 1302 168 1276 Q160 1250 146.5 1230.5 Q133 1211 114 1200 Q95 1189 74 1189 L74 1250 Z " />
</g>
</glyph>
<glyph glyph-name="uni02D3" unicode="&#x2d3;" horiz-adv-x="249" d="M176 183 Q155 183 136.5 194 Q118 205 104 224.5 Q90 244 82 270.5 Q74 297 74 328 Q74 359 82 386 Q90 413 104 433 Q118 453 136.5 464.5 Q155 476 176 476 L176 414 Q152 414 136.5 390 Q121 366 121 328 Q121 291 136.5 268 Q152 245 176 245 L176 183 Z " />
<glyph glyph-name="uni02D5" unicode="&#x2d5;" horiz-adv-x="435" d="M190 446 L80 446 L80 514 L355 514 L355 446 L245 446 L245 171 L190 171 L190 446 Z " />
<glyph glyph-name="uni02D6" unicode="&#x2d6;" horiz-adv-x="435" d="M190 322 L80 322 L80 389 L190 389 L190 558 L245 558 L245 389 L355 389 L355 322 L245 322 L245 151 L190 151 L190 322 Z " />
<glyph glyph-name="uni02D7" unicode="&#x2d7;" horiz-adv-x="452" d="M75 389 L378 389 L378 322 L75 322 L75 389 Z " />
<glyph glyph-name="breve" unicode="&#x2d8;" horiz-adv-x="715" d="M184 1488 Q184 1450 193 1416.5 Q202 1383 221.5 1357.5 Q241 1332 272.5 1317.5 Q304 1303 350 1303 Q394 1303 425 1318 Q456 1333 476 1358.5 Q496 1384 505.5 1417.5 Q515 1451 515 1488 L582 1488 Q582 1433 566 1386.5 Q550 1340 520 1306.5 Q490 1273 447 1254.5 Q404 1236 350 1236 Q296 1236 253 1254.5 Q210 1273 180 1306.5 Q150 1340 134 1386.5 Q118 1433 118 1488 L184 1488 Z " />
<glyph glyph-name="dotaccent" unicode="&#x2d9;" horiz-adv-x="375" >
<g transform="translate(2,1336)" >
<path fill="black" d="M185 -7 Q158 -7 142 11.5 Q126 30 126 57 Q126 85 142 104 Q158 123 185 123 Q211 123 228 104 Q245 85 245 57 Q245 30 228 11.5 Q211 -7 185 -7 Z " />
</g>
</glyph>
<glyph glyph-name="ring" unicode="&#x2da;" horiz-adv-x="510" d="M249 1211 Q218 1211 191.5 1224 Q165 1237 145.5 1260.5 Q126 1284 114.5 1316.5 Q103 1349 103 1387 Q103 1425 114.5 1457.5 Q126 1490 145.5 1514 Q165 1538 191.5 1552 Q218 1566 249 1566 Q280 1566 307 1552 Q334 1538 353.5 1514 Q373 1490 384 1457.5 Q395 1425 395 1387 Q395 1349 384 1316.5 Q373 1284 353.5 1260.5 Q334 1237 307 1224 Q280 1211 249 1211 Z M249 1271 Q291 1271 316.5 1303.5 Q342 1336 342 1387 Q342 1439 316.5 1472.5 Q291 1506 249 1506 Q207 1506 181.5 1472.5 Q156 1439 156 1387 Q156 1336 181.5 1303.5 Q207 1271 249 1271 Z " />
<glyph glyph-name="ogonek" unicode="&#x2db;" horiz-adv-x="387" d="M269 -358 Q255 -373 233 -387.5 Q211 -402 177 -402 Q129 -402 99 -363.5 Q69 -325 69 -246 Q69 -210 80 -173.5 Q91 -137 110 -102 Q129 -67 155 -34.5 Q181 -2 211 26 L250 0 Q226 -27 204.5 -55 Q183 -83 166 -113 Q149 -143 139 -175 Q129 -207 129 -242 Q129 -278 141 -305.5 Q153 -333 187 -333 Q213 -333 229.5 -321 Q246 -309 258 -297 L269 -358 Z " />
<glyph glyph-name="tilde" unicode="&#x2dc;" horiz-adv-x="627" d="M93 1280 Q93 1368 128.5 1419 Q164 1470 218 1470 Q251 1470 274.5 1451.5 Q298 1433 318 1410.5 Q338 1388 358.5 1369.5 Q379 1351 407 1351 Q438 1351 460 1384.5 Q482 1418 482 1479 L534 1477 Q534 1433 524.5 1397 Q515 1361 498 1335 Q481 1309 458.5 1295 Q436 1281 409 1281 Q374 1281 351 1300 Q328 1319 309 1341.5 Q290 1364 270 1382.5 Q250 1401 221 1401 Q189 1401 167.5 1370 Q146 1339 146 1279 L93 1280 Z " />
<glyph glyph-name="hungarumlaut" unicode="&#x2dd;" horiz-adv-x="576" d="M459 1536 L540 1536 L352 1232 L281 1232 L459 1536 Z M257 1536 L335 1536 L177 1232 L112 1232 L257 1536 Z " />
<glyph glyph-name="uni02DE" unicode="&#x2de;" horiz-adv-x="340" d="M-100 680 L117 750 Q118 651 123 593 Q128 535 137.5 505 Q147 475 161 466 Q175 457 193 457 Q206 457 221.5 462 Q237 467 252 474 L264 407 Q243 394 222.5 386.5 Q202 379 182 379 Q154 379 132.5 390 Q111 401 96 431.5 Q81 462 72 517.5 Q63 573 60 662 L-100 608 L-100 680 Z " />
<glyph glyph-name="uni02DF" unicode="&#x2df;" horiz-adv-x="466" d="M80 1200 L199 1383 L80 1565 L117 1614 L234 1435 L349 1612 L386 1564 L268 1383 L386 1202 L349 1153 L233 1330 L117 1152 L80 1200 Z " />
<glyph glyph-name="uni02E0" unicode="&#x2e0;" horiz-adv-x="570" d="M254 662 L56 1455 L124 1455 L264 854 L285 753 L306 854 L446 1455 L515 1455 L315 660 L363 504 Q372 475 377 449 Q382 423 382 402 Q382 339 355.5 305.5 Q329 272 284 272 Q239 272 212 305.5 Q185 339 185 402 Q185 425 191.5 453 Q198 481 206 507 L254 662 Z M285 582 L278 560 Q261 504 252 468 Q243 432 243 404 Q243 340 284 340 Q325 340 325 404 Q325 432 316.5 468 Q308 504 291 560 L285 582 Z " />
<glyph glyph-name="uni02E1" unicode="&#x2e1;" horiz-adv-x="268" d="M103 651 L103 1805 L165 1805 L165 651 L103 651 Z " />
<glyph glyph-name="uni02E2" unicode="&#x2e2;" horiz-adv-x="555" d="M137 862 Q140 813 153.5 782.5 Q167 752 187.5 734.5 Q208 717 234 711 Q260 705 287 705 Q320 705 345 716.5 Q370 728 386.5 748 Q403 768 411 794 Q419 820 419 850 Q419 876 413 902 Q407 928 390.5 952 Q374 976 346.5 996 Q319 1016 275 1031 Q230 1046 196 1065 Q162 1084 139.5 1110.5 Q117 1137 105.5 1173 Q94 1209 94 1259 Q94 1303 107 1341 Q120 1379 144 1406.5 Q168 1434 202 1450 Q236 1466 278 1466 Q325 1466 362.5 1449 Q400 1432 425.5 1401.5 Q451 1371 464.5 1328 Q478 1285 478 1234 L416 1234 Q416 1269 408 1298.5 Q400 1328 383.5 1350 Q367 1372 341.5 1384.5 Q316 1397 281 1397 Q247 1397 223 1385.5 Q199 1374 184 1355 Q169 1336 162 1311 Q155 1286 155 1260 Q155 1234 160 1211 Q165 1188 180 1167.5 Q195 1147 223 1129 Q251 1111 297 1095 Q340 1080 374 1060 Q408 1040 431.5 1011.5 Q455 983 467.5 943.5 Q480 904 480 851 Q480 802 466.5 762.5 Q453 723 428 694.5 Q403 666 367 650.5 Q331 635 286 635 Q182 635 128.5 696 Q75 757 75 862 L137 862 Z " />
<glyph glyph-name="uni02E4" unicode="&#x2e4;" horiz-adv-x="550" d="M240 803 Q162 818 123 899.5 Q84 981 84 1121 Q84 1292 136.5 1379 Q189 1466 276 1466 Q314 1466 348.5 1445.5 Q383 1425 409 1386.5 Q435 1348 450.5 1293 Q466 1238 466 1169 L404 1169 Q404 1225 393.5 1267.5 Q383 1310 365.5 1338.5 Q348 1367 325 1382 Q302 1397 277 1397 Q209 1397 177 1323.5 Q145 1250 145 1122 Q145 997 175 933 Q205 869 280 869 L301 869 L301 651 L240 651 L240 803 Z " />
<glyph glyph-name="uni02EA" unicode="&#x2ea;" horiz-adv-x="600" d="M147 908 L215 908 L215 71 L546 71 L546 0 L147 0 L147 908 Z " />
<glyph glyph-name="uni02EE" unicode="&#x2ee;" horiz-adv-x="422" >
<g transform="translate(539,-14)" >
<path fill="black" d="M-459 1145 Q-429 1205 -414 1264 Q-399 1323 -399 1402 L-399 1574 L-334 1574 L-334 1404 Q-334 1311 -357.5 1235.5 Q-381 1160 -420 1106 L-459 1145 Z " />
</g>
<g transform="translate(676,-14)" >
<path fill="black" d="M-459 1145 Q-429 1205 -414 1264 Q-399 1323 -399 1402 L-399 1574 L-334 1574 L-334 1404 Q-334 1311 -357.5 1235.5 Q-381 1160 -420 1106 L-459 1145 Z " />
</g>
</glyph>
<glyph glyph-name="uni02EF" unicode="&#x2ef;" horiz-adv-x="492" d="M75 -72 L123 -72 L233 -427 L246 -482 L258 -427 L368 -72 L418 -72 L266 -545 L227 -545 L75 -72 Z " />
<glyph glyph-name="uni02F0" unicode="&#x2f0;" horiz-adv-x="492" d="M227 -72 L266 -72 L418 -545 L368 -545 L258 -190 L246 -135 L233 -190 L123 -545 L75 -545 L227 -72 Z " />
<glyph glyph-name="uni02F1" unicode="&#x2f1;" horiz-adv-x="490" d="M75 -287 L415 -71 L415 -130 L168 -292 L120 -309 L168 -328 L415 -489 L415 -547 L75 -330 L75 -287 Z " />
<glyph glyph-name="uni02F2" unicode="&#x2f2;" horiz-adv-x="490" d="M75 -489 L323 -328 L370 -309 L323 -292 L75 -130 L75 -71 L415 -287 L415 -330 L75 -547 L75 -489 Z " />
<glyph glyph-name="uni02F3" unicode="&#x2f3;" horiz-adv-x="474" d="M238 -347 Q218 -347 200.5 -337.5 Q183 -328 169.5 -311.5 Q156 -295 148.5 -272.5 Q141 -250 141 -223 Q141 -197 148.5 -173.5 Q156 -150 169.5 -132.5 Q183 -115 200.5 -105 Q218 -95 238 -95 Q259 -95 276.5 -105 Q294 -115 307 -132.5 Q320 -150 327.5 -173.5 Q335 -197 335 -223 Q335 -277 307.5 -312 Q280 -347 238 -347 Z M238 -287 Q261 -287 275.5 -269 Q290 -251 290 -223 Q290 -194 275.5 -175.5 Q261 -157 238 -157 Q217 -157 201.5 -175.5 Q186 -194 186 -223 Q186 -251 201.5 -269 Q217 -287 238 -287 Z " />
<glyph glyph-name="uni02F4" unicode="&#x2f4;" horiz-adv-x="396" >
<g transform="translate(1,-1035)" >
<path fill="black" d="M277 1265 L106 1536 L195 1536 L348 1265 L277 1265 Z " />
</g>
</glyph>
<glyph glyph-name="uni02F5" unicode="&#x2f5;" horiz-adv-x="567" >
<g transform="translate(1,-1035)" >
<path fill="black" d="M277 1265 L106 1536 L195 1536 L348 1265 L277 1265 Z " />
</g>
<g transform="translate(190,-1034)" >
<path fill="black" d="M277 1265 L106 1536 L195 1536 L348 1265 L277 1265 Z " />
</g>
</glyph>
<glyph glyph-name="uni02F6" unicode="&#x2f6;" horiz-adv-x="564" >
<g transform="translate(-11,-1036)" >
<path fill="black" d="M262 1536 L351 1536 L179 1265 L108 1265 L262 1536 Z " />
</g>
<g transform="translate(175,-1036)" >
<path fill="black" d="M262 1536 L351 1536 L179 1265 L108 1265 L262 1536 Z " />
</g>
</glyph>
<glyph glyph-name="uni02F7" unicode="&#x2f7;" horiz-adv-x="599" >
<g transform="translate(-8,-1655)" >
<path fill="black" d="M93 1280 Q93 1368 128.5 1419 Q164 1470 218 1470 Q251 1470 274.5 1451.5 Q298 1433 318 1410.5 Q338 1388 358.5 1369.5 Q379 1351 407 1351 Q438 1351 460 1384.5 Q482 1418 482 1479 L534 1477 Q534 1433 524.5 1397 Q515 1361 498 1335 Q481 1309 458.5 1295 Q436 1281 409 1281 Q374 1281 351 1300 Q328 1319 309 1341.5 Q290 1364 270 1382.5 Q250 1401 221 1401 Q189 1401 167.5 1370 Q146 1339 146 1279 L93 1280 Z " />
</g>
</glyph>
<glyph glyph-name="uni02F8" unicode="&#x2f8;" horiz-adv-x="301" >
<g transform="translate(-17,400)" >
<path fill="black" d="M185 -7 Q158 -7 142 11.5 Q126 30 126 57 Q126 85 142 104 Q158 123 185 123 Q211 123 228 104 Q245 85 245 57 Q245 30 228 11.5 Q211 -7 185 -7 Z " />
</g>
<g transform="translate(-30,1345)" >
<path fill="black" d="M185 -7 Q158 -7 142 11.5 Q126 30 126 57 Q126 85 142 104 Q158 123 185 123 Q211 123 228 104 Q245 85 245 57 Q245 30 228 11.5 Q211 -7 185 -7 Z " />
</g>
</glyph>
<glyph glyph-name="uni02F9" unicode="&#x2f9;" horiz-adv-x="426" d="M80 1536 L346 1536 L346 1469 L136 1469 L136 1150 L80 1150 L80 1536 Z " />
<glyph glyph-name="uni02FA" unicode="&#x2fa;" horiz-adv-x="426" d="M290 1469 L80 1469 L80 1536 L346 1536 L346 1150 L290 1150 L290 1469 Z " />
<glyph glyph-name="uni02FB" unicode="&#x2fb;" horiz-adv-x="426" d="M80 -57 L136 -57 L136 -376 L346 -376 L346 -443 L80 -443 L80 -57 Z " />
<glyph glyph-name="uni02FC" unicode="&#x2fc;" horiz-adv-x="426" d="M80 -376 L290 -376 L290 -57 L346 -57 L346 -443 L80 -443 L80 -376 Z " />
<glyph glyph-name="uni02FD" unicode="&#x2fd;" horiz-adv-x="586" d="M80 -59 L136 -59 L136 -342 L450 -342 L450 -59 L507 -59 L507 -406 L80 -406 L80 -59 Z " />
<glyph glyph-name="uni02FE" unicode="&#x2fe;" horiz-adv-x="527" d="M80 -57 L136 -57 L136 -379 L447 -379 L447 -443 L80 -443 L80 -57 Z " />
<glyph glyph-name="uni02FF" unicode="&#x2ff;" horiz-adv-x="642" d="M76 -133 L278 169 L349 169 L167 -98 L564 -98 L564 -163 L165 -163 L349 -435 L278 -435 L76 -133 Z " />
<glyph glyph-name="gravecomb" unicode="&#x300;" horiz-adv-x="0" d="M-351 1265 L-495 1536 L-416 1536 L-288 1265 L-351 1265 Z " />
<glyph glyph-name="acutecomb" unicode="&#x301;" horiz-adv-x="0" d="M-248 1536 L-167 1536 L-313 1265 L-375 1265 L-248 1536 Z " />
<glyph glyph-name="uni0302" unicode="&#x302;" horiz-adv-x="0" >
<g transform="translate(-655,0)" >
<path fill="black" d="M129 1276 L288 1520 L333 1520 L494 1272 L494 1262 L427 1262 L310 1454 L193 1262 L129 1262 L129 1276 Z " />
</g>
</glyph>
<glyph glyph-name="tildecomb" unicode="&#x303;" horiz-adv-x="0" >
<g transform="translate(-622,0)" >
<path fill="black" d="M93 1280 Q93 1368 128.5 1419 Q164 1470 218 1470 Q251 1470 274.5 1451.5 Q298 1433 318 1410.5 Q338 1388 358.5 1369.5 Q379 1351 407 1351 Q438 1351 460 1384.5 Q482 1418 482 1479 L534 1477 Q534 1433 524.5 1397 Q515 1361 498 1335 Q481 1309 458.5 1295 Q436 1281 409 1281 Q374 1281 351 1300 Q328 1319 309 1341.5 Q290 1364 270 1382.5 Q250 1401 221 1401 Q189 1401 167.5 1370 Q146 1339 146 1279 L93 1280 Z " />
</g>
</glyph>
<glyph glyph-name="uni0304" unicode="&#x304;" horiz-adv-x="0" >
<g transform="translate(-666,0)" >
<path fill="black" d="M118 1369 L118 1438 L517 1438 L517 1369 L118 1369 Z " />
</g>
</glyph>
<glyph glyph-name="uni0305" unicode="&#x305;" horiz-adv-x="0" >
<g transform="translate(-661,1690)" >
<path fill="black" d="M26 -71 L26 0 L605 0 L605 -71 L26 -71 Z " />
</g>
</glyph>
<glyph glyph-name="uni0306" unicode="&#x306;" horiz-adv-x="0" d="M-488 1488 Q-488 1450 -481 1416.5 Q-474 1383 -458 1357.5 Q-442 1332 -416.5 1317.5 Q-391 1303 -353 1303 Q-317 1303 -292 1318 Q-267 1333 -250.5 1358.5 Q-234 1384 -226.5 1417.5 Q-219 1451 -219 1488 L-161 1488 Q-161 1433 -174.5 1386.5 Q-188 1340 -212.5 1306.5 Q-237 1273 -272.5 1254.5 Q-308 1236 -353 1236 Q-398 1236 -433.5 1254.5 Q-469 1273 -494 1306.5 Q-519 1340 -532.5 1386.5 Q-546 1433 -546 1488 L-488 1488 Z " />
<glyph glyph-name="uni0307" unicode="&#x307;" horiz-adv-x="0" >
<g transform="translate(-542,702)" >
<path fill="black" d="M190 646 Q167 646 153 664.5 Q139 683 139 710 Q139 736 153 755 Q167 774 190 774 Q213 774 227.5 755 Q242 736 242 710 Q242 683 227.5 664.5 Q213 646 190 646 Z " />
</g>
</glyph>
<glyph glyph-name="uni0308" unicode="&#x308;" horiz-adv-x="0" d="M-517 1349 Q-540 1349 -554 1367.5 Q-568 1386 -568 1413 Q-568 1439 -554 1458 Q-540 1477 -517 1477 Q-494 1477 -479.5 1458 Q-465 1439 -465 1413 Q-465 1386 -479.5 1367.5 Q-494 1349 -517 1349 Z M-222 1349 Q-243 1349 -256.5 1367.5 Q-270 1386 -270 1412 Q-270 1439 -256.5 1458 Q-243 1477 -222 1477 Q-200 1477 -185.5 1458 Q-171 1439 -171 1412 Q-171 1386 -185.5 1367.5 Q-200 1349 -222 1349 Z " />
<glyph glyph-name="hookabovecomb" unicode="&#x309;" horiz-adv-x="0" d="M-388 1229 L-389 1337 Q-328 1345 -300.5 1368 Q-273 1391 -273 1445 Q-273 1475 -285.5 1495 Q-298 1515 -318.5 1527 Q-339 1539 -364.5 1544 Q-390 1549 -415 1549 L-410 1608 Q-319 1608 -265.5 1564.5 Q-212 1521 -212 1444 Q-212 1404 -222 1375.5 Q-232 1347 -248.5 1328.5 Q-265 1310 -287 1299.5 Q-309 1289 -334 1286 L-334 1229 L-388 1229 Z " />
<glyph glyph-name="uni030A" unicode="&#x30a;" horiz-adv-x="0" >
<g transform="translate(-597,0)" >
<path fill="black" d="M249 1211 Q218 1211 191.5 1224 Q165 1237 145.5 1260.5 Q126 1284 114.5 1316.5 Q103 1349 103 1387 Q103 1425 114.5 1457.5 Q126 1490 145.5 1514 Q165 1538 191.5 1552 Q218 1566 249 1566 Q280 1566 307 1552 Q334 1538 353.5 1514 Q373 1490 384 1457.5 Q395 1425 395 1387 Q395 1349 384 1316.5 Q373 1284 353.5 1260.5 Q334 1237 307 1224 Q280 1211 249 1211 Z M249 1271 Q291 1271 316.5 1303.5 Q342 1336 342 1387 Q342 1439 316.5 1472.5 Q291 1506 249 1506 Q207 1506 181.5 1472.5 Q156 1439 156 1387 Q156 1336 181.5 1303.5 Q207 1271 249 1271 Z " />
</g>
</glyph>
<glyph glyph-name="uni030B" unicode="&#x30b;" horiz-adv-x="0" d="M-385 1536 L-247 1536 L-419 1265 L-539 1265 L-385 1536 Z " />
<glyph glyph-name="uni030C" unicode="&#x30c;" horiz-adv-x="0" d="M-378 1262 L-536 1507 L-536 1520 L-472 1520 L-356 1329 L-238 1520 L-170 1520 L-170 1510 L-332 1262 L-378 1262 Z " />
<glyph glyph-name="uni030D" unicode="&#x30d;" horiz-adv-x="0" >
<g transform="translate(-448,0)" >
<path fill="black" d="M75 1151 L75 1559 L131 1559 L131 1151 L75 1151 Z " />
</g>
</glyph>
</font>
</svg>
