<?xml version="1.0" encoding="UTF-8"?>
<svg xmlns="http://www.w3.org/2000/svg" xmlns:xlink="http://www.w3.org/1999/xlink" version="1.2" >
<font id="Gotho-7Wd100Th" horiz-adv-x="856">
<font-face  font-family="Gotho" units-per-em="2048" ascent="2146" descent="-555" font-style="normal" font-weight="100" font-stretch="expanded" cap-height="1456" x-height="1082" underline-position="-100" underline-thickness="100" />
<missing-glyph horiz-adv-x="989" d="M114 1456 L876 1456 L876 0 L114 0 L114 1456 Z M818 83 L818 1373 L523 728 L818 83 Z M461 728 L172 1360 L172 96 L461 728 Z M215 54 L769 54 L492 660 L215 54 Z M492 796 L769 1402 L215 1402 L492 796 Z " />
<glyph glyph-name="uni0000" horiz-adv-x="0" />
<glyph glyph-name="uni000D" unicode="&#xd;" horiz-adv-x="539" />
<glyph glyph-name="space" unicode="&#x20;" horiz-adv-x="539" />
<glyph glyph-name="uni0002" unicode="&#x2;" horiz-adv-x="0" />
<glyph glyph-name="uni0009" unicode="&#x9;" horiz-adv-x="539" />
<glyph glyph-name="exclam" unicode="&#x21;" horiz-adv-x="433" d="M185 401 L185 1456 L237 1456 L238 401 L185 401 Z M163 49 Q163 72 180 88.5 Q197 105 220 105 Q244 105 261 88.5 Q278 72 278 49 Q278 26 261 10 Q244 -6 220 -6 Q197 -6 180 10 Q163 26 163 49 Z " />
<glyph glyph-name="quotedbl" unicode="&#x22;" horiz-adv-x="575" >
<g transform="translate(234,0)" >
<path fill="black" d="M162 1390 L162 1536 L218 1536 L218 1393 L208 1122 L154 1122 L162 1390 Z " />
</g>
<g transform="translate(15,0)" >
<path fill="black" d="M162 1390 L162 1536 L218 1536 L218 1393 L208 1122 L154 1122 L162 1390 Z " />
</g>
</glyph>
<glyph glyph-name="numbersign" unicode="&#x23;" horiz-adv-x="1212" d="M351 410 L58 410 L58 462 L361 462 L463 986 L140 986 L140 1040 L474 1040 L555 1456 L611 1456 L530 1040 L927 1040 L1008 1456 L1064 1456 L983 1040 L1258 1040 L1258 986 L972 986 L869 462 L1178 462 L1178 410 L859 410 L779 0 L723 0 L803 410 L408 410 L328 0 L271 0 L351 410 Z M813 462 L916 986 L520 986 L418 462 L813 462 Z " />
<glyph glyph-name="dollar" unicode="&#x24;" horiz-adv-x="1217" d="M616 -21 Q527 -19 441 4.5 Q355 28 287.5 78.5 Q220 129 178.5 210 Q137 291 137 409 L189 409 Q189 301 230 228.5 Q271 156 335.5 112.5 Q400 69 480 50.5 Q560 32 637 32 Q730 32 802.5 58 Q875 84 925.5 127.5 Q976 171 1002.5 227.5 Q1029 284 1029 344 Q1029 409 1009.5 459 Q990 509 943.5 550.5 Q897 592 819.5 627.5 Q742 663 626 700 Q524 733 442.5 767 Q361 801 304 847.5 Q247 894 217 957 Q187 1020 187 1110 Q187 1190 216 1256 Q245 1322 299 1370 Q353 1418 430 1446 Q507 1474 603 1477 L603 1663 L659 1663 L659 1476 Q756 1472 832.5 1442 Q909 1412 962.5 1357.5 Q1016 1303 1044.5 1225 Q1073 1147 1073 1047 L1021 1047 Q1021 1128 995.5 1197 Q970 1266 920.5 1316.5 Q871 1367 797.5 1395.5 Q724 1424 628 1424 Q528 1424 455 1397.5 Q382 1371 334 1327.5 Q286 1284 263 1227.5 Q240 1171 240 1112 Q240 1051 255.5 1001.5 Q271 952 314.5 910 Q358 868 436.5 830 Q515 792 642 753 Q741 722 822 688 Q903 654 960.5 608 Q1018 562 1050 499 Q1082 436 1082 346 Q1082 265 1052.5 199.5 Q1023 134 969.5 86.5 Q916 39 840.5 11.5 Q765 -16 672 -20 L672 -208 L616 -208 L616 -21 Z " />
<glyph glyph-name="percent" unicode="&#x25;" horiz-adv-x="1656" d="M413 162 L1178 1300 L1224 1269 L458 131 L413 162 Z M945 355 Q945 417 966 471.5 Q987 526 1025 567 Q1063 608 1116.5 632 Q1170 656 1236 656 Q1301 656 1354.5 632 Q1408 608 1446.5 567 Q1485 526 1506 471.5 Q1527 417 1527 355 L1527 278 Q1527 217 1506 162.5 Q1485 108 1447 67.5 Q1409 27 1356 3 Q1303 -21 1239 -21 Q1172 -21 1118 3 Q1064 27 1025.5 67.5 Q987 108 966 162.5 Q945 217 945 278 L945 355 Z M129 1176 Q129 1238 150 1292.5 Q171 1347 209 1388 Q247 1429 300.5 1453 Q354 1477 420 1477 Q485 1477 538.5 1453 Q592 1429 630.5 1388 Q669 1347 690 1292.5 Q711 1238 711 1176 L711 1099 Q711 1038 690 983.5 Q669 929 631 888.5 Q593 848 540 824 Q487 800 423 800 Q356 800 302 824 Q248 848 209.5 888.5 Q171 929 150 983.5 Q129 1038 129 1099 L129 1176 Z M1001 278 Q1001 233 1015.5 189 Q1030 145 1059 110.5 Q1088 76 1133 55 Q1178 34 1239 34 Q1298 34 1341.5 55 Q1385 76 1414 110.5 Q1443 145 1457 188.5 Q1471 232 1471 278 L1471 355 Q1471 401 1456.5 445.5 Q1442 490 1413 524.5 Q1384 559 1340 580 Q1296 601 1236 601 Q1178 601 1133.5 580 Q1089 559 1060 524.5 Q1031 490 1016 445.5 Q1001 401 1001 355 L1001 278 Z M185 1099 Q185 1054 199.5 1010 Q214 966 243 931.5 Q272 897 317 876 Q362 855 423 855 Q482 855 525.5 876 Q569 897 598 931.5 Q627 966 641 1009.5 Q655 1053 655 1099 L655 1176 Q655 1222 640.5 1266.5 Q626 1311 597 1345.5 Q568 1380 524 1401 Q480 1422 420 1422 Q362 1422 317.5 1401 Q273 1380 244 1345.5 Q215 1311 200 1266.5 Q185 1222 185 1176 L185 1099 Z " />
<glyph glyph-name="ampersand" unicode="&#x26;" horiz-adv-x="1352" d="M461 804 Q376 902 330 987.5 Q284 1073 284 1167 Q284 1235 306.5 1292 Q329 1349 371.5 1390 Q414 1431 474.5 1454 Q535 1477 610 1477 Q681 1477 736 1456 Q791 1435 828.5 1399 Q866 1363 885 1315 Q904 1267 904 1213 Q904 1167 883 1123.5 Q862 1080 830.5 1042 Q799 1004 763.5 972.5 Q728 941 698 918 L536 795 L1049 254 Q1108 329 1142 424 Q1176 519 1176 632 L1230 632 Q1230 502 1190.5 399.5 Q1151 297 1086 214 L1289 0 L1225 0 L1055 178 Q1010 135 959 99 Q908 63 851 36.5 Q794 10 730.5 -5 Q667 -20 596 -20 Q488 -20 402 6 Q316 32 255.5 80.5 Q195 129 163 198 Q131 267 131 352 Q131 414 153 469.5 Q175 525 212.5 575.5 Q250 626 299 672.5 Q348 719 403 762 L461 804 Z M439 721 Q357 658 306.5 605 Q256 552 228.5 506.5 Q201 461 192 423 Q183 385 183 352 Q183 290 208 232.5 Q233 175 284 131 Q335 87 412.5 60.5 Q490 34 596 34 Q717 34 826.5 81.5 Q936 129 1017 217 L532 726 Q523 736 514 745.5 Q505 755 496 764 L439 721 Z M674 960 Q709 985 740.5 1014 Q772 1043 796 1075 Q820 1107 834.5 1141.5 Q849 1176 849 1213 Q849 1254 833.5 1292 Q818 1330 788 1359 Q758 1388 713.5 1405.5 Q669 1423 610 1423 Q544 1423 493 1402.5 Q442 1382 407.5 1347.5 Q373 1313 355.5 1267 Q338 1221 338 1169 Q338 1093 376.5 1008.5 Q415 924 500 833 L674 960 Z " />
<glyph glyph-name="quotesingle" unicode="&#x27;" horiz-adv-x="380" d="M162 1390 L162 1536 L218 1536 L218 1393 L208 1122 L154 1122 L162 1390 Z " />
<glyph glyph-name="parenleft" unicode="&#x28;" horiz-adv-x="662" d="M608 -470 Q518 -417 437.5 -317 Q357 -217 296.5 -81.5 Q236 54 201 219 Q166 384 166 566 L166 586 Q166 759 201 923 Q236 1087 296.5 1225 Q357 1363 437.5 1466.5 Q518 1570 608 1623 L628 1580 Q547 1531 473 1431 Q399 1331 342.5 1198 Q286 1065 252.5 908.5 Q219 752 219 590 L219 564 Q219 402 252.5 245.5 Q286 89 342.5 -44 Q399 -177 473 -277.5 Q547 -378 628 -427 L608 -470 Z " />
<glyph glyph-name="parenright" unicode="&#x29;" horiz-adv-x="679" d="M36 -427 Q117 -378 191 -277.5 Q265 -177 321.5 -44 Q378 89 411.5 245.5 Q445 402 445 564 L445 590 Q445 752 411.5 908.5 Q378 1065 321.5 1198 Q265 1331 191 1431 Q117 1531 36 1580 L55 1623 Q146 1570 226.5 1466.5 Q307 1363 367.5 1225 Q428 1087 463 923 Q498 759 498 586 L498 566 Q498 384 463 219 Q428 54 367.5 -81.5 Q307 -217 226.5 -317 Q146 -417 55 -470 L36 -427 Z " />
<glyph glyph-name="asterisk" unicode="&#x2a;" horiz-adv-x="952" d="M440 1017 L35 1141 L53 1195 L458 1062 L459 1456 L517 1456 L510 1061 L903 1204 L924 1151 L522 1014 L800 697 L752 664 L481 986 L226 661 L179 693 L440 1017 Z " />
<glyph glyph-name="plus" unicode="&#x2b;" horiz-adv-x="1251" d="M584 649 L84 649 L84 702 L584 702 L584 1206 L637 1206 L637 702 L1159 702 L1159 649 L637 649 L637 146 L584 146 L584 649 Z " />
<glyph glyph-name="comma" unicode="&#x2c;" horiz-adv-x="428" d="M107 -223 Q132 -194 150.5 -166 Q169 -138 181 -108.5 Q193 -79 199 -46.5 Q205 -14 205 25 L205 159 L259 159 L259 27 Q259 -66 227.5 -135 Q196 -204 145 -255 L107 -223 Z " />
<glyph glyph-name="hyphen" unicode="&#x2d;" horiz-adv-x="668" d="M73 639 L73 693 L578 693 L578 639 L73 639 Z " />
<glyph glyph-name="period" unicode="&#x2e;" horiz-adv-x="486" d="M165 49 Q165 72 182 88.5 Q199 105 222 105 Q246 105 263 88.5 Q280 72 280 49 Q280 26 263 10 Q246 -6 222 -6 Q199 -6 182 10 Q165 26 165 49 Z " />
<glyph glyph-name="slash" unicode="&#x2f;" horiz-adv-x="851" d="M52 -125 L707 1456 L766 1456 L111 -125 L52 -125 Z " />
<glyph glyph-name="zero" unicode="0" horiz-adv-x="1218" d="M141 862 Q141 1005 171.5 1118.5 Q202 1232 261.5 1312 Q321 1392 408 1434.5 Q495 1477 608 1477 Q721 1477 808.5 1434.5 Q896 1392 955.5 1312 Q1015 1232 1046 1118.5 Q1077 1005 1077 862 L1077 594 Q1077 452 1047 338 Q1017 224 958 144.5 Q899 65 812 22.5 Q725 -20 611 -20 Q498 -20 410.5 22.5 Q323 65 263 144.5 Q203 224 172 338 Q141 452 141 594 L141 862 Z M194 596 Q194 473 219.5 370 Q245 267 297 192 Q349 117 427.5 75.5 Q506 34 611 34 Q716 34 793.5 75.5 Q871 117 922.5 192 Q974 267 999 370 Q1024 473 1024 596 L1024 862 Q1024 987 998.5 1090.5 Q973 1194 921.5 1268 Q870 1342 791.5 1382.5 Q713 1423 608 1423 Q503 1423 425.5 1382.5 Q348 1342 296.5 1268 Q245 1194 219.5 1090.5 Q194 987 194 862 L194 596 Z " />
<glyph glyph-name="one" unicode="1" horiz-adv-x="1217" d="M660 0 L660 1388 L208 1231 L208 1290 L701 1460 L713 1460 L713 0 L660 0 Z " />
<glyph glyph-name="two" unicode="2" horiz-adv-x="1217" d="M152 0 L152 54 L685 604 Q760 681 813 747.5 Q866 814 900.5 873 Q935 932 951 984.5 Q967 1037 967 1085 Q967 1162 942.5 1224.5 Q918 1287 869.5 1331 Q821 1375 749 1398.5 Q677 1422 582 1422 Q497 1422 429 1393.5 Q361 1365 313 1314.5 Q265 1264 239 1195 Q213 1126 213 1045 L161 1045 Q161 1134 189.5 1212 Q218 1290 272 1349 Q326 1408 404.5 1442 Q483 1476 582 1476 Q683 1476 764 1451 Q845 1426 902 1376.5 Q959 1327 990 1254 Q1021 1181 1021 1085 Q1021 1018 993.5 949 Q966 880 920.5 811.5 Q875 743 817 676 Q759 609 697 546 L222 54 L1106 54 L1106 0 L152 0 Z " />
<glyph glyph-name="three" unicode="3" horiz-adv-x="1217" d="M170 405 Q170 324 204.5 256 Q239 188 300 138.5 Q361 89 443.5 61.5 Q526 34 623 34 Q722 34 799 58 Q876 82 928.5 127 Q981 172 1008.5 236.5 Q1036 301 1036 382 Q1036 471 1002 534 Q968 597 906.5 637 Q845 677 760.5 695.5 Q676 714 575 714 L456 714 L456 770 L575 770 Q679 770 758.5 795.5 Q838 821 892 864.5 Q946 908 974 965 Q1002 1022 1002 1085 Q1002 1154 979.5 1215 Q957 1276 909.5 1322 Q862 1368 788.5 1395 Q715 1422 613 1422 Q528 1422 453 1398 Q378 1374 323 1329 Q268 1284 236 1219.5 Q204 1155 204 1074 L152 1074 Q152 1167 189 1241.5 Q226 1316 289 1368 Q352 1420 435.5 1448 Q519 1476 613 1476 Q714 1476 795.5 1448.5 Q877 1421 934.5 1370 Q992 1319 1023 1246 Q1054 1173 1054 1081 Q1054 1024 1033.5 971.5 Q1013 919 975 875 Q937 831 883 798 Q829 765 761 745 Q838 729 898.5 697.5 Q959 666 1001.5 620.5 Q1044 575 1066.5 516.5 Q1089 458 1089 386 Q1089 289 1054 213.5 Q1019 138 957 86 Q895 34 809.5 7 Q724 -20 623 -20 Q535 -20 445 5 Q355 30 282 82 Q209 134 163 214.5 Q117 295 117 405 L170 405 Z " />
<glyph glyph-name="four" unicode="4" horiz-adv-x="1217" d="M96 427 L845 1456 L910 1456 L910 451 L1183 451 L1183 397 L910 397 L910 0 L857 0 L857 397 L96 397 L96 427 Z M857 451 L857 1396 L764 1253 L181 451 L857 451 Z " />
<glyph glyph-name="five" unicode="5" horiz-adv-x="1217" d="M257 383 Q274 212 378.5 123 Q483 34 667 34 Q862 34 957 142.5 Q1052 251 1052 462 Q1052 548 1025.5 621 Q999 694 947.5 747.5 Q896 801 820 831.5 Q744 862 646 862 Q583 862 532 854 Q481 846 438.5 831 Q396 816 361 794.5 Q326 773 295 746 L256 762 L329 1456 L1091 1456 L1091 1403 L377 1403 L313 819 Q332 834 365.5 851.5 Q399 869 442 883 Q485 897 536.5 906.5 Q588 916 643 916 Q744 916 829 885.5 Q914 855 975.5 796.5 Q1037 738 1071.5 654.5 Q1106 571 1106 464 Q1106 359 1081.5 270.5 Q1057 182 1004.5 117.5 Q952 53 868.5 16.5 Q785 -20 667 -20 Q575 -20 494.5 4.5 Q414 29 352 79 Q290 129 251 205 Q212 281 203 383 L257 383 Z " />
<glyph glyph-name="six" unicode="6" horiz-adv-x="1217" d="M166 740 Q166 937 208 1076.5 Q250 1216 322 1305 Q394 1394 490 1435 Q586 1476 693 1476 Q726 1476 761 1473 Q796 1470 830.5 1463.5 Q865 1457 897.5 1447.5 Q930 1438 957 1424 L937 1371 Q906 1383 879 1392.5 Q852 1402 823.5 1408.5 Q795 1415 763 1418.5 Q731 1422 692 1422 Q597 1422 511.5 1383 Q426 1344 361 1261.5 Q296 1179 257.5 1050 Q219 921 219 741 L219 720 Q245 770 287 813.5 Q329 857 383 889 Q437 921 502.5 939 Q568 957 642 957 Q750 957 834.5 921 Q919 885 977 821.5 Q1035 758 1065 670.5 Q1095 583 1095 480 Q1095 374 1062.5 282.5 Q1030 191 971.5 123.5 Q913 56 832 17.5 Q751 -21 654 -21 Q549 -21 460 15 Q371 51 305.5 117.5 Q240 184 203 279 Q166 374 166 492 L166 740 Z M219 493 Q219 389 251 304 Q283 219 341 158.5 Q399 98 478.5 65 Q558 32 654 32 Q743 32 814.5 69 Q886 106 936.5 167.5 Q987 229 1014.5 310.5 Q1042 392 1042 480 Q1042 569 1017 646 Q992 723 941 780 Q890 837 814 870 Q738 903 636 903 Q555 903 479.5 876 Q404 849 346.5 801.5 Q289 754 254 691 Q219 628 219 556 L219 493 Z " />
<glyph glyph-name="seven" unicode="7" horiz-adv-x="1217" d="M431 91 Q450 295 501 477.5 Q552 660 629 822.5 Q706 985 805.5 1129.5 Q905 1274 1022 1402 L89 1402 L89 1456 L1087 1456 L1087 1402 Q991 1295 892.5 1163 Q794 1031 710 869.5 Q626 708 565 514.5 Q504 321 483 91 L475 0 L422 0 L431 91 Z " />
<glyph glyph-name="eight" unicode="8" horiz-adv-x="1217" d="M113 379 Q113 447 137.5 505.5 Q162 564 206 611.5 Q250 659 311.5 693 Q373 727 446 745 Q382 763 328.5 795.5 Q275 828 237 871.5 Q199 915 178 969.5 Q157 1024 157 1086 Q157 1181 191.5 1253.5 Q226 1326 287 1375.5 Q348 1425 430.5 1450.5 Q513 1476 609 1476 Q704 1476 787 1450.5 Q870 1425 932.5 1375.5 Q995 1326 1031 1253.5 Q1067 1181 1067 1086 Q1067 1024 1045.5 969.5 Q1024 915 985.5 871.5 Q947 828 893.5 795.5 Q840 763 776 745 Q849 727 910.5 693 Q972 659 1017 611.5 Q1062 564 1087 505.5 Q1112 447 1112 379 Q1112 280 1073 205 Q1034 130 966.5 80 Q899 30 808 5 Q717 -20 613 -20 Q507 -20 415.5 5 Q324 30 257 80 Q190 130 151.5 205 Q113 280 113 379 Z M165 374 Q165 292 199.5 228.5 Q234 165 294 121.5 Q354 78 436 56 Q518 34 613 34 Q706 34 787 56 Q868 78 928 121.5 Q988 165 1023 228.5 Q1058 292 1058 374 Q1058 453 1023 516.5 Q988 580 927.5 625 Q867 670 786 694 Q705 718 612 718 Q518 718 436 694 Q354 670 294 625 Q234 580 199.5 516.5 Q165 453 165 374 Z M210 1091 Q210 1017 240.5 958 Q271 899 325 857.5 Q379 816 452.5 794 Q526 772 612 772 Q695 772 768.5 794 Q842 816 896.5 857.5 Q951 899 982.5 958 Q1014 1017 1014 1091 Q1014 1164 982 1224.5 Q950 1285 895 1329 Q840 1373 766.5 1397.5 Q693 1422 609 1422 Q524 1422 451 1399.5 Q378 1377 324.5 1334 Q271 1291 240.5 1229.5 Q210 1168 210 1091 Z " />
<glyph glyph-name="nine" unicode="9" horiz-adv-x="1217" d="M258 97 Q291 82 323 70 Q355 58 388.5 50 Q422 42 458 38 Q494 34 536 34 Q641 34 726.5 74.5 Q812 115 872 190.5 Q932 266 965 374.5 Q998 483 998 618 L998 726 Q970 667 926.5 619.5 Q883 572 827.5 538 Q772 504 706 486 Q640 468 568 468 Q465 468 380.5 507.5 Q296 547 235.5 614.5 Q175 682 141.5 770.5 Q108 859 108 958 Q108 1064 142.5 1158 Q177 1252 239 1323 Q301 1394 387 1435.5 Q473 1477 577 1477 Q689 1477 777.5 1441 Q866 1405 927 1333.5 Q988 1262 1020 1154.5 Q1052 1047 1052 903 L1052 620 Q1052 468 1014.5 349 Q977 230 909 148 Q841 66 746 23 Q651 -20 536 -20 Q384 -20 238 44 L258 97 Z M998 902 Q998 1032 969.5 1129.5 Q941 1227 887.5 1292.5 Q834 1358 756.5 1390.5 Q679 1423 581 1423 Q487 1423 410.5 1383.5 Q334 1344 281 1279 Q228 1214 199 1130.5 Q170 1047 170 958 Q170 874 197 795 Q224 716 275 655.5 Q326 595 399.5 558 Q473 521 567 521 Q661 521 734 550 Q807 579 860.5 625 Q914 671 948.5 727.5 Q983 784 998 838 L998 902 Z " />
<glyph glyph-name="colon" unicode="&#x3a;" horiz-adv-x="398" >
<g transform="translate(-29,0)" >
<path fill="black" d="M165 49 Q165 72 182 88.5 Q199 105 222 105 Q246 105 263 88.5 Q280 72 280 49 Q280 26 263 10 Q246 -6 222 -6 Q199 -6 182 10 Q165 26 165 49 Z " />
</g>
<g transform="translate(-22,962)" >
<path fill="black" d="M165 49 Q165 72 182 88.5 Q199 105 222 105 Q246 105 263 88.5 Q280 72 280 49 Q280 26 263 10 Q246 -6 222 -6 Q199 -6 182 10 Q165 26 165 49 Z " />
</g>
</glyph>
<glyph glyph-name="semicolon" unicode="&#x3b;" horiz-adv-x="401" >
<g transform="translate(-12,0)" >
<path fill="black" d="M107 -223 Q132 -194 150.5 -166 Q169 -138 181 -108.5 Q193 -79 199 -46.5 Q205 -14 205 25 L205 159 L259 159 L259 27 Q259 -66 227.5 -135 Q196 -204 145 -255 L107 -223 Z " />
</g>
<g transform="translate(-22,962)" >
<path fill="black" d="M165 49 Q165 72 182 88.5 Q199 105 222 105 Q246 105 263 88.5 Q280 72 280 49 Q280 26 263 10 Q246 -6 222 -6 Q199 -6 182 10 Q165 26 165 49 Z " />
</g>
</glyph>
<glyph glyph-name="less" unicode="&#x3c;" horiz-adv-x="1146" d="M95 691 L996 1069 L996 1011 L169 666 L996 321 L996 262 L95 641 L95 691 Z " />
<glyph glyph-name="equal" unicode="&#x3d;" horiz-adv-x="1242" >
<g transform="translate(-19,-285)" >
<path fill="black" d="M183 721 L183 775 L1081 775 L1081 721 L183 721 Z " />
</g>
<g transform="translate(-19,122)" >
<path fill="black" d="M183 721 L183 775 L1081 775 L1081 721 L183 721 Z " />
</g>
</glyph>
<glyph glyph-name="greater" unicode="&#x3e;" horiz-adv-x="1144" d="M128 324 L947 668 L128 1013 L128 1072 L1026 694 L1026 644 L128 265 L128 324 Z " />
<glyph glyph-name="question" unicode="&#x3f;" horiz-adv-x="970" d="M433 400 Q434 456 442.5 500.5 Q451 545 471 584.5 Q491 624 523 661.5 Q555 699 602 740 Q652 784 691 822 Q730 860 757 901.5 Q784 943 798 993 Q812 1043 812 1112 Q812 1179 792.5 1236 Q773 1293 734 1334.5 Q695 1376 636 1399.5 Q577 1423 498 1423 Q419 1423 357 1400.5 Q295 1378 251.5 1337 Q208 1296 184.5 1240 Q161 1184 159 1116 L107 1116 Q109 1202 140.5 1269 Q172 1336 225.5 1382 Q279 1428 349 1452 Q419 1476 498 1476 Q588 1476 656.5 1448 Q725 1420 771.5 1371 Q818 1322 841.5 1255 Q865 1188 865 1110 Q865 1044 851.5 990 Q838 936 809 887.5 Q780 839 735 794 Q690 749 627 701 Q548 641 516.5 563.5 Q485 486 485 400 L433 400 Z M406 49 Q406 72 423 88.5 Q440 105 463 105 Q487 105 504 88.5 Q521 72 521 49 Q521 26 504 10 Q487 -6 463 -6 Q440 -6 423 10 Q406 26 406 49 Z " />
<glyph glyph-name="at" unicode="&#x40;" horiz-adv-x="2061" d="M1366 -364 Q1332 -385 1285 -402 Q1238 -419 1186.5 -430 Q1135 -441 1081.5 -447 Q1028 -453 981 -453 Q777 -453 617 -388.5 Q457 -324 349 -203 Q241 -82 188.5 90.5 Q136 263 146 478 Q156 692 227.5 864.5 Q299 1037 421.5 1158.5 Q544 1280 712.5 1345.5 Q881 1411 1085 1411 Q1308 1411 1468 1349 Q1628 1287 1729 1171.5 Q1830 1056 1874 891.5 Q1918 727 1909 523 Q1905 427 1880.5 330 Q1856 233 1807.5 155.5 Q1759 78 1686 29 Q1613 -20 1513 -20 Q1404 -20 1337.5 42 Q1271 104 1260 213 Q1140 -20 899 -20 Q826 -20 770.5 12.5 Q715 45 680.5 105 Q646 165 633 249 Q620 333 630 436 Q642 562 682.5 664 Q723 766 785 838 Q847 910 927.5 949 Q1008 988 1100 988 Q1150 988 1188.5 979 Q1227 970 1257.5 954.5 Q1288 939 1314.5 919 Q1341 899 1367 878 L1315 293 Q1307 206 1327.5 155 Q1348 104 1381 77 Q1414 50 1451.5 42.5 Q1489 35 1515 35 Q1594 35 1654 72 Q1714 109 1756 174 Q1798 239 1822 328.5 Q1846 418 1852 523 Q1863 714 1824 868 Q1785 1022 1691 1130 Q1597 1238 1446 1296 Q1295 1354 1080 1354 Q902 1354 746.5 1293 Q591 1232 473.5 1118 Q356 1004 284 842 Q212 680 201 478 Q191 292 238 132 Q285 -28 385.5 -145.5 Q486 -263 637 -330.5 Q788 -398 986 -398 Q1033 -398 1082 -392.5 Q1131 -387 1177.5 -376.5 Q1224 -366 1266 -351 Q1308 -336 1341 -318 L1366 -364 Z M1309 850 Q1274 888 1221.5 910.5 Q1169 933 1095 933 Q1024 933 956.5 903.5 Q889 874 833 813.5 Q777 753 737.5 659 Q698 565 683 436 Q673 352 681 279 Q689 206 715.5 151.5 Q742 97 786.5 65.5 Q831 34 895 34 Q945 34 996 46 Q1047 58 1095.5 92 Q1144 126 1187.5 187 Q1231 248 1265 345 L1309 850 Z " />
<glyph glyph-name="A" unicode="A" horiz-adv-x="1323" d="M628 1456 L695 1456 L1281 0 L1222 0 L1047 435 L275 435 L100 0 L42 0 L628 1456 Z M1025 489 L661 1395 L297 489 L1025 489 Z " />
<glyph glyph-name="B" unicode="B" horiz-adv-x="1339" d="M222 1456 L631 1456 Q750 1456 844.5 1434 Q939 1412 1005.5 1366 Q1072 1320 1107.5 1249.5 Q1143 1179 1143 1083 Q1143 1020 1125 964.5 Q1107 909 1072.5 866 Q1038 823 987 794 Q936 765 869 754 Q942 745 1005.5 713.5 Q1069 682 1115.5 635 Q1162 588 1188.5 527.5 Q1215 467 1215 401 Q1215 304 1179.5 229 Q1144 154 1080.5 103 Q1017 52 928 26 Q839 0 732 0 L222 0 L222 1456 Z M732 54 Q832 54 911.5 77.5 Q991 101 1047 145 Q1103 189 1133 253.5 Q1163 318 1163 399 Q1163 462 1137 519.5 Q1111 577 1058.5 621.5 Q1006 666 927 692.5 Q848 719 743 719 L275 719 L275 54 L732 54 Z M653 773 Q870 773 979.5 849.5 Q1089 926 1089 1087 Q1089 1245 973.5 1323.5 Q858 1402 631 1402 L275 1402 L275 773 L653 773 Z " />
<glyph glyph-name="C" unicode="C" horiz-adv-x="1441" d="M164 857 Q164 997 203.5 1111.5 Q243 1226 316.5 1307 Q390 1388 494 1432 Q598 1476 727 1476 Q844 1476 941.5 1448.5 Q1039 1421 1111.5 1364 Q1184 1307 1228.5 1219.5 Q1273 1132 1285 1012 L1232 1012 Q1208 1220 1079.5 1321 Q951 1422 727 1422 Q613 1422 519 1382.5 Q425 1343 358 1270 Q291 1197 254 1092.5 Q217 988 217 859 L217 604 Q217 473 254 367.5 Q291 262 358 188 Q425 114 519 74 Q613 34 728 34 Q837 34 925 57 Q1013 80 1077 129.5 Q1141 179 1180.5 257 Q1220 335 1232 446 L1285 446 Q1273 324 1228 236 Q1183 148 1111 91 Q1039 34 942 7 Q845 -20 728 -20 Q599 -20 495 24.5 Q391 69 317.5 150.5 Q244 232 204 347.5 Q164 463 164 604 L164 857 Z " />
<glyph glyph-name="D" unicode="D" horiz-adv-x="1453" d="M222 1456 L656 1456 Q794 1456 911.5 1411.5 Q1029 1367 1115.5 1286 Q1202 1205 1250.5 1091 Q1299 977 1299 837 L1299 619 Q1299 479 1250.5 365 Q1202 251 1115.5 170 Q1029 89 911.5 44.5 Q794 0 656 0 L222 0 L222 1456 Z M656 54 Q782 54 890 95 Q998 136 1077 210.5 Q1156 285 1201 389 Q1246 493 1246 619 L1246 840 Q1246 965 1201 1068.5 Q1156 1172 1077 1246 Q998 1320 890 1361 Q782 1402 656 1402 L275 1402 L275 54 L656 54 Z " />
<glyph glyph-name="E" unicode="E" horiz-adv-x="1267" d="M222 1456 L1175 1456 L1175 1402 L275 1402 L275 776 L1065 776 L1065 722 L275 722 L275 54 L1174 54 L1174 0 L222 0 L222 1456 Z " />
<glyph glyph-name="F" unicode="F" horiz-adv-x="1275" d="M222 1456 L1193 1456 L1193 1402 L275 1402 L275 772 L1083 772 L1083 716 L275 716 L275 0 L222 0 L222 1456 Z " />
<glyph glyph-name="G" unicode="G" horiz-adv-x="1526" d="M191 878 Q191 1013 233.5 1123.5 Q276 1234 353 1312.5 Q430 1391 537 1433.5 Q644 1476 773 1476 Q899 1476 997 1445 Q1095 1414 1163.5 1359 Q1232 1304 1272 1228 Q1312 1152 1322 1062 L1270 1062 Q1258 1136 1225 1201.5 Q1192 1267 1133 1316 Q1074 1365 985 1393.5 Q896 1422 773 1422 Q653 1422 555 1382.5 Q457 1343 387.5 1271.5 Q318 1200 280.5 1100.5 Q243 1001 243 880 L243 600 Q243 474 281.5 369.5 Q320 265 391.5 190.5 Q463 116 564.5 75 Q666 34 791 34 Q887 34 967.5 49 Q1048 64 1109.5 86.5 Q1171 109 1212.5 134.5 Q1254 160 1272 181 L1272 605 L789 605 L789 660 L1325 660 L1325 156 Q1306 133 1262.5 102.5 Q1219 72 1152.5 45 Q1086 18 995.5 -1 Q905 -20 791 -20 Q657 -20 546.5 24.5 Q436 69 357 150 Q278 231 234.5 345.5 Q191 460 191 600 L191 878 Z " />
<glyph glyph-name="H" unicode="H" horiz-adv-x="1559" d="M222 1456 L275 1456 L275 776 L1284 776 L1284 1456 L1336 1456 L1336 0 L1284 0 L1284 722 L275 722 L275 0 L222 0 L222 1456 Z " />
<glyph glyph-name="I" unicode="I" horiz-adv-x="586" d="M267 0 L267 1456 L319 1456 L319 0 L267 0 Z " />
<glyph glyph-name="J" unicode="J" horiz-adv-x="1223" d="M157 401 Q157 223 256 128.5 Q355 34 555 34 Q636 34 708.5 60 Q781 86 835.5 137 Q890 188 921.5 264.5 Q953 341 953 442 L953 1456 L1005 1456 L1005 442 Q1005 330 970.5 243.5 Q936 157 875 98.5 Q814 40 732 10 Q650 -20 555 -20 Q451 -20 368 5.5 Q285 31 226.5 83.5 Q168 136 136.5 215 Q105 294 105 401 L157 401 Z " />
<glyph glyph-name="K" unicode="K" horiz-adv-x="1412" d="M222 1456 L275 1456 L275 612 L534 847 L1191 1456 L1269 1456 L569 803 L1323 0 L1254 0 L527 766 L275 550 L275 0 L222 0 L222 1456 Z " />
<glyph glyph-name="L" unicode="L" horiz-adv-x="1147" d="M222 1456 L276 1456 L276 54 L1082 54 L1082 0 L222 0 L222 1456 Z " />
<glyph glyph-name="M" unicode="M" horiz-adv-x="1900" d="M222 1456 L298 1456 L948 79 L1600 1456 L1678 1456 L1678 0 L1626 0 L1626 703 L1625 1384 L969 0 L927 0 L276 1376 L275 703 L275 0 L222 0 L222 1456 Z " />
<glyph glyph-name="N" unicode="N" horiz-adv-x="1571" d="M222 1456 L276 1456 L1296 95 L1296 1456 L1349 1456 L1349 0 L1296 0 L276 1364 L276 0 L222 0 L222 1456 Z " />
<glyph glyph-name="O" unicode="O" horiz-adv-x="1479" d="M152 857 Q152 997 193 1111.5 Q234 1226 310.5 1307 Q387 1388 495 1432 Q603 1476 738 1476 Q873 1476 981.5 1432 Q1090 1388 1167 1307 Q1244 1226 1285.5 1111.5 Q1327 997 1327 857 L1327 599 Q1327 459 1286 344.5 Q1245 230 1168.5 149 Q1092 68 983.5 24 Q875 -20 740 -20 Q605 -20 496.5 24 Q388 68 311.5 149 Q235 230 193.5 344.5 Q152 459 152 599 L152 857 Z M205 599 Q205 473 241 368.5 Q277 264 345.5 190 Q414 116 513.5 75 Q613 34 740 34 Q868 34 967.5 75 Q1067 116 1135.5 190 Q1204 264 1239.5 368.5 Q1275 473 1275 599 L1275 859 Q1275 985 1239 1088.5 Q1203 1192 1134 1266 Q1065 1340 965.5 1381 Q866 1422 738 1422 Q611 1422 512 1381 Q413 1340 344.5 1266 Q276 1192 240.5 1088.5 Q205 985 205 859 L205 599 Z " />
<glyph glyph-name="P" unicode="P" horiz-adv-x="1333" d="M222 1456 L708 1456 Q833 1456 927.5 1425.5 Q1022 1395 1085.5 1339.5 Q1149 1284 1181 1205.5 Q1213 1127 1213 1031 Q1213 935 1181 858 Q1149 781 1085.5 727 Q1022 673 927.5 644 Q833 615 708 615 L275 615 L275 0 L222 0 L222 1456 Z M708 669 Q828 669 913.5 697.5 Q999 726 1054 775 Q1109 824 1134.5 889.5 Q1160 955 1160 1029 Q1160 1106 1134.5 1174 Q1109 1242 1054 1292.5 Q999 1343 913.5 1372.5 Q828 1402 708 1402 L275 1402 L275 669 L708 669 Z " />
<glyph glyph-name="Q" unicode="Q" horiz-adv-x="1478" d="M152 857 Q152 997 193 1111.5 Q234 1226 310.5 1307 Q387 1388 495 1432 Q603 1476 738 1476 Q873 1476 981.5 1432 Q1090 1388 1167 1307 Q1244 1226 1285.5 1111.5 Q1327 997 1327 857 L1327 599 Q1327 497 1305 408 Q1283 319 1241 246.5 Q1199 174 1138.5 119.5 Q1078 65 1001 31 L1283 -228 L1246 -263 L943 10 Q850 -20 740 -20 Q605 -20 496.5 24 Q388 68 311.5 149 Q235 230 193.5 344.5 Q152 459 152 599 L152 857 Z M205 599 Q205 473 241 368.5 Q277 264 345.5 190 Q414 116 513.5 75 Q613 34 740 34 Q868 34 967.5 75 Q1067 116 1135.5 190 Q1204 264 1239.5 368.5 Q1275 473 1275 599 L1275 859 Q1275 985 1239 1088.5 Q1203 1192 1134 1266 Q1065 1340 965.5 1381 Q866 1422 738 1422 Q611 1422 512 1381 Q413 1340 344.5 1266 Q276 1192 240.5 1088.5 Q205 985 205 859 L205 599 Z " />
<glyph glyph-name="R" unicode="R" horiz-adv-x="1453" d="M216 1455 L713 1455 Q836 1455 931.5 1430.5 Q1027 1406 1092.5 1357 Q1158 1308 1192.5 1235 Q1227 1162 1227 1065 Q1227 1007 1206.5 950.5 Q1186 894 1146 846 Q1106 798 1047.5 762.5 Q989 727 912 711 Q1001 697 1060 666.5 Q1119 636 1155 591.5 Q1191 547 1206 491 Q1221 435 1221 371 L1221 234 Q1221 171 1237.5 116 Q1254 61 1297 24 L1297 -1 L1246 -1 Q1208 41 1188 101 Q1168 161 1168 236 L1168 369 Q1168 516 1062.5 599.5 Q957 683 748 683 L269 683 L269 -1 L216 -1 L216 1455 Z M703 737 Q834 737 924 765 Q1014 793 1069.5 839 Q1125 885 1149.5 944 Q1174 1003 1174 1065 Q1174 1227 1060 1314 Q946 1401 713 1401 L269 1401 L269 737 L703 737 Z " />
<glyph glyph-name="S" unicode="S" horiz-adv-x="1314" d="M162 411 Q162 338 185 282 Q208 226 247.5 184 Q287 142 339.5 113.5 Q392 85 450 67 Q508 49 569 41.5 Q630 34 687 34 Q791 34 878.5 57 Q966 80 1029.5 121.5 Q1093 163 1128.5 221 Q1164 279 1164 349 Q1164 418 1138.5 471.5 Q1113 525 1055 568.5 Q997 612 904 648 Q811 684 677 718 Q557 748 461.5 782 Q366 816 299 861.5 Q232 907 196 969.5 Q160 1032 160 1120 Q160 1203 200 1269 Q240 1335 309.5 1381 Q379 1427 474 1451.5 Q569 1476 680 1476 Q793 1476 888.5 1445 Q984 1414 1053 1357.5 Q1122 1301 1161 1221.5 Q1200 1142 1200 1046 L1148 1046 Q1148 1127 1114 1195.5 Q1080 1264 1018.5 1314.5 Q957 1365 870.5 1393.5 Q784 1422 679 1422 Q567 1422 480.5 1397.5 Q394 1373 334.5 1331.5 Q275 1290 244 1235.5 Q213 1181 213 1122 Q213 1064 234.5 1014.5 Q256 965 310 922 Q364 879 457 841.5 Q550 804 692 770 Q807 742 903.5 707.5 Q1000 673 1070 624.5 Q1140 576 1179 509.5 Q1218 443 1218 351 Q1218 262 1176 193 Q1134 124 1061.5 76.5 Q989 29 892.5 4.5 Q796 -20 687 -20 Q620 -20 551.5 -10.5 Q483 -1 419 19.5 Q355 40 298.5 73 Q242 106 200 154 Q158 202 134 266 Q110 330 110 411 L162 411 Z " />
<glyph glyph-name="T" unicode="T" horiz-adv-x="1329" d="M638 1402 L65 1402 L65 1456 L1264 1456 L1264 1402 L690 1402 L690 0 L638 0 L638 1402 Z " />
<glyph glyph-name="U" unicode="U" horiz-adv-x="1483" d="M207 1456 L260 1456 L260 459 Q260 354 297 274 Q334 194 398.5 141 Q463 88 551 61 Q639 34 742 34 Q844 34 932 61 Q1020 88 1084.5 141 Q1149 194 1186 274 Q1223 354 1223 459 L1223 1456 L1275 1456 L1275 459 Q1275 336 1234.5 246 Q1194 156 1123 97 Q1052 38 954 9 Q856 -20 742 -20 Q628 -20 530 9 Q432 38 360 97 Q288 156 247.5 246 Q207 336 207 459 L207 1456 Z " />
<glyph glyph-name="V" unicode="V" horiz-adv-x="1324" d="M44 1456 L101 1456 L629 142 L663 49 L696 142 L1224 1456 L1282 1456 L696 0 L629 0 L44 1456 Z " />
<glyph glyph-name="W" unicode="W" horiz-adv-x="2010" d="M72 1456 L131 1456 L459 330 L532 88 L603 330 L976 1456 L1036 1456 L1407 330 L1478 87 L1552 330 L1879 1456 L1936 1456 L1513 0 L1451 0 L1451 2 L1061 1214 L1005 1372 L951 1214 L558 2 L558 0 L497 0 L72 1456 Z " />
<glyph glyph-name="X" unicode="X" horiz-adv-x="1326" d="M629 743 L85 1456 L151 1456 L662 785 L1173 1456 L1240 1456 L696 743 L1261 0 L1196 0 L662 701 L128 0 L64 0 L629 743 Z " />
<glyph glyph-name="Y" unicode="Y" horiz-adv-x="1328" d="M635 553 L43 1456 L114 1456 L662 602 L1216 1456 L1280 1456 L688 553 L688 0 L635 0 L635 553 Z " />
<glyph glyph-name="Z" unicode="Z" horiz-adv-x="1329" d="M107 44 L1109 1403 L152 1403 L152 1456 L1187 1456 L1187 1418 L183 54 L1221 54 L1221 0 L107 0 L107 44 Z " />
<glyph glyph-name="bracketleft" unicode="&#x5b;" horiz-adv-x="481" d="M203 1664 L504 1664 L504 1610 L255 1610 L255 -258 L504 -258 L504 -312 L203 -312 L203 1664 Z " />
<glyph glyph-name="backslash" unicode="&#x5c;" horiz-adv-x="842" d="M68 1456 L126 1456 L780 -125 L723 -125 L68 1456 Z " />
<glyph glyph-name="bracketright" unicode="&#x5d;" horiz-adv-x="480" d="M-3 -258 L243 -258 L243 1610 L-3 1610 L-3 1664 L298 1664 L298 -312 L-3 -312 L-3 -258 Z " />
<glyph glyph-name="asciicircum" unicode="&#x5e;" horiz-adv-x="925" d="M427 1456 L480 1456 L801 729 L740 729 L453 1383 L163 729 L105 729 L427 1456 Z " />
<glyph glyph-name="underscore" unicode="&#x5f;" horiz-adv-x="918" d="M4 -54 L4 0 L912 0 L912 -54 L4 -54 Z " />
<glyph glyph-name="grave" unicode="&#x60;" horiz-adv-x="596" d="M384 1270 L171 1536 L238 1536 L446 1270 L384 1270 Z " />
<glyph glyph-name="a" unicode="a" horiz-adv-x="1173" d="M136 786 Q136 851 168 908 Q200 965 257 1008.5 Q314 1052 393 1077 Q472 1102 565 1102 Q655 1102 731 1082 Q807 1062 861.5 1020.5 Q916 979 946.5 916.5 Q977 854 977 768 L977 218 Q977 189 979 159 Q981 129 985 101 Q989 73 994.5 49.5 Q1000 26 1007 9 L1007 0 L946 0 Q935 38 929.5 92 Q924 146 924 199 Q895 155 852 115.5 Q809 76 751.5 46 Q694 16 622 -2 Q550 -20 461 -20 Q380 -20 314 1 Q248 22 201.5 60 Q155 98 129.5 152.5 Q104 207 104 274 Q104 346 140 407 Q176 468 244.5 511.5 Q313 555 412.5 579.5 Q512 604 639 604 L924 604 L924 770 Q924 906 831.5 977 Q739 1048 566 1048 Q486 1048 417 1028.5 Q348 1009 297 973.5 Q246 938 217 889.5 Q188 841 188 784 L136 786 Z M924 549 L641 549 Q526 549 436 528.5 Q346 508 284 471 Q222 434 189.5 383 Q157 332 157 270 Q157 218 179.5 174.5 Q202 131 242 99.5 Q282 68 337.5 50.5 Q393 33 460 33 Q630 33 747.5 101.5 Q865 170 924 287 L924 549 Z " />
<glyph glyph-name="b" unicode="b" horiz-adv-x="1218" d="M191 1536 L243 1536 L243 885 Q299 983 397.5 1042.5 Q496 1102 640 1102 Q744 1102 825.5 1066.5 Q907 1031 963.5 962.5 Q1020 894 1049.5 793.5 Q1079 693 1079 562 L1079 521 Q1079 395 1049.5 294.5 Q1020 194 964 124.5 Q908 55 827 17.5 Q746 -20 643 -20 Q570 -20 508.5 -5.5 Q447 9 397 34.5 Q347 60 308.5 95 Q270 130 243 171 L244 0 L191 0 L191 1536 Z M243 269 Q263 219 297.5 176 Q332 133 382 101.5 Q432 70 498 52 Q564 34 646 34 Q742 34 813 69 Q884 104 931 167.5 Q978 231 1001 321 Q1024 411 1024 521 L1024 562 Q1024 672 1001 762 Q978 852 930.5 915.5 Q883 979 811.5 1013.5 Q740 1048 644 1048 Q548 1048 479 1023 Q410 998 363 958 Q316 918 287.5 869.5 Q259 821 243 774 L243 269 Z " />
<glyph glyph-name="c" unicode="c" horiz-adv-x="1129" d="M111 572 Q111 694 143 792 Q175 890 235.5 959 Q296 1028 383.5 1065 Q471 1102 583 1102 Q666 1102 742.5 1079 Q819 1056 878 1009.5 Q937 963 974 892 Q1011 821 1015 725 L962 725 Q958 809 925.5 869.5 Q893 930 841 970 Q789 1010 722 1029 Q655 1048 583 1048 Q475 1048 396 1012.5 Q317 977 265.5 913.5 Q214 850 188.5 763 Q163 676 163 572 L163 510 Q163 406 188.5 318.5 Q214 231 265.5 168 Q317 105 396.5 69.5 Q476 34 584 34 Q653 34 718.5 49.5 Q784 65 836.5 100 Q889 135 923 191 Q957 247 962 328 L1015 328 Q1011 243 975 178 Q939 113 880.5 69 Q822 25 745.5 2.5 Q669 -20 584 -20 Q472 -20 384 17.5 Q296 55 235.5 124 Q175 193 143 291 Q111 389 111 510 L111 572 Z " />
<glyph glyph-name="d" unicode="d" horiz-adv-x="1217" d="M138 562 Q138 693 167.5 793.5 Q197 894 253.5 962.5 Q310 1031 391.5 1066.5 Q473 1102 576 1102 Q722 1102 820.5 1041.5 Q919 981 974 882 L974 1536 L1027 1536 L1027 0 L973 0 L974 174 Q947 132 909 96.5 Q871 61 821 35 Q771 9 709.5 -5.5 Q648 -20 575 -20 Q471 -20 390 17.5 Q309 55 253 124.5 Q197 194 167.5 294.5 Q138 395 138 521 L138 562 Z M193 521 Q193 411 216 321 Q239 231 286 167.5 Q333 104 404 69 Q475 34 571 34 Q652 34 717.5 51.5 Q783 69 833.5 100 Q884 131 919 173 Q954 215 974 264 L974 780 Q958 826 928.5 873.5 Q899 921 852 960 Q805 999 736.5 1023.5 Q668 1048 573 1048 Q477 1048 405.5 1013.5 Q334 979 286.5 915.5 Q239 852 216 762 Q193 672 193 562 L193 521 Z " />
<glyph glyph-name="e" unicode="e" horiz-adv-x="1122" d="M99 572 Q99 693 137.5 791 Q176 889 242 958 Q308 1027 397 1064.5 Q486 1102 587 1102 Q683 1102 763.5 1071 Q844 1040 903 981 Q962 922 995 837 Q1028 752 1028 645 L1028 577 L152 577 L152 572 L152 508 Q152 405 187 317.5 Q222 230 283.5 167 Q345 104 428.5 68.5 Q512 33 608 33 Q658 33 705 39.5 Q752 46 795.5 62 Q839 78 879 105 Q919 132 955 172 L991 143 Q933 71 840 25.5 Q747 -20 608 -20 Q503 -20 410 17.5 Q317 55 248 124 Q179 193 139 290.5 Q99 388 99 508 L99 572 Z M975 631 L975 649 Q975 734 947.5 807 Q920 880 869.5 933.5 Q819 987 747 1017.5 Q675 1048 587 1048 Q497 1048 421.5 1017 Q346 986 289.5 931 Q233 876 198.5 799.5 Q164 723 155 631 L975 631 Z " />
<glyph glyph-name="f" unicode="f" horiz-adv-x="704" d="M281 1027 L77 1027 L77 1082 L281 1082 L281 1236 Q281 1392 360.5 1474.5 Q440 1557 582 1557 Q615 1557 650 1553.5 Q685 1550 720 1540 L711 1488 Q680 1496 653 1499.5 Q626 1503 582 1503 Q525 1503 478.5 1485 Q432 1467 400 1433 Q368 1399 350.5 1349 Q333 1299 333 1236 L333 1082 L643 1082 L643 1027 L333 1027 L333 0 L281 0 L281 1027 Z " />
<glyph glyph-name="g" unicode="g" horiz-adv-x="1169" d="M672 178 Q756 178 828.5 160 Q901 142 954.5 106.5 Q1008 71 1038 17.5 Q1068 -36 1068 -107 Q1068 -164 1033 -223 Q998 -282 930.5 -330 Q863 -378 764 -408 Q665 -438 537 -438 Q431 -438 350 -415.5 Q269 -393 214.5 -354 Q160 -315 132.5 -263 Q105 -211 105 -152 Q105 -98 126 -51.5 Q147 -5 182 32.5 Q217 70 263 99 Q309 128 359 147 Q323 164 299.5 198 Q276 232 276 288 Q276 318 284.5 343.5 Q293 369 306.5 390 Q320 411 337 428.5 Q354 446 372 460 Q325 481 287 510.5 Q249 540 222 576 Q195 612 180.5 653.5 Q166 695 166 740 L166 762 Q166 836 197 898.5 Q228 961 283 1006 Q338 1051 413 1076.5 Q488 1102 576 1102 Q653 1102 724 1082 L1056 1082 L1058 1028 L842 1028 Q911 982 949.5 914 Q988 846 988 762 L988 740 Q988 674 957.5 616 Q927 558 872 514 Q817 470 742.5 444.5 Q668 419 579 419 Q501 419 432 439 Q417 429 399 414.5 Q381 400 366 381.5 Q351 363 340.5 339.5 Q330 316 330 288 Q330 254 342 232.5 Q354 211 373.5 199 Q393 187 417 182.5 Q441 178 466 178 L672 178 Z M462 124 Q400 116 345 90.5 Q290 65 248.5 27.5 Q207 -10 182.5 -56.5 Q158 -103 158 -152 Q158 -200 180.5 -242.5 Q203 -285 249.5 -316.5 Q296 -348 367.5 -366 Q439 -384 537 -384 Q653 -384 742 -358.5 Q831 -333 892 -292.5 Q953 -252 984 -203 Q1015 -154 1015 -107 Q1015 -58 995 -16 Q975 26 933 57 Q891 88 826.5 106 Q762 124 672 124 L468 124 L462 124 Z M429 497 Q462 486 499.5 479.5 Q537 473 579 473 Q661 473 726.5 496.5 Q792 520 838.5 557.5 Q885 595 910 643 Q935 691 935 740 L935 762 Q935 818 909.5 870 Q884 922 837 961.5 Q790 1001 724 1024.5 Q658 1048 576 1048 Q495 1048 429 1024.5 Q363 1001 316.5 961.5 Q270 922 244.5 870 Q219 818 219 762 L219 740 Q219 704 233 668 Q247 632 273.5 599.5 Q300 567 338.5 541 Q377 515 426 498 Q427 498 427 498.5 Q427 499 428 499 L429 497 Z " />
<glyph glyph-name="h" unicode="h" horiz-adv-x="1218" d="M192 1536 L245 1536 L245 821 Q271 880 311.5 931 Q352 982 405 1020 Q458 1058 522.5 1080 Q587 1102 661 1102 Q750 1102 818.5 1079.5 Q887 1057 934.5 1008.5 Q982 960 1006.5 884 Q1031 808 1031 700 L1031 0 L979 0 L979 700 Q979 803 955.5 870.5 Q932 938 889.5 977.5 Q847 1017 788.5 1033 Q730 1049 660 1049 Q562 1049 489.5 1012 Q417 975 366.5 920 Q316 865 286.5 801.5 Q257 738 245 685 L245 0 L192 0 L192 1536 Z " />
<glyph glyph-name="i" unicode="i" horiz-adv-x="463" >
<g transform="translate(5,0)" >
<path fill="black" d="M202 0 L202 1082 L255 1082 L255 0 L202 0 Z " />
</g>
<g transform="translate(11,1371)" >
<path fill="black" d="M165 49 Q165 72 182 88.5 Q199 105 222 105 Q246 105 263 88.5 Q280 72 280 49 Q280 26 263 10 Q246 -6 222 -6 Q199 -6 182 10 Q165 26 165 49 Z " />
</g>
</glyph>
<glyph glyph-name="j" unicode="j" horiz-adv-x="490" >
<g transform="translate(15,0)" >
<path fill="black" d="M-162 -365 Q-145 -371 -117.5 -377 Q-90 -383 -60 -383 Q62 -383 127.5 -316.5 Q193 -250 193 -129 L193 1082 L246 1082 L246 -129 Q246 -279 165 -358 Q84 -437 -62 -437 Q-114 -437 -166 -417 L-162 -365 Z " />
</g>
<g transform="translate(19,1371)" >
<path fill="black" d="M165 49 Q165 72 182 88.5 Q199 105 222 105 Q246 105 263 88.5 Q280 72 280 49 Q280 26 263 10 Q246 -6 222 -6 Q199 -6 182 10 Q165 26 165 49 Z " />
</g>
</glyph>
<glyph glyph-name="k" unicode="k" horiz-adv-x="1052" d="M192 1536 L245 1536 L245 505 L383 627 L919 1082 L996 1082 L459 622 L1029 0 L959 0 L417 586 L413 583 L245 447 L245 0 L192 0 L192 1536 Z " />
<glyph glyph-name="l" unicode="l" horiz-adv-x="653" d="M208 1536 L262 1536 L262 259 Q262 188 276.5 144 Q291 100 315 75.5 Q339 51 371 42.5 Q403 34 439 34 Q472 34 498 36.5 Q524 39 555 43 L565 -8 Q553 -12 537 -14 Q521 -16 504 -17.5 Q487 -19 471 -19.5 Q455 -20 444 -20 Q389 -20 345 -7 Q301 6 270.5 38 Q240 70 224 124 Q208 178 208 259 L208 1536 Z " />
<glyph glyph-name="m" unicode="m" horiz-adv-x="1989" d="M180 1082 L234 1082 L234 815 Q259 875 299 927.5 Q339 980 391.5 1018.5 Q444 1057 509 1079.5 Q574 1102 649 1102 Q798 1102 891.5 1040.5 Q985 979 1012 839 Q1036 894 1076.5 942 Q1117 990 1172 1025.5 Q1227 1061 1295.5 1081.5 Q1364 1102 1443 1102 Q1531 1102 1600 1079.5 Q1669 1057 1717 1008.5 Q1765 960 1790 884 Q1815 808 1815 700 L1815 0 L1763 0 L1763 700 Q1763 803 1739 871 Q1715 939 1672 978.5 Q1629 1018 1570 1034 Q1511 1050 1441 1049 Q1337 1048 1260 1012.5 Q1183 977 1131.5 926.5 Q1080 876 1053.5 820 Q1027 764 1022 720 L1022 0 L970 0 L970 720 Q970 817 946 880.5 Q922 944 879.5 981.5 Q837 1019 778 1034 Q719 1049 649 1049 Q549 1049 476 1010.5 Q403 972 352.5 915 Q302 858 273.5 793.5 Q245 729 234 676 L234 0 L180 0 L180 1082 Z " />
<glyph glyph-name="n" unicode="n" horiz-adv-x="1218" d="M192 1082 L246 1082 L245 851 L245 821 Q271 880 311.5 931 Q352 982 405 1020 Q458 1058 522.5 1080 Q587 1102 662 1102 Q750 1102 818.5 1079.5 Q887 1057 934.5 1008.5 Q982 960 1006.5 884 Q1031 808 1031 700 L1031 0 L979 0 L979 700 Q979 803 955.5 870.5 Q932 938 889.5 977.5 Q847 1017 788.5 1033 Q730 1049 660 1049 Q562 1049 489.5 1012 Q417 975 366.5 920 Q316 865 286.5 801.5 Q257 738 245 685 L245 0 L192 0 L192 1082 Z " />
<glyph glyph-name="o" unicode="o" horiz-adv-x="1223" d="M107 572 Q107 691 143.5 788.5 Q180 886 246.5 956 Q313 1026 405.5 1064 Q498 1102 610 1102 Q724 1102 817 1064 Q910 1026 976.5 956 Q1043 886 1079 788.5 Q1115 691 1115 572 L1115 510 Q1115 391 1079 293.5 Q1043 196 977 126 Q911 56 818.5 18 Q726 -20 613 -20 Q500 -20 406.5 18 Q313 56 246.5 126 Q180 196 143.5 293.5 Q107 391 107 510 L107 572 Z M160 510 Q160 413 190 326.5 Q220 240 278 175 Q336 110 420.5 72 Q505 34 613 34 Q720 34 804 72 Q888 110 945.5 175 Q1003 240 1033 326.5 Q1063 413 1063 510 L1063 572 Q1063 667 1032.5 753 Q1002 839 944.5 904.5 Q887 970 802.5 1009 Q718 1048 610 1048 Q503 1048 419 1009 Q335 970 277.5 904.5 Q220 839 190 753 Q160 667 160 572 L160 510 Z " />
<glyph glyph-name="p" unicode="p" horiz-adv-x="1217" d="M190 291 L189 295 L189 755 L190 759 L190 1082 L244 1082 L243 888 Q299 984 398 1043 Q497 1102 640 1102 Q744 1102 825.5 1066.5 Q907 1031 963.5 962.5 Q1020 894 1049.5 793.5 Q1079 693 1079 562 L1079 521 Q1079 395 1049.5 294.5 Q1020 194 964 124.5 Q908 55 827 17.5 Q746 -20 643 -20 Q571 -20 509.5 -6 Q448 8 398 33.5 Q348 59 309 93.5 Q270 128 243 169 L243 -416 L190 -416 L190 291 Z M243 265 Q264 216 299 173.5 Q334 131 384 100 Q434 69 499.5 51.5 Q565 34 646 34 Q742 34 813.5 69 Q885 104 932 167.5 Q979 231 1002.5 321 Q1026 411 1026 521 L1026 562 Q1026 672 1002.5 762 Q979 852 931.5 915.5 Q884 979 812.5 1013.5 Q741 1048 644 1048 Q549 1048 480.5 1023.5 Q412 999 365 960 Q318 921 289 873.5 Q260 826 243 780 L243 265 Z " />
<glyph glyph-name="q" unicode="q" horiz-adv-x="1216" d="M974 169 Q947 129 908 94 Q869 59 818.5 34 Q768 9 707 -5.5 Q646 -20 574 -20 Q471 -20 390 17.5 Q309 55 253 124.5 Q197 194 167.5 294.5 Q138 395 138 521 L138 562 Q138 693 168 793.5 Q198 894 254 962.5 Q310 1031 391.5 1066.5 Q473 1102 576 1102 Q719 1102 818.5 1043 Q918 984 974 888 L973 1082 L1027 1082 L1027 759 L1028 755 L1028 294 L1027 290 L1027 -416 L974 -416 L974 169 Z M193 521 Q193 411 216 321 Q239 231 286 167.5 Q333 104 404 69 Q475 34 571 34 Q652 34 717.5 51.5 Q783 69 833 100 Q883 131 918 173.5 Q953 216 974 265 L974 779 Q958 824 928 871.5 Q898 919 850.5 958.5 Q803 998 734.5 1023 Q666 1048 573 1048 Q477 1048 405.5 1013.5 Q334 979 286.5 915.5 Q239 852 216 762 Q193 672 193 562 L193 521 Z " />
<glyph glyph-name="r" unicode="r" horiz-adv-x="749" d="M192 1082 L245 1082 L245 852 Q293 967 388.5 1034.5 Q484 1102 629 1102 Q656 1102 676.5 1099 Q697 1096 711 1091 L704 1043 Q687 1045 668.5 1047 Q650 1049 630 1049 Q548 1049 482.5 1023 Q417 997 369 951 Q321 905 290 842.5 Q259 780 245 706 L245 0 L192 0 L192 1082 Z " />
<glyph glyph-name="s" unicode="s" horiz-adv-x="1107" d="M175 273 Q180 203 216.5 157 Q253 111 307 83.5 Q361 56 427 45 Q493 34 557 34 Q644 34 710 54 Q776 74 820.5 106 Q865 138 888 179.5 Q911 221 911 263 Q911 300 895.5 336.5 Q880 373 839.5 407.5 Q799 442 729.5 473.5 Q660 505 552 531 Q455 555 381.5 580.5 Q308 606 259 640.5 Q210 675 185 720.5 Q160 766 160 830 Q160 887 186.5 936.5 Q213 986 263 1022.5 Q313 1059 385 1080.5 Q457 1102 548 1102 Q646 1102 723 1080 Q800 1058 853.5 1017.5 Q907 977 935.5 920 Q964 863 964 794 L910 794 Q910 844 886 890 Q862 936 816 971 Q770 1006 702.5 1027 Q635 1048 548 1048 Q459 1048 395.5 1028.5 Q332 1009 291.5 978 Q251 947 232 908.5 Q213 870 213 832 Q213 792 226 758 Q239 724 277.5 693.5 Q316 663 385.5 635 Q455 607 569 578 Q670 553 744.5 524.5 Q819 496 868 459 Q917 422 940.5 374 Q964 326 964 262 Q964 199 935.5 147.5 Q907 96 854 58.5 Q801 21 725.5 0.5 Q650 -20 557 -20 Q452 -20 370.5 3.5 Q289 27 234 67 Q179 107 150.5 160 Q122 213 122 273 L175 273 Z " />
<glyph glyph-name="t" unicode="t" horiz-adv-x="709" d="M264 1027 L49 1027 L49 1082 L264 1082 L264 1374 L318 1374 L318 1082 L584 1082 L584 1027 L318 1027 L318 259 Q318 188 332.5 144 Q347 100 371 75.5 Q395 51 427 42.5 Q459 34 495 34 Q528 34 554 36.5 Q580 39 611 43 L621 -8 Q609 -12 593 -14 Q577 -16 560 -17.5 Q543 -19 527 -19.5 Q511 -20 500 -20 Q445 -20 401 -7 Q357 6 326.5 38 Q296 70 280 124 Q264 178 264 259 L264 1027 Z " />
<glyph glyph-name="u" unicode="u" horiz-adv-x="1218" d="M188 1082 L241 1082 L241 393 Q241 294 265.5 225.5 Q290 157 333.5 114.5 Q377 72 437 53 Q497 34 568 34 Q667 34 738.5 57.5 Q810 81 859 120.5 Q908 160 935.5 213 Q963 266 975 325 L975 1082 L1029 1082 L1029 425 L1032 425 Q1032 392 1029 362 L1029 0 L975 0 L975 179 Q924 88 824.5 34 Q725 -20 571 -20 Q486 -20 415 2.5 Q344 25 294 74.5 Q244 124 216 203 Q188 282 188 395 L188 1082 Z " />
<glyph glyph-name="v" unicode="v" horiz-adv-x="1064" d="M53 1082 L110 1082 L532 84 L957 1082 L1014 1082 L559 0 L506 0 L53 1082 Z " />
<glyph glyph-name="w" unicode="w" horiz-adv-x="1681" d="M98 1082 L159 1082 L396 313 L464 75 L547 313 L807 1082 L863 1082 L1122 313 L1205 75 L1273 313 L1509 1082 L1572 1082 L1233 0 L1178 0 L893 813 L834 1013 L772 813 L489 0 L435 0 L98 1082 Z " />
<glyph glyph-name="x" unicode="x" horiz-adv-x="1063" d="M498 555 L88 1082 L154 1082 L532 602 L908 1082 L974 1082 L564 555 L996 0 L930 0 L530 508 L131 0 L66 0 L498 555 Z " />
<glyph glyph-name="y" unicode="y" horiz-adv-x="1065" d="M111 -375 Q119 -377 130.5 -378.5 Q142 -380 154 -381.5 Q166 -383 176 -383.5 Q186 -384 191 -384 Q245 -384 285 -368 Q325 -352 355 -323.5 Q385 -295 407 -256 Q429 -217 448 -170 L519 7 L53 1082 L110 1082 L549 82 L558 104 L963 1082 L1021 1082 L502 -180 Q488 -214 468.5 -258.5 Q449 -303 415.5 -342.5 Q382 -382 330 -409.5 Q278 -437 198 -437 Q189 -437 177 -436.5 Q165 -436 152.5 -434.5 Q140 -433 129 -431 Q118 -429 112 -426 L111 -375 Z " />
<glyph glyph-name="z" unicode="z" horiz-adv-x="1063" d="M99 44 L866 1027 L134 1027 L134 1082 L941 1082 L941 1034 L175 54 L1006 54 L1006 0 L99 0 L99 44 Z " />
<glyph glyph-name="braceleft" unicode="&#x7b;" horiz-adv-x="720" d="M356 265 Q356 328 340.5 379.5 Q325 431 292 467.5 Q259 504 208 523.5 Q157 543 85 543 L85 609 Q157 609 208 628.5 Q259 648 292 684 Q325 720 340.5 771 Q356 822 356 885 L356 1132 Q356 1211 372.5 1282.5 Q389 1354 428.5 1414.5 Q468 1475 533.5 1521.5 Q599 1568 697 1597 L712 1552 Q632 1528 574.5 1487.5 Q517 1447 480 1393 Q443 1339 425.5 1273 Q408 1207 408 1132 L408 885 Q408 828 395.5 778 Q383 728 356 687.5 Q329 647 286.5 618 Q244 589 184 576 Q244 563 286.5 534 Q329 505 356 464 Q383 423 395.5 372.5 Q408 322 408 265 L408 20 Q408 -131 483 -238.5 Q558 -346 718 -395 L697 -441 Q599 -412 533.5 -366 Q468 -320 428.5 -260.5 Q389 -201 372.5 -130 Q356 -59 356 20 L356 265 Z " />
<glyph glyph-name="bar" unicode="&#x7c;" horiz-adv-x="451" d="M203 -270 L203 1456 L259 1456 L259 -270 L203 -270 Z " />
<glyph glyph-name="braceright" unicode="&#x7d;" horiz-adv-x="721" d="M6 -395 Q164 -346 239 -238.5 Q314 -131 314 20 L314 265 Q314 322 327 372.5 Q340 423 367 464 Q394 505 436.5 534 Q479 563 539 576 Q479 589 436.5 618 Q394 647 367 687.5 Q340 728 327 778 Q314 828 314 885 L314 1132 Q314 1207 297 1273 Q280 1339 243 1393 Q206 1447 148.5 1487.5 Q91 1528 11 1552 L25 1597 Q124 1568 189.5 1521.5 Q255 1475 294.5 1414.5 Q334 1354 350.5 1282.5 Q367 1211 367 1132 L367 885 Q367 822 382.5 771 Q398 720 431 684 Q464 648 515 628.5 Q566 609 637 609 L637 543 Q566 543 515 523.5 Q464 504 431 467.5 Q398 431 382.5 379.5 Q367 328 367 265 L367 20 Q367 -59 350.5 -130 Q334 -201 294.5 -260.5 Q255 -320 189.5 -366 Q124 -412 25 -441 L6 -395 Z " />
<glyph glyph-name="asciitilde" unicode="&#x7e;" horiz-adv-x="1532" d="M179 462 Q179 525 196 582 Q213 639 248 681.5 Q283 724 337 749 Q391 774 466 774 Q515 774 555.5 764 Q596 754 633.5 734.5 Q671 715 708.5 687 Q746 659 788 624 Q830 589 864 564.5 Q898 540 929.5 525 Q961 510 992.5 503 Q1024 496 1059 496 Q1172 496 1231 565.5 Q1290 635 1290 753 L1346 752 Q1346 691 1328.5 635 Q1311 579 1275.5 536.5 Q1240 494 1186 468.5 Q1132 443 1059 443 Q1011 443 971 453 Q931 463 893.5 482 Q856 501 819 529 Q782 557 738 593 Q698 626 665 650 Q632 674 601 689.5 Q570 705 537.5 712.5 Q505 720 466 720 Q357 720 295.5 655 Q234 590 234 462 L179 462 Z " />
<glyph glyph-name="uni00A0" unicode="&#xa0;" horiz-adv-x="539" />
<glyph glyph-name="exclamdown" unicode="&#xa1;" horiz-adv-x="445" d="M199 696 L253 696 L252 -359 L200 -359 L199 696 Z M159 1047 Q159 1070 176 1086.5 Q193 1103 216 1103 Q240 1103 257 1086.5 Q274 1070 274 1047 Q274 1024 257 1008 Q240 992 216 992 Q193 992 176 1008 Q159 1024 159 1047 Z " />
<glyph glyph-name="cent" unicode="&#xa2;" horiz-adv-x="1076" d="M600 -19 Q494 -15 411.5 24.5 Q329 64 272 132.5 Q215 201 185 297 Q155 393 155 510 L155 572 Q155 690 185 785.5 Q215 881 272 949.5 Q329 1018 412 1057.5 Q495 1097 600 1101 L600 1318 L653 1318 L653 1101 Q732 1098 804 1073 Q876 1048 931 1001.5 Q986 955 1020.5 886 Q1055 817 1059 725 L1006 725 Q1002 809 969.5 869.5 Q937 930 885 970 Q833 1010 766 1029 Q699 1048 627 1048 Q519 1048 440 1012.5 Q361 977 309.5 913.5 Q258 850 232.5 763 Q207 676 207 572 L207 510 Q207 406 232.5 318.5 Q258 231 309.5 168 Q361 105 440.5 69.5 Q520 34 628 34 Q697 34 762.5 49.5 Q828 65 880.5 100 Q933 135 967 191 Q1001 247 1006 328 L1059 328 Q1055 246 1021 182.5 Q987 119 932.5 75 Q878 31 806 7 Q734 -17 653 -20 L653 -245 L600 -245 L600 -19 Z " />
<glyph glyph-name="sterling" unicode="&#xa3;" horiz-adv-x="1248" d="M113 54 L244 54 Q273 62 293.5 90 Q314 118 326.5 158 Q339 198 344 244.5 Q349 291 348 336 L340 667 L108 667 L108 721 L338 721 L330 1039 Q327 1143 354 1224 Q381 1305 431.5 1361 Q482 1417 554.5 1446.5 Q627 1476 716 1476 Q813 1476 888 1447.5 Q963 1419 1014 1368 Q1065 1317 1091 1246 Q1117 1175 1117 1089 L1064 1089 Q1064 1178 1036.5 1241 Q1009 1304 962 1344 Q915 1384 851.5 1403 Q788 1422 717 1422 Q639 1422 576 1397 Q513 1372 469 1323.5 Q425 1275 401.5 1203.5 Q378 1132 378 1039 L388 721 L788 721 L788 667 L390 667 L400 336 Q406 142 330 54 L1144 54 L1145 0 L113 0 L113 54 Z " />
<glyph glyph-name="currency" unicode="&#xa4;" horiz-adv-x="1670" d="M327 196 Q252 278 209.5 382.5 Q167 487 167 608 Q167 733 212.5 841 Q258 949 338 1032 L128 1225 L168 1264 L379 1071 Q468 1148 582.5 1191 Q697 1234 828 1234 Q959 1234 1073.5 1190.5 Q1188 1147 1277 1069 L1490 1265 L1531 1225 L1319 1029 Q1397 946 1441.5 839 Q1486 732 1486 608 Q1486 489 1444.5 385 Q1403 281 1330 199 L1531 13 L1490 -27 L1289 158 Q1199 74 1081.5 27 Q964 -20 828 -20 Q692 -20 574.5 26.5 Q457 73 367 156 L168 -26 L128 13 L327 196 Z M223 608 Q223 489 271 384 Q319 279 401.5 201 Q484 123 594 78 Q704 33 828 33 Q952 33 1061.5 78 Q1171 123 1253.5 201 Q1336 279 1384 384 Q1432 489 1432 608 Q1432 727 1384 831.5 Q1336 936 1253.5 1013.5 Q1171 1091 1061.5 1136 Q952 1181 828 1181 Q704 1181 594 1136 Q484 1091 401.5 1013.5 Q319 936 271 831.5 Q223 727 223 608 Z " />
<glyph glyph-name="yen" unicode="&#xa5;" horiz-adv-x="1128" d="M111 381 L535 381 L535 621 L111 621 L111 676 L507 676 L43 1456 L103 1456 L525 738 L554 687 L568 687 L597 738 L1019 1456 L1080 1456 L614 676 L1012 676 L1012 621 L587 621 L587 381 L1012 381 L1012 326 L587 326 L587 0 L535 0 L535 326 L111 326 L111 381 Z " />
<glyph glyph-name="brokenbar" unicode="&#xa6;" horiz-adv-x="440" d="M194 698 L194 1456 L248 1456 L248 698 L194 698 Z M194 -270 L194 482 L248 482 L248 -270 L194 -270 Z " />
<glyph glyph-name="section" unicode="&#xa7;" horiz-adv-x="1327" d="M184 -62 Q184 -171 226.5 -244 Q269 -317 336 -360.5 Q403 -404 486.5 -422.5 Q570 -441 651 -441 Q754 -441 834 -419.5 Q914 -398 968.5 -359 Q1023 -320 1051.5 -267 Q1080 -214 1080 -151 Q1080 -94 1062 -48.5 Q1044 -3 997.5 34.5 Q951 72 869.5 103.5 Q788 135 661 166 Q543 192 446.5 224 Q350 256 281 300 Q212 344 174.5 405 Q137 466 137 551 Q137 605 158 650.5 Q179 696 218.5 730.5 Q258 765 315 788.5 Q372 812 443 822 Q381 846 333 874.5 Q285 903 252.5 940 Q220 977 203 1023.5 Q186 1070 186 1129 Q186 1208 220.5 1272 Q255 1336 318 1381.5 Q381 1427 470.5 1451.5 Q560 1476 671 1476 Q785 1476 875 1448 Q965 1420 1028 1365 Q1091 1310 1124.5 1229.5 Q1158 1149 1158 1045 L1105 1045 Q1105 1123 1076.5 1191.5 Q1048 1260 993 1311.5 Q938 1363 857 1392.5 Q776 1422 671 1422 Q559 1422 477.5 1399 Q396 1376 342.5 1337 Q289 1298 263.5 1245 Q238 1192 238 1132 Q238 1071 256 1024 Q274 977 322 939.5 Q370 902 453.5 870.5 Q537 839 667 807 Q787 778 882.5 747 Q978 716 1044.5 674 Q1111 632 1146 573.5 Q1181 515 1181 431 Q1181 379 1158.5 334.5 Q1136 290 1094 255.5 Q1052 221 992 197.5 Q932 174 857 164 Q924 140 975.5 111.5 Q1027 83 1062 45.5 Q1097 8 1115 -39.5 Q1133 -87 1133 -149 Q1133 -231 1099 -295 Q1065 -359 1002 -403.5 Q939 -448 850 -471.5 Q761 -495 651 -495 Q555 -495 462 -473 Q369 -451 295.5 -401 Q222 -351 176.5 -268.5 Q131 -186 131 -64 L184 -62 Z M190 553 Q190 488 211 441 Q232 394 286.5 356.5 Q341 319 435.5 286.5 Q530 254 677 217 Q697 212 717 206.5 Q737 201 756 196 Q845 198 914.5 216.5 Q984 235 1031.5 266.5 Q1079 298 1104 339.5 Q1129 381 1129 428 Q1129 490 1105.5 537.5 Q1082 585 1025.5 624 Q969 663 875 696.5 Q781 730 640 764 Q608 772 578 780 Q548 788 520 796 Q435 792 372.5 772 Q310 752 269.5 719.5 Q229 687 209.5 644 Q190 601 190 553 Z " />
<glyph glyph-name="dieresis" unicode="&#xa8;" horiz-adv-x="1010" >
<g transform="translate(32,1372)" >
<path fill="black" d="M165 49 Q165 72 182 88.5 Q199 105 222 105 Q246 105 263 88.5 Q280 72 280 49 Q280 26 263 10 Q246 -6 222 -6 Q199 -6 182 10 Q165 26 165 49 Z " />
</g>
<g transform="translate(526,1372)" >
<path fill="black" d="M165 49 Q165 72 182 88.5 Q199 105 222 105 Q246 105 263 88.5 Q280 72 280 49 Q280 26 263 10 Q246 -6 222 -6 Q199 -6 182 10 Q165 26 165 49 Z " />
</g>
</glyph>
<glyph glyph-name="copyright" unicode="&#xa9;" horiz-adv-x="1853" d="M140 729 Q140 888 202 1024.5 Q264 1161 371 1261.5 Q478 1362 621.5 1419 Q765 1476 927 1476 Q1090 1476 1233 1419 Q1376 1362 1483 1261.5 Q1590 1161 1652 1024.5 Q1714 888 1714 729 Q1714 570 1652 433 Q1590 296 1483 195 Q1376 94 1233 36.5 Q1090 -21 927 -21 Q765 -21 621.5 36.5 Q478 94 371 195 Q264 296 202 433 Q140 570 140 729 Z M200 729 Q200 584 257.5 457 Q315 330 414 236 Q513 142 645 88 Q777 34 927 34 Q1076 34 1208.5 88 Q1341 142 1440 236 Q1539 330 1596.5 457 Q1654 584 1654 729 Q1654 875 1596.5 1001 Q1539 1127 1440 1220.5 Q1341 1314 1208.5 1367.5 Q1076 1421 927 1421 Q777 1421 645 1367.5 Q513 1314 414 1220.5 Q315 1127 257.5 1001 Q200 875 200 729 Z M566 768 Q566 854 591.5 925 Q617 996 663.5 1047 Q710 1098 775 1126.5 Q840 1155 919 1155 Q994 1155 1055 1135.5 Q1116 1116 1159 1077 Q1202 1038 1225.5 979 Q1249 920 1249 842 L1196 842 Q1196 973 1124.5 1037.5 Q1053 1102 919 1102 Q849 1102 793.5 1076 Q738 1050 700.5 1005 Q663 960 643 899 Q623 838 623 769 L623 689 Q623 619 643 558.5 Q663 498 700.5 453 Q738 408 793.5 382.5 Q849 357 919 357 Q1052 357 1123.5 419.5 Q1195 482 1195 616 L1248 616 Q1248 537 1224.5 478 Q1201 419 1158.5 380 Q1116 341 1055 321.5 Q994 302 919 302 Q840 302 775 330 Q710 358 663.5 409 Q617 460 591.5 531.5 Q566 603 566 689 L566 768 Z " />
<glyph glyph-name="guillemotleft" unicode="&#xab;" horiz-adv-x="984" >
<g transform="translate(44,-36)" >
<path fill="black" d="M123 551 L123 570 L440 940 L513 940 L196 561 L513 181 L440 181 L123 551 Z " />
</g>
<g transform="translate(311,-36)" >
<path fill="black" d="M123 551 L123 570 L440 940 L513 940 L196 561 L513 181 L440 181 L123 551 Z " />
</g>
</glyph>
<glyph glyph-name="logicalnot" unicode="&#xac;" horiz-adv-x="1196" d="M137 753 L989 753 L989 396 L936 396 L936 700 L137 700 L137 753 Z " />
<glyph glyph-name="uni00AD" unicode="&#xad;" horiz-adv-x="667" >
<g transform="translate(2,0)" >
<path fill="black" d="M73 639 L73 693 L578 693 L578 639 L73 639 Z " />
</g>
</glyph>
<glyph glyph-name="registered" unicode="&#xae;" horiz-adv-x="1863" d="M131 729 Q131 888 193 1024.5 Q255 1161 362 1261.5 Q469 1362 612 1419 Q755 1476 918 1476 Q1081 1476 1224 1419 Q1367 1362 1474 1261.5 Q1581 1161 1643 1024.5 Q1705 888 1705 729 Q1705 570 1643 433 Q1581 296 1474 195 Q1367 94 1224 36.5 Q1081 -21 918 -21 Q755 -21 612 36.5 Q469 94 362 195 Q255 296 193 433 Q131 570 131 729 Z M189 729 Q189 584 247 457 Q305 330 404 236 Q503 142 635.5 88 Q768 34 918 34 Q1067 34 1199.5 88 Q1332 142 1431 236 Q1530 330 1587.5 457 Q1645 584 1645 729 Q1645 875 1587.5 1001 Q1530 1127 1431 1220.5 Q1332 1314 1199.5 1367.5 Q1067 1421 918 1421 Q768 1421 635.5 1367.5 Q503 1314 404 1220.5 Q305 1127 247 1001 Q189 875 189 729 Z M663 1156 L927 1156 Q1087 1156 1166 1095.5 Q1245 1035 1245 916 Q1245 841 1201.5 788 Q1158 735 1079 709 Q1120 697 1147 677 Q1174 657 1191 630.5 Q1208 604 1215 572 Q1222 540 1222 505 L1222 469 Q1222 431 1226.5 398 Q1231 365 1240 342 L1240 326 L1179 326 Q1173 339 1170 359 Q1167 379 1165.5 400 Q1164 421 1163.5 440 Q1163 459 1163 470 L1163 504 Q1163 551 1152 584 Q1141 617 1116.5 638 Q1092 659 1053 668.5 Q1014 678 957 678 L720 678 L720 326 L663 326 L663 1156 Z M950 734 Q999 734 1042 745.5 Q1085 757 1117.5 780.5 Q1150 804 1169 838 Q1188 872 1188 917 Q1188 964 1175 998.5 Q1162 1033 1131.5 1056 Q1101 1079 1051 1090 Q1001 1101 927 1101 L720 1101 L720 734 L950 734 Z " />
<glyph glyph-name="overscore" unicode="&#xaf;" horiz-adv-x="879" d="M148 1383 L148 1436 L754 1436 L754 1383 L148 1383 Z " />
<glyph glyph-name="degree" unicode="&#xb0;" horiz-adv-x="873" d="M176 1236 Q176 1285 196.5 1328.5 Q217 1372 252.5 1405 Q288 1438 335.5 1457 Q383 1476 437 1476 Q490 1476 536.5 1457 Q583 1438 617.5 1405 Q652 1372 672.5 1328.5 Q693 1285 693 1236 Q693 1186 672.5 1143 Q652 1100 617.5 1068 Q583 1036 536.5 1017.5 Q490 999 437 999 Q383 999 335.5 1017.5 Q288 1036 252.5 1068 Q217 1100 196.5 1143 Q176 1186 176 1236 Z M234 1236 Q234 1197 249.5 1163.5 Q265 1130 292 1106 Q319 1082 356.5 1068.5 Q394 1055 437 1055 Q480 1055 516 1068.5 Q552 1082 578.5 1106 Q605 1130 619.5 1163.5 Q634 1197 634 1236 Q634 1276 619.5 1310 Q605 1344 578.5 1368.5 Q552 1393 516 1407 Q480 1421 437 1421 Q394 1421 356.5 1407 Q319 1393 292 1368.5 Q265 1344 249.5 1310 Q234 1276 234 1236 Z " />
<glyph glyph-name="plusminus" unicode="&#xb1;" horiz-adv-x="1170" d="M83 805 L562 805 L562 1267 L615 1267 L615 805 L1068 805 L1068 751 L615 751 L615 289 L562 289 L562 751 L83 751 L83 805 Z M139 53 L1038 53 L1038 -1 L139 -1 L139 53 Z " />
<glyph glyph-name="twosuperior" unicode="&#xb2;" horiz-adv-x="795" d="M126 664 L125 708 L438 1002 Q526 1085 565 1141.5 Q604 1198 604 1247 Q604 1324 550.5 1369.5 Q497 1415 391 1415 Q333 1415 289 1401 Q245 1387 215 1361.5 Q185 1336 170 1301.5 Q155 1267 155 1226 L102 1226 Q102 1275 122 1318 Q142 1361 179 1393.5 Q216 1426 270 1445 Q324 1464 391 1464 Q451 1464 500 1449.5 Q549 1435 584 1407 Q619 1379 638.5 1339 Q658 1299 658 1248 Q658 1211 641.5 1174.5 Q625 1138 598 1102.5 Q571 1067 536 1032 Q501 997 464 963 L192 713 L707 713 L707 664 L126 664 Z " />
<glyph glyph-name="threesuperior" unicode="&#xb3;" horiz-adv-x="795" d="M148 881 Q148 841 167.5 808 Q187 775 221 751 Q255 727 301.5 714 Q348 701 403 701 Q515 701 577 747 Q639 793 639 874 Q639 919 619.5 950.5 Q600 982 564.5 1002 Q529 1022 480.5 1031.5 Q432 1041 374 1041 L299 1041 L299 1090 L374 1090 Q434 1090 479.5 1102.5 Q525 1115 556 1137 Q587 1159 602.5 1187.5 Q618 1216 618 1249 Q618 1284 605 1314 Q592 1344 565 1366.5 Q538 1389 496 1402 Q454 1415 397 1415 Q349 1415 306.5 1403 Q264 1391 233 1369.5 Q202 1348 184 1316.5 Q166 1285 166 1246 L113 1246 Q113 1295 135.5 1335.5 Q158 1376 196.5 1404.5 Q235 1433 286.5 1448.5 Q338 1464 397 1464 Q460 1464 510.5 1449.5 Q561 1435 597 1407 Q633 1379 652.5 1338.5 Q672 1298 672 1246 Q672 1189 628.5 1140 Q585 1091 505 1068 Q597 1048 644.5 997.5 Q692 947 692 875 Q692 822 670 781 Q648 740 609.5 711.5 Q571 683 518 668 Q465 653 403 653 Q348 653 292.5 666.5 Q237 680 193.5 708.5 Q150 737 122.5 780 Q95 823 95 881 L148 881 Z " />
<glyph glyph-name="acute" unicode="&#xb4;" horiz-adv-x="564" d="M350 1536 L417 1536 L204 1270 L141 1270 L350 1536 Z " />
<glyph glyph-name="mu" unicode="&#xb5;" horiz-adv-x="1216" d="M190 361 Q190 364 189.5 366.5 Q189 369 189 372 L190 377 L190 1082 L241 1082 L241 440 Q241 319 269 240.5 Q297 162 343.5 116 Q390 70 450 52 Q510 34 574 34 Q685 34 759.5 63 Q834 92 880 143.5 Q926 195 948 265 Q970 335 976 417 L976 1082 L1029 1082 L1029 505 L1032 505 Q1032 465 1029 427 L1029 0 L979 0 L976 209 Q928 103 831.5 41.5 Q735 -20 583 -20 Q533 -20 483.5 -10 Q434 0 389 22.5 Q344 45 306 82 Q268 119 241 173 L241 -416 L190 -416 L190 361 Z " />
<glyph glyph-name="paragraph" unicode="&#xb6;" horiz-adv-x="1028" d="M779 0 L779 520 L643 520 Q515 520 416 555 Q317 590 250 652.5 Q183 715 148.5 801 Q114 887 114 988 Q114 1089 148.5 1174.5 Q183 1260 250 1322.5 Q317 1385 416 1420.5 Q515 1456 643 1456 L832 1456 L832 0 L779 0 Z " />
<glyph glyph-name="middot" unicode="&#xb7;" horiz-adv-x="517" >
<g transform="translate(35,657)" >
<path fill="black" d="M165 49 Q165 72 182 88.5 Q199 105 222 105 Q246 105 263 88.5 Q280 72 280 49 Q280 26 263 10 Q246 -6 222 -6 Q199 -6 182 10 Q165 26 165 49 Z " />
</g>
</glyph>
<glyph glyph-name="cedilla" unicode="&#xb8;" horiz-adv-x="539" d="M92 -386 Q136 -386 181.5 -378 Q227 -370 264.5 -352.5 Q302 -335 326 -308.5 Q350 -282 350 -245 Q350 -212 337 -190.5 Q324 -169 298 -155 Q272 -141 234 -133.5 Q196 -126 146 -121 L172 0 L226 0 L214 -76 Q250 -79 284.5 -89 Q319 -99 346 -118.5 Q373 -138 389.5 -169 Q406 -200 406 -245 Q406 -288 384.5 -323 Q363 -358 323.5 -383 Q284 -408 227 -421.5 Q170 -435 99 -435 L92 -386 Z " />
<glyph glyph-name="onesuperior" unicode="&#xb9;" horiz-adv-x="795" d="M418 664 L418 1386 L150 1305 L150 1358 L462 1455 L471 1455 L471 664 L418 664 Z " />
<glyph glyph-name="guillemotright" unicode="&#xbb;" horiz-adv-x="975" >
<g transform="translate(26,0)" >
<path fill="black" d="M438 551 L121 940 L193 940 L509 560 L509 541 L193 171 L121 171 L438 551 Z " />
</g>
<g transform="translate(300,0)" >
<path fill="black" d="M438 551 L121 940 L193 940 L509 560 L509 541 L193 171 L121 171 L438 551 Z " />
</g>
</glyph>
<glyph glyph-name="onequarter" unicode="&#xbc;" horiz-adv-x="1418" d="M1106 1308 L1152 1277 L387 139 L341 170 L1106 1308 Z M812 236 L1262 789 L1322 789 L1322 253 L1482 253 L1482 204 L1322 204 L1322 0 L1270 0 L1270 204 L812 204 L812 236 Z M436 664 L436 1386 L168 1305 L168 1358 L480 1455 L489 1455 L489 664 L436 664 Z M1270 253 L1270 732 L1221 656 L883 253 L1270 253 Z " />
<glyph glyph-name="onehalf" unicode="&#xbd;" horiz-adv-x="1458" d="M413 664 L406 664 L406 1386 L138 1305 L138 1358 L450 1455 L459 1455 L459 732 L841 1300 L887 1269 L122 131 L76 162 L413 664 Z M920 44 L1233 338 Q1321 421 1360 477.5 Q1399 534 1399 583 Q1399 660 1345.5 705.5 Q1292 751 1186 751 Q1128 751 1084 737 Q1040 723 1010 697.5 Q980 672 965 637.5 Q950 603 950 562 L897 562 Q897 611 917 654 Q937 697 974 729.5 Q1011 762 1065 781 Q1119 800 1186 800 Q1246 800 1295 785.5 Q1344 771 1379 743 Q1414 715 1433.5 675 Q1453 635 1453 584 Q1453 547 1436.5 510.5 Q1420 474 1393 438.5 Q1366 403 1331 368 Q1296 333 1259 299 L987 49 L1502 49 L1502 0 L921 0 L920 44 Z " />
<glyph glyph-name="threequarters" unicode="&#xbe;" horiz-adv-x="1533" d="M407 655 Q357 660 309 676 Q261 692 224 720 Q187 748 164.5 788 Q142 828 142 881 L195 881 Q195 842 213.5 810 Q232 778 264 754 Q296 730 341 716.5 Q386 703 438 701 L632 989 Q597 1016 542.5 1028.5 Q488 1041 421 1041 L346 1041 L346 1090 L421 1090 Q481 1090 526.5 1102.5 Q572 1115 603 1137 Q634 1159 649.5 1187.5 Q665 1216 665 1249 Q665 1284 652 1314 Q639 1344 612 1366.5 Q585 1389 543 1402 Q501 1415 444 1415 Q396 1415 353.5 1403 Q311 1391 280 1369.5 Q249 1348 231 1316.5 Q213 1285 213 1246 L160 1246 Q160 1295 182.5 1335.5 Q205 1376 243.5 1404.5 Q282 1433 333.5 1448.5 Q385 1464 444 1464 Q507 1464 557.5 1449.5 Q608 1435 644 1407 Q680 1379 699.5 1338.5 Q719 1298 719 1246 Q719 1189 675.5 1140 Q632 1091 552 1068 Q584 1061 610 1050.5 Q636 1040 657 1026 L841 1300 L887 1269 L699 989 Q739 940 739 875 Q739 825 719 785 Q699 745 663.5 717 Q628 689 579.5 673 Q531 657 473 654 L122 131 L76 162 L407 655 Z M867 236 L1317 789 L1377 789 L1377 253 L1537 253 L1537 204 L1377 204 L1377 0 L1325 0 L1325 204 L867 204 L867 236 Z M1325 253 L1325 732 L1276 656 L938 253 L1325 253 Z M508 705 Q593 716 639.5 760 Q686 804 686 874 Q686 914 669 945 L508 705 Z " />
<glyph glyph-name="questiondown" unicode="&#xbf;" horiz-adv-x="991" d="M881 -21 Q880 -112 850 -179.5 Q820 -247 768.5 -292 Q717 -337 648.5 -359 Q580 -381 501 -381 Q412 -381 342 -354.5 Q272 -328 223.5 -279.5 Q175 -231 149.5 -163.5 Q124 -96 124 -15 Q124 61 143 124 Q162 187 198 242 Q234 297 285 346 Q336 395 399 443 Q438 473 459.5 499.5 Q481 526 491 555.5 Q501 585 502.5 618.5 Q504 652 504 695 L556 695 Q555 640 552 602.5 Q549 565 536.5 534.5 Q524 504 497.5 474 Q471 444 424 403 Q374 359 329 317.5 Q284 276 250.5 228 Q217 180 197 121 Q177 62 177 -17 Q177 -163 260.5 -245.5 Q344 -328 501 -328 Q581 -328 641 -305.5 Q701 -283 742.5 -242 Q784 -201 805.5 -145 Q827 -89 828 -21 L881 -21 Z M468 1045 Q468 1068 485 1084.5 Q502 1101 525 1101 Q549 1101 566 1084.5 Q583 1068 583 1045 Q583 1022 566 1006 Q549 990 525 990 Q502 990 485 1006 Q468 1022 468 1045 Z " />
<glyph glyph-name="Agrave" unicode="&#xc0;" horiz-adv-x="1323" >
<path fill="black" d="M628 1456 L695 1456 L1281 0 L1222 0 L1047 435 L275 435 L100 0 L42 0 L628 1456 Z M1025 489 L661 1395 L297 489 L1025 489 Z " />
<g transform="translate(261,319)" >
<path fill="black" d="M384 1270 L171 1536 L238 1536 L446 1270 L384 1270 Z " />
</g>
</glyph>
<glyph glyph-name="Aacute" unicode="&#xc1;" horiz-adv-x="1323" >
<path fill="black" d="M628 1456 L695 1456 L1281 0 L1222 0 L1047 435 L275 435 L100 0 L42 0 L628 1456 Z M1025 489 L661 1395 L297 489 L1025 489 Z " />
<g transform="translate(479,319)" >
<path fill="black" d="M350 1536 L417 1536 L204 1270 L141 1270 L350 1536 Z " />
</g>
</glyph>
<glyph glyph-name="Acircumflex" unicode="&#xc2;" horiz-adv-x="1323" >
<path fill="black" d="M628 1456 L695 1456 L1281 0 L1222 0 L1047 435 L275 435 L100 0 L42 0 L628 1456 Z M1025 489 L661 1395 L297 489 L1025 489 Z " />
<g transform="translate(226,319)" >
<path fill="black" d="M169 1278 L416 1517 L456 1517 L707 1274 L707 1264 L637 1264 L435 1460 L234 1264 L169 1264 L169 1278 Z " />
</g>
</glyph>
<glyph glyph-name="Atilde" unicode="&#xc3;" horiz-adv-x="1323" >
<path fill="black" d="M628 1456 L695 1456 L1281 0 L1222 0 L1047 435 L275 435 L100 0 L42 0 L628 1456 Z M1025 489 L661 1395 L297 489 L1025 489 Z " />
<g transform="translate(227,334)" >
<path fill="black" d="M102 1286 Q102 1327 116.5 1360.5 Q131 1394 156 1417 Q181 1440 215.5 1452.5 Q250 1465 289 1465 Q346 1465 384.5 1445.5 Q423 1426 455.5 1403 Q488 1380 521 1360.5 Q554 1341 599 1341 Q626 1341 650 1349.5 Q674 1358 691.5 1375 Q709 1392 719.5 1416.5 Q730 1441 730 1472 L787 1472 Q787 1430 772.5 1396 Q758 1362 732.5 1337.5 Q707 1313 672.5 1299.5 Q638 1286 599 1286 Q541 1286 503 1305.5 Q465 1325 433.5 1348.5 Q402 1372 369.5 1391.5 Q337 1411 289 1411 Q234 1411 196 1380 Q158 1349 158 1286 L102 1286 Z " />
</g>
</glyph>
<glyph glyph-name="Adieresis" unicode="&#xc4;" horiz-adv-x="1323" >
<path fill="black" d="M628 1456 L695 1456 L1281 0 L1222 0 L1047 435 L275 435 L100 0 L42 0 L628 1456 Z M1025 489 L661 1395 L297 489 L1025 489 Z " />
<g transform="translate(192,1691)" >
<path fill="black" d="M165 49 Q165 72 182 88.5 Q199 105 222 105 Q246 105 263 88.5 Q280 72 280 49 Q280 26 263 10 Q246 -6 222 -6 Q199 -6 182 10 Q165 26 165 49 Z " />
</g>
<g transform="translate(686,1691)" >
<path fill="black" d="M165 49 Q165 72 182 88.5 Q199 105 222 105 Q246 105 263 88.5 Q280 72 280 49 Q280 26 263 10 Q246 -6 222 -6 Q199 -6 182 10 Q165 26 165 49 Z " />
</g>
</glyph>
<glyph glyph-name="Aring" unicode="&#xc5;" horiz-adv-x="1323" >
<path fill="black" d="M628 1456 L695 1456 L1281 0 L1222 0 L1047 435 L275 435 L100 0 L42 0 L628 1456 Z M1025 489 L661 1395 L297 489 L1025 489 Z " />
<g transform="translate(349,319)" >
<path fill="black" d="M128 1382 Q128 1419 142.5 1450.5 Q157 1482 182.5 1505.5 Q208 1529 242.5 1542.5 Q277 1556 316 1556 Q355 1556 389 1542.5 Q423 1529 448.5 1505.5 Q474 1482 488.5 1450.5 Q503 1419 503 1382 Q503 1345 488.5 1314 Q474 1283 448.5 1260.5 Q423 1238 389 1225 Q355 1212 316 1212 Q277 1212 242.5 1225 Q208 1238 182.5 1260.5 Q157 1283 142.5 1314 Q128 1345 128 1382 Z M185 1382 Q185 1330 222 1298 Q259 1266 316 1266 Q373 1266 409 1298 Q445 1330 445 1382 Q445 1436 409 1469 Q373 1502 316 1502 Q259 1502 222 1469 Q185 1436 185 1382 Z " />
</g>
</glyph>
<glyph glyph-name="AE" unicode="&#xc6;" horiz-adv-x="1963" d="M1010 1456 L1838 1456 L1838 1402 L1090 1402 L1118 786 L1750 786 L1750 732 L1120 732 L1151 54 L1904 54 L1904 0 L1100 0 L1081 426 L1081 425 L402 425 L126 0 L63 0 L1010 1456 Z M1079 478 L1037 1401 L437 478 L1079 478 Z " />
<glyph glyph-name="Ccedilla" unicode="&#xc7;" horiz-adv-x="1441" d="M630 -396 Q674 -396 719.5 -388 Q765 -380 802.5 -362.5 Q840 -345 864 -318.5 Q888 -292 888 -255 Q888 -222 875 -200.5 Q862 -179 836 -165 Q810 -151 772 -143.5 Q734 -136 684 -131 L708 -20 Q583 -16 482.5 30 Q382 76 311 157 Q240 238 202 351.5 Q164 465 164 604 L164 857 Q164 997 203.5 1111.5 Q243 1226 316.5 1307 Q390 1388 494 1432 Q598 1476 727 1476 Q844 1476 941.5 1448.5 Q1039 1421 1111.5 1364 Q1184 1307 1228.5 1219.5 Q1273 1132 1285 1012 L1232 1012 Q1208 1220 1079.5 1321 Q951 1422 727 1422 Q613 1422 519 1382.5 Q425 1343 358 1270 Q291 1197 254 1092.5 Q217 988 217 859 L217 604 Q217 473 254 367.5 Q291 262 358 188 Q425 114 519 74 Q613 34 728 34 Q837 34 925 57 Q1013 80 1077 129.5 Q1141 179 1180.5 257 Q1220 335 1232 446 L1285 446 Q1273 329 1231 243 Q1189 157 1121.5 100 Q1054 43 963.5 14 Q873 -15 763 -19 L752 -86 Q788 -89 822.5 -99 Q857 -109 884 -128.5 Q911 -148 927.5 -179 Q944 -210 944 -255 Q944 -298 922.5 -333 Q901 -368 861.5 -393 Q822 -418 765 -431.5 Q708 -445 637 -445 L630 -396 Z " />
<glyph glyph-name="Egrave" unicode="&#xc8;" horiz-adv-x="1267" >
<path fill="black" d="M222 1456 L1175 1456 L1175 1402 L275 1402 L275 776 L1065 776 L1065 722 L275 722 L275 54 L1174 54 L1174 0 L222 0 L222 1456 Z " />
<g transform="translate(271,319)" >
<path fill="black" d="M384 1270 L171 1536 L238 1536 L446 1270 L384 1270 Z " />
</g>
</glyph>
<glyph glyph-name="Eacute" unicode="&#xc9;" horiz-adv-x="1267" >
<path fill="black" d="M222 1456 L1175 1456 L1175 1402 L275 1402 L275 776 L1065 776 L1065 722 L275 722 L275 54 L1174 54 L1174 0 L222 0 L222 1456 Z " />
<g transform="translate(489,319)" >
<path fill="black" d="M350 1536 L417 1536 L204 1270 L141 1270 L350 1536 Z " />
</g>
</glyph>
<glyph glyph-name="Ecircumflex" unicode="&#xca;" horiz-adv-x="1267" >
<path fill="black" d="M222 1456 L1175 1456 L1175 1402 L275 1402 L275 776 L1065 776 L1065 722 L275 722 L275 54 L1174 54 L1174 0 L222 0 L222 1456 Z " />
<g transform="translate(236,319)" >
<path fill="black" d="M169 1278 L416 1517 L456 1517 L707 1274 L707 1264 L637 1264 L435 1460 L234 1264 L169 1264 L169 1278 Z " />
</g>
</glyph>
<glyph glyph-name="Edieresis" unicode="&#xcb;" horiz-adv-x="1267" >
<path fill="black" d="M222 1456 L1175 1456 L1175 1402 L275 1402 L275 776 L1065 776 L1065 722 L275 722 L275 54 L1174 54 L1174 0 L222 0 L222 1456 Z " />
<g transform="translate(202,1691)" >
<path fill="black" d="M165 49 Q165 72 182 88.5 Q199 105 222 105 Q246 105 263 88.5 Q280 72 280 49 Q280 26 263 10 Q246 -6 222 -6 Q199 -6 182 10 Q165 26 165 49 Z " />
</g>
<g transform="translate(696,1691)" >
<path fill="black" d="M165 49 Q165 72 182 88.5 Q199 105 222 105 Q246 105 263 88.5 Q280 72 280 49 Q280 26 263 10 Q246 -6 222 -6 Q199 -6 182 10 Q165 26 165 49 Z " />
</g>
</glyph>
<glyph glyph-name="Igrave" unicode="&#xcc;" horiz-adv-x="586" >
<path fill="black" d="M267 0 L267 1456 L319 1456 L319 0 L267 0 Z " />
<g transform="translate(-107,319)" >
<path fill="black" d="M384 1270 L171 1536 L238 1536 L446 1270 L384 1270 Z " />
</g>
</glyph>
<glyph glyph-name="Iacute" unicode="&#xcd;" horiz-adv-x="586" >
<path fill="black" d="M267 0 L267 1456 L319 1456 L319 0 L267 0 Z " />
<g transform="translate(111,319)" >
<path fill="black" d="M350 1536 L417 1536 L204 1270 L141 1270 L350 1536 Z " />
</g>
</glyph>
<glyph glyph-name="Icircumflex" unicode="&#xce;" horiz-adv-x="586" >
<g transform="translate(-142,319)" >
<path fill="black" d="M169 1278 L416 1517 L456 1517 L707 1274 L707 1264 L637 1264 L435 1460 L234 1264 L169 1264 L169 1278 Z " />
</g>
<path fill="black" d="M267 0 L267 1456 L319 1456 L319 0 L267 0 Z " />
</glyph>
<glyph glyph-name="Idieresis" unicode="&#xcf;" horiz-adv-x="586" >
<path fill="black" d="M267 0 L267 1456 L319 1456 L319 0 L267 0 Z " />
<g transform="translate(-176,1691)" >
<path fill="black" d="M165 49 Q165 72 182 88.5 Q199 105 222 105 Q246 105 263 88.5 Q280 72 280 49 Q280 26 263 10 Q246 -6 222 -6 Q199 -6 182 10 Q165 26 165 49 Z " />
</g>
<g transform="translate(318,1691)" >
<path fill="black" d="M165 49 Q165 72 182 88.5 Q199 105 222 105 Q246 105 263 88.5 Q280 72 280 49 Q280 26 263 10 Q246 -6 222 -6 Q199 -6 182 10 Q165 26 165 49 Z " />
</g>
</glyph>
<glyph glyph-name="Eth" unicode="&#xd0;" horiz-adv-x="1453" d="M222 713 L73 713 L73 767 L222 767 L222 1456 L656 1456 Q794 1456 911.5 1411.5 Q1029 1367 1115.5 1286 Q1202 1205 1250.5 1091 Q1299 977 1299 837 L1299 619 Q1299 479 1250.5 365 Q1202 251 1115.5 170 Q1029 89 911.5 44.5 Q794 0 656 0 L222 0 L222 713 Z M656 54 Q782 54 890 95 Q998 136 1077 210.5 Q1156 285 1201 389 Q1246 493 1246 619 L1246 840 Q1246 965 1201 1068.5 Q1156 1172 1077 1246 Q998 1320 890 1361 Q782 1402 656 1402 L275 1402 L275 767 L703 767 L703 713 L275 713 L275 54 L656 54 Z " />
<glyph glyph-name="Ntilde" unicode="&#xd1;" horiz-adv-x="1571" >
<path fill="black" d="M222 1456 L276 1456 L1296 95 L1296 1456 L1349 1456 L1349 0 L1296 0 L276 1364 L276 0 L222 0 L222 1456 Z " />
<g transform="translate(352,334)" >
<path fill="black" d="M102 1286 Q102 1327 116.5 1360.5 Q131 1394 156 1417 Q181 1440 215.5 1452.5 Q250 1465 289 1465 Q346 1465 384.5 1445.5 Q423 1426 455.5 1403 Q488 1380 521 1360.5 Q554 1341 599 1341 Q626 1341 650 1349.5 Q674 1358 691.5 1375 Q709 1392 719.5 1416.5 Q730 1441 730 1472 L787 1472 Q787 1430 772.5 1396 Q758 1362 732.5 1337.5 Q707 1313 672.5 1299.5 Q638 1286 599 1286 Q541 1286 503 1305.5 Q465 1325 433.5 1348.5 Q402 1372 369.5 1391.5 Q337 1411 289 1411 Q234 1411 196 1380 Q158 1349 158 1286 L102 1286 Z " />
</g>
</glyph>
<glyph glyph-name="Ograve" unicode="&#xd2;" horiz-adv-x="1479" >
<path fill="black" d="M152 857 Q152 997 193 1111.5 Q234 1226 310.5 1307 Q387 1388 495 1432 Q603 1476 738 1476 Q873 1476 981.5 1432 Q1090 1388 1167 1307 Q1244 1226 1285.5 1111.5 Q1327 997 1327 857 L1327 599 Q1327 459 1286 344.5 Q1245 230 1168.5 149 Q1092 68 983.5 24 Q875 -20 740 -20 Q605 -20 496.5 24 Q388 68 311.5 149 Q235 230 193.5 344.5 Q152 459 152 599 L152 857 Z M205 599 Q205 473 241 368.5 Q277 264 345.5 190 Q414 116 513.5 75 Q613 34 740 34 Q868 34 967.5 75 Q1067 116 1135.5 190 Q1204 264 1239.5 368.5 Q1275 473 1275 599 L1275 859 Q1275 985 1239 1088.5 Q1203 1192 1134 1266 Q1065 1340 965.5 1381 Q866 1422 738 1422 Q611 1422 512 1381 Q413 1340 344.5 1266 Q276 1192 240.5 1088.5 Q205 985 205 859 L205 599 Z " />
<g transform="translate(331,340)" >
<path fill="black" d="M384 1270 L171 1536 L238 1536 L446 1270 L384 1270 Z " />
</g>
</glyph>
<glyph glyph-name="Oacute" unicode="&#xd3;" horiz-adv-x="1479" >
<path fill="black" d="M152 857 Q152 997 193 1111.5 Q234 1226 310.5 1307 Q387 1388 495 1432 Q603 1476 738 1476 Q873 1476 981.5 1432 Q1090 1388 1167 1307 Q1244 1226 1285.5 1111.5 Q1327 997 1327 857 L1327 599 Q1327 459 1286 344.5 Q1245 230 1168.5 149 Q1092 68 983.5 24 Q875 -20 740 -20 Q605 -20 496.5 24 Q388 68 311.5 149 Q235 230 193.5 344.5 Q152 459 152 599 L152 857 Z M205 599 Q205 473 241 368.5 Q277 264 345.5 190 Q414 116 513.5 75 Q613 34 740 34 Q868 34 967.5 75 Q1067 116 1135.5 190 Q1204 264 1239.5 368.5 Q1275 473 1275 599 L1275 859 Q1275 985 1239 1088.5 Q1203 1192 1134 1266 Q1065 1340 965.5 1381 Q866 1422 738 1422 Q611 1422 512 1381 Q413 1340 344.5 1266 Q276 1192 240.5 1088.5 Q205 985 205 859 L205 599 Z " />
<g transform="translate(549,340)" >
<path fill="black" d="M350 1536 L417 1536 L204 1270 L141 1270 L350 1536 Z " />
</g>
</glyph>
<glyph glyph-name="Ocircumflex" unicode="&#xd4;" horiz-adv-x="1479" >
<path fill="black" d="M152 857 Q152 997 193 1111.5 Q234 1226 310.5 1307 Q387 1388 495 1432 Q603 1476 738 1476 Q873 1476 981.5 1432 Q1090 1388 1167 1307 Q1244 1226 1285.5 1111.5 Q1327 997 1327 857 L1327 599 Q1327 459 1286 344.5 Q1245 230 1168.5 149 Q1092 68 983.5 24 Q875 -20 740 -20 Q605 -20 496.5 24 Q388 68 311.5 149 Q235 230 193.5 344.5 Q152 459 152 599 L152 857 Z M205 599 Q205 473 241 368.5 Q277 264 345.5 190 Q414 116 513.5 75 Q613 34 740 34 Q868 34 967.5 75 Q1067 116 1135.5 190 Q1204 264 1239.5 368.5 Q1275 473 1275 599 L1275 859 Q1275 985 1239 1088.5 Q1203 1192 1134 1266 Q1065 1340 965.5 1381 Q866 1422 738 1422 Q611 1422 512 1381 Q413 1340 344.5 1266 Q276 1192 240.5 1088.5 Q205 985 205 859 L205 599 Z " />
<g transform="translate(296,340)" >
<path fill="black" d="M169 1278 L416 1517 L456 1517 L707 1274 L707 1264 L637 1264 L435 1460 L234 1264 L169 1264 L169 1278 Z " />
</g>
</glyph>
<glyph glyph-name="Otilde" unicode="&#xd5;" horiz-adv-x="1479" >
<path fill="black" d="M152 857 Q152 997 193 1111.5 Q234 1226 310.5 1307 Q387 1388 495 1432 Q603 1476 738 1476 Q873 1476 981.5 1432 Q1090 1388 1167 1307 Q1244 1226 1285.5 1111.5 Q1327 997 1327 857 L1327 599 Q1327 459 1286 344.5 Q1245 230 1168.5 149 Q1092 68 983.5 24 Q875 -20 740 -20 Q605 -20 496.5 24 Q388 68 311.5 149 Q235 230 193.5 344.5 Q152 459 152 599 L152 857 Z M205 599 Q205 473 241 368.5 Q277 264 345.5 190 Q414 116 513.5 75 Q613 34 740 34 Q868 34 967.5 75 Q1067 116 1135.5 190 Q1204 264 1239.5 368.5 Q1275 473 1275 599 L1275 859 Q1275 985 1239 1088.5 Q1203 1192 1134 1266 Q1065 1340 965.5 1381 Q866 1422 738 1422 Q611 1422 512 1381 Q413 1340 344.5 1266 Q276 1192 240.5 1088.5 Q205 985 205 859 L205 599 Z " />
<g transform="translate(297,355)" >
<path fill="black" d="M102 1286 Q102 1327 116.5 1360.5 Q131 1394 156 1417 Q181 1440 215.5 1452.5 Q250 1465 289 1465 Q346 1465 384.5 1445.5 Q423 1426 455.5 1403 Q488 1380 521 1360.5 Q554 1341 599 1341 Q626 1341 650 1349.5 Q674 1358 691.5 1375 Q709 1392 719.5 1416.5 Q730 1441 730 1472 L787 1472 Q787 1430 772.5 1396 Q758 1362 732.5 1337.5 Q707 1313 672.5 1299.5 Q638 1286 599 1286 Q541 1286 503 1305.5 Q465 1325 433.5 1348.5 Q402 1372 369.5 1391.5 Q337 1411 289 1411 Q234 1411 196 1380 Q158 1349 158 1286 L102 1286 Z " />
</g>
</glyph>
<glyph glyph-name="Odieresis" unicode="&#xd6;" horiz-adv-x="1479" >
<path fill="black" d="M152 857 Q152 997 193 1111.5 Q234 1226 310.5 1307 Q387 1388 495 1432 Q603 1476 738 1476 Q873 1476 981.5 1432 Q1090 1388 1167 1307 Q1244 1226 1285.5 1111.5 Q1327 997 1327 857 L1327 599 Q1327 459 1286 344.5 Q1245 230 1168.5 149 Q1092 68 983.5 24 Q875 -20 740 -20 Q605 -20 496.5 24 Q388 68 311.5 149 Q235 230 193.5 344.5 Q152 459 152 599 L152 857 Z M205 599 Q205 473 241 368.5 Q277 264 345.5 190 Q414 116 513.5 75 Q613 34 740 34 Q868 34 967.5 75 Q1067 116 1135.5 190 Q1204 264 1239.5 368.5 Q1275 473 1275 599 L1275 859 Q1275 985 1239 1088.5 Q1203 1192 1134 1266 Q1065 1340 965.5 1381 Q866 1422 738 1422 Q611 1422 512 1381 Q413 1340 344.5 1266 Q276 1192 240.5 1088.5 Q205 985 205 859 L205 599 Z " />
<g transform="translate(262,1712)" >
<path fill="black" d="M165 49 Q165 72 182 88.5 Q199 105 222 105 Q246 105 263 88.5 Q280 72 280 49 Q280 26 263 10 Q246 -6 222 -6 Q199 -6 182 10 Q165 26 165 49 Z " />
</g>
<g transform="translate(756,1712)" >
<path fill="black" d="M165 49 Q165 72 182 88.5 Q199 105 222 105 Q246 105 263 88.5 Q280 72 280 49 Q280 26 263 10 Q246 -6 222 -6 Q199 -6 182 10 Q165 26 165 49 Z " />
</g>
</glyph>
<glyph glyph-name="multiply" unicode="&#xd7;" horiz-adv-x="1142" d="M526 430 L142 793 L180 832 L565 467 L950 832 L989 793 L605 429 L1020 36 L981 -1 L566 392 L150 -1 L111 36 L526 430 Z " />
<glyph glyph-name="Oslash" unicode="&#xd8;" horiz-adv-x="1320" d="M335 127 Q247 209 200.5 328.5 Q154 448 154 599 L154 857 Q154 997 195 1111.5 Q236 1226 312.5 1307 Q389 1388 497 1432 Q605 1476 740 1476 Q868 1476 972 1436.5 Q1076 1397 1152 1324 L1269 1495 L1338 1495 L1192 1281 Q1258 1201 1293.5 1094.5 Q1329 988 1329 857 L1329 599 Q1329 459 1288 344.5 Q1247 230 1170.5 149 Q1094 68 985.5 24 Q877 -20 742 -20 Q633 -20 542 8.5 Q451 37 379 91 L265 -75 L197 -75 L335 127 Z M1122 1280 Q1053 1348 957.5 1385 Q862 1422 740 1422 Q613 1422 514 1381 Q415 1340 346.5 1266 Q278 1192 242.5 1088.5 Q207 985 207 859 L207 599 Q207 464 247 355.5 Q287 247 365 172 L1122 1280 Z M1277 859 Q1277 973 1247.5 1068.5 Q1218 1164 1161 1236 L408 135 Q474 86 557 60 Q640 34 742 34 Q870 34 969.5 75 Q1069 116 1137.5 190 Q1206 264 1241.5 368.5 Q1277 473 1277 599 L1277 859 Z " />
<glyph glyph-name="Ugrave" unicode="&#xd9;" horiz-adv-x="1483" >
<path fill="black" d="M207 1456 L260 1456 L260 459 Q260 354 297 274 Q334 194 398.5 141 Q463 88 551 61 Q639 34 742 34 Q844 34 932 61 Q1020 88 1084.5 141 Q1149 194 1186 274 Q1223 354 1223 459 L1223 1456 L1275 1456 L1275 459 Q1275 336 1234.5 246 Q1194 156 1123 97 Q1052 38 954 9 Q856 -20 742 -20 Q628 -20 530 9 Q432 38 360 97 Q288 156 247.5 246 Q207 336 207 459 L207 1456 Z " />
<g transform="translate(356,319)" >
<path fill="black" d="M384 1270 L171 1536 L238 1536 L446 1270 L384 1270 Z " />
</g>
</glyph>
<glyph glyph-name="Uacute" unicode="&#xda;" horiz-adv-x="1483" >
<path fill="black" d="M207 1456 L260 1456 L260 459 Q260 354 297 274 Q334 194 398.5 141 Q463 88 551 61 Q639 34 742 34 Q844 34 932 61 Q1020 88 1084.5 141 Q1149 194 1186 274 Q1223 354 1223 459 L1223 1456 L1275 1456 L1275 459 Q1275 336 1234.5 246 Q1194 156 1123 97 Q1052 38 954 9 Q856 -20 742 -20 Q628 -20 530 9 Q432 38 360 97 Q288 156 247.5 246 Q207 336 207 459 L207 1456 Z " />
<g transform="translate(574,319)" >
<path fill="black" d="M350 1536 L417 1536 L204 1270 L141 1270 L350 1536 Z " />
</g>
</glyph>
<glyph glyph-name="Ucircumflex" unicode="&#xdb;" horiz-adv-x="1483" >
<path fill="black" d="M207 1456 L260 1456 L260 459 Q260 354 297 274 Q334 194 398.5 141 Q463 88 551 61 Q639 34 742 34 Q844 34 932 61 Q1020 88 1084.5 141 Q1149 194 1186 274 Q1223 354 1223 459 L1223 1456 L1275 1456 L1275 459 Q1275 336 1234.5 246 Q1194 156 1123 97 Q1052 38 954 9 Q856 -20 742 -20 Q628 -20 530 9 Q432 38 360 97 Q288 156 247.5 246 Q207 336 207 459 L207 1456 Z " />
<g transform="translate(321,319)" >
<path fill="black" d="M169 1278 L416 1517 L456 1517 L707 1274 L707 1264 L637 1264 L435 1460 L234 1264 L169 1264 L169 1278 Z " />
</g>
</glyph>
<glyph glyph-name="Udieresis" unicode="&#xdc;" horiz-adv-x="1483" >
<path fill="black" d="M207 1456 L260 1456 L260 459 Q260 354 297 274 Q334 194 398.5 141 Q463 88 551 61 Q639 34 742 34 Q844 34 932 61 Q1020 88 1084.5 141 Q1149 194 1186 274 Q1223 354 1223 459 L1223 1456 L1275 1456 L1275 459 Q1275 336 1234.5 246 Q1194 156 1123 97 Q1052 38 954 9 Q856 -20 742 -20 Q628 -20 530 9 Q432 38 360 97 Q288 156 247.5 246 Q207 336 207 459 L207 1456 Z " />
<g transform="translate(287,1691)" >
<path fill="black" d="M165 49 Q165 72 182 88.5 Q199 105 222 105 Q246 105 263 88.5 Q280 72 280 49 Q280 26 263 10 Q246 -6 222 -6 Q199 -6 182 10 Q165 26 165 49 Z " />
</g>
<g transform="translate(781,1691)" >
<path fill="black" d="M165 49 Q165 72 182 88.5 Q199 105 222 105 Q246 105 263 88.5 Q280 72 280 49 Q280 26 263 10 Q246 -6 222 -6 Q199 -6 182 10 Q165 26 165 49 Z " />
</g>
</glyph>
<glyph glyph-name="Yacute" unicode="&#xdd;" horiz-adv-x="1328" >
<path fill="black" d="M635 553 L43 1456 L114 1456 L662 602 L1216 1456 L1280 1456 L688 553 L688 0 L635 0 L635 553 Z " />
<g transform="translate(477,308)" >
<path fill="black" d="M350 1536 L417 1536 L204 1270 L141 1270 L350 1536 Z " />
</g>
</glyph>
<glyph glyph-name="Thorn" unicode="&#xde;" horiz-adv-x="1324" d="M222 1456 L275 1456 L275 1143 L678 1143 Q795 1143 885.5 1112.5 Q976 1082 1037 1027.5 Q1098 973 1129.5 899 Q1161 825 1161 738 Q1161 651 1129.5 577 Q1098 503 1037 449 Q976 395 885.5 364.5 Q795 334 678 334 L275 334 L275 0 L222 0 L222 1456 Z M678 388 Q792 388 873.5 419 Q955 450 1007 500 Q1059 550 1083.5 612 Q1108 674 1108 736 Q1108 801 1083.5 864 Q1059 927 1007 977 Q955 1027 873.5 1058 Q792 1089 678 1089 L275 1089 L275 388 L678 388 Z " />
<glyph glyph-name="germandbls" unicode="&#xdf;" horiz-adv-x="1285" d="M184 0 L184 1143 Q184 1334 274 1434.5 Q364 1535 535 1535 Q598 1535 658 1515 Q718 1495 764.5 1459 Q811 1423 839 1371.5 Q867 1320 867 1257 Q867 1210 857.5 1174 Q848 1138 834 1108 Q820 1078 803 1050 Q786 1022 772 990.5 Q758 959 748.5 920 Q739 881 739 829 Q739 777 769 736.5 Q799 696 844.5 659.5 Q890 623 943 587 Q996 551 1041.5 509.5 Q1087 468 1117 416.5 Q1147 365 1147 297 Q1147 221 1110 162 Q1073 103 1015 62.5 Q957 22 887 0.5 Q817 -21 752 -21 Q705 -21 655 -14 Q605 -7 559 5.5 Q513 18 475.5 34 Q438 50 416 68 L442 117 Q463 101 497 86 Q531 71 571.5 59 Q612 47 656.5 39.5 Q701 32 744 32 Q821 32 885 54 Q949 76 995.5 113.5 Q1042 151 1068 201 Q1094 251 1094 306 Q1094 364 1064 408 Q1034 452 988.5 490 Q943 528 890.5 563 Q838 598 792.5 637 Q747 676 717 723 Q687 770 687 831 Q687 882 696 921.5 Q705 961 718.5 993.5 Q732 1026 747.5 1055 Q763 1084 776.5 1114.5 Q790 1145 799 1179.5 Q808 1214 808 1259 Q808 1306 785.5 1346.5 Q763 1387 726 1417 Q689 1447 642 1464 Q595 1481 546 1481 Q476 1481 419 1463 Q362 1445 321.5 1404.5 Q281 1364 258.5 1299.5 Q236 1235 236 1143 L236 0 L184 0 Z " />
<glyph glyph-name="agrave" unicode="&#xe0;" horiz-adv-x="1173" >
<path fill="black" d="M136 786 Q136 851 168 908 Q200 965 257 1008.5 Q314 1052 393 1077 Q472 1102 565 1102 Q655 1102 731 1082 Q807 1062 861.5 1020.5 Q916 979 946.5 916.5 Q977 854 977 768 L977 218 Q977 189 979 159 Q981 129 985 101 Q989 73 994.5 49.5 Q1000 26 1007 9 L1007 0 L946 0 Q935 38 929.5 92 Q924 146 924 199 Q895 155 852 115.5 Q809 76 751.5 46 Q694 16 622 -2 Q550 -20 461 -20 Q380 -20 314 1 Q248 22 201.5 60 Q155 98 129.5 152.5 Q104 207 104 274 Q104 346 140 407 Q176 468 244.5 511.5 Q313 555 412.5 579.5 Q512 604 639 604 L924 604 L924 770 Q924 906 831.5 977 Q739 1048 566 1048 Q486 1048 417 1028.5 Q348 1009 297 973.5 Q246 938 217 889.5 Q188 841 188 784 L136 786 Z M924 549 L641 549 Q526 549 436 528.5 Q346 508 284 471 Q222 434 189.5 383 Q157 332 157 270 Q157 218 179.5 174.5 Q202 131 242 99.5 Q282 68 337.5 50.5 Q393 33 460 33 Q630 33 747.5 101.5 Q865 170 924 287 L924 549 Z " />
<g transform="translate(226,-1)" >
<path fill="black" d="M384 1270 L171 1536 L238 1536 L446 1270 L384 1270 Z " />
</g>
</glyph>
<glyph glyph-name="aacute" unicode="&#xe1;" horiz-adv-x="1173" >
<path fill="black" d="M136 786 Q136 851 168 908 Q200 965 257 1008.5 Q314 1052 393 1077 Q472 1102 565 1102 Q655 1102 731 1082 Q807 1062 861.5 1020.5 Q916 979 946.5 916.5 Q977 854 977 768 L977 218 Q977 189 979 159 Q981 129 985 101 Q989 73 994.5 49.5 Q1000 26 1007 9 L1007 0 L946 0 Q935 38 929.5 92 Q924 146 924 199 Q895 155 852 115.5 Q809 76 751.5 46 Q694 16 622 -2 Q550 -20 461 -20 Q380 -20 314 1 Q248 22 201.5 60 Q155 98 129.5 152.5 Q104 207 104 274 Q104 346 140 407 Q176 468 244.5 511.5 Q313 555 412.5 579.5 Q512 604 639 604 L924 604 L924 770 Q924 906 831.5 977 Q739 1048 566 1048 Q486 1048 417 1028.5 Q348 1009 297 973.5 Q246 938 217 889.5 Q188 841 188 784 L136 786 Z M924 549 L641 549 Q526 549 436 528.5 Q346 508 284 471 Q222 434 189.5 383 Q157 332 157 270 Q157 218 179.5 174.5 Q202 131 242 99.5 Q282 68 337.5 50.5 Q393 33 460 33 Q630 33 747.5 101.5 Q865 170 924 287 L924 549 Z " />
<g transform="translate(444,-1)" >
<path fill="black" d="M350 1536 L417 1536 L204 1270 L141 1270 L350 1536 Z " />
</g>
</glyph>
<glyph glyph-name="acircumflex" unicode="&#xe2;" horiz-adv-x="1173" >
<path fill="black" d="M136 786 Q136 851 168 908 Q200 965 257 1008.5 Q314 1052 393 1077 Q472 1102 565 1102 Q655 1102 731 1082 Q807 1062 861.5 1020.5 Q916 979 946.5 916.5 Q977 854 977 768 L977 218 Q977 189 979 159 Q981 129 985 101 Q989 73 994.5 49.5 Q1000 26 1007 9 L1007 0 L946 0 Q935 38 929.5 92 Q924 146 924 199 Q895 155 852 115.5 Q809 76 751.5 46 Q694 16 622 -2 Q550 -20 461 -20 Q380 -20 314 1 Q248 22 201.5 60 Q155 98 129.5 152.5 Q104 207 104 274 Q104 346 140 407 Q176 468 244.5 511.5 Q313 555 412.5 579.5 Q512 604 639 604 L924 604 L924 770 Q924 906 831.5 977 Q739 1048 566 1048 Q486 1048 417 1028.5 Q348 1009 297 973.5 Q246 938 217 889.5 Q188 841 188 784 L136 786 Z M924 549 L641 549 Q526 549 436 528.5 Q346 508 284 471 Q222 434 189.5 383 Q157 332 157 270 Q157 218 179.5 174.5 Q202 131 242 99.5 Q282 68 337.5 50.5 Q393 33 460 33 Q630 33 747.5 101.5 Q865 170 924 287 L924 549 Z " />
<g transform="translate(191,-1)" >
<path fill="black" d="M169 1278 L416 1517 L456 1517 L707 1274 L707 1264 L637 1264 L435 1460 L234 1264 L169 1264 L169 1278 Z " />
</g>
</glyph>
<glyph glyph-name="atilde" unicode="&#xe3;" horiz-adv-x="1173" >
<path fill="black" d="M136 786 Q136 851 168 908 Q200 965 257 1008.5 Q314 1052 393 1077 Q472 1102 565 1102 Q655 1102 731 1082 Q807 1062 861.5 1020.5 Q916 979 946.5 916.5 Q977 854 977 768 L977 218 Q977 189 979 159 Q981 129 985 101 Q989 73 994.5 49.5 Q1000 26 1007 9 L1007 0 L946 0 Q935 38 929.5 92 Q924 146 924 199 Q895 155 852 115.5 Q809 76 751.5 46 Q694 16 622 -2 Q550 -20 461 -20 Q380 -20 314 1 Q248 22 201.5 60 Q155 98 129.5 152.5 Q104 207 104 274 Q104 346 140 407 Q176 468 244.5 511.5 Q313 555 412.5 579.5 Q512 604 639 604 L924 604 L924 770 Q924 906 831.5 977 Q739 1048 566 1048 Q486 1048 417 1028.5 Q348 1009 297 973.5 Q246 938 217 889.5 Q188 841 188 784 L136 786 Z M924 549 L641 549 Q526 549 436 528.5 Q346 508 284 471 Q222 434 189.5 383 Q157 332 157 270 Q157 218 179.5 174.5 Q202 131 242 99.5 Q282 68 337.5 50.5 Q393 33 460 33 Q630 33 747.5 101.5 Q865 170 924 287 L924 549 Z " />
<g transform="translate(192,14)" >
<path fill="black" d="M102 1286 Q102 1327 116.5 1360.5 Q131 1394 156 1417 Q181 1440 215.5 1452.5 Q250 1465 289 1465 Q346 1465 384.5 1445.5 Q423 1426 455.5 1403 Q488 1380 521 1360.5 Q554 1341 599 1341 Q626 1341 650 1349.5 Q674 1358 691.5 1375 Q709 1392 719.5 1416.5 Q730 1441 730 1472 L787 1472 Q787 1430 772.5 1396 Q758 1362 732.5 1337.5 Q707 1313 672.5 1299.5 Q638 1286 599 1286 Q541 1286 503 1305.5 Q465 1325 433.5 1348.5 Q402 1372 369.5 1391.5 Q337 1411 289 1411 Q234 1411 196 1380 Q158 1349 158 1286 L102 1286 Z " />
</g>
</glyph>
<glyph glyph-name="adieresis" unicode="&#xe4;" horiz-adv-x="1173" >
<path fill="black" d="M136 786 Q136 851 168 908 Q200 965 257 1008.5 Q314 1052 393 1077 Q472 1102 565 1102 Q655 1102 731 1082 Q807 1062 861.5 1020.5 Q916 979 946.5 916.5 Q977 854 977 768 L977 218 Q977 189 979 159 Q981 129 985 101 Q989 73 994.5 49.5 Q1000 26 1007 9 L1007 0 L946 0 Q935 38 929.5 92 Q924 146 924 199 Q895 155 852 115.5 Q809 76 751.5 46 Q694 16 622 -2 Q550 -20 461 -20 Q380 -20 314 1 Q248 22 201.5 60 Q155 98 129.5 152.5 Q104 207 104 274 Q104 346 140 407 Q176 468 244.5 511.5 Q313 555 412.5 579.5 Q512 604 639 604 L924 604 L924 770 Q924 906 831.5 977 Q739 1048 566 1048 Q486 1048 417 1028.5 Q348 1009 297 973.5 Q246 938 217 889.5 Q188 841 188 784 L136 786 Z M924 549 L641 549 Q526 549 436 528.5 Q346 508 284 471 Q222 434 189.5 383 Q157 332 157 270 Q157 218 179.5 174.5 Q202 131 242 99.5 Q282 68 337.5 50.5 Q393 33 460 33 Q630 33 747.5 101.5 Q865 170 924 287 L924 549 Z " />
<g transform="translate(157,1371)" >
<path fill="black" d="M165 49 Q165 72 182 88.5 Q199 105 222 105 Q246 105 263 88.5 Q280 72 280 49 Q280 26 263 10 Q246 -6 222 -6 Q199 -6 182 10 Q165 26 165 49 Z " />
</g>
<g transform="translate(651,1371)" >
<path fill="black" d="M165 49 Q165 72 182 88.5 Q199 105 222 105 Q246 105 263 88.5 Q280 72 280 49 Q280 26 263 10 Q246 -6 222 -6 Q199 -6 182 10 Q165 26 165 49 Z " />
</g>
</glyph>
<glyph glyph-name="aring" unicode="&#xe5;" horiz-adv-x="1173" >
<path fill="black" d="M136 786 Q136 851 168 908 Q200 965 257 1008.5 Q314 1052 393 1077 Q472 1102 565 1102 Q655 1102 731 1082 Q807 1062 861.5 1020.5 Q916 979 946.5 916.5 Q977 854 977 768 L977 218 Q977 189 979 159 Q981 129 985 101 Q989 73 994.5 49.5 Q1000 26 1007 9 L1007 0 L946 0 Q935 38 929.5 92 Q924 146 924 199 Q895 155 852 115.5 Q809 76 751.5 46 Q694 16 622 -2 Q550 -20 461 -20 Q380 -20 314 1 Q248 22 201.5 60 Q155 98 129.5 152.5 Q104 207 104 274 Q104 346 140 407 Q176 468 244.5 511.5 Q313 555 412.5 579.5 Q512 604 639 604 L924 604 L924 770 Q924 906 831.5 977 Q739 1048 566 1048 Q486 1048 417 1028.5 Q348 1009 297 973.5 Q246 938 217 889.5 Q188 841 188 784 L136 786 Z M924 549 L641 549 Q526 549 436 528.5 Q346 508 284 471 Q222 434 189.5 383 Q157 332 157 270 Q157 218 179.5 174.5 Q202 131 242 99.5 Q282 68 337.5 50.5 Q393 33 460 33 Q630 33 747.5 101.5 Q865 170 924 287 L924 549 Z " />
<g transform="translate(314,-1)" >
<path fill="black" d="M128 1382 Q128 1419 142.5 1450.5 Q157 1482 182.5 1505.5 Q208 1529 242.5 1542.5 Q277 1556 316 1556 Q355 1556 389 1542.5 Q423 1529 448.5 1505.5 Q474 1482 488.5 1450.5 Q503 1419 503 1382 Q503 1345 488.5 1314 Q474 1283 448.5 1260.5 Q423 1238 389 1225 Q355 1212 316 1212 Q277 1212 242.5 1225 Q208 1238 182.5 1260.5 Q157 1283 142.5 1314 Q128 1345 128 1382 Z M185 1382 Q185 1330 222 1298 Q259 1266 316 1266 Q373 1266 409 1298 Q445 1330 445 1382 Q445 1436 409 1469 Q373 1502 316 1502 Q259 1502 222 1469 Q185 1436 185 1382 Z " />
</g>
</glyph>
<glyph glyph-name="ae" unicode="&#xe6;" horiz-adv-x="1879" d="M138 778 Q138 848 168 907.5 Q198 967 253.5 1010 Q309 1053 388 1077.5 Q467 1102 566 1102 Q640 1102 702 1083.5 Q764 1065 811.5 1028 Q859 991 889.5 936 Q920 881 931 807 Q959 875 1001.5 929.5 Q1044 984 1099 1022.5 Q1154 1061 1219 1081.5 Q1284 1102 1356 1102 Q1457 1102 1537.5 1071.5 Q1618 1041 1674 984 Q1730 927 1759.5 845 Q1789 763 1789 660 L1789 577 L940 577 L940 564 L940 500 Q940 403 965 318 Q990 233 1042.5 170 Q1095 107 1176.5 70.5 Q1258 34 1371 34 Q1486 34 1576 69.5 Q1666 105 1729 164 L1759 122 Q1730 95 1694.5 69.5 Q1659 44 1613 24 Q1567 4 1507.5 -8 Q1448 -20 1371 -20 Q1211 -20 1102 50.5 Q993 121 938 240 L938 219 L941 218 Q921 178 883 135.5 Q845 93 789 58.5 Q733 24 658 2 Q583 -20 489 -20 Q397 -20 325.5 1.5 Q254 23 205.5 63 Q157 103 132 159 Q107 215 107 284 Q107 361 136.5 424.5 Q166 488 224.5 534 Q283 580 369 605 Q455 630 569 630 L884 630 L884 720 Q884 876 806 962 Q728 1048 566 1048 Q476 1048 405.5 1027 Q335 1006 287 969 Q239 932 213.5 881 Q188 830 188 771 L138 778 Z M884 229 L884 575 L571 575 Q465 575 387.5 551 Q310 527 259.5 486.5 Q209 446 184.5 392.5 Q160 339 160 280 Q160 164 244 98 Q328 32 486 32 Q565 32 633.5 53 Q702 74 754.5 104 Q807 134 840.5 168 Q874 202 883 229 L884 229 Z M1736 632 L1736 664 Q1736 745 1712 815 Q1688 885 1640 937 Q1592 989 1521 1018.5 Q1450 1048 1356 1048 Q1268 1048 1195.5 1016 Q1123 984 1070 928.5 Q1017 873 984.5 797 Q952 721 943 632 L1736 632 Z " />
<glyph glyph-name="ccedilla" unicode="&#xe7;" horiz-adv-x="1129" d="M490 -396 Q534 -396 579.5 -388 Q625 -380 662.5 -362.5 Q700 -345 724 -318.5 Q748 -292 748 -255 Q748 -222 735 -200.5 Q722 -179 696 -165 Q670 -151 632 -143.5 Q594 -136 544 -131 L568 -20 Q460 -17 375 21.5 Q290 60 231.5 129 Q173 198 142 294.5 Q111 391 111 510 L111 572 Q111 694 143 792 Q175 890 235.5 959 Q296 1028 383.5 1065 Q471 1102 583 1102 Q666 1102 742.5 1079 Q819 1056 878 1009.5 Q937 963 974 892 Q1011 821 1015 725 L962 725 Q958 809 925.5 869.5 Q893 930 841 970 Q789 1010 722 1029 Q655 1048 583 1048 Q475 1048 396 1012.5 Q317 977 265.5 913.5 Q214 850 188.5 763 Q163 676 163 572 L163 510 Q163 406 188.5 318.5 Q214 231 265.5 168 Q317 105 396.5 69.5 Q476 34 584 34 Q653 34 718.5 49.5 Q784 65 836.5 100 Q889 135 923 191 Q957 247 962 328 L1015 328 Q1011 248 978.5 185.5 Q946 123 893 79 Q840 35 770.5 10.5 Q701 -14 623 -19 L612 -86 Q648 -89 682.5 -99 Q717 -109 744 -128.5 Q771 -148 787.5 -179 Q804 -210 804 -255 Q804 -298 782.5 -333 Q761 -368 721.5 -393 Q682 -418 625 -431.5 Q568 -445 497 -445 L490 -396 Z " />
<glyph glyph-name="egrave" unicode="&#xe8;" horiz-adv-x="1122" >
<path fill="black" d="M99 572 Q99 693 137.5 791 Q176 889 242 958 Q308 1027 397 1064.5 Q486 1102 587 1102 Q683 1102 763.5 1071 Q844 1040 903 981 Q962 922 995 837 Q1028 752 1028 645 L1028 577 L152 577 L152 572 L152 508 Q152 405 187 317.5 Q222 230 283.5 167 Q345 104 428.5 68.5 Q512 33 608 33 Q658 33 705 39.5 Q752 46 795.5 62 Q839 78 879 105 Q919 132 955 172 L991 143 Q933 71 840 25.5 Q747 -20 608 -20 Q503 -20 410 17.5 Q317 55 248 124 Q179 193 139 290.5 Q99 388 99 508 L99 572 Z M975 631 L975 649 Q975 734 947.5 807 Q920 880 869.5 933.5 Q819 987 747 1017.5 Q675 1048 587 1048 Q497 1048 421.5 1017 Q346 986 289.5 931 Q233 876 198.5 799.5 Q164 723 155 631 L975 631 Z " />
<g transform="translate(215,-2)" >
<path fill="black" d="M384 1270 L171 1536 L238 1536 L446 1270 L384 1270 Z " />
</g>
</glyph>
<glyph glyph-name="eacute" unicode="&#xe9;" horiz-adv-x="1122" >
<path fill="black" d="M99 572 Q99 693 137.5 791 Q176 889 242 958 Q308 1027 397 1064.5 Q486 1102 587 1102 Q683 1102 763.5 1071 Q844 1040 903 981 Q962 922 995 837 Q1028 752 1028 645 L1028 577 L152 577 L152 572 L152 508 Q152 405 187 317.5 Q222 230 283.5 167 Q345 104 428.5 68.5 Q512 33 608 33 Q658 33 705 39.5 Q752 46 795.5 62 Q839 78 879 105 Q919 132 955 172 L991 143 Q933 71 840 25.5 Q747 -20 608 -20 Q503 -20 410 17.5 Q317 55 248 124 Q179 193 139 290.5 Q99 388 99 508 L99 572 Z M975 631 L975 649 Q975 734 947.5 807 Q920 880 869.5 933.5 Q819 987 747 1017.5 Q675 1048 587 1048 Q497 1048 421.5 1017 Q346 986 289.5 931 Q233 876 198.5 799.5 Q164 723 155 631 L975 631 Z " />
<g transform="translate(433,-2)" >
<path fill="black" d="M350 1536 L417 1536 L204 1270 L141 1270 L350 1536 Z " />
</g>
</glyph>
<glyph glyph-name="ecircumflex" unicode="&#xea;" horiz-adv-x="1122" >
<path fill="black" d="M99 572 Q99 693 137.5 791 Q176 889 242 958 Q308 1027 397 1064.5 Q486 1102 587 1102 Q683 1102 763.5 1071 Q844 1040 903 981 Q962 922 995 837 Q1028 752 1028 645 L1028 577 L152 577 L152 572 L152 508 Q152 405 187 317.5 Q222 230 283.5 167 Q345 104 428.5 68.5 Q512 33 608 33 Q658 33 705 39.5 Q752 46 795.5 62 Q839 78 879 105 Q919 132 955 172 L991 143 Q933 71 840 25.5 Q747 -20 608 -20 Q503 -20 410 17.5 Q317 55 248 124 Q179 193 139 290.5 Q99 388 99 508 L99 572 Z M975 631 L975 649 Q975 734 947.5 807 Q920 880 869.5 933.5 Q819 987 747 1017.5 Q675 1048 587 1048 Q497 1048 421.5 1017 Q346 986 289.5 931 Q233 876 198.5 799.5 Q164 723 155 631 L975 631 Z " />
<g transform="translate(180,-2)" >
<path fill="black" d="M169 1278 L416 1517 L456 1517 L707 1274 L707 1264 L637 1264 L435 1460 L234 1264 L169 1264 L169 1278 Z " />
</g>
</glyph>
<glyph glyph-name="edieresis" unicode="&#xeb;" horiz-adv-x="1122" >
<path fill="black" d="M99 572 Q99 693 137.5 791 Q176 889 242 958 Q308 1027 397 1064.5 Q486 1102 587 1102 Q683 1102 763.5 1071 Q844 1040 903 981 Q962 922 995 837 Q1028 752 1028 645 L1028 577 L152 577 L152 572 L152 508 Q152 405 187 317.5 Q222 230 283.5 167 Q345 104 428.5 68.5 Q512 33 608 33 Q658 33 705 39.5 Q752 46 795.5 62 Q839 78 879 105 Q919 132 955 172 L991 143 Q933 71 840 25.5 Q747 -20 608 -20 Q503 -20 410 17.5 Q317 55 248 124 Q179 193 139 290.5 Q99 388 99 508 L99 572 Z M975 631 L975 649 Q975 734 947.5 807 Q920 880 869.5 933.5 Q819 987 747 1017.5 Q675 1048 587 1048 Q497 1048 421.5 1017 Q346 986 289.5 931 Q233 876 198.5 799.5 Q164 723 155 631 L975 631 Z " />
<g transform="translate(146,1370)" >
<path fill="black" d="M165 49 Q165 72 182 88.5 Q199 105 222 105 Q246 105 263 88.5 Q280 72 280 49 Q280 26 263 10 Q246 -6 222 -6 Q199 -6 182 10 Q165 26 165 49 Z " />
</g>
<g transform="translate(640,1370)" >
<path fill="black" d="M165 49 Q165 72 182 88.5 Q199 105 222 105 Q246 105 263 88.5 Q280 72 280 49 Q280 26 263 10 Q246 -6 222 -6 Q199 -6 182 10 Q165 26 165 49 Z " />
</g>
</glyph>
<glyph glyph-name="igrave" unicode="&#xec;" horiz-adv-x="445" >
<g transform="translate(-171,-24)" >
<path fill="black" d="M384 1270 L171 1536 L238 1536 L446 1270 L384 1270 Z " />
</g>
<path fill="black" d="M202 0 L202 1082 L255 1082 L255 0 L202 0 Z " />
</glyph>
<glyph glyph-name="iacute" unicode="&#xed;" horiz-adv-x="445" >
<g transform="translate(47,-24)" >
<path fill="black" d="M350 1536 L417 1536 L204 1270 L141 1270 L350 1536 Z " />
</g>
<path fill="black" d="M202 0 L202 1082 L255 1082 L255 0 L202 0 Z " />
</glyph>
<glyph glyph-name="icircumflex" unicode="&#xee;" horiz-adv-x="445" >
<g transform="translate(-206,-24)" >
<path fill="black" d="M169 1278 L416 1517 L456 1517 L707 1274 L707 1264 L637 1264 L435 1460 L234 1264 L169 1264 L169 1278 Z " />
</g>
<path fill="black" d="M202 0 L202 1082 L255 1082 L255 0 L202 0 Z " />
</glyph>
<glyph glyph-name="idieresis" unicode="&#xef;" horiz-adv-x="445" >
<path fill="black" d="M202 0 L202 1082 L255 1082 L255 0 L202 0 Z " />
<g transform="translate(-240,1348)" >
<path fill="black" d="M165 49 Q165 72 182 88.5 Q199 105 222 105 Q246 105 263 88.5 Q280 72 280 49 Q280 26 263 10 Q246 -6 222 -6 Q199 -6 182 10 Q165 26 165 49 Z " />
</g>
<g transform="translate(254,1348)" >
<path fill="black" d="M165 49 Q165 72 182 88.5 Q199 105 222 105 Q246 105 263 88.5 Q280 72 280 49 Q280 26 263 10 Q246 -6 222 -6 Q199 -6 182 10 Q165 26 165 49 Z " />
</g>
</glyph>
<glyph glyph-name="eth" unicode="&#xf0;" horiz-adv-x="1285" d="M1125 582 L1125 535 Q1125 412 1092 309.5 Q1059 207 1000.5 134 Q942 61 861 20.5 Q780 -20 684 -20 Q576 -20 486 17.5 Q396 55 331 120.5 Q266 186 230 274.5 Q194 363 194 465 Q194 581 225 672 Q256 763 315.5 825.5 Q375 888 460.5 920.5 Q546 953 654 953 Q715 953 774.5 941.5 Q834 930 887.5 908 Q941 886 985.5 853 Q1030 820 1062 778 Q1041 946 977.5 1069 Q914 1192 818 1281 L565 1149 L537 1197 L773 1320 Q688 1388 587.5 1438 Q487 1488 374 1527 L393 1577 Q527 1532 634 1475.5 Q741 1419 826 1348 L1043 1461 L1072 1413 L870 1308 Q998 1184 1061 1015.5 Q1124 847 1125 620 Q1126 611 1126.5 602 Q1127 593 1127 583 L1125 582 Z M248 465 Q248 385 277 308 Q306 231 362 171 Q418 111 500 74.5 Q582 38 689 38 Q777 38 847.5 75 Q918 112 968 178 Q1018 244 1045 335.5 Q1072 427 1072 535 L1072 617 Q1072 631 1072 644.5 Q1072 658 1071 672 Q1052 713 1017 753 Q982 793 930 824.5 Q878 856 808.5 875.5 Q739 895 652 895 Q546 895 469.5 861.5 Q393 828 343.5 770 Q294 712 271 633.5 Q248 555 248 465 Z " />
<glyph glyph-name="ntilde" unicode="&#xf1;" horiz-adv-x="1218" >
<path fill="black" d="M192 1082 L246 1082 L245 851 L245 821 Q271 880 311.5 931 Q352 982 405 1020 Q458 1058 522.5 1080 Q587 1102 662 1102 Q750 1102 818.5 1079.5 Q887 1057 934.5 1008.5 Q982 960 1006.5 884 Q1031 808 1031 700 L1031 0 L979 0 L979 700 Q979 803 955.5 870.5 Q932 938 889.5 977.5 Q847 1017 788.5 1033 Q730 1049 660 1049 Q562 1049 489.5 1012 Q417 975 366.5 920 Q316 865 286.5 801.5 Q257 738 245 685 L245 0 L192 0 L192 1082 Z " />
<g transform="translate(193,12)" >
<path fill="black" d="M102 1286 Q102 1327 116.5 1360.5 Q131 1394 156 1417 Q181 1440 215.5 1452.5 Q250 1465 289 1465 Q346 1465 384.5 1445.5 Q423 1426 455.5 1403 Q488 1380 521 1360.5 Q554 1341 599 1341 Q626 1341 650 1349.5 Q674 1358 691.5 1375 Q709 1392 719.5 1416.5 Q730 1441 730 1472 L787 1472 Q787 1430 772.5 1396 Q758 1362 732.5 1337.5 Q707 1313 672.5 1299.5 Q638 1286 599 1286 Q541 1286 503 1305.5 Q465 1325 433.5 1348.5 Q402 1372 369.5 1391.5 Q337 1411 289 1411 Q234 1411 196 1380 Q158 1349 158 1286 L102 1286 Z " />
</g>
</glyph>
<glyph glyph-name="ograve" unicode="&#xf2;" horiz-adv-x="1223" >
<path fill="black" d="M107 572 Q107 691 143.5 788.5 Q180 886 246.5 956 Q313 1026 405.5 1064 Q498 1102 610 1102 Q724 1102 817 1064 Q910 1026 976.5 956 Q1043 886 1079 788.5 Q1115 691 1115 572 L1115 510 Q1115 391 1079 293.5 Q1043 196 977 126 Q911 56 818.5 18 Q726 -20 613 -20 Q500 -20 406.5 18 Q313 56 246.5 126 Q180 196 143.5 293.5 Q107 391 107 510 L107 572 Z M160 510 Q160 413 190 326.5 Q220 240 278 175 Q336 110 420.5 72 Q505 34 613 34 Q720 34 804 72 Q888 110 945.5 175 Q1003 240 1033 326.5 Q1063 413 1063 510 L1063 572 Q1063 667 1032.5 753 Q1002 839 944.5 904.5 Q887 970 802.5 1009 Q718 1048 610 1048 Q503 1048 419 1009 Q335 970 277.5 904.5 Q220 839 190 753 Q160 667 160 572 L160 510 Z " />
<g transform="translate(215,-3)" >
<path fill="black" d="M384 1270 L171 1536 L238 1536 L446 1270 L384 1270 Z " />
</g>
</glyph>
<glyph glyph-name="oacute" unicode="&#xf3;" horiz-adv-x="1223" >
<path fill="black" d="M107 572 Q107 691 143.5 788.5 Q180 886 246.5 956 Q313 1026 405.5 1064 Q498 1102 610 1102 Q724 1102 817 1064 Q910 1026 976.5 956 Q1043 886 1079 788.5 Q1115 691 1115 572 L1115 510 Q1115 391 1079 293.5 Q1043 196 977 126 Q911 56 818.5 18 Q726 -20 613 -20 Q500 -20 406.5 18 Q313 56 246.5 126 Q180 196 143.5 293.5 Q107 391 107 510 L107 572 Z M160 510 Q160 413 190 326.5 Q220 240 278 175 Q336 110 420.5 72 Q505 34 613 34 Q720 34 804 72 Q888 110 945.5 175 Q1003 240 1033 326.5 Q1063 413 1063 510 L1063 572 Q1063 667 1032.5 753 Q1002 839 944.5 904.5 Q887 970 802.5 1009 Q718 1048 610 1048 Q503 1048 419 1009 Q335 970 277.5 904.5 Q220 839 190 753 Q160 667 160 572 L160 510 Z " />
<g transform="translate(433,-3)" >
<path fill="black" d="M350 1536 L417 1536 L204 1270 L141 1270 L350 1536 Z " />
</g>
</glyph>
<glyph glyph-name="ocircumflex" unicode="&#xf4;" horiz-adv-x="1223" >
<path fill="black" d="M107 572 Q107 691 143.5 788.5 Q180 886 246.5 956 Q313 1026 405.5 1064 Q498 1102 610 1102 Q724 1102 817 1064 Q910 1026 976.5 956 Q1043 886 1079 788.5 Q1115 691 1115 572 L1115 510 Q1115 391 1079 293.5 Q1043 196 977 126 Q911 56 818.5 18 Q726 -20 613 -20 Q500 -20 406.5 18 Q313 56 246.5 126 Q180 196 143.5 293.5 Q107 391 107 510 L107 572 Z M160 510 Q160 413 190 326.5 Q220 240 278 175 Q336 110 420.5 72 Q505 34 613 34 Q720 34 804 72 Q888 110 945.5 175 Q1003 240 1033 326.5 Q1063 413 1063 510 L1063 572 Q1063 667 1032.5 753 Q1002 839 944.5 904.5 Q887 970 802.5 1009 Q718 1048 610 1048 Q503 1048 419 1009 Q335 970 277.5 904.5 Q220 839 190 753 Q160 667 160 572 L160 510 Z " />
<g transform="translate(180,-3)" >
<path fill="black" d="M169 1278 L416 1517 L456 1517 L707 1274 L707 1264 L637 1264 L435 1460 L234 1264 L169 1264 L169 1278 Z " />
</g>
</glyph>
<glyph glyph-name="otilde" unicode="&#xf5;" horiz-adv-x="1223" >
<path fill="black" d="M107 572 Q107 691 143.5 788.5 Q180 886 246.5 956 Q313 1026 405.5 1064 Q498 1102 610 1102 Q724 1102 817 1064 Q910 1026 976.5 956 Q1043 886 1079 788.5 Q1115 691 1115 572 L1115 510 Q1115 391 1079 293.5 Q1043 196 977 126 Q911 56 818.5 18 Q726 -20 613 -20 Q500 -20 406.5 18 Q313 56 246.5 126 Q180 196 143.5 293.5 Q107 391 107 510 L107 572 Z M160 510 Q160 413 190 326.5 Q220 240 278 175 Q336 110 420.5 72 Q505 34 613 34 Q720 34 804 72 Q888 110 945.5 175 Q1003 240 1033 326.5 Q1063 413 1063 510 L1063 572 Q1063 667 1032.5 753 Q1002 839 944.5 904.5 Q887 970 802.5 1009 Q718 1048 610 1048 Q503 1048 419 1009 Q335 970 277.5 904.5 Q220 839 190 753 Q160 667 160 572 L160 510 Z " />
<g transform="translate(181,12)" >
<path fill="black" d="M102 1286 Q102 1327 116.5 1360.5 Q131 1394 156 1417 Q181 1440 215.5 1452.5 Q250 1465 289 1465 Q346 1465 384.5 1445.5 Q423 1426 455.5 1403 Q488 1380 521 1360.5 Q554 1341 599 1341 Q626 1341 650 1349.5 Q674 1358 691.5 1375 Q709 1392 719.5 1416.5 Q730 1441 730 1472 L787 1472 Q787 1430 772.5 1396 Q758 1362 732.5 1337.5 Q707 1313 672.5 1299.5 Q638 1286 599 1286 Q541 1286 503 1305.5 Q465 1325 433.5 1348.5 Q402 1372 369.5 1391.5 Q337 1411 289 1411 Q234 1411 196 1380 Q158 1349 158 1286 L102 1286 Z " />
</g>
</glyph>
<glyph glyph-name="odieresis" unicode="&#xf6;" horiz-adv-x="1223" >
<path fill="black" d="M107 572 Q107 691 143.5 788.5 Q180 886 246.5 956 Q313 1026 405.5 1064 Q498 1102 610 1102 Q724 1102 817 1064 Q910 1026 976.5 956 Q1043 886 1079 788.5 Q1115 691 1115 572 L1115 510 Q1115 391 1079 293.5 Q1043 196 977 126 Q911 56 818.5 18 Q726 -20 613 -20 Q500 -20 406.5 18 Q313 56 246.5 126 Q180 196 143.5 293.5 Q107 391 107 510 L107 572 Z M160 510 Q160 413 190 326.5 Q220 240 278 175 Q336 110 420.5 72 Q505 34 613 34 Q720 34 804 72 Q888 110 945.5 175 Q1003 240 1033 326.5 Q1063 413 1063 510 L1063 572 Q1063 667 1032.5 753 Q1002 839 944.5 904.5 Q887 970 802.5 1009 Q718 1048 610 1048 Q503 1048 419 1009 Q335 970 277.5 904.5 Q220 839 190 753 Q160 667 160 572 L160 510 Z " />
<g transform="translate(146,1369)" >
<path fill="black" d="M165 49 Q165 72 182 88.5 Q199 105 222 105 Q246 105 263 88.5 Q280 72 280 49 Q280 26 263 10 Q246 -6 222 -6 Q199 -6 182 10 Q165 26 165 49 Z " />
</g>
<g transform="translate(640,1369)" >
<path fill="black" d="M165 49 Q165 72 182 88.5 Q199 105 222 105 Q246 105 263 88.5 Q280 72 280 49 Q280 26 263 10 Q246 -6 222 -6 Q199 -6 182 10 Q165 26 165 49 Z " />
</g>
</glyph>
<glyph glyph-name="divide" unicode="&#xf7;" horiz-adv-x="1260" d="M85 686 L85 738 L1159 738 L1159 686 L85 686 Z M578 301 Q578 324 595 340.5 Q612 357 635 357 Q659 357 676 340.5 Q693 324 693 301 Q693 278 676 262 Q659 246 635 246 Q612 246 595 262 Q578 278 578 301 Z M578 1079 Q578 1102 595 1118.5 Q612 1135 635 1135 Q659 1135 676 1118.5 Q693 1102 693 1079 Q693 1056 676 1040 Q659 1024 635 1024 Q612 1024 595 1040 Q578 1056 578 1079 Z " />
<glyph glyph-name="oslash" unicode="&#xf8;" horiz-adv-x="1086" d="M332 56 Q226 123 166.5 239.5 Q107 356 107 510 L107 572 Q107 691 143.5 788.5 Q180 886 246.5 956 Q313 1026 405.5 1064 Q498 1102 610 1102 Q679 1102 739 1088 Q799 1074 852 1048 L941 1219 L1006 1219 L901 1019 Q1003 951 1059 836.5 Q1115 722 1115 572 L1115 510 Q1115 391 1079 293.5 Q1043 196 977 126 Q911 56 818.5 18 Q726 -20 613 -20 Q486 -20 383 29 L292 -145 L227 -145 L332 56 Z M825 998 Q779 1022 725.5 1035 Q672 1048 610 1048 Q503 1048 419 1009 Q335 970 277.5 904.5 Q220 839 190 753 Q160 667 160 572 L160 510 Q160 447 173 388 Q186 329 211 277 Q236 225 273 181.5 Q310 138 358 106 L825 998 Z M408 77 Q453 57 504 45.5 Q555 34 613 34 Q720 34 804 72 Q888 110 945.5 175 Q1003 240 1033 326.5 Q1063 413 1063 510 L1063 572 Q1063 693 1015 797.5 Q967 902 874 968 L408 77 Z " />
<glyph glyph-name="ugrave" unicode="&#xf9;" horiz-adv-x="1218" >
<path fill="black" d="M188 1082 L241 1082 L241 393 Q241 294 265.5 225.5 Q290 157 333.5 114.5 Q377 72 437 53 Q497 34 568 34 Q667 34 738.5 57.5 Q810 81 859 120.5 Q908 160 935.5 213 Q963 266 975 325 L975 1082 L1029 1082 L1029 425 L1032 425 Q1032 392 1029 362 L1029 0 L975 0 L975 179 Q924 88 824.5 34 Q725 -20 571 -20 Q486 -20 415 2.5 Q344 25 294 74.5 Q244 124 216 203 Q188 282 188 395 L188 1082 Z " />
<g transform="translate(230,0)" >
<path fill="black" d="M384 1270 L171 1536 L238 1536 L446 1270 L384 1270 Z " />
</g>
</glyph>
<glyph glyph-name="uacute" unicode="&#xfa;" horiz-adv-x="1218" >
<path fill="black" d="M188 1082 L241 1082 L241 393 Q241 294 265.5 225.5 Q290 157 333.5 114.5 Q377 72 437 53 Q497 34 568 34 Q667 34 738.5 57.5 Q810 81 859 120.5 Q908 160 935.5 213 Q963 266 975 325 L975 1082 L1029 1082 L1029 425 L1032 425 Q1032 392 1029 362 L1029 0 L975 0 L975 179 Q924 88 824.5 34 Q725 -20 571 -20 Q486 -20 415 2.5 Q344 25 294 74.5 Q244 124 216 203 Q188 282 188 395 L188 1082 Z " />
<g transform="translate(448,0)" >
<path fill="black" d="M350 1536 L417 1536 L204 1270 L141 1270 L350 1536 Z " />
</g>
</glyph>
<glyph glyph-name="ucircumflex" unicode="&#xfb;" horiz-adv-x="1218" >
<path fill="black" d="M188 1082 L241 1082 L241 393 Q241 294 265.5 225.5 Q290 157 333.5 114.5 Q377 72 437 53 Q497 34 568 34 Q667 34 738.5 57.5 Q810 81 859 120.5 Q908 160 935.5 213 Q963 266 975 325 L975 1082 L1029 1082 L1029 425 L1032 425 Q1032 392 1029 362 L1029 0 L975 0 L975 179 Q924 88 824.5 34 Q725 -20 571 -20 Q486 -20 415 2.5 Q344 25 294 74.5 Q244 124 216 203 Q188 282 188 395 L188 1082 Z " />
<g transform="translate(195,0)" >
<path fill="black" d="M169 1278 L416 1517 L456 1517 L707 1274 L707 1264 L637 1264 L435 1460 L234 1264 L169 1264 L169 1278 Z " />
</g>
</glyph>
<glyph glyph-name="udieresis" unicode="&#xfc;" horiz-adv-x="1218" >
<path fill="black" d="M188 1082 L241 1082 L241 393 Q241 294 265.5 225.5 Q290 157 333.5 114.5 Q377 72 437 53 Q497 34 568 34 Q667 34 738.5 57.5 Q810 81 859 120.5 Q908 160 935.5 213 Q963 266 975 325 L975 1082 L1029 1082 L1029 425 L1032 425 Q1032 392 1029 362 L1029 0 L975 0 L975 179 Q924 88 824.5 34 Q725 -20 571 -20 Q486 -20 415 2.5 Q344 25 294 74.5 Q244 124 216 203 Q188 282 188 395 L188 1082 Z " />
<g transform="translate(161,1372)" >
<path fill="black" d="M165 49 Q165 72 182 88.5 Q199 105 222 105 Q246 105 263 88.5 Q280 72 280 49 Q280 26 263 10 Q246 -6 222 -6 Q199 -6 182 10 Q165 26 165 49 Z " />
</g>
<g transform="translate(655,1372)" >
<path fill="black" d="M165 49 Q165 72 182 88.5 Q199 105 222 105 Q246 105 263 88.5 Q280 72 280 49 Q280 26 263 10 Q246 -6 222 -6 Q199 -6 182 10 Q165 26 165 49 Z " />
</g>
</glyph>
<glyph glyph-name="yacute" unicode="&#xfd;" horiz-adv-x="1065" >
<path fill="black" d="M111 -375 Q119 -377 130.5 -378.5 Q142 -380 154 -381.5 Q166 -383 176 -383.5 Q186 -384 191 -384 Q245 -384 285 -368 Q325 -352 355 -323.5 Q385 -295 407 -256 Q429 -217 448 -170 L519 7 L53 1082 L110 1082 L549 82 L558 104 L963 1082 L1021 1082 L502 -180 Q488 -214 468.5 -258.5 Q449 -303 415.5 -342.5 Q382 -382 330 -409.5 Q278 -437 198 -437 Q189 -437 177 -436.5 Q165 -436 152.5 -434.5 Q140 -433 129 -431 Q118 -429 112 -426 L111 -375 Z " />
<g transform="translate(382,0)" >
<path fill="black" d="M350 1536 L417 1536 L204 1270 L141 1270 L350 1536 Z " />
</g>
</glyph>
<glyph glyph-name="thorn" unicode="&#xfe;" horiz-adv-x="1216" d="M189 300 Q189 302 188.5 302.5 Q188 303 188 305 L188 745 L189 749 L189 1536 L243 1536 L243 883 Q299 981 398 1041.5 Q497 1102 639 1102 Q743 1102 824.5 1064 Q906 1026 962.5 955 Q1019 884 1048.5 782 Q1078 680 1078 552 L1078 531 Q1078 407 1048.5 305.5 Q1019 204 963 131.5 Q907 59 826 19.5 Q745 -20 642 -20 Q570 -20 509 -5.5 Q448 9 398 35 Q348 61 309 96 Q270 131 243 173 L243 -416 L189 -416 L189 300 Z M243 271 Q264 220 299 176.5 Q334 133 384 101.5 Q434 70 499 52 Q564 34 645 34 Q741 34 812.5 71 Q884 108 931 174.5 Q978 241 1001.5 332 Q1025 423 1025 531 L1025 552 Q1025 660 1001.5 751 Q978 842 930.5 908 Q883 974 811.5 1011 Q740 1048 643 1048 Q549 1048 481 1023 Q413 998 366 958.5 Q319 919 289.5 870.5 Q260 822 243 774 L243 271 Z " />
<glyph glyph-name="ydieresis" unicode="&#xff;" horiz-adv-x="1065" >
<path fill="black" d="M111 -375 Q119 -377 130.5 -378.5 Q142 -380 154 -381.5 Q166 -383 176 -383.5 Q186 -384 191 -384 Q245 -384 285 -368 Q325 -352 355 -323.5 Q385 -295 407 -256 Q429 -217 448 -170 L519 7 L53 1082 L110 1082 L549 82 L558 104 L963 1082 L1021 1082 L502 -180 Q488 -214 468.5 -258.5 Q449 -303 415.5 -342.5 Q382 -382 330 -409.5 Q278 -437 198 -437 Q189 -437 177 -436.5 Q165 -436 152.5 -434.5 Q140 -433 129 -431 Q118 -429 112 -426 L111 -375 Z " />
<g transform="translate(95,1372)" >
<path fill="black" d="M165 49 Q165 72 182 88.5 Q199 105 222 105 Q246 105 263 88.5 Q280 72 280 49 Q280 26 263 10 Q246 -6 222 -6 Q199 -6 182 10 Q165 26 165 49 Z " />
</g>
<g transform="translate(589,1372)" >
<path fill="black" d="M165 49 Q165 72 182 88.5 Q199 105 222 105 Q246 105 263 88.5 Q280 72 280 49 Q280 26 263 10 Q246 -6 222 -6 Q199 -6 182 10 Q165 26 165 49 Z " />
</g>
</glyph>
<glyph glyph-name="Amacron" unicode="&#x100;" horiz-adv-x="1323" d="M628 1456 L695 1456 L1281 0 L1222 0 L1047 435 L275 435 L100 0 L42 0 L628 1456 Z M1025 489 L661 1395 L297 489 L1025 489 Z M361 1766 L967 1766 L967 1713 L361 1713 L361 1766 Z " />
<glyph glyph-name="amacron" unicode="&#x101;" horiz-adv-x="1173" d="M136 786 Q136 851 168 908 Q200 965 257 1008.5 Q314 1052 393 1077 Q472 1102 565 1102 Q655 1102 731 1082 Q807 1062 861.5 1020.5 Q916 979 946.5 916.5 Q977 854 977 768 L977 218 Q977 189 979 159 Q981 129 985 101 Q989 73 994.5 49.5 Q1000 26 1007 9 L1007 0 L946 0 Q935 38 929.5 92 Q924 146 924 199 Q895 155 852 115.5 Q809 76 751.5 46 Q694 16 622 -2 Q550 -20 461 -20 Q380 -20 314 1 Q248 22 201.5 60 Q155 98 129.5 152.5 Q104 207 104 274 Q104 346 140 407 Q176 468 244.5 511.5 Q313 555 412.5 579.5 Q512 604 639 604 L924 604 L924 770 Q924 906 831.5 977 Q739 1048 566 1048 Q486 1048 417 1028.5 Q348 1009 297 973.5 Q246 938 217 889.5 Q188 841 188 784 L136 786 Z M924 549 L641 549 Q526 549 436 528.5 Q346 508 284 471 Q222 434 189.5 383 Q157 332 157 270 Q157 218 179.5 174.5 Q202 131 242 99.5 Q282 68 337.5 50.5 Q393 33 460 33 Q630 33 747.5 101.5 Q865 170 924 287 L924 549 Z M326 1446 L932 1446 L932 1393 L326 1393 L326 1446 Z " />
<glyph glyph-name="Abreve" unicode="&#x102;" horiz-adv-x="1323" >
<path fill="black" d="M628 1456 L695 1456 L1281 0 L1222 0 L1047 435 L275 435 L100 0 L42 0 L628 1456 Z M1025 489 L661 1395 L297 489 L1025 489 Z " />
<g transform="translate(186,324)" >
<path fill="black" d="M221 1486 Q221 1447 234.5 1412 Q248 1377 278 1350.5 Q308 1324 356 1309 Q404 1294 474 1294 Q541 1294 588.5 1309.5 Q636 1325 666.5 1351.5 Q697 1378 711.5 1412.5 Q726 1447 726 1486 L781 1486 Q781 1431 760 1385.5 Q739 1340 699.5 1307 Q660 1274 603 1256 Q546 1238 474 1238 Q402 1238 344.5 1256 Q287 1274 247 1307 Q207 1340 186 1385.5 Q165 1431 165 1486 L221 1486 Z " />
</g>
</glyph>
<glyph glyph-name="abreve" unicode="&#x103;" horiz-adv-x="1173" >
<path fill="black" d="M136 786 Q136 851 168 908 Q200 965 257 1008.5 Q314 1052 393 1077 Q472 1102 565 1102 Q655 1102 731 1082 Q807 1062 861.5 1020.5 Q916 979 946.5 916.5 Q977 854 977 768 L977 218 Q977 189 979 159 Q981 129 985 101 Q989 73 994.5 49.5 Q1000 26 1007 9 L1007 0 L946 0 Q935 38 929.5 92 Q924 146 924 199 Q895 155 852 115.5 Q809 76 751.5 46 Q694 16 622 -2 Q550 -20 461 -20 Q380 -20 314 1 Q248 22 201.5 60 Q155 98 129.5 152.5 Q104 207 104 274 Q104 346 140 407 Q176 468 244.5 511.5 Q313 555 412.5 579.5 Q512 604 639 604 L924 604 L924 770 Q924 906 831.5 977 Q739 1048 566 1048 Q486 1048 417 1028.5 Q348 1009 297 973.5 Q246 938 217 889.5 Q188 841 188 784 L136 786 Z M924 549 L641 549 Q526 549 436 528.5 Q346 508 284 471 Q222 434 189.5 383 Q157 332 157 270 Q157 218 179.5 174.5 Q202 131 242 99.5 Q282 68 337.5 50.5 Q393 33 460 33 Q630 33 747.5 101.5 Q865 170 924 287 L924 549 Z " />
<g transform="translate(151,4)" >
<path fill="black" d="M221 1486 Q221 1447 234.5 1412 Q248 1377 278 1350.5 Q308 1324 356 1309 Q404 1294 474 1294 Q541 1294 588.5 1309.5 Q636 1325 666.5 1351.5 Q697 1378 711.5 1412.5 Q726 1447 726 1486 L781 1486 Q781 1431 760 1385.5 Q739 1340 699.5 1307 Q660 1274 603 1256 Q546 1238 474 1238 Q402 1238 344.5 1256 Q287 1274 247 1307 Q207 1340 186 1385.5 Q165 1431 165 1486 L221 1486 Z " />
</g>
</glyph>
<glyph glyph-name="Aogonek" unicode="&#x104;" horiz-adv-x="1323" d="M628 1456 L695 1456 L1281 1 L1282 0 Q1243 -28 1206.5 -56.5 Q1170 -85 1141.5 -115 Q1113 -145 1096 -177.5 Q1079 -210 1079 -246 Q1079 -264 1083.5 -281.5 Q1088 -299 1099.5 -312 Q1111 -325 1130.5 -333 Q1150 -341 1180 -341 Q1223 -341 1250.5 -328.5 Q1278 -316 1298 -303 L1316 -351 Q1296 -366 1263.5 -380.5 Q1231 -395 1182 -395 Q1110 -395 1068 -358.5 Q1026 -322 1026 -246 Q1026 -213 1043 -179 Q1060 -145 1087 -113 Q1114 -81 1148.5 -50.5 Q1183 -20 1219 7 L1047 435 L275 435 L100 0 L42 0 L628 1456 Z M1025 489 L661 1395 L297 489 L1025 489 Z " />
<glyph glyph-name="aogonek" unicode="&#x105;" horiz-adv-x="1173" d="M1009 0 Q970 -28 933.5 -56.5 Q897 -85 868.5 -115 Q840 -145 823 -177.5 Q806 -210 806 -246 Q806 -264 810.5 -281.5 Q815 -299 826.5 -312 Q838 -325 857.5 -333 Q877 -341 907 -341 Q950 -341 977.5 -328.5 Q1005 -316 1025 -303 L1043 -351 Q1023 -366 990.5 -380.5 Q958 -395 909 -395 Q837 -395 795 -358.5 Q753 -322 753 -246 Q753 -213 769.5 -179.5 Q786 -146 813 -114 Q840 -82 874 -51.5 Q908 -21 944 6 Q934 44 929 96 Q924 148 924 199 Q895 155 852 115.5 Q809 76 751.5 46 Q694 16 622 -2 Q550 -20 461 -20 Q380 -20 314 1 Q248 22 201.5 60 Q155 98 129.5 152.5 Q104 207 104 274 Q104 346 140 407 Q176 468 244.5 511.5 Q313 555 412.5 579.5 Q512 604 639 604 L924 604 L924 770 Q924 906 831.5 977 Q739 1048 566 1048 Q486 1048 417 1028.5 Q348 1009 297 973.5 Q246 938 217 889.5 Q188 841 188 784 L136 786 Q136 851 168 908 Q200 965 257 1008.5 Q314 1052 393 1077 Q472 1102 565 1102 Q655 1102 731 1082 Q807 1062 861.5 1020.5 Q916 979 946.5 916.5 Q977 854 977 768 L977 218 Q977 189 979 159 Q981 129 985 101 Q989 73 994.5 49.5 Q1000 26 1007 9 L1007 1 L1009 0 Z M924 549 L641 549 Q526 549 436 528.5 Q346 508 284 471 Q222 434 189.5 383 Q157 332 157 270 Q157 218 179.5 174.5 Q202 131 242 99.5 Q282 68 337.5 50.5 Q393 33 460 33 Q630 33 747.5 101.5 Q865 170 924 287 L924 549 Z " />
<glyph glyph-name="Cacute" unicode="&#x106;" horiz-adv-x="1441" >
<path fill="black" d="M164 857 Q164 997 203.5 1111.5 Q243 1226 316.5 1307 Q390 1388 494 1432 Q598 1476 727 1476 Q844 1476 941.5 1448.5 Q1039 1421 1111.5 1364 Q1184 1307 1228.5 1219.5 Q1273 1132 1285 1012 L1232 1012 Q1208 1220 1079.5 1321 Q951 1422 727 1422 Q613 1422 519 1382.5 Q425 1343 358 1270 Q291 1197 254 1092.5 Q217 988 217 859 L217 604 Q217 473 254 367.5 Q291 262 358 188 Q425 114 519 74 Q613 34 728 34 Q837 34 925 57 Q1013 80 1077 129.5 Q1141 179 1180.5 257 Q1220 335 1232 446 L1285 446 Q1273 324 1228 236 Q1183 148 1111 91 Q1039 34 942 7 Q845 -20 728 -20 Q599 -20 495 24.5 Q391 69 317.5 150.5 Q244 232 204 347.5 Q164 463 164 604 L164 857 Z " />
<g transform="translate(553,340)" >
<path fill="black" d="M350 1536 L417 1536 L204 1270 L141 1270 L350 1536 Z " />
</g>
</glyph>
<glyph glyph-name="cacute" unicode="&#x107;" horiz-adv-x="1129" >
<path fill="black" d="M111 572 Q111 694 143 792 Q175 890 235.5 959 Q296 1028 383.5 1065 Q471 1102 583 1102 Q666 1102 742.5 1079 Q819 1056 878 1009.5 Q937 963 974 892 Q1011 821 1015 725 L962 725 Q958 809 925.5 869.5 Q893 930 841 970 Q789 1010 722 1029 Q655 1048 583 1048 Q475 1048 396 1012.5 Q317 977 265.5 913.5 Q214 850 188.5 763 Q163 676 163 572 L163 510 Q163 406 188.5 318.5 Q214 231 265.5 168 Q317 105 396.5 69.5 Q476 34 584 34 Q653 34 718.5 49.5 Q784 65 836.5 100 Q889 135 923 191 Q957 247 962 328 L1015 328 Q1011 243 975 178 Q939 113 880.5 69 Q822 25 745.5 2.5 Q669 -20 584 -20 Q472 -20 384 17.5 Q296 55 235.5 124 Q175 193 143 291 Q111 389 111 510 L111 572 Z " />
<g transform="translate(413,-3)" >
<path fill="black" d="M350 1536 L417 1536 L204 1270 L141 1270 L350 1536 Z " />
</g>
</glyph>
<glyph glyph-name="Cdotaccent" unicode="&#x10a;" horiz-adv-x="1441" >
<path fill="black" d="M164 857 Q164 997 203.5 1111.5 Q243 1226 316.5 1307 Q390 1388 494 1432 Q598 1476 727 1476 Q844 1476 941.5 1448.5 Q1039 1421 1111.5 1364 Q1184 1307 1228.5 1219.5 Q1273 1132 1285 1012 L1232 1012 Q1208 1220 1079.5 1321 Q951 1422 727 1422 Q613 1422 519 1382.5 Q425 1343 358 1270 Q291 1197 254 1092.5 Q217 988 217 859 L217 604 Q217 473 254 367.5 Q291 262 358 188 Q425 114 519 74 Q613 34 728 34 Q837 34 925 57 Q1013 80 1077 129.5 Q1141 179 1180.5 257 Q1220 335 1232 446 L1285 446 Q1273 324 1228 236 Q1183 148 1111 91 Q1039 34 942 7 Q845 -20 728 -20 Q599 -20 495 24.5 Q391 69 317.5 150.5 Q244 232 204 347.5 Q164 463 164 604 L164 857 Z " />
<g transform="translate(512,1688)" >
<path fill="black" d="M165 49 Q165 72 182 88.5 Q199 105 222 105 Q246 105 263 88.5 Q280 72 280 49 Q280 26 263 10 Q246 -6 222 -6 Q199 -6 182 10 Q165 26 165 49 Z " />
</g>
</glyph>
<glyph glyph-name="cdotaccent" unicode="&#x10b;" horiz-adv-x="1129" >
<path fill="black" d="M111 572 Q111 694 143 792 Q175 890 235.5 959 Q296 1028 383.5 1065 Q471 1102 583 1102 Q666 1102 742.5 1079 Q819 1056 878 1009.5 Q937 963 974 892 Q1011 821 1015 725 L962 725 Q958 809 925.5 869.5 Q893 930 841 970 Q789 1010 722 1029 Q655 1048 583 1048 Q475 1048 396 1012.5 Q317 977 265.5 913.5 Q214 850 188.5 763 Q163 676 163 572 L163 510 Q163 406 188.5 318.5 Q214 231 265.5 168 Q317 105 396.5 69.5 Q476 34 584 34 Q653 34 718.5 49.5 Q784 65 836.5 100 Q889 135 923 191 Q957 247 962 328 L1015 328 Q1011 243 975 178 Q939 113 880.5 69 Q822 25 745.5 2.5 Q669 -20 584 -20 Q472 -20 384 17.5 Q296 55 235.5 124 Q175 193 143 291 Q111 389 111 510 L111 572 Z " />
<g transform="translate(372,1345)" >
<path fill="black" d="M165 49 Q165 72 182 88.5 Q199 105 222 105 Q246 105 263 88.5 Q280 72 280 49 Q280 26 263 10 Q246 -6 222 -6 Q199 -6 182 10 Q165 26 165 49 Z " />
</g>
</glyph>
<glyph glyph-name="Ccaron" unicode="&#x10c;" horiz-adv-x="1441" >
<path fill="black" d="M164 857 Q164 997 203.5 1111.5 Q243 1226 316.5 1307 Q390 1388 494 1432 Q598 1476 727 1476 Q844 1476 941.5 1448.5 Q1039 1421 1111.5 1364 Q1184 1307 1228.5 1219.5 Q1273 1132 1285 1012 L1232 1012 Q1208 1220 1079.5 1321 Q951 1422 727 1422 Q613 1422 519 1382.5 Q425 1343 358 1270 Q291 1197 254 1092.5 Q217 988 217 859 L217 604 Q217 473 254 367.5 Q291 262 358 188 Q425 114 519 74 Q613 34 728 34 Q837 34 925 57 Q1013 80 1077 129.5 Q1141 179 1180.5 257 Q1220 335 1232 446 L1285 446 Q1273 324 1228 236 Q1183 148 1111 91 Q1039 34 942 7 Q845 -20 728 -20 Q599 -20 495 24.5 Q391 69 317.5 150.5 Q244 232 204 347.5 Q164 463 164 604 L164 857 Z " />
<g transform="translate(304,345)" >
<path fill="black" d="M164 1495 L164 1506 L221 1506 L431 1289 L641 1506 L693 1506 L693 1493 L460 1243 L400 1243 L164 1495 Z " />
</g>
</glyph>
<glyph glyph-name="ccaron" unicode="&#x10d;" horiz-adv-x="1129" >
<path fill="black" d="M111 572 Q111 694 143 792 Q175 890 235.5 959 Q296 1028 383.5 1065 Q471 1102 583 1102 Q666 1102 742.5 1079 Q819 1056 878 1009.5 Q937 963 974 892 Q1011 821 1015 725 L962 725 Q958 809 925.5 869.5 Q893 930 841 970 Q789 1010 722 1029 Q655 1048 583 1048 Q475 1048 396 1012.5 Q317 977 265.5 913.5 Q214 850 188.5 763 Q163 676 163 572 L163 510 Q163 406 188.5 318.5 Q214 231 265.5 168 Q317 105 396.5 69.5 Q476 34 584 34 Q653 34 718.5 49.5 Q784 65 836.5 100 Q889 135 923 191 Q957 247 962 328 L1015 328 Q1011 243 975 178 Q939 113 880.5 69 Q822 25 745.5 2.5 Q669 -20 584 -20 Q472 -20 384 17.5 Q296 55 235.5 124 Q175 193 143 291 Q111 389 111 510 L111 572 Z " />
<g transform="translate(164,2)" >
<path fill="black" d="M164 1495 L164 1506 L221 1506 L431 1289 L641 1506 L693 1506 L693 1493 L460 1243 L400 1243 L164 1495 Z " />
</g>
</glyph>
<glyph glyph-name="Dcaron" unicode="&#x10e;" horiz-adv-x="1453" d="M222 1456 L656 1456 Q794 1456 911.5 1411.5 Q1029 1367 1115.5 1286 Q1202 1205 1250.5 1091 Q1299 977 1299 837 L1299 619 Q1299 479 1250.5 365 Q1202 251 1115.5 170 Q1029 89 911.5 44.5 Q794 0 656 0 L222 0 L222 1456 Z M656 54 Q782 54 890 95 Q998 136 1077 210.5 Q1156 285 1201 389 Q1246 493 1246 619 L1246 840 Q1246 965 1201 1068.5 Q1156 1172 1077 1246 Q998 1320 890 1361 Q782 1402 656 1402 L275 1402 L275 54 L656 54 Z M608 1567 L372 1819 L372 1830 L429 1830 L639 1613 L849 1830 L901 1830 L901 1817 L668 1567 L608 1567 Z " />
<glyph glyph-name="dcaron" unicode="&#x10f;" horiz-adv-x="1230" d="M138 562 Q138 680 162 772.5 Q186 865 231 933 L201 960 Q239 1010 257 1056.5 Q275 1103 275 1168 L275 1247 L328 1247 L328 1170 Q328 1119 317.5 1077 Q307 1035 288 1000 Q399 1102 576 1102 Q722 1102 820.5 1041.5 Q919 981 974 882 L974 1536 L1027 1536 L1027 0 L973 0 L974 174 Q947 132 909 96.5 Q871 61 821 35 Q771 9 709.5 -5.5 Q648 -20 575 -20 Q471 -20 390 17.5 Q309 55 253 124.5 Q197 194 167.5 294.5 Q138 395 138 521 L138 562 Z M193 521 Q193 411 216 321 Q239 231 286 167.5 Q333 104 404 69 Q475 34 571 34 Q652 34 717.5 51.5 Q783 69 833.5 100 Q884 131 919 173 Q954 215 974 264 L974 780 Q958 826 928.5 873.5 Q899 921 852 960 Q805 999 736.5 1023.5 Q668 1048 573 1048 Q477 1048 405.5 1013.5 Q334 979 286.5 915.5 Q239 852 216 762 Q193 672 193 562 L193 521 Z " />
<glyph glyph-name="Dcroat" unicode="&#x110;" horiz-adv-x="1453" >
<path fill="black" d="M222 713 L73 713 L73 767 L222 767 L222 1456 L656 1456 Q794 1456 911.5 1411.5 Q1029 1367 1115.5 1286 Q1202 1205 1250.5 1091 Q1299 977 1299 837 L1299 619 Q1299 479 1250.5 365 Q1202 251 1115.5 170 Q1029 89 911.5 44.5 Q794 0 656 0 L222 0 L222 713 Z M656 54 Q782 54 890 95 Q998 136 1077 210.5 Q1156 285 1201 389 Q1246 493 1246 619 L1246 840 Q1246 965 1201 1068.5 Q1156 1172 1077 1246 Q998 1320 890 1361 Q782 1402 656 1402 L275 1402 L275 767 L703 767 L703 713 L275 713 L275 54 L656 54 Z " />
</glyph>
<glyph glyph-name="dslash" unicode="&#x111;" horiz-adv-x="1214" d="M138 552 Q138 680 167.5 782 Q197 884 253.5 955 Q310 1026 391.5 1064 Q473 1102 576 1102 Q649 1102 710 1085.5 Q771 1069 820.5 1039.5 Q870 1010 908.5 968.5 Q947 927 974 876 L974 1281 L568 1281 L568 1335 L974 1335 L974 1536 L1027 1536 L1027 1335 L1197 1335 L1197 1281 L1027 1281 L1027 0 L973 0 L974 180 Q947 137 909 100.5 Q871 64 821 37 Q771 10 709.5 -5 Q648 -20 575 -20 Q471 -20 390 19.5 Q309 59 253 131.5 Q197 204 167.5 305.5 Q138 407 138 531 L138 552 Z M193 531 Q193 423 216 332 Q239 241 286 174.5 Q333 108 404 71 Q475 34 571 34 Q652 34 717.5 52 Q783 70 833.5 102 Q884 134 919 177.5 Q954 221 974 272 L974 772 Q958 820 928.5 869 Q899 918 852 957.5 Q805 997 736.5 1022.5 Q668 1048 573 1048 Q477 1048 405.5 1011 Q334 974 286.5 908 Q239 842 216 751 Q193 660 193 552 L193 531 Z " />
<glyph glyph-name="Emacron" unicode="&#x112;" horiz-adv-x="1267" d="M222 1456 L1175 1456 L1175 1402 L275 1402 L275 776 L1065 776 L1065 722 L275 722 L275 54 L1174 54 L1174 0 L222 0 L222 1456 Z M371 1766 L977 1766 L977 1713 L371 1713 L371 1766 Z " />
<glyph glyph-name="emacron" unicode="&#x113;" horiz-adv-x="1122" d="M99 572 Q99 693 137.5 791 Q176 889 242 958 Q308 1027 397 1064.5 Q486 1102 587 1102 Q683 1102 763.5 1071 Q844 1040 903 981 Q962 922 995 837 Q1028 752 1028 645 L1028 577 L152 577 L152 572 L152 508 Q152 405 187 317.5 Q222 230 283.5 167 Q345 104 428.5 68.5 Q512 33 608 33 Q658 33 705 39.5 Q752 46 795.5 62 Q839 78 879 105 Q919 132 955 172 L991 143 Q933 71 840 25.5 Q747 -20 608 -20 Q503 -20 410 17.5 Q317 55 248 124 Q179 193 139 290.5 Q99 388 99 508 L99 572 Z M975 631 L975 649 Q975 734 947.5 807 Q920 880 869.5 933.5 Q819 987 747 1017.5 Q675 1048 587 1048 Q497 1048 421.5 1017 Q346 986 289.5 931 Q233 876 198.5 799.5 Q164 723 155 631 L975 631 Z M315 1445 L921 1445 L921 1392 L315 1392 L315 1445 Z " />
<glyph glyph-name="Edotaccent" unicode="&#x116;" horiz-adv-x="1267" >
<path fill="black" d="M222 1456 L1175 1456 L1175 1402 L275 1402 L275 776 L1065 776 L1065 722 L275 722 L275 54 L1174 54 L1174 0 L222 0 L222 1456 Z " />
<g transform="translate(448,1667)" >
<path fill="black" d="M165 49 Q165 72 182 88.5 Q199 105 222 105 Q246 105 263 88.5 Q280 72 280 49 Q280 26 263 10 Q246 -6 222 -6 Q199 -6 182 10 Q165 26 165 49 Z " />
</g>
</glyph>
<glyph glyph-name="edotaccent" unicode="&#x117;" horiz-adv-x="1122" >
<path fill="black" d="M99 572 Q99 693 137.5 791 Q176 889 242 958 Q308 1027 397 1064.5 Q486 1102 587 1102 Q683 1102 763.5 1071 Q844 1040 903 981 Q962 922 995 837 Q1028 752 1028 645 L1028 577 L152 577 L152 572 L152 508 Q152 405 187 317.5 Q222 230 283.5 167 Q345 104 428.5 68.5 Q512 33 608 33 Q658 33 705 39.5 Q752 46 795.5 62 Q839 78 879 105 Q919 132 955 172 L991 143 Q933 71 840 25.5 Q747 -20 608 -20 Q503 -20 410 17.5 Q317 55 248 124 Q179 193 139 290.5 Q99 388 99 508 L99 572 Z M975 631 L975 649 Q975 734 947.5 807 Q920 880 869.5 933.5 Q819 987 747 1017.5 Q675 1048 587 1048 Q497 1048 421.5 1017 Q346 986 289.5 931 Q233 876 198.5 799.5 Q164 723 155 631 L975 631 Z " />
<g transform="translate(392,1346)" >
<path fill="black" d="M165 49 Q165 72 182 88.5 Q199 105 222 105 Q246 105 263 88.5 Q280 72 280 49 Q280 26 263 10 Q246 -6 222 -6 Q199 -6 182 10 Q165 26 165 49 Z " />
</g>
</glyph>
<glyph glyph-name="Eogonek" unicode="&#x118;" horiz-adv-x="1267" d="M222 1456 L1175 1456 L1175 1402 L275 1402 L275 776 L1065 776 L1065 722 L275 722 L275 54 L1174 54 L1174 0 L1111 0 Q1072 -28 1035.5 -56.5 Q999 -85 970.5 -115 Q942 -145 925 -177.5 Q908 -210 908 -246 Q908 -264 912.5 -281.5 Q917 -299 928.5 -312 Q940 -325 959.5 -333 Q979 -341 1009 -341 Q1052 -341 1079.5 -328.5 Q1107 -316 1127 -303 L1145 -351 Q1125 -366 1092.5 -380.5 Q1060 -395 1011 -395 Q939 -395 897 -358.5 Q855 -322 855 -246 Q855 -214 870.5 -181.5 Q886 -149 912 -117.5 Q938 -86 971 -56.5 Q1004 -27 1039 0 L222 0 L222 1456 Z " />
<glyph glyph-name="eogonek" unicode="&#x119;" horiz-adv-x="1122" d="M936 -293 Q916 -308 883.5 -322.5 Q851 -337 802 -337 Q730 -337 688 -300.5 Q646 -264 646 -188 Q646 -141 678 -94 Q710 -47 757 -3 Q723 -11 686.5 -15.5 Q650 -20 608 -20 Q503 -20 410 17.5 Q317 55 248 124 Q179 193 139 290.5 Q99 388 99 508 L99 572 Q99 693 137.5 791 Q176 889 242 958 Q308 1027 397 1064.5 Q486 1102 587 1102 Q683 1102 763.5 1071 Q844 1040 903 981 Q962 922 995 837 Q1028 752 1028 645 L1028 577 L152 577 L152 572 L152 508 Q152 405 187 317.5 Q222 230 283.5 167 Q345 104 428.5 68.5 Q512 33 608 33 Q658 33 705 39.5 Q752 46 795.5 62 Q839 78 879 105 Q919 132 955 172 L991 143 Q953 94 900 59 L902 58 Q863 30 826.5 1.5 Q790 -27 761.5 -57 Q733 -87 716 -119.5 Q699 -152 699 -188 Q699 -206 703.5 -223.5 Q708 -241 719.5 -254 Q731 -267 750.5 -275 Q770 -283 800 -283 Q843 -283 870.5 -270.5 Q898 -258 918 -245 L936 -293 Z M975 631 L975 649 Q975 734 947.5 807 Q920 880 869.5 933.5 Q819 987 747 1017.5 Q675 1048 587 1048 Q497 1048 421.5 1017 Q346 986 289.5 931 Q233 876 198.5 799.5 Q164 723 155 631 L975 631 Z " />
<glyph glyph-name="Ecaron" unicode="&#x11a;" horiz-adv-x="1267" d="M222 1456 L1175 1456 L1175 1402 L275 1402 L275 776 L1065 776 L1065 722 L275 722 L275 54 L1174 54 L1174 0 L222 0 L222 1456 Z M640 1567 L404 1819 L404 1830 L461 1830 L671 1613 L881 1830 L933 1830 L933 1817 L700 1567 L640 1567 Z " />
<glyph glyph-name="ecaron" unicode="&#x11b;" horiz-adv-x="1122" d="M99 572 Q99 693 137.5 791 Q176 889 242 958 Q308 1027 397 1064.5 Q486 1102 587 1102 Q683 1102 763.5 1071 Q844 1040 903 981 Q962 922 995 837 Q1028 752 1028 645 L1028 577 L152 577 L152 572 L152 508 Q152 405 187 317.5 Q222 230 283.5 167 Q345 104 428.5 68.5 Q512 33 608 33 Q658 33 705 39.5 Q752 46 795.5 62 Q839 78 879 105 Q919 132 955 172 L991 143 Q933 71 840 25.5 Q747 -20 608 -20 Q503 -20 410 17.5 Q317 55 248 124 Q179 193 139 290.5 Q99 388 99 508 L99 572 Z M975 631 L975 649 Q975 734 947.5 807 Q920 880 869.5 933.5 Q819 987 747 1017.5 Q675 1048 587 1048 Q497 1048 421.5 1017 Q346 986 289.5 931 Q233 876 198.5 799.5 Q164 723 155 631 L975 631 Z M584 1246 L348 1498 L348 1509 L405 1509 L615 1292 L825 1509 L877 1509 L877 1496 L644 1246 L584 1246 Z " />
<glyph glyph-name="Gbreve" unicode="&#x11e;" horiz-adv-x="1526" >
<path fill="black" d="M191 878 Q191 1013 233.5 1123.5 Q276 1234 353 1312.5 Q430 1391 537 1433.5 Q644 1476 773 1476 Q899 1476 997 1445 Q1095 1414 1163.5 1359 Q1232 1304 1272 1228 Q1312 1152 1322 1062 L1270 1062 Q1258 1136 1225 1201.5 Q1192 1267 1133 1316 Q1074 1365 985 1393.5 Q896 1422 773 1422 Q653 1422 555 1382.5 Q457 1343 387.5 1271.5 Q318 1200 280.5 1100.5 Q243 1001 243 880 L243 600 Q243 474 281.5 369.5 Q320 265 391.5 190.5 Q463 116 564.5 75 Q666 34 791 34 Q887 34 967.5 49 Q1048 64 1109.5 86.5 Q1171 109 1212.5 134.5 Q1254 160 1272 181 L1272 605 L789 605 L789 660 L1325 660 L1325 156 Q1306 133 1262.5 102.5 Q1219 72 1152.5 45 Q1086 18 995.5 -1 Q905 -20 791 -20 Q657 -20 546.5 24.5 Q436 69 357 150 Q278 231 234.5 345.5 Q191 460 191 600 L191 878 Z " />
<g transform="translate(288,345)" >
<path fill="black" d="M221 1486 Q221 1447 234.5 1412 Q248 1377 278 1350.5 Q308 1324 356 1309 Q404 1294 474 1294 Q541 1294 588.5 1309.5 Q636 1325 666.5 1351.5 Q697 1378 711.5 1412.5 Q726 1447 726 1486 L781 1486 Q781 1431 760 1385.5 Q739 1340 699.5 1307 Q660 1274 603 1256 Q546 1238 474 1238 Q402 1238 344.5 1256 Q287 1274 247 1307 Q207 1340 186 1385.5 Q165 1431 165 1486 L221 1486 Z " />
</g>
</glyph>
<glyph glyph-name="gbreve" unicode="&#x11f;" horiz-adv-x="1220" >
<path fill="black" d="M247 -223 Q316 -301 397 -342 Q478 -383 588 -383 Q779 -383 875.5 -282.5 Q972 -182 972 0 L972 173 Q945 131 907 96 Q869 61 819 35 Q769 9 707.5 -5.5 Q646 -20 574 -20 Q471 -20 389.5 17.5 Q308 55 252 124.5 Q196 194 166.5 294.5 Q137 395 137 521 L137 562 Q137 693 166.5 793.5 Q196 894 252.5 962.5 Q309 1031 390.5 1066.5 Q472 1102 575 1102 Q647 1102 708 1086 Q769 1070 818.5 1041.5 Q868 1013 906.5 973 Q945 933 972 884 L972 1082 L1026 1082 L1026 0 Q1026 -104 996.5 -185 Q967 -266 910.5 -322 Q854 -378 773 -407 Q692 -436 589 -436 Q460 -436 365.5 -386.5 Q271 -337 209 -259 L247 -223 Z M191 521 Q191 411 214.5 321 Q238 231 285 167.5 Q332 104 403 69 Q474 34 570 34 Q653 34 719 52 Q785 70 834.5 102 Q884 134 918.5 177.5 Q953 221 972 272 L972 772 Q956 819 928 868 Q900 917 853.5 957 Q807 997 738.5 1022.5 Q670 1048 573 1048 Q476 1048 404.5 1013.5 Q333 979 285.5 915.5 Q238 852 214.5 762 Q191 672 191 562 L191 521 Z " />
<g transform="translate(140,2)" >
<path fill="black" d="M221 1486 Q221 1447 234.5 1412 Q248 1377 278 1350.5 Q308 1324 356 1309 Q404 1294 474 1294 Q541 1294 588.5 1309.5 Q636 1325 666.5 1351.5 Q697 1378 711.5 1412.5 Q726 1447 726 1486 L781 1486 Q781 1431 760 1385.5 Q739 1340 699.5 1307 Q660 1274 603 1256 Q546 1238 474 1238 Q402 1238 344.5 1256 Q287 1274 247 1307 Q207 1340 186 1385.5 Q165 1431 165 1486 L221 1486 Z " />
</g>
</glyph>
<glyph glyph-name="Gdotaccent" unicode="&#x120;" horiz-adv-x="1526" >
<path fill="black" d="M191 878 Q191 1013 233.5 1123.5 Q276 1234 353 1312.5 Q430 1391 537 1433.5 Q644 1476 773 1476 Q899 1476 997 1445 Q1095 1414 1163.5 1359 Q1232 1304 1272 1228 Q1312 1152 1322 1062 L1270 1062 Q1258 1136 1225 1201.5 Q1192 1267 1133 1316 Q1074 1365 985 1393.5 Q896 1422 773 1422 Q653 1422 555 1382.5 Q457 1343 387.5 1271.5 Q318 1200 280.5 1100.5 Q243 1001 243 880 L243 600 Q243 474 281.5 369.5 Q320 265 391.5 190.5 Q463 116 564.5 75 Q666 34 791 34 Q887 34 967.5 49 Q1048 64 1109.5 86.5 Q1171 109 1212.5 134.5 Q1254 160 1272 181 L1272 605 L789 605 L789 660 L1325 660 L1325 156 Q1306 133 1262.5 102.5 Q1219 72 1152.5 45 Q1086 18 995.5 -1 Q905 -20 791 -20 Q657 -20 546.5 24.5 Q436 69 357 150 Q278 231 234.5 345.5 Q191 460 191 600 L191 878 Z " />
<g transform="translate(540,1688)" >
<path fill="black" d="M165 49 Q165 72 182 88.5 Q199 105 222 105 Q246 105 263 88.5 Q280 72 280 49 Q280 26 263 10 Q246 -6 222 -6 Q199 -6 182 10 Q165 26 165 49 Z " />
</g>
</glyph>
<glyph glyph-name="gdotaccent" unicode="&#x121;" horiz-adv-x="1220" >
<path fill="black" d="M247 -223 Q316 -301 397 -342 Q478 -383 588 -383 Q779 -383 875.5 -282.5 Q972 -182 972 0 L972 173 Q945 131 907 96 Q869 61 819 35 Q769 9 707.5 -5.5 Q646 -20 574 -20 Q471 -20 389.5 17.5 Q308 55 252 124.5 Q196 194 166.5 294.5 Q137 395 137 521 L137 562 Q137 693 166.5 793.5 Q196 894 252.5 962.5 Q309 1031 390.5 1066.5 Q472 1102 575 1102 Q647 1102 708 1086 Q769 1070 818.5 1041.5 Q868 1013 906.5 973 Q945 933 972 884 L972 1082 L1026 1082 L1026 0 Q1026 -104 996.5 -185 Q967 -266 910.5 -322 Q854 -378 773 -407 Q692 -436 589 -436 Q460 -436 365.5 -386.5 Q271 -337 209 -259 L247 -223 Z M191 521 Q191 411 214.5 321 Q238 231 285 167.5 Q332 104 403 69 Q474 34 570 34 Q653 34 719 52 Q785 70 834.5 102 Q884 134 918.5 177.5 Q953 221 972 272 L972 772 Q956 819 928 868 Q900 917 853.5 957 Q807 997 738.5 1022.5 Q670 1048 573 1048 Q476 1048 404.5 1013.5 Q333 979 285.5 915.5 Q238 852 214.5 762 Q191 672 191 562 L191 521 Z " />
<g transform="translate(392,1345)" >
<path fill="black" d="M165 49 Q165 72 182 88.5 Q199 105 222 105 Q246 105 263 88.5 Q280 72 280 49 Q280 26 263 10 Q246 -6 222 -6 Q199 -6 182 10 Q165 26 165 49 Z " />
</g>
</glyph>
<glyph glyph-name="uni0122" unicode="&#x122;" horiz-adv-x="1360" >
<path fill="black" d="M191 878 Q191 1013 233.5 1123.5 Q276 1234 353 1312.5 Q430 1391 537 1433.5 Q644 1476 773 1476 Q899 1476 997 1445 Q1095 1414 1163.5 1359 Q1232 1304 1272 1228 Q1312 1152 1322 1062 L1270 1062 Q1258 1136 1225 1201.5 Q1192 1267 1133 1316 Q1074 1365 985 1393.5 Q896 1422 773 1422 Q653 1422 555 1382.5 Q457 1343 387.5 1271.5 Q318 1200 280.5 1100.5 Q243 1001 243 880 L243 600 Q243 474 281.5 369.5 Q320 265 391.5 190.5 Q463 116 564.5 75 Q666 34 791 34 Q887 34 967.5 49 Q1048 64 1109.5 86.5 Q1171 109 1212.5 134.5 Q1254 160 1272 181 L1272 605 L789 605 L789 660 L1325 660 L1325 156 Q1306 133 1262.5 102.5 Q1219 72 1152.5 45 Q1086 18 995.5 -1 Q905 -20 791 -20 Q657 -20 546.5 24.5 Q436 69 357 150 Q278 231 234.5 345.5 Q191 460 191 600 L191 878 Z " />
<g transform="translate(464,-215)" >
<path fill="black" d="M-685 -460 Q-648 -411 -629.5 -364 Q-611 -317 -611 -252 L-611 -173 L-558 -173 L-558 -250 Q-558 -329 -583 -389 Q-608 -449 -649 -492 L-685 -460 Z " />
</g>
</glyph>
<glyph glyph-name="uni0123" unicode="&#x123;" horiz-adv-x="1220" >
<path fill="black" d="M247 -223 Q316 -301 397 -342 Q478 -383 588 -383 Q779 -383 875.5 -282.5 Q972 -182 972 0 L972 173 Q945 131 907 96 Q869 61 819 35 Q769 9 707.5 -5.5 Q646 -20 574 -20 Q471 -20 389.5 17.5 Q308 55 252 124.5 Q196 194 166.5 294.5 Q137 395 137 521 L137 562 Q137 693 166.5 793.5 Q196 894 252.5 962.5 Q309 1031 390.5 1066.5 Q472 1102 575 1102 Q647 1102 708 1086 Q769 1070 818.5 1041.5 Q868 1013 906.5 973 Q945 933 972 884 L972 1082 L1026 1082 L1026 0 Q1026 -104 996.5 -185 Q967 -266 910.5 -322 Q854 -378 773 -407 Q692 -436 589 -436 Q460 -436 365.5 -386.5 Q271 -337 209 -259 L247 -223 Z M191 521 Q191 411 214.5 321 Q238 231 285 167.5 Q332 104 403 69 Q474 34 570 34 Q653 34 719 52 Q785 70 834.5 102 Q884 134 918.5 177.5 Q953 221 972 272 L972 772 Q956 819 928 868 Q900 917 853.5 957 Q807 997 738.5 1022.5 Q670 1048 573 1048 Q476 1048 404.5 1013.5 Q333 979 285.5 915.5 Q238 852 214.5 762 Q191 672 191 562 L191 521 Z " />
<g transform="translate(430,30)" >
<path fill="black" d="M159 1372 Q159 1432 177 1476.5 Q195 1521 219 1560 L264 1544 Q240 1497 225.5 1459 Q211 1421 211 1376 L211 1244 L159 1244 L159 1372 Z " />
</g>
</glyph>
<glyph glyph-name="Hbar" unicode="&#x126;" horiz-adv-x="1344" d="M178 1028 L27 1028 L27 1081 L178 1081 L178 1456 L231 1456 L231 1081 L1240 1081 L1240 1456 L1292 1456 L1292 1081 L1458 1081 L1458 1028 L1292 1028 L1292 0 L1240 0 L1240 722 L231 722 L231 0 L178 0 L178 1028 Z M1240 776 L1240 1028 L231 1028 L231 776 L1240 776 Z " />
<glyph glyph-name="hbar" unicode="&#x127;" horiz-adv-x="1218" d="M192 1281 L42 1281 L42 1335 L192 1335 L192 1536 L245 1536 L245 1335 L672 1335 L672 1281 L245 1281 L245 821 Q271 880 311.5 931 Q352 982 405 1020 Q458 1058 522.5 1080 Q587 1102 661 1102 Q750 1102 818.5 1079.5 Q887 1057 934.5 1008.5 Q982 960 1006.5 884 Q1031 808 1031 700 L1031 0 L979 0 L979 700 Q979 803 955.5 870.5 Q932 938 889.5 977.5 Q847 1017 788.5 1033 Q730 1049 660 1049 Q562 1049 489.5 1012 Q417 975 366.5 920 Q316 865 286.5 801.5 Q257 738 245 685 L245 0 L192 0 L192 1281 Z " />
<glyph glyph-name="Itilde" unicode="&#x128;" horiz-adv-x="586" >
<g transform="translate(-141,334)" >
<path fill="black" d="M102 1286 Q102 1327 116.5 1360.5 Q131 1394 156 1417 Q181 1440 215.5 1452.5 Q250 1465 289 1465 Q346 1465 384.5 1445.5 Q423 1426 455.5 1403 Q488 1380 521 1360.5 Q554 1341 599 1341 Q626 1341 650 1349.5 Q674 1358 691.5 1375 Q709 1392 719.5 1416.5 Q730 1441 730 1472 L787 1472 Q787 1430 772.5 1396 Q758 1362 732.5 1337.5 Q707 1313 672.5 1299.5 Q638 1286 599 1286 Q541 1286 503 1305.5 Q465 1325 433.5 1348.5 Q402 1372 369.5 1391.5 Q337 1411 289 1411 Q234 1411 196 1380 Q158 1349 158 1286 L102 1286 Z " />
</g>
<path fill="black" d="M267 0 L267 1456 L319 1456 L319 0 L267 0 Z " />
</glyph>
<glyph glyph-name="itilde" unicode="&#x129;" horiz-adv-x="445" >
<g transform="translate(-205,-9)" >
<path fill="black" d="M102 1286 Q102 1327 116.5 1360.5 Q131 1394 156 1417 Q181 1440 215.5 1452.5 Q250 1465 289 1465 Q346 1465 384.5 1445.5 Q423 1426 455.5 1403 Q488 1380 521 1360.5 Q554 1341 599 1341 Q626 1341 650 1349.5 Q674 1358 691.5 1375 Q709 1392 719.5 1416.5 Q730 1441 730 1472 L787 1472 Q787 1430 772.5 1396 Q758 1362 732.5 1337.5 Q707 1313 672.5 1299.5 Q638 1286 599 1286 Q541 1286 503 1305.5 Q465 1325 433.5 1348.5 Q402 1372 369.5 1391.5 Q337 1411 289 1411 Q234 1411 196 1380 Q158 1349 158 1286 L102 1286 Z " />
</g>
<path fill="black" d="M202 0 L202 1082 L255 1082 L255 0 L202 0 Z " />
</glyph>
<glyph glyph-name="Imacron" unicode="&#x12a;" horiz-adv-x="586" >
<path fill="black" d="M267 0 L267 1456 L319 1456 L319 0 L267 0 Z " />
<g transform="translate(-155,330)" >
<path fill="black" d="M148 1383 L148 1436 L754 1436 L754 1383 L148 1383 Z " />
</g>
</glyph>
<glyph glyph-name="imacron" unicode="&#x12b;" horiz-adv-x="445" >
<path fill="black" d="M202 0 L202 1082 L255 1082 L255 0 L202 0 Z " />
<g transform="translate(-219,-13)" >
<path fill="black" d="M148 1383 L148 1436 L754 1436 L754 1383 L148 1383 Z " />
</g>
</glyph>
<glyph glyph-name="Iogonek" unicode="&#x12e;" horiz-adv-x="586" d="M267 1456 L319 1456 L319 0 L313 0 Q274 -28 237.5 -56.5 Q201 -85 172.5 -115 Q144 -145 127 -177.5 Q110 -210 110 -246 Q110 -264 114.5 -281.5 Q119 -299 130.5 -312 Q142 -325 161.5 -333 Q181 -341 211 -341 Q254 -341 281.5 -328.5 Q309 -316 329 -303 L347 -351 Q327 -366 294.5 -380.5 Q262 -395 213 -395 Q141 -395 99 -358.5 Q57 -322 57 -246 Q57 -211 75.5 -175.5 Q94 -140 124 -106 Q154 -72 191.5 -40 Q229 -8 267 19 L267 1456 Z " />
<glyph glyph-name="iogonek" unicode="&#x12f;" horiz-adv-x="463" >
<g transform="translate(2,-10)" >
<path fill="black" d="M205 1092 L258 1092 L258 10 L257 10 Q218 -18 181.5 -46.5 Q145 -75 116.5 -105 Q88 -135 71 -167.5 Q54 -200 54 -236 Q54 -254 58.5 -271.5 Q63 -289 74.5 -302 Q86 -315 105.5 -323 Q125 -331 155 -331 Q198 -331 225.5 -318.5 Q253 -306 273 -293 L291 -341 Q271 -356 238.5 -370.5 Q206 -385 157 -385 Q85 -385 43 -348.5 Q1 -312 1 -236 Q1 -202 19 -167 Q37 -132 66 -98.5 Q95 -65 131.5 -33.5 Q168 -2 205 25 L205 1092 Z " />
</g>
<g transform="translate(11,1371)" >
<path fill="black" d="M165 49 Q165 72 182 88.5 Q199 105 222 105 Q246 105 263 88.5 Q280 72 280 49 Q280 26 263 10 Q246 -6 222 -6 Q199 -6 182 10 Q165 26 165 49 Z " />
</g>
</glyph>
<glyph glyph-name="Idot" unicode="&#x130;" horiz-adv-x="586" >
<path fill="black" d="M267 0 L267 1456 L319 1456 L319 0 L267 0 Z " />
<g transform="translate(70,1667)" >
<path fill="black" d="M165 49 Q165 72 182 88.5 Q199 105 222 105 Q246 105 263 88.5 Q280 72 280 49 Q280 26 263 10 Q246 -6 222 -6 Q199 -6 182 10 Q165 26 165 49 Z " />
</g>
</glyph>
<glyph glyph-name="dotlessi" unicode="&#x131;" horiz-adv-x="445" d="M202 0 L202 1082 L255 1082 L255 0 L202 0 Z " />
<glyph glyph-name="uni0136" unicode="&#x136;" horiz-adv-x="1258" >
<path fill="black" d="M222 1456 L275 1456 L275 612 L534 847 L1191 1456 L1269 1456 L569 803 L1323 0 L1254 0 L527 766 L275 550 L275 0 L222 0 L222 1456 Z " />
<g transform="translate(362,-105)" >
<path fill="black" d="M-685 -460 Q-648 -411 -629.5 -364 Q-611 -317 -611 -252 L-611 -173 L-558 -173 L-558 -250 Q-558 -329 -583 -389 Q-608 -449 -649 -492 L-685 -460 Z " />
</g>
</glyph>
<glyph glyph-name="uni0137" unicode="&#x137;" horiz-adv-x="940" >
<path fill="black" d="M192 1536 L245 1536 L245 505 L383 627 L919 1082 L996 1082 L459 622 L1029 0 L959 0 L417 586 L413 583 L245 447 L245 0 L192 0 L192 1536 Z " />
<g transform="translate(261,-101)" >
<path fill="black" d="M-685 -460 Q-648 -411 -629.5 -364 Q-611 -317 -611 -252 L-611 -173 L-558 -173 L-558 -250 Q-558 -329 -583 -389 Q-608 -449 -649 -492 L-685 -460 Z " />
</g>
</glyph>
<glyph glyph-name="Lacute" unicode="&#x139;" horiz-adv-x="1147" >
<path fill="black" d="M222 1456 L276 1456 L276 54 L1082 54 L1082 0 L222 0 L222 1456 Z " />
<g transform="translate(71,256)" >
<path fill="black" d="M350 1536 L417 1536 L204 1270 L141 1270 L350 1536 Z " />
</g>
</glyph>
<glyph glyph-name="lacute" unicode="&#x13a;" horiz-adv-x="653" >
<path fill="black" d="M208 1536 L262 1536 L262 259 Q262 188 276.5 144 Q291 100 315 75.5 Q339 51 371 42.5 Q403 34 439 34 Q472 34 498 36.5 Q524 39 555 43 L565 -8 Q553 -12 537 -14 Q521 -16 504 -17.5 Q487 -19 471 -19.5 Q455 -20 444 -20 Q389 -20 345 -7 Q301 6 270.5 38 Q240 70 224 124 Q208 178 208 259 L208 1536 Z " />
<g transform="translate(52,380)" >
<path fill="black" d="M350 1536 L417 1536 L204 1270 L141 1270 L350 1536 Z " />
</g>
</glyph>
<glyph glyph-name="uni013B" unicode="&#x13b;" horiz-adv-x="1025" >
<path fill="black" d="M222 1456 L276 1456 L276 54 L1082 54 L1082 0 L222 0 L222 1456 Z " />
<g transform="translate(364,-205)" >
<path fill="black" d="M-685 -460 Q-648 -411 -629.5 -364 Q-611 -317 -611 -252 L-611 -173 L-558 -173 L-558 -250 Q-558 -329 -583 -389 Q-608 -449 -649 -492 L-685 -460 Z " />
</g>
</glyph>
<glyph glyph-name="uni013C" unicode="&#x13c;" horiz-adv-x="415" >
<path fill="black" d="M208 1536 L262 1536 L262 259 Q262 188 276.5 144 Q291 100 315 75.5 Q339 51 371 42.5 Q403 34 439 34 Q472 34 498 36.5 Q524 39 555 43 L565 -8 Q553 -12 537 -14 Q521 -16 504 -17.5 Q487 -19 471 -19.5 Q455 -20 444 -20 Q389 -20 345 -7 Q301 6 270.5 38 Q240 70 224 124 Q208 178 208 259 L208 1536 Z " />
<g transform="translate(-31,-205)" >
<path fill="black" d="M-685 -460 Q-648 -411 -629.5 -364 Q-611 -317 -611 -252 L-611 -173 L-558 -173 L-558 -250 Q-558 -329 -583 -389 Q-608 -449 -649 -492 L-685 -460 Z " />
</g>
</glyph>
<glyph glyph-name="Lcaron" unicode="&#x13d;" horiz-adv-x="1025" >
<path fill="black" d="M222 1456 L276 1456 L276 54 L1082 54 L1082 0 L222 0 L222 1456 Z " />
<g transform="translate(374,1339)" >
<path fill="black" d="M-685 -460 Q-648 -411 -629.5 -364 Q-611 -317 -611 -252 L-611 -173 L-558 -173 L-558 -250 Q-558 -329 -583 -389 Q-608 -449 -649 -492 L-685 -460 Z " />
</g>
</glyph>
<glyph glyph-name="lcaron" unicode="&#x13e;" horiz-adv-x="559" >
<path fill="black" d="M208 1536 L262 1536 L262 259 Q262 188 276.5 144 Q291 100 315 75.5 Q339 51 371 42.5 Q403 34 439 34 Q472 34 498 36.5 Q524 39 555 43 L565 -8 Q553 -12 537 -14 Q521 -16 504 -17.5 Q487 -19 471 -19.5 Q455 -20 444 -20 Q389 -20 345 -7 Q301 6 270.5 38 Q240 70 224 124 Q208 178 208 259 L208 1536 Z " />
<g transform="translate(229,1420)" >
<path fill="black" d="M-685 -460 Q-648 -411 -629.5 -364 Q-611 -317 -611 -252 L-611 -173 L-558 -173 L-558 -250 Q-558 -329 -583 -389 Q-608 -449 -649 -492 L-685 -460 Z " />
</g>
</glyph>
<glyph glyph-name="Lslash" unicode="&#x141;" horiz-adv-x="1029" d="M215 717 L14 658 L14 715 L215 774 L215 1456 L269 1456 L269 790 L649 902 L649 845 L269 733 L269 54 L1075 54 L1075 0 L215 0 L215 717 Z " />
<glyph glyph-name="lslash" unicode="&#x142;" horiz-adv-x="495" d="M262 772 L23 684 L23 743 L262 831 L262 1536 L316 1536 L316 851 L529 930 L529 871 L316 792 L316 259 Q316 188 330.5 144 Q345 100 369 75.5 Q393 51 425 42.5 Q457 34 493 34 Q526 34 552 36.5 Q578 39 609 43 L619 -8 Q607 -12 591 -14 Q575 -16 558 -17.5 Q541 -19 525 -19.5 Q509 -20 498 -20 Q443 -20 399 -7 Q355 6 324.5 38 Q294 70 278 124 Q262 178 262 259 L262 772 Z " />
<glyph glyph-name="Nacute" unicode="&#x143;" horiz-adv-x="1571" >
<path fill="black" d="M222 1456 L276 1456 L1296 95 L1296 1456 L1349 1456 L1349 0 L1296 0 L276 1364 L276 0 L222 0 L222 1456 Z " />
<g transform="translate(604,319)" >
<path fill="black" d="M350 1536 L417 1536 L204 1270 L141 1270 L350 1536 Z " />
</g>
</glyph>
<glyph glyph-name="nacute" unicode="&#x144;" horiz-adv-x="1218" >
<path fill="black" d="M192 1082 L246 1082 L245 851 L245 821 Q271 880 311.5 931 Q352 982 405 1020 Q458 1058 522.5 1080 Q587 1102 662 1102 Q750 1102 818.5 1079.5 Q887 1057 934.5 1008.5 Q982 960 1006.5 884 Q1031 808 1031 700 L1031 0 L979 0 L979 700 Q979 803 955.5 870.5 Q932 938 889.5 977.5 Q847 1017 788.5 1033 Q730 1049 660 1049 Q562 1049 489.5 1012 Q417 975 366.5 920 Q316 865 286.5 801.5 Q257 738 245 685 L245 0 L192 0 L192 1082 Z " />
<g transform="translate(445,-3)" >
<path fill="black" d="M350 1536 L417 1536 L204 1270 L141 1270 L350 1536 Z " />
</g>
</glyph>
<glyph glyph-name="uni0145" unicode="&#x145;" horiz-adv-x="1401" >
<path fill="black" d="M222 1456 L276 1456 L1296 95 L1296 1456 L1349 1456 L1349 0 L1296 0 L276 1364 L276 0 L222 0 L222 1456 Z " />
<g transform="translate(461,-205)" >
<path fill="black" d="M-685 -460 Q-648 -411 -629.5 -364 Q-611 -317 -611 -252 L-611 -173 L-558 -173 L-558 -250 Q-558 -329 -583 -389 Q-608 -449 -649 -492 L-685 -460 Z " />
</g>
</glyph>
<glyph glyph-name="uni0146" unicode="&#x146;" horiz-adv-x="1086" >
<path fill="black" d="M192 1082 L246 1082 L245 851 L245 821 Q271 880 311.5 931 Q352 982 405 1020 Q458 1058 522.5 1080 Q587 1102 662 1102 Q750 1102 818.5 1079.5 Q887 1057 934.5 1008.5 Q982 960 1006.5 884 Q1031 808 1031 700 L1031 0 L979 0 L979 700 Q979 803 955.5 870.5 Q932 938 889.5 977.5 Q847 1017 788.5 1033 Q730 1049 660 1049 Q562 1049 489.5 1012 Q417 975 366.5 920 Q316 865 286.5 801.5 Q257 738 245 685 L245 0 L192 0 L192 1082 Z " />
<g transform="translate(319,-205)" >
<path fill="black" d="M-685 -460 Q-648 -411 -629.5 -364 Q-611 -317 -611 -252 L-611 -173 L-558 -173 L-558 -250 Q-558 -329 -583 -389 Q-608 -449 -649 -492 L-685 -460 Z " />
</g>
</glyph>
<glyph glyph-name="Ncaron" unicode="&#x147;" horiz-adv-x="1571" >
<path fill="black" d="M222 1456 L276 1456 L1296 95 L1296 1456 L1349 1456 L1349 0 L1296 0 L276 1364 L276 0 L222 0 L222 1456 Z " />
<g transform="translate(355,324)" >
<path fill="black" d="M164 1495 L164 1506 L221 1506 L431 1289 L641 1506 L693 1506 L693 1493 L460 1243 L400 1243 L164 1495 Z " />
</g>
</glyph>
<glyph glyph-name="ncaron" unicode="&#x148;" horiz-adv-x="1218" d="M192 1082 L246 1082 L245 851 L245 821 Q271 880 311.5 931 Q352 982 405 1020 Q458 1058 522.5 1080 Q587 1102 662 1102 Q750 1102 818.5 1079.5 Q887 1057 934.5 1008.5 Q982 960 1006.5 884 Q1031 808 1031 700 L1031 0 L979 0 L979 700 Q979 803 955.5 870.5 Q932 938 889.5 977.5 Q847 1017 788.5 1033 Q730 1049 660 1049 Q562 1049 489.5 1012 Q417 975 366.5 920 Q316 865 286.5 801.5 Q257 738 245 685 L245 0 L192 0 L192 1082 Z M596 1245 L360 1497 L360 1508 L417 1508 L627 1291 L837 1508 L889 1508 L889 1495 L656 1245 L596 1245 Z " />
<glyph glyph-name="Eng" unicode="&#x14a;" horiz-adv-x="1574" d="M223 1456 L276 1456 L1299 88 L1299 1456 L1351 1456 L1351 -89 Q1351 -258 1270 -347.5 Q1189 -437 1046 -437 Q1013 -437 985 -432 Q957 -427 925 -417 L939 -365 Q956 -371 985 -377 Q1014 -383 1046 -383 Q1167 -383 1233 -307 Q1299 -231 1299 -89 L1299 0 L276 1370 L276 0 L223 0 L223 1456 Z " />
<glyph glyph-name="eng" unicode="&#x14b;" horiz-adv-x="1216" d="M595 -365 Q615 -371 651 -377.5 Q687 -384 725 -384 Q846 -384 911.5 -307.5 Q977 -231 977 -89 L977 639 Q977 760 951.5 839 Q926 918 882.5 964.5 Q839 1011 780 1029.5 Q721 1048 653 1048 Q549 1048 475.5 1015.5 Q402 983 353 929.5 Q304 876 278 806.5 Q252 737 242 663 L242 0 L189 0 L189 554 L186 554 Q186 595 189 632 L189 1082 L236 1082 L242 855 Q293 970 394 1036 Q495 1102 649 1102 Q743 1102 814.5 1075.5 Q886 1049 934 993 Q982 937 1006 848.5 Q1030 760 1030 637 L1030 -89 Q1030 -259 949.5 -348 Q869 -437 725 -437 Q685 -437 651.5 -432 Q618 -427 581 -417 L595 -365 Z " />
<glyph glyph-name="Omacron" unicode="&#x14c;" horiz-adv-x="1479" >
<path fill="black" d="M152 857 Q152 997 193 1111.5 Q234 1226 310.5 1307 Q387 1388 495 1432 Q603 1476 738 1476 Q873 1476 981.5 1432 Q1090 1388 1167 1307 Q1244 1226 1285.5 1111.5 Q1327 997 1327 857 L1327 599 Q1327 459 1286 344.5 Q1245 230 1168.5 149 Q1092 68 983.5 24 Q875 -20 740 -20 Q605 -20 496.5 24 Q388 68 311.5 149 Q235 230 193.5 344.5 Q152 459 152 599 L152 857 Z M205 599 Q205 473 241 368.5 Q277 264 345.5 190 Q414 116 513.5 75 Q613 34 740 34 Q868 34 967.5 75 Q1067 116 1135.5 190 Q1204 264 1239.5 368.5 Q1275 473 1275 599 L1275 859 Q1275 985 1239 1088.5 Q1203 1192 1134 1266 Q1065 1340 965.5 1381 Q866 1422 738 1422 Q611 1422 512 1381 Q413 1340 344.5 1266 Q276 1192 240.5 1088.5 Q205 985 205 859 L205 599 Z " />
<g transform="translate(283,351)" >
<path fill="black" d="M148 1383 L148 1436 L754 1436 L754 1383 L148 1383 Z " />
</g>
</glyph>
<glyph glyph-name="omacron" unicode="&#x14d;" horiz-adv-x="1223" >
<path fill="black" d="M107 572 Q107 691 143.5 788.5 Q180 886 246.5 956 Q313 1026 405.5 1064 Q498 1102 610 1102 Q724 1102 817 1064 Q910 1026 976.5 956 Q1043 886 1079 788.5 Q1115 691 1115 572 L1115 510 Q1115 391 1079 293.5 Q1043 196 977 126 Q911 56 818.5 18 Q726 -20 613 -20 Q500 -20 406.5 18 Q313 56 246.5 126 Q180 196 143.5 293.5 Q107 391 107 510 L107 572 Z M160 510 Q160 413 190 326.5 Q220 240 278 175 Q336 110 420.5 72 Q505 34 613 34 Q720 34 804 72 Q888 110 945.5 175 Q1003 240 1033 326.5 Q1063 413 1063 510 L1063 572 Q1063 667 1032.5 753 Q1002 839 944.5 904.5 Q887 970 802.5 1009 Q718 1048 610 1048 Q503 1048 419 1009 Q335 970 277.5 904.5 Q220 839 190 753 Q160 667 160 572 L160 510 Z " />
<g transform="translate(167,8)" >
<path fill="black" d="M148 1383 L148 1436 L754 1436 L754 1383 L148 1383 Z " />
</g>
</glyph>
<glyph glyph-name="Ohungarumlaut" unicode="&#x150;" horiz-adv-x="1479" d="M152 857 Q152 997 193 1111.5 Q234 1226 310.5 1307 Q387 1388 495 1432 Q603 1476 738 1476 Q873 1476 981.5 1432 Q1090 1388 1167 1307 Q1244 1226 1285.5 1111.5 Q1327 997 1327 857 L1327 599 Q1327 459 1286 344.5 Q1245 230 1168.5 149 Q1092 68 983.5 24 Q875 -20 740 -20 Q605 -20 496.5 24 Q388 68 311.5 149 Q235 230 193.5 344.5 Q152 459 152 599 L152 857 Z M205 599 Q205 473 241 368.5 Q277 264 345.5 190 Q414 116 513.5 75 Q613 34 740 34 Q868 34 967.5 75 Q1067 116 1135.5 190 Q1204 264 1239.5 368.5 Q1275 473 1275 599 L1275 859 Q1275 985 1239 1088.5 Q1203 1192 1134 1266 Q1065 1340 965.5 1381 Q866 1422 738 1422 Q611 1422 512 1381 Q413 1340 344.5 1266 Q276 1192 240.5 1088.5 Q205 985 205 859 L205 599 Z M1092 1876 L1173 1876 L862 1572 L788 1572 L1092 1876 Z M793 1876 L870 1876 L607 1572 L536 1572 L793 1876 Z " />
<glyph glyph-name="ohungarumlaut" unicode="&#x151;" horiz-adv-x="1223" d="M107 572 Q107 691 143.5 788.5 Q180 886 246.5 956 Q313 1026 405.5 1064 Q498 1102 610 1102 Q724 1102 817 1064 Q910 1026 976.5 956 Q1043 886 1079 788.5 Q1115 691 1115 572 L1115 510 Q1115 391 1079 293.5 Q1043 196 977 126 Q911 56 818.5 18 Q726 -20 613 -20 Q500 -20 406.5 18 Q313 56 246.5 126 Q180 196 143.5 293.5 Q107 391 107 510 L107 572 Z M160 510 Q160 413 190 326.5 Q220 240 278 175 Q336 110 420.5 72 Q505 34 613 34 Q720 34 804 72 Q888 110 945.5 175 Q1003 240 1033 326.5 Q1063 413 1063 510 L1063 572 Q1063 667 1032.5 753 Q1002 839 944.5 904.5 Q887 970 802.5 1009 Q718 1048 610 1048 Q503 1048 419 1009 Q335 970 277.5 904.5 Q220 839 190 753 Q160 667 160 572 L160 510 Z M976 1533 L1057 1533 L746 1229 L672 1229 L976 1533 Z M677 1533 L754 1533 L491 1229 L420 1229 L677 1533 Z " />
<glyph glyph-name="OE" unicode="&#x152;" horiz-adv-x="1808" d="M127 880 Q127 1012 167.5 1122 Q208 1232 281 1310.5 Q354 1389 456 1432.5 Q558 1476 682 1476 Q777 1476 867.5 1470 Q958 1464 1041 1456 L1947 1456 L1947 1402 L1047 1402 L1047 776 L1837 776 L1837 722 L1047 722 L1047 54 L1946 54 L1946 0 L1041 0 Q958 -8 868.5 -14.5 Q779 -21 684 -21 Q560 -21 457.5 22.5 Q355 66 281.5 145 Q208 224 167.5 334 Q127 444 127 576 L127 880 Z M994 1409 Q922 1417 844 1419.5 Q766 1422 682 1422 Q567 1422 474 1383 Q381 1344 315.5 1273 Q250 1202 214.5 1102.5 Q179 1003 179 882 L179 576 Q179 458 215 358 Q251 258 317 186 Q383 114 476 73.5 Q569 33 684 33 Q762 33 843 36 Q924 39 994 47 L994 1409 Z " />
<glyph glyph-name="oe" unicode="&#x153;" horiz-adv-x="2086" d="M105 562 Q105 681 142.5 780 Q180 879 247 950.5 Q314 1022 408 1062 Q502 1102 614 1102 Q705 1102 783.5 1076 Q862 1050 924.5 1002.5 Q987 955 1032 888 Q1077 821 1100 738 Q1123 821 1167.5 888 Q1212 955 1272.5 1002.5 Q1333 1050 1406.5 1076 Q1480 1102 1561 1102 Q1657 1102 1738.5 1071.5 Q1820 1041 1879 984 Q1938 927 1971.5 845 Q2005 763 2005 660 L2005 577 L1129 577 L1129 564 L1129 500 Q1129 403 1162 318 Q1195 233 1253.5 170 Q1312 107 1391.5 70.5 Q1471 34 1563 34 Q1631 34 1686 42.5 Q1741 51 1786 68 Q1831 85 1866.5 109.5 Q1902 134 1932 165 L1962 123 Q1895 54 1798 17 Q1701 -20 1563 -20 Q1485 -20 1412 6 Q1339 32 1277.5 79 Q1216 126 1169.5 193 Q1123 260 1099 341 Q1075 259 1030.5 192.5 Q986 126 924 78.5 Q862 31 783.5 5.5 Q705 -20 615 -20 Q502 -20 408.5 20 Q315 60 247.5 131.5 Q180 203 142.5 302 Q105 401 105 520 L105 562 Z M158 520 Q158 423 189 335 Q220 247 278.5 180 Q337 113 422 73.5 Q507 34 615 34 Q722 34 807 73.5 Q892 113 950.5 180 Q1009 247 1040 335 Q1071 423 1071 520 L1071 562 Q1071 657 1040 744.5 Q1009 832 950 899.5 Q891 967 806.5 1007.5 Q722 1048 614 1048 Q506 1048 421.5 1007.5 Q337 967 278.5 899.5 Q220 832 189 744.5 Q158 657 158 562 L158 520 Z M1953 631 L1953 664 Q1953 745 1925 815.5 Q1897 886 1845.5 937.5 Q1794 989 1721.5 1018.5 Q1649 1048 1561 1048 Q1471 1048 1397 1016 Q1323 984 1267.5 928 Q1212 872 1177.5 796 Q1143 720 1133 631 L1953 631 Z " />
<glyph glyph-name="Racute" unicode="&#x154;" horiz-adv-x="1458" >
<path fill="black" d="M217 1456 L716 1456 Q827 1456 921 1428.5 Q1015 1401 1083.5 1347.5 Q1152 1294 1190.5 1216 Q1229 1138 1229 1036 Q1229 958 1201 890.5 Q1173 823 1125 770.5 Q1077 718 1012.5 683.5 Q948 649 874 637 L1294 14 L1294 0 L1239 0 L821 623 L270 623 L270 0 L217 0 L217 1456 Z M270 677 L770 677 Q871 677 947 707.5 Q1023 738 1074 788.5 Q1125 839 1150.5 903.5 Q1176 968 1176 1036 Q1176 1122 1143.5 1190 Q1111 1258 1051 1305 Q991 1352 906 1377 Q821 1402 716 1402 L270 1402 L270 677 Z " />
<g transform="translate(475,319)" >
<path fill="black" d="M350 1536 L417 1536 L204 1270 L141 1270 L350 1536 Z " />
</g>
</glyph>
<glyph glyph-name="racute" unicode="&#x155;" horiz-adv-x="749" >
<path fill="black" d="M192 1082 L245 1082 L245 852 Q293 967 388.5 1034.5 Q484 1102 629 1102 Q656 1102 676.5 1099 Q697 1096 711 1091 L704 1043 Q687 1045 668.5 1047 Q650 1049 630 1049 Q548 1049 482.5 1023 Q417 997 369 951 Q321 905 290 842.5 Q259 780 245 706 L245 0 L192 0 L192 1082 Z " />
<g transform="translate(268,-3)" >
<path fill="black" d="M350 1536 L417 1536 L204 1270 L141 1270 L350 1536 Z " />
</g>
</glyph>
<glyph glyph-name="uni0156" unicode="&#x156;" horiz-adv-x="1297" >
<path fill="black" d="M217 1456 L716 1456 Q827 1456 921 1428.5 Q1015 1401 1083.5 1347.5 Q1152 1294 1190.5 1216 Q1229 1138 1229 1036 Q1229 958 1201 890.5 Q1173 823 1125 770.5 Q1077 718 1012.5 683.5 Q948 649 874 637 L1294 14 L1294 0 L1239 0 L821 623 L270 623 L270 0 L217 0 L217 1456 Z M270 677 L770 677 Q871 677 947 707.5 Q1023 738 1074 788.5 Q1125 839 1150.5 903.5 Q1176 968 1176 1036 Q1176 1122 1143.5 1190 Q1111 1258 1051 1305 Q991 1352 906 1377 Q821 1402 716 1402 L270 1402 L270 677 Z " />
<g transform="translate(346,-205)" >
<path fill="black" d="M-685 -460 Q-648 -411 -629.5 -364 Q-611 -317 -611 -252 L-611 -173 L-558 -173 L-558 -250 Q-558 -329 -583 -389 Q-608 -449 -649 -492 L-685 -460 Z " />
</g>
</glyph>
<glyph glyph-name="uni0157" unicode="&#x157;" horiz-adv-x="668" >
<path fill="black" d="M192 1082 L245 1082 L245 852 Q293 967 388.5 1034.5 Q484 1102 629 1102 Q656 1102 676.5 1099 Q697 1096 711 1091 L704 1043 Q687 1045 668.5 1047 Q650 1049 630 1049 Q548 1049 482.5 1023 Q417 997 369 951 Q321 905 290 842.5 Q259 780 245 706 L245 0 L192 0 L192 1082 Z " />
<g transform="translate(-45,-196)" >
<path fill="black" d="M-685 -460 Q-648 -411 -629.5 -364 Q-611 -317 -611 -252 L-611 -173 L-558 -173 L-558 -250 Q-558 -329 -583 -389 Q-608 -449 -649 -492 L-685 -460 Z " />
</g>
</glyph>
<glyph glyph-name="Rcaron" unicode="&#x158;" horiz-adv-x="1458" d="M217 1456 L716 1456 Q827 1456 921 1428.5 Q1015 1401 1083.5 1347.5 Q1152 1294 1190.5 1216 Q1229 1138 1229 1036 Q1229 958 1201 890.5 Q1173 823 1125 770.5 Q1077 718 1012.5 683.5 Q948 649 874 637 L1294 14 L1294 0 L1239 0 L821 623 L270 623 L270 0 L217 0 L217 1456 Z M270 677 L770 677 Q871 677 947 707.5 Q1023 738 1074 788.5 Q1125 839 1150.5 903.5 Q1176 968 1176 1036 Q1176 1122 1143.5 1190 Q1111 1258 1051 1305 Q991 1352 906 1377 Q821 1402 716 1402 L270 1402 L270 677 Z M626 1567 L390 1819 L390 1830 L447 1830 L657 1613 L867 1830 L919 1830 L919 1817 L686 1567 L626 1567 Z " />
<glyph glyph-name="rcaron" unicode="&#x159;" horiz-adv-x="749" >
<path fill="black" d="M192 1082 L245 1082 L245 852 Q293 967 388.5 1034.5 Q484 1102 629 1102 Q656 1102 676.5 1099 Q697 1096 711 1091 L704 1043 Q687 1045 668.5 1047 Q650 1049 630 1049 Q548 1049 482.5 1023 Q417 997 369 951 Q321 905 290 842.5 Q259 780 245 706 L245 0 L192 0 L192 1082 Z " />
<g transform="translate(19,2)" >
<path fill="black" d="M164 1495 L164 1506 L221 1506 L431 1289 L641 1506 L693 1506 L693 1493 L460 1243 L400 1243 L164 1495 Z " />
</g>
</glyph>
<glyph glyph-name="Sacute" unicode="&#x15a;" horiz-adv-x="1314" >
<path fill="black" d="M162 411 Q162 338 185 282 Q208 226 247.5 184 Q287 142 339.5 113.5 Q392 85 450 67 Q508 49 569 41.5 Q630 34 687 34 Q791 34 878.5 57 Q966 80 1029.5 121.5 Q1093 163 1128.5 221 Q1164 279 1164 349 Q1164 418 1138.5 471.5 Q1113 525 1055 568.5 Q997 612 904 648 Q811 684 677 718 Q557 748 461.5 782 Q366 816 299 861.5 Q232 907 196 969.5 Q160 1032 160 1120 Q160 1203 200 1269 Q240 1335 309.5 1381 Q379 1427 474 1451.5 Q569 1476 680 1476 Q793 1476 888.5 1445 Q984 1414 1053 1357.5 Q1122 1301 1161 1221.5 Q1200 1142 1200 1046 L1148 1046 Q1148 1127 1114 1195.5 Q1080 1264 1018.5 1314.5 Q957 1365 870.5 1393.5 Q784 1422 679 1422 Q567 1422 480.5 1397.5 Q394 1373 334.5 1331.5 Q275 1290 244 1235.5 Q213 1181 213 1122 Q213 1064 234.5 1014.5 Q256 965 310 922 Q364 879 457 841.5 Q550 804 692 770 Q807 742 903.5 707.5 Q1000 673 1070 624.5 Q1140 576 1179 509.5 Q1218 443 1218 351 Q1218 262 1176 193 Q1134 124 1061.5 76.5 Q989 29 892.5 4.5 Q796 -20 687 -20 Q620 -20 551.5 -10.5 Q483 -1 419 19.5 Q355 40 298.5 73 Q242 106 200 154 Q158 202 134 266 Q110 330 110 411 L162 411 Z " />
<g transform="translate(503,340)" >
<path fill="black" d="M350 1536 L417 1536 L204 1270 L141 1270 L350 1536 Z " />
</g>
</glyph>
<glyph glyph-name="sacute" unicode="&#x15b;" horiz-adv-x="1107" >
<path fill="black" d="M175 273 Q180 203 216.5 157 Q253 111 307 83.5 Q361 56 427 45 Q493 34 557 34 Q644 34 710 54 Q776 74 820.5 106 Q865 138 888 179.5 Q911 221 911 263 Q911 300 895.5 336.5 Q880 373 839.5 407.5 Q799 442 729.5 473.5 Q660 505 552 531 Q455 555 381.5 580.5 Q308 606 259 640.5 Q210 675 185 720.5 Q160 766 160 830 Q160 887 186.5 936.5 Q213 986 263 1022.5 Q313 1059 385 1080.5 Q457 1102 548 1102 Q646 1102 723 1080 Q800 1058 853.5 1017.5 Q907 977 935.5 920 Q964 863 964 794 L910 794 Q910 844 886 890 Q862 936 816 971 Q770 1006 702.5 1027 Q635 1048 548 1048 Q459 1048 395.5 1028.5 Q332 1009 291.5 978 Q251 947 232 908.5 Q213 870 213 832 Q213 792 226 758 Q239 724 277.5 693.5 Q316 663 385.5 635 Q455 607 569 578 Q670 553 744.5 524.5 Q819 496 868 459 Q917 422 940.5 374 Q964 326 964 262 Q964 199 935.5 147.5 Q907 96 854 58.5 Q801 21 725.5 0.5 Q650 -20 557 -20 Q452 -20 370.5 3.5 Q289 27 234 67 Q179 107 150.5 160 Q122 213 122 273 L175 273 Z " />
<g transform="translate(372,-3)" >
<path fill="black" d="M350 1536 L417 1536 L204 1270 L141 1270 L350 1536 Z " />
</g>
</glyph>
<glyph glyph-name="Scedilla" unicode="&#x15e;" horiz-adv-x="1314" d="M580 -396 Q624 -396 669.5 -388 Q715 -380 752.5 -362.5 Q790 -345 814 -318.5 Q838 -292 838 -255 Q838 -222 825 -200.5 Q812 -179 786 -165 Q760 -151 722 -143.5 Q684 -136 634 -131 L658 -20 Q561 -17 463 6.5 Q365 30 286.5 80.5 Q208 131 159 212 Q110 293 110 411 L162 411 Q162 338 185 282 Q208 226 247.5 184 Q287 142 339.5 113.5 Q392 85 450 67 Q508 49 569 41.5 Q630 34 687 34 Q791 34 878.5 57 Q966 80 1029.5 121.5 Q1093 163 1128.5 221 Q1164 279 1164 349 Q1164 418 1138.5 471.5 Q1113 525 1055 568.5 Q997 612 904 648 Q811 684 677 718 Q557 748 461.5 782 Q366 816 299 861.5 Q232 907 196 969.5 Q160 1032 160 1120 Q160 1203 200 1269 Q240 1335 309.5 1381 Q379 1427 474 1451.5 Q569 1476 680 1476 Q793 1476 888.5 1445 Q984 1414 1053 1357.5 Q1122 1301 1161 1221.5 Q1200 1142 1200 1046 L1148 1046 Q1148 1127 1114 1195.5 Q1080 1264 1018.5 1314.5 Q957 1365 870.5 1393.5 Q784 1422 679 1422 Q567 1422 480.5 1397.5 Q394 1373 334.5 1331.5 Q275 1290 244 1235.5 Q213 1181 213 1122 Q213 1064 234.5 1014.5 Q256 965 310 922 Q364 879 457 841.5 Q550 804 692 770 Q807 742 903.5 707.5 Q1000 673 1070 624.5 Q1140 576 1179 509.5 Q1218 443 1218 351 Q1218 264 1178.5 196.5 Q1139 129 1070 82 Q1001 35 909 9 Q817 -17 712 -20 L702 -86 Q738 -89 772.5 -99 Q807 -109 834 -128.5 Q861 -148 877.5 -179 Q894 -210 894 -255 Q894 -298 872.5 -333 Q851 -368 811.5 -393 Q772 -418 715 -431.5 Q658 -445 587 -445 L580 -396 Z " />
<glyph glyph-name="scedilla" unicode="&#x15f;" horiz-adv-x="1107" d="M449 -391 Q493 -391 538.5 -383 Q584 -375 621.5 -357.5 Q659 -340 683 -313.5 Q707 -287 707 -250 Q707 -217 694 -195.5 Q681 -174 655 -160 Q629 -146 591 -138.5 Q553 -131 503 -126 L526 -19 Q428 -16 352.5 8.5 Q277 33 226 73 Q175 113 148.5 164.5 Q122 216 122 273 L175 273 Q180 203 216.5 157 Q253 111 307 83.5 Q361 56 427 45 Q493 34 557 34 Q644 34 710 54 Q776 74 820.5 106 Q865 138 888 179.5 Q911 221 911 263 Q911 300 895.5 336.5 Q880 373 839.5 407.5 Q799 442 729.5 473.5 Q660 505 552 531 Q455 555 381.5 580.5 Q308 606 259 640.5 Q210 675 185 720.5 Q160 766 160 830 Q160 887 186.5 936.5 Q213 986 263 1022.5 Q313 1059 385 1080.5 Q457 1102 548 1102 Q646 1102 723 1080 Q800 1058 853.5 1017.5 Q907 977 935.5 920 Q964 863 964 794 L910 794 Q910 844 886 890 Q862 936 816 971 Q770 1006 702.5 1027 Q635 1048 548 1048 Q459 1048 395.5 1028.5 Q332 1009 291.5 978 Q251 947 232 908.5 Q213 870 213 832 Q213 792 226 758 Q239 724 277.5 693.5 Q316 663 385.5 635 Q455 607 569 578 Q670 553 744.5 524.5 Q819 496 868 459 Q917 422 940.5 374 Q964 326 964 262 Q964 201 937 150.5 Q910 100 860.5 63 Q811 26 740 4.5 Q669 -17 581 -20 L571 -81 Q607 -84 641.5 -94 Q676 -104 703 -123.5 Q730 -143 746.5 -174 Q763 -205 763 -250 Q763 -293 741.5 -328 Q720 -363 680.5 -388 Q641 -413 584 -426.5 Q527 -440 456 -440 L449 -391 Z " />
<glyph glyph-name="Scaron" unicode="&#x160;" horiz-adv-x="1314" >
<path fill="black" d="M162 411 Q162 338 185 282 Q208 226 247.5 184 Q287 142 339.5 113.5 Q392 85 450 67 Q508 49 569 41.5 Q630 34 687 34 Q791 34 878.5 57 Q966 80 1029.5 121.5 Q1093 163 1128.5 221 Q1164 279 1164 349 Q1164 418 1138.5 471.5 Q1113 525 1055 568.5 Q997 612 904 648 Q811 684 677 718 Q557 748 461.5 782 Q366 816 299 861.5 Q232 907 196 969.5 Q160 1032 160 1120 Q160 1203 200 1269 Q240 1335 309.5 1381 Q379 1427 474 1451.5 Q569 1476 680 1476 Q793 1476 888.5 1445 Q984 1414 1053 1357.5 Q1122 1301 1161 1221.5 Q1200 1142 1200 1046 L1148 1046 Q1148 1127 1114 1195.5 Q1080 1264 1018.5 1314.5 Q957 1365 870.5 1393.5 Q784 1422 679 1422 Q567 1422 480.5 1397.5 Q394 1373 334.5 1331.5 Q275 1290 244 1235.5 Q213 1181 213 1122 Q213 1064 234.5 1014.5 Q256 965 310 922 Q364 879 457 841.5 Q550 804 692 770 Q807 742 903.5 707.5 Q1000 673 1070 624.5 Q1140 576 1179 509.5 Q1218 443 1218 351 Q1218 262 1176 193 Q1134 124 1061.5 76.5 Q989 29 892.5 4.5 Q796 -20 687 -20 Q620 -20 551.5 -10.5 Q483 -1 419 19.5 Q355 40 298.5 73 Q242 106 200 154 Q158 202 134 266 Q110 330 110 411 L162 411 Z " />
<g transform="translate(254,345)" >
<path fill="black" d="M164 1495 L164 1506 L221 1506 L431 1289 L641 1506 L693 1506 L693 1493 L460 1243 L400 1243 L164 1495 Z " />
</g>
</glyph>
<glyph glyph-name="scaron" unicode="&#x161;" horiz-adv-x="1107" >
<path fill="black" d="M175 273 Q180 203 216.5 157 Q253 111 307 83.5 Q361 56 427 45 Q493 34 557 34 Q644 34 710 54 Q776 74 820.5 106 Q865 138 888 179.5 Q911 221 911 263 Q911 300 895.5 336.5 Q880 373 839.5 407.5 Q799 442 729.5 473.5 Q660 505 552 531 Q455 555 381.5 580.5 Q308 606 259 640.5 Q210 675 185 720.5 Q160 766 160 830 Q160 887 186.5 936.5 Q213 986 263 1022.5 Q313 1059 385 1080.5 Q457 1102 548 1102 Q646 1102 723 1080 Q800 1058 853.5 1017.5 Q907 977 935.5 920 Q964 863 964 794 L910 794 Q910 844 886 890 Q862 936 816 971 Q770 1006 702.5 1027 Q635 1048 548 1048 Q459 1048 395.5 1028.5 Q332 1009 291.5 978 Q251 947 232 908.5 Q213 870 213 832 Q213 792 226 758 Q239 724 277.5 693.5 Q316 663 385.5 635 Q455 607 569 578 Q670 553 744.5 524.5 Q819 496 868 459 Q917 422 940.5 374 Q964 326 964 262 Q964 199 935.5 147.5 Q907 96 854 58.5 Q801 21 725.5 0.5 Q650 -20 557 -20 Q452 -20 370.5 3.5 Q289 27 234 67 Q179 107 150.5 160 Q122 213 122 273 L175 273 Z " />
<g transform="translate(123,2)" >
<path fill="black" d="M164 1495 L164 1506 L221 1506 L431 1289 L641 1506 L693 1506 L693 1493 L460 1243 L400 1243 L164 1495 Z " />
</g>
</glyph>
<glyph glyph-name="uni0162" unicode="&#x162;" horiz-adv-x="1329" d="M558 -386 Q602 -386 647.5 -378 Q693 -370 730.5 -352.5 Q768 -335 792 -308.5 Q816 -282 816 -245 Q816 -212 803 -190.5 Q790 -169 764 -155 Q738 -141 700 -133.5 Q662 -126 612 -121 L638 0 L638 1402 L65 1402 L65 1456 L1264 1456 L1264 1402 L690 1402 L690 0 L692 0 L680 -76 Q716 -79 750.5 -89 Q785 -99 812 -118.5 Q839 -138 855.5 -169 Q872 -200 872 -245 Q872 -288 850.5 -323 Q829 -358 789.5 -383 Q750 -408 693 -421.5 Q636 -435 565 -435 L558 -386 Z " />
<glyph glyph-name="uni0163" unicode="&#x163;" horiz-adv-x="709" d="M343 -386 Q387 -386 432.5 -378 Q478 -370 515.5 -352.5 Q553 -335 577 -308.5 Q601 -282 601 -245 Q601 -212 588 -190.5 Q575 -169 549 -155 Q523 -141 485 -133.5 Q447 -126 397 -121 L420 -12 Q383 -4 354 15 Q325 34 305 66 Q285 98 274.5 145.5 Q264 193 264 259 L264 1027 L49 1027 L49 1082 L264 1082 L264 1374 L318 1374 L318 1082 L584 1082 L584 1027 L318 1027 L318 259 Q318 188 332.5 144 Q347 100 371 75.5 Q395 51 427 42.5 Q459 34 495 34 Q528 34 554 36.5 Q580 39 611 43 L621 -8 Q609 -12 593 -14 Q577 -16 560 -17.5 Q543 -19 527 -19.5 Q511 -20 500 -20 Q493 -20 486.5 -20 Q480 -20 474 -19 L465 -76 Q501 -79 535.5 -89 Q570 -99 597 -118.5 Q624 -138 640.5 -169 Q657 -200 657 -245 Q657 -288 635.5 -323 Q614 -358 574.5 -383 Q535 -408 478 -421.5 Q421 -435 350 -435 L343 -386 Z " />
<glyph glyph-name="Tcaron" unicode="&#x164;" horiz-adv-x="1329" d="M638 1402 L65 1402 L65 1456 L1264 1456 L1264 1402 L690 1402 L690 0 L638 0 L638 1402 Z M629 1559 L393 1811 L393 1822 L450 1822 L660 1605 L870 1822 L922 1822 L922 1809 L689 1559 L629 1559 Z " />
<glyph glyph-name="tcaron" unicode="&#x165;" horiz-adv-x="671" >
<path fill="black" d="M264 1027 L49 1027 L49 1082 L264 1082 L264 1374 L318 1374 L318 1082 L584 1082 L584 1027 L318 1027 L318 259 Q318 188 332.5 144 Q347 100 371 75.5 Q395 51 427 42.5 Q459 34 495 34 Q528 34 554 36.5 Q580 39 611 43 L621 -8 Q609 -12 593 -14 Q577 -16 560 -17.5 Q543 -19 527 -19.5 Q511 -20 500 -20 Q445 -20 401 -7 Q357 6 326.5 38 Q296 70 280 124 Q264 178 264 259 L264 1027 Z " />
<g transform="translate(288,1444)" >
<path fill="black" d="M-685 -460 Q-648 -411 -629.5 -364 Q-611 -317 -611 -252 L-611 -173 L-558 -173 L-558 -250 Q-558 -329 -583 -389 Q-608 -449 -649 -492 L-685 -460 Z " />
</g>
</glyph>
<glyph glyph-name="Tbar" unicode="&#x166;" horiz-adv-x="1329" d="M638 847 L329 847 L329 901 L638 901 L638 1402 L65 1402 L65 1456 L1264 1456 L1264 1402 L690 1402 L690 901 L959 901 L959 847 L690 847 L690 0 L638 0 L638 847 Z " />
<glyph glyph-name="tbar" unicode="&#x167;" horiz-adv-x="709" d="M264 634 L53 634 L53 688 L264 688 L264 1027 L49 1027 L49 1082 L264 1082 L264 1374 L318 1374 L318 1082 L584 1082 L584 1027 L318 1027 L318 688 L683 688 L683 634 L318 634 L318 259 Q318 188 332.5 144 Q347 100 371 75.5 Q395 51 427 42.5 Q459 34 495 34 Q528 34 554 36.5 Q580 39 611 43 L621 -8 Q609 -12 593 -14 Q577 -16 560 -17.5 Q543 -19 527 -19.5 Q511 -20 500 -20 Q445 -20 401 -7 Q357 6 326.5 38 Q296 70 280 124 Q264 178 264 259 L264 634 Z " />
<glyph glyph-name="Utilde" unicode="&#x168;" horiz-adv-x="1483" >
<path fill="black" d="M207 1456 L260 1456 L260 459 Q260 354 297 274 Q334 194 398.5 141 Q463 88 551 61 Q639 34 742 34 Q844 34 932 61 Q1020 88 1084.5 141 Q1149 194 1186 274 Q1223 354 1223 459 L1223 1456 L1275 1456 L1275 459 Q1275 336 1234.5 246 Q1194 156 1123 97 Q1052 38 954 9 Q856 -20 742 -20 Q628 -20 530 9 Q432 38 360 97 Q288 156 247.5 246 Q207 336 207 459 L207 1456 Z " />
<g transform="translate(322,334)" >
<path fill="black" d="M102 1286 Q102 1327 116.5 1360.5 Q131 1394 156 1417 Q181 1440 215.5 1452.5 Q250 1465 289 1465 Q346 1465 384.5 1445.5 Q423 1426 455.5 1403 Q488 1380 521 1360.5 Q554 1341 599 1341 Q626 1341 650 1349.5 Q674 1358 691.5 1375 Q709 1392 719.5 1416.5 Q730 1441 730 1472 L787 1472 Q787 1430 772.5 1396 Q758 1362 732.5 1337.5 Q707 1313 672.5 1299.5 Q638 1286 599 1286 Q541 1286 503 1305.5 Q465 1325 433.5 1348.5 Q402 1372 369.5 1391.5 Q337 1411 289 1411 Q234 1411 196 1380 Q158 1349 158 1286 L102 1286 Z " />
</g>
</glyph>
<glyph glyph-name="utilde" unicode="&#x169;" horiz-adv-x="1218" >
<path fill="black" d="M188 1082 L241 1082 L241 393 Q241 294 265.5 225.5 Q290 157 333.5 114.5 Q377 72 437 53 Q497 34 568 34 Q667 34 738.5 57.5 Q810 81 859 120.5 Q908 160 935.5 213 Q963 266 975 325 L975 1082 L1029 1082 L1029 425 L1032 425 Q1032 392 1029 362 L1029 0 L975 0 L975 179 Q924 88 824.5 34 Q725 -20 571 -20 Q486 -20 415 2.5 Q344 25 294 74.5 Q244 124 216 203 Q188 282 188 395 L188 1082 Z " />
<g transform="translate(196,15)" >
<path fill="black" d="M102 1286 Q102 1327 116.5 1360.5 Q131 1394 156 1417 Q181 1440 215.5 1452.5 Q250 1465 289 1465 Q346 1465 384.5 1445.5 Q423 1426 455.5 1403 Q488 1380 521 1360.5 Q554 1341 599 1341 Q626 1341 650 1349.5 Q674 1358 691.5 1375 Q709 1392 719.5 1416.5 Q730 1441 730 1472 L787 1472 Q787 1430 772.5 1396 Q758 1362 732.5 1337.5 Q707 1313 672.5 1299.5 Q638 1286 599 1286 Q541 1286 503 1305.5 Q465 1325 433.5 1348.5 Q402 1372 369.5 1391.5 Q337 1411 289 1411 Q234 1411 196 1380 Q158 1349 158 1286 L102 1286 Z " />
</g>
</glyph>
<glyph glyph-name="Umacron" unicode="&#x16a;" horiz-adv-x="1483" >
<path fill="black" d="M207 1456 L260 1456 L260 459 Q260 354 297 274 Q334 194 398.5 141 Q463 88 551 61 Q639 34 742 34 Q844 34 932 61 Q1020 88 1084.5 141 Q1149 194 1186 274 Q1223 354 1223 459 L1223 1456 L1275 1456 L1275 459 Q1275 336 1234.5 246 Q1194 156 1123 97 Q1052 38 954 9 Q856 -20 742 -20 Q628 -20 530 9 Q432 38 360 97 Q288 156 247.5 246 Q207 336 207 459 L207 1456 Z " />
<g transform="translate(308,330)" >
<path fill="black" d="M148 1383 L148 1436 L754 1436 L754 1383 L148 1383 Z " />
</g>
</glyph>
<glyph glyph-name="umacron" unicode="&#x16b;" horiz-adv-x="1218" d="M188 1082 L241 1082 L241 393 Q241 294 265.5 225.5 Q290 157 333.5 114.5 Q377 72 437 53 Q497 34 568 34 Q667 34 738.5 57.5 Q810 81 859 120.5 Q908 160 935.5 213 Q963 266 975 325 L975 1082 L1029 1082 L1029 425 L1032 425 Q1032 392 1029 362 L1029 0 L975 0 L975 179 Q924 88 824.5 34 Q725 -20 571 -20 Q486 -20 415 2.5 Q344 25 294 74.5 Q244 124 216 203 Q188 282 188 395 L188 1082 Z M330 1447 L936 1447 L936 1394 L330 1394 L330 1447 Z " />
<glyph glyph-name="Uring" unicode="&#x16e;" horiz-adv-x="1483" >
<path fill="black" d="M207 1456 L260 1456 L260 459 Q260 354 297 274 Q334 194 398.5 141 Q463 88 551 61 Q639 34 742 34 Q844 34 932 61 Q1020 88 1084.5 141 Q1149 194 1186 274 Q1223 354 1223 459 L1223 1456 L1275 1456 L1275 459 Q1275 336 1234.5 246 Q1194 156 1123 97 Q1052 38 954 9 Q856 -20 742 -20 Q628 -20 530 9 Q432 38 360 97 Q288 156 247.5 246 Q207 336 207 459 L207 1456 Z " />
<g transform="translate(444,319)" >
<path fill="black" d="M128 1382 Q128 1419 142.5 1450.5 Q157 1482 182.5 1505.5 Q208 1529 242.5 1542.5 Q277 1556 316 1556 Q355 1556 389 1542.5 Q423 1529 448.5 1505.5 Q474 1482 488.5 1450.5 Q503 1419 503 1382 Q503 1345 488.5 1314 Q474 1283 448.5 1260.5 Q423 1238 389 1225 Q355 1212 316 1212 Q277 1212 242.5 1225 Q208 1238 182.5 1260.5 Q157 1283 142.5 1314 Q128 1345 128 1382 Z M185 1382 Q185 1330 222 1298 Q259 1266 316 1266 Q373 1266 409 1298 Q445 1330 445 1382 Q445 1436 409 1469 Q373 1502 316 1502 Q259 1502 222 1469 Q185 1436 185 1382 Z " />
</g>
</glyph>
<glyph glyph-name="uring" unicode="&#x16f;" horiz-adv-x="1218" >
<path fill="black" d="M188 1082 L241 1082 L241 393 Q241 294 265.5 225.5 Q290 157 333.5 114.5 Q377 72 437 53 Q497 34 568 34 Q667 34 738.5 57.5 Q810 81 859 120.5 Q908 160 935.5 213 Q963 266 975 325 L975 1082 L1029 1082 L1029 425 L1032 425 Q1032 392 1029 362 L1029 0 L975 0 L975 179 Q924 88 824.5 34 Q725 -20 571 -20 Q486 -20 415 2.5 Q344 25 294 74.5 Q244 124 216 203 Q188 282 188 395 L188 1082 Z " />
<g transform="translate(318,0)" >
<path fill="black" d="M128 1382 Q128 1419 142.5 1450.5 Q157 1482 182.5 1505.5 Q208 1529 242.5 1542.5 Q277 1556 316 1556 Q355 1556 389 1542.5 Q423 1529 448.5 1505.5 Q474 1482 488.5 1450.5 Q503 1419 503 1382 Q503 1345 488.5 1314 Q474 1283 448.5 1260.5 Q423 1238 389 1225 Q355 1212 316 1212 Q277 1212 242.5 1225 Q208 1238 182.5 1260.5 Q157 1283 142.5 1314 Q128 1345 128 1382 Z M185 1382 Q185 1330 222 1298 Q259 1266 316 1266 Q373 1266 409 1298 Q445 1330 445 1382 Q445 1436 409 1469 Q373 1502 316 1502 Q259 1502 222 1469 Q185 1436 185 1382 Z " />
</g>
</glyph>
<glyph glyph-name="Uhungarumlaut" unicode="&#x170;" horiz-adv-x="1483" d="M207 1456 L260 1456 L260 459 Q260 354 297 274 Q334 194 398.5 141 Q463 88 551 61 Q639 34 742 34 Q844 34 932 61 Q1020 88 1084.5 141 Q1149 194 1186 274 Q1223 354 1223 459 L1223 1456 L1275 1456 L1275 459 Q1275 336 1234.5 246 Q1194 156 1123 97 Q1052 38 954 9 Q856 -20 742 -20 Q628 -20 530 9 Q432 38 360 97 Q288 156 247.5 246 Q207 336 207 459 L207 1456 Z M1117 1855 L1198 1855 L887 1551 L813 1551 L1117 1855 Z M818 1855 L895 1855 L632 1551 L561 1551 L818 1855 Z " />
<glyph glyph-name="uhungarumlaut" unicode="&#x171;" horiz-adv-x="1218" d="M188 1082 L241 1082 L241 393 Q241 294 265.5 225.5 Q290 157 333.5 114.5 Q377 72 437 53 Q497 34 568 34 Q667 34 738.5 57.5 Q810 81 859 120.5 Q908 160 935.5 213 Q963 266 975 325 L975 1082 L1029 1082 L1029 425 L1032 425 Q1032 392 1029 362 L1029 0 L975 0 L975 179 Q924 88 824.5 34 Q725 -20 571 -20 Q486 -20 415 2.5 Q344 25 294 74.5 Q244 124 216 203 Q188 282 188 395 L188 1082 Z M687 1232 L991 1536 L1072 1536 L761 1232 L687 1232 Z M692 1536 L769 1536 L506 1232 L435 1232 L692 1536 Z " />
<glyph glyph-name="Uogonek" unicode="&#x172;" horiz-adv-x="1483" d="M207 1456 L260 1456 L260 459 Q260 354 297 274 Q334 194 398.5 141 Q463 88 551 61 Q639 34 742 34 Q844 34 932 61 Q1020 88 1084.5 141 Q1149 194 1186 274 Q1223 354 1223 459 L1223 1456 L1275 1456 L1275 459 Q1275 375 1256 306.5 Q1237 238 1201.5 184.5 Q1166 131 1116 91.5 Q1066 52 1004 27 Q967 0 932 -28 Q897 -56 870 -85.5 Q843 -115 826.5 -146.5 Q810 -178 810 -213 Q810 -231 814.5 -248.5 Q819 -266 830.5 -279 Q842 -292 861.5 -300 Q881 -308 911 -308 Q954 -308 981.5 -295.5 Q1009 -283 1029 -270 L1047 -318 Q1027 -333 994.5 -347.5 Q962 -362 913 -362 Q841 -362 799 -325.5 Q757 -289 757 -213 Q757 -187 768 -160 Q779 -133 797.5 -107 Q816 -81 840.5 -55.5 Q865 -30 892 -6 Q819 -20 742 -20 Q628 -20 530 9 Q432 38 360 97 Q288 156 247.5 246 Q207 336 207 459 L207 1456 Z " />
<glyph glyph-name="uogonek" unicode="&#x173;" horiz-adv-x="1218" d="M188 1082 L241 1082 L241 393 Q241 294 265.5 225.5 Q290 157 333.5 114.5 Q377 72 437 53 Q497 34 568 34 Q667 34 738.5 57.5 Q810 81 859 120.5 Q908 160 935.5 213 Q963 266 975 325 L975 1082 L1029 1082 L1029 425 L1032 425 Q1032 392 1029 362 L1029 0 L1028 0 Q989 -28 952.5 -56.5 Q916 -85 887.5 -115 Q859 -145 842 -177.5 Q825 -210 825 -246 Q825 -264 829.5 -281.5 Q834 -299 845.5 -312 Q857 -325 876.5 -333 Q896 -341 926 -341 Q969 -341 996.5 -328.5 Q1024 -316 1044 -303 L1062 -351 Q1042 -366 1009.5 -380.5 Q977 -395 928 -395 Q856 -395 814 -358.5 Q772 -322 772 -246 Q772 -212 790 -177 Q808 -142 836.5 -108.5 Q865 -75 901.5 -44 Q938 -13 975 14 L975 179 Q924 88 824.5 34 Q725 -20 571 -20 Q486 -20 415 2.5 Q344 25 294 74.5 Q244 124 216 203 Q188 282 188 395 L188 1082 Z " />
<glyph glyph-name="Wcircumflex" unicode="&#x174;" horiz-adv-x="2010" >
<path fill="black" d="M72 1456 L131 1456 L459 330 L532 88 L603 330 L976 1456 L1036 1456 L1407 330 L1478 87 L1552 330 L1879 1456 L1936 1456 L1513 0 L1451 0 L1451 2 L1061 1214 L1005 1372 L951 1214 L558 2 L558 0 L497 0 L72 1456 Z " />
<g transform="translate(566,319)" >
<path fill="black" d="M169 1278 L416 1517 L456 1517 L707 1274 L707 1264 L637 1264 L435 1460 L234 1264 L169 1264 L169 1278 Z " />
</g>
</glyph>
<glyph glyph-name="wcircumflex" unicode="&#x175;" horiz-adv-x="1681" >
<path fill="black" d="M98 1082 L159 1082 L396 313 L464 75 L547 313 L807 1082 L863 1082 L1122 313 L1205 75 L1273 313 L1509 1082 L1572 1082 L1233 0 L1178 0 L893 813 L834 1013 L772 813 L489 0 L435 0 L98 1082 Z " />
<g transform="translate(396,0)" >
<path fill="black" d="M169 1278 L416 1517 L456 1517 L707 1274 L707 1264 L637 1264 L435 1460 L234 1264 L169 1264 L169 1278 Z " />
</g>
</glyph>
<glyph glyph-name="Ycircumflex" unicode="&#x176;" horiz-adv-x="1328" >
<path fill="black" d="M635 553 L43 1456 L114 1456 L662 602 L1216 1456 L1280 1456 L688 553 L688 0 L635 0 L635 553 Z " />
<g transform="translate(224,308)" >
<path fill="black" d="M169 1278 L416 1517 L456 1517 L707 1274 L707 1264 L637 1264 L435 1460 L234 1264 L169 1264 L169 1278 Z " />
</g>
</glyph>
<glyph glyph-name="ycircumflex" unicode="&#x177;" horiz-adv-x="1065" >
<path fill="black" d="M111 -375 Q119 -377 130.5 -378.5 Q142 -380 154 -381.5 Q166 -383 176 -383.5 Q186 -384 191 -384 Q245 -384 285 -368 Q325 -352 355 -323.5 Q385 -295 407 -256 Q429 -217 448 -170 L519 7 L53 1082 L110 1082 L549 82 L558 104 L963 1082 L1021 1082 L502 -180 Q488 -214 468.5 -258.5 Q449 -303 415.5 -342.5 Q382 -382 330 -409.5 Q278 -437 198 -437 Q189 -437 177 -436.5 Q165 -436 152.5 -434.5 Q140 -433 129 -431 Q118 -429 112 -426 L111 -375 Z " />
<g transform="translate(129,0)" >
<path fill="black" d="M169 1278 L416 1517 L456 1517 L707 1274 L707 1264 L637 1264 L435 1460 L234 1264 L169 1264 L169 1278 Z " />
</g>
</glyph>
<glyph glyph-name="Ydieresis" unicode="&#x178;" horiz-adv-x="1328" >
<path fill="black" d="M635 553 L43 1456 L114 1456 L662 602 L1216 1456 L1280 1456 L688 553 L688 0 L635 0 L635 553 Z " />
<g transform="translate(190,1680)" >
<path fill="black" d="M165 49 Q165 72 182 88.5 Q199 105 222 105 Q246 105 263 88.5 Q280 72 280 49 Q280 26 263 10 Q246 -6 222 -6 Q199 -6 182 10 Q165 26 165 49 Z " />
</g>
<g transform="translate(684,1680)" >
<path fill="black" d="M165 49 Q165 72 182 88.5 Q199 105 222 105 Q246 105 263 88.5 Q280 72 280 49 Q280 26 263 10 Q246 -6 222 -6 Q199 -6 182 10 Q165 26 165 49 Z " />
</g>
</glyph>
<glyph glyph-name="Zacute" unicode="&#x179;" horiz-adv-x="1329" >
<path fill="black" d="M107 44 L1109 1403 L152 1403 L152 1456 L1187 1456 L1187 1418 L183 54 L1221 54 L1221 0 L107 0 L107 44 Z " />
<g transform="translate(478,319)" >
<path fill="black" d="M350 1536 L417 1536 L204 1270 L141 1270 L350 1536 Z " />
</g>
</glyph>
<glyph glyph-name="zacute" unicode="&#x17a;" horiz-adv-x="1063" >
<path fill="black" d="M99 44 L866 1027 L134 1027 L134 1082 L941 1082 L941 1034 L175 54 L1006 54 L1006 0 L99 0 L99 44 Z " />
<g transform="translate(371,0)" >
<path fill="black" d="M350 1536 L417 1536 L204 1270 L141 1270 L350 1536 Z " />
</g>
</glyph>
<glyph glyph-name="Zdotaccent" unicode="&#x17b;" horiz-adv-x="1329" >
<path fill="black" d="M107 44 L1109 1403 L152 1403 L152 1456 L1187 1456 L1187 1418 L183 54 L1221 54 L1221 0 L107 0 L107 44 Z " />
<g transform="translate(437,1667)" >
<path fill="black" d="M165 49 Q165 72 182 88.5 Q199 105 222 105 Q246 105 263 88.5 Q280 72 280 49 Q280 26 263 10 Q246 -6 222 -6 Q199 -6 182 10 Q165 26 165 49 Z " />
</g>
</glyph>
<glyph glyph-name="zdotaccent" unicode="&#x17c;" horiz-adv-x="1063" >
<path fill="black" d="M99 44 L866 1027 L134 1027 L134 1082 L941 1082 L941 1034 L175 54 L1006 54 L1006 0 L99 0 L99 44 Z " />
<g transform="translate(330,1348)" >
<path fill="black" d="M165 49 Q165 72 182 88.5 Q199 105 222 105 Q246 105 263 88.5 Q280 72 280 49 Q280 26 263 10 Q246 -6 222 -6 Q199 -6 182 10 Q165 26 165 49 Z " />
</g>
</glyph>
<glyph glyph-name="Zcaron" unicode="&#x17d;" horiz-adv-x="1329" d="M107 44 L1109 1403 L152 1403 L152 1456 L1187 1456 L1187 1418 L183 54 L1221 54 L1221 0 L107 0 L107 44 Z M629 1567 L393 1819 L393 1830 L450 1830 L660 1613 L870 1830 L922 1830 L922 1817 L689 1567 L629 1567 Z " />
<glyph glyph-name="zcaron" unicode="&#x17e;" horiz-adv-x="1063" d="M99 44 L866 1027 L134 1027 L134 1082 L941 1082 L941 1034 L175 54 L1006 54 L1006 0 L99 0 L99 44 Z M522 1248 L286 1500 L286 1511 L343 1511 L553 1294 L763 1511 L815 1511 L815 1498 L582 1248 L522 1248 Z " />
<glyph glyph-name="florin" unicode="&#x192;" horiz-adv-x="703" d="M-80 -365 Q-63 -371 -33.5 -377 Q-4 -383 26 -383 Q149 -383 214.5 -307 Q280 -231 280 -89 L280 1027 L77 1027 L77 1082 L280 1082 L280 1236 Q280 1392 359.5 1474.5 Q439 1557 581 1557 Q615 1557 650 1553.5 Q685 1550 719 1540 L711 1488 Q680 1496 653 1499.5 Q626 1503 582 1503 Q466 1503 399 1433.5 Q332 1364 332 1236 L332 1082 L643 1082 L643 1027 L332 1027 L332 -89 Q332 -259 252 -348 Q172 -437 26 -437 Q-6 -437 -34 -432 Q-62 -427 -94 -417 L-80 -365 Z " />
<glyph glyph-name="Ohorn" unicode="&#x1a0;" horiz-adv-x="1403" d="M188 857 Q188 997 229 1111.5 Q270 1226 346.5 1307 Q423 1388 531 1432 Q639 1476 774 1476 Q936 1476 1059 1413.5 Q1182 1351 1258 1238 Q1339 1240 1390.5 1261 Q1442 1282 1471.5 1320.5 Q1501 1359 1512 1414.5 Q1523 1470 1523 1541 L1577 1541 Q1577 1460 1562 1396.5 Q1547 1333 1513 1288 Q1479 1243 1424 1217.5 Q1369 1192 1289 1186 Q1325 1117 1344 1034.5 Q1363 952 1363 857 L1363 599 Q1363 459 1322 344.5 Q1281 230 1204.5 149 Q1128 68 1019.5 24 Q911 -20 776 -20 Q641 -20 532.5 24 Q424 68 347.5 149 Q271 230 229.5 344.5 Q188 459 188 599 L188 857 Z M241 599 Q241 473 277 368.5 Q313 264 381.5 190 Q450 116 549.5 75 Q649 34 776 34 Q904 34 1003.5 75 Q1103 116 1171.5 190 Q1240 264 1275.5 368.5 Q1311 473 1311 599 L1311 859 Q1311 985 1275 1088.5 Q1239 1192 1170 1266 Q1101 1340 1001.5 1381 Q902 1422 774 1422 Q647 1422 548 1381 Q449 1340 380.5 1266 Q312 1192 276.5 1088.5 Q241 985 241 859 L241 599 Z " />
<glyph glyph-name="ohorn" unicode="&#x1a1;" horiz-adv-x="1087" d="M107 572 Q107 691 143.5 788.5 Q180 886 246.5 956 Q313 1026 405.5 1064 Q498 1102 610 1102 Q725 1102 819 1063.5 Q913 1025 979 953 Q1047 955 1089.5 972.5 Q1132 990 1155.5 1021 Q1179 1052 1187 1096 Q1195 1140 1195 1196 L1250 1196 Q1250 1131 1238.5 1079.5 Q1227 1028 1200 991 Q1173 954 1129 931.5 Q1085 909 1020 902 Q1066 836 1090.5 753 Q1115 670 1115 572 L1115 510 Q1115 391 1079 293.5 Q1043 196 977 126 Q911 56 818.5 18 Q726 -20 613 -20 Q500 -20 406.5 18 Q313 56 246.5 126 Q180 196 143.5 293.5 Q107 391 107 510 L107 572 Z M160 510 Q160 413 190 326.5 Q220 240 278 175 Q336 110 420.5 72 Q505 34 613 34 Q720 34 804 72 Q888 110 945.5 175 Q1003 240 1033 326.5 Q1063 413 1063 510 L1063 572 Q1063 667 1032.5 753 Q1002 839 944.5 904.5 Q887 970 802.5 1009 Q718 1048 610 1048 Q503 1048 419 1009 Q335 970 277.5 904.5 Q220 839 190 753 Q160 667 160 572 L160 510 Z " />
<glyph glyph-name="Uhorn" unicode="&#x1af;" horiz-adv-x="1321" d="M209 1456 L262 1456 L262 459 Q262 354 299 274 Q336 194 400.5 141 Q465 88 553 61 Q641 34 744 34 Q846 34 934 61 Q1022 88 1086.5 141 Q1151 194 1188 274 Q1225 354 1225 459 L1225 1456 L1277 1456 L1277 1249 Q1353 1252 1401.5 1273.5 Q1450 1295 1478 1333.5 Q1506 1372 1517 1426.5 Q1528 1481 1528 1551 L1581 1551 Q1581 1467 1565.5 1402.5 Q1550 1338 1514 1293 Q1478 1248 1420 1223 Q1362 1198 1277 1195 L1277 459 Q1277 336 1236.5 246 Q1196 156 1125 97 Q1054 38 956 9 Q858 -20 744 -20 Q630 -20 532 9 Q434 38 362 97 Q290 156 249.5 246 Q209 336 209 459 L209 1456 Z " />
<glyph glyph-name="uhorn" unicode="&#x1b0;" horiz-adv-x="1098" d="M190 1082 L243 1082 L243 393 Q243 294 267.5 225.5 Q292 157 335.5 114.5 Q379 72 439 53 Q499 34 570 34 Q669 34 740.5 57.5 Q812 81 861 120.5 Q910 160 937.5 213 Q965 266 977 325 L977 1082 L1031 1082 L1031 948 Q1091 953 1128.5 971.5 Q1166 990 1187 1020.5 Q1208 1051 1215.5 1093.5 Q1223 1136 1223 1190 L1279 1190 Q1279 1123 1266.5 1070 Q1254 1017 1225 979.5 Q1196 942 1148.5 920.5 Q1101 899 1031 894 L1031 425 L1034 425 Q1034 392 1031 362 L1031 0 L977 0 L977 179 Q926 88 826.5 34 Q727 -20 573 -20 Q488 -20 417 2.5 Q346 25 296 74.5 Q246 124 218 203 Q190 282 190 395 L190 1082 Z " />
<glyph glyph-name="uni0218" unicode="&#x218;" horiz-adv-x="1173" >
<path fill="black" d="M162 411 Q162 338 185 282 Q208 226 247.5 184 Q287 142 339.5 113.5 Q392 85 450 67 Q508 49 569 41.5 Q630 34 687 34 Q791 34 878.5 57 Q966 80 1029.5 121.5 Q1093 163 1128.5 221 Q1164 279 1164 349 Q1164 418 1138.5 471.5 Q1113 525 1055 568.5 Q997 612 904 648 Q811 684 677 718 Q557 748 461.5 782 Q366 816 299 861.5 Q232 907 196 969.5 Q160 1032 160 1120 Q160 1203 200 1269 Q240 1335 309.5 1381 Q379 1427 474 1451.5 Q569 1476 680 1476 Q793 1476 888.5 1445 Q984 1414 1053 1357.5 Q1122 1301 1161 1221.5 Q1200 1142 1200 1046 L1148 1046 Q1148 1127 1114 1195.5 Q1080 1264 1018.5 1314.5 Q957 1365 870.5 1393.5 Q784 1422 679 1422 Q567 1422 480.5 1397.5 Q394 1373 334.5 1331.5 Q275 1290 244 1235.5 Q213 1181 213 1122 Q213 1064 234.5 1014.5 Q256 965 310 922 Q364 879 457 841.5 Q550 804 692 770 Q807 742 903.5 707.5 Q1000 673 1070 624.5 Q1140 576 1179 509.5 Q1218 443 1218 351 Q1218 262 1176 193 Q1134 124 1061.5 76.5 Q989 29 892.5 4.5 Q796 -20 687 -20 Q620 -20 551.5 -10.5 Q483 -1 419 19.5 Q355 40 298.5 73 Q242 106 200 154 Q158 202 134 266 Q110 330 110 411 L162 411 Z " />
<g transform="translate(371,-225)" >
<path fill="black" d="M-685 -460 Q-648 -411 -629.5 -364 Q-611 -317 -611 -252 L-611 -173 L-558 -173 L-558 -250 Q-558 -329 -583 -389 Q-608 -449 -649 -492 L-685 -460 Z " />
</g>
</glyph>
<glyph glyph-name="uni0219" unicode="&#x219;" horiz-adv-x="988" >
<path fill="black" d="M175 273 Q180 203 216.5 157 Q253 111 307 83.5 Q361 56 427 45 Q493 34 557 34 Q644 34 710 54 Q776 74 820.5 106 Q865 138 888 179.5 Q911 221 911 263 Q911 300 895.5 336.5 Q880 373 839.5 407.5 Q799 442 729.5 473.5 Q660 505 552 531 Q455 555 381.5 580.5 Q308 606 259 640.5 Q210 675 185 720.5 Q160 766 160 830 Q160 887 186.5 936.5 Q213 986 263 1022.5 Q313 1059 385 1080.5 Q457 1102 548 1102 Q646 1102 723 1080 Q800 1058 853.5 1017.5 Q907 977 935.5 920 Q964 863 964 794 L910 794 Q910 844 886 890 Q862 936 816 971 Q770 1006 702.5 1027 Q635 1048 548 1048 Q459 1048 395.5 1028.5 Q332 1009 291.5 978 Q251 947 232 908.5 Q213 870 213 832 Q213 792 226 758 Q239 724 277.5 693.5 Q316 663 385.5 635 Q455 607 569 578 Q670 553 744.5 524.5 Q819 496 868 459 Q917 422 940.5 374 Q964 326 964 262 Q964 199 935.5 147.5 Q907 96 854 58.5 Q801 21 725.5 0.5 Q650 -20 557 -20 Q452 -20 370.5 3.5 Q289 27 234 67 Q179 107 150.5 160 Q122 213 122 273 L175 273 Z " />
<g transform="translate(255,-220)" >
<path fill="black" d="M-685 -460 Q-648 -411 -629.5 -364 Q-611 -317 -611 -252 L-611 -173 L-558 -173 L-558 -250 Q-558 -329 -583 -389 Q-608 -449 -649 -492 L-685 -460 Z " />
</g>
</glyph>
<glyph glyph-name="uni021A" unicode="&#x21a;" horiz-adv-x="1185" >
<path fill="black" d="M638 1402 L65 1402 L65 1456 L1264 1456 L1264 1402 L690 1402 L690 0 L638 0 L638 1402 Z " />
<g transform="translate(351,-215)" >
<path fill="black" d="M-685 -460 Q-648 -411 -629.5 -364 Q-611 -317 -611 -252 L-611 -173 L-558 -173 L-558 -250 Q-558 -329 -583 -389 Q-608 -449 -649 -492 L-685 -460 Z " />
</g>
</glyph>
<glyph glyph-name="uni021B" unicode="&#x21b;" horiz-adv-x="632" >
<path fill="black" d="M264 1027 L49 1027 L49 1082 L264 1082 L264 1374 L318 1374 L318 1082 L584 1082 L584 1027 L318 1027 L318 259 Q318 188 332.5 144 Q347 100 371 75.5 Q395 51 427 42.5 Q459 34 495 34 Q528 34 554 36.5 Q580 39 611 43 L621 -8 Q609 -12 593 -14 Q577 -16 560 -17.5 Q543 -19 527 -19.5 Q511 -20 500 -20 Q445 -20 401 -7 Q357 6 326.5 38 Q296 70 280 124 Q264 178 264 259 L264 1027 Z " />
<g transform="translate(160,-215)" >
<path fill="black" d="M-685 -460 Q-648 -411 -629.5 -364 Q-611 -317 -611 -252 L-611 -173 L-558 -173 L-558 -250 Q-558 -329 -583 -389 Q-608 -449 -649 -492 L-685 -460 Z " />
</g>
</glyph>
<glyph glyph-name="uni0298" unicode="&#x298;" horiz-adv-x="1320" d="M154 857 Q154 997 195 1111.5 Q236 1226 312.5 1307 Q389 1388 497 1432 Q605 1476 740 1476 Q875 1476 983.5 1432 Q1092 1388 1169 1307 Q1246 1226 1287.5 1111.5 Q1329 997 1329 857 L1329 599 Q1329 459 1288 344.5 Q1247 230 1170.5 149 Q1094 68 985.5 24 Q877 -20 742 -20 Q607 -20 498.5 24 Q390 68 313.5 149 Q237 230 195.5 344.5 Q154 459 154 599 L154 857 Z M207 599 Q207 473 243 368.5 Q279 264 347.5 190 Q416 116 515.5 75 Q615 34 742 34 Q870 34 969.5 75 Q1069 116 1137.5 190 Q1206 264 1241.5 368.5 Q1277 473 1277 599 L1277 859 Q1277 985 1241 1088.5 Q1205 1192 1136 1266 Q1067 1340 967.5 1381 Q868 1422 740 1422 Q613 1422 514 1381 Q415 1340 346.5 1266 Q278 1192 242.5 1088.5 Q207 985 207 859 L207 599 Z M682 728 Q682 751 699 767.5 Q716 784 739 784 Q763 784 779.5 767.5 Q796 751 796 728 Q796 705 779.5 689 Q763 673 739 673 Q716 673 699 689 Q682 705 682 728 Z " />
<glyph glyph-name="uni02AA" unicode="&#x2aa;" horiz-adv-x="1157" d="M210 1536 L264 1536 L264 259 Q264 227 267 200 Q371 121 490 77 Q609 33 757 33 Q838 33 901.5 53.5 Q965 74 1008.5 107 Q1052 140 1074.5 181.5 Q1097 223 1097 265 Q1097 302 1082 340 Q1067 378 1027 413.5 Q987 449 917 479.5 Q847 510 738 532 Q641 552 567 575.5 Q493 599 444 633.5 Q395 668 370 715.5 Q345 763 345 829 Q345 886 371.5 935.5 Q398 985 448 1022 Q498 1059 570 1080.5 Q642 1102 733 1102 Q831 1102 908 1079.5 Q985 1057 1038 1016.5 Q1091 976 1119.5 919 Q1148 862 1148 793 L1095 793 Q1095 843 1071 889.5 Q1047 936 1001 971 Q955 1006 887.5 1027 Q820 1048 733 1048 Q643 1048 579.5 1028.5 Q516 1009 475.5 977.5 Q435 946 416 907.5 Q397 869 397 831 Q397 787 410.5 751 Q424 715 463 684.5 Q502 654 572 628.5 Q642 603 754 579 Q855 558 929.5 530.5 Q1004 503 1053 465.5 Q1102 428 1125.5 379 Q1149 330 1149 264 Q1149 201 1121 149 Q1093 97 1041.5 59 Q990 21 917.5 0 Q845 -21 757 -21 Q705 -21 657.5 -15.5 Q610 -10 565 0 L567 -8 Q555 -12 539 -14 Q523 -16 506 -17.5 Q489 -19 473 -19.5 Q457 -20 446 -20 Q391 -20 347 -7 Q303 6 272.5 38 Q242 70 226 124 Q210 178 210 259 L210 1536 Z M289 115 Q313 66 353.5 50 Q394 34 441 34 L450 34 Q399 53 358.5 74 Q318 95 289 115 Z " />
<glyph glyph-name="uni02AD" unicode="&#x2ad;" horiz-adv-x="1036" d="M137 581 L899 581 L899 0 L844 0 L844 527 L191 527 L191 0 L137 0 L137 581 Z M137 1455 L899 1455 L899 874 L844 874 L844 1401 L191 1401 L191 874 L137 874 L137 1455 Z " />
<glyph glyph-name="uni02AF" unicode="&#x2af;" horiz-adv-x="1510" d="M368 754 Q368 824 358.5 879 Q349 934 325.5 971.5 Q302 1009 262 1028.5 Q222 1048 161 1048 Q130 1048 100 1042 Q70 1036 53 1030 L38 1082 Q70 1092 98 1097 Q126 1102 159 1102 Q232 1102 282 1079.5 Q332 1057 363 1012.5 Q394 968 407.5 903 Q421 838 421 754 L421 422 Q421 307 444.5 232 Q468 157 510 112.5 Q552 68 611 50.5 Q670 33 741 33 Q837 33 909 69 Q981 105 1031 159 Q1081 213 1111.5 276 Q1142 339 1154 392 L1154 1082 L1207 1082 L1207 -89 Q1207 -159 1216.5 -214 Q1226 -269 1250 -306.5 Q1274 -344 1314 -363.5 Q1354 -383 1414 -383 Q1445 -383 1475 -377 Q1505 -371 1522 -365 L1537 -417 Q1505 -427 1477 -432 Q1449 -437 1416 -437 Q1344 -437 1294 -414.5 Q1244 -392 1213 -347.5 Q1182 -303 1168 -238 Q1154 -173 1154 -89 L1154 259 Q1128 201 1087.5 150 Q1047 99 994 61 Q941 23 876.5 1.5 Q812 -20 738 -20 Q650 -20 581 5 Q512 30 464.5 83 Q417 136 392.5 220 Q368 304 368 422 L368 754 Z " />
<glyph glyph-name="uni02B5" unicode="&#x2b5;" horiz-adv-x="675" d="M49 694 Q61 692 79 691 Q97 690 123 690 Q173 690 218 708.5 Q263 727 300 760 Q337 793 363.5 839 Q390 885 402 939 L402 1456 L455 1456 L455 527 Q455 436 535 436 Q554 436 576.5 438.5 Q599 441 626 449 L626 396 Q599 388 572 385 Q545 382 523 382 Q460 382 431 422 Q402 462 402 525 L402 817 Q359 736 286.5 688.5 Q214 641 124 641 Q76 641 49 646 L49 694 Z " />
<glyph glyph-name="uni02B9" unicode="&#x2b9;" horiz-adv-x="373" d="M223 1560 L277 1560 L146 1122 L95 1122 L223 1560 Z " />
<glyph glyph-name="uni02BA" unicode="&#x2ba;" horiz-adv-x="550" >
<g transform="translate(2,0)" >
<path fill="black" d="M223 1560 L277 1560 L146 1122 L95 1122 L223 1560 Z " />
</g>
<g transform="translate(163,0)" >
<path fill="black" d="M223 1560 L277 1560 L146 1122 L95 1122 L223 1560 Z " />
</g>
</glyph>
<glyph glyph-name="uni02BB" unicode="&#x2bb;" horiz-adv-x="332" d="M92 1296 Q92 1389 122.5 1458 Q153 1527 203 1578 L240 1546 Q216 1517 198 1489 Q180 1461 168.5 1431.5 Q157 1402 151 1369.5 Q145 1337 145 1298 L145 1128 L92 1128 L92 1296 Z " />
<glyph glyph-name="uni02BC" unicode="&#x2bc;" horiz-adv-x="352" d="M93 1183 Q117 1212 135 1240 Q153 1268 164.5 1297.5 Q176 1327 182 1359.5 Q188 1392 188 1431 L188 1536 L240 1536 L240 1433 Q240 1340 209.5 1271 Q179 1202 129 1151 L93 1183 Z " />
<glyph glyph-name="uni02BD" unicode="&#x2bd;" horiz-adv-x="332" d="M203 1128 Q153 1179 122.5 1248 Q92 1317 92 1410 L92 1578 L145 1578 L145 1408 Q145 1369 151 1336.5 Q157 1304 168.5 1274.5 Q180 1245 198 1217 Q216 1189 240 1160 L203 1128 Z " />
<glyph glyph-name="uni02BE" unicode="&#x2be;" horiz-adv-x="328" d="M94 1259 Q129 1259 151.5 1281 Q174 1303 174 1338 Q174 1374 151.5 1397 Q129 1420 94 1420 L94 1477 Q123 1477 148.5 1466 Q174 1455 193 1436 Q212 1417 223 1392 Q234 1367 234 1338 Q234 1310 223 1285 Q212 1260 193 1242 Q174 1224 148.5 1213.5 Q123 1203 94 1203 L94 1259 Z " />
<glyph glyph-name="uni02BF" unicode="&#x2bf;" horiz-adv-x="328" d="M234 1203 Q206 1203 180.5 1213.5 Q155 1224 135.5 1242 Q116 1260 105 1285 Q94 1310 94 1338 Q94 1367 105 1392 Q116 1417 135.5 1436 Q155 1455 180.5 1466 Q206 1477 234 1477 L234 1420 Q199 1420 176 1397 Q153 1374 153 1338 Q153 1303 176 1281 Q199 1259 234 1259 L234 1203 Z " />
<glyph glyph-name="uni02C0" unicode="&#x2c0;" horiz-adv-x="812" d="M341 952 L368 952 Q448 952 504.5 980 Q561 1008 596.5 1057 Q632 1106 648.5 1172 Q665 1238 665 1313 L665 1407 Q665 1482 646 1545 Q627 1608 590 1654 Q553 1700 497.5 1726 Q442 1752 369 1752 Q321 1752 275 1739 Q229 1726 191.5 1699 Q154 1672 130.5 1629.5 Q107 1587 104 1527 L50 1527 Q53 1596 80 1648 Q107 1700 150.5 1735.5 Q194 1771 251 1788.5 Q308 1806 369 1806 Q452 1806 517 1776.5 Q582 1747 627 1694 Q672 1641 695.5 1568 Q719 1495 719 1407 L719 1313 Q719 1228 700 1154.5 Q681 1081 641.5 1025.5 Q602 970 540.5 937 Q479 904 394 899 L394 651 L341 651 L341 952 Z " />
<glyph glyph-name="uni02C1" unicode="&#x2c1;" horiz-adv-x="812" d="M417 899 Q332 904 271 937 Q210 970 170.5 1025.5 Q131 1081 112 1154.5 Q93 1228 93 1313 L93 1407 Q93 1495 116.5 1568 Q140 1641 184.5 1694 Q229 1747 294 1776.5 Q359 1806 441 1806 Q503 1806 559.5 1788.5 Q616 1771 660 1735.5 Q704 1700 731.5 1648 Q759 1596 762 1527 L708 1527 Q705 1587 681 1629.5 Q657 1672 619.5 1699 Q582 1726 535.5 1739 Q489 1752 441 1752 Q368 1752 313 1726 Q258 1700 221 1654 Q184 1608 165 1545 Q146 1482 146 1407 L146 1313 Q146 1238 162.5 1172 Q179 1106 214.5 1057 Q250 1008 306.5 980 Q363 952 443 952 L470 952 L470 651 L417 651 L417 899 Z " />
<glyph glyph-name="uni02C2" unicode="&#x2c2;" horiz-adv-x="969" d="M93 990 L875 1329 L875 1269 L265 1006 L150 963 L265 917 L875 655 L875 596 L93 936 L93 990 Z " />
<glyph glyph-name="uni02C3" unicode="&#x2c3;" horiz-adv-x="934" d="M36 655 L646 917 L761 963 L646 1006 L36 1269 L36 1329 L818 990 L818 936 L36 596 L36 655 Z " />
<glyph glyph-name="uni02C4" unicode="&#x2c4;" horiz-adv-x="921" d="M439 1310 L494 1310 L861 583 L801 583 L514 1146 L466 1258 L416 1146 L131 583 L72 583 L439 1310 Z " />
<glyph glyph-name="uni02C5" unicode="&#x2c5;" horiz-adv-x="955" d="M72 1310 L131 1310 L416 747 L466 635 L514 747 L801 1310 L861 1310 L494 583 L439 583 L72 1310 Z " />
<glyph glyph-name="circumflex" unicode="&#x2c6;" horiz-adv-x="861" d="M169 1278 L416 1517 L456 1517 L707 1274 L707 1264 L637 1264 L435 1460 L234 1264 L169 1264 L169 1278 Z " />
<glyph glyph-name="caron" unicode="&#x2c7;" horiz-adv-x="828" d="M164 1495 L164 1506 L221 1506 L431 1289 L641 1506 L693 1506 L693 1493 L460 1243 L400 1243 L164 1495 Z " />
<glyph glyph-name="uni02C8" unicode="&#x2c8;" horiz-adv-x="240" d="M93 1151 L93 1559 L147 1559 L147 1151 L93 1151 Z " />
<glyph glyph-name="uni02C9" unicode="&#x2c9;" horiz-adv-x="880" >
<g transform="translate(2,0)" >
<path fill="black" d="M148 1383 L148 1436 L754 1436 L754 1383 L148 1383 Z " />
</g>
</glyph>
<glyph glyph-name="uni02CA" unicode="&#x2ca;" horiz-adv-x="513" >
<g transform="translate(-23,0)" >
<path fill="black" d="M350 1536 L417 1536 L204 1270 L141 1270 L350 1536 Z " />
</g>
</glyph>
<glyph glyph-name="uni02CB" unicode="&#x2cb;" horiz-adv-x="526" >
<g transform="translate(-18,0)" >
<path fill="black" d="M384 1270 L171 1536 L238 1536 L446 1270 L384 1270 Z " />
</g>
</glyph>
<glyph glyph-name="uni02CC" unicode="&#x2cc;" horiz-adv-x="240" d="M93 -540 L93 -141 L147 -141 L147 -540 L93 -540 Z " />
<glyph glyph-name="uni02CD" unicode="&#x2cd;" horiz-adv-x="858" >
<g transform="translate(-8,-1600)" >
<path fill="black" d="M148 1383 L148 1436 L754 1436 L754 1383 L148 1383 Z " />
</g>
</glyph>
</font>
</svg>
