<?xml version="1.0" encoding="UTF-8"?>
<svg xmlns="http://www.w3.org/2000/svg" xmlns:xlink="http://www.w3.org/1999/xlink" version="1.2" >
<font id="Gotho-6SmWd400Rg" horiz-adv-x="807">
<font-face  font-family="Gotho" units-per-em="2048" ascent="2146" descent="-555" font-style="normal" font-weight="400" font-stretch="semi-expanded" cap-height="1456" x-height="1082" underline-position="-100" underline-thickness="100" />
<missing-glyph horiz-adv-x="889" d="M108 1456 L782 1456 L782 0 L108 0 L108 1456 Z M730 84 L730 1372 L470 728 L730 84 Z M415 728 L159 1359 L159 97 L415 728 Z M198 54 L687 54 L442 659 L198 54 Z M442 797 L687 1402 L198 1402 L442 797 Z " />
<glyph glyph-name="uni0000" horiz-adv-x="0" />
<glyph glyph-name="uni000D" unicode="&#xd;" horiz-adv-x="503" />
<glyph glyph-name="space" unicode="&#x20;" horiz-adv-x="503" />
<glyph glyph-name="uni0002" unicode="&#x2;" horiz-adv-x="0" />
<glyph glyph-name="uni0009" unicode="&#x9;" horiz-adv-x="503" />
<glyph glyph-name="exclam" unicode="&#x21;" horiz-adv-x="493" d="M178 409 L167 1456 L326 1456 L314 409 L178 409 Z M156 82 Q156 121 181.5 148 Q207 175 252 175 Q297 175 322 148 Q347 121 347 82 Q347 43 322 16.5 Q297 -10 252 -10 Q207 -10 181.5 16.5 Q156 43 156 82 Z " />
<glyph glyph-name="quotedbl" unicode="&#x22;" horiz-adv-x="629" d="M141 1391 L141 1536 L262 1536 L262 1399 L237 1063 L139 1063 L141 1391 Z M398 1391 L398 1536 L519 1536 L519 1399 L494 1063 L396 1063 L398 1391 Z " />
<glyph glyph-name="numbersign" unicode="&#x23;" horiz-adv-x="1181" d="M335 410 L100 410 L100 525 L356 525 L427 923 L172 923 L172 1040 L448 1040 L523 1456 L640 1456 L565 1040 L836 1040 L911 1456 L1028 1456 L953 1040 L1162 1040 L1162 923 L932 923 L860 525 L1091 525 L1091 410 L840 410 L766 0 L649 0 L723 410 L452 410 L378 0 L262 0 L335 410 Z M743 525 L815 923 L544 923 L472 525 L743 525 Z " />
<glyph glyph-name="dollar" unicode="&#x24;" horiz-adv-x="1115" d="M513 -19 Q438 -13 366.5 14 Q295 41 240 93.5 Q185 146 151.5 227.5 Q118 309 118 424 L270 424 Q270 333 296.5 273 Q323 213 365.5 177.5 Q408 142 461 127.5 Q514 113 566 113 Q632 113 684 132 Q736 151 772 184.5 Q808 218 826.5 265 Q845 312 845 367 Q845 417 830.5 458.5 Q816 500 782.5 535 Q749 570 694 600 Q639 630 559 657 Q469 688 396.5 725.5 Q324 763 273.5 814 Q223 865 196 932 Q169 999 169 1088 Q169 1171 194 1239 Q219 1307 264.5 1356.5 Q310 1406 375.5 1436.5 Q441 1467 522 1474 L522 1685 L639 1685 L639 1474 Q721 1465 786 1430.5 Q851 1396 896 1338.5 Q941 1281 964.5 1200.5 Q988 1120 988 1018 L837 1018 Q837 1089 820 1148.5 Q803 1208 769.5 1251 Q736 1294 687.5 1318.5 Q639 1343 576 1343 Q511 1343 462.5 1323.5 Q414 1304 382.5 1270.5 Q351 1237 335.5 1190.5 Q320 1144 320 1090 Q320 1039 333 997.5 Q346 956 379 921 Q412 886 468 856 Q524 826 610 796 Q700 765 771.5 727.5 Q843 690 893.5 640 Q944 590 970.5 524 Q997 458 997 369 Q997 284 971 215.5 Q945 147 897.5 98 Q850 49 782 19.5 Q714 -10 630 -18 L630 -208 L513 -208 L513 -19 Z " />
<glyph glyph-name="percent" unicode="&#x25;" horiz-adv-x="1461" d="M346 173 L1023 1311 L1110 1254 L433 116 L346 173 Z M800 357 Q800 419 819.5 473.5 Q839 528 875 568.5 Q911 609 962.5 633 Q1014 657 1078 657 Q1144 657 1196 633 Q1248 609 1284 568.5 Q1320 528 1339 473.5 Q1358 419 1358 357 L1358 279 Q1358 218 1339 163 Q1320 108 1284 67.5 Q1248 27 1196.5 3 Q1145 -21 1080 -21 Q1015 -21 963 3 Q911 27 875 67.5 Q839 108 819.5 163 Q800 218 800 279 L800 357 Z M113 1178 Q113 1240 132.5 1294.5 Q152 1349 188 1389.5 Q224 1430 275.5 1454 Q327 1478 391 1478 Q457 1478 509 1454 Q561 1430 597 1389.5 Q633 1349 652 1294.5 Q671 1240 671 1178 L671 1100 Q671 1039 652 984 Q633 929 597 888.5 Q561 848 509.5 824 Q458 800 393 800 Q328 800 276 824 Q224 848 188 888.5 Q152 929 132.5 984 Q113 1039 113 1100 L113 1178 Z M915 279 Q915 242 925 206.5 Q935 171 955.5 143.5 Q976 116 1007 99.5 Q1038 83 1080 83 Q1122 83 1152.5 99.5 Q1183 116 1203.5 143 Q1224 170 1233.5 205.5 Q1243 241 1243 279 L1243 357 Q1243 396 1233 431.5 Q1223 467 1202.5 494.5 Q1182 522 1151 538 Q1120 554 1078 554 Q1037 554 1006.5 538 Q976 522 955.5 494.5 Q935 467 925 431.5 Q915 396 915 357 L915 279 Z M228 1100 Q228 1063 238 1027.5 Q248 992 268.5 964.5 Q289 937 320 920.5 Q351 904 393 904 Q435 904 465.5 920.5 Q496 937 516.5 964 Q537 991 546.5 1026.5 Q556 1062 556 1100 L556 1178 Q556 1217 546 1252.5 Q536 1288 515.5 1315.5 Q495 1343 464 1359 Q433 1375 391 1375 Q350 1375 319.5 1359 Q289 1343 268.5 1315.5 Q248 1288 238 1252.5 Q228 1217 228 1178 L228 1100 Z " />
<glyph glyph-name="ampersand" unicode="&#x26;" horiz-adv-x="1238" d="M1025 0 L920 130 Q845 58 748.5 19 Q652 -20 547 -20 Q445 -20 364 9.5 Q283 39 226.5 92 Q170 145 139.5 219 Q109 293 109 381 Q109 448 129.5 504 Q150 560 187 609 Q224 658 274 703 Q324 748 382 794 Q347 840 318.5 882.5 Q290 925 270 966.5 Q250 1008 239.5 1049 Q229 1090 229 1134 Q229 1215 253 1278.5 Q277 1342 320.5 1386 Q364 1430 426 1453 Q488 1476 564 1476 Q637 1476 695 1452.5 Q753 1429 793.5 1388.5 Q834 1348 855.5 1294 Q877 1240 877 1180 Q877 1129 861.5 1085.5 Q846 1042 820.5 1003.5 Q795 965 761 932 Q727 899 689 869 L576 778 L921 352 Q956 417 975.5 494.5 Q995 572 995 662 L1132 662 Q1132 537 1100.5 433 Q1069 329 1009 243 L1206 0 L1025 0 Z M466 689 L428 658 Q372 613 339 571.5 Q306 530 288.5 494.5 Q271 459 266 430.5 Q261 402 261 381 Q261 326 278.5 276 Q296 226 332 188.5 Q368 151 422 129 Q476 107 549 107 Q627 107 700.5 140 Q774 173 834 235 L466 689 Z M608 962 Q638 985 662 1007.5 Q686 1030 703 1056 Q720 1082 729 1112.5 Q738 1143 738 1180 Q738 1213 726.5 1243.5 Q715 1274 693 1297.5 Q671 1321 638 1335.5 Q605 1350 563 1350 Q518 1350 483 1333 Q448 1316 425 1287 Q402 1258 390 1220 Q378 1182 378 1139 Q378 1079 409.5 1015 Q441 951 496 879 L608 962 Z " />
<glyph glyph-name="quotesingle" unicode="&#x27;" horiz-adv-x="363" d="M119 1398 L119 1536 L247 1536 L247 1411 L227 1074 L116 1074 L119 1398 Z " />
<glyph glyph-name="parenleft" unicode="&#x28;" horiz-adv-x="668" d="M588 -470 Q516 -427 437 -336.5 Q358 -246 292.5 -112.5 Q227 21 184.5 194.5 Q142 368 142 578 L142 590 Q142 797 184.5 970.5 Q227 1144 292.5 1278 Q358 1412 437 1503.5 Q516 1595 588 1638 L622 1536 Q562 1491 502.5 1406.5 Q443 1322 395.5 1202 Q348 1082 318.5 929 Q289 776 289 593 L289 576 Q289 393 318.5 239.5 Q348 86 395.5 -34.5 Q443 -155 502.5 -241.5 Q562 -328 622 -376 L588 -470 Z " />
<glyph glyph-name="parenright" unicode="&#x29;" horiz-adv-x="679" d="M47 -376 Q107 -330 166 -244 Q225 -158 272.5 -37 Q320 84 349.5 238.5 Q379 393 379 576 L379 593 Q379 776 348.5 930 Q318 1084 270 1205.5 Q222 1327 163 1412.5 Q104 1498 47 1543 L79 1638 Q153 1595 232 1503.5 Q311 1412 377 1278 Q443 1144 485.5 970.5 Q528 797 528 590 L528 578 Q528 368 485.5 194.5 Q443 21 377 -112.5 Q311 -246 232 -336.5 Q153 -427 79 -470 L47 -376 Z " />
<glyph glyph-name="asterisk" unicode="&#x2a;" horiz-adv-x="902" d="M363 992 L33 1091 L72 1217 L401 1099 L394 1457 L521 1457 L511 1095 L833 1214 L872 1088 L540 985 L760 702 L656 624 L449 920 L249 628 L145 704 L363 992 Z " />
<glyph glyph-name="plus" unicode="&#x2b;" horiz-adv-x="1123" d="M480 617 L83 617 L83 761 L480 761 L480 1206 L631 1206 L631 761 L1033 761 L1033 617 L631 617 L631 146 L480 146 L480 617 Z " />
<glyph glyph-name="comma" unicode="&#x2c;" horiz-adv-x="423" d="M56 -219 Q103 -155 128.5 -89.5 Q154 -24 154 57 L154 204 L302 204 L302 60 Q302 14 291 -33 Q280 -80 260 -125 Q240 -170 210.5 -210 Q181 -250 145 -282 L56 -219 Z " />
<glyph glyph-name="hyphen" unicode="&#x2d;" horiz-adv-x="602" d="M63 568 L63 695 L532 695 L532 568 L63 568 Z " />
<glyph glyph-name="period" unicode="&#x2e;" horiz-adv-x="529" d="M150 85 Q150 127 177 155 Q204 183 252 183 Q300 183 327 155 Q354 127 354 85 Q354 45 327 17.5 Q300 -10 252 -10 Q204 -10 177 17.5 Q150 45 150 85 Z " />
<glyph glyph-name="slash" unicode="&#x2f;" horiz-adv-x="802" d="M32 -125 L603 1456 L733 1456 L163 -125 L32 -125 Z " />
<glyph glyph-name="zero" unicode="0" horiz-adv-x="1115" d="M122 848 Q122 1018 152.5 1137 Q183 1256 239 1331.5 Q295 1407 375.5 1441.5 Q456 1476 556 1476 Q657 1476 738 1441.5 Q819 1407 875.5 1331.5 Q932 1256 962 1137 Q992 1018 992 848 L992 615 Q992 446 962 325.5 Q932 205 876 128 Q820 51 740 15.5 Q660 -20 559 -20 Q459 -20 378 15.5 Q297 51 240 128 Q183 205 152.5 325.5 Q122 446 122 615 L122 848 Z M840 871 Q840 1119 768.5 1234.5 Q697 1350 556 1350 Q418 1350 346 1234.5 Q274 1119 274 871 L274 593 Q274 348 347 227.5 Q420 107 559 107 Q699 107 769.5 227.5 Q840 348 840 593 L840 871 Z " />
<glyph glyph-name="one" unicode="1" horiz-adv-x="1115" d="M544 0 L544 1273 L179 1131 L179 1271 L673 1463 L696 1463 L696 0 L544 0 Z " />
<glyph glyph-name="two" unicode="2" horiz-adv-x="1115" d="M129 0 L130 112 L586 649 Q649 723 691.5 781.5 Q734 840 759.5 889.5 Q785 939 796 982.5 Q807 1026 807 1070 Q807 1130 790 1181 Q773 1232 739.5 1269.5 Q706 1307 657 1328 Q608 1349 545 1349 Q476 1349 423.5 1325.5 Q371 1302 335.5 1260 Q300 1218 281.5 1159.5 Q263 1101 263 1032 L111 1032 Q111 1124 139.5 1204.5 Q168 1285 223.5 1345.5 Q279 1406 360 1441 Q441 1476 546 1476 Q643 1476 719.5 1448.5 Q796 1421 849.5 1370.5 Q903 1320 931 1248 Q959 1176 959 1087 Q959 1022 937 956 Q915 890 877.5 824.5 Q840 759 791.5 694 Q743 629 690 566 L317 127 L1024 127 L1024 0 L129 0 Z " />
<glyph glyph-name="three" unicode="3" horiz-adv-x="1114" d="M253 390 Q253 327 274.5 274.5 Q296 222 335 185 Q374 148 428 127.5 Q482 107 548 107 Q682 107 757.5 180 Q833 253 833 397 Q833 471 810 524 Q787 577 745.5 611.5 Q704 646 645.5 662.5 Q587 679 515 679 L392 679 L392 806 L515 806 Q588 806 643 826.5 Q698 847 735 883 Q772 919 790.5 968 Q809 1017 809 1073 Q809 1201 744.5 1275 Q680 1349 545 1349 Q486 1349 435.5 1330 Q385 1311 348.5 1275.5 Q312 1240 291.5 1189 Q271 1138 271 1075 L119 1075 Q119 1161 151 1234.5 Q183 1308 239.5 1361.5 Q296 1415 374 1445.5 Q452 1476 544 1476 Q638 1476 715 1449.5 Q792 1423 846.5 1371.5 Q901 1320 931 1244 Q961 1168 961 1069 Q961 1024 946.5 977 Q932 930 903 887 Q874 844 830.5 807.5 Q787 771 729 747 Q797 726 845.5 690 Q894 654 925 608 Q956 562 970.5 509 Q985 456 985 401 Q985 301 952 222.5 Q919 144 860.5 90 Q802 36 721.5 8 Q641 -20 547 -20 Q460 -20 379.5 6.5 Q299 33 237 84.5 Q175 136 138 213 Q101 290 101 390 L253 390 Z " />
<glyph glyph-name="four" unicode="4" horiz-adv-x="1114" d="M72 442 L690 1456 L861 1456 L861 480 L1063 480 L1063 353 L861 353 L861 0 L708 0 L708 353 L73 353 L72 442 Z M708 480 L708 1245 L691 1214 L249 480 L708 480 Z " />
<glyph glyph-name="five" unicode="5" horiz-adv-x="1115" d="M307 383 Q323 246 396 176.5 Q469 107 592 107 Q728 107 798 201.5 Q868 296 868 462 Q868 535 849 598 Q830 661 792.5 707 Q755 753 700.5 779 Q646 805 575 805 Q528 805 492.5 798 Q457 791 428.5 778.5 Q400 766 376 748 Q352 730 329 707 L208 739 L278 1456 L987 1456 L987 1316 L406 1316 L362 871 Q380 884 405 896.5 Q430 909 461.5 919.5 Q493 930 530 936.5 Q567 943 607 943 Q702 943 778 909.5 Q854 876 908 813.5 Q962 751 991 662.5 Q1020 574 1020 464 Q1020 359 994.5 270.5 Q969 182 916.5 117.5 Q864 53 783 16.5 Q702 -20 592 -20 Q508 -20 433 4.5 Q358 29 300.5 79.5 Q243 130 206 205.5 Q169 281 161 383 L307 383 Z " />
<glyph glyph-name="six" unicode="6" horiz-adv-x="1115" d="M140 743 Q140 926 181.5 1063.5 Q223 1201 294.5 1292.5 Q366 1384 462 1430 Q558 1476 667 1476 Q727 1476 784 1466 Q841 1456 883 1436 L854 1318 Q819 1330 779.5 1339.5 Q740 1349 683 1349 Q603 1349 534.5 1316.5 Q466 1284 414.5 1219.5 Q363 1155 331.5 1057.5 Q300 960 293 829 Q344 892 421 930 Q498 968 602 968 Q698 968 773.5 931.5 Q849 895 901.5 830.5 Q954 766 982 678 Q1010 590 1010 488 Q1010 378 980.5 285 Q951 192 895.5 124 Q840 56 761.5 18 Q683 -20 585 -20 Q493 -20 412 14 Q331 48 270.5 115.5 Q210 183 175 284.5 Q140 386 140 521 L140 743 Z M291 522 Q291 417 314 338.5 Q337 260 377 208.5 Q417 157 470.5 131 Q524 105 585 105 Q652 105 703 136 Q754 167 788.5 220 Q823 273 840.5 342.5 Q858 412 858 488 Q858 563 840 627.5 Q822 692 786 740 Q750 788 696.5 815.5 Q643 843 573 843 Q523 843 479.5 829.5 Q436 816 400 792 Q364 768 336.5 734.5 Q309 701 291 661 L291 522 Z " />
<glyph glyph-name="seven" unicode="7" horiz-adv-x="1115" d="M374 139 Q392 325 433 487.5 Q474 650 536 795.5 Q598 941 679 1073 Q760 1205 857 1329 L84 1329 L84 1456 L1009 1456 L1009 1329 Q891 1176 807 1034.5 Q723 893 666.5 750.5 Q610 608 576.5 458.5 Q543 309 525 139 L513 0 L360 0 L374 139 Z " />
<glyph glyph-name="eight" unicode="8" horiz-adv-x="1115" d="M114 390 Q114 452 131.5 507.5 Q149 563 181.5 609 Q214 655 259.5 690.5 Q305 726 361 749 Q263 795 205.5 881 Q148 967 148 1079 Q148 1174 178.5 1248 Q209 1322 264 1372.5 Q319 1423 394 1449.5 Q469 1476 557 1476 Q646 1476 721 1449.5 Q796 1423 851.5 1372.5 Q907 1322 938 1248 Q969 1174 969 1079 Q969 1024 953.5 974 Q938 924 910 881.5 Q882 839 842 805.5 Q802 772 753 749 Q809 726 855 690.5 Q901 655 934 609 Q967 563 985 507.5 Q1003 452 1003 390 Q1003 290 969 213.5 Q935 137 875 85 Q815 33 734 6.5 Q653 -20 559 -20 Q465 -20 383.5 6.5 Q302 33 242 85 Q182 137 148 213.5 Q114 290 114 390 Z M265 392 Q265 324 286.5 271 Q308 218 346.5 181.5 Q385 145 439 126 Q493 107 559 107 Q624 107 677.5 126 Q731 145 769.5 181.5 Q808 218 829 271 Q850 324 850 392 Q850 457 828 511 Q806 565 767 603.5 Q728 642 674.5 663.5 Q621 685 557 685 Q493 685 439 663.5 Q385 642 346.5 603.5 Q308 565 286.5 511 Q265 457 265 392 Z M558 811 Q615 811 662.5 830 Q710 849 744.5 884 Q779 919 798 968 Q817 1017 817 1078 Q817 1137 797.5 1187 Q778 1237 743.5 1273 Q709 1309 661.5 1329 Q614 1349 557 1349 Q500 1349 453 1330 Q406 1311 372 1276 Q338 1241 319 1191 Q300 1141 300 1078 Q300 1017 319 968 Q338 919 372 884 Q406 849 453.5 830 Q501 811 558 811 Z " />
<glyph glyph-name="nine" unicode="9" horiz-adv-x="1114" d="M253 159 Q301 136 351.5 121 Q402 106 463 106 Q542 106 607.5 136.5 Q673 167 719.5 227 Q766 287 792 377 Q818 467 818 586 L818 594 Q763 529 686 495 Q609 461 518 461 Q421 461 343.5 499 Q266 537 211.5 603.5 Q157 670 128 761.5 Q99 853 99 960 Q99 1080 131.5 1175.5 Q164 1271 221 1338 Q278 1405 355.5 1441 Q433 1477 523 1477 Q624 1477 706 1442 Q788 1407 847 1336.5 Q906 1266 938 1159.5 Q970 1053 970 910 L970 588 Q970 438 933 324 Q896 210 830.5 133.5 Q765 57 674.5 18 Q584 -21 477 -21 Q414 -21 347.5 -6.5 Q281 8 221 40 L253 159 Z M818 924 Q818 1136 740.5 1243 Q663 1350 526 1350 Q466 1350 416 1323 Q366 1296 330 1245.5 Q294 1195 273.5 1122.5 Q253 1050 253 960 Q253 887 272 819.5 Q291 752 326.5 700.5 Q362 649 413.5 618 Q465 587 530 587 Q589 587 636.5 604 Q684 621 719.5 649.5 Q755 678 779.5 714 Q804 750 818 789 L818 924 Z " />
<glyph glyph-name="colon" unicode="&#x3a;" horiz-adv-x="470" >
<g transform="translate(-11,0)" >
<path fill="black" d="M150 85 Q150 127 177 155 Q204 183 252 183 Q300 183 327 155 Q354 127 354 85 Q354 45 327 17.5 Q300 -10 252 -10 Q204 -10 177 17.5 Q150 45 150 85 Z " />
</g>
<g transform="translate(-10,896)" >
<path fill="black" d="M150 85 Q150 127 177 155 Q204 183 252 183 Q300 183 327 155 Q354 127 354 85 Q354 45 327 17.5 Q300 -10 252 -10 Q204 -10 177 17.5 Q150 45 150 85 Z " />
</g>
</glyph>
<glyph glyph-name="semicolon" unicode="&#x3b;" horiz-adv-x="430" >
<g transform="translate(10,0)" >
<path fill="black" d="M56 -219 Q103 -155 128.5 -89.5 Q154 -24 154 57 L154 204 L302 204 L302 60 Q302 14 291 -33 Q280 -80 260 -125 Q240 -170 210.5 -210 Q181 -250 145 -282 L56 -219 Z " />
</g>
<g transform="translate(-23,903)" >
<path fill="black" d="M150 85 Q150 127 177 155 Q204 183 252 183 Q300 183 327 155 Q354 127 354 85 Q354 45 327 17.5 Q300 -10 252 -10 Q204 -10 177 17.5 Q150 45 150 85 Z " />
</g>
</glyph>
<glyph glyph-name="less" unicode="&#x3c;" horiz-adv-x="1020" d="M81 713 L871 1091 L871 930 L244 650 L871 374 L871 213 L81 592 L81 713 Z " />
<glyph glyph-name="equal" unicode="&#x3d;" horiz-adv-x="1105" d="M154 409 L154 542 L955 542 L955 409 L154 409 Z M154 822 L154 955 L955 955 L955 822 L154 822 Z " />
<glyph glyph-name="greater" unicode="&#x3e;" horiz-adv-x="1038" d="M133 372 L781 655 L133 936 L133 1093 L943 715 L943 594 L133 215 L133 372 Z " />
<glyph glyph-name="question" unicode="&#x3f;" horiz-adv-x="931" d="M362 408 Q362 476 370.5 525 Q379 574 397.5 615.5 Q416 657 446 696 Q476 735 520 781 Q556 819 586.5 852 Q617 885 639.5 921 Q662 957 674.5 999 Q687 1041 687 1096 Q687 1152 673 1197.5 Q659 1243 631.5 1275 Q604 1307 563.5 1324.5 Q523 1342 470 1342 Q422 1342 379.5 1327.5 Q337 1313 305.5 1284.5 Q274 1256 256 1213.5 Q238 1171 237 1115 L85 1115 Q87 1200 117 1267 Q147 1334 199 1380.5 Q251 1427 320.5 1451.5 Q390 1476 470 1476 Q559 1476 627.5 1449 Q696 1422 743.5 1373 Q791 1324 815.5 1254.5 Q840 1185 840 1100 Q840 1033 822.5 974.5 Q805 916 774 864 Q743 812 700.5 765 Q658 718 609 673 Q552 619 531 552 Q510 485 510 408 L362 408 Z M347 82 Q347 121 372.5 148 Q398 175 443 175 Q488 175 513 148 Q538 121 538 82 Q538 43 513 16.5 Q488 -10 443 -10 Q398 -10 372.5 16.5 Q347 43 347 82 Z " />
<glyph glyph-name="at" unicode="&#x40;" horiz-adv-x="1792" d="M1216 -364 Q1184 -386 1141.5 -402.5 Q1099 -419 1052 -430.5 Q1005 -442 957 -447.5 Q909 -453 865 -453 Q684 -453 541.5 -388.5 Q399 -324 303 -203 Q207 -82 160 90.5 Q113 263 122 478 Q131 686 192.5 860 Q254 1034 361 1160 Q468 1286 615.5 1356 Q763 1426 944 1426 Q1132 1426 1272.5 1361.5 Q1413 1297 1505 1177.5 Q1597 1058 1640 888.5 Q1683 719 1675 508 Q1672 415 1649.5 320.5 Q1627 226 1581 150.5 Q1535 75 1464 27 Q1393 -21 1293 -21 Q1203 -21 1145 27 Q1087 75 1065 162 Q1014 71 944 25 Q874 -21 793 -21 Q724 -21 673 11 Q622 43 589.5 101 Q557 159 544 241 Q531 323 540 422 Q551 553 589 658 Q627 763 683 836.5 Q739 910 809.5 950 Q880 990 957 990 Q1007 990 1045.5 981.5 Q1084 973 1114.5 958 Q1145 943 1171.5 923.5 Q1198 904 1224 882 L1175 320 Q1169 244 1181 197 Q1193 150 1214 124.5 Q1235 99 1261 90.5 Q1287 82 1310 82 Q1369 82 1415 115 Q1461 148 1493.5 205.5 Q1526 263 1544.5 340.5 Q1563 418 1567 508 Q1575 696 1542.5 845.5 Q1510 995 1433 1099 Q1356 1203 1233 1258.5 Q1110 1314 939 1314 Q788 1314 663 1254 Q538 1194 447 1084.5 Q356 975 302.5 820.5 Q249 666 241 478 Q233 291 271 139 Q309 -13 389.5 -121 Q470 -229 591 -287.5 Q712 -346 869 -346 Q911 -346 954.5 -340.5 Q998 -335 1039.5 -325 Q1081 -315 1118 -300.5 Q1155 -286 1185 -268 L1216 -364 Z M1099 842 Q1073 859 1040 869.5 Q1007 880 967 880 Q912 880 862 851.5 Q812 823 773 766 Q734 709 707 623 Q680 537 669 422 Q662 349 669 289.5 Q676 230 696 188 Q716 146 748.5 123 Q781 100 826 100 Q855 100 886.5 111.5 Q918 123 948 150 Q978 177 1006 221 Q1034 265 1056 330 L1099 842 Z " />
<glyph glyph-name="A" unicode="A" horiz-adv-x="1270" d="M563 1456 L707 1456 L1233 0 L1068 0 L933 395 L337 395 L202 0 L38 0 L563 1456 Z M888 526 L635 1266 L382 526 L888 526 Z " />
<glyph glyph-name="B" unicode="B" horiz-adv-x="1231" d="M177 1456 L609 1456 Q717 1456 802 1433.5 Q887 1411 946.5 1364 Q1006 1317 1037.5 1244.5 Q1069 1172 1069 1072 Q1069 965 1014 884 Q959 803 858 762 Q919 746 966.5 713 Q1014 680 1046.5 634.5 Q1079 589 1096 533 Q1113 477 1113 415 Q1113 314 1080.5 236.5 Q1048 159 989 106.5 Q930 54 846 27 Q762 0 658 0 L177 0 L177 1456 Z M658 131 Q729 131 784 150.5 Q839 170 877.5 206.5 Q916 243 936 295.5 Q956 348 956 413 Q956 474 939 525 Q922 576 886.5 613 Q851 650 796.5 670.5 Q742 691 668 691 L335 691 L335 131 L658 131 Z M618 820 Q757 820 834 885 Q911 950 911 1074 Q911 1205 836 1265 Q761 1325 609 1325 L335 1325 L335 820 L618 820 Z " />
<glyph glyph-name="C" unicode="C" horiz-adv-x="1294" d="M133 845 Q133 989 170.5 1106 Q208 1223 278 1305 Q348 1387 448 1431.5 Q548 1476 673 1476 Q904 1476 1034 1351.5 Q1164 1227 1184 995 L1026 995 Q1007 1171 924.5 1258 Q842 1345 673 1345 Q581 1345 509.5 1310 Q438 1275 389.5 1210 Q341 1145 316 1053 Q291 961 291 847 L291 615 Q291 506 314.5 413.5 Q338 321 384.5 253.5 Q431 186 500.5 148 Q570 110 663 110 Q751 110 815 130.5 Q879 151 922.5 193.5 Q966 236 991 302 Q1016 368 1026 458 L1184 458 Q1174 346 1136 257 Q1098 168 1032.5 106.5 Q967 45 874.5 12.5 Q782 -20 663 -20 Q542 -20 444 24.5 Q346 69 277 152 Q208 235 170.5 352.5 Q133 470 133 615 L133 845 Z " />
<glyph glyph-name="D" unicode="D" horiz-adv-x="1301" d="M177 1456 L571 1456 Q704 1456 814 1413 Q924 1370 1003 1288.5 Q1082 1207 1126 1089.5 Q1170 972 1170 823 L1170 633 Q1170 483 1126.5 365.5 Q1083 248 1003 167 Q923 86 810.5 43 Q698 0 561 0 L177 0 L177 1456 Z M561 131 Q670 131 754.5 165.5 Q839 200 896.5 264.5 Q954 329 984 422 Q1014 515 1014 633 L1014 825 Q1014 946 983.5 1039.5 Q953 1133 896 1196.5 Q839 1260 757 1292.5 Q675 1325 571 1325 L335 1325 L335 131 L561 131 Z " />
<glyph glyph-name="E" unicode="E" horiz-adv-x="1132" d="M177 1456 L1047 1456 L1047 1325 L335 1325 L335 816 L957 816 L957 686 L335 686 L335 131 L1053 131 L1053 0 L177 0 L177 1456 Z " />
<glyph glyph-name="F" unicode="F" horiz-adv-x="1112" d="M177 1456 L1041 1456 L1041 1325 L335 1325 L335 793 L950 793 L950 662 L335 662 L335 0 L177 0 L177 1456 Z " />
<glyph glyph-name="G" unicode="G" horiz-adv-x="1354" d="M142 844 Q142 996 179 1113.5 Q216 1231 286 1311.5 Q356 1392 457.5 1434 Q559 1476 687 1476 Q806 1476 896.5 1445 Q987 1414 1050 1356.5 Q1113 1299 1149 1218 Q1185 1137 1196 1038 L1040 1038 Q1031 1105 1007 1161.5 Q983 1218 941 1258.5 Q899 1299 837 1322 Q775 1345 689 1345 Q592 1345 519 1311.5 Q446 1278 397 1214 Q348 1150 323.5 1057 Q299 964 299 846 L299 618 Q299 496 328 401.5 Q357 307 410.5 242 Q464 177 539.5 143.5 Q615 110 709 110 Q783 110 839 122.5 Q895 135 934.5 152.5 Q974 170 999.5 189.5 Q1025 209 1039 224 L1039 578 L696 578 L696 709 L1197 709 L1197 180 Q1178 154 1140.5 119.5 Q1103 85 1044 54 Q985 23 901.5 1.5 Q818 -20 707 -20 Q581 -20 477 22.5 Q373 65 298.5 146 Q224 227 183 346 Q142 465 142 618 L142 844 Z " />
<glyph glyph-name="H" unicode="H" horiz-adv-x="1407" d="M177 1456 L335 1456 L335 816 L1071 816 L1071 1456 L1228 1456 L1228 0 L1071 0 L1071 686 L335 686 L335 0 L177 0 L177 1456 Z " />
<glyph glyph-name="I" unicode="I" horiz-adv-x="554" d="M199 0 L199 1456 L356 1456 L356 0 L199 0 Z " />
<glyph glyph-name="J" unicode="J" horiz-adv-x="1101" d="M230 403 Q230 255 302.5 183 Q375 111 502 111 Q560 111 610 131.5 Q660 152 696.5 192 Q733 232 754 291.5 Q775 351 775 430 L775 1456 L932 1456 L932 430 Q932 321 899.5 237 Q867 153 809.5 96 Q752 39 673.5 9.5 Q595 -20 502 -20 Q407 -20 328 5.5 Q249 31 192 83.5 Q135 136 103.5 215.5 Q72 295 72 403 L230 403 Z " />
<glyph glyph-name="K" unicode="K" horiz-adv-x="1254" d="M177 1456 L335 1456 L335 703 L504 901 L988 1456 L1183 1456 L624 812 L1224 0 L1033 0 L516 696 L335 503 L335 0 L177 0 L177 1456 Z " />
<glyph glyph-name="L" unicode="L" horiz-adv-x="1062" d="M177 1456 L335 1456 L335 131 L1002 131 L1002 0 L177 0 L177 1456 Z " />
<glyph glyph-name="M" unicode="M" horiz-adv-x="1718" d="M177 1456 L393 1456 L859 252 L1324 1456 L1541 1456 L1541 0 L1384 0 L1384 602 L1399 1252 L916 0 L799 0 L319 1248 L334 602 L334 0 L177 0 L177 1456 Z " />
<glyph glyph-name="N" unicode="N" horiz-adv-x="1410" d="M177 1456 L343 1456 L1075 265 L1075 1456 L1231 1456 L1231 0 L1064 0 L335 1189 L335 0 L177 0 L177 1456 Z " />
<glyph glyph-name="O" unicode="O" horiz-adv-x="1354" d="M128 830 Q128 983 167.5 1103.5 Q207 1224 279 1306.5 Q351 1389 452 1432.5 Q553 1476 676 1476 Q801 1476 902.5 1432.5 Q1004 1389 1075.5 1306.5 Q1147 1224 1186 1103.5 Q1225 983 1225 830 L1225 626 Q1225 472 1186.5 352 Q1148 232 1077 149.5 Q1006 67 904.5 23.5 Q803 -20 678 -20 Q555 -20 453.5 23.5 Q352 67 280 149.5 Q208 232 168 352 Q128 472 128 626 L128 830 Z M285 626 Q285 500 312 404.5 Q339 309 390 244.5 Q441 180 514 147.5 Q587 115 678 115 Q867 115 967.5 244 Q1068 373 1068 626 L1068 832 Q1068 1081 965.5 1210.5 Q863 1340 676 1340 Q585 1340 512.5 1307.5 Q440 1275 389.5 1210.5 Q339 1146 312 1051.5 Q285 957 285 832 L285 626 Z " />
<glyph glyph-name="P" unicode="P" horiz-adv-x="1240" d="M177 1456 L669 1456 Q785 1456 874.5 1423.5 Q964 1391 1025 1333 Q1086 1275 1117 1194.5 Q1148 1114 1148 1017 Q1148 914 1117 833 Q1086 752 1025 696.5 Q964 641 875 611.5 Q786 582 669 582 L335 582 L335 0 L177 0 L177 1456 Z M669 713 Q755 713 816 735.5 Q877 758 916 798.5 Q955 839 973 894.5 Q991 950 991 1015 Q991 1077 973 1133 Q955 1189 916 1231.5 Q877 1274 816 1299.5 Q755 1325 669 1325 L335 1325 L335 713 L669 713 Z " />
<glyph glyph-name="Q" unicode="Q" horiz-adv-x="1354" d="M123 830 Q123 984 162.5 1104 Q202 1224 274 1306.5 Q346 1389 447 1432.5 Q548 1476 671 1476 Q796 1476 897.5 1432.5 Q999 1389 1070.5 1306.5 Q1142 1224 1181 1104 Q1220 984 1220 830 L1220 626 Q1220 422 1154.5 279.5 Q1089 137 970 60 L1214 -152 L1108 -251 L823 -2 Q753 -20 673 -20 Q550 -20 448.5 23.5 Q347 67 275 149.5 Q203 232 163 352 Q123 472 123 626 L123 830 Z M280 626 Q280 500 307 404.5 Q334 309 385 244.5 Q436 180 509 147.5 Q582 115 673 115 Q862 115 962.5 244 Q1063 373 1063 626 L1063 832 Q1063 1081 961 1210.5 Q859 1340 671 1340 Q580 1340 507.5 1307.5 Q435 1275 384.5 1210.5 Q334 1146 307 1051.5 Q280 957 280 832 L280 626 Z " />
<glyph glyph-name="R" unicode="R" horiz-adv-x="1309" d="M181 1456 L670 1456 Q897 1456 1016.5 1352.5 Q1136 1249 1136 1047 Q1136 932 1075 846 Q1014 760 900 713 Q964 694 1007.5 661 Q1051 628 1077.5 583.5 Q1104 539 1115.5 485 Q1127 431 1127 369 L1127 236 Q1127 174 1141 118 Q1155 62 1193 25 L1193 0 L1032 0 Q1012 20 999.5 50.5 Q987 81 980.5 114.5 Q974 148 971.5 181 Q969 214 969 238 L969 367 Q969 430 950.5 481 Q932 532 897 568 Q862 604 810 623.5 Q758 643 691 643 L338 643 L338 0 L181 0 L181 1456 Z M653 773 Q742 773 804 793 Q866 813 905 849 Q944 885 961.5 935.5 Q979 986 979 1047 Q979 1112 960.5 1163.5 Q942 1215 904 1251 Q866 1287 807 1306 Q748 1325 667 1325 L338 1325 L338 773 L653 773 Z " />
<glyph glyph-name="S" unicode="S" horiz-adv-x="1185" d="M250 419 Q250 336 281.5 277.5 Q313 219 365 182 Q417 145 482.5 128 Q548 111 617 111 Q692 111 752 129 Q812 147 854 180 Q896 213 918 259.5 Q940 306 940 363 Q940 419 923.5 462 Q907 505 867 540.5 Q827 576 759 606.5 Q691 637 589 668 Q486 699 402.5 737 Q319 775 259.5 825 Q200 875 167.5 940 Q135 1005 135 1090 Q135 1174 169.5 1245 Q204 1316 267 1367.5 Q330 1419 417 1447.5 Q504 1476 609 1476 Q721 1476 810.5 1441 Q900 1406 962.5 1346 Q1025 1286 1058.5 1206.5 Q1092 1127 1092 1039 L935 1039 Q935 1105 913.5 1161 Q892 1217 851 1258 Q810 1299 749 1322 Q688 1345 608 1345 Q530 1345 471 1325.5 Q412 1306 372.5 1272 Q333 1238 313 1192 Q293 1146 293 1093 Q293 1044 311.5 1003 Q330 962 371.5 927.5 Q413 893 479 863 Q545 833 640 806 Q753 773 838.5 732 Q924 691 981.5 638.5 Q1039 586 1068.5 519 Q1098 452 1098 365 Q1098 276 1063 205 Q1028 134 964 84 Q900 34 812 7 Q724 -20 617 -20 Q522 -20 428 6.5 Q334 33 259.5 87.5 Q185 142 138.5 224.5 Q92 307 92 419 L250 419 Z " />
<glyph glyph-name="T" unicode="T" horiz-adv-x="1194" d="M519 1325 L59 1325 L59 1456 L1135 1456 L1135 1325 L675 1325 L675 0 L519 0 L519 1325 Z " />
<glyph glyph-name="U" unicode="U" horiz-adv-x="1302" d="M155 1456 L312 1456 L312 451 Q312 360 337 295.5 Q362 231 407 190 Q452 149 514.5 129.5 Q577 110 652 110 Q728 110 790.5 129.5 Q853 149 898 190 Q943 231 967.5 295.5 Q992 360 992 451 L992 1456 L1150 1456 L1150 451 Q1150 328 1110.5 239 Q1071 150 1003.5 92.5 Q936 35 845.5 7.5 Q755 -20 652 -20 Q546 -20 455.5 7.5 Q365 35 298 92.5 Q231 150 193 239 Q155 328 155 451 L155 1456 Z " />
<glyph glyph-name="V" unicode="V" horiz-adv-x="1247" d="M38 1456 L211 1456 L623 201 L1038 1456 L1210 1456 L699 0 L549 0 L38 1456 Z " />
<glyph glyph-name="W" unicode="W" horiz-adv-x="1762" d="M67 1456 L226 1456 L463 372 L492 200 L528 358 L815 1456 L963 1456 L1245 358 L1281 197 L1312 373 L1546 1456 L1705 1456 L1365 0 L1209 0 L913 1120 L889 1238 L865 1120 L564 0 L408 0 L67 1456 Z " />
<glyph glyph-name="X" unicode="X" horiz-adv-x="1232" d="M521 737 L74 1456 L259 1456 L617 859 L975 1456 L1159 1456 L714 737 L1172 0 L987 0 L617 612 L248 0 L62 0 L521 737 Z " />
<glyph glyph-name="Y" unicode="Y" horiz-adv-x="1198" d="M518 546 L30 1456 L211 1456 L598 693 L986 1456 L1165 1456 L676 546 L676 0 L518 0 L518 546 Z " />
<glyph glyph-name="Z" unicode="Z" horiz-adv-x="1193" d="M95 119 L887 1325 L114 1325 L114 1456 L1074 1456 L1074 1342 L282 131 L1103 131 L1103 0 L95 0 L95 119 Z " />
<glyph glyph-name="bracketleft" unicode="&#x5b;" horiz-adv-x="516" d="M159 1664 L498 1664 L498 1537 L310 1537 L310 -185 L498 -185 L498 -312 L159 -312 L159 1664 Z " />
<glyph glyph-name="backslash" unicode="&#x5c;" horiz-adv-x="809" d="M51 1456 L200 1456 L778 -125 L630 -125 L51 1456 Z " />
<glyph glyph-name="bracketright" unicode="&#x5d;" horiz-adv-x="516" d="M17 -185 L204 -185 L204 1537 L17 1537 L17 1664 L357 1664 L357 -312 L17 -312 L17 -185 Z " />
<glyph glyph-name="asciicircum" unicode="&#x5e;" horiz-adv-x="842" d="M363 1456 L473 1456 L757 729 L618 729 L418 1255 L217 729 L78 729 L363 1456 Z " />
<glyph glyph-name="underscore" unicode="&#x5f;" horiz-adv-x="881" d="M14 -127 L14 0 L866 0 L866 -127 L14 -127 Z " />
<glyph glyph-name="grave" unicode="&#x60;" horiz-adv-x="625" d="M330 1249 L87 1536 L271 1536 L466 1249 L330 1249 Z " />
<glyph glyph-name="a" unicode="a" horiz-adv-x="1074" d="M764 643 L764 762 Q764 869 704 923 Q644 977 528 977 Q473 977 428 962 Q383 947 350.5 920.5 Q318 894 300 858.5 Q282 823 282 782 L130 783 Q130 843 159 900.5 Q188 958 241 1003 Q294 1048 369 1075 Q444 1102 535 1102 Q619 1102 689 1082 Q759 1062 809.5 1020 Q860 978 888 913.5 Q916 849 916 760 L916 232 Q916 204 918 174.5 Q920 145 924.5 116 Q929 87 935.5 61 Q942 35 950 15 L950 0 L792 0 Q782 25 775.5 60.5 Q769 96 766 134 Q742 103 709.5 75 Q677 47 637 26 Q597 5 549 -7.5 Q501 -20 446 -20 Q370 -20 307 2 Q244 24 199.5 64.5 Q155 105 130.5 162.5 Q106 220 106 292 Q106 373 137.5 438 Q169 503 229 548.5 Q289 594 376.5 618.5 Q464 643 575 643 L764 643 Z M764 532 L593 532 Q431 532 345 473.5 Q259 415 259 309 Q259 215 313.5 164 Q368 113 468 113 Q523 113 570 127.5 Q617 142 654.5 167 Q692 192 720 224 Q748 256 764 291 L764 532 Z " />
<glyph glyph-name="b" unicode="b" horiz-adv-x="1112" d="M151 1536 L303 1536 L303 943 Q354 1019 429 1060.5 Q504 1102 608 1102 Q801 1102 903 967 Q1005 832 1005 570 L1005 509 Q1005 385 979 286.5 Q953 188 903 120 Q853 52 779 16 Q705 -20 610 -20 Q503 -20 426.5 21.5 Q350 63 299 138 L292 0 L151 0 L151 1536 Z M303 288 Q320 251 344.5 218.5 Q369 186 403 162 Q437 138 480 124 Q523 110 576 110 Q649 110 701.5 138 Q754 166 787.5 217.5 Q821 269 837 343 Q853 417 853 509 L853 570 Q853 663 838 737 Q823 811 789.5 863.5 Q756 916 703 944 Q650 972 574 972 Q518 972 474.5 957.5 Q431 943 398 918 Q365 893 342 860 Q319 827 303 789 L303 288 Z " />
<glyph glyph-name="c" unicode="c" horiz-adv-x="1036" d="M98 582 Q98 698 126.5 794 Q155 890 211 958.5 Q267 1027 351.5 1064.5 Q436 1102 547 1102 Q633 1102 706 1075.5 Q779 1049 832.5 999 Q886 949 917.5 877 Q949 805 952 714 L807 714 Q804 777 783.5 825.5 Q763 874 728.5 907.5 Q694 941 647.5 958 Q601 975 546 975 Q464 975 407 944.5 Q350 914 315.5 861 Q281 808 265.5 736.5 Q250 665 250 582 L250 500 Q250 416 265 344.5 Q280 273 315 220 Q350 167 407 137 Q464 107 547 107 Q597 107 643 121 Q689 135 724 163.5 Q759 192 781.5 235.5 Q804 279 807 338 L952 338 Q949 259 915.5 193 Q882 127 827.5 79.5 Q773 32 701 6 Q629 -20 548 -20 Q436 -20 352 18 Q268 56 211.5 124.5 Q155 193 126.5 288.5 Q98 384 98 500 L98 582 Z " />
<glyph glyph-name="d" unicode="d" horiz-adv-x="1115" d="M106 570 Q106 700 134 799.5 Q162 899 214 966 Q266 1033 340 1067.5 Q414 1102 507 1102 Q609 1102 683 1062.5 Q757 1023 808 949 L808 1536 L960 1536 L960 0 L819 0 L812 133 Q761 60 685.5 20 Q610 -20 506 -20 Q414 -20 340 16 Q266 52 214 120 Q162 188 134 286.5 Q106 385 106 509 L106 570 Z M260 509 Q260 417 276.5 343 Q293 269 327 217.5 Q361 166 414 138 Q467 110 540 110 Q592 110 633.5 122.5 Q675 135 708 157.5 Q741 180 765.5 211 Q790 242 808 279 L808 800 Q792 836 768.5 867 Q745 898 712 921.5 Q679 945 637 958.5 Q595 972 541 972 Q468 972 414.5 944 Q361 916 327 863.5 Q293 811 276.5 737 Q260 663 260 570 L260 509 Z " />
<glyph glyph-name="e" unicode="e" horiz-adv-x="1047" d="M97 570 Q97 704 133 804 Q169 904 230.5 970 Q292 1036 373.5 1069 Q455 1102 545 1102 Q649 1102 727 1067.5 Q805 1033 858 968 Q911 903 937.5 810 Q964 717 964 600 L964 511 L249 511 L249 487 Q249 399 272 328.5 Q295 258 338 208.5 Q381 159 441 132.5 Q501 106 576 106 Q668 106 736.5 140.5 Q805 175 859 238 L943 157 Q918 122 883 90 Q848 58 802 33.5 Q756 9 698 -5.5 Q640 -20 568 -20 Q463 -20 376 14 Q289 48 227 113.5 Q165 179 131 273 Q97 367 97 487 L97 570 Z M812 638 L812 659 Q810 725 793.5 783 Q777 841 744.5 883.5 Q712 926 662.5 950.5 Q613 975 545 975 Q422 975 344 892.5 Q266 810 252 638 L812 638 Z " />
<glyph glyph-name="f" unicode="f" horiz-adv-x="686" d="M234 962 L68 962 L68 1082 L234 1082 L234 1207 Q234 1292 256.5 1357 Q279 1422 320.5 1466.5 Q362 1511 422 1534 Q482 1557 557 1557 Q589 1557 620 1553 Q651 1549 682 1541 L673 1415 Q651 1420 627 1423 Q603 1426 574 1426 Q486 1426 436 1369.5 Q386 1313 386 1207 L386 1082 L619 1082 L619 962 L386 962 L386 0 L234 0 L234 962 Z " />
<glyph glyph-name="g" unicode="g" horiz-adv-x="1053" d="M606 192 Q693 192 763 174.5 Q833 157 882 121 Q931 85 957.5 30 Q984 -25 984 -100 Q984 -157 950.5 -217 Q917 -277 853 -326 Q789 -375 695.5 -406.5 Q602 -438 482 -438 Q377 -438 297 -415.5 Q217 -393 163 -355 Q109 -317 81.5 -266 Q54 -215 54 -159 Q54 -109 69 -67 Q84 -25 109.5 9 Q135 43 169 69.5 Q203 96 240 114 Q214 135 198 166.5 Q182 198 182 240 Q182 276 191 305 Q200 334 214.5 358 Q229 382 248 401 Q267 420 286 435 Q204 483 157 559 Q110 635 110 726 L110 748 Q110 825 139.5 890 Q169 955 222 1002 Q275 1049 348.5 1075.5 Q422 1102 510 1102 Q587 1102 653 1082 L986 1082 L988 960 L840 960 Q874 916 892.5 863 Q911 810 911 748 L911 726 Q911 655 882 591.5 Q853 528 800 480.5 Q747 433 674 405.5 Q601 378 512 378 Q439 378 374 398 Q352 379 334 351 Q316 323 316 281 Q316 255 325.5 238 Q335 221 351.5 210.5 Q368 200 390 196 Q412 192 436 192 L606 192 Z M410 65 Q393 65 377.5 66.5 Q362 68 347 70 Q317 59 291 39 Q265 19 245.5 -7 Q226 -33 214.5 -65 Q203 -97 203 -131 Q203 -168 219.5 -201 Q236 -234 270.5 -258.5 Q305 -283 357.5 -297.5 Q410 -312 482 -312 Q567 -312 632.5 -292 Q698 -272 742 -241.5 Q786 -211 809 -173.5 Q832 -136 832 -100 Q832 -62 820 -31.5 Q808 -1 780.5 20.5 Q753 42 709 53.5 Q665 65 601 65 L410 65 Z M759 748 Q759 793 741.5 834.5 Q724 876 691.5 907 Q659 938 613 956.5 Q567 975 510 975 Q454 975 408.5 956.5 Q363 938 330.5 907 Q298 876 280.5 834.5 Q263 793 263 748 L263 726 Q263 685 280.5 645 Q298 605 330.5 574 Q363 543 409 524 Q455 505 512 505 Q569 505 614.5 524 Q660 543 692 574 Q724 605 741.5 645 Q759 685 759 726 L759 748 Z " />
<glyph glyph-name="h" unicode="h" horiz-adv-x="1099" d="M150 1536 L303 1536 L303 925 Q357 1007 437.5 1054.5 Q518 1102 621 1102 Q698 1102 759 1080 Q820 1058 862.5 1011 Q905 964 928 889 Q951 814 951 707 L951 0 L800 0 L800 708 Q800 782 784.5 832.5 Q769 883 740.5 914.5 Q712 946 670.5 959.5 Q629 973 577 973 Q526 973 483 956.5 Q440 940 405.5 911 Q371 882 345.5 843 Q320 804 303 760 L303 0 L150 0 L150 1536 Z " />
<glyph glyph-name="i" unicode="i" horiz-adv-x="482" >
<g transform="translate(1,0)" >
<path fill="black" d="M165 0 L165 1082 L317 1082 L317 0 L165 0 Z " />
</g>
<g transform="translate(0,8)" >
<path fill="black" d="M148 1375 Q148 1414 173.5 1441 Q199 1468 244 1468 Q289 1468 314 1441 Q339 1414 339 1375 Q339 1336 314 1309.5 Q289 1283 244 1283 Q199 1283 173.5 1309.5 Q148 1336 148 1375 Z " />
</g>
</glyph>
<glyph glyph-name="j" unicode="j" horiz-adv-x="484" d="M-74 -295 Q-57 -300 -33.5 -303.5 Q-10 -307 10 -307 Q83 -307 121.5 -265 Q160 -223 160 -129 L160 1082 L313 1082 L313 -129 Q313 -279 241.5 -358 Q170 -437 32 -437 Q7 -437 -22.5 -432 Q-52 -427 -76 -419 L-74 -295 Z M141 1383 Q141 1422 166.5 1449 Q192 1476 237 1476 Q282 1476 307 1449 Q332 1422 332 1383 Q332 1344 307 1317.5 Q282 1291 237 1291 Q192 1291 166.5 1317.5 Q141 1344 141 1383 Z " />
<glyph glyph-name="k" unicode="k" horiz-adv-x="1000" d="M152 1536 L304 1536 L304 578 L407 691 L758 1082 L946 1082 L526 631 L986 0 L806 0 L424 520 L304 391 L304 0 L152 0 L152 1536 Z " />
<glyph glyph-name="l" unicode="l" horiz-adv-x="609" d="M164 1536 L316 1536 L316 266 Q316 217 326 186.5 Q336 156 353 139.5 Q370 123 393 117.5 Q416 112 441 112 Q465 112 488.5 116 Q512 120 529 123 L532 -2 Q509 -9 474.5 -14.5 Q440 -20 401 -20 Q350 -20 306.5 -5.5 Q263 9 231.5 42.5 Q200 76 182 131 Q164 186 164 267 L164 1536 Z " />
<glyph glyph-name="m" unicode="m" horiz-adv-x="1742" d="M148 1082 L292 1082 L298 931 Q350 1010 430 1056 Q510 1102 618 1102 Q725 1102 803.5 1056.5 Q882 1011 919 909 Q969 995 1055 1048.5 Q1141 1102 1258 1102 Q1339 1102 1402 1079.5 Q1465 1057 1508.5 1009 Q1552 961 1574.5 886.5 Q1597 812 1597 708 L1597 0 L1445 0 L1445 709 Q1445 786 1428.5 837 Q1412 888 1381.5 918 Q1351 948 1308.5 960 Q1266 972 1214 972 Q1155 972 1108.5 952 Q1062 932 1029 899 Q996 866 975.5 823.5 Q955 781 948 736 L948 721 L948 0 L795 0 L795 714 Q795 786 778.5 835.5 Q762 885 732 915.5 Q702 946 659.5 959.5 Q617 973 566 973 Q511 973 468 956.5 Q425 940 392.5 912 Q360 884 337 846 Q314 808 300 765 L300 0 L148 0 L148 1082 Z " />
<glyph glyph-name="n" unicode="n" horiz-adv-x="1100" d="M151 1082 L296 1082 L301 921 Q355 1005 437 1053.5 Q519 1102 623 1102 Q699 1102 760 1080 Q821 1058 863.5 1011 Q906 964 929 889 Q952 814 952 707 L952 0 L800 0 L800 708 Q800 782 785 832.5 Q770 883 741 914.5 Q712 946 671 959.5 Q630 973 577 973 Q526 973 483.5 956 Q441 939 406.5 910 Q372 881 346 842 Q320 803 303 759 L303 0 L151 0 L151 1082 Z " />
<glyph glyph-name="o" unicode="o" horiz-adv-x="1124" d="M99 575 Q99 695 132 792.5 Q165 890 225 959 Q285 1028 370 1065 Q455 1102 560 1102 Q666 1102 752 1065 Q838 1028 898.5 959 Q959 890 991.5 792.5 Q1024 695 1024 575 L1024 507 Q1024 387 991.5 289.5 Q959 192 898.5 123 Q838 54 753 17 Q668 -20 563 -20 Q457 -20 371.5 17 Q286 54 225.5 123 Q165 192 132 289.5 Q99 387 99 507 L99 575 Z M252 507 Q252 420 272 346.5 Q292 273 331.5 219.5 Q371 166 429 136.5 Q487 107 563 107 Q639 107 697 136.5 Q755 166 794 219.5 Q833 273 852.5 346.5 Q872 420 872 507 L872 575 Q872 661 852 734 Q832 807 792.5 860.5 Q753 914 694.5 944.5 Q636 975 560 975 Q485 975 427.5 944.5 Q370 914 331 860.5 Q292 807 272 734 Q252 661 252 575 L252 507 Z " />
<glyph glyph-name="p" unicode="p" horiz-adv-x="1111" d="M151 1082 L291 1082 L299 944 Q350 1020 426.5 1061 Q503 1102 607 1102 Q800 1102 902.5 967 Q1005 832 1005 570 L1005 509 Q1005 385 978.5 286.5 Q952 188 902 120 Q852 52 778.5 16 Q705 -20 610 -20 Q507 -20 430.5 17 Q354 54 303 123 L303 -416 L151 -416 L151 1082 Z M303 267 Q338 197 402.5 152 Q467 107 570 107 Q643 107 696 135 Q749 163 783.5 215.5 Q818 268 835 342.5 Q852 417 852 509 L852 570 Q852 663 835 737 Q818 811 783 863.5 Q748 916 694.5 944 Q641 972 567 972 Q514 972 472.5 959 Q431 946 398.5 923 Q366 900 342.5 869.5 Q319 839 303 804 L303 267 Z " />
<glyph glyph-name="q" unicode="q" horiz-adv-x="1120" d="M808 121 Q757 53 682.5 16.5 Q608 -20 507 -20 Q413 -20 338.5 16 Q264 52 212 120 Q160 188 133 286.5 Q106 385 106 509 L106 570 Q106 700 133.5 799.5 Q161 899 212.5 966 Q264 1033 339 1067.5 Q414 1102 509 1102 Q612 1102 686.5 1062.5 Q761 1023 812 950 L820 1082 L960 1082 L960 -416 L808 -416 L808 121 Z M260 509 Q260 417 276.5 342.5 Q293 268 327.5 215.5 Q362 163 415.5 135 Q469 107 542 107 Q643 107 707.5 153 Q772 199 808 269 L808 809 Q791 843 767 873.5 Q743 904 710.5 926.5 Q678 949 636.5 962 Q595 975 544 975 Q471 975 417 946.5 Q363 918 328.5 865 Q294 812 277 737.5 Q260 663 260 570 L260 509 Z " />
<glyph glyph-name="r" unicode="r" horiz-adv-x="689" d="M151 1082 L298 1082 L302 932 Q344 1010 410.5 1056 Q477 1102 572 1102 Q592 1102 615 1098 Q638 1094 649 1089 L647 943 Q609 950 565 950 Q460 950 395.5 897 Q331 844 303 756 L303 0 L151 0 L151 1082 Z " />
<glyph glyph-name="s" unicode="s" horiz-adv-x="1020" d="M252 314 Q255 254 280 214 Q305 174 342.5 150 Q380 126 426 116.5 Q472 107 517 107 Q576 107 620.5 120 Q665 133 695 156 Q725 179 740.5 209.5 Q756 240 756 276 Q756 308 745 336.5 Q734 365 704.5 390.5 Q675 416 624.5 439.5 Q574 463 495 487 Q410 513 343 541 Q276 569 230 605.5 Q184 642 160 689.5 Q136 737 136 801 Q136 863 162 918 Q188 973 236.5 1014 Q285 1055 354.5 1078.5 Q424 1102 510 1102 Q602 1102 674.5 1077 Q747 1052 797.5 1008.5 Q848 965 874.5 905 Q901 845 901 776 L749 776 Q749 814 733.5 849.5 Q718 885 687.5 913 Q657 941 612.5 958 Q568 975 510 975 Q451 975 408.5 960.5 Q366 946 339 922 Q312 898 299.5 868 Q287 838 287 806 Q287 774 297.5 749 Q308 724 336.5 702 Q365 680 415.5 659 Q466 638 545 613 Q636 585 704 555 Q772 525 817 487 Q862 449 884.5 400.5 Q907 352 907 287 Q907 218 879 161 Q851 104 800 64 Q749 24 677 2 Q605 -20 516 -20 Q415 -20 338 7.5 Q261 35 208.5 81.5 Q156 128 129 188.5 Q102 249 102 314 L252 314 Z " />
<glyph glyph-name="t" unicode="t" horiz-adv-x="659" d="M213 962 L29 962 L29 1082 L213 1082 L213 1352 L366 1352 L366 1082 L568 1082 L568 962 L366 962 L366 266 Q366 217 376 186.5 Q386 156 403 139.5 Q420 123 442.5 117.5 Q465 112 490 112 Q515 112 538 116 Q561 120 578 123 L582 -2 Q559 -9 524.5 -14.5 Q490 -20 450 -20 Q399 -20 355.5 -5.5 Q312 9 280.5 42.5 Q249 76 231 131 Q213 186 213 267 L213 962 Z " />
<glyph glyph-name="u" unicode="u" horiz-adv-x="1100" d="M147 1082 L299 1082 L299 385 Q299 305 316 252.5 Q333 200 362.5 168.5 Q392 137 430.5 124 Q469 111 512 111 Q572 111 618.5 124.5 Q665 138 699.5 162 Q734 186 758 220 Q782 254 797 295 L797 1082 L950 1082 L950 0 L804 0 L801 125 Q752 56 675 18 Q598 -20 486 -20 Q410 -20 347.5 2.5 Q285 25 240.5 74 Q196 123 171.5 200.5 Q147 278 147 387 L147 1082 Z " />
<glyph glyph-name="v" unicode="v" horiz-adv-x="970" d="M44 1082 L201 1082 L486 210 L767 1082 L924 1082 L548 0 L422 0 L44 1082 Z " />
<glyph glyph-name="w" unicode="w" horiz-adv-x="1489" d="M63 1082 L216 1082 L428 216 L429 212 L431 224 L680 1082 L803 1082 L1049 235 L1057 195 L1062 221 L1267 1082 L1420 1082 L1126 0 L998 0 L739 872 L484 0 L357 0 L63 1082 Z " />
<glyph glyph-name="x" unicode="x" horiz-adv-x="985" d="M405 550 L67 1082 L241 1082 L490 660 L741 1082 L916 1082 L577 550 L930 0 L756 0 L492 437 L228 0 L53 0 L405 550 Z " />
<glyph glyph-name="y" unicode="y" horiz-adv-x="956" d="M100 -298 Q110 -300 128 -301.5 Q146 -303 154 -303 Q199 -303 232.5 -292 Q266 -281 291.5 -258.5 Q317 -236 336.5 -201 Q356 -166 374 -118 L418 5 L37 1082 L202 1082 L491 223 L758 1082 L921 1082 L494 -171 Q481 -209 459.5 -255.5 Q438 -302 403.5 -342.5 Q369 -383 318.5 -410 Q268 -437 196 -437 Q173 -437 144.5 -432 Q116 -427 100 -422 L100 -298 Z " />
<glyph glyph-name="z" unicode="z" horiz-adv-x="984" d="M94 112 L694 954 L110 954 L110 1082 L877 1082 L877 972 L275 127 L912 127 L912 0 L94 0 L94 112 Z " />
<glyph glyph-name="braceleft" unicode="&#x7b;" horiz-adv-x="673" d="M283 295 Q283 352 271 397.5 Q259 443 233.5 475.5 Q208 508 168.5 525.5 Q129 543 74 543 L74 668 Q129 668 168.5 685.5 Q208 703 233.5 735 Q259 767 271 812.5 Q283 858 283 915 L283 1132 Q283 1211 299 1282.5 Q315 1354 353 1414.5 Q391 1475 454 1521.5 Q517 1568 611 1597 L644 1501 Q585 1481 544 1445 Q503 1409 478 1361 Q453 1313 442 1255 Q431 1197 431 1132 L431 915 Q431 813 391.5 731 Q352 649 265 605 Q352 562 391.5 479.5 Q431 397 431 295 L431 79 Q431 14 442.5 -44 Q454 -102 479.5 -149.5 Q505 -197 545.5 -232.5 Q586 -268 645 -288 L611 -386 Q517 -357 454 -310.5 Q391 -264 353 -203.5 Q315 -143 299 -71.5 Q283 0 283 79 L283 295 Z " />
<glyph glyph-name="bar" unicode="&#x7c;" horiz-adv-x="486" d="M184 -270 L184 1456 L307 1456 L307 -270 L184 -270 Z " />
<glyph glyph-name="braceright" unicode="&#x7d;" horiz-adv-x="673" d="M27 -288 Q86 -268 127 -232.5 Q168 -197 193.5 -149.5 Q219 -102 230.5 -44 Q242 14 242 79 L242 295 Q242 401 284.5 483 Q327 565 421 605 Q327 646 284.5 727.5 Q242 809 242 915 L242 1132 Q242 1197 231 1255 Q220 1313 194.5 1361 Q169 1409 128.5 1445 Q88 1481 29 1501 L61 1597 Q156 1568 219 1521.5 Q282 1475 320 1414.5 Q358 1354 374 1282.5 Q390 1211 390 1132 L390 915 Q390 858 402 812.5 Q414 767 439 735 Q464 703 504 685.5 Q544 668 599 668 L599 543 Q544 543 504 525.5 Q464 508 439 475.5 Q414 443 402 397.5 Q390 352 390 295 L390 79 Q390 0 374 -71.5 Q358 -143 320 -203.5 Q282 -264 219 -310.5 Q156 -357 61 -386 L27 -288 Z " />
<glyph glyph-name="asciitilde" unicode="&#x7e;" horiz-adv-x="1348" d="M142 443 Q142 517 162.5 581.5 Q183 646 221 693.5 Q259 741 313.5 768 Q368 795 436 795 Q477 795 513 785.5 Q549 776 582.5 757.5 Q616 739 649 712.5 Q682 686 717 653 Q746 626 770 606 Q794 586 816.5 573 Q839 560 862 553.5 Q885 547 910 547 Q949 547 980.5 563.5 Q1012 580 1034 609.5 Q1056 639 1068 680 Q1080 721 1080 771 L1205 771 Q1205 698 1184 633 Q1163 568 1125 519 Q1087 470 1032.5 441.5 Q978 413 911 413 Q869 413 833.5 422 Q798 431 765 449 Q732 467 699 493.5 Q666 520 629 555 Q575 607 532.5 633.5 Q490 660 437 660 Q359 660 316 603.5 Q273 547 273 444 L142 443 Z " />
<glyph glyph-name="uni00A0" unicode="&#xa0;" horiz-adv-x="503" />
<glyph glyph-name="exclamdown" unicode="&#xa1;" horiz-adv-x="483" d="M177 687 L314 687 L325 -361 L166 -361 L177 687 Z M144 1008 Q144 1047 169.5 1074 Q195 1101 240 1101 Q285 1101 310 1074 Q335 1047 335 1008 Q335 969 310 942.5 Q285 916 240 916 Q195 916 169.5 942.5 Q144 969 144 1008 Z " />
<glyph glyph-name="cent" unicode="&#xa2;" horiz-adv-x="1050" d="M494 -15 Q402 -2 333 41 Q264 84 217.5 151 Q171 218 147.5 306.5 Q124 395 124 500 L124 582 Q124 687 147.5 776 Q171 865 217.5 932 Q264 999 333 1041.5 Q402 1084 494 1097 L494 1318 L635 1318 L635 1098 Q709 1089 770.5 1059 Q832 1029 877 980 Q922 931 948.5 864 Q975 797 978 714 L833 714 Q830 777 809.5 825.5 Q789 874 754.5 907.5 Q720 941 673.5 958 Q627 975 572 975 Q490 975 433 944.5 Q376 914 341.5 861 Q307 808 291.5 736.5 Q276 665 276 582 L276 500 Q276 416 291 344.5 Q306 273 341 220 Q376 167 433 137 Q490 107 573 107 Q623 107 669 121 Q715 135 750 163.5 Q785 192 807.5 235.5 Q830 279 833 338 L978 338 Q975 266 947.5 205 Q920 144 874 98 Q828 52 766.5 22.5 Q705 -7 635 -16 L635 -245 L494 -245 L494 -15 Z " />
<glyph glyph-name="sterling" unicode="&#xa3;" horiz-adv-x="1150" d="M105 131 L192 131 Q217 138 233.5 165 Q250 192 260.5 228.5 Q271 265 275 306.5 Q279 348 278 384 L272 634 L101 634 L101 765 L269 765 L262 1039 Q260 1143 289 1224 Q318 1305 371 1361 Q424 1417 498.5 1446.5 Q573 1476 661 1476 Q753 1476 825 1448 Q897 1420 946.5 1368.5 Q996 1317 1022 1245.5 Q1048 1174 1048 1087 L892 1087 Q892 1156 872.5 1205.5 Q853 1255 820 1286 Q787 1317 743 1331.5 Q699 1346 651 1346 Q600 1346 556.5 1326 Q513 1306 481.5 1267 Q450 1228 432.5 1170.5 Q415 1113 415 1039 L423 765 L741 765 L741 634 L427 634 L435 385 Q437 309 422 243.5 Q407 178 373 131 L1071 131 L1071 0 L105 0 L105 131 Z " />
<glyph glyph-name="currency" unicode="&#xa4;" horiz-adv-x="1502" d="M111 85 L262 236 Q208 314 177.5 408 Q147 502 147 608 Q147 719 179.5 816 Q212 913 271 992 L111 1153 L214 1264 L376 1102 Q454 1165 549.5 1199.5 Q645 1234 752 1234 Q860 1234 956 1198.5 Q1052 1163 1130 1100 L1295 1265 L1398 1153 L1235 989 Q1293 911 1325 814 Q1357 717 1357 608 Q1357 503 1327.5 410 Q1298 317 1244 239 L1398 85 L1295 -27 L1142 126 Q1063 57 963.5 18.5 Q864 -20 752 -20 Q640 -20 541.5 18 Q443 56 364 124 L214 -26 L111 85 Z M752 121 Q849 121 934.5 159.5 Q1020 198 1083.5 264 Q1147 330 1184 418.5 Q1221 507 1221 608 Q1221 709 1184 797.5 Q1147 886 1083.5 951.5 Q1020 1017 934.5 1055 Q849 1093 752 1093 Q655 1093 569.5 1055 Q484 1017 420 951.5 Q356 886 319 797.5 Q282 709 282 608 Q282 507 319 418.5 Q356 330 420 264 Q484 198 569.5 159.5 Q655 121 752 121 Z " />
<glyph glyph-name="yen" unicode="&#xa5;" horiz-adv-x="1041" d="M117 430 L439 430 L439 614 L117 614 L117 721 L393 721 L31 1456 L206 1456 L521 757 L836 1456 L1009 1456 L647 721 L920 721 L920 614 L596 614 L596 430 L920 430 L920 323 L596 323 L596 0 L439 0 L439 323 L117 323 L117 430 Z " />
<glyph glyph-name="brokenbar" unicode="&#xa6;" horiz-adv-x="478" d="M160 -270 L160 511 L312 511 L312 -270 L160 -270 Z M160 698 L160 1456 L312 1456 L312 698 L160 698 Z " />
<glyph glyph-name="section" unicode="&#xa7;" horiz-adv-x="1214" d="M258 -62 Q258 -149 288.5 -207.5 Q319 -266 367.5 -302 Q416 -338 476 -353 Q536 -368 595 -368 Q668 -368 725 -350.5 Q782 -333 821 -302 Q860 -271 880 -228.5 Q900 -186 900 -136 Q900 -87 884.5 -49.5 Q869 -12 830 19 Q791 50 726 78 Q661 106 562 137 Q457 166 373.5 200 Q290 234 231.5 281.5 Q173 329 142 394.5 Q111 460 111 551 Q111 647 160.5 716.5 Q210 786 300 824 Q228 873 189.5 942.5 Q151 1012 151 1115 Q151 1197 183.5 1264 Q216 1331 276 1378 Q336 1425 420.5 1451 Q505 1477 610 1477 Q718 1477 803.5 1449 Q889 1421 948.5 1366 Q1008 1311 1039.5 1230.5 Q1071 1150 1071 1046 L919 1046 Q919 1109 899 1164.5 Q879 1220 840 1261 Q801 1302 743 1326 Q685 1350 610 1350 Q531 1350 473 1331.5 Q415 1313 377.5 1281.5 Q340 1250 322 1208 Q304 1166 304 1118 Q304 1065 318.5 1026 Q333 987 370.5 956.5 Q408 926 474 899 Q540 872 642 843 Q749 812 832.5 778 Q916 744 974 697.5 Q1032 651 1062 586.5 Q1092 522 1092 431 Q1092 334 1041 265.5 Q990 197 897 160 Q973 111 1012.5 41.5 Q1052 -28 1052 -134 Q1052 -220 1019.5 -287 Q987 -354 927 -400 Q867 -446 783 -470.5 Q699 -495 595 -495 Q505 -495 417 -473 Q329 -451 260 -401 Q191 -351 148.5 -268.5 Q106 -186 106 -64 L258 -62 Z M263 553 Q263 499 278.5 459.5 Q294 420 333.5 388.5 Q373 357 442.5 330 Q512 303 620 272 Q658 261 692 250 Q726 239 758 227 Q846 246 893.5 300.5 Q941 355 941 428 Q941 479 923.5 517.5 Q906 556 864.5 588.5 Q823 621 754 649 Q685 677 581 707 Q541 719 504 731 Q467 743 434 756 Q346 738 304.5 683 Q263 628 263 553 Z " />
<glyph glyph-name="dieresis" unicode="&#xa8;" horiz-adv-x="908" >
<g transform="translate(-24,9)" >
<path fill="black" d="M148 1375 Q148 1414 173.5 1441 Q199 1468 244 1468 Q289 1468 314 1441 Q339 1414 339 1375 Q339 1336 314 1309.5 Q289 1283 244 1283 Q199 1283 173.5 1309.5 Q148 1336 148 1375 Z " />
</g>
<g transform="translate(426,8)" >
<path fill="black" d="M148 1375 Q148 1414 173.5 1441 Q199 1468 244 1468 Q289 1468 314 1441 Q339 1414 339 1375 Q339 1336 314 1309.5 Q289 1283 244 1283 Q199 1283 173.5 1309.5 Q148 1336 148 1375 Z " />
</g>
</glyph>
<glyph glyph-name="copyright" unicode="&#xa9;" horiz-adv-x="1664" d="M830 -21 Q680 -21 548.5 36.5 Q417 94 319 195 Q221 296 164.5 433 Q108 570 108 729 Q108 888 164.5 1024.5 Q221 1161 319 1261.5 Q417 1362 548.5 1419 Q680 1476 830 1476 Q979 1476 1110 1419 Q1241 1362 1339 1261.5 Q1437 1161 1494 1024.5 Q1551 888 1551 729 Q1551 570 1494 433 Q1437 296 1339 195 Q1241 94 1110 36.5 Q979 -21 830 -21 Z M830 82 Q959 82 1072 132 Q1185 182 1270 269 Q1355 356 1404 474.5 Q1453 593 1453 729 Q1453 866 1404 983.5 Q1355 1101 1270 1187.5 Q1185 1274 1072 1323.5 Q959 1373 830 1373 Q701 1373 587 1323.5 Q473 1274 388.5 1187.5 Q304 1101 254.5 983.5 Q205 866 205 729 Q205 593 254.5 474.5 Q304 356 388.5 269 Q473 182 587 132 Q701 82 830 82 Z M475 782 Q475 868 499 939 Q523 1010 568 1061 Q613 1112 676.5 1140.5 Q740 1169 818 1169 Q893 1169 953.5 1149.5 Q1014 1130 1056.5 1091 Q1099 1052 1122 993 Q1145 934 1145 856 L1028 856 Q1028 963 974.5 1011 Q921 1059 818 1059 Q763 1059 721 1038 Q679 1017 650.5 980.5 Q622 944 607 893.5 Q592 843 592 783 L592 675 Q592 615 607 564 Q622 513 650.5 476 Q679 439 721 418.5 Q763 398 818 398 Q920 398 973.5 445.5 Q1027 493 1027 602 L1144 602 Q1144 523 1121 464 Q1098 405 1056 366 Q1014 327 953.5 307.5 Q893 288 818 288 Q740 288 676.5 316 Q613 344 568 395 Q523 446 499 517.5 Q475 589 475 675 L475 782 Z " />
<glyph glyph-name="guillemotleft" unicode="&#xab;" horiz-adv-x="931" >
<g transform="translate(7,-11)" >
<path fill="black" d="M116 544 L116 563 L395 947 L515 947 L262 554 L515 160 L395 160 L116 544 Z " />
</g>
<g transform="translate(298,-8)" >
<path fill="black" d="M116 544 L116 563 L395 947 L515 947 L262 554 L515 160 L395 160 L116 544 Z " />
</g>
</glyph>
<glyph glyph-name="logicalnot" unicode="&#xac;" horiz-adv-x="1095" d="M132 789 L913 789 L913 381 L771 381 L771 655 L132 655 L132 789 Z " />
<glyph glyph-name="uni00AD" unicode="&#xad;" horiz-adv-x="602" >
<g transform="translate(4,0)" >
<path fill="black" d="M63 568 L63 695 L532 695 L532 568 L63 568 Z " />
</g>
</glyph>
<glyph glyph-name="registered" unicode="&#xae;" horiz-adv-x="1668" d="M826 -21 Q677 -21 545.5 36.5 Q414 94 316 195 Q218 296 161 433 Q104 570 104 729 Q104 888 161 1024.5 Q218 1161 316 1261.5 Q414 1362 545.5 1419 Q677 1476 826 1476 Q975 1476 1106.5 1419 Q1238 1362 1336 1261.5 Q1434 1161 1491 1024.5 Q1548 888 1548 729 Q1548 570 1491 433 Q1434 296 1336 195 Q1238 94 1106.5 36.5 Q975 -21 826 -21 Z M826 82 Q955 82 1068.5 132 Q1182 182 1266.5 269 Q1351 356 1400.5 474.5 Q1450 593 1450 729 Q1450 866 1400.5 983.5 Q1351 1101 1266.5 1187.5 Q1182 1274 1068.5 1323.5 Q955 1373 826 1373 Q697 1373 583.5 1323.5 Q470 1274 385 1187.5 Q300 1101 251 983.5 Q202 866 202 729 Q202 593 251 474.5 Q300 356 385 269 Q470 182 583.5 132 Q697 82 826 82 Z M552 1163 L821 1163 Q970 1163 1053.5 1100.5 Q1137 1038 1137 911 Q1137 848 1104.5 795.5 Q1072 743 1010 715 Q1075 687 1100.5 634 Q1126 581 1126 512 L1126 462 Q1126 424 1130 391 Q1134 358 1144 335 L1144 319 L1025 319 Q1020 332 1017 352 Q1014 372 1012.5 393 Q1011 414 1011 433 Q1011 452 1011 463 L1011 511 Q1011 589 974.5 625 Q938 661 849 661 L666 661 L666 319 L552 319 L552 1163 Z M840 770 Q877 770 910 779 Q943 788 968 805.5 Q993 823 1007.5 848.5 Q1022 874 1022 908 Q1022 947 1011.5 975 Q1001 1003 977.5 1021 Q954 1039 915.5 1047 Q877 1055 821 1055 L666 1055 L666 770 L840 770 Z " />
<glyph glyph-name="overscore" unicode="&#xaf;" horiz-adv-x="893" d="M148 1323 L148 1443 L760 1443 L760 1323 L148 1323 Z " />
<glyph glyph-name="degree" unicode="&#xb0;" horiz-adv-x="796" d="M145 1222 Q145 1274 165 1320.5 Q185 1367 220 1401.5 Q255 1436 301.5 1456.5 Q348 1477 400 1477 Q451 1477 497 1456.5 Q543 1436 577 1401.5 Q611 1367 631 1320.5 Q651 1274 651 1222 Q651 1169 631 1123 Q611 1077 577 1043 Q543 1009 497 989.5 Q451 970 400 970 Q348 970 301.5 989.5 Q255 1009 220 1043 Q185 1077 165 1123 Q145 1169 145 1222 Z M250 1222 Q250 1191 262 1165 Q274 1139 294 1120 Q314 1101 341.5 1090.5 Q369 1080 400 1080 Q431 1080 458 1090.5 Q485 1101 504.5 1120 Q524 1139 535 1165 Q546 1191 546 1222 Q546 1254 535 1280.5 Q524 1307 504.5 1326.5 Q485 1346 458 1357 Q431 1368 400 1368 Q369 1368 341.5 1357 Q314 1346 294 1326.5 Q274 1307 262 1280.5 Q250 1254 250 1222 Z " />
<glyph glyph-name="plusminus" unicode="&#xb1;" horiz-adv-x="1063" d="M474 716 L97 716 L97 842 L474 842 L474 1267 L612 1267 L612 842 L969 842 L969 716 L612 716 L612 289 L474 289 L474 716 Z M140 127 L938 127 L938 0 L140 0 L140 127 Z " />
<glyph glyph-name="twosuperior" unicode="&#xb2;" horiz-adv-x="735" d="M102 666 L102 758 L377 1035 Q444 1103 471.5 1149.5 Q499 1196 499 1233 Q499 1289 465 1323.5 Q431 1358 365 1358 Q287 1358 248.5 1316 Q210 1274 210 1211 L84 1211 Q84 1264 103 1310 Q122 1356 157.5 1391 Q193 1426 244.5 1446 Q296 1466 361 1466 Q423 1466 472 1450 Q521 1434 555 1404 Q589 1374 607.5 1331.5 Q626 1289 626 1235 Q626 1196 612.5 1160 Q599 1124 575 1089.5 Q551 1055 517.5 1020 Q484 985 444 947 L263 774 L659 774 L659 666 L102 666 Z " />
<glyph glyph-name="threesuperior" unicode="&#xb3;" horiz-adv-x="735" d="M206 887 Q206 860 217.5 837.5 Q229 815 250 798.5 Q271 782 300.5 772.5 Q330 763 366 763 Q441 763 480 797.5 Q519 832 519 890 Q519 959 472.5 988.5 Q426 1018 348 1018 L271 1018 L271 1117 L348 1117 Q426 1117 465.5 1151.5 Q505 1186 505 1239 Q505 1289 471 1323.5 Q437 1358 362 1358 Q331 1358 305 1350 Q279 1342 259.5 1327.5 Q240 1313 229 1292.5 Q218 1272 218 1246 L91 1246 Q91 1297 112 1337.5 Q133 1378 169.5 1406.5 Q206 1435 255 1450.5 Q304 1466 360 1466 Q421 1466 471 1451.5 Q521 1437 556.5 1409 Q592 1381 611.5 1339 Q631 1297 631 1243 Q631 1188 596 1141.5 Q561 1095 496 1071 Q571 1049 608.5 1001.5 Q646 954 646 884 Q646 829 624.5 786.5 Q603 744 564.5 715 Q526 686 474 670.5 Q422 655 362 655 Q310 655 259 668.5 Q208 682 168 710.5 Q128 739 103.5 783 Q79 827 79 887 L206 887 Z " />
<glyph glyph-name="acute" unicode="&#xb4;" horiz-adv-x="620" d="M323 1536 L507 1536 L259 1249 L128 1249 L323 1536 Z " />
<glyph glyph-name="mu" unicode="&#xb5;" horiz-adv-x="1130" d="M162 1082 L313 1082 L313 455 Q313 347 331 279 Q349 211 380.5 172.5 Q412 134 453.5 120 Q495 106 542 106 Q601 106 646 119.5 Q691 133 724 157.5 Q757 182 779 217 Q801 252 814 295 L814 1082 L967 1082 L967 0 L828 0 L821 129 Q777 58 710 18.5 Q643 -21 548 -21 Q476 -21 416.5 0.5 Q357 22 313 73 L313 -416 L162 -416 L162 1082 Z " />
<glyph glyph-name="paragraph" unicode="&#xb6;" horiz-adv-x="963" d="M648 0 L648 520 L554 520 Q441 520 353.5 555 Q266 590 206.5 652.5 Q147 715 116.5 801 Q86 887 86 988 Q86 1089 116.5 1174.5 Q147 1260 206.5 1322.5 Q266 1385 353.5 1420.5 Q441 1456 554 1456 L792 1456 L792 0 L648 0 Z " />
<glyph glyph-name="middot" unicode="&#xb7;" horiz-adv-x="526" >
<g transform="translate(11,638)" >
<path fill="black" d="M150 85 Q150 127 177 155 Q204 183 252 183 Q300 183 327 155 Q354 127 354 85 Q354 45 327 17.5 Q300 -10 252 -10 Q204 -10 177 17.5 Q150 45 150 85 Z " />
</g>
</glyph>
<glyph glyph-name="cedilla" unicode="&#xb8;" horiz-adv-x="508" d="M115 -343 Q148 -343 179 -337 Q210 -331 233.5 -317.5 Q257 -304 271.5 -283 Q286 -262 286 -233 Q286 -206 276.5 -188 Q267 -170 247.5 -159 Q228 -148 198 -141.5 Q168 -135 127 -131 L155 0 L269 0 L258 -59 Q287 -64 314 -74.5 Q341 -85 362.5 -105.5 Q384 -126 397 -156.5 Q410 -187 410 -231 Q410 -277 391 -314.5 Q372 -352 335.5 -379 Q299 -406 245 -420.5 Q191 -435 121 -435 L115 -343 Z " />
<glyph glyph-name="onesuperior" unicode="&#xb9;" horiz-adv-x="735" d="M348 666 L348 1299 L137 1235 L137 1344 L460 1455 L475 1455 L475 666 L348 666 Z " />
<glyph glyph-name="guillemotright" unicode="&#xbb;" horiz-adv-x="928" >
<g transform="translate(18,0)" >
<path fill="black" d="M355 551 L101 947 L222 947 L500 560 L500 541 L222 157 L101 157 L355 551 Z " />
</g>
<g transform="translate(330,0)" >
<path fill="black" d="M355 551 L101 947 L222 947 L500 560 L500 541 L222 157 L101 157 L355 551 Z " />
</g>
</glyph>
<glyph glyph-name="onequarter" unicode="&#xbc;" horiz-adv-x="1398" d="M1001 1319 L1088 1262 L411 124 L324 181 L1001 1319 Z M746 263 L1114 789 L1244 789 L1244 288 L1355 288 L1355 179 L1244 179 L1244 0 L1118 0 L1118 179 L751 179 L746 263 Z M327 664 L327 1297 L116 1233 L116 1342 L439 1453 L454 1453 L454 664 L327 664 Z M1118 288 L1118 624 L1095 585 L875 288 L1118 288 Z " />
<glyph glyph-name="onehalf" unicode="&#xbd;" horiz-adv-x="1477" d="M359 664 L306 664 L306 1297 L95 1233 L95 1342 L418 1453 L433 1453 L433 788 L744 1311 L831 1254 L154 116 L67 173 L359 664 Z M844 92 L1119 369 Q1186 437 1213.5 483.5 Q1241 530 1241 567 Q1241 623 1207 657.5 Q1173 692 1107 692 Q1029 692 990.5 650 Q952 608 952 545 L826 545 Q826 598 845 644 Q864 690 899.5 725 Q935 760 986.5 780 Q1038 800 1103 800 Q1165 800 1214 784 Q1263 768 1297 738 Q1331 708 1349.5 665.5 Q1368 623 1368 569 Q1368 530 1354.5 494 Q1341 458 1317 423.5 Q1293 389 1259.5 354 Q1226 319 1186 281 L1005 108 L1401 108 L1401 0 L844 0 L844 92 Z " />
<glyph glyph-name="threequarters" unicode="&#xbe;" horiz-adv-x="1485" d="M356 658 Q310 664 268 680.5 Q226 697 194 725.5 Q162 754 143 794 Q124 834 124 887 L251 887 Q251 860 262.5 837.5 Q274 815 295 798.5 Q316 782 345.5 772.5 Q375 763 411 763 L418 763 L540 968 Q519 994 481.5 1006 Q444 1018 393 1018 L316 1018 L316 1117 L393 1117 Q471 1117 510.5 1151.5 Q550 1186 550 1239 Q550 1289 516 1323.5 Q482 1358 407 1358 Q376 1358 350 1350 Q324 1342 304.5 1327.5 Q285 1313 274 1292.5 Q263 1272 263 1246 L136 1246 Q136 1297 157 1337.5 Q178 1378 214.5 1406.5 Q251 1435 300 1450.5 Q349 1466 405 1466 Q466 1466 516 1451.5 Q566 1437 601.5 1409 Q637 1381 656.5 1339 Q676 1297 676 1243 Q676 1188 641 1141.5 Q606 1095 541 1071 Q570 1061 590 1052 L744 1311 L831 1254 L668 980 Q691 937 691 884 Q691 838 675.5 800 Q660 762 631.5 734 Q603 706 564 687.5 Q525 669 478 661 L154 116 L67 173 L356 658 Z M819 263 L1187 789 L1317 789 L1317 288 L1428 288 L1428 179 L1317 179 L1317 0 L1191 0 L1191 179 L824 179 L819 263 Z M1191 288 L1191 624 L1168 585 L948 288 L1191 288 Z " />
<glyph glyph-name="questiondown" unicode="&#xbf;" horiz-adv-x="937" d="M848 -20 Q847 -107 817.5 -174.5 Q788 -242 737 -289 Q686 -336 617 -360.5 Q548 -385 468 -385 Q378 -385 308 -359 Q238 -333 189 -284.5 Q140 -236 114.5 -166 Q89 -96 89 -8 Q89 62 108.5 123 Q128 184 160.5 238 Q193 292 235.5 340.5 Q278 389 325 435 Q354 462 371 489.5 Q388 517 397.5 547.5 Q407 578 410 612 Q413 646 413 684 L561 684 Q560 616 553.5 569 Q547 522 530.5 484 Q514 446 486 409.5 Q458 373 414 326 Q380 289 348.5 254.5 Q317 220 293 182 Q269 144 255 99 Q241 54 241 -5 Q241 -124 299.5 -187.5 Q358 -251 467 -251 Q516 -251 557.5 -236 Q599 -221 630 -191.5 Q661 -162 678.5 -119 Q696 -76 696 -20 L848 -20 Z M386 1008 Q386 1047 411.5 1074 Q437 1101 482 1101 Q527 1101 552 1074 Q577 1047 577 1008 Q577 969 552 942.5 Q527 916 482 916 Q437 916 411.5 942.5 Q386 969 386 1008 Z " />
<glyph glyph-name="Agrave" unicode="&#xc0;" horiz-adv-x="1270" >
<path fill="black" d="M563 1456 L707 1456 L1233 0 L1068 0 L933 395 L337 395 L202 0 L38 0 L563 1456 Z M888 526 L635 1266 L382 526 L888 526 Z " />
<g transform="translate(255,313)" >
<path fill="black" d="M330 1249 L87 1536 L271 1536 L466 1249 L330 1249 Z " />
</g>
</glyph>
<glyph glyph-name="Aacute" unicode="&#xc1;" horiz-adv-x="1270" >
<path fill="black" d="M563 1456 L707 1456 L1233 0 L1068 0 L933 395 L337 395 L202 0 L38 0 L563 1456 Z M888 526 L635 1266 L382 526 L888 526 Z " />
<g transform="translate(424,313)" >
<path fill="black" d="M323 1536 L507 1536 L259 1249 L128 1249 L323 1536 Z " />
</g>
</glyph>
<glyph glyph-name="Acircumflex" unicode="&#xc2;" horiz-adv-x="1270" >
<path fill="black" d="M563 1456 L707 1456 L1233 0 L1068 0 L933 395 L337 395 L202 0 L38 0 L563 1456 Z M888 526 L635 1266 L382 526 L888 526 Z " />
<g transform="translate(193,313)" >
<path fill="black" d="M163 1268 L399 1531 L492 1531 L730 1266 L730 1256 L599 1256 L445 1432 L292 1256 L163 1256 L163 1268 Z " />
</g>
</glyph>
<glyph glyph-name="Atilde" unicode="&#xc3;" horiz-adv-x="1270" >
<path fill="black" d="M563 1456 L707 1456 L1233 0 L1068 0 L933 395 L337 395 L202 0 L38 0 L563 1456 Z M888 526 L635 1266 L382 526 L888 526 Z " />
<g transform="translate(191,320)" >
<path fill="black" d="M120 1258 Q120 1309 135 1351 Q150 1393 176 1423.5 Q202 1454 237.5 1470.5 Q273 1487 315 1487 Q358 1487 389.5 1471 Q421 1455 450 1436 Q479 1417 508.5 1401 Q538 1385 577 1385 Q618 1385 647 1417.5 Q676 1450 676 1502 L780 1493 Q780 1442 765 1400 Q750 1358 723.5 1328 Q697 1298 661 1281.5 Q625 1265 584 1265 Q535 1265 503.5 1281 Q472 1297 445 1316.5 Q418 1336 390.5 1352 Q363 1368 323 1368 Q281 1368 252.5 1336.5 Q224 1305 224 1253 L120 1258 Z " />
</g>
</glyph>
<glyph glyph-name="Adieresis" unicode="&#xc4;" horiz-adv-x="1270" >
<path fill="black" d="M563 1456 L707 1456 L1233 0 L1068 0 L933 395 L337 395 L202 0 L38 0 L563 1456 Z M888 526 L635 1266 L382 526 L888 526 Z " />
<g transform="translate(164,322)" >
<path fill="black" d="M148 1375 Q148 1414 173.5 1441 Q199 1468 244 1468 Q289 1468 314 1441 Q339 1414 339 1375 Q339 1336 314 1309.5 Q289 1283 244 1283 Q199 1283 173.5 1309.5 Q148 1336 148 1375 Z " />
</g>
<g transform="translate(614,321)" >
<path fill="black" d="M148 1375 Q148 1414 173.5 1441 Q199 1468 244 1468 Q289 1468 314 1441 Q339 1414 339 1375 Q339 1336 314 1309.5 Q289 1283 244 1283 Q199 1283 173.5 1309.5 Q148 1336 148 1375 Z " />
</g>
</glyph>
<glyph glyph-name="Aring" unicode="&#xc5;" horiz-adv-x="1270" >
<path fill="black" d="M563 1456 L707 1456 L1233 0 L1068 0 L933 395 L337 395 L202 0 L38 0 L563 1456 Z M888 526 L635 1266 L382 526 L888 526 Z " />
<g transform="translate(310,321)" >
<path fill="black" d="M126 1402 Q126 1444 141.5 1480 Q157 1516 184 1543 Q211 1570 248.5 1585.5 Q286 1601 329 1601 Q372 1601 409 1585.5 Q446 1570 473.5 1543 Q501 1516 516.5 1480 Q532 1444 532 1402 Q532 1360 516.5 1324.5 Q501 1289 473.5 1262.5 Q446 1236 409 1221.5 Q372 1207 329 1207 Q286 1207 248.5 1221.5 Q211 1236 184 1262.5 Q157 1289 141.5 1324.5 Q126 1360 126 1402 Z M213 1402 Q213 1379 221.5 1358 Q230 1337 245 1321.5 Q260 1306 281.5 1296.5 Q303 1287 329 1287 Q355 1287 376.5 1296 Q398 1305 413 1321 Q428 1337 436.5 1357.5 Q445 1378 445 1402 Q445 1426 436.5 1448 Q428 1470 413 1486 Q398 1502 376.5 1511.5 Q355 1521 329 1521 Q303 1521 281.5 1511.5 Q260 1502 245 1486 Q230 1470 221.5 1448 Q213 1426 213 1402 Z " />
</g>
</glyph>
<glyph glyph-name="AE" unicode="&#xc6;" horiz-adv-x="1821" d="M846 1456 L1710 1456 L1710 1329 L1062 1329 L1082 822 L1633 822 L1633 695 L1087 695 L1110 127 L1769 127 L1769 0 L963 0 L948 372 L408 372 L203 0 L18 0 L846 1456 Z M942 515 L912 1287 L487 515 L942 515 Z " />
<glyph glyph-name="Ccedilla" unicode="&#xc7;" horiz-adv-x="1294" d="M567 -353 Q600 -353 631 -347 Q662 -341 685.5 -327.5 Q709 -314 723.5 -293 Q738 -272 738 -243 Q738 -216 728.5 -198 Q719 -180 699.5 -169 Q680 -158 650 -151.5 Q620 -145 579 -141 L605 -17 Q496 -7 409 42 Q322 91 260.5 172.5 Q199 254 166 366.5 Q133 479 133 615 L133 845 Q133 989 170.5 1106 Q208 1223 278 1305 Q348 1387 448 1431.5 Q548 1476 673 1476 Q904 1476 1034 1351.5 Q1164 1227 1184 995 L1026 995 Q1007 1171 924.5 1258 Q842 1345 673 1345 Q581 1345 509.5 1310 Q438 1275 389.5 1210 Q341 1145 316 1053 Q291 961 291 847 L291 615 Q291 506 314.5 413.5 Q338 321 384.5 253.5 Q431 186 500.5 148 Q570 110 663 110 Q751 110 815 130.5 Q879 151 922.5 193.5 Q966 236 991 302 Q1016 368 1026 458 L1184 458 Q1175 352 1140.5 267.5 Q1106 183 1048 122 Q990 61 907.5 25 Q825 -11 720 -18 L710 -69 Q739 -74 766 -84.5 Q793 -95 814.5 -115.5 Q836 -136 849 -166.5 Q862 -197 862 -241 Q862 -287 843 -324.5 Q824 -362 787.5 -389 Q751 -416 697 -430.5 Q643 -445 573 -445 L567 -353 Z " />
<glyph glyph-name="Egrave" unicode="&#xc8;" horiz-adv-x="1132" >
<path fill="black" d="M177 1456 L1047 1456 L1047 1325 L335 1325 L335 816 L957 816 L957 686 L335 686 L335 131 L1053 131 L1053 0 L177 0 L177 1456 Z " />
<g transform="translate(221,321)" >
<path fill="black" d="M330 1249 L87 1536 L271 1536 L466 1249 L330 1249 Z " />
</g>
</glyph>
<glyph glyph-name="Eacute" unicode="&#xc9;" horiz-adv-x="1132" >
<path fill="black" d="M177 1456 L1047 1456 L1047 1325 L335 1325 L335 816 L957 816 L957 686 L335 686 L335 131 L1053 131 L1053 0 L177 0 L177 1456 Z " />
<g transform="translate(390,321)" >
<path fill="black" d="M323 1536 L507 1536 L259 1249 L128 1249 L323 1536 Z " />
</g>
</glyph>
<glyph glyph-name="Ecircumflex" unicode="&#xca;" horiz-adv-x="1132" >
<path fill="black" d="M177 1456 L1047 1456 L1047 1325 L335 1325 L335 816 L957 816 L957 686 L335 686 L335 131 L1053 131 L1053 0 L177 0 L177 1456 Z " />
<g transform="translate(159,321)" >
<path fill="black" d="M163 1268 L399 1531 L492 1531 L730 1266 L730 1256 L599 1256 L445 1432 L292 1256 L163 1256 L163 1268 Z " />
</g>
</glyph>
<glyph glyph-name="Edieresis" unicode="&#xcb;" horiz-adv-x="1132" >
<path fill="black" d="M177 1456 L1047 1456 L1047 1325 L335 1325 L335 816 L957 816 L957 686 L335 686 L335 131 L1053 131 L1053 0 L177 0 L177 1456 Z " />
<g transform="translate(130,330)" >
<path fill="black" d="M148 1375 Q148 1414 173.5 1441 Q199 1468 244 1468 Q289 1468 314 1441 Q339 1414 339 1375 Q339 1336 314 1309.5 Q289 1283 244 1283 Q199 1283 173.5 1309.5 Q148 1336 148 1375 Z " />
</g>
<g transform="translate(580,329)" >
<path fill="black" d="M148 1375 Q148 1414 173.5 1441 Q199 1468 244 1468 Q289 1468 314 1441 Q339 1414 339 1375 Q339 1336 314 1309.5 Q289 1283 244 1283 Q199 1283 173.5 1309.5 Q148 1336 148 1375 Z " />
</g>
</glyph>
<glyph glyph-name="Igrave" unicode="&#xcc;" horiz-adv-x="554" >
<path fill="black" d="M199 0 L199 1456 L356 1456 L356 0 L199 0 Z " />
<g transform="translate(-106,321)" >
<path fill="black" d="M330 1249 L87 1536 L271 1536 L466 1249 L330 1249 Z " />
</g>
</glyph>
<glyph glyph-name="Iacute" unicode="&#xcd;" horiz-adv-x="554" >
<path fill="black" d="M199 0 L199 1456 L356 1456 L356 0 L199 0 Z " />
<g transform="translate(63,321)" >
<path fill="black" d="M323 1536 L507 1536 L259 1249 L128 1249 L323 1536 Z " />
</g>
</glyph>
<glyph glyph-name="Icircumflex" unicode="&#xce;" horiz-adv-x="554" >
<path fill="black" d="M199 0 L199 1456 L356 1456 L356 0 L199 0 Z " />
<g transform="translate(-168,321)" >
<path fill="black" d="M163 1268 L399 1531 L492 1531 L730 1266 L730 1256 L599 1256 L445 1432 L292 1256 L163 1256 L163 1268 Z " />
</g>
</glyph>
<glyph glyph-name="Idieresis" unicode="&#xcf;" horiz-adv-x="554" >
<path fill="black" d="M199 0 L199 1456 L356 1456 L356 0 L199 0 Z " />
<g transform="translate(-197,330)" >
<path fill="black" d="M148 1375 Q148 1414 173.5 1441 Q199 1468 244 1468 Q289 1468 314 1441 Q339 1414 339 1375 Q339 1336 314 1309.5 Q289 1283 244 1283 Q199 1283 173.5 1309.5 Q148 1336 148 1375 Z " />
</g>
<g transform="translate(253,329)" >
<path fill="black" d="M148 1375 Q148 1414 173.5 1441 Q199 1468 244 1468 Q289 1468 314 1441 Q339 1414 339 1375 Q339 1336 314 1309.5 Q289 1283 244 1283 Q199 1283 173.5 1309.5 Q148 1336 148 1375 Z " />
</g>
</glyph>
<glyph glyph-name="Eth" unicode="&#xd0;" horiz-adv-x="1301" d="M177 677 L30 677 L30 804 L177 804 L177 1456 L571 1456 Q704 1456 814 1413 Q924 1370 1003 1288.5 Q1082 1207 1126 1089.5 Q1170 972 1170 823 L1170 633 Q1170 483 1126.5 365.5 Q1083 248 1003 167 Q923 86 810.5 43 Q698 0 561 0 L177 0 L177 677 Z M561 131 Q670 131 754.5 165.5 Q839 200 896.5 264.5 Q954 329 984 422 Q1014 515 1014 633 L1014 825 Q1014 946 983.5 1039.5 Q953 1133 896 1196.5 Q839 1260 757 1292.5 Q675 1325 571 1325 L335 1325 L335 804 L631 804 L631 677 L335 677 L335 131 L561 131 Z " />
<glyph glyph-name="Ntilde" unicode="&#xd1;" horiz-adv-x="1410" >
<path fill="black" d="M177 1456 L343 1456 L1075 265 L1075 1456 L1231 1456 L1231 0 L1064 0 L335 1189 L335 0 L177 0 L177 1456 Z " />
<g transform="translate(256,320)" >
<path fill="black" d="M120 1258 Q120 1309 135 1351 Q150 1393 176 1423.5 Q202 1454 237.5 1470.5 Q273 1487 315 1487 Q358 1487 389.5 1471 Q421 1455 450 1436 Q479 1417 508.5 1401 Q538 1385 577 1385 Q618 1385 647 1417.5 Q676 1450 676 1502 L780 1493 Q780 1442 765 1400 Q750 1358 723.5 1328 Q697 1298 661 1281.5 Q625 1265 584 1265 Q535 1265 503.5 1281 Q472 1297 445 1316.5 Q418 1336 390.5 1352 Q363 1368 323 1368 Q281 1368 252.5 1336.5 Q224 1305 224 1253 L120 1258 Z " />
</g>
</glyph>
<glyph glyph-name="Ograve" unicode="&#xd2;" horiz-adv-x="1354" >
<path fill="black" d="M128 830 Q128 983 167.5 1103.5 Q207 1224 279 1306.5 Q351 1389 452 1432.5 Q553 1476 676 1476 Q801 1476 902.5 1432.5 Q1004 1389 1075.5 1306.5 Q1147 1224 1186 1103.5 Q1225 983 1225 830 L1225 626 Q1225 472 1186.5 352 Q1148 232 1077 149.5 Q1006 67 904.5 23.5 Q803 -20 678 -20 Q555 -20 453.5 23.5 Q352 67 280 149.5 Q208 232 168 352 Q128 472 128 626 L128 830 Z M285 626 Q285 500 312 404.5 Q339 309 390 244.5 Q441 180 514 147.5 Q587 115 678 115 Q867 115 967.5 244 Q1068 373 1068 626 L1068 832 Q1068 1081 965.5 1210.5 Q863 1340 676 1340 Q585 1340 512.5 1307.5 Q440 1275 389.5 1210.5 Q339 1146 312 1051.5 Q285 957 285 832 L285 626 Z " />
<g transform="translate(293,320)" >
<path fill="black" d="M330 1249 L87 1536 L271 1536 L466 1249 L330 1249 Z " />
</g>
</glyph>
<glyph glyph-name="Oacute" unicode="&#xd3;" horiz-adv-x="1354" >
<path fill="black" d="M128 830 Q128 983 167.5 1103.5 Q207 1224 279 1306.5 Q351 1389 452 1432.5 Q553 1476 676 1476 Q801 1476 902.5 1432.5 Q1004 1389 1075.5 1306.5 Q1147 1224 1186 1103.5 Q1225 983 1225 830 L1225 626 Q1225 472 1186.5 352 Q1148 232 1077 149.5 Q1006 67 904.5 23.5 Q803 -20 678 -20 Q555 -20 453.5 23.5 Q352 67 280 149.5 Q208 232 168 352 Q128 472 128 626 L128 830 Z M285 626 Q285 500 312 404.5 Q339 309 390 244.5 Q441 180 514 147.5 Q587 115 678 115 Q867 115 967.5 244 Q1068 373 1068 626 L1068 832 Q1068 1081 965.5 1210.5 Q863 1340 676 1340 Q585 1340 512.5 1307.5 Q440 1275 389.5 1210.5 Q339 1146 312 1051.5 Q285 957 285 832 L285 626 Z " />
<g transform="translate(462,320)" >
<path fill="black" d="M323 1536 L507 1536 L259 1249 L128 1249 L323 1536 Z " />
</g>
</glyph>
<glyph glyph-name="Ocircumflex" unicode="&#xd4;" horiz-adv-x="1354" >
<path fill="black" d="M128 830 Q128 983 167.5 1103.5 Q207 1224 279 1306.5 Q351 1389 452 1432.5 Q553 1476 676 1476 Q801 1476 902.5 1432.5 Q1004 1389 1075.5 1306.5 Q1147 1224 1186 1103.5 Q1225 983 1225 830 L1225 626 Q1225 472 1186.5 352 Q1148 232 1077 149.5 Q1006 67 904.5 23.5 Q803 -20 678 -20 Q555 -20 453.5 23.5 Q352 67 280 149.5 Q208 232 168 352 Q128 472 128 626 L128 830 Z M285 626 Q285 500 312 404.5 Q339 309 390 244.5 Q441 180 514 147.5 Q587 115 678 115 Q867 115 967.5 244 Q1068 373 1068 626 L1068 832 Q1068 1081 965.5 1210.5 Q863 1340 676 1340 Q585 1340 512.5 1307.5 Q440 1275 389.5 1210.5 Q339 1146 312 1051.5 Q285 957 285 832 L285 626 Z " />
<g transform="translate(231,320)" >
<path fill="black" d="M163 1268 L399 1531 L492 1531 L730 1266 L730 1256 L599 1256 L445 1432 L292 1256 L163 1256 L163 1268 Z " />
</g>
</glyph>
<glyph glyph-name="Otilde" unicode="&#xd5;" horiz-adv-x="1354" >
<path fill="black" d="M128 830 Q128 983 167.5 1103.5 Q207 1224 279 1306.5 Q351 1389 452 1432.5 Q553 1476 676 1476 Q801 1476 902.5 1432.5 Q1004 1389 1075.5 1306.5 Q1147 1224 1186 1103.5 Q1225 983 1225 830 L1225 626 Q1225 472 1186.5 352 Q1148 232 1077 149.5 Q1006 67 904.5 23.5 Q803 -20 678 -20 Q555 -20 453.5 23.5 Q352 67 280 149.5 Q208 232 168 352 Q128 472 128 626 L128 830 Z M285 626 Q285 500 312 404.5 Q339 309 390 244.5 Q441 180 514 147.5 Q587 115 678 115 Q867 115 967.5 244 Q1068 373 1068 626 L1068 832 Q1068 1081 965.5 1210.5 Q863 1340 676 1340 Q585 1340 512.5 1307.5 Q440 1275 389.5 1210.5 Q339 1146 312 1051.5 Q285 957 285 832 L285 626 Z " />
<g transform="translate(229,327)" >
<path fill="black" d="M120 1258 Q120 1309 135 1351 Q150 1393 176 1423.5 Q202 1454 237.5 1470.5 Q273 1487 315 1487 Q358 1487 389.5 1471 Q421 1455 450 1436 Q479 1417 508.5 1401 Q538 1385 577 1385 Q618 1385 647 1417.5 Q676 1450 676 1502 L780 1493 Q780 1442 765 1400 Q750 1358 723.5 1328 Q697 1298 661 1281.5 Q625 1265 584 1265 Q535 1265 503.5 1281 Q472 1297 445 1316.5 Q418 1336 390.5 1352 Q363 1368 323 1368 Q281 1368 252.5 1336.5 Q224 1305 224 1253 L120 1258 Z " />
</g>
</glyph>
<glyph glyph-name="Odieresis" unicode="&#xd6;" horiz-adv-x="1354" >
<path fill="black" d="M128 830 Q128 983 167.5 1103.5 Q207 1224 279 1306.5 Q351 1389 452 1432.5 Q553 1476 676 1476 Q801 1476 902.5 1432.5 Q1004 1389 1075.5 1306.5 Q1147 1224 1186 1103.5 Q1225 983 1225 830 L1225 626 Q1225 472 1186.5 352 Q1148 232 1077 149.5 Q1006 67 904.5 23.5 Q803 -20 678 -20 Q555 -20 453.5 23.5 Q352 67 280 149.5 Q208 232 168 352 Q128 472 128 626 L128 830 Z M285 626 Q285 500 312 404.5 Q339 309 390 244.5 Q441 180 514 147.5 Q587 115 678 115 Q867 115 967.5 244 Q1068 373 1068 626 L1068 832 Q1068 1081 965.5 1210.5 Q863 1340 676 1340 Q585 1340 512.5 1307.5 Q440 1275 389.5 1210.5 Q339 1146 312 1051.5 Q285 957 285 832 L285 626 Z " />
<g transform="translate(202,329)" >
<path fill="black" d="M148 1375 Q148 1414 173.5 1441 Q199 1468 244 1468 Q289 1468 314 1441 Q339 1414 339 1375 Q339 1336 314 1309.5 Q289 1283 244 1283 Q199 1283 173.5 1309.5 Q148 1336 148 1375 Z " />
</g>
<g transform="translate(652,328)" >
<path fill="black" d="M148 1375 Q148 1414 173.5 1441 Q199 1468 244 1468 Q289 1468 314 1441 Q339 1414 339 1375 Q339 1336 314 1309.5 Q289 1283 244 1283 Q199 1283 173.5 1309.5 Q148 1336 148 1375 Z " />
</g>
</glyph>
<glyph glyph-name="multiply" unicode="&#xd7;" horiz-adv-x="1053" d="M96 254 L425 606 L106 947 L203 1049 L521 709 L838 1049 L935 947 L617 606 L945 254 L848 153 L521 503 L194 153 L96 254 Z " />
<glyph glyph-name="Oslash" unicode="&#xd8;" horiz-adv-x="1314" d="M301 132 Q221 215 177 339 Q133 463 133 626 L133 830 Q133 983 172.5 1103.5 Q212 1224 284 1306.5 Q356 1389 457 1432.5 Q558 1476 681 1476 Q785 1476 872 1446 Q959 1416 1028 1359 L1118 1511 L1237 1511 L1101 1281 Q1164 1199 1197 1086 Q1230 973 1230 830 L1230 626 Q1230 472 1191.5 352 Q1153 232 1082 149.5 Q1011 67 909.5 23.5 Q808 -20 683 -20 Q509 -20 381 65 L290 -89 L170 -89 L301 132 Z M952 1232 Q852 1340 681 1340 Q590 1340 517.5 1307.5 Q445 1275 394.5 1210.5 Q344 1146 317 1051.5 Q290 957 290 832 L290 626 Q290 509 313 419.5 Q336 330 380 265 L952 1232 Z M1073 832 Q1073 926 1058.5 1001.5 Q1044 1077 1016 1137 L453 187 Q546 115 683 115 Q872 115 972.5 244 Q1073 373 1073 626 L1073 832 Z " />
<glyph glyph-name="Ugrave" unicode="&#xd9;" horiz-adv-x="1302" >
<path fill="black" d="M155 1456 L312 1456 L312 451 Q312 360 337 295.5 Q362 231 407 190 Q452 149 514.5 129.5 Q577 110 652 110 Q728 110 790.5 129.5 Q853 149 898 190 Q943 231 967.5 295.5 Q992 360 992 451 L992 1456 L1150 1456 L1150 451 Q1150 328 1110.5 239 Q1071 150 1003.5 92.5 Q936 35 845.5 7.5 Q755 -20 652 -20 Q546 -20 455.5 7.5 Q365 35 298 92.5 Q231 150 193 239 Q155 328 155 451 L155 1456 Z " />
<g transform="translate(273,313)" >
<path fill="black" d="M330 1249 L87 1536 L271 1536 L466 1249 L330 1249 Z " />
</g>
</glyph>
<glyph glyph-name="Uacute" unicode="&#xda;" horiz-adv-x="1302" >
<path fill="black" d="M155 1456 L312 1456 L312 451 Q312 360 337 295.5 Q362 231 407 190 Q452 149 514.5 129.5 Q577 110 652 110 Q728 110 790.5 129.5 Q853 149 898 190 Q943 231 967.5 295.5 Q992 360 992 451 L992 1456 L1150 1456 L1150 451 Q1150 328 1110.5 239 Q1071 150 1003.5 92.5 Q936 35 845.5 7.5 Q755 -20 652 -20 Q546 -20 455.5 7.5 Q365 35 298 92.5 Q231 150 193 239 Q155 328 155 451 L155 1456 Z " />
<g transform="translate(442,313)" >
<path fill="black" d="M323 1536 L507 1536 L259 1249 L128 1249 L323 1536 Z " />
</g>
</glyph>
<glyph glyph-name="Ucircumflex" unicode="&#xdb;" horiz-adv-x="1302" >
<path fill="black" d="M155 1456 L312 1456 L312 451 Q312 360 337 295.5 Q362 231 407 190 Q452 149 514.5 129.5 Q577 110 652 110 Q728 110 790.5 129.5 Q853 149 898 190 Q943 231 967.5 295.5 Q992 360 992 451 L992 1456 L1150 1456 L1150 451 Q1150 328 1110.5 239 Q1071 150 1003.5 92.5 Q936 35 845.5 7.5 Q755 -20 652 -20 Q546 -20 455.5 7.5 Q365 35 298 92.5 Q231 150 193 239 Q155 328 155 451 L155 1456 Z " />
<g transform="translate(211,313)" >
<path fill="black" d="M163 1268 L399 1531 L492 1531 L730 1266 L730 1256 L599 1256 L445 1432 L292 1256 L163 1256 L163 1268 Z " />
</g>
</glyph>
<glyph glyph-name="Udieresis" unicode="&#xdc;" horiz-adv-x="1302" >
<path fill="black" d="M155 1456 L312 1456 L312 451 Q312 360 337 295.5 Q362 231 407 190 Q452 149 514.5 129.5 Q577 110 652 110 Q728 110 790.5 129.5 Q853 149 898 190 Q943 231 967.5 295.5 Q992 360 992 451 L992 1456 L1150 1456 L1150 451 Q1150 328 1110.5 239 Q1071 150 1003.5 92.5 Q936 35 845.5 7.5 Q755 -20 652 -20 Q546 -20 455.5 7.5 Q365 35 298 92.5 Q231 150 193 239 Q155 328 155 451 L155 1456 Z " />
<g transform="translate(182,322)" >
<path fill="black" d="M148 1375 Q148 1414 173.5 1441 Q199 1468 244 1468 Q289 1468 314 1441 Q339 1414 339 1375 Q339 1336 314 1309.5 Q289 1283 244 1283 Q199 1283 173.5 1309.5 Q148 1336 148 1375 Z " />
</g>
<g transform="translate(632,321)" >
<path fill="black" d="M148 1375 Q148 1414 173.5 1441 Q199 1468 244 1468 Q289 1468 314 1441 Q339 1414 339 1375 Q339 1336 314 1309.5 Q289 1283 244 1283 Q199 1283 173.5 1309.5 Q148 1336 148 1375 Z " />
</g>
</glyph>
<glyph glyph-name="Yacute" unicode="&#xdd;" horiz-adv-x="1198" >
<path fill="black" d="M518 546 L30 1456 L211 1456 L598 693 L986 1456 L1165 1456 L676 546 L676 0 L518 0 L518 546 Z " />
<g transform="translate(386,309)" >
<path fill="black" d="M323 1536 L507 1536 L259 1249 L128 1249 L323 1536 Z " />
</g>
</glyph>
<glyph glyph-name="Thorn" unicode="&#xde;" horiz-adv-x="1183" d="M176 1456 L328 1456 L328 1158 L612 1158 Q723 1158 809 1126.5 Q895 1095 953.5 1038.5 Q1012 982 1042 905 Q1072 828 1072 738 Q1072 648 1042 571 Q1012 494 953.5 438 Q895 382 809 350.5 Q723 319 612 319 L328 319 L328 0 L176 0 L176 1456 Z M612 446 Q694 446 752.5 471 Q811 496 848 537 Q885 578 902 630 Q919 682 919 736 Q919 792 902 845 Q885 898 848 939.5 Q811 981 752.5 1006.5 Q694 1032 612 1032 L328 1032 L328 446 L612 446 Z " />
<glyph glyph-name="germandbls" unicode="&#xdf;" horiz-adv-x="1184" d="M152 0 L152 1120 Q152 1226 177.5 1306 Q203 1386 251 1440 Q299 1494 366.5 1521.5 Q434 1549 518 1549 Q590 1549 653 1529 Q716 1509 762.5 1468.5 Q809 1428 836 1368 Q863 1308 863 1227 Q863 1149 844.5 1098 Q826 1047 804.5 1005 Q783 963 764.5 921.5 Q746 880 746 822 Q746 775 771 737 Q796 699 833 664 Q870 629 913.5 594.5 Q957 560 994 519 Q1031 478 1056 428 Q1081 378 1081 312 Q1081 229 1052 166.5 Q1023 104 973 62.5 Q923 21 856 0.5 Q789 -20 712 -20 Q673 -20 630 -14 Q587 -8 548 3 Q509 14 477 27.5 Q445 41 426 56 L463 184 Q480 172 506 158.5 Q532 145 563 133 Q594 121 629 113.5 Q664 106 698 106 Q755 106 798 122 Q841 138 870.5 165 Q900 192 914.5 229 Q929 266 929 308 Q929 358 904 397 Q879 436 842 471.5 Q805 507 761.5 541.5 Q718 576 681 617 Q644 658 619 708 Q594 758 594 824 Q594 889 613 936 Q632 983 655 1025 Q678 1067 697 1111.5 Q716 1156 716 1216 Q716 1265 701 1303.5 Q686 1342 659.5 1368.5 Q633 1395 598 1409 Q563 1423 524 1423 Q421 1423 362 1351 Q303 1279 303 1120 L303 0 L152 0 Z " />
<glyph glyph-name="agrave" unicode="&#xe0;" horiz-adv-x="1074" >
<path fill="black" d="M764 643 L764 762 Q764 869 704 923 Q644 977 528 977 Q473 977 428 962 Q383 947 350.5 920.5 Q318 894 300 858.5 Q282 823 282 782 L130 783 Q130 843 159 900.5 Q188 958 241 1003 Q294 1048 369 1075 Q444 1102 535 1102 Q619 1102 689 1082 Q759 1062 809.5 1020 Q860 978 888 913.5 Q916 849 916 760 L916 232 Q916 204 918 174.5 Q920 145 924.5 116 Q929 87 935.5 61 Q942 35 950 15 L950 0 L792 0 Q782 25 775.5 60.5 Q769 96 766 134 Q742 103 709.5 75 Q677 47 637 26 Q597 5 549 -7.5 Q501 -20 446 -20 Q370 -20 307 2 Q244 24 199.5 64.5 Q155 105 130.5 162.5 Q106 220 106 292 Q106 373 137.5 438 Q169 503 229 548.5 Q289 594 376.5 618.5 Q464 643 575 643 L764 643 Z M764 532 L593 532 Q431 532 345 473.5 Q259 415 259 309 Q259 215 313.5 164 Q368 113 468 113 Q523 113 570 127.5 Q617 142 654.5 167 Q692 192 720 224 Q748 256 764 291 L764 532 Z " />
<g transform="translate(178,-1)" >
<path fill="black" d="M330 1249 L87 1536 L271 1536 L466 1249 L330 1249 Z " />
</g>
</glyph>
<glyph glyph-name="aacute" unicode="&#xe1;" horiz-adv-x="1074" >
<path fill="black" d="M764 643 L764 762 Q764 869 704 923 Q644 977 528 977 Q473 977 428 962 Q383 947 350.5 920.5 Q318 894 300 858.5 Q282 823 282 782 L130 783 Q130 843 159 900.5 Q188 958 241 1003 Q294 1048 369 1075 Q444 1102 535 1102 Q619 1102 689 1082 Q759 1062 809.5 1020 Q860 978 888 913.5 Q916 849 916 760 L916 232 Q916 204 918 174.5 Q920 145 924.5 116 Q929 87 935.5 61 Q942 35 950 15 L950 0 L792 0 Q782 25 775.5 60.5 Q769 96 766 134 Q742 103 709.5 75 Q677 47 637 26 Q597 5 549 -7.5 Q501 -20 446 -20 Q370 -20 307 2 Q244 24 199.5 64.5 Q155 105 130.5 162.5 Q106 220 106 292 Q106 373 137.5 438 Q169 503 229 548.5 Q289 594 376.5 618.5 Q464 643 575 643 L764 643 Z M764 532 L593 532 Q431 532 345 473.5 Q259 415 259 309 Q259 215 313.5 164 Q368 113 468 113 Q523 113 570 127.5 Q617 142 654.5 167 Q692 192 720 224 Q748 256 764 291 L764 532 Z " />
<g transform="translate(347,-1)" >
<path fill="black" d="M323 1536 L507 1536 L259 1249 L128 1249 L323 1536 Z " />
</g>
</glyph>
<glyph glyph-name="acircumflex" unicode="&#xe2;" horiz-adv-x="1074" >
<path fill="black" d="M764 643 L764 762 Q764 869 704 923 Q644 977 528 977 Q473 977 428 962 Q383 947 350.5 920.5 Q318 894 300 858.5 Q282 823 282 782 L130 783 Q130 843 159 900.5 Q188 958 241 1003 Q294 1048 369 1075 Q444 1102 535 1102 Q619 1102 689 1082 Q759 1062 809.5 1020 Q860 978 888 913.5 Q916 849 916 760 L916 232 Q916 204 918 174.5 Q920 145 924.5 116 Q929 87 935.5 61 Q942 35 950 15 L950 0 L792 0 Q782 25 775.5 60.5 Q769 96 766 134 Q742 103 709.5 75 Q677 47 637 26 Q597 5 549 -7.5 Q501 -20 446 -20 Q370 -20 307 2 Q244 24 199.5 64.5 Q155 105 130.5 162.5 Q106 220 106 292 Q106 373 137.5 438 Q169 503 229 548.5 Q289 594 376.5 618.5 Q464 643 575 643 L764 643 Z M764 532 L593 532 Q431 532 345 473.5 Q259 415 259 309 Q259 215 313.5 164 Q368 113 468 113 Q523 113 570 127.5 Q617 142 654.5 167 Q692 192 720 224 Q748 256 764 291 L764 532 Z " />
<g transform="translate(116,-1)" >
<path fill="black" d="M163 1268 L399 1531 L492 1531 L730 1266 L730 1256 L599 1256 L445 1432 L292 1256 L163 1256 L163 1268 Z " />
</g>
</glyph>
<glyph glyph-name="atilde" unicode="&#xe3;" horiz-adv-x="1074" >
<path fill="black" d="M764 643 L764 762 Q764 869 704 923 Q644 977 528 977 Q473 977 428 962 Q383 947 350.5 920.5 Q318 894 300 858.5 Q282 823 282 782 L130 783 Q130 843 159 900.5 Q188 958 241 1003 Q294 1048 369 1075 Q444 1102 535 1102 Q619 1102 689 1082 Q759 1062 809.5 1020 Q860 978 888 913.5 Q916 849 916 760 L916 232 Q916 204 918 174.5 Q920 145 924.5 116 Q929 87 935.5 61 Q942 35 950 15 L950 0 L792 0 Q782 25 775.5 60.5 Q769 96 766 134 Q742 103 709.5 75 Q677 47 637 26 Q597 5 549 -7.5 Q501 -20 446 -20 Q370 -20 307 2 Q244 24 199.5 64.5 Q155 105 130.5 162.5 Q106 220 106 292 Q106 373 137.5 438 Q169 503 229 548.5 Q289 594 376.5 618.5 Q464 643 575 643 L764 643 Z M764 532 L593 532 Q431 532 345 473.5 Q259 415 259 309 Q259 215 313.5 164 Q368 113 468 113 Q523 113 570 127.5 Q617 142 654.5 167 Q692 192 720 224 Q748 256 764 291 L764 532 Z " />
<g transform="translate(114,6)" >
<path fill="black" d="M120 1258 Q120 1309 135 1351 Q150 1393 176 1423.5 Q202 1454 237.5 1470.5 Q273 1487 315 1487 Q358 1487 389.5 1471 Q421 1455 450 1436 Q479 1417 508.5 1401 Q538 1385 577 1385 Q618 1385 647 1417.5 Q676 1450 676 1502 L780 1493 Q780 1442 765 1400 Q750 1358 723.5 1328 Q697 1298 661 1281.5 Q625 1265 584 1265 Q535 1265 503.5 1281 Q472 1297 445 1316.5 Q418 1336 390.5 1352 Q363 1368 323 1368 Q281 1368 252.5 1336.5 Q224 1305 224 1253 L120 1258 Z " />
</g>
</glyph>
<glyph glyph-name="adieresis" unicode="&#xe4;" horiz-adv-x="1074" >
<path fill="black" d="M764 643 L764 762 Q764 869 704 923 Q644 977 528 977 Q473 977 428 962 Q383 947 350.5 920.5 Q318 894 300 858.5 Q282 823 282 782 L130 783 Q130 843 159 900.5 Q188 958 241 1003 Q294 1048 369 1075 Q444 1102 535 1102 Q619 1102 689 1082 Q759 1062 809.5 1020 Q860 978 888 913.5 Q916 849 916 760 L916 232 Q916 204 918 174.5 Q920 145 924.5 116 Q929 87 935.5 61 Q942 35 950 15 L950 0 L792 0 Q782 25 775.5 60.5 Q769 96 766 134 Q742 103 709.5 75 Q677 47 637 26 Q597 5 549 -7.5 Q501 -20 446 -20 Q370 -20 307 2 Q244 24 199.5 64.5 Q155 105 130.5 162.5 Q106 220 106 292 Q106 373 137.5 438 Q169 503 229 548.5 Q289 594 376.5 618.5 Q464 643 575 643 L764 643 Z M764 532 L593 532 Q431 532 345 473.5 Q259 415 259 309 Q259 215 313.5 164 Q368 113 468 113 Q523 113 570 127.5 Q617 142 654.5 167 Q692 192 720 224 Q748 256 764 291 L764 532 Z " />
<g transform="translate(87,8)" >
<path fill="black" d="M148 1375 Q148 1414 173.5 1441 Q199 1468 244 1468 Q289 1468 314 1441 Q339 1414 339 1375 Q339 1336 314 1309.5 Q289 1283 244 1283 Q199 1283 173.5 1309.5 Q148 1336 148 1375 Z " />
</g>
<g transform="translate(537,7)" >
<path fill="black" d="M148 1375 Q148 1414 173.5 1441 Q199 1468 244 1468 Q289 1468 314 1441 Q339 1414 339 1375 Q339 1336 314 1309.5 Q289 1283 244 1283 Q199 1283 173.5 1309.5 Q148 1336 148 1375 Z " />
</g>
</glyph>
<glyph glyph-name="aring" unicode="&#xe5;" horiz-adv-x="1074" >
<path fill="black" d="M764 643 L764 762 Q764 869 704 923 Q644 977 528 977 Q473 977 428 962 Q383 947 350.5 920.5 Q318 894 300 858.5 Q282 823 282 782 L130 783 Q130 843 159 900.5 Q188 958 241 1003 Q294 1048 369 1075 Q444 1102 535 1102 Q619 1102 689 1082 Q759 1062 809.5 1020 Q860 978 888 913.5 Q916 849 916 760 L916 232 Q916 204 918 174.5 Q920 145 924.5 116 Q929 87 935.5 61 Q942 35 950 15 L950 0 L792 0 Q782 25 775.5 60.5 Q769 96 766 134 Q742 103 709.5 75 Q677 47 637 26 Q597 5 549 -7.5 Q501 -20 446 -20 Q370 -20 307 2 Q244 24 199.5 64.5 Q155 105 130.5 162.5 Q106 220 106 292 Q106 373 137.5 438 Q169 503 229 548.5 Q289 594 376.5 618.5 Q464 643 575 643 L764 643 Z M764 532 L593 532 Q431 532 345 473.5 Q259 415 259 309 Q259 215 313.5 164 Q368 113 468 113 Q523 113 570 127.5 Q617 142 654.5 167 Q692 192 720 224 Q748 256 764 291 L764 532 Z " />
<g transform="translate(233,7)" >
<path fill="black" d="M126 1402 Q126 1444 141.5 1480 Q157 1516 184 1543 Q211 1570 248.5 1585.5 Q286 1601 329 1601 Q372 1601 409 1585.5 Q446 1570 473.5 1543 Q501 1516 516.5 1480 Q532 1444 532 1402 Q532 1360 516.5 1324.5 Q501 1289 473.5 1262.5 Q446 1236 409 1221.5 Q372 1207 329 1207 Q286 1207 248.5 1221.5 Q211 1236 184 1262.5 Q157 1289 141.5 1324.5 Q126 1360 126 1402 Z M213 1402 Q213 1379 221.5 1358 Q230 1337 245 1321.5 Q260 1306 281.5 1296.5 Q303 1287 329 1287 Q355 1287 376.5 1296 Q398 1305 413 1321 Q428 1337 436.5 1357.5 Q445 1378 445 1402 Q445 1426 436.5 1448 Q428 1470 413 1486 Q398 1502 376.5 1511.5 Q355 1521 329 1521 Q303 1521 281.5 1511.5 Q260 1502 245 1486 Q230 1470 221.5 1448 Q213 1426 213 1402 Z " />
</g>
</glyph>
<glyph glyph-name="ae" unicode="&#xe6;" horiz-adv-x="1672" d="M741 634 L741 720 Q741 841 686 908 Q631 975 522 975 Q463 975 416 958.5 Q369 942 336 913 Q303 884 285.5 845.5 Q268 807 268 763 L118 778 Q118 848 147 907.5 Q176 967 228.5 1010 Q281 1053 356 1077.5 Q431 1102 522 1102 Q636 1102 719.5 1057.5 Q803 1013 847 922 Q906 1007 991.5 1054.5 Q1077 1102 1183 1102 Q1282 1102 1358.5 1069 Q1435 1036 1487.5 974.5 Q1540 913 1567 825 Q1594 737 1594 627 L1594 518 L892 518 L892 515 Q892 430 911 355.5 Q930 281 969.5 225.5 Q1009 170 1070.5 138 Q1132 106 1217 106 Q1271 106 1316 116 Q1361 126 1398 142 Q1435 158 1465 178.5 Q1495 199 1520 219 L1573 107 Q1554 90 1522.5 68 Q1491 46 1447 26 Q1403 6 1345 -7.5 Q1287 -21 1214 -21 Q1085 -21 991 29.5 Q897 80 838 171 Q815 136 778.5 101.5 Q742 67 692 40 Q642 13 577.5 -4 Q513 -21 433 -21 Q350 -21 286 2 Q222 25 178.5 67 Q135 109 112.5 168 Q90 227 90 299 Q90 456 198.5 545 Q307 634 517 634 L741 634 Z M741 516 L518 516 Q449 516 397 498 Q345 480 310.5 449.5 Q276 419 259 379 Q242 339 242 295 Q242 254 255.5 219 Q269 184 296.5 158.5 Q324 133 364.5 119 Q405 105 459 105 Q501 105 543 117.5 Q585 130 622.5 150.5 Q660 171 690.5 196.5 Q721 222 741 248 L741 516 Z M1443 638 L1443 670 Q1443 733 1428 788.5 Q1413 844 1381.5 885.5 Q1350 927 1300.5 951 Q1251 975 1183 975 Q1121 975 1071 949.5 Q1021 924 984.5 878.5 Q948 833 926 771.5 Q904 710 896 638 L1443 638 Z " />
<glyph glyph-name="ccedilla" unicode="&#xe7;" horiz-adv-x="1036" d="M433 -353 Q466 -353 497 -347 Q528 -341 551.5 -327.5 Q575 -314 589.5 -293 Q604 -272 604 -243 Q604 -216 594.5 -198 Q585 -180 565.5 -169 Q546 -158 516 -151.5 Q486 -145 445 -141 L472 -15 Q379 -3 309 39.5 Q239 82 192 149 Q145 216 121.5 305 Q98 394 98 500 L98 582 Q98 698 126.5 794 Q155 890 211 958.5 Q267 1027 351.5 1064.5 Q436 1102 547 1102 Q633 1102 706 1075.5 Q779 1049 832.5 999 Q886 949 917.5 877 Q949 805 952 714 L807 714 Q804 777 783.5 825.5 Q763 874 728.5 907.5 Q694 941 647.5 958 Q601 975 546 975 Q464 975 407 944.5 Q350 914 315.5 861 Q281 808 265.5 736.5 Q250 665 250 582 L250 500 Q250 416 265 344.5 Q280 273 315 220 Q350 167 407 137 Q464 107 547 107 Q597 107 643 121 Q689 135 724 163.5 Q759 192 781.5 235.5 Q804 279 807 338 L952 338 Q949 263 919.5 200 Q890 137 840.5 90.5 Q791 44 725.5 15.5 Q660 -13 585 -19 L576 -69 Q605 -74 632 -84.5 Q659 -95 680.5 -115.5 Q702 -136 715 -166.5 Q728 -197 728 -241 Q728 -287 709 -324.5 Q690 -362 653.5 -389 Q617 -416 563 -430.5 Q509 -445 439 -445 L433 -353 Z " />
<glyph glyph-name="egrave" unicode="&#xe8;" horiz-adv-x="1047" >
<path fill="black" d="M97 570 Q97 704 133 804 Q169 904 230.5 970 Q292 1036 373.5 1069 Q455 1102 545 1102 Q649 1102 727 1067.5 Q805 1033 858 968 Q911 903 937.5 810 Q964 717 964 600 L964 511 L249 511 L249 487 Q249 399 272 328.5 Q295 258 338 208.5 Q381 159 441 132.5 Q501 106 576 106 Q668 106 736.5 140.5 Q805 175 859 238 L943 157 Q918 122 883 90 Q848 58 802 33.5 Q756 9 698 -5.5 Q640 -20 568 -20 Q463 -20 376 14 Q289 48 227 113.5 Q165 179 131 273 Q97 367 97 487 L97 570 Z M812 638 L812 659 Q810 725 793.5 783 Q777 841 744.5 883.5 Q712 926 662.5 950.5 Q613 975 545 975 Q422 975 344 892.5 Q266 810 252 638 L812 638 Z " />
<g transform="translate(165,-1)" >
<path fill="black" d="M330 1249 L87 1536 L271 1536 L466 1249 L330 1249 Z " />
</g>
</glyph>
<glyph glyph-name="eacute" unicode="&#xe9;" horiz-adv-x="1047" >
<path fill="black" d="M97 570 Q97 704 133 804 Q169 904 230.5 970 Q292 1036 373.5 1069 Q455 1102 545 1102 Q649 1102 727 1067.5 Q805 1033 858 968 Q911 903 937.5 810 Q964 717 964 600 L964 511 L249 511 L249 487 Q249 399 272 328.5 Q295 258 338 208.5 Q381 159 441 132.5 Q501 106 576 106 Q668 106 736.5 140.5 Q805 175 859 238 L943 157 Q918 122 883 90 Q848 58 802 33.5 Q756 9 698 -5.5 Q640 -20 568 -20 Q463 -20 376 14 Q289 48 227 113.5 Q165 179 131 273 Q97 367 97 487 L97 570 Z M812 638 L812 659 Q810 725 793.5 783 Q777 841 744.5 883.5 Q712 926 662.5 950.5 Q613 975 545 975 Q422 975 344 892.5 Q266 810 252 638 L812 638 Z " />
<g transform="translate(334,-1)" >
<path fill="black" d="M323 1536 L507 1536 L259 1249 L128 1249 L323 1536 Z " />
</g>
</glyph>
<glyph glyph-name="ecircumflex" unicode="&#xea;" horiz-adv-x="1047" >
<path fill="black" d="M97 570 Q97 704 133 804 Q169 904 230.5 970 Q292 1036 373.5 1069 Q455 1102 545 1102 Q649 1102 727 1067.5 Q805 1033 858 968 Q911 903 937.5 810 Q964 717 964 600 L964 511 L249 511 L249 487 Q249 399 272 328.5 Q295 258 338 208.5 Q381 159 441 132.5 Q501 106 576 106 Q668 106 736.5 140.5 Q805 175 859 238 L943 157 Q918 122 883 90 Q848 58 802 33.5 Q756 9 698 -5.5 Q640 -20 568 -20 Q463 -20 376 14 Q289 48 227 113.5 Q165 179 131 273 Q97 367 97 487 L97 570 Z M812 638 L812 659 Q810 725 793.5 783 Q777 841 744.5 883.5 Q712 926 662.5 950.5 Q613 975 545 975 Q422 975 344 892.5 Q266 810 252 638 L812 638 Z " />
<g transform="translate(103,-1)" >
<path fill="black" d="M163 1268 L399 1531 L492 1531 L730 1266 L730 1256 L599 1256 L445 1432 L292 1256 L163 1256 L163 1268 Z " />
</g>
</glyph>
<glyph glyph-name="edieresis" unicode="&#xeb;" horiz-adv-x="1047" >
<path fill="black" d="M97 570 Q97 704 133 804 Q169 904 230.5 970 Q292 1036 373.5 1069 Q455 1102 545 1102 Q649 1102 727 1067.5 Q805 1033 858 968 Q911 903 937.5 810 Q964 717 964 600 L964 511 L249 511 L249 487 Q249 399 272 328.5 Q295 258 338 208.5 Q381 159 441 132.5 Q501 106 576 106 Q668 106 736.5 140.5 Q805 175 859 238 L943 157 Q918 122 883 90 Q848 58 802 33.5 Q756 9 698 -5.5 Q640 -20 568 -20 Q463 -20 376 14 Q289 48 227 113.5 Q165 179 131 273 Q97 367 97 487 L97 570 Z M812 638 L812 659 Q810 725 793.5 783 Q777 841 744.5 883.5 Q712 926 662.5 950.5 Q613 975 545 975 Q422 975 344 892.5 Q266 810 252 638 L812 638 Z " />
<g transform="translate(74,8)" >
<path fill="black" d="M148 1375 Q148 1414 173.5 1441 Q199 1468 244 1468 Q289 1468 314 1441 Q339 1414 339 1375 Q339 1336 314 1309.5 Q289 1283 244 1283 Q199 1283 173.5 1309.5 Q148 1336 148 1375 Z " />
</g>
<g transform="translate(524,7)" >
<path fill="black" d="M148 1375 Q148 1414 173.5 1441 Q199 1468 244 1468 Q289 1468 314 1441 Q339 1414 339 1375 Q339 1336 314 1309.5 Q289 1283 244 1283 Q199 1283 173.5 1309.5 Q148 1336 148 1375 Z " />
</g>
</glyph>
<glyph glyph-name="igrave" unicode="&#xec;" horiz-adv-x="485" >
<path fill="black" d="M165 0 L165 1082 L317 1082 L317 0 L165 0 Z " />
<g transform="translate(-139,-8)" >
<path fill="black" d="M330 1249 L87 1536 L271 1536 L466 1249 L330 1249 Z " />
</g>
</glyph>
<glyph glyph-name="iacute" unicode="&#xed;" horiz-adv-x="485" >
<path fill="black" d="M165 0 L165 1082 L317 1082 L317 0 L165 0 Z " />
<g transform="translate(30,-8)" >
<path fill="black" d="M323 1536 L507 1536 L259 1249 L128 1249 L323 1536 Z " />
</g>
</glyph>
<glyph glyph-name="icircumflex" unicode="&#xee;" horiz-adv-x="485" >
<path fill="black" d="M165 0 L165 1082 L317 1082 L317 0 L165 0 Z " />
<g transform="translate(-201,-8)" >
<path fill="black" d="M163 1268 L399 1531 L492 1531 L730 1266 L730 1256 L599 1256 L445 1432 L292 1256 L163 1256 L163 1268 Z " />
</g>
</glyph>
<glyph glyph-name="idieresis" unicode="&#xef;" horiz-adv-x="485" >
<path fill="black" d="M165 0 L165 1082 L317 1082 L317 0 L165 0 Z " />
<g transform="translate(-230,1)" >
<path fill="black" d="M148 1375 Q148 1414 173.5 1441 Q199 1468 244 1468 Q289 1468 314 1441 Q339 1414 339 1375 Q339 1336 314 1309.5 Q289 1283 244 1283 Q199 1283 173.5 1309.5 Q148 1336 148 1375 Z " />
</g>
<g transform="translate(220,0)" >
<path fill="black" d="M148 1375 Q148 1414 173.5 1441 Q199 1468 244 1468 Q289 1468 314 1441 Q339 1414 339 1375 Q339 1336 314 1309.5 Q289 1283 244 1283 Q199 1283 173.5 1309.5 Q148 1336 148 1375 Z " />
</g>
</glyph>
<glyph glyph-name="eth" unicode="&#xf0;" horiz-adv-x="1160" d="M1027 535 Q1027 412 994.5 309.5 Q962 207 903.5 134 Q845 61 765.5 20.5 Q686 -20 591 -20 Q491 -20 408 18 Q325 56 265.5 122 Q206 188 173 276.5 Q140 365 140 467 Q140 583 170.5 676.5 Q201 770 256.5 835.5 Q312 901 390 936.5 Q468 972 562 972 Q650 972 725.5 937.5 Q801 903 855 844 Q832 964 783.5 1056 Q735 1148 667 1220 L456 1076 L399 1163 L588 1292 Q519 1346 440.5 1384.5 Q362 1423 276 1449 L324 1580 Q439 1548 536.5 1498 Q634 1448 715 1379 L896 1502 L954 1416 L791 1305 Q905 1180 966 1011.5 Q1027 843 1027 629 L1027 535 Z M595 108 Q660 108 712 140.5 Q764 173 800 230 Q836 287 855.5 365 Q875 443 875 535 L875 631 Q875 646 875 660.5 Q875 675 874 689 Q859 719 834.5 746.5 Q810 774 775 796 Q740 818 695 831 Q650 844 594 844 Q519 844 463 816.5 Q407 789 369 739.5 Q331 690 312 620.5 Q293 551 293 467 Q293 401 313 336.5 Q333 272 371.5 221 Q410 170 466 139 Q522 108 595 108 Z " />
<glyph glyph-name="ntilde" unicode="&#xf1;" horiz-adv-x="1100" >
<path fill="black" d="M151 1082 L296 1082 L301 921 Q355 1005 437 1053.5 Q519 1102 623 1102 Q699 1102 760 1080 Q821 1058 863.5 1011 Q906 964 929 889 Q952 814 952 707 L952 0 L800 0 L800 708 Q800 782 785 832.5 Q770 883 741 914.5 Q712 946 671 959.5 Q630 973 577 973 Q526 973 483.5 956 Q441 939 406.5 910 Q372 881 346 842 Q320 803 303 759 L303 0 L151 0 L151 1082 Z " />
<g transform="translate(112,6)" >
<path fill="black" d="M120 1258 Q120 1309 135 1351 Q150 1393 176 1423.5 Q202 1454 237.5 1470.5 Q273 1487 315 1487 Q358 1487 389.5 1471 Q421 1455 450 1436 Q479 1417 508.5 1401 Q538 1385 577 1385 Q618 1385 647 1417.5 Q676 1450 676 1502 L780 1493 Q780 1442 765 1400 Q750 1358 723.5 1328 Q697 1298 661 1281.5 Q625 1265 584 1265 Q535 1265 503.5 1281 Q472 1297 445 1316.5 Q418 1336 390.5 1352 Q363 1368 323 1368 Q281 1368 252.5 1336.5 Q224 1305 224 1253 L120 1258 Z " />
</g>
</glyph>
<glyph glyph-name="ograve" unicode="&#xf2;" horiz-adv-x="1124" >
<path fill="black" d="M99 575 Q99 695 132 792.5 Q165 890 225 959 Q285 1028 370 1065 Q455 1102 560 1102 Q666 1102 752 1065 Q838 1028 898.5 959 Q959 890 991.5 792.5 Q1024 695 1024 575 L1024 507 Q1024 387 991.5 289.5 Q959 192 898.5 123 Q838 54 753 17 Q668 -20 563 -20 Q457 -20 371.5 17 Q286 54 225.5 123 Q165 192 132 289.5 Q99 387 99 507 L99 575 Z M252 507 Q252 420 272 346.5 Q292 273 331.5 219.5 Q371 166 429 136.5 Q487 107 563 107 Q639 107 697 136.5 Q755 166 794 219.5 Q833 273 852.5 346.5 Q872 420 872 507 L872 575 Q872 661 852 734 Q832 807 792.5 860.5 Q753 914 694.5 944.5 Q636 975 560 975 Q485 975 427.5 944.5 Q370 914 331 860.5 Q292 807 272 734 Q252 661 252 575 L252 507 Z " />
<g transform="translate(175,-1)" >
<path fill="black" d="M330 1249 L87 1536 L271 1536 L466 1249 L330 1249 Z " />
</g>
</glyph>
<glyph glyph-name="oacute" unicode="&#xf3;" horiz-adv-x="1124" >
<path fill="black" d="M99 575 Q99 695 132 792.5 Q165 890 225 959 Q285 1028 370 1065 Q455 1102 560 1102 Q666 1102 752 1065 Q838 1028 898.5 959 Q959 890 991.5 792.5 Q1024 695 1024 575 L1024 507 Q1024 387 991.5 289.5 Q959 192 898.5 123 Q838 54 753 17 Q668 -20 563 -20 Q457 -20 371.5 17 Q286 54 225.5 123 Q165 192 132 289.5 Q99 387 99 507 L99 575 Z M252 507 Q252 420 272 346.5 Q292 273 331.5 219.5 Q371 166 429 136.5 Q487 107 563 107 Q639 107 697 136.5 Q755 166 794 219.5 Q833 273 852.5 346.5 Q872 420 872 507 L872 575 Q872 661 852 734 Q832 807 792.5 860.5 Q753 914 694.5 944.5 Q636 975 560 975 Q485 975 427.5 944.5 Q370 914 331 860.5 Q292 807 272 734 Q252 661 252 575 L252 507 Z " />
<g transform="translate(344,-1)" >
<path fill="black" d="M323 1536 L507 1536 L259 1249 L128 1249 L323 1536 Z " />
</g>
</glyph>
<glyph glyph-name="ocircumflex" unicode="&#xf4;" horiz-adv-x="1124" >
<path fill="black" d="M99 575 Q99 695 132 792.5 Q165 890 225 959 Q285 1028 370 1065 Q455 1102 560 1102 Q666 1102 752 1065 Q838 1028 898.5 959 Q959 890 991.5 792.5 Q1024 695 1024 575 L1024 507 Q1024 387 991.5 289.5 Q959 192 898.5 123 Q838 54 753 17 Q668 -20 563 -20 Q457 -20 371.5 17 Q286 54 225.5 123 Q165 192 132 289.5 Q99 387 99 507 L99 575 Z M252 507 Q252 420 272 346.5 Q292 273 331.5 219.5 Q371 166 429 136.5 Q487 107 563 107 Q639 107 697 136.5 Q755 166 794 219.5 Q833 273 852.5 346.5 Q872 420 872 507 L872 575 Q872 661 852 734 Q832 807 792.5 860.5 Q753 914 694.5 944.5 Q636 975 560 975 Q485 975 427.5 944.5 Q370 914 331 860.5 Q292 807 272 734 Q252 661 252 575 L252 507 Z " />
<g transform="translate(113,-1)" >
<path fill="black" d="M163 1268 L399 1531 L492 1531 L730 1266 L730 1256 L599 1256 L445 1432 L292 1256 L163 1256 L163 1268 Z " />
</g>
</glyph>
<glyph glyph-name="otilde" unicode="&#xf5;" horiz-adv-x="1124" >
<path fill="black" d="M99 575 Q99 695 132 792.5 Q165 890 225 959 Q285 1028 370 1065 Q455 1102 560 1102 Q666 1102 752 1065 Q838 1028 898.5 959 Q959 890 991.5 792.5 Q1024 695 1024 575 L1024 507 Q1024 387 991.5 289.5 Q959 192 898.5 123 Q838 54 753 17 Q668 -20 563 -20 Q457 -20 371.5 17 Q286 54 225.5 123 Q165 192 132 289.5 Q99 387 99 507 L99 575 Z M252 507 Q252 420 272 346.5 Q292 273 331.5 219.5 Q371 166 429 136.5 Q487 107 563 107 Q639 107 697 136.5 Q755 166 794 219.5 Q833 273 852.5 346.5 Q872 420 872 507 L872 575 Q872 661 852 734 Q832 807 792.5 860.5 Q753 914 694.5 944.5 Q636 975 560 975 Q485 975 427.5 944.5 Q370 914 331 860.5 Q292 807 272 734 Q252 661 252 575 L252 507 Z " />
<g transform="translate(111,6)" >
<path fill="black" d="M120 1258 Q120 1309 135 1351 Q150 1393 176 1423.5 Q202 1454 237.5 1470.5 Q273 1487 315 1487 Q358 1487 389.5 1471 Q421 1455 450 1436 Q479 1417 508.5 1401 Q538 1385 577 1385 Q618 1385 647 1417.5 Q676 1450 676 1502 L780 1493 Q780 1442 765 1400 Q750 1358 723.5 1328 Q697 1298 661 1281.5 Q625 1265 584 1265 Q535 1265 503.5 1281 Q472 1297 445 1316.5 Q418 1336 390.5 1352 Q363 1368 323 1368 Q281 1368 252.5 1336.5 Q224 1305 224 1253 L120 1258 Z " />
</g>
</glyph>
<glyph glyph-name="odieresis" unicode="&#xf6;" horiz-adv-x="1124" >
<path fill="black" d="M99 575 Q99 695 132 792.5 Q165 890 225 959 Q285 1028 370 1065 Q455 1102 560 1102 Q666 1102 752 1065 Q838 1028 898.5 959 Q959 890 991.5 792.5 Q1024 695 1024 575 L1024 507 Q1024 387 991.5 289.5 Q959 192 898.5 123 Q838 54 753 17 Q668 -20 563 -20 Q457 -20 371.5 17 Q286 54 225.5 123 Q165 192 132 289.5 Q99 387 99 507 L99 575 Z M252 507 Q252 420 272 346.5 Q292 273 331.5 219.5 Q371 166 429 136.5 Q487 107 563 107 Q639 107 697 136.5 Q755 166 794 219.5 Q833 273 852.5 346.5 Q872 420 872 507 L872 575 Q872 661 852 734 Q832 807 792.5 860.5 Q753 914 694.5 944.5 Q636 975 560 975 Q485 975 427.5 944.5 Q370 914 331 860.5 Q292 807 272 734 Q252 661 252 575 L252 507 Z " />
<g transform="translate(84,8)" >
<path fill="black" d="M148 1375 Q148 1414 173.5 1441 Q199 1468 244 1468 Q289 1468 314 1441 Q339 1414 339 1375 Q339 1336 314 1309.5 Q289 1283 244 1283 Q199 1283 173.5 1309.5 Q148 1336 148 1375 Z " />
</g>
<g transform="translate(534,7)" >
<path fill="black" d="M148 1375 Q148 1414 173.5 1441 Q199 1468 244 1468 Q289 1468 314 1441 Q339 1414 339 1375 Q339 1336 314 1309.5 Q289 1283 244 1283 Q199 1283 173.5 1309.5 Q148 1336 148 1375 Z " />
</g>
</glyph>
<glyph glyph-name="divide" unicode="&#xf7;" horiz-adv-x="1136" d="M79 623 L79 772 L1034 772 L1034 623 L79 623 Z M465 286 Q465 328 492 356 Q519 384 567 384 Q615 384 642 356 Q669 328 669 286 Q669 246 642 218.5 Q615 191 567 191 Q519 191 492 218.5 Q465 246 465 286 Z M465 1093 Q465 1135 492 1163 Q519 1191 567 1191 Q615 1191 642 1163 Q669 1135 669 1093 Q669 1053 642 1025.5 Q615 998 567 998 Q519 998 492 1025.5 Q465 1053 465 1093 Z " />
<glyph glyph-name="oslash" unicode="&#xf8;" horiz-adv-x="1085" d="M293 64 Q202 131 152.5 244 Q103 357 103 507 L103 575 Q103 695 136 792.5 Q169 890 229 959 Q289 1028 374 1065 Q459 1102 564 1102 Q619 1102 667.5 1092 Q716 1082 760 1063 L830 1212 L935 1212 L843 1014 Q931 947 979.5 835.5 Q1028 724 1028 575 L1028 507 Q1028 387 995.5 289.5 Q963 192 902.5 123 Q842 54 757 17 Q672 -20 567 -20 Q464 -20 376 17 L304 -138 L199 -138 L293 64 Z M704 942 Q674 958 639 966.5 Q604 975 564 975 Q489 975 431.5 944.5 Q374 914 335 860.5 Q296 807 276 734 Q256 661 256 575 L256 507 Q256 409 281 329.5 Q306 250 355 196 L704 942 Z M433 137 Q462 123 495.5 115 Q529 107 567 107 Q643 107 701 136.5 Q759 166 798 219.5 Q837 273 856.5 346.5 Q876 420 876 507 L876 575 Q876 670 852 748.5 Q828 827 780 881 L433 137 Z " />
<glyph glyph-name="ugrave" unicode="&#xf9;" horiz-adv-x="1100" >
<path fill="black" d="M147 1082 L299 1082 L299 385 Q299 305 316 252.5 Q333 200 362.5 168.5 Q392 137 430.5 124 Q469 111 512 111 Q572 111 618.5 124.5 Q665 138 699.5 162 Q734 186 758 220 Q782 254 797 295 L797 1082 L950 1082 L950 0 L804 0 L801 125 Q752 56 675 18 Q598 -20 486 -20 Q410 -20 347.5 2.5 Q285 25 240.5 74 Q196 123 171.5 200.5 Q147 278 147 387 L147 1082 Z " />
<g transform="translate(174,0)" >
<path fill="black" d="M330 1249 L87 1536 L271 1536 L466 1249 L330 1249 Z " />
</g>
</glyph>
<glyph glyph-name="uacute" unicode="&#xfa;" horiz-adv-x="1100" >
<path fill="black" d="M147 1082 L299 1082 L299 385 Q299 305 316 252.5 Q333 200 362.5 168.5 Q392 137 430.5 124 Q469 111 512 111 Q572 111 618.5 124.5 Q665 138 699.5 162 Q734 186 758 220 Q782 254 797 295 L797 1082 L950 1082 L950 0 L804 0 L801 125 Q752 56 675 18 Q598 -20 486 -20 Q410 -20 347.5 2.5 Q285 25 240.5 74 Q196 123 171.5 200.5 Q147 278 147 387 L147 1082 Z " />
<g transform="translate(343,0)" >
<path fill="black" d="M323 1536 L507 1536 L259 1249 L128 1249 L323 1536 Z " />
</g>
</glyph>
<glyph glyph-name="ucircumflex" unicode="&#xfb;" horiz-adv-x="1100" >
<path fill="black" d="M147 1082 L299 1082 L299 385 Q299 305 316 252.5 Q333 200 362.5 168.5 Q392 137 430.5 124 Q469 111 512 111 Q572 111 618.5 124.5 Q665 138 699.5 162 Q734 186 758 220 Q782 254 797 295 L797 1082 L950 1082 L950 0 L804 0 L801 125 Q752 56 675 18 Q598 -20 486 -20 Q410 -20 347.5 2.5 Q285 25 240.5 74 Q196 123 171.5 200.5 Q147 278 147 387 L147 1082 Z " />
<g transform="translate(112,0)" >
<path fill="black" d="M163 1268 L399 1531 L492 1531 L730 1266 L730 1256 L599 1256 L445 1432 L292 1256 L163 1256 L163 1268 Z " />
</g>
</glyph>
<glyph glyph-name="udieresis" unicode="&#xfc;" horiz-adv-x="1100" >
<path fill="black" d="M147 1082 L299 1082 L299 385 Q299 305 316 252.5 Q333 200 362.5 168.5 Q392 137 430.5 124 Q469 111 512 111 Q572 111 618.5 124.5 Q665 138 699.5 162 Q734 186 758 220 Q782 254 797 295 L797 1082 L950 1082 L950 0 L804 0 L801 125 Q752 56 675 18 Q598 -20 486 -20 Q410 -20 347.5 2.5 Q285 25 240.5 74 Q196 123 171.5 200.5 Q147 278 147 387 L147 1082 Z " />
<g transform="translate(83,9)" >
<path fill="black" d="M148 1375 Q148 1414 173.5 1441 Q199 1468 244 1468 Q289 1468 314 1441 Q339 1414 339 1375 Q339 1336 314 1309.5 Q289 1283 244 1283 Q199 1283 173.5 1309.5 Q148 1336 148 1375 Z " />
</g>
<g transform="translate(533,8)" >
<path fill="black" d="M148 1375 Q148 1414 173.5 1441 Q199 1468 244 1468 Q289 1468 314 1441 Q339 1414 339 1375 Q339 1336 314 1309.5 Q289 1283 244 1283 Q199 1283 173.5 1309.5 Q148 1336 148 1375 Z " />
</g>
</glyph>
<glyph glyph-name="yacute" unicode="&#xfd;" horiz-adv-x="956" >
<path fill="black" d="M100 -298 Q110 -300 128 -301.5 Q146 -303 154 -303 Q199 -303 232.5 -292 Q266 -281 291.5 -258.5 Q317 -236 336.5 -201 Q356 -166 374 -118 L418 5 L37 1082 L202 1082 L491 223 L758 1082 L921 1082 L494 -171 Q481 -209 459.5 -255.5 Q438 -302 403.5 -342.5 Q369 -383 318.5 -410 Q268 -437 196 -437 Q173 -437 144.5 -432 Q116 -427 100 -422 L100 -298 Z " />
<g transform="translate(286,0)" >
<path fill="black" d="M323 1536 L507 1536 L259 1249 L128 1249 L323 1536 Z " />
</g>
</glyph>
<glyph glyph-name="thorn" unicode="&#xfe;" horiz-adv-x="1130" d="M156 1536 L308 1536 L308 951 Q360 1023 435 1062.5 Q510 1102 612 1102 Q708 1102 782 1062.5 Q856 1023 906.5 951 Q957 879 983.5 777 Q1010 675 1010 550 L1010 529 Q1010 409 983.5 308.5 Q957 208 906.5 135 Q856 62 782.5 21 Q709 -20 614 -20 Q511 -20 435.5 17 Q360 54 308 122 L308 -416 L156 -416 L156 1536 Z M308 277 Q326 240 350.5 209 Q375 178 407.5 155.5 Q440 133 481.5 120 Q523 107 575 107 Q648 107 701.5 140 Q755 173 789.5 230.5 Q824 288 840.5 365 Q857 442 857 529 L857 550 Q857 638 840 715 Q823 792 788.5 849 Q754 906 700.5 939 Q647 972 573 972 Q520 972 478 958 Q436 944 404 920 Q372 896 348.5 863.5 Q325 831 308 794 L308 277 Z " />
<glyph glyph-name="ydieresis" unicode="&#xff;" horiz-adv-x="956" >
<path fill="black" d="M100 -298 Q110 -300 128 -301.5 Q146 -303 154 -303 Q199 -303 232.5 -292 Q266 -281 291.5 -258.5 Q317 -236 336.5 -201 Q356 -166 374 -118 L418 5 L37 1082 L202 1082 L491 223 L758 1082 L921 1082 L494 -171 Q481 -209 459.5 -255.5 Q438 -302 403.5 -342.5 Q369 -383 318.5 -410 Q268 -437 196 -437 Q173 -437 144.5 -432 Q116 -427 100 -422 L100 -298 Z " />
<g transform="translate(26,9)" >
<path fill="black" d="M148 1375 Q148 1414 173.5 1441 Q199 1468 244 1468 Q289 1468 314 1441 Q339 1414 339 1375 Q339 1336 314 1309.5 Q289 1283 244 1283 Q199 1283 173.5 1309.5 Q148 1336 148 1375 Z " />
</g>
<g transform="translate(476,8)" >
<path fill="black" d="M148 1375 Q148 1414 173.5 1441 Q199 1468 244 1468 Q289 1468 314 1441 Q339 1414 339 1375 Q339 1336 314 1309.5 Q289 1283 244 1283 Q199 1283 173.5 1309.5 Q148 1336 148 1375 Z " />
</g>
</glyph>
<glyph glyph-name="Amacron" unicode="&#x100;" horiz-adv-x="1270" d="M563 1456 L707 1456 L1233 0 L1068 0 L933 395 L337 395 L202 0 L38 0 L563 1456 Z M888 526 L635 1266 L382 526 L888 526 Z M335 1765 L947 1765 L947 1645 L335 1645 L335 1765 Z " />
<glyph glyph-name="amacron" unicode="&#x101;" horiz-adv-x="1074" d="M764 643 L764 762 Q764 869 704 923 Q644 977 528 977 Q473 977 428 962 Q383 947 350.5 920.5 Q318 894 300 858.5 Q282 823 282 782 L130 783 Q130 843 159 900.5 Q188 958 241 1003 Q294 1048 369 1075 Q444 1102 535 1102 Q619 1102 689 1082 Q759 1062 809.5 1020 Q860 978 888 913.5 Q916 849 916 760 L916 232 Q916 204 918 174.5 Q920 145 924.5 116 Q929 87 935.5 61 Q942 35 950 15 L950 0 L792 0 Q782 25 775.5 60.5 Q769 96 766 134 Q742 103 709.5 75 Q677 47 637 26 Q597 5 549 -7.5 Q501 -20 446 -20 Q370 -20 307 2 Q244 24 199.5 64.5 Q155 105 130.5 162.5 Q106 220 106 292 Q106 373 137.5 438 Q169 503 229 548.5 Q289 594 376.5 618.5 Q464 643 575 643 L764 643 Z M764 532 L593 532 Q431 532 345 473.5 Q259 415 259 309 Q259 215 313.5 164 Q368 113 468 113 Q523 113 570 127.5 Q617 142 654.5 167 Q692 192 720 224 Q748 256 764 291 L764 532 Z M258 1451 L870 1451 L870 1331 L258 1331 L258 1451 Z " />
<glyph glyph-name="Abreve" unicode="&#x102;" horiz-adv-x="1270" >
<path fill="black" d="M563 1456 L707 1456 L1233 0 L1068 0 L933 395 L337 395 L202 0 L38 0 L563 1456 Z M888 526 L635 1266 L382 526 L888 526 Z " />
<g transform="translate(196,314)" >
<path fill="black" d="M259 1493 Q259 1461 268.5 1432 Q278 1403 299 1381 Q320 1359 354 1346 Q388 1333 436 1333 Q483 1333 516.5 1346 Q550 1359 571 1381 Q592 1403 602 1432 Q612 1461 612 1493 L738 1493 Q738 1435 717.5 1386.5 Q697 1338 658 1303.5 Q619 1269 563 1250 Q507 1231 436 1231 Q366 1231 310 1250 Q254 1269 214.5 1303.5 Q175 1338 154 1386.5 Q133 1435 133 1493 L259 1493 Z " />
</g>
</glyph>
<glyph glyph-name="abreve" unicode="&#x103;" horiz-adv-x="1074" >
<path fill="black" d="M764 643 L764 762 Q764 869 704 923 Q644 977 528 977 Q473 977 428 962 Q383 947 350.5 920.5 Q318 894 300 858.5 Q282 823 282 782 L130 783 Q130 843 159 900.5 Q188 958 241 1003 Q294 1048 369 1075 Q444 1102 535 1102 Q619 1102 689 1082 Q759 1062 809.5 1020 Q860 978 888 913.5 Q916 849 916 760 L916 232 Q916 204 918 174.5 Q920 145 924.5 116 Q929 87 935.5 61 Q942 35 950 15 L950 0 L792 0 Q782 25 775.5 60.5 Q769 96 766 134 Q742 103 709.5 75 Q677 47 637 26 Q597 5 549 -7.5 Q501 -20 446 -20 Q370 -20 307 2 Q244 24 199.5 64.5 Q155 105 130.5 162.5 Q106 220 106 292 Q106 373 137.5 438 Q169 503 229 548.5 Q289 594 376.5 618.5 Q464 643 575 643 L764 643 Z M764 532 L593 532 Q431 532 345 473.5 Q259 415 259 309 Q259 215 313.5 164 Q368 113 468 113 Q523 113 570 127.5 Q617 142 654.5 167 Q692 192 720 224 Q748 256 764 291 L764 532 Z " />
<g transform="translate(119,0)" >
<path fill="black" d="M259 1493 Q259 1461 268.5 1432 Q278 1403 299 1381 Q320 1359 354 1346 Q388 1333 436 1333 Q483 1333 516.5 1346 Q550 1359 571 1381 Q592 1403 602 1432 Q612 1461 612 1493 L738 1493 Q738 1435 717.5 1386.5 Q697 1338 658 1303.5 Q619 1269 563 1250 Q507 1231 436 1231 Q366 1231 310 1250 Q254 1269 214.5 1303.5 Q175 1338 154 1386.5 Q133 1435 133 1493 L259 1493 Z " />
</g>
</glyph>
<glyph glyph-name="Aogonek" unicode="&#x104;" horiz-adv-x="1270" d="M563 1456 L707 1456 L1233 0 L1202 0 Q1169 -25 1139 -51.5 Q1109 -78 1086 -106 Q1063 -134 1049.5 -164.5 Q1036 -195 1036 -228 Q1036 -263 1052.5 -285 Q1069 -307 1113 -307 Q1146 -307 1170 -296.5 Q1194 -286 1208 -277 L1224 -380 Q1202 -395 1168 -409.5 Q1134 -424 1080 -424 Q1043 -424 1011 -412.5 Q979 -401 956 -378.5 Q933 -356 919.5 -322.5 Q906 -289 906 -244 Q906 -178 946 -114 Q986 -50 1066 7 L933 395 L337 395 L202 0 L38 0 L563 1456 Z M888 526 L635 1266 L382 526 L888 526 Z " />
<glyph glyph-name="aogonek" unicode="&#x105;" horiz-adv-x="1074" d="M949 -380 Q927 -395 893 -409.5 Q859 -424 805 -424 Q768 -424 736 -412.5 Q704 -401 681 -378.5 Q658 -356 644.5 -322.5 Q631 -289 631 -244 Q631 -178 671 -114 Q711 -50 790 6 Q781 30 775 64.5 Q769 99 766 134 Q742 103 709.5 75 Q677 47 637 26 Q597 5 549 -7.5 Q501 -20 446 -20 Q370 -20 307 2 Q244 24 199.5 64.5 Q155 105 130.5 162.5 Q106 220 106 292 Q106 373 137.5 438 Q169 503 229 548.5 Q289 594 376.5 618.5 Q464 643 575 643 L764 643 L764 762 Q764 869 704 923 Q644 977 528 977 Q473 977 428 962 Q383 947 350.5 920.5 Q318 894 300 858.5 Q282 823 282 782 L130 783 Q130 843 159 900.5 Q188 958 241 1003 Q294 1048 369 1075 Q444 1102 535 1102 Q619 1102 689 1082 Q759 1062 809.5 1020 Q860 978 888 913.5 Q916 849 916 760 L916 232 Q916 204 918 174.5 Q920 145 924.5 116 Q929 87 935.5 61 Q942 35 950 15 L950 0 L927 0 Q894 -25 864 -51.5 Q834 -78 811 -106 Q788 -134 774.5 -164.5 Q761 -195 761 -228 Q761 -263 777.5 -285 Q794 -307 838 -307 Q871 -307 895 -296.5 Q919 -286 933 -277 L949 -380 Z M764 532 L593 532 Q431 532 345 473.5 Q259 415 259 309 Q259 215 313.5 164 Q368 113 468 113 Q523 113 570 127.5 Q617 142 654.5 167 Q692 192 720 224 Q748 256 764 291 L764 532 Z " />
<glyph glyph-name="Cacute" unicode="&#x106;" horiz-adv-x="1294" >
<path fill="black" d="M133 845 Q133 989 170.5 1106 Q208 1223 278 1305 Q348 1387 448 1431.5 Q548 1476 673 1476 Q904 1476 1034 1351.5 Q1164 1227 1184 995 L1026 995 Q1007 1171 924.5 1258 Q842 1345 673 1345 Q581 1345 509.5 1310 Q438 1275 389.5 1210 Q341 1145 316 1053 Q291 961 291 847 L291 615 Q291 506 314.5 413.5 Q338 321 384.5 253.5 Q431 186 500.5 148 Q570 110 663 110 Q751 110 815 130.5 Q879 151 922.5 193.5 Q966 236 991 302 Q1016 368 1026 458 L1184 458 Q1174 346 1136 257 Q1098 168 1032.5 106.5 Q967 45 874.5 12.5 Q782 -20 663 -20 Q542 -20 444 24.5 Q346 69 277 152 Q208 235 170.5 352.5 Q133 470 133 615 L133 845 Z " />
<g transform="translate(446,342)" >
<path fill="black" d="M323 1536 L507 1536 L259 1249 L128 1249 L323 1536 Z " />
</g>
</glyph>
<glyph glyph-name="cacute" unicode="&#x107;" horiz-adv-x="1036" >
<path fill="black" d="M98 582 Q98 698 126.5 794 Q155 890 211 958.5 Q267 1027 351.5 1064.5 Q436 1102 547 1102 Q633 1102 706 1075.5 Q779 1049 832.5 999 Q886 949 917.5 877 Q949 805 952 714 L807 714 Q804 777 783.5 825.5 Q763 874 728.5 907.5 Q694 941 647.5 958 Q601 975 546 975 Q464 975 407 944.5 Q350 914 315.5 861 Q281 808 265.5 736.5 Q250 665 250 582 L250 500 Q250 416 265 344.5 Q280 273 315 220 Q350 167 407 137 Q464 107 547 107 Q597 107 643 121 Q689 135 724 163.5 Q759 192 781.5 235.5 Q804 279 807 338 L952 338 Q949 259 915.5 193 Q882 127 827.5 79.5 Q773 32 701 6 Q629 -20 548 -20 Q436 -20 352 18 Q268 56 211.5 124.5 Q155 193 126.5 288.5 Q98 384 98 500 L98 582 Z " />
<g transform="translate(309,-1)" >
<path fill="black" d="M323 1536 L507 1536 L259 1249 L128 1249 L323 1536 Z " />
</g>
</glyph>
<glyph glyph-name="Cdotaccent" unicode="&#x10a;" horiz-adv-x="1294" >
<path fill="black" d="M133 845 Q133 989 170.5 1106 Q208 1223 278 1305 Q348 1387 448 1431.5 Q548 1476 673 1476 Q904 1476 1034 1351.5 Q1164 1227 1184 995 L1026 995 Q1007 1171 924.5 1258 Q842 1345 673 1345 Q581 1345 509.5 1310 Q438 1275 389.5 1210 Q341 1145 316 1053 Q291 961 291 847 L291 615 Q291 506 314.5 413.5 Q338 321 384.5 253.5 Q431 186 500.5 148 Q570 110 663 110 Q751 110 815 130.5 Q879 151 922.5 193.5 Q966 236 991 302 Q1016 368 1026 458 L1184 458 Q1174 346 1136 257 Q1098 168 1032.5 106.5 Q967 45 874.5 12.5 Q782 -20 663 -20 Q542 -20 444 24.5 Q346 69 277 152 Q208 235 170.5 352.5 Q133 470 133 615 L133 845 Z " />
<g transform="translate(413,342)" >
<path fill="black" d="M148 1375 Q148 1414 173.5 1441 Q199 1468 244 1468 Q289 1468 314 1441 Q339 1414 339 1375 Q339 1336 314 1309.5 Q289 1283 244 1283 Q199 1283 173.5 1309.5 Q148 1336 148 1375 Z " />
</g>
</glyph>
<glyph glyph-name="cdotaccent" unicode="&#x10b;" horiz-adv-x="1036" >
<path fill="black" d="M98 582 Q98 698 126.5 794 Q155 890 211 958.5 Q267 1027 351.5 1064.5 Q436 1102 547 1102 Q633 1102 706 1075.5 Q779 1049 832.5 999 Q886 949 917.5 877 Q949 805 952 714 L807 714 Q804 777 783.5 825.5 Q763 874 728.5 907.5 Q694 941 647.5 958 Q601 975 546 975 Q464 975 407 944.5 Q350 914 315.5 861 Q281 808 265.5 736.5 Q250 665 250 582 L250 500 Q250 416 265 344.5 Q280 273 315 220 Q350 167 407 137 Q464 107 547 107 Q597 107 643 121 Q689 135 724 163.5 Q759 192 781.5 235.5 Q804 279 807 338 L952 338 Q949 259 915.5 193 Q882 127 827.5 79.5 Q773 32 701 6 Q629 -20 548 -20 Q436 -20 352 18 Q268 56 211.5 124.5 Q155 193 126.5 288.5 Q98 384 98 500 L98 582 Z " />
<g transform="translate(276,-1)" >
<path fill="black" d="M148 1375 Q148 1414 173.5 1441 Q199 1468 244 1468 Q289 1468 314 1441 Q339 1414 339 1375 Q339 1336 314 1309.5 Q289 1283 244 1283 Q199 1283 173.5 1309.5 Q148 1336 148 1375 Z " />
</g>
</glyph>
<glyph glyph-name="Ccaron" unicode="&#x10c;" horiz-adv-x="1294" >
<path fill="black" d="M133 845 Q133 989 170.5 1106 Q208 1223 278 1305 Q348 1387 448 1431.5 Q548 1476 673 1476 Q904 1476 1034 1351.5 Q1164 1227 1184 995 L1026 995 Q1007 1171 924.5 1258 Q842 1345 673 1345 Q581 1345 509.5 1310 Q438 1275 389.5 1210 Q341 1145 316 1053 Q291 961 291 847 L291 615 Q291 506 314.5 413.5 Q338 321 384.5 253.5 Q431 186 500.5 148 Q570 110 663 110 Q751 110 815 130.5 Q879 151 922.5 193.5 Q966 236 991 302 Q1016 368 1026 458 L1184 458 Q1174 346 1136 257 Q1098 168 1032.5 106.5 Q967 45 874.5 12.5 Q782 -20 663 -20 Q542 -20 444 24.5 Q346 69 277 152 Q208 235 170.5 352.5 Q133 470 133 615 L133 845 Z " />
<g transform="translate(230,343)" >
<path fill="black" d="M142 1517 L142 1528 L274 1528 L429 1346 L584 1528 L717 1528 L717 1517 L479 1249 L378 1249 L142 1517 Z " />
</g>
</glyph>
<glyph glyph-name="ccaron" unicode="&#x10d;" horiz-adv-x="1036" >
<path fill="black" d="M98 582 Q98 698 126.5 794 Q155 890 211 958.5 Q267 1027 351.5 1064.5 Q436 1102 547 1102 Q633 1102 706 1075.5 Q779 1049 832.5 999 Q886 949 917.5 877 Q949 805 952 714 L807 714 Q804 777 783.5 825.5 Q763 874 728.5 907.5 Q694 941 647.5 958 Q601 975 546 975 Q464 975 407 944.5 Q350 914 315.5 861 Q281 808 265.5 736.5 Q250 665 250 582 L250 500 Q250 416 265 344.5 Q280 273 315 220 Q350 167 407 137 Q464 107 547 107 Q597 107 643 121 Q689 135 724 163.5 Q759 192 781.5 235.5 Q804 279 807 338 L952 338 Q949 259 915.5 193 Q882 127 827.5 79.5 Q773 32 701 6 Q629 -20 548 -20 Q436 -20 352 18 Q268 56 211.5 124.5 Q155 193 126.5 288.5 Q98 384 98 500 L98 582 Z " />
<g transform="translate(93,0)" >
<path fill="black" d="M142 1517 L142 1528 L274 1528 L429 1346 L584 1528 L717 1528 L717 1517 L479 1249 L378 1249 L142 1517 Z " />
</g>
</glyph>
<glyph glyph-name="Dcaron" unicode="&#x10e;" horiz-adv-x="1301" d="M177 1456 L571 1456 Q704 1456 814 1413 Q924 1370 1003 1288.5 Q1082 1207 1126 1089.5 Q1170 972 1170 823 L1170 633 Q1170 483 1126.5 365.5 Q1083 248 1003 167 Q923 86 810.5 43 Q698 0 561 0 L177 0 L177 1456 Z M561 131 Q670 131 754.5 165.5 Q839 200 896.5 264.5 Q954 329 984 422 Q1014 515 1014 633 L1014 825 Q1014 946 983.5 1039.5 Q953 1133 896 1196.5 Q839 1260 757 1292.5 Q675 1325 571 1325 L335 1325 L335 131 L561 131 Z M525 1571 L289 1839 L289 1850 L421 1850 L576 1668 L731 1850 L864 1850 L864 1839 L626 1571 L525 1571 Z " />
<glyph glyph-name="dcaron" unicode="&#x10f;" horiz-adv-x="1219" d="M106 570 Q106 758 162 880.5 Q218 1003 321 1058 Q322 1064 322 1070 Q322 1076 322 1082 L322 1164 L460 1164 L460 1100 Q471 1101 483 1101.5 Q495 1102 507 1102 Q609 1102 683 1062.5 Q757 1023 808 949 L808 1536 L960 1536 L960 0 L819 0 L812 133 Q761 60 685.5 20 Q610 -20 506 -20 Q414 -20 340 16 Q266 52 214 120 Q162 188 134 286.5 Q106 385 106 509 L106 570 Z M260 509 Q260 417 276.5 343 Q293 269 327 217.5 Q361 166 414 138 Q467 110 540 110 Q592 110 633.5 122.5 Q675 135 708 157.5 Q741 180 765.5 211 Q790 242 808 279 L808 800 Q792 836 768.5 867 Q745 898 712 921.5 Q679 945 637 958.5 Q595 972 541 972 Q485 972 440 955 Q424 906 398.5 861.5 Q373 817 337 783 L299 811 Q260 715 260 570 L260 509 Z " />
<glyph glyph-name="Dcroat" unicode="&#x110;" horiz-adv-x="1301" >
<path fill="black" d="M177 677 L30 677 L30 804 L177 804 L177 1456 L571 1456 Q704 1456 814 1413 Q924 1370 1003 1288.5 Q1082 1207 1126 1089.5 Q1170 972 1170 823 L1170 633 Q1170 483 1126.5 365.5 Q1083 248 1003 167 Q923 86 810.5 43 Q698 0 561 0 L177 0 L177 677 Z M561 131 Q670 131 754.5 165.5 Q839 200 896.5 264.5 Q954 329 984 422 Q1014 515 1014 633 L1014 825 Q1014 946 983.5 1039.5 Q953 1133 896 1196.5 Q839 1260 757 1292.5 Q675 1325 571 1325 L335 1325 L335 804 L631 804 L631 677 L335 677 L335 131 L561 131 Z " />
</glyph>
<glyph glyph-name="dslash" unicode="&#x111;" horiz-adv-x="1169" d="M106 550 Q106 675 134 777 Q162 879 214.5 951 Q267 1023 341 1062.5 Q415 1102 508 1102 Q609 1102 683 1062.5 Q757 1023 808 951 L808 1246 L528 1246 L528 1372 L808 1372 L808 1536 L960 1536 L960 1372 L1128 1372 L1128 1246 L960 1246 L960 0 L820 0 L812 133 Q761 60 685.5 20 Q610 -20 507 -20 Q415 -20 340.5 21 Q266 62 214 135 Q162 208 134 308.5 Q106 409 106 529 L106 550 Z M260 529 Q260 442 276.5 365.5 Q293 289 327 232.5 Q361 176 414 143.5 Q467 111 540 111 Q592 111 633.5 124.5 Q675 138 708 161.5 Q741 185 765.5 217.5 Q790 250 808 288 L808 791 Q792 828 768.5 861 Q745 894 712 918.5 Q679 943 637 957.5 Q595 972 541 972 Q468 972 414.5 939 Q361 906 327 849 Q293 792 276.5 715 Q260 638 260 550 L260 529 Z " />
<glyph glyph-name="Emacron" unicode="&#x112;" horiz-adv-x="1132" d="M177 1456 L1047 1456 L1047 1325 L335 1325 L335 816 L957 816 L957 686 L335 686 L335 131 L1053 131 L1053 0 L177 0 L177 1456 Z M301 1773 L913 1773 L913 1653 L301 1653 L301 1773 Z " />
<glyph glyph-name="emacron" unicode="&#x113;" horiz-adv-x="1047" d="M97 570 Q97 704 133 804 Q169 904 230.5 970 Q292 1036 373.5 1069 Q455 1102 545 1102 Q649 1102 727 1067.5 Q805 1033 858 968 Q911 903 937.5 810 Q964 717 964 600 L964 511 L249 511 L249 487 Q249 399 272 328.5 Q295 258 338 208.5 Q381 159 441 132.5 Q501 106 576 106 Q668 106 736.5 140.5 Q805 175 859 238 L943 157 Q918 122 883 90 Q848 58 802 33.5 Q756 9 698 -5.5 Q640 -20 568 -20 Q463 -20 376 14 Q289 48 227 113.5 Q165 179 131 273 Q97 367 97 487 L97 570 Z M812 638 L812 659 Q810 725 793.5 783 Q777 841 744.5 883.5 Q712 926 662.5 950.5 Q613 975 545 975 Q422 975 344 892.5 Q266 810 252 638 L812 638 Z M245 1451 L857 1451 L857 1331 L245 1331 L245 1451 Z " />
<glyph glyph-name="Edotaccent" unicode="&#x116;" horiz-adv-x="1132" >
<path fill="black" d="M177 1456 L1047 1456 L1047 1325 L335 1325 L335 816 L957 816 L957 686 L335 686 L335 131 L1053 131 L1053 0 L177 0 L177 1456 Z " />
<g transform="translate(357,321)" >
<path fill="black" d="M148 1375 Q148 1414 173.5 1441 Q199 1468 244 1468 Q289 1468 314 1441 Q339 1414 339 1375 Q339 1336 314 1309.5 Q289 1283 244 1283 Q199 1283 173.5 1309.5 Q148 1336 148 1375 Z " />
</g>
</glyph>
<glyph glyph-name="edotaccent" unicode="&#x117;" horiz-adv-x="1047" >
<path fill="black" d="M97 570 Q97 704 133 804 Q169 904 230.5 970 Q292 1036 373.5 1069 Q455 1102 545 1102 Q649 1102 727 1067.5 Q805 1033 858 968 Q911 903 937.5 810 Q964 717 964 600 L964 511 L249 511 L249 487 Q249 399 272 328.5 Q295 258 338 208.5 Q381 159 441 132.5 Q501 106 576 106 Q668 106 736.5 140.5 Q805 175 859 238 L943 157 Q918 122 883 90 Q848 58 802 33.5 Q756 9 698 -5.5 Q640 -20 568 -20 Q463 -20 376 14 Q289 48 227 113.5 Q165 179 131 273 Q97 367 97 487 L97 570 Z M812 638 L812 659 Q810 725 793.5 783 Q777 841 744.5 883.5 Q712 926 662.5 950.5 Q613 975 545 975 Q422 975 344 892.5 Q266 810 252 638 L812 638 Z " />
<g transform="translate(301,-1)" >
<path fill="black" d="M148 1375 Q148 1414 173.5 1441 Q199 1468 244 1468 Q289 1468 314 1441 Q339 1414 339 1375 Q339 1336 314 1309.5 Q289 1283 244 1283 Q199 1283 173.5 1309.5 Q148 1336 148 1375 Z " />
</g>
</glyph>
<glyph glyph-name="Eogonek" unicode="&#x118;" horiz-adv-x="1132" d="M177 1456 L1047 1456 L1047 1325 L335 1325 L335 816 L957 816 L957 686 L335 686 L335 131 L1053 131 L1053 0 L979 0 Q946 -25 916 -51.5 Q886 -78 863 -106 Q840 -134 826.5 -164.5 Q813 -195 813 -228 Q813 -263 829.5 -285 Q846 -307 890 -307 Q923 -307 947 -296.5 Q971 -286 985 -277 L1001 -380 Q979 -395 945 -409.5 Q911 -424 857 -424 Q820 -424 788 -412.5 Q756 -401 733 -378.5 Q710 -356 696.5 -322.5 Q683 -289 683 -244 Q683 -180 721 -117.5 Q759 -55 834 0 L177 0 L177 1456 Z " />
<glyph glyph-name="eogonek" unicode="&#x119;" horiz-adv-x="1047" d="M568 -20 Q463 -20 376 14 Q289 48 227 113.5 Q165 179 131 273 Q97 367 97 487 L97 570 Q97 704 133 804 Q169 904 230.5 970 Q292 1036 373.5 1069 Q455 1102 545 1102 Q649 1102 727 1067.5 Q805 1033 858 968 Q911 903 937.5 810 Q964 717 964 600 L964 511 L249 511 L249 487 Q249 399 272 328.5 Q295 258 338 208.5 Q381 159 441 132.5 Q501 106 576 106 Q668 106 736.5 140.5 Q805 175 859 238 L943 157 Q916 119 877.5 84.5 Q839 50 786 25 Q755 1 727 -24.5 Q699 -50 677.5 -77 Q656 -104 643.5 -133 Q631 -162 631 -194 Q631 -229 647.5 -251 Q664 -273 708 -273 Q741 -273 765 -262.5 Q789 -252 803 -243 L819 -346 Q797 -361 763 -375.5 Q729 -390 675 -390 Q638 -390 606 -378.5 Q574 -367 551 -344.5 Q528 -322 514.5 -288.5 Q501 -255 501 -210 Q501 -111 589 -20 L568 -20 Z M812 638 L812 659 Q810 725 793.5 783 Q777 841 744.5 883.5 Q712 926 662.5 950.5 Q613 975 545 975 Q422 975 344 892.5 Q266 810 252 638 L812 638 Z " />
<glyph glyph-name="Ecaron" unicode="&#x11a;" horiz-adv-x="1132" d="M177 1456 L1047 1456 L1047 1325 L335 1325 L335 816 L957 816 L957 686 L335 686 L335 131 L1053 131 L1053 0 L177 0 L177 1456 Z M552 1571 L316 1839 L316 1850 L448 1850 L603 1668 L758 1850 L891 1850 L891 1839 L653 1571 L552 1571 Z " />
<glyph glyph-name="ecaron" unicode="&#x11b;" horiz-adv-x="1047" d="M97 570 Q97 704 133 804 Q169 904 230.5 970 Q292 1036 373.5 1069 Q455 1102 545 1102 Q649 1102 727 1067.5 Q805 1033 858 968 Q911 903 937.5 810 Q964 717 964 600 L964 511 L249 511 L249 487 Q249 399 272 328.5 Q295 258 338 208.5 Q381 159 441 132.5 Q501 106 576 106 Q668 106 736.5 140.5 Q805 175 859 238 L943 157 Q918 122 883 90 Q848 58 802 33.5 Q756 9 698 -5.5 Q640 -20 568 -20 Q463 -20 376 14 Q289 48 227 113.5 Q165 179 131 273 Q97 367 97 487 L97 570 Z M812 638 L812 659 Q810 725 793.5 783 Q777 841 744.5 883.5 Q712 926 662.5 950.5 Q613 975 545 975 Q422 975 344 892.5 Q266 810 252 638 L812 638 Z M496 1249 L260 1517 L260 1528 L392 1528 L547 1346 L702 1528 L835 1528 L835 1517 L597 1249 L496 1249 Z " />
<glyph glyph-name="Gbreve" unicode="&#x11e;" horiz-adv-x="1354" >
<path fill="black" d="M142 844 Q142 996 179 1113.5 Q216 1231 286 1311.5 Q356 1392 457.5 1434 Q559 1476 687 1476 Q806 1476 896.5 1445 Q987 1414 1050 1356.5 Q1113 1299 1149 1218 Q1185 1137 1196 1038 L1040 1038 Q1031 1105 1007 1161.5 Q983 1218 941 1258.5 Q899 1299 837 1322 Q775 1345 689 1345 Q592 1345 519 1311.5 Q446 1278 397 1214 Q348 1150 323.5 1057 Q299 964 299 846 L299 618 Q299 496 328 401.5 Q357 307 410.5 242 Q464 177 539.5 143.5 Q615 110 709 110 Q783 110 839 122.5 Q895 135 934.5 152.5 Q974 170 999.5 189.5 Q1025 209 1039 224 L1039 578 L696 578 L696 709 L1197 709 L1197 180 Q1178 154 1140.5 119.5 Q1103 85 1044 54 Q985 23 901.5 1.5 Q818 -20 707 -20 Q581 -20 477 22.5 Q373 65 298.5 146 Q224 227 183 346 Q142 465 142 618 L142 844 Z " />
<g transform="translate(222,343)" >
<path fill="black" d="M259 1493 Q259 1461 268.5 1432 Q278 1403 299 1381 Q320 1359 354 1346 Q388 1333 436 1333 Q483 1333 516.5 1346 Q550 1359 571 1381 Q592 1403 602 1432 Q612 1461 612 1493 L738 1493 Q738 1435 717.5 1386.5 Q697 1338 658 1303.5 Q619 1269 563 1250 Q507 1231 436 1231 Q366 1231 310 1250 Q254 1269 214.5 1303.5 Q175 1338 154 1386.5 Q133 1435 133 1493 L259 1493 Z " />
</g>
</glyph>
<glyph glyph-name="gbreve" unicode="&#x11f;" horiz-adv-x="1114" >
<path fill="black" d="M242 -167 Q304 -240 376 -271.5 Q448 -303 526 -303 Q661 -303 736 -231.5 Q811 -160 811 -8 L811 128 Q760 57 685.5 18.5 Q611 -20 508 -20 Q415 -20 341 16 Q267 52 215 120 Q163 188 135.5 286.5 Q108 385 108 509 L108 570 Q108 700 135.5 799.5 Q163 899 215 966 Q267 1033 341 1067.5 Q415 1102 509 1102 Q615 1102 690.5 1060.5 Q766 1019 816 942 L824 1082 L963 1082 L963 -1 Q963 -108 932.5 -188 Q902 -268 846 -321.5 Q790 -375 711 -402 Q632 -429 535 -429 Q490 -429 439 -419 Q388 -409 338.5 -389 Q289 -369 244.5 -337.5 Q200 -306 168 -262 L242 -167 Z M260 509 Q260 417 276.5 343 Q293 269 327.5 217.5 Q362 166 415.5 138 Q469 110 542 110 Q595 110 636.5 123 Q678 136 711 158.5 Q744 181 768.5 212.5 Q793 244 811 281 L811 798 Q795 834 771.5 865.5 Q748 897 716 921 Q684 945 641.5 958.5 Q599 972 545 972 Q471 972 417.5 944 Q364 916 329 863.5 Q294 811 277 737 Q260 663 260 570 L260 509 Z " />
<g transform="translate(102,0)" >
<path fill="black" d="M259 1493 Q259 1461 268.5 1432 Q278 1403 299 1381 Q320 1359 354 1346 Q388 1333 436 1333 Q483 1333 516.5 1346 Q550 1359 571 1381 Q592 1403 602 1432 Q612 1461 612 1493 L738 1493 Q738 1435 717.5 1386.5 Q697 1338 658 1303.5 Q619 1269 563 1250 Q507 1231 436 1231 Q366 1231 310 1250 Q254 1269 214.5 1303.5 Q175 1338 154 1386.5 Q133 1435 133 1493 L259 1493 Z " />
</g>
</glyph>
<glyph glyph-name="Gdotaccent" unicode="&#x120;" horiz-adv-x="1354" >
<path fill="black" d="M142 844 Q142 996 179 1113.5 Q216 1231 286 1311.5 Q356 1392 457.5 1434 Q559 1476 687 1476 Q806 1476 896.5 1445 Q987 1414 1050 1356.5 Q1113 1299 1149 1218 Q1185 1137 1196 1038 L1040 1038 Q1031 1105 1007 1161.5 Q983 1218 941 1258.5 Q899 1299 837 1322 Q775 1345 689 1345 Q592 1345 519 1311.5 Q446 1278 397 1214 Q348 1150 323.5 1057 Q299 964 299 846 L299 618 Q299 496 328 401.5 Q357 307 410.5 242 Q464 177 539.5 143.5 Q615 110 709 110 Q783 110 839 122.5 Q895 135 934.5 152.5 Q974 170 999.5 189.5 Q1025 209 1039 224 L1039 578 L696 578 L696 709 L1197 709 L1197 180 Q1178 154 1140.5 119.5 Q1103 85 1044 54 Q985 23 901.5 1.5 Q818 -20 707 -20 Q581 -20 477 22.5 Q373 65 298.5 146 Q224 227 183 346 Q142 465 142 618 L142 844 Z " />
<g transform="translate(417,342)" >
<path fill="black" d="M148 1375 Q148 1414 173.5 1441 Q199 1468 244 1468 Q289 1468 314 1441 Q339 1414 339 1375 Q339 1336 314 1309.5 Q289 1283 244 1283 Q199 1283 173.5 1309.5 Q148 1336 148 1375 Z " />
</g>
</glyph>
<glyph glyph-name="gdotaccent" unicode="&#x121;" horiz-adv-x="1114" >
<path fill="black" d="M242 -167 Q304 -240 376 -271.5 Q448 -303 526 -303 Q661 -303 736 -231.5 Q811 -160 811 -8 L811 128 Q760 57 685.5 18.5 Q611 -20 508 -20 Q415 -20 341 16 Q267 52 215 120 Q163 188 135.5 286.5 Q108 385 108 509 L108 570 Q108 700 135.5 799.5 Q163 899 215 966 Q267 1033 341 1067.5 Q415 1102 509 1102 Q615 1102 690.5 1060.5 Q766 1019 816 942 L824 1082 L963 1082 L963 -1 Q963 -108 932.5 -188 Q902 -268 846 -321.5 Q790 -375 711 -402 Q632 -429 535 -429 Q490 -429 439 -419 Q388 -409 338.5 -389 Q289 -369 244.5 -337.5 Q200 -306 168 -262 L242 -167 Z M260 509 Q260 417 276.5 343 Q293 269 327.5 217.5 Q362 166 415.5 138 Q469 110 542 110 Q595 110 636.5 123 Q678 136 711 158.5 Q744 181 768.5 212.5 Q793 244 811 281 L811 798 Q795 834 771.5 865.5 Q748 897 716 921 Q684 945 641.5 958.5 Q599 972 545 972 Q471 972 417.5 944 Q364 916 329 863.5 Q294 811 277 737 Q260 663 260 570 L260 509 Z " />
<g transform="translate(297,-1)" >
<path fill="black" d="M148 1375 Q148 1414 173.5 1441 Q199 1468 244 1468 Q289 1468 314 1441 Q339 1414 339 1375 Q339 1336 314 1309.5 Q289 1283 244 1283 Q199 1283 173.5 1309.5 Q148 1336 148 1375 Z " />
</g>
</glyph>
<glyph glyph-name="uni0122" unicode="&#x122;" horiz-adv-x="1304" >
<path fill="black" d="M142 844 Q142 996 179 1113.5 Q216 1231 286 1311.5 Q356 1392 457.5 1434 Q559 1476 687 1476 Q806 1476 896.5 1445 Q987 1414 1050 1356.5 Q1113 1299 1149 1218 Q1185 1137 1196 1038 L1040 1038 Q1031 1105 1007 1161.5 Q983 1218 941 1258.5 Q899 1299 837 1322 Q775 1345 689 1345 Q592 1345 519 1311.5 Q446 1278 397 1214 Q348 1150 323.5 1057 Q299 964 299 846 L299 618 Q299 496 328 401.5 Q357 307 410.5 242 Q464 177 539.5 143.5 Q615 110 709 110 Q783 110 839 122.5 Q895 135 934.5 152.5 Q974 170 999.5 189.5 Q1025 209 1039 224 L1039 578 L696 578 L696 709 L1197 709 L1197 180 Q1178 154 1140.5 119.5 Q1103 85 1044 54 Q985 23 901.5 1.5 Q818 -20 707 -20 Q581 -20 477 22.5 Q373 65 298.5 146 Q224 227 183 346 Q142 465 142 618 L142 844 Z " />
<g transform="translate(437,-339)" >
<path fill="black" d="M-646 -472 Q-611 -417 -593.5 -361 Q-576 -305 -576 -236 L-576 -154 L-438 -154 L-438 -233 Q-438 -273 -446 -314.5 Q-454 -356 -470 -395.5 Q-486 -435 -508.5 -471 Q-531 -507 -561 -535 L-646 -472 Z " />
</g>
</glyph>
<glyph glyph-name="uni0123" unicode="&#x123;" horiz-adv-x="1114" >
<path fill="black" d="M242 -167 Q304 -240 376 -271.5 Q448 -303 526 -303 Q661 -303 736 -231.5 Q811 -160 811 -8 L811 128 Q760 57 685.5 18.5 Q611 -20 508 -20 Q415 -20 341 16 Q267 52 215 120 Q163 188 135.5 286.5 Q108 385 108 509 L108 570 Q108 700 135.5 799.5 Q163 899 215 966 Q267 1033 341 1067.5 Q415 1102 509 1102 Q615 1102 690.5 1060.5 Q766 1019 816 942 L824 1082 L963 1082 L963 -1 Q963 -108 932.5 -188 Q902 -268 846 -321.5 Q790 -375 711 -402 Q632 -429 535 -429 Q490 -429 439 -419 Q388 -409 338.5 -389 Q289 -369 244.5 -337.5 Q200 -306 168 -262 L242 -167 Z M260 509 Q260 417 276.5 343 Q293 269 327.5 217.5 Q362 166 415.5 138 Q469 110 542 110 Q595 110 636.5 123 Q678 136 711 158.5 Q744 181 768.5 212.5 Q793 244 811 281 L811 798 Q795 834 771.5 865.5 Q748 897 716 921 Q684 945 641.5 958.5 Q599 972 545 972 Q471 972 417.5 944 Q364 916 329 863.5 Q294 811 277 737 Q260 663 260 570 L260 509 Z " />
<g transform="translate(312,73)" >
<path fill="black" d="M156 1315 Q156 1356 166 1396 Q176 1436 191.5 1471.5 Q207 1507 227 1536.5 Q247 1566 267 1587 L356 1521 Q327 1464 313.5 1415.5 Q300 1367 300 1310 L300 1187 L156 1187 L156 1315 Z " />
</g>
</glyph>
<glyph glyph-name="Hbar" unicode="&#x126;" horiz-adv-x="1337" d="M168 1025 L38 1025 L38 1144 L168 1144 L168 1456 L326 1456 L326 1144 L1062 1144 L1062 1456 L1219 1456 L1219 1144 L1347 1144 L1347 1025 L1219 1025 L1219 0 L1062 0 L1062 686 L326 686 L326 0 L168 0 L168 1025 Z M1062 816 L1062 1025 L326 1025 L326 816 L1062 816 Z " />
<glyph glyph-name="hbar" unicode="&#x127;" horiz-adv-x="1099" d="M150 1245 L-1 1245 L-1 1372 L150 1372 L150 1536 L303 1536 L303 1372 L600 1372 L600 1245 L303 1245 L303 925 Q357 1007 437.5 1054.5 Q518 1102 621 1102 Q698 1102 759 1080 Q820 1058 862.5 1011 Q905 964 928 889 Q951 814 951 707 L951 0 L800 0 L800 708 Q800 782 784.5 832.5 Q769 883 740.5 914.5 Q712 946 670.5 959.5 Q629 973 577 973 Q526 973 483 956.5 Q440 940 405.5 911 Q371 882 345.5 843 Q320 804 303 760 L303 0 L150 0 L150 1245 Z " />
<glyph glyph-name="Itilde" unicode="&#x128;" horiz-adv-x="554" >
<path fill="black" d="M199 0 L199 1456 L356 1456 L356 0 L199 0 Z " />
<g transform="translate(-170,328)" >
<path fill="black" d="M120 1258 Q120 1309 135 1351 Q150 1393 176 1423.5 Q202 1454 237.5 1470.5 Q273 1487 315 1487 Q358 1487 389.5 1471 Q421 1455 450 1436 Q479 1417 508.5 1401 Q538 1385 577 1385 Q618 1385 647 1417.5 Q676 1450 676 1502 L780 1493 Q780 1442 765 1400 Q750 1358 723.5 1328 Q697 1298 661 1281.5 Q625 1265 584 1265 Q535 1265 503.5 1281 Q472 1297 445 1316.5 Q418 1336 390.5 1352 Q363 1368 323 1368 Q281 1368 252.5 1336.5 Q224 1305 224 1253 L120 1258 Z " />
</g>
</glyph>
<glyph glyph-name="itilde" unicode="&#x129;" horiz-adv-x="485" >
<path fill="black" d="M165 0 L165 1082 L317 1082 L317 0 L165 0 Z " />
<g transform="translate(-203,-1)" >
<path fill="black" d="M120 1258 Q120 1309 135 1351 Q150 1393 176 1423.5 Q202 1454 237.5 1470.5 Q273 1487 315 1487 Q358 1487 389.5 1471 Q421 1455 450 1436 Q479 1417 508.5 1401 Q538 1385 577 1385 Q618 1385 647 1417.5 Q676 1450 676 1502 L780 1493 Q780 1442 765 1400 Q750 1358 723.5 1328 Q697 1298 661 1281.5 Q625 1265 584 1265 Q535 1265 503.5 1281 Q472 1297 445 1316.5 Q418 1336 390.5 1352 Q363 1368 323 1368 Q281 1368 252.5 1336.5 Q224 1305 224 1253 L120 1258 Z " />
</g>
</glyph>
<glyph glyph-name="Imacron" unicode="&#x12a;" horiz-adv-x="554" >
<path fill="black" d="M199 0 L199 1456 L356 1456 L356 0 L199 0 Z " />
<g transform="translate(-174,330)" >
<path fill="black" d="M148 1323 L148 1443 L760 1443 L760 1323 L148 1323 Z " />
</g>
</glyph>
<glyph glyph-name="imacron" unicode="&#x12b;" horiz-adv-x="485" >
<path fill="black" d="M165 0 L165 1082 L317 1082 L317 0 L165 0 Z " />
<g transform="translate(-207,1)" >
<path fill="black" d="M148 1323 L148 1443 L760 1443 L760 1323 L148 1323 Z " />
</g>
</glyph>
<glyph glyph-name="Iogonek" unicode="&#x12e;" horiz-adv-x="554" d="M350 -380 Q328 -395 294 -409.5 Q260 -424 206 -424 Q169 -424 137 -412.5 Q105 -401 82 -378.5 Q59 -356 45.5 -322.5 Q32 -289 32 -244 Q32 -177 74 -111 Q116 -45 199 12 L199 1456 L356 1456 L356 0 L328 0 Q295 -25 265 -51.5 Q235 -78 212 -106 Q189 -134 175.5 -164.5 Q162 -195 162 -228 Q162 -263 178.5 -285 Q195 -307 239 -307 Q272 -307 296 -296.5 Q320 -286 334 -277 L350 -380 Z " />
<glyph glyph-name="iogonek" unicode="&#x12f;" horiz-adv-x="482" d="M326 -380 Q304 -395 270 -409.5 Q236 -424 182 -424 Q145 -424 113 -412.5 Q81 -401 58 -378.5 Q35 -356 21.5 -322.5 Q8 -289 8 -244 Q8 -178 48 -114.5 Q88 -51 166 5 L166 1082 L318 1082 L318 0 L304 0 Q271 -25 241 -51.5 Q211 -78 188 -106 Q165 -134 151.5 -164.5 Q138 -195 138 -228 Q138 -263 154.5 -285 Q171 -307 215 -307 Q248 -307 272 -296.5 Q296 -286 310 -277 L326 -380 Z M148 1383 Q148 1422 173.5 1449 Q199 1476 244 1476 Q289 1476 314 1449 Q339 1422 339 1383 Q339 1344 314 1317.5 Q289 1291 244 1291 Q199 1291 173.5 1317.5 Q148 1344 148 1383 Z " />
<glyph glyph-name="Idot" unicode="&#x130;" horiz-adv-x="554" >
<path fill="black" d="M199 0 L199 1456 L356 1456 L356 0 L199 0 Z " />
<g transform="translate(30,321)" >
<path fill="black" d="M148 1375 Q148 1414 173.5 1441 Q199 1468 244 1468 Q289 1468 314 1441 Q339 1414 339 1375 Q339 1336 314 1309.5 Q289 1283 244 1283 Q199 1283 173.5 1309.5 Q148 1336 148 1375 Z " />
</g>
</glyph>
<glyph glyph-name="dotlessi" unicode="&#x131;" horiz-adv-x="485" d="M165 0 L165 1082 L317 1082 L317 0 L165 0 Z " />
<glyph glyph-name="uni0136" unicode="&#x136;" horiz-adv-x="1203" >
<path fill="black" d="M177 1456 L335 1456 L335 703 L504 901 L988 1456 L1183 1456 L624 812 L1224 0 L1033 0 L516 696 L335 503 L335 0 L177 0 L177 1456 Z " />
<g transform="translate(370,-238)" >
<path fill="black" d="M-646 -472 Q-611 -417 -593.5 -361 Q-576 -305 -576 -236 L-576 -154 L-438 -154 L-438 -233 Q-438 -273 -446 -314.5 Q-454 -356 -470 -395.5 Q-486 -435 -508.5 -471 Q-531 -507 -561 -535 L-646 -472 Z " />
</g>
</glyph>
<glyph glyph-name="uni0137" unicode="&#x137;" horiz-adv-x="971" >
<path fill="black" d="M152 1536 L304 1536 L304 578 L407 691 L758 1082 L946 1082 L526 631 L986 0 L806 0 L424 520 L304 391 L304 0 L152 0 L152 1536 Z " />
<g transform="translate(251,-253)" >
<path fill="black" d="M-646 -472 Q-611 -417 -593.5 -361 Q-576 -305 -576 -236 L-576 -154 L-438 -154 L-438 -233 Q-438 -273 -446 -314.5 Q-454 -356 -470 -395.5 Q-486 -435 -508.5 -471 Q-531 -507 -561 -535 L-646 -472 Z " />
</g>
</glyph>
<glyph glyph-name="Lacute" unicode="&#x139;" horiz-adv-x="1062" >
<path fill="black" d="M177 1456 L335 1456 L335 131 L1002 131 L1002 0 L177 0 L177 1456 Z " />
<g transform="translate(43,293)" >
<path fill="black" d="M323 1536 L507 1536 L259 1249 L128 1249 L323 1536 Z " />
</g>
</glyph>
<glyph glyph-name="lacute" unicode="&#x13a;" horiz-adv-x="609" >
<path fill="black" d="M164 1536 L316 1536 L316 266 Q316 217 326 186.5 Q336 156 353 139.5 Q370 123 393 117.5 Q416 112 441 112 Q465 112 488.5 116 Q512 120 529 123 L532 -2 Q509 -9 474.5 -14.5 Q440 -20 401 -20 Q350 -20 306.5 -5.5 Q263 9 231.5 42.5 Q200 76 182 131 Q164 186 164 267 L164 1536 Z " />
<g transform="translate(28,400)" >
<path fill="black" d="M323 1536 L507 1536 L259 1249 L128 1249 L323 1536 Z " />
</g>
</glyph>
<glyph glyph-name="uni013B" unicode="&#x13b;" horiz-adv-x="1032" >
<path fill="black" d="M177 1456 L335 1456 L335 131 L1002 131 L1002 0 L177 0 L177 1456 Z " />
<g transform="translate(336,-321)" >
<path fill="black" d="M-646 -472 Q-611 -417 -593.5 -361 Q-576 -305 -576 -236 L-576 -154 L-438 -154 L-438 -233 Q-438 -273 -446 -314.5 Q-454 -356 -470 -395.5 Q-486 -435 -508.5 -471 Q-531 -507 -561 -535 L-646 -472 Z " />
</g>
</glyph>
<glyph glyph-name="uni013C" unicode="&#x13c;" horiz-adv-x="473" >
<path fill="black" d="M164 1536 L316 1536 L316 266 Q316 217 326 186.5 Q336 156 353 139.5 Q370 123 393 117.5 Q416 112 441 112 Q465 112 488.5 116 Q512 120 529 123 L532 -2 Q509 -9 474.5 -14.5 Q440 -20 401 -20 Q350 -20 306.5 -5.5 Q263 9 231.5 42.5 Q200 76 182 131 Q164 186 164 267 L164 1536 Z " />
<g transform="translate(-8,-321)" >
<path fill="black" d="M-646 -472 Q-611 -417 -593.5 -361 Q-576 -305 -576 -236 L-576 -154 L-438 -154 L-438 -233 Q-438 -273 -446 -314.5 Q-454 -356 -470 -395.5 Q-486 -435 -508.5 -471 Q-531 -507 -561 -535 L-646 -472 Z " />
</g>
</glyph>
<glyph glyph-name="Lcaron" unicode="&#x13d;" horiz-adv-x="1032" >
<path fill="black" d="M177 1456 L335 1456 L335 131 L1002 131 L1002 0 L177 0 L177 1456 Z " />
<g transform="translate(427,1237)" >
<path fill="black" d="M-646 -472 Q-611 -417 -593.5 -361 Q-576 -305 -576 -236 L-576 -154 L-438 -154 L-438 -233 Q-438 -273 -446 -314.5 Q-454 -356 -470 -395.5 Q-486 -435 -508.5 -471 Q-531 -507 -561 -535 L-646 -472 Z " />
</g>
</glyph>
<glyph glyph-name="lcaron" unicode="&#x13e;" horiz-adv-x="611" >
<path fill="black" d="M164 1536 L316 1536 L316 266 Q316 217 326 186.5 Q336 156 353 139.5 Q370 123 393 117.5 Q416 112 441 112 Q465 112 488.5 116 Q512 120 529 123 L532 -2 Q509 -9 474.5 -14.5 Q440 -20 401 -20 Q350 -20 306.5 -5.5 Q263 9 231.5 42.5 Q200 76 182 131 Q164 186 164 267 L164 1536 Z " />
<g transform="translate(308,1318)" >
<path fill="black" d="M-646 -472 Q-611 -417 -593.5 -361 Q-576 -305 -576 -236 L-576 -154 L-438 -154 L-438 -233 Q-438 -273 -446 -314.5 Q-454 -356 -470 -395.5 Q-486 -435 -508.5 -471 Q-531 -507 -561 -535 L-646 -472 Z " />
</g>
</glyph>
<glyph glyph-name="Lslash" unicode="&#x141;" horiz-adv-x="1032" d="M182 673 L38 626 L38 734 L182 781 L182 1456 L340 1456 L340 833 L606 921 L606 813 L340 725 L340 131 L1007 131 L1007 0 L182 0 L182 673 Z " />
<glyph glyph-name="lslash" unicode="&#x142;" horiz-adv-x="526" d="M198 700 L40 637 L40 743 L198 806 L198 1536 L350 1536 L350 867 L509 930 L509 824 L350 761 L350 266 Q350 217 360 186.5 Q370 156 387 139.5 Q404 123 427 117.5 Q450 112 475 112 Q499 112 522.5 116 Q546 120 563 123 L566 -2 Q543 -9 508.5 -14.5 Q474 -20 435 -20 Q384 -20 340.5 -5.5 Q297 9 265.5 42.5 Q234 76 216 131 Q198 186 198 267 L198 700 Z " />
<glyph glyph-name="Nacute" unicode="&#x143;" horiz-adv-x="1410" >
<path fill="black" d="M177 1456 L343 1456 L1075 265 L1075 1456 L1231 1456 L1231 0 L1064 0 L335 1189 L335 0 L177 0 L177 1456 Z " />
<g transform="translate(489,313)" >
<path fill="black" d="M323 1536 L507 1536 L259 1249 L128 1249 L323 1536 Z " />
</g>
</glyph>
<glyph glyph-name="nacute" unicode="&#x144;" horiz-adv-x="1100" >
<path fill="black" d="M151 1082 L296 1082 L301 921 Q355 1005 437 1053.5 Q519 1102 623 1102 Q699 1102 760 1080 Q821 1058 863.5 1011 Q906 964 929 889 Q952 814 952 707 L952 0 L800 0 L800 708 Q800 782 785 832.5 Q770 883 741 914.5 Q712 946 671 959.5 Q630 973 577 973 Q526 973 483.5 956 Q441 939 406.5 910 Q372 881 346 842 Q320 803 303 759 L303 0 L151 0 L151 1082 Z " />
<g transform="translate(345,-1)" >
<path fill="black" d="M323 1536 L507 1536 L259 1249 L128 1249 L323 1536 Z " />
</g>
</glyph>
<glyph glyph-name="uni0145" unicode="&#x145;" horiz-adv-x="1363" >
<path fill="black" d="M177 1456 L343 1456 L1075 265 L1075 1456 L1231 1456 L1231 0 L1064 0 L335 1189 L335 0 L177 0 L177 1456 Z " />
<g transform="translate(428,-321)" >
<path fill="black" d="M-646 -472 Q-611 -417 -593.5 -361 Q-576 -305 -576 -236 L-576 -154 L-438 -154 L-438 -233 Q-438 -273 -446 -314.5 Q-454 -356 -470 -395.5 Q-486 -435 -508.5 -471 Q-531 -507 -561 -535 L-646 -472 Z " />
</g>
</glyph>
<glyph glyph-name="uni0146" unicode="&#x146;" horiz-adv-x="1060" >
<path fill="black" d="M151 1082 L296 1082 L301 921 Q355 1005 437 1053.5 Q519 1102 623 1102 Q699 1102 760 1080 Q821 1058 863.5 1011 Q906 964 929 889 Q952 814 952 707 L952 0 L800 0 L800 708 Q800 782 785 832.5 Q770 883 741 914.5 Q712 946 671 959.5 Q630 973 577 973 Q526 973 483.5 956 Q441 939 406.5 910 Q372 881 346 842 Q320 803 303 759 L303 0 L151 0 L151 1082 Z " />
<g transform="translate(284,-321)" >
<path fill="black" d="M-646 -472 Q-611 -417 -593.5 -361 Q-576 -305 -576 -236 L-576 -154 L-438 -154 L-438 -233 Q-438 -273 -446 -314.5 Q-454 -356 -470 -395.5 Q-486 -435 -508.5 -471 Q-531 -507 -561 -535 L-646 -472 Z " />
</g>
</glyph>
<glyph glyph-name="Ncaron" unicode="&#x147;" horiz-adv-x="1410" >
<path fill="black" d="M177 1456 L343 1456 L1075 265 L1075 1456 L1231 1456 L1231 0 L1064 0 L335 1189 L335 0 L177 0 L177 1456 Z " />
<g transform="translate(273,314)" >
<path fill="black" d="M142 1517 L142 1528 L274 1528 L429 1346 L584 1528 L717 1528 L717 1517 L479 1249 L378 1249 L142 1517 Z " />
</g>
</glyph>
<glyph glyph-name="ncaron" unicode="&#x148;" horiz-adv-x="1100" d="M151 1082 L296 1082 L301 921 Q355 1005 437 1053.5 Q519 1102 623 1102 Q699 1102 760 1080 Q821 1058 863.5 1011 Q906 964 929 889 Q952 814 952 707 L952 0 L800 0 L800 708 Q800 782 785 832.5 Q770 883 741 914.5 Q712 946 671 959.5 Q630 973 577 973 Q526 973 483.5 956 Q441 939 406.5 910 Q372 881 346 842 Q320 803 303 759 L303 0 L151 0 L151 1082 Z M507 1249 L271 1517 L271 1528 L403 1528 L558 1346 L713 1528 L846 1528 L846 1517 L608 1249 L507 1249 Z " />
<glyph glyph-name="Eng" unicode="&#x14a;" horiz-adv-x="1387" d="M173 1456 L331 1456 L1061 274 L1061 1456 L1219 1456 L1219 -85 Q1219 -170 1198 -235.5 Q1177 -301 1137 -346 Q1097 -391 1040.5 -414 Q984 -437 912 -437 Q881 -437 854.5 -433 Q828 -429 799 -419 L812 -291 Q829 -297 857.5 -301.5 Q886 -306 906 -306 Q980 -306 1020.5 -248 Q1061 -190 1061 -85 L1061 0 L331 1182 L331 0 L173 0 L173 1456 Z " />
<glyph glyph-name="eng" unicode="&#x14b;" horiz-adv-x="1118" d="M554 -289 Q562 -292 575 -294.5 Q588 -297 602.5 -299 Q617 -301 631 -302 Q645 -303 655 -303 Q729 -303 769.5 -249 Q810 -195 810 -89 L810 668 Q810 755 793.5 813.5 Q777 872 746.5 907 Q716 942 673 957 Q630 972 576 972 Q471 972 405 923 Q339 874 305 795 L305 0 L153 0 L153 1082 L290 1082 L301 912 Q351 1001 430.5 1051.5 Q510 1102 619 1102 Q699 1102 762.5 1077.5 Q826 1053 870 1000.5 Q914 948 937.5 866.5 Q961 785 961 671 L961 -89 Q961 -259 881.5 -348 Q802 -437 659 -437 Q627 -437 599 -433 Q571 -429 541 -419 L554 -289 Z " />
<glyph glyph-name="Omacron" unicode="&#x14c;" horiz-adv-x="1354" >
<path fill="black" d="M128 830 Q128 983 167.5 1103.5 Q207 1224 279 1306.5 Q351 1389 452 1432.5 Q553 1476 676 1476 Q801 1476 902.5 1432.5 Q1004 1389 1075.5 1306.5 Q1147 1224 1186 1103.5 Q1225 983 1225 830 L1225 626 Q1225 472 1186.5 352 Q1148 232 1077 149.5 Q1006 67 904.5 23.5 Q803 -20 678 -20 Q555 -20 453.5 23.5 Q352 67 280 149.5 Q208 232 168 352 Q128 472 128 626 L128 830 Z M285 626 Q285 500 312 404.5 Q339 309 390 244.5 Q441 180 514 147.5 Q587 115 678 115 Q867 115 967.5 244 Q1068 373 1068 626 L1068 832 Q1068 1081 965.5 1210.5 Q863 1340 676 1340 Q585 1340 512.5 1307.5 Q440 1275 389.5 1210.5 Q339 1146 312 1051.5 Q285 957 285 832 L285 626 Z " />
<g transform="translate(225,329)" >
<path fill="black" d="M148 1323 L148 1443 L760 1443 L760 1323 L148 1323 Z " />
</g>
</glyph>
<glyph glyph-name="omacron" unicode="&#x14d;" horiz-adv-x="1124" >
<path fill="black" d="M99 575 Q99 695 132 792.5 Q165 890 225 959 Q285 1028 370 1065 Q455 1102 560 1102 Q666 1102 752 1065 Q838 1028 898.5 959 Q959 890 991.5 792.5 Q1024 695 1024 575 L1024 507 Q1024 387 991.5 289.5 Q959 192 898.5 123 Q838 54 753 17 Q668 -20 563 -20 Q457 -20 371.5 17 Q286 54 225.5 123 Q165 192 132 289.5 Q99 387 99 507 L99 575 Z M252 507 Q252 420 272 346.5 Q292 273 331.5 219.5 Q371 166 429 136.5 Q487 107 563 107 Q639 107 697 136.5 Q755 166 794 219.5 Q833 273 852.5 346.5 Q872 420 872 507 L872 575 Q872 661 852 734 Q832 807 792.5 860.5 Q753 914 694.5 944.5 Q636 975 560 975 Q485 975 427.5 944.5 Q370 914 331 860.5 Q292 807 272 734 Q252 661 252 575 L252 507 Z " />
<g transform="translate(107,8)" >
<path fill="black" d="M148 1323 L148 1443 L760 1443 L760 1323 L148 1323 Z " />
</g>
</glyph>
<glyph glyph-name="Ohungarumlaut" unicode="&#x150;" horiz-adv-x="1354" d="M128 830 Q128 983 167.5 1103.5 Q207 1224 279 1306.5 Q351 1389 452 1432.5 Q553 1476 676 1476 Q801 1476 902.5 1432.5 Q1004 1389 1075.5 1306.5 Q1147 1224 1186 1103.5 Q1225 983 1225 830 L1225 626 Q1225 472 1186.5 352 Q1148 232 1077 149.5 Q1006 67 904.5 23.5 Q803 -20 678 -20 Q555 -20 453.5 23.5 Q352 67 280 149.5 Q208 232 168 352 Q128 472 128 626 L128 830 Z M285 626 Q285 500 312 404.5 Q339 309 390 244.5 Q441 180 514 147.5 Q587 115 678 115 Q867 115 967.5 244 Q1068 373 1068 626 L1068 832 Q1068 1081 965.5 1210.5 Q863 1340 676 1340 Q585 1340 512.5 1307.5 Q440 1275 389.5 1210.5 Q339 1146 312 1051.5 Q285 957 285 832 L285 626 Z M947 1855 L1114 1855 L854 1552 L714 1552 L947 1855 Z M634 1855 L795 1855 L579 1552 L452 1552 L634 1855 Z " />
<glyph glyph-name="ohungarumlaut" unicode="&#x151;" horiz-adv-x="1124" d="M99 575 Q99 695 132 792.5 Q165 890 225 959 Q285 1028 370 1065 Q455 1102 560 1102 Q666 1102 752 1065 Q838 1028 898.5 959 Q959 890 991.5 792.5 Q1024 695 1024 575 L1024 507 Q1024 387 991.5 289.5 Q959 192 898.5 123 Q838 54 753 17 Q668 -20 563 -20 Q457 -20 371.5 17 Q286 54 225.5 123 Q165 192 132 289.5 Q99 387 99 507 L99 575 Z M252 507 Q252 420 272 346.5 Q292 273 331.5 219.5 Q371 166 429 136.5 Q487 107 563 107 Q639 107 697 136.5 Q755 166 794 219.5 Q833 273 852.5 346.5 Q872 420 872 507 L872 575 Q872 661 852 734 Q832 807 792.5 860.5 Q753 914 694.5 944.5 Q636 975 560 975 Q485 975 427.5 944.5 Q370 914 331 860.5 Q292 807 272 734 Q252 661 252 575 L252 507 Z M829 1534 L996 1534 L736 1231 L596 1231 L829 1534 Z M516 1534 L677 1534 L461 1231 L334 1231 L516 1534 Z " />
<glyph glyph-name="OE" unicode="&#x152;" horiz-adv-x="1811" d="M113 880 Q113 1012 151 1122 Q189 1232 258 1311 Q327 1390 423 1433.5 Q519 1477 636 1477 Q713 1477 786.5 1470.5 Q860 1464 927 1456 L1734 1456 L1734 1325 L1022 1325 L1022 816 L1644 816 L1644 686 L1022 686 L1022 131 L1740 131 L1740 0 L927 0 Q860 -8 787 -14.5 Q714 -21 638 -21 Q521 -21 424.5 22.5 Q328 66 259 145 Q190 224 151.5 334 Q113 444 113 576 L113 880 Z M864 1335 Q758 1350 636 1350 Q551 1350 482.5 1319 Q414 1288 365.5 1228 Q317 1168 291 1081 Q265 994 265 882 L265 576 Q265 465 291.5 377.5 Q318 290 366.5 229.5 Q415 169 484 137.5 Q553 106 638 106 Q696 106 753.5 109.5 Q811 113 864 121 L864 1335 Z " />
<glyph glyph-name="oe" unicode="&#x153;" horiz-adv-x="1812" d="M102 555 Q102 673 134 773 Q166 873 225.5 946 Q285 1019 370.5 1060.5 Q456 1102 562 1102 Q697 1102 795.5 1039.5 Q894 977 952 868 Q982 922 1021.5 965.5 Q1061 1009 1108 1039.5 Q1155 1070 1208.5 1086 Q1262 1102 1319 1102 Q1420 1102 1497 1067.5 Q1574 1033 1627 971 Q1680 909 1707 822 Q1734 735 1734 630 L1734 518 L1032 518 L1032 515 Q1032 430 1053 355.5 Q1074 281 1114 225.5 Q1154 170 1212 138 Q1270 106 1343 106 Q1451 106 1522.5 138.5 Q1594 171 1644 220 L1703 116 Q1677 89 1642 64 Q1607 39 1562 20.5 Q1517 2 1461.5 -9.5 Q1406 -21 1339 -21 Q1210 -21 1110.5 41 Q1011 103 951 212 Q894 104 795.5 41.5 Q697 -21 563 -21 Q456 -21 370.5 20.5 Q285 62 225.5 135 Q166 208 134 308.5 Q102 409 102 527 L102 555 Z M254 527 Q254 442 273 365.5 Q292 289 330.5 231.5 Q369 174 427 140 Q485 106 563 106 Q640 106 698 140 Q756 174 794.5 231.5 Q833 289 852 365.5 Q871 442 871 527 L871 555 Q871 639 852 715 Q833 791 794.5 848.5 Q756 906 698 940.5 Q640 975 562 975 Q485 975 427 940.5 Q369 906 330.5 848.5 Q292 791 273 715 Q254 639 254 555 L254 527 Z M1583 645 L1583 672 Q1583 734 1566 789 Q1549 844 1516 885 Q1483 926 1433.5 950.5 Q1384 975 1319 975 Q1262 975 1214 950 Q1166 925 1130 881 Q1094 837 1070 776.5 Q1046 716 1037 645 L1583 645 Z " />
<glyph glyph-name="Racute" unicode="&#x154;" horiz-adv-x="1253" >
<path fill="black" d="M176 1456 L637 1456 Q749 1456 838 1428 Q927 1400 989 1345 Q1051 1290 1084 1209 Q1117 1128 1117 1023 Q1117 953 1097.5 891 Q1078 829 1042 778.5 Q1006 728 955 690.5 Q904 653 841 630 L1176 12 L1176 0 L1008 0 L692 598 L334 598 L334 0 L176 0 L176 1456 Z M334 729 L654 729 Q730 729 787.5 752.5 Q845 776 883 816.5 Q921 857 940.5 910 Q960 963 960 1023 Q960 1092 939.5 1148 Q919 1204 878.5 1243 Q838 1282 777.5 1303.5 Q717 1325 637 1325 L334 1325 L334 729 Z " />
<g transform="translate(376,313)" >
<path fill="black" d="M323 1536 L507 1536 L259 1249 L128 1249 L323 1536 Z " />
</g>
</glyph>
<glyph glyph-name="racute" unicode="&#x155;" horiz-adv-x="689" >
<path fill="black" d="M151 1082 L298 1082 L302 932 Q344 1010 410.5 1056 Q477 1102 572 1102 Q592 1102 615 1098 Q638 1094 649 1089 L647 943 Q609 950 565 950 Q460 950 395.5 897 Q331 844 303 756 L303 0 L151 0 L151 1082 Z " />
<g transform="translate(188,-1)" >
<path fill="black" d="M323 1536 L507 1536 L259 1249 L128 1249 L323 1536 Z " />
</g>
</glyph>
<glyph glyph-name="uni0156" unicode="&#x156;" horiz-adv-x="1186" >
<path fill="black" d="M176 1456 L637 1456 Q749 1456 838 1428 Q927 1400 989 1345 Q1051 1290 1084 1209 Q1117 1128 1117 1023 Q1117 953 1097.5 891 Q1078 829 1042 778.5 Q1006 728 955 690.5 Q904 653 841 630 L1176 12 L1176 0 L1008 0 L692 598 L334 598 L334 0 L176 0 L176 1456 Z M334 729 L654 729 Q730 729 787.5 752.5 Q845 776 883 816.5 Q921 857 940.5 910 Q960 963 960 1023 Q960 1092 939.5 1148 Q919 1204 878.5 1243 Q838 1282 777.5 1303.5 Q717 1325 637 1325 L334 1325 L334 729 Z " />
<g transform="translate(327,-321)" >
<path fill="black" d="M-646 -472 Q-611 -417 -593.5 -361 Q-576 -305 -576 -236 L-576 -154 L-438 -154 L-438 -233 Q-438 -273 -446 -314.5 Q-454 -356 -470 -395.5 Q-486 -435 -508.5 -471 Q-531 -507 -561 -535 L-646 -472 Z " />
</g>
</glyph>
<glyph glyph-name="uni0157" unicode="&#x157;" horiz-adv-x="658" >
<path fill="black" d="M151 1082 L298 1082 L302 932 Q344 1010 410.5 1056 Q477 1102 572 1102 Q592 1102 615 1098 Q638 1094 649 1089 L647 943 Q609 950 565 950 Q460 950 395.5 897 Q331 844 303 756 L303 0 L151 0 L151 1082 Z " />
<g transform="translate(-11,-319)" >
<path fill="black" d="M-646 -472 Q-611 -417 -593.5 -361 Q-576 -305 -576 -236 L-576 -154 L-438 -154 L-438 -233 Q-438 -273 -446 -314.5 Q-454 -356 -470 -395.5 Q-486 -435 -508.5 -471 Q-531 -507 -561 -535 L-646 -472 Z " />
</g>
</glyph>
<glyph glyph-name="Rcaron" unicode="&#x158;" horiz-adv-x="1253" d="M176 1456 L637 1456 Q749 1456 838 1428 Q927 1400 989 1345 Q1051 1290 1084 1209 Q1117 1128 1117 1023 Q1117 953 1097.5 891 Q1078 829 1042 778.5 Q1006 728 955 690.5 Q904 653 841 630 L1176 12 L1176 0 L1008 0 L692 598 L334 598 L334 0 L176 0 L176 1456 Z M334 729 L654 729 Q730 729 787.5 752.5 Q845 776 883 816.5 Q921 857 940.5 910 Q960 963 960 1023 Q960 1092 939.5 1148 Q919 1204 878.5 1243 Q838 1282 777.5 1303.5 Q717 1325 637 1325 L334 1325 L334 729 Z M538 1563 L302 1831 L302 1842 L434 1842 L589 1660 L744 1842 L877 1842 L877 1831 L639 1563 L538 1563 Z " />
<glyph glyph-name="rcaron" unicode="&#x159;" horiz-adv-x="689" >
<path fill="black" d="M151 1082 L298 1082 L302 932 Q344 1010 410.5 1056 Q477 1102 572 1102 Q592 1102 615 1098 Q638 1094 649 1089 L647 943 Q609 950 565 950 Q460 950 395.5 897 Q331 844 303 756 L303 0 L151 0 L151 1082 Z " />
<g transform="translate(-28,0)" >
<path fill="black" d="M142 1517 L142 1528 L274 1528 L429 1346 L584 1528 L717 1528 L717 1517 L479 1249 L378 1249 L142 1517 Z " />
</g>
</glyph>
<glyph glyph-name="Sacute" unicode="&#x15a;" horiz-adv-x="1185" >
<path fill="black" d="M250 419 Q250 336 281.5 277.5 Q313 219 365 182 Q417 145 482.5 128 Q548 111 617 111 Q692 111 752 129 Q812 147 854 180 Q896 213 918 259.5 Q940 306 940 363 Q940 419 923.5 462 Q907 505 867 540.5 Q827 576 759 606.5 Q691 637 589 668 Q486 699 402.5 737 Q319 775 259.5 825 Q200 875 167.5 940 Q135 1005 135 1090 Q135 1174 169.5 1245 Q204 1316 267 1367.5 Q330 1419 417 1447.5 Q504 1476 609 1476 Q721 1476 810.5 1441 Q900 1406 962.5 1346 Q1025 1286 1058.5 1206.5 Q1092 1127 1092 1039 L935 1039 Q935 1105 913.5 1161 Q892 1217 851 1258 Q810 1299 749 1322 Q688 1345 608 1345 Q530 1345 471 1325.5 Q412 1306 372.5 1272 Q333 1238 313 1192 Q293 1146 293 1093 Q293 1044 311.5 1003 Q330 962 371.5 927.5 Q413 893 479 863 Q545 833 640 806 Q753 773 838.5 732 Q924 691 981.5 638.5 Q1039 586 1068.5 519 Q1098 452 1098 365 Q1098 276 1063 205 Q1028 134 964 84 Q900 34 812 7 Q724 -20 617 -20 Q522 -20 428 6.5 Q334 33 259.5 87.5 Q185 142 138.5 224.5 Q92 307 92 419 L250 419 Z " />
<g transform="translate(396,320)" >
<path fill="black" d="M323 1536 L507 1536 L259 1249 L128 1249 L323 1536 Z " />
</g>
</glyph>
<glyph glyph-name="sacute" unicode="&#x15b;" horiz-adv-x="1020" >
<path fill="black" d="M252 314 Q255 254 280 214 Q305 174 342.5 150 Q380 126 426 116.5 Q472 107 517 107 Q576 107 620.5 120 Q665 133 695 156 Q725 179 740.5 209.5 Q756 240 756 276 Q756 308 745 336.5 Q734 365 704.5 390.5 Q675 416 624.5 439.5 Q574 463 495 487 Q410 513 343 541 Q276 569 230 605.5 Q184 642 160 689.5 Q136 737 136 801 Q136 863 162 918 Q188 973 236.5 1014 Q285 1055 354.5 1078.5 Q424 1102 510 1102 Q602 1102 674.5 1077 Q747 1052 797.5 1008.5 Q848 965 874.5 905 Q901 845 901 776 L749 776 Q749 814 733.5 849.5 Q718 885 687.5 913 Q657 941 612.5 958 Q568 975 510 975 Q451 975 408.5 960.5 Q366 946 339 922 Q312 898 299.5 868 Q287 838 287 806 Q287 774 297.5 749 Q308 724 336.5 702 Q365 680 415.5 659 Q466 638 545 613 Q636 585 704 555 Q772 525 817 487 Q862 449 884.5 400.5 Q907 352 907 287 Q907 218 879 161 Q851 104 800 64 Q749 24 677 2 Q605 -20 516 -20 Q415 -20 338 7.5 Q261 35 208.5 81.5 Q156 128 129 188.5 Q102 249 102 314 L252 314 Z " />
<g transform="translate(316,-1)" >
<path fill="black" d="M323 1536 L507 1536 L259 1249 L128 1249 L323 1536 Z " />
</g>
</glyph>
<glyph glyph-name="Scedilla" unicode="&#x15e;" horiz-adv-x="1185" d="M521 -346 Q554 -346 585 -340 Q616 -334 639.5 -320.5 Q663 -307 677.5 -286 Q692 -265 692 -236 Q692 -209 682.5 -191 Q673 -173 653.5 -162 Q634 -151 604 -144.5 Q574 -138 533 -134 L558 -17 Q470 -10 386 20.5 Q302 51 237 105 Q172 159 132 237.5 Q92 316 92 419 L250 419 Q250 336 281.5 277.5 Q313 219 365 182 Q417 145 482.5 128 Q548 111 617 111 Q692 111 752 129 Q812 147 854 180 Q896 213 918 259.5 Q940 306 940 363 Q940 419 923.5 462 Q907 505 867 540.5 Q827 576 759 606.5 Q691 637 589 668 Q486 699 402.5 737 Q319 775 259.5 825 Q200 875 167.5 940 Q135 1005 135 1090 Q135 1174 169.5 1245 Q204 1316 267 1367.5 Q330 1419 417 1447.5 Q504 1476 609 1476 Q721 1476 810.5 1441 Q900 1406 962.5 1346 Q1025 1286 1058.5 1206.5 Q1092 1127 1092 1039 L935 1039 Q935 1105 913.5 1161 Q892 1217 851 1258 Q810 1299 749 1322 Q688 1345 608 1345 Q530 1345 471 1325.5 Q412 1306 372.5 1272 Q333 1238 313 1192 Q293 1146 293 1093 Q293 1044 311.5 1003 Q330 962 371.5 927.5 Q413 893 479 863 Q545 833 640 806 Q753 773 838.5 732 Q924 691 981.5 638.5 Q1039 586 1068.5 519 Q1098 452 1098 365 Q1098 282 1067 214.5 Q1036 147 980 97.5 Q924 48 845.5 18.5 Q767 -11 672 -18 L664 -62 Q693 -67 720 -77.5 Q747 -88 768.5 -108.5 Q790 -129 803 -159.5 Q816 -190 816 -234 Q816 -280 797 -317.5 Q778 -355 741.5 -382 Q705 -409 651 -423.5 Q597 -438 527 -438 L521 -346 Z " />
<glyph glyph-name="scedilla" unicode="&#x15f;" horiz-adv-x="1020" d="M437 -352 Q470 -352 501 -346 Q532 -340 555.5 -326.5 Q579 -313 593.5 -292 Q608 -271 608 -242 Q608 -215 598.5 -197 Q589 -179 569.5 -168 Q550 -157 520 -150.5 Q490 -144 449 -140 L475 -19 Q384 -13 314.5 16.5 Q245 46 197.5 91.5 Q150 137 126 194.5 Q102 252 102 314 L252 314 Q255 254 280 214 Q305 174 342.5 150 Q380 126 426 116.5 Q472 107 517 107 Q576 107 620.5 120 Q665 133 695 156 Q725 179 740.5 209.5 Q756 240 756 276 Q756 308 745 336.5 Q734 365 704.5 390.5 Q675 416 624.5 439.5 Q574 463 495 487 Q410 513 343 541 Q276 569 230 605.5 Q184 642 160 689.5 Q136 737 136 801 Q136 863 162 918 Q188 973 236.5 1014 Q285 1055 354.5 1078.5 Q424 1102 510 1102 Q602 1102 674.5 1077 Q747 1052 797.5 1008.5 Q848 965 874.5 905 Q901 845 901 776 L749 776 Q749 814 733.5 849.5 Q718 885 687.5 913 Q657 941 612.5 958 Q568 975 510 975 Q451 975 408.5 960.5 Q366 946 339 922 Q312 898 299.5 868 Q287 838 287 806 Q287 774 297.5 749 Q308 724 336.5 702 Q365 680 415.5 659 Q466 638 545 613 Q636 585 704 555 Q772 525 817 487 Q862 449 884.5 400.5 Q907 352 907 287 Q907 225 885 173 Q863 121 821.5 82 Q780 43 721.5 18 Q663 -7 590 -16 L580 -68 Q609 -73 636 -83.5 Q663 -94 684.5 -114.5 Q706 -135 719 -165.5 Q732 -196 732 -240 Q732 -286 713 -323.5 Q694 -361 657.5 -388 Q621 -415 567 -429.5 Q513 -444 443 -444 L437 -352 Z " />
<glyph glyph-name="Scaron" unicode="&#x160;" horiz-adv-x="1185" >
<path fill="black" d="M250 419 Q250 336 281.5 277.5 Q313 219 365 182 Q417 145 482.5 128 Q548 111 617 111 Q692 111 752 129 Q812 147 854 180 Q896 213 918 259.5 Q940 306 940 363 Q940 419 923.5 462 Q907 505 867 540.5 Q827 576 759 606.5 Q691 637 589 668 Q486 699 402.5 737 Q319 775 259.5 825 Q200 875 167.5 940 Q135 1005 135 1090 Q135 1174 169.5 1245 Q204 1316 267 1367.5 Q330 1419 417 1447.5 Q504 1476 609 1476 Q721 1476 810.5 1441 Q900 1406 962.5 1346 Q1025 1286 1058.5 1206.5 Q1092 1127 1092 1039 L935 1039 Q935 1105 913.5 1161 Q892 1217 851 1258 Q810 1299 749 1322 Q688 1345 608 1345 Q530 1345 471 1325.5 Q412 1306 372.5 1272 Q333 1238 313 1192 Q293 1146 293 1093 Q293 1044 311.5 1003 Q330 962 371.5 927.5 Q413 893 479 863 Q545 833 640 806 Q753 773 838.5 732 Q924 691 981.5 638.5 Q1039 586 1068.5 519 Q1098 452 1098 365 Q1098 276 1063 205 Q1028 134 964 84 Q900 34 812 7 Q724 -20 617 -20 Q522 -20 428 6.5 Q334 33 259.5 87.5 Q185 142 138.5 224.5 Q92 307 92 419 L250 419 Z " />
<g transform="translate(180,321)" >
<path fill="black" d="M142 1517 L142 1528 L274 1528 L429 1346 L584 1528 L717 1528 L717 1517 L479 1249 L378 1249 L142 1517 Z " />
</g>
</glyph>
<glyph glyph-name="scaron" unicode="&#x161;" horiz-adv-x="1020" >
<path fill="black" d="M252 314 Q255 254 280 214 Q305 174 342.5 150 Q380 126 426 116.5 Q472 107 517 107 Q576 107 620.5 120 Q665 133 695 156 Q725 179 740.5 209.5 Q756 240 756 276 Q756 308 745 336.5 Q734 365 704.5 390.5 Q675 416 624.5 439.5 Q574 463 495 487 Q410 513 343 541 Q276 569 230 605.5 Q184 642 160 689.5 Q136 737 136 801 Q136 863 162 918 Q188 973 236.5 1014 Q285 1055 354.5 1078.5 Q424 1102 510 1102 Q602 1102 674.5 1077 Q747 1052 797.5 1008.5 Q848 965 874.5 905 Q901 845 901 776 L749 776 Q749 814 733.5 849.5 Q718 885 687.5 913 Q657 941 612.5 958 Q568 975 510 975 Q451 975 408.5 960.5 Q366 946 339 922 Q312 898 299.5 868 Q287 838 287 806 Q287 774 297.5 749 Q308 724 336.5 702 Q365 680 415.5 659 Q466 638 545 613 Q636 585 704 555 Q772 525 817 487 Q862 449 884.5 400.5 Q907 352 907 287 Q907 218 879 161 Q851 104 800 64 Q749 24 677 2 Q605 -20 516 -20 Q415 -20 338 7.5 Q261 35 208.5 81.5 Q156 128 129 188.5 Q102 249 102 314 L252 314 Z " />
<g transform="translate(100,0)" >
<path fill="black" d="M142 1517 L142 1528 L274 1528 L429 1346 L584 1528 L717 1528 L717 1517 L479 1249 L378 1249 L142 1517 Z " />
</g>
</glyph>
<glyph glyph-name="uni0162" unicode="&#x162;" horiz-adv-x="1194" d="M505 -343 Q538 -343 569 -337 Q600 -331 623.5 -317.5 Q647 -304 661.5 -283 Q676 -262 676 -233 Q676 -206 666.5 -188 Q657 -170 637.5 -159 Q618 -148 588 -141.5 Q558 -135 517 -131 L545 0 L519 0 L519 1325 L59 1325 L59 1456 L1135 1456 L1135 1325 L675 1325 L675 0 L659 0 L648 -59 Q677 -64 704 -74.5 Q731 -85 752.5 -105.5 Q774 -126 787 -156.5 Q800 -187 800 -231 Q800 -277 781 -314.5 Q762 -352 725.5 -379 Q689 -406 635 -420.5 Q581 -435 511 -435 L505 -343 Z " />
<glyph glyph-name="uni0163" unicode="&#x163;" horiz-adv-x="659" d="M337 -343 Q370 -343 401 -337 Q432 -331 455.5 -317.5 Q479 -304 493.5 -283 Q508 -262 508 -233 Q508 -206 498.5 -188 Q489 -170 469.5 -159 Q450 -148 420 -141.5 Q390 -135 349 -131 L375 -11 Q339 -2 309 18 Q279 38 257.5 71.5 Q236 105 224.5 153 Q213 201 213 267 L213 962 L29 962 L29 1082 L213 1082 L213 1352 L366 1352 L366 1082 L568 1082 L568 962 L366 962 L366 266 Q366 217 376 186.5 Q386 156 403 139.5 Q420 123 442.5 117.5 Q465 112 490 112 Q515 112 538 116 Q561 120 578 123 L582 -2 Q565 -7 541 -12 Q517 -17 488 -19 L480 -59 Q509 -64 536 -74.5 Q563 -85 584.5 -105.5 Q606 -126 619 -156.5 Q632 -187 632 -231 Q632 -277 613 -314.5 Q594 -352 557.5 -379 Q521 -406 467 -420.5 Q413 -435 343 -435 L337 -343 Z " />
<glyph glyph-name="Tcaron" unicode="&#x164;" horiz-adv-x="1194" d="M519 1325 L59 1325 L59 1456 L1135 1456 L1135 1325 L675 1325 L675 0 L519 0 L519 1325 Z M544 1560 L308 1828 L308 1839 L440 1839 L595 1657 L750 1839 L883 1839 L883 1828 L645 1560 L544 1560 Z " />
<glyph glyph-name="tcaron" unicode="&#x165;" horiz-adv-x="672" >
<path fill="black" d="M213 962 L29 962 L29 1082 L213 1082 L213 1352 L366 1352 L366 1082 L568 1082 L568 962 L366 962 L366 266 Q366 217 376 186.5 Q386 156 403 139.5 Q420 123 442.5 117.5 Q465 112 490 112 Q515 112 538 116 Q561 120 578 123 L582 -2 Q559 -9 524.5 -14.5 Q490 -20 450 -20 Q399 -20 355.5 -5.5 Q312 9 280.5 42.5 Q249 76 231 131 Q213 186 213 267 L213 962 Z " />
<g transform="translate(366,1422)" >
<path fill="black" d="M-646 -472 Q-611 -417 -593.5 -361 Q-576 -305 -576 -236 L-576 -154 L-438 -154 L-438 -233 Q-438 -273 -446 -314.5 Q-454 -356 -470 -395.5 Q-486 -435 -508.5 -471 Q-531 -507 -561 -535 L-646 -472 Z " />
</g>
</glyph>
<glyph glyph-name="Tbar" unicode="&#x166;" horiz-adv-x="1194" d="M519 828 L294 828 L294 955 L519 955 L519 1325 L59 1325 L59 1456 L1135 1456 L1135 1325 L675 1325 L675 955 L895 955 L895 828 L675 828 L675 0 L519 0 L519 828 Z " />
<glyph glyph-name="tbar" unicode="&#x167;" horiz-adv-x="659" d="M213 610 L14 610 L14 737 L213 737 L213 962 L29 962 L29 1082 L213 1082 L213 1352 L366 1352 L366 1082 L568 1082 L568 962 L366 962 L366 737 L615 737 L615 610 L366 610 L366 266 Q366 217 376 186.5 Q386 156 403 139.5 Q420 123 442.5 117.5 Q465 112 490 112 Q515 112 538 116 Q561 120 578 123 L582 -2 Q559 -9 524.5 -14.5 Q490 -20 450 -20 Q399 -20 355.5 -5.5 Q312 9 280.5 42.5 Q249 76 231 131 Q213 186 213 267 L213 610 Z " />
<glyph glyph-name="Utilde" unicode="&#x168;" horiz-adv-x="1302" >
<path fill="black" d="M155 1456 L312 1456 L312 451 Q312 360 337 295.5 Q362 231 407 190 Q452 149 514.5 129.5 Q577 110 652 110 Q728 110 790.5 129.5 Q853 149 898 190 Q943 231 967.5 295.5 Q992 360 992 451 L992 1456 L1150 1456 L1150 451 Q1150 328 1110.5 239 Q1071 150 1003.5 92.5 Q936 35 845.5 7.5 Q755 -20 652 -20 Q546 -20 455.5 7.5 Q365 35 298 92.5 Q231 150 193 239 Q155 328 155 451 L155 1456 Z " />
<g transform="translate(209,320)" >
<path fill="black" d="M120 1258 Q120 1309 135 1351 Q150 1393 176 1423.5 Q202 1454 237.5 1470.5 Q273 1487 315 1487 Q358 1487 389.5 1471 Q421 1455 450 1436 Q479 1417 508.5 1401 Q538 1385 577 1385 Q618 1385 647 1417.5 Q676 1450 676 1502 L780 1493 Q780 1442 765 1400 Q750 1358 723.5 1328 Q697 1298 661 1281.5 Q625 1265 584 1265 Q535 1265 503.5 1281 Q472 1297 445 1316.5 Q418 1336 390.5 1352 Q363 1368 323 1368 Q281 1368 252.5 1336.5 Q224 1305 224 1253 L120 1258 Z " />
</g>
</glyph>
<glyph glyph-name="utilde" unicode="&#x169;" horiz-adv-x="1100" >
<path fill="black" d="M147 1082 L299 1082 L299 385 Q299 305 316 252.5 Q333 200 362.5 168.5 Q392 137 430.5 124 Q469 111 512 111 Q572 111 618.5 124.5 Q665 138 699.5 162 Q734 186 758 220 Q782 254 797 295 L797 1082 L950 1082 L950 0 L804 0 L801 125 Q752 56 675 18 Q598 -20 486 -20 Q410 -20 347.5 2.5 Q285 25 240.5 74 Q196 123 171.5 200.5 Q147 278 147 387 L147 1082 Z " />
<g transform="translate(110,7)" >
<path fill="black" d="M120 1258 Q120 1309 135 1351 Q150 1393 176 1423.5 Q202 1454 237.5 1470.5 Q273 1487 315 1487 Q358 1487 389.5 1471 Q421 1455 450 1436 Q479 1417 508.5 1401 Q538 1385 577 1385 Q618 1385 647 1417.5 Q676 1450 676 1502 L780 1493 Q780 1442 765 1400 Q750 1358 723.5 1328 Q697 1298 661 1281.5 Q625 1265 584 1265 Q535 1265 503.5 1281 Q472 1297 445 1316.5 Q418 1336 390.5 1352 Q363 1368 323 1368 Q281 1368 252.5 1336.5 Q224 1305 224 1253 L120 1258 Z " />
</g>
</glyph>
<glyph glyph-name="Umacron" unicode="&#x16a;" horiz-adv-x="1302" >
<path fill="black" d="M155 1456 L312 1456 L312 451 Q312 360 337 295.5 Q362 231 407 190 Q452 149 514.5 129.5 Q577 110 652 110 Q728 110 790.5 129.5 Q853 149 898 190 Q943 231 967.5 295.5 Q992 360 992 451 L992 1456 L1150 1456 L1150 451 Q1150 328 1110.5 239 Q1071 150 1003.5 92.5 Q936 35 845.5 7.5 Q755 -20 652 -20 Q546 -20 455.5 7.5 Q365 35 298 92.5 Q231 150 193 239 Q155 328 155 451 L155 1456 Z " />
<g transform="translate(205,322)" >
<path fill="black" d="M148 1323 L148 1443 L760 1443 L760 1323 L148 1323 Z " />
</g>
</glyph>
<glyph glyph-name="umacron" unicode="&#x16b;" horiz-adv-x="1100" d="M147 1082 L299 1082 L299 385 Q299 305 316 252.5 Q333 200 362.5 168.5 Q392 137 430.5 124 Q469 111 512 111 Q572 111 618.5 124.5 Q665 138 699.5 162 Q734 186 758 220 Q782 254 797 295 L797 1082 L950 1082 L950 0 L804 0 L801 125 Q752 56 675 18 Q598 -20 486 -20 Q410 -20 347.5 2.5 Q285 25 240.5 74 Q196 123 171.5 200.5 Q147 278 147 387 L147 1082 Z M254 1452 L866 1452 L866 1332 L254 1332 L254 1452 Z " />
<glyph glyph-name="Uring" unicode="&#x16e;" horiz-adv-x="1302" >
<path fill="black" d="M155 1456 L312 1456 L312 451 Q312 360 337 295.5 Q362 231 407 190 Q452 149 514.5 129.5 Q577 110 652 110 Q728 110 790.5 129.5 Q853 149 898 190 Q943 231 967.5 295.5 Q992 360 992 451 L992 1456 L1150 1456 L1150 451 Q1150 328 1110.5 239 Q1071 150 1003.5 92.5 Q936 35 845.5 7.5 Q755 -20 652 -20 Q546 -20 455.5 7.5 Q365 35 298 92.5 Q231 150 193 239 Q155 328 155 451 L155 1456 Z " />
<g transform="translate(328,321)" >
<path fill="black" d="M126 1402 Q126 1444 141.5 1480 Q157 1516 184 1543 Q211 1570 248.5 1585.5 Q286 1601 329 1601 Q372 1601 409 1585.5 Q446 1570 473.5 1543 Q501 1516 516.5 1480 Q532 1444 532 1402 Q532 1360 516.5 1324.5 Q501 1289 473.5 1262.5 Q446 1236 409 1221.5 Q372 1207 329 1207 Q286 1207 248.5 1221.5 Q211 1236 184 1262.5 Q157 1289 141.5 1324.5 Q126 1360 126 1402 Z M213 1402 Q213 1379 221.5 1358 Q230 1337 245 1321.5 Q260 1306 281.5 1296.5 Q303 1287 329 1287 Q355 1287 376.5 1296 Q398 1305 413 1321 Q428 1337 436.5 1357.5 Q445 1378 445 1402 Q445 1426 436.5 1448 Q428 1470 413 1486 Q398 1502 376.5 1511.5 Q355 1521 329 1521 Q303 1521 281.5 1511.5 Q260 1502 245 1486 Q230 1470 221.5 1448 Q213 1426 213 1402 Z " />
</g>
</glyph>
<glyph glyph-name="uring" unicode="&#x16f;" horiz-adv-x="1100" >
<path fill="black" d="M147 1082 L299 1082 L299 385 Q299 305 316 252.5 Q333 200 362.5 168.5 Q392 137 430.5 124 Q469 111 512 111 Q572 111 618.5 124.5 Q665 138 699.5 162 Q734 186 758 220 Q782 254 797 295 L797 1082 L950 1082 L950 0 L804 0 L801 125 Q752 56 675 18 Q598 -20 486 -20 Q410 -20 347.5 2.5 Q285 25 240.5 74 Q196 123 171.5 200.5 Q147 278 147 387 L147 1082 Z " />
<g transform="translate(229,8)" >
<path fill="black" d="M126 1402 Q126 1444 141.5 1480 Q157 1516 184 1543 Q211 1570 248.5 1585.5 Q286 1601 329 1601 Q372 1601 409 1585.5 Q446 1570 473.5 1543 Q501 1516 516.5 1480 Q532 1444 532 1402 Q532 1360 516.5 1324.5 Q501 1289 473.5 1262.5 Q446 1236 409 1221.5 Q372 1207 329 1207 Q286 1207 248.5 1221.5 Q211 1236 184 1262.5 Q157 1289 141.5 1324.5 Q126 1360 126 1402 Z M213 1402 Q213 1379 221.5 1358 Q230 1337 245 1321.5 Q260 1306 281.5 1296.5 Q303 1287 329 1287 Q355 1287 376.5 1296 Q398 1305 413 1321 Q428 1337 436.5 1357.5 Q445 1378 445 1402 Q445 1426 436.5 1448 Q428 1470 413 1486 Q398 1502 376.5 1511.5 Q355 1521 329 1521 Q303 1521 281.5 1511.5 Q260 1502 245 1486 Q230 1470 221.5 1448 Q213 1426 213 1402 Z " />
</g>
</glyph>
<glyph glyph-name="Uhungarumlaut" unicode="&#x170;" horiz-adv-x="1302" d="M155 1456 L312 1456 L312 451 Q312 360 337 295.5 Q362 231 407 190 Q452 149 514.5 129.5 Q577 110 652 110 Q728 110 790.5 129.5 Q853 149 898 190 Q943 231 967.5 295.5 Q992 360 992 451 L992 1456 L1150 1456 L1150 451 Q1150 328 1110.5 239 Q1071 150 1003.5 92.5 Q936 35 845.5 7.5 Q755 -20 652 -20 Q546 -20 455.5 7.5 Q365 35 298 92.5 Q231 150 193 239 Q155 328 155 451 L155 1456 Z M927 1848 L1094 1848 L834 1545 L694 1545 L927 1848 Z M614 1848 L775 1848 L559 1545 L432 1545 L614 1848 Z " />
<glyph glyph-name="uhungarumlaut" unicode="&#x171;" horiz-adv-x="1100" d="M147 1082 L299 1082 L299 385 Q299 305 316 252.5 Q333 200 362.5 168.5 Q392 137 430.5 124 Q469 111 512 111 Q572 111 618.5 124.5 Q665 138 699.5 162 Q734 186 758 220 Q782 254 797 295 L797 1082 L950 1082 L950 0 L804 0 L801 125 Q752 56 675 18 Q598 -20 486 -20 Q410 -20 347.5 2.5 Q285 25 240.5 74 Q196 123 171.5 200.5 Q147 278 147 387 L147 1082 Z M595 1232 L828 1535 L995 1535 L735 1232 L595 1232 Z M515 1535 L676 1535 L460 1232 L333 1232 L515 1535 Z " />
<glyph glyph-name="Uogonek" unicode="&#x172;" horiz-adv-x="1302" d="M937 -339 Q915 -354 881 -368.5 Q847 -383 793 -383 Q756 -383 724 -371.5 Q692 -360 669 -337.5 Q646 -315 632.5 -281.5 Q619 -248 619 -203 Q619 -107 702 -18 Q689 -19 677 -19.5 Q665 -20 652 -20 Q546 -20 455.5 7.5 Q365 35 298 92.5 Q231 150 193 239 Q155 328 155 451 L155 1456 L312 1456 L312 451 Q312 360 337 295.5 Q362 231 407 190 Q452 149 514.5 129.5 Q577 110 652 110 Q728 110 790.5 129.5 Q853 149 898 190 Q943 231 967.5 295.5 Q992 360 992 451 L992 1456 L1150 1456 L1150 451 Q1150 368 1131.5 300.5 Q1113 233 1079.5 180 Q1046 127 999.5 89 Q953 51 896 26 Q866 2 839.5 -22.5 Q813 -47 793 -73.5 Q773 -100 761 -128 Q749 -156 749 -187 Q749 -222 765.5 -244 Q782 -266 826 -266 Q859 -266 883 -255.5 Q907 -245 921 -236 L937 -339 Z " />
<glyph glyph-name="uogonek" unicode="&#x173;" horiz-adv-x="1100" d="M801 125 Q752 56 675 18 Q598 -20 486 -20 Q410 -20 347.5 2.5 Q285 25 240.5 74 Q196 123 171.5 200.5 Q147 278 147 387 L147 1082 L299 1082 L299 385 Q299 305 316 252.5 Q333 200 362.5 168.5 Q392 137 430.5 124 Q469 111 512 111 Q572 111 618.5 124.5 Q665 138 699.5 162 Q734 186 758 220 Q782 254 797 295 L797 1082 L950 1082 L950 0 L940 0 Q907 -25 877 -51.5 Q847 -78 824 -106 Q801 -134 787.5 -164.5 Q774 -195 774 -228 Q774 -263 790.5 -285 Q807 -307 851 -307 Q884 -307 908 -296.5 Q932 -286 946 -277 L962 -380 Q940 -395 906 -409.5 Q872 -424 818 -424 Q781 -424 749 -412.5 Q717 -401 694 -378.5 Q671 -356 657.5 -322.5 Q644 -289 644 -244 Q644 -178 684 -114 Q724 -50 804 7 L801 125 Z " />
<glyph glyph-name="Wcircumflex" unicode="&#x174;" horiz-adv-x="1762" >
<path fill="black" d="M67 1456 L226 1456 L463 372 L492 200 L528 358 L815 1456 L963 1456 L1245 358 L1281 197 L1312 373 L1546 1456 L1705 1456 L1365 0 L1209 0 L913 1120 L889 1238 L865 1120 L564 0 L408 0 L67 1456 Z " />
<g transform="translate(445,313)" >
<path fill="black" d="M163 1268 L399 1531 L492 1531 L730 1266 L730 1256 L599 1256 L445 1432 L292 1256 L163 1256 L163 1268 Z " />
</g>
</glyph>
<glyph glyph-name="wcircumflex" unicode="&#x175;" horiz-adv-x="1489" >
<path fill="black" d="M63 1082 L216 1082 L428 216 L429 212 L431 224 L680 1082 L803 1082 L1049 235 L1057 195 L1062 221 L1267 1082 L1420 1082 L1126 0 L998 0 L739 872 L484 0 L357 0 L63 1082 Z " />
<g transform="translate(294,0)" >
<path fill="black" d="M163 1268 L399 1531 L492 1531 L730 1266 L730 1256 L599 1256 L445 1432 L292 1256 L163 1256 L163 1268 Z " />
</g>
</glyph>
<glyph glyph-name="Ycircumflex" unicode="&#x176;" horiz-adv-x="1198" >
<path fill="black" d="M518 546 L30 1456 L211 1456 L598 693 L986 1456 L1165 1456 L676 546 L676 0 L518 0 L518 546 Z " />
<g transform="translate(155,309)" >
<path fill="black" d="M163 1268 L399 1531 L492 1531 L730 1266 L730 1256 L599 1256 L445 1432 L292 1256 L163 1256 L163 1268 Z " />
</g>
</glyph>
<glyph glyph-name="ycircumflex" unicode="&#x177;" horiz-adv-x="956" >
<path fill="black" d="M100 -298 Q110 -300 128 -301.5 Q146 -303 154 -303 Q199 -303 232.5 -292 Q266 -281 291.5 -258.5 Q317 -236 336.5 -201 Q356 -166 374 -118 L418 5 L37 1082 L202 1082 L491 223 L758 1082 L921 1082 L494 -171 Q481 -209 459.5 -255.5 Q438 -302 403.5 -342.5 Q369 -383 318.5 -410 Q268 -437 196 -437 Q173 -437 144.5 -432 Q116 -427 100 -422 L100 -298 Z " />
<g transform="translate(55,0)" >
<path fill="black" d="M163 1268 L399 1531 L492 1531 L730 1266 L730 1256 L599 1256 L445 1432 L292 1256 L163 1256 L163 1268 Z " />
</g>
</glyph>
<glyph glyph-name="Ydieresis" unicode="&#x178;" horiz-adv-x="1198" >
<path fill="black" d="M518 546 L30 1456 L211 1456 L598 693 L986 1456 L1165 1456 L676 546 L676 0 L518 0 L518 546 Z " />
<g transform="translate(126,318)" >
<path fill="black" d="M148 1375 Q148 1414 173.5 1441 Q199 1468 244 1468 Q289 1468 314 1441 Q339 1414 339 1375 Q339 1336 314 1309.5 Q289 1283 244 1283 Q199 1283 173.5 1309.5 Q148 1336 148 1375 Z " />
</g>
<g transform="translate(576,317)" >
<path fill="black" d="M148 1375 Q148 1414 173.5 1441 Q199 1468 244 1468 Q289 1468 314 1441 Q339 1414 339 1375 Q339 1336 314 1309.5 Q289 1283 244 1283 Q199 1283 173.5 1309.5 Q148 1336 148 1375 Z " />
</g>
</glyph>
<glyph glyph-name="Zacute" unicode="&#x179;" horiz-adv-x="1193" >
<path fill="black" d="M95 119 L887 1325 L114 1325 L114 1456 L1074 1456 L1074 1342 L282 131 L1103 131 L1103 0 L95 0 L95 119 Z " />
<g transform="translate(384,313)" >
<path fill="black" d="M323 1536 L507 1536 L259 1249 L128 1249 L323 1536 Z " />
</g>
</glyph>
<glyph glyph-name="zacute" unicode="&#x17a;" horiz-adv-x="984" >
<path fill="black" d="M94 112 L694 954 L110 954 L110 1082 L877 1082 L877 972 L275 127 L912 127 L912 0 L94 0 L94 112 Z " />
<g transform="translate(287,0)" >
<path fill="black" d="M323 1536 L507 1536 L259 1249 L128 1249 L323 1536 Z " />
</g>
</glyph>
<glyph glyph-name="Zdotaccent" unicode="&#x17b;" horiz-adv-x="1193" >
<path fill="black" d="M95 119 L887 1325 L114 1325 L114 1456 L1074 1456 L1074 1342 L282 131 L1103 131 L1103 0 L95 0 L95 119 Z " />
<g transform="translate(351,313)" >
<path fill="black" d="M148 1375 Q148 1414 173.5 1441 Q199 1468 244 1468 Q289 1468 314 1441 Q339 1414 339 1375 Q339 1336 314 1309.5 Q289 1283 244 1283 Q199 1283 173.5 1309.5 Q148 1336 148 1375 Z " />
</g>
</glyph>
<glyph glyph-name="zdotaccent" unicode="&#x17c;" horiz-adv-x="984" >
<path fill="black" d="M94 112 L694 954 L110 954 L110 1082 L877 1082 L877 972 L275 127 L912 127 L912 0 L94 0 L94 112 Z " />
<g transform="translate(254,0)" >
<path fill="black" d="M148 1375 Q148 1414 173.5 1441 Q199 1468 244 1468 Q289 1468 314 1441 Q339 1414 339 1375 Q339 1336 314 1309.5 Q289 1283 244 1283 Q199 1283 173.5 1309.5 Q148 1336 148 1375 Z " />
</g>
</glyph>
<glyph glyph-name="Zcaron" unicode="&#x17d;" horiz-adv-x="1193" d="M95 119 L887 1325 L114 1325 L114 1456 L1074 1456 L1074 1342 L282 131 L1103 131 L1103 0 L95 0 L95 119 Z M546 1563 L310 1831 L310 1842 L442 1842 L597 1660 L752 1842 L885 1842 L885 1831 L647 1563 L546 1563 Z " />
<glyph glyph-name="zcaron" unicode="&#x17e;" horiz-adv-x="984" d="M94 112 L694 954 L110 954 L110 1082 L877 1082 L877 972 L275 127 L912 127 L912 0 L94 0 L94 112 Z M449 1250 L213 1518 L213 1529 L345 1529 L500 1347 L655 1529 L788 1529 L788 1518 L550 1250 L449 1250 Z " />
<glyph glyph-name="florin" unicode="&#x192;" horiz-adv-x="679" d="M-20 -296 Q-13 -299 -1 -301.5 Q11 -304 24.5 -306 Q38 -308 50.5 -309 Q63 -310 72 -310 Q147 -310 187 -252.5 Q227 -195 227 -89 L227 962 L60 962 L60 1082 L227 1082 L227 1207 Q227 1377 310 1467 Q393 1557 540 1557 Q574 1557 607 1551.5 Q640 1546 674 1537 L657 1415 Q636 1420 612.5 1423.5 Q589 1427 557 1427 Q469 1427 424 1370 Q379 1313 379 1207 L379 1082 L596 1082 L596 962 L378 962 L378 -89 Q378 -259 299 -348 Q220 -437 77 -437 Q47 -437 21 -433 Q-5 -429 -34 -419 L-20 -296 Z " />
<glyph glyph-name="Ohorn" unicode="&#x1a0;" horiz-adv-x="1339" d="M143 830 Q143 983 182.5 1103.5 Q222 1224 294 1306.5 Q366 1389 467 1432.5 Q568 1476 691 1476 Q819 1476 921 1431.5 Q1023 1387 1095 1302 Q1146 1307 1180 1328 Q1214 1349 1234.5 1384 Q1255 1419 1263.5 1468 Q1272 1517 1272 1578 L1404 1578 Q1404 1419 1346.5 1321.5 Q1289 1224 1164 1196 Q1201 1122 1220.5 1030.5 Q1240 939 1240 830 L1240 626 Q1240 472 1201.5 352 Q1163 232 1092 149.5 Q1021 67 919.5 23.5 Q818 -20 693 -20 Q570 -20 468.5 23.5 Q367 67 295 149.5 Q223 232 183 352 Q143 472 143 626 L143 830 Z M300 626 Q300 500 327 404.5 Q354 309 405 244.5 Q456 180 529 147.5 Q602 115 693 115 Q882 115 982.5 244 Q1083 373 1083 626 L1083 832 Q1083 1081 980.5 1210.5 Q878 1340 691 1340 Q600 1340 527.5 1307.5 Q455 1275 404.5 1210.5 Q354 1146 327 1051.5 Q300 957 300 832 L300 626 Z " />
<glyph glyph-name="ohorn" unicode="&#x1a1;" horiz-adv-x="1094" d="M103 575 Q103 695 136 792.5 Q169 890 229 959 Q289 1028 374 1065 Q459 1102 564 1102 Q669 1102 753.5 1066 Q838 1030 898 963 Q940 970 966 989.5 Q992 1009 1006.5 1039.5 Q1021 1070 1026 1110.5 Q1031 1151 1031 1200 L1150 1200 Q1150 1070 1107.5 985.5 Q1065 901 961 873 Q1028 748 1028 575 L1028 507 Q1028 387 995.5 289.5 Q963 192 902.5 123 Q842 54 757 17 Q672 -20 567 -20 Q461 -20 375.5 17 Q290 54 229.5 123 Q169 192 136 289.5 Q103 387 103 507 L103 575 Z M256 507 Q256 420 276 346.5 Q296 273 335.5 219.5 Q375 166 433 136.5 Q491 107 567 107 Q643 107 701 136.5 Q759 166 798 219.5 Q837 273 856.5 346.5 Q876 420 876 507 L876 575 Q876 661 856 734 Q836 807 796.5 860.5 Q757 914 698.5 944.5 Q640 975 564 975 Q489 975 431.5 944.5 Q374 914 335 860.5 Q296 807 276 734 Q256 661 256 575 L256 507 Z " />
<glyph glyph-name="Uhorn" unicode="&#x1af;" horiz-adv-x="1327" d="M159 1456 L316 1456 L316 451 Q316 360 341 295.5 Q366 231 411 190 Q456 149 518.5 129.5 Q581 110 656 110 Q732 110 794.5 129.5 Q857 149 902 190 Q947 231 971.5 295.5 Q996 360 996 451 L996 1456 L1154 1456 L1154 1245 Q1215 1250 1254 1272 Q1293 1294 1316 1331.5 Q1339 1369 1348 1422 Q1357 1475 1357 1542 L1482 1542 Q1482 1446 1464.5 1371.5 Q1447 1297 1408 1245.5 Q1369 1194 1306.5 1165 Q1244 1136 1154 1130 L1154 451 Q1154 328 1114.5 239 Q1075 150 1007.5 92.5 Q940 35 849.5 7.5 Q759 -20 656 -20 Q550 -20 459.5 7.5 Q369 35 302 92.5 Q235 150 197 239 Q159 328 159 451 L159 1456 Z " />
<glyph glyph-name="uhorn" unicode="&#x1b0;" horiz-adv-x="1177" d="M151 1082 L303 1082 L303 385 Q303 305 320 252.5 Q337 200 366.5 168.5 Q396 137 434.5 124 Q473 111 516 111 Q576 111 622.5 124.5 Q669 138 703.5 162 Q738 186 762 220 Q786 254 801 295 L801 1082 L954 1082 L954 951 Q1006 955 1036 970.5 Q1066 986 1081.5 1014 Q1097 1042 1101.5 1082 Q1106 1122 1106 1174 L1221 1174 Q1221 1099 1208 1041 Q1195 983 1164.5 943 Q1134 903 1082.5 880.5 Q1031 858 954 853 L954 0 L808 0 L805 125 Q756 56 679 18 Q602 -20 490 -20 Q414 -20 351.5 2.5 Q289 25 244.5 74 Q200 123 175.5 200.5 Q151 278 151 387 L151 1082 Z " />
<glyph glyph-name="uni0218" unicode="&#x218;" horiz-adv-x="1138" >
<path fill="black" d="M250 419 Q250 336 281.5 277.5 Q313 219 365 182 Q417 145 482.5 128 Q548 111 617 111 Q692 111 752 129 Q812 147 854 180 Q896 213 918 259.5 Q940 306 940 363 Q940 419 923.5 462 Q907 505 867 540.5 Q827 576 759 606.5 Q691 637 589 668 Q486 699 402.5 737 Q319 775 259.5 825 Q200 875 167.5 940 Q135 1005 135 1090 Q135 1174 169.5 1245 Q204 1316 267 1367.5 Q330 1419 417 1447.5 Q504 1476 609 1476 Q721 1476 810.5 1441 Q900 1406 962.5 1346 Q1025 1286 1058.5 1206.5 Q1092 1127 1092 1039 L935 1039 Q935 1105 913.5 1161 Q892 1217 851 1258 Q810 1299 749 1322 Q688 1345 608 1345 Q530 1345 471 1325.5 Q412 1306 372.5 1272 Q333 1238 313 1192 Q293 1146 293 1093 Q293 1044 311.5 1003 Q330 962 371.5 927.5 Q413 893 479 863 Q545 833 640 806 Q753 773 838.5 732 Q924 691 981.5 638.5 Q1039 586 1068.5 519 Q1098 452 1098 365 Q1098 276 1063 205 Q1028 134 964 84 Q900 34 812 7 Q724 -20 617 -20 Q522 -20 428 6.5 Q334 33 259.5 87.5 Q185 142 138.5 224.5 Q92 307 92 419 L250 419 Z " />
<g transform="translate(344,-333)" >
<path fill="black" d="M-646 -472 Q-611 -417 -593.5 -361 Q-576 -305 -576 -236 L-576 -154 L-438 -154 L-438 -233 Q-438 -273 -446 -314.5 Q-454 -356 -470 -395.5 Q-486 -435 -508.5 -471 Q-531 -507 -561 -535 L-646 -472 Z " />
</g>
</glyph>
<glyph glyph-name="uni0219" unicode="&#x219;" horiz-adv-x="990" >
<path fill="black" d="M252 314 Q255 254 280 214 Q305 174 342.5 150 Q380 126 426 116.5 Q472 107 517 107 Q576 107 620.5 120 Q665 133 695 156 Q725 179 740.5 209.5 Q756 240 756 276 Q756 308 745 336.5 Q734 365 704.5 390.5 Q675 416 624.5 439.5 Q574 463 495 487 Q410 513 343 541 Q276 569 230 605.5 Q184 642 160 689.5 Q136 737 136 801 Q136 863 162 918 Q188 973 236.5 1014 Q285 1055 354.5 1078.5 Q424 1102 510 1102 Q602 1102 674.5 1077 Q747 1052 797.5 1008.5 Q848 965 874.5 905 Q901 845 901 776 L749 776 Q749 814 733.5 849.5 Q718 885 687.5 913 Q657 941 612.5 958 Q568 975 510 975 Q451 975 408.5 960.5 Q366 946 339 922 Q312 898 299.5 868 Q287 838 287 806 Q287 774 297.5 749 Q308 724 336.5 702 Q365 680 415.5 659 Q466 638 545 613 Q636 585 704 555 Q772 525 817 487 Q862 449 884.5 400.5 Q907 352 907 287 Q907 218 879 161 Q851 104 800 64 Q749 24 677 2 Q605 -20 516 -20 Q415 -20 338 7.5 Q261 35 208.5 81.5 Q156 128 129 188.5 Q102 249 102 314 L252 314 Z " />
<g transform="translate(279,-340)" >
<path fill="black" d="M-646 -472 Q-611 -417 -593.5 -361 Q-576 -305 -576 -236 L-576 -154 L-438 -154 L-438 -233 Q-438 -273 -446 -314.5 Q-454 -356 -470 -395.5 Q-486 -435 -508.5 -471 Q-531 -507 -561 -535 L-646 -472 Z " />
</g>
</glyph>
<glyph glyph-name="uni021A" unicode="&#x21a;" horiz-adv-x="1144" >
<path fill="black" d="M519 1325 L59 1325 L59 1456 L1135 1456 L1135 1325 L675 1325 L675 0 L519 0 L519 1325 Z " />
<g transform="translate(329,-331)" >
<path fill="black" d="M-646 -472 Q-611 -417 -593.5 -361 Q-576 -305 -576 -236 L-576 -154 L-438 -154 L-438 -233 Q-438 -273 -446 -314.5 Q-454 -356 -470 -395.5 Q-486 -435 -508.5 -471 Q-531 -507 -561 -535 L-646 -472 Z " />
</g>
</glyph>
<glyph glyph-name="uni021B" unicode="&#x21b;" horiz-adv-x="634" >
<path fill="black" d="M213 962 L29 962 L29 1082 L213 1082 L213 1352 L366 1352 L366 1082 L568 1082 L568 962 L366 962 L366 266 Q366 217 376 186.5 Q386 156 403 139.5 Q420 123 442.5 117.5 Q465 112 490 112 Q515 112 538 116 Q561 120 578 123 L582 -2 Q559 -9 524.5 -14.5 Q490 -20 450 -20 Q399 -20 355.5 -5.5 Q312 9 280.5 42.5 Q249 76 231 131 Q213 186 213 267 L213 962 Z " />
<g transform="translate(179,-331)" >
<path fill="black" d="M-646 -472 Q-611 -417 -593.5 -361 Q-576 -305 -576 -236 L-576 -154 L-438 -154 L-438 -233 Q-438 -273 -446 -314.5 Q-454 -356 -470 -395.5 Q-486 -435 -508.5 -471 Q-531 -507 -561 -535 L-646 -472 Z " />
</g>
</glyph>
<glyph glyph-name="uni0298" unicode="&#x298;" horiz-adv-x="1314" d="M132 830 Q132 983 171.5 1103.5 Q211 1224 283 1306.5 Q355 1389 456 1432.5 Q557 1476 680 1476 Q805 1476 906.5 1432.5 Q1008 1389 1079.5 1306.5 Q1151 1224 1190 1103.5 Q1229 983 1229 830 L1229 626 Q1229 472 1190.5 352 Q1152 232 1081 149.5 Q1010 67 908.5 23.5 Q807 -20 682 -20 Q559 -20 457.5 23.5 Q356 67 284 149.5 Q212 232 172 352 Q132 472 132 626 L132 830 Z M289 626 Q289 500 316 404.5 Q343 309 394 244.5 Q445 180 518 147.5 Q591 115 682 115 Q871 115 971.5 244 Q1072 373 1072 626 L1072 832 Q1072 1081 969.5 1210.5 Q867 1340 680 1340 Q589 1340 516.5 1307.5 Q444 1275 393.5 1210.5 Q343 1146 316 1051.5 Q289 957 289 832 L289 626 Z M579 731 Q579 773 604.5 801 Q630 829 677 829 Q724 829 750 801 Q776 773 776 731 Q776 690 750 663 Q724 636 677 636 Q630 636 604.5 663 Q579 690 579 731 Z " />
<glyph glyph-name="uni02AA" unicode="&#x2aa;" horiz-adv-x="1249" d="M168 1536 L320 1536 L320 271 Q380 222 441.5 190.5 Q503 159 561 140 Q619 121 673 113.5 Q727 106 772 106 Q831 106 875.5 120 Q920 134 950 158 Q980 182 995.5 213.5 Q1011 245 1011 281 Q1011 316 999.5 346.5 Q988 377 959 402.5 Q930 428 880.5 449.5 Q831 471 755 489 Q669 509 601 534.5 Q533 560 486.5 596.5 Q440 633 415.5 682 Q391 731 391 797 Q391 859 417 914.5 Q443 970 491.5 1011.5 Q540 1053 609.5 1077.5 Q679 1102 765 1102 Q857 1102 929.5 1076.5 Q1002 1051 1052 1006.5 Q1102 962 1128.5 901.5 Q1155 841 1155 772 L1003 772 Q1003 810 987.5 846 Q972 882 942 911 Q912 940 867.5 957.5 Q823 975 765 975 Q706 975 663.5 960 Q621 945 594 920 Q567 895 554 864.5 Q541 834 541 802 Q541 767 553 739.5 Q565 712 594 689.5 Q623 667 671.5 649 Q720 631 792 614 Q884 593 953.5 565 Q1023 537 1069.5 498 Q1116 459 1139 408 Q1162 357 1162 291 Q1162 222 1134.5 165 Q1107 108 1056 66.5 Q1005 25 933 2.5 Q861 -20 772 -20 Q653 -20 536 12 L536 -2 Q513 -9 478.5 -14.5 Q444 -20 405 -20 Q354 -20 310.5 -5.5 Q267 9 235.5 42.5 Q204 76 186 131 Q168 186 168 267 L168 1536 Z " />
<glyph glyph-name="uni02AD" unicode="&#x2ad;" horiz-adv-x="947" d="M104 581 L843 581 L843 0 L725 0 L725 480 L222 480 L222 0 L104 0 L104 581 Z M104 1455 L843 1455 L843 874 L725 874 L725 1354 L222 1354 L222 874 L104 874 L104 1455 Z " />
<glyph glyph-name="uni02AF" unicode="&#x2af;" horiz-adv-x="1305" d="M272 788 Q272 893 232.5 941 Q193 989 114 989 Q97 989 77.5 986.5 Q58 984 44 980 L40 1088 Q88 1102 145 1102 Q206 1102 257 1081.5 Q308 1061 345.5 1021 Q383 981 404 922.5 Q425 864 425 788 L425 435 Q425 338 442 275 Q459 212 487.5 175.5 Q516 139 555 124.5 Q594 110 637 110 Q699 110 747 130 Q795 150 829.5 184 Q864 218 887 263 Q910 308 922 358 L922 1082 L1074 1082 L1074 -123 Q1074 -228 1114 -276 Q1154 -324 1232 -324 Q1250 -324 1269.5 -321.5 Q1289 -319 1302 -315 L1306 -423 Q1258 -437 1201 -437 Q1141 -437 1089.5 -416.5 Q1038 -396 1001 -356 Q964 -316 943 -257.5 Q922 -199 922 -123 L922 158 Q873 75 795 27.5 Q717 -20 608 -20 Q531 -20 469 5.5 Q407 31 363 86.5 Q319 142 295.5 228.5 Q272 315 272 436 L272 788 Z " />
<glyph glyph-name="uni02B5" unicode="&#x2b5;" horiz-adv-x="620" d="M50 789 Q68 781 89.5 776 Q111 771 137 771 Q197 771 239.5 808 Q282 845 303 908 L303 1452 L437 1452 L437 559 Q437 517 454 501 Q471 485 498 485 Q516 485 535 487.5 Q554 490 570 495 L570 363 Q504 345 444 345 Q405 345 378 360 Q351 375 334.5 402 Q318 429 310.5 466.5 Q303 504 303 550 L303 765 Q270 705 222 671 Q174 637 116 637 Q93 637 76 639.5 Q59 642 50 644 L50 789 Z " />
<glyph glyph-name="uni02B9" unicode="&#x2b9;" horiz-adv-x="359" d="M165 1562 L307 1562 L146 1182 L51 1182 L165 1562 Z " />
<glyph glyph-name="uni02BA" unicode="&#x2ba;" horiz-adv-x="609" >
<g transform="translate(4,0)" >
<path fill="black" d="M165 1562 L307 1562 L146 1182 L51 1182 L165 1562 Z " />
</g>
<g transform="translate(256,0)" >
<path fill="black" d="M165 1562 L307 1562 L146 1182 L51 1182 L165 1562 Z " />
</g>
</glyph>
<glyph glyph-name="uni02BB" unicode="&#x2bb;" horiz-adv-x="410" d="M88 1210 Q88 1257 98.5 1306 Q109 1355 128 1401.5 Q147 1448 174.5 1490 Q202 1532 236 1565 L322 1503 Q279 1435 256.5 1366 Q234 1297 234 1212 L234 1031 L88 1031 L88 1210 Z " />
<glyph glyph-name="uni02BC" unicode="&#x2bc;" horiz-adv-x="396" d="M72 1135 Q115 1200 137.5 1265.5 Q160 1331 160 1412 L160 1536 L304 1536 L304 1414 Q304 1369 293.5 1322 Q283 1275 264 1230 Q245 1185 217.5 1145 Q190 1105 156 1073 L72 1135 Z " />
<glyph glyph-name="uni02BD" unicode="&#x2bd;" horiz-adv-x="410" d="M236 1031 Q202 1064 174.5 1106 Q147 1148 128 1194.5 Q109 1241 98.5 1290 Q88 1339 88 1386 L88 1565 L234 1565 L234 1383 Q234 1299 256.5 1230 Q279 1161 322 1093 L236 1031 Z " />
<glyph glyph-name="uni02BE" unicode="&#x2be;" horiz-adv-x="307" d="M67 1220 Q105 1220 129.5 1247.5 Q154 1275 154 1317 Q154 1360 129.5 1388 Q105 1416 67 1416 L67 1498 Q103 1498 134.5 1484.5 Q166 1471 189.5 1446.5 Q213 1422 226.5 1389 Q240 1356 240 1317 Q240 1278 226.5 1245 Q213 1212 189.5 1189 Q166 1166 134.5 1153 Q103 1140 67 1140 L67 1220 Z " />
<glyph glyph-name="uni02BF" unicode="&#x2bf;" horiz-adv-x="307" d="M240 1140 Q204 1140 172.5 1153 Q141 1166 117.5 1189 Q94 1212 80.5 1245 Q67 1278 67 1317 Q67 1356 80.5 1389 Q94 1422 117.5 1446.5 Q141 1471 172.5 1484.5 Q204 1498 240 1498 L240 1416 Q202 1416 177 1388 Q152 1360 152 1317 Q152 1275 177 1247.5 Q202 1220 240 1220 L240 1140 Z " />
<glyph glyph-name="uni02C0" unicode="&#x2c0;" horiz-adv-x="747" d="M282 1006 L334 1006 Q395 1006 434 1032 Q473 1058 495.5 1101 Q518 1144 526.5 1199.5 Q535 1255 535 1313 L535 1406 Q535 1464 524.5 1515 Q514 1566 490.5 1603.5 Q467 1641 429.5 1662.5 Q392 1684 338 1684 Q260 1684 215.5 1640.5 Q171 1597 163 1518 L40 1518 Q42 1582 65 1634.5 Q88 1687 127 1725 Q166 1763 220 1784 Q274 1805 337 1805 Q419 1805 481.5 1773.5 Q544 1742 586 1688 Q628 1634 649.5 1561.5 Q671 1489 671 1406 L671 1313 Q671 1230 655.5 1159 Q640 1088 608.5 1034 Q577 980 529.5 944 Q482 908 418 894 L418 651 L282 651 L282 1006 Z " />
<glyph glyph-name="uni02C1" unicode="&#x2c1;" horiz-adv-x="747" d="M328 894 Q264 908 216.5 944 Q169 980 138 1034.5 Q107 1089 91.5 1159.5 Q76 1230 76 1313 L76 1406 Q76 1489 97.5 1561.5 Q119 1634 161 1688 Q203 1742 265 1773.5 Q327 1805 409 1805 Q473 1805 526.5 1784 Q580 1763 619.5 1725 Q659 1687 682 1634.5 Q705 1582 707 1518 L584 1518 Q576 1597 531.5 1640.5 Q487 1684 409 1684 Q355 1684 317 1662.5 Q279 1641 255.5 1603.5 Q232 1566 221.5 1515 Q211 1464 211 1406 L211 1313 Q211 1255 219.5 1199.5 Q228 1144 250.5 1101 Q273 1058 312.5 1032 Q352 1006 413 1006 L464 1006 L464 651 L328 651 L328 894 Z " />
<glyph glyph-name="uni02C2" unicode="&#x2c2;" horiz-adv-x="840" d="M72 1018 L768 1329 L768 1191 L301 988 L213 962 L301 935 L768 734 L768 596 L72 908 L72 1018 Z " />
<glyph glyph-name="uni02C3" unicode="&#x2c3;" horiz-adv-x="830" d="M55 734 L522 935 L610 962 L522 988 L55 1191 L55 1329 L751 1018 L751 908 L55 596 L55 734 Z " />
<glyph glyph-name="uni02C4" unicode="&#x2c4;" d="M351 1310 L460 1310 L755 583 L624 583 L430 1071 L405 1165 L379 1071 L187 583 L55 583 L351 1310 Z " />
<glyph glyph-name="uni02C5" unicode="&#x2c5;" horiz-adv-x="817" d="M55 1310 L187 1310 L379 822 L405 728 L430 822 L624 1310 L755 1310 L460 583 L351 583 L55 1310 Z " />
<glyph glyph-name="circumflex" unicode="&#x2c6;" horiz-adv-x="901" d="M163 1268 L399 1531 L492 1531 L730 1266 L730 1256 L599 1256 L445 1432 L292 1256 L163 1256 L163 1268 Z " />
<glyph glyph-name="caron" unicode="&#x2c7;" horiz-adv-x="857" d="M142 1517 L142 1528 L274 1528 L429 1346 L584 1528 L717 1528 L717 1517 L479 1249 L378 1249 L142 1517 Z " />
<glyph glyph-name="uni02C8" unicode="&#x2c8;" horiz-adv-x="259" d="M72 1151 L72 1559 L187 1559 L187 1151 L72 1151 Z " />
<glyph glyph-name="uni02C9" unicode="&#x2c9;" horiz-adv-x="893" >
<g transform="translate(4,0)" >
<path fill="black" d="M148 1323 L148 1443 L760 1443 L760 1323 L148 1323 Z " />
</g>
</glyph>
<glyph glyph-name="uni02CA" unicode="&#x2ca;" horiz-adv-x="553" >
<g transform="translate(-33,0)" >
<path fill="black" d="M323 1536 L507 1536 L259 1249 L128 1249 L323 1536 Z " />
</g>
</glyph>
<glyph glyph-name="uni02CB" unicode="&#x2cb;" horiz-adv-x="552" >
<path fill="black" d="M330 1249 L87 1536 L271 1536 L466 1249 L330 1249 Z " />
</glyph>
<glyph glyph-name="uni02CC" unicode="&#x2cc;" horiz-adv-x="259" >
<g transform="translate(0,-1656)" >
<path fill="black" d="M72 1151 L72 1559 L187 1559 L187 1151 L72 1151 Z " />
</g>
</glyph>
<glyph glyph-name="uni02CD" unicode="&#x2cd;" horiz-adv-x="802" >
<g transform="translate(-46,-1600)" >
<path fill="black" d="M148 1323 L148 1443 L760 1443 L760 1323 L148 1323 Z " />
</g>
</glyph>
<glyph glyph-name="uni02CE" unicode="&#x2ce;" horiz-adv-x="552" >
<g transform="translate(0,-1606)" >
<path fill="black" d="M330 1249 L87 1536 L271 1536 L466 1249 L330 1249 Z " />
</g>
</glyph>
<glyph glyph-name="uni02CF" unicode="&#x2cf;" horiz-adv-x="553" >
<g transform="translate(-33,-1606)" >
<path fill="black" d="M323 1536 L507 1536 L259 1249 L128 1249 L323 1536 Z " />
</g>
</glyph>
<glyph glyph-name="uni02D0" unicode="&#x2d0;" horiz-adv-x="437" d="M106 0 L210 183 L226 183 L331 0 L106 0 Z M106 1076 L331 1076 L226 893 L210 893 L106 1076 Z " />
<glyph glyph-name="uni02D1" unicode="&#x2d1;" horiz-adv-x="437" d="M106 1076 L331 1076 L226 893 L210 893 L106 1076 Z " />
<glyph glyph-name="uni02D2" unicode="&#x2d2;" horiz-adv-x="306" >
<g transform="translate(4,-991)" >
<path fill="black" d="M67 1220 Q105 1220 129.5 1247.5 Q154 1275 154 1317 Q154 1360 129.5 1388 Q105 1416 67 1416 L67 1498 Q103 1498 134.5 1484.5 Q166 1471 189.5 1446.5 Q213 1422 226.5 1389 Q240 1356 240 1317 Q240 1278 226.5 1245 Q213 1212 189.5 1189 Q166 1166 134.5 1153 Q103 1140 67 1140 L67 1220 Z " />
</g>
</glyph>
<glyph glyph-name="uni02D3" unicode="&#x2d3;" horiz-adv-x="307" d="M240 148 Q204 148 172.5 161 Q141 174 117.5 197.5 Q94 221 80.5 254 Q67 287 67 326 Q67 365 80.5 398 Q94 431 117.5 455.5 Q141 480 172.5 493.5 Q204 507 240 507 L240 426 Q202 426 177 398 Q152 370 152 326 Q152 284 177 256.5 Q202 229 240 229 L240 148 Z " />
<glyph glyph-name="uni02D5" unicode="&#x2d5;" horiz-adv-x="573" d="M229 417 L88 417 L88 530 L485 530 L485 417 L344 417 L344 171 L229 171 L229 417 Z " />
<glyph glyph-name="uni02D6" unicode="&#x2d6;" horiz-adv-x="573" d="M229 296 L88 296 L88 409 L229 409 L229 554 L344 554 L344 409 L485 409 L485 296 L344 296 L344 151 L229 151 L229 296 Z " />
<glyph glyph-name="uni02D7" unicode="&#x2d7;" horiz-adv-x="579" d="M72 409 L507 409 L507 296 L72 296 L72 409 Z " />
<glyph glyph-name="breve" unicode="&#x2d8;" horiz-adv-x="896" d="M259 1493 Q259 1461 268.5 1432 Q278 1403 299 1381 Q320 1359 354 1346 Q388 1333 436 1333 Q483 1333 516.5 1346 Q550 1359 571 1381 Q592 1403 602 1432 Q612 1461 612 1493 L738 1493 Q738 1435 717.5 1386.5 Q697 1338 658 1303.5 Q619 1269 563 1250 Q507 1231 436 1231 Q366 1231 310 1250 Q254 1269 214.5 1303.5 Q175 1338 154 1386.5 Q133 1435 133 1493 L259 1493 Z " />
<glyph glyph-name="dotaccent" unicode="&#x2d9;" horiz-adv-x="493" d="M148 1375 Q148 1414 173.5 1441 Q199 1468 244 1468 Q289 1468 314 1441 Q339 1414 339 1375 Q339 1336 314 1309.5 Q289 1283 244 1283 Q199 1283 173.5 1309.5 Q148 1336 148 1375 Z " />
<glyph glyph-name="ring" unicode="&#x2da;" horiz-adv-x="671" d="M126 1402 Q126 1444 141.5 1480 Q157 1516 184 1543 Q211 1570 248.5 1585.5 Q286 1601 329 1601 Q372 1601 409 1585.5 Q446 1570 473.5 1543 Q501 1516 516.5 1480 Q532 1444 532 1402 Q532 1360 516.5 1324.5 Q501 1289 473.5 1262.5 Q446 1236 409 1221.5 Q372 1207 329 1207 Q286 1207 248.5 1221.5 Q211 1236 184 1262.5 Q157 1289 141.5 1324.5 Q126 1360 126 1402 Z M213 1402 Q213 1379 221.5 1358 Q230 1337 245 1321.5 Q260 1306 281.5 1296.5 Q303 1287 329 1287 Q355 1287 376.5 1296 Q398 1305 413 1321 Q428 1337 436.5 1357.5 Q445 1378 445 1402 Q445 1426 436.5 1448 Q428 1470 413 1486 Q398 1502 376.5 1511.5 Q355 1521 329 1521 Q303 1521 281.5 1511.5 Q260 1502 245 1486 Q230 1470 221.5 1448 Q213 1426 213 1402 Z " />
<glyph glyph-name="ogonek" unicode="&#x2db;" horiz-adv-x="537" d="M382 -380 Q360 -395 326 -409.5 Q292 -424 238 -424 Q201 -424 169 -412.5 Q137 -401 114 -378.5 Q91 -356 77.5 -322.5 Q64 -289 64 -244 Q64 -166 120.5 -90 Q177 -14 289 47 L360 0 Q327 -25 297 -51.5 Q267 -78 244 -106 Q221 -134 207.5 -164.5 Q194 -195 194 -228 Q194 -263 210.5 -285 Q227 -307 271 -307 Q304 -307 328 -296.5 Q352 -286 366 -277 L382 -380 Z " />
<glyph glyph-name="tilde" unicode="&#x2dc;" horiz-adv-x="905" d="M120 1258 Q120 1309 135 1351 Q150 1393 176 1423.5 Q202 1454 237.5 1470.5 Q273 1487 315 1487 Q358 1487 389.5 1471 Q421 1455 450 1436 Q479 1417 508.5 1401 Q538 1385 577 1385 Q618 1385 647 1417.5 Q676 1450 676 1502 L780 1493 Q780 1442 765 1400 Q750 1358 723.5 1328 Q697 1298 661 1281.5 Q625 1265 584 1265 Q535 1265 503.5 1281 Q472 1297 445 1316.5 Q418 1336 390.5 1352 Q363 1368 323 1368 Q281 1368 252.5 1336.5 Q224 1305 224 1253 L120 1258 Z " />
<glyph glyph-name="hungarumlaut" unicode="&#x2dd;" horiz-adv-x="767" d="M608 1535 L775 1535 L515 1232 L375 1232 L608 1535 Z M295 1535 L456 1535 L240 1232 L113 1232 L295 1535 Z " />
<glyph glyph-name="uni02DE" unicode="&#x2de;" horiz-adv-x="442" d="M-174 709 L163 780 Q168 705 174.5 654 Q181 603 193.5 571.5 Q206 540 226.5 526.5 Q247 513 280 513 Q309 513 343 521 L369 393 Q340 379 309 370.5 Q278 362 246 362 Q195 362 160.5 377 Q126 392 102.5 423.5 Q79 455 64.5 502.5 Q50 550 41 616 L-174 570 L-174 709 Z " />
<glyph glyph-name="uni02DF" unicode="&#x2df;" horiz-adv-x="633" d="M88 1238 L240 1398 L89 1558 L165 1639 L317 1478 L469 1638 L545 1557 L393 1397 L544 1237 L468 1156 L317 1317 L165 1157 L88 1238 Z " />
<glyph glyph-name="uni02E0" unicode="&#x2e0;" horiz-adv-x="811" d="M332 679 L61 1452 L211 1452 L388 895 L406 813 L423 895 L600 1452 L750 1452 L476 672 L542 509 Q570 441 570 395 Q570 318 524.5 276.5 Q479 235 402 235 Q324 235 278.5 276.5 Q233 318 233 395 Q233 420 242 447.5 Q251 475 264 507 L332 679 Z M402 350 Q428 350 439 364.5 Q450 379 450 402 Q450 429 438.5 464.5 Q427 500 403 562 Q378 501 366 464.5 Q354 428 354 402 Q354 379 365 364.5 Q376 350 402 350 Z " />
<glyph glyph-name="uni02E1" unicode="&#x2e1;" horiz-adv-x="363" d="M114 651 L114 1805 L248 1805 L248 651 L114 651 Z " />
<glyph glyph-name="uni02E2" unicode="&#x2e2;" horiz-adv-x="758" d="M207 887 Q212 848 229 822.5 Q246 797 272 782.5 Q298 768 330.5 762.5 Q363 757 398 757 Q471 757 510 785.5 Q549 814 549 859 Q549 907 507.5 941.5 Q466 976 362 1001 Q299 1016 250 1036.5 Q201 1057 168 1085.5 Q135 1114 118 1152.5 Q101 1191 101 1243 Q101 1294 121 1335 Q141 1376 177.5 1405 Q214 1434 264.5 1450 Q315 1466 376 1466 Q447 1466 503 1447 Q559 1428 597.5 1395 Q636 1362 656.5 1317.5 Q677 1273 677 1222 L544 1222 Q544 1246 534.5 1268.5 Q525 1291 505.5 1307.5 Q486 1324 455.5 1334 Q425 1344 383 1344 Q343 1344 315 1335.5 Q287 1327 269 1313 Q251 1299 243 1281 Q235 1263 235 1244 Q235 1221 243.5 1203 Q252 1185 272 1170.5 Q292 1156 325.5 1143.5 Q359 1131 409 1119 Q474 1103 525 1082 Q576 1061 611 1031.5 Q646 1002 664 961.5 Q682 921 682 867 Q682 755 606.5 695.5 Q531 636 394 636 Q315 636 255.5 656 Q196 676 156 710.5 Q116 745 96 790.5 Q76 836 76 887 L207 887 Z " />
</font>
</svg>
