<?xml version="1.0" encoding="UTF-8"?>
<svg xmlns="http://www.w3.org/2000/svg" xmlns:xlink="http://www.w3.org/1999/xlink" version="1.2" >
<font id="Gotho-7Wd500Md" horiz-adv-x="897">
<font-face  font-family="Gotho" units-per-em="2048" ascent="2146" descent="-555" font-style="normal" font-weight="500" font-stretch="expanded" cap-height="1456" x-height="1082" underline-position="-100" underline-thickness="100" />
<missing-glyph horiz-adv-x="990" d="M114 1456 L876 1456 L876 0 L114 0 L114 1456 Z M818 83 L818 1373 L523 728 L818 83 Z M461 728 L172 1360 L172 96 L461 728 Z M215 54 L769 54 L492 660 L215 54 Z M492 796 L769 1402 L215 1402 L492 796 Z " />
<glyph glyph-name="uni0000" horiz-adv-x="0" />
<glyph glyph-name="uni000D" unicode="&#xd;" horiz-adv-x="557" />
<glyph glyph-name="space" unicode="&#x20;" horiz-adv-x="557" />
<glyph glyph-name="uni0002" unicode="&#x2;" horiz-adv-x="0" />
<glyph glyph-name="uni0009" unicode="&#x9;" horiz-adv-x="557" />
<glyph glyph-name="exclam" unicode="&#x21;" horiz-adv-x="565" d="M197 411 L183 1456 L383 1456 L368 411 L197 411 Z M174 94 Q174 139 203.5 170.5 Q233 202 289 202 Q344 202 374 170.5 Q404 139 404 94 Q404 49 374 18.5 Q344 -12 289 -12 Q233 -12 203.5 18.5 Q174 49 174 94 Z " />
<glyph glyph-name="quotedbl" unicode="&#x22;" horiz-adv-x="710" d="M151 1391 L151 1536 L298 1536 L298 1401 L267 1041 L150 1041 L151 1391 Z M444 1391 L444 1536 L591 1536 L591 1401 L560 1041 L443 1041 L444 1391 Z " />
<glyph glyph-name="numbersign" unicode="&#x23;" horiz-adv-x="1348" d="M382 410 L121 410 L121 549 L410 549 L483 900 L203 900 L203 1040 L512 1040 L598 1456 L744 1456 L658 1040 L949 1040 L1035 1456 L1181 1456 L1095 1040 L1322 1040 L1322 900 L1066 900 L994 549 L1241 549 L1241 410 L965 410 L881 0 L734 0 L819 410 L528 410 L443 0 L297 0 L382 410 Z M847 549 L920 900 L629 900 L556 549 L847 549 Z " />
<glyph glyph-name="dollar" unicode="&#x24;" horiz-adv-x="1249" d="M561 -18 Q477 -11 398.5 17 Q320 45 259 98 Q198 151 161.5 233 Q125 315 125 430 L316 430 Q316 346 344 290.5 Q372 235 417 202 Q462 169 517.5 156 Q573 143 628 143 Q774 143 853.5 205.5 Q933 268 933 376 Q933 420 917 458 Q901 496 864.5 528.5 Q828 561 769 589.5 Q710 618 624 642 Q522 672 440.5 710.5 Q359 749 302 801.5 Q245 854 214.5 922.5 Q184 991 184 1079 Q184 1163 211.5 1232 Q239 1301 290 1352 Q341 1403 413.5 1434 Q486 1465 576 1474 L576 1693 L725 1693 L725 1473 Q817 1463 889 1427.5 Q961 1392 1010.5 1333 Q1060 1274 1086.5 1192.5 Q1113 1111 1113 1007 L923 1007 Q923 1074 905 1130 Q887 1186 852 1226.5 Q817 1267 765.5 1290 Q714 1313 647 1313 Q577 1313 526 1296.5 Q475 1280 441.5 1249.5 Q408 1219 391.5 1176.5 Q375 1134 375 1082 Q375 1034 390 996 Q405 958 441 926 Q477 894 537.5 865.5 Q598 837 689 810 Q792 779 873 740.5 Q954 702 1010 651 Q1066 600 1095.5 533.5 Q1125 467 1125 378 Q1125 290 1095.5 220.5 Q1066 151 1012 101 Q958 51 881 21.5 Q804 -8 709 -17 L709 -208 L561 -208 L561 -18 Z " />
<glyph glyph-name="percent" unicode="&#x25;" horiz-adv-x="1630" d="M377 177 L1143 1315 L1251 1248 L485 110 L377 177 Z M887 355 Q887 417 909 471.5 Q931 526 972 567 Q1013 608 1072 632 Q1131 656 1205 656 Q1280 656 1340 632 Q1400 608 1441 567 Q1482 526 1504 471.5 Q1526 417 1526 355 L1526 278 Q1526 217 1504 162.5 Q1482 108 1441 67.5 Q1400 27 1341 3 Q1282 -21 1208 -21 Q1133 -21 1073.5 3 Q1014 27 972.5 67.5 Q931 108 909 162.5 Q887 217 887 278 L887 355 Z M119 1176 Q119 1238 141 1292.5 Q163 1347 204 1388 Q245 1429 304 1453 Q363 1477 437 1477 Q512 1477 572 1453 Q632 1429 673 1388 Q714 1347 736 1292.5 Q758 1238 758 1176 L758 1099 Q758 1038 736 983.5 Q714 929 673 888.5 Q632 848 573 824 Q514 800 440 800 Q365 800 305.5 824 Q246 848 204.5 888.5 Q163 929 141 983.5 Q119 1038 119 1099 L119 1176 Z M1030 278 Q1030 244 1041 212 Q1052 180 1074 155.5 Q1096 131 1129.5 116 Q1163 101 1208 101 Q1253 101 1285.5 115.5 Q1318 130 1340 155 Q1362 180 1372.5 212 Q1383 244 1383 278 L1383 355 Q1383 390 1372 422.5 Q1361 455 1339 479.5 Q1317 504 1283.5 519 Q1250 534 1205 534 Q1161 534 1128 519 Q1095 504 1073.5 479.5 Q1052 455 1041 422.5 Q1030 390 1030 355 L1030 278 Z M262 1099 Q262 1065 273 1033 Q284 1001 306 976.5 Q328 952 361.5 937 Q395 922 440 922 Q485 922 517.5 936.5 Q550 951 572 976 Q594 1001 604.5 1033 Q615 1065 615 1099 L615 1176 Q615 1211 604 1243.5 Q593 1276 571 1300.5 Q549 1325 515.5 1340 Q482 1355 437 1355 Q393 1355 360 1340 Q327 1325 305.5 1300.5 Q284 1276 273 1243.5 Q262 1211 262 1176 L262 1099 Z " />
<glyph glyph-name="ampersand" unicode="&#x26;" horiz-adv-x="1385" d="M1025 375 Q1063 438 1084 512.5 Q1105 587 1105 673 L1277 673 Q1277 420 1142 246 L1365 0 L1137 0 L1030 117 Q946 48 837.5 14 Q729 -20 617 -20 Q501 -20 408 10.5 Q315 41 250 96 Q185 151 150 226.5 Q115 302 115 392 Q115 458 137 512.5 Q159 567 199 614.5 Q239 662 293.5 705.5 Q348 749 413 794 Q337 882 291.5 959.5 Q246 1037 246 1122 Q246 1208 273.5 1274 Q301 1340 351.5 1385 Q402 1430 473.5 1453 Q545 1476 633 1476 Q718 1476 786 1451 Q854 1426 901 1384 Q948 1342 973.5 1286 Q999 1230 999 1168 Q999 1115 982.5 1071 Q966 1027 937.5 989 Q909 951 870 917.5 Q831 884 785 852 L667 769 L1025 375 Z M480 637 Q421 596 386.5 558.5 Q352 521 334 489.5 Q316 458 311 433 Q306 408 306 392 Q306 339 325 292 Q344 245 383 210 Q422 175 480.5 154.5 Q539 134 618 134 Q698 134 773.5 162.5 Q849 191 913 245 L525 669 L480 637 Z M681 963 Q715 984 741.5 1004.5 Q768 1025 786 1049 Q804 1073 813.5 1101.5 Q823 1130 823 1168 Q823 1197 810.5 1225 Q798 1253 773.5 1274.5 Q749 1296 713.5 1309 Q678 1322 632 1322 Q584 1322 547 1306.5 Q510 1291 485 1264.5 Q460 1238 447 1202.5 Q434 1167 434 1128 Q434 1073 468.5 1014 Q503 955 561 888 L681 963 Z " />
<glyph glyph-name="quotesingle" unicode="&#x27;" horiz-adv-x="396" d="M121 1410 L121 1536 L277 1536 L277 1427 L254 1056 L119 1056 L121 1410 Z " />
<glyph glyph-name="parenleft" unicode="&#x28;" horiz-adv-x="756" d="M669 -470 Q616 -444 557 -396.5 Q498 -349 440.5 -281 Q383 -213 330.5 -124.5 Q278 -36 238 72 Q198 180 174.5 308 Q151 436 151 582 L151 592 Q151 738 174.5 865.5 Q198 993 238 1101 Q278 1209 330.5 1297.5 Q383 1386 440.5 1454.5 Q498 1523 557 1570.5 Q616 1618 669 1644 L710 1520 Q645 1475 579 1396.5 Q513 1318 459.5 1203 Q406 1088 372.5 936.5 Q339 785 339 594 L339 580 Q339 390 372.5 237.5 Q406 85 459.5 -31 Q513 -147 579 -228 Q645 -309 710 -357 L669 -470 Z " />
<glyph glyph-name="parenright" unicode="&#x29;" horiz-adv-x="769" d="M47 -357 Q112 -312 178 -231.5 Q244 -151 297 -34 Q350 83 383.5 236.5 Q417 390 417 580 L417 594 Q417 785 381.5 938 Q346 1091 292 1208 Q238 1325 172.5 1405 Q107 1485 47 1529 L87 1644 Q140 1618 199 1570.5 Q258 1523 316 1454.5 Q374 1386 426.5 1297.5 Q479 1209 519 1101 Q559 993 583 865.5 Q607 738 607 592 L607 582 Q607 436 583 308 Q559 180 519 72 Q479 -36 426.5 -124.5 Q374 -213 316 -281 Q258 -349 199 -396.5 Q140 -444 87 -470 L47 -357 Z " />
<glyph glyph-name="asterisk" unicode="&#x2a;" horiz-adv-x="981" d="M379 983 L33 1073 L81 1225 L426 1114 L417 1457 L574 1457 L563 1108 L902 1218 L950 1064 L600 974 L828 704 L700 609 L486 896 L278 616 L150 708 L379 983 Z " />
<glyph glyph-name="plus" unicode="&#x2b;" horiz-adv-x="1258" d="M529 606 L88 606 L88 783 L529 783 L529 1206 L719 1206 L719 783 L1162 783 L1162 606 L719 606 L719 146 L529 146 L529 606 Z " />
<glyph glyph-name="comma" unicode="&#x2c;" horiz-adv-x="456" d="M45 -218 Q96 -152 124.5 -82 Q153 -12 153 69 L153 221 L339 221 L339 72 Q339 27 326.5 -23 Q314 -73 290 -121 Q266 -169 232 -213.5 Q198 -258 154 -292 L45 -218 Z " />
<glyph glyph-name="hyphen" unicode="&#x2d;" horiz-adv-x="646" d="M56 541 L56 695 L585 695 L585 541 L56 541 Z " />
<glyph glyph-name="period" unicode="&#x2e;" horiz-adv-x="591" d="M161 99 Q161 147 192.5 179.5 Q224 212 283 212 Q342 212 373.5 179.5 Q405 147 405 99 Q405 52 373.5 20 Q342 -12 283 -12 Q224 -12 192.5 20 Q161 52 161 99 Z " />
<glyph glyph-name="slash" unicode="&#x2f;" horiz-adv-x="907" d="M26 -125 L675 1456 L837 1456 L189 -125 L26 -125 Z " />
<glyph glyph-name="zero" unicode="0" horiz-adv-x="1249" d="M130 843 Q130 1023 164.5 1144 Q199 1265 263.5 1339 Q328 1413 419 1444.5 Q510 1476 623 1476 Q737 1476 829 1444.5 Q921 1413 985.5 1339 Q1050 1265 1084.5 1144 Q1119 1023 1119 843 L1119 622 Q1119 443 1084.5 320 Q1050 197 986.5 121.5 Q923 46 831.5 13 Q740 -20 626 -20 Q513 -20 421.5 13 Q330 46 265 121.5 Q200 197 165 320 Q130 443 130 622 L130 843 Z M321 592 Q321 470 341 383 Q361 296 399.5 240.5 Q438 185 495 159.5 Q552 134 626 134 Q701 134 757.5 159.5 Q814 185 852 240.5 Q890 296 909 383 Q928 470 928 592 L928 875 Q928 998 908.5 1083.5 Q889 1169 850.5 1222 Q812 1275 755 1298.5 Q698 1322 623 1322 Q550 1322 493.5 1298.5 Q437 1275 398.5 1222 Q360 1169 340.5 1083.5 Q321 998 321 875 L321 592 Z " />
<glyph glyph-name="one" unicode="1" horiz-adv-x="1249" d="M597 0 L597 1230 L192 1094 L192 1264 L759 1464 L788 1464 L788 0 L597 0 Z " />
<glyph glyph-name="two" unicode="2" horiz-adv-x="1249" d="M139 0 L139 135 L651 666 Q722 739 769 794.5 Q816 850 843.5 896 Q871 942 882.5 982 Q894 1022 894 1064 Q894 1117 875.5 1164 Q857 1211 821.5 1246 Q786 1281 734 1301.5 Q682 1322 615 1322 Q537 1322 478 1300.5 Q419 1279 379 1240 Q339 1201 319 1146.5 Q299 1092 299 1027 L108 1027 Q108 1120 141 1201.5 Q174 1283 238.5 1344 Q303 1405 397.5 1440.5 Q492 1476 615 1476 Q726 1476 813 1448 Q900 1420 961 1368.5 Q1022 1317 1054 1245.5 Q1086 1174 1086 1087 Q1086 1023 1062 958 Q1038 893 997 828.5 Q956 764 902 700.5 Q848 637 788 575 L372 154 L1158 154 L1158 0 L139 0 Z " />
<glyph glyph-name="three" unicode="3" horiz-adv-x="1248" d="M298 384 Q298 327 320 281 Q342 235 382.5 202.5 Q423 170 480.5 152 Q538 134 608 134 Q750 134 831.5 200.5 Q913 267 913 403 Q913 470 888.5 519.5 Q864 569 819.5 601.5 Q775 634 712 650 Q649 666 571 666 L430 666 L430 820 L571 820 Q650 820 709.5 839 Q769 858 808.5 891 Q848 924 868 969.5 Q888 1015 888 1068 Q888 1193 819 1257.5 Q750 1322 606 1322 Q542 1322 488 1304.5 Q434 1287 395.5 1255 Q357 1223 335.5 1177.5 Q314 1132 314 1075 L123 1075 Q123 1158 158.5 1231 Q194 1304 257.5 1358.5 Q321 1413 410 1444.5 Q499 1476 605 1476 Q712 1476 799 1449.5 Q886 1423 948.5 1371.5 Q1011 1320 1045 1243 Q1079 1166 1079 1064 Q1079 1024 1064 979 Q1049 934 1018 891.5 Q987 849 940 811.5 Q893 774 828 748 Q905 724 957.5 686.5 Q1010 649 1042.5 603 Q1075 557 1089.5 506.5 Q1104 456 1104 407 Q1104 305 1066.5 225.5 Q1029 146 962.5 91.5 Q896 37 805 8.5 Q714 -20 608 -20 Q507 -20 416 7 Q325 34 256.5 85.5 Q188 137 147.5 212 Q107 287 107 384 L298 384 Z " />
<glyph glyph-name="four" unicode="4" horiz-adv-x="1249" d="M68 448 L765 1456 L974 1456 L974 491 L1195 491 L1195 337 L974 337 L974 0 L782 0 L782 337 L69 337 L68 448 Z M782 491 L782 1209 L779 1204 L291 491 L782 491 Z " />
<glyph glyph-name="five" unicode="5" horiz-adv-x="1249" d="M354 383 Q371 259 450.5 196.5 Q530 134 661 134 Q734 134 790 157 Q846 180 884.5 222.5 Q923 265 942.5 326 Q962 387 962 462 Q962 530 941 589 Q920 648 879.5 691.5 Q839 735 779.5 759.5 Q720 784 643 784 Q592 784 554 777.5 Q516 771 486 759 Q456 747 430.5 730 Q405 713 379 692 L226 730 L305 1456 L1110 1456 L1110 1283 L467 1283 L419 890 Q461 913 529 933 Q597 953 686 953 Q794 953 880 918.5 Q966 884 1027 820 Q1088 756 1120.5 665.5 Q1153 575 1153 464 Q1153 359 1123 270.5 Q1093 182 1032 117.5 Q971 53 878.5 16.5 Q786 -20 661 -20 Q566 -20 481 4.5 Q396 29 330.5 79.5 Q265 130 223 205.5 Q181 281 171 383 L354 383 Z " />
<glyph glyph-name="six" unicode="6" horiz-adv-x="1249" d="M149 744 Q149 922 197 1058.5 Q245 1195 328 1288 Q411 1381 522.5 1428.5 Q634 1476 760 1476 Q826 1476 888 1466.5 Q950 1457 995 1440 L959 1298 Q926 1306 883 1314 Q840 1322 779 1322 Q690 1322 614.5 1292 Q539 1262 482 1202.5 Q425 1143 389.5 1055.5 Q354 968 344 853 Q401 908 483 940 Q565 972 675 972 Q783 972 868.5 935 Q954 898 1014 833 Q1074 768 1106 680.5 Q1138 593 1138 491 Q1138 380 1104.5 286.5 Q1071 193 1008 124.5 Q945 56 855 18 Q765 -20 651 -20 Q549 -20 458 13 Q367 46 298 114.5 Q229 183 189 287 Q149 391 149 532 L149 744 Z M340 533 Q340 428 365 352.5 Q390 277 432.5 228 Q475 179 531.5 156 Q588 133 651 133 Q726 133 781.5 162 Q837 191 873.5 240 Q910 289 928.5 354 Q947 419 947 491 Q947 560 927.5 620.5 Q908 681 869.5 725.5 Q831 770 773.5 795.5 Q716 821 640 821 Q533 821 456.5 777.5 Q380 734 340 665 L340 533 Z " />
<glyph glyph-name="seven" unicode="7" horiz-adv-x="1248" d="M414 157 Q434 336 480 491.5 Q526 647 594 786 Q662 925 752 1052 Q842 1179 951 1302 L88 1302 L88 1456 L1141 1456 L1141 1302 Q997 1131 903 986 Q809 841 749 706 Q689 571 656 437.5 Q623 304 603 157 L588 0 L396 0 L414 157 Z " />
<glyph glyph-name="eight" unicode="8" horiz-adv-x="1249" d="M124 394 Q124 455 142.5 509.5 Q161 564 195 609.5 Q229 655 278 691 Q327 727 387 751 Q282 799 221.5 884 Q161 969 161 1077 Q161 1172 195.5 1246.5 Q230 1321 292 1372 Q354 1423 439 1449.5 Q524 1476 624 1476 Q725 1476 810 1449.5 Q895 1423 957 1372 Q1019 1321 1054 1246.5 Q1089 1172 1089 1077 Q1089 1023 1073 974.5 Q1057 926 1027 884 Q997 842 954.5 808 Q912 774 859 750 Q920 726 969 690 Q1018 654 1053 608.5 Q1088 563 1107 508.5 Q1126 454 1126 394 Q1126 294 1087.5 217 Q1049 140 981.5 87.5 Q914 35 822.5 7.5 Q731 -20 625 -20 Q519 -20 427 7.5 Q335 35 268 87.5 Q201 140 162.5 217 Q124 294 124 394 Z M315 399 Q315 336 337 287 Q359 238 399.5 204 Q440 170 497.5 152 Q555 134 625 134 Q696 134 753 152 Q810 170 850.5 204 Q891 238 912.5 287 Q934 336 934 399 Q934 459 911 509.5 Q888 560 847 596 Q806 632 749 652.5 Q692 673 623 673 Q554 673 497 652.5 Q440 632 399.5 596 Q359 560 337 509.5 Q315 459 315 399 Z M353 1073 Q353 1017 372.5 971.5 Q392 926 428 893.5 Q464 861 514 843.5 Q564 826 625 826 Q685 826 735 843.5 Q785 861 821 893.5 Q857 926 877 971.5 Q897 1017 897 1073 Q897 1127 877 1172.5 Q857 1218 821 1251.5 Q785 1285 734.5 1303.5 Q684 1322 624 1322 Q564 1322 514 1304.5 Q464 1287 428 1255 Q392 1223 372.5 1176.5 Q353 1130 353 1073 Z " />
<glyph glyph-name="nine" unicode="9" horiz-adv-x="1248" d="M281 183 Q332 163 387.5 148 Q443 133 508 133 Q595 133 667 159 Q739 185 790.5 239 Q842 293 871 375 Q900 457 901 569 Q840 514 758 486 Q676 458 581 458 Q470 458 381.5 495 Q293 532 231 598.5 Q169 665 136 757.5 Q103 850 103 960 Q103 1085 140 1181.5 Q177 1278 241.5 1343.5 Q306 1409 393.5 1443 Q481 1477 581 1477 Q695 1477 789.5 1442.5 Q884 1408 951.5 1338 Q1019 1268 1056 1162 Q1093 1056 1093 912 L1093 577 Q1093 427 1050.5 315 Q1008 203 932 128.5 Q856 54 752.5 16.5 Q649 -21 527 -21 Q458 -21 383.5 -7.5 Q309 6 243 38 L281 183 Z M901 932 Q901 1127 818 1225 Q735 1323 586 1323 Q524 1323 471 1300.5 Q418 1278 379 1232.5 Q340 1187 318 1119 Q296 1051 296 960 Q296 891 316.5 828 Q337 765 375.5 716.5 Q414 668 469 639.5 Q524 611 594 611 Q657 611 707 625 Q757 639 795 662.5 Q833 686 859.5 717 Q886 748 901 781 L901 932 Z " />
<glyph glyph-name="colon" unicode="&#x3a;" horiz-adv-x="536" >
<g transform="translate(-12,0)" >
<path fill="black" d="M161 99 Q161 147 192.5 179.5 Q224 212 283 212 Q342 212 373.5 179.5 Q405 147 405 99 Q405 52 373.5 20 Q342 -12 283 -12 Q224 -12 192.5 20 Q161 52 161 99 Z " />
</g>
<g transform="translate(-8,876)" >
<path fill="black" d="M161 99 Q161 147 192.5 179.5 Q224 212 283 212 Q342 212 373.5 179.5 Q405 147 405 99 Q405 52 373.5 20 Q342 -12 283 -12 Q224 -12 192.5 20 Q161 52 161 99 Z " />
</g>
</glyph>
<glyph glyph-name="semicolon" unicode="&#x3b;" horiz-adv-x="479" >
<g transform="translate(16,0)" >
<path fill="black" d="M45 -218 Q96 -152 124.5 -82 Q153 -12 153 69 L153 221 L339 221 L339 72 Q339 27 326.5 -23 Q314 -73 290 -121 Q266 -169 232 -213.5 Q198 -258 154 -292 L45 -218 Z " />
</g>
<g transform="translate(-32,881)" >
<path fill="black" d="M161 99 Q161 147 192.5 179.5 Q224 212 283 212 Q342 212 373.5 179.5 Q405 147 405 99 Q405 52 373.5 20 Q342 -12 283 -12 Q224 -12 192.5 20 Q161 52 161 99 Z " />
</g>
</glyph>
<glyph glyph-name="less" unicode="&#x3c;" horiz-adv-x="1135" d="M83 721 L970 1099 L970 900 L290 645 L970 393 L970 194 L83 573 L83 721 Z " />
<glyph glyph-name="equal" unicode="&#x3d;" horiz-adv-x="1228" d="M168 398 L168 561 L1071 561 L1071 398 L168 398 Z M168 814 L168 977 L1071 977 L1071 814 L168 814 Z " />
<glyph glyph-name="greater" unicode="&#x3e;" horiz-adv-x="1161" d="M147 390 L863 651 L147 907 L147 1100 L1065 722 L1065 575 L147 196 L147 390 Z " />
<glyph glyph-name="question" unicode="&#x3f;" horiz-adv-x="1048" d="M395 410 Q395 482 404.5 533.5 Q414 585 435.5 627.5 Q457 670 492 709 Q527 748 578 796 Q616 832 649.5 863 Q683 894 708.5 928 Q734 962 748.5 1000.5 Q763 1039 763 1090 Q763 1194 703 1253 Q643 1312 528 1312 Q478 1312 433 1300.5 Q388 1289 353.5 1265 Q319 1241 298.5 1204 Q278 1167 278 1115 L87 1115 Q88 1200 122.5 1267 Q157 1334 216 1380.5 Q275 1427 355 1451.5 Q435 1476 528 1476 Q630 1476 709.5 1449.5 Q789 1423 843 1373.5 Q897 1324 925.5 1254 Q954 1184 954 1096 Q954 1029 932.5 969 Q911 909 874.5 855.5 Q838 802 790 754 Q742 706 689 662 Q627 612 605 548 Q583 484 583 410 L395 410 Z M382 94 Q382 139 411.5 170.5 Q441 202 497 202 Q552 202 582 170.5 Q612 139 612 94 Q612 49 582 18.5 Q552 -12 497 -12 Q441 -12 411.5 18.5 Q382 49 382 94 Z " />
<glyph glyph-name="at" unicode="&#x40;" horiz-adv-x="1998" d="M1367 -364 Q1330 -387 1281.5 -403.5 Q1233 -420 1180 -431 Q1127 -442 1072.5 -447.5 Q1018 -453 968 -453 Q763 -453 602.5 -388.5 Q442 -324 333.5 -203 Q225 -82 172.5 90.5 Q120 263 130 478 Q139 683 208 858 Q277 1033 397 1160.5 Q517 1288 683 1360 Q849 1432 1053 1432 Q1262 1432 1420.5 1366.5 Q1579 1301 1684 1180 Q1789 1059 1838.5 887 Q1888 715 1879 502 Q1875 410 1849.5 317 Q1824 224 1771.5 149 Q1719 74 1638 26.5 Q1557 -21 1442 -21 Q1341 -21 1276 24.5 Q1211 70 1184 153 Q1126 67 1049.5 23 Q973 -21 888 -21 Q809 -21 750.5 10.5 Q692 42 655 99.5 Q618 157 603.5 238 Q589 319 599 417 Q612 549 655 655 Q698 761 761.5 835.5 Q825 910 904 950 Q983 990 1068 990 Q1126 990 1170 981.5 Q1214 973 1249.5 958.5 Q1285 944 1315 925 Q1345 906 1375 884 L1320 331 Q1313 258 1325 212.5 Q1337 167 1359 142 Q1381 117 1409 108.5 Q1437 100 1463 100 Q1528 100 1579 131.5 Q1630 163 1665.5 217.5 Q1701 272 1721 345 Q1741 418 1745 502 Q1754 689 1717 837 Q1680 985 1594.5 1087.5 Q1509 1190 1373 1244.5 Q1237 1299 1048 1299 Q878 1299 740 1239 Q602 1179 502 1071 Q402 963 344.5 812 Q287 661 278 478 Q269 291 311 142 Q353 -7 442 -111.5 Q531 -216 664.5 -271.5 Q798 -327 972 -327 Q1020 -327 1069 -321.5 Q1118 -316 1164.5 -306 Q1211 -296 1253.5 -281.5 Q1296 -267 1329 -249 L1367 -364 Z M1169 331 L1218 828 Q1191 842 1157 851 Q1123 860 1082 860 Q1022 860 968.5 832 Q915 804 873 748 Q831 692 802 609.5 Q773 527 762 417 Q747 276 791 200.5 Q835 125 933 125 Q963 125 995 136.5 Q1027 148 1058 172 Q1089 196 1118 234.5 Q1147 273 1169 327 L1169 331 Z " />
<glyph glyph-name="A" unicode="A" horiz-adv-x="1439" d="M631 1456 L809 1456 L1405 0 L1200 0 L1051 380 L389 380 L241 0 L36 0 L631 1456 Z M989 540 L720 1228 L452 540 L989 540 Z " />
<glyph glyph-name="B" unicode="B" horiz-adv-x="1382" d="M189 1456 L693 1456 Q814 1456 910 1433.5 Q1006 1411 1072.5 1363.5 Q1139 1316 1174 1243 Q1209 1170 1209 1068 Q1209 966 1149 887.5 Q1089 809 983 766 Q1048 749 1098.5 715.5 Q1149 682 1183.5 637 Q1218 592 1236 537 Q1254 482 1254 421 Q1254 319 1217 240 Q1180 161 1112.5 108 Q1045 55 949.5 27.5 Q854 0 736 0 L189 0 L189 1456 Z M736 159 Q812 159 871.5 177.5 Q931 196 972 229.5 Q1013 263 1034.5 311 Q1056 359 1056 419 Q1056 479 1038 527.5 Q1020 576 982 610 Q944 644 886 662 Q828 680 747 680 L388 680 L388 159 L736 159 Z M700 837 Q772 837 829 853 Q886 869 926.5 899 Q967 929 988.5 972 Q1010 1015 1010 1069 Q1010 1189 932 1242.5 Q854 1296 693 1296 L388 1296 L388 837 L700 837 Z " />
<glyph glyph-name="C" unicode="C" horiz-adv-x="1448" d="M137 816 Q137 966 180.5 1088 Q224 1210 304.5 1296 Q385 1382 500.5 1429 Q616 1476 760 1476 Q892 1476 994.5 1441 Q1097 1406 1169.5 1342 Q1242 1278 1284 1188 Q1326 1098 1338 988 L1139 988 Q1128 1066 1102 1127 Q1076 1188 1031 1230 Q986 1272 919 1294 Q852 1316 760 1316 Q657 1316 577.5 1280 Q498 1244 444.5 1179 Q391 1114 363.5 1022 Q336 930 336 818 L336 640 Q336 536 361 445 Q386 354 436.5 286 Q487 218 564 178.5 Q641 139 745 139 Q843 139 912.5 160 Q982 181 1028 222 Q1074 263 1100.5 323.5 Q1127 384 1139 463 L1338 463 Q1326 358 1284 269 Q1242 180 1168.5 116 Q1095 52 989 16 Q883 -20 745 -20 Q607 -20 494.5 26.5 Q382 73 302.5 159.5 Q223 246 180 368 Q137 490 137 640 L137 816 Z " />
<glyph glyph-name="D" unicode="D" horiz-adv-x="1456" d="M189 1456 L633 1456 Q786 1456 912.5 1410.5 Q1039 1365 1129 1279 Q1219 1193 1269 1069.5 Q1319 946 1319 790 L1319 665 Q1319 509 1269.5 385.5 Q1220 262 1128.5 176.5 Q1037 91 907.5 45.5 Q778 0 618 0 L189 0 L189 1456 Z M618 159 Q742 159 836.5 194 Q931 229 994.5 294.5 Q1058 360 1090 454 Q1122 548 1122 665 L1122 792 Q1122 915 1089 1009 Q1056 1103 993.5 1166.5 Q931 1230 840 1263 Q749 1296 633 1296 L388 1296 L388 159 L618 159 Z " />
<glyph glyph-name="E" unicode="E" horiz-adv-x="1264" d="M189 1456 L1174 1456 L1174 1296 L388 1296 L388 831 L1074 831 L1074 672 L388 672 L388 159 L1183 159 L1183 0 L189 0 L189 1456 Z " />
<glyph glyph-name="F" unicode="F" horiz-adv-x="1235" d="M189 1456 L1163 1456 L1163 1296 L388 1296 L388 801 L1059 801 L1059 642 L388 642 L388 0 L189 0 L189 1456 Z " />
<glyph glyph-name="G" unicode="G" horiz-adv-x="1514" d="M143 804 Q143 965 185 1090 Q227 1215 307 1301 Q387 1387 503 1431.5 Q619 1476 768 1476 Q903 1476 1005 1443.5 Q1107 1411 1178 1351.5 Q1249 1292 1291 1210 Q1333 1128 1346 1029 L1149 1029 Q1138 1090 1112 1142.5 Q1086 1195 1041 1233.5 Q996 1272 929 1294 Q862 1316 770 1316 Q661 1316 580.5 1281.5 Q500 1247 447 1181.5 Q394 1116 368 1021 Q342 926 342 806 L342 653 Q342 530 374 434 Q406 338 465 272.5 Q524 207 607.5 173 Q691 139 793 139 Q876 139 936 149.5 Q996 160 1038 176 Q1080 192 1106.5 209.5 Q1133 227 1148 242 L1148 568 L777 568 L777 727 L1347 727 L1347 191 Q1325 162 1283.5 125.5 Q1242 89 1176 56.5 Q1110 24 1015 2 Q920 -20 791 -20 Q648 -20 529 24.5 Q410 69 324 155 Q238 241 190.5 366.5 Q143 492 143 653 L143 804 Z " />
<glyph glyph-name="H" unicode="H" horiz-adv-x="1580" d="M189 1456 L388 1456 L388 831 L1190 831 L1190 1456 L1389 1456 L1389 0 L1190 0 L1190 672 L388 672 L388 0 L189 0 L189 1456 Z " />
<glyph glyph-name="I" unicode="I" horiz-adv-x="613" d="M208 0 L208 1456 L407 1456 L407 0 L208 0 Z " />
<glyph glyph-name="J" unicode="J" horiz-adv-x="1229" d="M266 403 Q266 334 287 284.5 Q308 235 346.5 202.5 Q385 170 439 154.5 Q493 139 559 139 Q622 139 675.5 157.5 Q729 176 768.5 212 Q808 248 830.5 301.5 Q853 355 853 425 L853 1456 L1051 1456 L1051 425 Q1051 317 1014 233.5 Q977 150 911.5 94 Q846 38 756 9 Q666 -20 559 -20 Q451 -20 360.5 5.5 Q270 31 205 83.5 Q140 136 103.5 215.5 Q67 295 67 403 L266 403 Z " />
<glyph glyph-name="K" unicode="K" horiz-adv-x="1398" d="M189 1456 L388 1456 L388 731 L565 918 L1097 1456 L1338 1456 L720 814 L1385 0 L1146 0 L583 676 L388 485 L388 0 L189 0 L189 1456 Z " />
<glyph glyph-name="L" unicode="L" horiz-adv-x="1193" d="M189 1456 L388 1456 L388 159 L1133 159 L1133 0 L189 0 L189 1456 Z " />
<glyph glyph-name="M" unicode="M" horiz-adv-x="1932" d="M189 1456 L458 1456 L966 291 L1473 1456 L1743 1456 L1743 0 L1545 0 L1545 565 L1565 1219 L1039 0 L890 0 L367 1216 L387 565 L387 0 L189 0 L189 1456 Z " />
<glyph glyph-name="N" unicode="N" horiz-adv-x="1581" d="M189 1456 L394 1456 L1193 309 L1193 1456 L1390 1456 L1390 0 L1184 0 L388 1144 L388 0 L189 0 L189 1456 Z " />
<glyph glyph-name="O" unicode="O" horiz-adv-x="1523" d="M135 792 Q135 954 180.5 1081 Q226 1208 308.5 1295.5 Q391 1383 506.5 1429.5 Q622 1476 761 1476 Q904 1476 1019.5 1429.5 Q1135 1383 1217 1295.5 Q1299 1208 1343.5 1081 Q1388 954 1388 792 L1388 663 Q1388 501 1344 374.5 Q1300 248 1218 160 Q1136 72 1021 26 Q906 -20 763 -20 Q624 -20 508 26 Q392 72 309.5 160 Q227 248 181 374.5 Q135 501 135 663 L135 792 Z M332 663 Q332 535 362.5 438 Q393 341 449 276 Q505 211 584.5 178.5 Q664 146 763 146 Q969 146 1080 276.5 Q1191 407 1191 663 L1191 794 Q1191 1049 1078 1179 Q965 1309 761 1309 Q662 1309 583 1276.5 Q504 1244 448 1179 Q392 1114 362 1018 Q332 922 332 794 L332 663 Z " />
<glyph glyph-name="P" unicode="P" horiz-adv-x="1397" d="M189 1456 L759 1456 Q891 1456 993 1423 Q1095 1390 1164.5 1330.5 Q1234 1271 1270 1189.5 Q1306 1108 1306 1011 Q1306 906 1270.5 823.5 Q1235 741 1165.5 685 Q1096 629 994 599.5 Q892 570 759 570 L388 570 L388 0 L189 0 L189 1456 Z M759 729 Q852 729 918 749.5 Q984 770 1026 807.5 Q1068 845 1087.5 896.5 Q1107 948 1107 1009 Q1107 1065 1087.5 1117 Q1068 1169 1026 1208.5 Q984 1248 918 1272 Q852 1296 759 1296 L388 1296 L388 729 L759 729 Z " />
<glyph glyph-name="Q" unicode="Q" horiz-adv-x="1523" d="M126 792 Q126 954 171.5 1081 Q217 1208 299.5 1296 Q382 1384 497.5 1430 Q613 1476 752 1476 Q895 1476 1011 1430 Q1127 1384 1209 1296 Q1291 1208 1335.5 1081 Q1380 954 1380 792 L1380 663 Q1380 456 1310 308.5 Q1240 161 1112 77 L1381 -124 L1247 -246 L923 -2 Q844 -20 754 -20 Q615 -20 499.5 26 Q384 72 301 160 Q218 248 172 374.5 Q126 501 126 663 L126 792 Z M324 663 Q324 535 354.5 438 Q385 341 441 276 Q497 211 576.5 178.5 Q656 146 754 146 Q960 146 1071.5 276.5 Q1183 407 1183 663 L1183 794 Q1183 1049 1070 1179 Q957 1309 752 1309 Q654 1309 575 1276.5 Q496 1244 440 1179 Q384 1114 354 1018 Q324 922 324 794 L324 663 Z " />
<glyph glyph-name="R" unicode="R" horiz-adv-x="1467" d="M196 1456 L757 1456 Q1014 1456 1150 1350 Q1286 1244 1286 1040 Q1286 926 1220 844 Q1154 762 1031 714 Q1100 694 1146.5 660 Q1193 626 1221.5 582 Q1250 538 1262.5 484 Q1275 430 1275 369 L1275 236 Q1275 175 1290.5 118.5 Q1306 62 1348 25 L1348 0 L1145 0 Q1121 20 1107.5 52.5 Q1094 85 1087 120 Q1080 155 1078 187 Q1076 219 1076 238 L1076 367 Q1076 426 1056.5 474 Q1037 522 999.5 556.5 Q962 591 907 609.5 Q852 628 782 628 L395 628 L395 0 L196 0 L196 1456 Z M737 787 Q832 787 898.5 803.5 Q965 820 1007 852 Q1049 884 1068 931.5 Q1087 979 1087 1040 Q1087 1099 1068 1146 Q1049 1193 1008.5 1226.5 Q968 1260 905 1278 Q842 1296 754 1296 L395 1296 L395 787 L737 787 Z " />
<glyph glyph-name="S" unicode="S" horiz-adv-x="1322" d="M293 422 Q293 348 326 294.5 Q359 241 414 206.5 Q469 172 540 155.5 Q611 139 687 139 Q770 139 834.5 155 Q899 171 943 201 Q987 231 1010.5 273.5 Q1034 316 1034 369 Q1034 420 1016.5 458.5 Q999 497 956 529.5 Q913 562 839.5 590.5 Q766 619 653 649 Q537 680 443 719.5 Q349 759 282 810.5 Q215 862 179 928 Q143 994 143 1079 Q143 1164 181.5 1236.5 Q220 1309 290.5 1362.5 Q361 1416 459.5 1446 Q558 1476 678 1476 Q808 1476 910.5 1439 Q1013 1402 1083.5 1341 Q1154 1280 1191 1200.5 Q1228 1121 1228 1036 L1030 1036 Q1030 1097 1008 1148 Q986 1199 941.5 1236.5 Q897 1274 831 1295 Q765 1316 677 1316 Q592 1316 529 1298.5 Q466 1281 424.5 1249.5 Q383 1218 362.5 1175 Q342 1132 342 1082 Q342 1036 363 998.5 Q384 961 429.5 929.5 Q475 898 546.5 871 Q618 844 718 819 Q849 784 945.5 741 Q1042 698 1106 644 Q1170 590 1201.5 522.5 Q1233 455 1233 371 Q1233 282 1193.5 210 Q1154 138 1082.5 87 Q1011 36 910.5 8 Q810 -20 687 -20 Q579 -20 473 8.5 Q367 37 282.5 92.5 Q198 148 146 231 Q94 314 94 422 L293 422 Z " />
<glyph glyph-name="T" unicode="T" horiz-adv-x="1331" d="M568 1296 L59 1296 L59 1456 L1274 1456 L1274 1296 L764 1296 L764 0 L568 0 L568 1296 Z " />
<glyph glyph-name="U" unicode="U" horiz-adv-x="1448" d="M160 1456 L357 1456 L357 461 Q357 376 384 315 Q411 254 459.5 215 Q508 176 576 157.5 Q644 139 726 139 Q809 139 876.5 157.5 Q944 176 992.5 215 Q1041 254 1067.5 315 Q1094 376 1094 461 L1094 1456 L1293 1456 L1293 461 Q1293 338 1247.5 247.5 Q1202 157 1124.5 97.5 Q1047 38 944 9 Q841 -20 726 -20 Q606 -20 502.5 9 Q399 38 323 97.5 Q247 157 203.5 247.5 Q160 338 160 461 L160 1456 Z " />
<glyph glyph-name="V" unicode="V" horiz-adv-x="1408" d="M36 1456 L252 1456 L703 244 L1157 1456 L1374 1456 L795 0 L613 0 L36 1456 Z " />
<glyph glyph-name="W" unicode="W" horiz-adv-x="1971" d="M69 1456 L268 1456 L524 425 L553 244 L593 405 L908 1456 L1085 1456 L1393 405 L1433 240 L1465 426 L1716 1456 L1916 1456 L1536 0 L1347 0 L1022 1072 L998 1187 L973 1072 L638 0 L450 0 L69 1456 Z " />
<glyph glyph-name="X" unicode="X" horiz-adv-x="1388" d="M576 735 L77 1456 L310 1456 L696 885 L1081 1456 L1313 1456 L816 735 L1326 0 L1092 0 L696 582 L299 0 L65 0 L576 735 Z " />
<glyph glyph-name="Y" unicode="Y" horiz-adv-x="1338" d="M568 544 L23 1456 L250 1456 L668 728 L1086 1456 L1311 1456 L767 544 L767 0 L568 0 L568 544 Z " />
<glyph glyph-name="Z" unicode="Z" horiz-adv-x="1333" d="M99 147 L961 1296 L116 1296 L116 1456 L1207 1456 L1207 1314 L343 159 L1240 159 L1240 0 L99 0 L99 147 Z " />
<glyph glyph-name="bracketleft" unicode="&#x5b;" horiz-adv-x="586" d="M166 1664 L565 1664 L565 1510 L358 1510 L358 -158 L565 -158 L565 -312 L166 -312 L166 1664 Z " />
<glyph glyph-name="backslash" unicode="&#x5c;" horiz-adv-x="910" d="M49 1456 L233 1456 L887 -125 L704 -125 L49 1456 Z " />
<glyph glyph-name="bracketright" unicode="&#x5d;" horiz-adv-x="586" d="M15 -158 L222 -158 L222 1510 L15 1510 L15 1664 L414 1664 L414 -312 L15 -312 L15 -158 Z " />
<glyph glyph-name="asciicircum" unicode="&#x5e;" horiz-adv-x="936" d="M399 1456 L533 1456 L853 729 L678 729 L466 1209 L252 729 L77 729 L399 1456 Z " />
<glyph glyph-name="underscore" unicode="&#x5f;" horiz-adv-x="996" d="M9 -154 L9 0 L986 0 L986 -154 L9 -154 Z " />
<glyph glyph-name="grave" unicode="&#x60;" horiz-adv-x="695" d="M353 1242 L76 1536 L306 1536 L520 1242 L353 1242 Z " />
<glyph glyph-name="a" unicode="a" horiz-adv-x="1205" d="M143 782 Q143 840 176 897.5 Q209 955 269 1000.5 Q329 1046 414 1074 Q499 1102 604 1102 Q699 1102 779 1080.5 Q859 1059 916.5 1015 Q974 971 1006 904.5 Q1038 838 1038 747 L1038 237 Q1038 210 1040.5 180.5 Q1043 151 1048 122 Q1053 93 1060.5 66 Q1068 39 1078 17 L1078 0 L879 0 Q868 22 861 54.5 Q854 87 850 122 Q822 94 786.5 68 Q751 42 708 22.5 Q665 3 614.5 -8.5 Q564 -20 507 -20 Q419 -20 347.5 4 Q276 28 225 70.5 Q174 113 146 171.5 Q118 230 118 300 Q118 386 154.5 452.5 Q191 519 259 565 Q327 611 425 634.5 Q523 658 646 658 L846 658 L846 749 Q846 845 783 898 Q720 951 595 951 Q537 951 488.5 937.5 Q440 924 406 900.5 Q372 877 353 846.5 Q334 816 334 782 L143 782 Z M846 525 L673 525 Q498 525 403.5 475.5 Q309 426 309 326 Q309 243 367 193.5 Q425 144 536 144 Q593 144 642 158 Q691 172 731 195 Q771 218 800 246.5 Q829 275 846 305 L846 525 Z " />
<glyph glyph-name="b" unicode="b" horiz-adv-x="1246" d="M158 1536 L350 1536 L350 951 Q407 1024 490 1063 Q573 1102 686 1102 Q795 1102 879.5 1064.5 Q964 1027 1021.5 957 Q1079 887 1108.5 786.5 Q1138 686 1138 560 L1138 519 Q1138 398 1108 299 Q1078 200 1021 129 Q964 58 880 19 Q796 -20 688 -20 Q572 -20 487 20.5 Q402 61 344 136 L334 0 L158 0 L158 1536 Z M350 311 Q369 275 396 243.5 Q423 212 459 189 Q495 166 540.5 152.5 Q586 139 642 139 Q723 139 780.5 167.5 Q838 196 875 246.5 Q912 297 929 367 Q946 437 946 519 L946 560 Q946 643 930 713 Q914 783 877.5 834.5 Q841 886 782.5 915 Q724 944 640 944 Q583 944 537 931.5 Q491 919 455.5 896.5 Q420 874 394 843 Q368 812 350 776 L350 311 Z " />
<glyph glyph-name="c" unicode="c" horiz-adv-x="1161" d="M104 572 Q104 683 136 779.5 Q168 876 232 948 Q296 1020 392.5 1061 Q489 1102 618 1102 Q719 1102 802 1073 Q885 1044 945.5 991.5 Q1006 939 1041 867.5 Q1076 796 1080 710 L899 710 Q895 762 873.5 805.5 Q852 849 815 880.5 Q778 912 728 930 Q678 948 618 948 Q526 948 464 916.5 Q402 885 364.5 832.5 Q327 780 311 712 Q295 644 295 572 L295 510 Q295 437 310.5 369.5 Q326 302 363.5 249.5 Q401 197 463 165.5 Q525 134 618 134 Q672 134 721.5 148.5 Q771 163 809 190 Q847 217 871 255.5 Q895 294 899 342 L1080 342 Q1076 268 1038 202 Q1000 136 937.5 86.5 Q875 37 793 8.5 Q711 -20 619 -20 Q489 -20 392.5 21 Q296 62 232 134 Q168 206 136 302.5 Q104 399 104 510 L104 572 Z " />
<glyph glyph-name="d" unicode="d" horiz-adv-x="1251" d="M109 560 Q109 686 141.5 786.5 Q174 887 233.5 957 Q293 1027 377.5 1064.5 Q462 1102 566 1102 Q675 1102 756.5 1065 Q838 1028 895 959 L895 1536 L1087 1536 L1087 0 L910 0 L901 128 Q844 56 760.5 18 Q677 -20 564 -20 Q461 -20 377 19 Q293 58 233.5 129 Q174 200 141.5 299 Q109 398 109 519 L109 560 Z M301 519 Q301 437 319 367 Q337 297 374.5 246.5 Q412 196 470.5 167.5 Q529 139 610 139 Q665 139 709 151 Q753 163 788 184.5 Q823 206 849.5 235.5 Q876 265 895 300 L895 790 Q876 823 850 851 Q824 879 789 900 Q754 921 710 932.5 Q666 944 612 944 Q530 944 471.5 915 Q413 886 375 834.5 Q337 783 319 713 Q301 643 301 560 L301 519 Z " />
<glyph glyph-name="e" unicode="e" horiz-adv-x="1176" d="M104 555 Q104 690 145.5 792.5 Q187 895 257.5 964 Q328 1033 420 1067.5 Q512 1102 613 1102 Q735 1102 825 1063.5 Q915 1025 974 955.5 Q1033 886 1062 789 Q1091 692 1091 576 L1091 487 L295 487 Q296 409 321 344 Q346 279 392 232.5 Q438 186 503 160 Q568 134 649 134 Q754 134 829 172 Q904 210 961 273 L1072 178 Q1044 141 1004.5 105 Q965 69 912 41.5 Q859 14 791 -3 Q723 -20 639 -20 Q518 -20 419 16.5 Q320 53 250 120 Q180 187 142 281.5 Q104 376 104 493 L104 555 Z M899 640 L899 658 Q896 714 879.5 766 Q863 818 829.5 858.5 Q796 899 742.5 923.5 Q689 948 613 948 Q550 948 496.5 929.5 Q443 911 402.5 872.5 Q362 834 335.5 776 Q309 718 300 640 L899 640 Z " />
<glyph glyph-name="f" unicode="f" horiz-adv-x="772" d="M255 938 L70 938 L70 1082 L255 1082 L255 1196 Q255 1283 281 1350.5 Q307 1418 356 1464 Q405 1510 474.5 1533.5 Q544 1557 632 1557 Q667 1557 702 1553 Q737 1549 771 1541 L761 1388 Q715 1397 652 1397 Q555 1397 500.5 1345 Q446 1293 446 1196 L446 1082 L700 1082 L700 938 L446 938 L446 0 L255 0 L255 938 Z " />
<glyph glyph-name="g" unicode="g" horiz-adv-x="1175" d="M675 197 Q777 197 858 179.5 Q939 162 995 125.5 Q1051 89 1081 33.5 Q1111 -22 1111 -98 Q1111 -155 1072.5 -215.5 Q1034 -276 960.5 -325.5 Q887 -375 780.5 -406.5 Q674 -438 537 -438 Q417 -438 324.5 -415.5 Q232 -393 169.5 -355 Q107 -317 75 -267 Q43 -217 43 -161 Q43 -113 59 -73 Q75 -33 102 -0.5 Q129 32 165 57.5 Q201 83 240 101 Q212 123 196.5 153 Q181 183 181 222 Q181 260 191.5 291 Q202 322 219 346.5 Q236 371 258 391 Q280 411 302 426 Q211 475 160 552 Q109 629 109 721 L109 743 Q109 821 142.5 887 Q176 953 237 1001 Q298 1049 382 1075.5 Q466 1102 567 1102 Q654 1102 731 1082 L1118 1082 L1119 934 L965 934 Q995 893 1011 845 Q1027 797 1027 743 L1027 721 Q1027 648 993.5 582.5 Q960 517 899.5 468.5 Q839 420 755 391.5 Q671 363 570 363 Q482 363 408 384 Q385 367 368 341.5 Q351 316 351 279 Q351 256 361.5 240 Q372 224 390.5 214.5 Q409 205 434 201 Q459 197 487 197 L675 197 Z M836 743 Q836 785 817 822 Q798 859 762.5 887 Q727 915 677.5 931.5 Q628 948 567 948 Q507 948 458 931.5 Q409 915 373.5 887 Q338 859 319 822 Q300 785 300 743 L300 721 Q300 682 319 645.5 Q338 609 373.5 580 Q409 551 459 533.5 Q509 516 570 516 Q630 516 679.5 533.5 Q729 551 763.5 580 Q798 609 817 645.5 Q836 682 836 721 L836 743 Z M452 43 Q430 43 408.5 44.5 Q387 46 367 50 Q339 39 314.5 22 Q290 5 272 -17.5 Q254 -40 243.5 -67 Q233 -94 233 -124 Q233 -157 251.5 -186.5 Q270 -216 307.5 -237.5 Q345 -259 402 -272 Q459 -285 537 -285 Q630 -285 701.5 -267.5 Q773 -250 821 -222.5 Q869 -195 894 -162 Q919 -129 919 -98 Q919 -64 906.5 -38 Q894 -12 865 6 Q836 24 789 33.5 Q742 43 672 43 L452 43 Z " />
<glyph glyph-name="h" unicode="h" horiz-adv-x="1227" d="M158 1536 L350 1536 L350 939 Q412 1016 500.5 1059 Q589 1102 699 1102 Q785 1102 854 1080.5 Q923 1059 971.5 1012 Q1020 965 1046 890.5 Q1072 816 1072 709 L1072 0 L881 0 L881 711 Q881 836 819 890 Q757 944 642 944 Q539 944 465 894.5 Q391 845 350 765 L350 0 L158 0 L158 1536 Z " />
<glyph glyph-name="i" unicode="i" horiz-adv-x="542" >
<g transform="translate(1,0)" >
<path fill="black" d="M175 0 L175 1082 L367 1082 L367 0 L175 0 Z " />
</g>
<g transform="translate(0,2)" >
<path fill="black" d="M158 1367 Q158 1412 187.5 1443.5 Q217 1475 273 1475 Q328 1475 358 1443.5 Q388 1412 388 1367 Q388 1322 358 1291.5 Q328 1261 273 1261 Q217 1261 187.5 1291.5 Q158 1322 158 1367 Z " />
</g>
</glyph>
<glyph glyph-name="j" unicode="j" horiz-adv-x="538" d="M-76 -269 Q-55 -274 -29 -276 Q-3 -278 18 -278 Q90 -278 128.5 -244.5 Q167 -211 167 -129 L167 1082 L359 1082 L359 -129 Q359 -279 280.5 -358 Q202 -437 46 -437 Q18 -437 -16.5 -432.5 Q-51 -428 -77 -420 L-76 -269 Z M146 1369 Q146 1414 175.5 1445.5 Q205 1477 261 1477 Q316 1477 346 1445.5 Q376 1414 376 1369 Q376 1324 346 1293.5 Q316 1263 261 1263 Q205 1263 175.5 1293.5 Q146 1324 146 1369 Z " />
<glyph glyph-name="k" unicode="k" horiz-adv-x="1126" d="M160 1536 L351 1536 L351 595 L835 1082 L1069 1082 L610 633 L1118 0 L893 0 L478 500 L351 371 L351 0 L160 0 L160 1536 Z " />
<glyph glyph-name="l" unicode="l" horiz-adv-x="677" d="M174 1536 L366 1536 L366 268 Q366 227 376.5 202 Q387 177 405 163.5 Q423 150 447 145.5 Q471 141 498 141 Q524 141 551 145.5 Q578 150 594 153 L596 0 Q572 -7 533 -13.5 Q494 -20 444 -20 Q387 -20 337.5 -5.5 Q288 9 252 43 Q216 77 195 132.5 Q174 188 174 269 L174 1536 Z " />
<glyph glyph-name="m" unicode="m" horiz-adv-x="1947" d="M157 1082 L338 1082 L344 948 Q404 1020 491 1061 Q578 1102 695 1102 Q811 1102 900 1058.5 Q989 1015 1032 918 Q1090 1000 1184.5 1051 Q1279 1102 1406 1102 Q1498 1102 1570 1079.5 Q1642 1057 1691.5 1009 Q1741 961 1766.5 887 Q1792 813 1792 711 L1792 0 L1601 0 L1601 713 Q1601 780 1583 824.5 Q1565 869 1532.5 895.5 Q1500 922 1453.5 933 Q1407 944 1350 944 Q1287 944 1237.5 926.5 Q1188 909 1153 879 Q1118 849 1097 809 Q1076 769 1069 722 L1069 721 L1069 0 L878 0 L878 712 Q878 774 860 818 Q842 862 809.5 890 Q777 918 730.5 931 Q684 944 627 944 Q515 944 448 897.5 Q381 851 348 777 L348 0 L157 0 L157 1082 Z " />
<glyph glyph-name="n" unicode="n" horiz-adv-x="1229" d="M159 1082 L340 1082 L346 933 Q409 1012 499 1057 Q589 1102 701 1102 Q787 1102 856 1080.5 Q925 1059 973 1012 Q1021 965 1047 890.5 Q1073 816 1073 709 L1073 0 L881 0 L881 711 Q881 836 819 890 Q757 944 642 944 Q539 944 465 894.5 Q391 845 350 764 L350 0 L159 0 L159 1082 Z " />
<glyph glyph-name="o" unicode="o" horiz-adv-x="1264" d="M103 562 Q103 681 140.5 780.5 Q178 880 246.5 951.5 Q315 1023 412.5 1062.5 Q510 1102 630 1102 Q752 1102 850 1062.5 Q948 1023 1017 951.5 Q1086 880 1123 780.5 Q1160 681 1160 562 L1160 519 Q1160 400 1123 301 Q1086 202 1017.5 130.5 Q949 59 851.5 19.5 Q754 -20 633 -20 Q512 -20 414 19.5 Q316 59 247 130.5 Q178 202 140.5 301 Q103 400 103 519 L103 562 Z M295 519 Q295 437 316.5 367 Q338 297 380.5 245 Q423 193 486.5 163.5 Q550 134 633 134 Q716 134 779 163.5 Q842 193 884 245 Q926 297 947.5 367 Q969 437 969 519 L969 562 Q969 643 947.5 713.5 Q926 784 883 836 Q840 888 776.5 918 Q713 948 630 948 Q548 948 485.5 918 Q423 888 380.5 836 Q338 784 316.5 713.5 Q295 643 295 562 L295 519 Z " />
<glyph glyph-name="p" unicode="p" horiz-adv-x="1245" d="M158 1082 L334 1082 L344 951 Q403 1024 487 1063 Q571 1102 684 1102 Q794 1102 878 1064.5 Q962 1027 1019.5 957 Q1077 887 1106.5 786.5 Q1136 686 1136 560 L1136 519 Q1136 398 1106.5 299 Q1077 200 1019.5 129 Q962 58 878.5 19 Q795 -20 687 -20 Q575 -20 492 15.5 Q409 51 350 117 L350 -416 L158 -416 L158 1082 Z M350 284 Q370 252 396 224.5 Q422 197 457 177 Q492 157 535.5 145.5 Q579 134 633 134 Q714 134 773 163 Q832 192 870 244 Q908 296 926.5 366.5 Q945 437 945 519 L945 560 Q945 643 926.5 713 Q908 783 869.5 834.5 Q831 886 771.5 915 Q712 944 630 944 Q576 944 533 932.5 Q490 921 455.5 901 Q421 881 395 853.5 Q369 826 350 794 L350 284 Z " />
<glyph glyph-name="q" unicode="q" horiz-adv-x="1259" d="M895 114 Q837 49 756 14.5 Q675 -20 567 -20 Q459 -20 374 19 Q289 58 230 129 Q171 200 140 299 Q109 398 109 519 L109 560 Q109 686 140 786.5 Q171 887 230 957 Q289 1027 374.5 1064.5 Q460 1102 569 1102 Q678 1102 760.5 1065 Q843 1028 901 959 L910 1082 L1086 1082 L1086 -416 L895 -416 L895 114 Z M301 519 Q301 437 319.5 366.5 Q338 296 376 244 Q414 192 473.5 163 Q533 134 614 134 Q718 134 786.5 177 Q855 220 895 286 L895 802 Q855 865 787 906.5 Q719 948 615 948 Q534 948 474.5 918.5 Q415 889 376.5 836.5 Q338 784 319.5 713.5 Q301 643 301 560 L301 519 Z " />
<glyph glyph-name="r" unicode="r" horiz-adv-x="763" d="M159 1082 L344 1082 L349 949 Q394 1019 465 1060.5 Q536 1102 636 1102 Q658 1102 685.5 1097.5 Q713 1093 725 1088 L723 909 Q699 914 676.5 915.5 Q654 917 627 917 Q518 917 450 876 Q382 835 350 763 L350 0 L159 0 L159 1082 Z " />
<glyph glyph-name="s" unicode="s" horiz-adv-x="1144" d="M298 333 Q301 276 328 238 Q355 200 395 176.5 Q435 153 484.5 143.5 Q534 134 582 134 Q707 134 772.5 176.5 Q838 219 838 285 Q838 315 827 341 Q816 367 785.5 389.5 Q755 412 700.5 432.5 Q646 453 559 472 Q463 494 386.5 521.5 Q310 549 256.5 586 Q203 623 175 672 Q147 721 147 787 Q147 852 177 909 Q207 966 263 1009 Q319 1052 398 1077 Q477 1102 575 1102 Q680 1102 762.5 1075.5 Q845 1049 902 1003.5 Q959 958 989 897 Q1019 836 1019 766 L828 766 Q828 799 811.5 831.5 Q795 864 762.5 890 Q730 916 683 932 Q636 948 575 948 Q512 948 466.5 935 Q421 922 392.5 900 Q364 878 350.5 850 Q337 822 337 793 Q337 763 348.5 740.5 Q360 718 390.5 699 Q421 680 475 662.5 Q529 645 614 625 Q720 600 798 570.5 Q876 541 927.5 502.5 Q979 464 1004 414.5 Q1029 365 1029 299 Q1029 228 997 169 Q965 110 906.5 68 Q848 26 765.5 3 Q683 -20 581 -20 Q466 -20 377.5 10 Q289 40 229 89 Q169 138 138 202 Q107 266 107 333 L298 333 Z " />
<glyph glyph-name="t" unicode="t" horiz-adv-x="732" d="M229 938 L20 938 L20 1082 L229 1082 L229 1344 L421 1344 L421 1082 L642 1082 L642 938 L421 938 L421 268 Q421 227 432 202 Q443 177 461 163.5 Q479 150 503 145.5 Q527 141 553 141 Q579 141 606 145.5 Q633 150 650 153 L652 0 Q627 -7 588.5 -13.5 Q550 -20 499 -20 Q442 -20 393 -5.5 Q344 9 307.5 43 Q271 77 250 132.5 Q229 188 229 269 L229 938 Z " />
<glyph glyph-name="u" unicode="u" horiz-adv-x="1228" d="M154 1082 L346 1082 L346 382 Q346 309 364.5 262 Q383 215 414 187.5 Q445 160 485.5 149.5 Q526 139 569 139 Q695 139 769.5 184 Q844 229 878 302 L878 1082 L1070 1082 L1070 0 L888 0 L883 117 Q829 52 743.5 16 Q658 -20 537 -20 Q452 -20 381 2.5 Q310 25 260 74 Q210 123 182 199.5 Q154 276 154 384 L154 1082 Z " />
<glyph glyph-name="v" unicode="v" horiz-adv-x="1082" d="M41 1082 L238 1082 L542 247 L840 1082 L1037 1082 L616 0 L464 0 L41 1082 Z " />
<glyph glyph-name="w" unicode="w" horiz-adv-x="1667" d="M57 1082 L247 1082 L479 235 L754 1082 L908 1082 L1187 222 L1414 1082 L1605 1082 L1270 0 L1113 0 L828 852 L548 0 L392 0 L57 1082 Z " />
<glyph glyph-name="x" unicode="x" horiz-adv-x="1103" d="M445 548 L64 1082 L283 1082 L548 681 L815 1082 L1036 1082 L655 548 L1049 0 L830 0 L550 412 L271 0 L51 0 L445 548 Z " />
<glyph glyph-name="y" unicode="y" horiz-adv-x="1061" d="M101 -269 Q111 -271 130.5 -272 Q150 -273 158 -273 Q209 -273 247 -264 Q285 -255 314 -234.5 Q343 -214 366 -180.5 Q389 -147 409 -98 L452 9 L31 1082 L239 1082 L547 266 L824 1082 L1029 1082 L555 -167 Q540 -207 514.5 -254.5 Q489 -302 448.5 -342.5 Q408 -383 350.5 -410 Q293 -437 213 -437 Q200 -437 184.5 -435 Q169 -433 153 -430.5 Q137 -428 123.5 -425.5 Q110 -423 101 -421 L101 -269 Z " />
<glyph glyph-name="z" unicode="z" horiz-adv-x="1102" d="M100 138 L749 927 L113 927 L113 1082 L990 1082 L990 949 L337 154 L1025 154 L1025 0 L100 0 L100 138 Z " />
<glyph glyph-name="braceleft" unicode="&#x7b;" horiz-adv-x="752" d="M305 306 Q305 360 292 404 Q279 448 251 478.5 Q223 509 179.5 526 Q136 543 75 543 L75 690 Q136 690 179.5 706.5 Q223 723 251 754 Q279 785 292 828.5 Q305 872 305 926 L305 1132 Q305 1211 323.5 1282.5 Q342 1354 386 1414.5 Q430 1475 502.5 1521.5 Q575 1568 684 1597 L723 1482 Q659 1463 615 1429 Q571 1395 544 1349.5 Q517 1304 505.5 1248.5 Q494 1193 494 1132 L494 926 Q494 826 452.5 745 Q411 664 320 616 Q411 569 452.5 487.5 Q494 406 494 306 L494 101 Q494 40 506 -15 Q518 -70 545 -115.5 Q572 -161 616 -195 Q660 -229 724 -248 L684 -365 Q575 -336 502.5 -289 Q430 -242 386 -181.5 Q342 -121 323.5 -49.5 Q305 22 305 101 L305 306 Z " />
<glyph glyph-name="bar" unicode="&#x7c;" horiz-adv-x="545" d="M198 -270 L198 1456 L350 1456 L350 -270 L198 -270 Z " />
<glyph glyph-name="braceright" unicode="&#x7d;" horiz-adv-x="753" d="M26 -248 Q91 -229 135 -195 Q179 -161 206 -115.5 Q233 -70 245 -15 Q257 40 257 101 L257 306 Q257 411 302.5 491.5 Q348 572 448 616 Q348 659 302.5 741 Q257 823 257 926 L257 1132 Q257 1193 245.5 1248.5 Q234 1304 207 1349.5 Q180 1395 136 1429 Q92 1463 27 1482 L67 1597 Q176 1568 248.5 1521.5 Q321 1475 364.5 1414.5 Q408 1354 426.5 1282.5 Q445 1211 445 1132 L445 926 Q445 872 458 828.5 Q471 785 499 754 Q527 723 571 706.5 Q615 690 676 690 L676 543 Q615 543 571 526 Q527 509 499 478.5 Q471 448 458 404 Q445 360 445 306 L445 101 Q445 22 426.5 -49.5 Q408 -121 364.5 -181.5 Q321 -242 248.5 -289 Q176 -336 67 -365 L26 -248 Z " />
<glyph glyph-name="asciitilde" unicode="&#x7e;" horiz-adv-x="1508" d="M149 436 Q149 514 173.5 581.5 Q198 649 242.5 698 Q287 747 350 775 Q413 803 490 803 Q537 803 577.5 793.5 Q618 784 656.5 766 Q695 748 732 722.5 Q769 697 809 664 Q870 615 916 590.5 Q962 566 1016 566 Q1059 566 1093.5 581.5 Q1128 597 1152.5 625 Q1177 653 1190 692 Q1203 731 1203 778 L1360 778 Q1360 701 1335 632.5 Q1310 564 1265 513 Q1220 462 1157 432 Q1094 402 1017 402 Q970 402 930 411 Q890 420 852.5 437 Q815 454 777.5 480 Q740 506 698 540 Q641 587 594 612.5 Q547 638 492 638 Q407 638 360 584.5 Q313 531 313 437 L149 436 Z " />
<glyph glyph-name="uni00A0" unicode="&#xa0;" horiz-adv-x="557" />
<glyph glyph-name="exclamdown" unicode="&#xa1;" horiz-adv-x="544" d="M191 684 L363 684 L377 -361 L177 -361 L191 684 Z M156 994 Q156 1039 185.5 1070.5 Q215 1102 271 1102 Q326 1102 356 1070.5 Q386 1039 386 994 Q386 949 356 918.5 Q326 888 271 888 Q215 888 185.5 918.5 Q156 949 156 994 Z " />
<glyph glyph-name="cent" unicode="&#xa2;" horiz-adv-x="1088" d="M537 -12 Q433 4 355.5 50 Q278 96 227 165 Q176 234 150.5 322.5 Q125 411 125 510 L125 572 Q125 671 150.5 759.5 Q176 848 227.5 917 Q279 986 356.5 1032.5 Q434 1079 537 1095 L537 1318 L721 1318 L721 1097 Q805 1086 873.5 1052.5 Q942 1019 991.5 968.5 Q1041 918 1069.5 852.5 Q1098 787 1101 710 L920 710 Q916 762 894.5 805.5 Q873 849 836 880.5 Q799 912 749 930 Q699 948 639 948 Q547 948 485 916.5 Q423 885 385.5 832.5 Q348 780 332 712 Q316 644 316 572 L316 510 Q316 437 331.5 369.5 Q347 302 384.5 249.5 Q422 197 484 165.5 Q546 134 639 134 Q693 134 742.5 148.5 Q792 163 830 190 Q868 217 892 255.5 Q916 294 920 342 L1101 342 Q1098 276 1067.5 216.5 Q1037 157 986 109.5 Q935 62 867 30 Q799 -2 721 -14 L721 -245 L537 -245 L537 -12 Z " />
<glyph glyph-name="sterling" unicode="&#xa3;" horiz-adv-x="1290" d="M110 159 L199 159 Q227 166 246 192.5 Q265 219 276.5 255 Q288 291 293 330.5 Q298 370 297 403 L291 622 L105 622 L105 781 L286 781 L279 1039 Q276 1143 310 1224 Q344 1305 406 1361 Q468 1417 554.5 1446.5 Q641 1476 743 1476 Q848 1476 930.5 1448 Q1013 1420 1070 1368.5 Q1127 1317 1156.5 1245.5 Q1186 1174 1186 1087 L989 1087 Q989 1149 967.5 1193 Q946 1237 910 1264.5 Q874 1292 827 1304.5 Q780 1317 729 1317 Q674 1317 627 1298.5 Q580 1280 545.5 1245 Q511 1210 491.5 1158 Q472 1106 472 1039 L481 781 L831 781 L831 622 L486 622 L494 404 Q497 334 480.5 270.5 Q464 207 429 159 L1214 159 L1214 0 L110 0 L110 159 Z " />
<glyph glyph-name="currency" unicode="&#xa4;" horiz-adv-x="1626" d="M118 112 L270 252 Q216 327 186 417 Q156 507 156 608 Q156 714 188.5 806.5 Q221 899 280 977 L118 1126 L249 1264 L417 1109 Q501 1169 602 1201.5 Q703 1234 816 1234 Q930 1234 1031.5 1201 Q1133 1168 1217 1108 L1389 1265 L1521 1126 L1355 973 Q1412 897 1444 804.5 Q1476 712 1476 608 Q1476 508 1447 419 Q1418 330 1364 255 L1521 112 L1389 -27 L1231 117 Q1146 52 1040 16 Q934 -20 816 -20 Q698 -20 593 15.5 Q488 51 403 116 L249 -26 L118 112 Z M329 608 Q329 514 367.5 431.5 Q406 349 472 287.5 Q538 226 626.5 190 Q715 154 816 154 Q917 154 1005.5 190 Q1094 226 1160 287.5 Q1226 349 1264 431.5 Q1302 514 1302 608 Q1302 702 1264 784 Q1226 866 1160 927.5 Q1094 989 1005.5 1024.5 Q917 1060 816 1060 Q715 1060 626.5 1024.5 Q538 989 472 927.5 Q406 866 367.5 784 Q329 702 329 608 Z " />
<glyph glyph-name="yen" unicode="&#xa5;" horiz-adv-x="1167" d="M130 448 L481 448 L481 612 L130 612 L130 738 L419 738 L24 1456 L246 1456 L582 776 L586 776 L923 1456 L1142 1456 L748 738 L1034 738 L1034 612 L679 612 L679 448 L1034 448 L1034 322 L679 322 L679 0 L481 0 L481 322 L130 322 L130 448 Z " />
<glyph glyph-name="brokenbar" unicode="&#xa6;" horiz-adv-x="535" d="M168 -270 L168 522 L358 522 L358 -270 L168 -270 Z M168 698 L168 1456 L358 1456 L358 698 L168 698 Z " />
<glyph glyph-name="section" unicode="&#xa7;" horiz-adv-x="1362" d="M298 -62 Q298 -141 331 -194.5 Q364 -248 417 -280.5 Q470 -313 535.5 -327 Q601 -341 666 -341 Q745 -341 806.5 -325 Q868 -309 910.5 -280.5 Q953 -252 975 -213.5 Q997 -175 997 -130 Q997 -84 979 -49.5 Q961 -15 917.5 13.5 Q874 42 801.5 68.5 Q729 95 619 126 Q501 155 407 190 Q313 225 248 274 Q183 323 148 390 Q113 457 113 551 Q113 644 163.5 713.5 Q214 783 305 825 Q234 874 197 942 Q160 1010 160 1110 Q160 1193 197 1261 Q234 1329 302.5 1377 Q371 1425 468 1451 Q565 1477 684 1477 Q807 1477 904.5 1449 Q1002 1421 1070 1366 Q1138 1311 1174.5 1230.5 Q1211 1150 1211 1046 L1019 1046 Q1019 1103 997.5 1153.5 Q976 1204 933.5 1241.5 Q891 1279 828.5 1301 Q766 1323 684 1323 Q598 1323 535 1306 Q472 1289 431 1260.5 Q390 1232 370.5 1193.5 Q351 1155 351 1112 Q351 1062 367.5 1026.5 Q384 991 426 963 Q468 935 541 910 Q614 885 728 856 Q848 825 942.5 790 Q1037 755 1102 706.5 Q1167 658 1201 591.5 Q1235 525 1235 431 Q1235 336 1184 267 Q1133 198 1039 158 Q1112 109 1150 41 Q1188 -27 1188 -128 Q1188 -215 1151 -283 Q1114 -351 1045.5 -398.5 Q977 -446 881 -470.5 Q785 -495 666 -495 Q563 -495 462.5 -473 Q362 -451 283 -401 Q204 -351 155.5 -268.5 Q107 -186 107 -64 L298 -62 Z M304 553 Q304 503 321 467 Q338 431 381.5 402 Q425 373 500.5 347 Q576 321 693 291 Q741 278 784.5 265.5 Q828 253 867 239 Q953 260 998.5 310 Q1044 360 1044 428 Q1044 475 1025 510 Q1006 545 961 575 Q916 605 840.5 632 Q765 659 652 688 Q603 701 558.5 714 Q514 727 473 742 Q385 722 344.5 672 Q304 622 304 553 Z " />
<glyph glyph-name="dieresis" unicode="&#xa8;" horiz-adv-x="969" >
<g transform="translate(-38,4)" >
<path fill="black" d="M158 1367 Q158 1412 187.5 1443.5 Q217 1475 273 1475 Q328 1475 358 1443.5 Q388 1412 388 1367 Q388 1322 358 1291.5 Q328 1261 273 1261 Q217 1261 187.5 1291.5 Q158 1322 158 1367 Z " />
</g>
<g transform="translate(447,2)" >
<path fill="black" d="M158 1367 Q158 1412 187.5 1443.5 Q217 1475 273 1475 Q328 1475 358 1443.5 Q388 1412 388 1367 Q388 1322 358 1291.5 Q328 1261 273 1261 Q217 1261 187.5 1291.5 Q158 1322 158 1367 Z " />
</g>
</glyph>
<glyph glyph-name="copyright" unicode="&#xa9;" horiz-adv-x="1797" d="M108 729 Q108 888 170 1024.5 Q232 1161 339 1261.5 Q446 1362 589 1419 Q732 1476 895 1476 Q1057 1476 1200.5 1419 Q1344 1362 1451 1261.5 Q1558 1161 1620 1024.5 Q1682 888 1682 729 Q1682 570 1620 433 Q1558 296 1451 195 Q1344 94 1200.5 36.5 Q1057 -21 895 -21 Q732 -21 589 36.5 Q446 94 339 195 Q232 296 170 433 Q108 570 108 729 Z M227 729 Q227 596 279.5 481 Q332 366 423 281.5 Q514 197 635.5 148.5 Q757 100 895 100 Q1033 100 1154.5 148.5 Q1276 197 1366.5 281.5 Q1457 366 1509.5 481 Q1562 596 1562 729 Q1562 862 1509.5 976.5 Q1457 1091 1366.5 1175 Q1276 1259 1154.5 1307 Q1033 1355 895 1355 Q757 1355 635.5 1307 Q514 1259 423 1175 Q332 1091 279.5 976.5 Q227 862 227 729 Z M502 787 Q502 873 528.5 944 Q555 1015 604.5 1066 Q654 1117 724 1145.5 Q794 1174 881 1174 Q965 1174 1032 1154.5 Q1099 1135 1146 1096 Q1193 1057 1218.5 998 Q1244 939 1244 861 L1098 861 Q1098 959 1042.5 1001.5 Q987 1044 881 1044 Q824 1044 780.5 1025 Q737 1006 707.5 972 Q678 938 663 891 Q648 844 648 788 L648 670 Q648 613 663 566 Q678 519 707.5 485 Q737 451 780.5 432 Q824 413 881 413 Q987 413 1042 455 Q1097 497 1097 597 L1243 597 Q1243 518 1218 459 Q1193 400 1146 361 Q1099 322 1032 302.5 Q965 283 881 283 Q794 283 724 311 Q654 339 604.5 390 Q555 441 528.5 512.5 Q502 584 502 670 L502 787 Z " />
<glyph glyph-name="guillemotleft" unicode="&#xab;" horiz-adv-x="1044" >
<g transform="translate(-2,-2)" >
<path fill="black" d="M123 542 L123 561 L439 949 L586 949 L306 551 L586 153 L439 153 L123 542 Z " />
</g>
<g transform="translate(311,0)" >
<path fill="black" d="M123 542 L123 561 L439 949 L586 949 L306 551 L586 153 L439 153 L123 542 Z " />
</g>
</glyph>
<glyph glyph-name="logicalnot" unicode="&#xac;" horiz-adv-x="1228" d="M142 802 L1032 802 L1032 375 L848 375 L848 638 L142 638 L142 802 Z " />
<glyph glyph-name="uni00AD" unicode="&#xad;" horiz-adv-x="645" >
<g transform="translate(2,0)" >
<path fill="black" d="M56 541 L56 695 L585 695 L585 541 L56 541 Z " />
</g>
</glyph>
<glyph glyph-name="registered" unicode="&#xae;" horiz-adv-x="1799" d="M106 729 Q106 888 168 1024.5 Q230 1161 337 1261.5 Q444 1362 587 1419 Q730 1476 893 1476 Q1055 1476 1198.5 1419 Q1342 1362 1449 1261.5 Q1556 1161 1618 1024.5 Q1680 888 1680 729 Q1680 570 1618 433 Q1556 296 1449 195 Q1342 94 1198.5 36.5 Q1055 -21 893 -21 Q730 -21 587 36.5 Q444 94 337 195 Q230 296 168 433 Q106 570 106 729 Z M225 729 Q225 596 277.5 481 Q330 366 421 281.5 Q512 197 633.5 148.5 Q755 100 893 100 Q1031 100 1152.5 148.5 Q1274 197 1364.5 281.5 Q1455 366 1507.5 481 Q1560 596 1560 729 Q1560 862 1507.5 976.5 Q1455 1091 1364.5 1175 Q1274 1259 1152.5 1307 Q1031 1355 893 1355 Q755 1355 633.5 1307 Q512 1259 421 1175 Q330 1091 277.5 976.5 Q225 862 225 729 Z M582 1165 L883 1165 Q965 1165 1030 1149.5 Q1095 1134 1140.5 1102 Q1186 1070 1210 1022 Q1234 974 1234 909 Q1234 850 1202.5 797.5 Q1171 745 1110 716 Q1175 687 1201 634 Q1227 581 1227 514 L1227 460 Q1227 422 1230.5 389 Q1234 356 1245 333 L1245 317 L1097 317 Q1092 330 1089 350 Q1086 370 1084.5 391 Q1083 412 1083 431 Q1083 450 1083 461 L1083 513 Q1083 585 1045 619.5 Q1007 654 914 654 L725 654 L725 317 L582 317 L582 1165 Z M905 784 Q943 785 976.5 793 Q1010 801 1036 816 Q1062 831 1077 853 Q1092 875 1092 904 Q1092 941 1081 966.5 Q1070 992 1045.5 1007.5 Q1021 1023 981 1030 Q941 1037 883 1037 L725 1037 L725 784 L905 784 Z " />
<glyph glyph-name="overscore" unicode="&#xaf;" horiz-adv-x="1014" d="M160 1301 L160 1445 L871 1445 L871 1301 L160 1301 Z " />
<glyph glyph-name="degree" unicode="&#xb0;" horiz-adv-x="858" d="M151 1216 Q151 1270 173.5 1317.5 Q196 1365 234 1400.5 Q272 1436 323 1456.5 Q374 1477 432 1477 Q489 1477 539 1456.5 Q589 1436 626.5 1400.5 Q664 1365 686 1317.5 Q708 1270 708 1216 Q708 1162 686 1115.5 Q664 1069 626.5 1034 Q589 999 539 979 Q489 959 432 959 Q374 959 323 979 Q272 999 234 1034 Q196 1069 173.5 1115.5 Q151 1162 151 1216 Z M279 1216 Q279 1189 291 1165.5 Q303 1142 324 1125 Q345 1108 373 1098.5 Q401 1089 432 1089 Q464 1089 491 1098.5 Q518 1108 537.5 1125 Q557 1142 568.5 1165.5 Q580 1189 580 1216 Q580 1244 568.5 1268 Q557 1292 537.5 1310 Q518 1328 491 1338 Q464 1348 432 1348 Q401 1348 373 1338 Q345 1328 324 1310 Q303 1292 291 1268 Q279 1244 279 1216 Z " />
<glyph glyph-name="plusminus" unicode="&#xb1;" horiz-adv-x="1189" d="M107 856 L525 856 L525 1267 L698 1267 L698 856 L1093 856 L1093 702 L698 702 L698 289 L525 289 L525 702 L107 702 L107 856 Z M151 154 L1052 154 L1052 1 L151 1 L151 154 Z " />
<glyph glyph-name="twosuperior" unicode="&#xb2;" horiz-adv-x="819" d="M102 667 L101 777 L412 1046 Q485 1109 515 1152.5 Q545 1196 545 1228 Q545 1276 509 1306.5 Q473 1337 405 1337 Q321 1337 281 1299.5 Q241 1262 241 1205 L81 1205 Q81 1259 103 1306.5 Q125 1354 166 1390 Q207 1426 266.5 1446.5 Q326 1467 401 1467 Q472 1467 528.5 1450.5 Q585 1434 624 1403.5 Q663 1373 684 1329 Q705 1285 705 1230 Q705 1190 690.5 1154.5 Q676 1119 649 1084.5 Q622 1050 583.5 1015.5 Q545 981 497 944 L305 797 L740 797 L740 667 L102 667 Z " />
<glyph glyph-name="threesuperior" unicode="&#xb3;" horiz-adv-x="819" d="M237 890 Q237 845 282.5 815.5 Q328 786 403 786 Q481 786 522.5 816 Q564 846 564 896 Q564 958 515.5 984 Q467 1010 384 1010 L295 1010 L295 1127 L384 1127 Q467 1127 508 1157 Q549 1187 549 1235 Q549 1279 513 1308 Q477 1337 399 1337 Q335 1337 292 1312.5 Q249 1288 249 1246 L89 1246 Q89 1297 113 1338 Q137 1379 178.5 1407.5 Q220 1436 276 1451.5 Q332 1467 396 1467 Q466 1467 523.5 1452.5 Q581 1438 622.5 1409.5 Q664 1381 686.5 1339 Q709 1297 709 1242 Q709 1188 671.5 1142.5 Q634 1097 563 1072 Q645 1050 684.5 1003 Q724 956 724 887 Q724 832 699 789 Q674 746 630 716.5 Q586 687 526.5 671.5 Q467 656 397 656 Q337 656 279.5 669.5 Q222 683 177 711.5 Q132 740 104.5 784.5 Q77 829 77 890 L237 890 Z " />
<glyph glyph-name="acute" unicode="&#xb4;" horiz-adv-x="698" d="M351 1536 L581 1536 L295 1242 L137 1242 L351 1536 Z " />
<glyph glyph-name="mu" unicode="&#xb5;" horiz-adv-x="1264" d="M173 1082 L363 1082 L363 461 Q363 358 382.5 294 Q402 230 435 194 Q468 158 512.5 145.5 Q557 133 608 133 Q730 133 798.5 176 Q867 219 898 293 L898 1082 L1090 1082 L1090 0 L916 0 L907 119 Q859 53 787.5 16 Q716 -21 616 -21 Q537 -21 474 -4 Q411 13 363 51 L363 -416 L173 -416 L173 1082 Z " />
<glyph glyph-name="paragraph" unicode="&#xb6;" horiz-adv-x="1083" d="M711 0 L711 520 L612 520 Q484 520 385.5 555 Q287 590 219.5 652.5 Q152 715 117.5 801 Q83 887 83 988 Q83 1089 117.5 1174.5 Q152 1260 219.5 1322.5 Q287 1385 385.5 1420.5 Q484 1456 612 1456 L897 1456 L897 0 L711 0 Z " />
<glyph glyph-name="middot" unicode="&#xb7;" horiz-adv-x="586" >
<g transform="translate(7,631)" >
<path fill="black" d="M161 99 Q161 147 192.5 179.5 Q224 212 283 212 Q342 212 373.5 179.5 Q405 147 405 99 Q405 52 373.5 20 Q342 -12 283 -12 Q224 -12 192.5 20 Q161 52 161 99 Z " />
</g>
</glyph>
<glyph glyph-name="cedilla" unicode="&#xb8;" horiz-adv-x="560" d="M128 -327 Q165 -327 198.5 -321.5 Q232 -316 257 -304 Q282 -292 296.5 -273.5 Q311 -255 311 -229 Q311 -179 269 -160.5 Q227 -142 136 -135 L168 0 L308 0 L296 -52 Q328 -57 358 -68.5 Q388 -80 411 -100.5 Q434 -121 448.5 -151.5 Q463 -182 463 -225 Q463 -320 379.5 -377.5 Q296 -435 135 -435 L128 -327 Z " />
<glyph glyph-name="onesuperior" unicode="&#xb9;" horiz-adv-x="819" d="M377 667 L377 1266 L143 1209 L143 1339 L518 1456 L536 1456 L536 667 L377 667 Z " />
<glyph glyph-name="guillemotright" unicode="&#xbb;" horiz-adv-x="1042" >
<g transform="translate(16,0)" >
<path fill="black" d="M385 551 L104 949 L251 949 L567 560 L567 541 L251 152 L104 152 L385 551 Z " />
</g>
<g transform="translate(356,0)" >
<path fill="black" d="M385 551 L104 949 L251 949 L567 560 L567 541 L251 152 L104 152 L385 551 Z " />
</g>
</glyph>
<glyph glyph-name="onequarter" unicode="&#xbc;" horiz-adv-x="1455" d="M1102 1323 L1210 1256 L445 118 L337 185 L1102 1323 Z M840 273 L1249 789 L1413 789 L1413 301 L1532 301 L1532 169 L1413 169 L1413 0 L1253 0 L1253 169 L847 169 L840 273 Z M343 664 L343 1263 L109 1206 L109 1336 L484 1453 L502 1453 L502 664 L343 664 Z M1253 301 L1253 592 L1232 558 L1001 301 L1253 301 Z " />
<glyph glyph-name="onehalf" unicode="&#xbd;" horiz-adv-x="1548" d="M395 664 L328 664 L328 1263 L94 1206 L94 1336 L469 1453 L487 1453 L487 800 L833 1315 L941 1248 L176 110 L68 177 L395 664 Z M951 110 L1262 379 Q1335 442 1365 485.5 Q1395 529 1395 561 Q1395 609 1359 639.5 Q1323 670 1255 670 Q1171 670 1131 632.5 Q1091 595 1091 538 L931 538 Q931 592 953 639.5 Q975 687 1016 723 Q1057 759 1116.5 779.5 Q1176 800 1251 800 Q1322 800 1378.5 783.5 Q1435 767 1474 736.5 Q1513 706 1534 662 Q1555 618 1555 563 Q1555 523 1540.5 487.5 Q1526 452 1499 417.5 Q1472 383 1433.5 348.5 Q1395 314 1347 277 L1155 130 L1590 130 L1590 0 L952 0 L951 110 Z " />
<glyph glyph-name="threequarters" unicode="&#xbe;" horiz-adv-x="1541" d="M392 659 Q340 665 292.5 681.5 Q245 698 208.5 726.5 Q172 755 150.5 795.5 Q129 836 129 890 L289 890 Q289 845 334.5 815.5 Q380 786 455 786 Q461 786 467 786 Q473 786 478 787 L595 961 Q573 987 532.5 998.5 Q492 1010 436 1010 L347 1010 L347 1127 L436 1127 Q519 1127 560 1157 Q601 1187 601 1235 Q601 1279 565 1308 Q529 1337 451 1337 Q387 1337 344 1312.5 Q301 1288 301 1246 L141 1246 Q141 1297 165 1338 Q189 1379 230.5 1407.5 Q272 1436 328 1451.5 Q384 1467 448 1467 Q518 1467 575.5 1452.5 Q633 1438 674.5 1409.5 Q716 1381 738.5 1339 Q761 1297 761 1242 Q761 1218 754 1198 L833 1315 L941 1248 L756 973 Q776 937 776 887 Q776 842 759.5 805.5 Q743 769 713 741 Q683 713 641 693.5 Q599 674 549 665 L176 110 L68 177 L392 659 Z M850 273 L1259 789 L1423 789 L1423 301 L1542 301 L1542 169 L1423 169 L1423 0 L1263 0 L1263 169 L857 169 L850 273 Z M1263 301 L1263 592 L1242 558 L1011 301 L1263 301 Z M704 1122 Q686 1107 664 1094.5 Q642 1082 615 1072 Q639 1066 660 1057 L704 1122 Z " />
<glyph glyph-name="questiondown" unicode="&#xbf;" horiz-adv-x="1052" d="M960 -20 Q959 -105 925 -173 Q891 -241 832.5 -288 Q774 -335 694 -360.5 Q614 -386 522 -386 Q419 -386 337.5 -360.5 Q256 -335 200 -286 Q144 -237 114.5 -166.5 Q85 -96 85 -6 Q85 62 107.5 122.5 Q130 183 167 237 Q204 291 252 339 Q300 387 350 431 Q380 457 399.5 485 Q419 513 429.5 544 Q440 575 444 609 Q448 643 448 680 L637 680 Q636 608 627.5 557.5 Q619 507 598.5 465.5 Q578 424 544.5 385 Q511 346 460 297 Q425 263 392 231.5 Q359 200 333.5 165.5 Q308 131 292.5 91 Q277 51 277 0 Q277 -109 340 -165.5 Q403 -222 521 -222 Q571 -222 616 -210 Q661 -198 695 -173 Q729 -148 749 -110 Q769 -72 769 -20 L960 -20 Z M420 995 Q420 1040 449.5 1071.5 Q479 1103 535 1103 Q590 1103 620 1071.5 Q650 1040 650 995 Q650 950 620 919.5 Q590 889 535 889 Q479 889 449.5 919.5 Q420 950 420 995 Z " />
<glyph glyph-name="Agrave" unicode="&#xc0;" horiz-adv-x="1439" >
<path fill="black" d="M631 1456 L809 1456 L1405 0 L1200 0 L1051 380 L389 380 L241 0 L36 0 L631 1456 Z M989 540 L720 1228 L452 540 L989 540 Z " />
<g transform="translate(309,311)" >
<path fill="black" d="M353 1242 L76 1536 L306 1536 L520 1242 L353 1242 Z " />
</g>
</glyph>
<glyph glyph-name="Aacute" unicode="&#xc1;" horiz-adv-x="1439" >
<path fill="black" d="M631 1456 L809 1456 L1405 0 L1200 0 L1051 380 L389 380 L241 0 L36 0 L631 1456 Z M989 540 L720 1228 L452 540 L989 540 Z " />
<g transform="translate(480,311)" >
<path fill="black" d="M351 1536 L581 1536 L295 1242 L137 1242 L351 1536 Z " />
</g>
</glyph>
<glyph glyph-name="Acircumflex" unicode="&#xc2;" horiz-adv-x="1439" >
<path fill="black" d="M631 1456 L809 1456 L1405 0 L1200 0 L1051 380 L389 380 L241 0 L36 0 L631 1456 Z M989 540 L720 1228 L452 540 L989 540 Z " />
<g transform="translate(216,311)" >
<path fill="black" d="M183 1264 L449 1537 L565 1537 L834 1263 L834 1253 L673 1253 L507 1421 L341 1253 L183 1253 L183 1264 Z " />
</g>
</glyph>
<glyph glyph-name="Atilde" unicode="&#xc3;" horiz-adv-x="1439" >
<path fill="black" d="M631 1456 L809 1456 L1405 0 L1200 0 L1051 380 L389 380 L241 0 L36 0 L631 1456 Z M989 540 L720 1228 L452 540 L989 540 Z " />
<g transform="translate(213,314)" >
<path fill="black" d="M135 1247 Q135 1302 152.5 1348 Q170 1394 200 1427 Q230 1460 271.5 1478 Q313 1496 361 1496 Q408 1496 443.5 1481 Q479 1466 511.5 1448.5 Q544 1431 577 1416 Q610 1401 653 1401 Q676 1401 696 1409.5 Q716 1418 730.5 1433 Q745 1448 753.5 1468.5 Q762 1489 762 1513 L891 1501 Q891 1446 873 1401 Q855 1356 824.5 1324.5 Q794 1293 752.5 1275.5 Q711 1258 663 1258 Q608 1258 572.5 1272.5 Q537 1287 507 1305 Q477 1323 447 1337.5 Q417 1352 372 1352 Q349 1352 329 1343.5 Q309 1335 294.5 1320 Q280 1305 271.5 1284.5 Q263 1264 263 1241 L135 1247 Z " />
</g>
</glyph>
<glyph glyph-name="Adieresis" unicode="&#xc4;" horiz-adv-x="1439" >
<path fill="black" d="M631 1456 L809 1456 L1405 0 L1200 0 L1051 380 L389 380 L241 0 L36 0 L631 1456 Z M989 540 L720 1228 L452 540 L989 540 Z " />
<g transform="translate(205,315)" >
<path fill="black" d="M158 1367 Q158 1412 187.5 1443.5 Q217 1475 273 1475 Q328 1475 358 1443.5 Q388 1412 388 1367 Q388 1322 358 1291.5 Q328 1261 273 1261 Q217 1261 187.5 1291.5 Q158 1322 158 1367 Z " />
</g>
<g transform="translate(690,313)" >
<path fill="black" d="M158 1367 Q158 1412 187.5 1443.5 Q217 1475 273 1475 Q328 1475 358 1443.5 Q388 1412 388 1367 Q388 1322 358 1291.5 Q328 1261 273 1261 Q217 1261 187.5 1291.5 Q158 1322 158 1367 Z " />
</g>
</glyph>
<glyph glyph-name="Aring" unicode="&#xc5;" horiz-adv-x="1439" >
<path fill="black" d="M631 1456 L809 1456 L1405 0 L1200 0 L1051 380 L389 380 L241 0 L36 0 L631 1456 Z M989 540 L720 1228 L452 540 L989 540 Z " />
<g transform="translate(357,322)" >
<path fill="black" d="M136 1409 Q136 1453 153.5 1491 Q171 1529 202 1557 Q233 1585 275.5 1601.5 Q318 1618 367 1618 Q416 1618 458.5 1601.5 Q501 1585 532 1557 Q563 1529 580.5 1491 Q598 1453 598 1409 Q598 1366 580.5 1328.5 Q563 1291 532 1263.5 Q501 1236 458.5 1220.5 Q416 1205 367 1205 Q318 1205 275.5 1220.5 Q233 1236 202 1263.5 Q171 1291 153.5 1328.5 Q136 1366 136 1409 Z M239 1409 Q239 1387 248.5 1366.5 Q258 1346 275 1330 Q292 1314 315.5 1304 Q339 1294 367 1294 Q396 1294 419 1303.5 Q442 1313 459 1329 Q476 1345 485 1366 Q494 1387 494 1409 Q494 1433 485 1454.5 Q476 1476 459 1492.5 Q442 1509 419 1518.5 Q396 1528 367 1528 Q339 1528 315.5 1518.5 Q292 1509 275 1492.5 Q258 1476 248.5 1454.5 Q239 1433 239 1409 Z " />
</g>
</glyph>
<glyph glyph-name="AE" unicode="&#xc6;" horiz-adv-x="2061" d="M940 1456 L1947 1456 L1947 1302 L1211 1302 L1232 835 L1860 835 L1860 681 L1239 681 L1263 154 L2014 154 L2014 0 L1078 0 L1062 352 L454 352 L233 0 L0 0 L940 1456 Z M1054 529 L1022 1258 L565 529 L1054 529 Z " />
<glyph glyph-name="Ccedilla" unicode="&#xc7;" horiz-adv-x="1448" d="M633 -337 Q670 -337 703.5 -331.5 Q737 -326 762 -314 Q787 -302 801.5 -283.5 Q816 -265 816 -239 Q816 -189 774 -170.5 Q732 -152 641 -145 L671 -16 Q549 -4 450 47.5 Q351 99 281.5 184 Q212 269 174.5 384.5 Q137 500 137 640 L137 816 Q137 966 180.5 1088 Q224 1210 304.5 1296 Q385 1382 500.5 1429 Q616 1476 760 1476 Q892 1476 994.5 1441 Q1097 1406 1169.5 1342 Q1242 1278 1284 1188 Q1326 1098 1338 988 L1139 988 Q1128 1066 1102 1127 Q1076 1188 1031 1230 Q986 1272 919 1294 Q852 1316 760 1316 Q657 1316 577.5 1280 Q498 1244 444.5 1179 Q391 1114 363.5 1022 Q336 930 336 818 L336 640 Q336 536 361 445 Q386 354 436.5 286 Q487 218 564 178.5 Q641 139 745 139 Q843 139 912.5 160 Q982 181 1028 222 Q1074 263 1100.5 323.5 Q1127 384 1139 463 L1338 463 Q1327 364 1289 279.5 Q1251 195 1185.5 132 Q1120 69 1026.5 30 Q933 -9 811 -18 L801 -62 Q833 -67 863 -78.5 Q893 -90 916 -110.5 Q939 -131 953.5 -161.5 Q968 -192 968 -235 Q968 -330 884.5 -387.5 Q801 -445 640 -445 L633 -337 Z " />
<glyph glyph-name="Egrave" unicode="&#xc8;" horiz-adv-x="1264" >
<path fill="black" d="M189 1456 L1174 1456 L1174 1296 L388 1296 L388 831 L1074 831 L1074 672 L388 672 L388 159 L1183 159 L1183 0 L189 0 L189 1456 Z " />
<g transform="translate(260,322)" >
<path fill="black" d="M353 1242 L76 1536 L306 1536 L520 1242 L353 1242 Z " />
</g>
</glyph>
<glyph glyph-name="Eacute" unicode="&#xc9;" horiz-adv-x="1264" >
<path fill="black" d="M189 1456 L1174 1456 L1174 1296 L388 1296 L388 831 L1074 831 L1074 672 L388 672 L388 159 L1183 159 L1183 0 L189 0 L189 1456 Z " />
<g transform="translate(431,322)" >
<path fill="black" d="M351 1536 L581 1536 L295 1242 L137 1242 L351 1536 Z " />
</g>
</glyph>
<glyph glyph-name="Ecircumflex" unicode="&#xca;" horiz-adv-x="1264" >
<path fill="black" d="M189 1456 L1174 1456 L1174 1296 L388 1296 L388 831 L1074 831 L1074 672 L388 672 L388 159 L1183 159 L1183 0 L189 0 L189 1456 Z " />
<g transform="translate(167,322)" >
<path fill="black" d="M183 1264 L449 1537 L565 1537 L834 1263 L834 1253 L673 1253 L507 1421 L341 1253 L183 1253 L183 1264 Z " />
</g>
</glyph>
<glyph glyph-name="Edieresis" unicode="&#xcb;" horiz-adv-x="1264" >
<path fill="black" d="M189 1456 L1174 1456 L1174 1296 L388 1296 L388 831 L1074 831 L1074 672 L388 672 L388 159 L1183 159 L1183 0 L189 0 L189 1456 Z " />
<g transform="translate(156,326)" >
<path fill="black" d="M158 1367 Q158 1412 187.5 1443.5 Q217 1475 273 1475 Q328 1475 358 1443.5 Q388 1412 388 1367 Q388 1322 358 1291.5 Q328 1261 273 1261 Q217 1261 187.5 1291.5 Q158 1322 158 1367 Z " />
</g>
<g transform="translate(641,324)" >
<path fill="black" d="M158 1367 Q158 1412 187.5 1443.5 Q217 1475 273 1475 Q328 1475 358 1443.5 Q388 1412 388 1367 Q388 1322 358 1291.5 Q328 1261 273 1261 Q217 1261 187.5 1291.5 Q158 1322 158 1367 Z " />
</g>
</glyph>
<glyph glyph-name="Igrave" unicode="&#xcc;" horiz-adv-x="613" >
<path fill="black" d="M208 0 L208 1456 L407 1456 L407 0 L208 0 Z " />
<g transform="translate(-107,322)" >
<path fill="black" d="M353 1242 L76 1536 L306 1536 L520 1242 L353 1242 Z " />
</g>
</glyph>
<glyph glyph-name="Iacute" unicode="&#xcd;" horiz-adv-x="613" >
<path fill="black" d="M208 0 L208 1456 L407 1456 L407 0 L208 0 Z " />
<g transform="translate(64,322)" >
<path fill="black" d="M351 1536 L581 1536 L295 1242 L137 1242 L351 1536 Z " />
</g>
</glyph>
<glyph glyph-name="Icircumflex" unicode="&#xce;" horiz-adv-x="613" >
<path fill="black" d="M208 0 L208 1456 L407 1456 L407 0 L208 0 Z " />
<g transform="translate(-200,322)" >
<path fill="black" d="M183 1264 L449 1537 L565 1537 L834 1263 L834 1253 L673 1253 L507 1421 L341 1253 L183 1253 L183 1264 Z " />
</g>
</glyph>
<glyph glyph-name="Idieresis" unicode="&#xcf;" horiz-adv-x="613" >
<path fill="black" d="M208 0 L208 1456 L407 1456 L407 0 L208 0 Z " />
<g transform="translate(-211,326)" >
<path fill="black" d="M158 1367 Q158 1412 187.5 1443.5 Q217 1475 273 1475 Q328 1475 358 1443.5 Q388 1412 388 1367 Q388 1322 358 1291.5 Q328 1261 273 1261 Q217 1261 187.5 1291.5 Q158 1322 158 1367 Z " />
</g>
<g transform="translate(274,324)" >
<path fill="black" d="M158 1367 Q158 1412 187.5 1443.5 Q217 1475 273 1475 Q328 1475 358 1443.5 Q388 1412 388 1367 Q388 1322 358 1291.5 Q328 1261 273 1261 Q217 1261 187.5 1291.5 Q158 1322 158 1367 Z " />
</g>
</glyph>
<glyph glyph-name="Eth" unicode="&#xd0;" horiz-adv-x="1456" d="M189 665 L17 665 L17 818 L189 818 L189 1456 L633 1456 Q786 1456 912.5 1410.5 Q1039 1365 1129 1279 Q1219 1193 1269 1069.5 Q1319 946 1319 790 L1319 665 Q1319 509 1269.5 385.5 Q1220 262 1128.5 176.5 Q1037 91 907.5 45.5 Q778 0 618 0 L189 0 L189 665 Z M618 159 Q742 159 836.5 194 Q931 229 994.5 294.5 Q1058 360 1090 454 Q1122 548 1122 665 L1122 792 Q1122 915 1089 1009 Q1056 1103 993.5 1166.5 Q931 1230 840 1263 Q749 1296 633 1296 L388 1296 L388 818 L702 818 L702 665 L388 665 L388 159 L618 159 Z " />
<glyph glyph-name="Ntilde" unicode="&#xd1;" horiz-adv-x="1581" >
<path fill="black" d="M189 1456 L394 1456 L1193 309 L1193 1456 L1390 1456 L1390 0 L1184 0 L388 1144 L388 0 L189 0 L189 1456 Z " />
<g transform="translate(277,314)" >
<path fill="black" d="M135 1247 Q135 1302 152.5 1348 Q170 1394 200 1427 Q230 1460 271.5 1478 Q313 1496 361 1496 Q408 1496 443.5 1481 Q479 1466 511.5 1448.5 Q544 1431 577 1416 Q610 1401 653 1401 Q676 1401 696 1409.5 Q716 1418 730.5 1433 Q745 1448 753.5 1468.5 Q762 1489 762 1513 L891 1501 Q891 1446 873 1401 Q855 1356 824.5 1324.5 Q794 1293 752.5 1275.5 Q711 1258 663 1258 Q608 1258 572.5 1272.5 Q537 1287 507 1305 Q477 1323 447 1337.5 Q417 1352 372 1352 Q349 1352 329 1343.5 Q309 1335 294.5 1320 Q280 1305 271.5 1284.5 Q263 1264 263 1241 L135 1247 Z " />
</g>
</glyph>
<glyph glyph-name="Ograve" unicode="&#xd2;" horiz-adv-x="1523" >
<path fill="black" d="M135 792 Q135 954 180.5 1081 Q226 1208 308.5 1295.5 Q391 1383 506.5 1429.5 Q622 1476 761 1476 Q904 1476 1019.5 1429.5 Q1135 1383 1217 1295.5 Q1299 1208 1343.5 1081 Q1388 954 1388 792 L1388 663 Q1388 501 1344 374.5 Q1300 248 1218 160 Q1136 72 1021 26 Q906 -20 763 -20 Q624 -20 508 26 Q392 72 309.5 160 Q227 248 181 374.5 Q135 501 135 663 L135 792 Z M332 663 Q332 535 362.5 438 Q393 341 449 276 Q505 211 584.5 178.5 Q664 146 763 146 Q969 146 1080 276.5 Q1191 407 1191 663 L1191 794 Q1191 1049 1078 1179 Q965 1309 761 1309 Q662 1309 583 1276.5 Q504 1244 448 1179 Q392 1114 362 1018 Q332 922 332 794 L332 663 Z " />
<g transform="translate(348,312)" >
<path fill="black" d="M353 1242 L76 1536 L306 1536 L520 1242 L353 1242 Z " />
</g>
</glyph>
<glyph glyph-name="Oacute" unicode="&#xd3;" horiz-adv-x="1523" >
<path fill="black" d="M135 792 Q135 954 180.5 1081 Q226 1208 308.5 1295.5 Q391 1383 506.5 1429.5 Q622 1476 761 1476 Q904 1476 1019.5 1429.5 Q1135 1383 1217 1295.5 Q1299 1208 1343.5 1081 Q1388 954 1388 792 L1388 663 Q1388 501 1344 374.5 Q1300 248 1218 160 Q1136 72 1021 26 Q906 -20 763 -20 Q624 -20 508 26 Q392 72 309.5 160 Q227 248 181 374.5 Q135 501 135 663 L135 792 Z M332 663 Q332 535 362.5 438 Q393 341 449 276 Q505 211 584.5 178.5 Q664 146 763 146 Q969 146 1080 276.5 Q1191 407 1191 663 L1191 794 Q1191 1049 1078 1179 Q965 1309 761 1309 Q662 1309 583 1276.5 Q504 1244 448 1179 Q392 1114 362 1018 Q332 922 332 794 L332 663 Z " />
<g transform="translate(519,312)" >
<path fill="black" d="M351 1536 L581 1536 L295 1242 L137 1242 L351 1536 Z " />
</g>
</glyph>
<glyph glyph-name="Ocircumflex" unicode="&#xd4;" horiz-adv-x="1523" >
<path fill="black" d="M135 792 Q135 954 180.5 1081 Q226 1208 308.5 1295.5 Q391 1383 506.5 1429.5 Q622 1476 761 1476 Q904 1476 1019.5 1429.5 Q1135 1383 1217 1295.5 Q1299 1208 1343.5 1081 Q1388 954 1388 792 L1388 663 Q1388 501 1344 374.5 Q1300 248 1218 160 Q1136 72 1021 26 Q906 -20 763 -20 Q624 -20 508 26 Q392 72 309.5 160 Q227 248 181 374.5 Q135 501 135 663 L135 792 Z M332 663 Q332 535 362.5 438 Q393 341 449 276 Q505 211 584.5 178.5 Q664 146 763 146 Q969 146 1080 276.5 Q1191 407 1191 663 L1191 794 Q1191 1049 1078 1179 Q965 1309 761 1309 Q662 1309 583 1276.5 Q504 1244 448 1179 Q392 1114 362 1018 Q332 922 332 794 L332 663 Z " />
<g transform="translate(255,312)" >
<path fill="black" d="M183 1264 L449 1537 L565 1537 L834 1263 L834 1253 L673 1253 L507 1421 L341 1253 L183 1253 L183 1264 Z " />
</g>
</glyph>
<glyph glyph-name="Otilde" unicode="&#xd5;" horiz-adv-x="1523" >
<path fill="black" d="M135 792 Q135 954 180.5 1081 Q226 1208 308.5 1295.5 Q391 1383 506.5 1429.5 Q622 1476 761 1476 Q904 1476 1019.5 1429.5 Q1135 1383 1217 1295.5 Q1299 1208 1343.5 1081 Q1388 954 1388 792 L1388 663 Q1388 501 1344 374.5 Q1300 248 1218 160 Q1136 72 1021 26 Q906 -20 763 -20 Q624 -20 508 26 Q392 72 309.5 160 Q227 248 181 374.5 Q135 501 135 663 L135 792 Z M332 663 Q332 535 362.5 438 Q393 341 449 276 Q505 211 584.5 178.5 Q664 146 763 146 Q969 146 1080 276.5 Q1191 407 1191 663 L1191 794 Q1191 1049 1078 1179 Q965 1309 761 1309 Q662 1309 583 1276.5 Q504 1244 448 1179 Q392 1114 362 1018 Q332 922 332 794 L332 663 Z " />
<g transform="translate(252,315)" >
<path fill="black" d="M135 1247 Q135 1302 152.5 1348 Q170 1394 200 1427 Q230 1460 271.5 1478 Q313 1496 361 1496 Q408 1496 443.5 1481 Q479 1466 511.5 1448.5 Q544 1431 577 1416 Q610 1401 653 1401 Q676 1401 696 1409.5 Q716 1418 730.5 1433 Q745 1448 753.5 1468.5 Q762 1489 762 1513 L891 1501 Q891 1446 873 1401 Q855 1356 824.5 1324.5 Q794 1293 752.5 1275.5 Q711 1258 663 1258 Q608 1258 572.5 1272.5 Q537 1287 507 1305 Q477 1323 447 1337.5 Q417 1352 372 1352 Q349 1352 329 1343.5 Q309 1335 294.5 1320 Q280 1305 271.5 1284.5 Q263 1264 263 1241 L135 1247 Z " />
</g>
</glyph>
<glyph glyph-name="Odieresis" unicode="&#xd6;" horiz-adv-x="1523" >
<path fill="black" d="M135 792 Q135 954 180.5 1081 Q226 1208 308.5 1295.5 Q391 1383 506.5 1429.5 Q622 1476 761 1476 Q904 1476 1019.5 1429.5 Q1135 1383 1217 1295.5 Q1299 1208 1343.5 1081 Q1388 954 1388 792 L1388 663 Q1388 501 1344 374.5 Q1300 248 1218 160 Q1136 72 1021 26 Q906 -20 763 -20 Q624 -20 508 26 Q392 72 309.5 160 Q227 248 181 374.5 Q135 501 135 663 L135 792 Z M332 663 Q332 535 362.5 438 Q393 341 449 276 Q505 211 584.5 178.5 Q664 146 763 146 Q969 146 1080 276.5 Q1191 407 1191 663 L1191 794 Q1191 1049 1078 1179 Q965 1309 761 1309 Q662 1309 583 1276.5 Q504 1244 448 1179 Q392 1114 362 1018 Q332 922 332 794 L332 663 Z " />
<g transform="translate(244,316)" >
<path fill="black" d="M158 1367 Q158 1412 187.5 1443.5 Q217 1475 273 1475 Q328 1475 358 1443.5 Q388 1412 388 1367 Q388 1322 358 1291.5 Q328 1261 273 1261 Q217 1261 187.5 1291.5 Q158 1322 158 1367 Z " />
</g>
<g transform="translate(729,314)" >
<path fill="black" d="M158 1367 Q158 1412 187.5 1443.5 Q217 1475 273 1475 Q328 1475 358 1443.5 Q388 1412 388 1367 Q388 1322 358 1291.5 Q328 1261 273 1261 Q217 1261 187.5 1291.5 Q158 1322 158 1367 Z " />
</g>
</glyph>
<glyph glyph-name="multiply" unicode="&#xd7;" horiz-adv-x="1182" d="M101 336 L457 673 L107 1005 L229 1130 L584 794 L939 1130 L1062 1005 L711 673 L1067 336 L945 211 L584 553 L223 211 L101 336 Z " />
<glyph glyph-name="Oslash" unicode="&#xd8;" horiz-adv-x="1370" d="M337 136 Q242 224 190 356.5 Q138 489 138 663 L138 792 Q138 954 183.5 1081 Q229 1208 311.5 1295.5 Q394 1383 509.5 1429.5 Q625 1476 764 1476 Q880 1476 977 1446 Q1074 1416 1152 1357 L1259 1517 L1405 1517 L1241 1271 Q1313 1183 1352 1063.5 Q1391 944 1391 792 L1391 663 Q1391 501 1347 374.5 Q1303 248 1221 160 Q1139 72 1024 26 Q909 -20 766 -20 Q577 -20 435 63 L331 -94 L183 -94 L337 136 Z M1053 1208 Q944 1309 764 1309 Q665 1309 586 1276.5 Q507 1244 451 1179 Q395 1114 365 1018 Q335 922 335 794 L335 663 Q335 541 362 448.5 Q389 356 440 291 L1053 1208 Z M1194 794 Q1194 983 1130 1105 L532 207 Q631 146 766 146 Q972 146 1083 276.5 Q1194 407 1194 663 L1194 794 Z " />
<glyph glyph-name="Ugrave" unicode="&#xd9;" horiz-adv-x="1448" >
<path fill="black" d="M160 1456 L357 1456 L357 461 Q357 376 384 315 Q411 254 459.5 215 Q508 176 576 157.5 Q644 139 726 139 Q809 139 876.5 157.5 Q944 176 992.5 215 Q1041 254 1067.5 315 Q1094 376 1094 461 L1094 1456 L1293 1456 L1293 461 Q1293 338 1247.5 247.5 Q1202 157 1124.5 97.5 Q1047 38 944 9 Q841 -20 726 -20 Q606 -20 502.5 9 Q399 38 323 97.5 Q247 157 203.5 247.5 Q160 338 160 461 L160 1456 Z " />
<g transform="translate(314,311)" >
<path fill="black" d="M353 1242 L76 1536 L306 1536 L520 1242 L353 1242 Z " />
</g>
</glyph>
<glyph glyph-name="Uacute" unicode="&#xda;" horiz-adv-x="1448" >
<path fill="black" d="M160 1456 L357 1456 L357 461 Q357 376 384 315 Q411 254 459.5 215 Q508 176 576 157.5 Q644 139 726 139 Q809 139 876.5 157.5 Q944 176 992.5 215 Q1041 254 1067.5 315 Q1094 376 1094 461 L1094 1456 L1293 1456 L1293 461 Q1293 338 1247.5 247.5 Q1202 157 1124.5 97.5 Q1047 38 944 9 Q841 -20 726 -20 Q606 -20 502.5 9 Q399 38 323 97.5 Q247 157 203.5 247.5 Q160 338 160 461 L160 1456 Z " />
<g transform="translate(485,311)" >
<path fill="black" d="M351 1536 L581 1536 L295 1242 L137 1242 L351 1536 Z " />
</g>
</glyph>
<glyph glyph-name="Ucircumflex" unicode="&#xdb;" horiz-adv-x="1448" >
<path fill="black" d="M160 1456 L357 1456 L357 461 Q357 376 384 315 Q411 254 459.5 215 Q508 176 576 157.5 Q644 139 726 139 Q809 139 876.5 157.5 Q944 176 992.5 215 Q1041 254 1067.5 315 Q1094 376 1094 461 L1094 1456 L1293 1456 L1293 461 Q1293 338 1247.5 247.5 Q1202 157 1124.5 97.5 Q1047 38 944 9 Q841 -20 726 -20 Q606 -20 502.5 9 Q399 38 323 97.5 Q247 157 203.5 247.5 Q160 338 160 461 L160 1456 Z " />
<g transform="translate(221,311)" >
<path fill="black" d="M183 1264 L449 1537 L565 1537 L834 1263 L834 1253 L673 1253 L507 1421 L341 1253 L183 1253 L183 1264 Z " />
</g>
</glyph>
<glyph glyph-name="Udieresis" unicode="&#xdc;" horiz-adv-x="1448" >
<path fill="black" d="M160 1456 L357 1456 L357 461 Q357 376 384 315 Q411 254 459.5 215 Q508 176 576 157.5 Q644 139 726 139 Q809 139 876.5 157.5 Q944 176 992.5 215 Q1041 254 1067.5 315 Q1094 376 1094 461 L1094 1456 L1293 1456 L1293 461 Q1293 338 1247.5 247.5 Q1202 157 1124.5 97.5 Q1047 38 944 9 Q841 -20 726 -20 Q606 -20 502.5 9 Q399 38 323 97.5 Q247 157 203.5 247.5 Q160 338 160 461 L160 1456 Z " />
<g transform="translate(210,315)" >
<path fill="black" d="M158 1367 Q158 1412 187.5 1443.5 Q217 1475 273 1475 Q328 1475 358 1443.5 Q388 1412 388 1367 Q388 1322 358 1291.5 Q328 1261 273 1261 Q217 1261 187.5 1291.5 Q158 1322 158 1367 Z " />
</g>
<g transform="translate(695,313)" >
<path fill="black" d="M158 1367 Q158 1412 187.5 1443.5 Q217 1475 273 1475 Q328 1475 358 1443.5 Q388 1412 388 1367 Q388 1322 358 1291.5 Q328 1261 273 1261 Q217 1261 187.5 1291.5 Q158 1322 158 1367 Z " />
</g>
</glyph>
<glyph glyph-name="Yacute" unicode="&#xdd;" horiz-adv-x="1338" >
<path fill="black" d="M568 544 L23 1456 L250 1456 L668 728 L1086 1456 L1311 1456 L767 544 L767 0 L568 0 L568 544 Z " />
<g transform="translate(428,310)" >
<path fill="black" d="M351 1536 L581 1536 L295 1242 L137 1242 L351 1536 Z " />
</g>
</glyph>
<glyph glyph-name="Thorn" unicode="&#xde;" horiz-adv-x="1318" d="M187 1456 L378 1456 L378 1164 L684 1164 Q811 1164 909 1132 Q1007 1100 1073.5 1043 Q1140 986 1174 908 Q1208 830 1208 738 Q1208 647 1174 569 Q1140 491 1073.5 434 Q1007 377 909 345 Q811 313 684 313 L378 313 L378 0 L187 0 L187 1456 Z M684 467 Q773 467 836 490 Q899 513 939 551 Q979 589 997.5 637 Q1016 685 1016 736 Q1016 788 997.5 837.5 Q979 887 939 925 Q899 963 836 986.5 Q773 1010 684 1010 L378 1010 L378 467 L684 467 Z " />
<glyph glyph-name="germandbls" unicode="&#xdf;" horiz-adv-x="1325" d="M160 0 L160 1111 Q160 1221 190 1304.5 Q220 1388 275 1443.5 Q330 1499 408 1527 Q486 1555 581 1555 Q666 1555 739 1535 Q812 1515 866 1473 Q920 1431 950.5 1367 Q981 1303 981 1216 Q981 1162 971 1121.5 Q961 1081 946 1048 Q931 1015 913.5 988 Q896 961 881 935 Q866 909 856 881.5 Q846 854 846 820 Q846 774 874 737 Q902 700 943.5 666 Q985 632 1034 597.5 Q1083 563 1124.5 522.5 Q1166 482 1194 432.5 Q1222 383 1222 318 Q1222 232 1190.5 168.5 Q1159 105 1103 63 Q1047 21 970.5 0.5 Q894 -20 805 -20 Q761 -20 713 -14 Q665 -8 620.5 2 Q576 12 540 25 Q504 38 483 52 L527 209 Q546 198 574.5 185 Q603 172 637.5 160.5 Q672 149 710 141.5 Q748 134 786 134 Q849 134 895.5 147.5 Q942 161 972 184.5 Q1002 208 1016.5 240 Q1031 272 1031 308 Q1031 355 1003 392.5 Q975 430 933.5 464.5 Q892 499 843 533.5 Q794 568 752.5 609.5 Q711 651 683 702.5 Q655 754 655 822 Q655 882 677.5 927 Q700 972 727 1013.5 Q754 1055 776.5 1099 Q799 1143 799 1200 Q799 1250 783 1287.5 Q767 1325 738.5 1350.5 Q710 1376 671.5 1388.5 Q633 1401 589 1401 Q477 1401 413.5 1330.5 Q350 1260 350 1111 L350 0 L160 0 Z " />
<glyph glyph-name="agrave" unicode="&#xe0;" horiz-adv-x="1205" >
<path fill="black" d="M143 782 Q143 840 176 897.5 Q209 955 269 1000.5 Q329 1046 414 1074 Q499 1102 604 1102 Q699 1102 779 1080.5 Q859 1059 916.5 1015 Q974 971 1006 904.5 Q1038 838 1038 747 L1038 237 Q1038 210 1040.5 180.5 Q1043 151 1048 122 Q1053 93 1060.5 66 Q1068 39 1078 17 L1078 0 L879 0 Q868 22 861 54.5 Q854 87 850 122 Q822 94 786.5 68 Q751 42 708 22.5 Q665 3 614.5 -8.5 Q564 -20 507 -20 Q419 -20 347.5 4 Q276 28 225 70.5 Q174 113 146 171.5 Q118 230 118 300 Q118 386 154.5 452.5 Q191 519 259 565 Q327 611 425 634.5 Q523 658 646 658 L846 658 L846 749 Q846 845 783 898 Q720 951 595 951 Q537 951 488.5 937.5 Q440 924 406 900.5 Q372 877 353 846.5 Q334 816 334 782 L143 782 Z M846 525 L673 525 Q498 525 403.5 475.5 Q309 426 309 326 Q309 243 367 193.5 Q425 144 536 144 Q593 144 642 158 Q691 172 731 195 Q771 218 800 246.5 Q829 275 846 305 L846 525 Z " />
<g transform="translate(215,0)" >
<path fill="black" d="M353 1242 L76 1536 L306 1536 L520 1242 L353 1242 Z " />
</g>
</glyph>
<glyph glyph-name="aacute" unicode="&#xe1;" horiz-adv-x="1205" >
<path fill="black" d="M143 782 Q143 840 176 897.5 Q209 955 269 1000.5 Q329 1046 414 1074 Q499 1102 604 1102 Q699 1102 779 1080.5 Q859 1059 916.5 1015 Q974 971 1006 904.5 Q1038 838 1038 747 L1038 237 Q1038 210 1040.5 180.5 Q1043 151 1048 122 Q1053 93 1060.5 66 Q1068 39 1078 17 L1078 0 L879 0 Q868 22 861 54.5 Q854 87 850 122 Q822 94 786.5 68 Q751 42 708 22.5 Q665 3 614.5 -8.5 Q564 -20 507 -20 Q419 -20 347.5 4 Q276 28 225 70.5 Q174 113 146 171.5 Q118 230 118 300 Q118 386 154.5 452.5 Q191 519 259 565 Q327 611 425 634.5 Q523 658 646 658 L846 658 L846 749 Q846 845 783 898 Q720 951 595 951 Q537 951 488.5 937.5 Q440 924 406 900.5 Q372 877 353 846.5 Q334 816 334 782 L143 782 Z M846 525 L673 525 Q498 525 403.5 475.5 Q309 426 309 326 Q309 243 367 193.5 Q425 144 536 144 Q593 144 642 158 Q691 172 731 195 Q771 218 800 246.5 Q829 275 846 305 L846 525 Z " />
<g transform="translate(386,0)" >
<path fill="black" d="M351 1536 L581 1536 L295 1242 L137 1242 L351 1536 Z " />
</g>
</glyph>
<glyph glyph-name="acircumflex" unicode="&#xe2;" horiz-adv-x="1205" >
<path fill="black" d="M143 782 Q143 840 176 897.5 Q209 955 269 1000.5 Q329 1046 414 1074 Q499 1102 604 1102 Q699 1102 779 1080.5 Q859 1059 916.5 1015 Q974 971 1006 904.5 Q1038 838 1038 747 L1038 237 Q1038 210 1040.5 180.5 Q1043 151 1048 122 Q1053 93 1060.5 66 Q1068 39 1078 17 L1078 0 L879 0 Q868 22 861 54.5 Q854 87 850 122 Q822 94 786.5 68 Q751 42 708 22.5 Q665 3 614.5 -8.5 Q564 -20 507 -20 Q419 -20 347.5 4 Q276 28 225 70.5 Q174 113 146 171.5 Q118 230 118 300 Q118 386 154.5 452.5 Q191 519 259 565 Q327 611 425 634.5 Q523 658 646 658 L846 658 L846 749 Q846 845 783 898 Q720 951 595 951 Q537 951 488.5 937.5 Q440 924 406 900.5 Q372 877 353 846.5 Q334 816 334 782 L143 782 Z M846 525 L673 525 Q498 525 403.5 475.5 Q309 426 309 326 Q309 243 367 193.5 Q425 144 536 144 Q593 144 642 158 Q691 172 731 195 Q771 218 800 246.5 Q829 275 846 305 L846 525 Z " />
<g transform="translate(122,0)" >
<path fill="black" d="M183 1264 L449 1537 L565 1537 L834 1263 L834 1253 L673 1253 L507 1421 L341 1253 L183 1253 L183 1264 Z " />
</g>
</glyph>
<glyph glyph-name="atilde" unicode="&#xe3;" horiz-adv-x="1205" >
<path fill="black" d="M143 782 Q143 840 176 897.5 Q209 955 269 1000.5 Q329 1046 414 1074 Q499 1102 604 1102 Q699 1102 779 1080.5 Q859 1059 916.5 1015 Q974 971 1006 904.5 Q1038 838 1038 747 L1038 237 Q1038 210 1040.5 180.5 Q1043 151 1048 122 Q1053 93 1060.5 66 Q1068 39 1078 17 L1078 0 L879 0 Q868 22 861 54.5 Q854 87 850 122 Q822 94 786.5 68 Q751 42 708 22.5 Q665 3 614.5 -8.5 Q564 -20 507 -20 Q419 -20 347.5 4 Q276 28 225 70.5 Q174 113 146 171.5 Q118 230 118 300 Q118 386 154.5 452.5 Q191 519 259 565 Q327 611 425 634.5 Q523 658 646 658 L846 658 L846 749 Q846 845 783 898 Q720 951 595 951 Q537 951 488.5 937.5 Q440 924 406 900.5 Q372 877 353 846.5 Q334 816 334 782 L143 782 Z M846 525 L673 525 Q498 525 403.5 475.5 Q309 426 309 326 Q309 243 367 193.5 Q425 144 536 144 Q593 144 642 158 Q691 172 731 195 Q771 218 800 246.5 Q829 275 846 305 L846 525 Z " />
<g transform="translate(119,3)" >
<path fill="black" d="M135 1247 Q135 1302 152.5 1348 Q170 1394 200 1427 Q230 1460 271.5 1478 Q313 1496 361 1496 Q408 1496 443.5 1481 Q479 1466 511.5 1448.5 Q544 1431 577 1416 Q610 1401 653 1401 Q676 1401 696 1409.5 Q716 1418 730.5 1433 Q745 1448 753.5 1468.5 Q762 1489 762 1513 L891 1501 Q891 1446 873 1401 Q855 1356 824.5 1324.5 Q794 1293 752.5 1275.5 Q711 1258 663 1258 Q608 1258 572.5 1272.5 Q537 1287 507 1305 Q477 1323 447 1337.5 Q417 1352 372 1352 Q349 1352 329 1343.5 Q309 1335 294.5 1320 Q280 1305 271.5 1284.5 Q263 1264 263 1241 L135 1247 Z " />
</g>
</glyph>
<glyph glyph-name="adieresis" unicode="&#xe4;" horiz-adv-x="1205" >
<path fill="black" d="M143 782 Q143 840 176 897.5 Q209 955 269 1000.5 Q329 1046 414 1074 Q499 1102 604 1102 Q699 1102 779 1080.5 Q859 1059 916.5 1015 Q974 971 1006 904.5 Q1038 838 1038 747 L1038 237 Q1038 210 1040.5 180.5 Q1043 151 1048 122 Q1053 93 1060.5 66 Q1068 39 1078 17 L1078 0 L879 0 Q868 22 861 54.5 Q854 87 850 122 Q822 94 786.5 68 Q751 42 708 22.5 Q665 3 614.5 -8.5 Q564 -20 507 -20 Q419 -20 347.5 4 Q276 28 225 70.5 Q174 113 146 171.5 Q118 230 118 300 Q118 386 154.5 452.5 Q191 519 259 565 Q327 611 425 634.5 Q523 658 646 658 L846 658 L846 749 Q846 845 783 898 Q720 951 595 951 Q537 951 488.5 937.5 Q440 924 406 900.5 Q372 877 353 846.5 Q334 816 334 782 L143 782 Z M846 525 L673 525 Q498 525 403.5 475.5 Q309 426 309 326 Q309 243 367 193.5 Q425 144 536 144 Q593 144 642 158 Q691 172 731 195 Q771 218 800 246.5 Q829 275 846 305 L846 525 Z " />
<g transform="translate(111,4)" >
<path fill="black" d="M158 1367 Q158 1412 187.5 1443.5 Q217 1475 273 1475 Q328 1475 358 1443.5 Q388 1412 388 1367 Q388 1322 358 1291.5 Q328 1261 273 1261 Q217 1261 187.5 1291.5 Q158 1322 158 1367 Z " />
</g>
<g transform="translate(596,2)" >
<path fill="black" d="M158 1367 Q158 1412 187.5 1443.5 Q217 1475 273 1475 Q328 1475 358 1443.5 Q388 1412 388 1367 Q388 1322 358 1291.5 Q328 1261 273 1261 Q217 1261 187.5 1291.5 Q158 1322 158 1367 Z " />
</g>
</glyph>
<glyph glyph-name="aring" unicode="&#xe5;" horiz-adv-x="1205" >
<path fill="black" d="M143 782 Q143 840 176 897.5 Q209 955 269 1000.5 Q329 1046 414 1074 Q499 1102 604 1102 Q699 1102 779 1080.5 Q859 1059 916.5 1015 Q974 971 1006 904.5 Q1038 838 1038 747 L1038 237 Q1038 210 1040.5 180.5 Q1043 151 1048 122 Q1053 93 1060.5 66 Q1068 39 1078 17 L1078 0 L879 0 Q868 22 861 54.5 Q854 87 850 122 Q822 94 786.5 68 Q751 42 708 22.5 Q665 3 614.5 -8.5 Q564 -20 507 -20 Q419 -20 347.5 4 Q276 28 225 70.5 Q174 113 146 171.5 Q118 230 118 300 Q118 386 154.5 452.5 Q191 519 259 565 Q327 611 425 634.5 Q523 658 646 658 L846 658 L846 749 Q846 845 783 898 Q720 951 595 951 Q537 951 488.5 937.5 Q440 924 406 900.5 Q372 877 353 846.5 Q334 816 334 782 L143 782 Z M846 525 L673 525 Q498 525 403.5 475.5 Q309 426 309 326 Q309 243 367 193.5 Q425 144 536 144 Q593 144 642 158 Q691 172 731 195 Q771 218 800 246.5 Q829 275 846 305 L846 525 Z " />
<g transform="translate(263,11)" >
<path fill="black" d="M136 1409 Q136 1453 153.5 1491 Q171 1529 202 1557 Q233 1585 275.5 1601.5 Q318 1618 367 1618 Q416 1618 458.5 1601.5 Q501 1585 532 1557 Q563 1529 580.5 1491 Q598 1453 598 1409 Q598 1366 580.5 1328.5 Q563 1291 532 1263.5 Q501 1236 458.5 1220.5 Q416 1205 367 1205 Q318 1205 275.5 1220.5 Q233 1236 202 1263.5 Q171 1291 153.5 1328.5 Q136 1366 136 1409 Z M239 1409 Q239 1387 248.5 1366.5 Q258 1346 275 1330 Q292 1314 315.5 1304 Q339 1294 367 1294 Q396 1294 419 1303.5 Q442 1313 459 1329 Q476 1345 485 1366 Q494 1387 494 1409 Q494 1433 485 1454.5 Q476 1476 459 1492.5 Q442 1509 419 1518.5 Q396 1528 367 1528 Q339 1528 315.5 1518.5 Q292 1509 275 1492.5 Q258 1476 248.5 1454.5 Q239 1433 239 1409 Z " />
</g>
</glyph>
<glyph glyph-name="ae" unicode="&#xe6;" horiz-adv-x="1874" d="M123 778 Q123 848 156 907.5 Q189 967 249.5 1010 Q310 1053 395 1077.5 Q480 1102 583 1102 Q709 1102 803.5 1059.5 Q898 1017 950 932 Q1017 1013 1112 1057.5 Q1207 1102 1322 1102 Q1436 1102 1524 1068 Q1612 1034 1672 970.5 Q1732 907 1763 817 Q1794 727 1794 615 L1794 496 L1009 496 Q1012 420 1034.5 354 Q1057 288 1100.5 239 Q1144 190 1210 161.5 Q1276 133 1366 133 Q1429 133 1480 143.5 Q1531 154 1572 169.5 Q1613 185 1646 204 Q1679 223 1707 239 L1772 101 Q1753 88 1718.5 67.5 Q1684 47 1633.5 27.5 Q1583 8 1516 -6.5 Q1449 -21 1364 -21 Q1220 -21 1114 27.5 Q1008 76 939 162 Q913 129 871.5 96 Q830 63 772.5 37 Q715 11 641 -5 Q567 -21 477 -21 Q384 -21 312 2 Q240 25 191.5 68 Q143 111 117.5 171 Q92 231 92 305 Q92 463 214 549.5 Q336 636 575 636 L819 636 L819 720 Q819 826 759 887 Q699 948 583 948 Q521 948 471 933 Q421 918 385.5 892 Q350 866 331 832 Q312 798 312 760 L123 778 Z M819 494 L577 494 Q504 494 449 478 Q394 462 357 435.5 Q320 409 301.5 374 Q283 339 283 301 Q283 266 297 235 Q311 204 339.5 181.5 Q368 159 411.5 146 Q455 133 513 133 Q556 133 600.5 144.5 Q645 156 685.5 174.5 Q726 193 760.5 217.5 Q795 242 819 267 L819 494 Z M1603 641 L1603 672 Q1603 728 1587.5 778 Q1572 828 1538.5 866 Q1505 904 1451.5 926 Q1398 948 1322 948 Q1256 948 1203 925 Q1150 902 1111 860.5 Q1072 819 1047.5 763 Q1023 707 1014 641 L1603 641 Z " />
<glyph glyph-name="ccedilla" unicode="&#xe7;" horiz-adv-x="1161" d="M478 -337 Q515 -337 548.5 -331.5 Q582 -326 607 -314 Q632 -302 646.5 -283.5 Q661 -265 661 -239 Q661 -189 619 -170.5 Q577 -152 486 -145 L517 -13 Q413 3 335.5 49.5 Q258 96 206.5 165 Q155 234 129.5 322.5 Q104 411 104 510 L104 572 Q104 683 136 779.5 Q168 876 232 948 Q296 1020 392.5 1061 Q489 1102 618 1102 Q719 1102 802 1073 Q885 1044 945.5 991.5 Q1006 939 1041 867.5 Q1076 796 1080 710 L899 710 Q895 762 873.5 805.5 Q852 849 815 880.5 Q778 912 728 930 Q678 948 618 948 Q526 948 464 916.5 Q402 885 364.5 832.5 Q327 780 311 712 Q295 644 295 572 L295 510 Q295 437 310.5 369.5 Q326 302 363.5 249.5 Q401 197 463 165.5 Q525 134 618 134 Q672 134 721.5 148.5 Q771 163 809 190 Q847 217 871 255.5 Q895 294 899 342 L1080 342 Q1077 272 1042 209 Q1007 146 950 97 Q893 48 817.5 17.5 Q742 -13 656 -19 L646 -62 Q678 -67 708 -78.5 Q738 -90 761 -110.5 Q784 -131 798.5 -161.5 Q813 -192 813 -235 Q813 -330 729.5 -387.5 Q646 -445 485 -445 L478 -337 Z " />
<glyph glyph-name="egrave" unicode="&#xe8;" horiz-adv-x="1176" >
<path fill="black" d="M104 555 Q104 690 145.5 792.5 Q187 895 257.5 964 Q328 1033 420 1067.5 Q512 1102 613 1102 Q735 1102 825 1063.5 Q915 1025 974 955.5 Q1033 886 1062 789 Q1091 692 1091 576 L1091 487 L295 487 Q296 409 321 344 Q346 279 392 232.5 Q438 186 503 160 Q568 134 649 134 Q754 134 829 172 Q904 210 961 273 L1072 178 Q1044 141 1004.5 105 Q965 69 912 41.5 Q859 14 791 -3 Q723 -20 639 -20 Q518 -20 419 16.5 Q320 53 250 120 Q180 187 142 281.5 Q104 376 104 493 L104 555 Z M899 640 L899 658 Q896 714 879.5 766 Q863 818 829.5 858.5 Q796 899 742.5 923.5 Q689 948 613 948 Q550 948 496.5 929.5 Q443 911 402.5 872.5 Q362 834 335.5 776 Q309 718 300 640 L899 640 Z " />
<g transform="translate(199,0)" >
<path fill="black" d="M353 1242 L76 1536 L306 1536 L520 1242 L353 1242 Z " />
</g>
</glyph>
<glyph glyph-name="eacute" unicode="&#xe9;" horiz-adv-x="1176" >
<path fill="black" d="M104 555 Q104 690 145.5 792.5 Q187 895 257.5 964 Q328 1033 420 1067.5 Q512 1102 613 1102 Q735 1102 825 1063.5 Q915 1025 974 955.5 Q1033 886 1062 789 Q1091 692 1091 576 L1091 487 L295 487 Q296 409 321 344 Q346 279 392 232.5 Q438 186 503 160 Q568 134 649 134 Q754 134 829 172 Q904 210 961 273 L1072 178 Q1044 141 1004.5 105 Q965 69 912 41.5 Q859 14 791 -3 Q723 -20 639 -20 Q518 -20 419 16.5 Q320 53 250 120 Q180 187 142 281.5 Q104 376 104 493 L104 555 Z M899 640 L899 658 Q896 714 879.5 766 Q863 818 829.5 858.5 Q796 899 742.5 923.5 Q689 948 613 948 Q550 948 496.5 929.5 Q443 911 402.5 872.5 Q362 834 335.5 776 Q309 718 300 640 L899 640 Z " />
<g transform="translate(370,0)" >
<path fill="black" d="M351 1536 L581 1536 L295 1242 L137 1242 L351 1536 Z " />
</g>
</glyph>
<glyph glyph-name="ecircumflex" unicode="&#xea;" horiz-adv-x="1176" >
<path fill="black" d="M104 555 Q104 690 145.5 792.5 Q187 895 257.5 964 Q328 1033 420 1067.5 Q512 1102 613 1102 Q735 1102 825 1063.5 Q915 1025 974 955.5 Q1033 886 1062 789 Q1091 692 1091 576 L1091 487 L295 487 Q296 409 321 344 Q346 279 392 232.5 Q438 186 503 160 Q568 134 649 134 Q754 134 829 172 Q904 210 961 273 L1072 178 Q1044 141 1004.5 105 Q965 69 912 41.5 Q859 14 791 -3 Q723 -20 639 -20 Q518 -20 419 16.5 Q320 53 250 120 Q180 187 142 281.5 Q104 376 104 493 L104 555 Z M899 640 L899 658 Q896 714 879.5 766 Q863 818 829.5 858.5 Q796 899 742.5 923.5 Q689 948 613 948 Q550 948 496.5 929.5 Q443 911 402.5 872.5 Q362 834 335.5 776 Q309 718 300 640 L899 640 Z " />
<g transform="translate(106,0)" >
<path fill="black" d="M183 1264 L449 1537 L565 1537 L834 1263 L834 1253 L673 1253 L507 1421 L341 1253 L183 1253 L183 1264 Z " />
</g>
</glyph>
<glyph glyph-name="edieresis" unicode="&#xeb;" horiz-adv-x="1176" >
<path fill="black" d="M104 555 Q104 690 145.5 792.5 Q187 895 257.5 964 Q328 1033 420 1067.5 Q512 1102 613 1102 Q735 1102 825 1063.5 Q915 1025 974 955.5 Q1033 886 1062 789 Q1091 692 1091 576 L1091 487 L295 487 Q296 409 321 344 Q346 279 392 232.5 Q438 186 503 160 Q568 134 649 134 Q754 134 829 172 Q904 210 961 273 L1072 178 Q1044 141 1004.5 105 Q965 69 912 41.5 Q859 14 791 -3 Q723 -20 639 -20 Q518 -20 419 16.5 Q320 53 250 120 Q180 187 142 281.5 Q104 376 104 493 L104 555 Z M899 640 L899 658 Q896 714 879.5 766 Q863 818 829.5 858.5 Q796 899 742.5 923.5 Q689 948 613 948 Q550 948 496.5 929.5 Q443 911 402.5 872.5 Q362 834 335.5 776 Q309 718 300 640 L899 640 Z " />
<g transform="translate(95,4)" >
<path fill="black" d="M158 1367 Q158 1412 187.5 1443.5 Q217 1475 273 1475 Q328 1475 358 1443.5 Q388 1412 388 1367 Q388 1322 358 1291.5 Q328 1261 273 1261 Q217 1261 187.5 1291.5 Q158 1322 158 1367 Z " />
</g>
<g transform="translate(580,2)" >
<path fill="black" d="M158 1367 Q158 1412 187.5 1443.5 Q217 1475 273 1475 Q328 1475 358 1443.5 Q388 1412 388 1367 Q388 1322 358 1291.5 Q328 1261 273 1261 Q217 1261 187.5 1291.5 Q158 1322 158 1367 Z " />
</g>
</glyph>
<glyph glyph-name="igrave" unicode="&#xec;" horiz-adv-x="549" >
<path fill="black" d="M175 0 L175 1082 L367 1082 L367 0 L175 0 Z " />
<g transform="translate(-139,-1)" >
<path fill="black" d="M353 1242 L76 1536 L306 1536 L520 1242 L353 1242 Z " />
</g>
</glyph>
<glyph glyph-name="iacute" unicode="&#xed;" horiz-adv-x="549" >
<path fill="black" d="M175 0 L175 1082 L367 1082 L367 0 L175 0 Z " />
<g transform="translate(32,-1)" >
<path fill="black" d="M351 1536 L581 1536 L295 1242 L137 1242 L351 1536 Z " />
</g>
</glyph>
<glyph glyph-name="icircumflex" unicode="&#xee;" horiz-adv-x="549" >
<path fill="black" d="M175 0 L175 1082 L367 1082 L367 0 L175 0 Z " />
<g transform="translate(-232,-1)" >
<path fill="black" d="M183 1264 L449 1537 L565 1537 L834 1263 L834 1253 L673 1253 L507 1421 L341 1253 L183 1253 L183 1264 Z " />
</g>
</glyph>
<glyph glyph-name="idieresis" unicode="&#xef;" horiz-adv-x="549" >
<path fill="black" d="M175 0 L175 1082 L367 1082 L367 0 L175 0 Z " />
<g transform="translate(-243,3)" >
<path fill="black" d="M158 1367 Q158 1412 187.5 1443.5 Q217 1475 273 1475 Q328 1475 358 1443.5 Q388 1412 388 1367 Q388 1322 358 1291.5 Q328 1261 273 1261 Q217 1261 187.5 1291.5 Q158 1322 158 1367 Z " />
</g>
<g transform="translate(242,1)" >
<path fill="black" d="M158 1367 Q158 1412 187.5 1443.5 Q217 1475 273 1475 Q328 1475 358 1443.5 Q388 1412 388 1367 Q388 1322 358 1291.5 Q328 1261 273 1261 Q217 1261 187.5 1291.5 Q158 1322 158 1367 Z " />
</g>
</glyph>
<glyph glyph-name="eth" unicode="&#xf0;" horiz-adv-x="1300" d="M425 1150 L628 1280 Q553 1329 467.5 1363 Q382 1397 290 1419 L349 1581 Q479 1555 590.5 1506 Q702 1457 795 1388 L997 1517 L1070 1417 L893 1303 Q1019 1178 1087.5 1010 Q1156 842 1156 634 L1156 535 Q1156 412 1118.5 309.5 Q1081 207 1014.5 134 Q948 61 856 20.5 Q764 -20 656 -20 Q543 -20 448.5 18 Q354 56 286.5 122 Q219 188 181.5 277 Q144 366 144 468 Q144 584 179.5 678 Q215 772 278.5 839 Q342 906 430.5 942.5 Q519 979 624 979 Q718 979 798 946.5 Q878 914 938 860 Q910 966 857 1050 Q804 1134 732 1200 L497 1049 L425 1150 Z M661 134 Q732 134 788 164.5 Q844 195 883.5 248.5 Q923 302 944 375.5 Q965 449 965 535 L965 636 Q965 650 964.5 664.5 Q964 679 963 693 Q947 719 921 743 Q895 767 858 785 Q821 803 773.5 814 Q726 825 668 825 Q587 825 525 800 Q463 775 421 728.5 Q379 682 357.5 616 Q336 550 336 468 Q336 407 357.5 347 Q379 287 420 240 Q461 193 522 163.5 Q583 134 661 134 Z " />
<glyph glyph-name="ntilde" unicode="&#xf1;" horiz-adv-x="1229" >
<path fill="black" d="M159 1082 L340 1082 L346 933 Q409 1012 499 1057 Q589 1102 701 1102 Q787 1102 856 1080.5 Q925 1059 973 1012 Q1021 965 1047 890.5 Q1073 816 1073 709 L1073 0 L881 0 L881 711 Q881 836 819 890 Q757 944 642 944 Q539 944 465 894.5 Q391 845 350 764 L350 0 L159 0 L159 1082 Z " />
<g transform="translate(113,3)" >
<path fill="black" d="M135 1247 Q135 1302 152.5 1348 Q170 1394 200 1427 Q230 1460 271.5 1478 Q313 1496 361 1496 Q408 1496 443.5 1481 Q479 1466 511.5 1448.5 Q544 1431 577 1416 Q610 1401 653 1401 Q676 1401 696 1409.5 Q716 1418 730.5 1433 Q745 1448 753.5 1468.5 Q762 1489 762 1513 L891 1501 Q891 1446 873 1401 Q855 1356 824.5 1324.5 Q794 1293 752.5 1275.5 Q711 1258 663 1258 Q608 1258 572.5 1272.5 Q537 1287 507 1305 Q477 1323 447 1337.5 Q417 1352 372 1352 Q349 1352 329 1343.5 Q309 1335 294.5 1320 Q280 1305 271.5 1284.5 Q263 1264 263 1241 L135 1247 Z " />
</g>
</glyph>
<glyph glyph-name="ograve" unicode="&#xf2;" horiz-adv-x="1264" >
<path fill="black" d="M103 562 Q103 681 140.5 780.5 Q178 880 246.5 951.5 Q315 1023 412.5 1062.5 Q510 1102 630 1102 Q752 1102 850 1062.5 Q948 1023 1017 951.5 Q1086 880 1123 780.5 Q1160 681 1160 562 L1160 519 Q1160 400 1123 301 Q1086 202 1017.5 130.5 Q949 59 851.5 19.5 Q754 -20 633 -20 Q512 -20 414 19.5 Q316 59 247 130.5 Q178 202 140.5 301 Q103 400 103 519 L103 562 Z M295 519 Q295 437 316.5 367 Q338 297 380.5 245 Q423 193 486.5 163.5 Q550 134 633 134 Q716 134 779 163.5 Q842 193 884 245 Q926 297 947.5 367 Q969 437 969 519 L969 562 Q969 643 947.5 713.5 Q926 784 883 836 Q840 888 776.5 918 Q713 948 630 948 Q548 948 485.5 918 Q423 888 380.5 836 Q338 784 316.5 713.5 Q295 643 295 562 L295 519 Z " />
<g transform="translate(210,0)" >
<path fill="black" d="M353 1242 L76 1536 L306 1536 L520 1242 L353 1242 Z " />
</g>
</glyph>
<glyph glyph-name="oacute" unicode="&#xf3;" horiz-adv-x="1264" >
<path fill="black" d="M103 562 Q103 681 140.5 780.5 Q178 880 246.5 951.5 Q315 1023 412.5 1062.5 Q510 1102 630 1102 Q752 1102 850 1062.5 Q948 1023 1017 951.5 Q1086 880 1123 780.5 Q1160 681 1160 562 L1160 519 Q1160 400 1123 301 Q1086 202 1017.5 130.5 Q949 59 851.5 19.5 Q754 -20 633 -20 Q512 -20 414 19.5 Q316 59 247 130.5 Q178 202 140.5 301 Q103 400 103 519 L103 562 Z M295 519 Q295 437 316.5 367 Q338 297 380.5 245 Q423 193 486.5 163.5 Q550 134 633 134 Q716 134 779 163.5 Q842 193 884 245 Q926 297 947.5 367 Q969 437 969 519 L969 562 Q969 643 947.5 713.5 Q926 784 883 836 Q840 888 776.5 918 Q713 948 630 948 Q548 948 485.5 918 Q423 888 380.5 836 Q338 784 316.5 713.5 Q295 643 295 562 L295 519 Z " />
<g transform="translate(381,0)" >
<path fill="black" d="M351 1536 L581 1536 L295 1242 L137 1242 L351 1536 Z " />
</g>
</glyph>
<glyph glyph-name="ocircumflex" unicode="&#xf4;" horiz-adv-x="1264" >
<path fill="black" d="M103 562 Q103 681 140.5 780.5 Q178 880 246.5 951.5 Q315 1023 412.5 1062.5 Q510 1102 630 1102 Q752 1102 850 1062.5 Q948 1023 1017 951.5 Q1086 880 1123 780.5 Q1160 681 1160 562 L1160 519 Q1160 400 1123 301 Q1086 202 1017.5 130.5 Q949 59 851.5 19.5 Q754 -20 633 -20 Q512 -20 414 19.5 Q316 59 247 130.5 Q178 202 140.5 301 Q103 400 103 519 L103 562 Z M295 519 Q295 437 316.5 367 Q338 297 380.5 245 Q423 193 486.5 163.5 Q550 134 633 134 Q716 134 779 163.5 Q842 193 884 245 Q926 297 947.5 367 Q969 437 969 519 L969 562 Q969 643 947.5 713.5 Q926 784 883 836 Q840 888 776.5 918 Q713 948 630 948 Q548 948 485.5 918 Q423 888 380.5 836 Q338 784 316.5 713.5 Q295 643 295 562 L295 519 Z " />
<g transform="translate(117,0)" >
<path fill="black" d="M183 1264 L449 1537 L565 1537 L834 1263 L834 1253 L673 1253 L507 1421 L341 1253 L183 1253 L183 1264 Z " />
</g>
</glyph>
<glyph glyph-name="otilde" unicode="&#xf5;" horiz-adv-x="1264" >
<path fill="black" d="M103 562 Q103 681 140.5 780.5 Q178 880 246.5 951.5 Q315 1023 412.5 1062.5 Q510 1102 630 1102 Q752 1102 850 1062.5 Q948 1023 1017 951.5 Q1086 880 1123 780.5 Q1160 681 1160 562 L1160 519 Q1160 400 1123 301 Q1086 202 1017.5 130.5 Q949 59 851.5 19.5 Q754 -20 633 -20 Q512 -20 414 19.5 Q316 59 247 130.5 Q178 202 140.5 301 Q103 400 103 519 L103 562 Z M295 519 Q295 437 316.5 367 Q338 297 380.5 245 Q423 193 486.5 163.5 Q550 134 633 134 Q716 134 779 163.5 Q842 193 884 245 Q926 297 947.5 367 Q969 437 969 519 L969 562 Q969 643 947.5 713.5 Q926 784 883 836 Q840 888 776.5 918 Q713 948 630 948 Q548 948 485.5 918 Q423 888 380.5 836 Q338 784 316.5 713.5 Q295 643 295 562 L295 519 Z " />
<g transform="translate(114,3)" >
<path fill="black" d="M135 1247 Q135 1302 152.5 1348 Q170 1394 200 1427 Q230 1460 271.5 1478 Q313 1496 361 1496 Q408 1496 443.5 1481 Q479 1466 511.5 1448.5 Q544 1431 577 1416 Q610 1401 653 1401 Q676 1401 696 1409.5 Q716 1418 730.5 1433 Q745 1448 753.5 1468.5 Q762 1489 762 1513 L891 1501 Q891 1446 873 1401 Q855 1356 824.5 1324.5 Q794 1293 752.5 1275.5 Q711 1258 663 1258 Q608 1258 572.5 1272.5 Q537 1287 507 1305 Q477 1323 447 1337.5 Q417 1352 372 1352 Q349 1352 329 1343.5 Q309 1335 294.5 1320 Q280 1305 271.5 1284.5 Q263 1264 263 1241 L135 1247 Z " />
</g>
</glyph>
<glyph glyph-name="odieresis" unicode="&#xf6;" horiz-adv-x="1264" >
<path fill="black" d="M103 562 Q103 681 140.5 780.5 Q178 880 246.5 951.5 Q315 1023 412.5 1062.5 Q510 1102 630 1102 Q752 1102 850 1062.5 Q948 1023 1017 951.5 Q1086 880 1123 780.5 Q1160 681 1160 562 L1160 519 Q1160 400 1123 301 Q1086 202 1017.5 130.5 Q949 59 851.5 19.5 Q754 -20 633 -20 Q512 -20 414 19.5 Q316 59 247 130.5 Q178 202 140.5 301 Q103 400 103 519 L103 562 Z M295 519 Q295 437 316.5 367 Q338 297 380.5 245 Q423 193 486.5 163.5 Q550 134 633 134 Q716 134 779 163.5 Q842 193 884 245 Q926 297 947.5 367 Q969 437 969 519 L969 562 Q969 643 947.5 713.5 Q926 784 883 836 Q840 888 776.5 918 Q713 948 630 948 Q548 948 485.5 918 Q423 888 380.5 836 Q338 784 316.5 713.5 Q295 643 295 562 L295 519 Z " />
<g transform="translate(106,4)" >
<path fill="black" d="M158 1367 Q158 1412 187.5 1443.5 Q217 1475 273 1475 Q328 1475 358 1443.5 Q388 1412 388 1367 Q388 1322 358 1291.5 Q328 1261 273 1261 Q217 1261 187.5 1291.5 Q158 1322 158 1367 Z " />
</g>
<g transform="translate(591,2)" >
<path fill="black" d="M158 1367 Q158 1412 187.5 1443.5 Q217 1475 273 1475 Q328 1475 358 1443.5 Q388 1412 388 1367 Q388 1322 358 1291.5 Q328 1261 273 1261 Q217 1261 187.5 1291.5 Q158 1322 158 1367 Z " />
</g>
</glyph>
<glyph glyph-name="divide" unicode="&#xf7;" horiz-adv-x="1270" d="M82 599 L82 785 L1159 785 L1159 599 L82 599 Z M508 282 Q508 330 539.5 362.5 Q571 395 630 395 Q689 395 720.5 362.5 Q752 330 752 282 Q752 235 720.5 203 Q689 171 630 171 Q571 171 539.5 203 Q508 235 508 282 Z M508 1099 Q508 1147 539.5 1179.5 Q571 1212 630 1212 Q689 1212 720.5 1179.5 Q752 1147 752 1099 Q752 1052 720.5 1020 Q689 988 630 988 Q571 988 539.5 1020 Q508 1052 508 1099 Z " />
<glyph glyph-name="oslash" unicode="&#xf8;" horiz-adv-x="1130" d="M324 67 Q220 137 162.5 253.5 Q105 370 105 519 L105 562 Q105 681 142.5 780.5 Q180 880 248.5 951.5 Q317 1023 414.5 1062.5 Q512 1102 632 1102 Q753 1102 853 1062 L931 1209 L1059 1209 L952 1008 Q1053 937 1107.5 822.5 Q1162 708 1162 562 L1162 519 Q1162 400 1125 301 Q1088 202 1019.5 130.5 Q951 59 853.5 19.5 Q756 -20 635 -20 Q577 -20 525 -10.5 Q473 -1 425 16 L345 -135 L217 -135 L324 67 Z M777 919 Q713 948 632 948 Q550 948 487.5 918 Q425 888 382.5 836 Q340 784 318.5 713.5 Q297 643 297 562 L297 519 Q297 426 324.5 349.5 Q352 273 406 220 L777 919 Z M501 158 Q530 147 563.5 140.5 Q597 134 635 134 Q718 134 781 163.5 Q844 193 886 245 Q928 297 949.5 367 Q971 437 971 519 L971 562 Q971 650 946 725 Q921 800 870 853 L501 158 Z " />
<glyph glyph-name="ugrave" unicode="&#xf9;" horiz-adv-x="1228" >
<path fill="black" d="M154 1082 L346 1082 L346 382 Q346 309 364.5 262 Q383 215 414 187.5 Q445 160 485.5 149.5 Q526 139 569 139 Q695 139 769.5 184 Q844 229 878 302 L878 1082 L1070 1082 L1070 0 L888 0 L883 117 Q829 52 743.5 16 Q658 -20 537 -20 Q452 -20 381 2.5 Q310 25 260 74 Q210 123 182 199.5 Q154 276 154 384 L154 1082 Z " />
<g transform="translate(205,0)" >
<path fill="black" d="M353 1242 L76 1536 L306 1536 L520 1242 L353 1242 Z " />
</g>
</glyph>
<glyph glyph-name="uacute" unicode="&#xfa;" horiz-adv-x="1228" >
<path fill="black" d="M154 1082 L346 1082 L346 382 Q346 309 364.5 262 Q383 215 414 187.5 Q445 160 485.5 149.5 Q526 139 569 139 Q695 139 769.5 184 Q844 229 878 302 L878 1082 L1070 1082 L1070 0 L888 0 L883 117 Q829 52 743.5 16 Q658 -20 537 -20 Q452 -20 381 2.5 Q310 25 260 74 Q210 123 182 199.5 Q154 276 154 384 L154 1082 Z " />
<g transform="translate(376,0)" >
<path fill="black" d="M351 1536 L581 1536 L295 1242 L137 1242 L351 1536 Z " />
</g>
</glyph>
<glyph glyph-name="ucircumflex" unicode="&#xfb;" horiz-adv-x="1228" >
<path fill="black" d="M154 1082 L346 1082 L346 382 Q346 309 364.5 262 Q383 215 414 187.5 Q445 160 485.5 149.5 Q526 139 569 139 Q695 139 769.5 184 Q844 229 878 302 L878 1082 L1070 1082 L1070 0 L888 0 L883 117 Q829 52 743.5 16 Q658 -20 537 -20 Q452 -20 381 2.5 Q310 25 260 74 Q210 123 182 199.5 Q154 276 154 384 L154 1082 Z " />
<g transform="translate(112,0)" >
<path fill="black" d="M183 1264 L449 1537 L565 1537 L834 1263 L834 1253 L673 1253 L507 1421 L341 1253 L183 1253 L183 1264 Z " />
</g>
</glyph>
<glyph glyph-name="udieresis" unicode="&#xfc;" horiz-adv-x="1228" >
<path fill="black" d="M154 1082 L346 1082 L346 382 Q346 309 364.5 262 Q383 215 414 187.5 Q445 160 485.5 149.5 Q526 139 569 139 Q695 139 769.5 184 Q844 229 878 302 L878 1082 L1070 1082 L1070 0 L888 0 L883 117 Q829 52 743.5 16 Q658 -20 537 -20 Q452 -20 381 2.5 Q310 25 260 74 Q210 123 182 199.5 Q154 276 154 384 L154 1082 Z " />
<g transform="translate(101,4)" >
<path fill="black" d="M158 1367 Q158 1412 187.5 1443.5 Q217 1475 273 1475 Q328 1475 358 1443.5 Q388 1412 388 1367 Q388 1322 358 1291.5 Q328 1261 273 1261 Q217 1261 187.5 1291.5 Q158 1322 158 1367 Z " />
</g>
<g transform="translate(586,2)" >
<path fill="black" d="M158 1367 Q158 1412 187.5 1443.5 Q217 1475 273 1475 Q328 1475 358 1443.5 Q388 1412 388 1367 Q388 1322 358 1291.5 Q328 1261 273 1261 Q217 1261 187.5 1291.5 Q158 1322 158 1367 Z " />
</g>
</glyph>
<glyph glyph-name="yacute" unicode="&#xfd;" horiz-adv-x="1061" >
<path fill="black" d="M101 -269 Q111 -271 130.5 -272 Q150 -273 158 -273 Q209 -273 247 -264 Q285 -255 314 -234.5 Q343 -214 366 -180.5 Q389 -147 409 -98 L452 9 L31 1082 L239 1082 L547 266 L824 1082 L1029 1082 L555 -167 Q540 -207 514.5 -254.5 Q489 -302 448.5 -342.5 Q408 -383 350.5 -410 Q293 -437 213 -437 Q200 -437 184.5 -435 Q169 -433 153 -430.5 Q137 -428 123.5 -425.5 Q110 -423 101 -421 L101 -269 Z " />
<g transform="translate(312,0)" >
<path fill="black" d="M351 1536 L581 1536 L295 1242 L137 1242 L351 1536 Z " />
</g>
</glyph>
<glyph glyph-name="thorn" unicode="&#xfe;" horiz-adv-x="1273" d="M167 1536 L358 1536 L358 959 Q417 1028 499.5 1065 Q582 1102 692 1102 Q801 1102 885.5 1062 Q970 1022 1027.5 949.5 Q1085 877 1115 775.5 Q1145 674 1145 550 L1145 529 Q1145 411 1115 310 Q1085 209 1027.5 136 Q970 63 886.5 21.5 Q803 -20 695 -20 Q584 -20 500.5 15 Q417 50 358 116 L358 -416 L167 -416 L167 1536 Z M358 288 Q378 255 404 226.5 Q430 198 465 177.5 Q500 157 543.5 145.5 Q587 134 641 134 Q722 134 781 165.5 Q840 197 878 251 Q916 305 934.5 377 Q953 449 953 529 L953 550 Q953 630 934.5 701.5 Q916 773 877.5 827 Q839 881 779.5 912.5 Q720 944 638 944 Q584 944 541 932.5 Q498 921 463.5 900 Q429 879 403 850.5 Q377 822 358 789 L358 288 Z " />
<glyph glyph-name="ydieresis" unicode="&#xff;" horiz-adv-x="1061" >
<path fill="black" d="M101 -269 Q111 -271 130.5 -272 Q150 -273 158 -273 Q209 -273 247 -264 Q285 -255 314 -234.5 Q343 -214 366 -180.5 Q389 -147 409 -98 L452 9 L31 1082 L239 1082 L547 266 L824 1082 L1029 1082 L555 -167 Q540 -207 514.5 -254.5 Q489 -302 448.5 -342.5 Q408 -383 350.5 -410 Q293 -437 213 -437 Q200 -437 184.5 -435 Q169 -433 153 -430.5 Q137 -428 123.5 -425.5 Q110 -423 101 -421 L101 -269 Z " />
<g transform="translate(37,4)" >
<path fill="black" d="M158 1367 Q158 1412 187.5 1443.5 Q217 1475 273 1475 Q328 1475 358 1443.5 Q388 1412 388 1367 Q388 1322 358 1291.5 Q328 1261 273 1261 Q217 1261 187.5 1291.5 Q158 1322 158 1367 Z " />
</g>
<g transform="translate(522,2)" >
<path fill="black" d="M158 1367 Q158 1412 187.5 1443.5 Q217 1475 273 1475 Q328 1475 358 1443.5 Q388 1412 388 1367 Q388 1322 358 1291.5 Q328 1261 273 1261 Q217 1261 187.5 1291.5 Q158 1322 158 1367 Z " />
</g>
</glyph>
<glyph glyph-name="Amacron" unicode="&#x100;" horiz-adv-x="1439" d="M631 1456 L809 1456 L1405 0 L1200 0 L1051 380 L389 380 L241 0 L36 0 L631 1456 Z M989 540 L720 1228 L452 540 L989 540 Z M371 1764 L1082 1764 L1082 1620 L371 1620 L371 1764 Z " />
<glyph glyph-name="amacron" unicode="&#x101;" horiz-adv-x="1205" d="M143 782 Q143 840 176 897.5 Q209 955 269 1000.5 Q329 1046 414 1074 Q499 1102 604 1102 Q699 1102 779 1080.5 Q859 1059 916.5 1015 Q974 971 1006 904.5 Q1038 838 1038 747 L1038 237 Q1038 210 1040.5 180.5 Q1043 151 1048 122 Q1053 93 1060.5 66 Q1068 39 1078 17 L1078 0 L879 0 Q868 22 861 54.5 Q854 87 850 122 Q822 94 786.5 68 Q751 42 708 22.5 Q665 3 614.5 -8.5 Q564 -20 507 -20 Q419 -20 347.5 4 Q276 28 225 70.5 Q174 113 146 171.5 Q118 230 118 300 Q118 386 154.5 452.5 Q191 519 259 565 Q327 611 425 634.5 Q523 658 646 658 L846 658 L846 749 Q846 845 783 898 Q720 951 595 951 Q537 951 488.5 937.5 Q440 924 406 900.5 Q372 877 353 846.5 Q334 816 334 782 L143 782 Z M846 525 L673 525 Q498 525 403.5 475.5 Q309 426 309 326 Q309 243 367 193.5 Q425 144 536 144 Q593 144 642 158 Q691 172 731 195 Q771 218 800 246.5 Q829 275 846 305 L846 525 Z M277 1453 L988 1453 L988 1309 L277 1309 L277 1453 Z " />
<glyph glyph-name="Abreve" unicode="&#x102;" horiz-adv-x="1439" >
<path fill="black" d="M631 1456 L809 1456 L1405 0 L1200 0 L1051 380 L389 380 L241 0 L36 0 L631 1456 Z M989 540 L720 1228 L452 540 L989 540 Z " />
<g transform="translate(244,311)" >
<path fill="black" d="M299 1495 Q299 1466 308.5 1439.5 Q318 1413 339 1392.5 Q360 1372 393.5 1360 Q427 1348 475 1348 Q523 1348 556.5 1360 Q590 1372 611 1392.5 Q632 1413 642 1439.5 Q652 1466 652 1495 L807 1495 Q807 1436 784 1387 Q761 1338 718 1302.5 Q675 1267 613.5 1247.5 Q552 1228 475 1228 Q398 1228 336.5 1247.5 Q275 1267 232 1302.5 Q189 1338 166 1387 Q143 1436 143 1495 L299 1495 Z " />
</g>
</glyph>
<glyph glyph-name="abreve" unicode="&#x103;" horiz-adv-x="1205" >
<path fill="black" d="M143 782 Q143 840 176 897.5 Q209 955 269 1000.5 Q329 1046 414 1074 Q499 1102 604 1102 Q699 1102 779 1080.5 Q859 1059 916.5 1015 Q974 971 1006 904.5 Q1038 838 1038 747 L1038 237 Q1038 210 1040.5 180.5 Q1043 151 1048 122 Q1053 93 1060.5 66 Q1068 39 1078 17 L1078 0 L879 0 Q868 22 861 54.5 Q854 87 850 122 Q822 94 786.5 68 Q751 42 708 22.5 Q665 3 614.5 -8.5 Q564 -20 507 -20 Q419 -20 347.5 4 Q276 28 225 70.5 Q174 113 146 171.5 Q118 230 118 300 Q118 386 154.5 452.5 Q191 519 259 565 Q327 611 425 634.5 Q523 658 646 658 L846 658 L846 749 Q846 845 783 898 Q720 951 595 951 Q537 951 488.5 937.5 Q440 924 406 900.5 Q372 877 353 846.5 Q334 816 334 782 L143 782 Z M846 525 L673 525 Q498 525 403.5 475.5 Q309 426 309 326 Q309 243 367 193.5 Q425 144 536 144 Q593 144 642 158 Q691 172 731 195 Q771 218 800 246.5 Q829 275 846 305 L846 525 Z " />
<g transform="translate(150,0)" >
<path fill="black" d="M299 1495 Q299 1466 308.5 1439.5 Q318 1413 339 1392.5 Q360 1372 393.5 1360 Q427 1348 475 1348 Q523 1348 556.5 1360 Q590 1372 611 1392.5 Q632 1413 642 1439.5 Q652 1466 652 1495 L807 1495 Q807 1436 784 1387 Q761 1338 718 1302.5 Q675 1267 613.5 1247.5 Q552 1228 475 1228 Q398 1228 336.5 1247.5 Q275 1267 232 1302.5 Q189 1338 166 1387 Q143 1436 143 1495 L299 1495 Z " />
</g>
</glyph>
<glyph glyph-name="Aogonek" unicode="&#x104;" horiz-adv-x="1439" d="M631 1456 L809 1456 L1405 0 L1366 0 Q1330 -24 1297 -49.5 Q1264 -75 1238 -102.5 Q1212 -130 1196.5 -159.5 Q1181 -189 1181 -221 Q1181 -255 1199.5 -274.5 Q1218 -294 1266 -294 Q1302 -294 1329 -284.5 Q1356 -275 1373 -267 L1389 -391 Q1363 -406 1323 -420.5 Q1283 -435 1220 -435 Q1177 -435 1140 -422.5 Q1103 -410 1075.5 -386 Q1048 -362 1032.5 -326 Q1017 -290 1017 -243 Q1017 -177 1060 -111.5 Q1103 -46 1196 11 L1051 380 L389 380 L241 0 L36 0 L631 1456 Z M989 540 L720 1228 L452 540 L989 540 Z " />
<glyph glyph-name="aogonek" unicode="&#x105;" horiz-adv-x="1205" d="M1069 -391 Q1043 -406 1003 -420.5 Q963 -435 900 -435 Q857 -435 820 -422.5 Q783 -410 755.5 -386 Q728 -362 712.5 -326 Q697 -290 697 -243 Q697 -177 740 -112 Q783 -47 874 10 Q865 32 859 61.5 Q853 91 850 122 Q822 94 786.5 68 Q751 42 708 22.5 Q665 3 614.5 -8.5 Q564 -20 507 -20 Q419 -20 347.5 4 Q276 28 225 70.5 Q174 113 146 171.5 Q118 230 118 300 Q118 386 154.5 452.5 Q191 519 259 565 Q327 611 425 634.5 Q523 658 646 658 L846 658 L846 749 Q846 845 783 898 Q720 951 595 951 Q537 951 488.5 937.5 Q440 924 406 900.5 Q372 877 353 846.5 Q334 816 334 782 L143 782 Q143 840 176 897.5 Q209 955 269 1000.5 Q329 1046 414 1074 Q499 1102 604 1102 Q699 1102 779 1080.5 Q859 1059 916.5 1015 Q974 971 1006 904.5 Q1038 838 1038 747 L1038 237 Q1038 210 1040.5 180.5 Q1043 151 1048 122 Q1053 93 1060.5 66 Q1068 39 1078 17 L1078 0 L1046 0 Q1010 -24 977 -49.5 Q944 -75 918 -102.5 Q892 -130 876.5 -159.5 Q861 -189 861 -221 Q861 -255 879.5 -274.5 Q898 -294 946 -294 Q982 -294 1009 -284.5 Q1036 -275 1053 -267 L1069 -391 Z M846 525 L673 525 Q498 525 403.5 475.5 Q309 426 309 326 Q309 243 367 193.5 Q425 144 536 144 Q593 144 642 158 Q691 172 731 195 Q771 218 800 246.5 Q829 275 846 305 L846 525 Z " />
<glyph glyph-name="Cacute" unicode="&#x106;" horiz-adv-x="1448" >
<path fill="black" d="M137 816 Q137 966 180.5 1088 Q224 1210 304.5 1296 Q385 1382 500.5 1429 Q616 1476 760 1476 Q892 1476 994.5 1441 Q1097 1406 1169.5 1342 Q1242 1278 1284 1188 Q1326 1098 1338 988 L1139 988 Q1128 1066 1102 1127 Q1076 1188 1031 1230 Q986 1272 919 1294 Q852 1316 760 1316 Q657 1316 577.5 1280 Q498 1244 444.5 1179 Q391 1114 363.5 1022 Q336 930 336 818 L336 640 Q336 536 361 445 Q386 354 436.5 286 Q487 218 564 178.5 Q641 139 745 139 Q843 139 912.5 160 Q982 181 1028 222 Q1074 263 1100.5 323.5 Q1127 384 1139 463 L1338 463 Q1326 358 1284 269 Q1242 180 1168.5 116 Q1095 52 989 16 Q883 -20 745 -20 Q607 -20 494.5 26.5 Q382 73 302.5 159.5 Q223 246 180 368 Q137 490 137 640 L137 816 Z " />
<g transform="translate(496,343)" >
<path fill="black" d="M351 1536 L581 1536 L295 1242 L137 1242 L351 1536 Z " />
</g>
</glyph>
<glyph glyph-name="cacute" unicode="&#x107;" horiz-adv-x="1161" >
<path fill="black" d="M104 572 Q104 683 136 779.5 Q168 876 232 948 Q296 1020 392.5 1061 Q489 1102 618 1102 Q719 1102 802 1073 Q885 1044 945.5 991.5 Q1006 939 1041 867.5 Q1076 796 1080 710 L899 710 Q895 762 873.5 805.5 Q852 849 815 880.5 Q778 912 728 930 Q678 948 618 948 Q526 948 464 916.5 Q402 885 364.5 832.5 Q327 780 311 712 Q295 644 295 572 L295 510 Q295 437 310.5 369.5 Q326 302 363.5 249.5 Q401 197 463 165.5 Q525 134 618 134 Q672 134 721.5 148.5 Q771 163 809 190 Q847 217 871 255.5 Q895 294 899 342 L1080 342 Q1076 268 1038 202 Q1000 136 937.5 86.5 Q875 37 793 8.5 Q711 -20 619 -20 Q489 -20 392.5 21 Q296 62 232 134 Q168 206 136 302.5 Q104 399 104 510 L104 572 Z " />
<g transform="translate(338,0)" >
<path fill="black" d="M351 1536 L581 1536 L295 1242 L137 1242 L351 1536 Z " />
</g>
</glyph>
<glyph glyph-name="Cdotaccent" unicode="&#x10a;" horiz-adv-x="1448" >
<path fill="black" d="M137 816 Q137 966 180.5 1088 Q224 1210 304.5 1296 Q385 1382 500.5 1429 Q616 1476 760 1476 Q892 1476 994.5 1441 Q1097 1406 1169.5 1342 Q1242 1278 1284 1188 Q1326 1098 1338 988 L1139 988 Q1128 1066 1102 1127 Q1076 1188 1031 1230 Q986 1272 919 1294 Q852 1316 760 1316 Q657 1316 577.5 1280 Q498 1244 444.5 1179 Q391 1114 363.5 1022 Q336 930 336 818 L336 640 Q336 536 361 445 Q386 354 436.5 286 Q487 218 564 178.5 Q641 139 745 139 Q843 139 912.5 160 Q982 181 1028 222 Q1074 263 1100.5 323.5 Q1127 384 1139 463 L1338 463 Q1326 358 1284 269 Q1242 180 1168.5 116 Q1095 52 989 16 Q883 -20 745 -20 Q607 -20 494.5 26.5 Q382 73 302.5 159.5 Q223 246 180 368 Q137 490 137 640 L137 816 Z " />
<g transform="translate(464,343)" >
<path fill="black" d="M158 1367 Q158 1412 187.5 1443.5 Q217 1475 273 1475 Q328 1475 358 1443.5 Q388 1412 388 1367 Q388 1322 358 1291.5 Q328 1261 273 1261 Q217 1261 187.5 1291.5 Q158 1322 158 1367 Z " />
</g>
</glyph>
<glyph glyph-name="cdotaccent" unicode="&#x10b;" horiz-adv-x="1161" >
<path fill="black" d="M104 572 Q104 683 136 779.5 Q168 876 232 948 Q296 1020 392.5 1061 Q489 1102 618 1102 Q719 1102 802 1073 Q885 1044 945.5 991.5 Q1006 939 1041 867.5 Q1076 796 1080 710 L899 710 Q895 762 873.5 805.5 Q852 849 815 880.5 Q778 912 728 930 Q678 948 618 948 Q526 948 464 916.5 Q402 885 364.5 832.5 Q327 780 311 712 Q295 644 295 572 L295 510 Q295 437 310.5 369.5 Q326 302 363.5 249.5 Q401 197 463 165.5 Q525 134 618 134 Q672 134 721.5 148.5 Q771 163 809 190 Q847 217 871 255.5 Q895 294 899 342 L1080 342 Q1076 268 1038 202 Q1000 136 937.5 86.5 Q875 37 793 8.5 Q711 -20 619 -20 Q489 -20 392.5 21 Q296 62 232 134 Q168 206 136 302.5 Q104 399 104 510 L104 572 Z " />
<g transform="translate(306,0)" >
<path fill="black" d="M158 1367 Q158 1412 187.5 1443.5 Q217 1475 273 1475 Q328 1475 358 1443.5 Q388 1412 388 1367 Q388 1322 358 1291.5 Q328 1261 273 1261 Q217 1261 187.5 1291.5 Q158 1322 158 1367 Z " />
</g>
</glyph>
<glyph glyph-name="Ccaron" unicode="&#x10c;" horiz-adv-x="1448" >
<path fill="black" d="M137 816 Q137 966 180.5 1088 Q224 1210 304.5 1296 Q385 1382 500.5 1429 Q616 1476 760 1476 Q892 1476 994.5 1441 Q1097 1406 1169.5 1342 Q1242 1278 1284 1188 Q1326 1098 1338 988 L1139 988 Q1128 1066 1102 1127 Q1076 1188 1031 1230 Q986 1272 919 1294 Q852 1316 760 1316 Q657 1316 577.5 1280 Q498 1244 444.5 1179 Q391 1114 363.5 1022 Q336 930 336 818 L336 640 Q336 536 361 445 Q386 354 436.5 286 Q487 218 564 178.5 Q641 139 745 139 Q843 139 912.5 160 Q982 181 1028 222 Q1074 263 1100.5 323.5 Q1127 384 1139 463 L1338 463 Q1326 358 1284 269 Q1242 180 1168.5 116 Q1095 52 989 16 Q883 -20 745 -20 Q607 -20 494.5 26.5 Q382 73 302.5 159.5 Q223 246 180 368 Q137 490 137 640 L137 816 Z " />
<g transform="translate(253,343)" >
<path fill="black" d="M155 1526 L155 1536 L318 1536 L486 1367 L653 1536 L818 1536 L818 1526 L546 1252 L425 1252 L155 1526 Z " />
</g>
</glyph>
<glyph glyph-name="ccaron" unicode="&#x10d;" horiz-adv-x="1161" >
<path fill="black" d="M104 572 Q104 683 136 779.5 Q168 876 232 948 Q296 1020 392.5 1061 Q489 1102 618 1102 Q719 1102 802 1073 Q885 1044 945.5 991.5 Q1006 939 1041 867.5 Q1076 796 1080 710 L899 710 Q895 762 873.5 805.5 Q852 849 815 880.5 Q778 912 728 930 Q678 948 618 948 Q526 948 464 916.5 Q402 885 364.5 832.5 Q327 780 311 712 Q295 644 295 572 L295 510 Q295 437 310.5 369.5 Q326 302 363.5 249.5 Q401 197 463 165.5 Q525 134 618 134 Q672 134 721.5 148.5 Q771 163 809 190 Q847 217 871 255.5 Q895 294 899 342 L1080 342 Q1076 268 1038 202 Q1000 136 937.5 86.5 Q875 37 793 8.5 Q711 -20 619 -20 Q489 -20 392.5 21 Q296 62 232 134 Q168 206 136 302.5 Q104 399 104 510 L104 572 Z " />
<g transform="translate(95,0)" >
<path fill="black" d="M155 1526 L155 1536 L318 1536 L486 1367 L653 1536 L818 1536 L818 1526 L546 1252 L425 1252 L155 1526 Z " />
</g>
</glyph>
<glyph glyph-name="Dcaron" unicode="&#x10e;" horiz-adv-x="1456" d="M189 1456 L633 1456 Q786 1456 912.5 1410.5 Q1039 1365 1129 1279 Q1219 1193 1269 1069.5 Q1319 946 1319 790 L1319 665 Q1319 509 1269.5 385.5 Q1220 262 1128.5 176.5 Q1037 91 907.5 45.5 Q778 0 618 0 L189 0 L189 1456 Z M618 159 Q742 159 836.5 194 Q931 229 994.5 294.5 Q1058 360 1090 454 Q1122 548 1122 665 L1122 792 Q1122 915 1089 1009 Q1056 1103 993.5 1166.5 Q931 1230 840 1263 Q749 1296 633 1296 L388 1296 L388 159 L618 159 Z M591 1574 L321 1848 L321 1858 L484 1858 L652 1689 L819 1858 L984 1858 L984 1848 L712 1574 L591 1574 Z " />
<glyph glyph-name="dcaron" unicode="&#x10f;" horiz-adv-x="1268" >
<path fill="black" d="M109 560 Q109 686 141.5 786.5 Q174 887 233.5 957 Q293 1027 377.5 1064.5 Q462 1102 566 1102 Q675 1102 756.5 1065 Q838 1028 895 959 L895 1536 L1087 1536 L1087 0 L910 0 L901 128 Q844 56 760.5 18 Q677 -20 564 -20 Q461 -20 377 19 Q293 58 233.5 129 Q174 200 141.5 299 Q109 398 109 519 L109 560 Z M301 519 Q301 437 319 367 Q337 297 374.5 246.5 Q412 196 470.5 167.5 Q529 139 610 139 Q665 139 709 151 Q753 163 788 184.5 Q823 206 849.5 235.5 Q876 265 895 300 L895 790 Q876 823 850 851 Q824 879 789 900 Q754 921 710 932.5 Q666 944 612 944 Q530 944 471.5 915 Q413 886 375 834.5 Q337 783 319 713 Q301 643 301 560 L301 519 Z " />
</glyph>
<glyph glyph-name="Dcroat" unicode="&#x110;" horiz-adv-x="1456" >
<path fill="black" d="M189 665 L17 665 L17 818 L189 818 L189 1456 L633 1456 Q786 1456 912.5 1410.5 Q1039 1365 1129 1279 Q1219 1193 1269 1069.5 Q1319 946 1319 790 L1319 665 Q1319 509 1269.5 385.5 Q1220 262 1128.5 176.5 Q1037 91 907.5 45.5 Q778 0 618 0 L189 0 L189 665 Z M618 159 Q742 159 836.5 194 Q931 229 994.5 294.5 Q1058 360 1090 454 Q1122 548 1122 665 L1122 792 Q1122 915 1089 1009 Q1056 1103 993.5 1166.5 Q931 1230 840 1263 Q749 1296 633 1296 L388 1296 L388 818 L702 818 L702 665 L388 665 L388 159 L618 159 Z " />
</glyph>
<glyph glyph-name="dslash" unicode="&#x111;" horiz-adv-x="1321" d="M109 550 Q109 674 141.5 775.5 Q174 877 233.5 949.5 Q293 1022 377.5 1062 Q462 1102 567 1102 Q676 1102 757 1066 Q838 1030 895 961 L895 1232 L599 1232 L599 1386 L895 1386 L895 1536 L1087 1536 L1087 1386 L1282 1386 L1282 1232 L1087 1232 L1087 0 L910 0 L901 127 Q843 55 760 17.5 Q677 -20 565 -20 Q462 -20 377.5 21.5 Q293 63 233.5 136 Q174 209 141.5 310 Q109 411 109 529 L109 550 Z M301 529 Q301 449 319 378 Q337 307 374.5 254 Q412 201 470.5 170 Q529 139 610 139 Q665 139 709 151.5 Q753 164 788 185.5 Q823 207 849.5 237 Q876 267 895 303 L895 786 Q876 820 850 849 Q824 878 789 899 Q754 920 710 932 Q666 944 612 944 Q530 944 471.5 912.5 Q413 881 375 827 Q337 773 319 701.5 Q301 630 301 550 L301 529 Z " />
<glyph glyph-name="Emacron" unicode="&#x112;" horiz-adv-x="1264" d="M189 1456 L1174 1456 L1174 1296 L388 1296 L388 831 L1074 831 L1074 672 L388 672 L388 159 L1183 159 L1183 0 L189 0 L189 1456 Z M322 1775 L1033 1775 L1033 1631 L322 1631 L322 1775 Z " />
<glyph glyph-name="emacron" unicode="&#x113;" horiz-adv-x="1176" d="M104 555 Q104 690 145.5 792.5 Q187 895 257.5 964 Q328 1033 420 1067.5 Q512 1102 613 1102 Q735 1102 825 1063.5 Q915 1025 974 955.5 Q1033 886 1062 789 Q1091 692 1091 576 L1091 487 L295 487 Q296 409 321 344 Q346 279 392 232.5 Q438 186 503 160 Q568 134 649 134 Q754 134 829 172 Q904 210 961 273 L1072 178 Q1044 141 1004.5 105 Q965 69 912 41.5 Q859 14 791 -3 Q723 -20 639 -20 Q518 -20 419 16.5 Q320 53 250 120 Q180 187 142 281.5 Q104 376 104 493 L104 555 Z M899 640 L899 658 Q896 714 879.5 766 Q863 818 829.5 858.5 Q796 899 742.5 923.5 Q689 948 613 948 Q550 948 496.5 929.5 Q443 911 402.5 872.5 Q362 834 335.5 776 Q309 718 300 640 L899 640 Z M261 1453 L972 1453 L972 1309 L261 1309 L261 1453 Z " />
<glyph glyph-name="Edotaccent" unicode="&#x116;" horiz-adv-x="1264" >
<path fill="black" d="M189 1456 L1174 1456 L1174 1296 L388 1296 L388 831 L1074 831 L1074 672 L388 672 L388 159 L1183 159 L1183 0 L189 0 L189 1456 Z " />
<g transform="translate(399,322)" >
<path fill="black" d="M158 1367 Q158 1412 187.5 1443.5 Q217 1475 273 1475 Q328 1475 358 1443.5 Q388 1412 388 1367 Q388 1322 358 1291.5 Q328 1261 273 1261 Q217 1261 187.5 1291.5 Q158 1322 158 1367 Z " />
</g>
</glyph>
<glyph glyph-name="edotaccent" unicode="&#x117;" horiz-adv-x="1176" >
<path fill="black" d="M104 555 Q104 690 145.5 792.5 Q187 895 257.5 964 Q328 1033 420 1067.5 Q512 1102 613 1102 Q735 1102 825 1063.5 Q915 1025 974 955.5 Q1033 886 1062 789 Q1091 692 1091 576 L1091 487 L295 487 Q296 409 321 344 Q346 279 392 232.5 Q438 186 503 160 Q568 134 649 134 Q754 134 829 172 Q904 210 961 273 L1072 178 Q1044 141 1004.5 105 Q965 69 912 41.5 Q859 14 791 -3 Q723 -20 639 -20 Q518 -20 419 16.5 Q320 53 250 120 Q180 187 142 281.5 Q104 376 104 493 L104 555 Z M899 640 L899 658 Q896 714 879.5 766 Q863 818 829.5 858.5 Q796 899 742.5 923.5 Q689 948 613 948 Q550 948 496.5 929.5 Q443 911 402.5 872.5 Q362 834 335.5 776 Q309 718 300 640 L899 640 Z " />
<g transform="translate(338,0)" >
<path fill="black" d="M158 1367 Q158 1412 187.5 1443.5 Q217 1475 273 1475 Q328 1475 358 1443.5 Q388 1412 388 1367 Q388 1322 358 1291.5 Q328 1261 273 1261 Q217 1261 187.5 1291.5 Q158 1322 158 1367 Z " />
</g>
</glyph>
<glyph glyph-name="Eogonek" unicode="&#x118;" horiz-adv-x="1264" d="M189 1456 L1174 1456 L1174 1296 L388 1296 L388 831 L1074 831 L1074 672 L388 672 L388 159 L1183 159 L1183 0 L1101 0 Q1065 -24 1032 -49.5 Q999 -75 973 -102.5 Q947 -130 931.5 -159.5 Q916 -189 916 -221 Q916 -255 934.5 -274.5 Q953 -294 1001 -294 Q1037 -294 1064 -284.5 Q1091 -275 1108 -267 L1124 -391 Q1098 -406 1058 -420.5 Q1018 -435 955 -435 Q912 -435 875 -422.5 Q838 -410 810.5 -386 Q783 -362 767.5 -326 Q752 -290 752 -243 Q752 -180 791 -118 Q830 -56 914 0 L189 0 L189 1456 Z " />
<glyph glyph-name="eogonek" unicode="&#x119;" horiz-adv-x="1176" d="M639 -20 Q518 -20 419 16.5 Q320 53 250 120 Q180 187 142 281.5 Q104 376 104 493 L104 555 Q104 690 145.5 792.5 Q187 895 257.5 964 Q328 1033 420 1067.5 Q512 1102 613 1102 Q735 1102 825 1063.5 Q915 1025 974 955.5 Q1033 886 1062 789 Q1091 692 1091 576 L1091 487 L295 487 Q296 409 321 344 Q346 279 392 232.5 Q438 186 503 160 Q568 134 649 134 Q754 134 829 172 Q904 210 961 273 L1072 178 Q1040 135 994 96 Q948 57 883 28 L887 25 Q851 1 818 -24.5 Q785 -50 759 -77.5 Q733 -105 717.5 -134.5 Q702 -164 702 -196 Q702 -230 720.5 -249.5 Q739 -269 787 -269 Q823 -269 850 -259.5 Q877 -250 894 -242 L910 -366 Q884 -381 844 -395.5 Q804 -410 741 -410 Q698 -410 661 -397.5 Q624 -385 596.5 -361 Q569 -337 553.5 -301 Q538 -265 538 -218 Q538 -167 563 -117 Q588 -67 641 -20 L639 -20 Z M899 640 L899 658 Q896 714 879.5 766 Q863 818 829.5 858.5 Q796 899 742.5 923.5 Q689 948 613 948 Q550 948 496.5 929.5 Q443 911 402.5 872.5 Q362 834 335.5 776 Q309 718 300 640 L899 640 Z " />
<glyph glyph-name="Ecaron" unicode="&#x11a;" horiz-adv-x="1264" d="M189 1456 L1174 1456 L1174 1296 L388 1296 L388 831 L1074 831 L1074 672 L388 672 L388 159 L1183 159 L1183 0 L189 0 L189 1456 Z M613 1574 L343 1848 L343 1858 L506 1858 L674 1689 L841 1858 L1006 1858 L1006 1848 L734 1574 L613 1574 Z " />
<glyph glyph-name="ecaron" unicode="&#x11b;" horiz-adv-x="1176" d="M104 555 Q104 690 145.5 792.5 Q187 895 257.5 964 Q328 1033 420 1067.5 Q512 1102 613 1102 Q735 1102 825 1063.5 Q915 1025 974 955.5 Q1033 886 1062 789 Q1091 692 1091 576 L1091 487 L295 487 Q296 409 321 344 Q346 279 392 232.5 Q438 186 503 160 Q568 134 649 134 Q754 134 829 172 Q904 210 961 273 L1072 178 Q1044 141 1004.5 105 Q965 69 912 41.5 Q859 14 791 -3 Q723 -20 639 -20 Q518 -20 419 16.5 Q320 53 250 120 Q180 187 142 281.5 Q104 376 104 493 L104 555 Z M552 1252 L282 1526 L282 1536 L445 1536 L613 1367 L780 1536 L945 1536 L945 1526 L673 1252 L552 1252 Z M899 640 L899 658 Q896 714 879.5 766 Q863 818 829.5 858.5 Q796 899 742.5 923.5 Q689 948 613 948 Q550 948 496.5 929.5 Q443 911 402.5 872.5 Q362 834 335.5 776 Q309 718 300 640 L899 640 Z " />
<glyph glyph-name="Gbreve" unicode="&#x11e;" horiz-adv-x="1514" >
<path fill="black" d="M143 804 Q143 965 185 1090 Q227 1215 307 1301 Q387 1387 503 1431.5 Q619 1476 768 1476 Q903 1476 1005 1443.5 Q1107 1411 1178 1351.5 Q1249 1292 1291 1210 Q1333 1128 1346 1029 L1149 1029 Q1138 1090 1112 1142.5 Q1086 1195 1041 1233.5 Q996 1272 929 1294 Q862 1316 770 1316 Q661 1316 580.5 1281.5 Q500 1247 447 1181.5 Q394 1116 368 1021 Q342 926 342 806 L342 653 Q342 530 374 434 Q406 338 465 272.5 Q524 207 607.5 173 Q691 139 793 139 Q876 139 936 149.5 Q996 160 1038 176 Q1080 192 1106.5 209.5 Q1133 227 1148 242 L1148 568 L777 568 L777 727 L1347 727 L1347 191 Q1325 162 1283.5 125.5 Q1242 89 1176 56.5 Q1110 24 1015 2 Q920 -20 791 -20 Q648 -20 529 24.5 Q410 69 324 155 Q238 241 190.5 366.5 Q143 492 143 653 L143 804 Z " />
<g transform="translate(256,343)" >
<path fill="black" d="M299 1495 Q299 1466 308.5 1439.5 Q318 1413 339 1392.5 Q360 1372 393.5 1360 Q427 1348 475 1348 Q523 1348 556.5 1360 Q590 1372 611 1392.5 Q632 1413 642 1439.5 Q652 1466 652 1495 L807 1495 Q807 1436 784 1387 Q761 1338 718 1302.5 Q675 1267 613.5 1247.5 Q552 1228 475 1228 Q398 1228 336.5 1247.5 Q275 1267 232 1302.5 Q189 1338 166 1387 Q143 1436 143 1495 L299 1495 Z " />
</g>
</glyph>
<glyph glyph-name="gbreve" unicode="&#x11f;" horiz-adv-x="1248" >
<path fill="black" d="M270 -136 Q341 -213 422 -243 Q503 -273 585 -273 Q731 -273 814.5 -204.5 Q898 -136 898 5 L898 122 Q841 53 759 16.5 Q677 -20 566 -20 Q461 -20 377 19 Q293 58 234 129 Q175 200 143 299 Q111 398 111 519 L111 560 Q111 686 142.5 786.5 Q174 887 233.5 957 Q293 1027 377.5 1064.5 Q462 1102 568 1102 Q682 1102 765.5 1063 Q849 1024 906 950 L915 1082 L1090 1082 L1090 14 Q1090 -94 1054 -176 Q1018 -258 953.5 -314 Q889 -370 798.5 -398.5 Q708 -427 598 -427 Q550 -427 492.5 -418 Q435 -409 377 -388 Q319 -367 266 -333.5 Q213 -300 175 -250 L270 -136 Z M302 519 Q302 437 320 367 Q338 297 376 246.5 Q414 196 472.5 167.5 Q531 139 612 139 Q667 139 711.5 151 Q756 163 791 185 Q826 207 852.5 236.5 Q879 266 898 301 L898 788 Q879 821 853 849.5 Q827 878 792.5 899 Q758 920 714 932 Q670 944 615 944 Q533 944 474 915 Q415 886 377 834.5 Q339 783 320.5 713 Q302 643 302 560 L302 519 Z " />
<g transform="translate(127,0)" >
<path fill="black" d="M299 1495 Q299 1466 308.5 1439.5 Q318 1413 339 1392.5 Q360 1372 393.5 1360 Q427 1348 475 1348 Q523 1348 556.5 1360 Q590 1372 611 1392.5 Q632 1413 642 1439.5 Q652 1466 652 1495 L807 1495 Q807 1436 784 1387 Q761 1338 718 1302.5 Q675 1267 613.5 1247.5 Q552 1228 475 1228 Q398 1228 336.5 1247.5 Q275 1267 232 1302.5 Q189 1338 166 1387 Q143 1436 143 1495 L299 1495 Z " />
</g>
</glyph>
<glyph glyph-name="Gdotaccent" unicode="&#x120;" horiz-adv-x="1514" >
<path fill="black" d="M143 804 Q143 965 185 1090 Q227 1215 307 1301 Q387 1387 503 1431.5 Q619 1476 768 1476 Q903 1476 1005 1443.5 Q1107 1411 1178 1351.5 Q1249 1292 1291 1210 Q1333 1128 1346 1029 L1149 1029 Q1138 1090 1112 1142.5 Q1086 1195 1041 1233.5 Q996 1272 929 1294 Q862 1316 770 1316 Q661 1316 580.5 1281.5 Q500 1247 447 1181.5 Q394 1116 368 1021 Q342 926 342 806 L342 653 Q342 530 374 434 Q406 338 465 272.5 Q524 207 607.5 173 Q691 139 793 139 Q876 139 936 149.5 Q996 160 1038 176 Q1080 192 1106.5 209.5 Q1133 227 1148 242 L1148 568 L777 568 L777 727 L1347 727 L1347 191 Q1325 162 1283.5 125.5 Q1242 89 1176 56.5 Q1110 24 1015 2 Q920 -20 791 -20 Q648 -20 529 24.5 Q410 69 324 155 Q238 241 190.5 366.5 Q143 492 143 653 L143 804 Z " />
<g transform="translate(460,343)" >
<path fill="black" d="M158 1367 Q158 1412 187.5 1443.5 Q217 1475 273 1475 Q328 1475 358 1443.5 Q388 1412 388 1367 Q388 1322 358 1291.5 Q328 1261 273 1261 Q217 1261 187.5 1291.5 Q158 1322 158 1367 Z " />
</g>
</glyph>
<glyph glyph-name="gdotaccent" unicode="&#x121;" horiz-adv-x="1248" >
<path fill="black" d="M270 -136 Q341 -213 422 -243 Q503 -273 585 -273 Q731 -273 814.5 -204.5 Q898 -136 898 5 L898 122 Q841 53 759 16.5 Q677 -20 566 -20 Q461 -20 377 19 Q293 58 234 129 Q175 200 143 299 Q111 398 111 519 L111 560 Q111 686 142.5 786.5 Q174 887 233.5 957 Q293 1027 377.5 1064.5 Q462 1102 568 1102 Q682 1102 765.5 1063 Q849 1024 906 950 L915 1082 L1090 1082 L1090 14 Q1090 -94 1054 -176 Q1018 -258 953.5 -314 Q889 -370 798.5 -398.5 Q708 -427 598 -427 Q550 -427 492.5 -418 Q435 -409 377 -388 Q319 -367 266 -333.5 Q213 -300 175 -250 L270 -136 Z M302 519 Q302 437 320 367 Q338 297 376 246.5 Q414 196 472.5 167.5 Q531 139 612 139 Q667 139 711.5 151 Q756 163 791 185 Q826 207 852.5 236.5 Q879 266 898 301 L898 788 Q879 821 853 849.5 Q827 878 792.5 899 Q758 920 714 932 Q670 944 615 944 Q533 944 474 915 Q415 886 377 834.5 Q339 783 320.5 713 Q302 643 302 560 L302 519 Z " />
<g transform="translate(331,0)" >
<path fill="black" d="M158 1367 Q158 1412 187.5 1443.5 Q217 1475 273 1475 Q328 1475 358 1443.5 Q388 1412 388 1367 Q388 1322 358 1291.5 Q328 1261 273 1261 Q217 1261 187.5 1291.5 Q158 1322 158 1367 Z " />
</g>
</glyph>
<glyph glyph-name="uni0122" unicode="&#x122;" horiz-adv-x="1348" >
<path fill="black" d="M143 804 Q143 965 185 1090 Q227 1215 307 1301 Q387 1387 503 1431.5 Q619 1476 768 1476 Q903 1476 1005 1443.5 Q1107 1411 1178 1351.5 Q1249 1292 1291 1210 Q1333 1128 1346 1029 L1149 1029 Q1138 1090 1112 1142.5 Q1086 1195 1041 1233.5 Q996 1272 929 1294 Q862 1316 770 1316 Q661 1316 580.5 1281.5 Q500 1247 447 1181.5 Q394 1116 368 1021 Q342 926 342 806 L342 653 Q342 530 374 434 Q406 338 465 272.5 Q524 207 607.5 173 Q691 139 793 139 Q876 139 936 149.5 Q996 160 1038 176 Q1080 192 1106.5 209.5 Q1133 227 1148 242 L1148 568 L777 568 L777 727 L1347 727 L1347 191 Q1325 162 1283.5 125.5 Q1242 89 1176 56.5 Q1110 24 1015 2 Q920 -20 791 -20 Q648 -20 529 24.5 Q410 69 324 155 Q238 241 190.5 366.5 Q143 492 143 653 L143 804 Z " />
<g transform="translate(454,-376)" >
<path fill="black" d="M-749 -477 Q-709 -420 -689 -359.5 Q-669 -299 -669 -229 L-669 -147 L-492 -147 L-492 -226 Q-492 -266 -501.5 -310 Q-511 -354 -530 -397.5 Q-549 -441 -576.5 -480.5 Q-604 -520 -641 -550 L-749 -477 Z " />
</g>
</glyph>
<glyph glyph-name="uni0123" unicode="&#x123;" horiz-adv-x="1248" >
<path fill="black" d="M270 -136 Q341 -213 422 -243 Q503 -273 585 -273 Q731 -273 814.5 -204.5 Q898 -136 898 5 L898 122 Q841 53 759 16.5 Q677 -20 566 -20 Q461 -20 377 19 Q293 58 234 129 Q175 200 143 299 Q111 398 111 519 L111 560 Q111 686 142.5 786.5 Q174 887 233.5 957 Q293 1027 377.5 1064.5 Q462 1102 568 1102 Q682 1102 765.5 1063 Q849 1024 906 950 L915 1082 L1090 1082 L1090 14 Q1090 -94 1054 -176 Q1018 -258 953.5 -314 Q889 -370 798.5 -398.5 Q708 -427 598 -427 Q550 -427 492.5 -418 Q435 -409 377 -388 Q319 -367 266 -333.5 Q213 -300 175 -250 L270 -136 Z M302 519 Q302 437 320 367 Q338 297 376 246.5 Q414 196 472.5 167.5 Q531 139 612 139 Q667 139 711.5 151 Q756 163 791 185 Q826 207 852.5 236.5 Q879 266 898 301 L898 788 Q879 821 853 849.5 Q827 878 792.5 899 Q758 920 714 932 Q670 944 615 944 Q533 944 474 915 Q415 886 377 834.5 Q339 783 320.5 713 Q302 643 302 560 L302 519 Z " />
<g transform="translate(335,88)" >
<path fill="black" d="M173 1294 Q173 1339 186 1384 Q199 1429 219 1469.5 Q239 1510 264.5 1543 Q290 1576 314 1597 L424 1512 Q389 1452 374 1399.5 Q359 1347 359 1285 L359 1165 L173 1165 L173 1294 Z " />
</g>
</glyph>
<glyph glyph-name="Hbar" unicode="&#x126;" horiz-adv-x="1395" d="M182 1024 L37 1024 L37 1168 L182 1168 L182 1456 L381 1456 L381 1168 L1183 1168 L1183 1456 L1382 1456 L1382 1168 L1525 1168 L1525 1024 L1382 1024 L1382 0 L1183 0 L1183 672 L381 672 L381 0 L182 0 L182 1024 Z M1183 831 L1183 1024 L381 1024 L381 831 L1183 831 Z " />
<glyph glyph-name="hbar" unicode="&#x127;" horiz-adv-x="1227" d="M158 1233 L-20 1233 L-20 1386 L158 1386 L158 1536 L350 1536 L350 1386 L665 1386 L665 1233 L350 1233 L350 939 Q412 1016 500.5 1059 Q589 1102 699 1102 Q785 1102 854 1080.5 Q923 1059 971.5 1012 Q1020 965 1046 890.5 Q1072 816 1072 709 L1072 0 L881 0 L881 711 Q881 836 819 890 Q757 944 642 944 Q539 944 465 894.5 Q391 845 350 765 L350 0 L158 0 L158 1233 Z " />
<glyph glyph-name="Itilde" unicode="&#x128;" horiz-adv-x="613" >
<path fill="black" d="M208 0 L208 1456 L407 1456 L407 0 L208 0 Z " />
<g transform="translate(-203,325)" >
<path fill="black" d="M135 1247 Q135 1302 152.5 1348 Q170 1394 200 1427 Q230 1460 271.5 1478 Q313 1496 361 1496 Q408 1496 443.5 1481 Q479 1466 511.5 1448.5 Q544 1431 577 1416 Q610 1401 653 1401 Q676 1401 696 1409.5 Q716 1418 730.5 1433 Q745 1448 753.5 1468.5 Q762 1489 762 1513 L891 1501 Q891 1446 873 1401 Q855 1356 824.5 1324.5 Q794 1293 752.5 1275.5 Q711 1258 663 1258 Q608 1258 572.5 1272.5 Q537 1287 507 1305 Q477 1323 447 1337.5 Q417 1352 372 1352 Q349 1352 329 1343.5 Q309 1335 294.5 1320 Q280 1305 271.5 1284.5 Q263 1264 263 1241 L135 1247 Z " />
</g>
</glyph>
<glyph glyph-name="itilde" unicode="&#x129;" horiz-adv-x="549" >
<path fill="black" d="M175 0 L175 1082 L367 1082 L367 0 L175 0 Z " />
<g transform="translate(-235,2)" >
<path fill="black" d="M135 1247 Q135 1302 152.5 1348 Q170 1394 200 1427 Q230 1460 271.5 1478 Q313 1496 361 1496 Q408 1496 443.5 1481 Q479 1466 511.5 1448.5 Q544 1431 577 1416 Q610 1401 653 1401 Q676 1401 696 1409.5 Q716 1418 730.5 1433 Q745 1448 753.5 1468.5 Q762 1489 762 1513 L891 1501 Q891 1446 873 1401 Q855 1356 824.5 1324.5 Q794 1293 752.5 1275.5 Q711 1258 663 1258 Q608 1258 572.5 1272.5 Q537 1287 507 1305 Q477 1323 447 1337.5 Q417 1352 372 1352 Q349 1352 329 1343.5 Q309 1335 294.5 1320 Q280 1305 271.5 1284.5 Q263 1264 263 1241 L135 1247 Z " />
</g>
</glyph>
<glyph glyph-name="Imacron" unicode="&#x12a;" horiz-adv-x="613" >
<path fill="black" d="M208 0 L208 1456 L407 1456 L407 0 L208 0 Z " />
<g transform="translate(-205,330)" >
<path fill="black" d="M160 1301 L160 1445 L871 1445 L871 1301 L160 1301 Z " />
</g>
</glyph>
<glyph glyph-name="imacron" unicode="&#x12b;" horiz-adv-x="549" >
<path fill="black" d="M175 0 L175 1082 L367 1082 L367 0 L175 0 Z " />
<g transform="translate(-237,7)" >
<path fill="black" d="M160 1301 L160 1445 L871 1445 L871 1301 L160 1301 Z " />
</g>
</glyph>
<glyph glyph-name="Iogonek" unicode="&#x12e;" horiz-adv-x="613" d="M393 -391 Q367 -406 327 -420.5 Q287 -435 224 -435 Q181 -435 144 -422.5 Q107 -410 79.5 -386 Q52 -362 36.5 -326 Q21 -290 21 -243 Q21 -175 66 -108.5 Q111 -42 208 16 L208 1456 L407 1456 L407 0 L370 0 Q334 -24 301 -49.5 Q268 -75 242 -102.5 Q216 -130 200.5 -159.5 Q185 -189 185 -221 Q185 -255 203.5 -274.5 Q222 -294 270 -294 Q306 -294 333 -284.5 Q360 -275 377 -267 L393 -391 Z " />
<glyph glyph-name="iogonek" unicode="&#x12f;" horiz-adv-x="542" d="M374 -391 Q348 -406 308 -420.5 Q268 -435 205 -435 Q162 -435 125 -422.5 Q88 -410 60.5 -386 Q33 -362 17.5 -326 Q2 -290 2 -243 Q2 -177 44 -113 Q86 -49 176 8 L176 1082 L368 1082 L368 0 L351 0 Q315 -24 282 -49.5 Q249 -75 223 -102.5 Q197 -130 181.5 -159.5 Q166 -189 166 -221 Q166 -255 184.5 -274.5 Q203 -294 251 -294 Q287 -294 314 -284.5 Q341 -275 358 -267 L374 -391 Z M158 1369 Q158 1414 187.5 1445.5 Q217 1477 273 1477 Q328 1477 358 1445.5 Q388 1414 388 1369 Q388 1324 358 1293.5 Q328 1263 273 1263 Q217 1263 187.5 1293.5 Q158 1324 158 1369 Z " />
<glyph glyph-name="Idot" unicode="&#x130;" horiz-adv-x="613" >
<path fill="black" d="M208 0 L208 1456 L407 1456 L407 0 L208 0 Z " />
<g transform="translate(32,322)" >
<path fill="black" d="M158 1367 Q158 1412 187.5 1443.5 Q217 1475 273 1475 Q328 1475 358 1443.5 Q388 1412 388 1367 Q388 1322 358 1291.5 Q328 1261 273 1261 Q217 1261 187.5 1291.5 Q158 1322 158 1367 Z " />
</g>
</glyph>
<glyph glyph-name="dotlessi" unicode="&#x131;" horiz-adv-x="549" d="M175 0 L175 1082 L367 1082 L367 0 L175 0 Z " />
<glyph glyph-name="uni0136" unicode="&#x136;" horiz-adv-x="1241" >
<path fill="black" d="M189 1456 L388 1456 L388 731 L565 918 L1097 1456 L1338 1456 L720 814 L1385 0 L1146 0 L583 676 L388 485 L388 0 L189 0 L189 1456 Z " />
<g transform="translate(392,-278)" >
<path fill="black" d="M-749 -477 Q-709 -420 -689 -359.5 Q-669 -299 -669 -229 L-669 -147 L-492 -147 L-492 -226 Q-492 -266 -501.5 -310 Q-511 -354 -530 -397.5 Q-549 -441 -576.5 -480.5 Q-604 -520 -641 -550 L-749 -477 Z " />
</g>
</glyph>
<glyph glyph-name="uni0137" unicode="&#x137;" horiz-adv-x="1017" >
<path fill="black" d="M160 1536 L351 1536 L351 595 L835 1082 L1069 1082 L610 633 L1118 0 L893 0 L478 500 L351 371 L351 0 L160 0 L160 1536 Z " />
<g transform="translate(262,-299)" >
<path fill="black" d="M-749 -477 Q-709 -420 -689 -359.5 Q-669 -299 -669 -229 L-669 -147 L-492 -147 L-492 -226 Q-492 -266 -501.5 -310 Q-511 -354 -530 -397.5 Q-549 -441 -576.5 -480.5 Q-604 -520 -641 -550 L-749 -477 Z " />
</g>
</glyph>
<glyph glyph-name="Lacute" unicode="&#x139;" horiz-adv-x="1193" >
<path fill="black" d="M189 1456 L388 1456 L388 159 L1133 159 L1133 0 L189 0 L189 1456 Z " />
<g transform="translate(44,307)" >
<path fill="black" d="M351 1536 L581 1536 L295 1242 L137 1242 L351 1536 Z " />
</g>
</glyph>
<glyph glyph-name="lacute" unicode="&#x13a;" horiz-adv-x="677" >
<path fill="black" d="M174 1536 L366 1536 L366 268 Q366 227 376.5 202 Q387 177 405 163.5 Q423 150 447 145.5 Q471 141 498 141 Q524 141 551 145.5 Q578 150 594 153 L596 0 Q572 -7 533 -13.5 Q494 -20 444 -20 Q387 -20 337.5 -5.5 Q288 9 252 43 Q216 77 195 132.5 Q174 188 174 269 L174 1536 Z " />
<g transform="translate(28,408)" >
<path fill="black" d="M351 1536 L581 1536 L295 1242 L137 1242 L351 1536 Z " />
</g>
</glyph>
<glyph glyph-name="uni013B" unicode="&#x13b;" horiz-adv-x="1076" >
<path fill="black" d="M189 1456 L388 1456 L388 159 L1133 159 L1133 0 L189 0 L189 1456 Z " />
<g transform="translate(347,-356)" >
<path fill="black" d="M-749 -477 Q-709 -420 -689 -359.5 Q-669 -299 -669 -229 L-669 -147 L-492 -147 L-492 -226 Q-492 -266 -501.5 -310 Q-511 -354 -530 -397.5 Q-549 -441 -576.5 -480.5 Q-604 -520 -641 -550 L-749 -477 Z " />
</g>
</glyph>
<glyph glyph-name="uni013C" unicode="&#x13c;" horiz-adv-x="499" >
<path fill="black" d="M174 1536 L366 1536 L366 268 Q366 227 376.5 202 Q387 177 405 163.5 Q423 150 447 145.5 Q471 141 498 141 Q524 141 551 145.5 Q578 150 594 153 L596 0 Q572 -7 533 -13.5 Q494 -20 444 -20 Q387 -20 337.5 -5.5 Q288 9 252 43 Q216 77 195 132.5 Q174 188 174 269 L174 1536 Z " />
<g transform="translate(-3,-356)" >
<path fill="black" d="M-749 -477 Q-709 -420 -689 -359.5 Q-669 -299 -669 -229 L-669 -147 L-492 -147 L-492 -226 Q-492 -266 -501.5 -310 Q-511 -354 -530 -397.5 Q-549 -441 -576.5 -480.5 Q-604 -520 -641 -550 L-749 -477 Z " />
</g>
</glyph>
<glyph glyph-name="Lcaron" unicode="&#x13d;" horiz-adv-x="1076" >
<path fill="black" d="M189 1456 L388 1456 L388 159 L1133 159 L1133 0 L189 0 L189 1456 Z " />
<g transform="translate(464,1207)" >
<path fill="black" d="M-749 -477 Q-709 -420 -689 -359.5 Q-669 -299 -669 -229 L-669 -147 L-492 -147 L-492 -226 Q-492 -266 -501.5 -310 Q-511 -354 -530 -397.5 Q-549 -441 -576.5 -480.5 Q-604 -520 -641 -550 L-749 -477 Z " />
</g>
</glyph>
<glyph glyph-name="lcaron" unicode="&#x13e;" horiz-adv-x="643" >
<path fill="black" d="M174 1536 L366 1536 L366 268 Q366 227 376.5 202 Q387 177 405 163.5 Q423 150 447 145.5 Q471 141 498 141 Q524 141 551 145.5 Q578 150 594 153 L596 0 Q572 -7 533 -13.5 Q494 -20 444 -20 Q387 -20 337.5 -5.5 Q288 9 252 43 Q216 77 195 132.5 Q174 188 174 269 L174 1536 Z " />
<g transform="translate(345,1288)" >
<path fill="black" d="M-749 -477 Q-709 -420 -689 -359.5 Q-669 -299 -669 -229 L-669 -147 L-492 -147 L-492 -226 Q-492 -266 -501.5 -310 Q-511 -354 -530 -397.5 Q-549 -441 -576.5 -480.5 Q-604 -520 -641 -550 L-749 -477 Z " />
</g>
</glyph>
<glyph glyph-name="Lslash" unicode="&#x141;" horiz-adv-x="1076" d="M192 659 L40 615 L40 741 L192 785 L192 1456 L391 1456 L391 844 L679 928 L679 802 L391 718 L391 159 L1136 159 L1136 0 L192 0 L192 659 Z " />
<glyph glyph-name="lslash" unicode="&#x142;" horiz-adv-x="549" d="M204 677 L41 619 L41 743 L204 801 L204 1536 L396 1536 L396 868 L570 930 L570 806 L396 744 L396 268 Q396 227 406.5 202 Q417 177 435 163.5 Q453 150 477 145.5 Q501 141 528 141 Q554 141 581 145.5 Q608 150 624 153 L626 0 Q602 -7 563 -13.5 Q524 -20 474 -20 Q417 -20 367.5 -5.5 Q318 9 282 43 Q246 77 225 132.5 Q204 188 204 269 L204 677 Z " />
<glyph glyph-name="Nacute" unicode="&#x143;" horiz-adv-x="1581" >
<path fill="black" d="M189 1456 L394 1456 L1193 309 L1193 1456 L1390 1456 L1390 0 L1184 0 L388 1144 L388 0 L189 0 L189 1456 Z " />
<g transform="translate(544,311)" >
<path fill="black" d="M351 1536 L581 1536 L295 1242 L137 1242 L351 1536 Z " />
</g>
</glyph>
<glyph glyph-name="nacute" unicode="&#x144;" horiz-adv-x="1229" >
<path fill="black" d="M159 1082 L340 1082 L346 933 Q409 1012 499 1057 Q589 1102 701 1102 Q787 1102 856 1080.5 Q925 1059 973 1012 Q1021 965 1047 890.5 Q1073 816 1073 709 L1073 0 L881 0 L881 711 Q881 836 819 890 Q757 944 642 944 Q539 944 465 894.5 Q391 845 350 764 L350 0 L159 0 L159 1082 Z " />
<g transform="translate(380,0)" >
<path fill="black" d="M351 1536 L581 1536 L295 1242 L137 1242 L351 1536 Z " />
</g>
</glyph>
<glyph glyph-name="uni0145" unicode="&#x145;" horiz-adv-x="1414" >
<path fill="black" d="M189 1456 L394 1456 L1193 309 L1193 1456 L1390 1456 L1390 0 L1184 0 L388 1144 L388 0 L189 0 L189 1456 Z " />
<g transform="translate(443,-356)" >
<path fill="black" d="M-749 -477 Q-709 -420 -689 -359.5 Q-669 -299 -669 -229 L-669 -147 L-492 -147 L-492 -226 Q-492 -266 -501.5 -310 Q-511 -354 -530 -397.5 Q-549 -441 -576.5 -480.5 Q-604 -520 -641 -550 L-749 -477 Z " />
</g>
</glyph>
<glyph glyph-name="uni0146" unicode="&#x146;" horiz-adv-x="1097" >
<path fill="black" d="M159 1082 L340 1082 L346 933 Q409 1012 499 1057 Q589 1102 701 1102 Q787 1102 856 1080.5 Q925 1059 973 1012 Q1021 965 1047 890.5 Q1073 816 1073 709 L1073 0 L881 0 L881 711 Q881 836 819 890 Q757 944 642 944 Q539 944 465 894.5 Q391 845 350 764 L350 0 L159 0 L159 1082 Z " />
<g transform="translate(291,-356)" >
<path fill="black" d="M-749 -477 Q-709 -420 -689 -359.5 Q-669 -299 -669 -229 L-669 -147 L-492 -147 L-492 -226 Q-492 -266 -501.5 -310 Q-511 -354 -530 -397.5 Q-549 -441 -576.5 -480.5 Q-604 -520 -641 -550 L-749 -477 Z " />
</g>
</glyph>
<glyph glyph-name="Ncaron" unicode="&#x147;" horiz-adv-x="1581" >
<path fill="black" d="M189 1456 L394 1456 L1193 309 L1193 1456 L1390 1456 L1390 0 L1184 0 L388 1144 L388 0 L189 0 L189 1456 Z " />
<g transform="translate(301,311)" >
<path fill="black" d="M155 1526 L155 1536 L318 1536 L486 1367 L653 1536 L818 1536 L818 1526 L546 1252 L425 1252 L155 1526 Z " />
</g>
</glyph>
<glyph glyph-name="ncaron" unicode="&#x148;" horiz-adv-x="1229" d="M159 1082 L340 1082 L346 933 Q409 1012 499 1057 Q589 1102 701 1102 Q787 1102 856 1080.5 Q925 1059 973 1012 Q1021 965 1047 890.5 Q1073 816 1073 709 L1073 0 L881 0 L881 711 Q881 836 819 890 Q757 944 642 944 Q539 944 465 894.5 Q391 845 350 764 L350 0 L159 0 L159 1082 Z M562 1252 L292 1526 L292 1536 L455 1536 L623 1367 L790 1536 L955 1536 L955 1526 L683 1252 L562 1252 Z " />
<glyph glyph-name="Eng" unicode="&#x14a;" horiz-adv-x="1545" d="M183 1456 L382 1456 L1171 318 L1171 1456 L1370 1456 L1370 -84 Q1370 -170 1346 -235.5 Q1322 -301 1276.5 -346 Q1231 -391 1165.5 -414 Q1100 -437 1018 -437 Q983 -437 954 -433.5 Q925 -430 892 -420 L907 -264 Q916 -267 930.5 -269.5 Q945 -272 960 -273.5 Q975 -275 989 -276 Q1003 -277 1013 -277 Q1088 -277 1129.5 -226 Q1171 -175 1171 -84 L1171 0 L382 1139 L382 0 L183 0 L183 1456 Z " />
<glyph glyph-name="eng" unicode="&#x14b;" horiz-adv-x="1256" d="M163 1082 L335 1082 L348 923 Q405 1007 493 1054.5 Q581 1102 697 1102 Q788 1102 860.5 1078 Q933 1054 983.5 1003.5 Q1034 953 1061 873.5 Q1088 794 1088 683 L1088 -89 Q1088 -173 1064 -238 Q1040 -303 995.5 -347.5 Q951 -392 886.5 -414.5 Q822 -437 741 -437 Q706 -437 676 -433.5 Q646 -430 613 -420 L628 -261 Q637 -264 652 -266.5 Q667 -269 683 -270.5 Q699 -272 714 -272.5 Q729 -273 738 -273 Q814 -273 855.5 -226.5 Q897 -180 897 -89 L897 679 Q897 753 879.5 804 Q862 855 829 886 Q796 917 748.5 930.5 Q701 944 640 944 Q533 944 463 905.5 Q393 867 354 802 L354 0 L163 0 L163 1082 Z " />
<glyph glyph-name="Omacron" unicode="&#x14c;" horiz-adv-x="1523" >
<path fill="black" d="M135 792 Q135 954 180.5 1081 Q226 1208 308.5 1295.5 Q391 1383 506.5 1429.5 Q622 1476 761 1476 Q904 1476 1019.5 1429.5 Q1135 1383 1217 1295.5 Q1299 1208 1343.5 1081 Q1388 954 1388 792 L1388 663 Q1388 501 1344 374.5 Q1300 248 1218 160 Q1136 72 1021 26 Q906 -20 763 -20 Q624 -20 508 26 Q392 72 309.5 160 Q227 248 181 374.5 Q135 501 135 663 L135 792 Z M332 663 Q332 535 362.5 438 Q393 341 449 276 Q505 211 584.5 178.5 Q664 146 763 146 Q969 146 1080 276.5 Q1191 407 1191 663 L1191 794 Q1191 1049 1078 1179 Q965 1309 761 1309 Q662 1309 583 1276.5 Q504 1244 448 1179 Q392 1114 362 1018 Q332 922 332 794 L332 663 Z " />
<g transform="translate(250,320)" >
<path fill="black" d="M160 1301 L160 1445 L871 1445 L871 1301 L160 1301 Z " />
</g>
</glyph>
<glyph glyph-name="omacron" unicode="&#x14d;" horiz-adv-x="1264" >
<path fill="black" d="M103 562 Q103 681 140.5 780.5 Q178 880 246.5 951.5 Q315 1023 412.5 1062.5 Q510 1102 630 1102 Q752 1102 850 1062.5 Q948 1023 1017 951.5 Q1086 880 1123 780.5 Q1160 681 1160 562 L1160 519 Q1160 400 1123 301 Q1086 202 1017.5 130.5 Q949 59 851.5 19.5 Q754 -20 633 -20 Q512 -20 414 19.5 Q316 59 247 130.5 Q178 202 140.5 301 Q103 400 103 519 L103 562 Z M295 519 Q295 437 316.5 367 Q338 297 380.5 245 Q423 193 486.5 163.5 Q550 134 633 134 Q716 134 779 163.5 Q842 193 884 245 Q926 297 947.5 367 Q969 437 969 519 L969 562 Q969 643 947.5 713.5 Q926 784 883 836 Q840 888 776.5 918 Q713 948 630 948 Q548 948 485.5 918 Q423 888 380.5 836 Q338 784 316.5 713.5 Q295 643 295 562 L295 519 Z " />
<g transform="translate(112,8)" >
<path fill="black" d="M160 1301 L160 1445 L871 1445 L871 1301 L160 1301 Z " />
</g>
</glyph>
<glyph glyph-name="Ohungarumlaut" unicode="&#x150;" horiz-adv-x="1523" d="M135 792 Q135 954 180.5 1081 Q226 1208 308.5 1295.5 Q391 1383 506.5 1429.5 Q622 1476 761 1476 Q904 1476 1019.5 1429.5 Q1135 1383 1217 1295.5 Q1299 1208 1343.5 1081 Q1388 954 1388 792 L1388 663 Q1388 501 1344 374.5 Q1300 248 1218 160 Q1136 72 1021 26 Q906 -20 763 -20 Q624 -20 508 26 Q392 72 309.5 160 Q227 248 181 374.5 Q135 501 135 663 L135 792 Z M332 663 Q332 535 362.5 438 Q393 341 449 276 Q505 211 584.5 178.5 Q664 146 763 146 Q969 146 1080 276.5 Q1191 407 1191 663 L1191 794 Q1191 1049 1078 1179 Q965 1309 761 1309 Q662 1309 583 1276.5 Q504 1244 448 1179 Q392 1114 362 1018 Q332 922 332 794 L332 663 Z M1054 1847 L1265 1847 L974 1544 L800 1544 L1054 1847 Z M691 1847 L893 1847 L655 1544 L499 1544 L691 1847 Z " />
<glyph glyph-name="ohungarumlaut" unicode="&#x151;" horiz-adv-x="1264" d="M103 562 Q103 681 140.5 780.5 Q178 880 246.5 951.5 Q315 1023 412.5 1062.5 Q510 1102 630 1102 Q752 1102 850 1062.5 Q948 1023 1017 951.5 Q1086 880 1123 780.5 Q1160 681 1160 562 L1160 519 Q1160 400 1123 301 Q1086 202 1017.5 130.5 Q949 59 851.5 19.5 Q754 -20 633 -20 Q512 -20 414 19.5 Q316 59 247 130.5 Q178 202 140.5 301 Q103 400 103 519 L103 562 Z M295 519 Q295 437 316.5 367 Q338 297 380.5 245 Q423 193 486.5 163.5 Q550 134 633 134 Q716 134 779 163.5 Q842 193 884 245 Q926 297 947.5 367 Q969 437 969 519 L969 562 Q969 643 947.5 713.5 Q926 784 883 836 Q840 888 776.5 918 Q713 948 630 948 Q548 948 485.5 918 Q423 888 380.5 836 Q338 784 316.5 713.5 Q295 643 295 562 L295 519 Z M916 1535 L1127 1535 L836 1232 L662 1232 L916 1535 Z M553 1535 L755 1535 L517 1232 L361 1232 L553 1535 Z " />
<glyph glyph-name="OE" unicode="&#x152;" horiz-adv-x="1897" d="M119 880 Q119 1012 162 1122 Q205 1232 283.5 1311 Q362 1390 472 1433.5 Q582 1477 715 1477 Q800 1477 881 1470.5 Q962 1464 1037 1456 L1943 1456 L1943 1296 L1157 1296 L1157 831 L1843 831 L1843 672 L1157 672 L1157 159 L1952 159 L1952 0 L1037 0 Q962 -8 882 -14.5 Q802 -21 717 -21 Q584 -21 474 22.5 Q364 66 285 145 Q206 224 162.5 334 Q119 444 119 576 L119 880 Z M958 1307 Q901 1315 840 1319 Q779 1323 715 1323 Q622 1323 547 1294.5 Q472 1266 419.5 1210.5 Q367 1155 338.5 1072.5 Q310 990 310 882 L310 576 Q310 467 338.5 384.5 Q367 302 420.5 246 Q474 190 549 161.5 Q624 133 717 133 Q780 133 840.5 137 Q901 141 958 148 L958 1307 Z " />
<glyph glyph-name="oe" unicode="&#x153;" horiz-adv-x="2021" d="M109 552 Q109 669 144.5 770 Q180 871 247.5 944.5 Q315 1018 411.5 1060 Q508 1102 629 1102 Q778 1102 887 1043 Q996 984 1062 881 Q1096 932 1140.5 973 Q1185 1014 1237 1042.5 Q1289 1071 1347.5 1086.5 Q1406 1102 1468 1102 Q1585 1102 1674 1066 Q1763 1030 1822 966 Q1881 902 1911 813.5 Q1941 725 1941 619 L1941 496 L1163 496 Q1166 420 1189.5 354 Q1213 288 1255.5 239 Q1298 190 1359 161.5 Q1420 133 1498 133 Q1558 133 1607 141.5 Q1656 150 1697 164.5 Q1738 179 1771.5 198.5 Q1805 218 1833 240 L1907 113 Q1879 89 1840.5 65 Q1802 41 1751 22 Q1700 3 1636.5 -9 Q1573 -21 1495 -21 Q1350 -21 1239.5 37.5 Q1129 96 1061 199 Q995 97 886.5 38 Q778 -21 631 -21 Q509 -21 412 21 Q315 63 247.5 136.5 Q180 210 144.5 311 Q109 412 109 529 L109 552 Z M300 529 Q300 449 320 377 Q340 305 381 251 Q422 197 484.5 165 Q547 133 631 133 Q715 133 776.5 165 Q838 197 879 251 Q920 305 940 377 Q960 449 960 529 L960 552 Q960 631 940 703 Q920 775 879 829.5 Q838 884 775.5 916 Q713 948 629 948 Q545 948 483.5 916 Q422 884 381 829.5 Q340 775 320 703 Q300 631 300 552 L300 529 Z M1750 650 L1750 675 Q1750 729 1733 778.5 Q1716 828 1681 865.5 Q1646 903 1593 925.5 Q1540 948 1468 948 Q1409 948 1359 925.5 Q1309 903 1270.5 863 Q1232 823 1206 768.5 Q1180 714 1169 650 L1750 650 Z " />
<glyph glyph-name="Racute" unicode="&#x154;" horiz-adv-x="1384" >
<path fill="black" d="M188 1456 L709 1456 Q839 1456 941 1427.5 Q1043 1399 1113 1343.5 Q1183 1288 1220 1206.5 Q1257 1125 1257 1018 Q1257 950 1236 890 Q1215 830 1176 780 Q1137 730 1081 691.5 Q1025 653 956 628 L1325 12 L1325 0 L1112 0 L769 589 L387 589 L387 0 L188 0 L188 1456 Z M387 748 L720 748 Q804 748 867.5 769 Q931 790 973.5 826.5 Q1016 863 1037 912.5 Q1058 962 1058 1018 Q1058 1081 1037 1132 Q1016 1183 973 1219.5 Q930 1256 864.5 1276 Q799 1296 709 1296 L387 1296 L387 748 Z " />
<g transform="translate(418,311)" >
<path fill="black" d="M351 1536 L581 1536 L295 1242 L137 1242 L351 1536 Z " />
</g>
</glyph>
<glyph glyph-name="racute" unicode="&#x155;" horiz-adv-x="763" >
<path fill="black" d="M159 1082 L344 1082 L349 949 Q394 1019 465 1060.5 Q536 1102 636 1102 Q658 1102 685.5 1097.5 Q713 1093 725 1088 L723 909 Q699 914 676.5 915.5 Q654 917 627 917 Q518 917 450 876 Q382 835 350 763 L350 0 L159 0 L159 1082 Z " />
<g transform="translate(203,0)" >
<path fill="black" d="M351 1536 L581 1536 L295 1242 L137 1242 L351 1536 Z " />
</g>
</glyph>
<glyph glyph-name="uni0156" unicode="&#x156;" horiz-adv-x="1210" >
<path fill="black" d="M188 1456 L709 1456 Q839 1456 941 1427.5 Q1043 1399 1113 1343.5 Q1183 1288 1220 1206.5 Q1257 1125 1257 1018 Q1257 950 1236 890 Q1215 830 1176 780 Q1137 730 1081 691.5 Q1025 653 956 628 L1325 12 L1325 0 L1112 0 L769 589 L387 589 L387 0 L188 0 L188 1456 Z M387 748 L720 748 Q804 748 867.5 769 Q931 790 973.5 826.5 Q1016 863 1037 912.5 Q1058 962 1058 1018 Q1058 1081 1037 1132 Q1016 1183 973 1219.5 Q930 1256 864.5 1276 Q799 1296 709 1296 L387 1296 L387 748 Z " />
<g transform="translate(340,-356)" >
<path fill="black" d="M-749 -477 Q-709 -420 -689 -359.5 Q-669 -299 -669 -229 L-669 -147 L-492 -147 L-492 -226 Q-492 -266 -501.5 -310 Q-511 -354 -530 -397.5 Q-549 -441 -576.5 -480.5 Q-604 -520 -641 -550 L-749 -477 Z " />
</g>
</glyph>
<glyph glyph-name="uni0157" unicode="&#x157;" horiz-adv-x="678" >
<path fill="black" d="M159 1082 L344 1082 L349 949 Q394 1019 465 1060.5 Q536 1102 636 1102 Q658 1102 685.5 1097.5 Q713 1093 725 1088 L723 909 Q699 914 676.5 915.5 Q654 917 627 917 Q518 917 450 876 Q382 835 350 763 L350 0 L159 0 L159 1082 Z " />
<g transform="translate(-4,-356)" >
<path fill="black" d="M-749 -477 Q-709 -420 -689 -359.5 Q-669 -299 -669 -229 L-669 -147 L-492 -147 L-492 -226 Q-492 -266 -501.5 -310 Q-511 -354 -530 -397.5 Q-549 -441 -576.5 -480.5 Q-604 -520 -641 -550 L-749 -477 Z " />
</g>
</glyph>
<glyph glyph-name="Rcaron" unicode="&#x158;" horiz-adv-x="1384" d="M188 1456 L709 1456 Q839 1456 941 1427.5 Q1043 1399 1113 1343.5 Q1183 1288 1220 1206.5 Q1257 1125 1257 1018 Q1257 950 1236 890 Q1215 830 1176 780 Q1137 730 1081 691.5 Q1025 653 956 628 L1325 12 L1325 0 L1112 0 L769 589 L387 589 L387 0 L188 0 L188 1456 Z M387 748 L720 748 Q804 748 867.5 769 Q931 790 973.5 826.5 Q1016 863 1037 912.5 Q1058 962 1058 1018 Q1058 1081 1037 1132 Q1016 1183 973 1219.5 Q930 1256 864.5 1276 Q799 1296 709 1296 L387 1296 L387 748 Z M600 1563 L330 1837 L330 1847 L493 1847 L661 1678 L828 1847 L993 1847 L993 1837 L721 1563 L600 1563 Z " />
<glyph glyph-name="rcaron" unicode="&#x159;" horiz-adv-x="763" >
<path fill="black" d="M159 1082 L344 1082 L349 949 Q394 1019 465 1060.5 Q536 1102 636 1102 Q658 1102 685.5 1097.5 Q713 1093 725 1088 L723 909 Q699 914 676.5 915.5 Q654 917 627 917 Q518 917 450 876 Q382 835 350 763 L350 0 L159 0 L159 1082 Z " />
<g transform="translate(-40,0)" >
<path fill="black" d="M155 1526 L155 1536 L318 1536 L486 1367 L653 1536 L818 1536 L818 1526 L546 1252 L425 1252 L155 1526 Z " />
</g>
</glyph>
<glyph glyph-name="Sacute" unicode="&#x15a;" horiz-adv-x="1322" >
<path fill="black" d="M293 422 Q293 348 326 294.5 Q359 241 414 206.5 Q469 172 540 155.5 Q611 139 687 139 Q770 139 834.5 155 Q899 171 943 201 Q987 231 1010.5 273.5 Q1034 316 1034 369 Q1034 420 1016.5 458.5 Q999 497 956 529.5 Q913 562 839.5 590.5 Q766 619 653 649 Q537 680 443 719.5 Q349 759 282 810.5 Q215 862 179 928 Q143 994 143 1079 Q143 1164 181.5 1236.5 Q220 1309 290.5 1362.5 Q361 1416 459.5 1446 Q558 1476 678 1476 Q808 1476 910.5 1439 Q1013 1402 1083.5 1341 Q1154 1280 1191 1200.5 Q1228 1121 1228 1036 L1030 1036 Q1030 1097 1008 1148 Q986 1199 941.5 1236.5 Q897 1274 831 1295 Q765 1316 677 1316 Q592 1316 529 1298.5 Q466 1281 424.5 1249.5 Q383 1218 362.5 1175 Q342 1132 342 1082 Q342 1036 363 998.5 Q384 961 429.5 929.5 Q475 898 546.5 871 Q618 844 718 819 Q849 784 945.5 741 Q1042 698 1106 644 Q1170 590 1201.5 522.5 Q1233 455 1233 371 Q1233 282 1193.5 210 Q1154 138 1082.5 87 Q1011 36 910.5 8 Q810 -20 687 -20 Q579 -20 473 8.5 Q367 37 282.5 92.5 Q198 148 146 231 Q94 314 94 422 L293 422 Z " />
<g transform="translate(436,312)" >
<path fill="black" d="M351 1536 L581 1536 L295 1242 L137 1242 L351 1536 Z " />
</g>
</glyph>
<glyph glyph-name="sacute" unicode="&#x15b;" horiz-adv-x="1144" >
<path fill="black" d="M298 333 Q301 276 328 238 Q355 200 395 176.5 Q435 153 484.5 143.5 Q534 134 582 134 Q707 134 772.5 176.5 Q838 219 838 285 Q838 315 827 341 Q816 367 785.5 389.5 Q755 412 700.5 432.5 Q646 453 559 472 Q463 494 386.5 521.5 Q310 549 256.5 586 Q203 623 175 672 Q147 721 147 787 Q147 852 177 909 Q207 966 263 1009 Q319 1052 398 1077 Q477 1102 575 1102 Q680 1102 762.5 1075.5 Q845 1049 902 1003.5 Q959 958 989 897 Q1019 836 1019 766 L828 766 Q828 799 811.5 831.5 Q795 864 762.5 890 Q730 916 683 932 Q636 948 575 948 Q512 948 466.5 935 Q421 922 392.5 900 Q364 878 350.5 850 Q337 822 337 793 Q337 763 348.5 740.5 Q360 718 390.5 699 Q421 680 475 662.5 Q529 645 614 625 Q720 600 798 570.5 Q876 541 927.5 502.5 Q979 464 1004 414.5 Q1029 365 1029 299 Q1029 228 997 169 Q965 110 906.5 68 Q848 26 765.5 3 Q683 -20 581 -20 Q466 -20 377.5 10 Q289 40 229 89 Q169 138 138 202 Q107 266 107 333 L298 333 Z " />
<g transform="translate(359,0)" >
<path fill="black" d="M351 1536 L581 1536 L295 1242 L137 1242 L351 1536 Z " />
</g>
</glyph>
<glyph glyph-name="Scedilla" unicode="&#x15e;" horiz-adv-x="1322" d="M579 -328 Q616 -328 649.5 -322.5 Q683 -317 708 -305 Q733 -293 747.5 -274.5 Q762 -256 762 -230 Q762 -180 720 -161.5 Q678 -143 587 -136 L615 -17 Q516 -8 422 24 Q328 56 255.5 111.5 Q183 167 138.5 245 Q94 323 94 422 L293 422 Q293 348 326 294.5 Q359 241 414 206.5 Q469 172 540 155.5 Q611 139 687 139 Q770 139 834.5 155 Q899 171 943 201 Q987 231 1010.5 273.5 Q1034 316 1034 369 Q1034 420 1016.5 458.5 Q999 497 956 529.5 Q913 562 839.5 590.5 Q766 619 653 649 Q537 680 443 719.5 Q349 759 282 810.5 Q215 862 179 928 Q143 994 143 1079 Q143 1164 181.5 1236.5 Q220 1309 290.5 1362.5 Q361 1416 459.5 1446 Q558 1476 678 1476 Q808 1476 910.5 1439 Q1013 1402 1083.5 1341 Q1154 1280 1191 1200.5 Q1228 1121 1228 1036 L1030 1036 Q1030 1097 1008 1148 Q986 1199 941.5 1236.5 Q897 1274 831 1295 Q765 1316 677 1316 Q592 1316 529 1298.5 Q466 1281 424.5 1249.5 Q383 1218 362.5 1175 Q342 1132 342 1082 Q342 1036 363 998.5 Q384 961 429.5 929.5 Q475 898 546.5 871 Q618 844 718 819 Q849 784 945.5 741 Q1042 698 1106 644 Q1170 590 1201.5 522.5 Q1233 455 1233 371 Q1233 289 1199 220.5 Q1165 152 1102.5 101.5 Q1040 51 951.5 20 Q863 -11 755 -18 L747 -53 Q779 -58 809 -69.5 Q839 -81 862 -101.5 Q885 -122 899.5 -152.5 Q914 -183 914 -226 Q914 -321 830.5 -378.5 Q747 -436 586 -436 L579 -328 Z " />
<glyph glyph-name="scedilla" unicode="&#x15f;" horiz-adv-x="1144" d="M497 -337 Q534 -337 567.5 -331.5 Q601 -326 626 -314 Q651 -302 665.5 -283.5 Q680 -265 680 -239 Q680 -189 638 -170.5 Q596 -152 505 -145 L535 -19 Q431 -13 351 19 Q271 51 217 99.5 Q163 148 135 208.5 Q107 269 107 333 L298 333 Q301 276 328 238 Q355 200 395 176.5 Q435 153 484.5 143.5 Q534 134 582 134 Q707 134 772.5 176.5 Q838 219 838 285 Q838 315 827 341 Q816 367 785.5 389.5 Q755 412 700.5 432.5 Q646 453 559 472 Q463 494 386.5 521.5 Q310 549 256.5 586 Q203 623 175 672 Q147 721 147 787 Q147 852 177 909 Q207 966 263 1009 Q319 1052 398 1077 Q477 1102 575 1102 Q680 1102 762.5 1075.5 Q845 1049 902 1003.5 Q959 958 989 897 Q1019 836 1019 766 L828 766 Q828 799 811.5 831.5 Q795 864 762.5 890 Q730 916 683 932 Q636 948 575 948 Q512 948 466.5 935 Q421 922 392.5 900 Q364 878 350.5 850 Q337 822 337 793 Q337 763 348.5 740.5 Q360 718 390.5 699 Q421 680 475 662.5 Q529 645 614 625 Q720 600 798 570.5 Q876 541 927.5 502.5 Q979 464 1004 414.5 Q1029 365 1029 299 Q1029 236 1004.5 183 Q980 130 934 89.5 Q888 49 822.5 22.5 Q757 -4 676 -14 L665 -62 Q697 -67 727 -78.5 Q757 -90 780 -110.5 Q803 -131 817.5 -161.5 Q832 -192 832 -235 Q832 -330 748.5 -387.5 Q665 -445 504 -445 L497 -337 Z " />
<glyph glyph-name="Scaron" unicode="&#x160;" horiz-adv-x="1322" >
<path fill="black" d="M293 422 Q293 348 326 294.5 Q359 241 414 206.5 Q469 172 540 155.5 Q611 139 687 139 Q770 139 834.5 155 Q899 171 943 201 Q987 231 1010.5 273.5 Q1034 316 1034 369 Q1034 420 1016.5 458.5 Q999 497 956 529.5 Q913 562 839.5 590.5 Q766 619 653 649 Q537 680 443 719.5 Q349 759 282 810.5 Q215 862 179 928 Q143 994 143 1079 Q143 1164 181.5 1236.5 Q220 1309 290.5 1362.5 Q361 1416 459.5 1446 Q558 1476 678 1476 Q808 1476 910.5 1439 Q1013 1402 1083.5 1341 Q1154 1280 1191 1200.5 Q1228 1121 1228 1036 L1030 1036 Q1030 1097 1008 1148 Q986 1199 941.5 1236.5 Q897 1274 831 1295 Q765 1316 677 1316 Q592 1316 529 1298.5 Q466 1281 424.5 1249.5 Q383 1218 362.5 1175 Q342 1132 342 1082 Q342 1036 363 998.5 Q384 961 429.5 929.5 Q475 898 546.5 871 Q618 844 718 819 Q849 784 945.5 741 Q1042 698 1106 644 Q1170 590 1201.5 522.5 Q1233 455 1233 371 Q1233 282 1193.5 210 Q1154 138 1082.5 87 Q1011 36 910.5 8 Q810 -20 687 -20 Q579 -20 473 8.5 Q367 37 282.5 92.5 Q198 148 146 231 Q94 314 94 422 L293 422 Z " />
<g transform="translate(193,312)" >
<path fill="black" d="M155 1526 L155 1536 L318 1536 L486 1367 L653 1536 L818 1536 L818 1526 L546 1252 L425 1252 L155 1526 Z " />
</g>
</glyph>
<glyph glyph-name="scaron" unicode="&#x161;" horiz-adv-x="1144" >
<path fill="black" d="M298 333 Q301 276 328 238 Q355 200 395 176.5 Q435 153 484.5 143.5 Q534 134 582 134 Q707 134 772.5 176.5 Q838 219 838 285 Q838 315 827 341 Q816 367 785.5 389.5 Q755 412 700.5 432.5 Q646 453 559 472 Q463 494 386.5 521.5 Q310 549 256.5 586 Q203 623 175 672 Q147 721 147 787 Q147 852 177 909 Q207 966 263 1009 Q319 1052 398 1077 Q477 1102 575 1102 Q680 1102 762.5 1075.5 Q845 1049 902 1003.5 Q959 958 989 897 Q1019 836 1019 766 L828 766 Q828 799 811.5 831.5 Q795 864 762.5 890 Q730 916 683 932 Q636 948 575 948 Q512 948 466.5 935 Q421 922 392.5 900 Q364 878 350.5 850 Q337 822 337 793 Q337 763 348.5 740.5 Q360 718 390.5 699 Q421 680 475 662.5 Q529 645 614 625 Q720 600 798 570.5 Q876 541 927.5 502.5 Q979 464 1004 414.5 Q1029 365 1029 299 Q1029 228 997 169 Q965 110 906.5 68 Q848 26 765.5 3 Q683 -20 581 -20 Q466 -20 377.5 10 Q289 40 229 89 Q169 138 138 202 Q107 266 107 333 L298 333 Z " />
<g transform="translate(116,0)" >
<path fill="black" d="M155 1526 L155 1536 L318 1536 L486 1367 L653 1536 L818 1536 L818 1526 L546 1252 L425 1252 L155 1526 Z " />
</g>
</glyph>
<glyph glyph-name="uni0162" unicode="&#x162;" horiz-adv-x="1331" d="M562 -327 Q599 -327 632.5 -321.5 Q666 -316 691 -304 Q716 -292 730.5 -273.5 Q745 -255 745 -229 Q745 -179 703 -160.5 Q661 -142 570 -135 L602 0 L568 0 L568 1296 L59 1296 L59 1456 L1274 1456 L1274 1296 L764 1296 L764 0 L742 0 L730 -52 Q762 -57 792 -68.5 Q822 -80 845 -100.5 Q868 -121 882.5 -151.5 Q897 -182 897 -225 Q897 -320 813.5 -377.5 Q730 -435 569 -435 L562 -327 Z " />
<glyph glyph-name="uni0163" unicode="&#x163;" horiz-adv-x="732" d="M382 -327 Q419 -327 452.5 -321.5 Q486 -316 511 -304 Q536 -292 550.5 -273.5 Q565 -255 565 -229 Q565 -179 523 -160.5 Q481 -142 390 -135 L419 -12 Q377 -3 342.5 17 Q308 37 282.5 71 Q257 105 243 154 Q229 203 229 269 L229 938 L20 938 L20 1082 L229 1082 L229 1344 L421 1344 L421 1082 L642 1082 L642 938 L421 938 L421 268 Q421 227 432 202 Q443 177 461 163.5 Q479 150 503 145.5 Q527 141 553 141 Q579 141 606 145.5 Q633 150 650 153 L652 0 Q635 -5 611 -9.5 Q587 -14 558 -17 L550 -52 Q582 -57 612 -68.5 Q642 -80 665 -100.5 Q688 -121 702.5 -151.5 Q717 -182 717 -225 Q717 -320 633.5 -377.5 Q550 -435 389 -435 L382 -327 Z " />
<glyph glyph-name="Tcaron" unicode="&#x164;" horiz-adv-x="1331" d="M568 1296 L59 1296 L59 1456 L1274 1456 L1274 1296 L764 1296 L764 0 L568 0 L568 1296 Z M604 1562 L334 1836 L334 1846 L497 1846 L665 1677 L832 1846 L997 1846 L997 1836 L725 1562 L604 1562 Z " />
<glyph glyph-name="tcaron" unicode="&#x165;" horiz-adv-x="695" >
<path fill="black" d="M229 938 L20 938 L20 1082 L229 1082 L229 1344 L421 1344 L421 1082 L642 1082 L642 938 L421 938 L421 268 Q421 227 432 202 Q443 177 461 163.5 Q479 150 503 145.5 Q527 141 553 141 Q579 141 606 145.5 Q633 150 650 153 L652 0 Q627 -7 588.5 -13.5 Q550 -20 499 -20 Q442 -20 393 -5.5 Q344 9 307.5 43 Q271 77 250 132.5 Q229 188 229 269 L229 938 Z " />
<g transform="translate(405,1416)" >
<path fill="black" d="M-749 -477 Q-709 -420 -689 -359.5 Q-669 -299 -669 -229 L-669 -147 L-492 -147 L-492 -226 Q-492 -266 -501.5 -310 Q-511 -354 -530 -397.5 Q-549 -441 -576.5 -480.5 Q-604 -520 -641 -550 L-749 -477 Z " />
</g>
</glyph>
<glyph glyph-name="Tbar" unicode="&#x166;" horiz-adv-x="1331" d="M568 823 L327 823 L327 976 L568 976 L568 1296 L59 1296 L59 1456 L1274 1456 L1274 1296 L764 1296 L764 976 L1012 976 L1012 823 L764 823 L764 0 L568 0 L568 823 Z " />
<glyph glyph-name="tbar" unicode="&#x167;" horiz-adv-x="732" d="M229 602 L-2 602 L-2 755 L229 755 L229 938 L20 938 L20 1082 L229 1082 L229 1344 L421 1344 L421 1082 L642 1082 L642 938 L421 938 L421 755 L683 755 L683 602 L421 602 L421 268 Q421 227 432 202 Q443 177 461 163.5 Q479 150 503 145.5 Q527 141 553 141 Q579 141 606 145.5 Q633 150 650 153 L652 0 Q627 -7 588.5 -13.5 Q550 -20 499 -20 Q442 -20 393 -5.5 Q344 9 307.5 43 Q271 77 250 132.5 Q229 188 229 269 L229 602 Z " />
<glyph glyph-name="Utilde" unicode="&#x168;" horiz-adv-x="1448" >
<path fill="black" d="M160 1456 L357 1456 L357 461 Q357 376 384 315 Q411 254 459.5 215 Q508 176 576 157.5 Q644 139 726 139 Q809 139 876.5 157.5 Q944 176 992.5 215 Q1041 254 1067.5 315 Q1094 376 1094 461 L1094 1456 L1293 1456 L1293 461 Q1293 338 1247.5 247.5 Q1202 157 1124.5 97.5 Q1047 38 944 9 Q841 -20 726 -20 Q606 -20 502.5 9 Q399 38 323 97.5 Q247 157 203.5 247.5 Q160 338 160 461 L160 1456 Z " />
<g transform="translate(218,314)" >
<path fill="black" d="M135 1247 Q135 1302 152.5 1348 Q170 1394 200 1427 Q230 1460 271.5 1478 Q313 1496 361 1496 Q408 1496 443.5 1481 Q479 1466 511.5 1448.5 Q544 1431 577 1416 Q610 1401 653 1401 Q676 1401 696 1409.5 Q716 1418 730.5 1433 Q745 1448 753.5 1468.5 Q762 1489 762 1513 L891 1501 Q891 1446 873 1401 Q855 1356 824.5 1324.5 Q794 1293 752.5 1275.5 Q711 1258 663 1258 Q608 1258 572.5 1272.5 Q537 1287 507 1305 Q477 1323 447 1337.5 Q417 1352 372 1352 Q349 1352 329 1343.5 Q309 1335 294.5 1320 Q280 1305 271.5 1284.5 Q263 1264 263 1241 L135 1247 Z " />
</g>
</glyph>
<glyph glyph-name="utilde" unicode="&#x169;" horiz-adv-x="1228" >
<path fill="black" d="M154 1082 L346 1082 L346 382 Q346 309 364.5 262 Q383 215 414 187.5 Q445 160 485.5 149.5 Q526 139 569 139 Q695 139 769.5 184 Q844 229 878 302 L878 1082 L1070 1082 L1070 0 L888 0 L883 117 Q829 52 743.5 16 Q658 -20 537 -20 Q452 -20 381 2.5 Q310 25 260 74 Q210 123 182 199.5 Q154 276 154 384 L154 1082 Z " />
<g transform="translate(109,3)" >
<path fill="black" d="M135 1247 Q135 1302 152.5 1348 Q170 1394 200 1427 Q230 1460 271.5 1478 Q313 1496 361 1496 Q408 1496 443.5 1481 Q479 1466 511.5 1448.5 Q544 1431 577 1416 Q610 1401 653 1401 Q676 1401 696 1409.5 Q716 1418 730.5 1433 Q745 1448 753.5 1468.5 Q762 1489 762 1513 L891 1501 Q891 1446 873 1401 Q855 1356 824.5 1324.5 Q794 1293 752.5 1275.5 Q711 1258 663 1258 Q608 1258 572.5 1272.5 Q537 1287 507 1305 Q477 1323 447 1337.5 Q417 1352 372 1352 Q349 1352 329 1343.5 Q309 1335 294.5 1320 Q280 1305 271.5 1284.5 Q263 1264 263 1241 L135 1247 Z " />
</g>
</glyph>
<glyph glyph-name="Umacron" unicode="&#x16a;" horiz-adv-x="1448" >
<path fill="black" d="M160 1456 L357 1456 L357 461 Q357 376 384 315 Q411 254 459.5 215 Q508 176 576 157.5 Q644 139 726 139 Q809 139 876.5 157.5 Q944 176 992.5 215 Q1041 254 1067.5 315 Q1094 376 1094 461 L1094 1456 L1293 1456 L1293 461 Q1293 338 1247.5 247.5 Q1202 157 1124.5 97.5 Q1047 38 944 9 Q841 -20 726 -20 Q606 -20 502.5 9 Q399 38 323 97.5 Q247 157 203.5 247.5 Q160 338 160 461 L160 1456 Z " />
<g transform="translate(216,319)" >
<path fill="black" d="M160 1301 L160 1445 L871 1445 L871 1301 L160 1301 Z " />
</g>
</glyph>
<glyph glyph-name="umacron" unicode="&#x16b;" horiz-adv-x="1228" d="M154 1082 L346 1082 L346 382 Q346 309 364.5 262 Q383 215 414 187.5 Q445 160 485.5 149.5 Q526 139 569 139 Q695 139 769.5 184 Q844 229 878 302 L878 1082 L1070 1082 L1070 0 L888 0 L883 117 Q829 52 743.5 16 Q658 -20 537 -20 Q452 -20 381 2.5 Q310 25 260 74 Q210 123 182 199.5 Q154 276 154 384 L154 1082 Z M267 1453 L978 1453 L978 1309 L267 1309 L267 1453 Z " />
<glyph glyph-name="Uring" unicode="&#x16e;" horiz-adv-x="1448" >
<path fill="black" d="M160 1456 L357 1456 L357 461 Q357 376 384 315 Q411 254 459.5 215 Q508 176 576 157.5 Q644 139 726 139 Q809 139 876.5 157.5 Q944 176 992.5 215 Q1041 254 1067.5 315 Q1094 376 1094 461 L1094 1456 L1293 1456 L1293 461 Q1293 338 1247.5 247.5 Q1202 157 1124.5 97.5 Q1047 38 944 9 Q841 -20 726 -20 Q606 -20 502.5 9 Q399 38 323 97.5 Q247 157 203.5 247.5 Q160 338 160 461 L160 1456 Z " />
<g transform="translate(362,322)" >
<path fill="black" d="M136 1409 Q136 1453 153.5 1491 Q171 1529 202 1557 Q233 1585 275.5 1601.5 Q318 1618 367 1618 Q416 1618 458.5 1601.5 Q501 1585 532 1557 Q563 1529 580.5 1491 Q598 1453 598 1409 Q598 1366 580.5 1328.5 Q563 1291 532 1263.5 Q501 1236 458.5 1220.5 Q416 1205 367 1205 Q318 1205 275.5 1220.5 Q233 1236 202 1263.5 Q171 1291 153.5 1328.5 Q136 1366 136 1409 Z M239 1409 Q239 1387 248.5 1366.5 Q258 1346 275 1330 Q292 1314 315.5 1304 Q339 1294 367 1294 Q396 1294 419 1303.5 Q442 1313 459 1329 Q476 1345 485 1366 Q494 1387 494 1409 Q494 1433 485 1454.5 Q476 1476 459 1492.5 Q442 1509 419 1518.5 Q396 1528 367 1528 Q339 1528 315.5 1518.5 Q292 1509 275 1492.5 Q258 1476 248.5 1454.5 Q239 1433 239 1409 Z " />
</g>
</glyph>
<glyph glyph-name="uring" unicode="&#x16f;" horiz-adv-x="1228" >
<path fill="black" d="M154 1082 L346 1082 L346 382 Q346 309 364.5 262 Q383 215 414 187.5 Q445 160 485.5 149.5 Q526 139 569 139 Q695 139 769.5 184 Q844 229 878 302 L878 1082 L1070 1082 L1070 0 L888 0 L883 117 Q829 52 743.5 16 Q658 -20 537 -20 Q452 -20 381 2.5 Q310 25 260 74 Q210 123 182 199.5 Q154 276 154 384 L154 1082 Z " />
<g transform="translate(253,11)" >
<path fill="black" d="M136 1409 Q136 1453 153.5 1491 Q171 1529 202 1557 Q233 1585 275.5 1601.5 Q318 1618 367 1618 Q416 1618 458.5 1601.5 Q501 1585 532 1557 Q563 1529 580.5 1491 Q598 1453 598 1409 Q598 1366 580.5 1328.5 Q563 1291 532 1263.5 Q501 1236 458.5 1220.5 Q416 1205 367 1205 Q318 1205 275.5 1220.5 Q233 1236 202 1263.5 Q171 1291 153.5 1328.5 Q136 1366 136 1409 Z M239 1409 Q239 1387 248.5 1366.5 Q258 1346 275 1330 Q292 1314 315.5 1304 Q339 1294 367 1294 Q396 1294 419 1303.5 Q442 1313 459 1329 Q476 1345 485 1366 Q494 1387 494 1409 Q494 1433 485 1454.5 Q476 1476 459 1492.5 Q442 1509 419 1518.5 Q396 1528 367 1528 Q339 1528 315.5 1518.5 Q292 1509 275 1492.5 Q258 1476 248.5 1454.5 Q239 1433 239 1409 Z " />
</g>
</glyph>
<glyph glyph-name="Uhungarumlaut" unicode="&#x170;" horiz-adv-x="1448" d="M160 1456 L357 1456 L357 461 Q357 376 384 315 Q411 254 459.5 215 Q508 176 576 157.5 Q644 139 726 139 Q809 139 876.5 157.5 Q944 176 992.5 215 Q1041 254 1067.5 315 Q1094 376 1094 461 L1094 1456 L1293 1456 L1293 461 Q1293 338 1247.5 247.5 Q1202 157 1124.5 97.5 Q1047 38 944 9 Q841 -20 726 -20 Q606 -20 502.5 9 Q399 38 323 97.5 Q247 157 203.5 247.5 Q160 338 160 461 L160 1456 Z M1020 1846 L1231 1846 L940 1543 L766 1543 L1020 1846 Z M657 1846 L859 1846 L621 1543 L465 1543 L657 1846 Z " />
<glyph glyph-name="uhungarumlaut" unicode="&#x171;" horiz-adv-x="1228" d="M154 1082 L346 1082 L346 382 Q346 309 364.5 262 Q383 215 414 187.5 Q445 160 485.5 149.5 Q526 139 569 139 Q695 139 769.5 184 Q844 229 878 302 L878 1082 L1070 1082 L1070 0 L888 0 L883 117 Q829 52 743.5 16 Q658 -20 537 -20 Q452 -20 381 2.5 Q310 25 260 74 Q210 123 182 199.5 Q154 276 154 384 L154 1082 Z M657 1232 L911 1535 L1122 1535 L831 1232 L657 1232 Z M548 1535 L750 1535 L512 1232 L356 1232 L548 1535 Z " />
<glyph glyph-name="Uogonek" unicode="&#x172;" horiz-adv-x="1448" d="M160 1456 L357 1456 L357 461 Q357 376 384 315 Q411 254 459.5 215 Q508 176 576 157.5 Q644 139 726 139 Q809 139 876.5 157.5 Q944 176 992.5 215 Q1041 254 1067.5 315 Q1094 376 1094 461 L1094 1456 L1293 1456 L1293 461 Q1293 378 1271.5 309.5 Q1250 241 1212 187.5 Q1174 134 1120.5 94.5 Q1067 55 1002 29 Q970 7 940.5 -17 Q911 -41 888.5 -66.5 Q866 -92 852.5 -119.5 Q839 -147 839 -177 Q839 -211 857.5 -230.5 Q876 -250 924 -250 Q960 -250 987 -240.5 Q1014 -231 1031 -223 L1047 -347 Q1021 -362 981 -376.5 Q941 -391 878 -391 Q835 -391 798 -378.5 Q761 -366 733.5 -342 Q706 -318 690.5 -282 Q675 -246 675 -199 Q675 -153 695.5 -108 Q716 -63 759 -19 Q751 -20 742.5 -20 Q734 -20 726 -20 Q606 -20 502.5 9 Q399 38 323 97.5 Q247 157 203.5 247.5 Q160 338 160 461 L160 1456 Z " />
<glyph glyph-name="uogonek" unicode="&#x173;" horiz-adv-x="1228" d="M154 1082 L346 1082 L346 382 Q346 309 364.5 262 Q383 215 414 187.5 Q445 160 485.5 149.5 Q526 139 569 139 Q695 139 769.5 184 Q844 229 878 302 L878 1082 L1070 1082 L1070 0 L1058 0 Q1022 -24 989 -49.5 Q956 -75 930 -102.5 Q904 -130 888.5 -159.5 Q873 -189 873 -221 Q873 -255 891.5 -274.5 Q910 -294 958 -294 Q994 -294 1021 -284.5 Q1048 -275 1065 -267 L1081 -391 Q1055 -406 1015 -420.5 Q975 -435 912 -435 Q869 -435 832 -422.5 Q795 -410 767.5 -386 Q740 -362 724.5 -326 Q709 -290 709 -243 Q709 -177 752 -111.5 Q795 -46 888 11 L883 117 Q829 52 743.5 16 Q658 -20 537 -20 Q452 -20 381 2.5 Q310 25 260 74 Q210 123 182 199.5 Q154 276 154 384 L154 1082 Z " />
<glyph glyph-name="Wcircumflex" unicode="&#x174;" horiz-adv-x="1971" >
<path fill="black" d="M69 1456 L268 1456 L524 425 L553 244 L593 405 L908 1456 L1085 1456 L1393 405 L1433 240 L1465 426 L1716 1456 L1916 1456 L1536 0 L1347 0 L1022 1072 L998 1187 L973 1072 L638 0 L450 0 L69 1456 Z " />
<g transform="translate(492,311)" >
<path fill="black" d="M183 1264 L449 1537 L565 1537 L834 1263 L834 1253 L673 1253 L507 1421 L341 1253 L183 1253 L183 1264 Z " />
</g>
</glyph>
<glyph glyph-name="wcircumflex" unicode="&#x175;" horiz-adv-x="1667" >
<path fill="black" d="M57 1082 L247 1082 L479 235 L754 1082 L908 1082 L1187 222 L1414 1082 L1605 1082 L1270 0 L1113 0 L828 852 L548 0 L392 0 L57 1082 Z " />
<g transform="translate(320,0)" >
<path fill="black" d="M183 1264 L449 1537 L565 1537 L834 1263 L834 1253 L673 1253 L507 1421 L341 1253 L183 1253 L183 1264 Z " />
</g>
</glyph>
<glyph glyph-name="Ycircumflex" unicode="&#x176;" horiz-adv-x="1338" >
<path fill="black" d="M568 544 L23 1456 L250 1456 L668 728 L1086 1456 L1311 1456 L767 544 L767 0 L568 0 L568 544 Z " />
<g transform="translate(164,310)" >
<path fill="black" d="M183 1264 L449 1537 L565 1537 L834 1263 L834 1253 L673 1253 L507 1421 L341 1253 L183 1253 L183 1264 Z " />
</g>
</glyph>
<glyph glyph-name="ycircumflex" unicode="&#x177;" horiz-adv-x="1061" >
<path fill="black" d="M101 -269 Q111 -271 130.5 -272 Q150 -273 158 -273 Q209 -273 247 -264 Q285 -255 314 -234.5 Q343 -214 366 -180.5 Q389 -147 409 -98 L452 9 L31 1082 L239 1082 L547 266 L824 1082 L1029 1082 L555 -167 Q540 -207 514.5 -254.5 Q489 -302 448.5 -342.5 Q408 -383 350.5 -410 Q293 -437 213 -437 Q200 -437 184.5 -435 Q169 -433 153 -430.5 Q137 -428 123.5 -425.5 Q110 -423 101 -421 L101 -269 Z " />
<g transform="translate(48,0)" >
<path fill="black" d="M183 1264 L449 1537 L565 1537 L834 1263 L834 1253 L673 1253 L507 1421 L341 1253 L183 1253 L183 1264 Z " />
</g>
</glyph>
<glyph glyph-name="Ydieresis" unicode="&#x178;" horiz-adv-x="1338" >
<path fill="black" d="M568 544 L23 1456 L250 1456 L668 728 L1086 1456 L1311 1456 L767 544 L767 0 L568 0 L568 544 Z " />
<g transform="translate(153,314)" >
<path fill="black" d="M158 1367 Q158 1412 187.5 1443.5 Q217 1475 273 1475 Q328 1475 358 1443.5 Q388 1412 388 1367 Q388 1322 358 1291.5 Q328 1261 273 1261 Q217 1261 187.5 1291.5 Q158 1322 158 1367 Z " />
</g>
<g transform="translate(638,312)" >
<path fill="black" d="M158 1367 Q158 1412 187.5 1443.5 Q217 1475 273 1475 Q328 1475 358 1443.5 Q388 1412 388 1367 Q388 1322 358 1291.5 Q328 1261 273 1261 Q217 1261 187.5 1291.5 Q158 1322 158 1367 Z " />
</g>
</glyph>
<glyph glyph-name="Zacute" unicode="&#x179;" horiz-adv-x="1333" >
<path fill="black" d="M99 147 L961 1296 L116 1296 L116 1456 L1207 1456 L1207 1314 L343 159 L1240 159 L1240 0 L99 0 L99 147 Z " />
<g transform="translate(426,311)" >
<path fill="black" d="M351 1536 L581 1536 L295 1242 L137 1242 L351 1536 Z " />
</g>
</glyph>
<glyph glyph-name="zacute" unicode="&#x17a;" horiz-adv-x="1102" >
<path fill="black" d="M100 138 L749 927 L113 927 L113 1082 L990 1082 L990 949 L337 154 L1025 154 L1025 0 L100 0 L100 138 Z " />
<g transform="translate(316,0)" >
<path fill="black" d="M351 1536 L581 1536 L295 1242 L137 1242 L351 1536 Z " />
</g>
</glyph>
<glyph glyph-name="Zdotaccent" unicode="&#x17b;" horiz-adv-x="1333" >
<path fill="black" d="M99 147 L961 1296 L116 1296 L116 1456 L1207 1456 L1207 1314 L343 159 L1240 159 L1240 0 L99 0 L99 147 Z " />
<g transform="translate(394,311)" >
<path fill="black" d="M158 1367 Q158 1412 187.5 1443.5 Q217 1475 273 1475 Q328 1475 358 1443.5 Q388 1412 388 1367 Q388 1322 358 1291.5 Q328 1261 273 1261 Q217 1261 187.5 1291.5 Q158 1322 158 1367 Z " />
</g>
</glyph>
<glyph glyph-name="zdotaccent" unicode="&#x17c;" horiz-adv-x="1102" >
<path fill="black" d="M100 138 L749 927 L113 927 L113 1082 L990 1082 L990 949 L337 154 L1025 154 L1025 0 L100 0 L100 138 Z " />
<g transform="translate(284,0)" >
<path fill="black" d="M158 1367 Q158 1412 187.5 1443.5 Q217 1475 273 1475 Q328 1475 358 1443.5 Q388 1412 388 1367 Q388 1322 358 1291.5 Q328 1261 273 1261 Q217 1261 187.5 1291.5 Q158 1322 158 1367 Z " />
</g>
</glyph>
<glyph glyph-name="Zcaron" unicode="&#x17d;" horiz-adv-x="1333" d="M99 147 L961 1296 L116 1296 L116 1456 L1207 1456 L1207 1314 L343 159 L1240 159 L1240 0 L99 0 L99 147 Z M608 1563 L338 1837 L338 1847 L501 1847 L669 1678 L836 1847 L1001 1847 L1001 1837 L729 1563 L608 1563 Z " />
<glyph glyph-name="zcaron" unicode="&#x17e;" horiz-adv-x="1102" d="M100 138 L749 927 L113 927 L113 1082 L990 1082 L990 949 L337 154 L1025 154 L1025 0 L100 0 L100 138 Z M498 1252 L228 1526 L228 1536 L391 1536 L559 1367 L726 1536 L891 1536 L891 1526 L619 1252 L498 1252 Z " />
<glyph glyph-name="florin" unicode="&#x192;" horiz-adv-x="760" d="M-18 -270 Q-10 -273 4 -275.5 Q18 -278 33.5 -279.5 Q49 -281 63 -282 Q77 -283 86 -283 Q162 -283 203 -231.5 Q244 -180 244 -89 L244 938 L59 938 L59 1082 L244 1082 L244 1196 Q244 1283 269 1350.5 Q294 1418 340.5 1464 Q387 1510 454 1533.5 Q521 1557 605 1557 Q644 1557 682 1551 Q720 1545 759 1536 L736 1387 Q692 1398 628 1398 Q531 1398 483 1345.5 Q435 1293 435 1196 L435 1082 L665 1082 L665 938 L435 938 L435 -89 Q435 -173 411.5 -238 Q388 -303 343.5 -347.5 Q299 -392 234.5 -414.5 Q170 -437 89 -437 Q56 -437 27 -433.5 Q-2 -430 -34 -420 L-18 -270 Z " />
<glyph glyph-name="Ohorn" unicode="&#x1a0;" horiz-adv-x="1379" d="M144 792 Q144 954 189.5 1081 Q235 1208 317.5 1295.5 Q400 1383 515.5 1429.5 Q631 1476 770 1476 Q901 1476 1009 1437.5 Q1117 1399 1198 1324 Q1257 1327 1297.5 1346.5 Q1338 1366 1362.5 1400.5 Q1387 1435 1397.5 1483.5 Q1408 1532 1408 1593 L1577 1593 Q1577 1430 1509 1329 Q1441 1228 1299 1198 Q1347 1117 1372 1015.5 Q1397 914 1397 792 L1397 663 Q1397 501 1353 374.5 Q1309 248 1227 160 Q1145 72 1030 26 Q915 -20 772 -20 Q633 -20 517 26 Q401 72 318.5 160 Q236 248 190 374.5 Q144 501 144 663 L144 792 Z M341 663 Q341 535 371.5 438 Q402 341 458 276 Q514 211 593.5 178.5 Q673 146 772 146 Q978 146 1089 276.5 Q1200 407 1200 663 L1200 794 Q1200 1049 1087 1179 Q974 1309 770 1309 Q671 1309 592 1276.5 Q513 1244 457 1179 Q401 1114 371 1018 Q341 922 341 794 L341 663 Z " />
<glyph glyph-name="ohorn" unicode="&#x1a1;" horiz-adv-x="1141" d="M105 562 Q105 681 142.5 780.5 Q180 880 248.5 951.5 Q317 1023 414.5 1062.5 Q512 1102 632 1102 Q749 1102 842.5 1066.5 Q936 1031 1005 965 Q1052 971 1080.5 990.5 Q1109 1010 1125 1041 Q1141 1072 1146 1112.5 Q1151 1153 1151 1201 L1302 1201 Q1302 1134 1290.5 1078 Q1279 1022 1253.5 978.5 Q1228 935 1187.5 904.5 Q1147 874 1088 859 Q1124 796 1143 721.5 Q1162 647 1162 562 L1162 519 Q1162 400 1125 301 Q1088 202 1019.5 130.5 Q951 59 853.5 19.5 Q756 -20 635 -20 Q514 -20 416 19.5 Q318 59 249 130.5 Q180 202 142.5 301 Q105 400 105 519 L105 562 Z M297 519 Q297 437 318.5 367 Q340 297 382.5 245 Q425 193 488.5 163.5 Q552 134 635 134 Q718 134 781 163.5 Q844 193 886 245 Q928 297 949.5 367 Q971 437 971 519 L971 562 Q971 643 949.5 713.5 Q928 784 885 836 Q842 888 778.5 918 Q715 948 632 948 Q550 948 487.5 918 Q425 888 382.5 836 Q340 784 318.5 713.5 Q297 643 297 562 L297 519 Z " />
<glyph glyph-name="Uhorn" unicode="&#x1af;" horiz-adv-x="1387" d="M162 1456 L359 1456 L359 461 Q359 376 386 315 Q413 254 461.5 215 Q510 176 578 157.5 Q646 139 728 139 Q811 139 878.5 157.5 Q946 176 994.5 215 Q1043 254 1069.5 315 Q1096 376 1096 461 L1096 1456 L1295 1456 L1295 1243 Q1363 1249 1407 1270.5 Q1451 1292 1477 1329 Q1503 1366 1513 1418.5 Q1523 1471 1523 1538 L1682 1538 Q1682 1437 1661 1359 Q1640 1281 1594 1227 Q1548 1173 1474 1142.5 Q1400 1112 1295 1106 L1295 461 Q1295 338 1249.5 247.5 Q1204 157 1126.5 97.5 Q1049 38 946 9 Q843 -20 728 -20 Q608 -20 504.5 9 Q401 38 325 97.5 Q249 157 205.5 247.5 Q162 338 162 461 L162 1456 Z " />
<glyph glyph-name="uhorn" unicode="&#x1b0;" horiz-adv-x="1247" d="M156 1082 L348 1082 L348 382 Q348 309 366.5 262 Q385 215 416 187.5 Q447 160 487.5 149.5 Q528 139 571 139 Q697 139 771.5 184 Q846 229 880 302 L880 1082 L1072 1082 L1072 953 Q1133 956 1168 970 Q1203 984 1220 1010 Q1237 1036 1241.5 1075.5 Q1246 1115 1246 1168 L1391 1168 Q1391 1089 1376 1029 Q1361 969 1324 927.5 Q1287 886 1226 863.5 Q1165 841 1072 838 L1072 0 L890 0 L885 117 Q831 52 745.5 16 Q660 -20 539 -20 Q454 -20 383 2.5 Q312 25 262 74 Q212 123 184 199.5 Q156 276 156 384 L156 1082 Z " />
<glyph glyph-name="uni0218" unicode="&#x218;" horiz-adv-x="1178" >
<path fill="black" d="M293 422 Q293 348 326 294.5 Q359 241 414 206.5 Q469 172 540 155.5 Q611 139 687 139 Q770 139 834.5 155 Q899 171 943 201 Q987 231 1010.5 273.5 Q1034 316 1034 369 Q1034 420 1016.5 458.5 Q999 497 956 529.5 Q913 562 839.5 590.5 Q766 619 653 649 Q537 680 443 719.5 Q349 759 282 810.5 Q215 862 179 928 Q143 994 143 1079 Q143 1164 181.5 1236.5 Q220 1309 290.5 1362.5 Q361 1416 459.5 1446 Q558 1476 678 1476 Q808 1476 910.5 1439 Q1013 1402 1083.5 1341 Q1154 1280 1191 1200.5 Q1228 1121 1228 1036 L1030 1036 Q1030 1097 1008 1148 Q986 1199 941.5 1236.5 Q897 1274 831 1295 Q765 1316 677 1316 Q592 1316 529 1298.5 Q466 1281 424.5 1249.5 Q383 1218 362.5 1175 Q342 1132 342 1082 Q342 1036 363 998.5 Q384 961 429.5 929.5 Q475 898 546.5 871 Q618 844 718 819 Q849 784 945.5 741 Q1042 698 1106 644 Q1170 590 1201.5 522.5 Q1233 455 1233 371 Q1233 282 1193.5 210 Q1154 138 1082.5 87 Q1011 36 910.5 8 Q810 -20 687 -20 Q579 -20 473 8.5 Q367 37 282.5 92.5 Q198 148 146 231 Q94 314 94 422 L293 422 Z " />
<g transform="translate(356,-366)" >
<path fill="black" d="M-749 -477 Q-709 -420 -689 -359.5 Q-669 -299 -669 -229 L-669 -147 L-492 -147 L-492 -226 Q-492 -266 -501.5 -310 Q-511 -354 -530 -397.5 Q-549 -441 -576.5 -480.5 Q-604 -520 -641 -550 L-749 -477 Z " />
</g>
</glyph>
<glyph glyph-name="uni0219" unicode="&#x219;" horiz-adv-x="1030" >
<path fill="black" d="M298 333 Q301 276 328 238 Q355 200 395 176.5 Q435 153 484.5 143.5 Q534 134 582 134 Q707 134 772.5 176.5 Q838 219 838 285 Q838 315 827 341 Q816 367 785.5 389.5 Q755 412 700.5 432.5 Q646 453 559 472 Q463 494 386.5 521.5 Q310 549 256.5 586 Q203 623 175 672 Q147 721 147 787 Q147 852 177 909 Q207 966 263 1009 Q319 1052 398 1077 Q477 1102 575 1102 Q680 1102 762.5 1075.5 Q845 1049 902 1003.5 Q959 958 989 897 Q1019 836 1019 766 L828 766 Q828 799 811.5 831.5 Q795 864 762.5 890 Q730 916 683 932 Q636 948 575 948 Q512 948 466.5 935 Q421 922 392.5 900 Q364 878 350.5 850 Q337 822 337 793 Q337 763 348.5 740.5 Q360 718 390.5 699 Q421 680 475 662.5 Q529 645 614 625 Q720 600 798 570.5 Q876 541 927.5 502.5 Q979 464 1004 414.5 Q1029 365 1029 299 Q1029 228 997 169 Q965 110 906.5 68 Q848 26 765.5 3 Q683 -20 581 -20 Q466 -20 377.5 10 Q289 40 229 89 Q169 138 138 202 Q107 266 107 333 L298 333 Z " />
<g transform="translate(300,-376)" >
<path fill="black" d="M-749 -477 Q-709 -420 -689 -359.5 Q-669 -299 -669 -229 L-669 -147 L-492 -147 L-492 -226 Q-492 -266 -501.5 -310 Q-511 -354 -530 -397.5 Q-549 -441 -576.5 -480.5 Q-604 -520 -641 -550 L-749 -477 Z " />
</g>
</glyph>
<glyph glyph-name="uni021A" unicode="&#x21a;" horiz-adv-x="1183" >
<path fill="black" d="M568 1296 L59 1296 L59 1456 L1274 1456 L1274 1296 L764 1296 L764 0 L568 0 L568 1296 Z " />
<g transform="translate(342,-366)" >
<path fill="black" d="M-749 -477 Q-709 -420 -689 -359.5 Q-669 -299 -669 -229 L-669 -147 L-492 -147 L-492 -226 Q-492 -266 -501.5 -310 Q-511 -354 -530 -397.5 Q-549 -441 -576.5 -480.5 Q-604 -520 -641 -550 L-749 -477 Z " />
</g>
</glyph>
<glyph glyph-name="uni021B" unicode="&#x21b;" horiz-adv-x="656" >
<path fill="black" d="M229 938 L20 938 L20 1082 L229 1082 L229 1344 L421 1344 L421 1082 L642 1082 L642 938 L421 938 L421 268 Q421 227 432 202 Q443 177 461 163.5 Q479 150 503 145.5 Q527 141 553 141 Q579 141 606 145.5 Q633 150 650 153 L652 0 Q627 -7 588.5 -13.5 Q550 -20 499 -20 Q442 -20 393 -5.5 Q344 9 307.5 43 Q271 77 250 132.5 Q229 188 229 269 L229 938 Z " />
<g transform="translate(193,-366)" >
<path fill="black" d="M-749 -477 Q-709 -420 -689 -359.5 Q-669 -299 -669 -229 L-669 -147 L-492 -147 L-492 -226 Q-492 -266 -501.5 -310 Q-511 -354 -530 -397.5 Q-549 -441 -576.5 -480.5 Q-604 -520 -641 -550 L-749 -477 Z " />
</g>
</glyph>
<glyph glyph-name="uni0298" unicode="&#x298;" horiz-adv-x="1370" d="M137 792 Q137 954 182.5 1081 Q228 1208 310.5 1295.5 Q393 1383 508.5 1429.5 Q624 1476 763 1476 Q906 1476 1021.5 1429.5 Q1137 1383 1219 1295.5 Q1301 1208 1345.5 1081 Q1390 954 1390 792 L1390 663 Q1390 501 1346 374.5 Q1302 248 1220 160 Q1138 72 1023 26 Q908 -20 765 -20 Q626 -20 510 26 Q394 72 311.5 160 Q229 248 183 374.5 Q137 501 137 663 L137 792 Z M334 663 Q334 535 364.5 438 Q395 341 451 276 Q507 211 586.5 178.5 Q666 146 765 146 Q971 146 1082 276.5 Q1193 407 1193 663 L1193 794 Q1193 1049 1080 1179 Q967 1309 763 1309 Q664 1309 585 1276.5 Q506 1244 450 1179 Q394 1114 364 1018 Q334 922 334 794 L334 663 Z M642 732 Q642 780 673 812.5 Q704 845 762 845 Q821 845 851.5 812.5 Q882 780 882 732 Q882 685 851.5 653 Q821 621 762 621 Q704 621 673 653 Q642 685 642 732 Z " />
<glyph glyph-name="uni02AA" unicode="&#x2aa;" horiz-adv-x="1325" d="M176 1536 L368 1536 L368 304 Q441 251 513.5 217.5 Q586 184 653.5 165.5 Q721 147 780.5 140.5 Q840 134 886 134 Q1012 134 1077.5 177.5 Q1143 221 1143 288 Q1143 322 1130.5 349 Q1118 376 1086.5 398 Q1055 420 1002 438.5 Q949 457 867 473 Q769 493 692 519.5 Q615 546 561.5 583 Q508 620 479.5 669.5 Q451 719 451 785 Q451 849 481 906.5 Q511 964 567 1007.5 Q623 1051 702.5 1076.5 Q782 1102 880 1102 Q984 1102 1066.5 1075.5 Q1149 1049 1206 1003 Q1263 957 1293 895.5 Q1323 834 1323 764 L1132 764 Q1132 797 1115.5 830 Q1099 863 1067 889 Q1035 915 988 931.5 Q941 948 880 948 Q816 948 771 934.5 Q726 921 697 899 Q668 877 654.5 848.5 Q641 820 641 791 Q641 759 654.5 735 Q668 711 699.5 691.5 Q731 672 782 656.5 Q833 641 908 626 Q1013 606 1092.5 577.5 Q1172 549 1225.5 510 Q1279 471 1306 419.5 Q1333 368 1333 302 Q1333 230 1301 171 Q1269 112 1210.5 69.5 Q1152 27 1069.5 3.5 Q987 -20 886 -20 Q817 -20 744 -12 Q671 -4 598 14 L598 0 Q574 -7 535 -13.5 Q496 -20 446 -20 Q389 -20 339.5 -5.5 Q290 9 254 43 Q218 77 197 132.5 Q176 188 176 269 L176 1536 Z " />
<glyph glyph-name="uni02AD" unicode="&#x2ad;" horiz-adv-x="1057" d="M102 581 L954 581 L954 0 L808 0 L808 462 L249 462 L249 0 L102 0 L102 581 Z M102 1455 L954 1455 L954 874 L808 874 L808 1336 L249 1336 L249 874 L102 874 L102 1455 Z " />
<glyph glyph-name="uni02AF" unicode="&#x2af;" horiz-adv-x="1435" d="M283 590 L282 590 L282 801 Q282 892 238 929.5 Q194 967 111 967 Q94 967 74 965.5 Q54 964 40 961 L38 1090 Q62 1095 92 1098.5 Q122 1102 151 1102 Q219 1102 278 1082.5 Q337 1063 380.5 1024.5 Q424 986 449 930 Q474 874 474 801 L474 440 Q474 350 492.5 291.5 Q511 233 542 199 Q573 165 613.5 152 Q654 139 698 139 Q765 139 816.5 155.5 Q868 172 905.5 201 Q943 230 968 271 Q993 312 1006 360 L1006 1082 L1198 1082 L1198 -136 Q1198 -227 1242 -264.5 Q1286 -302 1369 -302 Q1386 -302 1406 -300.5 Q1426 -299 1440 -296 L1442 -425 Q1418 -430 1387.5 -433.5 Q1357 -437 1328 -437 Q1261 -437 1202 -417.5 Q1143 -398 1099.5 -359.5 Q1056 -321 1031 -265 Q1006 -209 1006 -136 L1006 139 Q952 64 867 22 Q782 -20 663 -20 Q577 -20 506.5 6 Q436 32 386.5 88 Q337 144 310 231.5 Q283 319 283 442 L283 590 Z " />
<glyph glyph-name="uni02B5" unicode="&#x2b5;" horiz-adv-x="682" d="M49 825 Q72 814 97.5 807.5 Q123 801 153 801 Q214 801 255.5 829 Q297 857 319 906 L319 1451 L490 1451 L490 570 Q490 529 509 516 Q528 503 554 503 Q574 503 596 506 Q618 509 633 512 L633 350 Q594 340 557 335 Q520 330 482 330 Q435 330 403.5 346.5 Q372 363 353.5 393.5 Q335 424 327 466 Q319 508 319 559 L319 751 Q284 697 234 666.5 Q184 636 124 636 Q99 636 78.5 638.5 Q58 641 49 644 L49 825 Z " />
<glyph glyph-name="uni02B9" unicode="&#x2b9;" horiz-adv-x="382" d="M167 1562 L345 1562 L154 1205 L36 1205 L167 1562 Z " />
<glyph glyph-name="uni02BA" unicode="&#x2ba;" horiz-adv-x="682" >
<g transform="translate(2,0)" >
<path fill="black" d="M167 1562 L345 1562 L154 1205 L36 1205 L167 1562 Z " />
</g>
<g transform="translate(293,0)" >
<path fill="black" d="M167 1562 L345 1562 L154 1205 L36 1205 L167 1562 Z " />
</g>
</glyph>
<glyph glyph-name="uni02BB" unicode="&#x2bb;" horiz-adv-x="471" d="M92 1177 Q92 1225 104.5 1277.5 Q117 1330 140 1380.5 Q163 1431 196.5 1477.5 Q230 1524 272 1560 L379 1487 Q330 1416 304 1342 Q278 1268 278 1180 L278 994 L92 994 L92 1177 Z " />
<glyph glyph-name="uni02BC" unicode="&#x2bc;" horiz-adv-x="447" d="M65 1117 Q115 1184 141 1253.5 Q167 1323 167 1405 L167 1536 L351 1536 L351 1407 Q351 1362 339 1312 Q327 1262 303.5 1214 Q280 1166 247 1122 Q214 1078 172 1044 L65 1117 Z " />
<glyph glyph-name="uni02BD" unicode="&#x2bd;" horiz-adv-x="471" d="M272 994 Q230 1030 196.5 1076.5 Q163 1123 140 1174 Q117 1225 104.5 1277 Q92 1329 92 1377 L92 1560 L278 1560 L278 1374 Q278 1287 304 1213 Q330 1139 379 1068 L272 994 Z " />
<glyph glyph-name="uni02BE" unicode="&#x2be;" horiz-adv-x="327" d="M60 1205 Q105 1205 134.5 1234.5 Q164 1264 164 1309 Q164 1355 134.5 1385 Q105 1415 60 1415 L60 1506 Q103 1506 140.5 1491.5 Q178 1477 206 1450.5 Q234 1424 250.5 1388 Q267 1352 267 1309 Q267 1266 250.5 1230.5 Q234 1195 206 1169.5 Q178 1144 140.5 1130 Q103 1116 60 1116 L60 1205 Z " />
<glyph glyph-name="uni02BF" unicode="&#x2bf;" horiz-adv-x="327" d="M267 1116 Q225 1116 187 1130 Q149 1144 121 1169.5 Q93 1195 76.5 1230.5 Q60 1266 60 1309 Q60 1352 76.5 1388 Q93 1424 121 1450.5 Q149 1477 187 1491.5 Q225 1506 267 1506 L267 1415 Q222 1415 192.5 1385 Q163 1355 163 1309 Q163 1264 192.5 1234.5 Q222 1205 267 1205 L267 1116 Z " />
<glyph glyph-name="uni02C0" unicode="&#x2c0;" horiz-adv-x="833" d="M307 1026 L371 1026 Q439 1026 481 1051 Q523 1076 546 1117 Q569 1158 577 1209.5 Q585 1261 585 1313 L585 1406 Q585 1458 574.5 1503.5 Q564 1549 539.5 1583.5 Q515 1618 474 1638 Q433 1658 373 1658 Q286 1658 242 1618.5 Q198 1579 187 1515 L33 1515 Q36 1577 61.5 1630 Q87 1683 131.5 1722 Q176 1761 237.5 1783 Q299 1805 373 1805 Q468 1805 540 1773 Q612 1741 660.5 1686 Q709 1631 733.5 1558.5 Q758 1486 758 1406 L758 1313 Q758 1229 740.5 1159 Q723 1089 688.5 1035 Q654 981 601.5 944.5 Q549 908 479 893 L479 651 L307 651 L307 1026 Z " />
<glyph glyph-name="uni02C1" unicode="&#x2c1;" horiz-adv-x="833" d="M353 893 Q283 908 230.5 944.5 Q178 981 143.5 1035 Q109 1089 92 1159 Q75 1229 75 1313 L75 1406 Q75 1486 99.5 1558.5 Q124 1631 172 1686 Q220 1741 292 1773 Q364 1805 459 1805 Q533 1805 594.5 1783 Q656 1761 700.5 1722 Q745 1683 771 1630 Q797 1577 800 1515 L646 1515 Q635 1579 591 1618.5 Q547 1658 459 1658 Q399 1658 358 1638 Q317 1618 292.5 1583.5 Q268 1549 257.5 1503.5 Q247 1458 247 1406 L247 1313 Q247 1261 255 1209.5 Q263 1158 286.5 1117 Q310 1076 352 1051 Q394 1026 462 1026 L525 1026 L525 651 L353 651 L353 893 Z " />
<glyph glyph-name="uni02C2" unicode="&#x2c2;" horiz-adv-x="921" d="M68 1029 L853 1329 L853 1162 L342 981 L265 962 L342 942 L853 764 L853 596 L68 897 L68 1029 Z " />
<glyph glyph-name="uni02C3" unicode="&#x2c3;" horiz-adv-x="914" d="M57 764 L567 942 L644 962 L567 981 L57 1162 L57 1329 L841 1029 L841 897 L57 596 L57 764 Z " />
<glyph glyph-name="uni02C4" unicode="&#x2c4;" horiz-adv-x="884" d="M377 1310 L510 1310 L838 583 L672 583 L467 1043 L443 1133 L417 1043 L214 583 L48 583 L377 1310 Z " />
<glyph glyph-name="uni02C5" unicode="&#x2c5;" horiz-adv-x="890" d="M48 1310 L214 1310 L417 850 L443 760 L467 850 L672 1310 L838 1310 L510 583 L377 583 L48 1310 Z " />
<glyph glyph-name="circumflex" unicode="&#x2c6;" horiz-adv-x="1032" d="M183 1264 L449 1537 L565 1537 L834 1263 L834 1253 L673 1253 L507 1421 L341 1253 L183 1253 L183 1264 Z " />
<glyph glyph-name="caron" unicode="&#x2c7;" horiz-adv-x="977" d="M155 1526 L155 1536 L318 1536 L486 1367 L653 1536 L818 1536 L818 1526 L546 1252 L425 1252 L155 1526 Z " />
<glyph glyph-name="uni02C8" unicode="&#x2c8;" horiz-adv-x="280" d="M68 1151 L68 1559 L212 1559 L212 1151 L68 1151 Z " />
<glyph glyph-name="uni02C9" unicode="&#x2c9;" horiz-adv-x="1013" >
<g transform="translate(2,0)" >
<path fill="black" d="M160 1301 L160 1445 L871 1445 L871 1301 L160 1301 Z " />
</g>
</glyph>
<glyph glyph-name="uni02CA" unicode="&#x2ca;" horiz-adv-x="624" >
<g transform="translate(-46,0)" >
<path fill="black" d="M351 1536 L581 1536 L295 1242 L137 1242 L351 1536 Z " />
</g>
</glyph>
<glyph glyph-name="uni02CB" unicode="&#x2cb;" horiz-adv-x="619" >
<g transform="translate(1,0)" >
<path fill="black" d="M353 1242 L76 1536 L306 1536 L520 1242 L353 1242 Z " />
</g>
</glyph>
<glyph glyph-name="uni02CC" unicode="&#x2cc;" horiz-adv-x="280" >
<g transform="translate(0,-1643)" >
<path fill="black" d="M68 1151 L68 1559 L212 1559 L212 1151 L68 1151 Z " />
</g>
</glyph>
<glyph glyph-name="uni02CD" unicode="&#x2cd;" horiz-adv-x="894" >
<g transform="translate(-64,-1600)" >
<path fill="black" d="M160 1301 L160 1445 L871 1445 L871 1301 L160 1301 Z " />
</g>
</glyph>
<glyph glyph-name="uni02CE" unicode="&#x2ce;" horiz-adv-x="619" >
<g transform="translate(1,-1601)" >
<path fill="black" d="M353 1242 L76 1536 L306 1536 L520 1242 L353 1242 Z " />
</g>
</glyph>
<glyph glyph-name="uni02CF" unicode="&#x2cf;" horiz-adv-x="624" >
<g transform="translate(-46,-1601)" >
<path fill="black" d="M351 1536 L581 1536 L295 1242 L137 1242 L351 1536 Z " />
</g>
</glyph>
<glyph glyph-name="uni02D0" unicode="&#x2d0;" horiz-adv-x="484" d="M104 0 L231 214 L251 214 L380 0 L104 0 Z M104 1081 L380 1081 L251 867 L231 867 L104 1081 Z " />
<glyph glyph-name="uni02D1" unicode="&#x2d1;" horiz-adv-x="484" d="M104 1081 L380 1081 L251 867 L231 867 L104 1081 Z " />
<glyph glyph-name="uni02D2" unicode="&#x2d2;" horiz-adv-x="327" >
<g transform="translate(2,-984)" >
<path fill="black" d="M60 1205 Q105 1205 134.5 1234.5 Q164 1264 164 1309 Q164 1355 134.5 1385 Q105 1415 60 1415 L60 1506 Q103 1506 140.5 1491.5 Q178 1477 206 1450.5 Q234 1424 250.5 1388 Q267 1352 267 1309 Q267 1266 250.5 1230.5 Q234 1195 206 1169.5 Q178 1144 140.5 1130 Q103 1116 60 1116 L60 1205 Z " />
</g>
</glyph>
<glyph glyph-name="uni02D3" unicode="&#x2d3;" horiz-adv-x="327" d="M267 132 Q225 132 187 146 Q149 160 121 185.5 Q93 211 76.5 246.5 Q60 282 60 325 Q60 368 76.5 404 Q93 440 121 466.5 Q149 493 187 507.5 Q225 522 267 522 L267 432 Q222 432 192.5 401.5 Q163 371 163 325 Q163 280 192.5 251 Q222 222 267 222 L267 132 Z " />
<glyph glyph-name="uni02D5" unicode="&#x2d5;" horiz-adv-x="629" d="M243 402 L92 402 L92 537 L537 537 L537 402 L386 402 L386 171 L243 171 L243 402 Z " />
<glyph glyph-name="uni02D6" unicode="&#x2d6;" horiz-adv-x="629" d="M92 419 L243 419 L243 552 L386 552 L386 419 L537 419 L537 284 L386 284 L386 151 L243 151 L243 284 L92 284 L92 419 Z " />
<glyph glyph-name="uni02D7" unicode="&#x2d7;" horiz-adv-x="624" d="M68 419 L556 419 L556 284 L68 284 L68 419 Z " />
<glyph glyph-name="breve" unicode="&#x2d8;" horiz-adv-x="974" d="M299 1495 Q299 1466 308.5 1439.5 Q318 1413 339 1392.5 Q360 1372 393.5 1360 Q427 1348 475 1348 Q523 1348 556.5 1360 Q590 1372 611 1392.5 Q632 1413 642 1439.5 Q652 1466 652 1495 L807 1495 Q807 1436 784 1387 Q761 1338 718 1302.5 Q675 1267 613.5 1247.5 Q552 1228 475 1228 Q398 1228 336.5 1247.5 Q275 1267 232 1302.5 Q189 1338 166 1387 Q143 1436 143 1495 L299 1495 Z " />
<glyph glyph-name="dotaccent" unicode="&#x2d9;" horiz-adv-x="547" d="M158 1367 Q158 1412 187.5 1443.5 Q217 1475 273 1475 Q328 1475 358 1443.5 Q388 1412 388 1367 Q388 1322 358 1291.5 Q328 1261 273 1261 Q217 1261 187.5 1291.5 Q158 1322 158 1367 Z " />
<glyph glyph-name="ring" unicode="&#x2da;" horiz-adv-x="748" d="M136 1409 Q136 1453 153.5 1491 Q171 1529 202 1557 Q233 1585 275.5 1601.5 Q318 1618 367 1618 Q416 1618 458.5 1601.5 Q501 1585 532 1557 Q563 1529 580.5 1491 Q598 1453 598 1409 Q598 1366 580.5 1328.5 Q563 1291 532 1263.5 Q501 1236 458.5 1220.5 Q416 1205 367 1205 Q318 1205 275.5 1220.5 Q233 1236 202 1263.5 Q171 1291 153.5 1328.5 Q136 1366 136 1409 Z M239 1409 Q239 1387 248.5 1366.5 Q258 1346 275 1330 Q292 1314 315.5 1304 Q339 1294 367 1294 Q396 1294 419 1303.5 Q442 1313 459 1329 Q476 1345 485 1366 Q494 1387 494 1409 Q494 1433 485 1454.5 Q476 1476 459 1492.5 Q442 1509 419 1518.5 Q396 1528 367 1528 Q339 1528 315.5 1518.5 Q292 1509 275 1492.5 Q258 1476 248.5 1454.5 Q239 1433 239 1409 Z " />
<glyph glyph-name="ogonek" unicode="&#x2db;" horiz-adv-x="604" d="M434 -391 Q408 -406 368 -420.5 Q328 -435 265 -435 Q222 -435 185 -422.5 Q148 -410 120.5 -386 Q93 -362 77.5 -326 Q62 -290 62 -243 Q62 -162 126 -84 Q190 -6 328 58 L411 0 Q375 -24 342 -49.5 Q309 -75 283 -102.5 Q257 -130 241.5 -159.5 Q226 -189 226 -221 Q226 -255 244.5 -274.5 Q263 -294 311 -294 Q347 -294 374 -284.5 Q401 -275 418 -267 L434 -391 Z " />
<glyph glyph-name="tilde" unicode="&#x2dc;" horiz-adv-x="1035" d="M135 1247 Q135 1302 152.5 1348 Q170 1394 200 1427 Q230 1460 271.5 1478 Q313 1496 361 1496 Q408 1496 443.5 1481 Q479 1466 511.5 1448.5 Q544 1431 577 1416 Q610 1401 653 1401 Q676 1401 696 1409.5 Q716 1418 730.5 1433 Q745 1448 753.5 1468.5 Q762 1489 762 1513 L891 1501 Q891 1446 873 1401 Q855 1356 824.5 1324.5 Q794 1293 752.5 1275.5 Q711 1258 663 1258 Q608 1258 572.5 1272.5 Q537 1287 507 1305 Q477 1323 447 1337.5 Q417 1352 372 1352 Q349 1352 329 1343.5 Q309 1335 294.5 1320 Q280 1305 271.5 1284.5 Q263 1264 263 1241 L135 1247 Z " />
<glyph glyph-name="hungarumlaut" unicode="&#x2dd;" horiz-adv-x="843" d="M667 1535 L878 1535 L587 1232 L413 1232 L667 1535 Z M304 1535 L506 1535 L268 1232 L112 1232 L304 1535 Z " />
<glyph glyph-name="uni02DE" unicode="&#x2de;" horiz-adv-x="481" d="M-209 724 L183 795 Q191 732 198 684 Q205 636 218.5 604 Q232 572 255.5 556 Q279 540 319 540 Q334 540 349.5 541 Q365 542 380 544 L412 386 Q381 372 345.5 363 Q310 354 274 354 Q213 354 171.5 371 Q130 388 103 419.5 Q76 451 59.5 495 Q43 539 30 593 L-209 551 L-209 724 Z " />
</font>
</svg>
