<?xml version="1.0" encoding="UTF-8"?>
<svg xmlns="http://www.w3.org/2000/svg" xmlns:xlink="http://www.w3.org/1999/xlink" version="1.2" >
<font id="Gotho-8ExWd100Th" horiz-adv-x="935">
<font-face  font-family="Gotho" units-per-em="2048" ascent="2146" descent="-555" font-style="normal" font-weight="100" font-stretch="extra-expanded" cap-height="1456" x-height="1082" underline-position="-100" underline-thickness="100" />
<missing-glyph horiz-adv-x="1090" d="M120 1456 L970 1456 L970 0 L120 0 L120 1456 Z M905 83 L905 1373 L577 728 L905 83 Z M507 728 L185 1359 L185 97 L507 728 Z M233 54 L851 54 L542 660 L233 54 Z M542 796 L851 1402 L233 1402 L542 796 Z " />
<glyph glyph-name="uni0000" horiz-adv-x="0" />
<glyph glyph-name="uni000D" unicode="&#xd;" horiz-adv-x="587" />
<glyph glyph-name="space" unicode="&#x20;" horiz-adv-x="587" />
<glyph glyph-name="uni0002" unicode="&#x2;" horiz-adv-x="0" />
<glyph glyph-name="uni0009" unicode="&#x9;" horiz-adv-x="587" />
<glyph glyph-name="exclam" unicode="&#x21;" horiz-adv-x="466" d="M199 401 L200 1456 L254 1456 L255 401 L199 401 Z M175 49 Q175 72 193 88.5 Q211 105 237 105 Q263 105 281.5 88.5 Q300 72 300 49 Q300 26 281.5 10 Q263 -6 237 -6 Q211 -6 193 10 Q175 26 175 49 Z " />
<glyph glyph-name="quotedbl" unicode="&#x22;" horiz-adv-x="615" d="M187 1390 L187 1536 L247 1536 L247 1393 L236 1122 L181 1122 L187 1390 Z M423 1390 L423 1536 L483 1536 L483 1393 L472 1122 L417 1122 L423 1390 Z " />
<glyph glyph-name="numbersign" unicode="&#x23;" horiz-adv-x="1334" d="M384 410 L56 410 L56 462 L395 462 L509 986 L147 986 L147 1040 L521 1040 L611 1456 L671 1456 L581 1040 L1026 1040 L1117 1456 L1177 1456 L1086 1040 L1395 1040 L1395 986 L1075 986 L961 462 L1305 462 L1305 410 L949 410 L860 0 L799 0 L889 410 L445 410 L356 0 L295 0 L384 410 Z M900 462 L1014 986 L569 986 L456 462 L900 462 Z " />
<glyph glyph-name="dollar" unicode="&#x24;" horiz-adv-x="1343" d="M682 -21 Q582 -19 485.5 4.5 Q389 28 313.5 78.5 Q238 129 192 210 Q146 291 146 409 L201 409 Q201 301 247 228.5 Q293 156 365.5 112.5 Q438 69 527.5 50.5 Q617 32 704 32 Q808 32 889.5 58 Q971 84 1027 127.5 Q1083 171 1113 227.5 Q1143 284 1143 344 Q1143 409 1121 459 Q1099 509 1047 550 Q995 591 908 627 Q821 663 691 700 Q577 733 486.5 767 Q396 801 332.5 847.5 Q269 894 235.5 957 Q202 1020 202 1110 Q202 1191 234.5 1257 Q267 1323 328 1371 Q389 1419 475 1446.5 Q561 1474 667 1477 L667 1663 L726 1663 L726 1476 Q834 1472 920 1442 Q1006 1412 1066 1357.5 Q1126 1303 1157.5 1225 Q1189 1147 1189 1047 L1134 1047 Q1134 1128 1105.5 1197 Q1077 1266 1021 1316.5 Q965 1367 883 1395.5 Q801 1424 693 1424 Q581 1424 499 1397.5 Q417 1371 363 1327.5 Q309 1284 283 1227.5 Q257 1171 257 1112 Q257 1051 274 1001.5 Q291 952 340 910 Q389 868 477.5 830 Q566 792 708 752 Q818 721 908 687.5 Q998 654 1062.5 608 Q1127 562 1162.5 499 Q1198 436 1198 346 Q1198 265 1165.5 199 Q1133 133 1073 86 Q1013 39 928.5 11.5 Q844 -16 741 -20 L741 -208 L682 -208 L682 -21 Z " />
<glyph glyph-name="percent" unicode="&#x25;" horiz-adv-x="1834" d="M454 162 L1308 1300 L1357 1269 L504 131 L454 162 Z M1048 355 Q1048 417 1071.5 471.5 Q1095 526 1137.5 567 Q1180 608 1239.5 632 Q1299 656 1372 656 Q1444 656 1504 632 Q1564 608 1606.5 567 Q1649 526 1672.5 471.5 Q1696 417 1696 355 L1696 278 Q1696 217 1672.5 162.5 Q1649 108 1607 67.5 Q1565 27 1506 3 Q1447 -21 1375 -21 Q1301 -21 1240.5 3 Q1180 27 1137.5 67.5 Q1095 108 1071.5 162.5 Q1048 217 1048 278 L1048 355 Z M137 1176 Q137 1238 160.5 1292.5 Q184 1347 226.5 1388 Q269 1429 328.5 1453 Q388 1477 461 1477 Q533 1477 593 1453 Q653 1429 695.5 1388 Q738 1347 761.5 1292.5 Q785 1238 785 1176 L785 1099 Q785 1038 761.5 983.5 Q738 929 696 888.5 Q654 848 595 824 Q536 800 464 800 Q390 800 329.5 824 Q269 848 226.5 888.5 Q184 929 160.5 983.5 Q137 1038 137 1099 L137 1176 Z M1108 278 Q1108 233 1124 189 Q1140 145 1173 110.5 Q1206 76 1256.5 55 Q1307 34 1375 34 Q1441 34 1490.5 55 Q1540 76 1572 110.5 Q1604 145 1620 188.5 Q1636 232 1636 278 L1636 355 Q1636 401 1620 445.5 Q1604 490 1571 524.5 Q1538 559 1488.5 580 Q1439 601 1372 601 Q1306 601 1256.5 580 Q1207 559 1174 524.5 Q1141 490 1124.5 445.5 Q1108 401 1108 355 L1108 278 Z M197 1099 Q197 1054 213 1010 Q229 966 262 931.5 Q295 897 345.5 876 Q396 855 464 855 Q530 855 579.5 876 Q629 897 661 931.5 Q693 966 709 1009.5 Q725 1053 725 1099 L725 1176 Q725 1222 709 1266.5 Q693 1311 660 1345.5 Q627 1380 577.5 1401 Q528 1422 461 1422 Q395 1422 345.5 1401 Q296 1380 263 1345.5 Q230 1311 213.5 1266.5 Q197 1222 197 1176 L197 1099 Z " />
<glyph glyph-name="ampersand" unicode="&#x26;" horiz-adv-x="1494" d="M507 804 Q412 902 361.5 987.5 Q311 1073 311 1167 Q311 1235 336 1292 Q361 1349 408 1390 Q455 1431 522 1454 Q589 1477 673 1477 Q752 1477 813 1456 Q874 1435 915 1399 Q956 1363 977.5 1315 Q999 1267 999 1213 Q999 1167 975.5 1123.5 Q952 1080 917 1042 Q882 1004 842 972.5 Q802 941 769 918 L588 794 L1162 252 Q1229 327 1267.5 423 Q1306 519 1306 632 L1364 632 Q1364 501 1320.5 398.5 Q1277 296 1204 213 L1429 0 L1361 0 L1170 179 Q1120 136 1063.5 99.5 Q1007 63 943 36.5 Q879 10 808 -5 Q737 -20 657 -20 Q537 -20 441 6 Q345 32 278 80.5 Q211 129 175 198 Q139 267 139 352 Q139 414 163.5 469.5 Q188 525 229.5 575.5 Q271 626 326 672.5 Q381 719 442 762 L507 804 Z M546 765 L481 721 Q389 658 332.5 605 Q276 552 245.5 506.5 Q215 461 204.5 423 Q194 385 194 352 Q194 290 222 232.5 Q250 175 307 131 Q364 87 451.5 60.5 Q539 34 657 34 Q792 34 914.5 82 Q1037 130 1129 218 L587 726 L546 765 Z M745 960 Q783 985 818.5 1014 Q854 1043 881 1075 Q908 1107 924 1141.5 Q940 1176 940 1213 Q940 1254 923 1292 Q906 1330 872 1359 Q838 1388 788.5 1405.5 Q739 1423 673 1423 Q598 1423 541 1402.5 Q484 1382 445.5 1347.5 Q407 1313 387 1267 Q367 1221 367 1169 Q367 1093 410 1008.5 Q453 924 549 832 L745 960 Z " />
<glyph glyph-name="quotesingle" unicode="&#x27;" horiz-adv-x="407" d="M177 1365 L177 1536 L236 1536 L236 1367 L220 1122 L166 1122 L177 1365 Z " />
<glyph glyph-name="parenleft" unicode="&#x28;" horiz-adv-x="722" d="M670 -470 Q569 -417 479.5 -317 Q390 -217 323.5 -81.5 Q257 54 218 219 Q179 384 179 566 L179 586 Q179 759 218 923 Q257 1087 323.5 1225 Q390 1363 479.5 1466.5 Q569 1570 670 1623 L692 1580 Q602 1531 519 1431 Q436 1331 372.5 1198 Q309 1065 271.5 908.5 Q234 752 234 590 L234 564 Q234 402 271.5 245.5 Q309 89 372.5 -44 Q436 -177 519 -277.5 Q602 -378 692 -427 L670 -470 Z " />
<glyph glyph-name="parenright" unicode="&#x29;" horiz-adv-x="742" d="M33 -427 Q123 -378 206 -277.5 Q289 -177 352 -44 Q415 89 452.5 245.5 Q490 402 490 564 L490 590 Q490 752 452.5 908.5 Q415 1065 352 1198 Q289 1331 206.5 1431 Q124 1531 33 1580 L54 1623 Q155 1570 244.5 1466.5 Q334 1363 401 1225 Q468 1087 507 923 Q546 759 546 586 L546 566 Q546 384 507 219 Q468 54 401 -81.5 Q334 -217 244.5 -317 Q155 -417 54 -470 L33 -427 Z " />
<glyph glyph-name="asterisk" unicode="&#x2a;" horiz-adv-x="1025" d="M476 1017 L36 1141 L55 1195 L494 1062 L496 1456 L556 1456 L548 1061 L975 1204 L997 1151 L561 1014 L863 697 L813 664 L518 986 L241 661 L193 693 L476 1017 Z " />
<glyph glyph-name="plus" unicode="&#x2b;" horiz-adv-x="1381" d="M87 702 L646 702 L646 1206 L702 1206 L702 702 L1285 702 L1285 649 L702 649 L702 146 L646 146 L646 649 L87 649 L87 702 Z " />
<glyph glyph-name="comma" unicode="&#x2c;" horiz-adv-x="458" d="M115 -223 Q142 -194 162 -166 Q182 -138 195 -108.5 Q208 -79 214.5 -46.5 Q221 -14 221 25 L221 159 L276 159 L276 27 Q276 -66 242 -135 Q208 -204 154 -255 L115 -223 Z " />
<glyph glyph-name="hyphen" unicode="&#x2d;" horiz-adv-x="732" d="M75 639 L75 693 L638 693 L638 639 L75 639 Z " />
<glyph glyph-name="period" unicode="&#x2e;" horiz-adv-x="519" d="M177 49 Q177 72 195 88.5 Q213 105 239 105 Q265 105 283.5 88.5 Q302 72 302 49 Q302 26 283.5 10 Q265 -6 239 -6 Q213 -6 195 10 Q177 26 177 49 Z " />
<glyph glyph-name="slash" unicode="&#x2f;" horiz-adv-x="934" d="M52 -125 L782 1456 L845 1456 L115 -125 L52 -125 Z " />
<glyph glyph-name="zero" unicode="0" horiz-adv-x="1344" d="M151 862 Q151 1005 185 1118.5 Q219 1232 285 1312 Q351 1392 448 1434.5 Q545 1477 671 1477 Q797 1477 894.5 1434.5 Q992 1392 1058.5 1312 Q1125 1232 1159 1118.5 Q1193 1005 1193 862 L1193 594 Q1193 452 1159.5 338 Q1126 224 1060.5 144.5 Q995 65 898 22.5 Q801 -20 674 -20 Q548 -20 451 22.5 Q354 65 287 144.5 Q220 224 185.5 338 Q151 452 151 594 L151 862 Z M206 596 Q206 473 235 370 Q264 267 322 192 Q380 117 468 75.5 Q556 34 674 34 Q792 34 879.5 75.5 Q967 117 1024.5 192 Q1082 267 1110 370 Q1138 473 1138 596 L1138 862 Q1138 987 1109.5 1090.5 Q1081 1194 1023 1268 Q965 1342 877.5 1382.5 Q790 1423 671 1423 Q553 1423 466 1382.5 Q379 1342 321 1268 Q263 1194 234.5 1090.5 Q206 987 206 862 L206 596 Z " />
<glyph glyph-name="one" unicode="1" horiz-adv-x="1343" d="M731 0 L731 1388 L226 1231 L226 1290 L774 1460 L786 1460 L786 0 L731 0 Z " />
<glyph glyph-name="two" unicode="2" horiz-adv-x="1343" d="M166 0 L166 54 L758 604 Q841 681 900.5 747.5 Q960 814 998.5 873 Q1037 932 1055.5 984.5 Q1074 1037 1074 1085 Q1074 1162 1046.5 1224.5 Q1019 1287 964 1331 Q909 1375 828.5 1398.5 Q748 1422 641 1422 Q547 1422 470.5 1393.5 Q394 1365 340 1314.5 Q286 1264 256.5 1195 Q227 1126 227 1045 L172 1045 Q172 1134 204 1212 Q236 1290 296.5 1349 Q357 1408 444 1442 Q531 1476 641 1476 Q753 1476 843.5 1451 Q934 1426 997.5 1376.5 Q1061 1327 1095.5 1254 Q1130 1181 1130 1085 Q1130 1018 1099 949 Q1068 880 1017 811.5 Q966 743 901 676 Q836 609 768 546 L240 54 L1225 54 L1225 0 L166 0 Z " />
<glyph glyph-name="three" unicode="3" horiz-adv-x="1342" d="M179 405 Q179 324 218 256 Q257 188 325.5 138.5 Q394 89 487 61.5 Q580 34 689 34 Q800 34 886 58 Q972 82 1031 127 Q1090 172 1121 236.5 Q1152 301 1152 382 Q1152 471 1113.5 534 Q1075 597 1006 637 Q937 677 842 695.5 Q747 714 634 714 L502 714 L502 770 L634 770 Q750 770 839.5 795.5 Q929 821 990 864.5 Q1051 908 1082 965 Q1113 1022 1113 1085 Q1113 1154 1087.5 1215 Q1062 1276 1009 1322 Q956 1368 873.5 1395 Q791 1422 677 1422 Q581 1422 497.5 1398 Q414 1374 351.5 1329 Q289 1284 253.5 1219.5 Q218 1155 218 1074 L163 1074 Q163 1167 204 1241.5 Q245 1316 315.5 1368 Q386 1420 479.5 1448 Q573 1476 677 1476 Q789 1476 880 1448.5 Q971 1421 1035 1370 Q1099 1319 1133.5 1246 Q1168 1173 1168 1081 Q1168 1024 1145 971.5 Q1122 919 1079.5 875 Q1037 831 976.5 798 Q916 765 841 745 Q926 729 994 697.5 Q1062 666 1109 620.5 Q1156 575 1181.5 516.5 Q1207 458 1207 386 Q1207 289 1168.5 213.5 Q1130 138 1061 86 Q992 34 897 7 Q802 -20 689 -20 Q591 -20 490.5 5 Q390 30 308.5 82 Q227 134 175.5 214.5 Q124 295 124 405 L179 405 Z " />
<glyph glyph-name="four" unicode="4" horiz-adv-x="1343" d="M101 427 L938 1456 L1006 1456 L1006 451 L1312 451 L1312 397 L1006 397 L1006 0 L951 0 L951 397 L101 397 L101 427 Z M951 451 L951 1400 L846 1253 L192 451 L951 451 Z " />
<glyph glyph-name="five" unicode="5" horiz-adv-x="1343" d="M277 383 Q296 212 413 123 Q530 34 737 34 Q955 34 1062 143 Q1169 252 1169 462 Q1169 548 1139 621 Q1109 694 1051.5 747.5 Q994 801 909 831.5 Q824 862 714 862 Q644 862 586.5 854 Q529 846 481.5 831 Q434 816 394.5 794.5 Q355 773 320 746 L279 762 L360 1456 L1209 1456 L1209 1403 L411 1403 L339 819 Q360 834 397.5 851.5 Q435 869 483.5 883 Q532 897 589.5 906.5 Q647 916 709 916 Q822 916 916.5 885.5 Q1011 855 1079.5 796.5 Q1148 738 1186.5 654.5 Q1225 571 1225 464 Q1225 359 1198 270.5 Q1171 182 1112.5 117.5 Q1054 53 961.5 16.5 Q869 -20 737 -20 Q635 -20 545 4.5 Q455 29 386 79 Q317 129 273.5 205 Q230 281 220 383 L277 383 Z " />
<glyph glyph-name="six" unicode="6" horiz-adv-x="1343" d="M179 740 Q179 937 226 1076.5 Q273 1216 353 1305 Q433 1394 539 1435 Q645 1476 764 1476 Q800 1476 839.5 1473 Q879 1470 918 1463.5 Q957 1457 993 1447.5 Q1029 1438 1059 1424 L1037 1371 Q1003 1383 972 1392.5 Q941 1402 909.5 1408.5 Q878 1415 842.5 1418.5 Q807 1422 763 1422 Q657 1422 561 1383 Q465 1344 392.5 1261.5 Q320 1179 277 1050 Q234 921 234 741 L234 715 Q263 766 309.5 810.5 Q356 855 417 887.5 Q478 920 552 938.5 Q626 957 709 957 Q829 957 923 921 Q1017 885 1081.5 821.5 Q1146 758 1179.5 670.5 Q1213 583 1213 480 Q1213 374 1177 282.5 Q1141 191 1076 123.5 Q1011 56 921 17.5 Q831 -21 723 -21 Q606 -21 506.5 15 Q407 51 334.5 117.5 Q262 184 220.5 279 Q179 374 179 492 L179 740 Z M234 493 Q234 389 270 304 Q306 219 371 158.5 Q436 98 525.5 65 Q615 32 723 32 Q822 32 902.5 69 Q983 106 1040 167.5 Q1097 229 1127.5 310.5 Q1158 392 1158 480 Q1158 569 1130 646 Q1102 723 1045 780 Q988 837 902.5 870 Q817 903 702 903 Q612 903 527.5 876 Q443 849 378 801.5 Q313 754 274 691 Q235 628 235 556 L234 556 L234 493 Z " />
<glyph glyph-name="seven" unicode="7" horiz-adv-x="1342" d="M474 91 Q494 295 551 477.5 Q608 660 694.5 822.5 Q781 985 893 1129.5 Q1005 1274 1135 1402 L92 1402 L92 1456 L1204 1456 L1204 1402 Q1098 1295 987.5 1163 Q877 1031 783 869.5 Q689 708 620.5 514.5 Q552 321 529 91 L520 0 L465 0 L474 91 Z " />
<glyph glyph-name="eight" unicode="8" horiz-adv-x="1343" d="M119 379 Q119 447 146 505.5 Q173 564 222 611.5 Q271 659 339.5 693 Q408 727 490 745 Q418 763 359 795.5 Q300 828 258 871.5 Q216 915 192.5 969.5 Q169 1024 169 1086 Q169 1181 207.5 1253.5 Q246 1326 313.5 1375.5 Q381 1425 473 1450.5 Q565 1476 672 1476 Q777 1476 870 1450.5 Q963 1425 1032.5 1375.5 Q1102 1326 1142 1253.5 Q1182 1181 1182 1086 Q1182 1024 1158 969.5 Q1134 915 1091 871.5 Q1048 828 988.5 795.5 Q929 763 858 745 Q940 727 1008.5 693 Q1077 659 1127 612 Q1177 565 1205 506 Q1233 447 1233 379 Q1233 280 1189.5 205 Q1146 130 1070.5 80 Q995 30 894 5 Q793 -20 677 -20 Q559 -20 457 5 Q355 30 280 80 Q205 130 162 205 Q119 280 119 379 Z M174 374 Q174 292 212.5 228.5 Q251 165 319 121.5 Q387 78 479 56 Q571 34 677 34 Q781 34 872 56 Q963 78 1030.5 121.5 Q1098 165 1137 228.5 Q1176 292 1176 374 Q1176 453 1136.5 516.5 Q1097 580 1029 625 Q961 670 870 694 Q779 718 675 718 Q569 718 477.5 694 Q386 670 318.5 625 Q251 580 212.5 516.5 Q174 453 174 374 Z M224 1091 Q224 1017 258 958 Q292 899 352.5 857.5 Q413 816 495.5 794 Q578 772 675 772 Q769 772 851 794 Q933 816 994.5 857.5 Q1056 899 1091.5 958 Q1127 1017 1127 1091 Q1127 1164 1091 1224.5 Q1055 1285 993.5 1329 Q932 1373 849 1397.5 Q766 1422 672 1422 Q576 1422 494 1399.5 Q412 1377 352 1334 Q292 1291 258 1229.5 Q224 1168 224 1091 Z " />
<glyph glyph-name="nine" unicode="9" horiz-adv-x="1343" d="M280 97 Q318 82 353.5 70 Q389 58 426.5 50 Q464 42 504.5 38 Q545 34 592 34 Q709 34 804.5 74.5 Q900 115 967.5 190.5 Q1035 266 1072 374.5 Q1109 483 1109 618 L1109 730 Q1078 670 1029.5 622 Q981 574 918.5 539.5 Q856 505 782 486.5 Q708 468 626 468 Q512 468 417.5 507.5 Q323 547 255.5 614.5 Q188 682 151 770.5 Q114 859 114 958 Q114 1064 152 1158 Q190 1252 259 1323 Q328 1394 424.5 1435.5 Q521 1477 637 1477 Q762 1477 860 1441 Q958 1405 1026 1333.5 Q1094 1262 1129.5 1154.5 Q1165 1047 1165 903 L1165 620 Q1165 468 1123.5 349 Q1082 230 1006.5 148 Q931 66 825 23 Q719 -20 591 -20 Q422 -20 259 44 L280 97 Z M1109 902 Q1109 1032 1077 1129.5 Q1045 1227 985 1292.5 Q925 1358 838 1390.5 Q751 1423 641 1423 Q535 1423 449.5 1383.5 Q364 1344 304 1279 Q244 1214 211.5 1130.5 Q179 1047 179 958 Q179 874 209 795 Q239 716 296.5 655.5 Q354 595 437 558 Q520 521 625 521 Q731 521 813.5 550.5 Q896 580 956 626 Q1016 672 1054 729 Q1092 786 1109 840 L1109 902 Z " />
<glyph glyph-name="colon" unicode="&#x3a;" horiz-adv-x="427" >
<g transform="translate(-35,0)" >
<path fill="black" d="M177 49 Q177 72 195 88.5 Q213 105 239 105 Q265 105 283.5 88.5 Q302 72 302 49 Q302 26 283.5 10 Q265 -6 239 -6 Q213 -6 195 10 Q177 26 177 49 Z " />
</g>
<g transform="translate(-23,962)" >
<path fill="black" d="M177 49 Q177 72 195 88.5 Q213 105 239 105 Q265 105 283.5 88.5 Q302 72 302 49 Q302 26 283.5 10 Q265 -6 239 -6 Q213 -6 195 10 Q177 26 177 49 Z " />
</g>
</glyph>
<glyph glyph-name="semicolon" unicode="&#x3b;" horiz-adv-x="432" >
<g transform="translate(-12,0)" >
<path fill="black" d="M115 -223 Q142 -194 162 -166 Q182 -138 195 -108.5 Q208 -79 214.5 -46.5 Q221 -14 221 25 L221 159 L276 159 L276 27 Q276 -66 242 -135 Q208 -204 154 -255 L115 -223 Z " />
</g>
<g transform="translate(-26,962)" >
<path fill="black" d="M177 49 Q177 72 195 88.5 Q213 105 239 105 Q265 105 283.5 88.5 Q302 72 302 49 Q302 26 283.5 10 Q265 -6 239 -6 Q213 -6 195 10 Q177 26 177 49 Z " />
</g>
</glyph>
<glyph glyph-name="less" unicode="&#x3c;" horiz-adv-x="1265" d="M99 691 L1105 1069 L1105 1011 L180 666 L1105 321 L1105 262 L99 641 L99 691 Z " />
<glyph glyph-name="equal" unicode="&#x3d;" horiz-adv-x="1372" >
<g transform="translate(-19,-285)" >
<path fill="black" d="M195 721 L195 775 L1196 775 L1196 721 L195 721 Z " />
</g>
<g transform="translate(-19,122)" >
<path fill="black" d="M195 721 L195 775 L1196 775 L1196 721 L195 721 Z " />
</g>
</glyph>
<glyph glyph-name="greater" unicode="&#x3e;" horiz-adv-x="1262" d="M135 324 L1051 668 L135 1013 L135 1072 L1137 694 L1137 644 L135 265 L135 324 Z " />
<glyph glyph-name="question" unicode="&#x3f;" horiz-adv-x="1066" d="M477 400 Q478 456 487.5 500.5 Q497 545 519 584.5 Q541 624 577 661.5 Q613 699 665 740 Q721 784 764.5 822 Q808 860 838 901.5 Q868 943 884 993 Q900 1043 900 1112 Q900 1179 878 1236 Q856 1293 812 1334.5 Q768 1376 702 1399.5 Q636 1423 548 1423 Q459 1423 389 1400.5 Q319 1378 270.5 1337 Q222 1296 196 1240 Q170 1184 168 1116 L113 1116 Q115 1202 150 1269 Q185 1336 244.5 1382 Q304 1428 382.5 1452 Q461 1476 548 1476 Q647 1476 723 1448 Q799 1420 850.5 1371 Q902 1322 928.5 1255 Q955 1188 955 1110 Q955 1044 940 989.5 Q925 935 893.5 887 Q862 839 812 794 Q762 749 691 701 Q602 641 567 563.5 Q532 486 532 400 L477 400 Z M447 49 Q447 72 465 88.5 Q483 105 509 105 Q535 105 553.5 88.5 Q572 72 572 49 Q572 26 553.5 10 Q535 -6 509 -6 Q483 -6 465 10 Q447 26 447 49 Z " />
<glyph glyph-name="at" unicode="&#x40;" horiz-adv-x="2287" d="M1517 -364 Q1479 -385 1427 -402 Q1375 -419 1317 -430 Q1259 -441 1200 -447 Q1141 -453 1088 -453 Q860 -453 681.5 -388.5 Q503 -324 382.5 -203 Q262 -82 203.5 90.5 Q145 263 156 478 Q167 692 247 864.5 Q327 1037 464 1158.5 Q601 1280 789 1345.5 Q977 1411 1204 1411 Q1453 1411 1631.5 1349 Q1810 1287 1922.5 1171.5 Q2035 1056 2084 891.5 Q2133 727 2123 523 Q2119 427 2091.5 330 Q2064 233 2010 155.5 Q1956 78 1874.5 29 Q1793 -20 1682 -20 Q1561 -20 1487 42.5 Q1413 105 1401 215 Q1335 98 1234 39 Q1133 -20 996 -20 Q914 -20 853 12.5 Q792 45 753 105 Q714 165 699.5 249 Q685 333 696 436 Q710 562 755 664 Q800 766 869 838 Q938 910 1027.5 949 Q1117 988 1220 988 Q1276 988 1318.5 979 Q1361 970 1395.5 954.5 Q1430 939 1459.5 919 Q1489 899 1518 878 L1459 293 Q1450 206 1473 155 Q1496 104 1533.5 77 Q1571 50 1613 42.5 Q1655 35 1684 35 Q1772 35 1839.5 72 Q1907 109 1954 174 Q2001 239 2028 328.5 Q2055 418 2061 523 Q2073 714 2029.5 868 Q1986 1022 1881.5 1130 Q1777 1238 1608 1296 Q1439 1354 1199 1354 Q1000 1354 826 1293 Q652 1232 520.5 1118 Q389 1004 308 842 Q227 680 215 478 Q204 292 257 132 Q310 -28 422 -145.5 Q534 -263 703 -330.5 Q872 -398 1093 -398 Q1146 -398 1200.5 -392.5 Q1255 -387 1307 -376.5 Q1359 -366 1405.5 -351 Q1452 -336 1489 -318 L1517 -364 Z M1455 848 Q1416 887 1357.5 910 Q1299 933 1215 933 Q1136 933 1060 903.5 Q984 874 921.5 813.5 Q859 753 814.5 659 Q770 565 753 436 Q742 352 751 279 Q760 206 789.5 151.5 Q819 97 869 65.5 Q919 34 990 34 Q1047 34 1104.5 46 Q1162 58 1216 92.5 Q1270 127 1318.5 188.5 Q1367 250 1406 349 L1455 848 Z " />
<glyph glyph-name="A" unicode="A" horiz-adv-x="1459" d="M693 1456 L765 1456 L1418 0 L1357 0 L1161 435 L297 435 L101 0 L40 0 L693 1456 Z M1137 489 L729 1397 L321 489 L1137 489 Z " />
<glyph glyph-name="B" unicode="B" horiz-adv-x="1479" d="M242 1456 L695 1456 Q827 1456 932.5 1434 Q1038 1412 1112.5 1366 Q1187 1320 1226.5 1249.5 Q1266 1179 1266 1083 Q1266 1019 1246.5 964 Q1227 909 1188.5 866 Q1150 823 1093 794 Q1036 765 962 753 Q1043 744 1113.5 713 Q1184 682 1236 634.5 Q1288 587 1317.5 527 Q1347 467 1347 401 Q1347 304 1307.5 229 Q1268 154 1197 103 Q1126 52 1027 26 Q928 0 809 0 L242 0 L242 1456 Z M809 54 Q921 54 1010.5 77.5 Q1100 101 1163 145 Q1226 189 1259.5 253.5 Q1293 318 1293 399 Q1293 462 1263.5 519.5 Q1234 577 1175 621.5 Q1116 666 1028 692.5 Q940 719 822 719 L297 719 L297 54 L809 54 Z M720 773 Q964 773 1087 849.5 Q1210 926 1210 1087 Q1210 1245 1080 1323.5 Q950 1402 695 1402 L297 1402 L297 773 L720 773 Z " />
<glyph glyph-name="C" unicode="C" horiz-adv-x="1593" d="M175 837 Q175 980 219.5 1097.5 Q264 1215 346 1299 Q428 1383 544 1429.5 Q660 1476 803 1476 Q934 1476 1042 1447 Q1150 1418 1231 1360.5 Q1312 1303 1362 1216 Q1412 1129 1425 1012 L1370 1012 Q1343 1213 1199.5 1317.5 Q1056 1422 803 1422 Q675 1422 569.5 1380.5 Q464 1339 388.5 1262.5 Q313 1186 271.5 1078.5 Q230 971 230 839 L230 619 Q230 487 271.5 379 Q313 271 389 194.5 Q465 118 570.5 76 Q676 34 804 34 Q926 34 1025 58.5 Q1124 83 1196 133.5 Q1268 184 1312.5 261.5 Q1357 339 1370 446 L1425 446 Q1412 328 1361.5 240.5 Q1311 153 1230.5 95 Q1150 37 1042 8.5 Q934 -20 804 -20 Q661 -20 544.5 26.5 Q428 73 346 157 Q264 241 219.5 359 Q175 477 175 619 L175 837 Z " />
<glyph glyph-name="D" unicode="D" horiz-adv-x="1607" d="M242 1456 L725 1456 Q879 1456 1010.5 1409.5 Q1142 1363 1238 1278.5 Q1334 1194 1388.5 1076.5 Q1443 959 1443 817 L1443 639 Q1443 497 1388.5 379.5 Q1334 262 1238 177.5 Q1142 93 1010.5 46.5 Q879 0 726 0 L297 0 L299 54 L726 54 Q867 54 988 97.5 Q1109 141 1198 218.5 Q1287 296 1337.5 403.5 Q1388 511 1388 639 L1388 820 Q1388 947 1337.5 1054 Q1287 1161 1198 1238 Q1109 1315 987.5 1358.5 Q866 1402 725 1402 L297 1402 L297 0 L242 0 L242 1456 Z " />
<glyph glyph-name="E" unicode="E" horiz-adv-x="1399" d="M242 1456 L1303 1456 L1303 1402 L297 1402 L297 776 L1180 776 L1180 722 L297 722 L297 54 L1302 54 L1302 0 L242 0 L242 1456 Z " />
<glyph glyph-name="F" unicode="F" horiz-adv-x="1409" d="M242 1456 L1324 1456 L1324 1402 L297 1402 L297 772 L1202 772 L1202 716 L297 716 L297 0 L242 0 L242 1456 Z " />
<glyph glyph-name="G" unicode="G" horiz-adv-x="1688" d="M205 858 Q205 996 253 1109.5 Q301 1223 387 1304.5 Q473 1386 592.5 1431 Q712 1476 855 1476 Q996 1476 1105 1444 Q1214 1412 1290.5 1356.5 Q1367 1301 1411 1225 Q1455 1149 1467 1062 L1413 1062 Q1400 1133 1363 1198.5 Q1326 1264 1259 1313.5 Q1192 1363 1092.5 1392.5 Q993 1422 855 1422 Q720 1422 610 1380.5 Q500 1339 422 1264 Q344 1189 301.5 1086 Q259 983 259 860 L259 620 Q259 491 302.5 383.5 Q346 276 426.5 198.5 Q507 121 621 77.5 Q735 34 875 34 Q983 34 1073.5 48.5 Q1164 63 1233 85 Q1302 107 1348.5 133 Q1395 159 1415 181 L1415 605 L873 605 L873 660 L1470 660 L1470 156 Q1449 131 1401 100.5 Q1353 70 1278 43 Q1203 16 1102 -2 Q1001 -20 875 -20 Q726 -20 603 26.5 Q480 73 391.5 157.5 Q303 242 254 360 Q205 478 205 620 L205 858 Z " />
<glyph glyph-name="H" unicode="H" horiz-adv-x="1724" d="M242 1456 L297 1456 L297 776 L1427 776 L1427 1456 L1482 1456 L1482 0 L1427 0 L1427 722 L297 722 L297 0 L242 0 L242 1456 Z " />
<glyph glyph-name="I" unicode="I" horiz-adv-x="639" d="M292 0 L292 1456 L347 1456 L347 0 L292 0 Z " />
<glyph glyph-name="J" unicode="J" horiz-adv-x="1350" d="M166 401 Q166 224 277.5 129 Q389 34 612 34 Q704 34 785 60 Q866 86 927 137 Q988 188 1023.5 264.5 Q1059 341 1059 442 L1059 1456 L1113 1456 L1113 442 Q1113 330 1074.5 243.5 Q1036 157 968.5 98.5 Q901 40 809.5 10 Q718 -20 612 -20 Q497 -20 404 5.5 Q311 31 246 83.5 Q181 136 146 215 Q111 294 111 401 L166 401 Z " />
<glyph glyph-name="K" unicode="K" horiz-adv-x="1561" d="M242 1456 L297 1456 L297 610 L588 847 L1324 1456 L1406 1456 L624 803 L1467 0 L1394 0 L579 767 L297 550 L297 0 L242 0 L242 1456 Z " />
<glyph glyph-name="L" unicode="L" horiz-adv-x="1264" d="M242 1456 L298 1456 L298 54 L1198 54 L1198 0 L242 0 L242 1456 Z " />
<glyph glyph-name="M" unicode="M" horiz-adv-x="2104" d="M242 1456 L322 1456 L1050 79 L1780 1456 L1862 1456 L1862 0 L1808 0 L1808 703 L1806 1386 L1072 0 L1028 0 L299 1379 L297 703 L297 0 L242 0 L242 1456 Z " />
<glyph glyph-name="N" unicode="N" horiz-adv-x="1738" d="M242 1456 L298 1456 L1441 95 L1441 1456 L1496 1456 L1496 0 L1441 0 L298 1364 L298 0 L242 0 L242 1456 Z " />
<glyph glyph-name="O" unicode="O" horiz-adv-x="1634" d="M161 837 Q161 980 207 1097.5 Q253 1215 338.5 1299 Q424 1383 545 1429.5 Q666 1476 816 1476 Q966 1476 1087.5 1429.5 Q1209 1383 1294.5 1299 Q1380 1215 1426.5 1097.5 Q1473 980 1473 837 L1473 619 Q1473 477 1427 359 Q1381 241 1296 157 Q1211 73 1089.5 26.5 Q968 -20 818 -20 Q668 -20 546.5 26.5 Q425 73 339.5 157 Q254 241 207.5 359 Q161 477 161 619 L161 837 Z M217 619 Q217 490 257.5 382.5 Q298 275 375 197.5 Q452 120 564 77 Q676 34 818 34 Q961 34 1073 77 Q1185 120 1262 197.5 Q1339 275 1379 382.5 Q1419 490 1419 619 L1419 839 Q1419 967 1378.5 1074 Q1338 1181 1260.5 1258.5 Q1183 1336 1071 1379 Q959 1422 816 1422 Q674 1422 562.5 1379 Q451 1336 374 1258.5 Q297 1181 257 1074 Q217 967 217 839 L217 619 Z " />
<glyph glyph-name="P" unicode="P" horiz-adv-x="1471" d="M242 1456 L782 1456 Q921 1456 1026 1425.5 Q1131 1395 1201.5 1339.5 Q1272 1284 1307.5 1205.5 Q1343 1127 1343 1031 Q1343 935 1307.5 858 Q1272 781 1202 727 Q1132 673 1027 644 Q922 615 782 615 L297 615 L297 0 L242 0 L242 1456 Z M782 669 Q916 669 1012 697.5 Q1108 726 1169.5 775 Q1231 824 1259.5 889.5 Q1288 955 1288 1029 Q1288 1106 1259.5 1174 Q1231 1242 1169.5 1292.5 Q1108 1343 1012 1372.5 Q916 1402 782 1402 L297 1402 L297 669 L782 669 Z " />
<glyph glyph-name="Q" unicode="Q" horiz-adv-x="1633" d="M161 837 Q161 980 207 1097.5 Q253 1215 338.5 1299 Q424 1383 545 1429.5 Q666 1476 816 1476 Q966 1476 1087.5 1429.5 Q1209 1383 1294.5 1299 Q1380 1215 1426.5 1097.5 Q1473 980 1473 837 L1473 619 Q1473 515 1448 423.5 Q1423 332 1376 257 Q1329 182 1261 125.5 Q1193 69 1107 33 L1422 -228 L1382 -263 L1045 11 Q993 -4 936.5 -12 Q880 -20 818 -20 Q668 -20 546.5 26.5 Q425 73 339.5 157 Q254 241 207.5 359 Q161 477 161 619 L161 837 Z M217 619 Q217 490 257.5 382.5 Q298 275 375 197.5 Q452 120 564 77 Q676 34 818 34 Q961 34 1073 77 Q1185 120 1262 197.5 Q1339 275 1379 382.5 Q1419 490 1419 619 L1419 839 Q1419 967 1378.5 1074 Q1338 1181 1260.5 1258.5 Q1183 1336 1071 1379 Q959 1422 816 1422 Q674 1422 562.5 1379 Q451 1336 374 1258.5 Q297 1181 257 1074 Q217 967 217 839 L217 619 Z " />
<glyph glyph-name="R" unicode="R" horiz-adv-x="1606" d="M235 1455 L787 1455 Q924 1455 1030.5 1430.5 Q1137 1406 1210.5 1357 Q1284 1308 1322 1235 Q1360 1162 1360 1065 Q1360 1007 1337 950.5 Q1314 894 1270 846 Q1226 798 1160.5 762.5 Q1095 727 1009 711 Q1108 697 1174 666.5 Q1240 636 1279.5 591.5 Q1319 547 1336 491 Q1353 435 1353 371 L1353 234 Q1353 171 1371.5 116 Q1390 61 1438 24 L1438 -1 L1386 -1 Q1344 41 1321 101 Q1298 161 1298 236 L1298 369 Q1298 516 1179.5 599.5 Q1061 683 827 683 L290 683 L290 -1 L235 -1 L235 1455 Z M776 737 Q923 737 1024 765 Q1125 793 1187.5 839 Q1250 885 1277.5 944 Q1305 1003 1305 1065 Q1305 1227 1176.5 1314 Q1048 1401 787 1401 L290 1401 L290 737 L776 737 Z " />
<glyph glyph-name="S" unicode="S" horiz-adv-x="1452" d="M171 411 Q171 338 197 282 Q223 226 267 184 Q311 142 370 113.5 Q429 85 494 67 Q559 49 627.5 41.5 Q696 34 759 34 Q876 34 974.5 57 Q1073 80 1144 121.5 Q1215 163 1255 221 Q1295 279 1295 349 Q1295 418 1266 471.5 Q1237 525 1172 568.5 Q1107 612 1003 648 Q899 684 749 718 Q616 748 509 782 Q402 816 327 861.5 Q252 907 212 969.5 Q172 1032 172 1120 Q172 1203 216.5 1269 Q261 1335 338.5 1381 Q416 1427 522 1451.5 Q628 1476 751 1476 Q877 1476 983.5 1445 Q1090 1414 1167 1357.5 Q1244 1301 1287.5 1221.5 Q1331 1142 1331 1046 L1277 1046 Q1277 1127 1239 1195.5 Q1201 1264 1132 1314.5 Q1063 1365 966 1393.5 Q869 1422 751 1422 Q625 1422 527.5 1397.5 Q430 1373 363.5 1331.5 Q297 1290 262 1235.5 Q227 1181 227 1122 Q227 1064 251 1014.5 Q275 965 336 922 Q397 879 500.5 841.5 Q604 804 764 770 Q892 742 999.5 707.5 Q1107 673 1185 624.5 Q1263 576 1307 509.5 Q1351 443 1351 351 Q1351 262 1304 193 Q1257 124 1176.5 76.5 Q1096 29 988.5 4.5 Q881 -20 759 -20 Q685 -20 608.5 -10.5 Q532 -1 460.5 19.5 Q389 40 326 73 Q263 106 216.5 154 Q170 202 143 266 Q116 330 116 411 L171 411 Z " />
<glyph glyph-name="T" unicode="T" horiz-adv-x="1469" d="M707 1402 L66 1402 L66 1456 L1402 1456 L1402 1402 L761 1402 L761 0 L707 0 L707 1402 Z " />
<glyph glyph-name="U" unicode="U" horiz-adv-x="1641" d="M225 1456 L280 1456 L280 469 Q280 364 321.5 282.5 Q363 201 435.5 146 Q508 91 607 62.5 Q706 34 821 34 Q936 34 1034.5 62.5 Q1133 91 1205.5 146 Q1278 201 1319 282.5 Q1360 364 1360 469 L1360 1456 L1415 1456 L1415 469 Q1415 346 1370 254.5 Q1325 163 1245.5 102 Q1166 41 1057.5 10.5 Q949 -20 821 -20 Q694 -20 584.5 10.5 Q475 41 395.5 102 Q316 163 270.5 254.5 Q225 346 225 469 L225 1456 Z " />
<glyph glyph-name="V" unicode="V" horiz-adv-x="1461" d="M42 1456 L102 1456 L693 142 L731 46 L769 142 L1360 1456 L1420 1456 L767 0 L695 0 L42 1456 Z " />
<glyph glyph-name="W" unicode="W" horiz-adv-x="2229" d="M73 1456 L135 1456 L503 330 L586 84 L666 330 L1083 1455 L1082 1456 L1147 1456 L1562 330 L1642 84 L1726 330 L2092 1456 L2153 1456 L1680 0 L1613 0 L1614 3 L1177 1214 L1114 1374 L1053 1214 L613 3 L614 0 L548 0 L73 1456 Z " />
<glyph glyph-name="X" unicode="X" horiz-adv-x="1463" d="M696 743 L88 1456 L158 1456 L731 785 L1304 1456 L1374 1456 L766 743 L1397 0 L1329 0 L731 701 L131 0 L65 0 L696 743 Z " />
<glyph glyph-name="Y" unicode="Y" horiz-adv-x="1467" d="M703 553 L41 1456 L116 1456 L731 602 L1352 1456 L1420 1456 L758 553 L758 0 L703 0 L703 553 Z " />
<glyph glyph-name="Z" unicode="Z" horiz-adv-x="1468" d="M113 44 L1231 1403 L163 1403 L163 1456 L1316 1456 L1316 1418 L195 54 L1354 54 L1354 0 L113 0 L113 44 Z " />
<glyph glyph-name="bracketleft" unicode="&#x5b;" horiz-adv-x="520" d="M220 1664 L553 1664 L553 1610 L275 1610 L275 -258 L553 -258 L553 -312 L220 -312 L220 1664 Z " />
<glyph glyph-name="backslash" unicode="&#x5c;" horiz-adv-x="924" d="M70 1456 L131 1456 L860 -125 L800 -125 L70 1456 Z " />
<glyph glyph-name="bracketright" unicode="&#x5d;" horiz-adv-x="519" d="M-11 -258 L265 -258 L265 1610 L-11 1610 L-11 1664 L322 1664 L322 -312 L-11 -312 L-11 -258 Z " />
<glyph glyph-name="asciicircum" unicode="&#x5e;" horiz-adv-x="1018" d="M470 1456 L527 1456 L885 729 L820 729 L498 1383 L173 729 L111 729 L470 1456 Z " />
<glyph glyph-name="underscore" unicode="&#x5f;" horiz-adv-x="1008" d="M-2 -54 L-2 0 L1008 0 L1008 -54 L-2 -54 Z " />
<glyph glyph-name="grave" unicode="&#x60;" horiz-adv-x="638" d="M415 1270 L186 1536 L254 1536 L479 1270 L415 1270 Z " />
<glyph glyph-name="a" unicode="a" horiz-adv-x="1294" d="M144 786 Q144 849 179.5 906.5 Q215 964 279 1007.5 Q343 1051 430.5 1076.5 Q518 1102 622 1102 Q723 1102 807.5 1080.5 Q892 1059 952.5 1016.5 Q1013 974 1047 910 Q1081 846 1081 760 L1081 218 Q1081 189 1083 159 Q1085 129 1089.5 101 Q1094 73 1100 49.5 Q1106 26 1114 9 L1114 0 L1050 0 Q1037 39 1031.5 94 Q1026 149 1026 203 L1026 204 Q993 159 945 118.5 Q897 78 832.5 47.5 Q768 17 686.5 -1.5 Q605 -20 506 -20 Q416 -20 342.5 2 Q269 24 217 63 Q165 102 137 156 Q109 210 109 274 Q109 346 150 407 Q191 468 268 511.5 Q345 555 457 579.5 Q569 604 710 604 L1026 604 L1026 762 Q1026 898 922 973 Q818 1048 623 1048 Q533 1048 455.5 1028 Q378 1008 321 972.5 Q264 937 231.5 888.5 Q199 840 199 784 L144 786 Z M1026 549 L712 549 Q585 549 483 528.5 Q381 508 310.5 471 Q240 434 202 383 Q164 332 164 270 Q164 221 189 178 Q214 135 259 102.5 Q304 70 366.5 51.5 Q429 33 504 33 Q695 33 827 103 Q959 173 1026 293 L1026 549 Z " />
<glyph glyph-name="b" unicode="b" horiz-adv-x="1344" d="M207 296 L205 304 L205 745 Q206 747 206 748.5 Q206 750 207 752 L207 1536 L262 1536 L262 876 Q293 927 336 968.5 Q379 1010 434.5 1039.5 Q490 1069 557.5 1085.5 Q625 1102 706 1102 Q822 1102 912.5 1064 Q1003 1026 1066 955 Q1129 884 1162 782 Q1195 680 1195 552 L1195 531 Q1195 407 1162 305.5 Q1129 204 1066.5 131.5 Q1004 59 914 19.5 Q824 -20 709 -20 Q628 -20 559.5 -5 Q491 10 434.5 36.5 Q378 63 335 99.5 Q292 136 262 178 L263 0 L207 0 L207 296 Z M262 277 Q285 225 323.5 180.5 Q362 136 418 103.5 Q474 71 548 52.5 Q622 34 714 34 Q821 34 900.5 71 Q980 108 1032.5 174.5 Q1085 241 1111 332 Q1137 423 1137 531 L1137 552 Q1137 660 1111 751 Q1085 842 1032 908 Q979 974 899 1011 Q819 1048 711 1048 Q603 1048 526 1022 Q449 996 396.5 955 Q344 914 312 864 Q280 814 262 766 L262 277 Z " />
<glyph glyph-name="c" unicode="c" horiz-adv-x="1244" d="M117 562 Q117 681 152.5 780 Q188 879 255.5 950.5 Q323 1022 420.5 1062 Q518 1102 642 1102 Q735 1102 820 1078 Q905 1054 971 1006.5 Q1037 959 1078 888.5 Q1119 818 1123 725 L1068 725 Q1064 806 1027 866.5 Q990 927 931.5 967.5 Q873 1008 798 1028 Q723 1048 642 1048 Q522 1048 433.5 1010 Q345 972 287 906 Q229 840 200.5 751.5 Q172 663 172 562 L172 520 Q172 418 200.5 329.5 Q229 241 287 175.5 Q345 110 434 72 Q523 34 644 34 Q721 34 795 51 Q869 68 927.5 103.5 Q986 139 1024 194.5 Q1062 250 1068 328 L1123 328 Q1118 246 1078 181 Q1038 116 973 71.5 Q908 27 823.5 3.5 Q739 -20 644 -20 Q519 -20 421 20 Q323 60 255.5 131.5 Q188 203 152.5 302 Q117 401 117 520 L117 562 Z " />
<glyph glyph-name="d" unicode="d" horiz-adv-x="1343" d="M148 552 Q148 680 181 782 Q214 884 276.5 955 Q339 1026 430 1064 Q521 1102 636 1102 Q718 1102 786 1085.5 Q854 1069 909.5 1038.5 Q965 1008 1008 966 Q1051 924 1081 873 L1081 1536 L1137 1536 L1137 0 L1080 0 L1081 182 Q1051 139 1008.5 102 Q966 65 910 38 Q854 11 785 -4.5 Q716 -20 634 -20 Q519 -20 428.5 19.5 Q338 59 275.5 131.5 Q213 204 180.5 305.5 Q148 407 148 531 L148 552 Z M206 531 Q206 423 232 332 Q258 241 310.5 174.5 Q363 108 442.5 71 Q522 34 629 34 Q720 34 793.5 52 Q867 70 923.5 102 Q980 134 1019 177.5 Q1058 221 1081 272 L1081 771 Q1062 819 1029.5 868 Q997 917 944 957 Q891 997 814.5 1022.5 Q738 1048 631 1048 Q523 1048 443 1011 Q363 974 310.5 908 Q258 842 232 751 Q206 660 206 552 L206 531 Z " />
<glyph glyph-name="e" unicode="e" horiz-adv-x="1234" d="M104 562 Q104 681 146.5 780 Q189 879 263 950.5 Q337 1022 436 1062 Q535 1102 647 1102 Q753 1102 843 1068.5 Q933 1035 998.5 974 Q1064 913 1101 828 Q1138 743 1138 640 L1138 577 L159 577 L159 562 L159 518 Q159 417 198.5 328.5 Q238 240 306.5 174.5 Q375 109 468.5 71 Q562 33 670 33 Q726 33 778 40 Q830 47 879 64 Q928 81 972.5 110 Q1017 139 1058 182 L1098 155 Q1034 78 929.5 29 Q825 -20 671 -20 Q554 -20 450.5 20 Q347 60 270 131.5 Q193 203 148.5 301.5 Q104 400 104 518 L104 562 Z M1083 631 L1083 644 Q1083 725 1052 798.5 Q1021 872 964 927.5 Q907 983 826.5 1015.5 Q746 1048 647 1048 Q547 1048 463.5 1016 Q380 984 317 927.5 Q254 871 214.5 795 Q175 719 163 631 L1083 631 Z " />
<glyph glyph-name="f" unicode="f" horiz-adv-x="770" d="M307 1027 L80 1027 L80 1082 L307 1082 L307 1236 Q307 1314 330 1373.5 Q353 1433 396 1474 Q439 1515 501 1536 Q563 1557 641 1557 Q678 1557 717.5 1553.5 Q757 1550 795 1540 L785 1488 Q768 1492 752.5 1494.5 Q737 1497 720.5 1499 Q704 1501 685 1502 Q666 1503 641 1503 Q577 1503 525 1485 Q473 1467 437 1433 Q401 1399 381.5 1349 Q362 1299 362 1236 L362 1082 L709 1082 L709 1027 L362 1027 L362 0 L307 0 L307 1027 Z " />
<glyph glyph-name="g" unicode="g" horiz-adv-x="1290" d="M742 178 Q836 178 916.5 160 Q997 142 1056.5 106.5 Q1116 71 1149.5 17.5 Q1183 -36 1183 -107 Q1183 -164 1144 -223 Q1105 -282 1030 -330 Q955 -378 845 -408 Q735 -438 592 -438 Q474 -438 384 -415.5 Q294 -393 233.5 -354 Q173 -315 142.5 -263 Q112 -211 112 -152 Q112 -98 135.5 -51.5 Q159 -5 198 32.5 Q237 70 288.5 99 Q340 128 395 147 Q355 164 329.5 198 Q304 232 304 288 Q304 318 313.5 343.5 Q323 369 338 390 Q353 411 372 428.5 Q391 446 410 460 Q358 481 315.5 510.5 Q273 540 243 576 Q213 612 196.5 653.5 Q180 695 180 740 L180 762 Q180 836 214.5 898.5 Q249 961 310 1006 Q371 1051 454.5 1076.5 Q538 1102 636 1102 Q723 1102 800 1082 L1169 1082 L1171 1028 L931 1028 Q1007 982 1050.5 914 Q1094 846 1094 762 L1094 740 Q1094 674 1060 616 Q1026 558 965 514 Q904 470 820.5 444.5 Q737 419 639 419 Q553 419 476 439 Q459 429 439 414.5 Q419 400 401.5 381.5 Q384 363 372.5 339.5 Q361 316 361 288 Q361 254 374.5 232.5 Q388 211 409.5 199 Q431 187 458 182.5 Q485 178 513 178 L742 178 Z M509 124 Q440 116 378 90.5 Q316 65 269 27.5 Q222 -10 194.5 -56.5 Q167 -103 167 -152 Q167 -200 192 -242.5 Q217 -285 269.5 -316.5 Q322 -348 402 -366 Q482 -384 592 -384 Q722 -384 822 -358.5 Q922 -333 990 -292.5 Q1058 -252 1093 -203 Q1128 -154 1128 -107 Q1128 -58 1105.5 -16 Q1083 26 1035.5 57 Q988 88 915.5 106 Q843 124 742 124 L516 124 L509 124 Z M472 499 L473 496 Q548 473 639 473 Q731 473 804.5 496.5 Q878 520 930.5 557.5 Q983 595 1011 643 Q1039 691 1039 740 L1039 762 Q1039 818 1010.5 870 Q982 922 929 961.5 Q876 1001 802 1024.5 Q728 1048 636 1048 Q545 1048 471 1024.5 Q397 1001 344.5 961.5 Q292 922 263.5 870 Q235 818 235 762 L235 740 Q235 703 251 667 Q267 631 297 598.5 Q327 566 370.5 540 Q414 514 469 497 L472 499 Z " />
<glyph glyph-name="h" unicode="h" horiz-adv-x="1345" d="M209 1536 L264 1536 L264 816 Q292 876 337 928 Q382 980 441 1019 Q500 1058 573 1080 Q646 1102 730 1102 Q829 1102 905.5 1079.5 Q982 1057 1034.5 1008.5 Q1087 960 1114.5 884 Q1142 808 1142 700 L1142 0 L1087 0 L1087 700 Q1087 803 1060.5 870.5 Q1034 938 987 977.5 Q940 1017 874 1033 Q808 1049 730 1049 Q619 1049 537 1011.5 Q455 974 398.5 918 Q342 862 309.5 798 Q277 734 264 681 L264 0 L209 0 L209 1536 Z " />
<glyph glyph-name="i" unicode="i" horiz-adv-x="501" >
<g transform="translate(6,0)" >
<path fill="black" d="M219 0 L219 1082 L274 1082 L274 0 L219 0 Z " />
</g>
<g transform="translate(13,1371)" >
<path fill="black" d="M177 49 Q177 72 195 88.5 Q213 105 239 105 Q265 105 283.5 88.5 Q302 72 302 49 Q302 26 283.5 10 Q265 -6 239 -6 Q213 -6 195 10 Q177 26 177 49 Z " />
</g>
</glyph>
<glyph glyph-name="j" unicode="j" horiz-adv-x="531" >
<g transform="translate(17,0)" >
<path fill="black" d="M-190 -365 Q-171 -371 -140.5 -377 Q-110 -383 -75 -383 Q62 -383 135.5 -316.5 Q209 -250 209 -129 L209 1082 L265 1082 L265 -129 Q265 -204 241.5 -261.5 Q218 -319 174 -358 Q130 -397 66 -417 Q2 -437 -78 -437 Q-136 -437 -194 -417 L-190 -365 Z " />
</g>
<g transform="translate(22,1371)" >
<path fill="black" d="M177 49 Q177 72 195 88.5 Q213 105 239 105 Q265 105 283.5 88.5 Q302 72 302 49 Q302 26 283.5 10 Q265 -6 239 -6 Q213 -6 195 10 Q177 26 177 49 Z " />
</g>
</glyph>
<glyph glyph-name="k" unicode="k" horiz-adv-x="1158" d="M209 1536 L264 1536 L264 504 L419 627 L1020 1082 L1102 1082 L501 622 L1138 0 L1065 0 L456 588 L450 583 L264 445 L264 0 L209 0 L209 1536 Z " />
<glyph glyph-name="l" unicode="l" horiz-adv-x="715" d="M226 1536 L283 1536 L283 259 Q283 188 299 144 Q315 100 342 75.5 Q369 51 405 42.5 Q441 34 481 34 Q519 34 547.5 36.5 Q576 39 611 43 L623 -8 Q610 -12 591.5 -14 Q573 -16 554.5 -17.5 Q536 -19 518.5 -19.5 Q501 -20 489 -20 Q427 -20 378 -7 Q329 6 295.5 38 Q262 70 244 124 Q226 178 226 259 L226 1536 Z " />
<glyph glyph-name="m" unicode="m" horiz-adv-x="2206" d="M195 1082 L252 1082 L251 850 L251 810 Q278 871 322.5 924 Q367 977 426.5 1016.5 Q486 1056 559 1079 Q632 1102 716 1102 Q883 1102 987.5 1039.5 Q1092 977 1121 836 Q1147 891 1192.5 939.5 Q1238 988 1299.5 1024 Q1361 1060 1438 1081 Q1515 1102 1603 1102 Q1701 1102 1778.5 1079.5 Q1856 1057 1909 1008.5 Q1962 960 1990 884 Q2018 808 2018 700 L2018 0 L1963 0 L1963 700 Q1963 803 1936 871 Q1909 939 1861 978.5 Q1813 1018 1747 1034 Q1681 1050 1603 1049 Q1486 1048 1399.5 1012.5 Q1313 977 1255 926.5 Q1197 876 1167 820 Q1137 764 1132 720 L1132 0 L1077 0 L1077 720 Q1077 817 1050 880.5 Q1023 944 975 981.5 Q927 1019 861 1034 Q795 1049 717 1049 Q604 1049 521.5 1009.5 Q439 970 383 912.5 Q327 855 295 789.5 Q263 724 251 672 L251 0 L195 0 L195 1082 Z " />
<glyph glyph-name="n" unicode="n" horiz-adv-x="1344" d="M209 1082 L265 1082 L264 851 L264 816 Q292 876 337 928 Q382 980 441 1019 Q500 1058 573 1080 Q646 1102 730 1102 Q829 1102 905.5 1079.5 Q982 1057 1034.5 1008.5 Q1087 960 1114.5 884 Q1142 808 1142 700 L1142 0 L1087 0 L1087 700 Q1087 803 1060.5 870.5 Q1034 938 987 977.5 Q940 1017 874 1033 Q808 1049 730 1049 Q619 1049 537 1011.5 Q455 974 398.5 918 Q342 862 309.5 798 Q277 734 264 681 L264 0 L209 0 L209 1082 Z " />
<glyph glyph-name="o" unicode="o" horiz-adv-x="1350" d="M108 562 Q108 681 149.5 780 Q191 879 266 950.5 Q341 1022 445 1062 Q549 1102 674 1102 Q801 1102 905.5 1062 Q1010 1022 1085 950.5 Q1160 879 1201 780 Q1242 681 1242 562 L1242 520 Q1242 401 1201 302 Q1160 203 1085.5 131.5 Q1011 60 907 20 Q803 -20 677 -20 Q551 -20 446 20 Q341 60 266 131.5 Q191 203 149.5 302 Q108 401 108 520 L108 562 Z M163 520 Q163 423 198 335 Q233 247 299 180 Q365 113 460.5 73.5 Q556 34 677 34 Q797 34 891.5 73.5 Q986 113 1052 180 Q1118 247 1152.5 335 Q1187 423 1187 520 L1187 562 Q1187 657 1152.5 744.5 Q1118 832 1052 899.5 Q986 967 890.5 1007.5 Q795 1048 674 1048 Q554 1048 459 1007.5 Q364 967 298 899.5 Q232 832 197.5 744.5 Q163 657 163 562 L163 520 Z " />
<glyph glyph-name="p" unicode="p" horiz-adv-x="1343" d="M206 293 L203 305 L203 745 L206 755 L206 1082 L263 1082 L262 879 Q293 929 336.5 970 Q380 1011 435.5 1040.5 Q491 1070 558.5 1086 Q626 1102 706 1102 Q822 1102 912.5 1064 Q1003 1026 1066 955 Q1129 884 1162 782 Q1195 680 1195 552 L1195 531 Q1195 407 1162 305.5 Q1129 204 1066.5 131.5 Q1004 59 914 19.5 Q824 -20 709 -20 Q628 -20 559.5 -5 Q491 10 435 36 Q379 62 335.5 98.5 Q292 135 262 177 L262 -416 L206 -416 L206 293 Z M262 273 Q285 222 324.5 178.5 Q364 135 420 102.5 Q476 70 549.5 52 Q623 34 714 34 Q821 34 901 71 Q981 108 1034 174.5 Q1087 241 1113 332 Q1139 423 1139 531 L1139 552 Q1139 660 1113 751 Q1087 842 1033.5 908 Q980 974 900 1011 Q820 1048 712 1048 Q605 1048 528.5 1022.5 Q452 997 399 957 Q346 917 313.5 868 Q281 819 262 771 L262 273 Z " />
<glyph glyph-name="q" unicode="q" horiz-adv-x="1342" d="M1082 178 Q1052 136 1008 99.5 Q964 63 908 36.5 Q852 10 783 -5 Q714 -20 633 -20 Q518 -20 428 19.5 Q338 59 276 131.5 Q214 204 181 305.5 Q148 407 148 531 L148 552 Q148 680 181 782 Q214 884 277 955 Q340 1026 430.5 1064 Q521 1102 636 1102 Q717 1102 785 1085.5 Q853 1069 908.5 1039.5 Q964 1010 1007.5 968.5 Q1051 927 1082 877 L1080 1082 L1137 1082 L1137 755 L1140 745 L1140 304 L1137 293 L1137 -416 L1082 -416 L1082 178 Z M206 531 Q206 423 232 332 Q258 241 310.5 174.5 Q363 108 442.5 71 Q522 34 629 34 Q721 34 795 52.5 Q869 71 925 103.5 Q981 136 1020.5 180.5 Q1060 225 1082 277 L1082 766 Q1064 813 1031 862.5 Q998 912 944.5 953.5 Q891 995 814 1021.5 Q737 1048 631 1048 Q523 1048 443 1011 Q363 974 310.5 908 Q258 842 232 751 Q206 660 206 552 L206 531 Z " />
<glyph glyph-name="r" unicode="r" horiz-adv-x="822" d="M209 1082 L264 1082 L264 850 Q317 966 424.5 1034 Q532 1102 695 1102 Q725 1102 747.5 1099 Q770 1096 786 1091 L778 1043 Q760 1045 739 1047 Q718 1049 696 1049 Q603 1049 530 1023 Q457 997 403 950.5 Q349 904 314 841 Q279 778 264 704 L264 0 L209 0 L209 1082 Z " />
<glyph glyph-name="s" unicode="s" horiz-adv-x="1220" d="M186 275 Q192 205 233 159 Q274 113 334.5 85 Q395 57 468.5 45.5 Q542 34 614 34 Q712 34 786 54 Q860 74 910.5 107 Q961 140 986.5 181.5 Q1012 223 1012 265 Q1012 302 995 340 Q978 378 933 413.5 Q888 449 810 479.5 Q732 510 610 532 Q501 552 419 575.5 Q337 599 282.5 633.5 Q228 668 200.5 715.5 Q173 763 173 829 Q173 886 202.5 935.5 Q232 985 287.5 1022 Q343 1059 423 1080.5 Q503 1102 604 1102 Q713 1102 799 1079.5 Q885 1057 944.5 1016.5 Q1004 976 1035.5 919 Q1067 862 1067 793 L1011 793 Q1011 843 984.5 889.5 Q958 936 906 971 Q854 1006 778 1027 Q702 1048 604 1048 Q504 1048 432.5 1028.5 Q361 1009 315.5 977.5 Q270 946 249 907.5 Q228 869 228 831 Q228 789 242.5 754 Q257 719 299.5 688 Q342 657 420.5 630 Q499 603 627 579 Q743 557 826 529 Q909 501 962.5 463.5 Q1016 426 1041.5 377 Q1067 328 1067 264 Q1067 201 1035.5 149 Q1004 97 945 59.5 Q886 22 802 1 Q718 -20 614 -20 Q497 -20 407 3.5 Q317 27 255.5 67.5 Q194 108 162.5 161.5 Q131 215 131 275 L186 275 Z " />
<glyph glyph-name="t" unicode="t" horiz-adv-x="777" d="M288 1027 L48 1027 L48 1082 L288 1082 L288 1374 L345 1374 L345 1082 L643 1082 L643 1027 L345 1027 L345 259 Q345 188 361 144 Q377 100 404 75.5 Q431 51 467 42.5 Q503 34 543 34 Q581 34 609.5 36.5 Q638 39 673 43 L685 -8 Q672 -12 653.5 -14 Q635 -16 616.5 -17.5 Q598 -19 580.5 -19.5 Q563 -20 551 -20 Q489 -20 440 -7 Q391 6 357.5 38 Q324 70 306 124 Q288 178 288 259 L288 1027 Z " />
<glyph glyph-name="u" unicode="u" horiz-adv-x="1344" d="M204 1082 L259 1082 L259 393 Q259 294 286.5 225.5 Q314 157 363 114.5 Q412 72 479.5 53 Q547 34 627 34 Q739 34 819.5 58 Q900 82 954.5 122.5 Q1009 163 1040 216.5 Q1071 270 1083 330 L1083 1082 L1140 1082 L1140 425 L1145 425 Q1145 405 1143.5 386 Q1142 367 1140 348 L1140 0 L1083 0 L1083 182 Q1026 89 915 34.5 Q804 -20 631 -20 Q536 -20 457.5 2.5 Q379 25 322.5 74.5 Q266 124 235 203 Q204 282 204 395 L204 1082 Z " />
<glyph glyph-name="v" unicode="v" horiz-adv-x="1172" d="M52 1082 L112 1082 L587 82 L1063 1082 L1123 1082 L615 0 L558 0 L52 1082 Z " />
<glyph glyph-name="w" unicode="w" horiz-adv-x="1861" d="M103 1082 L168 1082 L432 313 L510 72 L605 313 L895 1082 L954 1082 L1242 313 L1337 72 L1415 313 L1678 1082 L1745 1082 L1367 0 L1309 0 L991 813 L924 1016 L852 813 L537 0 L480 0 L103 1082 Z " />
<glyph glyph-name="x" unicode="x" horiz-adv-x="1171" d="M550 555 L92 1082 L162 1082 L586 602 L1008 1082 L1078 1082 L620 555 L1103 0 L1033 0 L584 508 L136 0 L67 0 L550 555 Z " />
<glyph glyph-name="y" unicode="y" horiz-adv-x="1174" d="M117 -375 Q126 -377 139 -378.5 Q152 -380 165 -381.5 Q178 -383 189.5 -383.5 Q201 -384 207 -384 Q267 -384 311.5 -368 Q356 -352 389.5 -323.5 Q423 -295 448 -256 Q473 -217 494 -170 L573 7 L53 1082 L113 1082 L606 80 L617 104 L1071 1082 L1132 1082 L552 -180 Q536 -214 514.5 -258.5 Q493 -303 455.5 -342.5 Q418 -382 360 -409.5 Q302 -437 213 -437 Q203 -437 189.5 -436.5 Q176 -436 162.5 -434.5 Q149 -433 137 -431 Q125 -429 118 -426 L117 -375 Z " />
<glyph glyph-name="z" unicode="z" horiz-adv-x="1170" d="M104 44 L960 1027 L143 1027 L143 1082 L1041 1082 L1041 1034 L186 54 L1114 54 L1114 0 L104 0 L104 44 Z " />
<glyph glyph-name="braceleft" unicode="&#x7b;" horiz-adv-x="789" d="M391 265 Q391 328 374 379.5 Q357 431 320 467.5 Q283 504 225.5 523.5 Q168 543 88 543 L88 609 Q168 609 225.5 628.5 Q283 648 320 684 Q357 720 374 771 Q391 822 391 885 L391 1132 Q391 1211 409.5 1282.5 Q428 1354 472 1414.5 Q516 1475 589 1521.5 Q662 1568 771 1597 L787 1552 Q697 1528 632.5 1487.5 Q568 1447 526.5 1393 Q485 1339 465.5 1273 Q446 1207 446 1132 L446 885 Q446 828 432 778 Q418 728 388 687.5 Q358 647 311 618 Q264 589 198 576 Q264 563 311 534 Q358 505 388 464 Q418 423 432 372.5 Q446 322 446 265 L446 20 Q446 -131 530.5 -238.5 Q615 -346 793 -395 L771 -441 Q662 -412 589 -366 Q516 -320 472 -260.5 Q428 -201 409.5 -130 Q391 -59 391 20 L391 265 Z " />
<glyph glyph-name="bar" unicode="&#x7c;" horiz-adv-x="481" d="M218 -270 L218 1456 L276 1456 L276 -270 L218 -270 Z " />
<glyph glyph-name="braceright" unicode="&#x7d;" horiz-adv-x="790" d="M-1 -395 Q177 -346 261 -238.5 Q345 -131 345 20 L345 265 Q345 322 359 372.5 Q373 423 403.5 464 Q434 505 481 534 Q528 563 594 576 Q528 589 481 618 Q434 647 403.5 687.5 Q373 728 359 778 Q345 828 345 885 L345 1132 Q345 1207 325.5 1273 Q306 1339 265 1393 Q224 1447 159.5 1487.5 Q95 1528 5 1552 L20 1597 Q130 1568 203 1521.5 Q276 1475 319.5 1414.5 Q363 1354 381.5 1282.5 Q400 1211 400 1132 L400 885 Q400 822 417.5 771 Q435 720 471.5 684 Q508 648 565.5 628.5 Q623 609 703 609 L703 543 Q623 543 565.5 523.5 Q508 504 471.5 467.5 Q435 431 417.5 379.5 Q400 328 400 265 L400 20 Q400 -59 381.5 -130 Q363 -201 319.5 -260.5 Q276 -320 203 -366 Q130 -412 20 -441 L-1 -395 Z " />
<glyph glyph-name="asciitilde" unicode="&#x7e;" horiz-adv-x="1696" d="M194 462 Q194 525 212.5 582 Q231 639 270 681.5 Q309 724 369 749 Q429 774 512 774 Q566 774 611.5 764 Q657 754 699 734.5 Q741 715 783 687 Q825 659 872 624 Q919 589 957 564.5 Q995 540 1030.5 525 Q1066 510 1100.5 503 Q1135 496 1175 496 Q1303 496 1368.5 565.5 Q1434 635 1434 753 L1494 752 Q1494 691 1474.5 635 Q1455 579 1415.5 536.5 Q1376 494 1316 468.5 Q1256 443 1175 443 Q1121 443 1076.5 453 Q1032 463 990.5 482 Q949 501 907.5 529 Q866 557 817 593 Q772 626 735 650 Q698 674 663 689.5 Q628 705 592 712.5 Q556 720 512 720 Q390 720 321 655 Q252 590 252 462 L194 462 Z " />
<glyph glyph-name="uni00A0" unicode="&#xa0;" horiz-adv-x="587" />
<glyph glyph-name="exclamdown" unicode="&#xa1;" horiz-adv-x="480" d="M216 696 L272 696 L271 -359 L217 -359 L216 696 Z M171 1047 Q171 1070 189 1086.5 Q207 1103 233 1103 Q259 1103 277.5 1086.5 Q296 1070 296 1047 Q296 1024 277.5 1008 Q259 992 233 992 Q207 992 189 1008 Q171 1024 171 1047 Z " />
<glyph glyph-name="cent" unicode="&#xa2;" horiz-adv-x="1110" d="M664 -20 Q546 -16 453 26 Q360 68 295.5 139 Q231 210 197.5 307.5 Q164 405 164 520 L164 562 Q164 678 197.5 775.5 Q231 873 295.5 944 Q360 1015 453 1056.5 Q546 1098 664 1102 L664 1318 L720 1318 L720 1101 Q808 1097 887.5 1071.5 Q967 1046 1028.5 998.5 Q1090 951 1128 882.5 Q1166 814 1170 725 L1115 725 Q1111 806 1074 866.5 Q1037 927 978.5 967.5 Q920 1008 845 1028 Q770 1048 689 1048 Q569 1048 480.5 1010 Q392 972 334 906 Q276 840 247.5 751.5 Q219 663 219 562 L219 520 Q219 418 247.5 329.5 Q276 241 334 175.5 Q392 110 481 72 Q570 34 691 34 Q768 34 842 51 Q916 68 974.5 103.5 Q1033 139 1071 194.5 Q1109 250 1115 328 L1170 328 Q1166 249 1128.5 186 Q1091 123 1030 78.5 Q969 34 889.5 9 Q810 -16 720 -19 L720 -245 L664 -245 L664 -20 Z " />
<glyph glyph-name="sterling" unicode="&#xa3;" horiz-adv-x="1377" d="M119 54 L266 54 Q299 62 321.5 90 Q344 118 358 158 Q372 198 378 244.5 Q384 291 383 336 L374 667 L114 667 L114 721 L372 721 L363 1039 Q360 1143 389.5 1224 Q419 1305 475 1361 Q531 1417 611.5 1446.5 Q692 1476 791 1476 Q899 1476 982 1447.5 Q1065 1419 1122 1368 Q1179 1317 1208 1246 Q1237 1175 1237 1089 L1182 1089 Q1182 1178 1151 1241 Q1120 1304 1067 1344 Q1014 1384 943 1403 Q872 1422 792 1422 Q704 1422 633.5 1397 Q563 1372 514 1323.5 Q465 1275 438.5 1203.5 Q412 1132 412 1039 L423 721 L871 721 L871 667 L425 667 L437 336 Q443 141 359 54 L1267 54 L1268 0 L119 0 L119 54 Z " />
<glyph glyph-name="currency" unicode="&#xa4;" horiz-adv-x="1805" d="M352 196 Q271 278 225 382.5 Q179 487 179 608 Q179 733 228 841 Q277 949 364 1032 L137 1225 L178 1264 L407 1070 Q504 1148 628 1191 Q752 1234 894 1234 Q1037 1234 1161 1190 Q1285 1146 1382 1068 L1614 1265 L1656 1225 L1426 1029 Q1511 946 1559 839.5 Q1607 733 1607 608 Q1607 489 1562 385 Q1517 281 1438 199 L1656 13 L1614 -27 L1395 159 Q1298 74 1169.5 27 Q1041 -20 894 -20 Q747 -20 619 27 Q491 74 394 157 L178 -26 L137 13 L352 196 Z M236 608 Q236 489 288 384 Q340 279 430 201 Q520 123 639.5 78 Q759 33 894 33 Q1029 33 1148.5 78 Q1268 123 1357.5 201 Q1447 279 1499 384 Q1551 489 1551 608 Q1551 727 1499 831.5 Q1447 936 1357.5 1013.5 Q1268 1091 1148.5 1136 Q1029 1181 894 1181 Q759 1181 639.5 1136 Q520 1091 430 1013.5 Q340 936 288 831.5 Q236 727 236 608 Z " />
<glyph glyph-name="yen" unicode="&#xa5;" horiz-adv-x="1243" d="M117 381 L591 381 L591 621 L117 621 L117 676 L560 676 L41 1456 L104 1456 L576 738 L609 687 L628 687 L661 738 L1132 1456 L1196 1456 L675 676 L1121 676 L1121 621 L645 621 L645 381 L1121 381 L1121 326 L645 326 L645 0 L591 0 L591 326 L117 326 L117 381 Z " />
<glyph glyph-name="brokenbar" unicode="&#xa6;" horiz-adv-x="470" d="M208 698 L208 1456 L263 1456 L263 698 L208 698 Z M208 -270 L208 482 L263 482 L263 -270 L208 -270 Z " />
<glyph glyph-name="section" unicode="&#xa7;" horiz-adv-x="1465" d="M195 -62 Q195 -171 242.5 -244 Q290 -317 365.5 -360.5 Q441 -404 534.5 -422.5 Q628 -441 719 -441 Q835 -441 924.5 -419.5 Q1014 -398 1075 -359 Q1136 -320 1168 -267 Q1200 -214 1200 -151 Q1200 -94 1180 -48.5 Q1160 -3 1108 34.5 Q1056 72 965 103.5 Q874 135 732 166 Q600 192 492.5 224 Q385 256 308 300 Q231 344 189 405 Q147 466 147 551 Q147 605 170.5 650.5 Q194 696 238 730.5 Q282 765 345.5 788.5 Q409 812 488 822 Q419 846 365.5 874.5 Q312 903 275.5 940 Q239 977 220 1023.5 Q201 1070 201 1129 Q201 1208 239.5 1272 Q278 1336 348.5 1381.5 Q419 1427 518.5 1451.5 Q618 1476 741 1476 Q868 1476 968.5 1448 Q1069 1420 1139 1365 Q1209 1310 1246 1229.5 Q1283 1149 1283 1045 L1228 1045 Q1228 1123 1196 1191.5 Q1164 1260 1102.5 1311.5 Q1041 1363 950 1392.5 Q859 1422 741 1422 Q615 1422 523.5 1399 Q432 1376 372.5 1337 Q313 1298 284.5 1245 Q256 1192 256 1132 Q256 1071 276.5 1024 Q297 977 350 939.5 Q403 902 496.5 870.5 Q590 839 735 807 Q869 778 975.5 747 Q1082 716 1156 674 Q1230 632 1269.5 573.5 Q1309 515 1309 431 Q1309 379 1284 334.5 Q1259 290 1212 255.5 Q1165 221 1098.5 198 Q1032 175 948 164 Q1023 140 1080.5 111.5 Q1138 83 1177 45.5 Q1216 8 1236 -39.5 Q1256 -87 1256 -149 Q1256 -231 1218 -295 Q1180 -359 1109.5 -403.5 Q1039 -448 940 -471.5 Q841 -495 719 -495 Q612 -495 508 -473 Q404 -451 322.5 -401 Q241 -351 190.5 -268.5 Q140 -186 140 -64 L195 -62 Z M202 553 Q202 488 225.5 441 Q249 394 310.5 356.5 Q372 319 477.5 286.5 Q583 254 748 217 Q771 212 793 206.5 Q815 201 836 196 Q937 198 1014.5 216.5 Q1092 235 1145.5 266.5 Q1199 298 1226.5 339.5 Q1254 381 1254 428 Q1254 490 1227.5 537.5 Q1201 585 1138 624 Q1075 663 970 696.5 Q865 730 707 764 Q672 772 638.5 780 Q605 788 573 796 Q477 792 407.5 772 Q338 752 292 719.5 Q246 687 224 644 Q202 601 202 553 Z " />
<glyph glyph-name="dieresis" unicode="&#xa8;" horiz-adv-x="1090" >
<g transform="translate(37,1372)" >
<path fill="black" d="M177 49 Q177 72 195 88.5 Q213 105 239 105 Q265 105 283.5 88.5 Q302 72 302 49 Q302 26 283.5 10 Q265 -6 239 -6 Q213 -6 195 10 Q177 26 177 49 Z " />
</g>
<g transform="translate(572,1372)" >
<path fill="black" d="M177 49 Q177 72 195 88.5 Q213 105 239 105 Q265 105 283.5 88.5 Q302 72 302 49 Q302 26 283.5 10 Q265 -6 239 -6 Q213 -6 195 10 Q177 26 177 49 Z " />
</g>
</glyph>
<glyph glyph-name="copyright" unicode="&#xa9;" horiz-adv-x="2003" d="M150 729 Q150 835 180.5 931.5 Q211 1028 266.5 1111 Q322 1194 400 1261.5 Q478 1329 572.5 1376.5 Q667 1424 776 1450 Q885 1476 1002 1476 Q1120 1476 1228.5 1450 Q1337 1424 1431.5 1376.5 Q1526 1329 1604 1261.5 Q1682 1194 1737.5 1111 Q1793 1028 1823.5 931.5 Q1854 835 1854 729 Q1854 623 1823.5 526.5 Q1793 430 1737.5 346.5 Q1682 263 1604 195.5 Q1526 128 1431.5 79.5 Q1337 31 1228.5 5 Q1120 -21 1002 -21 Q885 -21 776 5 Q667 31 572.5 79.5 Q478 128 400 195.5 Q322 263 266.5 346.5 Q211 430 180.5 526.5 Q150 623 150 729 Z M213 729 Q213 584 275.5 457 Q338 330 445 236 Q552 142 696 88 Q840 34 1002 34 Q1164 34 1307.5 88 Q1451 142 1558.5 236 Q1666 330 1728.5 457 Q1791 584 1791 729 Q1791 875 1728.5 1001 Q1666 1127 1558.5 1220.5 Q1451 1314 1307.5 1367.5 Q1164 1421 1002 1421 Q840 1421 696 1367.5 Q552 1314 445 1220.5 Q338 1127 275.5 1001 Q213 875 213 729 Z M612 768 Q612 854 639.5 925 Q667 996 717.5 1047 Q768 1098 838.5 1126.5 Q909 1155 994 1155 Q1075 1155 1141 1135.5 Q1207 1116 1253.5 1077 Q1300 1038 1325 979 Q1350 920 1350 842 L1295 842 Q1295 973 1217 1037.5 Q1139 1102 994 1102 Q917 1102 857 1076 Q797 1050 755.5 1005 Q714 960 692.5 899 Q671 838 671 769 L671 689 Q671 619 692.5 558.5 Q714 498 755.5 453 Q797 408 857 382.5 Q917 357 994 357 Q1138 357 1216 419.5 Q1294 482 1294 616 L1349 616 Q1349 537 1324 478 Q1299 419 1252.5 380 Q1206 341 1140.5 321.5 Q1075 302 994 302 Q909 302 838.5 330 Q768 358 717.5 409 Q667 460 639.5 531.5 Q612 603 612 689 L612 768 Z " />
<glyph glyph-name="guillemotleft" unicode="&#xab;" horiz-adv-x="1082" >
<g transform="translate(48,-36)" >
<path fill="black" d="M130 551 L130 570 L484 940 L563 940 L208 561 L563 181 L484 181 L130 551 Z " />
</g>
<g transform="translate(324,-36)" >
<path fill="black" d="M130 551 L130 570 L484 940 L563 940 L208 561 L563 181 L484 181 L130 551 Z " />
</g>
</glyph>
<glyph glyph-name="logicalnot" unicode="&#xac;" horiz-adv-x="1319" d="M146 753 L1095 753 L1095 396 L1040 396 L1040 700 L146 700 L146 753 Z " />
<glyph glyph-name="uni00AD" unicode="&#xad;" horiz-adv-x="731" >
<path fill="black" d="M75 639 L75 693 L638 693 L638 639 L75 639 Z " />
</glyph>
<glyph glyph-name="registered" unicode="&#xae;" horiz-adv-x="2014" d="M140 729 Q140 835 170.5 931.5 Q201 1028 256.5 1111 Q312 1194 390 1261.5 Q468 1329 562.5 1376.5 Q657 1424 766 1450 Q875 1476 992 1476 Q1110 1476 1218.5 1450 Q1327 1424 1421.5 1376.5 Q1516 1329 1594 1261.5 Q1672 1194 1727.5 1111 Q1783 1028 1813.5 931.5 Q1844 835 1844 729 Q1844 623 1813.5 526.5 Q1783 430 1727.5 346.5 Q1672 263 1594 195.5 Q1516 128 1421.5 79.5 Q1327 31 1218.5 5 Q1110 -21 992 -21 Q875 -21 766 5 Q657 31 562.5 79.5 Q468 128 390 195.5 Q312 263 256.5 346.5 Q201 430 170.5 526.5 Q140 623 140 729 Z M202 729 Q202 584 264.5 457 Q327 330 434.5 236 Q542 142 686 88 Q830 34 992 34 Q1154 34 1297.5 88 Q1441 142 1548.5 236 Q1656 330 1718.5 457 Q1781 584 1781 729 Q1781 875 1718.5 1001 Q1656 1127 1548.5 1220.5 Q1441 1314 1297.5 1367.5 Q1154 1421 992 1421 Q830 1421 686 1367.5 Q542 1314 434.5 1220.5 Q327 1127 264.5 1001 Q202 875 202 729 Z M718 1156 L1002 1156 Q1176 1156 1261 1095.5 Q1346 1035 1346 916 Q1346 841 1299 788 Q1252 735 1166 709 Q1210 697 1239.5 677 Q1269 657 1287 630.5 Q1305 604 1312.5 572 Q1320 540 1320 505 L1320 469 Q1320 431 1325 398 Q1330 365 1340 342 L1340 326 L1276 326 Q1270 339 1266.5 359 Q1263 379 1261.5 400 Q1260 421 1259.5 440 Q1259 459 1259 470 L1259 504 Q1259 551 1247 584 Q1235 617 1208.5 638 Q1182 659 1139.5 668.5 Q1097 678 1035 678 L777 678 L777 326 L718 326 L718 1156 Z M1027 734 Q1080 734 1127.5 745.5 Q1175 757 1210.5 780.5 Q1246 804 1266.5 838 Q1287 872 1287 917 Q1287 964 1272.5 998.5 Q1258 1033 1225 1056 Q1192 1079 1137.5 1090 Q1083 1101 1002 1101 L777 1101 L777 734 L1027 734 Z " />
<glyph glyph-name="overscore" unicode="&#xaf;" horiz-adv-x="964" d="M158 1383 L158 1436 L831 1436 L831 1383 L158 1383 Z " />
<glyph glyph-name="degree" unicode="&#xb0;" horiz-adv-x="941" d="M189 1236 Q189 1285 211 1328.5 Q233 1372 271.5 1405 Q310 1438 361.5 1457 Q413 1476 471 1476 Q528 1476 578 1457 Q628 1438 666 1405 Q704 1372 726 1328.5 Q748 1285 748 1236 Q748 1186 726 1143 Q704 1100 666 1068 Q628 1036 578 1017.5 Q528 999 471 999 Q413 999 361.5 1017.5 Q310 1036 271.5 1068 Q233 1100 211 1143 Q189 1186 189 1236 Z M250 1236 Q250 1197 267 1163.5 Q284 1130 313.5 1106 Q343 1082 383.5 1068.5 Q424 1055 471 1055 Q518 1055 557 1068.5 Q596 1082 625 1106 Q654 1130 670 1163.5 Q686 1197 686 1236 Q686 1276 670 1310 Q654 1344 625 1368.5 Q596 1393 557 1407 Q518 1421 471 1421 Q424 1421 383.5 1407 Q343 1393 313.5 1368.5 Q284 1344 267 1310 Q250 1276 250 1236 Z " />
<glyph glyph-name="plusminus" unicode="&#xb1;" horiz-adv-x="1291" d="M85 805 L621 805 L621 1267 L677 1267 L677 805 L1184 805 L1184 751 L677 751 L677 289 L621 289 L621 751 L85 751 L85 805 Z M146 53 L1148 53 L1148 -1 L146 -1 L146 53 Z " />
<glyph glyph-name="twosuperior" unicode="&#xb2;" horiz-adv-x="872" d="M132 664 L131 708 L480 1002 Q578 1085 622 1141.5 Q666 1198 666 1247 Q666 1324 606 1369.5 Q546 1415 427 1415 Q362 1415 312.5 1401 Q263 1387 229.5 1361.5 Q196 1336 179 1301.5 Q162 1267 162 1226 L105 1226 Q105 1275 127 1318 Q149 1361 191 1393.5 Q233 1426 292.5 1445 Q352 1464 427 1464 Q493 1464 547.5 1449.5 Q602 1435 641 1407 Q680 1379 701.5 1339 Q723 1299 723 1248 Q723 1211 705 1174.5 Q687 1138 657 1102.5 Q627 1067 588 1032 Q549 997 507 963 L202 713 L779 713 L779 664 L132 664 Z " />
<glyph glyph-name="threesuperior" unicode="&#xb3;" horiz-adv-x="872" d="M154 881 Q154 841 175.5 808 Q197 775 235.5 751 Q274 727 326.5 714 Q379 701 440 701 Q567 701 636 747 Q705 793 705 874 Q705 919 683 950.5 Q661 982 621.5 1002 Q582 1022 527.5 1031.5 Q473 1041 408 1041 L324 1041 L324 1090 L408 1090 Q475 1090 526.5 1102.5 Q578 1115 612.5 1137 Q647 1159 664.5 1187.5 Q682 1216 682 1249 Q682 1284 667.5 1314 Q653 1344 622.5 1366.5 Q592 1389 545.5 1402 Q499 1415 434 1415 Q379 1415 331.5 1403 Q284 1391 249 1369.5 Q214 1348 194 1316.5 Q174 1285 174 1246 L118 1246 Q118 1295 143 1335.5 Q168 1376 210.5 1404.5 Q253 1433 310.5 1448.5 Q368 1464 434 1464 Q503 1464 559.5 1449.5 Q616 1435 656 1407 Q696 1379 717.5 1338.5 Q739 1298 739 1246 Q739 1189 690.5 1140 Q642 1091 554 1068 Q656 1048 709 997.5 Q762 947 762 875 Q762 822 737.5 781 Q713 740 670.5 711.5 Q628 683 569 668 Q510 653 441 653 Q379 653 317.5 666.5 Q256 680 207 708.5 Q158 737 127.5 780 Q97 823 97 881 L154 881 Z " />
<glyph glyph-name="acute" unicode="&#xb4;" horiz-adv-x="603" d="M377 1536 L445 1536 L216 1270 L151 1270 L377 1536 Z " />
<glyph glyph-name="mu" unicode="&#xb5;" horiz-adv-x="1341" d="M206 338 Q204 346 203.5 354.5 Q203 363 202 372 L206 389 L206 1082 L259 1082 L259 440 Q259 319 290.5 240.5 Q322 162 374 116 Q426 70 493 52 Q560 34 632 34 Q760 34 845 64.5 Q930 95 981 149 Q1032 203 1055.5 276.5 Q1079 350 1084 435 L1084 1082 L1139 1082 L1139 505 L1145 505 Q1145 452 1139 402 L1139 0 L1087 0 L1084 212 Q1030 105 922.5 42.5 Q815 -20 643 -20 Q586 -20 530.5 -10 Q475 0 425 22.5 Q375 45 332 82.5 Q289 120 259 174 L259 -416 L206 -416 L206 338 Z " />
<glyph glyph-name="paragraph" unicode="&#xb6;" horiz-adv-x="1131" d="M864 0 L864 520 L711 520 Q568 520 458 555 Q348 590 273 652.5 Q198 715 159.5 801 Q121 887 121 988 Q121 1089 159.5 1174.5 Q198 1260 273 1322.5 Q348 1385 458 1420.5 Q568 1456 711 1456 L919 1456 L919 0 L864 0 Z " />
<glyph glyph-name="middot" unicode="&#xb7;" horiz-adv-x="561" >
<g transform="translate(40,657)" >
<path fill="black" d="M177 49 Q177 72 195 88.5 Q213 105 239 105 Q265 105 283.5 88.5 Q302 72 302 49 Q302 26 283.5 10 Q265 -6 239 -6 Q213 -6 195 10 Q177 26 177 49 Z " />
</g>
</glyph>
<glyph glyph-name="cedilla" unicode="&#xb8;" horiz-adv-x="587" d="M95 -386 Q144 -386 195.5 -378 Q247 -370 289 -352.5 Q331 -335 358 -308.5 Q385 -282 385 -245 Q385 -212 370 -190.5 Q355 -169 326 -155 Q297 -141 254.5 -133.5 Q212 -126 156 -121 L185 0 L243 0 L230 -76 Q271 -79 309.5 -89 Q348 -99 378 -118.5 Q408 -138 426 -169 Q444 -200 444 -245 Q444 -288 420.5 -323 Q397 -358 352.5 -383 Q308 -408 245 -421.5 Q182 -435 103 -435 L95 -386 Z " />
<glyph glyph-name="onesuperior" unicode="&#xb9;" horiz-adv-x="872" d="M458 664 L458 1386 L158 1305 L158 1358 L505 1455 L515 1455 L515 664 L458 664 Z " />
<glyph glyph-name="guillemotright" unicode="&#xbb;" horiz-adv-x="1072" >
<g transform="translate(27,0)" >
<path fill="black" d="M483 551 L128 940 L207 940 L559 560 L559 541 L207 171 L128 171 L483 551 Z " />
</g>
<g transform="translate(312,0)" >
<path fill="black" d="M483 551 L128 940 L207 940 L559 560 L559 541 L207 171 L128 171 L483 551 Z " />
</g>
</glyph>
<glyph glyph-name="onequarter" unicode="&#xbc;" horiz-adv-x="1467" d="M1207 1308 L1257 1277 L404 139 L354 170 L1207 1308 Z M895 236 L1398 789 L1463 789 L1463 253 L1642 253 L1642 204 L1463 204 L1463 0 L1407 0 L1407 204 L896 204 L895 236 Z M479 664 L479 1386 L179 1305 L179 1358 L526 1455 L536 1455 L536 664 L479 664 Z M1407 253 L1407 734 L1352 656 L972 253 L1407 253 Z " />
<glyph glyph-name="onehalf" unicode="&#xbd;" horiz-adv-x="1508" d="M454 664 L448 664 L448 1386 L148 1305 L148 1358 L495 1455 L505 1455 L505 732 L931 1300 L981 1269 L128 131 L78 162 L454 664 Z M1016 44 L1365 338 Q1463 421 1507 477.5 Q1551 534 1551 583 Q1551 660 1491 705.5 Q1431 751 1312 751 Q1247 751 1197.5 737 Q1148 723 1114.5 697.5 Q1081 672 1064 637.5 Q1047 603 1047 562 L990 562 Q990 611 1012 654 Q1034 697 1076 729.5 Q1118 762 1177.5 781 Q1237 800 1312 800 Q1378 800 1432.5 785.5 Q1487 771 1526 743 Q1565 715 1586.5 675 Q1608 635 1608 584 Q1608 547 1590 510.5 Q1572 474 1542 438.5 Q1512 403 1473 368 Q1434 333 1392 299 L1087 49 L1664 49 L1664 0 L1017 0 L1016 44 Z " />
<glyph glyph-name="threequarters" unicode="&#xbe;" horiz-adv-x="1586" d="M447 655 Q391 660 337.5 675.5 Q284 691 242 719 Q200 747 174.5 787.5 Q149 828 149 881 L206 881 Q206 842 227 809.5 Q248 777 284.5 753 Q321 729 371.5 715.5 Q422 702 482 701 L697 988 Q658 1016 597 1028.5 Q536 1041 460 1041 L376 1041 L376 1090 L460 1090 Q527 1090 578.5 1102.5 Q630 1115 664.5 1137 Q699 1159 716.5 1187.5 Q734 1216 734 1249 Q734 1284 719.5 1314 Q705 1344 674.5 1366.5 Q644 1389 597.5 1402 Q551 1415 486 1415 Q431 1415 383.5 1403 Q336 1391 301 1369.5 Q266 1348 246 1316.5 Q226 1285 226 1246 L170 1246 Q170 1295 195 1335.5 Q220 1376 262.5 1404.5 Q305 1433 362.5 1448.5 Q420 1464 486 1464 Q555 1464 611.5 1449.5 Q668 1435 708 1407 Q748 1379 769.5 1338.5 Q791 1298 791 1246 Q791 1189 742.5 1140 Q694 1091 606 1068 Q641 1060 671 1049.5 Q701 1039 724 1024 L931 1300 L981 1269 L770 988 Q814 939 814 875 Q814 825 792 785 Q770 745 731 717 Q692 689 638 673 Q584 657 520 654 L128 131 L78 162 L447 655 Z M902 236 L1405 789 L1470 789 L1470 253 L1649 253 L1649 204 L1470 204 L1470 0 L1414 0 L1414 204 L903 204 L902 236 Z M1414 253 L1414 734 L1359 656 L979 253 L1414 253 Z M558 705 Q654 716 705.5 760 Q757 804 757 874 Q757 913 738 945 L558 705 Z " />
<glyph glyph-name="questiondown" unicode="&#xbf;" horiz-adv-x="1090" d="M974 -21 Q973 -112 939.5 -179.5 Q906 -247 849 -292 Q792 -337 715.5 -359 Q639 -381 552 -381 Q453 -381 375 -354.5 Q297 -328 243.5 -279.5 Q190 -231 161.5 -163.5 Q133 -96 133 -15 Q133 61 154.5 124 Q176 187 215.5 242 Q255 297 312 345.5 Q369 394 439 442 Q484 472 508 499 Q532 526 543 555.5 Q554 585 555.5 618.5 Q557 652 557 695 L612 695 Q611 640 607.5 602.5 Q604 565 590 534.5 Q576 504 547 474 Q518 444 465 403 Q409 359 358.5 317.5 Q308 276 270 228 Q232 180 210 121 Q188 62 188 -17 Q188 -90 212 -147.5 Q236 -205 282 -245 Q328 -285 396 -306.5 Q464 -328 552 -328 Q641 -328 709 -305.5 Q777 -283 823 -242 Q869 -201 893 -145 Q917 -89 919 -21 L974 -21 Z M517 1045 Q517 1068 535 1084.5 Q553 1101 579 1101 Q605 1101 623.5 1084.5 Q642 1068 642 1045 Q642 1022 623.5 1006 Q605 990 579 990 Q553 990 535 1006 Q517 1022 517 1045 Z " />
<glyph glyph-name="Agrave" unicode="&#xc0;" horiz-adv-x="1459" >
<path fill="black" d="M693 1456 L765 1456 L1418 0 L1357 0 L1161 435 L297 435 L101 0 L40 0 L693 1456 Z M1137 489 L729 1397 L321 489 L1137 489 Z " />
<g transform="translate(298,319)" >
<path fill="black" d="M415 1270 L186 1536 L254 1536 L479 1270 L415 1270 Z " />
</g>
</glyph>
<glyph glyph-name="Aacute" unicode="&#xc1;" horiz-adv-x="1459" >
<path fill="black" d="M693 1456 L765 1456 L1418 0 L1357 0 L1161 435 L297 435 L101 0 L40 0 L693 1456 Z M1137 489 L729 1397 L321 489 L1137 489 Z " />
<g transform="translate(536,319)" >
<path fill="black" d="M377 1536 L445 1536 L216 1270 L151 1270 L377 1536 Z " />
</g>
</glyph>
<glyph glyph-name="Acircumflex" unicode="&#xc2;" horiz-adv-x="1459" >
<path fill="black" d="M693 1456 L765 1456 L1418 0 L1357 0 L1161 435 L297 435 L101 0 L40 0 L693 1456 Z M1137 489 L729 1397 L321 489 L1137 489 Z " />
<g transform="translate(253,319)" >
<path fill="black" d="M181 1278 L456 1517 L499 1517 L778 1274 L778 1264 L703 1264 L476 1460 L251 1264 L181 1264 L181 1278 Z " />
</g>
</glyph>
<glyph glyph-name="Atilde" unicode="&#xc3;" horiz-adv-x="1459" >
<path fill="black" d="M693 1456 L765 1456 L1418 0 L1357 0 L1161 435 L297 435 L101 0 L40 0 L693 1456 Z M1137 489 L729 1397 L321 489 L1137 489 Z " />
<g transform="translate(254,334)" >
<path fill="black" d="M106 1286 Q106 1327 122 1360.5 Q138 1394 166 1417 Q194 1440 232 1452.5 Q270 1465 314 1465 Q377 1465 420 1445.5 Q463 1426 499.5 1403 Q536 1380 572.5 1360.5 Q609 1341 660 1341 Q690 1341 716.5 1349.5 Q743 1358 763.5 1375 Q784 1392 795.5 1416.5 Q807 1441 807 1472 L868 1472 Q868 1430 851.5 1396 Q835 1362 807 1337.5 Q779 1313 741 1299.5 Q703 1286 659 1286 Q594 1286 552 1305.5 Q510 1325 475 1348.5 Q440 1372 403.5 1391.5 Q367 1411 314 1411 Q283 1411 256.5 1403.5 Q230 1396 210 1380 Q190 1364 178.5 1341 Q167 1318 167 1286 L106 1286 Z " />
</g>
</glyph>
<glyph glyph-name="Adieresis" unicode="&#xc4;" horiz-adv-x="1459" >
<path fill="black" d="M693 1456 L765 1456 L1418 0 L1357 0 L1161 435 L297 435 L101 0 L40 0 L693 1456 Z M1137 489 L729 1397 L321 489 L1137 489 Z " />
<g transform="translate(225,1691)" >
<path fill="black" d="M177 49 Q177 72 195 88.5 Q213 105 239 105 Q265 105 283.5 88.5 Q302 72 302 49 Q302 26 283.5 10 Q265 -6 239 -6 Q213 -6 195 10 Q177 26 177 49 Z " />
</g>
<g transform="translate(760,1691)" >
<path fill="black" d="M177 49 Q177 72 195 88.5 Q213 105 239 105 Q265 105 283.5 88.5 Q302 72 302 49 Q302 26 283.5 10 Q265 -6 239 -6 Q213 -6 195 10 Q177 26 177 49 Z " />
</g>
</glyph>
<glyph glyph-name="Aring" unicode="&#xc5;" horiz-adv-x="1459" >
<path fill="black" d="M693 1456 L765 1456 L1418 0 L1357 0 L1161 435 L297 435 L101 0 L40 0 L693 1456 Z M1137 489 L729 1397 L321 489 L1137 489 Z " />
<g transform="translate(395,319)" >
<path fill="black" d="M136 1382 Q136 1419 151.5 1450.5 Q167 1482 194.5 1505.5 Q222 1529 259 1542.5 Q296 1556 338 1556 Q380 1556 417 1542.5 Q454 1529 481 1505.5 Q508 1482 524 1450.5 Q540 1419 540 1382 Q540 1345 524 1314 Q508 1283 481 1260.5 Q454 1238 417 1225 Q380 1212 338 1212 Q296 1212 259 1225 Q222 1238 194.5 1260.5 Q167 1283 151.5 1314 Q136 1345 136 1382 Z M197 1382 Q197 1330 236.5 1298 Q276 1266 338 1266 Q400 1266 439 1298 Q478 1330 478 1382 Q478 1436 439 1469 Q400 1502 338 1502 Q276 1502 236.5 1469 Q197 1436 197 1382 Z " />
</g>
</glyph>
<glyph glyph-name="AE" unicode="&#xc6;" horiz-adv-x="2173" d="M1122 1456 L2040 1456 L2040 1402 L1206 1402 L1237 786 L1942 786 L1942 732 L1239 732 L1273 54 L2114 54 L2114 0 L1221 0 L1151 1402 L479 478 L1196 478 L1196 425 L440 425 L131 0 L65 0 L1122 1456 Z " />
<glyph glyph-name="Ccedilla" unicode="&#xc7;" horiz-adv-x="1593" d="M696 -396 Q745 -396 796.5 -388 Q848 -380 890 -362.5 Q932 -345 959 -318.5 Q986 -292 986 -255 Q986 -222 971 -200.5 Q956 -179 927 -165 Q898 -151 855.5 -143.5 Q813 -136 757 -131 L784 -20 Q645 -17 532.5 31 Q420 79 340.5 163 Q261 247 218 363 Q175 479 175 619 L175 837 Q175 980 219.5 1097.5 Q264 1215 346 1299 Q428 1383 544 1429.5 Q660 1476 803 1476 Q934 1476 1042 1447 Q1150 1418 1231 1360.5 Q1312 1303 1362 1216 Q1412 1129 1425 1012 L1370 1012 Q1343 1213 1199.5 1317.5 Q1056 1422 803 1422 Q675 1422 569.5 1380.5 Q464 1339 388.5 1262.5 Q313 1186 271.5 1078.5 Q230 971 230 839 L230 619 Q230 487 271.5 379 Q313 271 389 194.5 Q465 118 570.5 76 Q676 34 804 34 Q926 34 1025 58.5 Q1124 83 1196 133.5 Q1268 184 1312.5 261.5 Q1357 339 1370 446 L1425 446 Q1412 332 1365 247 Q1318 162 1242.5 104 Q1167 46 1065.5 15.5 Q964 -15 842 -19 L831 -86 Q872 -89 910.5 -99 Q949 -109 979 -128.5 Q1009 -148 1027 -179 Q1045 -210 1045 -255 Q1045 -298 1021.5 -333 Q998 -368 953.5 -393 Q909 -418 846 -431.5 Q783 -445 704 -445 L696 -396 Z " />
<glyph glyph-name="Egrave" unicode="&#xc8;" horiz-adv-x="1399" >
<path fill="black" d="M242 1456 L1303 1456 L1303 1402 L297 1402 L297 776 L1180 776 L1180 722 L297 722 L297 54 L1302 54 L1302 0 L242 0 L242 1456 Z " />
<g transform="translate(311,319)" >
<path fill="black" d="M415 1270 L186 1536 L254 1536 L479 1270 L415 1270 Z " />
</g>
</glyph>
<glyph glyph-name="Eacute" unicode="&#xc9;" horiz-adv-x="1399" >
<path fill="black" d="M242 1456 L1303 1456 L1303 1402 L297 1402 L297 776 L1180 776 L1180 722 L297 722 L297 54 L1302 54 L1302 0 L242 0 L242 1456 Z " />
<g transform="translate(549,319)" >
<path fill="black" d="M377 1536 L445 1536 L216 1270 L151 1270 L377 1536 Z " />
</g>
</glyph>
<glyph glyph-name="Ecircumflex" unicode="&#xca;" horiz-adv-x="1399" >
<path fill="black" d="M242 1456 L1303 1456 L1303 1402 L297 1402 L297 776 L1180 776 L1180 722 L297 722 L297 54 L1302 54 L1302 0 L242 0 L242 1456 Z " />
<g transform="translate(266,319)" >
<path fill="black" d="M181 1278 L456 1517 L499 1517 L778 1274 L778 1264 L703 1264 L476 1460 L251 1264 L181 1264 L181 1278 Z " />
</g>
</glyph>
<glyph glyph-name="Edieresis" unicode="&#xcb;" horiz-adv-x="1399" >
<path fill="black" d="M242 1456 L1303 1456 L1303 1402 L297 1402 L297 776 L1180 776 L1180 722 L297 722 L297 54 L1302 54 L1302 0 L242 0 L242 1456 Z " />
<g transform="translate(238,1691)" >
<path fill="black" d="M177 49 Q177 72 195 88.5 Q213 105 239 105 Q265 105 283.5 88.5 Q302 72 302 49 Q302 26 283.5 10 Q265 -6 239 -6 Q213 -6 195 10 Q177 26 177 49 Z " />
</g>
<g transform="translate(773,1691)" >
<path fill="black" d="M177 49 Q177 72 195 88.5 Q213 105 239 105 Q265 105 283.5 88.5 Q302 72 302 49 Q302 26 283.5 10 Q265 -6 239 -6 Q213 -6 195 10 Q177 26 177 49 Z " />
</g>
</glyph>
<glyph glyph-name="Igrave" unicode="&#xcc;" horiz-adv-x="639" >
<path fill="black" d="M292 0 L292 1456 L347 1456 L347 0 L292 0 Z " />
<g transform="translate(-111,319)" >
<path fill="black" d="M415 1270 L186 1536 L254 1536 L479 1270 L415 1270 Z " />
</g>
</glyph>
<glyph glyph-name="Iacute" unicode="&#xcd;" horiz-adv-x="639" >
<path fill="black" d="M292 0 L292 1456 L347 1456 L347 0 L292 0 Z " />
<g transform="translate(127,319)" >
<path fill="black" d="M377 1536 L445 1536 L216 1270 L151 1270 L377 1536 Z " />
</g>
</glyph>
<glyph glyph-name="Icircumflex" unicode="&#xce;" horiz-adv-x="639" >
<g transform="translate(-156,319)" >
<path fill="black" d="M181 1278 L456 1517 L499 1517 L778 1274 L778 1264 L703 1264 L476 1460 L251 1264 L181 1264 L181 1278 Z " />
</g>
<path fill="black" d="M292 0 L292 1456 L347 1456 L347 0 L292 0 Z " />
</glyph>
<glyph glyph-name="Idieresis" unicode="&#xcf;" horiz-adv-x="639" >
<path fill="black" d="M292 0 L292 1456 L347 1456 L347 0 L292 0 Z " />
<g transform="translate(-184,1691)" >
<path fill="black" d="M177 49 Q177 72 195 88.5 Q213 105 239 105 Q265 105 283.5 88.5 Q302 72 302 49 Q302 26 283.5 10 Q265 -6 239 -6 Q213 -6 195 10 Q177 26 177 49 Z " />
</g>
<g transform="translate(351,1691)" >
<path fill="black" d="M177 49 Q177 72 195 88.5 Q213 105 239 105 Q265 105 283.5 88.5 Q302 72 302 49 Q302 26 283.5 10 Q265 -6 239 -6 Q213 -6 195 10 Q177 26 177 49 Z " />
</g>
</glyph>
<glyph glyph-name="Eth" unicode="&#xd0;" horiz-adv-x="1607" d="M242 713 L75 713 L75 767 L242 767 L242 1456 L725 1456 Q879 1456 1010.5 1409.5 Q1142 1363 1238 1278.5 Q1334 1194 1388.5 1076.5 Q1443 959 1443 817 L1443 639 Q1443 497 1388.5 379.5 Q1334 262 1238 177.5 Q1142 93 1010.5 46.5 Q879 0 726 0 L297 0 L299 54 L726 54 Q867 54 988 97.5 Q1109 141 1198 218.5 Q1287 296 1337.5 403.5 Q1388 511 1388 639 L1388 820 Q1388 947 1337.5 1054 Q1287 1161 1198 1238 Q1109 1315 987.5 1358.5 Q866 1402 725 1402 L297 1402 L297 767 L776 767 L776 713 L297 713 L297 0 L242 0 L242 713 Z " />
<glyph glyph-name="Ntilde" unicode="&#xd1;" horiz-adv-x="1738" >
<path fill="black" d="M242 1456 L298 1456 L1441 95 L1441 1456 L1496 1456 L1496 0 L1441 0 L298 1364 L298 0 L242 0 L242 1456 Z " />
<g transform="translate(395,334)" >
<path fill="black" d="M106 1286 Q106 1327 122 1360.5 Q138 1394 166 1417 Q194 1440 232 1452.5 Q270 1465 314 1465 Q377 1465 420 1445.5 Q463 1426 499.5 1403 Q536 1380 572.5 1360.5 Q609 1341 660 1341 Q690 1341 716.5 1349.5 Q743 1358 763.5 1375 Q784 1392 795.5 1416.5 Q807 1441 807 1472 L868 1472 Q868 1430 851.5 1396 Q835 1362 807 1337.5 Q779 1313 741 1299.5 Q703 1286 659 1286 Q594 1286 552 1305.5 Q510 1325 475 1348.5 Q440 1372 403.5 1391.5 Q367 1411 314 1411 Q283 1411 256.5 1403.5 Q230 1396 210 1380 Q190 1364 178.5 1341 Q167 1318 167 1286 L106 1286 Z " />
</g>
</glyph>
<glyph glyph-name="Ograve" unicode="&#xd2;" horiz-adv-x="1634" >
<path fill="black" d="M161 837 Q161 980 207 1097.5 Q253 1215 338.5 1299 Q424 1383 545 1429.5 Q666 1476 816 1476 Q966 1476 1087.5 1429.5 Q1209 1383 1294.5 1299 Q1380 1215 1426.5 1097.5 Q1473 980 1473 837 L1473 619 Q1473 477 1427 359 Q1381 241 1296 157 Q1211 73 1089.5 26.5 Q968 -20 818 -20 Q668 -20 546.5 26.5 Q425 73 339.5 157 Q254 241 207.5 359 Q161 477 161 619 L161 837 Z M217 619 Q217 490 257.5 382.5 Q298 275 375 197.5 Q452 120 564 77 Q676 34 818 34 Q961 34 1073 77 Q1185 120 1262 197.5 Q1339 275 1379 382.5 Q1419 490 1419 619 L1419 839 Q1419 967 1378.5 1074 Q1338 1181 1260.5 1258.5 Q1183 1336 1071 1379 Q959 1422 816 1422 Q674 1422 562.5 1379 Q451 1336 374 1258.5 Q297 1181 257 1074 Q217 967 217 839 L217 619 Z " />
<g transform="translate(377,340)" >
<path fill="black" d="M415 1270 L186 1536 L254 1536 L479 1270 L415 1270 Z " />
</g>
</glyph>
<glyph glyph-name="Oacute" unicode="&#xd3;" horiz-adv-x="1634" >
<path fill="black" d="M161 837 Q161 980 207 1097.5 Q253 1215 338.5 1299 Q424 1383 545 1429.5 Q666 1476 816 1476 Q966 1476 1087.5 1429.5 Q1209 1383 1294.5 1299 Q1380 1215 1426.5 1097.5 Q1473 980 1473 837 L1473 619 Q1473 477 1427 359 Q1381 241 1296 157 Q1211 73 1089.5 26.5 Q968 -20 818 -20 Q668 -20 546.5 26.5 Q425 73 339.5 157 Q254 241 207.5 359 Q161 477 161 619 L161 837 Z M217 619 Q217 490 257.5 382.5 Q298 275 375 197.5 Q452 120 564 77 Q676 34 818 34 Q961 34 1073 77 Q1185 120 1262 197.5 Q1339 275 1379 382.5 Q1419 490 1419 619 L1419 839 Q1419 967 1378.5 1074 Q1338 1181 1260.5 1258.5 Q1183 1336 1071 1379 Q959 1422 816 1422 Q674 1422 562.5 1379 Q451 1336 374 1258.5 Q297 1181 257 1074 Q217 967 217 839 L217 619 Z " />
<g transform="translate(615,340)" >
<path fill="black" d="M377 1536 L445 1536 L216 1270 L151 1270 L377 1536 Z " />
</g>
</glyph>
<glyph glyph-name="Ocircumflex" unicode="&#xd4;" horiz-adv-x="1634" >
<path fill="black" d="M161 837 Q161 980 207 1097.5 Q253 1215 338.5 1299 Q424 1383 545 1429.5 Q666 1476 816 1476 Q966 1476 1087.5 1429.5 Q1209 1383 1294.5 1299 Q1380 1215 1426.5 1097.5 Q1473 980 1473 837 L1473 619 Q1473 477 1427 359 Q1381 241 1296 157 Q1211 73 1089.5 26.5 Q968 -20 818 -20 Q668 -20 546.5 26.5 Q425 73 339.5 157 Q254 241 207.5 359 Q161 477 161 619 L161 837 Z M217 619 Q217 490 257.5 382.5 Q298 275 375 197.5 Q452 120 564 77 Q676 34 818 34 Q961 34 1073 77 Q1185 120 1262 197.5 Q1339 275 1379 382.5 Q1419 490 1419 619 L1419 839 Q1419 967 1378.5 1074 Q1338 1181 1260.5 1258.5 Q1183 1336 1071 1379 Q959 1422 816 1422 Q674 1422 562.5 1379 Q451 1336 374 1258.5 Q297 1181 257 1074 Q217 967 217 839 L217 619 Z " />
<g transform="translate(332,340)" >
<path fill="black" d="M181 1278 L456 1517 L499 1517 L778 1274 L778 1264 L703 1264 L476 1460 L251 1264 L181 1264 L181 1278 Z " />
</g>
</glyph>
<glyph glyph-name="Otilde" unicode="&#xd5;" horiz-adv-x="1634" >
<path fill="black" d="M161 837 Q161 980 207 1097.5 Q253 1215 338.5 1299 Q424 1383 545 1429.5 Q666 1476 816 1476 Q966 1476 1087.5 1429.5 Q1209 1383 1294.5 1299 Q1380 1215 1426.5 1097.5 Q1473 980 1473 837 L1473 619 Q1473 477 1427 359 Q1381 241 1296 157 Q1211 73 1089.5 26.5 Q968 -20 818 -20 Q668 -20 546.5 26.5 Q425 73 339.5 157 Q254 241 207.5 359 Q161 477 161 619 L161 837 Z M217 619 Q217 490 257.5 382.5 Q298 275 375 197.5 Q452 120 564 77 Q676 34 818 34 Q961 34 1073 77 Q1185 120 1262 197.5 Q1339 275 1379 382.5 Q1419 490 1419 619 L1419 839 Q1419 967 1378.5 1074 Q1338 1181 1260.5 1258.5 Q1183 1336 1071 1379 Q959 1422 816 1422 Q674 1422 562.5 1379 Q451 1336 374 1258.5 Q297 1181 257 1074 Q217 967 217 839 L217 619 Z " />
<g transform="translate(333,355)" >
<path fill="black" d="M106 1286 Q106 1327 122 1360.5 Q138 1394 166 1417 Q194 1440 232 1452.5 Q270 1465 314 1465 Q377 1465 420 1445.5 Q463 1426 499.5 1403 Q536 1380 572.5 1360.5 Q609 1341 660 1341 Q690 1341 716.5 1349.5 Q743 1358 763.5 1375 Q784 1392 795.5 1416.5 Q807 1441 807 1472 L868 1472 Q868 1430 851.5 1396 Q835 1362 807 1337.5 Q779 1313 741 1299.5 Q703 1286 659 1286 Q594 1286 552 1305.5 Q510 1325 475 1348.5 Q440 1372 403.5 1391.5 Q367 1411 314 1411 Q283 1411 256.5 1403.5 Q230 1396 210 1380 Q190 1364 178.5 1341 Q167 1318 167 1286 L106 1286 Z " />
</g>
</glyph>
<glyph glyph-name="Odieresis" unicode="&#xd6;" horiz-adv-x="1634" >
<path fill="black" d="M161 837 Q161 980 207 1097.5 Q253 1215 338.5 1299 Q424 1383 545 1429.5 Q666 1476 816 1476 Q966 1476 1087.5 1429.5 Q1209 1383 1294.5 1299 Q1380 1215 1426.5 1097.5 Q1473 980 1473 837 L1473 619 Q1473 477 1427 359 Q1381 241 1296 157 Q1211 73 1089.5 26.5 Q968 -20 818 -20 Q668 -20 546.5 26.5 Q425 73 339.5 157 Q254 241 207.5 359 Q161 477 161 619 L161 837 Z M217 619 Q217 490 257.5 382.5 Q298 275 375 197.5 Q452 120 564 77 Q676 34 818 34 Q961 34 1073 77 Q1185 120 1262 197.5 Q1339 275 1379 382.5 Q1419 490 1419 619 L1419 839 Q1419 967 1378.5 1074 Q1338 1181 1260.5 1258.5 Q1183 1336 1071 1379 Q959 1422 816 1422 Q674 1422 562.5 1379 Q451 1336 374 1258.5 Q297 1181 257 1074 Q217 967 217 839 L217 619 Z " />
<g transform="translate(304,1712)" >
<path fill="black" d="M177 49 Q177 72 195 88.5 Q213 105 239 105 Q265 105 283.5 88.5 Q302 72 302 49 Q302 26 283.5 10 Q265 -6 239 -6 Q213 -6 195 10 Q177 26 177 49 Z " />
</g>
<g transform="translate(839,1712)" >
<path fill="black" d="M177 49 Q177 72 195 88.5 Q213 105 239 105 Q265 105 283.5 88.5 Q302 72 302 49 Q302 26 283.5 10 Q265 -6 239 -6 Q213 -6 195 10 Q177 26 177 49 Z " />
</g>
</glyph>
<glyph glyph-name="multiply" unicode="&#xd7;" horiz-adv-x="1259" d="M580 430 L152 793 L193 832 L623 466 L1053 832 L1094 793 L666 430 L1129 36 L1088 -1 L623 393 L159 -1 L118 36 L580 430 Z " />
<glyph glyph-name="Oslash" unicode="&#xd8;" horiz-adv-x="1364" d="M369 130 Q269 215 215 339.5 Q161 464 161 619 L161 837 Q161 980 207 1097.5 Q253 1215 338.5 1299 Q424 1383 545 1429.5 Q666 1476 816 1476 Q958 1476 1073.5 1435 Q1189 1394 1274 1318 L1409 1495 L1483 1495 L1316 1276 Q1392 1193 1432.5 1082 Q1473 971 1473 837 L1473 619 Q1473 477 1427 359 Q1381 241 1296 157 Q1211 73 1089.5 26.5 Q968 -20 818 -20 Q698 -20 597.5 9.5 Q497 39 416 94 L287 -75 L213 -75 L369 130 Z M1242 1276 Q1165 1345 1058 1383.5 Q951 1422 816 1422 Q674 1422 562.5 1379 Q451 1336 374 1258.5 Q297 1181 257 1074 Q217 967 217 839 L217 619 Q217 479 264 365 Q311 251 402 173 L1242 1276 Z M1419 839 Q1419 957 1384.5 1057 Q1350 1157 1284 1233 L448 137 Q521 87 613.5 60.5 Q706 34 818 34 Q961 34 1073 77 Q1185 120 1262 197.5 Q1339 275 1379 382.5 Q1419 490 1419 619 L1419 839 Z " />
<glyph glyph-name="Ugrave" unicode="&#xd9;" horiz-adv-x="1641" >
<path fill="black" d="M225 1456 L280 1456 L280 469 Q280 364 321.5 282.5 Q363 201 435.5 146 Q508 91 607 62.5 Q706 34 821 34 Q936 34 1034.5 62.5 Q1133 91 1205.5 146 Q1278 201 1319 282.5 Q1360 364 1360 469 L1360 1456 L1415 1456 L1415 469 Q1415 346 1370 254.5 Q1325 163 1245.5 102 Q1166 41 1057.5 10.5 Q949 -20 821 -20 Q694 -20 584.5 10.5 Q475 41 395.5 102 Q316 163 270.5 254.5 Q225 346 225 469 L225 1456 Z " />
<g transform="translate(406,319)" >
<path fill="black" d="M415 1270 L186 1536 L254 1536 L479 1270 L415 1270 Z " />
</g>
</glyph>
<glyph glyph-name="Uacute" unicode="&#xda;" horiz-adv-x="1641" >
<path fill="black" d="M225 1456 L280 1456 L280 469 Q280 364 321.5 282.5 Q363 201 435.5 146 Q508 91 607 62.5 Q706 34 821 34 Q936 34 1034.5 62.5 Q1133 91 1205.5 146 Q1278 201 1319 282.5 Q1360 364 1360 469 L1360 1456 L1415 1456 L1415 469 Q1415 346 1370 254.5 Q1325 163 1245.5 102 Q1166 41 1057.5 10.5 Q949 -20 821 -20 Q694 -20 584.5 10.5 Q475 41 395.5 102 Q316 163 270.5 254.5 Q225 346 225 469 L225 1456 Z " />
<g transform="translate(644,319)" >
<path fill="black" d="M377 1536 L445 1536 L216 1270 L151 1270 L377 1536 Z " />
</g>
</glyph>
<glyph glyph-name="Ucircumflex" unicode="&#xdb;" horiz-adv-x="1641" >
<path fill="black" d="M225 1456 L280 1456 L280 469 Q280 364 321.5 282.5 Q363 201 435.5 146 Q508 91 607 62.5 Q706 34 821 34 Q936 34 1034.5 62.5 Q1133 91 1205.5 146 Q1278 201 1319 282.5 Q1360 364 1360 469 L1360 1456 L1415 1456 L1415 469 Q1415 346 1370 254.5 Q1325 163 1245.5 102 Q1166 41 1057.5 10.5 Q949 -20 821 -20 Q694 -20 584.5 10.5 Q475 41 395.5 102 Q316 163 270.5 254.5 Q225 346 225 469 L225 1456 Z " />
<g transform="translate(361,319)" >
<path fill="black" d="M181 1278 L456 1517 L499 1517 L778 1274 L778 1264 L703 1264 L476 1460 L251 1264 L181 1264 L181 1278 Z " />
</g>
</glyph>
<glyph glyph-name="Udieresis" unicode="&#xdc;" horiz-adv-x="1641" >
<path fill="black" d="M225 1456 L280 1456 L280 469 Q280 364 321.5 282.5 Q363 201 435.5 146 Q508 91 607 62.5 Q706 34 821 34 Q936 34 1034.5 62.5 Q1133 91 1205.5 146 Q1278 201 1319 282.5 Q1360 364 1360 469 L1360 1456 L1415 1456 L1415 469 Q1415 346 1370 254.5 Q1325 163 1245.5 102 Q1166 41 1057.5 10.5 Q949 -20 821 -20 Q694 -20 584.5 10.5 Q475 41 395.5 102 Q316 163 270.5 254.5 Q225 346 225 469 L225 1456 Z " />
<g transform="translate(333,1691)" >
<path fill="black" d="M177 49 Q177 72 195 88.5 Q213 105 239 105 Q265 105 283.5 88.5 Q302 72 302 49 Q302 26 283.5 10 Q265 -6 239 -6 Q213 -6 195 10 Q177 26 177 49 Z " />
</g>
<g transform="translate(868,1691)" >
<path fill="black" d="M177 49 Q177 72 195 88.5 Q213 105 239 105 Q265 105 283.5 88.5 Q302 72 302 49 Q302 26 283.5 10 Q265 -6 239 -6 Q213 -6 195 10 Q177 26 177 49 Z " />
</g>
</glyph>
<glyph glyph-name="Yacute" unicode="&#xdd;" horiz-adv-x="1467" >
<path fill="black" d="M703 553 L41 1456 L116 1456 L731 602 L1352 1456 L1420 1456 L758 553 L758 0 L703 0 L703 553 Z " />
<g transform="translate(535,308)" >
<path fill="black" d="M377 1536 L445 1536 L216 1270 L151 1270 L377 1536 Z " />
</g>
</glyph>
<glyph glyph-name="Thorn" unicode="&#xde;" horiz-adv-x="1463" d="M242 1456 L297 1456 L297 1143 L749 1143 Q880 1143 980 1112.5 Q1080 1082 1148 1027.5 Q1216 973 1251 899 Q1286 825 1286 738 Q1286 651 1251 577 Q1216 503 1148 449 Q1080 395 980 364.5 Q880 334 749 334 L297 334 L297 0 L242 0 L242 1456 Z M749 388 Q877 388 968.5 419 Q1060 450 1118.5 500 Q1177 550 1204 612 Q1231 674 1231 736 Q1231 801 1204 864 Q1177 927 1118.5 977 Q1060 1027 968.5 1058 Q877 1089 749 1089 L297 1089 L297 388 L749 388 Z " />
<glyph glyph-name="germandbls" unicode="&#xdf;" horiz-adv-x="1418" d="M199 0 L199 1143 Q199 1334 298.5 1434.5 Q398 1535 589 1535 Q658 1535 724.5 1515 Q791 1495 842.5 1459 Q894 1423 925.5 1371.5 Q957 1320 957 1257 Q957 1210 946.5 1174 Q936 1138 920 1108 Q904 1078 886 1050 Q868 1022 852 990.5 Q836 959 825.5 920 Q815 881 815 829 Q815 777 848.5 736.5 Q882 696 933 659.5 Q984 623 1042.5 587 Q1101 551 1152 509.5 Q1203 468 1236.5 416.5 Q1270 365 1270 297 Q1270 221 1228.5 162 Q1187 103 1122.5 62.5 Q1058 22 980.5 0.5 Q903 -21 831 -21 Q779 -21 722.5 -14 Q666 -7 615 5.5 Q564 18 521.5 34 Q479 50 455 68 L484 117 Q508 101 546 86 Q584 71 629 59 Q674 47 724 39.5 Q774 32 822 32 Q908 32 980 54 Q1052 76 1104 113.5 Q1156 151 1185.5 201 Q1215 251 1215 306 Q1215 364 1181.5 408 Q1148 452 1097 490 Q1046 528 987.5 563 Q929 598 878 637 Q827 676 793.5 723 Q760 770 760 831 Q760 882 770 921.5 Q780 961 795 993.5 Q810 1026 827 1055 Q844 1084 859 1114.5 Q874 1145 884 1179.5 Q894 1214 894 1259 Q894 1306 869 1346.5 Q844 1387 802.5 1417 Q761 1447 708.5 1464 Q656 1481 601 1481 Q523 1481 459 1463 Q395 1445 349.5 1404.5 Q304 1364 279 1299.5 Q254 1235 254 1143 L254 0 L199 0 Z " />
<glyph glyph-name="agrave" unicode="&#xe0;" horiz-adv-x="1294" >
<path fill="black" d="M144 786 Q144 849 179.5 906.5 Q215 964 279 1007.5 Q343 1051 430.5 1076.5 Q518 1102 622 1102 Q723 1102 807.5 1080.5 Q892 1059 952.5 1016.5 Q1013 974 1047 910 Q1081 846 1081 760 L1081 218 Q1081 189 1083 159 Q1085 129 1089.5 101 Q1094 73 1100 49.5 Q1106 26 1114 9 L1114 0 L1050 0 Q1037 39 1031.5 94 Q1026 149 1026 203 L1026 204 Q993 159 945 118.5 Q897 78 832.5 47.5 Q768 17 686.5 -1.5 Q605 -20 506 -20 Q416 -20 342.5 2 Q269 24 217 63 Q165 102 137 156 Q109 210 109 274 Q109 346 150 407 Q191 468 268 511.5 Q345 555 457 579.5 Q569 604 710 604 L1026 604 L1026 762 Q1026 898 922 973 Q818 1048 623 1048 Q533 1048 455.5 1028 Q378 1008 321 972.5 Q264 937 231.5 888.5 Q199 840 199 784 L144 786 Z M1026 549 L712 549 Q585 549 483 528.5 Q381 508 310.5 471 Q240 434 202 383 Q164 332 164 270 Q164 221 189 178 Q214 135 259 102.5 Q304 70 366.5 51.5 Q429 33 504 33 Q695 33 827 103 Q959 173 1026 293 L1026 549 Z " />
<g transform="translate(260,-1)" >
<path fill="black" d="M415 1270 L186 1536 L254 1536 L479 1270 L415 1270 Z " />
</g>
</glyph>
<glyph glyph-name="aacute" unicode="&#xe1;" horiz-adv-x="1294" >
<path fill="black" d="M144 786 Q144 849 179.5 906.5 Q215 964 279 1007.5 Q343 1051 430.5 1076.5 Q518 1102 622 1102 Q723 1102 807.5 1080.5 Q892 1059 952.5 1016.5 Q1013 974 1047 910 Q1081 846 1081 760 L1081 218 Q1081 189 1083 159 Q1085 129 1089.5 101 Q1094 73 1100 49.5 Q1106 26 1114 9 L1114 0 L1050 0 Q1037 39 1031.5 94 Q1026 149 1026 203 L1026 204 Q993 159 945 118.5 Q897 78 832.5 47.5 Q768 17 686.5 -1.5 Q605 -20 506 -20 Q416 -20 342.5 2 Q269 24 217 63 Q165 102 137 156 Q109 210 109 274 Q109 346 150 407 Q191 468 268 511.5 Q345 555 457 579.5 Q569 604 710 604 L1026 604 L1026 762 Q1026 898 922 973 Q818 1048 623 1048 Q533 1048 455.5 1028 Q378 1008 321 972.5 Q264 937 231.5 888.5 Q199 840 199 784 L144 786 Z M1026 549 L712 549 Q585 549 483 528.5 Q381 508 310.5 471 Q240 434 202 383 Q164 332 164 270 Q164 221 189 178 Q214 135 259 102.5 Q304 70 366.5 51.5 Q429 33 504 33 Q695 33 827 103 Q959 173 1026 293 L1026 549 Z " />
<g transform="translate(498,-1)" >
<path fill="black" d="M377 1536 L445 1536 L216 1270 L151 1270 L377 1536 Z " />
</g>
</glyph>
<glyph glyph-name="acircumflex" unicode="&#xe2;" horiz-adv-x="1294" >
<path fill="black" d="M144 786 Q144 849 179.5 906.5 Q215 964 279 1007.5 Q343 1051 430.5 1076.5 Q518 1102 622 1102 Q723 1102 807.5 1080.5 Q892 1059 952.5 1016.5 Q1013 974 1047 910 Q1081 846 1081 760 L1081 218 Q1081 189 1083 159 Q1085 129 1089.5 101 Q1094 73 1100 49.5 Q1106 26 1114 9 L1114 0 L1050 0 Q1037 39 1031.5 94 Q1026 149 1026 203 L1026 204 Q993 159 945 118.5 Q897 78 832.5 47.5 Q768 17 686.5 -1.5 Q605 -20 506 -20 Q416 -20 342.5 2 Q269 24 217 63 Q165 102 137 156 Q109 210 109 274 Q109 346 150 407 Q191 468 268 511.5 Q345 555 457 579.5 Q569 604 710 604 L1026 604 L1026 762 Q1026 898 922 973 Q818 1048 623 1048 Q533 1048 455.5 1028 Q378 1008 321 972.5 Q264 937 231.5 888.5 Q199 840 199 784 L144 786 Z M1026 549 L712 549 Q585 549 483 528.5 Q381 508 310.5 471 Q240 434 202 383 Q164 332 164 270 Q164 221 189 178 Q214 135 259 102.5 Q304 70 366.5 51.5 Q429 33 504 33 Q695 33 827 103 Q959 173 1026 293 L1026 549 Z " />
<g transform="translate(215,-1)" >
<path fill="black" d="M181 1278 L456 1517 L499 1517 L778 1274 L778 1264 L703 1264 L476 1460 L251 1264 L181 1264 L181 1278 Z " />
</g>
</glyph>
<glyph glyph-name="atilde" unicode="&#xe3;" horiz-adv-x="1294" >
<path fill="black" d="M144 786 Q144 849 179.5 906.5 Q215 964 279 1007.5 Q343 1051 430.5 1076.5 Q518 1102 622 1102 Q723 1102 807.5 1080.5 Q892 1059 952.5 1016.5 Q1013 974 1047 910 Q1081 846 1081 760 L1081 218 Q1081 189 1083 159 Q1085 129 1089.5 101 Q1094 73 1100 49.5 Q1106 26 1114 9 L1114 0 L1050 0 Q1037 39 1031.5 94 Q1026 149 1026 203 L1026 204 Q993 159 945 118.5 Q897 78 832.5 47.5 Q768 17 686.5 -1.5 Q605 -20 506 -20 Q416 -20 342.5 2 Q269 24 217 63 Q165 102 137 156 Q109 210 109 274 Q109 346 150 407 Q191 468 268 511.5 Q345 555 457 579.5 Q569 604 710 604 L1026 604 L1026 762 Q1026 898 922 973 Q818 1048 623 1048 Q533 1048 455.5 1028 Q378 1008 321 972.5 Q264 937 231.5 888.5 Q199 840 199 784 L144 786 Z M1026 549 L712 549 Q585 549 483 528.5 Q381 508 310.5 471 Q240 434 202 383 Q164 332 164 270 Q164 221 189 178 Q214 135 259 102.5 Q304 70 366.5 51.5 Q429 33 504 33 Q695 33 827 103 Q959 173 1026 293 L1026 549 Z " />
<g transform="translate(216,14)" >
<path fill="black" d="M106 1286 Q106 1327 122 1360.5 Q138 1394 166 1417 Q194 1440 232 1452.5 Q270 1465 314 1465 Q377 1465 420 1445.5 Q463 1426 499.5 1403 Q536 1380 572.5 1360.5 Q609 1341 660 1341 Q690 1341 716.5 1349.5 Q743 1358 763.5 1375 Q784 1392 795.5 1416.5 Q807 1441 807 1472 L868 1472 Q868 1430 851.5 1396 Q835 1362 807 1337.5 Q779 1313 741 1299.5 Q703 1286 659 1286 Q594 1286 552 1305.5 Q510 1325 475 1348.5 Q440 1372 403.5 1391.5 Q367 1411 314 1411 Q283 1411 256.5 1403.5 Q230 1396 210 1380 Q190 1364 178.5 1341 Q167 1318 167 1286 L106 1286 Z " />
</g>
</glyph>
<glyph glyph-name="adieresis" unicode="&#xe4;" horiz-adv-x="1294" >
<path fill="black" d="M144 786 Q144 849 179.5 906.5 Q215 964 279 1007.5 Q343 1051 430.5 1076.5 Q518 1102 622 1102 Q723 1102 807.5 1080.5 Q892 1059 952.5 1016.5 Q1013 974 1047 910 Q1081 846 1081 760 L1081 218 Q1081 189 1083 159 Q1085 129 1089.5 101 Q1094 73 1100 49.5 Q1106 26 1114 9 L1114 0 L1050 0 Q1037 39 1031.5 94 Q1026 149 1026 203 L1026 204 Q993 159 945 118.5 Q897 78 832.5 47.5 Q768 17 686.5 -1.5 Q605 -20 506 -20 Q416 -20 342.5 2 Q269 24 217 63 Q165 102 137 156 Q109 210 109 274 Q109 346 150 407 Q191 468 268 511.5 Q345 555 457 579.5 Q569 604 710 604 L1026 604 L1026 762 Q1026 898 922 973 Q818 1048 623 1048 Q533 1048 455.5 1028 Q378 1008 321 972.5 Q264 937 231.5 888.5 Q199 840 199 784 L144 786 Z M1026 549 L712 549 Q585 549 483 528.5 Q381 508 310.5 471 Q240 434 202 383 Q164 332 164 270 Q164 221 189 178 Q214 135 259 102.5 Q304 70 366.5 51.5 Q429 33 504 33 Q695 33 827 103 Q959 173 1026 293 L1026 549 Z " />
<g transform="translate(187,1371)" >
<path fill="black" d="M177 49 Q177 72 195 88.5 Q213 105 239 105 Q265 105 283.5 88.5 Q302 72 302 49 Q302 26 283.5 10 Q265 -6 239 -6 Q213 -6 195 10 Q177 26 177 49 Z " />
</g>
<g transform="translate(722,1371)" >
<path fill="black" d="M177 49 Q177 72 195 88.5 Q213 105 239 105 Q265 105 283.5 88.5 Q302 72 302 49 Q302 26 283.5 10 Q265 -6 239 -6 Q213 -6 195 10 Q177 26 177 49 Z " />
</g>
</glyph>
<glyph glyph-name="aring" unicode="&#xe5;" horiz-adv-x="1294" >
<path fill="black" d="M144 786 Q144 849 179.5 906.5 Q215 964 279 1007.5 Q343 1051 430.5 1076.5 Q518 1102 622 1102 Q723 1102 807.5 1080.5 Q892 1059 952.5 1016.5 Q1013 974 1047 910 Q1081 846 1081 760 L1081 218 Q1081 189 1083 159 Q1085 129 1089.5 101 Q1094 73 1100 49.5 Q1106 26 1114 9 L1114 0 L1050 0 Q1037 39 1031.5 94 Q1026 149 1026 203 L1026 204 Q993 159 945 118.5 Q897 78 832.5 47.5 Q768 17 686.5 -1.5 Q605 -20 506 -20 Q416 -20 342.5 2 Q269 24 217 63 Q165 102 137 156 Q109 210 109 274 Q109 346 150 407 Q191 468 268 511.5 Q345 555 457 579.5 Q569 604 710 604 L1026 604 L1026 762 Q1026 898 922 973 Q818 1048 623 1048 Q533 1048 455.5 1028 Q378 1008 321 972.5 Q264 937 231.5 888.5 Q199 840 199 784 L144 786 Z M1026 549 L712 549 Q585 549 483 528.5 Q381 508 310.5 471 Q240 434 202 383 Q164 332 164 270 Q164 221 189 178 Q214 135 259 102.5 Q304 70 366.5 51.5 Q429 33 504 33 Q695 33 827 103 Q959 173 1026 293 L1026 549 Z " />
<g transform="translate(357,-1)" >
<path fill="black" d="M136 1382 Q136 1419 151.5 1450.5 Q167 1482 194.5 1505.5 Q222 1529 259 1542.5 Q296 1556 338 1556 Q380 1556 417 1542.5 Q454 1529 481 1505.5 Q508 1482 524 1450.5 Q540 1419 540 1382 Q540 1345 524 1314 Q508 1283 481 1260.5 Q454 1238 417 1225 Q380 1212 338 1212 Q296 1212 259 1225 Q222 1238 194.5 1260.5 Q167 1283 151.5 1314 Q136 1345 136 1382 Z M197 1382 Q197 1330 236.5 1298 Q276 1266 338 1266 Q400 1266 439 1298 Q478 1330 478 1382 Q478 1436 439 1469 Q400 1502 338 1502 Q276 1502 236.5 1469 Q197 1436 197 1382 Z " />
</g>
</glyph>
<glyph glyph-name="ae" unicode="&#xe6;" horiz-adv-x="2082" d="M147 778 Q147 848 180.5 907.5 Q214 967 276 1010 Q338 1053 426 1077.5 Q514 1102 624 1102 Q708 1102 777.5 1083 Q847 1064 899.5 1026.5 Q952 989 985.5 932.5 Q1019 876 1031 801 Q1061 870 1108.5 925.5 Q1156 981 1217.5 1020.5 Q1279 1060 1352 1081 Q1425 1102 1506 1102 Q1619 1102 1708 1071.5 Q1797 1041 1859.5 984 Q1922 927 1955 845 Q1988 763 1988 660 L1988 577 L1040 577 L1040 564 L1040 500 Q1040 403 1068 318 Q1096 233 1154.5 170 Q1213 107 1304 70.5 Q1395 34 1522 34 Q1650 34 1751 69.5 Q1852 105 1922 164 L1955 122 Q1922 95 1882.5 69.5 Q1843 44 1791.5 24 Q1740 4 1674 -8 Q1608 -20 1522 -20 Q1432 -20 1356 -1 Q1280 18 1219 52.5 Q1158 87 1112.5 136.5 Q1067 186 1037 247 L1037 219 L1042 218 Q1020 178 977.5 135.5 Q935 93 872.5 58.5 Q810 24 726.5 2 Q643 -20 539 -20 Q436 -20 356.5 1.5 Q277 23 223 63 Q169 103 141 159 Q113 215 113 284 Q113 361 146 424.5 Q179 488 244 534 Q309 580 405 605 Q501 630 628 630 L981 630 L981 720 Q981 876 893.5 962 Q806 1048 624 1048 Q523 1048 444 1027 Q365 1006 311 969 Q257 932 228.5 881 Q200 830 200 771 L147 778 Z M981 229 L981 575 L630 575 Q511 575 424 551 Q337 527 280.5 486.5 Q224 446 196.5 392.5 Q169 339 169 280 Q169 164 263.5 98 Q358 32 535 32 Q623 32 700 53 Q777 74 835.5 104 Q894 134 931.5 168 Q969 202 979 229 L981 229 Z M1933 632 L1933 664 Q1933 745 1906 815 Q1879 885 1825 937 Q1771 989 1691 1018.5 Q1611 1048 1506 1048 Q1407 1048 1326 1016 Q1245 984 1186 928.5 Q1127 873 1090.5 797 Q1054 721 1044 632 L1933 632 Z " />
<glyph glyph-name="ccedilla" unicode="&#xe7;" horiz-adv-x="1244" d="M540 -396 Q589 -396 640.5 -388 Q692 -380 734 -362.5 Q776 -345 803 -318.5 Q830 -292 830 -255 Q830 -222 815 -200.5 Q800 -179 771 -165 Q742 -151 699.5 -143.5 Q657 -136 601 -131 L628 -20 Q507 -17 412 23.5 Q317 64 251.5 135.5 Q186 207 151.5 305 Q117 403 117 520 L117 562 Q117 681 152.5 780 Q188 879 255.5 950.5 Q323 1022 420.5 1062 Q518 1102 642 1102 Q735 1102 820 1078 Q905 1054 971 1006.5 Q1037 959 1078 888.5 Q1119 818 1123 725 L1068 725 Q1064 806 1027 866.5 Q990 927 931.5 967.5 Q873 1008 798 1028 Q723 1048 642 1048 Q522 1048 433.5 1010 Q345 972 287 906 Q229 840 200.5 751.5 Q172 663 172 562 L172 520 Q172 418 200.5 329.5 Q229 241 287 175.5 Q345 110 434 72 Q523 34 644 34 Q721 34 795 51 Q869 68 927.5 103.5 Q986 139 1024 194.5 Q1062 250 1068 328 L1123 328 Q1119 250 1083 188 Q1047 126 988 82 Q929 38 851.5 12 Q774 -14 686 -19 L675 -86 Q716 -89 754.5 -99 Q793 -109 823 -128.5 Q853 -148 871 -179 Q889 -210 889 -255 Q889 -298 865.5 -333 Q842 -368 797.5 -393 Q753 -418 690 -431.5 Q627 -445 548 -445 L540 -396 Z " />
<glyph glyph-name="egrave" unicode="&#xe8;" horiz-adv-x="1234" >
<path fill="black" d="M104 562 Q104 681 146.5 780 Q189 879 263 950.5 Q337 1022 436 1062 Q535 1102 647 1102 Q753 1102 843 1068.5 Q933 1035 998.5 974 Q1064 913 1101 828 Q1138 743 1138 640 L1138 577 L159 577 L159 562 L159 518 Q159 417 198.5 328.5 Q238 240 306.5 174.5 Q375 109 468.5 71 Q562 33 670 33 Q726 33 778 40 Q830 47 879 64 Q928 81 972.5 110 Q1017 139 1058 182 L1098 155 Q1034 78 929.5 29 Q825 -20 671 -20 Q554 -20 450.5 20 Q347 60 270 131.5 Q193 203 148.5 301.5 Q104 400 104 518 L104 562 Z M1083 631 L1083 644 Q1083 725 1052 798.5 Q1021 872 964 927.5 Q907 983 826.5 1015.5 Q746 1048 647 1048 Q547 1048 463.5 1016 Q380 984 317 927.5 Q254 871 214.5 795 Q175 719 163 631 L1083 631 Z " />
<g transform="translate(249,-2)" >
<path fill="black" d="M415 1270 L186 1536 L254 1536 L479 1270 L415 1270 Z " />
</g>
</glyph>
<glyph glyph-name="eacute" unicode="&#xe9;" horiz-adv-x="1234" >
<path fill="black" d="M104 562 Q104 681 146.5 780 Q189 879 263 950.5 Q337 1022 436 1062 Q535 1102 647 1102 Q753 1102 843 1068.5 Q933 1035 998.5 974 Q1064 913 1101 828 Q1138 743 1138 640 L1138 577 L159 577 L159 562 L159 518 Q159 417 198.5 328.5 Q238 240 306.5 174.5 Q375 109 468.5 71 Q562 33 670 33 Q726 33 778 40 Q830 47 879 64 Q928 81 972.5 110 Q1017 139 1058 182 L1098 155 Q1034 78 929.5 29 Q825 -20 671 -20 Q554 -20 450.5 20 Q347 60 270 131.5 Q193 203 148.5 301.5 Q104 400 104 518 L104 562 Z M1083 631 L1083 644 Q1083 725 1052 798.5 Q1021 872 964 927.5 Q907 983 826.5 1015.5 Q746 1048 647 1048 Q547 1048 463.5 1016 Q380 984 317 927.5 Q254 871 214.5 795 Q175 719 163 631 L1083 631 Z " />
<g transform="translate(487,-2)" >
<path fill="black" d="M377 1536 L445 1536 L216 1270 L151 1270 L377 1536 Z " />
</g>
</glyph>
<glyph glyph-name="ecircumflex" unicode="&#xea;" horiz-adv-x="1234" >
<path fill="black" d="M104 562 Q104 681 146.5 780 Q189 879 263 950.5 Q337 1022 436 1062 Q535 1102 647 1102 Q753 1102 843 1068.5 Q933 1035 998.5 974 Q1064 913 1101 828 Q1138 743 1138 640 L1138 577 L159 577 L159 562 L159 518 Q159 417 198.5 328.5 Q238 240 306.5 174.5 Q375 109 468.5 71 Q562 33 670 33 Q726 33 778 40 Q830 47 879 64 Q928 81 972.5 110 Q1017 139 1058 182 L1098 155 Q1034 78 929.5 29 Q825 -20 671 -20 Q554 -20 450.5 20 Q347 60 270 131.5 Q193 203 148.5 301.5 Q104 400 104 518 L104 562 Z M1083 631 L1083 644 Q1083 725 1052 798.5 Q1021 872 964 927.5 Q907 983 826.5 1015.5 Q746 1048 647 1048 Q547 1048 463.5 1016 Q380 984 317 927.5 Q254 871 214.5 795 Q175 719 163 631 L1083 631 Z " />
<g transform="translate(204,-2)" >
<path fill="black" d="M181 1278 L456 1517 L499 1517 L778 1274 L778 1264 L703 1264 L476 1460 L251 1264 L181 1264 L181 1278 Z " />
</g>
</glyph>
<glyph glyph-name="edieresis" unicode="&#xeb;" horiz-adv-x="1234" >
<path fill="black" d="M104 562 Q104 681 146.5 780 Q189 879 263 950.5 Q337 1022 436 1062 Q535 1102 647 1102 Q753 1102 843 1068.5 Q933 1035 998.5 974 Q1064 913 1101 828 Q1138 743 1138 640 L1138 577 L159 577 L159 562 L159 518 Q159 417 198.5 328.5 Q238 240 306.5 174.5 Q375 109 468.5 71 Q562 33 670 33 Q726 33 778 40 Q830 47 879 64 Q928 81 972.5 110 Q1017 139 1058 182 L1098 155 Q1034 78 929.5 29 Q825 -20 671 -20 Q554 -20 450.5 20 Q347 60 270 131.5 Q193 203 148.5 301.5 Q104 400 104 518 L104 562 Z M1083 631 L1083 644 Q1083 725 1052 798.5 Q1021 872 964 927.5 Q907 983 826.5 1015.5 Q746 1048 647 1048 Q547 1048 463.5 1016 Q380 984 317 927.5 Q254 871 214.5 795 Q175 719 163 631 L1083 631 Z " />
<g transform="translate(176,1370)" >
<path fill="black" d="M177 49 Q177 72 195 88.5 Q213 105 239 105 Q265 105 283.5 88.5 Q302 72 302 49 Q302 26 283.5 10 Q265 -6 239 -6 Q213 -6 195 10 Q177 26 177 49 Z " />
</g>
<g transform="translate(711,1370)" >
<path fill="black" d="M177 49 Q177 72 195 88.5 Q213 105 239 105 Q265 105 283.5 88.5 Q302 72 302 49 Q302 26 283.5 10 Q265 -6 239 -6 Q213 -6 195 10 Q177 26 177 49 Z " />
</g>
</glyph>
<glyph glyph-name="igrave" unicode="&#xec;" horiz-adv-x="480" >
<g transform="translate(-184,-24)" >
<path fill="black" d="M415 1270 L186 1536 L254 1536 L479 1270 L415 1270 Z " />
</g>
<path fill="black" d="M219 0 L219 1082 L274 1082 L274 0 L219 0 Z " />
</glyph>
<glyph glyph-name="iacute" unicode="&#xed;" horiz-adv-x="480" >
<g transform="translate(54,-24)" >
<path fill="black" d="M377 1536 L445 1536 L216 1270 L151 1270 L377 1536 Z " />
</g>
<path fill="black" d="M219 0 L219 1082 L274 1082 L274 0 L219 0 Z " />
</glyph>
<glyph glyph-name="icircumflex" unicode="&#xee;" horiz-adv-x="480" >
<g transform="translate(-229,-24)" >
<path fill="black" d="M181 1278 L456 1517 L499 1517 L778 1274 L778 1264 L703 1264 L476 1460 L251 1264 L181 1264 L181 1278 Z " />
</g>
<path fill="black" d="M219 0 L219 1082 L274 1082 L274 0 L219 0 Z " />
</glyph>
<glyph glyph-name="idieresis" unicode="&#xef;" horiz-adv-x="480" >
<path fill="black" d="M219 0 L219 1082 L274 1082 L274 0 L219 0 Z " />
<g transform="translate(-257,1348)" >
<path fill="black" d="M177 49 Q177 72 195 88.5 Q213 105 239 105 Q265 105 283.5 88.5 Q302 72 302 49 Q302 26 283.5 10 Q265 -6 239 -6 Q213 -6 195 10 Q177 26 177 49 Z " />
</g>
<g transform="translate(278,1348)" >
<path fill="black" d="M177 49 Q177 72 195 88.5 Q213 105 239 105 Q265 105 283.5 88.5 Q302 72 302 49 Q302 26 283.5 10 Q265 -6 239 -6 Q213 -6 195 10 Q177 26 177 49 Z " />
</g>
</glyph>
<glyph glyph-name="eth" unicode="&#xf0;" horiz-adv-x="1419" d="M1247 582 L1247 535 Q1247 412 1210.5 309.5 Q1174 207 1109 134 Q1044 61 954 20.5 Q864 -20 757 -20 Q637 -20 536.5 17.5 Q436 55 363.5 120.5 Q291 186 251 274.5 Q211 363 211 465 Q211 581 245.5 672 Q280 763 346 825.5 Q412 888 507 920.5 Q602 953 723 953 Q792 953 858.5 941.5 Q925 930 985 907.5 Q1045 885 1095.5 851.5 Q1146 818 1182 775 Q1159 945 1087.5 1068.5 Q1016 1192 908 1282 L625 1149 L595 1197 L858 1320 Q764 1388 651.5 1438 Q539 1488 412 1527 L433 1577 Q582 1532 701.5 1475.5 Q821 1419 915 1347 L1158 1461 L1189 1413 L964 1308 Q1103 1187 1173 1022.5 Q1243 858 1247 639 Q1249 625 1250.5 611 Q1252 597 1252 583 L1247 582 Z M267 465 Q267 385 299.5 308 Q332 231 395 171 Q458 111 550 74.5 Q642 38 762 38 Q861 38 940.5 75 Q1020 112 1076 178 Q1132 244 1162 335.5 Q1192 427 1192 535 L1192 617 Q1192 631 1192 644 Q1192 657 1191 671 Q1170 712 1130.5 752.5 Q1091 793 1032.5 824.5 Q974 856 896.5 875.5 Q819 895 720 895 Q600 895 514.5 861.5 Q429 828 374 770 Q319 712 293 633.5 Q267 555 267 465 Z " />
<glyph glyph-name="ntilde" unicode="&#xf1;" horiz-adv-x="1344" >
<path fill="black" d="M209 1082 L265 1082 L264 851 L264 816 Q292 876 337 928 Q382 980 441 1019 Q500 1058 573 1080 Q646 1102 730 1102 Q829 1102 905.5 1079.5 Q982 1057 1034.5 1008.5 Q1087 960 1114.5 884 Q1142 808 1142 700 L1142 0 L1087 0 L1087 700 Q1087 803 1060.5 870.5 Q1034 938 987 977.5 Q940 1017 874 1033 Q808 1049 730 1049 Q619 1049 537 1011.5 Q455 974 398.5 918 Q342 862 309.5 798 Q277 734 264 681 L264 0 L209 0 L209 1082 Z " />
<g transform="translate(218,12)" >
<path fill="black" d="M106 1286 Q106 1327 122 1360.5 Q138 1394 166 1417 Q194 1440 232 1452.5 Q270 1465 314 1465 Q377 1465 420 1445.5 Q463 1426 499.5 1403 Q536 1380 572.5 1360.5 Q609 1341 660 1341 Q690 1341 716.5 1349.5 Q743 1358 763.5 1375 Q784 1392 795.5 1416.5 Q807 1441 807 1472 L868 1472 Q868 1430 851.5 1396 Q835 1362 807 1337.5 Q779 1313 741 1299.5 Q703 1286 659 1286 Q594 1286 552 1305.5 Q510 1325 475 1348.5 Q440 1372 403.5 1391.5 Q367 1411 314 1411 Q283 1411 256.5 1403.5 Q230 1396 210 1380 Q190 1364 178.5 1341 Q167 1318 167 1286 L106 1286 Z " />
</g>
</glyph>
<glyph glyph-name="ograve" unicode="&#xf2;" horiz-adv-x="1350" >
<path fill="black" d="M108 562 Q108 681 149.5 780 Q191 879 266 950.5 Q341 1022 445 1062 Q549 1102 674 1102 Q801 1102 905.5 1062 Q1010 1022 1085 950.5 Q1160 879 1201 780 Q1242 681 1242 562 L1242 520 Q1242 401 1201 302 Q1160 203 1085.5 131.5 Q1011 60 907 20 Q803 -20 677 -20 Q551 -20 446 20 Q341 60 266 131.5 Q191 203 149.5 302 Q108 401 108 520 L108 562 Z M163 520 Q163 423 198 335 Q233 247 299 180 Q365 113 460.5 73.5 Q556 34 677 34 Q797 34 891.5 73.5 Q986 113 1052 180 Q1118 247 1152.5 335 Q1187 423 1187 520 L1187 562 Q1187 657 1152.5 744.5 Q1118 832 1052 899.5 Q986 967 890.5 1007.5 Q795 1048 674 1048 Q554 1048 459 1007.5 Q364 967 298 899.5 Q232 832 197.5 744.5 Q163 657 163 562 L163 520 Z " />
<g transform="translate(248,-3)" >
<path fill="black" d="M415 1270 L186 1536 L254 1536 L479 1270 L415 1270 Z " />
</g>
</glyph>
<glyph glyph-name="oacute" unicode="&#xf3;" horiz-adv-x="1350" >
<path fill="black" d="M108 562 Q108 681 149.5 780 Q191 879 266 950.5 Q341 1022 445 1062 Q549 1102 674 1102 Q801 1102 905.5 1062 Q1010 1022 1085 950.5 Q1160 879 1201 780 Q1242 681 1242 562 L1242 520 Q1242 401 1201 302 Q1160 203 1085.5 131.5 Q1011 60 907 20 Q803 -20 677 -20 Q551 -20 446 20 Q341 60 266 131.5 Q191 203 149.5 302 Q108 401 108 520 L108 562 Z M163 520 Q163 423 198 335 Q233 247 299 180 Q365 113 460.5 73.5 Q556 34 677 34 Q797 34 891.5 73.5 Q986 113 1052 180 Q1118 247 1152.5 335 Q1187 423 1187 520 L1187 562 Q1187 657 1152.5 744.5 Q1118 832 1052 899.5 Q986 967 890.5 1007.5 Q795 1048 674 1048 Q554 1048 459 1007.5 Q364 967 298 899.5 Q232 832 197.5 744.5 Q163 657 163 562 L163 520 Z " />
<g transform="translate(486,-3)" >
<path fill="black" d="M377 1536 L445 1536 L216 1270 L151 1270 L377 1536 Z " />
</g>
</glyph>
<glyph glyph-name="ocircumflex" unicode="&#xf4;" horiz-adv-x="1350" >
<path fill="black" d="M108 562 Q108 681 149.5 780 Q191 879 266 950.5 Q341 1022 445 1062 Q549 1102 674 1102 Q801 1102 905.5 1062 Q1010 1022 1085 950.5 Q1160 879 1201 780 Q1242 681 1242 562 L1242 520 Q1242 401 1201 302 Q1160 203 1085.5 131.5 Q1011 60 907 20 Q803 -20 677 -20 Q551 -20 446 20 Q341 60 266 131.5 Q191 203 149.5 302 Q108 401 108 520 L108 562 Z M163 520 Q163 423 198 335 Q233 247 299 180 Q365 113 460.5 73.5 Q556 34 677 34 Q797 34 891.5 73.5 Q986 113 1052 180 Q1118 247 1152.5 335 Q1187 423 1187 520 L1187 562 Q1187 657 1152.5 744.5 Q1118 832 1052 899.5 Q986 967 890.5 1007.5 Q795 1048 674 1048 Q554 1048 459 1007.5 Q364 967 298 899.5 Q232 832 197.5 744.5 Q163 657 163 562 L163 520 Z " />
<g transform="translate(203,-3)" >
<path fill="black" d="M181 1278 L456 1517 L499 1517 L778 1274 L778 1264 L703 1264 L476 1460 L251 1264 L181 1264 L181 1278 Z " />
</g>
</glyph>
<glyph glyph-name="otilde" unicode="&#xf5;" horiz-adv-x="1350" >
<path fill="black" d="M108 562 Q108 681 149.5 780 Q191 879 266 950.5 Q341 1022 445 1062 Q549 1102 674 1102 Q801 1102 905.5 1062 Q1010 1022 1085 950.5 Q1160 879 1201 780 Q1242 681 1242 562 L1242 520 Q1242 401 1201 302 Q1160 203 1085.5 131.5 Q1011 60 907 20 Q803 -20 677 -20 Q551 -20 446 20 Q341 60 266 131.5 Q191 203 149.5 302 Q108 401 108 520 L108 562 Z M163 520 Q163 423 198 335 Q233 247 299 180 Q365 113 460.5 73.5 Q556 34 677 34 Q797 34 891.5 73.5 Q986 113 1052 180 Q1118 247 1152.5 335 Q1187 423 1187 520 L1187 562 Q1187 657 1152.5 744.5 Q1118 832 1052 899.5 Q986 967 890.5 1007.5 Q795 1048 674 1048 Q554 1048 459 1007.5 Q364 967 298 899.5 Q232 832 197.5 744.5 Q163 657 163 562 L163 520 Z " />
<g transform="translate(204,12)" >
<path fill="black" d="M106 1286 Q106 1327 122 1360.5 Q138 1394 166 1417 Q194 1440 232 1452.5 Q270 1465 314 1465 Q377 1465 420 1445.5 Q463 1426 499.5 1403 Q536 1380 572.5 1360.5 Q609 1341 660 1341 Q690 1341 716.5 1349.5 Q743 1358 763.5 1375 Q784 1392 795.5 1416.5 Q807 1441 807 1472 L868 1472 Q868 1430 851.5 1396 Q835 1362 807 1337.5 Q779 1313 741 1299.5 Q703 1286 659 1286 Q594 1286 552 1305.5 Q510 1325 475 1348.5 Q440 1372 403.5 1391.5 Q367 1411 314 1411 Q283 1411 256.5 1403.5 Q230 1396 210 1380 Q190 1364 178.5 1341 Q167 1318 167 1286 L106 1286 Z " />
</g>
</glyph>
<glyph glyph-name="odieresis" unicode="&#xf6;" horiz-adv-x="1350" >
<path fill="black" d="M108 562 Q108 681 149.5 780 Q191 879 266 950.5 Q341 1022 445 1062 Q549 1102 674 1102 Q801 1102 905.5 1062 Q1010 1022 1085 950.5 Q1160 879 1201 780 Q1242 681 1242 562 L1242 520 Q1242 401 1201 302 Q1160 203 1085.5 131.5 Q1011 60 907 20 Q803 -20 677 -20 Q551 -20 446 20 Q341 60 266 131.5 Q191 203 149.5 302 Q108 401 108 520 L108 562 Z M163 520 Q163 423 198 335 Q233 247 299 180 Q365 113 460.5 73.5 Q556 34 677 34 Q797 34 891.5 73.5 Q986 113 1052 180 Q1118 247 1152.5 335 Q1187 423 1187 520 L1187 562 Q1187 657 1152.5 744.5 Q1118 832 1052 899.5 Q986 967 890.5 1007.5 Q795 1048 674 1048 Q554 1048 459 1007.5 Q364 967 298 899.5 Q232 832 197.5 744.5 Q163 657 163 562 L163 520 Z " />
<g transform="translate(175,1369)" >
<path fill="black" d="M177 49 Q177 72 195 88.5 Q213 105 239 105 Q265 105 283.5 88.5 Q302 72 302 49 Q302 26 283.5 10 Q265 -6 239 -6 Q213 -6 195 10 Q177 26 177 49 Z " />
</g>
<g transform="translate(710,1369)" >
<path fill="black" d="M177 49 Q177 72 195 88.5 Q213 105 239 105 Q265 105 283.5 88.5 Q302 72 302 49 Q302 26 283.5 10 Q265 -6 239 -6 Q213 -6 195 10 Q177 26 177 49 Z " />
</g>
</glyph>
<glyph glyph-name="divide" unicode="&#xf7;" horiz-adv-x="1391" d="M88 686 L88 738 L1286 738 L1286 686 L88 686 Z M640 301 Q640 324 658 340.5 Q676 357 702 357 Q728 357 746.5 340.5 Q765 324 765 301 Q765 278 746.5 262 Q728 246 702 246 Q676 246 658 262 Q640 278 640 301 Z M640 1079 Q640 1102 658 1118.5 Q676 1135 702 1135 Q728 1135 746.5 1118.5 Q765 1102 765 1079 Q765 1056 746.5 1040 Q728 1024 702 1024 Q676 1024 658 1040 Q640 1056 640 1079 Z " />
<glyph glyph-name="oslash" unicode="&#xf8;" horiz-adv-x="1121" d="M364 56 Q243 125 174 245 Q105 365 105 520 L105 562 Q105 681 146.5 780 Q188 879 263 950.5 Q338 1022 442 1062 Q546 1102 671 1102 Q747 1102 814.5 1087.5 Q882 1073 942 1046 L1043 1219 L1114 1219 L996 1017 Q1111 947 1175 830 Q1239 713 1239 562 L1239 520 Q1239 401 1198 302 Q1157 203 1082.5 131.5 Q1008 60 904 20 Q800 -20 674 -20 Q533 -20 420 29 L318 -145 L247 -145 L364 56 Z M913 996 Q861 1021 800.5 1034.5 Q740 1048 671 1048 Q551 1048 456 1007.5 Q361 967 295 899.5 Q229 832 194.5 744.5 Q160 657 160 562 L160 520 Q160 456 175.5 395.5 Q191 335 220.5 281 Q250 227 293.5 182.5 Q337 138 393 105 L913 996 Z M448 77 Q497 57 553.5 45.5 Q610 34 674 34 Q794 34 888.5 73.5 Q983 113 1049 180 Q1115 247 1149.5 335 Q1184 423 1184 520 L1184 562 Q1184 622 1170 680.5 Q1156 739 1128 791.5 Q1100 844 1060 888.5 Q1020 933 967 967 L448 77 Z " />
<glyph glyph-name="ugrave" unicode="&#xf9;" horiz-adv-x="1344" >
<path fill="black" d="M204 1082 L259 1082 L259 393 Q259 294 286.5 225.5 Q314 157 363 114.5 Q412 72 479.5 53 Q547 34 627 34 Q739 34 819.5 58 Q900 82 954.5 122.5 Q1009 163 1040 216.5 Q1071 270 1083 330 L1083 1082 L1140 1082 L1140 425 L1145 425 Q1145 405 1143.5 386 Q1142 367 1140 348 L1140 0 L1083 0 L1083 182 Q1026 89 915 34.5 Q804 -20 631 -20 Q536 -20 457.5 2.5 Q379 25 322.5 74.5 Q266 124 235 203 Q204 282 204 395 L204 1082 Z " />
<g transform="translate(265,0)" >
<path fill="black" d="M415 1270 L186 1536 L254 1536 L479 1270 L415 1270 Z " />
</g>
</glyph>
<glyph glyph-name="uacute" unicode="&#xfa;" horiz-adv-x="1344" >
<path fill="black" d="M204 1082 L259 1082 L259 393 Q259 294 286.5 225.5 Q314 157 363 114.5 Q412 72 479.5 53 Q547 34 627 34 Q739 34 819.5 58 Q900 82 954.5 122.5 Q1009 163 1040 216.5 Q1071 270 1083 330 L1083 1082 L1140 1082 L1140 425 L1145 425 Q1145 405 1143.5 386 Q1142 367 1140 348 L1140 0 L1083 0 L1083 182 Q1026 89 915 34.5 Q804 -20 631 -20 Q536 -20 457.5 2.5 Q379 25 322.5 74.5 Q266 124 235 203 Q204 282 204 395 L204 1082 Z " />
<g transform="translate(503,0)" >
<path fill="black" d="M377 1536 L445 1536 L216 1270 L151 1270 L377 1536 Z " />
</g>
</glyph>
<glyph glyph-name="ucircumflex" unicode="&#xfb;" horiz-adv-x="1344" >
<path fill="black" d="M204 1082 L259 1082 L259 393 Q259 294 286.5 225.5 Q314 157 363 114.5 Q412 72 479.5 53 Q547 34 627 34 Q739 34 819.5 58 Q900 82 954.5 122.5 Q1009 163 1040 216.5 Q1071 270 1083 330 L1083 1082 L1140 1082 L1140 425 L1145 425 Q1145 405 1143.5 386 Q1142 367 1140 348 L1140 0 L1083 0 L1083 182 Q1026 89 915 34.5 Q804 -20 631 -20 Q536 -20 457.5 2.5 Q379 25 322.5 74.5 Q266 124 235 203 Q204 282 204 395 L204 1082 Z " />
<g transform="translate(220,0)" >
<path fill="black" d="M181 1278 L456 1517 L499 1517 L778 1274 L778 1264 L703 1264 L476 1460 L251 1264 L181 1264 L181 1278 Z " />
</g>
</glyph>
<glyph glyph-name="udieresis" unicode="&#xfc;" horiz-adv-x="1344" >
<path fill="black" d="M204 1082 L259 1082 L259 393 Q259 294 286.5 225.5 Q314 157 363 114.5 Q412 72 479.5 53 Q547 34 627 34 Q739 34 819.5 58 Q900 82 954.5 122.5 Q1009 163 1040 216.5 Q1071 270 1083 330 L1083 1082 L1140 1082 L1140 425 L1145 425 Q1145 405 1143.5 386 Q1142 367 1140 348 L1140 0 L1083 0 L1083 182 Q1026 89 915 34.5 Q804 -20 631 -20 Q536 -20 457.5 2.5 Q379 25 322.5 74.5 Q266 124 235 203 Q204 282 204 395 L204 1082 Z " />
<g transform="translate(192,1372)" >
<path fill="black" d="M177 49 Q177 72 195 88.5 Q213 105 239 105 Q265 105 283.5 88.5 Q302 72 302 49 Q302 26 283.5 10 Q265 -6 239 -6 Q213 -6 195 10 Q177 26 177 49 Z " />
</g>
<g transform="translate(727,1372)" >
<path fill="black" d="M177 49 Q177 72 195 88.5 Q213 105 239 105 Q265 105 283.5 88.5 Q302 72 302 49 Q302 26 283.5 10 Q265 -6 239 -6 Q213 -6 195 10 Q177 26 177 49 Z " />
</g>
</glyph>
<glyph glyph-name="yacute" unicode="&#xfd;" horiz-adv-x="1174" >
<path fill="black" d="M117 -375 Q126 -377 139 -378.5 Q152 -380 165 -381.5 Q178 -383 189.5 -383.5 Q201 -384 207 -384 Q267 -384 311.5 -368 Q356 -352 389.5 -323.5 Q423 -295 448 -256 Q473 -217 494 -170 L573 7 L53 1082 L113 1082 L606 80 L617 104 L1071 1082 L1132 1082 L552 -180 Q536 -214 514.5 -258.5 Q493 -303 455.5 -342.5 Q418 -382 360 -409.5 Q302 -437 213 -437 Q203 -437 189.5 -436.5 Q176 -436 162.5 -434.5 Q149 -433 137 -431 Q125 -429 118 -426 L117 -375 Z " />
<g transform="translate(429,0)" >
<path fill="black" d="M377 1536 L445 1536 L216 1270 L151 1270 L377 1536 Z " />
</g>
</glyph>
<glyph glyph-name="thorn" unicode="&#xfe;" horiz-adv-x="1341" d="M205 293 L202 305 L202 745 L205 755 L205 1536 L261 1536 L261 879 Q292 929 335.5 970 Q379 1011 434.5 1040.5 Q490 1070 557.5 1086 Q625 1102 705 1102 Q821 1102 911.5 1064 Q1002 1026 1065 955 Q1128 884 1161 782 Q1194 680 1194 552 L1194 531 Q1194 407 1161 305.5 Q1128 204 1065.5 131.5 Q1003 59 913 19.5 Q823 -20 708 -20 Q627 -20 558.5 -5 Q490 10 434 36 Q378 62 334.5 98.5 Q291 135 261 177 L261 -416 L205 -416 L205 293 Z M261 273 Q284 222 323.5 178.5 Q363 135 419 102.5 Q475 70 548.5 52 Q622 34 713 34 Q820 34 900 71 Q980 108 1033 174.5 Q1086 241 1112 332 Q1138 423 1138 531 L1138 552 Q1138 660 1112 751 Q1086 842 1032.5 908 Q979 974 899 1011 Q819 1048 711 1048 Q604 1048 527.5 1022.5 Q451 997 398 957 Q345 917 312.5 868 Q280 819 261 771 L261 273 Z " />
<glyph glyph-name="ydieresis" unicode="&#xff;" horiz-adv-x="1174" >
<path fill="black" d="M117 -375 Q126 -377 139 -378.5 Q152 -380 165 -381.5 Q178 -383 189.5 -383.5 Q201 -384 207 -384 Q267 -384 311.5 -368 Q356 -352 389.5 -323.5 Q423 -295 448 -256 Q473 -217 494 -170 L573 7 L53 1082 L113 1082 L606 80 L617 104 L1071 1082 L1132 1082 L552 -180 Q536 -214 514.5 -258.5 Q493 -303 455.5 -342.5 Q418 -382 360 -409.5 Q302 -437 213 -437 Q203 -437 189.5 -436.5 Q176 -436 162.5 -434.5 Q149 -433 137 -431 Q125 -429 118 -426 L117 -375 Z " />
<g transform="translate(118,1372)" >
<path fill="black" d="M177 49 Q177 72 195 88.5 Q213 105 239 105 Q265 105 283.5 88.5 Q302 72 302 49 Q302 26 283.5 10 Q265 -6 239 -6 Q213 -6 195 10 Q177 26 177 49 Z " />
</g>
<g transform="translate(653,1372)" >
<path fill="black" d="M177 49 Q177 72 195 88.5 Q213 105 239 105 Q265 105 283.5 88.5 Q302 72 302 49 Q302 26 283.5 10 Q265 -6 239 -6 Q213 -6 195 10 Q177 26 177 49 Z " />
</g>
</glyph>
<glyph glyph-name="Amacron" unicode="&#x100;" horiz-adv-x="1459" d="M693 1456 L765 1456 L1418 0 L1357 0 L1161 435 L297 435 L101 0 L40 0 L693 1456 Z M1137 489 L729 1397 L321 489 L1137 489 Z M396 1766 L1069 1766 L1069 1713 L396 1713 L396 1766 Z " />
<glyph glyph-name="amacron" unicode="&#x101;" horiz-adv-x="1294" d="M144 786 Q144 849 179.5 906.5 Q215 964 279 1007.5 Q343 1051 430.5 1076.5 Q518 1102 622 1102 Q723 1102 807.5 1080.5 Q892 1059 952.5 1016.5 Q1013 974 1047 910 Q1081 846 1081 760 L1081 218 Q1081 189 1083 159 Q1085 129 1089.5 101 Q1094 73 1100 49.5 Q1106 26 1114 9 L1114 0 L1050 0 Q1037 39 1031.5 94 Q1026 149 1026 203 L1026 204 Q993 159 945 118.5 Q897 78 832.5 47.5 Q768 17 686.5 -1.5 Q605 -20 506 -20 Q416 -20 342.5 2 Q269 24 217 63 Q165 102 137 156 Q109 210 109 274 Q109 346 150 407 Q191 468 268 511.5 Q345 555 457 579.5 Q569 604 710 604 L1026 604 L1026 762 Q1026 898 922 973 Q818 1048 623 1048 Q533 1048 455.5 1028 Q378 1008 321 972.5 Q264 937 231.5 888.5 Q199 840 199 784 L144 786 Z M1026 549 L712 549 Q585 549 483 528.5 Q381 508 310.5 471 Q240 434 202 383 Q164 332 164 270 Q164 221 189 178 Q214 135 259 102.5 Q304 70 366.5 51.5 Q429 33 504 33 Q695 33 827 103 Q959 173 1026 293 L1026 549 Z M358 1446 L1031 1446 L1031 1393 L358 1393 L358 1446 Z " />
<glyph glyph-name="Abreve" unicode="&#x102;" horiz-adv-x="1459" >
<path fill="black" d="M693 1456 L765 1456 L1418 0 L1357 0 L1161 435 L297 435 L101 0 L40 0 L693 1456 Z M1137 489 L729 1397 L321 489 L1137 489 Z " />
<g transform="translate(217,324)" >
<path fill="black" d="M236 1486 Q236 1447 250.5 1412 Q265 1377 297.5 1350.5 Q330 1324 382.5 1309 Q435 1294 511 1294 Q584 1294 636 1309.5 Q688 1325 721.5 1351.5 Q755 1378 770.5 1412.5 Q786 1447 786 1486 L843 1486 Q843 1431 820.5 1385.5 Q798 1340 755 1307 Q712 1274 650.5 1256 Q589 1238 511 1238 Q433 1238 371 1256 Q309 1274 266.5 1307 Q224 1340 201 1385.5 Q178 1431 178 1486 L236 1486 Z " />
</g>
</glyph>
<glyph glyph-name="abreve" unicode="&#x103;" horiz-adv-x="1294" >
<path fill="black" d="M144 786 Q144 849 179.5 906.5 Q215 964 279 1007.5 Q343 1051 430.5 1076.5 Q518 1102 622 1102 Q723 1102 807.5 1080.5 Q892 1059 952.5 1016.5 Q1013 974 1047 910 Q1081 846 1081 760 L1081 218 Q1081 189 1083 159 Q1085 129 1089.5 101 Q1094 73 1100 49.5 Q1106 26 1114 9 L1114 0 L1050 0 Q1037 39 1031.5 94 Q1026 149 1026 203 L1026 204 Q993 159 945 118.5 Q897 78 832.5 47.5 Q768 17 686.5 -1.5 Q605 -20 506 -20 Q416 -20 342.5 2 Q269 24 217 63 Q165 102 137 156 Q109 210 109 274 Q109 346 150 407 Q191 468 268 511.5 Q345 555 457 579.5 Q569 604 710 604 L1026 604 L1026 762 Q1026 898 922 973 Q818 1048 623 1048 Q533 1048 455.5 1028 Q378 1008 321 972.5 Q264 937 231.5 888.5 Q199 840 199 784 L144 786 Z M1026 549 L712 549 Q585 549 483 528.5 Q381 508 310.5 471 Q240 434 202 383 Q164 332 164 270 Q164 221 189 178 Q214 135 259 102.5 Q304 70 366.5 51.5 Q429 33 504 33 Q695 33 827 103 Q959 173 1026 293 L1026 549 Z " />
<g transform="translate(179,4)" >
<path fill="black" d="M236 1486 Q236 1447 250.5 1412 Q265 1377 297.5 1350.5 Q330 1324 382.5 1309 Q435 1294 511 1294 Q584 1294 636 1309.5 Q688 1325 721.5 1351.5 Q755 1378 770.5 1412.5 Q786 1447 786 1486 L843 1486 Q843 1431 820.5 1385.5 Q798 1340 755 1307 Q712 1274 650.5 1256 Q589 1238 511 1238 Q433 1238 371 1256 Q309 1274 266.5 1307 Q224 1340 201 1385.5 Q178 1431 178 1486 L236 1486 Z " />
</g>
</glyph>
<glyph glyph-name="Aogonek" unicode="&#x104;" horiz-adv-x="1459" d="M693 1456 L765 1456 L1417 1 L1421 0 Q1378 -28 1337 -56.5 Q1296 -85 1264.5 -115 Q1233 -145 1213.5 -177.5 Q1194 -210 1194 -246 Q1194 -264 1199 -281.5 Q1204 -299 1217 -312 Q1230 -325 1252 -333 Q1274 -341 1307 -341 Q1355 -341 1386 -328.5 Q1417 -316 1439 -303 L1459 -351 Q1436 -366 1400 -380.5 Q1364 -395 1310 -395 Q1231 -395 1184 -358.5 Q1137 -322 1137 -246 Q1137 -213 1156 -179 Q1175 -145 1205.5 -112.5 Q1236 -80 1275 -49.5 Q1314 -19 1353 8 L1161 435 L297 435 L101 0 L40 0 L693 1456 Z M1137 489 L729 1397 L321 489 L1137 489 Z " />
<glyph glyph-name="aogonek" unicode="&#x105;" horiz-adv-x="1294" d="M1117 0 Q1074 -28 1033 -56.5 Q992 -85 960.5 -115 Q929 -145 909.5 -177.5 Q890 -210 890 -246 Q890 -264 895 -281.5 Q900 -299 913 -312 Q926 -325 948 -333 Q970 -341 1003 -341 Q1051 -341 1082 -328.5 Q1113 -316 1135 -303 L1155 -351 Q1132 -366 1096 -380.5 Q1060 -395 1006 -395 Q927 -395 880 -358.5 Q833 -322 833 -246 Q833 -213 852 -179 Q871 -145 901.5 -112.5 Q932 -80 970.5 -50 Q1009 -20 1048 7 Q1036 46 1031 99 Q1026 152 1026 203 L1026 204 Q993 159 945 118.5 Q897 78 832.5 47.5 Q768 17 686.5 -1.5 Q605 -20 506 -20 Q416 -20 342.5 2 Q269 24 217 63 Q165 102 137 156 Q109 210 109 274 Q109 346 150 407 Q191 468 268 511.5 Q345 555 457 579.5 Q569 604 710 604 L1026 604 L1026 762 Q1026 898 922 973 Q818 1048 623 1048 Q533 1048 455.5 1028 Q378 1008 321 972.5 Q264 937 231.5 888.5 Q199 840 199 784 L144 786 Q144 849 179.5 906.5 Q215 964 279 1007.5 Q343 1051 430.5 1076.5 Q518 1102 622 1102 Q723 1102 807.5 1080.5 Q892 1059 952.5 1016.5 Q1013 974 1047 910 Q1081 846 1081 760 L1081 218 Q1081 189 1083 159 Q1085 129 1089.5 101 Q1094 73 1100 49.5 Q1106 26 1114 9 L1114 1 L1117 0 Z M1026 549 L712 549 Q585 549 483 528.5 Q381 508 310.5 471 Q240 434 202 383 Q164 332 164 270 Q164 221 189 178 Q214 135 259 102.5 Q304 70 366.5 51.5 Q429 33 504 33 Q695 33 827 103 Q959 173 1026 293 L1026 549 Z " />
<glyph glyph-name="Cacute" unicode="&#x106;" horiz-adv-x="1593" >
<path fill="black" d="M175 837 Q175 980 219.5 1097.5 Q264 1215 346 1299 Q428 1383 544 1429.5 Q660 1476 803 1476 Q934 1476 1042 1447 Q1150 1418 1231 1360.5 Q1312 1303 1362 1216 Q1412 1129 1425 1012 L1370 1012 Q1343 1213 1199.5 1317.5 Q1056 1422 803 1422 Q675 1422 569.5 1380.5 Q464 1339 388.5 1262.5 Q313 1186 271.5 1078.5 Q230 971 230 839 L230 619 Q230 487 271.5 379 Q313 271 389 194.5 Q465 118 570.5 76 Q676 34 804 34 Q926 34 1025 58.5 Q1124 83 1196 133.5 Q1268 184 1312.5 261.5 Q1357 339 1370 446 L1425 446 Q1412 328 1361.5 240.5 Q1311 153 1230.5 95 Q1150 37 1042 8.5 Q934 -20 804 -20 Q661 -20 544.5 26.5 Q428 73 346 157 Q264 241 219.5 359 Q175 477 175 619 L175 837 Z " />
<g transform="translate(620,340)" >
<path fill="black" d="M377 1536 L445 1536 L216 1270 L151 1270 L377 1536 Z " />
</g>
</glyph>
<glyph glyph-name="cacute" unicode="&#x107;" horiz-adv-x="1244" >
<path fill="black" d="M117 562 Q117 681 152.5 780 Q188 879 255.5 950.5 Q323 1022 420.5 1062 Q518 1102 642 1102 Q735 1102 820 1078 Q905 1054 971 1006.5 Q1037 959 1078 888.5 Q1119 818 1123 725 L1068 725 Q1064 806 1027 866.5 Q990 927 931.5 967.5 Q873 1008 798 1028 Q723 1048 642 1048 Q522 1048 433.5 1010 Q345 972 287 906 Q229 840 200.5 751.5 Q172 663 172 562 L172 520 Q172 418 200.5 329.5 Q229 241 287 175.5 Q345 110 434 72 Q523 34 644 34 Q721 34 795 51 Q869 68 927.5 103.5 Q986 139 1024 194.5 Q1062 250 1068 328 L1123 328 Q1118 246 1078 181 Q1038 116 973 71.5 Q908 27 823.5 3.5 Q739 -20 644 -20 Q519 -20 421 20 Q323 60 255.5 131.5 Q188 203 152.5 302 Q117 401 117 520 L117 562 Z " />
<g transform="translate(464,-3)" >
<path fill="black" d="M377 1536 L445 1536 L216 1270 L151 1270 L377 1536 Z " />
</g>
</glyph>
<glyph glyph-name="Cdotaccent" unicode="&#x10a;" horiz-adv-x="1593" >
<path fill="black" d="M175 837 Q175 980 219.5 1097.5 Q264 1215 346 1299 Q428 1383 544 1429.5 Q660 1476 803 1476 Q934 1476 1042 1447 Q1150 1418 1231 1360.5 Q1312 1303 1362 1216 Q1412 1129 1425 1012 L1370 1012 Q1343 1213 1199.5 1317.5 Q1056 1422 803 1422 Q675 1422 569.5 1380.5 Q464 1339 388.5 1262.5 Q313 1186 271.5 1078.5 Q230 971 230 839 L230 619 Q230 487 271.5 379 Q313 271 389 194.5 Q465 118 570.5 76 Q676 34 804 34 Q926 34 1025 58.5 Q1124 83 1196 133.5 Q1268 184 1312.5 261.5 Q1357 339 1370 446 L1425 446 Q1412 328 1361.5 240.5 Q1311 153 1230.5 95 Q1150 37 1042 8.5 Q934 -20 804 -20 Q661 -20 544.5 26.5 Q428 73 346 157 Q264 241 219.5 359 Q175 477 175 619 L175 837 Z " />
<g transform="translate(575,1688)" >
<path fill="black" d="M177 49 Q177 72 195 88.5 Q213 105 239 105 Q265 105 283.5 88.5 Q302 72 302 49 Q302 26 283.5 10 Q265 -6 239 -6 Q213 -6 195 10 Q177 26 177 49 Z " />
</g>
</glyph>
<glyph glyph-name="cdotaccent" unicode="&#x10b;" horiz-adv-x="1244" >
<path fill="black" d="M117 562 Q117 681 152.5 780 Q188 879 255.5 950.5 Q323 1022 420.5 1062 Q518 1102 642 1102 Q735 1102 820 1078 Q905 1054 971 1006.5 Q1037 959 1078 888.5 Q1119 818 1123 725 L1068 725 Q1064 806 1027 866.5 Q990 927 931.5 967.5 Q873 1008 798 1028 Q723 1048 642 1048 Q522 1048 433.5 1010 Q345 972 287 906 Q229 840 200.5 751.5 Q172 663 172 562 L172 520 Q172 418 200.5 329.5 Q229 241 287 175.5 Q345 110 434 72 Q523 34 644 34 Q721 34 795 51 Q869 68 927.5 103.5 Q986 139 1024 194.5 Q1062 250 1068 328 L1123 328 Q1118 246 1078 181 Q1038 116 973 71.5 Q908 27 823.5 3.5 Q739 -20 644 -20 Q519 -20 421 20 Q323 60 255.5 131.5 Q188 203 152.5 302 Q117 401 117 520 L117 562 Z " />
<g transform="translate(419,1345)" >
<path fill="black" d="M177 49 Q177 72 195 88.5 Q213 105 239 105 Q265 105 283.5 88.5 Q302 72 302 49 Q302 26 283.5 10 Q265 -6 239 -6 Q213 -6 195 10 Q177 26 177 49 Z " />
</g>
</glyph>
<glyph glyph-name="Ccaron" unicode="&#x10c;" horiz-adv-x="1593" >
<path fill="black" d="M175 837 Q175 980 219.5 1097.5 Q264 1215 346 1299 Q428 1383 544 1429.5 Q660 1476 803 1476 Q934 1476 1042 1447 Q1150 1418 1231 1360.5 Q1312 1303 1362 1216 Q1412 1129 1425 1012 L1370 1012 Q1343 1213 1199.5 1317.5 Q1056 1422 803 1422 Q675 1422 569.5 1380.5 Q464 1339 388.5 1262.5 Q313 1186 271.5 1078.5 Q230 971 230 839 L230 619 Q230 487 271.5 379 Q313 271 389 194.5 Q465 118 570.5 76 Q676 34 804 34 Q926 34 1025 58.5 Q1124 83 1196 133.5 Q1268 184 1312.5 261.5 Q1357 339 1370 446 L1425 446 Q1412 328 1361.5 240.5 Q1311 153 1230.5 95 Q1150 37 1042 8.5 Q934 -20 804 -20 Q661 -20 544.5 26.5 Q428 73 346 157 Q264 241 219.5 359 Q175 477 175 619 L175 837 Z " />
<g transform="translate(341,345)" >
<path fill="black" d="M176 1506 L237 1506 L472 1289 L708 1506 L763 1506 L763 1493 L504 1243 L438 1243 L176 1495 L176 1506 Z " />
</g>
</glyph>
<glyph glyph-name="ccaron" unicode="&#x10d;" horiz-adv-x="1244" >
<path fill="black" d="M117 562 Q117 681 152.5 780 Q188 879 255.5 950.5 Q323 1022 420.5 1062 Q518 1102 642 1102 Q735 1102 820 1078 Q905 1054 971 1006.5 Q1037 959 1078 888.5 Q1119 818 1123 725 L1068 725 Q1064 806 1027 866.5 Q990 927 931.5 967.5 Q873 1008 798 1028 Q723 1048 642 1048 Q522 1048 433.5 1010 Q345 972 287 906 Q229 840 200.5 751.5 Q172 663 172 562 L172 520 Q172 418 200.5 329.5 Q229 241 287 175.5 Q345 110 434 72 Q523 34 644 34 Q721 34 795 51 Q869 68 927.5 103.5 Q986 139 1024 194.5 Q1062 250 1068 328 L1123 328 Q1118 246 1078 181 Q1038 116 973 71.5 Q908 27 823.5 3.5 Q739 -20 644 -20 Q519 -20 421 20 Q323 60 255.5 131.5 Q188 203 152.5 302 Q117 401 117 520 L117 562 Z " />
<g transform="translate(185,2)" >
<path fill="black" d="M176 1506 L237 1506 L472 1289 L708 1506 L763 1506 L763 1493 L504 1243 L438 1243 L176 1495 L176 1506 Z " />
</g>
</glyph>
<glyph glyph-name="Dcaron" unicode="&#x10e;" horiz-adv-x="1607" >
<path fill="black" d="M242 1456 L725 1456 Q879 1456 1010.5 1409.5 Q1142 1363 1238 1278.5 Q1334 1194 1388.5 1076.5 Q1443 959 1443 817 L1443 639 Q1443 497 1388.5 379.5 Q1334 262 1238 177.5 Q1142 93 1010.5 46.5 Q879 0 726 0 L297 0 L299 54 L726 54 Q867 54 988 97.5 Q1109 141 1198 218.5 Q1287 296 1337.5 403.5 Q1388 511 1388 639 L1388 820 Q1388 947 1337.5 1054 Q1287 1161 1198 1238 Q1109 1315 987.5 1358.5 Q866 1402 725 1402 L297 1402 L297 0 L242 0 L242 1456 Z " />
<g transform="translate(233,324)" >
<path fill="black" d="M176 1506 L237 1506 L472 1289 L708 1506 L763 1506 L763 1493 L504 1243 L438 1243 L176 1495 L176 1506 Z " />
</g>
</glyph>
<glyph glyph-name="dcaron" unicode="&#x10f;" horiz-adv-x="1271" >
<path fill="black" d="M148 552 Q148 680 181 782 Q214 884 276.5 955 Q339 1026 430 1064 Q521 1102 636 1102 Q718 1102 786 1085.5 Q854 1069 909.5 1038.5 Q965 1008 1008 966 Q1051 924 1081 873 L1081 1536 L1137 1536 L1137 0 L1080 0 L1081 182 Q1051 139 1008.5 102 Q966 65 910 38 Q854 11 785 -4.5 Q716 -20 634 -20 Q519 -20 428.5 19.5 Q338 59 275.5 131.5 Q213 204 180.5 305.5 Q148 407 148 531 L148 552 Z M206 531 Q206 423 232 332 Q258 241 310.5 174.5 Q363 108 442.5 71 Q522 34 629 34 Q720 34 793.5 52 Q867 70 923.5 102 Q980 134 1019 177.5 Q1058 221 1081 272 L1081 771 Q1062 819 1029.5 868 Q997 917 944 957 Q891 997 814.5 1022.5 Q738 1048 631 1048 Q523 1048 443 1011 Q363 974 310.5 908 Q258 842 232 751 Q206 660 206 552 L206 531 Z " />
<g transform="translate(923,1420)" >
<path fill="black" d="M-769 -460 Q-727 -411 -707 -364 Q-687 -317 -687 -252 L-687 -173 L-631 -173 L-631 -250 Q-631 -329 -658.5 -389 Q-686 -449 -730 -492 L-769 -460 Z " />
</g>
</glyph>
<glyph glyph-name="Dcroat" unicode="&#x110;" horiz-adv-x="1607" >
<path fill="black" d="M242 713 L75 713 L75 767 L242 767 L242 1456 L725 1456 Q879 1456 1010.5 1409.5 Q1142 1363 1238 1278.5 Q1334 1194 1388.5 1076.5 Q1443 959 1443 817 L1443 639 Q1443 497 1388.5 379.5 Q1334 262 1238 177.5 Q1142 93 1010.5 46.5 Q879 0 726 0 L297 0 L299 54 L726 54 Q867 54 988 97.5 Q1109 141 1198 218.5 Q1287 296 1337.5 403.5 Q1388 511 1388 639 L1388 820 Q1388 947 1337.5 1054 Q1287 1161 1198 1238 Q1109 1315 987.5 1358.5 Q866 1402 725 1402 L297 1402 L297 767 L776 767 L776 713 L297 713 L297 0 L242 0 L242 713 Z " />
</glyph>
<glyph glyph-name="dslash" unicode="&#x111;" horiz-adv-x="1337" d="M148 552 Q148 680 181 782 Q214 884 276.5 955 Q339 1026 430 1064 Q521 1102 636 1102 Q718 1102 786 1085.5 Q854 1069 909.5 1038.5 Q965 1008 1008 966 Q1051 924 1081 873 L1081 1281 L626 1281 L626 1335 L1081 1335 L1081 1536 L1137 1536 L1137 1335 L1326 1335 L1326 1281 L1137 1281 L1137 0 L1080 0 L1081 182 Q1051 139 1008.5 102 Q966 65 910 38 Q854 11 785 -4.5 Q716 -20 634 -20 Q519 -20 428.5 19.5 Q338 59 275.5 131.5 Q213 204 180.5 305.5 Q148 407 148 531 L148 552 Z M206 531 Q206 423 232 332 Q258 241 310.5 174.5 Q363 108 442.5 71 Q522 34 629 34 Q720 34 793.5 52 Q867 70 923.5 102 Q980 134 1019 177.5 Q1058 221 1081 272 L1081 771 Q1062 819 1029.5 868 Q997 917 944 957 Q891 997 814.5 1022.5 Q738 1048 631 1048 Q523 1048 443 1011 Q363 974 310.5 908 Q258 842 232 751 Q206 660 206 552 L206 531 Z " />
<glyph glyph-name="Emacron" unicode="&#x112;" horiz-adv-x="1399" d="M242 1456 L1303 1456 L1303 1402 L297 1402 L297 776 L1180 776 L1180 722 L297 722 L297 54 L1302 54 L1302 0 L242 0 L242 1456 Z M409 1766 L1082 1766 L1082 1713 L409 1713 L409 1766 Z " />
<glyph glyph-name="emacron" unicode="&#x113;" horiz-adv-x="1234" d="M104 562 Q104 681 146.5 780 Q189 879 263 950.5 Q337 1022 436 1062 Q535 1102 647 1102 Q753 1102 843 1068.5 Q933 1035 998.5 974 Q1064 913 1101 828 Q1138 743 1138 640 L1138 577 L159 577 L159 562 L159 518 Q159 417 198.5 328.5 Q238 240 306.5 174.5 Q375 109 468.5 71 Q562 33 670 33 Q726 33 778 40 Q830 47 879 64 Q928 81 972.5 110 Q1017 139 1058 182 L1098 155 Q1034 78 929.5 29 Q825 -20 671 -20 Q554 -20 450.5 20 Q347 60 270 131.5 Q193 203 148.5 301.5 Q104 400 104 518 L104 562 Z M1083 631 L1083 644 Q1083 725 1052 798.5 Q1021 872 964 927.5 Q907 983 826.5 1015.5 Q746 1048 647 1048 Q547 1048 463.5 1016 Q380 984 317 927.5 Q254 871 214.5 795 Q175 719 163 631 L1083 631 Z M347 1445 L1020 1445 L1020 1392 L347 1392 L347 1445 Z " />
<glyph glyph-name="Edotaccent" unicode="&#x116;" horiz-adv-x="1399" >
<path fill="black" d="M242 1456 L1303 1456 L1303 1402 L297 1402 L297 776 L1180 776 L1180 722 L297 722 L297 54 L1302 54 L1302 0 L242 0 L242 1456 Z " />
<g transform="translate(504,1667)" >
<path fill="black" d="M177 49 Q177 72 195 88.5 Q213 105 239 105 Q265 105 283.5 88.5 Q302 72 302 49 Q302 26 283.5 10 Q265 -6 239 -6 Q213 -6 195 10 Q177 26 177 49 Z " />
</g>
</glyph>
<glyph glyph-name="edotaccent" unicode="&#x117;" horiz-adv-x="1234" >
<path fill="black" d="M104 562 Q104 681 146.5 780 Q189 879 263 950.5 Q337 1022 436 1062 Q535 1102 647 1102 Q753 1102 843 1068.5 Q933 1035 998.5 974 Q1064 913 1101 828 Q1138 743 1138 640 L1138 577 L159 577 L159 562 L159 518 Q159 417 198.5 328.5 Q238 240 306.5 174.5 Q375 109 468.5 71 Q562 33 670 33 Q726 33 778 40 Q830 47 879 64 Q928 81 972.5 110 Q1017 139 1058 182 L1098 155 Q1034 78 929.5 29 Q825 -20 671 -20 Q554 -20 450.5 20 Q347 60 270 131.5 Q193 203 148.5 301.5 Q104 400 104 518 L104 562 Z M1083 631 L1083 644 Q1083 725 1052 798.5 Q1021 872 964 927.5 Q907 983 826.5 1015.5 Q746 1048 647 1048 Q547 1048 463.5 1016 Q380 984 317 927.5 Q254 871 214.5 795 Q175 719 163 631 L1083 631 Z " />
<g transform="translate(442,1346)" >
<path fill="black" d="M177 49 Q177 72 195 88.5 Q213 105 239 105 Q265 105 283.5 88.5 Q302 72 302 49 Q302 26 283.5 10 Q265 -6 239 -6 Q213 -6 195 10 Q177 26 177 49 Z " />
</g>
</glyph>
<glyph glyph-name="Eogonek" unicode="&#x118;" horiz-adv-x="1399" d="M242 1456 L1303 1456 L1303 1402 L297 1402 L297 776 L1180 776 L1180 722 L297 722 L297 54 L1302 54 L1302 0 L1233 0 Q1190 -28 1149 -56.5 Q1108 -85 1076.5 -115 Q1045 -145 1025.5 -177.5 Q1006 -210 1006 -246 Q1006 -264 1011 -281.5 Q1016 -299 1029 -312 Q1042 -325 1064 -333 Q1086 -341 1119 -341 Q1167 -341 1198 -328.5 Q1229 -316 1251 -303 L1271 -351 Q1248 -366 1212 -380.5 Q1176 -395 1122 -395 Q1043 -395 996 -358.5 Q949 -322 949 -246 Q949 -214 966.5 -181.5 Q984 -149 1013 -117.5 Q1042 -86 1079 -56.5 Q1116 -27 1154 0 L242 0 L242 1456 Z " />
<glyph glyph-name="eogonek" unicode="&#x119;" horiz-adv-x="1234" d="M104 562 Q104 681 146.5 780 Q189 879 263 950.5 Q337 1022 436 1062 Q535 1102 647 1102 Q753 1102 843 1068.5 Q933 1035 998.5 974 Q1064 913 1101 828 Q1138 743 1138 640 L1138 577 L159 577 L159 562 L159 518 Q159 417 198.5 328.5 Q238 240 306.5 174.5 Q375 109 468.5 71 Q562 33 670 33 Q726 33 778 40 Q830 47 879 64 Q928 81 972.5 110 Q1017 139 1058 182 L1098 155 Q1075 129 1049 105.5 Q1023 82 991 62 L1000 58 Q957 30 916 1.5 Q875 -27 843.5 -57 Q812 -87 792.5 -119.5 Q773 -152 773 -188 Q773 -206 778 -223.5 Q783 -241 796 -254 Q809 -267 831 -275 Q853 -283 886 -283 Q934 -283 965 -270.5 Q996 -258 1018 -245 L1038 -293 Q1015 -308 979 -322.5 Q943 -337 889 -337 Q810 -337 763 -300.5 Q716 -264 716 -188 Q716 -141 753.5 -92.5 Q791 -44 843 0 Q765 -20 671 -20 Q554 -20 450.5 20 Q347 60 270 131.5 Q193 203 148.5 301.5 Q104 400 104 518 L104 562 Z M1083 631 L1083 644 Q1083 725 1052 798.5 Q1021 872 964 927.5 Q907 983 826.5 1015.5 Q746 1048 647 1048 Q547 1048 463.5 1016 Q380 984 317 927.5 Q254 871 214.5 795 Q175 719 163 631 L1083 631 Z " />
<glyph glyph-name="Ecaron" unicode="&#x11a;" horiz-adv-x="1399" >
<path fill="black" d="M242 1456 L1303 1456 L1303 1402 L297 1402 L297 776 L1180 776 L1180 722 L297 722 L297 54 L1302 54 L1302 0 L242 0 L242 1456 Z " />
<g transform="translate(270,324)" >
<path fill="black" d="M176 1506 L237 1506 L472 1289 L708 1506 L763 1506 L763 1493 L504 1243 L438 1243 L176 1495 L176 1506 Z " />
</g>
</glyph>
<glyph glyph-name="ecaron" unicode="&#x11b;" horiz-adv-x="1234" >
<path fill="black" d="M104 562 Q104 681 146.5 780 Q189 879 263 950.5 Q337 1022 436 1062 Q535 1102 647 1102 Q753 1102 843 1068.5 Q933 1035 998.5 974 Q1064 913 1101 828 Q1138 743 1138 640 L1138 577 L159 577 L159 562 L159 518 Q159 417 198.5 328.5 Q238 240 306.5 174.5 Q375 109 468.5 71 Q562 33 670 33 Q726 33 778 40 Q830 47 879 64 Q928 81 972.5 110 Q1017 139 1058 182 L1098 155 Q1034 78 929.5 29 Q825 -20 671 -20 Q554 -20 450.5 20 Q347 60 270 131.5 Q193 203 148.5 301.5 Q104 400 104 518 L104 562 Z M1083 631 L1083 644 Q1083 725 1052 798.5 Q1021 872 964 927.5 Q907 983 826.5 1015.5 Q746 1048 647 1048 Q547 1048 463.5 1016 Q380 984 317 927.5 Q254 871 214.5 795 Q175 719 163 631 L1083 631 Z " />
<g transform="translate(208,3)" >
<path fill="black" d="M176 1506 L237 1506 L472 1289 L708 1506 L763 1506 L763 1493 L504 1243 L438 1243 L176 1495 L176 1506 Z " />
</g>
</glyph>
<glyph glyph-name="Gbreve" unicode="&#x11e;" horiz-adv-x="1688" >
<path fill="black" d="M205 858 Q205 996 253 1109.5 Q301 1223 387 1304.5 Q473 1386 592.5 1431 Q712 1476 855 1476 Q996 1476 1105 1444 Q1214 1412 1290.5 1356.5 Q1367 1301 1411 1225 Q1455 1149 1467 1062 L1413 1062 Q1400 1133 1363 1198.5 Q1326 1264 1259 1313.5 Q1192 1363 1092.5 1392.5 Q993 1422 855 1422 Q720 1422 610 1380.5 Q500 1339 422 1264 Q344 1189 301.5 1086 Q259 983 259 860 L259 620 Q259 491 302.5 383.5 Q346 276 426.5 198.5 Q507 121 621 77.5 Q735 34 875 34 Q983 34 1073.5 48.5 Q1164 63 1233 85 Q1302 107 1348.5 133 Q1395 159 1415 181 L1415 605 L873 605 L873 660 L1470 660 L1470 156 Q1449 131 1401 100.5 Q1353 70 1278 43 Q1203 16 1102 -2 Q1001 -20 875 -20 Q726 -20 603 26.5 Q480 73 391.5 157.5 Q303 242 254 360 Q205 478 205 620 L205 858 Z " />
<g transform="translate(333,345)" >
<path fill="black" d="M236 1486 Q236 1447 250.5 1412 Q265 1377 297.5 1350.5 Q330 1324 382.5 1309 Q435 1294 511 1294 Q584 1294 636 1309.5 Q688 1325 721.5 1351.5 Q755 1378 770.5 1412.5 Q786 1447 786 1486 L843 1486 Q843 1431 820.5 1385.5 Q798 1340 755 1307 Q712 1274 650.5 1256 Q589 1238 511 1238 Q433 1238 371 1256 Q309 1274 266.5 1307 Q224 1340 201 1385.5 Q178 1431 178 1486 L236 1486 Z " />
</g>
</glyph>
<glyph glyph-name="gbreve" unicode="&#x11f;" horiz-adv-x="1346" >
<path fill="black" d="M268 -218 Q344 -298 434 -340.5 Q524 -383 647 -383 Q754 -383 835 -355 Q916 -327 970 -275 Q1024 -223 1051.5 -149.5 Q1079 -76 1079 15 L1079 181 Q1049 138 1006.5 101 Q964 64 908 37 Q852 10 783 -5 Q714 -20 633 -20 Q518 -20 427.5 19.5 Q337 59 275 131.5 Q213 204 180 305.5 Q147 407 147 531 L147 552 Q147 680 180 782 Q213 884 275.5 955 Q338 1026 429 1064 Q520 1102 635 1102 Q716 1102 784 1085.5 Q852 1069 907.5 1039 Q963 1009 1005.5 967 Q1048 925 1079 874 L1078 1082 L1136 1082 L1136 15 Q1136 -89 1102.5 -172.5 Q1069 -256 1006 -314.5 Q943 -373 852.5 -404.5 Q762 -436 648 -436 Q503 -436 399.5 -385 Q296 -334 227 -254 L268 -218 Z M203 531 Q203 423 229 332 Q255 241 308 174.5 Q361 108 441 71 Q521 34 628 34 Q721 34 795 53 Q869 72 925 105 Q981 138 1019 183.5 Q1057 229 1079 281 L1079 761 Q1062 809 1030.5 860 Q999 911 946.5 953 Q894 995 817 1021.5 Q740 1048 631 1048 Q523 1048 442.5 1011 Q362 974 308.5 908 Q255 842 229 751 Q203 660 203 552 L203 531 Z " />
<g transform="translate(168,2)" >
<path fill="black" d="M236 1486 Q236 1447 250.5 1412 Q265 1377 297.5 1350.5 Q330 1324 382.5 1309 Q435 1294 511 1294 Q584 1294 636 1309.5 Q688 1325 721.5 1351.5 Q755 1378 770.5 1412.5 Q786 1447 786 1486 L843 1486 Q843 1431 820.5 1385.5 Q798 1340 755 1307 Q712 1274 650.5 1256 Q589 1238 511 1238 Q433 1238 371 1256 Q309 1274 266.5 1307 Q224 1340 201 1385.5 Q178 1431 178 1486 L236 1486 Z " />
</g>
</glyph>
<glyph glyph-name="Gdotaccent" unicode="&#x120;" horiz-adv-x="1688" >
<path fill="black" d="M205 858 Q205 996 253 1109.5 Q301 1223 387 1304.5 Q473 1386 592.5 1431 Q712 1476 855 1476 Q996 1476 1105 1444 Q1214 1412 1290.5 1356.5 Q1367 1301 1411 1225 Q1455 1149 1467 1062 L1413 1062 Q1400 1133 1363 1198.5 Q1326 1264 1259 1313.5 Q1192 1363 1092.5 1392.5 Q993 1422 855 1422 Q720 1422 610 1380.5 Q500 1339 422 1264 Q344 1189 301.5 1086 Q259 983 259 860 L259 620 Q259 491 302.5 383.5 Q346 276 426.5 198.5 Q507 121 621 77.5 Q735 34 875 34 Q983 34 1073.5 48.5 Q1164 63 1233 85 Q1302 107 1348.5 133 Q1395 159 1415 181 L1415 605 L873 605 L873 660 L1470 660 L1470 156 Q1449 131 1401 100.5 Q1353 70 1278 43 Q1203 16 1102 -2 Q1001 -20 875 -20 Q726 -20 603 26.5 Q480 73 391.5 157.5 Q303 242 254 360 Q205 478 205 620 L205 858 Z " />
<g transform="translate(607,1688)" >
<path fill="black" d="M177 49 Q177 72 195 88.5 Q213 105 239 105 Q265 105 283.5 88.5 Q302 72 302 49 Q302 26 283.5 10 Q265 -6 239 -6 Q213 -6 195 10 Q177 26 177 49 Z " />
</g>
</glyph>
<glyph glyph-name="gdotaccent" unicode="&#x121;" horiz-adv-x="1346" >
<path fill="black" d="M268 -218 Q344 -298 434 -340.5 Q524 -383 647 -383 Q754 -383 835 -355 Q916 -327 970 -275 Q1024 -223 1051.5 -149.5 Q1079 -76 1079 15 L1079 181 Q1049 138 1006.5 101 Q964 64 908 37 Q852 10 783 -5 Q714 -20 633 -20 Q518 -20 427.5 19.5 Q337 59 275 131.5 Q213 204 180 305.5 Q147 407 147 531 L147 552 Q147 680 180 782 Q213 884 275.5 955 Q338 1026 429 1064 Q520 1102 635 1102 Q716 1102 784 1085.5 Q852 1069 907.5 1039 Q963 1009 1005.5 967 Q1048 925 1079 874 L1078 1082 L1136 1082 L1136 15 Q1136 -89 1102.5 -172.5 Q1069 -256 1006 -314.5 Q943 -373 852.5 -404.5 Q762 -436 648 -436 Q503 -436 399.5 -385 Q296 -334 227 -254 L268 -218 Z M203 531 Q203 423 229 332 Q255 241 308 174.5 Q361 108 441 71 Q521 34 628 34 Q721 34 795 53 Q869 72 925 105 Q981 138 1019 183.5 Q1057 229 1079 281 L1079 761 Q1062 809 1030.5 860 Q999 911 946.5 953 Q894 995 817 1021.5 Q740 1048 631 1048 Q523 1048 442.5 1011 Q362 974 308.5 908 Q255 842 229 751 Q203 660 203 552 L203 531 Z " />
<g transform="translate(442,1345)" >
<path fill="black" d="M177 49 Q177 72 195 88.5 Q213 105 239 105 Q265 105 283.5 88.5 Q302 72 302 49 Q302 26 283.5 10 Q265 -6 239 -6 Q213 -6 195 10 Q177 26 177 49 Z " />
</g>
</glyph>
<glyph glyph-name="uni0122" unicode="&#x122;" horiz-adv-x="1406" >
<path fill="black" d="M205 858 Q205 996 253 1109.5 Q301 1223 387 1304.5 Q473 1386 592.5 1431 Q712 1476 855 1476 Q996 1476 1105 1444 Q1214 1412 1290.5 1356.5 Q1367 1301 1411 1225 Q1455 1149 1467 1062 L1413 1062 Q1400 1133 1363 1198.5 Q1326 1264 1259 1313.5 Q1192 1363 1092.5 1392.5 Q993 1422 855 1422 Q720 1422 610 1380.5 Q500 1339 422 1264 Q344 1189 301.5 1086 Q259 983 259 860 L259 620 Q259 491 302.5 383.5 Q346 276 426.5 198.5 Q507 121 621 77.5 Q735 34 875 34 Q983 34 1073.5 48.5 Q1164 63 1233 85 Q1302 107 1348.5 133 Q1395 159 1415 181 L1415 605 L873 605 L873 660 L1470 660 L1470 156 Q1449 131 1401 100.5 Q1353 70 1278 43 Q1203 16 1102 -2 Q1001 -20 875 -20 Q726 -20 603 26.5 Q480 73 391.5 157.5 Q303 242 254 360 Q205 478 205 620 L205 858 Z " />
<g transform="translate(483,-215)" >
<path fill="black" d="M-769 -460 Q-727 -411 -707 -364 Q-687 -317 -687 -252 L-687 -173 L-631 -173 L-631 -250 Q-631 -329 -658.5 -389 Q-686 -449 -730 -492 L-769 -460 Z " />
</g>
</glyph>
<glyph glyph-name="uni0123" unicode="&#x123;" horiz-adv-x="1346" >
<path fill="black" d="M268 -218 Q344 -298 434 -340.5 Q524 -383 647 -383 Q754 -383 835 -355 Q916 -327 970 -275 Q1024 -223 1051.5 -149.5 Q1079 -76 1079 15 L1079 181 Q1049 138 1006.5 101 Q964 64 908 37 Q852 10 783 -5 Q714 -20 633 -20 Q518 -20 427.5 19.5 Q337 59 275 131.5 Q213 204 180 305.5 Q147 407 147 531 L147 552 Q147 680 180 782 Q213 884 275.5 955 Q338 1026 429 1064 Q520 1102 635 1102 Q716 1102 784 1085.5 Q852 1069 907.5 1039 Q963 1009 1005.5 967 Q1048 925 1079 874 L1078 1082 L1136 1082 L1136 15 Q1136 -89 1102.5 -172.5 Q1069 -256 1006 -314.5 Q943 -373 852.5 -404.5 Q762 -436 648 -436 Q503 -436 399.5 -385 Q296 -334 227 -254 L268 -218 Z M203 531 Q203 423 229 332 Q255 241 308 174.5 Q361 108 441 71 Q521 34 628 34 Q721 34 795 53 Q869 72 925 105 Q981 138 1019 183.5 Q1057 229 1079 281 L1079 761 Q1062 809 1030.5 860 Q999 911 946.5 953 Q894 995 817 1021.5 Q740 1048 631 1048 Q523 1048 442.5 1011 Q362 974 308.5 908 Q255 842 229 751 Q203 660 203 552 L203 531 Z " />
<g transform="translate(483,30)" >
<path fill="black" d="M170 1372 Q170 1432 189.5 1476.5 Q209 1521 235 1560 L283 1544 Q257 1497 241 1459 Q225 1421 225 1376 L225 1244 L170 1244 L170 1372 Z " />
</g>
</glyph>
<glyph glyph-name="Hbar" unicode="&#x126;" horiz-adv-x="1389" d="M190 1028 L23 1028 L23 1081 L190 1081 L190 1456 L245 1456 L245 1081 L1375 1081 L1375 1456 L1430 1456 L1430 1081 L1617 1081 L1617 1028 L1430 1028 L1430 0 L1375 0 L1375 722 L245 722 L245 0 L190 0 L190 1028 Z M1375 776 L1375 1028 L245 1028 L245 776 L1375 776 Z " />
<glyph glyph-name="hbar" unicode="&#x127;" horiz-adv-x="1345" d="M209 1281 L42 1281 L42 1335 L209 1335 L209 1536 L264 1536 L264 1335 L743 1335 L743 1281 L264 1281 L264 816 Q292 876 337 928 Q382 980 441 1019 Q500 1058 573 1080 Q646 1102 730 1102 Q829 1102 905.5 1079.5 Q982 1057 1034.5 1008.5 Q1087 960 1114.5 884 Q1142 808 1142 700 L1142 0 L1087 0 L1087 700 Q1087 803 1060.5 870.5 Q1034 938 987 977.5 Q940 1017 874 1033 Q808 1049 730 1049 Q619 1049 537 1011.5 Q455 974 398.5 918 Q342 862 309.5 798 Q277 734 264 681 L264 0 L209 0 L209 1281 Z " />
<glyph glyph-name="Itilde" unicode="&#x128;" horiz-adv-x="639" >
<g transform="translate(-155,334)" >
<path fill="black" d="M106 1286 Q106 1327 122 1360.5 Q138 1394 166 1417 Q194 1440 232 1452.5 Q270 1465 314 1465 Q377 1465 420 1445.5 Q463 1426 499.5 1403 Q536 1380 572.5 1360.5 Q609 1341 660 1341 Q690 1341 716.5 1349.5 Q743 1358 763.5 1375 Q784 1392 795.5 1416.5 Q807 1441 807 1472 L868 1472 Q868 1430 851.5 1396 Q835 1362 807 1337.5 Q779 1313 741 1299.5 Q703 1286 659 1286 Q594 1286 552 1305.5 Q510 1325 475 1348.5 Q440 1372 403.5 1391.5 Q367 1411 314 1411 Q283 1411 256.5 1403.5 Q230 1396 210 1380 Q190 1364 178.5 1341 Q167 1318 167 1286 L106 1286 Z " />
</g>
<path fill="black" d="M292 0 L292 1456 L347 1456 L347 0 L292 0 Z " />
</glyph>
<glyph glyph-name="itilde" unicode="&#x129;" horiz-adv-x="480" >
<g transform="translate(-228,-9)" >
<path fill="black" d="M106 1286 Q106 1327 122 1360.5 Q138 1394 166 1417 Q194 1440 232 1452.5 Q270 1465 314 1465 Q377 1465 420 1445.5 Q463 1426 499.5 1403 Q536 1380 572.5 1360.5 Q609 1341 660 1341 Q690 1341 716.5 1349.5 Q743 1358 763.5 1375 Q784 1392 795.5 1416.5 Q807 1441 807 1472 L868 1472 Q868 1430 851.5 1396 Q835 1362 807 1337.5 Q779 1313 741 1299.5 Q703 1286 659 1286 Q594 1286 552 1305.5 Q510 1325 475 1348.5 Q440 1372 403.5 1391.5 Q367 1411 314 1411 Q283 1411 256.5 1403.5 Q230 1396 210 1380 Q190 1364 178.5 1341 Q167 1318 167 1286 L106 1286 Z " />
</g>
<path fill="black" d="M219 0 L219 1082 L274 1082 L274 0 L219 0 Z " />
</glyph>
<glyph glyph-name="Imacron" unicode="&#x12a;" horiz-adv-x="639" >
<path fill="black" d="M292 0 L292 1456 L347 1456 L347 0 L292 0 Z " />
<g transform="translate(-171,330)" >
<path fill="black" d="M158 1383 L158 1436 L831 1436 L831 1383 L158 1383 Z " />
</g>
</glyph>
<glyph glyph-name="imacron" unicode="&#x12b;" horiz-adv-x="480" >
<path fill="black" d="M219 0 L219 1082 L274 1082 L274 0 L219 0 Z " />
<g transform="translate(-244,-13)" >
<path fill="black" d="M158 1383 L158 1436 L831 1436 L831 1383 L158 1383 Z " />
</g>
</glyph>
<glyph glyph-name="Iogonek" unicode="&#x12e;" horiz-adv-x="639" d="M292 20 L292 1456 L347 1456 L347 0 L341 0 Q298 -28 257 -56.5 Q216 -85 184.5 -115 Q153 -145 133.5 -177.5 Q114 -210 114 -246 Q114 -264 119 -281.5 Q124 -299 137 -312 Q150 -325 172 -333 Q194 -341 227 -341 Q275 -341 306 -328.5 Q337 -316 359 -303 L379 -351 Q356 -366 320 -380.5 Q284 -395 230 -395 Q151 -395 104 -358.5 Q57 -322 57 -246 Q57 -211 78 -175 Q99 -139 132.5 -105 Q166 -71 208 -39 Q250 -7 291 20 L292 20 Z " />
<glyph glyph-name="iogonek" unicode="&#x12f;" horiz-adv-x="501" >
<g transform="translate(2,-10)" >
<path fill="black" d="M223 1092 L278 1092 L278 10 Q235 -18 194 -46.5 Q153 -75 121.5 -105 Q90 -135 70.5 -167.5 Q51 -200 51 -236 Q51 -254 56 -271.5 Q61 -289 74 -302 Q87 -315 109 -323 Q131 -331 164 -331 Q212 -331 243 -318.5 Q274 -306 296 -293 L316 -341 Q293 -356 257 -370.5 Q221 -385 167 -385 Q88 -385 41 -348.5 Q-6 -312 -6 -236 Q-6 -201 14.5 -166 Q35 -131 67.5 -97 Q100 -63 141 -31.5 Q182 0 223 27 L223 1092 Z " />
</g>
<g transform="translate(13,1371)" >
<path fill="black" d="M177 49 Q177 72 195 88.5 Q213 105 239 105 Q265 105 283.5 88.5 Q302 72 302 49 Q302 26 283.5 10 Q265 -6 239 -6 Q213 -6 195 10 Q177 26 177 49 Z " />
</g>
</glyph>
<glyph glyph-name="Idot" unicode="&#x130;" horiz-adv-x="639" >
<path fill="black" d="M292 0 L292 1456 L347 1456 L347 0 L292 0 Z " />
<g transform="translate(82,1667)" >
<path fill="black" d="M177 49 Q177 72 195 88.5 Q213 105 239 105 Q265 105 283.5 88.5 Q302 72 302 49 Q302 26 283.5 10 Q265 -6 239 -6 Q213 -6 195 10 Q177 26 177 49 Z " />
</g>
</glyph>
<glyph glyph-name="dotlessi" unicode="&#x131;" horiz-adv-x="480" d="M219 0 L219 1082 L274 1082 L274 0 L219 0 Z " />
<glyph glyph-name="uni0136" unicode="&#x136;" horiz-adv-x="1300" >
<path fill="black" d="M242 1456 L297 1456 L297 610 L588 847 L1324 1456 L1406 1456 L624 803 L1467 0 L1394 0 L579 767 L297 550 L297 0 L242 0 L242 1456 Z " />
<g transform="translate(377,-105)" >
<path fill="black" d="M-769 -460 Q-727 -411 -707 -364 Q-687 -317 -687 -252 L-687 -173 L-631 -173 L-631 -250 Q-631 -329 -658.5 -389 Q-686 -449 -730 -492 L-769 -460 Z " />
</g>
</glyph>
<glyph glyph-name="uni0137" unicode="&#x137;" horiz-adv-x="969" >
<path fill="black" d="M209 1536 L264 1536 L264 504 L419 627 L1020 1082 L1102 1082 L501 622 L1138 0 L1065 0 L456 588 L450 583 L264 445 L264 0 L209 0 L209 1536 Z " />
<g transform="translate(272,-101)" >
<path fill="black" d="M-769 -460 Q-727 -411 -707 -364 Q-687 -317 -687 -252 L-687 -173 L-631 -173 L-631 -250 Q-631 -329 -658.5 -389 Q-686 -449 -730 -492 L-769 -460 Z " />
</g>
</glyph>
<glyph glyph-name="Lacute" unicode="&#x139;" horiz-adv-x="1264" >
<path fill="black" d="M242 1456 L298 1456 L298 54 L1198 54 L1198 0 L242 0 L242 1456 Z " />
<g transform="translate(82,256)" >
<path fill="black" d="M377 1536 L445 1536 L216 1270 L151 1270 L377 1536 Z " />
</g>
</glyph>
<glyph glyph-name="lacute" unicode="&#x13a;" horiz-adv-x="715" >
<path fill="black" d="M226 1536 L283 1536 L283 259 Q283 188 299 144 Q315 100 342 75.5 Q369 51 405 42.5 Q441 34 481 34 Q519 34 547.5 36.5 Q576 39 611 43 L623 -8 Q610 -12 591.5 -14 Q573 -16 554.5 -17.5 Q536 -19 518.5 -19.5 Q501 -20 489 -20 Q427 -20 378 -7 Q329 6 295.5 38 Q262 70 244 124 Q226 178 226 259 L226 1536 Z " />
<g transform="translate(60,380)" >
<path fill="black" d="M377 1536 L445 1536 L216 1270 L151 1270 L377 1536 Z " />
</g>
</glyph>
<glyph glyph-name="uni013B" unicode="&#x13b;" horiz-adv-x="1057" >
<path fill="black" d="M242 1456 L298 1456 L298 54 L1198 54 L1198 0 L242 0 L242 1456 Z " />
<g transform="translate(379,-205)" >
<path fill="black" d="M-769 -460 Q-727 -411 -707 -364 Q-687 -317 -687 -252 L-687 -173 L-631 -173 L-631 -250 Q-631 -329 -658.5 -389 Q-686 -449 -730 -492 L-769 -460 Z " />
</g>
</glyph>
<glyph glyph-name="uni013C" unicode="&#x13c;" horiz-adv-x="422" >
<path fill="black" d="M226 1536 L283 1536 L283 259 Q283 188 299 144 Q315 100 342 75.5 Q369 51 405 42.5 Q441 34 481 34 Q519 34 547.5 36.5 Q576 39 611 43 L623 -8 Q610 -12 591.5 -14 Q573 -16 554.5 -17.5 Q536 -19 518.5 -19.5 Q501 -20 489 -20 Q427 -20 378 -7 Q329 6 295.5 38 Q262 70 244 124 Q226 178 226 259 L226 1536 Z " />
<g transform="translate(-32,-205)" >
<path fill="black" d="M-769 -460 Q-727 -411 -707 -364 Q-687 -317 -687 -252 L-687 -173 L-631 -173 L-631 -250 Q-631 -329 -658.5 -389 Q-686 -449 -730 -492 L-769 -460 Z " />
</g>
</glyph>
<glyph glyph-name="Lcaron" unicode="&#x13d;" horiz-adv-x="1057" >
<path fill="black" d="M242 1456 L298 1456 L298 54 L1198 54 L1198 0 L242 0 L242 1456 Z " />
<g transform="translate(389,1339)" >
<path fill="black" d="M-769 -460 Q-727 -411 -707 -364 Q-687 -317 -687 -252 L-687 -173 L-631 -173 L-631 -250 Q-631 -329 -658.5 -389 Q-686 -449 -730 -492 L-769 -460 Z " />
</g>
</glyph>
<glyph glyph-name="lcaron" unicode="&#x13e;" horiz-adv-x="572" >
<path fill="black" d="M226 1536 L283 1536 L283 259 Q283 188 299 144 Q315 100 342 75.5 Q369 51 405 42.5 Q441 34 481 34 Q519 34 547.5 36.5 Q576 39 611 43 L623 -8 Q610 -12 591.5 -14 Q573 -16 554.5 -17.5 Q536 -19 518.5 -19.5 Q501 -20 489 -20 Q427 -20 378 -7 Q329 6 295.5 38 Q262 70 244 124 Q226 178 226 259 L226 1536 Z " />
<g transform="translate(238,1420)" >
<path fill="black" d="M-769 -460 Q-727 -411 -707 -364 Q-687 -317 -687 -252 L-687 -173 L-631 -173 L-631 -250 Q-631 -329 -658.5 -389 Q-686 -449 -730 -492 L-769 -460 Z " />
</g>
</glyph>
<glyph glyph-name="Lslash" unicode="&#x141;" horiz-adv-x="1061" d="M232 717 L8 658 L8 715 L232 774 L232 1456 L288 1456 L288 789 L716 902 L716 845 L288 732 L288 54 L1188 54 L1188 0 L232 0 L232 717 Z " />
<glyph glyph-name="lslash" unicode="&#x142;" horiz-adv-x="505" d="M284 772 L19 684 L19 743 L284 831 L284 1536 L341 1536 L341 850 L582 930 L582 871 L341 791 L341 259 Q341 188 357 144 Q373 100 400 75.5 Q427 51 463 42.5 Q499 34 539 34 Q577 34 605.5 36.5 Q634 39 669 43 L681 -8 Q668 -12 649.5 -14 Q631 -16 612.5 -17.5 Q594 -19 576.5 -19.5 Q559 -20 547 -20 Q485 -20 436 -7 Q387 6 353.5 38 Q320 70 302 124 Q284 178 284 259 L284 772 Z " />
<glyph glyph-name="Nacute" unicode="&#x143;" horiz-adv-x="1738" >
<path fill="black" d="M242 1456 L298 1456 L1441 95 L1441 1456 L1496 1456 L1496 0 L1441 0 L298 1364 L298 0 L242 0 L242 1456 Z " />
<g transform="translate(677,319)" >
<path fill="black" d="M377 1536 L445 1536 L216 1270 L151 1270 L377 1536 Z " />
</g>
</glyph>
<glyph glyph-name="nacute" unicode="&#x144;" horiz-adv-x="1344" >
<path fill="black" d="M209 1082 L265 1082 L264 851 L264 816 Q292 876 337 928 Q382 980 441 1019 Q500 1058 573 1080 Q646 1102 730 1102 Q829 1102 905.5 1079.5 Q982 1057 1034.5 1008.5 Q1087 960 1114.5 884 Q1142 808 1142 700 L1142 0 L1087 0 L1087 700 Q1087 803 1060.5 870.5 Q1034 938 987 977.5 Q940 1017 874 1033 Q808 1049 730 1049 Q619 1049 537 1011.5 Q455 974 398.5 918 Q342 862 309.5 798 Q277 734 264 681 L264 0 L209 0 L209 1082 Z " />
<g transform="translate(500,-3)" >
<path fill="black" d="M377 1536 L445 1536 L216 1270 L151 1270 L377 1536 Z " />
</g>
</glyph>
<glyph glyph-name="uni0145" unicode="&#x145;" horiz-adv-x="1449" >
<path fill="black" d="M242 1456 L298 1456 L1441 95 L1441 1456 L1496 1456 L1496 0 L1441 0 L298 1364 L298 0 L242 0 L242 1456 Z " />
<g transform="translate(480,-205)" >
<path fill="black" d="M-769 -460 Q-727 -411 -707 -364 Q-687 -317 -687 -252 L-687 -173 L-631 -173 L-631 -250 Q-631 -329 -658.5 -389 Q-686 -449 -730 -492 L-769 -460 Z " />
</g>
</glyph>
<glyph glyph-name="uni0146" unicode="&#x146;" horiz-adv-x="1121" >
<path fill="black" d="M209 1082 L265 1082 L264 851 L264 816 Q292 876 337 928 Q382 980 441 1019 Q500 1058 573 1080 Q646 1102 730 1102 Q829 1102 905.5 1079.5 Q982 1057 1034.5 1008.5 Q1087 960 1114.5 884 Q1142 808 1142 700 L1142 0 L1087 0 L1087 700 Q1087 803 1060.5 870.5 Q1034 938 987 977.5 Q940 1017 874 1033 Q808 1049 730 1049 Q619 1049 537 1011.5 Q455 974 398.5 918 Q342 862 309.5 798 Q277 734 264 681 L264 0 L209 0 L209 1082 Z " />
<g transform="translate(332,-205)" >
<path fill="black" d="M-769 -460 Q-727 -411 -707 -364 Q-687 -317 -687 -252 L-687 -173 L-631 -173 L-631 -250 Q-631 -329 -658.5 -389 Q-686 -449 -730 -492 L-769 -460 Z " />
</g>
</glyph>
<glyph glyph-name="Ncaron" unicode="&#x147;" horiz-adv-x="1738" >
<path fill="black" d="M242 1456 L298 1456 L1441 95 L1441 1456 L1496 1456 L1496 0 L1441 0 L298 1364 L298 0 L242 0 L242 1456 Z " />
<g transform="translate(398,324)" >
<path fill="black" d="M176 1506 L237 1506 L472 1289 L708 1506 L763 1506 L763 1493 L504 1243 L438 1243 L176 1495 L176 1506 Z " />
</g>
</glyph>
<glyph glyph-name="ncaron" unicode="&#x148;" horiz-adv-x="1344" >
<path fill="black" d="M209 1082 L265 1082 L264 851 L264 816 Q292 876 337 928 Q382 980 441 1019 Q500 1058 573 1080 Q646 1102 730 1102 Q829 1102 905.5 1079.5 Q982 1057 1034.5 1008.5 Q1087 960 1114.5 884 Q1142 808 1142 700 L1142 0 L1087 0 L1087 700 Q1087 803 1060.5 870.5 Q1034 938 987 977.5 Q940 1017 874 1033 Q808 1049 730 1049 Q619 1049 537 1011.5 Q455 974 398.5 918 Q342 862 309.5 798 Q277 734 264 681 L264 0 L209 0 L209 1082 Z " />
<g transform="translate(221,2)" >
<path fill="black" d="M176 1506 L237 1506 L472 1289 L708 1506 L763 1506 L763 1493 L504 1243 L438 1243 L176 1495 L176 1506 Z " />
</g>
</glyph>
<glyph glyph-name="Eng" unicode="&#x14a;" horiz-adv-x="1742" d="M243 1456 L298 1456 L1445 84 L1445 1456 L1499 1456 L1499 -89 Q1499 -173 1476 -238 Q1453 -303 1409 -347.5 Q1365 -392 1302.5 -414.5 Q1240 -437 1160 -437 Q1123 -437 1092 -432 Q1061 -427 1026 -417 L1042 -365 Q1061 -371 1093 -377 Q1125 -383 1160 -383 Q1297 -383 1371 -307 Q1445 -231 1445 -89 L1445 0 L298 1373 L298 0 L243 0 L243 1456 Z " />
<glyph glyph-name="eng" unicode="&#x14b;" horiz-adv-x="1342" d="M205 554 L199 554 Q199 607 205 658 L205 1082 L254 1082 L260 852 Q317 968 429.5 1035 Q542 1102 716 1102 Q821 1102 900 1075.5 Q979 1049 1032.5 993 Q1086 937 1113 848.5 Q1140 760 1140 637 L1140 -89 Q1140 -173 1117 -238 Q1094 -303 1050 -347.5 Q1006 -392 943.5 -414.5 Q881 -437 801 -437 Q756 -437 719 -432 Q682 -427 640 -417 L656 -365 Q678 -371 718.5 -377.5 Q759 -384 801 -384 Q938 -384 1011.5 -307.5 Q1085 -231 1085 -89 L1085 639 Q1085 760 1056.5 839 Q1028 918 979 964.5 Q930 1011 863.5 1029.5 Q797 1048 722 1048 Q604 1048 521 1015 Q438 982 383.5 927.5 Q329 873 300 802.5 Q271 732 260 657 L260 0 L205 0 L205 554 Z " />
<glyph glyph-name="Omacron" unicode="&#x14c;" horiz-adv-x="1634" >
<path fill="black" d="M161 837 Q161 980 207 1097.5 Q253 1215 338.5 1299 Q424 1383 545 1429.5 Q666 1476 816 1476 Q966 1476 1087.5 1429.5 Q1209 1383 1294.5 1299 Q1380 1215 1426.5 1097.5 Q1473 980 1473 837 L1473 619 Q1473 477 1427 359 Q1381 241 1296 157 Q1211 73 1089.5 26.5 Q968 -20 818 -20 Q668 -20 546.5 26.5 Q425 73 339.5 157 Q254 241 207.5 359 Q161 477 161 619 L161 837 Z M217 619 Q217 490 257.5 382.5 Q298 275 375 197.5 Q452 120 564 77 Q676 34 818 34 Q961 34 1073 77 Q1185 120 1262 197.5 Q1339 275 1379 382.5 Q1419 490 1419 619 L1419 839 Q1419 967 1378.5 1074 Q1338 1181 1260.5 1258.5 Q1183 1336 1071 1379 Q959 1422 816 1422 Q674 1422 562.5 1379 Q451 1336 374 1258.5 Q297 1181 257 1074 Q217 967 217 839 L217 619 Z " />
<g transform="translate(317,351)" >
<path fill="black" d="M158 1383 L158 1436 L831 1436 L831 1383 L158 1383 Z " />
</g>
</glyph>
<glyph glyph-name="omacron" unicode="&#x14d;" horiz-adv-x="1350" >
<path fill="black" d="M108 562 Q108 681 149.5 780 Q191 879 266 950.5 Q341 1022 445 1062 Q549 1102 674 1102 Q801 1102 905.5 1062 Q1010 1022 1085 950.5 Q1160 879 1201 780 Q1242 681 1242 562 L1242 520 Q1242 401 1201 302 Q1160 203 1085.5 131.5 Q1011 60 907 20 Q803 -20 677 -20 Q551 -20 446 20 Q341 60 266 131.5 Q191 203 149.5 302 Q108 401 108 520 L108 562 Z M163 520 Q163 423 198 335 Q233 247 299 180 Q365 113 460.5 73.5 Q556 34 677 34 Q797 34 891.5 73.5 Q986 113 1052 180 Q1118 247 1152.5 335 Q1187 423 1187 520 L1187 562 Q1187 657 1152.5 744.5 Q1118 832 1052 899.5 Q986 967 890.5 1007.5 Q795 1048 674 1048 Q554 1048 459 1007.5 Q364 967 298 899.5 Q232 832 197.5 744.5 Q163 657 163 562 L163 520 Z " />
<g transform="translate(188,8)" >
<path fill="black" d="M158 1383 L158 1436 L831 1436 L831 1383 L158 1383 Z " />
</g>
</glyph>
<glyph glyph-name="Ohungarumlaut" unicode="&#x150;" horiz-adv-x="1634" d="M161 837 Q161 980 207 1097.5 Q253 1215 338.5 1299 Q424 1383 545 1429.5 Q666 1476 816 1476 Q966 1476 1087.5 1429.5 Q1209 1383 1294.5 1299 Q1380 1215 1426.5 1097.5 Q1473 980 1473 837 L1473 619 Q1473 477 1427 359 Q1381 241 1296 157 Q1211 73 1089.5 26.5 Q968 -20 818 -20 Q668 -20 546.5 26.5 Q425 73 339.5 157 Q254 241 207.5 359 Q161 477 161 619 L161 837 Z M217 619 Q217 490 257.5 382.5 Q298 275 375 197.5 Q452 120 564 77 Q676 34 818 34 Q961 34 1073 77 Q1185 120 1262 197.5 Q1339 275 1379 382.5 Q1419 490 1419 619 L1419 839 Q1419 967 1378.5 1074 Q1338 1181 1260.5 1258.5 Q1183 1336 1071 1379 Q959 1422 816 1422 Q674 1422 562.5 1379 Q451 1336 374 1258.5 Q297 1181 257 1074 Q217 967 217 839 L217 619 Z M1213 1876 L1299 1876 L952 1572 L872 1572 L1213 1876 Z M881 1876 L963 1876 L670 1572 L593 1572 L881 1876 Z " />
<glyph glyph-name="ohungarumlaut" unicode="&#x151;" horiz-adv-x="1350" d="M108 562 Q108 681 149.5 780 Q191 879 266 950.5 Q341 1022 445 1062 Q549 1102 674 1102 Q801 1102 905.5 1062 Q1010 1022 1085 950.5 Q1160 879 1201 780 Q1242 681 1242 562 L1242 520 Q1242 401 1201 302 Q1160 203 1085.5 131.5 Q1011 60 907 20 Q803 -20 677 -20 Q551 -20 446 20 Q341 60 266 131.5 Q191 203 149.5 302 Q108 401 108 520 L108 562 Z M163 520 Q163 423 198 335 Q233 247 299 180 Q365 113 460.5 73.5 Q556 34 677 34 Q797 34 891.5 73.5 Q986 113 1052 180 Q1118 247 1152.5 335 Q1187 423 1187 520 L1187 562 Q1187 657 1152.5 744.5 Q1118 832 1052 899.5 Q986 967 890.5 1007.5 Q795 1048 674 1048 Q554 1048 459 1007.5 Q364 967 298 899.5 Q232 832 197.5 744.5 Q163 657 163 562 L163 520 Z M1084 1533 L1170 1533 L823 1229 L743 1229 L1084 1533 Z M752 1533 L834 1533 L541 1229 L464 1229 L752 1533 Z " />
<glyph glyph-name="OE" unicode="&#x152;" horiz-adv-x="1873" d="M135 880 Q135 1012 180 1122 Q225 1232 306.5 1310.5 Q388 1389 501.5 1432.5 Q615 1476 753 1476 Q859 1476 960.5 1470 Q1062 1464 1154 1456 L2162 1456 L2162 1402 L1156 1402 L1156 776 L2039 776 L2039 722 L1156 722 L1156 54 L2161 54 L2161 0 L1154 0 Q1062 -8 961.5 -14.5 Q861 -21 755 -21 Q617 -21 503 22.5 Q389 66 307.5 145 Q226 224 180.5 334 Q135 444 135 576 L135 880 Z M190 576 Q190 458 230 358 Q270 258 344 186 Q418 114 522 73.5 Q626 33 755 33 Q842 33 932.5 36 Q1023 39 1101 47 L1101 1409 Q1021 1417 934 1419.5 Q847 1422 753 1422 Q624 1422 520 1383 Q416 1344 342.5 1273 Q269 1202 229.5 1102.5 Q190 1003 190 882 L190 576 Z " />
<glyph glyph-name="oe" unicode="&#x153;" horiz-adv-x="2314" d="M110 562 Q110 681 151.5 780 Q193 879 268 950.5 Q343 1022 447.5 1062 Q552 1102 677 1102 Q779 1102 867.5 1076 Q956 1050 1025.5 1002 Q1095 954 1145 886 Q1195 818 1220 734 Q1246 818 1295.5 886 Q1345 954 1412.5 1002 Q1480 1050 1562.5 1076 Q1645 1102 1736 1102 Q1843 1102 1933.5 1071.5 Q2024 1041 2090 984 Q2156 927 2193.5 845 Q2231 763 2231 660 L2231 577 L1251 577 L1251 564 L1251 500 Q1251 403 1288.5 318 Q1326 233 1391.5 170 Q1457 107 1546 70.5 Q1635 34 1738 34 Q1814 34 1875.5 42.5 Q1937 51 1987 68 Q2037 85 2077 109.5 Q2117 134 2150 165 L2182 123 Q2107 54 1999 17 Q1891 -20 1738 -20 Q1651 -20 1569 6 Q1487 32 1418 80 Q1349 128 1297.5 195.5 Q1246 263 1219 345 Q1193 262 1143.5 194.5 Q1094 127 1024.5 79.5 Q955 32 867.5 6 Q780 -20 679 -20 Q553 -20 448.5 20 Q344 60 268.5 131.5 Q193 203 151.5 302 Q110 401 110 520 L110 562 Z M165 520 Q165 423 200 335 Q235 247 301 180 Q367 113 462.5 73.5 Q558 34 679 34 Q799 34 894 73.5 Q989 113 1054.5 180 Q1120 247 1155 335 Q1190 423 1190 520 L1190 562 Q1190 657 1155 744.5 Q1120 832 1054 899.5 Q988 967 893 1007.5 Q798 1048 677 1048 Q557 1048 462 1007.5 Q367 967 301 899.5 Q235 832 200 744.5 Q165 657 165 562 L165 520 Z M2176 631 L2176 664 Q2176 745 2144 815.5 Q2112 886 2054.5 937.5 Q1997 989 1916 1018.5 Q1835 1048 1736 1048 Q1636 1048 1552 1016 Q1468 984 1406 928 Q1344 872 1305 796 Q1266 720 1255 631 L2176 631 Z " />
<glyph glyph-name="Racute" unicode="&#x154;" horiz-adv-x="1614" >
<path fill="black" d="M236 1456 L791 1456 Q915 1456 1019.5 1428.5 Q1124 1401 1200.5 1347.5 Q1277 1294 1320 1216 Q1363 1138 1363 1036 Q1363 958 1332 890.5 Q1301 823 1247 770.5 Q1193 718 1120.5 683.5 Q1048 649 966 637 L1436 14 L1436 0 L1378 0 L910 623 L291 623 L291 0 L236 0 L236 1456 Z M291 677 L853 677 Q966 677 1051.5 707.5 Q1137 738 1194 788.5 Q1251 839 1279.5 903.5 Q1308 968 1308 1036 Q1308 1122 1271 1190 Q1234 1258 1166.5 1305 Q1099 1352 1003.5 1377 Q908 1402 791 1402 L291 1402 L291 677 Z " />
<g transform="translate(533,319)" >
<path fill="black" d="M377 1536 L445 1536 L216 1270 L151 1270 L377 1536 Z " />
</g>
</glyph>
<glyph glyph-name="racute" unicode="&#x155;" horiz-adv-x="822" >
<path fill="black" d="M209 1082 L264 1082 L264 850 Q317 966 424.5 1034 Q532 1102 695 1102 Q725 1102 747.5 1099 Q770 1096 786 1091 L778 1043 Q760 1045 739 1047 Q718 1049 696 1049 Q603 1049 530 1023 Q457 997 403 950.5 Q349 904 314 841 Q279 778 264 704 L264 0 L209 0 L209 1082 Z " />
<g transform="translate(302,-3)" >
<path fill="black" d="M377 1536 L445 1536 L216 1270 L151 1270 L377 1536 Z " />
</g>
</glyph>
<glyph glyph-name="uni0156" unicode="&#x156;" horiz-adv-x="1340" >
<path fill="black" d="M236 1456 L791 1456 Q915 1456 1019.5 1428.5 Q1124 1401 1200.5 1347.5 Q1277 1294 1320 1216 Q1363 1138 1363 1036 Q1363 958 1332 890.5 Q1301 823 1247 770.5 Q1193 718 1120.5 683.5 Q1048 649 966 637 L1436 14 L1436 0 L1378 0 L910 623 L291 623 L291 0 L236 0 L236 1456 Z M291 677 L853 677 Q966 677 1051.5 707.5 Q1137 738 1194 788.5 Q1251 839 1279.5 903.5 Q1308 968 1308 1036 Q1308 1122 1271 1190 Q1234 1258 1166.5 1305 Q1099 1352 1003.5 1377 Q908 1402 791 1402 L291 1402 L291 677 Z " />
<g transform="translate(360,-205)" >
<path fill="black" d="M-769 -460 Q-727 -411 -707 -364 Q-687 -317 -687 -252 L-687 -173 L-631 -173 L-631 -250 Q-631 -329 -658.5 -389 Q-686 -449 -730 -492 L-769 -460 Z " />
</g>
</glyph>
<glyph glyph-name="uni0157" unicode="&#x157;" horiz-adv-x="685" >
<path fill="black" d="M209 1082 L264 1082 L264 850 Q317 966 424.5 1034 Q532 1102 695 1102 Q725 1102 747.5 1099 Q770 1096 786 1091 L778 1043 Q760 1045 739 1047 Q718 1049 696 1049 Q603 1049 530 1023 Q457 997 403 950.5 Q349 904 314 841 Q279 778 264 704 L264 0 L209 0 L209 1082 Z " />
<g transform="translate(-47,-196)" >
<path fill="black" d="M-769 -460 Q-727 -411 -707 -364 Q-687 -317 -687 -252 L-687 -173 L-631 -173 L-631 -250 Q-631 -329 -658.5 -389 Q-686 -449 -730 -492 L-769 -460 Z " />
</g>
</glyph>
<glyph glyph-name="Rcaron" unicode="&#x158;" horiz-adv-x="1614" >
<path fill="black" d="M236 1456 L791 1456 Q915 1456 1019.5 1428.5 Q1124 1401 1200.5 1347.5 Q1277 1294 1320 1216 Q1363 1138 1363 1036 Q1363 958 1332 890.5 Q1301 823 1247 770.5 Q1193 718 1120.5 683.5 Q1048 649 966 637 L1436 14 L1436 0 L1378 0 L910 623 L291 623 L291 0 L236 0 L236 1456 Z M291 677 L853 677 Q966 677 1051.5 707.5 Q1137 738 1194 788.5 Q1251 839 1279.5 903.5 Q1308 968 1308 1036 Q1308 1122 1271 1190 Q1234 1258 1166.5 1305 Q1099 1352 1003.5 1377 Q908 1402 791 1402 L291 1402 L291 677 Z " />
<g transform="translate(254,324)" >
<path fill="black" d="M176 1506 L237 1506 L472 1289 L708 1506 L763 1506 L763 1493 L504 1243 L438 1243 L176 1495 L176 1506 Z " />
</g>
</glyph>
<glyph glyph-name="rcaron" unicode="&#x159;" horiz-adv-x="822" >
<path fill="black" d="M209 1082 L264 1082 L264 850 Q317 966 424.5 1034 Q532 1102 695 1102 Q725 1102 747.5 1099 Q770 1096 786 1091 L778 1043 Q760 1045 739 1047 Q718 1049 696 1049 Q603 1049 530 1023 Q457 997 403 950.5 Q349 904 314 841 Q279 778 264 704 L264 0 L209 0 L209 1082 Z " />
<g transform="translate(23,2)" >
<path fill="black" d="M176 1506 L237 1506 L472 1289 L708 1506 L763 1506 L763 1493 L504 1243 L438 1243 L176 1495 L176 1506 Z " />
</g>
</glyph>
<glyph glyph-name="Sacute" unicode="&#x15a;" horiz-adv-x="1452" >
<path fill="black" d="M171 411 Q171 338 197 282 Q223 226 267 184 Q311 142 370 113.5 Q429 85 494 67 Q559 49 627.5 41.5 Q696 34 759 34 Q876 34 974.5 57 Q1073 80 1144 121.5 Q1215 163 1255 221 Q1295 279 1295 349 Q1295 418 1266 471.5 Q1237 525 1172 568.5 Q1107 612 1003 648 Q899 684 749 718 Q616 748 509 782 Q402 816 327 861.5 Q252 907 212 969.5 Q172 1032 172 1120 Q172 1203 216.5 1269 Q261 1335 338.5 1381 Q416 1427 522 1451.5 Q628 1476 751 1476 Q877 1476 983.5 1445 Q1090 1414 1167 1357.5 Q1244 1301 1287.5 1221.5 Q1331 1142 1331 1046 L1277 1046 Q1277 1127 1239 1195.5 Q1201 1264 1132 1314.5 Q1063 1365 966 1393.5 Q869 1422 751 1422 Q625 1422 527.5 1397.5 Q430 1373 363.5 1331.5 Q297 1290 262 1235.5 Q227 1181 227 1122 Q227 1064 251 1014.5 Q275 965 336 922 Q397 879 500.5 841.5 Q604 804 764 770 Q892 742 999.5 707.5 Q1107 673 1185 624.5 Q1263 576 1307 509.5 Q1351 443 1351 351 Q1351 262 1304 193 Q1257 124 1176.5 76.5 Q1096 29 988.5 4.5 Q881 -20 759 -20 Q685 -20 608.5 -10.5 Q532 -1 460.5 19.5 Q389 40 326 73 Q263 106 216.5 154 Q170 202 143 266 Q116 330 116 411 L171 411 Z " />
<g transform="translate(565,340)" >
<path fill="black" d="M377 1536 L445 1536 L216 1270 L151 1270 L377 1536 Z " />
</g>
</glyph>
<glyph glyph-name="sacute" unicode="&#x15b;" horiz-adv-x="1220" >
<path fill="black" d="M186 275 Q192 205 233 159 Q274 113 334.5 85 Q395 57 468.5 45.5 Q542 34 614 34 Q712 34 786 54 Q860 74 910.5 107 Q961 140 986.5 181.5 Q1012 223 1012 265 Q1012 302 995 340 Q978 378 933 413.5 Q888 449 810 479.5 Q732 510 610 532 Q501 552 419 575.5 Q337 599 282.5 633.5 Q228 668 200.5 715.5 Q173 763 173 829 Q173 886 202.5 935.5 Q232 985 287.5 1022 Q343 1059 423 1080.5 Q503 1102 604 1102 Q713 1102 799 1079.5 Q885 1057 944.5 1016.5 Q1004 976 1035.5 919 Q1067 862 1067 793 L1011 793 Q1011 843 984.5 889.5 Q958 936 906 971 Q854 1006 778 1027 Q702 1048 604 1048 Q504 1048 432.5 1028.5 Q361 1009 315.5 977.5 Q270 946 249 907.5 Q228 869 228 831 Q228 789 242.5 754 Q257 719 299.5 688 Q342 657 420.5 630 Q499 603 627 579 Q743 557 826 529 Q909 501 962.5 463.5 Q1016 426 1041.5 377 Q1067 328 1067 264 Q1067 201 1035.5 149 Q1004 97 945 59.5 Q886 22 802 1 Q718 -20 614 -20 Q497 -20 407 3.5 Q317 27 255.5 67.5 Q194 108 162.5 161.5 Q131 215 131 275 L186 275 Z " />
<g transform="translate(417,-3)" >
<path fill="black" d="M377 1536 L445 1536 L216 1270 L151 1270 L377 1536 Z " />
</g>
</glyph>
<glyph glyph-name="Scedilla" unicode="&#x15e;" horiz-adv-x="1452" d="M640 -396 Q689 -396 740.5 -388 Q792 -380 834 -362.5 Q876 -345 903 -318.5 Q930 -292 930 -255 Q930 -222 915 -200.5 Q900 -179 871 -165 Q842 -151 799.5 -143.5 Q757 -136 701 -131 L728 -20 Q656 -18 582 -7 Q508 4 440 25.5 Q372 47 313 80.5 Q254 114 210 161 Q166 208 141 270 Q116 332 116 411 L171 411 Q171 338 197 282 Q223 226 267 184 Q311 142 370 113.5 Q429 85 494 67 Q559 49 627.5 41.5 Q696 34 759 34 Q876 34 974.5 57 Q1073 80 1144 121.5 Q1215 163 1255 221 Q1295 279 1295 349 Q1295 418 1266 471.5 Q1237 525 1172 568.5 Q1107 612 1003 648 Q899 684 749 718 Q616 748 509 782 Q402 816 327 861.5 Q252 907 212 969.5 Q172 1032 172 1120 Q172 1203 216.5 1269 Q261 1335 338.5 1381 Q416 1427 522 1451.5 Q628 1476 751 1476 Q877 1476 983.5 1445 Q1090 1414 1167 1357.5 Q1244 1301 1287.5 1221.5 Q1331 1142 1331 1046 L1277 1046 Q1277 1127 1239 1195.5 Q1201 1264 1132 1314.5 Q1063 1365 966 1393.5 Q869 1422 751 1422 Q625 1422 527.5 1397.5 Q430 1373 363.5 1331.5 Q297 1290 262 1235.5 Q227 1181 227 1122 Q227 1064 251 1014.5 Q275 965 336 922 Q397 879 500.5 841.5 Q604 804 764 770 Q892 742 999.5 707.5 Q1107 673 1185 624.5 Q1263 576 1307 509.5 Q1351 443 1351 351 Q1351 264 1306.5 196.5 Q1262 129 1185.5 82 Q1109 35 1006 9 Q903 -17 786 -20 L775 -86 Q816 -89 854.5 -99 Q893 -109 923 -128.5 Q953 -148 971 -179 Q989 -210 989 -255 Q989 -298 965.5 -333 Q942 -368 897.5 -393 Q853 -418 790 -431.5 Q727 -445 648 -445 L640 -396 Z " />
<glyph glyph-name="scedilla" unicode="&#x15f;" horiz-adv-x="1220" d="M493 -391 Q542 -391 593.5 -383 Q645 -375 687 -357.5 Q729 -340 756 -313.5 Q783 -287 783 -250 Q783 -217 768 -195.5 Q753 -174 724 -160 Q695 -146 652.5 -138.5 Q610 -131 554 -126 L580 -19 Q471 -16 387 9 Q303 34 246 74 Q189 114 160 166 Q131 218 131 275 L186 275 Q192 205 233 159 Q274 113 334.5 85 Q395 57 468.5 45.5 Q542 34 614 34 Q712 34 786 54 Q860 74 910.5 107 Q961 140 986.5 181.5 Q1012 223 1012 265 Q1012 302 995 340 Q978 378 933 413.5 Q888 449 810 479.5 Q732 510 610 532 Q501 552 419 575.5 Q337 599 282.5 633.5 Q228 668 200.5 715.5 Q173 763 173 829 Q173 886 202.5 935.5 Q232 985 287.5 1022 Q343 1059 423 1080.5 Q503 1102 604 1102 Q713 1102 799 1079.5 Q885 1057 944.5 1016.5 Q1004 976 1035.5 919 Q1067 862 1067 793 L1011 793 Q1011 843 984.5 889.5 Q958 936 906 971 Q854 1006 778 1027 Q702 1048 604 1048 Q504 1048 432.5 1028.5 Q361 1009 315.5 977.5 Q270 946 249 907.5 Q228 869 228 831 Q228 789 242.5 754 Q257 719 299.5 688 Q342 657 420.5 630 Q499 603 627 579 Q743 557 826 529 Q909 501 962.5 463.5 Q1016 426 1041.5 377 Q1067 328 1067 264 Q1067 203 1037 152 Q1007 101 951.5 63.5 Q896 26 816.5 4.5 Q737 -17 638 -20 L628 -81 Q669 -84 707.5 -94 Q746 -104 776 -123.5 Q806 -143 824 -174 Q842 -205 842 -250 Q842 -293 818.5 -328 Q795 -363 750.5 -388 Q706 -413 643 -426.5 Q580 -440 501 -440 L493 -391 Z " />
<glyph glyph-name="Scaron" unicode="&#x160;" horiz-adv-x="1452" >
<path fill="black" d="M171 411 Q171 338 197 282 Q223 226 267 184 Q311 142 370 113.5 Q429 85 494 67 Q559 49 627.5 41.5 Q696 34 759 34 Q876 34 974.5 57 Q1073 80 1144 121.5 Q1215 163 1255 221 Q1295 279 1295 349 Q1295 418 1266 471.5 Q1237 525 1172 568.5 Q1107 612 1003 648 Q899 684 749 718 Q616 748 509 782 Q402 816 327 861.5 Q252 907 212 969.5 Q172 1032 172 1120 Q172 1203 216.5 1269 Q261 1335 338.5 1381 Q416 1427 522 1451.5 Q628 1476 751 1476 Q877 1476 983.5 1445 Q1090 1414 1167 1357.5 Q1244 1301 1287.5 1221.5 Q1331 1142 1331 1046 L1277 1046 Q1277 1127 1239 1195.5 Q1201 1264 1132 1314.5 Q1063 1365 966 1393.5 Q869 1422 751 1422 Q625 1422 527.5 1397.5 Q430 1373 363.5 1331.5 Q297 1290 262 1235.5 Q227 1181 227 1122 Q227 1064 251 1014.5 Q275 965 336 922 Q397 879 500.5 841.5 Q604 804 764 770 Q892 742 999.5 707.5 Q1107 673 1185 624.5 Q1263 576 1307 509.5 Q1351 443 1351 351 Q1351 262 1304 193 Q1257 124 1176.5 76.5 Q1096 29 988.5 4.5 Q881 -20 759 -20 Q685 -20 608.5 -10.5 Q532 -1 460.5 19.5 Q389 40 326 73 Q263 106 216.5 154 Q170 202 143 266 Q116 330 116 411 L171 411 Z " />
<g transform="translate(286,345)" >
<path fill="black" d="M176 1506 L237 1506 L472 1289 L708 1506 L763 1506 L763 1493 L504 1243 L438 1243 L176 1495 L176 1506 Z " />
</g>
</glyph>
<glyph glyph-name="scaron" unicode="&#x161;" horiz-adv-x="1220" >
<path fill="black" d="M186 275 Q192 205 233 159 Q274 113 334.5 85 Q395 57 468.5 45.5 Q542 34 614 34 Q712 34 786 54 Q860 74 910.5 107 Q961 140 986.5 181.5 Q1012 223 1012 265 Q1012 302 995 340 Q978 378 933 413.5 Q888 449 810 479.5 Q732 510 610 532 Q501 552 419 575.5 Q337 599 282.5 633.5 Q228 668 200.5 715.5 Q173 763 173 829 Q173 886 202.5 935.5 Q232 985 287.5 1022 Q343 1059 423 1080.5 Q503 1102 604 1102 Q713 1102 799 1079.5 Q885 1057 944.5 1016.5 Q1004 976 1035.5 919 Q1067 862 1067 793 L1011 793 Q1011 843 984.5 889.5 Q958 936 906 971 Q854 1006 778 1027 Q702 1048 604 1048 Q504 1048 432.5 1028.5 Q361 1009 315.5 977.5 Q270 946 249 907.5 Q228 869 228 831 Q228 789 242.5 754 Q257 719 299.5 688 Q342 657 420.5 630 Q499 603 627 579 Q743 557 826 529 Q909 501 962.5 463.5 Q1016 426 1041.5 377 Q1067 328 1067 264 Q1067 201 1035.5 149 Q1004 97 945 59.5 Q886 22 802 1 Q718 -20 614 -20 Q497 -20 407 3.5 Q317 27 255.5 67.5 Q194 108 162.5 161.5 Q131 215 131 275 L186 275 Z " />
<g transform="translate(138,2)" >
<path fill="black" d="M176 1506 L237 1506 L472 1289 L708 1506 L763 1506 L763 1493 L504 1243 L438 1243 L176 1495 L176 1506 Z " />
</g>
</glyph>
<glyph glyph-name="uni0162" unicode="&#x162;" horiz-adv-x="1469" d="M616 -386 Q665 -386 716.5 -378 Q768 -370 810 -352.5 Q852 -335 879 -308.5 Q906 -282 906 -245 Q906 -212 891 -190.5 Q876 -169 847 -155 Q818 -141 775.5 -133.5 Q733 -126 677 -121 L706 0 L707 0 L707 1402 L66 1402 L66 1456 L1402 1456 L1402 1402 L761 1402 L761 0 L764 0 L751 -76 Q792 -79 830.5 -89 Q869 -99 899 -118.5 Q929 -138 947 -169 Q965 -200 965 -245 Q965 -288 941.5 -323 Q918 -358 873.5 -383 Q829 -408 766 -421.5 Q703 -435 624 -435 L616 -386 Z " />
<glyph glyph-name="uni0163" unicode="&#x163;" horiz-adv-x="777" d="M375 -386 Q424 -386 475.5 -378 Q527 -370 569 -352.5 Q611 -335 638 -308.5 Q665 -282 665 -245 Q665 -212 650 -190.5 Q635 -169 606 -155 Q577 -141 534.5 -133.5 Q492 -126 436 -121 L462 -12 Q420 -4 388 15 Q356 34 333.5 66 Q311 98 299.5 145.5 Q288 193 288 259 L288 1027 L48 1027 L48 1082 L288 1082 L288 1374 L345 1374 L345 1082 L643 1082 L643 1027 L345 1027 L345 259 Q345 188 361 144 Q377 100 404 75.5 Q431 51 467 42.5 Q503 34 543 34 Q581 34 609.5 36.5 Q638 39 673 43 L685 -8 Q672 -12 653.5 -14 Q635 -16 616.5 -17.5 Q598 -19 580.5 -19.5 Q563 -20 551 -20 Q543 -20 535.5 -20 Q528 -20 520 -19 L510 -76 Q551 -79 589.5 -89 Q628 -99 658 -118.5 Q688 -138 706 -169 Q724 -200 724 -245 Q724 -288 700.5 -323 Q677 -358 632.5 -383 Q588 -408 525 -421.5 Q462 -435 383 -435 L375 -386 Z " />
<glyph glyph-name="Tcaron" unicode="&#x164;" horiz-adv-x="1469" >
<path fill="black" d="M707 1402 L66 1402 L66 1456 L1402 1456 L1402 1402 L761 1402 L761 0 L707 0 L707 1402 Z " />
<g transform="translate(257,316)" >
<path fill="black" d="M176 1506 L237 1506 L472 1289 L708 1506 L763 1506 L763 1493 L504 1243 L438 1243 L176 1495 L176 1506 Z " />
</g>
</glyph>
<glyph glyph-name="tcaron" unicode="&#x165;" horiz-adv-x="688" >
<path fill="black" d="M288 1027 L48 1027 L48 1082 L288 1082 L288 1374 L345 1374 L345 1082 L643 1082 L643 1027 L345 1027 L345 259 Q345 188 361 144 Q377 100 404 75.5 Q431 51 467 42.5 Q503 34 543 34 Q581 34 609.5 36.5 Q638 39 673 43 L685 -8 Q672 -12 653.5 -14 Q635 -16 616.5 -17.5 Q598 -19 580.5 -19.5 Q563 -20 551 -20 Q489 -20 440 -7 Q391 6 357.5 38 Q324 70 306 124 Q288 178 288 259 L288 1027 Z " />
<g transform="translate(300,1444)" >
<path fill="black" d="M-769 -460 Q-727 -411 -707 -364 Q-687 -317 -687 -252 L-687 -173 L-631 -173 L-631 -250 Q-631 -329 -658.5 -389 Q-686 -449 -730 -492 L-769 -460 Z " />
</g>
</glyph>
<glyph glyph-name="Tbar" unicode="&#x166;" horiz-adv-x="1469" d="M707 847 L360 847 L360 901 L707 901 L707 1402 L66 1402 L66 1456 L1402 1456 L1402 1402 L761 1402 L761 901 L1061 901 L1061 847 L761 847 L761 0 L707 0 L707 847 Z " />
<glyph glyph-name="tbar" unicode="&#x167;" horiz-adv-x="777" d="M288 634 L53 634 L53 688 L288 688 L288 1027 L48 1027 L48 1082 L288 1082 L288 1374 L345 1374 L345 1082 L643 1082 L643 1027 L345 1027 L345 688 L754 688 L754 634 L345 634 L345 259 Q345 188 361 144 Q377 100 404 75.5 Q431 51 467 42.5 Q503 34 543 34 Q581 34 609.5 36.5 Q638 39 673 43 L685 -8 Q672 -12 653.5 -14 Q635 -16 616.5 -17.5 Q598 -19 580.5 -19.5 Q563 -20 551 -20 Q489 -20 440 -7 Q391 6 357.5 38 Q324 70 306 124 Q288 178 288 259 L288 634 Z " />
<glyph glyph-name="Utilde" unicode="&#x168;" horiz-adv-x="1641" >
<path fill="black" d="M225 1456 L280 1456 L280 469 Q280 364 321.5 282.5 Q363 201 435.5 146 Q508 91 607 62.5 Q706 34 821 34 Q936 34 1034.5 62.5 Q1133 91 1205.5 146 Q1278 201 1319 282.5 Q1360 364 1360 469 L1360 1456 L1415 1456 L1415 469 Q1415 346 1370 254.5 Q1325 163 1245.5 102 Q1166 41 1057.5 10.5 Q949 -20 821 -20 Q694 -20 584.5 10.5 Q475 41 395.5 102 Q316 163 270.5 254.5 Q225 346 225 469 L225 1456 Z " />
<g transform="translate(362,334)" >
<path fill="black" d="M106 1286 Q106 1327 122 1360.5 Q138 1394 166 1417 Q194 1440 232 1452.5 Q270 1465 314 1465 Q377 1465 420 1445.5 Q463 1426 499.5 1403 Q536 1380 572.5 1360.5 Q609 1341 660 1341 Q690 1341 716.5 1349.5 Q743 1358 763.5 1375 Q784 1392 795.5 1416.5 Q807 1441 807 1472 L868 1472 Q868 1430 851.5 1396 Q835 1362 807 1337.5 Q779 1313 741 1299.5 Q703 1286 659 1286 Q594 1286 552 1305.5 Q510 1325 475 1348.5 Q440 1372 403.5 1391.5 Q367 1411 314 1411 Q283 1411 256.5 1403.5 Q230 1396 210 1380 Q190 1364 178.5 1341 Q167 1318 167 1286 L106 1286 Z " />
</g>
</glyph>
<glyph glyph-name="utilde" unicode="&#x169;" horiz-adv-x="1344" >
<path fill="black" d="M204 1082 L259 1082 L259 393 Q259 294 286.5 225.5 Q314 157 363 114.5 Q412 72 479.5 53 Q547 34 627 34 Q739 34 819.5 58 Q900 82 954.5 122.5 Q1009 163 1040 216.5 Q1071 270 1083 330 L1083 1082 L1140 1082 L1140 425 L1145 425 Q1145 405 1143.5 386 Q1142 367 1140 348 L1140 0 L1083 0 L1083 182 Q1026 89 915 34.5 Q804 -20 631 -20 Q536 -20 457.5 2.5 Q379 25 322.5 74.5 Q266 124 235 203 Q204 282 204 395 L204 1082 Z " />
<g transform="translate(221,15)" >
<path fill="black" d="M106 1286 Q106 1327 122 1360.5 Q138 1394 166 1417 Q194 1440 232 1452.5 Q270 1465 314 1465 Q377 1465 420 1445.5 Q463 1426 499.5 1403 Q536 1380 572.5 1360.5 Q609 1341 660 1341 Q690 1341 716.5 1349.5 Q743 1358 763.5 1375 Q784 1392 795.5 1416.5 Q807 1441 807 1472 L868 1472 Q868 1430 851.5 1396 Q835 1362 807 1337.5 Q779 1313 741 1299.5 Q703 1286 659 1286 Q594 1286 552 1305.5 Q510 1325 475 1348.5 Q440 1372 403.5 1391.5 Q367 1411 314 1411 Q283 1411 256.5 1403.5 Q230 1396 210 1380 Q190 1364 178.5 1341 Q167 1318 167 1286 L106 1286 Z " />
</g>
</glyph>
<glyph glyph-name="Umacron" unicode="&#x16a;" horiz-adv-x="1641" >
<path fill="black" d="M225 1456 L280 1456 L280 469 Q280 364 321.5 282.5 Q363 201 435.5 146 Q508 91 607 62.5 Q706 34 821 34 Q936 34 1034.5 62.5 Q1133 91 1205.5 146 Q1278 201 1319 282.5 Q1360 364 1360 469 L1360 1456 L1415 1456 L1415 469 Q1415 346 1370 254.5 Q1325 163 1245.5 102 Q1166 41 1057.5 10.5 Q949 -20 821 -20 Q694 -20 584.5 10.5 Q475 41 395.5 102 Q316 163 270.5 254.5 Q225 346 225 469 L225 1456 Z " />
<g transform="translate(346,330)" >
<path fill="black" d="M158 1383 L158 1436 L831 1436 L831 1383 L158 1383 Z " />
</g>
</glyph>
<glyph glyph-name="umacron" unicode="&#x16b;" horiz-adv-x="1344" d="M204 1082 L259 1082 L259 393 Q259 294 286.5 225.5 Q314 157 363 114.5 Q412 72 479.5 53 Q547 34 627 34 Q739 34 819.5 58 Q900 82 954.5 122.5 Q1009 163 1040 216.5 Q1071 270 1083 330 L1083 1082 L1140 1082 L1140 425 L1145 425 Q1145 405 1143.5 386 Q1142 367 1140 348 L1140 0 L1083 0 L1083 182 Q1026 89 915 34.5 Q804 -20 631 -20 Q536 -20 457.5 2.5 Q379 25 322.5 74.5 Q266 124 235 203 Q204 282 204 395 L204 1082 Z M363 1447 L1036 1447 L1036 1394 L363 1394 L363 1447 Z " />
<glyph glyph-name="Uring" unicode="&#x16e;" horiz-adv-x="1641" >
<path fill="black" d="M225 1456 L280 1456 L280 469 Q280 364 321.5 282.5 Q363 201 435.5 146 Q508 91 607 62.5 Q706 34 821 34 Q936 34 1034.5 62.5 Q1133 91 1205.5 146 Q1278 201 1319 282.5 Q1360 364 1360 469 L1360 1456 L1415 1456 L1415 469 Q1415 346 1370 254.5 Q1325 163 1245.5 102 Q1166 41 1057.5 10.5 Q949 -20 821 -20 Q694 -20 584.5 10.5 Q475 41 395.5 102 Q316 163 270.5 254.5 Q225 346 225 469 L225 1456 Z " />
<g transform="translate(503,319)" >
<path fill="black" d="M136 1382 Q136 1419 151.5 1450.5 Q167 1482 194.5 1505.5 Q222 1529 259 1542.5 Q296 1556 338 1556 Q380 1556 417 1542.5 Q454 1529 481 1505.5 Q508 1482 524 1450.5 Q540 1419 540 1382 Q540 1345 524 1314 Q508 1283 481 1260.5 Q454 1238 417 1225 Q380 1212 338 1212 Q296 1212 259 1225 Q222 1238 194.5 1260.5 Q167 1283 151.5 1314 Q136 1345 136 1382 Z M197 1382 Q197 1330 236.5 1298 Q276 1266 338 1266 Q400 1266 439 1298 Q478 1330 478 1382 Q478 1436 439 1469 Q400 1502 338 1502 Q276 1502 236.5 1469 Q197 1436 197 1382 Z " />
</g>
</glyph>
<glyph glyph-name="uring" unicode="&#x16f;" horiz-adv-x="1344" >
<path fill="black" d="M204 1082 L259 1082 L259 393 Q259 294 286.5 225.5 Q314 157 363 114.5 Q412 72 479.5 53 Q547 34 627 34 Q739 34 819.5 58 Q900 82 954.5 122.5 Q1009 163 1040 216.5 Q1071 270 1083 330 L1083 1082 L1140 1082 L1140 425 L1145 425 Q1145 405 1143.5 386 Q1142 367 1140 348 L1140 0 L1083 0 L1083 182 Q1026 89 915 34.5 Q804 -20 631 -20 Q536 -20 457.5 2.5 Q379 25 322.5 74.5 Q266 124 235 203 Q204 282 204 395 L204 1082 Z " />
<g transform="translate(362,0)" >
<path fill="black" d="M136 1382 Q136 1419 151.5 1450.5 Q167 1482 194.5 1505.5 Q222 1529 259 1542.5 Q296 1556 338 1556 Q380 1556 417 1542.5 Q454 1529 481 1505.5 Q508 1482 524 1450.5 Q540 1419 540 1382 Q540 1345 524 1314 Q508 1283 481 1260.5 Q454 1238 417 1225 Q380 1212 338 1212 Q296 1212 259 1225 Q222 1238 194.5 1260.5 Q167 1283 151.5 1314 Q136 1345 136 1382 Z M197 1382 Q197 1330 236.5 1298 Q276 1266 338 1266 Q400 1266 439 1298 Q478 1330 478 1382 Q478 1436 439 1469 Q400 1502 338 1502 Q276 1502 236.5 1469 Q197 1436 197 1382 Z " />
</g>
</glyph>
<glyph glyph-name="Uhungarumlaut" unicode="&#x170;" horiz-adv-x="1641" d="M225 1456 L280 1456 L280 469 Q280 364 321.5 282.5 Q363 201 435.5 146 Q508 91 607 62.5 Q706 34 821 34 Q936 34 1034.5 62.5 Q1133 91 1205.5 146 Q1278 201 1319 282.5 Q1360 364 1360 469 L1360 1456 L1415 1456 L1415 469 Q1415 346 1370 254.5 Q1325 163 1245.5 102 Q1166 41 1057.5 10.5 Q949 -20 821 -20 Q694 -20 584.5 10.5 Q475 41 395.5 102 Q316 163 270.5 254.5 Q225 346 225 469 L225 1456 Z M1242 1855 L1328 1855 L981 1551 L901 1551 L1242 1855 Z M910 1855 L992 1855 L699 1551 L622 1551 L910 1855 Z " />
<glyph glyph-name="uhungarumlaut" unicode="&#x171;" horiz-adv-x="1344" d="M204 1082 L259 1082 L259 393 Q259 294 286.5 225.5 Q314 157 363 114.5 Q412 72 479.5 53 Q547 34 627 34 Q739 34 819.5 58 Q900 82 954.5 122.5 Q1009 163 1040 216.5 Q1071 270 1083 330 L1083 1082 L1140 1082 L1140 425 L1145 425 Q1145 405 1143.5 386 Q1142 367 1140 348 L1140 0 L1083 0 L1083 182 Q1026 89 915 34.5 Q804 -20 631 -20 Q536 -20 457.5 2.5 Q379 25 322.5 74.5 Q266 124 235 203 Q204 282 204 395 L204 1082 Z M760 1232 L1101 1536 L1187 1536 L840 1232 L760 1232 Z M769 1536 L851 1536 L558 1232 L481 1232 L769 1536 Z " />
<glyph glyph-name="Uogonek" unicode="&#x172;" horiz-adv-x="1641" d="M225 1456 L280 1456 L280 469 Q280 364 321.5 282.5 Q363 201 435.5 146 Q508 91 607 62.5 Q706 34 821 34 Q936 34 1034.5 62.5 Q1133 91 1205.5 146 Q1278 201 1319 282.5 Q1360 364 1360 469 L1360 1456 L1415 1456 L1415 469 Q1415 387 1394.5 318.5 Q1374 250 1335.5 195.5 Q1297 141 1243 100.5 Q1189 60 1122 33 Q1079 5 1038.5 -23.5 Q998 -52 966.5 -82 Q935 -112 915.5 -144.5 Q896 -177 896 -213 Q896 -231 901 -248.5 Q906 -266 919 -279 Q932 -292 954 -300 Q976 -308 1009 -308 Q1057 -308 1088 -295.5 Q1119 -283 1141 -270 L1161 -318 Q1138 -333 1102 -347.5 Q1066 -362 1012 -362 Q933 -362 886 -325.5 Q839 -289 839 -213 Q839 -186 851.5 -159 Q864 -132 885 -106 Q906 -80 933.5 -54.5 Q961 -29 992 -5 Q911 -20 821 -20 Q694 -20 584.5 10.5 Q475 41 395.5 102 Q316 163 270.5 254.5 Q225 346 225 469 L225 1456 Z " />
<glyph glyph-name="uogonek" unicode="&#x173;" horiz-adv-x="1344" d="M204 1082 L259 1082 L259 393 Q259 294 286.5 225.5 Q314 157 363 114.5 Q412 72 479.5 53 Q547 34 627 34 Q739 34 819.5 58 Q900 82 954.5 122.5 Q1009 163 1040 216.5 Q1071 270 1083 330 L1083 1082 L1140 1082 L1140 425 L1145 425 Q1145 405 1143.5 386 Q1142 367 1140 348 L1140 0 L1139 0 Q1096 -28 1055 -56.5 Q1014 -85 982.5 -115 Q951 -145 931.5 -177.5 Q912 -210 912 -246 Q912 -264 917 -281.5 Q922 -299 935 -312 Q948 -325 970 -333 Q992 -341 1025 -341 Q1073 -341 1104 -328.5 Q1135 -316 1157 -303 L1177 -351 Q1154 -366 1118 -380.5 Q1082 -395 1028 -395 Q949 -395 902 -358.5 Q855 -322 855 -246 Q855 -212 875.5 -177 Q896 -142 928.5 -108 Q961 -74 1002 -42.5 Q1043 -11 1083 16 L1083 182 Q1026 89 915 34.5 Q804 -20 631 -20 Q536 -20 457.5 2.5 Q379 25 322.5 74.5 Q266 124 235 203 Q204 282 204 395 L204 1082 Z " />
<glyph glyph-name="Wcircumflex" unicode="&#x174;" horiz-adv-x="2229" >
<path fill="black" d="M73 1456 L135 1456 L503 330 L586 84 L666 330 L1083 1455 L1082 1456 L1147 1456 L1562 330 L1642 84 L1726 330 L2092 1456 L2153 1456 L1680 0 L1613 0 L1614 3 L1177 1214 L1114 1374 L1053 1214 L613 3 L614 0 L548 0 L73 1456 Z " />
<g transform="translate(634,319)" >
<path fill="black" d="M181 1278 L456 1517 L499 1517 L778 1274 L778 1264 L703 1264 L476 1460 L251 1264 L181 1264 L181 1278 Z " />
</g>
</glyph>
<glyph glyph-name="wcircumflex" unicode="&#x175;" horiz-adv-x="1861" >
<path fill="black" d="M103 1082 L168 1082 L432 313 L510 72 L605 313 L895 1082 L954 1082 L1242 313 L1337 72 L1415 313 L1678 1082 L1745 1082 L1367 0 L1309 0 L991 813 L924 1016 L852 813 L537 0 L480 0 L103 1082 Z " />
<g transform="translate(444,0)" >
<path fill="black" d="M181 1278 L456 1517 L499 1517 L778 1274 L778 1264 L703 1264 L476 1460 L251 1264 L181 1264 L181 1278 Z " />
</g>
</glyph>
<glyph glyph-name="Ycircumflex" unicode="&#x176;" horiz-adv-x="1467" >
<path fill="black" d="M703 553 L41 1456 L116 1456 L731 602 L1352 1456 L1420 1456 L758 553 L758 0 L703 0 L703 553 Z " />
<g transform="translate(252,308)" >
<path fill="black" d="M181 1278 L456 1517 L499 1517 L778 1274 L778 1264 L703 1264 L476 1460 L251 1264 L181 1264 L181 1278 Z " />
</g>
</glyph>
<glyph glyph-name="ycircumflex" unicode="&#x177;" horiz-adv-x="1174" >
<path fill="black" d="M117 -375 Q126 -377 139 -378.5 Q152 -380 165 -381.5 Q178 -383 189.5 -383.5 Q201 -384 207 -384 Q267 -384 311.5 -368 Q356 -352 389.5 -323.5 Q423 -295 448 -256 Q473 -217 494 -170 L573 7 L53 1082 L113 1082 L606 80 L617 104 L1071 1082 L1132 1082 L552 -180 Q536 -214 514.5 -258.5 Q493 -303 455.5 -342.5 Q418 -382 360 -409.5 Q302 -437 213 -437 Q203 -437 189.5 -436.5 Q176 -436 162.5 -434.5 Q149 -433 137 -431 Q125 -429 118 -426 L117 -375 Z " />
<g transform="translate(146,0)" >
<path fill="black" d="M181 1278 L456 1517 L499 1517 L778 1274 L778 1264 L703 1264 L476 1460 L251 1264 L181 1264 L181 1278 Z " />
</g>
</glyph>
<glyph glyph-name="Ydieresis" unicode="&#x178;" horiz-adv-x="1467" >
<path fill="black" d="M703 553 L41 1456 L116 1456 L731 602 L1352 1456 L1420 1456 L758 553 L758 0 L703 0 L703 553 Z " />
<g transform="translate(224,1680)" >
<path fill="black" d="M177 49 Q177 72 195 88.5 Q213 105 239 105 Q265 105 283.5 88.5 Q302 72 302 49 Q302 26 283.5 10 Q265 -6 239 -6 Q213 -6 195 10 Q177 26 177 49 Z " />
</g>
<g transform="translate(759,1680)" >
<path fill="black" d="M177 49 Q177 72 195 88.5 Q213 105 239 105 Q265 105 283.5 88.5 Q302 72 302 49 Q302 26 283.5 10 Q265 -6 239 -6 Q213 -6 195 10 Q177 26 177 49 Z " />
</g>
</glyph>
<glyph glyph-name="Zacute" unicode="&#x179;" horiz-adv-x="1468" >
<path fill="black" d="M113 44 L1231 1403 L163 1403 L163 1456 L1316 1456 L1316 1418 L195 54 L1354 54 L1354 0 L113 0 L113 44 Z " />
<g transform="translate(536,319)" >
<path fill="black" d="M377 1536 L445 1536 L216 1270 L151 1270 L377 1536 Z " />
</g>
</glyph>
<glyph glyph-name="zacute" unicode="&#x17a;" horiz-adv-x="1170" >
<path fill="black" d="M104 44 L960 1027 L143 1027 L143 1082 L1041 1082 L1041 1034 L186 54 L1114 54 L1114 0 L104 0 L104 44 Z " />
<g transform="translate(417,0)" >
<path fill="black" d="M377 1536 L445 1536 L216 1270 L151 1270 L377 1536 Z " />
</g>
</glyph>
<glyph glyph-name="Zdotaccent" unicode="&#x17b;" horiz-adv-x="1468" >
<path fill="black" d="M113 44 L1231 1403 L163 1403 L163 1456 L1316 1456 L1316 1418 L195 54 L1354 54 L1354 0 L113 0 L113 44 Z " />
<g transform="translate(491,1667)" >
<path fill="black" d="M177 49 Q177 72 195 88.5 Q213 105 239 105 Q265 105 283.5 88.5 Q302 72 302 49 Q302 26 283.5 10 Q265 -6 239 -6 Q213 -6 195 10 Q177 26 177 49 Z " />
</g>
</glyph>
<glyph glyph-name="zdotaccent" unicode="&#x17c;" horiz-adv-x="1170" >
<path fill="black" d="M104 44 L960 1027 L143 1027 L143 1082 L1041 1082 L1041 1034 L186 54 L1114 54 L1114 0 L104 0 L104 44 Z " />
<g transform="translate(372,1348)" >
<path fill="black" d="M177 49 Q177 72 195 88.5 Q213 105 239 105 Q265 105 283.5 88.5 Q302 72 302 49 Q302 26 283.5 10 Q265 -6 239 -6 Q213 -6 195 10 Q177 26 177 49 Z " />
</g>
</glyph>
<glyph glyph-name="Zcaron" unicode="&#x17d;" horiz-adv-x="1468" >
<path fill="black" d="M113 44 L1231 1403 L163 1403 L163 1456 L1316 1456 L1316 1418 L195 54 L1354 54 L1354 0 L113 0 L113 44 Z " />
<g transform="translate(257,324)" >
<path fill="black" d="M176 1506 L237 1506 L472 1289 L708 1506 L763 1506 L763 1493 L504 1243 L438 1243 L176 1495 L176 1506 Z " />
</g>
</glyph>
<glyph glyph-name="zcaron" unicode="&#x17e;" horiz-adv-x="1170" >
<path fill="black" d="M104 44 L960 1027 L143 1027 L143 1082 L1041 1082 L1041 1034 L186 54 L1114 54 L1114 0 L104 0 L104 44 Z " />
<g transform="translate(138,5)" >
<path fill="black" d="M176 1506 L237 1506 L472 1289 L708 1506 L763 1506 L763 1493 L504 1243 L438 1243 L176 1495 L176 1506 Z " />
</g>
</glyph>
<glyph glyph-name="florin" unicode="&#x192;" horiz-adv-x="769" d="M-97 -365 Q-78 -371 -45.5 -377 Q-13 -383 21 -383 Q159 -383 232.5 -307 Q306 -231 306 -89 L306 1027 L79 1027 L79 1082 L306 1082 L306 1236 Q306 1314 329 1373.5 Q352 1433 395 1474 Q438 1515 500.5 1536 Q563 1557 641 1557 Q678 1557 717 1553.5 Q756 1550 794 1540 L785 1488 Q767 1492 752 1494.5 Q737 1497 720.5 1499 Q704 1501 685 1502 Q666 1503 641 1503 Q577 1503 525 1485 Q473 1467 436.5 1433 Q400 1399 380.5 1349 Q361 1299 361 1236 L361 1082 L710 1082 L710 1027 L361 1027 L361 -89 Q361 -258 271.5 -347.5 Q182 -437 21 -437 Q-16 -437 -47 -432 Q-78 -427 -113 -417 L-97 -365 Z " />
<glyph glyph-name="Ohorn" unicode="&#x1a0;" horiz-adv-x="1451" d="M200 837 Q200 980 246 1097.5 Q292 1215 377.5 1299 Q463 1383 584 1429.5 Q705 1476 855 1476 Q1032 1476 1167 1413 Q1302 1350 1387 1238 Q1481 1239 1540.5 1259 Q1600 1279 1634 1317.5 Q1668 1356 1681 1412.5 Q1694 1469 1694 1541 L1751 1541 Q1751 1459 1734 1394.5 Q1717 1330 1678.5 1285 Q1640 1240 1577.5 1215 Q1515 1190 1423 1185 Q1467 1112 1489.5 1024.5 Q1512 937 1512 837 L1512 619 Q1512 477 1466 359 Q1420 241 1335 157 Q1250 73 1128.5 26.5 Q1007 -20 857 -20 Q707 -20 585.5 26.5 Q464 73 378.5 157 Q293 241 246.5 359 Q200 477 200 619 L200 837 Z M256 619 Q256 490 296.5 382.5 Q337 275 414 197.5 Q491 120 603 77 Q715 34 857 34 Q1000 34 1112 77 Q1224 120 1301 197.5 Q1378 275 1418 382.5 Q1458 490 1458 619 L1458 839 Q1458 967 1417.5 1074 Q1377 1181 1299.5 1258.5 Q1222 1336 1110 1379 Q998 1422 855 1422 Q713 1422 601.5 1379 Q490 1336 413 1258.5 Q336 1181 296 1074 Q256 967 256 839 L256 619 Z " />
<glyph glyph-name="ohorn" unicode="&#x1a1;" horiz-adv-x="1122" d="M105 562 Q105 681 146.5 780 Q188 879 263 950.5 Q338 1022 442 1062 Q546 1102 671 1102 Q798 1102 901 1063 Q1004 1024 1079 953 Q1157 955 1205.5 972 Q1254 989 1281 1020 Q1308 1051 1317.5 1095 Q1327 1139 1327 1196 L1386 1196 Q1386 1130 1373 1078.5 Q1360 1027 1329.5 990 Q1299 953 1249.5 930.5 Q1200 908 1127 902 Q1181 833 1210 747.5 Q1239 662 1239 562 L1239 520 Q1239 401 1198 302 Q1157 203 1082.5 131.5 Q1008 60 904 20 Q800 -20 674 -20 Q548 -20 443 20 Q338 60 263 131.5 Q188 203 146.5 302 Q105 401 105 520 L105 562 Z M160 520 Q160 423 195 335 Q230 247 296 180 Q362 113 457.5 73.5 Q553 34 674 34 Q794 34 888.5 73.5 Q983 113 1049 180 Q1115 247 1149.5 335 Q1184 423 1184 520 L1184 562 Q1184 657 1149.5 744.5 Q1115 832 1049 899.5 Q983 967 887.5 1007.5 Q792 1048 671 1048 Q551 1048 456 1007.5 Q361 967 295 899.5 Q229 832 194.5 744.5 Q160 657 160 562 L160 520 Z " />
<glyph glyph-name="Uhorn" unicode="&#x1af;" horiz-adv-x="1365" d="M225 1456 L280 1456 L280 469 Q280 364 321.5 282.5 Q363 201 435.5 146 Q508 91 607 62.5 Q706 34 821 34 Q936 34 1034.5 62.5 Q1133 91 1205.5 146 Q1278 201 1319 282.5 Q1360 364 1360 469 L1360 1456 L1415 1456 L1415 1249 Q1500 1252 1555 1273.5 Q1610 1295 1641.5 1333 Q1673 1371 1685 1426 Q1697 1481 1697 1551 L1754 1551 Q1754 1467 1736.5 1402.5 Q1719 1338 1679 1293 Q1639 1248 1574 1223 Q1509 1198 1415 1195 L1415 469 Q1415 346 1370 254.5 Q1325 163 1245.5 102 Q1166 41 1057.5 10.5 Q949 -20 821 -20 Q694 -20 584.5 10.5 Q475 41 395.5 102 Q316 163 270.5 254.5 Q225 346 225 469 L225 1456 Z " />
<glyph glyph-name="uhorn" unicode="&#x1b0;" horiz-adv-x="1133" d="M204 1082 L259 1082 L259 393 Q259 294 286.5 225.5 Q314 157 363 114.5 Q412 72 479.5 53 Q547 34 627 34 Q739 34 819.5 58 Q900 82 954.5 122.5 Q1009 163 1040 216.5 Q1071 270 1083 330 L1083 1082 L1140 1082 L1140 948 Q1208 953 1250 971 Q1292 989 1316 1019.5 Q1340 1050 1348.5 1093 Q1357 1136 1357 1190 L1417 1190 Q1417 1123 1403 1070 Q1389 1017 1356.5 979.5 Q1324 942 1271 920 Q1218 898 1140 893 L1140 425 L1145 425 Q1145 405 1143.5 386 Q1142 367 1140 348 L1140 0 L1083 0 L1083 182 Q1026 89 915 34.5 Q804 -20 631 -20 Q536 -20 457.5 2.5 Q379 25 322.5 74.5 Q266 124 235 203 Q204 282 204 395 L204 1082 Z " />
<glyph glyph-name="uni0218" unicode="&#x218;" horiz-adv-x="1211" >
<path fill="black" d="M171 411 Q171 338 197 282 Q223 226 267 184 Q311 142 370 113.5 Q429 85 494 67 Q559 49 627.5 41.5 Q696 34 759 34 Q876 34 974.5 57 Q1073 80 1144 121.5 Q1215 163 1255 221 Q1295 279 1295 349 Q1295 418 1266 471.5 Q1237 525 1172 568.5 Q1107 612 1003 648 Q899 684 749 718 Q616 748 509 782 Q402 816 327 861.5 Q252 907 212 969.5 Q172 1032 172 1120 Q172 1203 216.5 1269 Q261 1335 338.5 1381 Q416 1427 522 1451.5 Q628 1476 751 1476 Q877 1476 983.5 1445 Q1090 1414 1167 1357.5 Q1244 1301 1287.5 1221.5 Q1331 1142 1331 1046 L1277 1046 Q1277 1127 1239 1195.5 Q1201 1264 1132 1314.5 Q1063 1365 966 1393.5 Q869 1422 751 1422 Q625 1422 527.5 1397.5 Q430 1373 363.5 1331.5 Q297 1290 262 1235.5 Q227 1181 227 1122 Q227 1064 251 1014.5 Q275 965 336 922 Q397 879 500.5 841.5 Q604 804 764 770 Q892 742 999.5 707.5 Q1107 673 1185 624.5 Q1263 576 1307 509.5 Q1351 443 1351 351 Q1351 262 1304 193 Q1257 124 1176.5 76.5 Q1096 29 988.5 4.5 Q881 -20 759 -20 Q685 -20 608.5 -10.5 Q532 -1 460.5 19.5 Q389 40 326 73 Q263 106 216.5 154 Q170 202 143 266 Q116 330 116 411 L171 411 Z " />
<g transform="translate(386,-225)" >
<path fill="black" d="M-769 -460 Q-727 -411 -707 -364 Q-687 -317 -687 -252 L-687 -173 L-631 -173 L-631 -250 Q-631 -329 -658.5 -389 Q-686 -449 -730 -492 L-769 -460 Z " />
</g>
</glyph>
<glyph glyph-name="uni0219" unicode="&#x219;" horiz-adv-x="1019" >
<path fill="black" d="M186 275 Q192 205 233 159 Q274 113 334.5 85 Q395 57 468.5 45.5 Q542 34 614 34 Q712 34 786 54 Q860 74 910.5 107 Q961 140 986.5 181.5 Q1012 223 1012 265 Q1012 302 995 340 Q978 378 933 413.5 Q888 449 810 479.5 Q732 510 610 532 Q501 552 419 575.5 Q337 599 282.5 633.5 Q228 668 200.5 715.5 Q173 763 173 829 Q173 886 202.5 935.5 Q232 985 287.5 1022 Q343 1059 423 1080.5 Q503 1102 604 1102 Q713 1102 799 1079.5 Q885 1057 944.5 1016.5 Q1004 976 1035.5 919 Q1067 862 1067 793 L1011 793 Q1011 843 984.5 889.5 Q958 936 906 971 Q854 1006 778 1027 Q702 1048 604 1048 Q504 1048 432.5 1028.5 Q361 1009 315.5 977.5 Q270 946 249 907.5 Q228 869 228 831 Q228 789 242.5 754 Q257 719 299.5 688 Q342 657 420.5 630 Q499 603 627 579 Q743 557 826 529 Q909 501 962.5 463.5 Q1016 426 1041.5 377 Q1067 328 1067 264 Q1067 201 1035.5 149 Q1004 97 945 59.5 Q886 22 802 1 Q718 -20 614 -20 Q497 -20 407 3.5 Q317 27 255.5 67.5 Q194 108 162.5 161.5 Q131 215 131 275 L186 275 Z " />
<g transform="translate(266,-220)" >
<path fill="black" d="M-769 -460 Q-727 -411 -707 -364 Q-687 -317 -687 -252 L-687 -173 L-631 -173 L-631 -250 Q-631 -329 -658.5 -389 Q-686 -449 -730 -492 L-769 -460 Z " />
</g>
</glyph>
<glyph glyph-name="uni021A" unicode="&#x21a;" horiz-adv-x="1224" >
<path fill="black" d="M707 1402 L66 1402 L66 1456 L1402 1456 L1402 1402 L761 1402 L761 0 L707 0 L707 1402 Z " />
<g transform="translate(366,-215)" >
<path fill="black" d="M-769 -460 Q-727 -411 -707 -364 Q-687 -317 -687 -252 L-687 -173 L-631 -173 L-631 -250 Q-631 -329 -658.5 -389 Q-686 -449 -730 -492 L-769 -460 Z " />
</g>
</glyph>
<glyph glyph-name="uni021B" unicode="&#x21b;" horiz-adv-x="648" >
<path fill="black" d="M288 1027 L48 1027 L48 1082 L288 1082 L288 1374 L345 1374 L345 1082 L643 1082 L643 1027 L345 1027 L345 259 Q345 188 361 144 Q377 100 404 75.5 Q431 51 467 42.5 Q503 34 543 34 Q581 34 609.5 36.5 Q638 39 673 43 L685 -8 Q672 -12 653.5 -14 Q635 -16 616.5 -17.5 Q598 -19 580.5 -19.5 Q563 -20 551 -20 Q489 -20 440 -7 Q391 6 357.5 38 Q324 70 306 124 Q288 178 288 259 L288 1027 Z " />
<g transform="translate(167,-215)" >
<path fill="black" d="M-769 -460 Q-727 -411 -707 -364 Q-687 -317 -687 -252 L-687 -173 L-631 -173 L-631 -250 Q-631 -329 -658.5 -389 Q-686 -449 -730 -492 L-769 -460 Z " />
</g>
</glyph>
<glyph glyph-name="uni0298" unicode="&#x298;" horiz-adv-x="1364" d="M161 837 Q161 980 207 1097.5 Q253 1215 338.5 1299 Q424 1383 545 1429.5 Q666 1476 816 1476 Q966 1476 1087.5 1429.5 Q1209 1383 1294.5 1299 Q1380 1215 1426.5 1097.5 Q1473 980 1473 837 L1473 619 Q1473 477 1427 359 Q1381 241 1296 157 Q1211 73 1089.5 26.5 Q968 -20 818 -20 Q668 -20 546.5 26.5 Q425 73 339.5 157 Q254 241 207.5 359 Q161 477 161 619 L161 837 Z M217 619 Q217 490 257.5 382.5 Q298 275 375 197.5 Q452 120 564 77 Q676 34 818 34 Q961 34 1073 77 Q1185 120 1262 197.5 Q1339 275 1379 382.5 Q1419 490 1419 619 L1419 839 Q1419 967 1378.5 1074 Q1338 1181 1260.5 1258.5 Q1183 1336 1071 1379 Q959 1422 816 1422 Q674 1422 562.5 1379 Q451 1336 374 1258.5 Q297 1181 257 1074 Q217 967 217 839 L217 619 Z M755 728 Q755 751 773 767.5 Q791 784 817 784 Q843 784 861 767.5 Q879 751 879 728 Q879 705 861 689 Q843 673 817 673 Q791 673 773 689 Q755 705 755 728 Z " />
<glyph glyph-name="uni02AA" unicode="&#x2aa;" horiz-adv-x="1195" d="M226 1536 L283 1536 L283 259 Q283 228 286 202 Q402 122 534 77.5 Q666 33 834 33 Q925 33 996 53.5 Q1067 74 1115.5 107 Q1164 140 1189.5 181.5 Q1215 223 1215 265 Q1215 302 1198 340 Q1181 378 1136 413.5 Q1091 449 1013 479.5 Q935 510 813 532 Q704 552 622 575.5 Q540 599 485 633.5 Q430 668 402.5 715.5 Q375 763 375 829 Q375 886 404.5 935.5 Q434 985 489.5 1022 Q545 1059 625.5 1080.5 Q706 1102 807 1102 Q915 1102 1001 1079.5 Q1087 1057 1146.5 1016.5 Q1206 976 1237.5 919 Q1269 862 1269 793 L1213 793 Q1213 843 1186.5 889.5 Q1160 936 1108.5 971 Q1057 1006 981 1027 Q905 1048 807 1048 Q707 1048 635.5 1028.5 Q564 1009 518 977.5 Q472 946 451 907.5 Q430 869 430 831 Q430 787 445 751 Q460 715 503.5 685 Q547 655 625.5 629 Q704 603 830 579 Q943 558 1026 530.5 Q1109 503 1163 465.5 Q1217 428 1243.5 379 Q1270 330 1270 264 Q1270 201 1238.5 149 Q1207 97 1150 59 Q1093 21 1012.5 0 Q932 -21 834 -21 Q776 -21 723 -15.5 Q670 -10 621 0 L623 -8 Q610 -12 591.5 -14 Q573 -16 554.5 -17.5 Q536 -19 518.5 -19.5 Q501 -20 489 -20 Q427 -20 378 -7 Q329 6 295.5 38 Q262 70 244 124 Q226 178 226 259 L226 1536 Z M310 118 Q336 67 382 50.5 Q428 34 481 34 L492 34 Q432 54 386.5 76 Q341 98 310 118 Z " />
<glyph glyph-name="uni02AD" unicode="&#x2ad;" horiz-adv-x="1141" d="M147 581 L994 581 L994 0 L935 0 L935 527 L205 527 L205 0 L147 0 L147 581 Z M147 1455 L994 1455 L994 874 L935 874 L935 1401 L205 1401 L205 874 L147 874 L147 1455 Z " />
<glyph glyph-name="uni02AF" unicode="&#x2af;" horiz-adv-x="1672" d="M406 754 Q406 824 395.5 879 Q385 934 358.5 971.5 Q332 1009 287 1028.5 Q242 1048 174 1048 Q139 1048 105.5 1042 Q72 1036 52 1030 L36 1082 Q72 1092 102.5 1097 Q133 1102 171 1102 Q252 1102 307.5 1079.5 Q363 1057 397 1012.5 Q431 968 446 903 Q461 838 461 754 L461 422 Q461 307 487.5 232 Q514 157 561 112.5 Q608 68 674.5 50.5 Q741 33 820 33 Q928 33 1009 69.5 Q1090 106 1146.5 160 Q1203 214 1236.5 277 Q1270 340 1284 393 L1284 1082 L1339 1082 L1339 -89 Q1339 -159 1350 -214 Q1361 -269 1387.5 -306.5 Q1414 -344 1458.5 -363.5 Q1503 -383 1571 -383 Q1606 -383 1639.5 -377 Q1673 -371 1693 -365 L1709 -417 Q1674 -427 1643 -432 Q1612 -437 1574 -437 Q1493 -437 1437.5 -414.5 Q1382 -392 1348 -347.5 Q1314 -303 1299 -238 Q1284 -173 1284 -89 L1284 263 Q1255 204 1209.5 152.5 Q1164 101 1105 62.5 Q1046 24 973.5 2 Q901 -20 818 -20 Q719 -20 642.5 5 Q566 30 513.5 83 Q461 136 433.5 220 Q406 304 406 422 L406 754 Z " />
<glyph glyph-name="uni02B5" unicode="&#x2b5;" horiz-adv-x="739" d="M48 694 Q61 692 81 691 Q101 690 130 690 Q186 690 236.5 708.5 Q287 727 328.5 760 Q370 793 399.5 839 Q429 885 443 940 L443 1456 L500 1456 L500 527 Q500 436 589 436 Q610 436 635.5 438.5 Q661 441 691 449 L691 396 Q662 388 631.5 385 Q601 382 578 382 Q508 382 475.5 422 Q443 462 443 525 L443 817 Q395 736 313.5 688.5 Q232 641 132 641 Q103 641 82.5 642.5 Q62 644 48 646 L48 694 Z " />
<glyph glyph-name="uni02B9" unicode="&#x2b9;" horiz-adv-x="402" d="M243 1560 L301 1560 L156 1122 L101 1122 L243 1560 Z " />
<glyph glyph-name="uni02BA" unicode="&#x2ba;" horiz-adv-x="596" >
<path fill="black" d="M243 1560 L301 1560 L156 1122 L101 1122 L243 1560 Z " />
<g transform="translate(170,0)" >
<path fill="black" d="M243 1560 L301 1560 L156 1122 L101 1122 L243 1560 Z " />
</g>
</glyph>
</font>
</svg>
