<?xml version="1.0" encoding="UTF-8"?>
<svg xmlns="http://www.w3.org/2000/svg" xmlns:xlink="http://www.w3.org/1999/xlink" version="1.2" >
<font id="Gotho-7Wd800ExBd" horiz-adv-x="924">
<font-face  font-family="Gotho" units-per-em="2048" ascent="2146" descent="-555" font-style="normal" font-weight="800" font-stretch="expanded" cap-height="1456" x-height="1082" underline-position="-100" underline-thickness="100" />
<missing-glyph horiz-adv-x="990" d="M114 1456 L876 1456 L876 0 L114 0 L114 1456 Z M818 83 L818 1373 L523 728 L818 83 Z M461 728 L172 1360 L172 96 L461 728 Z M215 54 L769 54 L492 660 L215 54 Z M492 796 L769 1402 L215 1402 L492 796 Z " />
<glyph glyph-name="uni0000" horiz-adv-x="0" />
<glyph glyph-name="uni000D" unicode="&#xd;" horiz-adv-x="562" />
<glyph glyph-name="space" unicode="&#x20;" horiz-adv-x="562" />
<glyph glyph-name="uni0002" unicode="&#x2;" horiz-adv-x="0" />
<glyph glyph-name="uni0009" unicode="&#x9;" horiz-adv-x="562" />
<glyph glyph-name="exclam" unicode="&#x21;" horiz-adv-x="612" d="M188 454 L157 1456 L467 1456 L436 454 L188 454 Z M149 142 Q149 176 160.5 205 Q172 234 193 255.5 Q214 277 244.5 289 Q275 301 313 301 Q351 301 381.5 289 Q412 277 433.5 255.5 Q455 234 466.5 205 Q478 176 478 142 Q478 108 466.5 79 Q455 50 433.5 28.5 Q412 7 381.5 -5 Q351 -17 313 -17 Q275 -17 244.5 -5 Q214 7 193 28.5 Q172 50 160.5 79 Q149 108 149 142 Z " />
<glyph glyph-name="quotedbl" unicode="&#x22;" horiz-adv-x="735" d="M93 1537 L303 1537 L303 1398 L260 981 L93 981 L93 1537 Z M440 1537 L650 1537 L650 1398 L607 981 L440 981 L440 1537 Z " />
<glyph glyph-name="numbersign" unicode="&#x23;" horiz-adv-x="1344" d="M339 410 L93 410 L93 585 L373 585 L428 865 L175 865 L175 1040 L462 1040 L543 1456 L734 1456 L653 1040 L873 1040 L954 1456 L1146 1456 L1065 1040 L1294 1040 L1294 865 L1031 865 L977 585 L1213 585 L1213 410 L943 410 L863 0 L671 0 L751 410 L531 410 L451 0 L259 0 L339 410 Z M785 585 L839 865 L619 865 L565 585 L785 585 Z " />
<glyph glyph-name="dollar" unicode="&#x24;" horiz-adv-x="1272" d="M562 -17 Q475 -8 393.5 22.5 Q312 53 249 110 Q186 167 148 253.5 Q110 340 110 461 L402 461 Q402 392 423 345.5 Q444 299 478.5 271 Q513 243 556.5 231 Q600 219 645 219 Q700 219 742 231.5 Q784 244 812 266.5 Q840 289 854.5 319 Q869 349 869 384 Q869 426 856 457 Q843 488 815 513.5 Q787 539 742 560.5 Q697 582 632 605 Q527 643 441.5 683 Q356 723 295.5 775.5 Q235 828 202 899 Q169 970 169 1070 Q169 1154 198.5 1224 Q228 1294 282.5 1346 Q337 1398 413.5 1430.5 Q490 1463 584 1473 L584 1685 L759 1685 L759 1471 Q851 1458 925 1421 Q999 1384 1051 1325 Q1103 1266 1130.5 1186 Q1158 1106 1158 1007 L865 1007 Q865 1126 810 1181.5 Q755 1237 659 1237 Q608 1237 571 1224 Q534 1211 509.5 1188 Q485 1165 473.5 1134.5 Q462 1104 462 1069 Q462 1033 474 1004.5 Q486 976 514 951.5 Q542 927 588 904 Q634 881 702 856 Q807 817 891.5 775.5 Q976 734 1036 680.5 Q1096 627 1128.5 556 Q1161 485 1161 386 Q1161 299 1131 228.5 Q1101 158 1045.5 107 Q990 56 911.5 25 Q833 -6 736 -16 L736 -217 L562 -217 L562 -17 Z " />
<glyph glyph-name="percent" unicode="&#x25;" horiz-adv-x="1635" d="M361 186 L1127 1324 L1273 1248 L508 110 L361 186 Z M860 357 Q860 419 882.5 473.5 Q905 528 947.5 568.5 Q990 609 1053 633 Q1116 657 1197 657 Q1280 657 1343 633 Q1406 609 1449 568.5 Q1492 528 1513.5 473.5 Q1535 419 1535 357 L1535 280 Q1535 219 1513.5 164 Q1492 109 1449.5 68.5 Q1407 28 1344 4 Q1281 -20 1199 -20 Q1117 -20 1054 4 Q991 28 948 68.5 Q905 109 882.5 164 Q860 219 860 280 L860 357 Z M111 1177 Q111 1239 133.5 1293.5 Q156 1348 198.5 1388.5 Q241 1429 304 1453 Q367 1477 448 1477 Q531 1477 594 1453 Q657 1429 700 1388.5 Q743 1348 764.5 1293.5 Q786 1239 786 1177 L786 1100 Q786 1039 764.5 984 Q743 929 700.5 888.5 Q658 848 595 824 Q532 800 450 800 Q368 800 305 824 Q242 848 199 888.5 Q156 929 133.5 984 Q111 1039 111 1100 L111 1177 Z M1058 280 Q1058 255 1068 232 Q1078 209 1096 191 Q1114 173 1140 162.5 Q1166 152 1199 152 Q1238 152 1264.5 162.5 Q1291 173 1307 191 Q1323 209 1330 232 Q1337 255 1337 280 L1337 357 Q1337 382 1328.5 405 Q1320 428 1302.5 446 Q1285 464 1258.5 474.5 Q1232 485 1197 485 Q1162 485 1136 474.5 Q1110 464 1092.5 446 Q1075 428 1066.5 405 Q1058 382 1058 357 L1058 280 Z M309 1100 Q309 1075 319 1052 Q329 1029 347 1011 Q365 993 391 982.5 Q417 972 450 972 Q489 972 515.5 982.5 Q542 993 558 1011 Q574 1029 581 1052 Q588 1075 588 1100 L588 1177 Q588 1202 579.5 1225 Q571 1248 553.5 1266 Q536 1284 509.5 1294.5 Q483 1305 448 1305 Q413 1305 387 1294.5 Q361 1284 343.5 1266 Q326 1248 317.5 1225 Q309 1202 309 1177 L309 1100 Z " />
<glyph glyph-name="ampersand" unicode="&#x26;" horiz-adv-x="1443" d="M1082 0 L1001 88 Q826 -21 603 -21 Q484 -21 389 9.5 Q294 40 227.5 94.5 Q161 149 125.5 224.5 Q90 300 90 390 Q90 452 111.5 503 Q133 554 171.5 598 Q210 642 264 681.5 Q318 721 382 761 Q308 849 265 927.5 Q222 1006 222 1091 Q222 1177 252 1248 Q282 1319 337.5 1370 Q393 1421 470.5 1449 Q548 1477 644 1477 Q735 1477 808.5 1449.5 Q882 1422 934 1375 Q986 1328 1014 1265.5 Q1042 1203 1042 1134 Q1042 1084 1027 1039 Q1012 994 984 953.5 Q956 913 918 877.5 Q880 842 833 810 L731 741 L1000 451 Q1034 508 1053 575 Q1072 642 1072 719 L1324 719 Q1324 652 1317 586.5 Q1310 521 1294 461 Q1278 401 1252.5 347 Q1227 293 1190 247 L1419 0 L1082 0 Z M495 580 Q458 559 435.5 538 Q413 517 402 496 Q391 475 387.5 453.5 Q384 432 384 410 Q384 369 400 334.5 Q416 300 446 275 Q476 250 519 236 Q562 222 616 222 Q670 222 723 236.5 Q776 251 824 278 L526 601 L495 580 Z M679 956 Q745 1000 769.5 1037 Q794 1074 794 1113 Q794 1135 784 1156.5 Q774 1178 754.5 1195.5 Q735 1213 707.5 1223.5 Q680 1234 644 1234 Q606 1234 577 1223 Q548 1212 528.5 1193 Q509 1174 499.5 1149 Q490 1124 490 1095 Q490 1047 517.5 999.5 Q545 952 591 898 L679 956 Z " />
<glyph glyph-name="quotesingle" unicode="&#x27;" horiz-adv-x="380" d="M83 1536 L303 1536 L303 1380 L272 976 L83 976 L83 1536 Z " />
<glyph glyph-name="parenleft" unicode="&#x28;" horiz-adv-x="786" d="M680 -453 Q622 -428 559.5 -381 Q497 -334 437.5 -267 Q378 -200 324 -113.5 Q270 -27 229.5 78 Q189 183 165 305 Q141 427 141 566 L141 592 Q141 731 165 853 Q189 975 229.5 1079.5 Q270 1184 324 1271 Q378 1358 437.5 1425 Q497 1492 559.5 1539 Q622 1586 680 1611 L737 1453 Q677 1411 616.5 1339 Q556 1267 507.5 1161.5 Q459 1056 428.5 915 Q398 774 398 594 L398 564 Q398 384 428.5 243 Q459 102 507.5 -3.5 Q556 -109 616.5 -181 Q677 -253 737 -295 L680 -453 Z " />
<glyph glyph-name="parenright" unicode="&#x29;" horiz-adv-x="793" d="M50 -295 Q110 -253 170 -181.5 Q230 -110 279 -4.5 Q328 101 358.5 242.5 Q389 384 389 564 L389 594 Q389 774 357.5 915.5 Q326 1057 276.5 1162.5 Q227 1268 167 1340 Q107 1412 50 1454 L107 1611 Q166 1586 230 1537 Q294 1488 355 1419.5 Q416 1351 471 1262.5 Q526 1174 567.5 1069.5 Q609 965 633.5 845 Q658 725 658 592 L658 566 Q658 433 633.5 313 Q609 193 567.5 88 Q526 -17 471 -105 Q416 -193 355 -262 Q294 -331 230 -379.5 Q166 -428 107 -453 L50 -295 Z " />
<glyph glyph-name="asterisk" unicode="&#x2a;" horiz-adv-x="1021" d="M377 961 L33 1052 L96 1233 L435 1104 L417 1456 L624 1456 L605 1097 L938 1223 L1000 1040 L651 949 L878 682 L710 569 L509 863 L310 579 L142 687 L377 961 Z " />
<glyph glyph-name="plus" unicode="&#x2b;" horiz-adv-x="1228" d="M471 548 L73 548 L73 818 L471 818 L471 1206 L753 1206 L753 818 L1148 818 L1148 548 L753 548 L753 146 L471 146 L471 548 Z " />
<glyph glyph-name="comma" unicode="&#x2c;" horiz-adv-x="532" d="M39 -299 Q61 -265 81.5 -231 Q102 -197 118 -158.5 Q134 -120 143.5 -75 Q153 -30 153 27 L153 248 L409 248 L409 43 Q409 -16 393.5 -75 Q378 -134 349.5 -189 Q321 -244 281.5 -292.5 Q242 -341 194 -378 L39 -299 Z " />
<glyph glyph-name="hyphen" unicode="&#x2d;" horiz-adv-x="807" d="M105 505 L105 750 L693 750 L693 505 L105 505 Z " />
<glyph glyph-name="period" unicode="&#x2e;" horiz-adv-x="652" d="M147 148 Q147 182 158.5 211 Q170 240 191 261.5 Q212 283 242.5 295 Q273 307 311 307 Q349 307 379.5 295 Q410 283 431.5 261.5 Q453 240 464.5 211 Q476 182 476 148 Q476 114 464.5 85 Q453 56 431.5 34.5 Q410 13 379.5 1 Q349 -11 311 -11 Q273 -11 242.5 1 Q212 13 191 34.5 Q170 56 158.5 85 Q147 114 147 148 Z " />
<glyph glyph-name="slash" unicode="&#x2f;" horiz-adv-x="860" d="M-2 -125 L594 1456 L817 1456 L221 -125 L-2 -125 Z " />
<glyph glyph-name="zero" unicode="0" horiz-adv-x="1271" d="M113 859 Q113 1019 150.5 1135.5 Q188 1252 257 1327.5 Q326 1403 422 1439.5 Q518 1476 635 1476 Q752 1476 848.5 1439.5 Q945 1403 1014 1327.5 Q1083 1252 1120.5 1135.5 Q1158 1019 1158 859 L1158 598 Q1158 439 1120.5 322.5 Q1083 206 1015 130 Q947 54 850.5 17 Q754 -20 637 -20 Q520 -20 423.5 17 Q327 54 258 130 Q189 206 151 322.5 Q113 439 113 598 L113 859 Z M866 900 Q866 992 850.5 1055.5 Q835 1119 805.5 1158.5 Q776 1198 733 1215.5 Q690 1233 635 1233 Q581 1233 538.5 1215.5 Q496 1198 466.5 1158.5 Q437 1119 421.5 1055.5 Q406 992 406 900 L406 559 Q406 466 421.5 402 Q437 338 467 298 Q497 258 540 240.5 Q583 223 637 223 Q692 223 734.5 240.5 Q777 258 806.5 298 Q836 338 851 402 Q866 466 866 559 L866 900 Z " />
<glyph glyph-name="one" unicode="1" horiz-adv-x="1274" d="M562 0 L562 1101 L187 998 L187 1240 L821 1457 L855 1457 L855 0 L562 0 Z " />
<glyph glyph-name="two" unicode="2" horiz-adv-x="1272" d="M89 0 L90 206 L627 700 Q687 757 727 804 Q767 851 791.5 891.5 Q816 932 826 966.5 Q836 1001 836 1031 Q836 1128 780.5 1181 Q725 1234 622 1234 Q562 1234 516.5 1216 Q471 1198 441 1165.5 Q411 1133 395.5 1089 Q380 1045 380 994 L86 994 Q86 1093 122.5 1181 Q159 1269 228.5 1335 Q298 1401 398.5 1439 Q499 1477 626 1477 Q748 1477 841.5 1448.5 Q935 1420 998.5 1366.5 Q1062 1313 1095 1235.5 Q1128 1158 1128 1060 Q1128 910 1039.5 774 Q951 638 787 507 L486 243 L1183 243 L1183 0 L89 0 Z " />
<glyph glyph-name="three" unicode="3" horiz-adv-x="1272" d="M376 402 Q376 364 393.5 331 Q411 298 442 274 Q473 250 516.5 236.5 Q560 223 612 223 Q669 223 714.5 237.5 Q760 252 791.5 277.5 Q823 303 840 337.5 Q857 372 857 413 Q857 471 838.5 511.5 Q820 552 785 577.5 Q750 603 700.5 614.5 Q651 626 589 626 L428 626 L428 861 L589 861 Q713 861 773 914.5 Q833 968 833 1056 Q833 1093 819.5 1125.5 Q806 1158 778.5 1182 Q751 1206 710 1220 Q669 1234 613 1234 Q567 1234 526.5 1223.5 Q486 1213 456.5 1193 Q427 1173 410 1144.5 Q393 1116 393 1080 L99 1080 Q99 1172 138 1245.5 Q177 1319 245 1370.5 Q313 1422 406 1449.5 Q499 1477 607 1477 Q723 1477 818.5 1450.5 Q914 1424 982 1371.5 Q1050 1319 1088 1241.5 Q1126 1164 1126 1062 Q1126 963 1069 880 Q1012 797 901 749 Q1032 707 1091 620 Q1150 533 1150 408 Q1150 306 1108.5 226.5 Q1067 147 994 92 Q921 37 821.5 8.5 Q722 -20 606 -20 Q505 -20 410.5 4.5 Q316 29 243.5 81 Q171 133 127 212.5 Q83 292 83 402 L376 402 Z " />
<glyph glyph-name="four" unicode="4" horiz-adv-x="1273" d="M61 505 L714 1456 L1024 1456 L1024 557 L1208 557 L1208 314 L1024 314 L1024 0 L735 0 L735 314 L72 314 L61 505 Z M735 557 L735 1098 L734 1096 L386 557 L735 557 Z " />
<glyph glyph-name="five" unicode="5" horiz-adv-x="1273" d="M418 410 Q429 322 490.5 272.5 Q552 223 652 223 Q712 223 756 243.5 Q800 264 828.5 300 Q857 336 870.5 384.5 Q884 433 884 488 Q884 601 819.5 668 Q755 735 624 735 Q580 735 547.5 728 Q515 721 490 710 Q465 699 445 684.5 Q425 670 407 656 L174 716 L262 1456 L1125 1456 L1125 1209 L503 1209 L464 901 Q481 909 505.5 918.5 Q530 928 560.5 936.5 Q591 945 626.5 951 Q662 957 701 957 Q814 957 902.5 924 Q991 891 1052 828.5 Q1113 766 1145 675 Q1177 584 1177 468 Q1177 373 1145 284.5 Q1113 196 1047.5 128.5 Q982 61 883.5 20.5 Q785 -20 652 -20 Q552 -20 459.5 9.5 Q367 39 295.5 94.5 Q224 150 179.5 229.5 Q135 309 130 410 L418 410 Z " />
<glyph glyph-name="six" unicode="6" horiz-adv-x="1272" d="M122 826 Q122 983 171.5 1104 Q221 1225 307.5 1308 Q394 1391 510.5 1434 Q627 1477 762 1477 Q844 1477 909.5 1467.5 Q975 1458 1035 1429 L991 1199 Q956 1211 912.5 1220 Q869 1229 815 1229 Q640 1229 535.5 1145 Q431 1061 417 883 Q473 930 550.5 955 Q628 980 729 980 Q837 980 921.5 941.5 Q1006 903 1064.5 836.5 Q1123 770 1153.5 679 Q1184 588 1184 483 Q1184 375 1147 283 Q1110 191 1042 123.5 Q974 56 877.5 17.5 Q781 -21 661 -21 Q548 -21 449.5 17 Q351 55 278.5 127 Q206 199 164 304 Q122 409 122 543 L122 826 Z M415 543 Q415 464 434 404 Q453 344 486 303.5 Q519 263 564 242.5 Q609 222 661 222 Q718 222 761.5 243.5 Q805 265 833.5 301.5 Q862 338 876.5 385 Q891 432 891 483 Q891 542 874.5 589 Q858 636 826.5 670 Q795 704 749.5 722 Q704 740 647 740 Q562 740 504.5 716 Q447 692 415 650 L415 543 Z " />
<glyph glyph-name="seven" unicode="7" horiz-adv-x="1272" d="M394 142 Q432 455 554.5 724 Q677 993 890 1213 L76 1213 L76 1456 L1173 1456 L1173 1213 Q1029 1074 941.5 943.5 Q854 813 803 683.5 Q752 554 728 420.5 Q704 287 687 142 L671 0 L376 0 L394 142 Z " />
<glyph glyph-name="eight" unicode="8" horiz-adv-x="1272" d="M114 399 Q114 522 178 611 Q242 700 353 751 Q257 800 202 881 Q147 962 147 1068 Q147 1168 183.5 1244.5 Q220 1321 285 1372.5 Q350 1424 440 1450.5 Q530 1477 636 1477 Q743 1477 833 1450.5 Q923 1424 987.5 1372.5 Q1052 1321 1088 1244.5 Q1124 1168 1124 1068 Q1124 962 1069.5 880.5 Q1015 799 918 750 Q1029 700 1093.5 610.5 Q1158 521 1158 399 Q1158 296 1118.5 217.5 Q1079 139 1009.5 86 Q940 33 844.5 6.5 Q749 -20 637 -20 Q526 -20 430 6.5 Q334 33 264 86 Q194 139 154 217.5 Q114 296 114 399 Z M407 424 Q407 329 468.5 276 Q530 223 637 223 Q744 223 804 276 Q864 329 864 424 Q864 471 848 508.5 Q832 546 802 571.5 Q772 597 729.5 610.5 Q687 624 635 624 Q530 624 468.5 571.5 Q407 519 407 424 Z M441 1053 Q441 969 493 918 Q545 867 637 867 Q730 867 781 918 Q832 969 832 1053 Q832 1136 780 1185 Q728 1234 636 1234 Q545 1234 493 1186 Q441 1138 441 1053 Z " />
<glyph glyph-name="nine" unicode="9" horiz-adv-x="1272" d="M299 268 Q348 251 404 236.5 Q460 222 525 222 Q601 222 661 241.5 Q721 261 763 299 Q805 337 827.5 393 Q850 449 850 522 L850 552 Q793 504 721.5 480 Q650 456 570 456 Q459 456 371.5 491.5 Q284 527 223.5 592 Q163 657 130.5 750 Q98 843 98 957 Q98 1066 136.5 1160.5 Q175 1255 243.5 1325.5 Q312 1396 405.5 1436.5 Q499 1477 609 1477 Q725 1477 822.5 1438 Q920 1399 991 1324 Q1062 1249 1102 1138.5 Q1142 1028 1142 885 L1142 542 Q1142 411 1097.5 306.5 Q1053 202 975 129.5 Q897 57 790.5 18 Q684 -21 559 -21 Q481 -21 402 -4 Q323 13 249 42 L299 268 Z M850 924 Q850 1003 833 1061.5 Q816 1120 785 1158 Q754 1196 710 1215 Q666 1234 612 1234 Q563 1234 522.5 1210.5 Q482 1187 452.5 1148.5 Q423 1110 406.5 1060 Q390 1010 390 957 Q390 898 405.5 848 Q421 798 451 761.5 Q481 725 525 704.5 Q569 684 626 684 Q709 684 765 712.5 Q821 741 850 783 L850 924 Z " />
<glyph glyph-name="colon" unicode="&#x3a;" horiz-adv-x="621" >
<g transform="translate(-2,0)" >
<path fill="black" d="M147 148 Q147 182 158.5 211 Q170 240 191 261.5 Q212 283 242.5 295 Q273 307 311 307 Q349 307 379.5 295 Q410 283 431.5 261.5 Q453 240 464.5 211 Q476 182 476 148 Q476 114 464.5 85 Q453 56 431.5 34.5 Q410 13 379.5 1 Q349 -11 311 -11 Q273 -11 242.5 1 Q212 13 191 34.5 Q170 56 158.5 85 Q147 114 147 148 Z " />
</g>
<g transform="translate(-1,814)" >
<path fill="black" d="M147 148 Q147 182 158.5 211 Q170 240 191 261.5 Q212 283 242.5 295 Q273 307 311 307 Q349 307 379.5 295 Q410 283 431.5 261.5 Q453 240 464.5 211 Q476 182 476 148 Q476 114 464.5 85 Q453 56 431.5 34.5 Q410 13 379.5 1 Q349 -11 311 -11 Q273 -11 242.5 1 Q212 13 191 34.5 Q170 56 158.5 85 Q147 114 147 148 Z " />
</g>
</glyph>
<glyph glyph-name="semicolon" unicode="&#x3b;" horiz-adv-x="568" >
<g transform="translate(23,0)" >
<path fill="black" d="M39 -299 Q61 -265 81.5 -231 Q102 -197 118 -158.5 Q134 -120 143.5 -75 Q153 -30 153 27 L153 248 L409 248 L409 43 Q409 -16 393.5 -75 Q378 -134 349.5 -189 Q321 -244 281.5 -292.5 Q242 -341 194 -378 L39 -299 Z " />
</g>
<g transform="translate(-23,811)" >
<path fill="black" d="M147 148 Q147 182 158.5 211 Q170 240 191 261.5 Q212 283 242.5 295 Q273 307 311 307 Q349 307 379.5 295 Q410 283 431.5 261.5 Q453 240 464.5 211 Q476 182 476 148 Q476 114 464.5 85 Q453 56 431.5 34.5 Q410 13 379.5 1 Q349 -11 311 -11 Q273 -11 242.5 1 Q212 13 191 34.5 Q170 56 158.5 85 Q147 114 147 148 Z " />
</g>
</glyph>
<glyph glyph-name="less" unicode="&#x3c;" horiz-adv-x="1134" d="M69 740 L983 1103 L983 815 L362 615 L983 419 L983 131 L69 493 L69 740 Z " />
<glyph glyph-name="equal" unicode="&#x3d;" horiz-adv-x="1260" d="M157 299 L157 543 L1105 543 L1105 299 L157 299 Z M157 735 L157 979 L1105 979 L1105 735 L157 735 Z " />
<glyph glyph-name="greater" unicode="&#x3e;" horiz-adv-x="1157" d="M141 417 L775 618 L141 815 L141 1102 L1076 740 L1076 492 L141 129 L141 417 Z " />
<glyph glyph-name="question" unicode="&#x3f;" horiz-adv-x="1100" d="M379 454 Q379 520 388 573.5 Q397 627 416.5 672 Q436 717 468.5 756 Q501 795 548 833 Q585 862 616.5 889.5 Q648 917 671 945.5 Q694 974 707 1004.5 Q720 1035 720 1069 Q720 1151 675 1191.5 Q630 1232 542 1232 Q507 1232 474 1222 Q441 1212 414.5 1191.5 Q388 1171 372 1139 Q356 1107 355 1062 L61 1062 Q63 1170 100 1248 Q137 1326 201.5 1377 Q266 1428 353.5 1452 Q441 1476 542 1476 Q653 1476 741 1450 Q829 1424 889.5 1374 Q950 1324 982 1251 Q1014 1178 1014 1083 Q1014 1017 991.5 965 Q969 913 932 868 Q895 823 847 780.5 Q799 738 748 692 Q718 667 698.5 641 Q679 615 667.5 586.5 Q656 558 651 525.5 Q646 493 645 454 L379 454 Z M355 147 Q355 181 366.5 210 Q378 239 399 260.5 Q420 282 450.5 294 Q481 306 519 306 Q557 306 587.5 294 Q618 282 639.5 260.5 Q661 239 672.5 210 Q684 181 684 147 Q684 113 672.5 84 Q661 55 639.5 33.5 Q618 12 587.5 0 Q557 -12 519 -12 Q481 -12 450.5 0 Q420 12 399 33.5 Q378 55 366.5 84 Q355 113 355 147 Z " />
<glyph glyph-name="at" unicode="&#x40;" horiz-adv-x="1982" d="M1367 -364 Q1329 -387 1280.5 -403.5 Q1232 -420 1178.5 -431 Q1125 -442 1070 -447.5 Q1015 -453 964 -453 Q753 -453 588.5 -394 Q424 -335 313 -219.5 Q202 -104 148.5 66.5 Q95 237 105 461 Q114 666 183.5 840.5 Q253 1015 374.5 1142 Q496 1269 665.5 1340.5 Q835 1412 1043 1412 Q1252 1412 1412 1349 Q1572 1286 1679 1172 Q1786 1058 1837.5 898 Q1889 738 1880 544 Q1876 440 1849 338.5 Q1822 237 1766.5 157 Q1711 77 1624.5 28 Q1538 -21 1415 -21 Q1321 -21 1254 16 Q1187 53 1155 121 Q1101 52 1029 17.5 Q957 -17 875 -17 Q796 -17 734.5 15 Q673 47 633.5 106.5 Q594 166 577.5 249 Q561 332 572 434 Q586 561 630 663.5 Q674 766 739.5 838.5 Q805 911 888.5 950.5 Q972 990 1063 990 Q1125 990 1171.5 981 Q1218 972 1256.5 957 Q1295 942 1327 922 Q1359 902 1392 880 L1336 297 Q1330 251 1338.5 221.5 Q1347 192 1364 175 Q1381 158 1404 151.5 Q1427 145 1451 145 Q1506 145 1550 175 Q1594 205 1625.5 257.5 Q1657 310 1675.5 381 Q1694 452 1698 535 Q1706 696 1670.5 827.5 Q1635 959 1554 1052.5 Q1473 1146 1344.5 1197 Q1216 1248 1039 1248 Q874 1248 742 1188.5 Q610 1129 516.5 1023.5 Q423 918 369.5 774 Q316 630 307 461 Q298 280 338 142.5 Q378 5 463 -87 Q548 -179 675.5 -226 Q803 -273 969 -273 Q1016 -273 1065 -268 Q1114 -263 1160.5 -254 Q1207 -245 1249 -233 Q1291 -221 1325 -207 L1367 -364 Z M1174 795 Q1132 809 1083 809 Q962 809 891 713.5 Q820 618 801 434 Q787 302 825 233 Q863 164 947 164 Q968 164 992.5 171 Q1017 178 1041.5 197 Q1066 216 1089.5 248.5 Q1113 281 1131 333 L1174 795 Z " />
<glyph glyph-name="A" unicode="A" horiz-adv-x="1492" d="M606 1456 L884 1456 L1474 0 L1152 0 L1043 288 L449 288 L340 0 L19 0 L606 1456 Z M946 541 L746 1069 L545 541 L946 541 Z " />
<glyph glyph-name="B" unicode="B" horiz-adv-x="1414" d="M154 1456 L700 1456 Q833 1456 937.5 1432 Q1042 1408 1114.5 1358.5 Q1187 1309 1225.5 1233.5 Q1264 1158 1264 1056 Q1264 1007 1250.5 961 Q1237 915 1209 875 Q1181 835 1139 802.5 Q1097 770 1041 749 Q1109 734 1157.5 701.5 Q1206 669 1238 626 Q1270 583 1285 532.5 Q1300 482 1300 429 Q1300 323 1262.5 242.5 Q1225 162 1154 108 Q1083 54 979 27 Q875 0 743 0 L154 0 L154 1456 Z M743 252 Q807 252 854 266 Q901 280 932.5 304.5 Q964 329 979.5 362 Q995 395 995 433 Q995 478 981.5 514 Q968 550 939.5 575.5 Q911 601 865.5 614.5 Q820 628 756 628 L458 628 L458 252 L743 252 Z M701 846 Q828 846 894 889.5 Q960 933 960 1020 Q960 1117 897.5 1160 Q835 1203 700 1203 L458 1203 L458 846 L701 846 Z " />
<glyph glyph-name="C" unicode="C" horiz-adv-x="1453" d="M107 790 Q107 949 152.5 1076.5 Q198 1204 282.5 1293 Q367 1382 487 1429.5 Q607 1477 755 1477 Q900 1477 1010.5 1439.5 Q1121 1402 1197.5 1333.5 Q1274 1265 1317.5 1169.5 Q1361 1074 1372 958 L1068 958 Q1062 1025 1042.5 1074.5 Q1023 1124 986.5 1156.5 Q950 1189 893 1205 Q836 1221 755 1221 Q669 1221 605 1196.5 Q541 1172 498.5 1120 Q456 1068 435 986.5 Q414 905 414 792 L414 666 Q414 554 432.5 472.5 Q451 391 491 338.5 Q531 286 594 261 Q657 236 747 236 Q828 236 885.5 250.5 Q943 265 980.5 295.5 Q1018 326 1039 374 Q1060 422 1067 489 L1371 489 Q1362 373 1317.5 279 Q1273 185 1194.5 118.5 Q1116 52 1004 16 Q892 -20 747 -20 Q599 -20 480.5 27.5 Q362 75 279 163.5 Q196 252 151.5 379 Q107 506 107 666 L107 790 Z " />
<glyph glyph-name="D" unicode="D" horiz-adv-x="1448" d="M154 1456 L627 1456 Q786 1456 917 1407.5 Q1048 1359 1141.5 1270.5 Q1235 1182 1287 1057.5 Q1339 933 1339 781 L1339 674 Q1339 522 1287.5 397.5 Q1236 273 1141.5 184.5 Q1047 96 914 48 Q781 0 619 0 L154 0 L154 1456 Z M619 252 Q829 252 931 357.5 Q1033 463 1033 674 L1033 783 Q1033 994 931 1098.5 Q829 1203 627 1203 L458 1203 L458 252 L619 252 Z " />
<glyph glyph-name="E" unicode="E" horiz-adv-x="1255" d="M154 1456 L1189 1456 L1189 1203 L458 1203 L458 871 L1086 871 L1086 626 L458 626 L458 252 L1194 252 L1194 0 L154 0 L154 1456 Z " />
<glyph glyph-name="F" unicode="F" horiz-adv-x="1221" d="M154 1456 L1164 1456 L1164 1203 L458 1203 L458 842 L1079 842 L1079 591 L458 591 L458 0 L154 0 L154 1456 Z " />
<glyph glyph-name="G" unicode="G" horiz-adv-x="1511" d="M114 792 Q114 958 159 1085.5 Q204 1213 288.5 1300 Q373 1387 494 1432 Q615 1477 766 1477 Q915 1477 1024 1442 Q1133 1407 1207.5 1342.5 Q1282 1278 1323 1188.5 Q1364 1099 1377 989 L1081 989 Q1072 1046 1050.5 1090 Q1029 1134 992.5 1164 Q956 1194 902 1209.5 Q848 1225 773 1225 Q596 1225 508.5 1119.5 Q421 1014 421 794 L421 664 Q421 446 520.5 339 Q620 232 802 232 Q865 232 910.5 238.5 Q956 245 988 255 Q1020 265 1040.5 276.5 Q1061 288 1074 298 L1074 542 L770 542 L770 769 L1378 769 L1378 178 Q1352 149 1305.5 114.5 Q1259 80 1188 50 Q1117 20 1018.5 0 Q920 -20 789 -20 Q638 -20 514 24.5 Q390 69 301 156 Q212 243 163 370.5 Q114 498 114 664 L114 792 Z " />
<glyph glyph-name="H" unicode="H" horiz-adv-x="1574" d="M154 1456 L458 1456 L458 871 L1114 871 L1114 1456 L1418 1456 L1418 0 L1114 0 L1114 618 L458 618 L458 0 L154 0 L154 1456 Z " />
<glyph glyph-name="I" unicode="I" horiz-adv-x="646" d="M172 0 L172 1456 L476 1456 L476 0 L172 0 Z " />
<glyph glyph-name="J" unicode="J" horiz-adv-x="1240" d="M355 435 Q355 377 371 338 Q387 299 415.5 275.5 Q444 252 483.5 242 Q523 232 571 232 Q620 232 660 247 Q700 262 728.5 290 Q757 318 772.5 359.5 Q788 401 788 453 L788 1456 L1092 1456 L1092 453 Q1092 344 1052.5 256 Q1013 168 943.5 107 Q874 46 778.5 13 Q683 -20 571 -20 Q458 -20 362.5 7 Q267 34 198 90.5 Q129 147 90 232.5 Q51 318 51 435 L355 435 Z " />
<glyph glyph-name="K" unicode="K" horiz-adv-x="1407" d="M154 1456 L458 1456 L458 797 L1024 1456 L1395 1456 L834 802 L1419 0 L1058 0 L631 592 L458 424 L458 0 L154 0 L154 1456 Z " />
<glyph glyph-name="L" unicode="L" horiz-adv-x="1206" d="M154 1456 L458 1456 L458 252 L1154 252 L1154 0 L154 0 L154 1456 Z " />
<glyph glyph-name="M" unicode="M" horiz-adv-x="1944" d="M154 1456 L554 1456 L971 443 L1388 1456 L1788 1456 L1788 0 L1483 0 L1483 374 L1515 1105 L1076 0 L864 0 L426 1104 L458 374 L458 0 L154 0 L154 1456 Z " />
<glyph glyph-name="N" unicode="N" horiz-adv-x="1573" d="M154 1456 L465 1456 L1114 467 L1114 1456 L1417 1456 L1417 0 L1107 0 L458 1012 L458 0 L154 0 L154 1456 Z " />
<glyph glyph-name="O" unicode="O" horiz-adv-x="1534" d="M108 781 Q108 945 156 1074 Q204 1203 291 1292 Q378 1381 499 1428.5 Q620 1476 766 1476 Q913 1476 1034.5 1428.5 Q1156 1381 1243 1292 Q1330 1203 1377.5 1074 Q1425 945 1425 781 L1425 673 Q1425 510 1377.5 381 Q1330 252 1244 163 Q1158 74 1036.5 27 Q915 -20 768 -20 Q623 -20 501.5 27 Q380 74 292.5 163 Q205 252 156.5 381 Q108 510 108 673 L108 781 Z M414 673 Q414 459 508 347.5 Q602 236 768 236 Q938 236 1029 346.5 Q1120 457 1120 673 L1120 783 Q1120 1000 1027.5 1109.5 Q935 1219 766 1219 Q600 1219 507 1109.5 Q414 1000 414 783 L414 673 Z " />
<glyph glyph-name="P" unicode="P" horiz-adv-x="1430" d="M154 1456 L763 1456 Q901 1456 1009 1419.5 Q1117 1383 1191.5 1318 Q1266 1253 1305 1164 Q1344 1075 1344 969 Q1344 864 1305 778 Q1266 692 1191.5 631.5 Q1117 571 1009 538 Q901 505 763 505 L458 505 L458 0 L154 0 L154 1456 Z M763 758 Q836 758 888 773.5 Q940 789 973 817 Q1006 845 1021.5 883.5 Q1037 922 1037 967 Q1037 1014 1021.5 1056.5 Q1006 1099 973 1131.5 Q940 1164 888 1183.5 Q836 1203 763 1203 L458 1203 L458 758 L763 758 Z " />
<glyph glyph-name="Q" unicode="Q" horiz-adv-x="1535" d="M104 781 Q104 945 152 1074 Q200 1203 287 1292.5 Q374 1382 495 1429 Q616 1476 762 1476 Q909 1476 1030.5 1429 Q1152 1382 1239 1292.5 Q1326 1203 1374 1074 Q1422 945 1422 781 L1422 674 Q1422 477 1355 332.5 Q1288 188 1167 100 L1421 -91 L1226 -264 L894 -10 Q862 -15 830 -17.5 Q798 -20 764 -20 Q619 -20 497.5 27 Q376 74 288.5 163.5 Q201 253 152.5 382 Q104 511 104 674 L104 781 Z M410 674 Q410 566 434 484.5 Q458 403 504 347.5 Q550 292 615.5 264 Q681 236 764 236 Q934 236 1025 346.5 Q1116 457 1116 674 L1116 783 Q1116 1000 1024 1109.5 Q932 1219 762 1219 Q596 1219 503 1109.5 Q410 1000 410 783 L410 674 Z " />
<glyph glyph-name="R" unicode="R" horiz-adv-x="1458" d="M159 1456 L769 1456 Q902 1456 1003.5 1427.5 Q1105 1399 1174 1344 Q1243 1289 1278 1209.5 Q1313 1130 1313 1028 Q1313 964 1293.5 912.5 Q1274 861 1237.5 821 Q1201 781 1149 750.5 Q1097 720 1031 697 Q1107 678 1158 644.5 Q1209 611 1240 566 Q1271 521 1284.5 465.5 Q1298 410 1298 347 L1298 253 Q1298 235 1301.5 204.5 Q1305 174 1314 141 Q1323 108 1338 77.5 Q1353 47 1376 29 L1376 0 L1063 0 Q1038 18 1024.5 54 Q1011 90 1004.5 129 Q998 168 996.5 203.5 Q995 239 995 255 L995 345 Q995 451 935.5 506.5 Q876 562 758 562 L463 562 L463 0 L159 0 L159 1456 Z M740 814 Q880 814 944.5 863 Q1009 912 1009 1000 Q1009 1045 994.5 1082.5 Q980 1120 949 1146.5 Q918 1173 870 1188 Q822 1203 754 1203 L463 1203 L463 814 L740 814 Z " />
<glyph glyph-name="S" unicode="S" horiz-adv-x="1356" d="M388 465 Q388 399 411.5 353.5 Q435 308 477.5 280 Q520 252 579 239.5 Q638 227 708 227 Q774 227 822.5 239 Q871 251 903 272.5 Q935 294 951 322.5 Q967 351 967 384 Q967 421 954.5 450 Q942 479 907 504.5 Q872 530 810.5 554.5 Q749 579 651 607 Q542 639 447 679 Q352 719 282 774 Q212 829 172 901 Q132 973 132 1069 Q132 1162 173 1237 Q214 1312 288.5 1365.5 Q363 1419 467.5 1447.5 Q572 1476 699 1476 Q834 1476 940 1443.5 Q1046 1411 1119 1352 Q1192 1293 1230.5 1210 Q1269 1127 1269 1026 L967 1026 Q967 1070 951 1107 Q935 1144 901.5 1171 Q868 1198 816.5 1213 Q765 1228 695 1228 Q629 1228 580.5 1215 Q532 1202 499.5 1180.5 Q467 1159 451.5 1130 Q436 1101 436 1068 Q436 998 516.5 951.5 Q597 905 754 864 Q882 828 979 783 Q1076 738 1141 680.5 Q1206 623 1239 551.5 Q1272 480 1272 390 Q1272 291 1232.5 214.5 Q1193 138 1120 86 Q1047 34 942.5 7 Q838 -20 708 -20 Q590 -20 478 8 Q366 36 278.5 95.5 Q191 155 138 246.5 Q85 338 85 465 L388 465 Z " />
<glyph glyph-name="T" unicode="T" horiz-adv-x="1364" d="M528 1203 L51 1203 L51 1456 L1312 1456 L1312 1203 L832 1203 L832 0 L528 0 L528 1203 Z " />
<glyph glyph-name="U" unicode="U" horiz-adv-x="1456" d="M134 1456 L438 1456 L438 491 Q438 420 458 370.5 Q478 321 515.5 290.5 Q553 260 607 246 Q661 232 728 232 Q796 232 850 246 Q904 260 941.5 290.5 Q979 321 998.5 370.5 Q1018 420 1018 491 L1018 1456 L1324 1456 L1324 491 Q1324 364 1278.5 268 Q1233 172 1152.5 108 Q1072 44 963 12 Q854 -20 728 -20 Q599 -20 490 12 Q381 44 302 108 Q223 172 178.5 268 Q134 364 134 491 L134 1456 Z " />
<glyph glyph-name="V" unicode="V" horiz-adv-x="1448" d="M19 1456 L355 1456 L723 331 L1094 1456 L1431 1456 L878 0 L571 0 L19 1456 Z " />
<glyph glyph-name="W" unicode="W" horiz-adv-x="1944" d="M51 1456 L353 1456 L574 442 L834 1456 L1122 1456 L1392 420 L1599 1456 L1901 1456 L1551 0 L1228 0 L978 1033 L725 0 L402 0 L51 1456 Z " />
<glyph glyph-name="X" unicode="X" horiz-adv-x="1412" d="M514 734 L51 1456 L401 1456 L707 937 L1013 1456 L1363 1456 L901 734 L1374 0 L1021 0 L707 529 L394 0 L39 0 L514 734 Z " />
<glyph glyph-name="Y" unicode="Y" horiz-adv-x="1367" d="M529 526 L11 1456 L346 1456 L683 787 L1019 1456 L1355 1456 L836 526 L836 0 L529 0 L529 526 Z " />
<glyph glyph-name="Z" unicode="Z" horiz-adv-x="1345" d="M88 177 L857 1203 L91 1203 L91 1456 L1250 1456 L1250 1284 L483 252 L1271 252 L1271 0 L88 0 L88 177 Z " />
<glyph glyph-name="bracketleft" unicode="&#x5b;" horiz-adv-x="624" d="M140 1700 L597 1700 L597 1469 L434 1469 L434 -114 L597 -114 L597 -344 L140 -344 L140 1700 Z " />
<glyph glyph-name="backslash" unicode="&#x5c;" horiz-adv-x="940" d="M16 1456 L310 1456 L964 -125 L670 -125 L16 1456 Z " />
<glyph glyph-name="bracketright" unicode="&#x5d;" horiz-adv-x="624" d="M21 -114 L186 -114 L186 1469 L21 1469 L21 1700 L478 1700 L478 -344 L21 -344 L21 -114 Z " />
<glyph glyph-name="asciicircum" unicode="&#x5e;" horiz-adv-x="967" d="M380 1456 L590 1456 L911 729 L672 729 L485 1185 L297 729 L58 729 L380 1456 Z " />
<glyph glyph-name="underscore" unicode="&#x5f;" horiz-adv-x="1004" d="M9 -235 L9 0 L994 0 L994 -235 L9 -235 Z " />
<glyph glyph-name="grave" unicode="&#x60;" horiz-adv-x="745" d="M359 1225 L56 1536 L383 1536 L601 1225 L359 1225 Z " />
<glyph glyph-name="a" unicode="a" horiz-adv-x="1199" d="M116 753 Q116 827 150.5 890.5 Q185 954 249 1001 Q313 1048 402.5 1075 Q492 1102 603 1102 Q704 1102 789 1079 Q874 1056 935.5 1009.5 Q997 963 1031.5 892.5 Q1066 822 1066 727 L1066 268 Q1066 219 1069 181 Q1072 143 1077.5 113.5 Q1083 84 1091.5 60.5 Q1100 37 1111 17 L1111 0 L815 0 Q797 37 788 91 Q734 43 654.5 11.5 Q575 -20 470 -20 Q383 -20 313 2.5 Q243 25 193.5 67.5 Q144 110 117.5 170.5 Q91 231 91 307 Q91 387 122.5 452 Q154 517 218 563 Q282 609 379 634 Q476 659 606 659 L773 659 L773 729 Q773 802 728 841 Q683 880 586 880 Q505 880 456.5 847.5 Q408 815 408 753 L116 753 Z M773 487 L623 487 Q555 487 509 473.5 Q463 460 435 437.5 Q407 415 395 384.5 Q383 354 383 320 Q383 293 389.5 272 Q396 251 412.5 236.5 Q429 222 456.5 214.5 Q484 207 525 207 Q569 207 607.5 215.5 Q646 224 678.5 237.5 Q711 251 735 268 Q759 285 773 303 L773 487 Z " />
<glyph glyph-name="b" unicode="b" horiz-adv-x="1253" d="M131 1536 L424 1536 L424 979 Q478 1038 551 1070 Q624 1102 723 1102 Q833 1102 916.5 1063.5 Q1000 1025 1056.5 954.5 Q1113 884 1141.5 784 Q1170 684 1170 562 L1170 523 Q1170 398 1141.5 297.5 Q1113 197 1056.5 126.5 Q1000 56 917 18 Q834 -20 725 -20 Q618 -20 541 16.5 Q464 53 409 119 L397 0 L131 0 L131 1536 Z M424 329 Q453 278 506.5 250.5 Q560 223 640 223 Q710 223 756 243.5 Q802 264 829 302.5 Q856 341 867 396.5 Q878 452 878 523 L878 562 Q878 627 867 681.5 Q856 736 829 775.5 Q802 815 756 837 Q710 859 639 859 Q560 859 507 830.5 Q454 802 424 751 L424 329 Z " />
<glyph glyph-name="c" unicode="c" horiz-adv-x="1164" d="M83 562 Q83 681 116 780 Q149 879 215.5 950.5 Q282 1022 382 1062 Q482 1102 616 1102 Q724 1102 812.5 1073.5 Q901 1045 964 990.5 Q1027 936 1062 856.5 Q1097 777 1099 674 L824 674 Q820 756 767.5 807.5 Q715 859 609 859 Q538 859 492.5 836 Q447 813 421 773 Q395 733 385.5 678.5 Q376 624 376 562 L376 519 Q376 455 385.5 400.5 Q395 346 421 306.5 Q447 267 493 245 Q539 223 612 223 Q706 223 763 262.5 Q820 302 824 380 L1099 380 Q1097 289 1059 215 Q1021 141 956 89 Q891 37 804.5 8.5 Q718 -20 619 -20 Q484 -20 383 20 Q282 60 215.5 131 Q149 202 116 301.5 Q83 401 83 519 L83 562 Z " />
<glyph glyph-name="d" unicode="d" horiz-adv-x="1256" d="M82 558 Q82 684 113 785 Q144 886 203 956.5 Q262 1027 347 1064.5 Q432 1102 540 1102 Q632 1102 703 1070 Q774 1038 828 981 L828 1536 L1121 1536 L1121 0 L856 0 L842 117 Q788 53 713 16.5 Q638 -20 538 -20 Q431 -20 346.5 19 Q262 58 203 129 Q144 200 113 299.5 Q82 399 82 520 L82 558 Z M375 520 Q375 453 388 398.5 Q401 344 429.5 305 Q458 266 503.5 245 Q549 224 615 224 Q691 224 744 251 Q797 278 828 326 L828 755 Q796 806 743.5 832.5 Q691 859 616 859 Q551 859 505.5 837.5 Q460 816 431 777 Q402 738 388.5 682.5 Q375 627 375 558 L375 520 Z " />
<glyph glyph-name="e" unicode="e" horiz-adv-x="1201" d="M90 553 Q90 685 127.5 787.5 Q165 890 236.5 960 Q308 1030 410.5 1066 Q513 1102 642 1102 Q760 1102 851.5 1067.5 Q943 1033 1006 967 Q1069 901 1101.5 804.5 Q1134 708 1134 584 L1134 451 L385 451 Q399 336 474.5 279.5 Q550 223 682 223 Q767 223 840.5 249 Q914 275 966 334 L1112 161 Q1084 127 1041 94 Q998 61 942 36 Q886 11 815.5 -4.5 Q745 -20 661 -20 Q526 -20 420 12.5 Q314 45 240.5 110 Q167 175 128.5 272 Q90 369 90 497 L90 553 Z M844 645 L844 671 Q844 714 832 749.5 Q820 785 795.5 811 Q771 837 733 851.5 Q695 866 643 866 Q529 866 467.5 807.5 Q406 749 389 645 L844 645 Z " />
<glyph glyph-name="f" unicode="f" horiz-adv-x="801" d="M220 863 L46 863 L46 1082 L220 1082 L220 1174 Q220 1267 249.5 1338.5 Q279 1410 333.5 1458.5 Q388 1507 466 1532 Q544 1557 641 1557 Q682 1557 720.5 1551 Q759 1545 795 1537 L790 1304 Q751 1313 693 1313 Q607 1313 560.5 1277.5 Q514 1242 514 1174 L514 1082 L746 1082 L746 863 L514 863 L514 0 L220 0 L220 863 Z " />
<glyph glyph-name="g" unicode="g" horiz-adv-x="1178" d="M707 232 Q809 232 888 211.5 Q967 191 1021.5 152 Q1076 113 1104.5 57 Q1133 1 1133 -71 Q1133 -134 1093.5 -199.5 Q1054 -265 978 -318 Q902 -371 791 -404.5 Q680 -438 538 -438 Q409 -438 309.5 -415.5 Q210 -393 142.5 -355 Q75 -317 40.5 -267 Q6 -217 6 -162 Q6 -117 22 -79.5 Q38 -42 65.5 -11 Q93 20 129.5 43.5 Q166 67 206 84 Q183 108 170 139.5 Q157 171 157 212 Q157 247 167 275.5 Q177 304 194.5 327.5 Q212 351 234.5 370 Q257 389 281 404 Q180 454 124 534 Q68 614 68 712 L68 734 Q68 816 104 884 Q140 952 205 1000.5 Q270 1049 362 1075.5 Q454 1102 566 1102 Q662 1102 745 1082 L1140 1082 L1142 931 L999 931 Q1031 889 1047.5 840 Q1064 791 1064 734 L1064 712 Q1064 635 1028.5 567.5 Q993 500 928 450.5 Q863 401 771.5 372.5 Q680 344 568 344 Q479 344 404 362 Q393 351 385.5 336.5 Q378 322 378 304 Q378 281 388.5 267 Q399 253 417 245 Q435 237 460 234.5 Q485 232 514 232 L707 232 Z M458 6 Q432 6 407.5 8 Q383 10 360 14 Q328 -1 307 -27.5 Q286 -54 286 -88 Q286 -114 301 -136.5 Q316 -159 347.5 -176 Q379 -193 426.5 -203 Q474 -213 538 -213 Q616 -213 673 -202 Q730 -191 767.5 -173 Q805 -155 823.5 -133 Q842 -111 842 -89 Q842 -72 834 -55 Q826 -38 806.5 -24.5 Q787 -11 754.5 -2.5 Q722 6 672 6 L458 6 Z M772 734 Q772 764 757.5 790 Q743 816 716.5 835 Q690 854 652 865 Q614 876 566 876 Q518 876 480 865 Q442 854 415.5 835 Q389 816 374.5 790 Q360 764 360 734 L360 712 Q360 684 374 658 Q388 632 415 612.5 Q442 593 480.5 581.5 Q519 570 568 570 Q616 570 653.5 581.5 Q691 593 717.5 612.5 Q744 632 758 658 Q772 684 772 712 L772 734 Z " />
<glyph glyph-name="h" unicode="h" horiz-adv-x="1242" d="M126 1536 L418 1536 L418 968 Q477 1031 556.5 1066.5 Q636 1102 734 1102 Q820 1102 890 1079 Q960 1056 1010 1005.5 Q1060 955 1087.5 874 Q1115 793 1115 677 L1115 0 L822 0 L822 679 Q822 731 809.5 765.5 Q797 800 772.5 821 Q748 842 712 850.5 Q676 859 629 859 Q554 859 502 832 Q450 805 418 757 L418 0 L126 0 L126 1536 Z " />
<glyph glyph-name="i" unicode="i" horiz-adv-x="590" >
<g transform="translate(-6,0)" >
<path fill="black" d="M154 0 L154 1082 L447 1082 L447 0 L154 0 Z " />
</g>
<g transform="translate(-16,1220)" >
<path fill="black" d="M147 148 Q147 182 158.5 211 Q170 240 191 261.5 Q212 283 242.5 295 Q273 307 311 307 Q349 307 379.5 295 Q410 283 431.5 261.5 Q453 240 464.5 211 Q476 182 476 148 Q476 114 464.5 85 Q453 56 431.5 34.5 Q410 13 379.5 1 Q349 -11 311 -11 Q273 -11 242.5 1 Q212 13 191 34.5 Q170 56 158.5 85 Q147 114 147 148 Z " />
</g>
</glyph>
<glyph glyph-name="j" unicode="j" horiz-adv-x="577" >
<g transform="translate(-8,0)" >
<path fill="black" d="M-77 -181 Q-53 -186 -28 -188.5 Q-3 -191 20 -191 Q86 -191 120 -156 Q154 -121 154 -48 L154 1082 L447 1082 L447 -48 Q447 -237 351 -337 Q255 -437 72 -437 Q35 -437 -3 -433.5 Q-41 -430 -77 -420 L-77 -181 Z " />
</g>
<g transform="translate(-24,1220)" >
<path fill="black" d="M147 148 Q147 182 158.5 211 Q170 240 191 261.5 Q212 283 242.5 295 Q273 307 311 307 Q349 307 379.5 295 Q410 283 431.5 261.5 Q453 240 464.5 211 Q476 182 476 148 Q476 114 464.5 85 Q453 56 431.5 34.5 Q410 13 379.5 1 Q349 -11 311 -11 Q273 -11 242.5 1 Q212 13 191 34.5 Q170 56 158.5 85 Q147 114 147 148 Z " />
</g>
</glyph>
<glyph glyph-name="k" unicode="k" horiz-adv-x="1180" d="M132 1537 L424 1537 L424 657 L495 736 L801 1082 L1149 1082 L720 633 L1191 0 L853 0 L533 453 L424 356 L424 0 L132 0 L132 1537 Z " />
<glyph glyph-name="l" unicode="l" horiz-adv-x="701" d="M143 1536 L436 1536 L436 341 Q436 307 444 285 Q452 263 467 250 Q482 237 504 232 Q526 227 554 227 Q581 227 605.5 229 Q630 231 645 234 L645 8 Q610 -6 565.5 -13 Q521 -20 463 -20 Q392 -20 333 -2 Q274 16 232 55.5 Q190 95 166.5 156.5 Q143 218 143 305 L143 1536 Z " />
<glyph glyph-name="m" unicode="m" horiz-adv-x="1923" d="M131 1082 L407 1082 L415 969 Q473 1032 556 1067 Q639 1102 748 1102 Q854 1102 935 1063.5 Q1016 1025 1061 938 Q1118 1015 1206 1058.5 Q1294 1102 1413 1102 Q1500 1102 1570 1080.5 Q1640 1059 1689 1009.5 Q1738 960 1764.5 880.5 Q1791 801 1791 685 L1791 0 L1498 0 L1498 685 Q1498 739 1485 772.5 Q1472 806 1447.5 825.5 Q1423 845 1388.5 852 Q1354 859 1310 859 Q1232 858 1181.5 820.5 Q1131 783 1107 720 L1107 0 L815 0 L815 684 Q815 738 802 772 Q789 806 764.5 825.5 Q740 845 705 852 Q670 859 626 859 Q551 859 501.5 832.5 Q452 806 423 760 L423 0 L131 0 L131 1082 Z " />
<glyph glyph-name="n" unicode="n" horiz-adv-x="1245" d="M127 1082 L403 1082 L411 964 Q472 1031 557 1066.5 Q642 1102 746 1102 Q829 1102 897.5 1080.5 Q966 1059 1014.5 1009.5 Q1063 960 1089.5 880.5 Q1116 801 1116 685 L1116 0 L822 0 L822 686 Q822 737 809.5 770.5 Q797 804 773 823.5 Q749 843 713.5 851 Q678 859 631 859 Q558 859 504.5 830 Q451 801 419 752 L419 0 L127 0 L127 1082 Z " />
<glyph glyph-name="o" unicode="o" horiz-adv-x="1264" d="M84 560 Q84 681 121 780.5 Q158 880 228.5 951.5 Q299 1023 400 1062.5 Q501 1102 630 1102 Q760 1102 862 1062.5 Q964 1023 1034.5 951.5 Q1105 880 1142 780.5 Q1179 681 1179 560 L1179 521 Q1179 400 1142 300.5 Q1105 201 1035 130 Q965 59 863 19.5 Q761 -20 632 -20 Q503 -20 401 19.5 Q299 59 228.5 130 Q158 201 121 300.5 Q84 400 84 521 L84 560 Z M376 521 Q376 455 391 400 Q406 345 437 305.5 Q468 266 516.5 244.5 Q565 223 632 223 Q699 223 747 244.5 Q795 266 826 305.5 Q857 345 871.5 400 Q886 455 886 521 L886 560 Q886 625 871.5 679.5 Q857 734 825.5 774 Q794 814 746 836.5 Q698 859 630 859 Q564 859 516 836.5 Q468 814 437 774 Q406 734 391 679.5 Q376 625 376 560 L376 521 Z " />
<glyph glyph-name="p" unicode="p" horiz-adv-x="1253" d="M131 1082 L402 1082 L414 972 Q468 1034 542 1068 Q616 1102 716 1102 Q827 1102 911.5 1065 Q996 1028 1053.5 958 Q1111 888 1140 788 Q1169 688 1169 562 L1169 524 Q1169 403 1140 303 Q1111 203 1054 131 Q997 59 913 19.5 Q829 -20 719 -20 Q623 -20 550.5 12.5 Q478 45 424 102 L424 -416 L131 -416 L131 1082 Z M424 322 Q454 275 506.5 249 Q559 223 637 223 Q702 223 747.5 245 Q793 267 822 307 Q851 347 864 402 Q877 457 877 524 L877 562 Q877 631 863.5 686 Q850 741 821 779.5 Q792 818 746 838.5 Q700 859 635 859 Q559 859 507 835 Q455 811 424 763 L424 322 Z " />
<glyph glyph-name="q" unicode="q" horiz-adv-x="1262" d="M828 96 Q774 42 703.5 11 Q633 -20 540 -20 Q431 -20 345.5 19.5 Q260 59 201.5 130.5 Q143 202 112.5 301.5 Q82 401 82 522 L82 560 Q82 686 112.5 786.5 Q143 887 201.5 957 Q260 1027 345.5 1064.5 Q431 1102 542 1102 Q642 1102 716.5 1067 Q791 1032 845 969 L862 1082 L1121 1082 L1121 -416 L828 -416 L828 96 Z M375 522 Q375 456 388.5 401 Q402 346 431 306.5 Q460 267 505.5 245 Q551 223 616 223 Q692 223 744 247.5 Q796 272 828 317 L828 767 Q764 859 617 859 Q552 859 506 838 Q460 817 431 778 Q402 739 388.5 684 Q375 629 375 560 L375 522 Z " />
<glyph glyph-name="r" unicode="r" horiz-adv-x="803" d="M131 1082 L410 1082 L417 960 Q460 1027 524.5 1064.5 Q589 1102 676 1102 Q699 1102 726.5 1099 Q754 1096 770 1090 L768 795 Q743 798 713 800.5 Q683 803 657 803 Q480 803 424 693 L424 0 L131 0 L131 1082 Z " />
<glyph glyph-name="s" unicode="s" horiz-adv-x="1149" d="M354 342 Q357 301 377 272 Q397 243 428.5 225 Q460 207 500 199 Q540 191 584 191 Q673 191 722 220.5 Q771 250 771 298 Q771 327 753.5 346 Q736 365 703.5 379.5 Q671 394 626 406 Q581 418 527 432 Q434 455 358 483 Q282 511 228 550 Q174 589 144 642 Q114 695 114 769 Q114 836 141 896.5 Q168 957 225 1002.5 Q282 1048 370 1075 Q458 1102 581 1102 Q700 1102 788 1076.5 Q876 1051 934.5 1005.5 Q993 960 1022 896 Q1051 832 1051 755 L761 755 Q761 818 715.5 855 Q670 892 575 892 Q485 892 441 862 Q397 832 397 784 Q397 755 413 735.5 Q429 716 459 701.5 Q489 687 531.5 676 Q574 665 627 653 Q702 636 778.5 615 Q855 594 917 558 Q979 522 1018 464.5 Q1057 407 1057 317 Q1057 242 1027.5 180 Q998 118 938.5 73.5 Q879 29 790.5 4.5 Q702 -20 583 -20 Q445 -20 349 12 Q253 44 192 95.5 Q131 147 103.5 211.5 Q76 276 76 342 L354 342 Z " />
<glyph glyph-name="t" unicode="t" horiz-adv-x="754" d="M196 863 L15 863 L15 1082 L196 1082 L196 1351 L488 1351 L488 1082 L688 1082 L688 863 L488 863 L488 341 Q488 307 496 285 Q504 263 519.5 250 Q535 237 557 232 Q579 227 607 227 Q634 227 658 229 Q682 231 698 234 L697 8 Q662 -6 618 -13 Q574 -20 516 -20 Q444 -20 385 -2 Q326 16 284 55.5 Q242 95 219 156.5 Q196 218 196 305 L196 863 Z " />
<glyph glyph-name="u" unicode="u" horiz-adv-x="1242" d="M124 1082 L417 1082 L417 381 Q417 340 430.5 310 Q444 280 467 261 Q490 242 521 233 Q552 224 588 224 Q679 224 735.5 251 Q792 278 821 325 L821 1082 L1114 1082 L1114 0 L839 0 L832 107 Q778 47 698 13.5 Q618 -20 510 -20 Q424 -20 353 2.5 Q282 25 231 74 Q180 123 152 199 Q124 275 124 383 L124 1082 Z " />
<glyph glyph-name="v" unicode="v" horiz-adv-x="1118" d="M24 1082 L330 1082 L559 343 L783 1082 L1088 1082 L691 0 L423 0 L24 1082 Z " />
<glyph glyph-name="w" unicode="w" horiz-adv-x="1641" d="M38 1082 L322 1082 L489 401 L710 1082 L926 1082 L1148 393 L1314 1082 L1598 1082 L1292 0 L1049 0 L817 679 L588 0 L345 0 L38 1082 Z " />
<glyph glyph-name="x" unicode="x" horiz-adv-x="1129" d="M387 555 L47 1082 L365 1082 L565 730 L769 1082 L1087 1082 L746 555 L1100 0 L782 0 L566 380 L353 0 L33 0 L387 555 Z " />
<glyph glyph-name="y" unicode="y" horiz-adv-x="1103" d="M124 -192 Q135 -191 148.5 -191.5 Q162 -192 172 -192 Q219 -192 253.5 -185 Q288 -178 313.5 -164 Q339 -150 356.5 -129 Q374 -108 387 -79 L422 -9 L14 1082 L330 1082 L555 343 L776 1082 L1090 1082 L625 -162 Q610 -203 584 -251 Q558 -299 515.5 -340 Q473 -381 410 -409 Q347 -437 257 -437 Q219 -437 187.5 -432.5 Q156 -428 124 -418 L124 -192 Z " />
<glyph glyph-name="z" unicode="z" horiz-adv-x="1130" d="M90 179 L634 839 L104 839 L104 1082 L1029 1082 L1029 909 L481 243 L1047 243 L1047 0 L90 0 L90 179 Z " />
<glyph glyph-name="braceleft" unicode="&#x7b;" horiz-adv-x="747" d="M260 308 Q260 400 213.5 455 Q167 510 62 510 L62 724 Q167 724 213.5 779.5 Q260 835 260 928 L260 1132 Q260 1211 279 1282.5 Q298 1354 343 1414.5 Q388 1475 462.5 1521.5 Q537 1568 648 1597 L705 1431 Q653 1415 619 1386 Q585 1357 565 1318 Q545 1279 536.5 1232 Q528 1185 528 1132 L528 928 Q528 828 482.5 746.5 Q437 665 336 618 Q437 570 482.5 489 Q528 408 528 308 L528 103 Q528 51 536.5 3.5 Q545 -44 565 -83 Q585 -122 619 -151 Q653 -180 705 -196 L648 -363 Q537 -334 462.5 -287 Q388 -240 343 -179.5 Q298 -119 279 -47.5 Q260 24 260 103 L260 308 Z " />
<glyph glyph-name="bar" unicode="&#x7c;" horiz-adv-x="576" d="M195 -270 L195 1456 L384 1456 L384 -270 L195 -270 Z " />
<glyph glyph-name="braceright" unicode="&#x7d;" horiz-adv-x="747" d="M41 -196 Q93 -180 127 -151 Q161 -122 181.5 -83 Q202 -44 210 3.5 Q218 51 218 103 L218 308 Q218 409 264.5 490 Q311 571 414 618 Q312 664 265 746 Q218 828 218 928 L218 1132 Q218 1185 209.5 1232 Q201 1279 181 1318 Q161 1357 126.5 1386 Q92 1415 41 1431 L98 1597 Q209 1568 283.5 1521.5 Q358 1475 403 1414.5 Q448 1354 467 1282.5 Q486 1211 486 1132 L486 928 Q486 835 532.5 779.5 Q579 724 684 724 L684 510 Q579 510 532.5 455 Q486 400 486 308 L486 103 Q486 24 467 -47.5 Q448 -119 403 -179.5 Q358 -240 283.5 -287 Q209 -334 98 -363 L41 -196 Z " />
<glyph glyph-name="asciitilde" unicode="&#x7e;" horiz-adv-x="1457" d="M125 413 Q125 512 151.5 589.5 Q178 667 225.5 720.5 Q273 774 339 802.5 Q405 831 483 831 Q572 831 644 798.5 Q716 766 789 700 Q837 658 876.5 638 Q916 618 961 618 Q995 618 1022.5 631.5 Q1050 645 1070 669 Q1090 693 1101 725.5 Q1112 758 1112 796 L1332 796 Q1332 699 1305 620.5 Q1278 542 1230.5 487 Q1183 432 1117 402.5 Q1051 373 973 373 Q929 373 890.5 380.5 Q852 388 815.5 404.5 Q779 421 743.5 446 Q708 471 669 505 Q621 545 580.5 566 Q540 587 495 587 Q462 587 435 573.5 Q408 560 389 536.5 Q370 513 359.5 480.5 Q349 448 349 410 L125 413 Z " />
<glyph glyph-name="uni00A0" unicode="&#xa0;" horiz-adv-x="562" />
<glyph glyph-name="exclamdown" unicode="&#xa1;" horiz-adv-x="620" d="M189 632 L436 632 L468 -370 L157 -370 L189 632 Z M147 943 Q147 977 158.5 1006 Q170 1035 191 1056.5 Q212 1078 242.5 1090 Q273 1102 311 1102 Q349 1102 379.5 1090 Q410 1078 431.5 1056.5 Q453 1035 464.5 1006 Q476 977 476 943 Q476 909 464.5 880 Q453 851 431.5 829.5 Q410 808 379.5 796 Q349 784 311 784 Q273 784 242.5 796 Q212 808 191 829.5 Q170 851 158.5 880 Q147 909 147 943 Z " />
<glyph glyph-name="cent" unicode="&#xa2;" horiz-adv-x="1149" d="M535 -12 Q429 5 350 50.5 Q271 96 219 165 Q167 234 141 324 Q115 414 115 519 L115 562 Q115 668 141 758 Q167 848 219.5 917.5 Q272 987 350.5 1032.5 Q429 1078 535 1094 L535 1318 L755 1318 L755 1094 Q841 1081 909.5 1047.5 Q978 1014 1027 961 Q1076 908 1103 836 Q1130 764 1131 674 L856 674 Q852 756 799.5 807.5 Q747 859 641 859 Q570 859 524.5 836 Q479 813 453 773 Q427 733 417.5 678.5 Q408 624 408 562 L408 519 Q408 455 417.5 400.5 Q427 346 453 306.5 Q479 267 525 245 Q571 223 644 223 Q738 223 795 262.5 Q852 302 856 380 L1131 380 Q1130 301 1101 235 Q1072 169 1021.5 118.5 Q971 68 903 35 Q835 2 755 -12 L755 -245 L535 -245 L535 -12 Z " />
<glyph glyph-name="sterling" unicode="&#xa3;" horiz-adv-x="1318" d="M114 252 L207 252 Q233 258 249 274 Q265 290 274 313 Q283 336 286 364 Q289 392 288 421 L284 570 L111 570 L111 815 L277 815 L271 1039 Q268 1143 303.5 1224 Q339 1305 403.5 1360.5 Q468 1416 559 1445.5 Q650 1475 758 1475 Q873 1475 962.5 1444.5 Q1052 1414 1113.5 1358.5 Q1175 1303 1207 1225.5 Q1239 1148 1239 1053 L946 1053 Q946 1101 930 1133.5 Q914 1166 887 1186 Q860 1206 825 1214.5 Q790 1223 752 1223 Q714 1223 681 1211.5 Q648 1200 623.5 1177 Q599 1154 585 1119.5 Q571 1085 571 1039 L580 815 L913 815 L913 570 L589 570 L594 441 Q596 382 583.5 336 Q571 290 542 252 L1251 252 L1251 0 L114 0 L114 252 Z " />
<glyph glyph-name="currency" unicode="&#xa4;" horiz-adv-x="1587" d="M250 254 Q196 329 167 418.5 Q138 508 138 608 Q138 713 170 805.5 Q202 898 260 975 L99 1123 L254 1264 L412 1119 Q494 1174 591.5 1204 Q689 1234 798 1234 Q907 1234 1005.5 1203.5 Q1104 1173 1185 1117 L1346 1265 L1502 1123 L1337 972 Q1394 895 1425.5 803 Q1457 711 1457 608 Q1457 509 1428 420.5 Q1399 332 1347 257 L1502 115 L1346 -27 L1199 108 Q1115 47 1013.5 13.5 Q912 -20 798 -20 Q684 -20 583 13 Q482 46 398 106 L254 -26 L99 115 L250 254 Z M343 608 Q343 515 378.5 434.5 Q414 354 476 294.5 Q538 235 621 201 Q704 167 798 167 Q892 167 974.5 201 Q1057 235 1118.5 294.5 Q1180 354 1215.5 434.5 Q1251 515 1251 608 Q1251 701 1215.5 781.5 Q1180 862 1118.5 921 Q1057 980 974.5 1014 Q892 1048 798 1048 Q704 1048 621 1014 Q538 980 476 921 Q414 862 378.5 781.5 Q343 701 343 608 Z " />
<glyph glyph-name="yen" unicode="&#xa5;" horiz-adv-x="1190" d="M112 450 L440 450 L440 560 L112 560 L112 740 L369 740 L18 1456 L341 1456 L597 897 L854 1456 L1173 1456 L824 740 L1059 740 L1059 560 L744 560 L744 450 L1059 450 L1059 271 L744 271 L744 0 L440 0 L440 271 L112 271 L112 450 Z " />
<glyph glyph-name="brokenbar" unicode="&#xa6;" horiz-adv-x="572" d="M149 -270 L149 524 L419 524 L419 -270 L149 -270 Z M149 698 L149 1456 L419 1456 L419 698 L149 698 Z " />
<glyph glyph-name="section" unicode="&#xa7;" horiz-adv-x="1391" d="M396 -30 Q396 -83 422 -116.5 Q448 -150 489 -168.5 Q530 -187 581.5 -194 Q633 -201 685 -201 Q811 -201 877.5 -167 Q944 -133 944 -72 Q944 -41 928.5 -17 Q913 7 875 28 Q837 49 774.5 69 Q712 89 617 113 Q497 142 402.5 177.5 Q308 213 242 261.5 Q176 310 141 375.5 Q106 441 106 531 Q106 625 151.5 694.5 Q197 764 281 808 Q212 859 175.5 927 Q139 995 139 1093 Q139 1180 178.5 1251 Q218 1322 290 1372 Q362 1422 464.5 1449 Q567 1476 693 1476 Q822 1476 924.5 1448 Q1027 1420 1098.5 1366 Q1170 1312 1208.5 1232.5 Q1247 1153 1247 1050 L954 1050 Q954 1089 937.5 1122 Q921 1155 888 1180 Q855 1205 806.5 1219 Q758 1233 693 1233 Q625 1233 575.5 1222.5 Q526 1212 494.5 1193 Q463 1174 448 1149 Q433 1124 433 1095 Q433 1061 446.5 1036.5 Q460 1012 496 991.5 Q532 971 595 952 Q658 933 757 910 Q879 881 974.5 845.5 Q1070 810 1135.5 761 Q1201 712 1235.5 646 Q1270 580 1270 491 Q1270 396 1225 327.5 Q1180 259 1097 216 Q1166 165 1201.5 96.5 Q1237 28 1237 -71 Q1237 -162 1197.5 -231.5 Q1158 -301 1086 -348.5 Q1014 -396 912 -420.5 Q810 -445 685 -445 Q577 -445 472.5 -425 Q368 -405 286 -357.5 Q204 -310 153.5 -230 Q103 -150 103 -30 L396 -30 Z M399 566 Q399 528 412.5 501 Q426 474 461.5 452 Q497 430 560 409.5 Q623 389 722 364 Q767 353 807 341.5 Q847 330 884 317 Q932 339 956.5 375 Q981 411 981 458 Q981 491 965 517.5 Q949 544 911.5 567 Q874 590 811 612 Q748 634 653 659 Q608 671 568 682.5 Q528 694 490 708 Q443 687 421 650.5 Q399 614 399 566 Z " />
<glyph glyph-name="dieresis" unicode="&#xa8;" horiz-adv-x="1035" d="M104 1367 Q104 1394 114.5 1417.5 Q125 1441 144 1458 Q163 1475 190 1485 Q217 1495 250 1495 Q283 1495 310 1485 Q337 1475 356.5 1458 Q376 1441 386.5 1417.5 Q397 1394 397 1367 Q397 1340 386.5 1316.5 Q376 1293 356.5 1276 Q337 1259 310 1249 Q283 1239 250 1239 Q217 1239 190 1249 Q163 1259 144 1276 Q125 1293 114.5 1316.5 Q104 1340 104 1367 Z M628 1367 Q628 1394 638.5 1417.5 Q649 1441 668 1458 Q687 1475 714 1485 Q741 1495 774 1495 Q807 1495 834 1485 Q861 1475 880.5 1458 Q900 1441 910.5 1417.5 Q921 1394 921 1367 Q921 1340 910.5 1316.5 Q900 1293 880.5 1276 Q861 1259 834 1249 Q807 1239 774 1239 Q741 1239 714 1249 Q687 1259 668 1276 Q649 1293 638.5 1316.5 Q628 1340 628 1367 Z " />
<glyph glyph-name="copyright" unicode="&#xa9;" horiz-adv-x="1784" d="M98 729 Q98 888 160 1024.5 Q222 1161 329 1261.5 Q436 1362 579 1419 Q722 1476 885 1476 Q1048 1476 1191 1419 Q1334 1362 1441 1261.5 Q1548 1161 1610 1024.5 Q1672 888 1672 729 Q1672 570 1610 433.5 Q1548 297 1441 196 Q1334 95 1191 37.5 Q1048 -20 885 -20 Q722 -20 579 37.5 Q436 95 329 196 Q222 297 160 433.5 Q98 570 98 729 Z M233 729 Q233 596 284.5 481.5 Q336 367 424.5 282.5 Q513 198 631.5 150 Q750 102 885 102 Q1020 102 1138.5 150 Q1257 198 1345.5 282.5 Q1434 367 1485 481.5 Q1536 596 1536 729 Q1536 862 1485 976 Q1434 1090 1345.5 1174 Q1257 1258 1138.5 1305.5 Q1020 1353 885 1353 Q750 1353 631.5 1305.5 Q513 1258 424.5 1174 Q336 1090 284.5 976 Q233 862 233 729 Z M483 787 Q483 873 510 944 Q537 1015 587 1066 Q637 1117 708.5 1145.5 Q780 1174 870 1174 Q956 1174 1024.5 1154.5 Q1093 1135 1141.5 1096 Q1190 1057 1216 998 Q1242 939 1242 861 L1070 861 Q1070 958 1019.5 1000 Q969 1042 870 1042 Q817 1042 776.5 1023.5 Q736 1005 709 971 Q682 937 668.5 890.5 Q655 844 655 788 L655 670 Q655 613 668.5 566.5 Q682 520 709 486 Q736 452 776.5 433.5 Q817 415 870 415 Q968 415 1018.5 456.5 Q1069 498 1069 597 L1241 597 Q1241 518 1215 459 Q1189 400 1141 361 Q1093 322 1024.5 302.5 Q956 283 870 283 Q780 283 708.5 311 Q637 339 587 390 Q537 441 510 512.5 Q483 584 483 670 L483 787 Z " />
<glyph glyph-name="guillemotleft" unicode="&#xab;" horiz-adv-x="1101" >
<g transform="translate(-29,-1)" >
<path fill="black" d="M123 511 L123 530 L428 920 L622 920 L361 521 L622 122 L428 122 L123 511 Z " />
</g>
<g transform="translate(343,0)" >
<path fill="black" d="M123 511 L123 530 L428 920 L622 920 L361 521 L622 122 L428 122 L123 511 Z " />
</g>
</glyph>
<glyph glyph-name="logicalnot" unicode="&#xac;" horiz-adv-x="1230" d="M143 803 L1042 803 L1042 375 L823 375 L823 636 L143 636 L143 803 Z " />
<glyph glyph-name="uni00AD" unicode="&#xad;" horiz-adv-x="808" >
<g transform="translate(2,0)" >
<path fill="black" d="M105 505 L105 750 L693 750 L693 505 L105 505 Z " />
</g>
</glyph>
<glyph glyph-name="registered" unicode="&#xae;" horiz-adv-x="1784" d="M98 729 Q98 888 160 1024.5 Q222 1161 329 1261.5 Q436 1362 579 1419 Q722 1476 885 1476 Q1047 1476 1190.5 1419 Q1334 1362 1440.5 1261.5 Q1547 1161 1609 1024.5 Q1671 888 1671 729 Q1671 570 1609 433.5 Q1547 297 1440.5 196 Q1334 95 1190.5 37.5 Q1047 -20 885 -20 Q722 -20 579 37.5 Q436 95 329 196 Q222 297 160 433.5 Q98 570 98 729 Z M232 729 Q232 596 283.5 481.5 Q335 367 423.5 282.5 Q512 198 631 150 Q750 102 885 102 Q1020 102 1138 150 Q1256 198 1344.5 282.5 Q1433 367 1484 481.5 Q1535 596 1535 729 Q1535 862 1484 976 Q1433 1090 1344.5 1174 Q1256 1258 1138 1305.5 Q1020 1353 885 1353 Q750 1353 631 1305.5 Q512 1258 423.5 1174 Q335 1090 283.5 976 Q232 862 232 729 Z M559 1166 L870 1166 Q952 1166 1018.5 1149 Q1085 1132 1132 1099 Q1179 1066 1204.5 1017 Q1230 968 1230 903 Q1230 849 1202.5 801 Q1175 753 1122 723 Q1180 690 1203.5 636 Q1227 582 1227 515 L1227 459 Q1227 421 1230.5 388 Q1234 355 1245 332 L1245 316 L1074 316 Q1068 329 1065 349 Q1062 369 1060.5 390 Q1059 411 1059 430 Q1059 449 1059 460 L1059 514 Q1059 586 1023.5 620 Q988 654 901 654 L725 654 L725 316 L559 316 L559 1166 Z M880 785 Q917 785 950 793 Q983 801 1008.5 816 Q1034 831 1049 853 Q1064 875 1064 904 Q1064 940 1054 965 Q1044 990 1021 1005.5 Q998 1021 961 1028 Q924 1035 870 1035 L725 1035 L725 785 L880 785 Z " />
<glyph glyph-name="overscore" unicode="&#xaf;" horiz-adv-x="1103" d="M182 1289 L182 1456 L926 1456 L926 1289 L182 1289 Z " />
<glyph glyph-name="degree" unicode="&#xb0;" horiz-adv-x="877" d="M142 1198 Q142 1255 166 1305.5 Q190 1356 230.5 1394 Q271 1432 325 1454 Q379 1476 440 1476 Q500 1476 553.5 1454 Q607 1432 646.5 1394 Q686 1356 709 1305.5 Q732 1255 732 1198 Q732 1141 709 1091 Q686 1041 646.5 1004 Q607 967 553.5 945.5 Q500 924 440 924 Q379 924 325 945.5 Q271 967 230.5 1004 Q190 1041 166 1091 Q142 1141 142 1198 Z M300 1198 Q300 1171 311 1148 Q322 1125 341.5 1108.5 Q361 1092 386.5 1082.5 Q412 1073 440 1073 Q469 1073 493.5 1082.5 Q518 1092 536 1108.5 Q554 1125 564.5 1148 Q575 1171 575 1198 Q575 1226 564.5 1250 Q554 1274 536 1291 Q518 1308 493.5 1318 Q469 1328 440 1328 Q412 1328 386.5 1318 Q361 1308 341.5 1291 Q322 1274 311 1250 Q300 1226 300 1198 Z " />
<glyph glyph-name="plusminus" unicode="&#xb1;" horiz-adv-x="1197" d="M106 957 L475 957 L475 1289 L734 1289 L734 957 L1092 957 L1092 704 L734 704 L734 346 L475 346 L475 704 L106 704 L106 957 Z M137 247 L1059 247 L1059 1 L137 1 L137 247 Z " />
<glyph glyph-name="twosuperior" unicode="&#xb2;" horiz-adv-x="832" d="M89 667 L89 807 L399 1061 Q459 1112 486 1154 Q513 1196 513 1219 Q513 1257 485.5 1278.5 Q458 1300 406 1300 Q375 1300 352 1291 Q329 1282 314 1267 Q299 1252 291.5 1232.5 Q284 1213 284 1192 L69 1192 Q69 1249 92 1299 Q115 1349 157.5 1386.5 Q200 1424 261 1446 Q322 1468 398 1468 Q556 1468 642 1403.5 Q728 1339 728 1218 Q728 1174 714 1136 Q700 1098 671.5 1063 Q643 1028 600 993.5 Q557 959 498 922 L370 834 L754 834 L754 667 L89 667 Z " />
<glyph glyph-name="threesuperior" unicode="&#xb3;" horiz-adv-x="832" d="M278 906 Q278 874 313 849 Q348 824 408 824 Q474 824 504 850 Q534 876 534 910 Q534 961 497.5 981 Q461 1001 395 1001 L300 1001 L300 1138 L395 1138 Q458 1138 489 1162 Q520 1186 520 1225 Q520 1238 513.5 1251.5 Q507 1265 493 1275.5 Q479 1286 457 1293 Q435 1300 403 1300 Q355 1300 323 1285 Q291 1270 291 1242 L76 1242 Q76 1298 102 1340 Q128 1382 172 1410.5 Q216 1439 274.5 1453.5 Q333 1468 397 1468 Q472 1468 534 1453.5 Q596 1439 640.5 1410 Q685 1381 709.5 1339 Q734 1297 734 1241 Q734 1179 696.5 1137 Q659 1095 594 1072 Q668 1054 708.5 1011 Q749 968 749 888 Q749 833 722 790 Q695 747 648 717 Q601 687 536.5 671.5 Q472 656 397 656 Q337 656 277 669 Q217 682 169.5 712 Q122 742 92.5 789.5 Q63 837 63 906 L278 906 Z " />
<glyph glyph-name="acute" unicode="&#xb4;" horiz-adv-x="750" d="M338 1536 L665 1536 L359 1225 L120 1225 L338 1536 Z " />
<glyph glyph-name="mu" unicode="&#xb5;" horiz-adv-x="1346" d="M160 1082 L452 1082 L452 461 Q452 389 466.5 343 Q481 297 507.5 271 Q534 245 570.5 235.5 Q607 226 652 226 Q741 226 795.5 252.5 Q850 279 879 327 L879 1082 L1172 1082 L1172 0 L901 0 L894 75 Q848 29 786.5 4 Q725 -21 647 -21 Q589 -21 540.5 -8 Q492 5 452 34 L452 -416 L160 -416 L160 1082 Z " />
<glyph glyph-name="paragraph" unicode="&#xb6;" horiz-adv-x="1095" d="M701 520 L612 520 Q484 520 385.5 555 Q287 590 219.5 652.5 Q152 715 117.5 801 Q83 887 83 988 Q83 1089 117.5 1174.5 Q152 1260 219.5 1322.5 Q287 1385 385.5 1420.5 Q484 1456 612 1456 L936 1456 L936 0 L701 0 L701 520 Z " />
<glyph glyph-name="middot" unicode="&#xb7;" horiz-adv-x="661" >
<g transform="translate(11,542)" >
<path fill="black" d="M147 148 Q147 182 158.5 211 Q170 240 191 261.5 Q212 283 242.5 295 Q273 307 311 307 Q349 307 379.5 295 Q410 283 431.5 261.5 Q453 240 464.5 211 Q476 182 476 148 Q476 114 464.5 85 Q453 56 431.5 34.5 Q410 13 379.5 1 Q349 -11 311 -11 Q273 -11 242.5 1 Q212 13 191 34.5 Q170 56 158.5 85 Q147 114 147 148 Z " />
</g>
</glyph>
<glyph glyph-name="cedilla" unicode="&#xb8;" horiz-adv-x="594" d="M144 -293 Q200 -293 237 -274.5 Q274 -256 274 -212 Q274 -172 237.5 -156.5 Q201 -141 117 -136 L151 9 L367 9 L355 -52 Q385 -57 414 -68.5 Q443 -80 465.5 -100.5 Q488 -121 502 -151.5 Q516 -182 516 -225 Q516 -279 493 -324 Q470 -369 424 -400.5 Q378 -432 309.5 -449.5 Q241 -467 151 -467 L144 -293 Z " />
<glyph glyph-name="onesuperior" unicode="&#xb9;" horiz-adv-x="832" d="M358 667 L358 1212 L151 1173 L151 1333 L552 1453 L572 1453 L572 667 L358 667 Z " />
<glyph glyph-name="guillemotright" unicode="&#xbb;" horiz-adv-x="1101" >
<g transform="translate(8,0)" >
<path fill="black" d="M355 520 L95 919 L288 919 L594 529 L594 510 L288 121 L95 121 L355 520 Z " />
</g>
<g transform="translate(388,0)" >
<path fill="black" d="M355 520 L95 919 L288 919 L594 529 L594 510 L288 121 L95 121 L355 520 Z " />
</g>
</glyph>
<glyph glyph-name="onequarter" unicode="&#xbc;" horiz-adv-x="1419" d="M1087 1332 L1233 1256 L467 118 L322 194 L1087 1332 Z M815 297 L1201 789 L1419 789 L1419 329 L1515 329 L1515 160 L1419 160 L1419 0 L1203 0 L1203 160 L827 160 L815 297 Z M316 664 L316 1209 L109 1170 L109 1330 L510 1450 L530 1450 L530 664 L316 664 Z M1203 329 L1203 534 L1189 513 L1021 329 L1203 329 Z " />
<glyph glyph-name="onehalf" unicode="&#xbd;" horiz-adv-x="1505" d="M371 670 L304 670 L304 1215 L97 1176 L97 1336 L498 1456 L518 1456 L518 888 L811 1324 L957 1248 L191 110 L46 186 L371 670 Z M939 140 L1249 394 Q1309 445 1336 487 Q1363 529 1363 552 Q1363 590 1335.5 611.5 Q1308 633 1256 633 Q1225 633 1202 624 Q1179 615 1164 600 Q1149 585 1141.5 565.5 Q1134 546 1134 525 L919 525 Q919 582 942 632 Q965 682 1007.5 719.5 Q1050 757 1111 779 Q1172 801 1248 801 Q1406 801 1492 736.5 Q1578 672 1578 551 Q1578 507 1564 469 Q1550 431 1521.5 396 Q1493 361 1450 326.5 Q1407 292 1348 255 L1220 167 L1604 167 L1604 0 L939 0 L939 140 Z " />
<glyph glyph-name="threequarters" unicode="&#xbe;" horiz-adv-x="1607" d="M366 662 Q316 670 270.5 687.5 Q225 705 190 734.5 Q155 764 134.5 806.5 Q114 849 114 906 L329 906 Q329 874 364 849 Q399 824 459 824 Q470 824 475 825 L568 963 Q552 983 521 992 Q490 1001 446 1001 L351 1001 L351 1138 L446 1138 Q509 1138 540 1162 Q571 1186 571 1225 Q571 1238 564.5 1251.5 Q558 1265 544 1275.5 Q530 1286 508 1293 Q486 1300 454 1300 Q406 1300 374 1285 Q342 1270 342 1242 L127 1242 Q127 1298 153 1340 Q179 1382 223 1410.5 Q267 1439 325.5 1453.5 Q384 1468 448 1468 Q516 1468 573.5 1456 Q631 1444 674.5 1420 Q718 1396 745.5 1361 Q773 1326 782 1280 L811 1324 L957 1248 L779 983 Q800 944 800 888 Q800 845 783 808.5 Q766 772 735 744 Q704 716 661 696.5 Q618 677 566 667 L191 110 L46 186 L366 662 Z M876 297 L1262 789 L1480 789 L1480 329 L1576 329 L1576 160 L1480 160 L1480 0 L1264 0 L1264 160 L888 160 L876 297 Z M1264 329 L1264 534 L1250 513 L1082 329 L1264 329 Z " />
<glyph glyph-name="questiondown" unicode="&#xbf;" horiz-adv-x="1100" d="M1036 30 Q1035 -78 998 -156.5 Q961 -235 896.5 -286 Q832 -337 744.5 -361 Q657 -385 556 -385 Q444 -385 355 -359.5 Q266 -334 205 -284 Q144 -234 111.5 -161 Q79 -88 79 8 Q79 74 102 128 Q125 182 162.5 229 Q200 276 248 319.5 Q296 363 347 409 Q376 435 394.5 459 Q413 483 423.5 509.5 Q434 536 438 567 Q442 598 443 637 L709 637 Q709 571 700 519 Q691 467 671.5 423 Q652 379 620.5 341 Q589 303 544 264 Q508 233 476.5 204 Q445 175 422 145.5 Q399 116 386 83 Q373 50 373 9 Q373 -69 420 -105 Q467 -141 551 -141 Q588 -141 622.5 -131 Q657 -121 683.5 -100 Q710 -79 726.5 -47 Q743 -15 743 30 L1036 30 Z M411 944 Q411 978 422.5 1007 Q434 1036 455 1057.5 Q476 1079 506.5 1091 Q537 1103 575 1103 Q613 1103 643.5 1091 Q674 1079 695.5 1057.5 Q717 1036 728.5 1007 Q740 978 740 944 Q740 910 728.5 881 Q717 852 695.5 830.5 Q674 809 643.5 797 Q613 785 575 785 Q537 785 506.5 797 Q476 809 455 830.5 Q434 852 422.5 881 Q411 910 411 944 Z " />
<glyph glyph-name="Agrave" unicode="&#xc0;" horiz-adv-x="1492" >
<path fill="black" d="M606 1456 L884 1456 L1474 0 L1152 0 L1043 288 L449 288 L340 0 L19 0 L606 1456 Z M946 541 L746 1069 L545 541 L946 541 Z " />
<g transform="translate(294,310)" >
<path fill="black" d="M359 1225 L56 1536 L383 1536 L601 1225 L359 1225 Z " />
</g>
</glyph>
<glyph glyph-name="Aacute" unicode="&#xc1;" horiz-adv-x="1492" >
<path fill="black" d="M606 1456 L884 1456 L1474 0 L1152 0 L1043 288 L449 288 L340 0 L19 0 L606 1456 Z M946 541 L746 1069 L545 541 L946 541 Z " />
<g transform="translate(483,310)" >
<path fill="black" d="M338 1536 L665 1536 L359 1225 L120 1225 L338 1536 Z " />
</g>
</glyph>
<glyph glyph-name="Acircumflex" unicode="&#xc2;" horiz-adv-x="1492" >
<path fill="black" d="M606 1456 L884 1456 L1474 0 L1152 0 L1043 288 L449 288 L340 0 L19 0 L606 1456 Z M946 541 L746 1069 L545 541 L946 541 Z " />
<g transform="translate(205,310)" >
<path fill="black" d="M152 1260 L459 1536 L629 1536 L939 1257 L939 1244 L707 1244 L544 1385 L382 1244 L152 1244 L152 1260 Z " />
</g>
</glyph>
<glyph glyph-name="Atilde" unicode="&#xc3;" horiz-adv-x="1492" >
<path fill="black" d="M606 1456 L884 1456 L1474 0 L1152 0 L1043 288 L449 288 L340 0 L19 0 L606 1456 Z M946 541 L746 1069 L545 541 L946 541 Z " />
<g transform="translate(211,306)" >
<path fill="black" d="M136 1262 Q136 1315 154.5 1363.5 Q173 1412 205 1449 Q237 1486 282 1508 Q327 1530 379 1530 Q422 1530 458 1516.5 Q494 1503 528 1487.5 Q562 1472 596.5 1458.5 Q631 1445 672 1445 Q711 1445 738.5 1468 Q766 1491 766 1538 L938 1527 Q938 1473 920 1424.5 Q902 1376 869.5 1339.5 Q837 1303 792.5 1281.5 Q748 1260 695 1260 Q643 1260 606.5 1273.5 Q570 1287 539 1303 Q508 1319 476.5 1332.5 Q445 1346 402 1346 Q364 1346 337 1322.5 Q310 1299 310 1253 L136 1262 Z " />
</g>
</glyph>
<glyph glyph-name="Adieresis" unicode="&#xc4;" horiz-adv-x="1492" >
<g transform="translate(234,310)" >
<path fill="black" d="M104 1367 Q104 1394 114.5 1417.5 Q125 1441 144 1458 Q163 1475 190 1485 Q217 1495 250 1495 Q283 1495 310 1485 Q337 1475 356.5 1458 Q376 1441 386.5 1417.5 Q397 1394 397 1367 Q397 1340 386.5 1316.5 Q376 1293 356.5 1276 Q337 1259 310 1249 Q283 1239 250 1239 Q217 1239 190 1249 Q163 1259 144 1276 Q125 1293 114.5 1316.5 Q104 1340 104 1367 Z M628 1367 Q628 1394 638.5 1417.5 Q649 1441 668 1458 Q687 1475 714 1485 Q741 1495 774 1495 Q807 1495 834 1485 Q861 1475 880.5 1458 Q900 1441 910.5 1417.5 Q921 1394 921 1367 Q921 1340 910.5 1316.5 Q900 1293 880.5 1276 Q861 1259 834 1249 Q807 1239 774 1239 Q741 1239 714 1249 Q687 1259 668 1276 Q649 1293 638.5 1316.5 Q628 1340 628 1367 Z " />
</g>
<path fill="black" d="M606 1456 L884 1456 L1474 0 L1152 0 L1043 288 L449 288 L340 0 L19 0 L606 1456 Z M946 541 L746 1069 L545 541 L946 541 Z " />
</glyph>
<glyph glyph-name="Aring" unicode="&#xc5;" horiz-adv-x="1492" >
<path fill="black" d="M606 1456 L884 1456 L1474 0 L1152 0 L1043 288 L449 288 L340 0 L19 0 L606 1456 Z M946 541 L746 1069 L545 541 L946 541 Z " />
<g transform="translate(369,419)" >
<path fill="black" d="M136 1309 Q136 1350 154.5 1387 Q173 1424 206 1452 Q239 1480 284 1496 Q329 1512 382 1512 Q435 1512 480 1496 Q525 1480 557.5 1452 Q590 1424 608.5 1387 Q627 1350 627 1309 Q627 1268 608.5 1231.5 Q590 1195 557.5 1168 Q525 1141 480 1125.5 Q435 1110 382 1110 Q329 1110 284 1125.5 Q239 1141 206 1168 Q173 1195 154.5 1231.5 Q136 1268 136 1309 Z M261 1309 Q261 1265 294 1234.5 Q327 1204 382 1204 Q437 1204 470 1234 Q503 1264 503 1309 Q503 1354 470 1385.5 Q437 1417 382 1417 Q327 1417 294 1385.5 Q261 1354 261 1309 Z " />
</g>
</glyph>
<glyph glyph-name="AE" unicode="&#xc6;" horiz-adv-x="2088" d="M870 1456 L1957 1456 L1957 1209 L1292 1209 L1308 869 L1870 869 L1870 623 L1319 623 L1336 247 L2024 247 L2024 0 L1054 0 L1039 334 L532 334 L347 0 L1 0 L870 1456 Z M1027 588 L1001 1177 L674 588 L1027 588 Z " />
<glyph glyph-name="Ccedilla" unicode="&#xc7;" horiz-adv-x="1453" d="M631 -294 Q687 -294 724 -275.5 Q761 -257 761 -213 Q761 -173 724.5 -157.5 Q688 -142 604 -137 L633 -12 Q510 5 412.5 59.5 Q315 114 247 201 Q179 288 143 405 Q107 522 107 666 L107 790 Q107 949 152.5 1076.5 Q198 1204 282.5 1293 Q367 1382 487 1429.5 Q607 1477 755 1477 Q900 1477 1010.5 1439.5 Q1121 1402 1197.5 1333.5 Q1274 1265 1317.5 1169.5 Q1361 1074 1372 958 L1068 958 Q1062 1025 1042.5 1074.5 Q1023 1124 986.5 1156.5 Q950 1189 893 1205 Q836 1221 755 1221 Q669 1221 605 1196.5 Q541 1172 498.5 1120 Q456 1068 435 986.5 Q414 905 414 792 L414 666 Q414 554 432.5 472.5 Q451 391 491 338.5 Q531 286 594 261 Q657 236 747 236 Q828 236 885.5 250.5 Q943 265 980.5 295.5 Q1018 326 1039 374 Q1060 422 1067 489 L1371 489 Q1363 384 1325.5 296.5 Q1288 209 1222.5 144 Q1157 79 1063.5 38 Q970 -3 849 -15 L842 -53 Q872 -58 901 -69.5 Q930 -81 952.5 -101.5 Q975 -122 989 -152.5 Q1003 -183 1003 -226 Q1003 -280 980 -325 Q957 -370 911 -401.5 Q865 -433 796.5 -450.5 Q728 -468 638 -468 L631 -294 Z " />
<glyph glyph-name="Egrave" unicode="&#xc8;" horiz-adv-x="1255" >
<path fill="black" d="M154 1456 L1189 1456 L1189 1203 L458 1203 L458 871 L1086 871 L1086 626 L458 626 L458 252 L1194 252 L1194 0 L154 0 L154 1456 Z " />
<g transform="translate(230,312)" >
<path fill="black" d="M359 1225 L56 1536 L383 1536 L601 1225 L359 1225 Z " />
</g>
</glyph>
<glyph glyph-name="Eacute" unicode="&#xc9;" horiz-adv-x="1255" >
<path fill="black" d="M154 1456 L1189 1456 L1189 1203 L458 1203 L458 871 L1086 871 L1086 626 L458 626 L458 252 L1194 252 L1194 0 L154 0 L154 1456 Z " />
<g transform="translate(419,312)" >
<path fill="black" d="M338 1536 L665 1536 L359 1225 L120 1225 L338 1536 Z " />
</g>
</glyph>
<glyph glyph-name="Ecircumflex" unicode="&#xca;" horiz-adv-x="1255" >
<path fill="black" d="M154 1456 L1189 1456 L1189 1203 L458 1203 L458 871 L1086 871 L1086 626 L458 626 L458 252 L1194 252 L1194 0 L154 0 L154 1456 Z " />
<g transform="translate(141,312)" >
<path fill="black" d="M152 1260 L459 1536 L629 1536 L939 1257 L939 1244 L707 1244 L544 1385 L382 1244 L152 1244 L152 1260 Z " />
</g>
</glyph>
<glyph glyph-name="Edieresis" unicode="&#xcb;" horiz-adv-x="1255" >
<g transform="translate(170,312)" >
<path fill="black" d="M104 1367 Q104 1394 114.5 1417.5 Q125 1441 144 1458 Q163 1475 190 1485 Q217 1495 250 1495 Q283 1495 310 1485 Q337 1475 356.5 1458 Q376 1441 386.5 1417.5 Q397 1394 397 1367 Q397 1340 386.5 1316.5 Q376 1293 356.5 1276 Q337 1259 310 1249 Q283 1239 250 1239 Q217 1239 190 1249 Q163 1259 144 1276 Q125 1293 114.5 1316.5 Q104 1340 104 1367 Z M628 1367 Q628 1394 638.5 1417.5 Q649 1441 668 1458 Q687 1475 714 1485 Q741 1495 774 1495 Q807 1495 834 1485 Q861 1475 880.5 1458 Q900 1441 910.5 1417.5 Q921 1394 921 1367 Q921 1340 910.5 1316.5 Q900 1293 880.5 1276 Q861 1259 834 1249 Q807 1239 774 1239 Q741 1239 714 1249 Q687 1259 668 1276 Q649 1293 638.5 1316.5 Q628 1340 628 1367 Z " />
</g>
<path fill="black" d="M154 1456 L1189 1456 L1189 1203 L458 1203 L458 871 L1086 871 L1086 626 L458 626 L458 252 L1194 252 L1194 0 L154 0 L154 1456 Z " />
</glyph>
<glyph glyph-name="Igrave" unicode="&#xcc;" horiz-adv-x="646" >
<path fill="black" d="M172 0 L172 1456 L476 1456 L476 0 L172 0 Z " />
<g transform="translate(-133,312)" >
<path fill="black" d="M359 1225 L56 1536 L383 1536 L601 1225 L359 1225 Z " />
</g>
</glyph>
<glyph glyph-name="Iacute" unicode="&#xcd;" horiz-adv-x="646" >
<path fill="black" d="M172 0 L172 1456 L476 1456 L476 0 L172 0 Z " />
<g transform="translate(56,312)" >
<path fill="black" d="M338 1536 L665 1536 L359 1225 L120 1225 L338 1536 Z " />
</g>
</glyph>
<glyph glyph-name="Icircumflex" unicode="&#xce;" horiz-adv-x="646" >
<path fill="black" d="M172 0 L172 1456 L476 1456 L476 0 L172 0 Z " />
<g transform="translate(-222,312)" >
<path fill="black" d="M152 1260 L459 1536 L629 1536 L939 1257 L939 1244 L707 1244 L544 1385 L382 1244 L152 1244 L152 1260 Z " />
</g>
</glyph>
<glyph glyph-name="Idieresis" unicode="&#xcf;" horiz-adv-x="646" >
<g transform="translate(-193,312)" >
<path fill="black" d="M104 1367 Q104 1394 114.5 1417.5 Q125 1441 144 1458 Q163 1475 190 1485 Q217 1495 250 1495 Q283 1495 310 1485 Q337 1475 356.5 1458 Q376 1441 386.5 1417.5 Q397 1394 397 1367 Q397 1340 386.5 1316.5 Q376 1293 356.5 1276 Q337 1259 310 1249 Q283 1239 250 1239 Q217 1239 190 1249 Q163 1259 144 1276 Q125 1293 114.5 1316.5 Q104 1340 104 1367 Z M628 1367 Q628 1394 638.5 1417.5 Q649 1441 668 1458 Q687 1475 714 1485 Q741 1495 774 1495 Q807 1495 834 1485 Q861 1475 880.5 1458 Q900 1441 910.5 1417.5 Q921 1394 921 1367 Q921 1340 910.5 1316.5 Q900 1293 880.5 1276 Q861 1259 834 1249 Q807 1239 774 1239 Q741 1239 714 1249 Q687 1259 668 1276 Q649 1293 638.5 1316.5 Q628 1340 628 1367 Z " />
</g>
<path fill="black" d="M172 0 L172 1456 L476 1456 L476 0 L172 0 Z " />
</glyph>
<glyph glyph-name="Eth" unicode="&#xd0;" horiz-adv-x="1448" d="M154 641 L-11 641 L-11 824 L154 824 L154 1456 L627 1456 Q786 1456 917 1407.5 Q1048 1359 1141.5 1270.5 Q1235 1182 1287 1057.5 Q1339 933 1339 781 L1339 674 Q1339 522 1287.5 397.5 Q1236 273 1141.5 184.5 Q1047 96 914 48 Q781 0 619 0 L154 0 L154 641 Z M619 252 Q829 252 931 357.5 Q1033 463 1033 674 L1033 783 Q1033 994 931 1098.5 Q829 1203 627 1203 L458 1203 L458 824 L729 824 L729 641 L458 641 L458 252 L619 252 Z " />
<glyph glyph-name="Ntilde" unicode="&#xd1;" horiz-adv-x="1573" >
<path fill="black" d="M154 1456 L465 1456 L1114 467 L1114 1456 L1417 1456 L1417 0 L1107 0 L458 1012 L458 0 L154 0 L154 1456 Z " />
<g transform="translate(249,306)" >
<path fill="black" d="M136 1262 Q136 1315 154.5 1363.5 Q173 1412 205 1449 Q237 1486 282 1508 Q327 1530 379 1530 Q422 1530 458 1516.5 Q494 1503 528 1487.5 Q562 1472 596.5 1458.5 Q631 1445 672 1445 Q711 1445 738.5 1468 Q766 1491 766 1538 L938 1527 Q938 1473 920 1424.5 Q902 1376 869.5 1339.5 Q837 1303 792.5 1281.5 Q748 1260 695 1260 Q643 1260 606.5 1273.5 Q570 1287 539 1303 Q508 1319 476.5 1332.5 Q445 1346 402 1346 Q364 1346 337 1322.5 Q310 1299 310 1253 L136 1262 Z " />
</g>
</glyph>
<glyph glyph-name="Ograve" unicode="&#xd2;" horiz-adv-x="1534" >
<path fill="black" d="M108 781 Q108 945 156 1074 Q204 1203 291 1292 Q378 1381 499 1428.5 Q620 1476 766 1476 Q913 1476 1034.5 1428.5 Q1156 1381 1243 1292 Q1330 1203 1377.5 1074 Q1425 945 1425 781 L1425 673 Q1425 510 1377.5 381 Q1330 252 1244 163 Q1158 74 1036.5 27 Q915 -20 768 -20 Q623 -20 501.5 27 Q380 74 292.5 163 Q205 252 156.5 381 Q108 510 108 673 L108 781 Z M414 673 Q414 459 508 347.5 Q602 236 768 236 Q938 236 1029 346.5 Q1120 457 1120 673 L1120 783 Q1120 1000 1027.5 1109.5 Q935 1219 766 1219 Q600 1219 507 1109.5 Q414 1000 414 783 L414 673 Z " />
<g transform="translate(313,311)" >
<path fill="black" d="M359 1225 L56 1536 L383 1536 L601 1225 L359 1225 Z " />
</g>
</glyph>
<glyph glyph-name="Oacute" unicode="&#xd3;" horiz-adv-x="1534" >
<path fill="black" d="M108 781 Q108 945 156 1074 Q204 1203 291 1292 Q378 1381 499 1428.5 Q620 1476 766 1476 Q913 1476 1034.5 1428.5 Q1156 1381 1243 1292 Q1330 1203 1377.5 1074 Q1425 945 1425 781 L1425 673 Q1425 510 1377.5 381 Q1330 252 1244 163 Q1158 74 1036.5 27 Q915 -20 768 -20 Q623 -20 501.5 27 Q380 74 292.5 163 Q205 252 156.5 381 Q108 510 108 673 L108 781 Z M414 673 Q414 459 508 347.5 Q602 236 768 236 Q938 236 1029 346.5 Q1120 457 1120 673 L1120 783 Q1120 1000 1027.5 1109.5 Q935 1219 766 1219 Q600 1219 507 1109.5 Q414 1000 414 783 L414 673 Z " />
<g transform="translate(502,311)" >
<path fill="black" d="M338 1536 L665 1536 L359 1225 L120 1225 L338 1536 Z " />
</g>
</glyph>
<glyph glyph-name="Ocircumflex" unicode="&#xd4;" horiz-adv-x="1534" >
<path fill="black" d="M108 781 Q108 945 156 1074 Q204 1203 291 1292 Q378 1381 499 1428.5 Q620 1476 766 1476 Q913 1476 1034.5 1428.5 Q1156 1381 1243 1292 Q1330 1203 1377.5 1074 Q1425 945 1425 781 L1425 673 Q1425 510 1377.5 381 Q1330 252 1244 163 Q1158 74 1036.5 27 Q915 -20 768 -20 Q623 -20 501.5 27 Q380 74 292.5 163 Q205 252 156.5 381 Q108 510 108 673 L108 781 Z M414 673 Q414 459 508 347.5 Q602 236 768 236 Q938 236 1029 346.5 Q1120 457 1120 673 L1120 783 Q1120 1000 1027.5 1109.5 Q935 1219 766 1219 Q600 1219 507 1109.5 Q414 1000 414 783 L414 673 Z " />
<g transform="translate(224,311)" >
<path fill="black" d="M152 1260 L459 1536 L629 1536 L939 1257 L939 1244 L707 1244 L544 1385 L382 1244 L152 1244 L152 1260 Z " />
</g>
</glyph>
<glyph glyph-name="Otilde" unicode="&#xd5;" horiz-adv-x="1534" >
<path fill="black" d="M108 781 Q108 945 156 1074 Q204 1203 291 1292 Q378 1381 499 1428.5 Q620 1476 766 1476 Q913 1476 1034.5 1428.5 Q1156 1381 1243 1292 Q1330 1203 1377.5 1074 Q1425 945 1425 781 L1425 673 Q1425 510 1377.5 381 Q1330 252 1244 163 Q1158 74 1036.5 27 Q915 -20 768 -20 Q623 -20 501.5 27 Q380 74 292.5 163 Q205 252 156.5 381 Q108 510 108 673 L108 781 Z M414 673 Q414 459 508 347.5 Q602 236 768 236 Q938 236 1029 346.5 Q1120 457 1120 673 L1120 783 Q1120 1000 1027.5 1109.5 Q935 1219 766 1219 Q600 1219 507 1109.5 Q414 1000 414 783 L414 673 Z " />
<g transform="translate(230,307)" >
<path fill="black" d="M136 1262 Q136 1315 154.5 1363.5 Q173 1412 205 1449 Q237 1486 282 1508 Q327 1530 379 1530 Q422 1530 458 1516.5 Q494 1503 528 1487.5 Q562 1472 596.5 1458.5 Q631 1445 672 1445 Q711 1445 738.5 1468 Q766 1491 766 1538 L938 1527 Q938 1473 920 1424.5 Q902 1376 869.5 1339.5 Q837 1303 792.5 1281.5 Q748 1260 695 1260 Q643 1260 606.5 1273.5 Q570 1287 539 1303 Q508 1319 476.5 1332.5 Q445 1346 402 1346 Q364 1346 337 1322.5 Q310 1299 310 1253 L136 1262 Z " />
</g>
</glyph>
<glyph glyph-name="Odieresis" unicode="&#xd6;" horiz-adv-x="1534" >
<g transform="translate(253,311)" >
<path fill="black" d="M104 1367 Q104 1394 114.5 1417.5 Q125 1441 144 1458 Q163 1475 190 1485 Q217 1495 250 1495 Q283 1495 310 1485 Q337 1475 356.5 1458 Q376 1441 386.5 1417.5 Q397 1394 397 1367 Q397 1340 386.5 1316.5 Q376 1293 356.5 1276 Q337 1259 310 1249 Q283 1239 250 1239 Q217 1239 190 1249 Q163 1259 144 1276 Q125 1293 114.5 1316.5 Q104 1340 104 1367 Z M628 1367 Q628 1394 638.5 1417.5 Q649 1441 668 1458 Q687 1475 714 1485 Q741 1495 774 1495 Q807 1495 834 1485 Q861 1475 880.5 1458 Q900 1441 910.5 1417.5 Q921 1394 921 1367 Q921 1340 910.5 1316.5 Q900 1293 880.5 1276 Q861 1259 834 1249 Q807 1239 774 1239 Q741 1239 714 1249 Q687 1259 668 1276 Q649 1293 638.5 1316.5 Q628 1340 628 1367 Z " />
</g>
<path fill="black" d="M108 781 Q108 945 156 1074 Q204 1203 291 1292 Q378 1381 499 1428.5 Q620 1476 766 1476 Q913 1476 1034.5 1428.5 Q1156 1381 1243 1292 Q1330 1203 1377.5 1074 Q1425 945 1425 781 L1425 673 Q1425 510 1377.5 381 Q1330 252 1244 163 Q1158 74 1036.5 27 Q915 -20 768 -20 Q623 -20 501.5 27 Q380 74 292.5 163 Q205 252 156.5 381 Q108 510 108 673 L108 781 Z M414 673 Q414 459 508 347.5 Q602 236 768 236 Q938 236 1029 346.5 Q1120 457 1120 673 L1120 783 Q1120 1000 1027.5 1109.5 Q935 1219 766 1219 Q600 1219 507 1109.5 Q414 1000 414 783 L414 673 Z " />
</glyph>
<glyph glyph-name="multiply" unicode="&#xd7;" horiz-adv-x="1187" d="M409 677 L81 988 L256 1161 L588 847 L920 1161 L1095 988 L767 678 L1095 367 L919 194 L588 508 L256 194 L81 367 L409 677 Z " />
<glyph glyph-name="Oslash" unicode="&#xd8;" horiz-adv-x="1366" d="M322 143 Q224 233 170 366 Q116 499 116 673 L116 781 Q116 945 164 1074 Q212 1203 299 1292 Q386 1381 507 1428.5 Q628 1476 774 1476 Q875 1476 963 1454 Q1051 1432 1126 1389 L1208 1517 L1402 1517 L1254 1288 Q1340 1198 1386.5 1071 Q1433 944 1433 781 L1433 673 Q1433 510 1385.5 381 Q1338 252 1252 163 Q1166 74 1044.5 27 Q923 -20 776 -20 Q596 -20 456 51 L363 -94 L169 -94 L322 143 Z M979 1162 Q897 1219 774 1219 Q608 1219 515 1109.5 Q422 1000 422 783 L422 673 Q422 500 484 394 L979 1162 Z M602 276 Q677 236 776 236 Q946 236 1037 346.5 Q1128 457 1128 673 L1128 783 Q1128 926 1085 1026 L602 276 Z " />
<glyph glyph-name="Ugrave" unicode="&#xd9;" horiz-adv-x="1456" >
<path fill="black" d="M134 1456 L438 1456 L438 491 Q438 420 458 370.5 Q478 321 515.5 290.5 Q553 260 607 246 Q661 232 728 232 Q796 232 850 246 Q904 260 941.5 290.5 Q979 321 998.5 370.5 Q1018 420 1018 491 L1018 1456 L1324 1456 L1324 491 Q1324 364 1278.5 268 Q1233 172 1152.5 108 Q1072 44 963 12 Q854 -20 728 -20 Q599 -20 490 12 Q381 44 302 108 Q223 172 178.5 268 Q134 364 134 491 L134 1456 Z " />
<g transform="translate(270,310)" >
<path fill="black" d="M359 1225 L56 1536 L383 1536 L601 1225 L359 1225 Z " />
</g>
</glyph>
<glyph glyph-name="Uacute" unicode="&#xda;" horiz-adv-x="1456" >
<path fill="black" d="M134 1456 L438 1456 L438 491 Q438 420 458 370.5 Q478 321 515.5 290.5 Q553 260 607 246 Q661 232 728 232 Q796 232 850 246 Q904 260 941.5 290.5 Q979 321 998.5 370.5 Q1018 420 1018 491 L1018 1456 L1324 1456 L1324 491 Q1324 364 1278.5 268 Q1233 172 1152.5 108 Q1072 44 963 12 Q854 -20 728 -20 Q599 -20 490 12 Q381 44 302 108 Q223 172 178.5 268 Q134 364 134 491 L134 1456 Z " />
<g transform="translate(459,310)" >
<path fill="black" d="M338 1536 L665 1536 L359 1225 L120 1225 L338 1536 Z " />
</g>
</glyph>
<glyph glyph-name="Ucircumflex" unicode="&#xdb;" horiz-adv-x="1456" >
<path fill="black" d="M134 1456 L438 1456 L438 491 Q438 420 458 370.5 Q478 321 515.5 290.5 Q553 260 607 246 Q661 232 728 232 Q796 232 850 246 Q904 260 941.5 290.5 Q979 321 998.5 370.5 Q1018 420 1018 491 L1018 1456 L1324 1456 L1324 491 Q1324 364 1278.5 268 Q1233 172 1152.5 108 Q1072 44 963 12 Q854 -20 728 -20 Q599 -20 490 12 Q381 44 302 108 Q223 172 178.5 268 Q134 364 134 491 L134 1456 Z " />
<g transform="translate(181,310)" >
<path fill="black" d="M152 1260 L459 1536 L629 1536 L939 1257 L939 1244 L707 1244 L544 1385 L382 1244 L152 1244 L152 1260 Z " />
</g>
</glyph>
<glyph glyph-name="Udieresis" unicode="&#xdc;" horiz-adv-x="1456" >
<g transform="translate(210,310)" >
<path fill="black" d="M104 1367 Q104 1394 114.5 1417.5 Q125 1441 144 1458 Q163 1475 190 1485 Q217 1495 250 1495 Q283 1495 310 1485 Q337 1475 356.5 1458 Q376 1441 386.5 1417.5 Q397 1394 397 1367 Q397 1340 386.5 1316.5 Q376 1293 356.5 1276 Q337 1259 310 1249 Q283 1239 250 1239 Q217 1239 190 1249 Q163 1259 144 1276 Q125 1293 114.5 1316.5 Q104 1340 104 1367 Z M628 1367 Q628 1394 638.5 1417.5 Q649 1441 668 1458 Q687 1475 714 1485 Q741 1495 774 1495 Q807 1495 834 1485 Q861 1475 880.5 1458 Q900 1441 910.5 1417.5 Q921 1394 921 1367 Q921 1340 910.5 1316.5 Q900 1293 880.5 1276 Q861 1259 834 1249 Q807 1239 774 1239 Q741 1239 714 1249 Q687 1259 668 1276 Q649 1293 638.5 1316.5 Q628 1340 628 1367 Z " />
</g>
<path fill="black" d="M134 1456 L438 1456 L438 491 Q438 420 458 370.5 Q478 321 515.5 290.5 Q553 260 607 246 Q661 232 728 232 Q796 232 850 246 Q904 260 941.5 290.5 Q979 321 998.5 370.5 Q1018 420 1018 491 L1018 1456 L1324 1456 L1324 491 Q1324 364 1278.5 268 Q1233 172 1152.5 108 Q1072 44 963 12 Q854 -20 728 -20 Q599 -20 490 12 Q381 44 302 108 Q223 172 178.5 268 Q134 364 134 491 L134 1456 Z " />
</glyph>
<glyph glyph-name="Yacute" unicode="&#xdd;" horiz-adv-x="1367" >
<path fill="black" d="M529 526 L11 1456 L346 1456 L683 787 L1019 1456 L1355 1456 L836 526 L836 0 L529 0 L529 526 Z " />
<g transform="translate(420,310)" >
<path fill="black" d="M338 1536 L665 1536 L359 1225 L120 1225 L338 1536 Z " />
</g>
</glyph>
<glyph glyph-name="Thorn" unicode="&#xde;" horiz-adv-x="1344" d="M156 1456 L449 1456 L449 1193 L697 1193 Q835 1193 940.5 1159.5 Q1046 1126 1118 1065.5 Q1190 1005 1227 921.5 Q1264 838 1264 738 Q1264 639 1227 555.5 Q1190 472 1118 411.5 Q1046 351 940.5 317 Q835 283 697 283 L449 283 L449 0 L156 0 L156 1456 Z M697 526 Q771 526 823 543.5 Q875 561 908 590 Q941 619 956 657 Q971 695 971 736 Q971 778 956 816.5 Q941 855 908 885 Q875 915 823 932.5 Q771 950 697 950 L450 950 L449 951 L449 526 L697 526 Z " />
<glyph glyph-name="germandbls" unicode="&#xdf;" horiz-adv-x="1386" d="M151 0 L151 1102 Q151 1215 186 1301 Q221 1387 285.5 1444.5 Q350 1502 441.5 1531 Q533 1560 645 1560 Q739 1560 820.5 1536 Q902 1512 962 1465 Q1022 1418 1056.5 1348.5 Q1091 1279 1091 1187 Q1091 1139 1082 1105 Q1073 1071 1059.5 1045.5 Q1046 1020 1030.5 999 Q1015 978 1001.5 954.5 Q988 931 979 902.5 Q970 874 970 833 Q970 801 994.5 771 Q1019 741 1056.5 709.5 Q1094 678 1137 643 Q1180 608 1217.5 566 Q1255 524 1279.5 473.5 Q1304 423 1304 361 Q1304 272 1273 201 Q1242 130 1182.5 81 Q1123 32 1036.5 6 Q950 -20 839 -20 Q797 -20 752.5 -16 Q708 -12 666.5 -5 Q625 2 590.5 12 Q556 22 534 34 L591 272 Q625 255 688.5 239 Q752 223 828 223 Q922 223 967 258.5 Q1012 294 1012 357 Q1012 397 987.5 429 Q963 461 925.5 491 Q888 521 845 552 Q802 583 764.5 621 Q727 659 702.5 706.5 Q678 754 678 818 Q678 864 687.5 897.5 Q697 931 711 957.5 Q725 984 741.5 1006 Q758 1028 772 1052.5 Q786 1077 795.5 1105.5 Q805 1134 805 1173 Q805 1205 792 1231.5 Q779 1258 756 1277 Q733 1296 700.5 1306.5 Q668 1317 630 1317 Q587 1317 552.5 1306 Q518 1295 494 1269.5 Q470 1244 457 1202 Q444 1160 444 1097 L444 0 L151 0 Z " />
<glyph glyph-name="agrave" unicode="&#xe0;" horiz-adv-x="1199" >
<path fill="black" d="M116 753 Q116 827 150.5 890.5 Q185 954 249 1001 Q313 1048 402.5 1075 Q492 1102 603 1102 Q704 1102 789 1079 Q874 1056 935.5 1009.5 Q997 963 1031.5 892.5 Q1066 822 1066 727 L1066 268 Q1066 219 1069 181 Q1072 143 1077.5 113.5 Q1083 84 1091.5 60.5 Q1100 37 1111 17 L1111 0 L815 0 Q797 37 788 91 Q734 43 654.5 11.5 Q575 -20 470 -20 Q383 -20 313 2.5 Q243 25 193.5 67.5 Q144 110 117.5 170.5 Q91 231 91 307 Q91 387 122.5 452 Q154 517 218 563 Q282 609 379 634 Q476 659 606 659 L773 659 L773 729 Q773 802 728 841 Q683 880 586 880 Q505 880 456.5 847.5 Q408 815 408 753 L116 753 Z M773 487 L623 487 Q555 487 509 473.5 Q463 460 435 437.5 Q407 415 395 384.5 Q383 354 383 320 Q383 293 389.5 272 Q396 251 412.5 236.5 Q429 222 456.5 214.5 Q484 207 525 207 Q569 207 607.5 215.5 Q646 224 678.5 237.5 Q711 251 735 268 Q759 285 773 303 L773 487 Z " />
<g transform="translate(152,0)" >
<path fill="black" d="M359 1225 L56 1536 L383 1536 L601 1225 L359 1225 Z " />
</g>
</glyph>
<glyph glyph-name="aacute" unicode="&#xe1;" horiz-adv-x="1199" >
<path fill="black" d="M116 753 Q116 827 150.5 890.5 Q185 954 249 1001 Q313 1048 402.5 1075 Q492 1102 603 1102 Q704 1102 789 1079 Q874 1056 935.5 1009.5 Q997 963 1031.5 892.5 Q1066 822 1066 727 L1066 268 Q1066 219 1069 181 Q1072 143 1077.5 113.5 Q1083 84 1091.5 60.5 Q1100 37 1111 17 L1111 0 L815 0 Q797 37 788 91 Q734 43 654.5 11.5 Q575 -20 470 -20 Q383 -20 313 2.5 Q243 25 193.5 67.5 Q144 110 117.5 170.5 Q91 231 91 307 Q91 387 122.5 452 Q154 517 218 563 Q282 609 379 634 Q476 659 606 659 L773 659 L773 729 Q773 802 728 841 Q683 880 586 880 Q505 880 456.5 847.5 Q408 815 408 753 L116 753 Z M773 487 L623 487 Q555 487 509 473.5 Q463 460 435 437.5 Q407 415 395 384.5 Q383 354 383 320 Q383 293 389.5 272 Q396 251 412.5 236.5 Q429 222 456.5 214.5 Q484 207 525 207 Q569 207 607.5 215.5 Q646 224 678.5 237.5 Q711 251 735 268 Q759 285 773 303 L773 487 Z " />
<g transform="translate(341,0)" >
<path fill="black" d="M338 1536 L665 1536 L359 1225 L120 1225 L338 1536 Z " />
</g>
</glyph>
<glyph glyph-name="acircumflex" unicode="&#xe2;" horiz-adv-x="1199" >
<path fill="black" d="M116 753 Q116 827 150.5 890.5 Q185 954 249 1001 Q313 1048 402.5 1075 Q492 1102 603 1102 Q704 1102 789 1079 Q874 1056 935.5 1009.5 Q997 963 1031.5 892.5 Q1066 822 1066 727 L1066 268 Q1066 219 1069 181 Q1072 143 1077.5 113.5 Q1083 84 1091.5 60.5 Q1100 37 1111 17 L1111 0 L815 0 Q797 37 788 91 Q734 43 654.5 11.5 Q575 -20 470 -20 Q383 -20 313 2.5 Q243 25 193.5 67.5 Q144 110 117.5 170.5 Q91 231 91 307 Q91 387 122.5 452 Q154 517 218 563 Q282 609 379 634 Q476 659 606 659 L773 659 L773 729 Q773 802 728 841 Q683 880 586 880 Q505 880 456.5 847.5 Q408 815 408 753 L116 753 Z M773 487 L623 487 Q555 487 509 473.5 Q463 460 435 437.5 Q407 415 395 384.5 Q383 354 383 320 Q383 293 389.5 272 Q396 251 412.5 236.5 Q429 222 456.5 214.5 Q484 207 525 207 Q569 207 607.5 215.5 Q646 224 678.5 237.5 Q711 251 735 268 Q759 285 773 303 L773 487 Z " />
<g transform="translate(63,0)" >
<path fill="black" d="M152 1260 L459 1536 L629 1536 L939 1257 L939 1244 L707 1244 L544 1385 L382 1244 L152 1244 L152 1260 Z " />
</g>
</glyph>
<glyph glyph-name="atilde" unicode="&#xe3;" horiz-adv-x="1199" >
<path fill="black" d="M116 753 Q116 827 150.5 890.5 Q185 954 249 1001 Q313 1048 402.5 1075 Q492 1102 603 1102 Q704 1102 789 1079 Q874 1056 935.5 1009.5 Q997 963 1031.5 892.5 Q1066 822 1066 727 L1066 268 Q1066 219 1069 181 Q1072 143 1077.5 113.5 Q1083 84 1091.5 60.5 Q1100 37 1111 17 L1111 0 L815 0 Q797 37 788 91 Q734 43 654.5 11.5 Q575 -20 470 -20 Q383 -20 313 2.5 Q243 25 193.5 67.5 Q144 110 117.5 170.5 Q91 231 91 307 Q91 387 122.5 452 Q154 517 218 563 Q282 609 379 634 Q476 659 606 659 L773 659 L773 729 Q773 802 728 841 Q683 880 586 880 Q505 880 456.5 847.5 Q408 815 408 753 L116 753 Z M773 487 L623 487 Q555 487 509 473.5 Q463 460 435 437.5 Q407 415 395 384.5 Q383 354 383 320 Q383 293 389.5 272 Q396 251 412.5 236.5 Q429 222 456.5 214.5 Q484 207 525 207 Q569 207 607.5 215.5 Q646 224 678.5 237.5 Q711 251 735 268 Q759 285 773 303 L773 487 Z " />
<g transform="translate(69,-4)" >
<path fill="black" d="M136 1262 Q136 1315 154.5 1363.5 Q173 1412 205 1449 Q237 1486 282 1508 Q327 1530 379 1530 Q422 1530 458 1516.5 Q494 1503 528 1487.5 Q562 1472 596.5 1458.5 Q631 1445 672 1445 Q711 1445 738.5 1468 Q766 1491 766 1538 L938 1527 Q938 1473 920 1424.5 Q902 1376 869.5 1339.5 Q837 1303 792.5 1281.5 Q748 1260 695 1260 Q643 1260 606.5 1273.5 Q570 1287 539 1303 Q508 1319 476.5 1332.5 Q445 1346 402 1346 Q364 1346 337 1322.5 Q310 1299 310 1253 L136 1262 Z " />
</g>
</glyph>
<glyph glyph-name="adieresis" unicode="&#xe4;" horiz-adv-x="1199" >
<g transform="translate(92,0)" >
<path fill="black" d="M104 1367 Q104 1394 114.5 1417.5 Q125 1441 144 1458 Q163 1475 190 1485 Q217 1495 250 1495 Q283 1495 310 1485 Q337 1475 356.5 1458 Q376 1441 386.5 1417.5 Q397 1394 397 1367 Q397 1340 386.5 1316.5 Q376 1293 356.5 1276 Q337 1259 310 1249 Q283 1239 250 1239 Q217 1239 190 1249 Q163 1259 144 1276 Q125 1293 114.5 1316.5 Q104 1340 104 1367 Z M628 1367 Q628 1394 638.5 1417.5 Q649 1441 668 1458 Q687 1475 714 1485 Q741 1495 774 1495 Q807 1495 834 1485 Q861 1475 880.5 1458 Q900 1441 910.5 1417.5 Q921 1394 921 1367 Q921 1340 910.5 1316.5 Q900 1293 880.5 1276 Q861 1259 834 1249 Q807 1239 774 1239 Q741 1239 714 1249 Q687 1259 668 1276 Q649 1293 638.5 1316.5 Q628 1340 628 1367 Z " />
</g>
<path fill="black" d="M116 753 Q116 827 150.5 890.5 Q185 954 249 1001 Q313 1048 402.5 1075 Q492 1102 603 1102 Q704 1102 789 1079 Q874 1056 935.5 1009.5 Q997 963 1031.5 892.5 Q1066 822 1066 727 L1066 268 Q1066 219 1069 181 Q1072 143 1077.5 113.5 Q1083 84 1091.5 60.5 Q1100 37 1111 17 L1111 0 L815 0 Q797 37 788 91 Q734 43 654.5 11.5 Q575 -20 470 -20 Q383 -20 313 2.5 Q243 25 193.5 67.5 Q144 110 117.5 170.5 Q91 231 91 307 Q91 387 122.5 452 Q154 517 218 563 Q282 609 379 634 Q476 659 606 659 L773 659 L773 729 Q773 802 728 841 Q683 880 586 880 Q505 880 456.5 847.5 Q408 815 408 753 L116 753 Z M773 487 L623 487 Q555 487 509 473.5 Q463 460 435 437.5 Q407 415 395 384.5 Q383 354 383 320 Q383 293 389.5 272 Q396 251 412.5 236.5 Q429 222 456.5 214.5 Q484 207 525 207 Q569 207 607.5 215.5 Q646 224 678.5 237.5 Q711 251 735 268 Q759 285 773 303 L773 487 Z " />
</glyph>
<glyph glyph-name="aring" unicode="&#xe5;" horiz-adv-x="1199" >
<path fill="black" d="M116 753 Q116 827 150.5 890.5 Q185 954 249 1001 Q313 1048 402.5 1075 Q492 1102 603 1102 Q704 1102 789 1079 Q874 1056 935.5 1009.5 Q997 963 1031.5 892.5 Q1066 822 1066 727 L1066 268 Q1066 219 1069 181 Q1072 143 1077.5 113.5 Q1083 84 1091.5 60.5 Q1100 37 1111 17 L1111 0 L815 0 Q797 37 788 91 Q734 43 654.5 11.5 Q575 -20 470 -20 Q383 -20 313 2.5 Q243 25 193.5 67.5 Q144 110 117.5 170.5 Q91 231 91 307 Q91 387 122.5 452 Q154 517 218 563 Q282 609 379 634 Q476 659 606 659 L773 659 L773 729 Q773 802 728 841 Q683 880 586 880 Q505 880 456.5 847.5 Q408 815 408 753 L116 753 Z M773 487 L623 487 Q555 487 509 473.5 Q463 460 435 437.5 Q407 415 395 384.5 Q383 354 383 320 Q383 293 389.5 272 Q396 251 412.5 236.5 Q429 222 456.5 214.5 Q484 207 525 207 Q569 207 607.5 215.5 Q646 224 678.5 237.5 Q711 251 735 268 Q759 285 773 303 L773 487 Z " />
<g transform="translate(227,109)" >
<path fill="black" d="M136 1309 Q136 1350 154.5 1387 Q173 1424 206 1452 Q239 1480 284 1496 Q329 1512 382 1512 Q435 1512 480 1496 Q525 1480 557.5 1452 Q590 1424 608.5 1387 Q627 1350 627 1309 Q627 1268 608.5 1231.5 Q590 1195 557.5 1168 Q525 1141 480 1125.5 Q435 1110 382 1110 Q329 1110 284 1125.5 Q239 1141 206 1168 Q173 1195 154.5 1231.5 Q136 1268 136 1309 Z M261 1309 Q261 1265 294 1234.5 Q327 1204 382 1204 Q437 1204 470 1234 Q503 1264 503 1309 Q503 1354 470 1385.5 Q437 1417 382 1417 Q327 1417 294 1385.5 Q261 1354 261 1309 Z " />
</g>
</glyph>
<glyph glyph-name="ae" unicode="&#xe6;" horiz-adv-x="1872" d="M115 762 Q115 836 150.5 898.5 Q186 961 251 1006 Q316 1051 408 1076.5 Q500 1102 612 1102 Q726 1102 816 1072.5 Q906 1043 967 983 Q1033 1040 1121.5 1071 Q1210 1102 1319 1102 Q1435 1102 1525.5 1068 Q1616 1034 1678.5 970.5 Q1741 907 1773.5 817 Q1806 727 1806 614 L1806 445 L1077 445 Q1083 397 1103.5 356 Q1124 315 1161 285.5 Q1198 256 1251 239.5 Q1304 223 1376 223 Q1435 223 1481 229 Q1527 235 1565 244.5 Q1603 254 1635.5 267.5 Q1668 281 1698 296 L1779 101 Q1754 79 1713.5 57.5 Q1673 36 1618.5 18.5 Q1564 1 1496.5 -9.5 Q1429 -20 1351 -20 Q1211 -20 1106 19.5 Q1001 59 930 131 Q901 102 859.5 74.5 Q818 47 764.5 26 Q711 5 644.5 -7.5 Q578 -20 498 -20 Q397 -20 319 4 Q241 28 188 72.5 Q135 117 107.5 180 Q80 243 80 321 Q80 480 212 566.5 Q344 653 601 653 L789 653 L789 704 Q789 776 743 817.5 Q697 859 610 859 Q514 859 461 825.5 Q408 792 408 743 L115 762 Z M789 459 L605 459 Q548 459 504 447 Q460 435 431 415.5 Q402 396 387 370.5 Q372 345 372 317 Q372 263 416 231 Q460 199 555 199 Q586 199 618 205 Q650 211 681 221 Q712 231 739.5 245 Q767 259 789 274 L789 459 Z M1518 645 L1518 672 Q1518 758 1472 808.5 Q1426 859 1319 859 Q1265 859 1224 843.5 Q1183 828 1153.5 799.5 Q1124 771 1106 732 Q1088 693 1080 645 L1518 645 Z " />
<glyph glyph-name="ccedilla" unicode="&#xe7;" horiz-adv-x="1164" d="M485 -294 Q541 -294 578 -275.5 Q615 -257 615 -213 Q615 -173 578.5 -157.5 Q542 -142 458 -137 L488 -9 Q386 9 310 55 Q234 101 183.5 170 Q133 239 108 327.5 Q83 416 83 519 L83 562 Q83 681 116 780 Q149 879 215.5 950.5 Q282 1022 382 1062 Q482 1102 616 1102 Q724 1102 812.5 1073.5 Q901 1045 964 990.5 Q1027 936 1062 856.5 Q1097 777 1099 674 L824 674 Q820 756 767.5 807.5 Q715 859 609 859 Q538 859 492.5 836 Q447 813 421 773 Q395 733 385.5 678.5 Q376 624 376 562 L376 519 Q376 455 385.5 400.5 Q395 346 421 306.5 Q447 267 493 245 Q539 223 612 223 Q706 223 763 262.5 Q820 302 824 380 L1099 380 Q1098 299 1067 231.5 Q1036 164 983.5 113 Q931 62 859.5 29.5 Q788 -3 704 -14 L696 -53 Q726 -58 755 -69.5 Q784 -81 806.5 -101.5 Q829 -122 843 -152.5 Q857 -183 857 -226 Q857 -280 834 -325 Q811 -370 765 -401.5 Q719 -433 650.5 -450.5 Q582 -468 492 -468 L485 -294 Z " />
<glyph glyph-name="egrave" unicode="&#xe8;" horiz-adv-x="1201" >
<path fill="black" d="M90 553 Q90 685 127.5 787.5 Q165 890 236.5 960 Q308 1030 410.5 1066 Q513 1102 642 1102 Q760 1102 851.5 1067.5 Q943 1033 1006 967 Q1069 901 1101.5 804.5 Q1134 708 1134 584 L1134 451 L385 451 Q399 336 474.5 279.5 Q550 223 682 223 Q767 223 840.5 249 Q914 275 966 334 L1112 161 Q1084 127 1041 94 Q998 61 942 36 Q886 11 815.5 -4.5 Q745 -20 661 -20 Q526 -20 420 12.5 Q314 45 240.5 110 Q167 175 128.5 272 Q90 369 90 497 L90 553 Z M844 645 L844 671 Q844 714 832 749.5 Q820 785 795.5 811 Q771 837 733 851.5 Q695 866 643 866 Q529 866 467.5 807.5 Q406 749 389 645 L844 645 Z " />
<g transform="translate(142,1)" >
<path fill="black" d="M359 1225 L56 1536 L383 1536 L601 1225 L359 1225 Z " />
</g>
</glyph>
<glyph glyph-name="eacute" unicode="&#xe9;" horiz-adv-x="1201" >
<path fill="black" d="M90 553 Q90 685 127.5 787.5 Q165 890 236.5 960 Q308 1030 410.5 1066 Q513 1102 642 1102 Q760 1102 851.5 1067.5 Q943 1033 1006 967 Q1069 901 1101.5 804.5 Q1134 708 1134 584 L1134 451 L385 451 Q399 336 474.5 279.5 Q550 223 682 223 Q767 223 840.5 249 Q914 275 966 334 L1112 161 Q1084 127 1041 94 Q998 61 942 36 Q886 11 815.5 -4.5 Q745 -20 661 -20 Q526 -20 420 12.5 Q314 45 240.5 110 Q167 175 128.5 272 Q90 369 90 497 L90 553 Z M844 645 L844 671 Q844 714 832 749.5 Q820 785 795.5 811 Q771 837 733 851.5 Q695 866 643 866 Q529 866 467.5 807.5 Q406 749 389 645 L844 645 Z " />
<g transform="translate(331,1)" >
<path fill="black" d="M338 1536 L665 1536 L359 1225 L120 1225 L338 1536 Z " />
</g>
</glyph>
<glyph glyph-name="ecircumflex" unicode="&#xea;" horiz-adv-x="1201" >
<path fill="black" d="M90 553 Q90 685 127.5 787.5 Q165 890 236.5 960 Q308 1030 410.5 1066 Q513 1102 642 1102 Q760 1102 851.5 1067.5 Q943 1033 1006 967 Q1069 901 1101.5 804.5 Q1134 708 1134 584 L1134 451 L385 451 Q399 336 474.5 279.5 Q550 223 682 223 Q767 223 840.5 249 Q914 275 966 334 L1112 161 Q1084 127 1041 94 Q998 61 942 36 Q886 11 815.5 -4.5 Q745 -20 661 -20 Q526 -20 420 12.5 Q314 45 240.5 110 Q167 175 128.5 272 Q90 369 90 497 L90 553 Z M844 645 L844 671 Q844 714 832 749.5 Q820 785 795.5 811 Q771 837 733 851.5 Q695 866 643 866 Q529 866 467.5 807.5 Q406 749 389 645 L844 645 Z " />
<g transform="translate(53,1)" >
<path fill="black" d="M152 1260 L459 1536 L629 1536 L939 1257 L939 1244 L707 1244 L544 1385 L382 1244 L152 1244 L152 1260 Z " />
</g>
</glyph>
<glyph glyph-name="edieresis" unicode="&#xeb;" horiz-adv-x="1201" >
<g transform="translate(82,1)" >
<path fill="black" d="M104 1367 Q104 1394 114.5 1417.5 Q125 1441 144 1458 Q163 1475 190 1485 Q217 1495 250 1495 Q283 1495 310 1485 Q337 1475 356.5 1458 Q376 1441 386.5 1417.5 Q397 1394 397 1367 Q397 1340 386.5 1316.5 Q376 1293 356.5 1276 Q337 1259 310 1249 Q283 1239 250 1239 Q217 1239 190 1249 Q163 1259 144 1276 Q125 1293 114.5 1316.5 Q104 1340 104 1367 Z M628 1367 Q628 1394 638.5 1417.5 Q649 1441 668 1458 Q687 1475 714 1485 Q741 1495 774 1495 Q807 1495 834 1485 Q861 1475 880.5 1458 Q900 1441 910.5 1417.5 Q921 1394 921 1367 Q921 1340 910.5 1316.5 Q900 1293 880.5 1276 Q861 1259 834 1249 Q807 1239 774 1239 Q741 1239 714 1249 Q687 1259 668 1276 Q649 1293 638.5 1316.5 Q628 1340 628 1367 Z " />
</g>
<path fill="black" d="M90 553 Q90 685 127.5 787.5 Q165 890 236.5 960 Q308 1030 410.5 1066 Q513 1102 642 1102 Q760 1102 851.5 1067.5 Q943 1033 1006 967 Q1069 901 1101.5 804.5 Q1134 708 1134 584 L1134 451 L385 451 Q399 336 474.5 279.5 Q550 223 682 223 Q767 223 840.5 249 Q914 275 966 334 L1112 161 Q1084 127 1041 94 Q998 61 942 36 Q886 11 815.5 -4.5 Q745 -20 661 -20 Q526 -20 420 12.5 Q314 45 240.5 110 Q167 175 128.5 272 Q90 369 90 497 L90 553 Z M844 645 L844 671 Q844 714 832 749.5 Q820 785 795.5 811 Q771 837 733 851.5 Q695 866 643 866 Q529 866 467.5 807.5 Q406 749 389 645 L844 645 Z " />
</glyph>
<glyph glyph-name="igrave" unicode="&#xec;" horiz-adv-x="608" >
<path fill="black" d="M154 0 L154 1082 L447 1082 L447 0 L154 0 Z " />
<g transform="translate(-152,-19)" >
<path fill="black" d="M359 1225 L56 1536 L383 1536 L601 1225 L359 1225 Z " />
</g>
</glyph>
<glyph glyph-name="iacute" unicode="&#xed;" horiz-adv-x="608" >
<path fill="black" d="M154 0 L154 1082 L447 1082 L447 0 L154 0 Z " />
<g transform="translate(37,-19)" >
<path fill="black" d="M338 1536 L665 1536 L359 1225 L120 1225 L338 1536 Z " />
</g>
</glyph>
<glyph glyph-name="icircumflex" unicode="&#xee;" horiz-adv-x="608" >
<path fill="black" d="M154 0 L154 1082 L447 1082 L447 0 L154 0 Z " />
<g transform="translate(-241,-19)" >
<path fill="black" d="M152 1260 L459 1536 L629 1536 L939 1257 L939 1244 L707 1244 L544 1385 L382 1244 L152 1244 L152 1260 Z " />
</g>
</glyph>
<glyph glyph-name="idieresis" unicode="&#xef;" horiz-adv-x="608" >
<g transform="translate(-212,-19)" >
<path fill="black" d="M104 1367 Q104 1394 114.5 1417.5 Q125 1441 144 1458 Q163 1475 190 1485 Q217 1495 250 1495 Q283 1495 310 1485 Q337 1475 356.5 1458 Q376 1441 386.5 1417.5 Q397 1394 397 1367 Q397 1340 386.5 1316.5 Q376 1293 356.5 1276 Q337 1259 310 1249 Q283 1239 250 1239 Q217 1239 190 1249 Q163 1259 144 1276 Q125 1293 114.5 1316.5 Q104 1340 104 1367 Z M628 1367 Q628 1394 638.5 1417.5 Q649 1441 668 1458 Q687 1475 714 1485 Q741 1495 774 1495 Q807 1495 834 1485 Q861 1475 880.5 1458 Q900 1441 910.5 1417.5 Q921 1394 921 1367 Q921 1340 910.5 1316.5 Q900 1293 880.5 1276 Q861 1259 834 1249 Q807 1239 774 1239 Q741 1239 714 1249 Q687 1259 668 1276 Q649 1293 638.5 1316.5 Q628 1340 628 1367 Z " />
</g>
<path fill="black" d="M154 0 L154 1082 L447 1082 L447 0 L154 0 Z " />
</glyph>
<glyph glyph-name="eth" unicode="&#xf0;" horiz-adv-x="1287" d="M379 1149 L541 1244 Q475 1280 404 1306.5 Q333 1333 258 1350 L350 1579 Q478 1554 591 1508 Q704 1462 800 1396 L985 1505 L1070 1390 L918 1301 Q1046 1178 1117 1015.5 Q1188 853 1188 652 L1188 585 Q1188 450 1147 339 Q1106 228 1032.5 148 Q959 68 859 24 Q759 -20 640 -20 Q521 -20 422 18 Q323 56 252.5 122 Q182 188 143 277 Q104 366 104 468 Q104 580 138 671 Q172 762 235.5 827 Q299 892 389.5 927.5 Q480 963 592 963 Q669 963 736 943 Q803 923 858 886 Q829 969 781 1035.5 Q733 1102 670 1156 L465 1035 L379 1149 Z M895 653 Q866 687 807.5 711.5 Q749 736 659 736 Q532 736 464.5 664 Q397 592 397 468 Q397 417 413.5 372 Q430 327 461.5 294 Q493 261 539 242 Q585 223 644 223 Q705 223 751.5 248 Q798 273 830 316.5 Q862 360 878.5 420.5 Q895 481 895 551 L895 653 Z " />
<glyph glyph-name="ntilde" unicode="&#xf1;" horiz-adv-x="1245" >
<path fill="black" d="M127 1082 L403 1082 L411 964 Q472 1031 557 1066.5 Q642 1102 746 1102 Q829 1102 897.5 1080.5 Q966 1059 1014.5 1009.5 Q1063 960 1089.5 880.5 Q1116 801 1116 685 L1116 0 L822 0 L822 686 Q822 737 809.5 770.5 Q797 804 773 823.5 Q749 843 713.5 851 Q678 859 631 859 Q558 859 504.5 830 Q451 801 419 752 L419 0 L127 0 L127 1082 Z " />
<g transform="translate(87,-4)" >
<path fill="black" d="M136 1262 Q136 1315 154.5 1363.5 Q173 1412 205 1449 Q237 1486 282 1508 Q327 1530 379 1530 Q422 1530 458 1516.5 Q494 1503 528 1487.5 Q562 1472 596.5 1458.5 Q631 1445 672 1445 Q711 1445 738.5 1468 Q766 1491 766 1538 L938 1527 Q938 1473 920 1424.5 Q902 1376 869.5 1339.5 Q837 1303 792.5 1281.5 Q748 1260 695 1260 Q643 1260 606.5 1273.5 Q570 1287 539 1303 Q508 1319 476.5 1332.5 Q445 1346 402 1346 Q364 1346 337 1322.5 Q310 1299 310 1253 L136 1262 Z " />
</g>
</glyph>
<glyph glyph-name="ograve" unicode="&#xf2;" horiz-adv-x="1264" >
<path fill="black" d="M84 560 Q84 681 121 780.5 Q158 880 228.5 951.5 Q299 1023 400 1062.5 Q501 1102 630 1102 Q760 1102 862 1062.5 Q964 1023 1034.5 951.5 Q1105 880 1142 780.5 Q1179 681 1179 560 L1179 521 Q1179 400 1142 300.5 Q1105 201 1035 130 Q965 59 863 19.5 Q761 -20 632 -20 Q503 -20 401 19.5 Q299 59 228.5 130 Q158 201 121 300.5 Q84 400 84 521 L84 560 Z M376 521 Q376 455 391 400 Q406 345 437 305.5 Q468 266 516.5 244.5 Q565 223 632 223 Q699 223 747 244.5 Q795 266 826 305.5 Q857 345 871.5 400 Q886 455 886 521 L886 560 Q886 625 871.5 679.5 Q857 734 825.5 774 Q794 814 746 836.5 Q698 859 630 859 Q564 859 516 836.5 Q468 814 437 774 Q406 734 391 679.5 Q376 625 376 560 L376 521 Z " />
<g transform="translate(171,0)" >
<path fill="black" d="M359 1225 L56 1536 L383 1536 L601 1225 L359 1225 Z " />
</g>
</glyph>
<glyph glyph-name="oacute" unicode="&#xf3;" horiz-adv-x="1264" >
<path fill="black" d="M84 560 Q84 681 121 780.5 Q158 880 228.5 951.5 Q299 1023 400 1062.5 Q501 1102 630 1102 Q760 1102 862 1062.5 Q964 1023 1034.5 951.5 Q1105 880 1142 780.5 Q1179 681 1179 560 L1179 521 Q1179 400 1142 300.5 Q1105 201 1035 130 Q965 59 863 19.5 Q761 -20 632 -20 Q503 -20 401 19.5 Q299 59 228.5 130 Q158 201 121 300.5 Q84 400 84 521 L84 560 Z M376 521 Q376 455 391 400 Q406 345 437 305.5 Q468 266 516.5 244.5 Q565 223 632 223 Q699 223 747 244.5 Q795 266 826 305.5 Q857 345 871.5 400 Q886 455 886 521 L886 560 Q886 625 871.5 679.5 Q857 734 825.5 774 Q794 814 746 836.5 Q698 859 630 859 Q564 859 516 836.5 Q468 814 437 774 Q406 734 391 679.5 Q376 625 376 560 L376 521 Z " />
<g transform="translate(360,0)" >
<path fill="black" d="M338 1536 L665 1536 L359 1225 L120 1225 L338 1536 Z " />
</g>
</glyph>
<glyph glyph-name="ocircumflex" unicode="&#xf4;" horiz-adv-x="1264" >
<path fill="black" d="M84 560 Q84 681 121 780.5 Q158 880 228.5 951.5 Q299 1023 400 1062.5 Q501 1102 630 1102 Q760 1102 862 1062.5 Q964 1023 1034.5 951.5 Q1105 880 1142 780.5 Q1179 681 1179 560 L1179 521 Q1179 400 1142 300.5 Q1105 201 1035 130 Q965 59 863 19.5 Q761 -20 632 -20 Q503 -20 401 19.5 Q299 59 228.5 130 Q158 201 121 300.5 Q84 400 84 521 L84 560 Z M376 521 Q376 455 391 400 Q406 345 437 305.5 Q468 266 516.5 244.5 Q565 223 632 223 Q699 223 747 244.5 Q795 266 826 305.5 Q857 345 871.5 400 Q886 455 886 521 L886 560 Q886 625 871.5 679.5 Q857 734 825.5 774 Q794 814 746 836.5 Q698 859 630 859 Q564 859 516 836.5 Q468 814 437 774 Q406 734 391 679.5 Q376 625 376 560 L376 521 Z " />
<g transform="translate(82,0)" >
<path fill="black" d="M152 1260 L459 1536 L629 1536 L939 1257 L939 1244 L707 1244 L544 1385 L382 1244 L152 1244 L152 1260 Z " />
</g>
</glyph>
<glyph glyph-name="otilde" unicode="&#xf5;" horiz-adv-x="1264" >
<path fill="black" d="M84 560 Q84 681 121 780.5 Q158 880 228.5 951.5 Q299 1023 400 1062.5 Q501 1102 630 1102 Q760 1102 862 1062.5 Q964 1023 1034.5 951.5 Q1105 880 1142 780.5 Q1179 681 1179 560 L1179 521 Q1179 400 1142 300.5 Q1105 201 1035 130 Q965 59 863 19.5 Q761 -20 632 -20 Q503 -20 401 19.5 Q299 59 228.5 130 Q158 201 121 300.5 Q84 400 84 521 L84 560 Z M376 521 Q376 455 391 400 Q406 345 437 305.5 Q468 266 516.5 244.5 Q565 223 632 223 Q699 223 747 244.5 Q795 266 826 305.5 Q857 345 871.5 400 Q886 455 886 521 L886 560 Q886 625 871.5 679.5 Q857 734 825.5 774 Q794 814 746 836.5 Q698 859 630 859 Q564 859 516 836.5 Q468 814 437 774 Q406 734 391 679.5 Q376 625 376 560 L376 521 Z " />
<g transform="translate(88,-4)" >
<path fill="black" d="M136 1262 Q136 1315 154.5 1363.5 Q173 1412 205 1449 Q237 1486 282 1508 Q327 1530 379 1530 Q422 1530 458 1516.5 Q494 1503 528 1487.5 Q562 1472 596.5 1458.5 Q631 1445 672 1445 Q711 1445 738.5 1468 Q766 1491 766 1538 L938 1527 Q938 1473 920 1424.5 Q902 1376 869.5 1339.5 Q837 1303 792.5 1281.5 Q748 1260 695 1260 Q643 1260 606.5 1273.5 Q570 1287 539 1303 Q508 1319 476.5 1332.5 Q445 1346 402 1346 Q364 1346 337 1322.5 Q310 1299 310 1253 L136 1262 Z " />
</g>
</glyph>
<glyph glyph-name="odieresis" unicode="&#xf6;" horiz-adv-x="1264" >
<g transform="translate(111,0)" >
<path fill="black" d="M104 1367 Q104 1394 114.5 1417.5 Q125 1441 144 1458 Q163 1475 190 1485 Q217 1495 250 1495 Q283 1495 310 1485 Q337 1475 356.5 1458 Q376 1441 386.5 1417.5 Q397 1394 397 1367 Q397 1340 386.5 1316.5 Q376 1293 356.5 1276 Q337 1259 310 1249 Q283 1239 250 1239 Q217 1239 190 1249 Q163 1259 144 1276 Q125 1293 114.5 1316.5 Q104 1340 104 1367 Z M628 1367 Q628 1394 638.5 1417.5 Q649 1441 668 1458 Q687 1475 714 1485 Q741 1495 774 1495 Q807 1495 834 1485 Q861 1475 880.5 1458 Q900 1441 910.5 1417.5 Q921 1394 921 1367 Q921 1340 910.5 1316.5 Q900 1293 880.5 1276 Q861 1259 834 1249 Q807 1239 774 1239 Q741 1239 714 1249 Q687 1259 668 1276 Q649 1293 638.5 1316.5 Q628 1340 628 1367 Z " />
</g>
<path fill="black" d="M84 560 Q84 681 121 780.5 Q158 880 228.5 951.5 Q299 1023 400 1062.5 Q501 1102 630 1102 Q760 1102 862 1062.5 Q964 1023 1034.5 951.5 Q1105 880 1142 780.5 Q1179 681 1179 560 L1179 521 Q1179 400 1142 300.5 Q1105 201 1035 130 Q965 59 863 19.5 Q761 -20 632 -20 Q503 -20 401 19.5 Q299 59 228.5 130 Q158 201 121 300.5 Q84 400 84 521 L84 560 Z M376 521 Q376 455 391 400 Q406 345 437 305.5 Q468 266 516.5 244.5 Q565 223 632 223 Q699 223 747 244.5 Q795 266 826 305.5 Q857 345 871.5 400 Q886 455 886 521 L886 560 Q886 625 871.5 679.5 Q857 734 825.5 774 Q794 814 746 836.5 Q698 859 630 859 Q564 859 516 836.5 Q468 814 437 774 Q406 734 391 679.5 Q376 625 376 560 L376 521 Z " />
</glyph>
<glyph glyph-name="divide" unicode="&#xf7;" horiz-adv-x="1270" d="M76 570 L76 803 L1175 803 L1175 570 L76 570 Z M461 282 Q461 316 472.5 345 Q484 374 505 395.5 Q526 417 556.5 429 Q587 441 625 441 Q663 441 693.5 429 Q724 417 745.5 395.5 Q767 374 778.5 345 Q790 316 790 282 Q790 248 778.5 219 Q767 190 745.5 168.5 Q724 147 693.5 135 Q663 123 625 123 Q587 123 556.5 135 Q526 147 505 168.5 Q484 190 472.5 219 Q461 248 461 282 Z M461 1091 Q461 1125 472.5 1154 Q484 1183 505 1204.5 Q526 1226 556.5 1238 Q587 1250 625 1250 Q663 1250 693.5 1238 Q724 1226 745.5 1204.5 Q767 1183 778.5 1154 Q790 1125 790 1091 Q790 1057 778.5 1028 Q767 999 745.5 977.5 Q724 956 693.5 944 Q663 932 625 932 Q587 932 556.5 944 Q526 956 505 977.5 Q484 999 472.5 1028 Q461 1057 461 1091 Z " />
<glyph glyph-name="oslash" unicode="&#xf8;" horiz-adv-x="1121" d="M306 68 Q199 138 142.5 254 Q86 370 86 521 L86 560 Q86 681 123 780.5 Q160 880 230.5 951.5 Q301 1023 402 1062.5 Q503 1102 632 1102 Q741 1102 833 1073 L909 1218 L1076 1218 L967 1010 Q1071 939 1126 824 Q1181 709 1181 560 L1181 521 Q1181 400 1144 300.5 Q1107 201 1037 130 Q967 59 865 19.5 Q763 -20 634 -20 Q531 -20 442 6 L363 -144 L195 -144 L306 68 Z M715 848 Q676 859 632 859 Q566 859 518 836.5 Q470 814 439 774 Q408 734 393 679.5 Q378 625 378 560 L378 521 Q378 457 391.5 404 Q405 351 434 312 L715 848 Z M559 231 Q596 223 634 223 Q701 223 749 244.5 Q797 266 828 305.5 Q859 345 873.5 400 Q888 455 888 521 L888 560 Q888 620 875.5 671 Q863 722 837 761 L559 231 Z " />
<glyph glyph-name="ugrave" unicode="&#xf9;" horiz-adv-x="1242" >
<path fill="black" d="M124 1082 L417 1082 L417 381 Q417 340 430.5 310 Q444 280 467 261 Q490 242 521 233 Q552 224 588 224 Q679 224 735.5 251 Q792 278 821 325 L821 1082 L1114 1082 L1114 0 L839 0 L832 107 Q778 47 698 13.5 Q618 -20 510 -20 Q424 -20 353 2.5 Q282 25 231 74 Q180 123 152 199 Q124 275 124 383 L124 1082 Z " />
<g transform="translate(165,0)" >
<path fill="black" d="M359 1225 L56 1536 L383 1536 L601 1225 L359 1225 Z " />
</g>
</glyph>
<glyph glyph-name="uacute" unicode="&#xfa;" horiz-adv-x="1242" >
<path fill="black" d="M124 1082 L417 1082 L417 381 Q417 340 430.5 310 Q444 280 467 261 Q490 242 521 233 Q552 224 588 224 Q679 224 735.5 251 Q792 278 821 325 L821 1082 L1114 1082 L1114 0 L839 0 L832 107 Q778 47 698 13.5 Q618 -20 510 -20 Q424 -20 353 2.5 Q282 25 231 74 Q180 123 152 199 Q124 275 124 383 L124 1082 Z " />
<g transform="translate(354,0)" >
<path fill="black" d="M338 1536 L665 1536 L359 1225 L120 1225 L338 1536 Z " />
</g>
</glyph>
<glyph glyph-name="ucircumflex" unicode="&#xfb;" horiz-adv-x="1242" >
<path fill="black" d="M124 1082 L417 1082 L417 381 Q417 340 430.5 310 Q444 280 467 261 Q490 242 521 233 Q552 224 588 224 Q679 224 735.5 251 Q792 278 821 325 L821 1082 L1114 1082 L1114 0 L839 0 L832 107 Q778 47 698 13.5 Q618 -20 510 -20 Q424 -20 353 2.5 Q282 25 231 74 Q180 123 152 199 Q124 275 124 383 L124 1082 Z " />
<g transform="translate(76,0)" >
<path fill="black" d="M152 1260 L459 1536 L629 1536 L939 1257 L939 1244 L707 1244 L544 1385 L382 1244 L152 1244 L152 1260 Z " />
</g>
</glyph>
<glyph glyph-name="udieresis" unicode="&#xfc;" horiz-adv-x="1242" >
<g transform="translate(105,0)" >
<path fill="black" d="M104 1367 Q104 1394 114.5 1417.5 Q125 1441 144 1458 Q163 1475 190 1485 Q217 1495 250 1495 Q283 1495 310 1485 Q337 1475 356.5 1458 Q376 1441 386.5 1417.5 Q397 1394 397 1367 Q397 1340 386.5 1316.5 Q376 1293 356.5 1276 Q337 1259 310 1249 Q283 1239 250 1239 Q217 1239 190 1249 Q163 1259 144 1276 Q125 1293 114.5 1316.5 Q104 1340 104 1367 Z M628 1367 Q628 1394 638.5 1417.5 Q649 1441 668 1458 Q687 1475 714 1485 Q741 1495 774 1495 Q807 1495 834 1485 Q861 1475 880.5 1458 Q900 1441 910.5 1417.5 Q921 1394 921 1367 Q921 1340 910.5 1316.5 Q900 1293 880.5 1276 Q861 1259 834 1249 Q807 1239 774 1239 Q741 1239 714 1249 Q687 1259 668 1276 Q649 1293 638.5 1316.5 Q628 1340 628 1367 Z " />
</g>
<path fill="black" d="M124 1082 L417 1082 L417 381 Q417 340 430.5 310 Q444 280 467 261 Q490 242 521 233 Q552 224 588 224 Q679 224 735.5 251 Q792 278 821 325 L821 1082 L1114 1082 L1114 0 L839 0 L832 107 Q778 47 698 13.5 Q618 -20 510 -20 Q424 -20 353 2.5 Q282 25 231 74 Q180 123 152 199 Q124 275 124 383 L124 1082 Z " />
</glyph>
<glyph glyph-name="yacute" unicode="&#xfd;" horiz-adv-x="1103" >
<path fill="black" d="M124 -192 Q135 -191 148.5 -191.5 Q162 -192 172 -192 Q219 -192 253.5 -185 Q288 -178 313.5 -164 Q339 -150 356.5 -129 Q374 -108 387 -79 L422 -9 L14 1082 L330 1082 L555 343 L776 1082 L1090 1082 L625 -162 Q610 -203 584 -251 Q558 -299 515.5 -340 Q473 -381 410 -409 Q347 -437 257 -437 Q219 -437 187.5 -432.5 Q156 -428 124 -418 L124 -192 Z " />
<g transform="translate(297,0)" >
<path fill="black" d="M338 1536 L665 1536 L359 1225 L120 1225 L338 1536 Z " />
</g>
</glyph>
<glyph glyph-name="thorn" unicode="&#xfe;" horiz-adv-x="1271" d="M136 1536 L430 1536 L430 987 Q484 1042 554.5 1072 Q625 1102 719 1102 Q830 1102 915 1062.5 Q1000 1023 1057.5 951 Q1115 879 1144.5 778 Q1174 677 1174 554 L1174 533 Q1174 415 1144.5 313.5 Q1115 212 1057.5 138 Q1000 64 916 22 Q832 -20 722 -20 Q628 -20 556 11 Q484 42 430 98 L430 -416 L136 -416 L136 1536 Z M430 322 Q461 275 513 249 Q565 223 642 223 Q707 223 752.5 247.5 Q798 272 826.5 314 Q855 356 868.5 412.5 Q882 469 882 533 L882 554 Q882 620 868.5 676 Q855 732 825.5 772.5 Q796 813 750 836 Q704 859 639 859 Q493 859 430 761 L430 322 Z " />
<glyph glyph-name="ydieresis" unicode="&#xff;" horiz-adv-x="1103" >
<g transform="translate(48,0)" >
<path fill="black" d="M104 1367 Q104 1394 114.5 1417.5 Q125 1441 144 1458 Q163 1475 190 1485 Q217 1495 250 1495 Q283 1495 310 1485 Q337 1475 356.5 1458 Q376 1441 386.5 1417.5 Q397 1394 397 1367 Q397 1340 386.5 1316.5 Q376 1293 356.5 1276 Q337 1259 310 1249 Q283 1239 250 1239 Q217 1239 190 1249 Q163 1259 144 1276 Q125 1293 114.5 1316.5 Q104 1340 104 1367 Z M628 1367 Q628 1394 638.5 1417.5 Q649 1441 668 1458 Q687 1475 714 1485 Q741 1495 774 1495 Q807 1495 834 1485 Q861 1475 880.5 1458 Q900 1441 910.5 1417.5 Q921 1394 921 1367 Q921 1340 910.5 1316.5 Q900 1293 880.5 1276 Q861 1259 834 1249 Q807 1239 774 1239 Q741 1239 714 1249 Q687 1259 668 1276 Q649 1293 638.5 1316.5 Q628 1340 628 1367 Z " />
</g>
<path fill="black" d="M124 -192 Q135 -191 148.5 -191.5 Q162 -192 172 -192 Q219 -192 253.5 -185 Q288 -178 313.5 -164 Q339 -150 356.5 -129 Q374 -108 387 -79 L422 -9 L14 1082 L330 1082 L555 343 L776 1082 L1090 1082 L625 -162 Q610 -203 584 -251 Q558 -299 515.5 -340 Q473 -381 410 -409 Q347 -437 257 -437 Q219 -437 187.5 -432.5 Q156 -428 124 -418 L124 -192 Z " />
</glyph>
<glyph glyph-name="Amacron" unicode="&#x100;" horiz-adv-x="1492" d="M606 1456 L884 1456 L1474 0 L1152 0 L1043 288 L449 288 L340 0 L19 0 L606 1456 Z M946 541 L746 1069 L545 541 L946 541 Z M380 1762 L1124 1762 L1124 1595 L380 1595 L380 1762 Z " />
<glyph glyph-name="amacron" unicode="&#x101;" horiz-adv-x="1199" d="M116 753 Q116 827 150.5 890.5 Q185 954 249 1001 Q313 1048 402.5 1075 Q492 1102 603 1102 Q704 1102 789 1079 Q874 1056 935.5 1009.5 Q997 963 1031.5 892.5 Q1066 822 1066 727 L1066 268 Q1066 219 1069 181 Q1072 143 1077.5 113.5 Q1083 84 1091.5 60.5 Q1100 37 1111 17 L1111 0 L815 0 Q797 37 788 91 Q734 43 654.5 11.5 Q575 -20 470 -20 Q383 -20 313 2.5 Q243 25 193.5 67.5 Q144 110 117.5 170.5 Q91 231 91 307 Q91 387 122.5 452 Q154 517 218 563 Q282 609 379 634 Q476 659 606 659 L773 659 L773 729 Q773 802 728 841 Q683 880 586 880 Q505 880 456.5 847.5 Q408 815 408 753 L116 753 Z M238 1452 L982 1452 L982 1285 L238 1285 L238 1452 Z M773 487 L623 487 Q555 487 509 473.5 Q463 460 435 437.5 Q407 415 395 384.5 Q383 354 383 320 Q383 293 389.5 272 Q396 251 412.5 236.5 Q429 222 456.5 214.5 Q484 207 525 207 Q569 207 607.5 215.5 Q646 224 678.5 237.5 Q711 251 735 268 Q759 285 773 303 L773 487 Z " />
<glyph glyph-name="Abreve" unicode="&#x102;" horiz-adv-x="1492" >
<path fill="black" d="M606 1456 L884 1456 L1474 0 L1152 0 L1043 288 L449 288 L340 0 L19 0 L606 1456 Z M946 541 L746 1069 L545 541 L946 541 Z " />
<g transform="translate(253,310)" >
<path fill="black" d="M338 1532 Q338 1507 346.5 1483 Q355 1459 373.5 1441 Q392 1423 422 1412 Q452 1401 495 1401 Q537 1401 566.5 1412 Q596 1423 614.5 1441 Q633 1459 641 1483 Q649 1507 649 1532 L865 1532 Q865 1466 839.5 1410.5 Q814 1355 766 1315 Q718 1275 649.5 1253 Q581 1231 495 1231 Q410 1231 341 1253 Q272 1275 223.5 1315 Q175 1355 149 1410.5 Q123 1466 123 1532 L338 1532 Z " />
</g>
</glyph>
<glyph glyph-name="abreve" unicode="&#x103;" horiz-adv-x="1199" >
<path fill="black" d="M116 753 Q116 827 150.5 890.5 Q185 954 249 1001 Q313 1048 402.5 1075 Q492 1102 603 1102 Q704 1102 789 1079 Q874 1056 935.5 1009.5 Q997 963 1031.5 892.5 Q1066 822 1066 727 L1066 268 Q1066 219 1069 181 Q1072 143 1077.5 113.5 Q1083 84 1091.5 60.5 Q1100 37 1111 17 L1111 0 L815 0 Q797 37 788 91 Q734 43 654.5 11.5 Q575 -20 470 -20 Q383 -20 313 2.5 Q243 25 193.5 67.5 Q144 110 117.5 170.5 Q91 231 91 307 Q91 387 122.5 452 Q154 517 218 563 Q282 609 379 634 Q476 659 606 659 L773 659 L773 729 Q773 802 728 841 Q683 880 586 880 Q505 880 456.5 847.5 Q408 815 408 753 L116 753 Z M773 487 L623 487 Q555 487 509 473.5 Q463 460 435 437.5 Q407 415 395 384.5 Q383 354 383 320 Q383 293 389.5 272 Q396 251 412.5 236.5 Q429 222 456.5 214.5 Q484 207 525 207 Q569 207 607.5 215.5 Q646 224 678.5 237.5 Q711 251 735 268 Q759 285 773 303 L773 487 Z " />
<g transform="translate(111,0)" >
<path fill="black" d="M338 1532 Q338 1507 346.5 1483 Q355 1459 373.5 1441 Q392 1423 422 1412 Q452 1401 495 1401 Q537 1401 566.5 1412 Q596 1423 614.5 1441 Q633 1459 641 1483 Q649 1507 649 1532 L865 1532 Q865 1466 839.5 1410.5 Q814 1355 766 1315 Q718 1275 649.5 1253 Q581 1231 495 1231 Q410 1231 341 1253 Q272 1275 223.5 1315 Q175 1355 149 1410.5 Q123 1466 123 1532 L338 1532 Z " />
</g>
</glyph>
<glyph glyph-name="Aogonek" unicode="&#x104;" horiz-adv-x="1492" d="M606 1456 L884 1456 L1474 0 L1393 0 Q1354 -21 1323 -40.5 Q1292 -60 1270 -80 Q1248 -100 1236 -122 Q1224 -144 1224 -170 Q1224 -197 1240.5 -215.5 Q1257 -234 1297 -234 Q1329 -234 1350.5 -227.5 Q1372 -221 1387 -215 L1415 -375 Q1388 -390 1345 -404.5 Q1302 -419 1236 -419 Q1187 -419 1143.5 -405.5 Q1100 -392 1067.5 -365.5 Q1035 -339 1016.5 -299.5 Q998 -260 998 -209 Q998 -150 1031 -94.5 Q1064 -39 1148 10 L1043 288 L449 288 L340 0 L19 0 L606 1456 Z M946 541 L746 1069 L545 541 L946 541 Z " />
<glyph glyph-name="aogonek" unicode="&#x105;" horiz-adv-x="1199" d="M1083 -375 Q1056 -390 1013 -404.5 Q970 -419 904 -419 Q855 -419 811.5 -405.5 Q768 -392 735.5 -365.5 Q703 -339 684.5 -299.5 Q666 -260 666 -209 Q666 -151 698 -96 Q730 -41 812 8 Q804 25 798.5 46.5 Q793 68 788 91 Q734 43 654.5 11.5 Q575 -20 470 -20 Q383 -20 313 2.5 Q243 25 193.5 67.5 Q144 110 117.5 170.5 Q91 231 91 307 Q91 387 122.5 452 Q154 517 218 563 Q282 609 379 634 Q476 659 606 659 L773 659 L773 729 Q773 802 728 841 Q683 880 586 880 Q505 880 456.5 847.5 Q408 815 408 753 L116 753 Q116 827 150.5 890.5 Q185 954 249 1001 Q313 1048 402.5 1075 Q492 1102 603 1102 Q704 1102 789 1079 Q874 1056 935.5 1009.5 Q997 963 1031.5 892.5 Q1066 822 1066 727 L1066 268 Q1066 219 1069 181 Q1072 143 1077.5 113.5 Q1083 84 1091.5 60.5 Q1100 37 1111 17 L1111 0 L1061 0 Q1022 -21 991 -40.5 Q960 -60 938 -80 Q916 -100 904 -122 Q892 -144 892 -170 Q892 -197 908.5 -215.5 Q925 -234 965 -234 Q997 -234 1018.5 -227.5 Q1040 -221 1055 -215 L1083 -375 Z M773 487 L623 487 Q555 487 509 473.5 Q463 460 435 437.5 Q407 415 395 384.5 Q383 354 383 320 Q383 293 389.5 272 Q396 251 412.5 236.5 Q429 222 456.5 214.5 Q484 207 525 207 Q569 207 607.5 215.5 Q646 224 678.5 237.5 Q711 251 735 268 Q759 285 773 303 L773 487 Z " />
<glyph glyph-name="Cacute" unicode="&#x106;" horiz-adv-x="1453" >
<path fill="black" d="M107 790 Q107 949 152.5 1076.5 Q198 1204 282.5 1293 Q367 1382 487 1429.5 Q607 1477 755 1477 Q900 1477 1010.5 1439.5 Q1121 1402 1197.5 1333.5 Q1274 1265 1317.5 1169.5 Q1361 1074 1372 958 L1068 958 Q1062 1025 1042.5 1074.5 Q1023 1124 986.5 1156.5 Q950 1189 893 1205 Q836 1221 755 1221 Q669 1221 605 1196.5 Q541 1172 498.5 1120 Q456 1068 435 986.5 Q414 905 414 792 L414 666 Q414 554 432.5 472.5 Q451 391 491 338.5 Q531 286 594 261 Q657 236 747 236 Q828 236 885.5 250.5 Q943 265 980.5 295.5 Q1018 326 1039 374 Q1060 422 1067 489 L1371 489 Q1362 373 1317.5 279 Q1273 185 1194.5 118.5 Q1116 52 1004 16 Q892 -20 747 -20 Q599 -20 480.5 27.5 Q362 75 279 163.5 Q196 252 151.5 379 Q107 506 107 666 L107 790 Z " />
<g transform="translate(478,314)" >
<path fill="black" d="M338 1536 L665 1536 L359 1225 L120 1225 L338 1536 Z " />
</g>
</glyph>
<glyph glyph-name="cacute" unicode="&#x107;" horiz-adv-x="1164" >
<path fill="black" d="M83 562 Q83 681 116 780 Q149 879 215.5 950.5 Q282 1022 382 1062 Q482 1102 616 1102 Q724 1102 812.5 1073.5 Q901 1045 964 990.5 Q1027 936 1062 856.5 Q1097 777 1099 674 L824 674 Q820 756 767.5 807.5 Q715 859 609 859 Q538 859 492.5 836 Q447 813 421 773 Q395 733 385.5 678.5 Q376 624 376 562 L376 519 Q376 455 385.5 400.5 Q395 346 421 306.5 Q447 267 493 245 Q539 223 612 223 Q706 223 763 262.5 Q820 302 824 380 L1099 380 Q1097 289 1059 215 Q1021 141 956 89 Q891 37 804.5 8.5 Q718 -20 619 -20 Q484 -20 383 20 Q282 60 215.5 131 Q149 202 116 301.5 Q83 401 83 519 L83 562 Z " />
<g transform="translate(313,0)" >
<path fill="black" d="M338 1536 L665 1536 L359 1225 L120 1225 L338 1536 Z " />
</g>
</glyph>
<glyph glyph-name="Cdotaccent" unicode="&#x10a;" horiz-adv-x="1453" >
<path fill="black" d="M107 790 Q107 949 152.5 1076.5 Q198 1204 282.5 1293 Q367 1382 487 1429.5 Q607 1477 755 1477 Q900 1477 1010.5 1439.5 Q1121 1402 1197.5 1333.5 Q1274 1265 1317.5 1169.5 Q1361 1074 1372 958 L1068 958 Q1062 1025 1042.5 1074.5 Q1023 1124 986.5 1156.5 Q950 1189 893 1205 Q836 1221 755 1221 Q669 1221 605 1196.5 Q541 1172 498.5 1120 Q456 1068 435 986.5 Q414 905 414 792 L414 666 Q414 554 432.5 472.5 Q451 391 491 338.5 Q531 286 594 261 Q657 236 747 236 Q828 236 885.5 250.5 Q943 265 980.5 295.5 Q1018 326 1039 374 Q1060 422 1067 489 L1371 489 Q1362 373 1317.5 279 Q1273 185 1194.5 118.5 Q1116 52 1004 16 Q892 -20 747 -20 Q599 -20 480.5 27.5 Q362 75 279 163.5 Q196 252 151.5 379 Q107 506 107 666 L107 790 Z " />
<g transform="translate(448,334)" >
<path fill="black" d="M139 1378 Q139 1439 180.5 1478.5 Q222 1518 294 1518 Q366 1518 407.5 1478.5 Q449 1439 449 1378 Q449 1317 407.5 1277.5 Q366 1238 294 1238 Q222 1238 180.5 1277.5 Q139 1317 139 1378 Z " />
</g>
</glyph>
<glyph glyph-name="cdotaccent" unicode="&#x10b;" horiz-adv-x="1164" >
<path fill="black" d="M83 562 Q83 681 116 780 Q149 879 215.5 950.5 Q282 1022 382 1062 Q482 1102 616 1102 Q724 1102 812.5 1073.5 Q901 1045 964 990.5 Q1027 936 1062 856.5 Q1097 777 1099 674 L824 674 Q820 756 767.5 807.5 Q715 859 609 859 Q538 859 492.5 836 Q447 813 421 773 Q395 733 385.5 678.5 Q376 624 376 562 L376 519 Q376 455 385.5 400.5 Q395 346 421 306.5 Q447 267 493 245 Q539 223 612 223 Q706 223 763 262.5 Q820 302 824 380 L1099 380 Q1097 289 1059 215 Q1021 141 956 89 Q891 37 804.5 8.5 Q718 -20 619 -20 Q484 -20 383 20 Q282 60 215.5 131 Q149 202 116 301.5 Q83 401 83 519 L83 562 Z " />
<g transform="translate(283,20)" >
<path fill="black" d="M139 1378 Q139 1439 180.5 1478.5 Q222 1518 294 1518 Q366 1518 407.5 1478.5 Q449 1439 449 1378 Q449 1317 407.5 1277.5 Q366 1238 294 1238 Q222 1238 180.5 1277.5 Q139 1317 139 1378 Z " />
</g>
</glyph>
<glyph glyph-name="Ccaron" unicode="&#x10c;" horiz-adv-x="1453" >
<path fill="black" d="M107 790 Q107 949 152.5 1076.5 Q198 1204 282.5 1293 Q367 1382 487 1429.5 Q607 1477 755 1477 Q900 1477 1010.5 1439.5 Q1121 1402 1197.5 1333.5 Q1274 1265 1317.5 1169.5 Q1361 1074 1372 958 L1068 958 Q1062 1025 1042.5 1074.5 Q1023 1124 986.5 1156.5 Q950 1189 893 1205 Q836 1221 755 1221 Q669 1221 605 1196.5 Q541 1172 498.5 1120 Q456 1068 435 986.5 Q414 905 414 792 L414 666 Q414 554 432.5 472.5 Q451 391 491 338.5 Q531 286 594 261 Q657 236 747 236 Q828 236 885.5 250.5 Q943 265 980.5 295.5 Q1018 326 1039 374 Q1060 422 1067 489 L1371 489 Q1362 373 1317.5 279 Q1273 185 1194.5 118.5 Q1116 52 1004 16 Q892 -20 747 -20 Q599 -20 480.5 27.5 Q362 75 279 163.5 Q196 252 151.5 379 Q107 506 107 666 L107 790 Z " />
<g transform="translate(226,314)" >
<path fill="black" d="M113 1536 L361 1536 L517 1396 L674 1536 L925 1536 L925 1525 L609 1244 L426 1244 L113 1527 L113 1536 Z " />
</g>
</glyph>
<glyph glyph-name="ccaron" unicode="&#x10d;" horiz-adv-x="1164" >
<path fill="black" d="M83 562 Q83 681 116 780 Q149 879 215.5 950.5 Q282 1022 382 1062 Q482 1102 616 1102 Q724 1102 812.5 1073.5 Q901 1045 964 990.5 Q1027 936 1062 856.5 Q1097 777 1099 674 L824 674 Q820 756 767.5 807.5 Q715 859 609 859 Q538 859 492.5 836 Q447 813 421 773 Q395 733 385.5 678.5 Q376 624 376 562 L376 519 Q376 455 385.5 400.5 Q395 346 421 306.5 Q447 267 493 245 Q539 223 612 223 Q706 223 763 262.5 Q820 302 824 380 L1099 380 Q1097 289 1059 215 Q1021 141 956 89 Q891 37 804.5 8.5 Q718 -20 619 -20 Q484 -20 383 20 Q282 60 215.5 131 Q149 202 116 301.5 Q83 401 83 519 L83 562 Z " />
<g transform="translate(61,0)" >
<path fill="black" d="M113 1536 L361 1536 L517 1396 L674 1536 L925 1536 L925 1525 L609 1244 L426 1244 L113 1527 L113 1536 Z " />
</g>
</glyph>
<glyph glyph-name="Dcaron" unicode="&#x10e;" horiz-adv-x="1448" >
<path fill="black" d="M154 1456 L627 1456 Q786 1456 917 1407.5 Q1048 1359 1141.5 1270.5 Q1235 1182 1287 1057.5 Q1339 933 1339 781 L1339 674 Q1339 522 1287.5 397.5 Q1236 273 1141.5 184.5 Q1047 96 914 48 Q781 0 619 0 L154 0 L154 1456 Z M619 252 Q829 252 931 357.5 Q1033 463 1033 674 L1033 783 Q1033 994 931 1098.5 Q829 1203 627 1203 L458 1203 L458 252 L619 252 Z " />
<g transform="translate(77,312)" >
<path fill="black" d="M113 1536 L361 1536 L517 1396 L674 1536 L925 1536 L925 1525 L609 1244 L426 1244 L113 1527 L113 1536 Z " />
</g>
</glyph>
<glyph glyph-name="dcaron" unicode="&#x10f;" horiz-adv-x="1263" >
<path fill="black" d="M82 558 Q82 684 113 785 Q144 886 203 956.5 Q262 1027 347 1064.5 Q432 1102 540 1102 Q632 1102 703 1070 Q774 1038 828 981 L828 1536 L1121 1536 L1121 0 L856 0 L842 117 Q788 53 713 16.5 Q638 -20 538 -20 Q431 -20 346.5 19 Q262 58 203 129 Q144 200 113 299.5 Q82 399 82 520 L82 558 Z M375 520 Q375 453 388 398.5 Q401 344 429.5 305 Q458 266 503.5 245 Q549 224 615 224 Q691 224 744 251 Q797 278 828 326 L828 755 Q796 806 743.5 832.5 Q691 859 616 859 Q551 859 505.5 837.5 Q460 816 431 777 Q402 738 388.5 682.5 Q375 627 375 558 L375 520 Z " />
</glyph>
<glyph glyph-name="Dcroat" unicode="&#x110;" horiz-adv-x="1448" >
<path fill="black" d="M154 641 L-11 641 L-11 824 L154 824 L154 1456 L627 1456 Q786 1456 917 1407.5 Q1048 1359 1141.5 1270.5 Q1235 1182 1287 1057.5 Q1339 933 1339 781 L1339 674 Q1339 522 1287.5 397.5 Q1236 273 1141.5 184.5 Q1047 96 914 48 Q781 0 619 0 L154 0 L154 641 Z M619 252 Q829 252 931 357.5 Q1033 463 1033 674 L1033 783 Q1033 994 931 1098.5 Q829 1203 627 1203 L458 1203 L458 824 L729 824 L729 641 L458 641 L458 252 L619 252 Z " />
</glyph>
<glyph glyph-name="dslash" unicode="&#x111;" horiz-adv-x="1390" d="M82 549 Q82 673 113 775 Q144 877 203.5 949.5 Q263 1022 348 1062 Q433 1102 541 1102 Q633 1102 703.5 1071 Q774 1040 828 983 L828 1219 L560 1219 L560 1402 L828 1402 L828 1536 L1121 1536 L1121 1402 L1300 1402 L1300 1219 L1121 1219 L1121 0 L856 0 L843 115 Q788 52 713 16 Q638 -20 539 -20 Q432 -20 347.5 21.5 Q263 63 204 136 Q145 209 113.5 309.5 Q82 410 82 528 L82 549 Z M375 528 Q375 464 388 408.5 Q401 353 429.5 312 Q458 271 503.5 247.5 Q549 224 615 224 Q691 224 744 251.5 Q797 279 828 329 L828 753 Q796 804 743.5 831.5 Q691 859 616 859 Q551 859 505.5 835.5 Q460 812 431 770.5 Q402 729 388.5 672 Q375 615 375 549 L375 528 Z " />
<glyph glyph-name="Emacron" unicode="&#x112;" horiz-adv-x="1255" d="M154 1456 L1189 1456 L1189 1203 L458 1203 L458 871 L1086 871 L1086 626 L458 626 L458 252 L1194 252 L1194 0 L154 0 L154 1456 Z M316 1764 L1060 1764 L1060 1597 L316 1597 L316 1764 Z " />
<glyph glyph-name="emacron" unicode="&#x113;" horiz-adv-x="1201" d="M90 553 Q90 685 127.5 787.5 Q165 890 236.5 960 Q308 1030 410.5 1066 Q513 1102 642 1102 Q760 1102 851.5 1067.5 Q943 1033 1006 967 Q1069 901 1101.5 804.5 Q1134 708 1134 584 L1134 451 L385 451 Q399 336 474.5 279.5 Q550 223 682 223 Q767 223 840.5 249 Q914 275 966 334 L1112 161 Q1084 127 1041 94 Q998 61 942 36 Q886 11 815.5 -4.5 Q745 -20 661 -20 Q526 -20 420 12.5 Q314 45 240.5 110 Q167 175 128.5 272 Q90 369 90 497 L90 553 Z M228 1453 L972 1453 L972 1286 L228 1286 L228 1453 Z M844 645 L844 671 Q844 714 832 749.5 Q820 785 795.5 811 Q771 837 733 851.5 Q695 866 643 866 Q529 866 467.5 807.5 Q406 749 389 645 L844 645 Z " />
<glyph glyph-name="Edotaccent" unicode="&#x116;" horiz-adv-x="1255" >
<path fill="black" d="M154 1456 L1189 1456 L1189 1203 L458 1203 L458 871 L1086 871 L1086 626 L458 626 L458 252 L1194 252 L1194 0 L154 0 L154 1456 Z " />
<g transform="translate(389,332)" >
<path fill="black" d="M139 1378 Q139 1439 180.5 1478.5 Q222 1518 294 1518 Q366 1518 407.5 1478.5 Q449 1439 449 1378 Q449 1317 407.5 1277.5 Q366 1238 294 1238 Q222 1238 180.5 1277.5 Q139 1317 139 1378 Z " />
</g>
</glyph>
<glyph glyph-name="edotaccent" unicode="&#x117;" horiz-adv-x="1201" >
<path fill="black" d="M90 553 Q90 685 127.5 787.5 Q165 890 236.5 960 Q308 1030 410.5 1066 Q513 1102 642 1102 Q760 1102 851.5 1067.5 Q943 1033 1006 967 Q1069 901 1101.5 804.5 Q1134 708 1134 584 L1134 451 L385 451 Q399 336 474.5 279.5 Q550 223 682 223 Q767 223 840.5 249 Q914 275 966 334 L1112 161 Q1084 127 1041 94 Q998 61 942 36 Q886 11 815.5 -4.5 Q745 -20 661 -20 Q526 -20 420 12.5 Q314 45 240.5 110 Q167 175 128.5 272 Q90 369 90 497 L90 553 Z M844 645 L844 671 Q844 714 832 749.5 Q820 785 795.5 811 Q771 837 733 851.5 Q695 866 643 866 Q529 866 467.5 807.5 Q406 749 389 645 L844 645 Z " />
<g transform="translate(301,21)" >
<path fill="black" d="M139 1378 Q139 1439 180.5 1478.5 Q222 1518 294 1518 Q366 1518 407.5 1478.5 Q449 1439 449 1378 Q449 1317 407.5 1277.5 Q366 1238 294 1238 Q222 1238 180.5 1277.5 Q139 1317 139 1378 Z " />
</g>
</glyph>
<glyph glyph-name="Eogonek" unicode="&#x118;" horiz-adv-x="1255" d="M154 1456 L1189 1456 L1189 1203 L458 1203 L458 871 L1086 871 L1086 626 L458 626 L458 252 L1194 252 L1194 0 L1049 0 Q1010 -21 979 -40.5 Q948 -60 926 -80 Q904 -100 892 -122 Q880 -144 880 -170 Q880 -197 896.5 -215.5 Q913 -234 953 -234 Q985 -234 1006.5 -227.5 Q1028 -221 1043 -215 L1071 -375 Q1044 -390 1001 -404.5 Q958 -419 892 -419 Q843 -419 799.5 -405.5 Q756 -392 723.5 -365.5 Q691 -339 672.5 -299.5 Q654 -260 654 -209 Q654 -153 683.5 -100.5 Q713 -48 787 0 L154 0 L154 1456 Z " />
<glyph glyph-name="eogonek" unicode="&#x119;" horiz-adv-x="1201" d="M936 -341 Q909 -356 866 -370.5 Q823 -385 757 -385 Q708 -385 664.5 -371.5 Q621 -358 588.5 -331.5 Q556 -305 537.5 -265.5 Q519 -226 519 -175 Q519 -133 534.5 -94 Q550 -55 587 -17 Q469 -8 377 28.5 Q285 65 221 129.5 Q157 194 123.5 286 Q90 378 90 497 L90 553 Q90 685 127.5 787.5 Q165 890 236.5 960 Q308 1030 410.5 1066 Q513 1102 642 1102 Q760 1102 851.5 1067.5 Q943 1033 1006 967 Q1069 901 1101.5 804.5 Q1134 708 1134 584 L1134 451 L385 451 Q399 336 474.5 279.5 Q550 223 682 223 Q767 223 840.5 249 Q914 275 966 334 L1112 161 Q1075 116 1015 75.5 Q955 35 870 9 Q812 -25 778.5 -58 Q745 -91 745 -136 Q745 -163 761.5 -181.5 Q778 -200 818 -200 Q850 -200 871.5 -193.5 Q893 -187 908 -181 L936 -341 Z M844 645 L844 671 Q844 714 832 749.5 Q820 785 795.5 811 Q771 837 733 851.5 Q695 866 643 866 Q529 866 467.5 807.5 Q406 749 389 645 L844 645 Z " />
<glyph glyph-name="Ecaron" unicode="&#x11a;" horiz-adv-x="1255" >
<path fill="black" d="M154 1456 L1189 1456 L1189 1203 L458 1203 L458 871 L1086 871 L1086 626 L458 626 L458 252 L1194 252 L1194 0 L154 0 L154 1456 Z " />
<g transform="translate(167,312)" >
<path fill="black" d="M113 1536 L361 1536 L517 1396 L674 1536 L925 1536 L925 1525 L609 1244 L426 1244 L113 1527 L113 1536 Z " />
</g>
</glyph>
<glyph glyph-name="ecaron" unicode="&#x11b;" horiz-adv-x="1201" >
<path fill="black" d="M90 553 Q90 685 127.5 787.5 Q165 890 236.5 960 Q308 1030 410.5 1066 Q513 1102 642 1102 Q760 1102 851.5 1067.5 Q943 1033 1006 967 Q1069 901 1101.5 804.5 Q1134 708 1134 584 L1134 451 L385 451 Q399 336 474.5 279.5 Q550 223 682 223 Q767 223 840.5 249 Q914 275 966 334 L1112 161 Q1084 127 1041 94 Q998 61 942 36 Q886 11 815.5 -4.5 Q745 -20 661 -20 Q526 -20 420 12.5 Q314 45 240.5 110 Q167 175 128.5 272 Q90 369 90 497 L90 553 Z M844 645 L844 671 Q844 714 832 749.5 Q820 785 795.5 811 Q771 837 733 851.5 Q695 866 643 866 Q529 866 467.5 807.5 Q406 749 389 645 L844 645 Z " />
<g transform="translate(79,1)" >
<path fill="black" d="M113 1536 L361 1536 L517 1396 L674 1536 L925 1536 L925 1525 L609 1244 L426 1244 L113 1527 L113 1536 Z " />
</g>
</glyph>
<glyph glyph-name="Gbreve" unicode="&#x11e;" horiz-adv-x="1511" >
<path fill="black" d="M114 792 Q114 958 159 1085.5 Q204 1213 288.5 1300 Q373 1387 494 1432 Q615 1477 766 1477 Q915 1477 1024 1442 Q1133 1407 1207.5 1342.5 Q1282 1278 1323 1188.5 Q1364 1099 1377 989 L1081 989 Q1072 1046 1050.5 1090 Q1029 1134 992.5 1164 Q956 1194 902 1209.5 Q848 1225 773 1225 Q596 1225 508.5 1119.5 Q421 1014 421 794 L421 664 Q421 446 520.5 339 Q620 232 802 232 Q865 232 910.5 238.5 Q956 245 988 255 Q1020 265 1040.5 276.5 Q1061 288 1074 298 L1074 542 L770 542 L770 769 L1378 769 L1378 178 Q1352 149 1305.5 114.5 Q1259 80 1188 50 Q1117 20 1018.5 0 Q920 -20 789 -20 Q638 -20 514 24.5 Q390 69 301 156 Q212 243 163 370.5 Q114 498 114 664 L114 792 Z " />
<g transform="translate(251,314)" >
<path fill="black" d="M338 1532 Q338 1507 346.5 1483 Q355 1459 373.5 1441 Q392 1423 422 1412 Q452 1401 495 1401 Q537 1401 566.5 1412 Q596 1423 614.5 1441 Q633 1459 641 1483 Q649 1507 649 1532 L865 1532 Q865 1466 839.5 1410.5 Q814 1355 766 1315 Q718 1275 649.5 1253 Q581 1231 495 1231 Q410 1231 341 1253 Q272 1275 223.5 1315 Q175 1355 149 1410.5 Q123 1466 123 1532 L338 1532 Z " />
</g>
</glyph>
<glyph glyph-name="gbreve" unicode="&#x11f;" horiz-adv-x="1267" >
<path fill="black" d="M285 -85 Q344 -131 419 -162 Q494 -193 575 -193 Q702 -193 772 -137 Q842 -81 842 31 L842 109 Q789 55 717.5 24.5 Q646 -6 552 -6 Q444 -6 358 32 Q272 70 211.5 139.5 Q151 209 118.5 307.5 Q86 406 86 526 L86 565 Q86 691 118.5 790.5 Q151 890 211.5 959.5 Q272 1029 359 1065.5 Q446 1102 555 1102 Q658 1102 732.5 1069.5 Q807 1037 859 977 L871 1082 L1136 1082 L1136 30 Q1136 -82 1096.5 -167 Q1057 -252 985 -309.5 Q913 -367 812.5 -396.5 Q712 -426 590 -426 Q540 -426 480.5 -416 Q421 -406 361.5 -386.5 Q302 -367 248 -338.5 Q194 -310 156 -272 L285 -85 Z M378 526 Q378 460 392.5 406.5 Q407 353 438 315.5 Q469 278 516 257.5 Q563 237 628 237 Q704 237 757 260 Q810 283 842 325 L842 769 Q778 859 630 859 Q500 859 439 780.5 Q378 702 378 565 L378 526 Z " />
<g transform="translate(106,0)" >
<path fill="black" d="M338 1532 Q338 1507 346.5 1483 Q355 1459 373.5 1441 Q392 1423 422 1412 Q452 1401 495 1401 Q537 1401 566.5 1412 Q596 1423 614.5 1441 Q633 1459 641 1483 Q649 1507 649 1532 L865 1532 Q865 1466 839.5 1410.5 Q814 1355 766 1315 Q718 1275 649.5 1253 Q581 1231 495 1231 Q410 1231 341 1253 Q272 1275 223.5 1315 Q175 1355 149 1410.5 Q123 1466 123 1532 L338 1532 Z " />
</g>
</glyph>
<glyph glyph-name="Gdotaccent" unicode="&#x120;" horiz-adv-x="1511" >
<path fill="black" d="M114 792 Q114 958 159 1085.5 Q204 1213 288.5 1300 Q373 1387 494 1432 Q615 1477 766 1477 Q915 1477 1024 1442 Q1133 1407 1207.5 1342.5 Q1282 1278 1323 1188.5 Q1364 1099 1377 989 L1081 989 Q1072 1046 1050.5 1090 Q1029 1134 992.5 1164 Q956 1194 902 1209.5 Q848 1225 773 1225 Q596 1225 508.5 1119.5 Q421 1014 421 794 L421 664 Q421 446 520.5 339 Q620 232 802 232 Q865 232 910.5 238.5 Q956 245 988 255 Q1020 265 1040.5 276.5 Q1061 288 1074 298 L1074 542 L770 542 L770 769 L1378 769 L1378 178 Q1352 149 1305.5 114.5 Q1259 80 1188 50 Q1117 20 1018.5 0 Q920 -20 789 -20 Q638 -20 514 24.5 Q390 69 301 156 Q212 243 163 370.5 Q114 498 114 664 L114 792 Z " />
<g transform="translate(451,334)" >
<path fill="black" d="M139 1378 Q139 1439 180.5 1478.5 Q222 1518 294 1518 Q366 1518 407.5 1478.5 Q449 1439 449 1378 Q449 1317 407.5 1277.5 Q366 1238 294 1238 Q222 1238 180.5 1277.5 Q139 1317 139 1378 Z " />
</g>
</glyph>
<glyph glyph-name="gdotaccent" unicode="&#x121;" horiz-adv-x="1267" >
<path fill="black" d="M285 -85 Q344 -131 419 -162 Q494 -193 575 -193 Q702 -193 772 -137 Q842 -81 842 31 L842 109 Q789 55 717.5 24.5 Q646 -6 552 -6 Q444 -6 358 32 Q272 70 211.5 139.5 Q151 209 118.5 307.5 Q86 406 86 526 L86 565 Q86 691 118.5 790.5 Q151 890 211.5 959.5 Q272 1029 359 1065.5 Q446 1102 555 1102 Q658 1102 732.5 1069.5 Q807 1037 859 977 L871 1082 L1136 1082 L1136 30 Q1136 -82 1096.5 -167 Q1057 -252 985 -309.5 Q913 -367 812.5 -396.5 Q712 -426 590 -426 Q540 -426 480.5 -416 Q421 -406 361.5 -386.5 Q302 -367 248 -338.5 Q194 -310 156 -272 L285 -85 Z M378 526 Q378 460 392.5 406.5 Q407 353 438 315.5 Q469 278 516 257.5 Q563 237 628 237 Q704 237 757 260 Q810 283 842 325 L842 769 Q778 859 630 859 Q500 859 439 780.5 Q378 702 378 565 L378 526 Z " />
<g transform="translate(306,20)" >
<path fill="black" d="M139 1378 Q139 1439 180.5 1478.5 Q222 1518 294 1518 Q366 1518 407.5 1478.5 Q449 1439 449 1378 Q449 1317 407.5 1277.5 Q366 1238 294 1238 Q222 1238 180.5 1277.5 Q139 1317 139 1378 Z " />
</g>
</glyph>
<glyph glyph-name="uni0122" unicode="&#x122;" horiz-adv-x="1349" >
<path fill="black" d="M114 792 Q114 958 159 1085.5 Q204 1213 288.5 1300 Q373 1387 494 1432 Q615 1477 766 1477 Q915 1477 1024 1442 Q1133 1407 1207.5 1342.5 Q1282 1278 1323 1188.5 Q1364 1099 1377 989 L1081 989 Q1072 1046 1050.5 1090 Q1029 1134 992.5 1164 Q956 1194 902 1209.5 Q848 1225 773 1225 Q596 1225 508.5 1119.5 Q421 1014 421 794 L421 664 Q421 446 520.5 339 Q620 232 802 232 Q865 232 910.5 238.5 Q956 245 988 255 Q1020 265 1040.5 276.5 Q1061 288 1074 298 L1074 542 L770 542 L770 769 L1378 769 L1378 178 Q1352 149 1305.5 114.5 Q1259 80 1188 50 Q1117 20 1018.5 0 Q920 -20 789 -20 Q638 -20 514 24.5 Q390 69 301 156 Q212 243 163 370.5 Q114 498 114 664 L114 792 Z " />
<g transform="translate(477,-371)" >
<path fill="black" d="M-770 -475 Q-752 -449 -736.5 -422.5 Q-721 -396 -710.5 -366.5 Q-700 -337 -694 -302.5 Q-688 -268 -688 -226 L-688 -143 L-462 -143 L-462 -210 Q-462 -257 -473.5 -304.5 Q-485 -352 -506 -396.5 Q-527 -441 -556.5 -480 Q-586 -519 -622 -549 L-770 -475 Z " />
</g>
</glyph>
<glyph glyph-name="uni0123" unicode="&#x123;" horiz-adv-x="1267" >
<path fill="black" d="M285 -85 Q344 -131 419 -162 Q494 -193 575 -193 Q702 -193 772 -137 Q842 -81 842 31 L842 109 Q789 55 717.5 24.5 Q646 -6 552 -6 Q444 -6 358 32 Q272 70 211.5 139.5 Q151 209 118.5 307.5 Q86 406 86 526 L86 565 Q86 691 118.5 790.5 Q151 890 211.5 959.5 Q272 1029 359 1065.5 Q446 1102 555 1102 Q658 1102 732.5 1069.5 Q807 1037 859 977 L871 1082 L1136 1082 L1136 30 Q1136 -82 1096.5 -167 Q1057 -252 985 -309.5 Q913 -367 812.5 -396.5 Q712 -426 590 -426 Q540 -426 480.5 -416 Q421 -406 361.5 -386.5 Q302 -367 248 -338.5 Q194 -310 156 -272 L285 -85 Z M378 526 Q378 460 392.5 406.5 Q407 353 438 315.5 Q469 278 516 257.5 Q563 237 628 237 Q704 237 757 260 Q810 283 842 325 L842 769 Q778 859 630 859 Q500 859 439 780.5 Q378 702 378 565 L378 526 Z " />
<g transform="translate(319,172)" >
<path fill="black" d="M158 1227 Q158 1280 170.5 1329 Q183 1378 205 1420 Q227 1462 255.5 1495 Q284 1528 317 1549 L470 1477 Q439 1433 418.5 1366 Q398 1299 398 1214 L397 1089 L158 1089 L158 1227 Z " />
</g>
</glyph>
<glyph glyph-name="Hbar" unicode="&#x126;" horiz-adv-x="1432" d="M170 1055 L41 1055 L41 1231 L170 1231 L170 1456 L474 1456 L474 1231 L1130 1231 L1130 1456 L1434 1456 L1434 1231 L1564 1231 L1564 1055 L1434 1055 L1434 0 L1130 0 L1130 618 L474 618 L474 0 L170 0 L170 1055 Z M1130 871 L1130 1055 L474 1055 L474 871 L1130 871 Z " />
<glyph glyph-name="hbar" unicode="&#x127;" horiz-adv-x="1242" d="M126 1215 L-48 1215 L-48 1398 L126 1398 L126 1536 L418 1536 L418 1398 L692 1398 L692 1215 L418 1215 L418 968 Q477 1031 556.5 1066.5 Q636 1102 734 1102 Q820 1102 890 1079 Q960 1056 1010 1005.5 Q1060 955 1087.5 874 Q1115 793 1115 677 L1115 0 L822 0 L822 679 Q822 731 809.5 765.5 Q797 800 772.5 821 Q748 842 712 850.5 Q676 859 629 859 Q554 859 502 832 Q450 805 418 757 L418 0 L126 0 L126 1215 Z " />
<glyph glyph-name="Itilde" unicode="&#x128;" horiz-adv-x="646" >
<path fill="black" d="M172 0 L172 1456 L476 1456 L476 0 L172 0 Z " />
<g transform="translate(-216,308)" >
<path fill="black" d="M136 1262 Q136 1315 154.5 1363.5 Q173 1412 205 1449 Q237 1486 282 1508 Q327 1530 379 1530 Q422 1530 458 1516.5 Q494 1503 528 1487.5 Q562 1472 596.5 1458.5 Q631 1445 672 1445 Q711 1445 738.5 1468 Q766 1491 766 1538 L938 1527 Q938 1473 920 1424.5 Q902 1376 869.5 1339.5 Q837 1303 792.5 1281.5 Q748 1260 695 1260 Q643 1260 606.5 1273.5 Q570 1287 539 1303 Q508 1319 476.5 1332.5 Q445 1346 402 1346 Q364 1346 337 1322.5 Q310 1299 310 1253 L136 1262 Z " />
</g>
</glyph>
<glyph glyph-name="itilde" unicode="&#x129;" horiz-adv-x="608" >
<path fill="black" d="M154 0 L154 1082 L447 1082 L447 0 L154 0 Z " />
<g transform="translate(-235,-23)" >
<path fill="black" d="M136 1262 Q136 1315 154.5 1363.5 Q173 1412 205 1449 Q237 1486 282 1508 Q327 1530 379 1530 Q422 1530 458 1516.5 Q494 1503 528 1487.5 Q562 1472 596.5 1458.5 Q631 1445 672 1445 Q711 1445 738.5 1468 Q766 1491 766 1538 L938 1527 Q938 1473 920 1424.5 Q902 1376 869.5 1339.5 Q837 1303 792.5 1281.5 Q748 1260 695 1260 Q643 1260 606.5 1273.5 Q570 1287 539 1303 Q508 1319 476.5 1332.5 Q445 1346 402 1346 Q364 1346 337 1322.5 Q310 1299 310 1253 L136 1262 Z " />
</g>
</glyph>
<glyph glyph-name="Imacron" unicode="&#x12a;" horiz-adv-x="646" >
<path fill="black" d="M172 0 L172 1456 L476 1456 L476 0 L172 0 Z " />
<g transform="translate(-229,308)" >
<path fill="black" d="M182 1289 L182 1456 L926 1456 L926 1289 L182 1289 Z " />
</g>
</glyph>
<glyph glyph-name="imacron" unicode="&#x12b;" horiz-adv-x="608" >
<path fill="black" d="M154 0 L154 1082 L447 1082 L447 0 L154 0 Z " />
<g transform="translate(-248,-23)" >
<path fill="black" d="M182 1289 L182 1456 L926 1456 L926 1289 L182 1289 Z " />
</g>
</glyph>
<glyph glyph-name="Iogonek" unicode="&#x12e;" horiz-adv-x="646" d="M439 -375 Q412 -390 369 -404.5 Q326 -419 260 -419 Q211 -419 167.5 -405.5 Q124 -392 91.5 -365.5 Q59 -339 40.5 -299.5 Q22 -260 22 -209 Q22 -150 55 -94.5 Q88 -39 172 10 L172 1456 L476 1456 L476 0 L417 0 Q378 -21 347 -40.5 Q316 -60 294 -80 Q272 -100 260 -122 Q248 -144 248 -170 Q248 -197 264.5 -215.5 Q281 -234 321 -234 Q353 -234 374.5 -227.5 Q396 -221 411 -215 L439 -375 Z " />
<glyph glyph-name="iogonek" unicode="&#x12f;" horiz-adv-x="590" >
<g transform="translate(7,-10)" >
<path fill="black" d="M417 -365 Q390 -380 347 -394.5 Q304 -409 238 -409 Q189 -409 145.5 -395.5 Q102 -382 69.5 -355.5 Q37 -329 18.5 -289.5 Q0 -250 0 -199 Q0 -142 31 -87.5 Q62 -33 141 15 L141 1092 L434 1092 L434 10 L395 10 Q356 -11 325 -30.5 Q294 -50 272 -70 Q250 -90 238 -112 Q226 -134 226 -160 Q226 -187 242.5 -205.5 Q259 -224 299 -224 Q331 -224 352.5 -217.5 Q374 -211 389 -205 L417 -365 Z " />
</g>
<g transform="translate(-16,1220)" >
<path fill="black" d="M147 148 Q147 182 158.5 211 Q170 240 191 261.5 Q212 283 242.5 295 Q273 307 311 307 Q349 307 379.5 295 Q410 283 431.5 261.5 Q453 240 464.5 211 Q476 182 476 148 Q476 114 464.5 85 Q453 56 431.5 34.5 Q410 13 379.5 1 Q349 -11 311 -11 Q273 -11 242.5 1 Q212 13 191 34.5 Q170 56 158.5 85 Q147 114 147 148 Z " />
</g>
</glyph>
<glyph glyph-name="Idot" unicode="&#x130;" horiz-adv-x="646" >
<path fill="black" d="M172 0 L172 1456 L476 1456 L476 0 L172 0 Z " />
<g transform="translate(26,332)" >
<path fill="black" d="M139 1378 Q139 1439 180.5 1478.5 Q222 1518 294 1518 Q366 1518 407.5 1478.5 Q449 1439 449 1378 Q449 1317 407.5 1277.5 Q366 1238 294 1238 Q222 1238 180.5 1277.5 Q139 1317 139 1378 Z " />
</g>
</glyph>
<glyph glyph-name="dotlessi" unicode="&#x131;" horiz-adv-x="608" d="M154 0 L154 1082 L447 1082 L447 0 L154 0 Z " />
<glyph glyph-name="uni0136" unicode="&#x136;" horiz-adv-x="1260" >
<path fill="black" d="M154 1456 L458 1456 L458 797 L1024 1456 L1395 1456 L834 802 L1419 0 L1058 0 L631 592 L458 424 L458 0 L154 0 L154 1456 Z " />
<g transform="translate(405,-309)" >
<path fill="black" d="M-770 -475 Q-752 -449 -736.5 -422.5 Q-721 -396 -710.5 -366.5 Q-700 -337 -694 -302.5 Q-688 -268 -688 -226 L-688 -143 L-462 -143 L-462 -210 Q-462 -257 -473.5 -304.5 Q-485 -352 -506 -396.5 Q-527 -441 -556.5 -480 Q-586 -519 -622 -549 L-770 -475 Z " />
</g>
</glyph>
<glyph glyph-name="uni0137" unicode="&#x137;" horiz-adv-x="1069" >
<path fill="black" d="M132 1537 L424 1537 L424 657 L495 736 L801 1082 L1149 1082 L720 633 L1191 0 L853 0 L533 453 L424 356 L424 0 L132 0 L132 1537 Z " />
<g transform="translate(325,-331)" >
<path fill="black" d="M-770 -475 Q-752 -449 -736.5 -422.5 Q-721 -396 -710.5 -366.5 Q-700 -337 -694 -302.5 Q-688 -268 -688 -226 L-688 -143 L-462 -143 L-462 -210 Q-462 -257 -473.5 -304.5 Q-485 -352 -506 -396.5 Q-527 -441 -556.5 -480 Q-586 -519 -622 -549 L-770 -475 Z " />
</g>
</glyph>
<glyph glyph-name="Lacute" unicode="&#x139;" horiz-adv-x="1206" >
<path fill="black" d="M154 1456 L458 1456 L458 252 L1154 252 L1154 0 L154 0 L154 1456 Z " />
<g transform="translate(45,308)" >
<path fill="black" d="M338 1536 L665 1536 L359 1225 L120 1225 L338 1536 Z " />
</g>
</glyph>
<glyph glyph-name="lacute" unicode="&#x13a;" horiz-adv-x="701" >
<path fill="black" d="M143 1536 L436 1536 L436 341 Q436 307 444 285 Q452 263 467 250 Q482 237 504 232 Q526 227 554 227 Q581 227 605.5 229 Q630 231 645 234 L645 8 Q610 -6 565.5 -13 Q521 -20 463 -20 Q392 -20 333 -2 Q274 16 232 55.5 Q190 95 166.5 156.5 Q143 218 143 305 L143 1536 Z " />
<g transform="translate(29,390)" >
<path fill="black" d="M338 1536 L665 1536 L359 1225 L120 1225 L338 1536 Z " />
</g>
</glyph>
<glyph glyph-name="uni013B" unicode="&#x13b;" horiz-adv-x="1077" >
<path fill="black" d="M154 1456 L458 1456 L458 252 L1154 252 L1154 0 L154 0 L154 1456 Z " />
<g transform="translate(354,-359)" >
<path fill="black" d="M-770 -475 Q-752 -449 -736.5 -422.5 Q-721 -396 -710.5 -366.5 Q-700 -337 -694 -302.5 Q-688 -268 -688 -226 L-688 -143 L-462 -143 L-462 -210 Q-462 -257 -473.5 -304.5 Q-485 -352 -506 -396.5 Q-527 -441 -556.5 -480 Q-586 -519 -622 -549 L-770 -475 Z " />
</g>
</glyph>
<glyph glyph-name="uni013C" unicode="&#x13c;" horiz-adv-x="539" >
<path fill="black" d="M143 1536 L436 1536 L436 341 Q436 307 444 285 Q452 263 467 250 Q482 237 504 232 Q526 227 554 227 Q581 227 605.5 229 Q630 231 645 234 L645 8 Q610 -6 565.5 -13 Q521 -20 463 -20 Q392 -20 333 -2 Q274 16 232 55.5 Q190 95 166.5 156.5 Q143 218 143 305 L143 1536 Z " />
<g transform="translate(43,-359)" >
<path fill="black" d="M-770 -475 Q-752 -449 -736.5 -422.5 Q-721 -396 -710.5 -366.5 Q-700 -337 -694 -302.5 Q-688 -268 -688 -226 L-688 -143 L-462 -143 L-462 -210 Q-462 -257 -473.5 -304.5 Q-485 -352 -506 -396.5 Q-527 -441 -556.5 -480 Q-586 -519 -622 -549 L-770 -475 Z " />
</g>
</glyph>
<glyph glyph-name="Lcaron" unicode="&#x13d;" horiz-adv-x="1077" >
<path fill="black" d="M154 1456 L458 1456 L458 252 L1154 252 L1154 0 L154 0 L154 1456 Z " />
<g transform="translate(559,1179)" >
<path fill="black" d="M-770 -475 Q-752 -449 -736.5 -422.5 Q-721 -396 -710.5 -366.5 Q-700 -337 -694 -302.5 Q-688 -268 -688 -226 L-688 -143 L-462 -143 L-462 -210 Q-462 -257 -473.5 -304.5 Q-485 -352 -506 -396.5 Q-527 -441 -556.5 -480 Q-586 -519 -622 -549 L-770 -475 Z " />
</g>
</glyph>
<glyph glyph-name="lcaron" unicode="&#x13e;" horiz-adv-x="683" >
<path fill="black" d="M143 1536 L436 1536 L436 341 Q436 307 444 285 Q452 263 467 250 Q482 237 504 232 Q526 227 554 227 Q581 227 605.5 229 Q630 231 645 234 L645 8 Q610 -6 565.5 -13 Q521 -20 463 -20 Q392 -20 333 -2 Q274 16 232 55.5 Q190 95 166.5 156.5 Q143 218 143 305 L143 1536 Z " />
<g transform="translate(440,1260)" >
<path fill="black" d="M-770 -475 Q-752 -449 -736.5 -422.5 Q-721 -396 -710.5 -366.5 Q-700 -337 -694 -302.5 Q-688 -268 -688 -226 L-688 -143 L-462 -143 L-462 -210 Q-462 -257 -473.5 -304.5 Q-485 -352 -506 -396.5 Q-527 -441 -556.5 -480 Q-586 -519 -622 -549 L-770 -475 Z " />
</g>
</glyph>
<glyph glyph-name="Lslash" unicode="&#x141;" horiz-adv-x="1113" d="M184 644 L41 605 L41 774 L184 813 L184 1456 L488 1456 L488 896 L724 961 L724 792 L488 727 L488 252 L1184 252 L1184 0 L184 0 L184 644 Z " />
<glyph glyph-name="lslash" unicode="&#x142;" horiz-adv-x="622" d="M178 648 L41 604 L41 775 L178 819 L178 1536 L471 1536 L471 912 L629 962 L629 791 L471 741 L471 341 Q471 307 479 285 Q487 263 502 250 Q517 237 539 232 Q561 227 589 227 Q616 227 640.5 229 Q665 231 680 234 L680 8 Q645 -6 600.5 -13 Q556 -20 498 -20 Q427 -20 368 -2 Q309 16 267 55.5 Q225 95 201.5 156.5 Q178 218 178 305 L178 648 Z " />
<glyph glyph-name="Nacute" unicode="&#x143;" horiz-adv-x="1573" >
<path fill="black" d="M154 1456 L465 1456 L1114 467 L1114 1456 L1417 1456 L1417 0 L1107 0 L458 1012 L458 0 L154 0 L154 1456 Z " />
<g transform="translate(521,310)" >
<path fill="black" d="M338 1536 L665 1536 L359 1225 L120 1225 L338 1536 Z " />
</g>
</glyph>
<glyph glyph-name="nacute" unicode="&#x144;" horiz-adv-x="1245" >
<path fill="black" d="M127 1082 L403 1082 L411 964 Q472 1031 557 1066.5 Q642 1102 746 1102 Q829 1102 897.5 1080.5 Q966 1059 1014.5 1009.5 Q1063 960 1089.5 880.5 Q1116 801 1116 685 L1116 0 L822 0 L822 686 Q822 737 809.5 770.5 Q797 804 773 823.5 Q749 843 713.5 851 Q678 859 631 859 Q558 859 504.5 830 Q451 801 419 752 L419 0 L127 0 L127 1082 Z " />
<g transform="translate(359,0)" >
<path fill="black" d="M338 1536 L665 1536 L359 1225 L120 1225 L338 1536 Z " />
</g>
</glyph>
<glyph glyph-name="uni0145" unicode="&#x145;" horiz-adv-x="1397" >
<path fill="black" d="M154 1456 L465 1456 L1114 467 L1114 1456 L1417 1456 L1417 0 L1107 0 L458 1012 L458 0 L154 0 L154 1456 Z " />
<g transform="translate(474,-367)" >
<path fill="black" d="M-770 -475 Q-752 -449 -736.5 -422.5 Q-721 -396 -710.5 -366.5 Q-700 -337 -694 -302.5 Q-688 -268 -688 -226 L-688 -143 L-462 -143 L-462 -210 Q-462 -257 -473.5 -304.5 Q-485 -352 -506 -396.5 Q-527 -441 -556.5 -480 Q-586 -519 -622 -549 L-770 -475 Z " />
</g>
</glyph>
<glyph glyph-name="uni0146" unicode="&#x146;" horiz-adv-x="1114" >
<path fill="black" d="M127 1082 L403 1082 L411 964 Q472 1031 557 1066.5 Q642 1102 746 1102 Q829 1102 897.5 1080.5 Q966 1059 1014.5 1009.5 Q1063 960 1089.5 880.5 Q1116 801 1116 685 L1116 0 L822 0 L822 686 Q822 737 809.5 770.5 Q797 804 773 823.5 Q749 843 713.5 851 Q678 859 631 859 Q558 859 504.5 830 Q451 801 419 752 L419 0 L127 0 L127 1082 Z " />
<g transform="translate(330,-359)" >
<path fill="black" d="M-770 -475 Q-752 -449 -736.5 -422.5 Q-721 -396 -710.5 -366.5 Q-700 -337 -694 -302.5 Q-688 -268 -688 -226 L-688 -143 L-462 -143 L-462 -210 Q-462 -257 -473.5 -304.5 Q-485 -352 -506 -396.5 Q-527 -441 -556.5 -480 Q-586 -519 -622 -549 L-770 -475 Z " />
</g>
</glyph>
<glyph glyph-name="Ncaron" unicode="&#x147;" horiz-adv-x="1573" >
<path fill="black" d="M154 1456 L465 1456 L1114 467 L1114 1456 L1417 1456 L1417 0 L1107 0 L458 1012 L458 0 L154 0 L154 1456 Z " />
<g transform="translate(269,310)" >
<path fill="black" d="M113 1536 L361 1536 L517 1396 L674 1536 L925 1536 L925 1525 L609 1244 L426 1244 L113 1527 L113 1536 Z " />
</g>
</glyph>
<glyph glyph-name="ncaron" unicode="&#x148;" horiz-adv-x="1245" >
<path fill="black" d="M127 1082 L403 1082 L411 964 Q472 1031 557 1066.5 Q642 1102 746 1102 Q829 1102 897.5 1080.5 Q966 1059 1014.5 1009.5 Q1063 960 1089.5 880.5 Q1116 801 1116 685 L1116 0 L822 0 L822 686 Q822 737 809.5 770.5 Q797 804 773 823.5 Q749 843 713.5 851 Q678 859 631 859 Q558 859 504.5 830 Q451 801 419 752 L419 0 L127 0 L127 1082 Z " />
<g transform="translate(107,0)" >
<path fill="black" d="M113 1536 L361 1536 L517 1396 L674 1536 L925 1536 L925 1525 L609 1244 L426 1244 L113 1527 L113 1536 Z " />
</g>
</glyph>
<glyph glyph-name="Eng" unicode="&#x14a;" horiz-adv-x="1556" d="M151 1456 L455 1456 L1103 451 L1103 1456 L1409 1456 L1409 -18 Q1409 -120 1381 -198 Q1353 -276 1301 -329 Q1249 -382 1174 -409.5 Q1099 -437 1004 -437 Q963 -437 928 -433.5 Q893 -430 853 -420 L868 -173 Q892 -179 920 -181.5 Q948 -184 976 -184 Q1037 -184 1070 -142.5 Q1103 -101 1103 -18 L1103 0 L455 1007 L455 0 L151 0 L151 1456 Z " />
<glyph glyph-name="eng" unicode="&#x14b;" horiz-adv-x="1259" d="M131 1082 L402 1082 L416 933 Q473 1012 556.5 1057 Q640 1102 746 1102 Q832 1102 902 1078 Q972 1054 1022 1000.5 Q1072 947 1099 861.5 Q1126 776 1126 654 L1126 -25 Q1126 -125 1099 -202 Q1072 -279 1021 -331 Q970 -383 896.5 -410 Q823 -437 730 -437 Q690 -437 656 -433.5 Q622 -430 584 -420 L599 -181 Q621 -187 650.5 -190 Q680 -193 705 -193 Q767 -193 800 -151 Q833 -109 833 -25 L833 655 Q833 713 820.5 752 Q808 791 784 815 Q760 839 724.5 849 Q689 859 643 859 Q568 859 513 836.5 Q458 814 423 774 L423 0 L131 0 L131 1082 Z " />
<glyph glyph-name="Omacron" unicode="&#x14c;" horiz-adv-x="1534" >
<path fill="black" d="M108 781 Q108 945 156 1074 Q204 1203 291 1292 Q378 1381 499 1428.5 Q620 1476 766 1476 Q913 1476 1034.5 1428.5 Q1156 1381 1243 1292 Q1330 1203 1377.5 1074 Q1425 945 1425 781 L1425 673 Q1425 510 1377.5 381 Q1330 252 1244 163 Q1158 74 1036.5 27 Q915 -20 768 -20 Q623 -20 501.5 27 Q380 74 292.5 163 Q205 252 156.5 381 Q108 510 108 673 L108 781 Z M414 673 Q414 459 508 347.5 Q602 236 768 236 Q938 236 1029 346.5 Q1120 457 1120 673 L1120 783 Q1120 1000 1027.5 1109.5 Q935 1219 766 1219 Q600 1219 507 1109.5 Q414 1000 414 783 L414 673 Z " />
<g transform="translate(217,307)" >
<path fill="black" d="M182 1289 L182 1456 L926 1456 L926 1289 L182 1289 Z " />
</g>
</glyph>
<glyph glyph-name="omacron" unicode="&#x14d;" horiz-adv-x="1264" >
<path fill="black" d="M84 560 Q84 681 121 780.5 Q158 880 228.5 951.5 Q299 1023 400 1062.5 Q501 1102 630 1102 Q760 1102 862 1062.5 Q964 1023 1034.5 951.5 Q1105 880 1142 780.5 Q1179 681 1179 560 L1179 521 Q1179 400 1142 300.5 Q1105 201 1035 130 Q965 59 863 19.5 Q761 -20 632 -20 Q503 -20 401 19.5 Q299 59 228.5 130 Q158 201 121 300.5 Q84 400 84 521 L84 560 Z M376 521 Q376 455 391 400 Q406 345 437 305.5 Q468 266 516.5 244.5 Q565 223 632 223 Q699 223 747 244.5 Q795 266 826 305.5 Q857 345 871.5 400 Q886 455 886 521 L886 560 Q886 625 871.5 679.5 Q857 734 825.5 774 Q794 814 746 836.5 Q698 859 630 859 Q564 859 516 836.5 Q468 814 437 774 Q406 734 391 679.5 Q376 625 376 560 L376 521 Z " />
<g transform="translate(75,-4)" >
<path fill="black" d="M182 1289 L182 1456 L926 1456 L926 1289 L182 1289 Z " />
</g>
</glyph>
<glyph glyph-name="Ohungarumlaut" unicode="&#x150;" horiz-adv-x="1534" d="M108 781 Q108 945 156 1074 Q204 1203 291 1292 Q378 1381 499 1428.5 Q620 1476 766 1476 Q913 1476 1034.5 1428.5 Q1156 1381 1243 1292 Q1330 1203 1377.5 1074 Q1425 945 1425 781 L1425 673 Q1425 510 1377.5 381 Q1330 252 1244 163 Q1158 74 1036.5 27 Q915 -20 768 -20 Q623 -20 501.5 27 Q380 74 292.5 163 Q205 252 156.5 381 Q108 510 108 673 L108 781 Z M414 673 Q414 459 508 347.5 Q602 236 768 236 Q938 236 1029 346.5 Q1120 457 1120 673 L1120 783 Q1120 1000 1027.5 1109.5 Q935 1219 766 1219 Q600 1219 507 1109.5 Q414 1000 414 783 L414 673 Z M1055 1846 L1327 1846 L1042 1546 L814 1546 L1055 1846 Z M643 1846 L910 1846 L667 1546 L451 1546 L643 1846 Z " />
<glyph glyph-name="ohungarumlaut" unicode="&#x151;" horiz-adv-x="1264" d="M84 560 Q84 681 121 780.5 Q158 880 228.5 951.5 Q299 1023 400 1062.5 Q501 1102 630 1102 Q760 1102 862 1062.5 Q964 1023 1034.5 951.5 Q1105 880 1142 780.5 Q1179 681 1179 560 L1179 521 Q1179 400 1142 300.5 Q1105 201 1035 130 Q965 59 863 19.5 Q761 -20 632 -20 Q503 -20 401 19.5 Q299 59 228.5 130 Q158 201 121 300.5 Q84 400 84 521 L84 560 Z M376 521 Q376 455 391 400 Q406 345 437 305.5 Q468 266 516.5 244.5 Q565 223 632 223 Q699 223 747 244.5 Q795 266 826 305.5 Q857 345 871.5 400 Q886 455 886 521 L886 560 Q886 625 871.5 679.5 Q857 734 825.5 774 Q794 814 746 836.5 Q698 859 630 859 Q564 859 516 836.5 Q468 814 437 774 Q406 734 391 679.5 Q376 625 376 560 L376 521 Z M913 1535 L1185 1535 L900 1235 L672 1235 L913 1535 Z M501 1535 L768 1535 L525 1235 L309 1235 L501 1535 Z " />
<glyph glyph-name="OE" unicode="&#x152;" horiz-adv-x="1920" d="M111 880 Q111 1012 157.5 1122 Q204 1232 288 1310.5 Q372 1389 490 1432.5 Q608 1476 750 1476 Q833 1476 911.5 1470 Q990 1464 1062 1456 L2004 1456 L2004 1203 L1273 1203 L1273 871 L1901 871 L1901 626 L1273 626 L1273 252 L2009 252 L2009 0 L1062 0 Q990 -8 912.5 -14 Q835 -20 754 -20 Q611 -20 492.5 23.5 Q374 67 289.5 145.5 Q205 224 158 334 Q111 444 111 576 L111 880 Z M969 1220 Q917 1226 862.5 1229.5 Q808 1233 750 1233 Q671 1233 607 1211 Q543 1189 498 1145 Q453 1101 428.5 1035.5 Q404 970 404 882 L404 576 Q404 488 428.5 422 Q453 356 498.5 312 Q544 268 608.5 245.5 Q673 223 754 223 Q810 223 864 226.5 Q918 230 969 236 L969 1220 Z " />
<glyph glyph-name="oe" unicode="&#x153;" horiz-adv-x="2000" d="M100 551 Q100 670 136 770.5 Q172 871 241 945 Q310 1019 411 1060.5 Q512 1102 642 1102 Q775 1102 876.5 1059.5 Q978 1017 1047 942 Q1116 1017 1210.5 1059.5 Q1305 1102 1422 1102 Q1544 1102 1636 1067.5 Q1728 1033 1790 969.5 Q1852 906 1883.5 816 Q1915 726 1915 614 L1915 445 L1202 445 Q1210 399 1231 358.5 Q1252 318 1286 288 Q1320 258 1367.5 240.5 Q1415 223 1477 223 Q1534 223 1580 228.5 Q1626 234 1664.5 244 Q1703 254 1736.5 267 Q1770 280 1801 296 L1887 103 Q1857 79 1814.5 57 Q1772 35 1717 17.5 Q1662 0 1596 -10 Q1530 -20 1453 -20 Q1322 -20 1219.5 22 Q1117 64 1045 137 Q976 63 875.5 21.5 Q775 -20 644 -20 Q514 -20 412.5 21.5 Q311 63 241.5 136.5 Q172 210 136 311 Q100 412 100 530 L100 551 Z M392 530 Q392 466 405.5 410 Q419 354 449 312.5 Q479 271 527 247 Q575 223 644 223 Q712 223 759 247 Q806 271 835.5 312.5 Q865 354 878.5 410 Q892 466 892 530 L892 551 Q892 614 878.5 670 Q865 726 835.5 768 Q806 810 758.5 834.5 Q711 859 642 859 Q574 859 526.5 834.5 Q479 810 449 768 Q419 726 405.5 670 Q392 614 392 551 L392 530 Z M1627 646 L1627 672 Q1627 758 1579 808.5 Q1531 859 1422 859 Q1377 859 1341.5 843 Q1306 827 1279 798.5 Q1252 770 1234 731 Q1216 692 1207 646 L1627 646 Z " />
<glyph glyph-name="Racute" unicode="&#x154;" horiz-adv-x="1403" >
<path fill="black" d="M155 1456 L724 1456 Q860 1456 966.5 1427.5 Q1073 1399 1146.5 1343.5 Q1220 1288 1259 1206 Q1298 1124 1298 1017 Q1298 936 1278.5 872 Q1259 808 1223 758.5 Q1187 709 1135 672 Q1083 635 1017 608 L1359 15 L1359 0 L1033 0 L732 539 L459 539 L459 0 L155 0 L155 1456 Z M459 778 L723 778 Q858 778 925.5 835.5 Q993 893 993 989 Q993 1089 928.5 1146 Q864 1203 724 1203 L459 1203 L459 778 Z " />
<g transform="translate(388,310)" >
<path fill="black" d="M338 1536 L665 1536 L359 1225 L120 1225 L338 1536 Z " />
</g>
</glyph>
<glyph glyph-name="racute" unicode="&#x155;" horiz-adv-x="803" >
<path fill="black" d="M131 1082 L410 1082 L417 960 Q460 1027 524.5 1064.5 Q589 1102 676 1102 Q699 1102 726.5 1099 Q754 1096 770 1090 L768 795 Q743 798 713 800.5 Q683 803 657 803 Q480 803 424 693 L424 0 L131 0 L131 1082 Z " />
<g transform="translate(181,0)" >
<path fill="black" d="M338 1536 L665 1536 L359 1225 L120 1225 L338 1536 Z " />
</g>
</glyph>
<glyph glyph-name="uni0156" unicode="&#x156;" horiz-adv-x="1268" >
<path fill="black" d="M155 1456 L724 1456 Q860 1456 966.5 1427.5 Q1073 1399 1146.5 1343.5 Q1220 1288 1259 1206 Q1298 1124 1298 1017 Q1298 936 1278.5 872 Q1259 808 1223 758.5 Q1187 709 1135 672 Q1083 635 1017 608 L1359 15 L1359 0 L1033 0 L732 539 L459 539 L459 0 L155 0 L155 1456 Z M459 778 L723 778 Q858 778 925.5 835.5 Q993 893 993 989 Q993 1089 928.5 1146 Q864 1203 724 1203 L459 1203 L459 778 Z " />
<g transform="translate(367,-359)" >
<path fill="black" d="M-770 -475 Q-752 -449 -736.5 -422.5 Q-721 -396 -710.5 -366.5 Q-700 -337 -694 -302.5 Q-688 -268 -688 -226 L-688 -143 L-462 -143 L-462 -210 Q-462 -257 -473.5 -304.5 Q-485 -352 -506 -396.5 Q-527 -441 -556.5 -480 Q-586 -519 -622 -549 L-770 -475 Z " />
</g>
</glyph>
<glyph glyph-name="uni0157" unicode="&#x157;" horiz-adv-x="735" >
<path fill="black" d="M131 1082 L410 1082 L417 960 Q460 1027 524.5 1064.5 Q589 1102 676 1102 Q699 1102 726.5 1099 Q754 1096 770 1090 L768 795 Q743 798 713 800.5 Q683 803 657 803 Q480 803 424 693 L424 0 L131 0 L131 1082 Z " />
<g transform="translate(32,-359)" >
<path fill="black" d="M-770 -475 Q-752 -449 -736.5 -422.5 Q-721 -396 -710.5 -366.5 Q-700 -337 -694 -302.5 Q-688 -268 -688 -226 L-688 -143 L-462 -143 L-462 -210 Q-462 -257 -473.5 -304.5 Q-485 -352 -506 -396.5 Q-527 -441 -556.5 -480 Q-586 -519 -622 -549 L-770 -475 Z " />
</g>
</glyph>
<glyph glyph-name="Rcaron" unicode="&#x158;" horiz-adv-x="1403" >
<path fill="black" d="M155 1456 L724 1456 Q860 1456 966.5 1427.5 Q1073 1399 1146.5 1343.5 Q1220 1288 1259 1206 Q1298 1124 1298 1017 Q1298 936 1278.5 872 Q1259 808 1223 758.5 Q1187 709 1135 672 Q1083 635 1017 608 L1359 15 L1359 0 L1033 0 L732 539 L459 539 L459 0 L155 0 L155 1456 Z M459 778 L723 778 Q858 778 925.5 835.5 Q993 893 993 989 Q993 1089 928.5 1146 Q864 1203 724 1203 L459 1203 L459 778 Z " />
<g transform="translate(136,310)" >
<path fill="black" d="M113 1536 L361 1536 L517 1396 L674 1536 L925 1536 L925 1525 L609 1244 L426 1244 L113 1527 L113 1536 Z " />
</g>
</glyph>
<glyph glyph-name="rcaron" unicode="&#x159;" horiz-adv-x="803" >
<path fill="black" d="M131 1082 L410 1082 L417 960 Q460 1027 524.5 1064.5 Q589 1102 676 1102 Q699 1102 726.5 1099 Q754 1096 770 1090 L768 795 Q743 798 713 800.5 Q683 803 657 803 Q480 803 424 693 L424 0 L131 0 L131 1082 Z " />
<g transform="translate(-71,0)" >
<path fill="black" d="M113 1536 L361 1536 L517 1396 L674 1536 L925 1536 L925 1525 L609 1244 L426 1244 L113 1527 L113 1536 Z " />
</g>
</glyph>
<glyph glyph-name="Sacute" unicode="&#x15a;" horiz-adv-x="1356" >
<path fill="black" d="M388 465 Q388 399 411.5 353.5 Q435 308 477.5 280 Q520 252 579 239.5 Q638 227 708 227 Q774 227 822.5 239 Q871 251 903 272.5 Q935 294 951 322.5 Q967 351 967 384 Q967 421 954.5 450 Q942 479 907 504.5 Q872 530 810.5 554.5 Q749 579 651 607 Q542 639 447 679 Q352 719 282 774 Q212 829 172 901 Q132 973 132 1069 Q132 1162 173 1237 Q214 1312 288.5 1365.5 Q363 1419 467.5 1447.5 Q572 1476 699 1476 Q834 1476 940 1443.5 Q1046 1411 1119 1352 Q1192 1293 1230.5 1210 Q1269 1127 1269 1026 L967 1026 Q967 1070 951 1107 Q935 1144 901.5 1171 Q868 1198 816.5 1213 Q765 1228 695 1228 Q629 1228 580.5 1215 Q532 1202 499.5 1180.5 Q467 1159 451.5 1130 Q436 1101 436 1068 Q436 998 516.5 951.5 Q597 905 754 864 Q882 828 979 783 Q1076 738 1141 680.5 Q1206 623 1239 551.5 Q1272 480 1272 390 Q1272 291 1232.5 214.5 Q1193 138 1120 86 Q1047 34 942.5 7 Q838 -20 708 -20 Q590 -20 478 8 Q366 36 278.5 95.5 Q191 155 138 246.5 Q85 338 85 465 L388 465 Z " />
<g transform="translate(430,311)" >
<path fill="black" d="M338 1536 L665 1536 L359 1225 L120 1225 L338 1536 Z " />
</g>
</glyph>
<glyph glyph-name="sacute" unicode="&#x15b;" horiz-adv-x="1149" >
<path fill="black" d="M354 342 Q357 301 377 272 Q397 243 428.5 225 Q460 207 500 199 Q540 191 584 191 Q673 191 722 220.5 Q771 250 771 298 Q771 327 753.5 346 Q736 365 703.5 379.5 Q671 394 626 406 Q581 418 527 432 Q434 455 358 483 Q282 511 228 550 Q174 589 144 642 Q114 695 114 769 Q114 836 141 896.5 Q168 957 225 1002.5 Q282 1048 370 1075 Q458 1102 581 1102 Q700 1102 788 1076.5 Q876 1051 934.5 1005.5 Q993 960 1022 896 Q1051 832 1051 755 L761 755 Q761 818 715.5 855 Q670 892 575 892 Q485 892 441 862 Q397 832 397 784 Q397 755 413 735.5 Q429 716 459 701.5 Q489 687 531.5 676 Q574 665 627 653 Q702 636 778.5 615 Q855 594 917 558 Q979 522 1018 464.5 Q1057 407 1057 317 Q1057 242 1027.5 180 Q998 118 938.5 73.5 Q879 29 790.5 4.5 Q702 -20 583 -20 Q445 -20 349 12 Q253 44 192 95.5 Q131 147 103.5 211.5 Q76 276 76 342 L354 342 Z " />
<g transform="translate(321,0)" >
<path fill="black" d="M338 1536 L665 1536 L359 1225 L120 1225 L338 1536 Z " />
</g>
</glyph>
<glyph glyph-name="Scedilla" unicode="&#x15e;" horiz-adv-x="1356" d="M591 -293 Q647 -293 684 -274.5 Q721 -256 721 -212 Q721 -172 684.5 -156.5 Q648 -141 564 -136 L593 -13 Q492 -1 400 33.5 Q308 68 238 126.5 Q168 185 126.5 269.5 Q85 354 85 465 L388 465 Q388 399 411.5 353.5 Q435 308 477.5 280 Q520 252 579 239.5 Q638 227 708 227 Q774 227 822.5 239 Q871 251 903 272.5 Q935 294 951 322.5 Q967 351 967 384 Q967 421 954.5 450 Q942 479 907 504.5 Q872 530 810.5 554.5 Q749 579 651 607 Q542 639 447 679 Q352 719 282 774 Q212 829 172 901 Q132 973 132 1069 Q132 1162 173 1237 Q214 1312 288.5 1365.5 Q363 1419 467.5 1447.5 Q572 1476 699 1476 Q834 1476 940 1443.5 Q1046 1411 1119 1352 Q1192 1293 1230.5 1210 Q1269 1127 1269 1026 L967 1026 Q967 1070 951 1107 Q935 1144 901.5 1171 Q868 1198 816.5 1213 Q765 1228 695 1228 Q629 1228 580.5 1215 Q532 1202 499.5 1180.5 Q467 1159 451.5 1130 Q436 1101 436 1068 Q436 998 516.5 951.5 Q597 905 754 864 Q882 828 979 783 Q1076 738 1141 680.5 Q1206 623 1239 551.5 Q1272 480 1272 390 Q1272 301 1240 230 Q1208 159 1148.5 108 Q1089 57 1003 25.5 Q917 -6 809 -16 L802 -52 Q832 -57 861 -68.5 Q890 -80 912.5 -100.5 Q935 -121 949 -151.5 Q963 -182 963 -225 Q963 -279 940 -324 Q917 -369 871 -400.5 Q825 -432 756.5 -449.5 Q688 -467 598 -467 L591 -293 Z " />
<glyph glyph-name="scedilla" unicode="&#x15f;" horiz-adv-x="1149" d="M477 -303 Q533 -303 570 -284.5 Q607 -266 607 -222 Q607 -182 570.5 -166.5 Q534 -151 450 -146 L481 -15 Q372 -3 295 32 Q218 67 169.5 116 Q121 165 98.5 224 Q76 283 76 342 L354 342 Q357 301 377 272 Q397 243 428.5 225 Q460 207 500 199 Q540 191 584 191 Q673 191 722 220.5 Q771 250 771 298 Q771 327 753.5 346 Q736 365 703.5 379.5 Q671 394 626 406 Q581 418 527 432 Q434 455 358 483 Q282 511 228 550 Q174 589 144 642 Q114 695 114 769 Q114 836 141 896.5 Q168 957 225 1002.5 Q282 1048 370 1075 Q458 1102 581 1102 Q700 1102 788 1076.5 Q876 1051 934.5 1005.5 Q993 960 1022 896 Q1051 832 1051 755 L761 755 Q761 818 715.5 855 Q670 892 575 892 Q485 892 441 862 Q397 832 397 784 Q397 755 413 735.5 Q429 716 459 701.5 Q489 687 531.5 676 Q574 665 627 653 Q702 636 778.5 615 Q855 594 917 558 Q979 522 1018 464.5 Q1057 407 1057 317 Q1057 252 1034.5 196 Q1012 140 967 97.5 Q922 55 855 26.5 Q788 -2 698 -13 L688 -62 Q718 -67 747 -78.5 Q776 -90 798.5 -110.5 Q821 -131 835 -161.5 Q849 -192 849 -235 Q849 -289 826 -334 Q803 -379 757 -410.5 Q711 -442 642.5 -459.5 Q574 -477 484 -477 L477 -303 Z " />
<glyph glyph-name="Scaron" unicode="&#x160;" horiz-adv-x="1356" >
<path fill="black" d="M388 465 Q388 399 411.5 353.5 Q435 308 477.5 280 Q520 252 579 239.5 Q638 227 708 227 Q774 227 822.5 239 Q871 251 903 272.5 Q935 294 951 322.5 Q967 351 967 384 Q967 421 954.5 450 Q942 479 907 504.5 Q872 530 810.5 554.5 Q749 579 651 607 Q542 639 447 679 Q352 719 282 774 Q212 829 172 901 Q132 973 132 1069 Q132 1162 173 1237 Q214 1312 288.5 1365.5 Q363 1419 467.5 1447.5 Q572 1476 699 1476 Q834 1476 940 1443.5 Q1046 1411 1119 1352 Q1192 1293 1230.5 1210 Q1269 1127 1269 1026 L967 1026 Q967 1070 951 1107 Q935 1144 901.5 1171 Q868 1198 816.5 1213 Q765 1228 695 1228 Q629 1228 580.5 1215 Q532 1202 499.5 1180.5 Q467 1159 451.5 1130 Q436 1101 436 1068 Q436 998 516.5 951.5 Q597 905 754 864 Q882 828 979 783 Q1076 738 1141 680.5 Q1206 623 1239 551.5 Q1272 480 1272 390 Q1272 291 1232.5 214.5 Q1193 138 1120 86 Q1047 34 942.5 7 Q838 -20 708 -20 Q590 -20 478 8 Q366 36 278.5 95.5 Q191 155 138 246.5 Q85 338 85 465 L388 465 Z " />
<g transform="translate(178,311)" >
<path fill="black" d="M113 1536 L361 1536 L517 1396 L674 1536 L925 1536 L925 1525 L609 1244 L426 1244 L113 1527 L113 1536 Z " />
</g>
</glyph>
<glyph glyph-name="scaron" unicode="&#x161;" horiz-adv-x="1149" >
<path fill="black" d="M354 342 Q357 301 377 272 Q397 243 428.5 225 Q460 207 500 199 Q540 191 584 191 Q673 191 722 220.5 Q771 250 771 298 Q771 327 753.5 346 Q736 365 703.5 379.5 Q671 394 626 406 Q581 418 527 432 Q434 455 358 483 Q282 511 228 550 Q174 589 144 642 Q114 695 114 769 Q114 836 141 896.5 Q168 957 225 1002.5 Q282 1048 370 1075 Q458 1102 581 1102 Q700 1102 788 1076.5 Q876 1051 934.5 1005.5 Q993 960 1022 896 Q1051 832 1051 755 L761 755 Q761 818 715.5 855 Q670 892 575 892 Q485 892 441 862 Q397 832 397 784 Q397 755 413 735.5 Q429 716 459 701.5 Q489 687 531.5 676 Q574 665 627 653 Q702 636 778.5 615 Q855 594 917 558 Q979 522 1018 464.5 Q1057 407 1057 317 Q1057 242 1027.5 180 Q998 118 938.5 73.5 Q879 29 790.5 4.5 Q702 -20 583 -20 Q445 -20 349 12 Q253 44 192 95.5 Q131 147 103.5 211.5 Q76 276 76 342 L354 342 Z " />
<g transform="translate(69,0)" >
<path fill="black" d="M113 1536 L361 1536 L517 1396 L674 1536 L925 1536 L925 1525 L609 1244 L426 1244 L113 1527 L113 1536 Z " />
</g>
</glyph>
<glyph glyph-name="uni0162" unicode="&#x162;" horiz-adv-x="1364" d="M569 -284 Q625 -284 662 -265.5 Q699 -247 699 -203 Q699 -163 662.5 -147.5 Q626 -132 542 -127 L572 0 L528 0 L528 1203 L51 1203 L51 1456 L1312 1456 L1312 1203 L832 1203 L832 0 L788 0 L780 -43 Q810 -48 839 -59.5 Q868 -71 890.5 -91.5 Q913 -112 927 -142.5 Q941 -173 941 -216 Q941 -270 918 -315 Q895 -360 849 -391.5 Q803 -423 734.5 -440.5 Q666 -458 576 -458 L569 -284 Z " />
<glyph glyph-name="uni0163" unicode="&#x163;" horiz-adv-x="754" d="M369 -293 Q425 -293 462 -274.5 Q499 -256 499 -212 Q499 -172 462.5 -156.5 Q426 -141 342 -136 L374 2 Q291 31 243.5 104.5 Q196 178 196 305 L196 863 L15 863 L15 1082 L196 1082 L196 1351 L488 1351 L488 1082 L688 1082 L688 863 L488 863 L488 341 Q488 307 496 285 Q504 263 519.5 250 Q535 237 557 232 Q579 227 607 227 Q634 227 658 229 Q682 231 698 234 L697 8 Q652 -9 587 -17 L580 -52 Q610 -57 639 -68.5 Q668 -80 690.5 -100.5 Q713 -121 727 -151.5 Q741 -182 741 -225 Q741 -279 718 -324 Q695 -369 649 -400.5 Q603 -432 534.5 -449.5 Q466 -467 376 -467 L369 -293 Z " />
<glyph glyph-name="Tcaron" unicode="&#x164;" horiz-adv-x="1364" >
<path fill="black" d="M528 1203 L51 1203 L51 1456 L1312 1456 L1312 1203 L832 1203 L832 0 L528 0 L528 1203 Z " />
<g transform="translate(159,310)" >
<path fill="black" d="M113 1536 L361 1536 L517 1396 L674 1536 L925 1536 L925 1525 L609 1244 L426 1244 L113 1527 L113 1536 Z " />
</g>
</glyph>
<glyph glyph-name="tcaron" unicode="&#x165;" horiz-adv-x="717" d="M196 863 L15 863 L15 1031 Q-5 976 -39 927 Q-73 878 -117 842 L-265 916 Q-247 942 -231.5 968.5 Q-216 995 -205.5 1024.5 Q-195 1054 -189 1088.5 Q-183 1123 -183 1165 L-183 1248 L43 1248 L43 1181 Q43 1132 31 1082 L196 1082 L196 1351 L488 1351 L488 1082 L688 1082 L688 863 L488 863 L488 341 Q488 307 496 285 Q504 263 519.5 250 Q535 237 557 232 Q579 227 607 227 Q634 227 658 229 Q682 231 698 234 L697 8 Q662 -6 618 -13 Q574 -20 516 -20 Q444 -20 385 -2 Q326 16 284 55.5 Q242 95 219 156.5 Q196 218 196 305 L196 863 Z " />
<glyph glyph-name="Tbar" unicode="&#x166;" horiz-adv-x="1364" d="M528 737 L300 737 L300 920 L528 920 L528 1203 L51 1203 L51 1456 L1312 1456 L1312 1203 L832 1203 L832 920 L1040 920 L1040 737 L832 737 L832 0 L528 0 L528 737 Z " />
<glyph glyph-name="tbar" unicode="&#x167;" horiz-adv-x="754" d="M196 521 L-25 521 L-25 704 L196 704 L196 863 L15 863 L15 1082 L196 1082 L196 1351 L488 1351 L488 1082 L688 1082 L688 863 L488 863 L488 704 L715 704 L715 521 L488 521 L488 341 Q488 307 496 285 Q504 263 519.5 250 Q535 237 557 232 Q579 227 607 227 Q634 227 658 229 Q682 231 698 234 L697 8 Q662 -6 618 -13 Q574 -20 516 -20 Q444 -20 385 -2 Q326 16 284 55.5 Q242 95 219 156.5 Q196 218 196 305 L196 521 Z " />
<glyph glyph-name="Utilde" unicode="&#x168;" horiz-adv-x="1456" >
<path fill="black" d="M134 1456 L438 1456 L438 491 Q438 420 458 370.5 Q478 321 515.5 290.5 Q553 260 607 246 Q661 232 728 232 Q796 232 850 246 Q904 260 941.5 290.5 Q979 321 998.5 370.5 Q1018 420 1018 491 L1018 1456 L1324 1456 L1324 491 Q1324 364 1278.5 268 Q1233 172 1152.5 108 Q1072 44 963 12 Q854 -20 728 -20 Q599 -20 490 12 Q381 44 302 108 Q223 172 178.5 268 Q134 364 134 491 L134 1456 Z " />
<g transform="translate(187,306)" >
<path fill="black" d="M136 1262 Q136 1315 154.5 1363.5 Q173 1412 205 1449 Q237 1486 282 1508 Q327 1530 379 1530 Q422 1530 458 1516.5 Q494 1503 528 1487.5 Q562 1472 596.5 1458.5 Q631 1445 672 1445 Q711 1445 738.5 1468 Q766 1491 766 1538 L938 1527 Q938 1473 920 1424.5 Q902 1376 869.5 1339.5 Q837 1303 792.5 1281.5 Q748 1260 695 1260 Q643 1260 606.5 1273.5 Q570 1287 539 1303 Q508 1319 476.5 1332.5 Q445 1346 402 1346 Q364 1346 337 1322.5 Q310 1299 310 1253 L136 1262 Z " />
</g>
</glyph>
<glyph glyph-name="utilde" unicode="&#x169;" horiz-adv-x="1242" >
<path fill="black" d="M124 1082 L417 1082 L417 381 Q417 340 430.5 310 Q444 280 467 261 Q490 242 521 233 Q552 224 588 224 Q679 224 735.5 251 Q792 278 821 325 L821 1082 L1114 1082 L1114 0 L839 0 L832 107 Q778 47 698 13.5 Q618 -20 510 -20 Q424 -20 353 2.5 Q282 25 231 74 Q180 123 152 199 Q124 275 124 383 L124 1082 Z " />
<g transform="translate(82,-4)" >
<path fill="black" d="M136 1262 Q136 1315 154.5 1363.5 Q173 1412 205 1449 Q237 1486 282 1508 Q327 1530 379 1530 Q422 1530 458 1516.5 Q494 1503 528 1487.5 Q562 1472 596.5 1458.5 Q631 1445 672 1445 Q711 1445 738.5 1468 Q766 1491 766 1538 L938 1527 Q938 1473 920 1424.5 Q902 1376 869.5 1339.5 Q837 1303 792.5 1281.5 Q748 1260 695 1260 Q643 1260 606.5 1273.5 Q570 1287 539 1303 Q508 1319 476.5 1332.5 Q445 1346 402 1346 Q364 1346 337 1322.5 Q310 1299 310 1253 L136 1262 Z " />
</g>
</glyph>
<glyph glyph-name="Umacron" unicode="&#x16a;" horiz-adv-x="1456" >
<path fill="black" d="M134 1456 L438 1456 L438 491 Q438 420 458 370.5 Q478 321 515.5 290.5 Q553 260 607 246 Q661 232 728 232 Q796 232 850 246 Q904 260 941.5 290.5 Q979 321 998.5 370.5 Q1018 420 1018 491 L1018 1456 L1324 1456 L1324 491 Q1324 364 1278.5 268 Q1233 172 1152.5 108 Q1072 44 963 12 Q854 -20 728 -20 Q599 -20 490 12 Q381 44 302 108 Q223 172 178.5 268 Q134 364 134 491 L134 1456 Z " />
<g transform="translate(174,306)" >
<path fill="black" d="M182 1289 L182 1456 L926 1456 L926 1289 L182 1289 Z " />
</g>
</glyph>
<glyph glyph-name="umacron" unicode="&#x16b;" horiz-adv-x="1242" d="M124 1082 L417 1082 L417 381 Q417 340 430.5 310 Q444 280 467 261 Q490 242 521 233 Q552 224 588 224 Q679 224 735.5 251 Q792 278 821 325 L821 1082 L1114 1082 L1114 0 L839 0 L832 107 Q778 47 698 13.5 Q618 -20 510 -20 Q424 -20 353 2.5 Q282 25 231 74 Q180 123 152 199 Q124 275 124 383 L124 1082 Z M251 1452 L995 1452 L995 1285 L251 1285 L251 1452 Z " />
<glyph glyph-name="Uring" unicode="&#x16e;" horiz-adv-x="1456" >
<path fill="black" d="M134 1456 L438 1456 L438 491 Q438 420 458 370.5 Q478 321 515.5 290.5 Q553 260 607 246 Q661 232 728 232 Q796 232 850 246 Q904 260 941.5 290.5 Q979 321 998.5 370.5 Q1018 420 1018 491 L1018 1456 L1324 1456 L1324 491 Q1324 364 1278.5 268 Q1233 172 1152.5 108 Q1072 44 963 12 Q854 -20 728 -20 Q599 -20 490 12 Q381 44 302 108 Q223 172 178.5 268 Q134 364 134 491 L134 1456 Z " />
<g transform="translate(345,419)" >
<path fill="black" d="M136 1309 Q136 1350 154.5 1387 Q173 1424 206 1452 Q239 1480 284 1496 Q329 1512 382 1512 Q435 1512 480 1496 Q525 1480 557.5 1452 Q590 1424 608.5 1387 Q627 1350 627 1309 Q627 1268 608.5 1231.5 Q590 1195 557.5 1168 Q525 1141 480 1125.5 Q435 1110 382 1110 Q329 1110 284 1125.5 Q239 1141 206 1168 Q173 1195 154.5 1231.5 Q136 1268 136 1309 Z M261 1309 Q261 1265 294 1234.5 Q327 1204 382 1204 Q437 1204 470 1234 Q503 1264 503 1309 Q503 1354 470 1385.5 Q437 1417 382 1417 Q327 1417 294 1385.5 Q261 1354 261 1309 Z " />
</g>
</glyph>
<glyph glyph-name="uring" unicode="&#x16f;" horiz-adv-x="1242" >
<path fill="black" d="M124 1082 L417 1082 L417 381 Q417 340 430.5 310 Q444 280 467 261 Q490 242 521 233 Q552 224 588 224 Q679 224 735.5 251 Q792 278 821 325 L821 1082 L1114 1082 L1114 0 L839 0 L832 107 Q778 47 698 13.5 Q618 -20 510 -20 Q424 -20 353 2.5 Q282 25 231 74 Q180 123 152 199 Q124 275 124 383 L124 1082 Z " />
<g transform="translate(240,109)" >
<path fill="black" d="M136 1309 Q136 1350 154.5 1387 Q173 1424 206 1452 Q239 1480 284 1496 Q329 1512 382 1512 Q435 1512 480 1496 Q525 1480 557.5 1452 Q590 1424 608.5 1387 Q627 1350 627 1309 Q627 1268 608.5 1231.5 Q590 1195 557.5 1168 Q525 1141 480 1125.5 Q435 1110 382 1110 Q329 1110 284 1125.5 Q239 1141 206 1168 Q173 1195 154.5 1231.5 Q136 1268 136 1309 Z M261 1309 Q261 1265 294 1234.5 Q327 1204 382 1204 Q437 1204 470 1234 Q503 1264 503 1309 Q503 1354 470 1385.5 Q437 1417 382 1417 Q327 1417 294 1385.5 Q261 1354 261 1309 Z " />
</g>
</glyph>
<glyph glyph-name="Uhungarumlaut" unicode="&#x170;" horiz-adv-x="1456" d="M134 1456 L438 1456 L438 491 Q438 420 458 370.5 Q478 321 515.5 290.5 Q553 260 607 246 Q661 232 728 232 Q796 232 850 246 Q904 260 941.5 290.5 Q979 321 998.5 370.5 Q1018 420 1018 491 L1018 1456 L1324 1456 L1324 491 Q1324 364 1278.5 268 Q1233 172 1152.5 108 Q1072 44 963 12 Q854 -20 728 -20 Q599 -20 490 12 Q381 44 302 108 Q223 172 178.5 268 Q134 364 134 491 L134 1456 Z M1012 1845 L1284 1845 L999 1545 L771 1545 L1012 1845 Z M600 1845 L867 1845 L624 1545 L408 1545 L600 1845 Z " />
<glyph glyph-name="uhungarumlaut" unicode="&#x171;" horiz-adv-x="1242" d="M124 1082 L417 1082 L417 381 Q417 340 430.5 310 Q444 280 467 261 Q490 242 521 233 Q552 224 588 224 Q679 224 735.5 251 Q792 278 821 325 L821 1082 L1114 1082 L1114 0 L839 0 L832 107 Q778 47 698 13.5 Q618 -20 510 -20 Q424 -20 353 2.5 Q282 25 231 74 Q180 123 152 199 Q124 275 124 383 L124 1082 Z M666 1235 L907 1535 L1179 1535 L894 1235 L666 1235 Z M495 1535 L762 1535 L519 1235 L303 1235 L495 1535 Z " />
<glyph glyph-name="Uogonek" unicode="&#x172;" horiz-adv-x="1456" d="M134 1456 L438 1456 L438 491 Q438 420 458 370.5 Q478 321 515.5 290.5 Q553 260 607 246 Q661 232 728 232 Q796 232 850 246 Q904 260 941.5 290.5 Q979 321 998.5 370.5 Q1018 420 1018 491 L1018 1456 L1324 1456 L1324 491 Q1324 400 1300.5 325.5 Q1277 251 1234 192.5 Q1191 134 1130.5 91.5 Q1070 49 996 23 Q954 -5 931.5 -34 Q909 -63 909 -99 Q909 -126 925.5 -144.5 Q942 -163 982 -163 Q1014 -163 1035.5 -156.5 Q1057 -150 1072 -144 L1100 -304 Q1073 -319 1030 -333.5 Q987 -348 921 -348 Q872 -348 828.5 -334.5 Q785 -321 752.5 -294.5 Q720 -268 701.5 -228.5 Q683 -189 683 -138 Q683 -107 691 -78 Q699 -49 718 -20 Q591 -19 484 13.5 Q377 46 299 110 Q221 174 177.5 269.5 Q134 365 134 491 L134 1456 Z " />
<glyph glyph-name="uogonek" unicode="&#x173;" horiz-adv-x="1242" d="M124 1082 L417 1082 L417 381 Q417 340 430.5 310 Q444 280 467 261 Q490 242 521 233 Q552 224 588 224 Q679 224 735.5 251 Q792 278 821 325 L821 1082 L1114 1082 L1114 0 L1085 0 Q1046 -21 1015 -40.5 Q984 -60 962 -80 Q940 -100 928 -122 Q916 -144 916 -170 Q916 -197 932.5 -215.5 Q949 -234 989 -234 Q1021 -234 1042.5 -227.5 Q1064 -221 1079 -215 L1107 -375 Q1080 -390 1037 -404.5 Q994 -419 928 -419 Q879 -419 835.5 -405.5 Q792 -392 759.5 -365.5 Q727 -339 708.5 -299.5 Q690 -260 690 -209 Q690 -151 723 -95.5 Q756 -40 838 9 L832 107 Q778 47 698 13.5 Q618 -20 510 -20 Q424 -20 353 2.5 Q282 25 231 74 Q180 123 152 199 Q124 275 124 383 L124 1082 Z " />
<glyph glyph-name="Wcircumflex" unicode="&#x174;" horiz-adv-x="1944" >
<path fill="black" d="M51 1456 L353 1456 L574 442 L834 1456 L1122 1456 L1392 420 L1599 1456 L1901 1456 L1551 0 L1228 0 L978 1033 L725 0 L402 0 L51 1456 Z " />
<g transform="translate(440,310)" >
<path fill="black" d="M152 1260 L459 1536 L629 1536 L939 1257 L939 1244 L707 1244 L544 1385 L382 1244 L152 1244 L152 1260 Z " />
</g>
</glyph>
<glyph glyph-name="wcircumflex" unicode="&#x175;" horiz-adv-x="1641" >
<path fill="black" d="M38 1082 L322 1082 L489 401 L710 1082 L926 1082 L1148 393 L1314 1082 L1598 1082 L1292 0 L1049 0 L817 679 L588 0 L345 0 L38 1082 Z " />
<g transform="translate(273,0)" >
<path fill="black" d="M152 1260 L459 1536 L629 1536 L939 1257 L939 1244 L707 1244 L544 1385 L382 1244 L152 1244 L152 1260 Z " />
</g>
</glyph>
<glyph glyph-name="Ycircumflex" unicode="&#x176;" horiz-adv-x="1367" >
<path fill="black" d="M529 526 L11 1456 L346 1456 L683 787 L1019 1456 L1355 1456 L836 526 L836 0 L529 0 L529 526 Z " />
<g transform="translate(142,310)" >
<path fill="black" d="M152 1260 L459 1536 L629 1536 L939 1257 L939 1244 L707 1244 L544 1385 L382 1244 L152 1244 L152 1260 Z " />
</g>
</glyph>
<glyph glyph-name="ycircumflex" unicode="&#x177;" horiz-adv-x="1103" >
<path fill="black" d="M124 -192 Q135 -191 148.5 -191.5 Q162 -192 172 -192 Q219 -192 253.5 -185 Q288 -178 313.5 -164 Q339 -150 356.5 -129 Q374 -108 387 -79 L422 -9 L14 1082 L330 1082 L555 343 L776 1082 L1090 1082 L625 -162 Q610 -203 584 -251 Q558 -299 515.5 -340 Q473 -381 410 -409 Q347 -437 257 -437 Q219 -437 187.5 -432.5 Q156 -428 124 -418 L124 -192 Z " />
<g transform="translate(19,0)" >
<path fill="black" d="M152 1260 L459 1536 L629 1536 L939 1257 L939 1244 L707 1244 L544 1385 L382 1244 L152 1244 L152 1260 Z " />
</g>
</glyph>
<glyph glyph-name="Ydieresis" unicode="&#x178;" horiz-adv-x="1367" >
<g transform="translate(171,310)" >
<path fill="black" d="M104 1367 Q104 1394 114.5 1417.5 Q125 1441 144 1458 Q163 1475 190 1485 Q217 1495 250 1495 Q283 1495 310 1485 Q337 1475 356.5 1458 Q376 1441 386.5 1417.5 Q397 1394 397 1367 Q397 1340 386.5 1316.5 Q376 1293 356.5 1276 Q337 1259 310 1249 Q283 1239 250 1239 Q217 1239 190 1249 Q163 1259 144 1276 Q125 1293 114.5 1316.5 Q104 1340 104 1367 Z M628 1367 Q628 1394 638.5 1417.5 Q649 1441 668 1458 Q687 1475 714 1485 Q741 1495 774 1495 Q807 1495 834 1485 Q861 1475 880.5 1458 Q900 1441 910.5 1417.5 Q921 1394 921 1367 Q921 1340 910.5 1316.5 Q900 1293 880.5 1276 Q861 1259 834 1249 Q807 1239 774 1239 Q741 1239 714 1249 Q687 1259 668 1276 Q649 1293 638.5 1316.5 Q628 1340 628 1367 Z " />
</g>
<path fill="black" d="M529 526 L11 1456 L346 1456 L683 787 L1019 1456 L1355 1456 L836 526 L836 0 L529 0 L529 526 Z " />
</glyph>
<glyph glyph-name="Zacute" unicode="&#x179;" horiz-adv-x="1345" >
<path fill="black" d="M88 177 L857 1203 L91 1203 L91 1456 L1250 1456 L1250 1284 L483 252 L1271 252 L1271 0 L88 0 L88 177 Z " />
<g transform="translate(415,310)" >
<path fill="black" d="M338 1536 L665 1536 L359 1225 L120 1225 L338 1536 Z " />
</g>
</glyph>
<glyph glyph-name="zacute" unicode="&#x17a;" horiz-adv-x="1130" >
<path fill="black" d="M90 179 L634 839 L104 839 L104 1082 L1029 1082 L1029 909 L481 243 L1047 243 L1047 0 L90 0 L90 179 Z " />
<g transform="translate(301,0)" >
<path fill="black" d="M338 1536 L665 1536 L359 1225 L120 1225 L338 1536 Z " />
</g>
</glyph>
<glyph glyph-name="Zdotaccent" unicode="&#x17b;" horiz-adv-x="1345" >
<path fill="black" d="M88 177 L857 1203 L91 1203 L91 1456 L1250 1456 L1250 1284 L483 252 L1271 252 L1271 0 L88 0 L88 177 Z " />
<g transform="translate(385,330)" >
<path fill="black" d="M139 1378 Q139 1439 180.5 1478.5 Q222 1518 294 1518 Q366 1518 407.5 1478.5 Q449 1439 449 1378 Q449 1317 407.5 1277.5 Q366 1238 294 1238 Q222 1238 180.5 1277.5 Q139 1317 139 1378 Z " />
</g>
</glyph>
<glyph glyph-name="zdotaccent" unicode="&#x17c;" horiz-adv-x="1130" >
<path fill="black" d="M90 179 L634 839 L104 839 L104 1082 L1029 1082 L1029 909 L481 243 L1047 243 L1047 0 L90 0 L90 179 Z " />
<g transform="translate(271,20)" >
<path fill="black" d="M139 1378 Q139 1439 180.5 1478.5 Q222 1518 294 1518 Q366 1518 407.5 1478.5 Q449 1439 449 1378 Q449 1317 407.5 1277.5 Q366 1238 294 1238 Q222 1238 180.5 1277.5 Q139 1317 139 1378 Z " />
</g>
</glyph>
<glyph glyph-name="Zcaron" unicode="&#x17d;" horiz-adv-x="1345" >
<path fill="black" d="M88 177 L857 1203 L91 1203 L91 1456 L1250 1456 L1250 1284 L483 252 L1271 252 L1271 0 L88 0 L88 177 Z " />
<g transform="translate(163,310)" >
<path fill="black" d="M113 1536 L361 1536 L517 1396 L674 1536 L925 1536 L925 1525 L609 1244 L426 1244 L113 1527 L113 1536 Z " />
</g>
</glyph>
<glyph glyph-name="zcaron" unicode="&#x17e;" horiz-adv-x="1130" >
<path fill="black" d="M90 179 L634 839 L104 839 L104 1082 L1029 1082 L1029 909 L481 243 L1047 243 L1047 0 L90 0 L90 179 Z " />
<g transform="translate(49,0)" >
<path fill="black" d="M113 1536 L361 1536 L517 1396 L674 1536 L925 1536 L925 1525 L609 1244 L426 1244 L113 1527 L113 1536 Z " />
</g>
</glyph>
<glyph glyph-name="florin" unicode="&#x192;" horiz-adv-x="800" d="M-11 -182 Q-3 -184 10.5 -186.5 Q24 -189 38.5 -190.5 Q53 -192 67 -193 Q81 -194 90 -194 Q156 -194 184 -155.5 Q212 -117 212 -42 L212 863 L37 863 L37 1082 L212 1082 L212 1174 Q212 1267 240.5 1338.5 Q269 1410 322.5 1458.5 Q376 1507 453.5 1532 Q531 1557 629 1557 Q672 1557 713 1551 Q754 1545 797 1536 L771 1303 Q749 1308 724 1310.5 Q699 1313 666 1313 Q586 1313 545.5 1277.5 Q505 1242 505 1174 L505 1082 L722 1082 L722 863 L505 863 L505 -42 Q505 -138 478.5 -211.5 Q452 -285 402.5 -335 Q353 -385 281.5 -411 Q210 -437 120 -437 Q81 -437 46.5 -433.5 Q12 -430 -26 -420 L-11 -182 Z " />
<glyph glyph-name="Ohorn" unicode="&#x1a0;" horiz-adv-x="1397" d="M110 781 Q110 945 158 1074 Q206 1203 293 1292 Q380 1381 501 1428.5 Q622 1476 768 1476 Q920 1476 1043.5 1426 Q1167 1376 1255 1281 Q1324 1306 1351.5 1377.5 Q1379 1449 1379 1560 L1588 1560 Q1588 1395 1530 1288.5 Q1472 1182 1351 1139 Q1388 1064 1407.5 974.5 Q1427 885 1427 781 L1427 673 Q1427 510 1379.5 381 Q1332 252 1246 163 Q1160 74 1038.5 27 Q917 -20 770 -20 Q625 -20 503.5 27 Q382 74 294.5 163 Q207 252 158.5 381 Q110 510 110 673 L110 781 Z M416 673 Q416 459 510 347.5 Q604 236 770 236 Q940 236 1031 346.5 Q1122 457 1122 673 L1122 783 Q1122 1000 1029.5 1109.5 Q937 1219 768 1219 Q602 1219 509 1109.5 Q416 1000 416 783 L416 673 Z " />
<glyph glyph-name="ohorn" unicode="&#x1a1;" horiz-adv-x="1157" d="M85 560 Q85 681 122 780.5 Q159 880 229.5 951.5 Q300 1023 401 1062.5 Q502 1102 631 1102 Q766 1102 870 1060 Q974 1018 1045 942 Q1092 972 1107 1033 Q1122 1094 1122 1180 L1309 1180 Q1309 1048 1265.5 958 Q1222 868 1124 826 Q1180 711 1180 560 L1180 521 Q1180 400 1143 300.5 Q1106 201 1036 130 Q966 59 864 19.5 Q762 -20 633 -20 Q504 -20 402 19.5 Q300 59 229.5 130 Q159 201 122 300.5 Q85 400 85 521 L85 560 Z M377 521 Q377 455 392 400 Q407 345 438 305.5 Q469 266 517.5 244.5 Q566 223 633 223 Q700 223 748 244.5 Q796 266 827 305.5 Q858 345 872.5 400 Q887 455 887 521 L887 560 Q887 625 872.5 679.5 Q858 734 826.5 774 Q795 814 747 836.5 Q699 859 631 859 Q565 859 517 836.5 Q469 814 438 774 Q407 734 392 679.5 Q377 625 377 560 L377 521 Z " />
<glyph glyph-name="Uhorn" unicode="&#x1af;" horiz-adv-x="1417" d="M136 1456 L440 1456 L440 491 Q440 420 460 370.5 Q480 321 517.5 290.5 Q555 260 609 246 Q663 232 730 232 Q798 232 852 246 Q906 260 943.5 290.5 Q981 321 1000.5 370.5 Q1020 420 1020 491 L1020 1456 L1326 1456 L1326 1227 Q1395 1233 1436.5 1257 Q1478 1281 1500.5 1321 Q1523 1361 1530.5 1416 Q1538 1471 1538 1538 L1742 1538 Q1742 1431 1721 1346.5 Q1700 1262 1651.5 1202 Q1603 1142 1523 1108.5 Q1443 1075 1326 1069 L1326 491 Q1326 364 1280.5 268 Q1235 172 1154.5 108 Q1074 44 965 12 Q856 -20 730 -20 Q601 -20 492 12 Q383 44 304 108 Q225 172 180.5 268 Q136 364 136 491 L136 1456 Z " />
<glyph glyph-name="uhorn" unicode="&#x1b0;" horiz-adv-x="1211" d="M126 1082 L419 1082 L419 381 Q419 340 432.5 310 Q446 280 469 261 Q492 242 523 233 Q554 224 590 224 Q681 224 737.5 251 Q794 278 823 325 L823 1082 L1116 1082 L1116 939 Q1164 947 1192.5 966 Q1221 985 1235 1015 Q1249 1045 1253 1086 Q1257 1127 1257 1180 L1440 1180 Q1440 1094 1424 1026.5 Q1408 959 1370.5 911 Q1333 863 1270.5 835 Q1208 807 1116 798 L1116 0 L841 0 L834 107 Q780 47 700 13.5 Q620 -20 512 -20 Q426 -20 355 2.5 Q284 25 233 74 Q182 123 154 199 Q126 275 126 383 L126 1082 Z " />
<glyph glyph-name="uni0218" unicode="&#x218;" horiz-adv-x="1224" >
<path fill="black" d="M388 465 Q388 399 411.5 353.5 Q435 308 477.5 280 Q520 252 579 239.5 Q638 227 708 227 Q774 227 822.5 239 Q871 251 903 272.5 Q935 294 951 322.5 Q967 351 967 384 Q967 421 954.5 450 Q942 479 907 504.5 Q872 530 810.5 554.5 Q749 579 651 607 Q542 639 447 679 Q352 719 282 774 Q212 829 172 901 Q132 973 132 1069 Q132 1162 173 1237 Q214 1312 288.5 1365.5 Q363 1419 467.5 1447.5 Q572 1476 699 1476 Q834 1476 940 1443.5 Q1046 1411 1119 1352 Q1192 1293 1230.5 1210 Q1269 1127 1269 1026 L967 1026 Q967 1070 951 1107 Q935 1144 901.5 1171 Q868 1198 816.5 1213 Q765 1228 695 1228 Q629 1228 580.5 1215 Q532 1202 499.5 1180.5 Q467 1159 451.5 1130 Q436 1101 436 1068 Q436 998 516.5 951.5 Q597 905 754 864 Q882 828 979 783 Q1076 738 1141 680.5 Q1206 623 1239 551.5 Q1272 480 1272 390 Q1272 291 1232.5 214.5 Q1193 138 1120 86 Q1047 34 942.5 7 Q838 -20 708 -20 Q590 -20 478 8 Q366 36 278.5 95.5 Q191 155 138 246.5 Q85 338 85 465 L388 465 Z " />
<g transform="translate(405,-369)" >
<path fill="black" d="M-770 -475 Q-752 -449 -736.5 -422.5 Q-721 -396 -710.5 -366.5 Q-700 -337 -694 -302.5 Q-688 -268 -688 -226 L-688 -143 L-462 -143 L-462 -210 Q-462 -257 -473.5 -304.5 Q-485 -352 -506 -396.5 Q-527 -441 -556.5 -480 Q-586 -519 -622 -549 L-770 -475 Z " />
</g>
</glyph>
<glyph glyph-name="uni0219" unicode="&#x219;" horiz-adv-x="1022" >
<path fill="black" d="M354 342 Q357 301 377 272 Q397 243 428.5 225 Q460 207 500 199 Q540 191 584 191 Q673 191 722 220.5 Q771 250 771 298 Q771 327 753.5 346 Q736 365 703.5 379.5 Q671 394 626 406 Q581 418 527 432 Q434 455 358 483 Q282 511 228 550 Q174 589 144 642 Q114 695 114 769 Q114 836 141 896.5 Q168 957 225 1002.5 Q282 1048 370 1075 Q458 1102 581 1102 Q700 1102 788 1076.5 Q876 1051 934.5 1005.5 Q993 960 1022 896 Q1051 832 1051 755 L761 755 Q761 818 715.5 855 Q670 892 575 892 Q485 892 441 862 Q397 832 397 784 Q397 755 413 735.5 Q429 716 459 701.5 Q489 687 531.5 676 Q574 665 627 653 Q702 636 778.5 615 Q855 594 917 558 Q979 522 1018 464.5 Q1057 407 1057 317 Q1057 242 1027.5 180 Q998 118 938.5 73.5 Q879 29 790.5 4.5 Q702 -20 583 -20 Q445 -20 349 12 Q253 44 192 95.5 Q131 147 103.5 211.5 Q76 276 76 342 L354 342 Z " />
<g transform="translate(284,-379)" >
<path fill="black" d="M-770 -475 Q-752 -449 -736.5 -422.5 Q-721 -396 -710.5 -366.5 Q-700 -337 -694 -302.5 Q-688 -268 -688 -226 L-688 -143 L-462 -143 L-462 -210 Q-462 -257 -473.5 -304.5 Q-485 -352 -506 -396.5 Q-527 -441 -556.5 -480 Q-586 -519 -622 -549 L-770 -475 Z " />
</g>
</glyph>
<glyph glyph-name="uni021A" unicode="&#x21a;" horiz-adv-x="1232" >
<path fill="black" d="M528 1203 L51 1203 L51 1456 L1312 1456 L1312 1203 L832 1203 L832 0 L528 0 L528 1203 Z " />
<g transform="translate(384,-361)" >
<path fill="black" d="M-770 -475 Q-752 -449 -736.5 -422.5 Q-721 -396 -710.5 -366.5 Q-700 -337 -694 -302.5 Q-688 -268 -688 -226 L-688 -143 L-462 -143 L-462 -210 Q-462 -257 -473.5 -304.5 Q-485 -352 -506 -396.5 Q-527 -441 -556.5 -480 Q-586 -519 -622 -549 L-770 -475 Z " />
</g>
</glyph>
<glyph glyph-name="uni021B" unicode="&#x21b;" horiz-adv-x="678" >
<path fill="black" d="M196 863 L15 863 L15 1082 L196 1082 L196 1351 L488 1351 L488 1082 L688 1082 L688 863 L488 863 L488 341 Q488 307 496 285 Q504 263 519.5 250 Q535 237 557 232 Q579 227 607 227 Q634 227 658 229 Q682 231 698 234 L697 8 Q662 -6 618 -13 Q574 -20 516 -20 Q444 -20 385 -2 Q326 16 284 55.5 Q242 95 219 156.5 Q196 218 196 305 L196 863 Z " />
<g transform="translate(194,-369)" >
<path fill="black" d="M-770 -475 Q-752 -449 -736.5 -422.5 Q-721 -396 -710.5 -366.5 Q-700 -337 -694 -302.5 Q-688 -268 -688 -226 L-688 -143 L-462 -143 L-462 -210 Q-462 -257 -473.5 -304.5 Q-485 -352 -506 -396.5 Q-527 -441 -556.5 -480 Q-586 -519 -622 -549 L-770 -475 Z " />
</g>
</glyph>
<glyph glyph-name="uni0298" unicode="&#x298;" horiz-adv-x="1370" d="M110 781 Q110 945 158 1074 Q206 1203 293 1292 Q380 1381 501 1428.5 Q622 1476 768 1476 Q915 1476 1036.5 1428.5 Q1158 1381 1245 1292 Q1332 1203 1379.5 1074 Q1427 945 1427 781 L1427 673 Q1427 510 1379.5 381 Q1332 252 1246 163 Q1160 74 1038.5 27 Q917 -20 770 -20 Q625 -20 503.5 27 Q382 74 294.5 163 Q207 252 158.5 381 Q110 510 110 673 L110 781 Z M416 673 Q416 459 510 347.5 Q604 236 770 236 Q940 236 1031 346.5 Q1122 457 1122 673 L1122 783 Q1122 1000 1029.5 1109.5 Q937 1219 768 1219 Q602 1219 509 1109.5 Q416 1000 416 783 L416 673 Z M599 732 Q599 766 610.5 795.5 Q622 825 643.5 846.5 Q665 868 695.5 880 Q726 892 765 892 Q804 892 835 880 Q866 868 888 846.5 Q910 825 921.5 795.5 Q933 766 933 732 Q933 698 921.5 669 Q910 640 888 618.5 Q866 597 835 584.5 Q804 572 765 572 Q726 572 695.5 584.5 Q665 597 643.5 618.5 Q622 640 610.5 669 Q599 698 599 732 Z " />
<glyph glyph-name="uni02AA" unicode="&#x2aa;" horiz-adv-x="1403" d="M145 1536 L438 1536 L438 341 L438 340 Q512 300 584 273 Q656 246 722.5 229 Q789 212 846.5 204.5 Q904 197 947 197 Q1063 197 1114 223.5 Q1165 250 1165 301 Q1165 325 1153.5 344 Q1142 363 1114 378 Q1086 393 1040 406.5 Q994 420 925 433 Q833 451 756 478.5 Q679 506 623.5 546 Q568 586 537.5 639.5 Q507 693 507 765 Q507 833 538.5 894 Q570 955 629.5 1001.5 Q689 1048 774 1075 Q859 1102 966 1102 Q1078 1102 1166.5 1076.5 Q1255 1051 1316.5 1004.5 Q1378 958 1411 894 Q1444 830 1444 753 L1152 753 Q1152 816 1106 854 Q1060 892 965 892 Q878 892 834 860.5 Q790 829 790 780 Q790 752 804.5 732 Q819 712 848 697 Q877 682 921 671 Q965 660 1024 649 Q1129 630 1208.5 602.5 Q1288 575 1341.5 534.5 Q1395 494 1422.5 439 Q1450 384 1450 311 Q1450 240 1415.5 179.5 Q1381 119 1316.5 74.5 Q1252 30 1159 5 Q1066 -20 948 -20 Q875 -20 800 -12.5 Q725 -5 647 12 L647 8 Q612 -6 567.5 -13 Q523 -20 465 -20 Q394 -20 335 -2 Q276 16 234 55.5 Q192 95 168.5 156.5 Q145 218 145 305 L145 1536 Z " />
<glyph glyph-name="uni02AD" unicode="&#x2ad;" horiz-adv-x="1087" d="M103 585 L984 585 L984 0 L771 0 L771 410 L317 410 L317 0 L103 0 L103 585 Z M103 1456 L984 1456 L984 871 L771 871 L771 1281 L317 1281 L317 871 L103 871 L103 1456 Z " />
<glyph glyph-name="uni02AF" unicode="&#x2af;" horiz-adv-x="1529" d="M279 558 L278 558 L278 750 Q278 792 263.5 819.5 Q249 847 225 863 Q201 879 170 885.5 Q139 892 106 892 Q88 892 69.5 890 Q51 888 33 885 L33 1087 Q93 1102 181 1102 Q250 1102 319.5 1090 Q389 1078 445 1040.5 Q501 1003 536.5 933.5 Q572 864 572 750 L572 455 Q572 385 586 340.5 Q600 296 624.5 270 Q649 244 682.5 234 Q716 224 754 224 Q842 224 895 254 Q948 284 975 335 L975 1082 L1268 1082 L1268 -84 Q1268 -126 1282.5 -153.5 Q1297 -181 1321.5 -197 Q1346 -213 1377.5 -219.5 Q1409 -226 1442 -226 Q1459 -226 1478 -224 Q1497 -222 1514 -219 L1514 -421 Q1454 -436 1365 -436 Q1297 -436 1227.5 -424 Q1158 -412 1102 -374.5 Q1046 -337 1010.5 -268 Q975 -199 975 -84 L975 109 Q920 48 842.5 14 Q765 -20 664 -20 Q578 -20 507 7 Q436 34 385.5 91.5 Q335 149 307 239.5 Q279 330 279 457 L279 558 Z " />
<glyph glyph-name="uni02B5" unicode="&#x2b5;" horiz-adv-x="732" d="M49 875 Q96 860 156 860 Q257 860 298 925 L298 1456 L523 1456 L523 637 Q523 592 546 565 Q569 538 613 538 Q630 538 649 539.5 Q668 541 683 545 L683 353 Q640 348 600.5 344.5 Q561 341 523 341 Q467 341 424.5 353.5 Q382 366 354 396.5 Q326 427 312 479.5 Q298 532 298 612 L298 746 Q264 698 218 671 Q172 644 115 644 Q92 644 74 645.5 Q56 647 49 650 L49 875 Z " />
<glyph glyph-name="uni02B9" unicode="&#x2b9;" horiz-adv-x="496" d="M166 1562 L438 1562 L215 1212 L57 1212 L166 1562 Z " />
<glyph glyph-name="uni02BA" unicode="&#x2ba;" horiz-adv-x="881" >
<g transform="translate(2,0)" >
<path fill="black" d="M166 1562 L438 1562 L215 1212 L57 1212 L166 1562 Z " />
</g>
<g transform="translate(372,0)" >
<path fill="black" d="M166 1562 L438 1562 L215 1212 L57 1212 L166 1562 Z " />
</g>
</glyph>
<glyph glyph-name="uni02BB" unicode="&#x2bb;" horiz-adv-x="531" d="M92 1207 Q92 1259 107 1314 Q122 1369 148.5 1420.5 Q175 1472 211.5 1517 Q248 1562 291 1595 L439 1517 Q397 1456 372 1382 Q347 1308 347 1207 L347 1008 L92 1008 L92 1207 Z " />
<glyph glyph-name="uni02BC" unicode="&#x2bc;" horiz-adv-x="508" d="M67 1087 Q109 1145 136.5 1214 Q164 1283 164 1378 L164 1536 L407 1536 L407 1377 Q407 1328 392 1276 Q377 1224 350.5 1175 Q324 1126 288 1083.5 Q252 1041 209 1009 L67 1087 Z " />
<glyph glyph-name="uni02BD" unicode="&#x2bd;" horiz-adv-x="531" d="M291 1008 Q248 1041 211.5 1086 Q175 1131 148.5 1182.5 Q122 1234 107 1289 Q92 1344 92 1396 L92 1595 L347 1595 L347 1396 Q347 1295 372 1221.5 Q397 1148 439 1086 L291 1008 Z " />
<glyph glyph-name="uni02BE" unicode="&#x2be;" horiz-adv-x="371" d="M72 1237 Q117 1237 146.5 1263 Q176 1289 176 1331 Q176 1376 146.5 1402 Q117 1428 72 1428 L72 1524 Q120 1524 161 1509 Q202 1494 233 1468 Q264 1442 281.5 1407 Q299 1372 299 1331 Q299 1290 281.5 1255.5 Q264 1221 233 1196 Q202 1171 161 1157 Q120 1143 72 1143 L72 1237 Z " />
<glyph glyph-name="uni02BF" unicode="&#x2bf;" horiz-adv-x="371" d="M299 1143 Q252 1143 210.5 1157 Q169 1171 138.5 1196 Q108 1221 90 1255.5 Q72 1290 72 1331 Q72 1372 90 1407 Q108 1442 138.5 1468 Q169 1494 210.5 1509 Q252 1524 299 1524 L299 1428 Q253 1428 224 1402 Q195 1376 195 1331 Q195 1289 224 1263 Q253 1237 299 1237 L299 1143 Z " />
<glyph glyph-name="uni02C0" unicode="&#x2c0;" horiz-adv-x="834" d="M282 1033 L362 1033 Q413 1033 446 1046 Q479 1059 498.5 1083 Q518 1107 525.5 1141 Q533 1175 533 1217 L533 1413 Q533 1467 527 1507 Q521 1547 504.5 1574 Q488 1601 459 1614 Q430 1627 385 1627 Q350 1627 326 1619 Q302 1611 286.5 1597.5 Q271 1584 263 1565 Q255 1546 252 1524 L39 1524 Q40 1590 65 1643 Q90 1696 135 1733 Q180 1770 243 1789.5 Q306 1809 383 1809 Q478 1809 549.5 1782.5 Q621 1756 668.5 1705.5 Q716 1655 740 1583 Q764 1511 764 1419 L764 1227 Q764 1085 702 991.5 Q640 898 514 866 L514 652 L282 652 L282 1033 Z " />
<glyph glyph-name="uni02C1" unicode="&#x2c1;" horiz-adv-x="834" d="M321 866 Q194 898 132 991.5 Q70 1085 70 1227 L70 1419 Q70 1511 94 1583 Q118 1655 165.5 1705.5 Q213 1756 284.5 1782.5 Q356 1809 451 1809 Q529 1809 592 1789.5 Q655 1770 699.5 1733 Q744 1696 769 1643 Q794 1590 795 1524 L582 1524 Q577 1568 548 1597.5 Q519 1627 450 1627 Q405 1627 376 1614 Q347 1601 330.5 1574 Q314 1547 307.5 1507 Q301 1467 301 1413 L301 1217 Q301 1175 308.5 1141 Q316 1107 335.5 1083 Q355 1059 388 1046 Q421 1033 472 1033 L552 1033 L552 652 L321 652 L321 866 Z " />
<glyph glyph-name="uni02C2" unicode="&#x2c2;" horiz-adv-x="963" d="M77 1062 L886 1338 L886 1125 L410 969 L360 960 L410 950 L886 797 L886 584 L77 860 L77 1062 Z " />
<glyph glyph-name="uni02C3" unicode="&#x2c3;" horiz-adv-x="964" d="M79 797 L554 950 L604 960 L554 969 L79 1125 L79 1338 L887 1062 L887 860 L79 584 L79 797 Z " />
<glyph glyph-name="uni02C4" unicode="&#x2c4;" horiz-adv-x="939" d="M371 1341 L567 1341 L871 575 L651 575 L480 1020 L468 1077 L455 1020 L288 575 L67 575 L371 1341 Z " />
<glyph glyph-name="uni02C5" unicode="&#x2c5;" horiz-adv-x="937" d="M67 1341 L288 1341 L455 897 L468 840 L480 897 L651 1341 L871 1341 L567 575 L371 575 L67 1341 Z " />
<glyph glyph-name="circumflex" unicode="&#x2c6;" horiz-adv-x="1102" d="M152 1260 L459 1536 L629 1536 L939 1257 L939 1244 L707 1244 L544 1385 L382 1244 L152 1244 L152 1260 Z " />
<glyph glyph-name="caron" unicode="&#x2c7;" horiz-adv-x="1047" d="M113 1536 L361 1536 L517 1396 L674 1536 L925 1536 L925 1525 L609 1244 L426 1244 L113 1527 L113 1536 Z " />
<glyph glyph-name="uni02C8" unicode="&#x2c8;" horiz-adv-x="347" d="M77 1138 L77 1578 L270 1578 L270 1138 L77 1138 Z " />
<glyph glyph-name="uni02C9" unicode="&#x2c9;" horiz-adv-x="1102" >
<g transform="translate(2,0)" >
<path fill="black" d="M182 1289 L182 1456 L926 1456 L926 1289 L182 1289 Z " />
</g>
</glyph>
<glyph glyph-name="uni02CA" unicode="&#x2ca;" horiz-adv-x="718" >
<g transform="translate(-36,0)" >
<path fill="black" d="M338 1536 L665 1536 L359 1225 L120 1225 L338 1536 Z " />
</g>
</glyph>
<glyph glyph-name="uni02CB" unicode="&#x2cb;" horiz-adv-x="713" >
<g transform="translate(10,0)" >
<path fill="black" d="M359 1225 L56 1536 L383 1536 L601 1225 L359 1225 Z " />
</g>
</glyph>
<glyph glyph-name="uni02CC" unicode="&#x2cc;" horiz-adv-x="347" d="M77 -543 L77 -116 L270 -116 L270 -543 L77 -543 Z " />
<glyph glyph-name="uni02CD" unicode="&#x2cd;" horiz-adv-x="941" >
<g transform="translate(-82,-1626)" >
<path fill="black" d="M182 1289 L182 1456 L926 1456 L926 1289 L182 1289 Z " />
</g>
</glyph>
<glyph glyph-name="uni02CE" unicode="&#x2ce;" horiz-adv-x="713" >
<g transform="translate(10,-1601)" >
<path fill="black" d="M359 1225 L56 1536 L383 1536 L601 1225 L359 1225 Z " />
</g>
</glyph>
<glyph glyph-name="uni02CF" unicode="&#x2cf;" horiz-adv-x="718" >
<g transform="translate(-36,-1601)" >
<path fill="black" d="M338 1536 L665 1536 L359 1225 L120 1225 L338 1536 Z " />
</g>
</glyph>
<glyph glyph-name="uni02D0" unicode="&#x2d0;" horiz-adv-x="590" d="M117 0 L282 270 L307 270 L472 0 L117 0 Z M117 1081 L472 1081 L307 812 L282 812 L117 1081 Z " />
<glyph glyph-name="uni02D1" unicode="&#x2d1;" horiz-adv-x="590" d="M117 1081 L472 1081 L307 812 L282 812 L117 1081 Z " />
<glyph glyph-name="uni02D2" unicode="&#x2d2;" horiz-adv-x="371" >
<g transform="translate(2,-973)" >
<path fill="black" d="M72 1237 Q117 1237 146.5 1263 Q176 1289 176 1331 Q176 1376 146.5 1402 Q117 1428 72 1428 L72 1524 Q120 1524 161 1509 Q202 1494 233 1468 Q264 1442 281.5 1407 Q299 1372 299 1331 Q299 1290 281.5 1255.5 Q264 1221 233 1196 Q202 1171 161 1157 Q120 1143 72 1143 L72 1237 Z " />
</g>
</glyph>
<glyph glyph-name="uni02D3" unicode="&#x2d3;" horiz-adv-x="371" d="M299 170 Q252 170 210.5 184 Q169 198 138.5 223 Q108 248 90 283 Q72 318 72 359 Q72 400 90 435 Q108 470 138.5 495.5 Q169 521 210.5 536 Q252 551 299 551 L299 455 Q253 455 224 429 Q195 403 195 359 Q195 317 224 290.5 Q253 264 299 264 L299 170 Z " />
<glyph glyph-name="uni02D5" unicode="&#x2d5;" horiz-adv-x="678" d="M241 397 L92 397 L92 580 L586 580 L586 397 L437 397 L437 151 L241 151 L241 397 Z " />
<glyph glyph-name="uni02D6" unicode="&#x2d6;" horiz-adv-x="678" d="M241 271 L92 271 L92 454 L241 454 L241 629 L437 629 L437 454 L586 454 L586 271 L437 271 L437 96 L241 96 L241 271 Z " />
<glyph glyph-name="uni02D7" unicode="&#x2d7;" horiz-adv-x="691" d="M77 454 L614 454 L614 271 L77 271 L77 454 Z " />
<glyph glyph-name="breve" unicode="&#x2d8;" horiz-adv-x="1003" d="M338 1532 Q338 1507 346.5 1483 Q355 1459 373.5 1441 Q392 1423 422 1412 Q452 1401 495 1401 Q537 1401 566.5 1412 Q596 1423 614.5 1441 Q633 1459 641 1483 Q649 1507 649 1532 L865 1532 Q865 1466 839.5 1410.5 Q814 1355 766 1315 Q718 1275 649.5 1253 Q581 1231 495 1231 Q410 1231 341 1253 Q272 1275 223.5 1315 Q175 1355 149 1410.5 Q123 1466 123 1532 L338 1532 Z " />
<glyph glyph-name="dotaccent" unicode="&#x2d9;" horiz-adv-x="596" d="M139 1378 Q139 1439 180.5 1478.5 Q222 1518 294 1518 Q366 1518 407.5 1478.5 Q449 1439 449 1378 Q449 1317 407.5 1277.5 Q366 1238 294 1238 Q222 1238 180.5 1277.5 Q139 1317 139 1378 Z " />
<glyph glyph-name="ring" unicode="&#x2da;" horiz-adv-x="764" d="M136 1309 Q136 1350 154.5 1387 Q173 1424 206 1452 Q239 1480 284 1496 Q329 1512 382 1512 Q435 1512 480 1496 Q525 1480 557.5 1452 Q590 1424 608.5 1387 Q627 1350 627 1309 Q627 1268 608.5 1231.5 Q590 1195 557.5 1168 Q525 1141 480 1125.5 Q435 1110 382 1110 Q329 1110 284 1125.5 Q239 1141 206 1168 Q173 1195 154.5 1231.5 Q136 1268 136 1309 Z M261 1309 Q261 1265 294 1234.5 Q327 1204 382 1204 Q437 1204 470 1234 Q503 1264 503 1309 Q503 1354 470 1385.5 Q437 1417 382 1417 Q327 1417 294 1385.5 Q261 1354 261 1309 Z " />
<glyph glyph-name="ogonek" unicode="&#x2db;" horiz-adv-x="665" d="M462 -375 Q435 -390 392 -404.5 Q349 -419 283 -419 Q234 -419 190.5 -405.5 Q147 -392 114.5 -365.5 Q82 -339 63.5 -299.5 Q45 -260 45 -209 Q45 -172 57.5 -136 Q70 -100 99.5 -66 Q129 -32 177 -0.5 Q225 31 297 59 L440 0 Q401 -21 370 -40.5 Q339 -60 317 -80 Q295 -100 283 -122 Q271 -144 271 -170 Q271 -197 287.5 -215.5 Q304 -234 344 -234 Q376 -234 397.5 -227.5 Q419 -221 434 -215 L462 -375 Z " />
<glyph glyph-name="tilde" unicode="&#x2dc;" horiz-adv-x="1077" d="M136 1262 Q136 1315 154.5 1363.5 Q173 1412 205 1449 Q237 1486 282 1508 Q327 1530 379 1530 Q422 1530 458 1516.5 Q494 1503 528 1487.5 Q562 1472 596.5 1458.5 Q631 1445 672 1445 Q711 1445 738.5 1468 Q766 1491 766 1538 L938 1527 Q938 1473 920 1424.5 Q902 1376 869.5 1339.5 Q837 1303 792.5 1281.5 Q748 1260 695 1260 Q643 1260 606.5 1273.5 Q570 1287 539 1303 Q508 1319 476.5 1332.5 Q445 1346 402 1346 Q364 1346 337 1322.5 Q310 1299 310 1253 L136 1262 Z " />
<glyph glyph-name="hungarumlaut" unicode="&#x2dd;" horiz-adv-x="897" d="M679 1535 L951 1535 L666 1235 L438 1235 L679 1535 Z M267 1535 L534 1535 L291 1235 L75 1235 L267 1535 Z " />
<glyph glyph-name="uni02DE" unicode="&#x2de;" horiz-adv-x="552" d="M-204 754 L224 845 Q236 768 244.5 709 Q253 650 266.5 610.5 Q280 571 305 550.5 Q330 530 375 530 Q403 530 428 533 L470 333 Q436 314 395 303.5 Q354 293 310 293 Q237 293 190 314.5 Q143 336 112.5 375 Q82 414 62.5 468 Q43 522 25 587 L-204 535 L-204 754 Z " />
<glyph glyph-name="uni02DF" unicode="&#x2df;" horiz-adv-x="760" d="M92 1278 L251 1432 L94 1587 L221 1714 L380 1557 L541 1712 L668 1586 L508 1431 L666 1275 L538 1148 L379 1305 L220 1150 L92 1278 Z " />
<glyph glyph-name="uni02E0" unicode="&#x2e0;" horiz-adv-x="963" d="M353 706 L60 1456 L322 1456 L470 999 L482 938 L494 999 L641 1456 L903 1456 L604 693 L669 564 Q694 516 706 479 Q718 442 718 416 Q718 365 699.5 328.5 Q681 292 649 268 Q617 244 572.5 232.5 Q528 221 476 221 Q424 221 379.5 232.5 Q335 244 302 268 Q269 292 250 328.5 Q231 365 231 416 Q231 442 243 478 Q255 514 278 558 L353 706 Z M476 381 Q500 381 507.5 397 Q515 413 515 436 Q515 456 505 478 Q495 500 478 534 Q461 500 449.5 478 Q438 456 438 436 Q438 413 445.5 397 Q453 381 476 381 Z " />
<glyph glyph-name="uni02E1" unicode="&#x2e1;" horiz-adv-x="452" d="M113 655 L113 1886 L338 1886 L338 655 L113 655 Z " />
</font>
</svg>
