<?xml version="1.0" encoding="UTF-8"?>
<svg xmlns="http://www.w3.org/2000/svg" xmlns:xlink="http://www.w3.org/1999/xlink" version="1.2" >
<font id="Gotho-3Cd900Blk" horiz-adv-x="654">
<font-face  font-family="Gotho" units-per-em="2048" ascent="2146" descent="-555" font-style="normal" font-weight="900" font-stretch="condensed" cap-height="1456" x-height="1082" underline-position="-100" underline-thickness="100" />
<missing-glyph horiz-adv-x="659" d="M93 1456 L566 1456 L566 0 L93 0 L93 1456 Z M529 87 L529 1369 L348 728 L529 87 Z M309 728 L129 1362 L129 94 L309 728 Z M157 54 L499 54 L328 659 L157 54 Z M328 797 L499 1402 L157 1402 L328 797 Z " />
<glyph glyph-name="uni0000" horiz-adv-x="0" />
<glyph glyph-name="uni000D" unicode="&#xd;" horiz-adv-x="396" />
<glyph glyph-name="space" unicode="&#x20;" horiz-adv-x="396" />
<glyph glyph-name="uni0002" unicode="&#x2;" horiz-adv-x="0" />
<glyph glyph-name="uni0009" unicode="&#x9;" horiz-adv-x="396" />
<glyph glyph-name="exclam" unicode="&#x21;" horiz-adv-x="455" d="M133 435 L102 1456 L370 1456 L338 435 L133 435 Z M233 -15 Q203 -15 178 -4.5 Q153 6 135.5 24.5 Q118 43 108 68 Q98 93 98 121 Q98 150 108 175 Q118 200 135.5 218 Q153 236 178 246.5 Q203 257 233 257 Q264 257 289 246.5 Q314 236 332 218 Q350 200 359.5 175 Q369 150 369 121 Q369 93 359.5 68 Q350 43 332 24.5 Q314 6 289 -4.5 Q264 -15 233 -15 Z " />
<glyph glyph-name="quotedbl" unicode="&#x22;" horiz-adv-x="550" d="M45 1537 L223 1537 L223 1400 L188 1008 L45 1008 L45 1537 Z M320 1537 L498 1537 L498 1400 L463 1008 L320 1008 L320 1537 Z " />
<glyph glyph-name="numbersign" unicode="&#x23;" horiz-adv-x="874" d="M202 410 L61 410 L61 570 L221 570 L256 880 L111 880 L111 1040 L274 1040 L321 1456 L470 1456 L423 1040 L512 1040 L559 1456 L708 1456 L661 1040 L804 1040 L804 880 L643 880 L608 570 L754 570 L754 410 L590 410 L544 0 L395 0 L441 410 L352 410 L306 0 L156 0 L202 410 Z M459 570 L494 880 L405 880 L370 570 L459 570 Z " />
<glyph glyph-name="dollar" unicode="&#x24;" horiz-adv-x="850" d="M372 -16 Q316 -6 263.5 24.5 Q211 55 170 110.5 Q129 166 104.5 249 Q80 332 80 447 L330 447 Q330 371 338 321 Q346 271 360.5 241 Q375 211 393.5 199 Q412 187 433 187 Q478 187 497.5 240.5 Q517 294 517 381 Q517 466 494.5 522 Q472 578 413 611 Q348 649 293.5 690.5 Q239 732 200 785.5 Q161 839 139 909 Q117 979 117 1074 Q117 1158 136.5 1227 Q156 1296 192 1347.5 Q228 1399 278.5 1431 Q329 1463 390 1473 L390 1690 L515 1690 L515 1468 Q573 1454 620 1417 Q667 1380 700.5 1321.5 Q734 1263 752 1184 Q770 1105 770 1007 L520 1007 Q520 1132 496 1201 Q472 1270 439 1270 Q420 1270 406.5 1255.5 Q393 1241 384 1215 Q375 1189 371 1153 Q367 1117 367 1074 Q367 992 389 937.5 Q411 883 472 846 Q536 807 590 765 Q644 723 683 669.5 Q722 616 744 547 Q766 478 766 383 Q766 297 747 228 Q728 159 692.5 108.5 Q657 58 607.5 26.5 Q558 -5 497 -16 L497 -213 L372 -213 L372 -16 Z " />
<glyph glyph-name="percent" unicode="&#x25;" horiz-adv-x="1061" d="M235 182 L711 1320 L826 1248 L351 110 L235 182 Z M537 357 Q537 419 551 473.5 Q565 528 592.5 568.5 Q620 609 662 633 Q704 657 759 657 Q816 657 857.5 633 Q899 609 926 568.5 Q953 528 966.5 473.5 Q980 419 980 357 L980 280 Q980 219 966.5 164 Q953 109 926 68 Q899 27 858 3 Q817 -21 761 -21 Q705 -21 663 3 Q621 27 593 68 Q565 109 551 164 Q537 219 537 280 L537 357 Z M85 1176 Q85 1238 99 1292.5 Q113 1347 141 1388 Q169 1429 210 1453 Q251 1477 306 1477 Q362 1477 403.5 1453 Q445 1429 472.5 1388 Q500 1347 513.5 1292.5 Q527 1238 527 1176 L527 1099 Q527 1038 513.5 983.5 Q500 929 473 888.5 Q446 848 404.5 824 Q363 800 307 800 Q252 800 210.5 824 Q169 848 141 888.5 Q113 929 99 983.5 Q85 1038 85 1099 L85 1176 Z M820 357 Q820 386 816 413 Q812 440 804.5 461 Q797 482 785.5 494.5 Q774 507 759 507 Q744 507 732.5 494.5 Q721 482 713.5 461 Q706 440 702.5 413 Q699 386 699 357 L699 280 Q699 251 704 224 Q709 197 717.5 176 Q726 155 737.5 142.5 Q749 130 761 130 Q781 130 793 142.5 Q805 155 811 175.5 Q817 196 818.5 223 Q820 250 820 280 L820 357 Z M368 1176 Q368 1206 364 1233 Q360 1260 352.5 1281 Q345 1302 333.5 1314.5 Q322 1327 306 1327 Q291 1327 279.5 1314.5 Q268 1302 261 1281 Q254 1260 250.5 1233 Q247 1206 247 1176 L247 1099 Q247 1071 250.5 1044 Q254 1017 261.5 996 Q269 975 280.5 962.5 Q292 950 307 950 Q323 950 334.5 962.5 Q346 975 353.5 996 Q361 1017 364.5 1044 Q368 1071 368 1099 L368 1176 Z " />
<glyph glyph-name="ampersand" unicode="&#x26;" horiz-adv-x="979" d="M658 0 L618 73 Q565 25 509 2 Q453 -21 386 -21 Q311 -21 251 10 Q191 41 149 96 Q107 151 84.5 227 Q62 303 62 393 Q62 458 74.5 511 Q87 564 109.5 610.5 Q132 657 164 698.5 Q196 740 235 783 Q193 870 168.5 946 Q144 1022 144 1105 Q144 1191 164.5 1260 Q185 1329 222.5 1377 Q260 1425 312.5 1451 Q365 1477 430 1477 Q490 1477 539.5 1450.5 Q589 1424 624.5 1379 Q660 1334 679 1274.5 Q698 1215 698 1149 Q698 1046 663.5 969.5 Q629 893 569 827 L512 766 L649 520 Q657 562 661 606.5 Q665 651 665 699 L875 699 Q875 578 850 476.5 Q825 375 780 285 L939 0 L658 0 Z M343 580 Q331 559 324.5 535.5 Q318 512 315.5 488.5 Q313 465 313 443 Q313 421 313 403 Q313 357 320.5 316.5 Q328 276 340.5 247 Q353 218 369 201 Q385 184 401 184 Q433 184 464.5 200 Q496 216 525 245 L343 580 Z M438 963 Q460 982 471.5 1001.5 Q483 1021 488.5 1042 Q494 1063 495 1086.5 Q496 1110 496 1138 Q496 1164 491.5 1188 Q487 1212 478 1231.5 Q469 1251 456.5 1262.5 Q444 1274 429 1274 Q412 1274 400 1261 Q388 1248 380 1225.5 Q372 1203 368 1173 Q364 1143 364 1109 Q364 1069 377.5 1028 Q391 987 414 942 L438 963 Z " />
<glyph glyph-name="quotesingle" unicode="&#x27;" horiz-adv-x="280" d="M50 1536 L236 1536 L236 1404 L212 1013 L50 1013 L50 1536 Z " />
<glyph glyph-name="parenleft" unicode="&#x28;" horiz-adv-x="553" d="M452 -461 Q393 -423 331.5 -337 Q270 -251 219.5 -120 Q169 11 136.5 185.5 Q104 360 104 575 L104 592 Q104 807 136.5 981 Q169 1155 219.5 1286 Q270 1417 331.5 1503 Q393 1589 452 1627 L499 1483 Q464 1440 430 1365.5 Q396 1291 369.5 1181.5 Q343 1072 326.5 926 Q310 780 310 594 L310 573 Q310 387 326.5 240.5 Q343 94 369.5 -16 Q396 -126 430 -201.5 Q464 -277 499 -322 L452 -461 Z " />
<glyph glyph-name="parenright" unicode="&#x29;" horiz-adv-x="551" d="M55 -322 Q88 -279 122 -203.5 Q156 -128 183 -17.5 Q210 93 227 240 Q244 387 244 573 L244 594 Q244 780 227 926.5 Q210 1073 183 1183.5 Q156 1294 122 1369.5 Q88 1445 55 1488 L100 1627 Q163 1589 227.5 1501 Q292 1413 345 1281 Q398 1149 431.5 975.5 Q465 802 465 592 L465 575 Q465 365 431.5 191 Q398 17 345 -115 Q292 -247 227.5 -335 Q163 -423 100 -461 L55 -322 Z " />
<glyph glyph-name="asterisk" unicode="&#x2a;" horiz-adv-x="778" d="M287 971 L31 1060 L83 1230 L333 1110 L315 1457 L484 1457 L466 1103 L710 1221 L762 1049 L502 961 L672 693 L536 586 L392 877 L247 595 L109 698 L287 971 Z " />
<glyph glyph-name="plus" unicode="&#x2b;" horiz-adv-x="786" d="M275 574 L57 574 L57 804 L275 804 L275 1206 L511 1206 L511 804 L723 804 L723 574 L511 574 L511 146 L275 146 L275 574 Z " />
<glyph glyph-name="comma" unicode="&#x2c;" horiz-adv-x="442" d="M38 -261 Q52 -228 66.5 -194 Q81 -160 93.5 -122.5 Q106 -85 114 -43 Q122 -1 122 49 L122 238 L337 238 L336 59 Q336 6 323.5 -49 Q311 -104 288.5 -156.5 Q266 -209 235.5 -255.5 Q205 -302 169 -338 L38 -261 Z " />
<glyph glyph-name="hyphen" unicode="&#x2d;" horiz-adv-x="655" d="M121 520 L121 725 L526 725 L526 520 L121 520 Z " />
<glyph glyph-name="period" unicode="&#x2e;" horiz-adv-x="512" d="M108 127 Q108 157 118 182 Q128 207 147 226 Q166 245 192 255.5 Q218 266 250 266 Q283 266 309 255.5 Q335 245 354 226 Q373 207 383 182 Q393 157 393 127 Q393 98 383 72.5 Q373 47 354 28.5 Q335 10 309 -1 Q283 -12 250 -12 Q218 -12 192 -1 Q166 10 147 28.5 Q128 47 118 72.5 Q108 98 108 127 Z " />
<glyph glyph-name="slash" unicode="&#x2f;" horiz-adv-x="545" d="M3 -125 L336 1456 L515 1456 L182 -125 L3 -125 Z " />
<glyph glyph-name="zero" unicode="0" horiz-adv-x="850" d="M82 852 Q82 1022 107.5 1140.5 Q133 1259 178.5 1333.5 Q224 1408 287 1442 Q350 1476 425 1476 Q500 1476 563 1442 Q626 1408 671.5 1333.5 Q717 1259 742.5 1140.5 Q768 1022 768 852 L768 611 Q768 441 742.5 321 Q717 201 671.5 125.5 Q626 50 563.5 15 Q501 -20 426 -20 Q351 -20 288 15 Q225 50 179 125.5 Q133 201 107.5 321 Q82 441 82 611 L82 852 Z M517 889 Q517 996 510.5 1069 Q504 1142 492 1187.5 Q480 1233 463 1253 Q446 1273 425 1273 Q404 1273 387 1253 Q370 1233 358 1187.5 Q346 1142 339 1069 Q332 996 332 889 L332 575 Q332 468 338.5 393.5 Q345 319 357.5 272.5 Q370 226 387.5 205 Q405 184 426 184 Q447 184 464 205 Q481 226 492.5 272.5 Q504 319 510.5 393.5 Q517 468 517 575 L517 889 Z " />
<glyph glyph-name="one" unicode="1" horiz-adv-x="850" d="M348 0 L348 1158 L134 1040 L134 1252 L573 1460 L598 1460 L598 0 L348 0 Z " />
<glyph glyph-name="two" unicode="2" horiz-adv-x="851" d="M75 0 L75 174 L385 693 Q421 753 443 802.5 Q465 852 477.5 894 Q490 936 494.5 973 Q499 1010 499 1046 Q499 1096 493.5 1138 Q488 1180 477 1210 Q466 1240 450.5 1257 Q435 1274 414 1274 Q388 1274 369 1254.5 Q350 1235 337.5 1199.5 Q325 1164 319 1115.5 Q313 1067 313 1009 L61 1009 Q61 1105 86 1190.5 Q111 1276 157.5 1339.5 Q204 1403 270.5 1440 Q337 1477 419 1477 Q502 1477 564 1448.5 Q626 1420 668 1367.5 Q710 1315 731 1240 Q752 1165 752 1072 Q752 1002 736 936 Q720 870 692.5 803 Q665 736 627.5 666 Q590 596 547 519 L377 204 L774 204 L774 0 L75 0 Z " />
<glyph glyph-name="three" unicode="3" horiz-adv-x="852" d="M309 394 Q309 348 316.5 309 Q324 270 337 242.5 Q350 215 367.5 199.5 Q385 184 405 184 Q458 184 487.5 243 Q517 302 517 409 Q517 534 487 589 Q457 644 401 644 L287 644 L287 843 L401 843 Q428 843 447 859 Q466 875 479 904 Q492 933 498 973 Q504 1013 504 1062 Q504 1160 480 1217 Q456 1274 407 1274 Q391 1274 375 1260.5 Q359 1247 347 1221.5 Q335 1196 327.5 1159.5 Q320 1123 320 1078 L68 1078 Q68 1166 94.5 1239 Q121 1312 166.5 1365 Q212 1418 272.5 1447.5 Q333 1477 400 1477 Q478 1477 543 1450.5 Q608 1424 654.5 1372 Q701 1320 727 1242.5 Q753 1165 753 1063 Q753 1018 742 972 Q731 926 710 884.5 Q689 843 659 807.5 Q629 772 591 747 Q634 725 667 690 Q700 655 722 611 Q744 567 755.5 515.5 Q767 464 767 408 Q767 306 738.5 226.5 Q710 147 660.5 92 Q611 37 543.5 8.5 Q476 -20 398 -20 Q335 -20 274 6 Q213 32 165 83.5 Q117 135 87.5 213 Q58 291 58 394 L309 394 Z " />
<glyph glyph-name="four" unicode="4" horiz-adv-x="850" d="M34 479 L373 1456 L692 1456 L692 527 L780 527 L780 324 L692 324 L692 0 L468 0 L468 324 L48 324 L34 479 Z M468 527 L468 1190 L467 1188 L269 527 L468 527 Z " />
<glyph glyph-name="five" unicode="5" horiz-adv-x="850" d="M323 398 Q328 295 353.5 239.5 Q379 184 419 184 Q448 184 467.5 205.5 Q487 227 498 266 Q509 305 513.5 358.5 Q518 412 518 476 Q518 538 511 589 Q504 640 489.5 677.5 Q475 715 451.5 735.5 Q428 756 395 756 Q350 756 327.5 731.5 Q305 707 293 672 L94 722 L155 1456 L729 1456 L729 1241 L358 1241 L339 898 Q356 917 390 936.5 Q424 956 466 956 Q540 956 596 922.5 Q652 889 690 825.5 Q728 762 747.5 671.5 Q767 581 767 467 Q767 367 745.5 278.5 Q724 190 681.5 123.5 Q639 57 574 18.5 Q509 -20 422 -20 Q356 -20 293.5 7.5 Q231 35 182 88 Q133 141 104 219 Q75 297 75 398 L323 398 Z " />
<glyph glyph-name="six" unicode="6" horiz-adv-x="851" d="M79 787 Q79 954 110.5 1082.5 Q142 1211 198 1298.5 Q254 1386 330.5 1431.5 Q407 1477 496 1477 Q527 1477 552 1474.5 Q577 1472 600 1467 Q623 1462 645 1454 Q667 1446 691 1435 L658 1243 Q635 1253 608 1262 Q581 1271 552 1271 Q352 1271 331 890 Q365 932 409.5 954.5 Q454 977 511 977 Q578 977 629 939.5 Q680 902 715 836 Q750 770 768 680.5 Q786 591 786 487 Q786 378 761 285 Q736 192 690.5 124 Q645 56 581.5 17.5 Q518 -21 440 -21 Q362 -21 295.5 15 Q229 51 181 121.5 Q133 192 106 296.5 Q79 401 79 539 L79 787 Z M329 540 Q329 358 360 270.5 Q391 183 440 183 Q464 183 482 208 Q500 233 512 275 Q524 317 530.5 372 Q537 427 537 487 Q537 550 528.5 603.5 Q520 657 505.5 695.5 Q491 734 471 755.5 Q451 777 427 777 Q389 777 365.5 751.5 Q342 726 329 682 L329 540 Z " />
<glyph glyph-name="seven" unicode="7" horiz-adv-x="849" d="M253 151 Q264 316 285.5 465.5 Q307 615 340.5 751.5 Q374 888 421 1012.5 Q468 1137 531 1253 L61 1253 L61 1456 L771 1456 L771 1253 Q682 1097 633 959.5 Q584 822 558.5 690.5 Q533 559 523.5 427 Q514 295 504 151 L494 0 L242 0 L253 151 Z " />
<glyph glyph-name="eight" unicode="8" horiz-adv-x="850" d="M425 -20 Q352 -20 290 7 Q228 34 182.5 87 Q137 140 111 217.5 Q85 295 85 397 Q85 518 129.5 609 Q174 700 249 750 Q181 798 142.5 881.5 Q104 965 104 1073 Q104 1170 127.5 1245.5 Q151 1321 193.5 1372.5 Q236 1424 295 1450.5 Q354 1477 424 1477 Q496 1477 554.5 1450.5 Q613 1424 655 1372.5 Q697 1321 720 1245.5 Q743 1170 743 1073 Q743 965 705 881.5 Q667 798 600 750 Q675 699 718.5 608.5 Q762 518 762 397 Q762 295 737 217.5 Q712 140 667 87 Q622 34 560 7 Q498 -20 425 -20 Z M425 184 Q467 184 489 244 Q511 304 511 413 Q511 519 489 582.5 Q467 646 424 646 Q384 646 360 582.5 Q336 519 336 413 Q336 304 359.5 244 Q383 184 425 184 Z M425 850 Q444 850 457 865.5 Q470 881 478.5 908.5 Q487 936 490.5 975 Q494 1014 494 1062 Q494 1109 490 1148 Q486 1187 478 1215 Q470 1243 456.5 1258.5 Q443 1274 424 1274 Q389 1274 372 1217.5 Q355 1161 355 1062 Q355 967 372 908.5 Q389 850 425 850 Z " />
<glyph glyph-name="nine" unicode="9" horiz-adv-x="850" d="M219 230 Q248 212 284 197.5 Q320 183 360 183 Q437 183 474.5 267.5 Q512 352 514 524 Q451 456 367 456 Q299 456 245.5 492.5 Q192 529 155.5 595 Q119 661 99.5 753.5 Q80 846 80 959 Q80 1076 105 1171.5 Q130 1267 175 1335 Q220 1403 282.5 1440 Q345 1477 420 1477 Q492 1477 555 1440.5 Q618 1404 664.5 1331 Q711 1258 737.5 1149.5 Q764 1041 764 898 L764 558 Q764 418 735.5 310 Q707 202 656.5 128.5 Q606 55 538 17 Q470 -21 392 -21 Q283 -21 182 40 L219 230 Z M514 930 Q514 1104 487 1189 Q460 1274 419 1274 Q398 1274 381.5 1251.5 Q365 1229 353 1187.5 Q341 1146 334.5 1088 Q328 1030 328 959 Q328 896 334.5 840 Q341 784 353.5 742.5 Q366 701 385.5 677 Q405 653 432 653 Q458 653 479 672.5 Q500 692 514 723 L514 930 Z " />
<glyph glyph-name="colon" unicode="&#x3a;" horiz-adv-x="487" >
<g transform="translate(12,0)" >
<path fill="black" d="M108 127 Q108 157 118 182 Q128 207 147 226 Q166 245 192 255.5 Q218 266 250 266 Q283 266 309 255.5 Q335 245 354 226 Q373 207 383 182 Q393 157 393 127 Q393 98 383 72.5 Q373 47 354 28.5 Q335 10 309 -1 Q283 -12 250 -12 Q218 -12 192 -1 Q166 10 147 28.5 Q128 47 118 72.5 Q108 98 108 127 Z " />
</g>
<g transform="translate(4,798)" >
<path fill="black" d="M108 127 Q108 157 118 182 Q128 207 147 226 Q166 245 192 255.5 Q218 266 250 266 Q283 266 309 255.5 Q335 245 354 226 Q373 207 383 182 Q393 157 393 127 Q393 98 383 72.5 Q373 47 354 28.5 Q335 10 309 -1 Q283 -12 250 -12 Q218 -12 192 -1 Q166 10 147 28.5 Q128 47 118 72.5 Q108 98 108 127 Z " />
</g>
</glyph>
<glyph glyph-name="semicolon" unicode="&#x3b;" horiz-adv-x="458" >
<g transform="translate(27,0)" >
<path fill="black" d="M38 -261 Q52 -228 66.5 -194 Q81 -160 93.5 -122.5 Q106 -85 114 -43 Q122 -1 122 49 L122 238 L337 238 L336 59 Q336 6 323.5 -49 Q311 -104 288.5 -156.5 Q266 -209 235.5 -255.5 Q205 -302 169 -338 L38 -261 Z " />
</g>
<g transform="translate(-1,842)" >
<path fill="black" d="M108 127 Q108 157 118 182 Q128 207 147 226 Q166 245 192 255.5 Q218 266 250 266 Q283 266 309 255.5 Q335 245 354 226 Q373 207 383 182 Q393 157 393 127 Q393 98 383 72.5 Q373 47 354 28.5 Q335 10 309 -1 Q283 -12 250 -12 Q218 -12 192 -1 Q166 10 147 28.5 Q128 47 118 72.5 Q108 98 108 127 Z " />
</g>
</glyph>
<glyph glyph-name="less" unicode="&#x3c;" horiz-adv-x="747" d="M56 733 L642 1102 L642 853 L294 629 L642 409 L642 159 L56 530 L56 733 Z " />
<glyph glyph-name="equal" unicode="&#x3d;" horiz-adv-x="848" d="M112 345 L112 554 L730 554 L730 345 L112 345 Z M112 771 L112 980 L730 980 L730 771 L112 771 Z " />
<glyph glyph-name="greater" unicode="&#x3e;" horiz-adv-x="758" d="M105 407 L460 634 L105 856 L105 1102 L696 733 L696 529 L105 159 L105 407 Z " />
<glyph glyph-name="question" unicode="&#x3f;" horiz-adv-x="761" d="M248 434 Q248 504 252.5 556.5 Q257 609 268 652.5 Q279 696 298 735 Q317 774 345 817 Q366 849 383.5 878 Q401 907 413.5 938 Q426 969 433 1003 Q440 1037 440 1079 Q440 1170 422 1218.5 Q404 1267 369 1267 Q357 1267 344.5 1256.5 Q332 1246 321 1224 Q310 1202 303 1168 Q296 1134 295 1087 L44 1087 Q45 1184 70.5 1257 Q96 1330 139.5 1378.5 Q183 1427 241.5 1451.5 Q300 1476 369 1476 Q444 1476 504 1450 Q564 1424 605.5 1374.5 Q647 1325 669 1253 Q691 1181 691 1089 Q691 1023 677 967 Q663 911 640 862 Q617 813 587.5 768 Q558 723 527 678 Q490 627 478.5 568.5 Q467 510 465 434 L248 434 Z M359 -12 Q329 -12 304 -1.5 Q279 9 261.5 27.5 Q244 46 234 71 Q224 96 224 124 Q224 153 234 178 Q244 203 261.5 221 Q279 239 304 249.5 Q329 260 359 260 Q390 260 415 249.5 Q440 239 458 221 Q476 203 485.5 178 Q495 153 495 124 Q495 96 485.5 71 Q476 46 458 27.5 Q440 9 415 -1.5 Q390 -12 359 -12 Z " />
<glyph glyph-name="at" unicode="&#x40;" horiz-adv-x="1263" d="M869 -364 Q845 -387 814.5 -403.5 Q784 -420 750.5 -431 Q717 -442 683 -447.5 Q649 -453 617 -453 Q482 -453 377.5 -391.5 Q273 -330 202 -212 Q131 -94 97 77.5 Q63 249 69 469 Q75 674 119 848.5 Q163 1023 239.5 1150.5 Q316 1278 423 1350 Q530 1422 663 1422 Q792 1422 892.5 1358 Q993 1294 1061 1176.5 Q1129 1059 1162.5 893.5 Q1196 728 1190 525 Q1188 426 1169.5 328.5 Q1151 231 1114 153.5 Q1077 76 1020 27.5 Q963 -21 882 -21 Q828 -21 785.5 14 Q743 49 719 113 Q657 -19 558 -19 Q508 -19 467.5 13 Q427 45 400 103 Q373 161 361.5 243.5 Q350 326 358 426 Q368 555 396 659.5 Q424 764 466.5 837.5 Q509 911 563 950.5 Q617 990 678 990 Q719 990 750.5 981.5 Q782 973 807 958 Q832 943 853.5 923.5 Q875 904 896 882 L862 314 Q859 256 861.5 219 Q864 182 871.5 161 Q879 140 890 132.5 Q901 125 915 125 Q942 125 964.5 155.5 Q987 186 1003.5 239 Q1020 292 1030.5 364 Q1041 436 1043 519 Q1048 692 1026.5 831.5 Q1005 971 957.5 1068.5 Q910 1166 835.5 1218.5 Q761 1271 659 1271 Q560 1271 482.5 1211 Q405 1151 351 1044.5 Q297 938 267 791 Q237 644 232 469 Q227 285 251 142.5 Q275 0 324.5 -97.5 Q374 -195 449 -246 Q524 -297 621 -297 Q680 -297 739.5 -277 Q799 -257 841 -225 L869 -364 Z M694 314 L723 827 Q711 831 694 831 Q620 831 587.5 728 Q555 625 545 426 Q538 290 557.5 219 Q577 148 619 148 Q625 148 634.5 156 Q644 164 654 182.5 Q664 201 674.5 231 Q685 261 694 306 L694 314 Z " />
<glyph glyph-name="A" unicode="A" horiz-adv-x="1004" d="M382 1456 L621 1456 L983 0 L705 0 L644 329 L361 329 L300 0 L23 0 L382 1456 Z M604 542 L502 1095 L400 542 L604 542 Z " />
<glyph glyph-name="B" unicode="B" horiz-adv-x="942" d="M94 1456 L461 1456 Q551 1456 622.5 1432.5 Q694 1409 743.5 1360.5 Q793 1312 819 1238 Q845 1164 845 1062 Q845 1011 836.5 965 Q828 919 809.5 879 Q791 839 761.5 807 Q732 775 691 754 Q738 737 770.5 704.5 Q803 672 822.5 628.5 Q842 585 850.5 533 Q859 481 859 426 Q859 215 766 107.5 Q673 0 487 0 L94 0 L94 1456 Z M487 211 Q519 211 540 227 Q561 243 574 271.5 Q587 300 592.5 339.5 Q598 379 598 427 Q598 531 576 592 Q554 653 495 653 L354 653 L354 211 L487 211 Z M457 843 Q524 843 553.5 894.5 Q583 946 583 1043 Q583 1150 555 1197 Q527 1244 461 1244 L354 1244 L354 843 L457 843 Z " />
<glyph glyph-name="C" unicode="C" horiz-adv-x="951" d="M74 861 Q74 1007 103 1121.5 Q132 1236 185.5 1315 Q239 1394 315.5 1435.5 Q392 1477 488 1477 Q684 1477 784 1347 Q884 1217 897 972 L637 972 Q636 1054 628.5 1110 Q621 1166 604 1200.5 Q587 1235 559 1250 Q531 1265 488 1265 Q405 1265 370 1167 Q335 1069 335 863 L335 596 Q335 497 341.5 421.5 Q348 346 365 295 Q382 244 412 217.5 Q442 191 488 191 Q526 191 553.5 205 Q581 219 598.5 252.5 Q616 286 624.5 341 Q633 396 634 478 L896 478 Q888 236 782.5 108 Q677 -20 488 -20 Q389 -20 312 21 Q235 62 182 141 Q129 220 101.5 334.5 Q74 449 74 596 L74 861 Z " />
<glyph glyph-name="D" unicode="D" horiz-adv-x="937" d="M94 1456 L408 1456 Q509 1456 592.5 1416.5 Q676 1377 735 1300.5 Q794 1224 826.5 1111 Q859 998 859 851 L859 605 Q859 458 826.5 345 Q794 232 735 155.5 Q676 79 593 39.5 Q510 0 408 0 L94 0 L94 1456 Z M408 211 Q467 211 504 234 Q541 257 562 305 Q583 353 590.5 427.5 Q598 502 598 605 L598 853 Q598 958 590 1032.5 Q582 1107 561 1154 Q540 1201 503 1222.5 Q466 1244 408 1244 L354 1244 L354 211 L408 211 Z " />
<glyph glyph-name="E" unicode="E" horiz-adv-x="816" d="M94 1456 L769 1456 L769 1244 L354 1244 L354 854 L704 854 L704 647 L354 647 L354 211 L770 211 L770 0 L94 0 L94 1456 Z " />
<glyph glyph-name="F" unicode="F" horiz-adv-x="791" d="M94 1456 L743 1456 L743 1244 L354 1244 L354 825 L705 825 L705 613 L354 613 L354 0 L94 0 L94 1456 Z " />
<glyph glyph-name="G" unicode="G" horiz-adv-x="969" d="M80 862 Q80 1018 109 1133.5 Q138 1249 192 1325.5 Q246 1402 322.5 1439.5 Q399 1477 494 1477 Q596 1477 669 1446.5 Q742 1416 790.5 1356 Q839 1296 864.5 1208.5 Q890 1121 897 1007 L647 1007 Q638 1145 605.5 1205 Q573 1265 503 1265 Q463 1265 432 1242.5 Q401 1220 381 1171 Q361 1122 350.5 1046.5 Q340 971 340 864 L340 594 Q340 486 350.5 410 Q361 334 383.5 285 Q406 236 441.5 213.5 Q477 191 526 191 Q552 191 570 199.5 Q588 208 601 219 Q614 230 622.5 241.5 Q631 253 637 260 L637 554 L488 554 L488 752 L898 752 L898 171 Q879 147 846 114 Q813 81 765.5 51.5 Q718 22 654 1 Q590 -20 508 -20 Q410 -20 330.5 17.5 Q251 55 195.5 131 Q140 207 110 322.5 Q80 438 80 594 L80 862 Z " />
<glyph glyph-name="H" unicode="H" horiz-adv-x="1017" d="M94 1456 L354 1456 L354 854 L661 854 L661 1456 L922 1456 L922 0 L661 0 L661 643 L354 643 L354 0 L94 0 L94 1456 Z " />
<glyph glyph-name="I" unicode="I" horiz-adv-x="468" d="M105 0 L105 1456 L364 1456 L364 0 L105 0 Z " />
<glyph glyph-name="J" unicode="J" horiz-adv-x="820" d="M304 421 Q304 296 326.5 243.5 Q349 191 385 191 Q427 191 447.5 255 Q468 319 468 440 L468 1456 L727 1456 L727 440 Q727 331 701 245.5 Q675 160 629 101 Q583 42 520.5 11 Q458 -20 385 -20 Q311 -20 248.5 6.5 Q186 33 140.5 87.5 Q95 142 69.5 225 Q44 308 44 421 L304 421 Z " />
<glyph glyph-name="K" unicode="K" horiz-adv-x="921" d="M94 1456 L354 1456 L354 836 L411 974 L607 1456 L927 1456 L603 835 L925 0 L618 0 L430 578 L354 477 L354 0 L94 0 L94 1456 Z " />
<glyph glyph-name="L" unicode="L" horiz-adv-x="801" d="M94 1456 L354 1456 L354 211 L751 211 L751 0 L94 0 L94 1456 Z " />
<glyph glyph-name="M" unicode="M" horiz-adv-x="1256" d="M94 1456 L434 1456 L627 490 L820 1456 L1160 1456 L1160 0 L899 0 L899 460 L930 980 L715 0 L539 0 L323 982 L354 460 L354 0 L94 0 L94 1456 Z " />
<glyph glyph-name="N" unicode="N" horiz-adv-x="1014" d="M94 1456 L388 1456 L660 535 L660 1456 L918 1456 L918 0 L641 0 L354 882 L354 0 L94 0 L94 1456 Z " />
<glyph glyph-name="O" unicode="O" horiz-adv-x="1004" d="M77 851 Q77 1007 107.5 1124 Q138 1241 194 1319 Q250 1397 328 1436.5 Q406 1476 501 1476 Q596 1476 674 1436.5 Q752 1397 808 1319 Q864 1241 895 1124 Q926 1007 926 851 L926 593 Q926 440 895 325 Q864 210 808.5 133.5 Q753 57 675 18.5 Q597 -20 503 -20 Q408 -20 329.5 18.5 Q251 57 195 133.5 Q139 210 108 325 Q77 440 77 593 L77 851 Z M666 853 Q666 962 655.5 1039.5 Q645 1117 624 1166 Q603 1215 572 1238 Q541 1261 501 1261 Q460 1261 429.5 1238 Q399 1215 378.5 1166 Q358 1117 347.5 1039.5 Q337 962 337 853 L337 593 Q337 487 347.5 411.5 Q358 336 379 288 Q400 240 431 217.5 Q462 195 503 195 Q543 195 573.5 217.5 Q604 240 624.5 288 Q645 336 655.5 411.5 Q666 487 666 593 L666 853 Z " />
<glyph glyph-name="P" unicode="P" horiz-adv-x="954" d="M94 1456 L497 1456 Q586 1456 657 1421 Q728 1386 778 1323.5 Q828 1261 855 1175.5 Q882 1090 882 988 Q882 883 855 799 Q828 715 778 656.5 Q728 598 657 566.5 Q586 535 497 535 L354 535 L354 0 L94 0 L94 1456 Z M497 746 Q529 746 551.5 764 Q574 782 589 814 Q604 846 611 890 Q618 934 618 986 Q618 1037 611 1083.5 Q604 1130 589 1165.5 Q574 1201 551.5 1222.5 Q529 1244 497 1244 L354 1244 L354 746 L497 746 Z " />
<glyph glyph-name="Q" unicode="Q" horiz-adv-x="1004" d="M770 -256 L552 -17 Q528 -20 503 -20 Q408 -20 329.5 19.5 Q251 59 195 137 Q139 215 108 332 Q77 449 77 605 L77 851 Q77 1007 107.5 1124 Q138 1241 194 1319.5 Q250 1398 328.5 1437 Q407 1476 502 1476 Q596 1476 674 1437 Q752 1398 808 1319.5 Q864 1241 895 1124 Q926 1007 926 851 L926 605 Q926 417 882 286 Q838 155 760 80 L931 -104 L770 -256 Z M666 853 Q666 962 655.5 1039.5 Q645 1117 624 1166 Q603 1215 572.5 1238 Q542 1261 502 1261 Q461 1261 430.5 1238 Q400 1215 379.5 1166 Q359 1117 348.5 1039.5 Q338 962 338 853 L338 605 Q338 496 348 418 Q358 340 378.5 290.5 Q399 241 430 218 Q461 195 503 195 Q543 195 573.5 218 Q604 241 624.5 290.5 Q645 340 655.5 418 Q666 496 666 605 L666 853 Z " />
<glyph glyph-name="R" unicode="R" horiz-adv-x="941" d="M96 1456 L508 1456 Q680 1456 767.5 1347.5 Q855 1239 855 1033 Q855 913 808 833.5 Q761 754 681 706 Q727 686 758.5 652.5 Q790 619 809 574 Q828 529 836 474 Q844 419 844 357 L844 245 Q844 221 846 191 Q848 161 853.5 131 Q859 101 869 73.5 Q879 46 895 28 L895 0 L627 0 Q611 19 602.5 53.5 Q594 88 590 125.5 Q586 163 585.5 196.5 Q585 230 585 247 L585 355 Q585 467 559 529 Q533 591 476 591 L357 591 L357 0 L96 0 L96 1456 Z M357 803 L484 803 Q535 803 565.5 858 Q596 913 596 1018 Q596 1069 590 1110.5 Q584 1152 571.5 1181.5 Q559 1211 539.5 1227.5 Q520 1244 492 1244 L357 1244 L357 803 Z " />
<glyph glyph-name="S" unicode="S" horiz-adv-x="909" d="M328 446 Q328 309 362.5 249 Q397 189 476 189 Q505 189 524.5 203 Q544 217 555.5 241.5 Q567 266 571.5 301 Q576 336 576 378 Q576 421 571.5 453 Q567 485 551.5 512 Q536 539 506 564 Q476 589 425 618 Q362 650 302.5 691 Q243 732 197 786.5 Q151 841 123.5 911.5 Q96 982 96 1073 Q96 1162 120 1236.5 Q144 1311 191.5 1364 Q239 1417 309 1446.5 Q379 1476 471 1476 Q577 1476 645 1441.5 Q713 1407 752.5 1346.5 Q792 1286 807 1205 Q822 1124 822 1031 L579 1031 Q579 1082 573 1125.5 Q567 1169 553.5 1200.5 Q540 1232 518.5 1249.5 Q497 1267 466 1267 Q438 1267 417 1252 Q396 1237 382.5 1211 Q369 1185 362 1150 Q355 1115 355 1074 Q355 995 398 945 Q441 895 515 860 Q595 820 655 773 Q715 726 755.5 668 Q796 610 816.5 540 Q837 470 837 384 Q837 288 817 213 Q797 138 753.5 86.5 Q710 35 641.5 7.5 Q573 -20 476 -20 Q278 -20 181 95 Q84 210 84 446 L328 446 Z " />
<glyph glyph-name="T" unicode="T" horiz-adv-x="911" d="M322 1244 L49 1244 L49 1456 L862 1456 L862 1244 L583 1244 L583 0 L322 0 L322 1244 Z " />
<glyph glyph-name="U" unicode="U" horiz-adv-x="954" d="M88 1456 L350 1456 L350 444 Q350 368 358 318.5 Q366 269 381.5 241 Q397 213 421 202 Q445 191 477 191 Q510 191 533.5 202 Q557 213 572.5 241 Q588 269 595.5 318.5 Q603 368 603 444 L603 1456 L865 1456 L865 444 Q865 319 836.5 230.5 Q808 142 757 86.5 Q706 31 634.5 5.5 Q563 -20 477 -20 Q391 -20 319.5 5.5 Q248 31 196.5 86.5 Q145 142 116.5 230.5 Q88 319 88 444 L88 1456 Z " />
<glyph glyph-name="V" unicode="V" horiz-adv-x="969" d="M22 1456 L312 1456 L484 382 L658 1456 L949 1456 L623 0 L346 0 L22 1456 Z " />
<glyph glyph-name="W" unicode="W" horiz-adv-x="1234" d="M40 1456 L298 1456 L392 579 L503 1456 L728 1456 L844 566 L935 1456 L1192 1456 L994 0 L725 0 L615 794 L509 0 L239 0 L40 1456 Z " />
<glyph glyph-name="X" unicode="X" horiz-adv-x="938" d="M300 734 L36 1456 L334 1456 L469 931 L605 1456 L903 1456 L640 734 L908 0 L608 0 L469 535 L332 0 L30 0 L300 734 Z " />
<glyph glyph-name="Y" unicode="Y" horiz-adv-x="911" d="M324 534 L20 1456 L302 1456 L457 769 L609 1456 L892 1456 L588 534 L588 0 L324 0 L324 534 Z " />
<glyph glyph-name="Z" unicode="Z" horiz-adv-x="888" d="M70 165 L554 1244 L62 1244 L62 1456 L826 1456 L826 1296 L348 211 L831 211 L831 0 L70 0 L70 165 Z " />
<glyph glyph-name="bracketleft" unicode="&#x5b;" horiz-adv-x="457" d="M92 1683 L414 1683 L414 1486 L343 1486 L343 -132 L414 -132 L414 -330 L92 -330 L92 1683 Z " />
<glyph glyph-name="backslash" unicode="&#x5c;" horiz-adv-x="648" d="M10 1456 L269 1456 L673 -125 L415 -125 L10 1456 Z " />
<glyph glyph-name="bracketright" unicode="&#x5d;" horiz-adv-x="458" d="M39 -132 L112 -132 L112 1486 L39 1486 L39 1683 L362 1683 L362 -330 L39 -330 L39 -132 Z " />
<glyph glyph-name="asciicircum" unicode="&#x5e;" horiz-adv-x="665" d="M246 1456 L426 1456 L625 729 L435 729 L336 1198 L237 729 L45 729 L246 1456 Z " />
<glyph glyph-name="underscore" unicode="&#x5f;" horiz-adv-x="673" d="M27 -200 L27 0 L645 0 L645 -200 L27 -200 Z " />
<glyph glyph-name="grave" unicode="&#x60;" horiz-adv-x="575" d="M269 1233 L41 1536 L319 1536 L478 1233 L269 1233 Z " />
<glyph glyph-name="a" unicode="a" horiz-adv-x="786" d="M485 0 Q478 17 472.5 37 Q467 57 463 80 Q434 26 395 3 Q356 -20 304 -20 Q254 -20 209.5 1.5 Q165 23 132 65 Q99 107 80 168 Q61 229 61 307 Q61 383 81 447.5 Q101 512 143 559.5 Q185 607 249 633.5 Q313 660 401 660 L452 660 L452 760 Q452 843 437 875.5 Q422 908 390 908 Q356 908 341.5 867.5 Q327 827 327 767 L76 767 Q76 833 98.5 893.5 Q121 954 163 1000.5 Q205 1047 266 1074.5 Q327 1102 405 1102 Q467 1102 521 1083 Q575 1064 615.5 1022.5 Q656 981 679 915 Q702 849 702 756 L702 254 Q702 176 711 118 Q720 60 735 17 L735 0 L485 0 Z M452 506 L405 506 Q378 506 360 492.5 Q342 479 331 454.5 Q320 430 315.5 395.5 Q311 361 311 319 Q311 243 324.5 212 Q338 181 369 181 Q396 181 418.5 201.5 Q441 222 452 250 L452 506 Z " />
<glyph glyph-name="b" unicode="b" horiz-adv-x="829" d="M87 1536 L336 1536 L336 1009 Q366 1054 405.5 1078 Q445 1102 496 1102 Q642 1102 707 975 Q772 848 772 585 L772 498 Q772 236 707 108 Q642 -20 498 -20 Q441 -20 398.5 9.5 Q356 39 325 93 L318 0 L87 0 L87 1536 Z M336 255 Q348 223 369 205 Q390 187 422 187 Q456 187 476 204 Q496 221 506 258.5 Q516 296 518.5 355 Q521 414 521 498 L521 585 Q521 665 518 724 Q515 783 504.5 821 Q494 859 474 877.5 Q454 896 420 896 Q390 896 369.5 875.5 Q349 855 336 820 L336 255 Z " />
<glyph glyph-name="c" unicode="c" horiz-adv-x="770" d="M60 591 Q60 836 145.5 969 Q231 1102 406 1102 Q477 1102 535 1075 Q593 1048 633.5 996 Q674 944 696 867.5 Q718 791 718 691 L483 691 Q484 794 466.5 846.5 Q449 899 399 899 Q368 899 350 878.5 Q332 858 323.5 818.5 Q315 779 313 722 Q311 665 311 591 L311 491 Q311 416 313 359 Q315 302 323.5 263 Q332 224 350.5 204 Q369 184 402 184 Q445 184 465 225 Q485 266 483 363 L718 363 Q718 275 694.5 204 Q671 133 629.5 83 Q588 33 531 6.5 Q474 -20 408 -20 Q320 -20 254.5 14 Q189 48 145.5 113.5 Q102 179 81 274 Q60 369 60 491 L60 591 Z " />
<glyph glyph-name="d" unicode="d" horiz-adv-x="828" d="M503 100 Q471 43 429 11.5 Q387 -20 331 -20 Q193 -20 124 109 Q55 238 55 496 L55 583 Q55 852 124.5 977 Q194 1102 333 1102 Q382 1102 420.5 1077.5 Q459 1053 489 1008 L489 1536 L741 1536 L741 0 L515 -1 L503 100 Z M489 821 Q475 856 454 876 Q433 896 406 896 Q377 896 358 878 Q339 860 327.5 822 Q316 784 311 725 Q306 666 306 583 L306 496 Q306 414 310.5 355.5 Q315 297 326 259.5 Q337 222 356.5 204.5 Q376 187 406 187 Q435 187 455 204.5 Q475 222 489 253 L489 821 Z " />
<glyph glyph-name="e" unicode="e" horiz-adv-x="806" d="M69 578 Q69 850 156.5 976 Q244 1102 413 1102 Q581 1102 668 974.5 Q755 847 755 584 L755 464 L319 464 Q319 385 328.5 331.5 Q338 278 356 245 Q374 212 401.5 198 Q429 184 465 184 Q519 184 566 213 Q613 242 647 290 L740 139 Q723 111 696.5 82.5 Q670 54 632.5 31.5 Q595 9 546.5 -5.5 Q498 -20 437 -20 Q262 -20 165.5 102 Q69 224 69 471 L69 578 Z M509 644 L509 669 Q509 787 488 843.5 Q467 900 415 900 Q388 900 370 885.5 Q352 871 341.5 840 Q331 809 326 760.5 Q321 712 320 644 L509 644 Z " />
<glyph glyph-name="f" unicode="f" horiz-adv-x="561" d="M135 896 L34 896 L34 1082 L135 1082 L135 1184 Q135 1275 155.5 1344.5 Q176 1414 214 1461.5 Q252 1509 305.5 1533 Q359 1557 426 1557 Q455 1557 481 1552 Q507 1547 532 1539 L533 1341 Q512 1350 481 1350 Q435 1350 410.5 1307.5 Q386 1265 386 1184 L386 1082 L516 1082 L516 896 L386 896 L386 0 L135 0 L135 896 Z " />
<glyph glyph-name="g" unicode="g" horiz-adv-x="776" d="M482 216 Q608 216 674 141 Q740 66 740 -83 Q740 -144 714.5 -207 Q689 -270 640 -321.5 Q591 -373 519.5 -405.5 Q448 -438 357 -438 Q271 -438 204.5 -415.5 Q138 -393 92.5 -355 Q47 -317 23.5 -267 Q0 -217 0 -162 Q0 -114 11 -74.5 Q22 -35 41 -2.5 Q60 30 84.5 54.5 Q109 79 136 96 Q120 119 111 148 Q102 177 102 215 Q102 282 128 327.5 Q154 373 189 404 Q116 452 76 534 Q36 616 36 716 L36 738 Q36 818 59.5 885 Q83 952 127 1000 Q171 1048 233 1075 Q295 1102 372 1102 Q437 1102 494 1082 L744 1082 L745 931 L664 931 Q707 847 707 738 L707 716 Q707 641 683.5 574.5 Q660 508 616.5 458.5 Q573 409 511 380 Q449 351 372 351 Q330 351 291 360 Q284 347 280 330.5 Q276 314 276 292 Q276 246 298.5 231 Q321 216 358 216 L482 216 Z M311 22 Q296 22 281.5 23.5 Q267 25 253 27 Q245 9 239.5 -25.5 Q234 -60 234 -104 Q234 -133 241.5 -158.5 Q249 -184 264.5 -203 Q280 -222 303 -233.5 Q326 -245 357 -245 Q395 -245 421 -231 Q447 -217 462.5 -195 Q478 -173 485 -146 Q492 -119 492 -93 Q492 -69 490 -48 Q488 -27 482.5 -11.5 Q477 4 466.5 13 Q456 22 439 22 L311 22 Z M458 738 Q458 773 452.5 804 Q447 835 436 858 Q425 881 409 894.5 Q393 908 372 908 Q351 908 335 894.5 Q319 881 308 858 Q297 835 291.5 804 Q286 773 286 738 L286 716 Q286 683 291.5 652.5 Q297 622 308 598 Q319 574 335 560 Q351 546 372 546 Q393 546 409.5 560 Q426 574 436.5 598 Q447 622 452.5 652.5 Q458 683 458 716 L458 738 Z " />
<glyph glyph-name="h" unicode="h" horiz-adv-x="824" d="M78 1536 L328 1536 L328 998 Q362 1048 406.5 1075 Q451 1102 507 1102 Q556 1102 599 1080 Q642 1058 673.5 1009 Q705 960 723 882 Q741 804 741 692 L741 0 L491 0 L491 694 Q491 806 469 851 Q447 896 403 896 Q354 896 328 840 L328 0 L78 0 L78 1536 Z " />
<glyph glyph-name="i" unicode="i" horiz-adv-x="442" >
<g transform="translate(-10,0)" >
<path fill="black" d="M104 0 L104 1082 L357 1082 L357 0 L104 0 Z " />
</g>
<g transform="translate(-27,659)" >
<path fill="black" d="M112 706 Q112 764 148.5 802 Q185 840 246 840 Q309 840 345.5 802 Q382 764 382 706 Q382 649 345.5 611 Q309 573 246 573 Q185 573 148.5 611 Q112 649 112 706 Z " />
</g>
</glyph>
<glyph glyph-name="j" unicode="j" horiz-adv-x="430" >
<g transform="translate(-17,0)" >
<path fill="black" d="M-21 -220 Q-2 -225 12.5 -227 Q27 -229 42 -229 Q79 -229 96.5 -195.5 Q114 -162 114 -87 L114 1082 L366 1082 L366 -87 Q366 -258 293.5 -347.5 Q221 -437 90 -437 Q62 -437 35.5 -433 Q9 -429 -20 -420 L-21 -220 Z " />
</g>
<g transform="translate(-30,659)" >
<path fill="black" d="M112 706 Q112 764 148.5 802 Q185 840 246 840 Q309 840 345.5 802 Q382 764 382 706 Q382 649 345.5 611 Q309 573 246 573 Q185 573 148.5 611 Q112 649 112 706 Z " />
</g>
</glyph>
<glyph glyph-name="k" unicode="k" horiz-adv-x="814" d="M85 1537 L335 1537 L335 678 L345 693 L518 1082 L789 1082 L544 648 L811 0 L525 0 L369 457 L335 428 L335 0 L85 0 L85 1537 Z " />
<glyph glyph-name="l" unicode="l" horiz-adv-x="501" d="M94 1536 L346 1536 L346 308 Q346 271 349 248 Q352 225 359 212 Q366 199 378 194.5 Q390 190 409 190 Q427 190 440.5 193 Q454 196 462 199 L459 4 Q430 -6 399 -13 Q368 -20 328 -20 Q274 -20 230.5 -3.5 Q187 13 156.5 50 Q126 87 110 146 Q94 205 94 289 L94 1536 Z " />
<glyph glyph-name="m" unicode="m" horiz-adv-x="1221" d="M87 1082 L321 1082 L328 988 Q363 1042 411 1072 Q459 1102 519 1102 Q579 1102 625 1070 Q671 1038 699 968 Q733 1031 783.5 1066.5 Q834 1102 903 1102 Q954 1102 996.5 1080 Q1039 1058 1069.5 1009.5 Q1100 961 1116.5 884.5 Q1133 808 1133 698 L1133 0 L882 0 L882 699 Q882 757 877 795 Q872 833 862.5 855.5 Q853 878 839.5 887 Q826 896 809 896 Q783 896 763.5 875 Q744 854 732 818 Q734 796 735 772 Q736 748 736 722 L736 0 L484 0 L484 697 Q484 753 479.5 791 Q475 829 466 852 Q457 875 443.5 885.5 Q430 896 412 896 Q388 896 369.5 877 Q351 858 337 825 L337 0 L87 0 L87 1082 Z " />
<glyph glyph-name="n" unicode="n" horiz-adv-x="826" d="M79 1082 L314 1082 L321 979 Q358 1039 407.5 1070.5 Q457 1102 518 1102 Q566 1102 607 1080.5 Q648 1059 678 1011 Q708 963 725 885.5 Q742 808 742 697 L742 0 L492 0 L492 698 Q492 806 470.5 851 Q449 896 408 896 Q382 896 362.5 877.5 Q343 859 329 826 L329 0 L79 0 L79 1082 Z " />
<glyph glyph-name="o" unicode="o" horiz-adv-x="831" d="M62 585 Q62 713 86.5 809.5 Q111 906 157 971 Q203 1036 268 1069 Q333 1102 414 1102 Q496 1102 561.5 1069 Q627 1036 673 971 Q719 906 744 809.5 Q769 713 769 585 L769 497 Q769 369 744 272.5 Q719 176 673.5 111 Q628 46 562.5 13 Q497 -20 416 -20 Q334 -20 268.5 13 Q203 46 157 111 Q111 176 86.5 272.5 Q62 369 62 497 L62 585 Z M518 585 Q518 747 491 823 Q464 899 414 899 Q368 899 340 822.5 Q312 746 312 585 L312 497 Q312 334 339.5 259 Q367 184 416 184 Q466 184 492 259 Q518 334 518 497 L518 585 Z " />
<glyph glyph-name="p" unicode="p" horiz-adv-x="828" d="M87 1082 L318 1082 L326 994 Q356 1046 397.5 1074 Q439 1102 495 1102 Q635 1102 703 977.5 Q771 853 771 585 L771 498 Q771 239 703.5 109.5 Q636 -20 497 -20 Q445 -20 405.5 4 Q366 28 336 73 L336 -416 L87 -416 L87 1082 Z M336 246 Q348 217 368.5 200.5 Q389 184 421 184 Q480 184 500.5 259.5 Q521 335 521 498 L521 585 Q521 668 516 727 Q511 786 499.5 823.5 Q488 861 469 878.5 Q450 896 421 896 Q390 896 369.5 877 Q349 858 336 824 L336 246 Z " />
<glyph glyph-name="q" unicode="q" horiz-adv-x="828" d="M489 72 Q460 27 421.5 3.5 Q383 -20 333 -20 Q55 -20 55 497 L55 584 Q55 853 124.5 977.5 Q194 1102 333 1102 Q391 1102 433.5 1071 Q476 1040 507 983 L523 1082 L740 1082 L740 -416 L489 -416 L489 72 Z M489 834 Q476 865 456 882 Q436 899 407 899 Q349 899 327.5 824.5 Q306 750 306 584 L306 497 Q306 334 326.5 259 Q347 184 406 184 Q436 184 456 199.5 Q476 215 489 242 L489 834 Z " />
<glyph glyph-name="r" unicode="r" horiz-adv-x="571" d="M85 1082 L322 1082 L330 969 Q355 1032 389.5 1067 Q424 1102 468 1102 Q484 1102 502 1098 Q520 1094 531 1089 L529 832 Q514 836 490.5 838 Q467 840 452 840 Q407 840 379.5 817.5 Q352 795 337 750 L337 0 L85 0 L85 1082 Z " />
<glyph glyph-name="s" unicode="s" horiz-adv-x="759" d="M266 331 Q267 241 296 204 Q325 167 368 167 Q410 167 432.5 196.5 Q455 226 455 277 Q455 309 445.5 331.5 Q436 354 417.5 372.5 Q399 391 372.5 408 Q346 425 311 446 Q255 479 210.5 509.5 Q166 540 135.5 577.5 Q105 615 88.5 664 Q72 713 72 783 Q72 850 88 908 Q104 966 140 1009 Q176 1052 234.5 1077 Q293 1102 378 1102 Q462 1102 522.5 1077 Q583 1052 621.5 1008 Q660 964 678 902.5 Q696 841 696 768 L464 768 Q464 799 460.5 826 Q457 853 448 873 Q439 893 424 904.5 Q409 916 386 916 Q346 916 327.5 882.5 Q309 849 309 804 Q309 772 317.5 751 Q326 730 343.5 713.5 Q361 697 388 681 Q415 665 453 643 Q509 611 554 582 Q599 553 631 515.5 Q663 478 680.5 427 Q698 376 698 299 Q698 227 679.5 168 Q661 109 622 67 Q583 25 523.5 2.5 Q464 -20 382 -20 Q286 -20 222 10 Q158 40 119 89 Q80 138 63.5 201 Q47 264 47 331 L266 331 Z " />
<glyph glyph-name="t" unicode="t" horiz-adv-x="526" d="M120 896 L29 896 L29 1082 L120 1082 L120 1347 L371 1347 L371 1082 L481 1082 L481 896 L371 896 L371 308 Q371 271 374 248 Q377 225 384 212 Q391 199 403.5 194.5 Q416 190 434 190 Q453 190 466 193 Q479 196 488 199 L484 4 Q455 -6 424.5 -13 Q394 -20 353 -20 Q299 -20 256 -3.5 Q213 13 182.5 50 Q152 87 136 146 Q120 205 120 289 L120 896 Z " />
<glyph glyph-name="u" unicode="u" horiz-adv-x="826" d="M80 1082 L330 1082 L330 381 Q330 326 334.5 288.5 Q339 251 348 228.5 Q357 206 370 196.5 Q383 187 399 187 Q434 187 456.5 209 Q479 231 493 269 L493 1082 L745 1082 L745 0 L509 0 L503 97 Q470 41 424.5 10.5 Q379 -20 320 -20 Q267 -20 222.5 2.5 Q178 25 146.5 74 Q115 123 97.5 199 Q80 275 80 383 L80 1082 Z " />
<glyph glyph-name="v" unicode="v" horiz-adv-x="761" d="M26 1082 L289 1082 L378 324 L469 1082 L731 1082 L502 0 L256 0 L26 1082 Z " />
<glyph glyph-name="w" unicode="w" horiz-adv-x="1043" d="M33 1082 L272 1082 L330 380 L433 1082 L609 1082 L711 373 L770 1082 L1008 1082 L837 0 L630 0 L522 664 L413 0 L204 0 L33 1082 Z " />
<glyph glyph-name="x" unicode="x" horiz-adv-x="763" d="M224 551 L40 1082 L304 1082 L384 701 L469 1082 L731 1082 L545 551 L738 0 L474 0 L383 399 L295 0 L31 0 L224 551 Z " />
<glyph glyph-name="y" unicode="y" horiz-adv-x="760" d="M115 -225 Q122 -226 127 -226.5 Q132 -227 140 -227 Q193 -227 222.5 -182 Q252 -137 260 -30 L266 -21 L19 1082 L288 1082 L378 328 L470 1082 L740 1082 L459 -164 Q449 -205 432.5 -252.5 Q416 -300 387.5 -341 Q359 -382 317 -409.5 Q275 -437 213 -437 Q196 -437 184 -435.5 Q172 -434 161.5 -431.5 Q151 -429 140.5 -426 Q130 -423 115 -419 L115 -225 Z " />
<glyph glyph-name="z" unicode="z" horiz-adv-x="765" d="M72 163 L418 879 L80 879 L80 1082 L686 1082 L686 926 L339 204 L687 204 L687 0 L72 0 L72 163 Z " />
<glyph glyph-name="braceleft" unicode="&#x7b;" horiz-adv-x="503" d="M401 -362 Q330 -333 282 -286 Q234 -239 205.5 -178.5 Q177 -118 165 -46.5 Q153 25 153 104 L153 308 Q153 407 129 466 Q105 525 52 525 L52 711 Q106 711 129.5 769.5 Q153 828 153 928 L153 1132 Q153 1211 165 1282.5 Q177 1354 205.5 1414.5 Q234 1475 282 1521.5 Q330 1568 401 1597 L448 1453 Q424 1436 409.5 1405 Q395 1374 387 1332 Q379 1290 376 1239.5 Q373 1189 373 1132 L373 928 Q373 828 341 747 Q309 666 240 618 Q309 570 341 489 Q373 408 373 308 L373 104 Q373 47 375.5 -3.5 Q378 -54 386 -96 Q394 -138 408.5 -169 Q423 -200 446 -217 L401 -362 Z " />
<glyph glyph-name="bar" unicode="&#x7c;" horiz-adv-x="442" d="M148 -270 L148 1456 L296 1456 L296 -270 L148 -270 Z " />
<glyph glyph-name="braceright" unicode="&#x7d;" horiz-adv-x="503" d="M57 -217 Q81 -200 95.5 -169 Q110 -138 118 -96 Q126 -54 128.5 -3.5 Q131 47 131 104 L131 308 Q131 411 164.5 492 Q198 573 271 618 Q198 663 164.5 744 Q131 825 131 928 L131 1132 Q131 1189 128 1239.5 Q125 1290 117 1332 Q109 1374 94 1405 Q79 1436 56 1453 L103 1597 Q174 1568 222 1521.5 Q270 1475 299 1414.5 Q328 1354 340 1282.5 Q352 1211 352 1132 L352 928 Q352 828 375 769.5 Q398 711 453 711 L453 525 Q398 525 375 466 Q352 407 352 308 L352 104 Q352 25 340 -46.5 Q328 -118 299 -178.5 Q270 -239 222 -286 Q174 -333 103 -362 L57 -217 Z " />
<glyph glyph-name="asciitilde" unicode="&#x7e;" horiz-adv-x="914" d="M83 424 Q83 513 101 586 Q119 659 150 711 Q181 763 224 791 Q267 819 316 819 Q367 819 412.5 785.5 Q458 752 495 683 Q540 596 580 596 Q595 596 607.5 610.5 Q620 625 630 651 Q640 677 645.5 712 Q651 747 651 789 L830 789 Q830 701 812 626.5 Q794 552 762.5 498.5 Q731 445 688.5 415 Q646 385 596 385 Q544 385 502 418 Q460 451 418 523 Q395 564 373.5 586.5 Q352 609 331 609 Q301 609 282 557.5 Q263 506 263 423 L83 424 Z " />
<glyph glyph-name="uni00A0" unicode="&#xa0;" horiz-adv-x="396" />
<glyph glyph-name="exclamdown" unicode="&#xa1;" horiz-adv-x="481" d="M139 657 L343 657 L376 -367 L108 -367 L139 657 Z M243 830 Q213 830 188 840.5 Q163 851 145.5 869.5 Q128 888 118.5 913 Q109 938 109 967 Q109 996 118.5 1020.5 Q128 1045 145.5 1063 Q163 1081 188 1091.5 Q213 1102 243 1102 Q274 1102 299 1091.5 Q324 1081 342 1063 Q360 1045 369.5 1020.5 Q379 996 379 967 Q379 938 369.5 913 Q360 888 342 869.5 Q324 851 299 840.5 Q274 830 243 830 Z " />
<glyph glyph-name="cent" unicode="&#xa2;" horiz-adv-x="1052" d="M354 -10 Q222 22 158.5 150.5 Q95 279 95 491 L95 591 Q95 804 159 932 Q223 1060 354 1092 L354 1318 L513 1318 L513 1094 Q624 1069 689 966.5 Q754 864 753 691 L518 691 Q519 794 501.5 846.5 Q484 899 434 899 Q403 899 385 878.5 Q367 858 358.5 818.5 Q350 779 348 722 Q346 665 346 591 L346 491 Q346 416 348 359 Q350 302 358.5 263 Q367 224 385.5 204 Q404 184 437 184 Q480 184 500 225 Q520 266 518 363 L753 363 Q753 287 735.5 223.5 Q718 160 686 112 Q654 64 610 32.5 Q566 1 513 -12 L513 -245 L354 -245 L354 -10 Z " />
<glyph glyph-name="sterling" unicode="&#xa3;" horiz-adv-x="881" d="M96 211 L156 211 Q170 217 178 238.5 Q186 260 190 288.5 Q194 317 194.5 350.5 Q195 384 195 414 L193 594 L95 594 L95 801 L190 801 L187 1039 Q185 1143 207 1224 Q229 1305 270.5 1361 Q312 1417 371 1446.5 Q430 1476 501 1476 Q579 1476 639.5 1446.5 Q700 1417 741.5 1364 Q783 1311 804 1236 Q825 1161 825 1069 L580 1069 Q580 1123 574 1160.5 Q568 1198 557.5 1221 Q547 1244 533.5 1254.5 Q520 1265 505 1265 Q479 1265 461 1207.5 Q443 1150 443 1039 L449 801 L645 801 L645 594 L454 594 L458 425 Q460 361 446.5 307 Q433 253 400 211 L824 211 L824 0 L96 0 L96 211 Z " />
<glyph glyph-name="currency" unicode="&#xa4;" horiz-adv-x="1152" d="M69 115 L180 254 Q141 329 119.5 418.5 Q98 508 98 608 Q98 713 121.5 805.5 Q145 898 187 974 L69 1123 L187 1264 L300 1121 Q360 1175 430 1204.5 Q500 1234 578 1234 Q656 1234 727 1204 Q798 1174 858 1119 L972 1265 L1090 1123 L971 972 Q1013 895 1035.5 803 Q1058 711 1058 608 Q1058 509 1037 420.5 Q1016 332 978 257 L1090 115 L972 -27 L868 105 Q807 45 733.5 12.5 Q660 -20 578 -20 Q497 -20 423.5 12.5 Q350 45 290 104 L187 -26 L69 115 Z M578 165 Q645 165 704 199.5 Q763 234 807.5 293.5 Q852 353 877.5 434 Q903 515 903 608 Q903 701 877.5 781.5 Q852 862 807.5 922 Q763 982 704 1016 Q645 1050 578 1050 Q510 1050 451 1016 Q392 982 348 922 Q304 862 278.5 781.5 Q253 701 253 608 Q253 515 278.5 434 Q304 353 348 293.5 Q392 234 451 199.5 Q510 165 578 165 Z " />
<glyph glyph-name="yen" unicode="&#xa5;" horiz-adv-x="797" d="M267 296 L79 296 L79 450 L267 450 L267 585 L79 585 L79 740 L239 740 L28 1456 L298 1456 L401 996 L504 1456 L770 1456 L562 740 L694 740 L694 585 L526 585 L526 450 L694 450 L694 296 L526 296 L526 0 L267 0 L267 296 Z " />
<glyph glyph-name="brokenbar" unicode="&#xa6;" horiz-adv-x="442" d="M108 -270 L108 524 L336 524 L336 -270 L108 -270 Z M108 698 L108 1456 L336 1456 L336 698 L108 698 Z " />
<glyph glyph-name="section" unicode="&#xa7;" horiz-adv-x="925" d="M334 -46 Q334 -110 345 -152 Q356 -194 373.5 -219 Q391 -244 414 -254.5 Q437 -265 461 -265 Q517 -265 544 -218.5 Q571 -172 571 -100 Q571 -62 563.5 -32.5 Q556 -3 536.5 21.5 Q517 46 484.5 67.5 Q452 89 401 111 Q326 143 267 180 Q208 217 167 266.5 Q126 316 104.5 382.5 Q83 449 83 541 Q83 629 113 695 Q143 761 198 804 Q147 856 120.5 926.5 Q94 997 94 1101 Q94 1187 120 1256 Q146 1325 193.5 1374.5 Q241 1424 308 1450.5 Q375 1477 457 1477 Q541 1477 608 1449 Q675 1421 722 1366.5 Q769 1312 794 1232.5 Q819 1153 819 1049 L569 1049 Q569 1096 562.5 1137 Q556 1178 542 1208 Q528 1238 507 1255.5 Q486 1273 457 1273 Q427 1273 406 1259.5 Q385 1246 371.5 1223 Q358 1200 352 1169 Q346 1138 346 1103 Q346 1062 352.5 1031.5 Q359 1001 377.5 977 Q396 953 428.5 933 Q461 913 513 892 Q590 859 650 822.5 Q710 786 750.5 736.5 Q791 687 812 621 Q833 555 833 463 Q833 375 804 309 Q775 243 721 201 Q771 150 797 79 Q823 8 823 -97 Q823 -186 797 -255.5 Q771 -325 723.5 -372 Q676 -419 609.5 -443.5 Q543 -468 461 -468 Q391 -468 323 -447.5 Q255 -427 202 -378 Q149 -329 116.5 -248 Q84 -167 84 -46 L334 -46 Z M493 340 Q510 332 525.5 325.5 Q541 319 556 311 Q587 361 587 444 Q587 483 579.5 514 Q572 545 553.5 571.5 Q535 598 503.5 620 Q472 642 423 663 Q390 678 360 693 Q346 669 340 635 Q334 601 334 560 Q334 517 339.5 485 Q345 453 362.5 428 Q380 403 411 382 Q442 361 493 340 Z " />
<glyph glyph-name="dieresis" unicode="&#xa8;" horiz-adv-x="808" d="M480 1367 Q480 1392 489 1414 Q498 1436 514 1452 Q530 1468 552 1477 Q574 1486 600 1486 Q625 1486 646.5 1477 Q668 1468 684 1452 Q700 1436 709 1414 Q718 1392 718 1367 Q718 1342 709 1320 Q700 1298 684 1282 Q668 1266 646.5 1257 Q625 1248 600 1248 Q574 1248 552 1257 Q530 1266 514 1282 Q498 1298 489 1320 Q480 1342 480 1367 Z M75 1368 Q75 1393 84 1415 Q93 1437 109 1453 Q125 1469 147 1478 Q169 1487 195 1487 Q220 1487 241.5 1478 Q263 1469 279 1453 Q295 1437 304 1415 Q313 1393 313 1368 Q313 1343 304 1321 Q295 1299 279 1283 Q263 1267 241.5 1258 Q220 1249 195 1249 Q169 1249 147 1258 Q125 1267 109 1283 Q93 1299 84 1321 Q75 1343 75 1368 Z " />
<glyph glyph-name="copyright" unicode="&#xa9;" horiz-adv-x="1312" d="M649 -21 Q531 -21 427 36.5 Q323 94 245 195 Q167 296 122 433 Q77 570 77 729 Q77 888 122 1024.5 Q167 1161 245 1261.5 Q323 1362 427 1419 Q531 1476 649 1476 Q768 1476 872 1419 Q976 1362 1054 1261.5 Q1132 1161 1177 1024.5 Q1222 888 1222 729 Q1222 570 1177 433 Q1132 296 1054 195 Q976 94 872 36.5 Q768 -21 649 -21 Z M649 103 Q747 103 832.5 151 Q918 199 982 283 Q1046 367 1082.5 481.5 Q1119 596 1119 729 Q1119 862 1082.5 976 Q1046 1090 982 1174 Q918 1258 832.5 1305.5 Q747 1353 649 1353 Q552 1353 466 1305.5 Q380 1258 316 1174 Q252 1090 215 976 Q178 862 178 729 Q178 596 215 481.5 Q252 367 316 283 Q380 199 466 151 Q552 103 649 103 Z M355 788 Q355 874 374.5 945 Q394 1016 431 1067 Q468 1118 520 1146.5 Q572 1175 637 1175 Q763 1175 836.5 1097 Q910 1019 910 862 L780 862 Q780 959 744.5 1000.5 Q709 1042 637 1042 Q599 1042 570.5 1023.5 Q542 1005 522.5 971 Q503 937 493.5 891 Q484 845 484 789 L484 670 Q484 614 493.5 567 Q503 520 522.5 486.5 Q542 453 570.5 434.5 Q599 416 637 416 Q708 416 744 457 Q780 498 780 597 L909 597 Q909 440 836 361.5 Q763 283 637 283 Q572 283 520 311 Q468 339 431 390 Q394 441 374.5 512.5 Q355 584 355 670 L355 788 Z " />
<glyph glyph-name="guillemotleft" unicode="&#xab;" horiz-adv-x="766" >
<g transform="translate(-29,-1)" >
<path fill="black" d="M99 527 L99 546 L281 935 L432 935 L284 536 L432 137 L281 137 L99 527 Z " />
</g>
<g transform="translate(309,0)" >
<path fill="black" d="M99 527 L99 546 L281 935 L432 935 L284 536 L432 137 L281 137 L99 527 Z " />
</g>
</glyph>
<glyph glyph-name="logicalnot" unicode="&#xac;" horiz-adv-x="810" d="M112 804 L677 804 L677 375 L516 375 L516 636 L112 636 L112 804 Z " />
<glyph glyph-name="uni00AD" unicode="&#xad;" horiz-adv-x="657" >
<g transform="translate(9,0)" >
<path fill="black" d="M121 520 L121 725 L526 725 L526 520 L121 520 Z " />
</g>
</glyph>
<glyph glyph-name="registered" unicode="&#xae;" horiz-adv-x="1312" d="M650 -21 Q532 -21 427.5 36.5 Q323 94 245.5 195 Q168 296 123 433 Q78 570 78 729 Q78 888 123 1024.5 Q168 1161 245.5 1261.5 Q323 1362 427.5 1419 Q532 1476 650 1476 Q768 1476 872.5 1419 Q977 1362 1055 1261.5 Q1133 1161 1178 1024.5 Q1223 888 1223 729 Q1223 570 1178 433 Q1133 296 1055 195 Q977 94 872.5 36.5 Q768 -21 650 -21 Z M650 103 Q748 103 833.5 151 Q919 199 983 283 Q1047 367 1083.5 481.5 Q1120 596 1120 729 Q1120 862 1083.5 976 Q1047 1090 983 1174 Q919 1258 833.5 1305.5 Q748 1353 650 1353 Q553 1353 467 1305.5 Q381 1258 317.5 1174 Q254 1090 217 976 Q180 862 180 729 Q180 596 217 481.5 Q254 367 317.5 283 Q381 199 467 151 Q553 103 650 103 Z M411 1166 L638 1166 Q759 1166 830 1100.5 Q901 1035 901 906 Q901 851 880 800.5 Q859 750 819 720 Q864 688 881.5 635 Q899 582 899 515 L899 459 Q899 421 902.5 388 Q906 355 914 332 L914 316 L785 316 Q781 329 778.5 349 Q776 369 775 390 Q774 411 774 430 Q774 449 774 460 L774 514 Q774 586 748.5 620 Q723 654 661 654 L534 654 L534 316 L411 316 L411 1166 Z M640 786 Q667 786 692 793.5 Q717 801 736 816 Q755 831 766 852.5 Q777 874 777 903 Q777 977 746 1006 Q715 1035 638 1035 L534 1035 L534 786 L640 786 Z " />
<glyph glyph-name="overscore" unicode="&#xaf;" horiz-adv-x="788" d="M149 1293 L149 1451 L632 1451 L632 1293 L149 1293 Z " />
<glyph glyph-name="degree" unicode="&#xb0;" horiz-adv-x="666" d="M334 940 Q288 940 247.5 961 Q207 982 176.5 1018 Q146 1054 128 1102.5 Q110 1151 110 1206 Q110 1262 128 1311.5 Q146 1361 176.5 1397.5 Q207 1434 247.5 1455.5 Q288 1477 334 1477 Q379 1477 419 1455.5 Q459 1434 489 1397.5 Q519 1361 536 1311.5 Q553 1262 553 1206 Q553 1151 536 1102.5 Q519 1054 489 1018 Q459 982 419 961 Q379 940 334 940 Z M334 1082 Q374 1082 402 1117 Q430 1152 430 1206 Q430 1234 422.5 1257.5 Q415 1281 402 1298.5 Q389 1316 371.5 1326 Q354 1336 334 1336 Q314 1336 296 1326 Q278 1316 264.5 1298.5 Q251 1281 243 1257.5 Q235 1234 235 1206 Q235 1179 243 1156.5 Q251 1134 264.5 1117.5 Q278 1101 296 1091.5 Q314 1082 334 1082 Z " />
<glyph glyph-name="plusminus" unicode="&#xb1;" horiz-adv-x="792" d="M283 702 L87 702 L87 911 L283 911 L283 1279 L501 1279 L501 911 L698 911 L698 702 L501 702 L501 320 L283 320 L283 702 Z M107 206 L693 206 L693 1 L107 1 L107 206 Z " />
<glyph glyph-name="twosuperior" unicode="&#xb2;" horiz-adv-x="570" d="M77 667 L77 794 L264 1059 Q299 1110 313.5 1153 Q328 1196 328 1223 Q328 1265 316.5 1290.5 Q305 1316 284 1316 Q260 1316 248 1281.5 Q236 1247 236 1198 L65 1198 Q65 1254 80 1303 Q95 1352 122.5 1388.5 Q150 1425 188.5 1446.5 Q227 1468 275 1468 Q382 1468 439.5 1403.5 Q497 1339 497 1224 Q497 1182 485.5 1147.5 Q474 1113 455 1078 Q436 1043 410.5 1004.5 Q385 966 356 915 L301 818 L507 818 L507 667 L77 667 Z " />
<glyph glyph-name="threesuperior" unicode="&#xb3;" horiz-adv-x="570" d="M231 898 Q231 861 245.5 834.5 Q260 808 287 808 Q317 808 329 835.5 Q341 863 341 904 Q341 960 326 982.5 Q311 1005 282 1005 L219 1005 L219 1134 L282 1134 Q308 1134 320.5 1160.5 Q333 1187 333 1230 Q333 1264 322.5 1290 Q312 1316 281 1316 Q264 1316 251.5 1297 Q239 1278 239 1244 L68 1244 Q68 1298 85.5 1340 Q103 1382 132 1410.5 Q161 1439 199 1453.5 Q237 1468 278 1468 Q328 1468 369 1453.5 Q410 1439 440 1410.5 Q470 1382 486.5 1339.5 Q503 1297 503 1242 Q503 1183 475.5 1139 Q448 1095 404 1072 Q452 1052 481.5 1007.5 Q511 963 511 889 Q511 834 493 790.5 Q475 747 443.5 717 Q412 687 369 671.5 Q326 656 276 656 Q238 656 199.5 669.5 Q161 683 130 712 Q99 741 79.5 787 Q60 833 60 898 L231 898 Z " />
<glyph glyph-name="acute" unicode="&#xb4;" horiz-adv-x="576" d="M246 1536 L521 1536 L295 1233 L86 1233 L246 1536 Z " />
<glyph glyph-name="mu" unicode="&#xb5;" horiz-adv-x="936" d="M112 1082 L362 1082 L362 462 Q362 376 368 322 Q374 268 385.5 237.5 Q397 207 414.5 196 Q432 185 455 185 Q490 185 514 207.5 Q538 230 554 271 L554 1082 L805 1082 L805 0 L571 0 L568 40 Q543 11 512.5 -5 Q482 -21 446 -21 Q398 -21 362 3 L362 -416 L112 -416 L112 1082 Z " />
<glyph glyph-name="paragraph" unicode="&#xb6;" horiz-adv-x="732" d="M450 0 L450 520 L403 520 Q323 520 262 555 Q201 590 159.5 652.5 Q118 715 96.5 801 Q75 887 75 988 Q75 1089 96.5 1174.5 Q118 1260 159.5 1322.5 Q201 1385 262 1420.5 Q323 1456 403 1456 L630 1456 L630 0 L450 0 Z " />
<glyph glyph-name="middot" unicode="&#xb7;" horiz-adv-x="503" d="M112 706 Q112 764 148.5 802 Q185 840 246 840 Q309 840 345.5 802 Q382 764 382 706 Q382 649 345.5 611 Q309 573 246 573 Q185 573 148.5 611 Q112 649 112 706 Z " />
<glyph glyph-name="cedilla" unicode="&#xb8;" horiz-adv-x="436" d="M121 -308 Q145 -308 156 -288 Q167 -268 167 -220 Q167 -175 148 -158.5 Q129 -142 82 -136 L104 5 L291 5 L283 -52 Q301 -57 317.5 -68.5 Q334 -80 347.5 -100 Q361 -120 369 -151 Q377 -182 377 -225 Q377 -276 361.5 -318 Q346 -360 314.5 -390 Q283 -420 235.5 -436.5 Q188 -453 125 -453 L121 -308 Z " />
<glyph glyph-name="onesuperior" unicode="&#xb9;" horiz-adv-x="570" d="M239 667 L239 1234 L129 1188 L129 1336 L395 1455 L409 1455 L409 667 L239 667 Z " />
<glyph glyph-name="guillemotright" unicode="&#xbb;" horiz-adv-x="767" >
<g transform="translate(7,0)" >
<path fill="black" d="M222 535 L74 934 L225 934 L408 544 L408 525 L225 136 L74 136 L222 535 Z " />
</g>
<g transform="translate(356,0)" >
<path fill="black" d="M222 535 L74 934 L225 934 L408 544 L408 525 L225 136 L74 136 L222 535 Z " />
</g>
</glyph>
<glyph glyph-name="onequarter" unicode="&#xbc;" horiz-adv-x="1248" d="M752 1328 L869 1256 L393 118 L278 190 L752 1328 Z M518 287 L741 785 L741 789 L912 789 L912 318 L957 318 L957 163 L912 163 L912 0 L741 0 L741 163 L528 163 L518 287 Z M208 664 L208 1231 L98 1185 L98 1333 L364 1452 L378 1452 L378 664 L208 664 Z M741 318 L741 539 L737 532 L675 318 L741 318 Z " />
<glyph glyph-name="onehalf" unicode="&#xbd;" horiz-adv-x="1328" d="M240 672 L178 672 L178 1239 L68 1193 L68 1341 L334 1460 L348 1460 L348 931 L510 1320 L627 1248 L151 110 L36 182 L240 672 Z M603 127 L790 392 Q825 443 839.5 486 Q854 529 854 556 Q854 598 842.5 623.5 Q831 649 810 649 Q786 649 774 614.5 Q762 580 762 531 L591 531 Q591 587 606 636 Q621 685 648.5 721.5 Q676 758 714.5 779.5 Q753 801 801 801 Q908 801 965.5 736.5 Q1023 672 1023 557 Q1023 515 1011.5 480.5 Q1000 446 981 411 Q962 376 936.5 337.5 Q911 299 882 248 L827 151 L1033 151 L1033 0 L603 0 L603 127 Z " />
<glyph glyph-name="threequarters" unicode="&#xbe;" horiz-adv-x="1448" d="M238 667 Q209 676 182.5 694.5 Q156 713 135.5 741.5 Q115 770 103 808.5 Q91 847 91 898 L262 898 Q262 869 271.5 845 Q281 821 299 813 L364 969 Q350 1005 313 1005 L250 1005 L250 1134 L313 1134 Q339 1134 351.5 1160.5 Q364 1187 364 1230 Q364 1264 353.5 1290 Q343 1316 312 1316 Q295 1316 282.5 1297 Q270 1278 270 1244 L99 1244 Q99 1298 116.5 1340 Q134 1382 163 1410.5 Q192 1439 230 1453.5 Q268 1468 309 1468 Q392 1468 450 1428 Q508 1388 526 1310 L627 1248 L520 993 Q531 972 536.5 946.5 Q542 921 542 889 Q542 800 498 743 Q454 686 384 666 L151 110 L36 182 L238 667 Z M772 287 L995 785 L995 789 L1166 789 L1166 318 L1211 318 L1211 163 L1166 163 L1166 0 L995 0 L995 163 L782 163 L772 287 Z M995 318 L995 539 L991 532 L929 318 L995 318 Z " />
<glyph glyph-name="questiondown" unicode="&#xbf;" horiz-adv-x="760" d="M716 7 Q715 -91 689.5 -164.5 Q664 -238 620 -287 Q576 -336 517 -361 Q458 -386 389 -386 Q314 -386 254.5 -360.5 Q195 -335 153 -285.5 Q111 -236 89 -163.5 Q67 -91 67 2 Q67 69 81 125.5 Q95 182 118.5 232.5 Q142 283 172.5 328.5 Q203 374 235 419 Q252 445 263 471 Q274 497 280 526 Q286 555 289 587 Q292 619 293 657 L511 657 Q511 588 506 536 Q501 484 489.5 441 Q478 398 459.5 359 Q441 320 413 277 Q391 244 373.5 214.5 Q356 185 343.5 153.5 Q331 122 324.5 86 Q318 50 318 5 Q318 -86 337 -131 Q356 -176 384 -176 Q398 -176 412.5 -165.5 Q427 -155 438.5 -132.5 Q450 -110 457.5 -75.5 Q465 -41 465 7 L716 7 Z M406 831 Q376 831 351 841.5 Q326 852 308.5 870.5 Q291 889 281.5 914 Q272 939 272 968 Q272 997 281.5 1021.5 Q291 1046 308.5 1064 Q326 1082 351 1092.5 Q376 1103 406 1103 Q437 1103 462 1092.5 Q487 1082 505 1064 Q523 1046 532.5 1021.5 Q542 997 542 968 Q542 939 532.5 914 Q523 889 505 870.5 Q487 852 462 841.5 Q437 831 406 831 Z " />
<glyph glyph-name="Agrave" unicode="&#xc0;" horiz-adv-x="1004" >
<path fill="black" d="M382 1456 L621 1456 L983 0 L705 0 L644 329 L361 329 L300 0 L23 0 L382 1456 Z M604 542 L502 1095 L400 542 L604 542 Z " />
<g transform="translate(143,310)" >
<path fill="black" d="M269 1233 L41 1536 L319 1536 L478 1233 L269 1233 Z " />
</g>
</glyph>
<glyph glyph-name="Aacute" unicode="&#xc1;" horiz-adv-x="1004" >
<path fill="black" d="M382 1456 L621 1456 L983 0 L705 0 L644 329 L361 329 L300 0 L23 0 L382 1456 Z M604 542 L502 1095 L400 542 L604 542 Z " />
<g transform="translate(296,310)" >
<path fill="black" d="M246 1536 L521 1536 L295 1233 L86 1233 L246 1536 Z " />
</g>
</glyph>
<glyph glyph-name="Acircumflex" unicode="&#xc2;" horiz-adv-x="1004" >
<path fill="black" d="M382 1456 L621 1456 L983 0 L705 0 L644 329 L361 329 L300 0 L23 0 L382 1456 Z M604 542 L502 1095 L400 542 L604 542 Z " />
<g transform="translate(118,310)" >
<path fill="black" d="M96 1262 L313 1537 L455 1537 L677 1260 L677 1248 L483 1248 L385 1402 L285 1248 L96 1248 L96 1262 Z " />
</g>
</glyph>
<glyph glyph-name="Atilde" unicode="&#xc3;" horiz-adv-x="1004" >
<path fill="black" d="M382 1456 L621 1456 L983 0 L705 0 L644 329 L361 329 L300 0 L23 0 L382 1456 Z M604 542 L502 1095 L400 542 L604 542 Z " />
<g transform="translate(129,309)" >
<path fill="black" d="M109 1254 Q109 1309 121 1356.5 Q133 1404 154 1439.5 Q175 1475 204.5 1495 Q234 1515 269 1515 Q293 1515 315.5 1501 Q338 1487 360.5 1470.5 Q383 1454 405.5 1440 Q428 1426 452 1426 Q472 1426 486 1453.5 Q500 1481 500 1528 L637 1517 Q637 1462 625 1414.5 Q613 1367 591.5 1332.5 Q570 1298 540.5 1278.5 Q511 1259 476 1259 Q445 1259 422 1273 Q399 1287 379 1303.5 Q359 1320 339 1334 Q319 1348 294 1348 Q274 1348 260.5 1320.5 Q247 1293 247 1247 L109 1254 Z " />
</g>
</glyph>
<glyph glyph-name="Adieresis" unicode="&#xc4;" horiz-adv-x="1004" >
<g transform="translate(100,310)" >
<path fill="black" d="M480 1367 Q480 1392 489 1414 Q498 1436 514 1452 Q530 1468 552 1477 Q574 1486 600 1486 Q625 1486 646.5 1477 Q668 1468 684 1452 Q700 1436 709 1414 Q718 1392 718 1367 Q718 1342 709 1320 Q700 1298 684 1282 Q668 1266 646.5 1257 Q625 1248 600 1248 Q574 1248 552 1257 Q530 1266 514 1282 Q498 1298 489 1320 Q480 1342 480 1367 Z M75 1368 Q75 1393 84 1415 Q93 1437 109 1453 Q125 1469 147 1478 Q169 1487 195 1487 Q220 1487 241.5 1478 Q263 1469 279 1453 Q295 1437 304 1415 Q313 1393 313 1368 Q313 1343 304 1321 Q295 1299 279 1283 Q263 1267 241.5 1258 Q220 1249 195 1249 Q169 1249 147 1258 Q125 1267 109 1283 Q93 1299 84 1321 Q75 1343 75 1368 Z " />
</g>
<path fill="black" d="M382 1456 L621 1456 L983 0 L705 0 L644 329 L361 329 L300 0 L23 0 L382 1456 Z M604 542 L502 1095 L400 542 L604 542 Z " />
</glyph>
<glyph glyph-name="Aring" unicode="&#xc5;" horiz-adv-x="1004" d="M382 1456 L621 1456 L983 0 L705 0 L644 329 L361 329 L300 0 L23 0 L382 1456 Z M505 1528 Q465 1528 431.5 1543.5 Q398 1559 374 1586.5 Q350 1614 336.5 1651 Q323 1688 323 1731 Q323 1773 336.5 1810.5 Q350 1848 374 1876 Q398 1904 431.5 1920.5 Q465 1937 505 1937 Q545 1937 578 1920.5 Q611 1904 635 1876 Q659 1848 672.5 1810.5 Q686 1773 686 1731 Q686 1688 672.5 1651 Q659 1614 635 1586.5 Q611 1559 578 1543.5 Q545 1528 505 1528 Z M604 542 L502 1095 L400 542 L604 542 Z M505 1619 Q544 1619 566 1652.5 Q588 1686 588 1731 Q588 1753 582.5 1773 Q577 1793 566 1808.5 Q555 1824 540 1833 Q525 1842 505 1842 Q486 1842 470 1833 Q454 1824 443.5 1808.5 Q433 1793 427 1773 Q421 1753 421 1731 Q421 1709 427 1688.5 Q433 1668 443.5 1652.5 Q454 1637 470 1628 Q486 1619 505 1619 Z " />
<glyph glyph-name="AE" unicode="&#xc6;" horiz-adv-x="1356" d="M515 1456 L1244 1456 L1244 1251 L876 1251 L887 854 L1190 854 L1190 649 L893 649 L905 206 L1284 206 L1284 0 L660 0 L650 340 L417 340 L317 0 L24 0 L515 1456 Z M644 562 L630 1063 L482 562 L644 562 Z " />
<glyph glyph-name="Ccedilla" unicode="&#xc7;" horiz-adv-x="951" d="M412 -313 Q436 -313 447 -293 Q458 -273 458 -225 Q458 -180 439 -163.5 Q420 -147 373 -141 L394 -9 Q239 27 156.5 182 Q74 337 74 596 L74 861 Q74 1007 103 1121.5 Q132 1236 185.5 1315 Q239 1394 315.5 1435.5 Q392 1477 488 1477 Q684 1477 784 1347 Q884 1217 897 972 L637 972 Q636 1054 628.5 1110 Q621 1166 604 1200.5 Q587 1235 559 1250 Q531 1265 488 1265 Q405 1265 370 1167 Q335 1069 335 863 L335 596 Q335 497 341.5 421.5 Q348 346 365 295 Q382 244 412 217.5 Q442 191 488 191 Q526 191 553.5 205 Q581 219 598.5 252.5 Q616 286 624.5 341 Q633 396 634 478 L896 478 Q888 267 807 143 Q726 19 580 -11 L574 -57 Q592 -62 608.5 -73.5 Q625 -85 638.5 -105 Q652 -125 660 -156 Q668 -187 668 -230 Q668 -281 652.5 -323 Q637 -365 605.5 -395 Q574 -425 526.5 -441.5 Q479 -458 416 -458 L412 -313 Z " />
<glyph glyph-name="Egrave" unicode="&#xc8;" horiz-adv-x="816" >
<path fill="black" d="M94 1456 L769 1456 L769 1244 L354 1244 L354 854 L704 854 L704 647 L354 647 L354 211 L770 211 L770 0 L94 0 L94 1456 Z " />
<g transform="translate(94,317)" >
<path fill="black" d="M269 1233 L41 1536 L319 1536 L478 1233 L269 1233 Z " />
</g>
</glyph>
<glyph glyph-name="Eacute" unicode="&#xc9;" horiz-adv-x="816" >
<path fill="black" d="M94 1456 L769 1456 L769 1244 L354 1244 L354 854 L704 854 L704 647 L354 647 L354 211 L770 211 L770 0 L94 0 L94 1456 Z " />
<g transform="translate(247,317)" >
<path fill="black" d="M246 1536 L521 1536 L295 1233 L86 1233 L246 1536 Z " />
</g>
</glyph>
<glyph glyph-name="Ecircumflex" unicode="&#xca;" horiz-adv-x="816" >
<path fill="black" d="M94 1456 L769 1456 L769 1244 L354 1244 L354 854 L704 854 L704 647 L354 647 L354 211 L770 211 L770 0 L94 0 L94 1456 Z " />
<g transform="translate(69,317)" >
<path fill="black" d="M96 1262 L313 1537 L455 1537 L677 1260 L677 1248 L483 1248 L385 1402 L285 1248 L96 1248 L96 1262 Z " />
</g>
</glyph>
<glyph glyph-name="Edieresis" unicode="&#xcb;" horiz-adv-x="816" >
<g transform="translate(51,317)" >
<path fill="black" d="M480 1367 Q480 1392 489 1414 Q498 1436 514 1452 Q530 1468 552 1477 Q574 1486 600 1486 Q625 1486 646.5 1477 Q668 1468 684 1452 Q700 1436 709 1414 Q718 1392 718 1367 Q718 1342 709 1320 Q700 1298 684 1282 Q668 1266 646.5 1257 Q625 1248 600 1248 Q574 1248 552 1257 Q530 1266 514 1282 Q498 1298 489 1320 Q480 1342 480 1367 Z M75 1368 Q75 1393 84 1415 Q93 1437 109 1453 Q125 1469 147 1478 Q169 1487 195 1487 Q220 1487 241.5 1478 Q263 1469 279 1453 Q295 1437 304 1415 Q313 1393 313 1368 Q313 1343 304 1321 Q295 1299 279 1283 Q263 1267 241.5 1258 Q220 1249 195 1249 Q169 1249 147 1258 Q125 1267 109 1283 Q93 1299 84 1321 Q75 1343 75 1368 Z " />
</g>
<path fill="black" d="M94 1456 L769 1456 L769 1244 L354 1244 L354 854 L704 854 L704 647 L354 647 L354 211 L770 211 L770 0 L94 0 L94 1456 Z " />
</glyph>
<glyph glyph-name="Igrave" unicode="&#xcc;" horiz-adv-x="468" >
<path fill="black" d="M105 0 L105 1456 L364 1456 L364 0 L105 0 Z " />
<g transform="translate(-126,317)" >
<path fill="black" d="M269 1233 L41 1536 L319 1536 L478 1233 L269 1233 Z " />
</g>
</glyph>
<glyph glyph-name="Iacute" unicode="&#xcd;" horiz-adv-x="468" >
<path fill="black" d="M105 0 L105 1456 L364 1456 L364 0 L105 0 Z " />
<g transform="translate(27,317)" >
<path fill="black" d="M246 1536 L521 1536 L295 1233 L86 1233 L246 1536 Z " />
</g>
</glyph>
<glyph glyph-name="Icircumflex" unicode="&#xce;" horiz-adv-x="468" >
<path fill="black" d="M105 0 L105 1456 L364 1456 L364 0 L105 0 Z " />
<g transform="translate(-151,317)" >
<path fill="black" d="M96 1262 L313 1537 L455 1537 L677 1260 L677 1248 L483 1248 L385 1402 L285 1248 L96 1248 L96 1262 Z " />
</g>
</glyph>
<glyph glyph-name="Idieresis" unicode="&#xcf;" horiz-adv-x="468" >
<g transform="translate(-169,317)" >
<path fill="black" d="M480 1367 Q480 1392 489 1414 Q498 1436 514 1452 Q530 1468 552 1477 Q574 1486 600 1486 Q625 1486 646.5 1477 Q668 1468 684 1452 Q700 1436 709 1414 Q718 1392 718 1367 Q718 1342 709 1320 Q700 1298 684 1282 Q668 1266 646.5 1257 Q625 1248 600 1248 Q574 1248 552 1257 Q530 1266 514 1282 Q498 1298 489 1320 Q480 1342 480 1367 Z M75 1368 Q75 1393 84 1415 Q93 1437 109 1453 Q125 1469 147 1478 Q169 1487 195 1487 Q220 1487 241.5 1478 Q263 1469 279 1453 Q295 1437 304 1415 Q313 1393 313 1368 Q313 1343 304 1321 Q295 1299 279 1283 Q263 1267 241.5 1258 Q220 1249 195 1249 Q169 1249 147 1258 Q125 1267 109 1283 Q93 1299 84 1321 Q75 1343 75 1368 Z " />
</g>
<path fill="black" d="M105 0 L105 1456 L364 1456 L364 0 L105 0 Z " />
</glyph>
<glyph glyph-name="Eth" unicode="&#xd0;" horiz-adv-x="937" d="M94 650 L-6 650 L-6 823 L94 823 L94 1456 L408 1456 Q509 1456 592.5 1416.5 Q676 1377 735 1300.5 Q794 1224 826.5 1111 Q859 998 859 851 L859 605 Q859 458 826.5 345 Q794 232 735 155.5 Q676 79 593 39.5 Q510 0 408 0 L94 0 L94 650 Z M408 211 Q467 211 504 234 Q541 257 562 305 Q583 353 590.5 427.5 Q598 502 598 605 L598 853 Q598 958 590 1032.5 Q582 1107 561 1154 Q540 1201 503 1222.5 Q466 1244 408 1244 L354 1244 L354 823 L491 823 L491 650 L354 650 L354 211 L408 211 Z " />
<glyph glyph-name="Ntilde" unicode="&#xd1;" horiz-adv-x="1014" >
<path fill="black" d="M94 1456 L388 1456 L660 535 L660 1456 L918 1456 L918 0 L641 0 L354 882 L354 0 L94 0 L94 1456 Z " />
<g transform="translate(137,309)" >
<path fill="black" d="M109 1254 Q109 1309 121 1356.5 Q133 1404 154 1439.5 Q175 1475 204.5 1495 Q234 1515 269 1515 Q293 1515 315.5 1501 Q338 1487 360.5 1470.5 Q383 1454 405.5 1440 Q428 1426 452 1426 Q472 1426 486 1453.5 Q500 1481 500 1528 L637 1517 Q637 1462 625 1414.5 Q613 1367 591.5 1332.5 Q570 1298 540.5 1278.5 Q511 1259 476 1259 Q445 1259 422 1273 Q399 1287 379 1303.5 Q359 1320 339 1334 Q319 1348 294 1348 Q274 1348 260.5 1320.5 Q247 1293 247 1247 L109 1254 Z " />
</g>
</glyph>
<glyph glyph-name="Ograve" unicode="&#xd2;" horiz-adv-x="1004" >
<path fill="black" d="M77 851 Q77 1007 107.5 1124 Q138 1241 194 1319 Q250 1397 328 1436.5 Q406 1476 501 1476 Q596 1476 674 1436.5 Q752 1397 808 1319 Q864 1241 895 1124 Q926 1007 926 851 L926 593 Q926 440 895 325 Q864 210 808.5 133.5 Q753 57 675 18.5 Q597 -20 503 -20 Q408 -20 329.5 18.5 Q251 57 195 133.5 Q139 210 108 325 Q77 440 77 593 L77 851 Z M666 853 Q666 962 655.5 1039.5 Q645 1117 624 1166 Q603 1215 572 1238 Q541 1261 501 1261 Q460 1261 429.5 1238 Q399 1215 378.5 1166 Q358 1117 347.5 1039.5 Q337 962 337 853 L337 593 Q337 487 347.5 411.5 Q358 336 379 288 Q400 240 431 217.5 Q462 195 503 195 Q543 195 573.5 217.5 Q604 240 624.5 288 Q645 336 655.5 411.5 Q666 487 666 593 L666 853 Z " />
<g transform="translate(142,311)" >
<path fill="black" d="M269 1233 L41 1536 L319 1536 L478 1233 L269 1233 Z " />
</g>
</glyph>
<glyph glyph-name="Oacute" unicode="&#xd3;" horiz-adv-x="1004" >
<path fill="black" d="M77 851 Q77 1007 107.5 1124 Q138 1241 194 1319 Q250 1397 328 1436.5 Q406 1476 501 1476 Q596 1476 674 1436.5 Q752 1397 808 1319 Q864 1241 895 1124 Q926 1007 926 851 L926 593 Q926 440 895 325 Q864 210 808.5 133.5 Q753 57 675 18.5 Q597 -20 503 -20 Q408 -20 329.5 18.5 Q251 57 195 133.5 Q139 210 108 325 Q77 440 77 593 L77 851 Z M666 853 Q666 962 655.5 1039.5 Q645 1117 624 1166 Q603 1215 572 1238 Q541 1261 501 1261 Q460 1261 429.5 1238 Q399 1215 378.5 1166 Q358 1117 347.5 1039.5 Q337 962 337 853 L337 593 Q337 487 347.5 411.5 Q358 336 379 288 Q400 240 431 217.5 Q462 195 503 195 Q543 195 573.5 217.5 Q604 240 624.5 288 Q645 336 655.5 411.5 Q666 487 666 593 L666 853 Z " />
<g transform="translate(295,311)" >
<path fill="black" d="M246 1536 L521 1536 L295 1233 L86 1233 L246 1536 Z " />
</g>
</glyph>
<glyph glyph-name="Ocircumflex" unicode="&#xd4;" horiz-adv-x="1004" >
<path fill="black" d="M77 851 Q77 1007 107.5 1124 Q138 1241 194 1319 Q250 1397 328 1436.5 Q406 1476 501 1476 Q596 1476 674 1436.5 Q752 1397 808 1319 Q864 1241 895 1124 Q926 1007 926 851 L926 593 Q926 440 895 325 Q864 210 808.5 133.5 Q753 57 675 18.5 Q597 -20 503 -20 Q408 -20 329.5 18.5 Q251 57 195 133.5 Q139 210 108 325 Q77 440 77 593 L77 851 Z M666 853 Q666 962 655.5 1039.5 Q645 1117 624 1166 Q603 1215 572 1238 Q541 1261 501 1261 Q460 1261 429.5 1238 Q399 1215 378.5 1166 Q358 1117 347.5 1039.5 Q337 962 337 853 L337 593 Q337 487 347.5 411.5 Q358 336 379 288 Q400 240 431 217.5 Q462 195 503 195 Q543 195 573.5 217.5 Q604 240 624.5 288 Q645 336 655.5 411.5 Q666 487 666 593 L666 853 Z " />
<g transform="translate(117,311)" >
<path fill="black" d="M96 1262 L313 1537 L455 1537 L677 1260 L677 1248 L483 1248 L385 1402 L285 1248 L96 1248 L96 1262 Z " />
</g>
</glyph>
<glyph glyph-name="Otilde" unicode="&#xd5;" horiz-adv-x="1004" >
<path fill="black" d="M77 851 Q77 1007 107.5 1124 Q138 1241 194 1319 Q250 1397 328 1436.5 Q406 1476 501 1476 Q596 1476 674 1436.5 Q752 1397 808 1319 Q864 1241 895 1124 Q926 1007 926 851 L926 593 Q926 440 895 325 Q864 210 808.5 133.5 Q753 57 675 18.5 Q597 -20 503 -20 Q408 -20 329.5 18.5 Q251 57 195 133.5 Q139 210 108 325 Q77 440 77 593 L77 851 Z M666 853 Q666 962 655.5 1039.5 Q645 1117 624 1166 Q603 1215 572 1238 Q541 1261 501 1261 Q460 1261 429.5 1238 Q399 1215 378.5 1166 Q358 1117 347.5 1039.5 Q337 962 337 853 L337 593 Q337 487 347.5 411.5 Q358 336 379 288 Q400 240 431 217.5 Q462 195 503 195 Q543 195 573.5 217.5 Q604 240 624.5 288 Q645 336 655.5 411.5 Q666 487 666 593 L666 853 Z " />
<g transform="translate(128,310)" >
<path fill="black" d="M109 1254 Q109 1309 121 1356.5 Q133 1404 154 1439.5 Q175 1475 204.5 1495 Q234 1515 269 1515 Q293 1515 315.5 1501 Q338 1487 360.5 1470.5 Q383 1454 405.5 1440 Q428 1426 452 1426 Q472 1426 486 1453.5 Q500 1481 500 1528 L637 1517 Q637 1462 625 1414.5 Q613 1367 591.5 1332.5 Q570 1298 540.5 1278.5 Q511 1259 476 1259 Q445 1259 422 1273 Q399 1287 379 1303.5 Q359 1320 339 1334 Q319 1348 294 1348 Q274 1348 260.5 1320.5 Q247 1293 247 1247 L109 1254 Z " />
</g>
</glyph>
<glyph glyph-name="Odieresis" unicode="&#xd6;" horiz-adv-x="1004" >
<g transform="translate(99,311)" >
<path fill="black" d="M480 1367 Q480 1392 489 1414 Q498 1436 514 1452 Q530 1468 552 1477 Q574 1486 600 1486 Q625 1486 646.5 1477 Q668 1468 684 1452 Q700 1436 709 1414 Q718 1392 718 1367 Q718 1342 709 1320 Q700 1298 684 1282 Q668 1266 646.5 1257 Q625 1248 600 1248 Q574 1248 552 1257 Q530 1266 514 1282 Q498 1298 489 1320 Q480 1342 480 1367 Z M75 1368 Q75 1393 84 1415 Q93 1437 109 1453 Q125 1469 147 1478 Q169 1487 195 1487 Q220 1487 241.5 1478 Q263 1469 279 1453 Q295 1437 304 1415 Q313 1393 313 1368 Q313 1343 304 1321 Q295 1299 279 1283 Q263 1267 241.5 1258 Q220 1249 195 1249 Q169 1249 147 1258 Q125 1267 109 1283 Q93 1299 84 1321 Q75 1343 75 1368 Z " />
</g>
<path fill="black" d="M77 851 Q77 1007 107.5 1124 Q138 1241 194 1319 Q250 1397 328 1436.5 Q406 1476 501 1476 Q596 1476 674 1436.5 Q752 1397 808 1319 Q864 1241 895 1124 Q926 1007 926 851 L926 593 Q926 440 895 325 Q864 210 808.5 133.5 Q753 57 675 18.5 Q597 -20 503 -20 Q408 -20 329.5 18.5 Q251 57 195 133.5 Q139 210 108 325 Q77 440 77 593 L77 851 Z M666 853 Q666 962 655.5 1039.5 Q645 1117 624 1166 Q603 1215 572 1238 Q541 1261 501 1261 Q460 1261 429.5 1238 Q399 1215 378.5 1166 Q358 1117 347.5 1039.5 Q337 962 337 853 L337 593 Q337 487 347.5 411.5 Q358 336 379 288 Q400 240 431 217.5 Q462 195 503 195 Q543 195 573.5 217.5 Q604 240 624.5 288 Q645 336 655.5 411.5 Q666 487 666 593 L666 853 Z " />
</glyph>
<glyph glyph-name="multiply" unicode="&#xd7;" horiz-adv-x="785" d="M61 360 L268 677 L56 1001 L200 1154 L390 864 L580 1154 L725 1001 L513 677 L721 360 L576 207 L391 490 L205 207 L61 360 Z " />
<glyph glyph-name="Oslash" unicode="&#xd8;" horiz-adv-x="1219" d="M208 138 Q153 215 123 328 Q93 441 93 593 L93 851 Q93 1007 123.5 1124 Q154 1241 210 1319 Q266 1397 344 1436.5 Q422 1476 517 1476 Q621 1476 704 1429 L738 1517 L891 1517 L818 1327 Q877 1249 909.5 1130.5 Q942 1012 942 851 L942 593 Q942 440 911 325 Q880 210 824.5 133.5 Q769 57 691 18.5 Q613 -20 519 -20 Q407 -20 319 33 L270 -95 L118 -95 L208 138 Z M408 262 Q447 195 519 195 Q559 195 589.5 217.5 Q620 240 640.5 288 Q661 336 671.5 411.5 Q682 487 682 593 L682 853 Q682 914 679 966 L408 262 Z M618 1206 Q580 1261 517 1261 Q476 1261 445.5 1238 Q415 1215 394.5 1166 Q374 1117 363.5 1039.5 Q353 962 353 853 L353 593 Q353 573 353 555 Q353 537 354 520 L618 1206 Z " />
<glyph glyph-name="Ugrave" unicode="&#xd9;" horiz-adv-x="954" >
<path fill="black" d="M88 1456 L350 1456 L350 444 Q350 368 358 318.5 Q366 269 381.5 241 Q397 213 421 202 Q445 191 477 191 Q510 191 533.5 202 Q557 213 572.5 241 Q588 269 595.5 318.5 Q603 368 603 444 L603 1456 L865 1456 L865 444 Q865 319 836.5 230.5 Q808 142 757 86.5 Q706 31 634.5 5.5 Q563 -20 477 -20 Q391 -20 319.5 5.5 Q248 31 196.5 86.5 Q145 142 116.5 230.5 Q88 319 88 444 L88 1456 Z " />
<g transform="translate(110,310)" >
<path fill="black" d="M269 1233 L41 1536 L319 1536 L478 1233 L269 1233 Z " />
</g>
</glyph>
<glyph glyph-name="Uacute" unicode="&#xda;" horiz-adv-x="954" >
<path fill="black" d="M88 1456 L350 1456 L350 444 Q350 368 358 318.5 Q366 269 381.5 241 Q397 213 421 202 Q445 191 477 191 Q510 191 533.5 202 Q557 213 572.5 241 Q588 269 595.5 318.5 Q603 368 603 444 L603 1456 L865 1456 L865 444 Q865 319 836.5 230.5 Q808 142 757 86.5 Q706 31 634.5 5.5 Q563 -20 477 -20 Q391 -20 319.5 5.5 Q248 31 196.5 86.5 Q145 142 116.5 230.5 Q88 319 88 444 L88 1456 Z " />
<g transform="translate(263,310)" >
<path fill="black" d="M246 1536 L521 1536 L295 1233 L86 1233 L246 1536 Z " />
</g>
</glyph>
<glyph glyph-name="Ucircumflex" unicode="&#xdb;" horiz-adv-x="954" >
<path fill="black" d="M88 1456 L350 1456 L350 444 Q350 368 358 318.5 Q366 269 381.5 241 Q397 213 421 202 Q445 191 477 191 Q510 191 533.5 202 Q557 213 572.5 241 Q588 269 595.5 318.5 Q603 368 603 444 L603 1456 L865 1456 L865 444 Q865 319 836.5 230.5 Q808 142 757 86.5 Q706 31 634.5 5.5 Q563 -20 477 -20 Q391 -20 319.5 5.5 Q248 31 196.5 86.5 Q145 142 116.5 230.5 Q88 319 88 444 L88 1456 Z " />
<g transform="translate(85,310)" >
<path fill="black" d="M96 1262 L313 1537 L455 1537 L677 1260 L677 1248 L483 1248 L385 1402 L285 1248 L96 1248 L96 1262 Z " />
</g>
</glyph>
<glyph glyph-name="Udieresis" unicode="&#xdc;" horiz-adv-x="954" >
<g transform="translate(67,310)" >
<path fill="black" d="M480 1367 Q480 1392 489 1414 Q498 1436 514 1452 Q530 1468 552 1477 Q574 1486 600 1486 Q625 1486 646.5 1477 Q668 1468 684 1452 Q700 1436 709 1414 Q718 1392 718 1367 Q718 1342 709 1320 Q700 1298 684 1282 Q668 1266 646.5 1257 Q625 1248 600 1248 Q574 1248 552 1257 Q530 1266 514 1282 Q498 1298 489 1320 Q480 1342 480 1367 Z M75 1368 Q75 1393 84 1415 Q93 1437 109 1453 Q125 1469 147 1478 Q169 1487 195 1487 Q220 1487 241.5 1478 Q263 1469 279 1453 Q295 1437 304 1415 Q313 1393 313 1368 Q313 1343 304 1321 Q295 1299 279 1283 Q263 1267 241.5 1258 Q220 1249 195 1249 Q169 1249 147 1258 Q125 1267 109 1283 Q93 1299 84 1321 Q75 1343 75 1368 Z " />
</g>
<path fill="black" d="M88 1456 L350 1456 L350 444 Q350 368 358 318.5 Q366 269 381.5 241 Q397 213 421 202 Q445 191 477 191 Q510 191 533.5 202 Q557 213 572.5 241 Q588 269 595.5 318.5 Q603 368 603 444 L603 1456 L865 1456 L865 444 Q865 319 836.5 230.5 Q808 142 757 86.5 Q706 31 634.5 5.5 Q563 -20 477 -20 Q391 -20 319.5 5.5 Q248 31 196.5 86.5 Q145 142 116.5 230.5 Q88 319 88 444 L88 1456 Z " />
</glyph>
<glyph glyph-name="Yacute" unicode="&#xdd;" horiz-adv-x="911" >
<path fill="black" d="M324 534 L20 1456 L302 1456 L457 769 L609 1456 L892 1456 L588 534 L588 0 L324 0 L324 534 Z " />
<g transform="translate(251,310)" >
<path fill="black" d="M246 1536 L521 1536 L295 1233 L86 1233 L246 1536 Z " />
</g>
</glyph>
<glyph glyph-name="Thorn" unicode="&#xde;" horiz-adv-x="895" d="M98 1456 L349 1456 L349 1180 L463 1180 Q555 1180 626.5 1147 Q698 1114 746.5 1055.5 Q795 997 820 915.5 Q845 834 845 738 Q845 642 820 561.5 Q795 481 746.5 422 Q698 363 626.5 330 Q555 297 463 297 L349 297 L349 0 L98 0 L98 1456 Z M463 500 Q498 500 523 520 Q548 540 564 573 Q580 606 587 648.5 Q594 691 594 736 Q594 783 587 826 Q580 869 564 903 Q548 937 523 957 Q498 977 463 977 L353 977 L349 982 L349 500 L463 500 Z " />
<glyph glyph-name="germandbls" unicode="&#xdf;" horiz-adv-x="945" d="M112 0 L112 1105 Q112 1218 137 1303 Q162 1388 208 1445 Q254 1502 319.5 1530.5 Q385 1559 466 1559 Q530 1559 586 1537 Q642 1515 684 1470 Q726 1425 750 1357.5 Q774 1290 774 1199 Q774 1123 763.5 1076 Q753 1029 741 992.5 Q729 956 718.5 919.5 Q708 883 708 827 Q708 789 721.5 756 Q735 723 754.5 690 Q774 657 797.5 622.5 Q821 588 840.5 546.5 Q860 505 873.5 455 Q887 405 887 342 Q887 166 810.5 73 Q734 -20 567 -20 Q542 -20 516.5 -15 Q491 -10 467.5 -1.5 Q444 7 424 18 Q404 29 390 42 L434 246 Q443 236 456 225 Q469 214 485.5 205 Q502 196 522 190 Q542 184 566 184 Q601 184 619.5 226 Q638 268 638 335 Q638 378 624.5 412.5 Q611 447 591.5 478.5 Q572 510 548.5 542.5 Q525 575 505.5 614.5 Q486 654 472.5 703.5 Q459 753 459 819 Q459 884 469.5 927.5 Q480 971 492.5 1009 Q505 1047 515.5 1087 Q526 1127 526 1185 Q526 1266 504 1310.5 Q482 1355 442 1355 Q405 1355 383.5 1297 Q362 1239 362 1103 L362 0 L112 0 Z " />
<glyph glyph-name="agrave" unicode="&#xe0;" horiz-adv-x="786" >
<path fill="black" d="M485 0 Q478 17 472.5 37 Q467 57 463 80 Q434 26 395 3 Q356 -20 304 -20 Q254 -20 209.5 1.5 Q165 23 132 65 Q99 107 80 168 Q61 229 61 307 Q61 383 81 447.5 Q101 512 143 559.5 Q185 607 249 633.5 Q313 660 401 660 L452 660 L452 760 Q452 843 437 875.5 Q422 908 390 908 Q356 908 341.5 867.5 Q327 827 327 767 L76 767 Q76 833 98.5 893.5 Q121 954 163 1000.5 Q205 1047 266 1074.5 Q327 1102 405 1102 Q467 1102 521 1083 Q575 1064 615.5 1022.5 Q656 981 679 915 Q702 849 702 756 L702 254 Q702 176 711 118 Q720 60 735 17 L735 0 L485 0 Z M452 506 L405 506 Q378 506 360 492.5 Q342 479 331 454.5 Q320 430 315.5 395.5 Q311 361 311 319 Q311 243 324.5 212 Q338 181 369 181 Q396 181 418.5 201.5 Q441 222 452 250 L452 506 Z " />
<g transform="translate(25,0)" >
<path fill="black" d="M269 1233 L41 1536 L319 1536 L478 1233 L269 1233 Z " />
</g>
</glyph>
<glyph glyph-name="aacute" unicode="&#xe1;" horiz-adv-x="786" >
<path fill="black" d="M485 0 Q478 17 472.5 37 Q467 57 463 80 Q434 26 395 3 Q356 -20 304 -20 Q254 -20 209.5 1.5 Q165 23 132 65 Q99 107 80 168 Q61 229 61 307 Q61 383 81 447.5 Q101 512 143 559.5 Q185 607 249 633.5 Q313 660 401 660 L452 660 L452 760 Q452 843 437 875.5 Q422 908 390 908 Q356 908 341.5 867.5 Q327 827 327 767 L76 767 Q76 833 98.5 893.5 Q121 954 163 1000.5 Q205 1047 266 1074.5 Q327 1102 405 1102 Q467 1102 521 1083 Q575 1064 615.5 1022.5 Q656 981 679 915 Q702 849 702 756 L702 254 Q702 176 711 118 Q720 60 735 17 L735 0 L485 0 Z M452 506 L405 506 Q378 506 360 492.5 Q342 479 331 454.5 Q320 430 315.5 395.5 Q311 361 311 319 Q311 243 324.5 212 Q338 181 369 181 Q396 181 418.5 201.5 Q441 222 452 250 L452 506 Z " />
<g transform="translate(178,0)" >
<path fill="black" d="M246 1536 L521 1536 L295 1233 L86 1233 L246 1536 Z " />
</g>
</glyph>
<glyph glyph-name="acircumflex" unicode="&#xe2;" horiz-adv-x="786" >
<path fill="black" d="M485 0 Q478 17 472.5 37 Q467 57 463 80 Q434 26 395 3 Q356 -20 304 -20 Q254 -20 209.5 1.5 Q165 23 132 65 Q99 107 80 168 Q61 229 61 307 Q61 383 81 447.5 Q101 512 143 559.5 Q185 607 249 633.5 Q313 660 401 660 L452 660 L452 760 Q452 843 437 875.5 Q422 908 390 908 Q356 908 341.5 867.5 Q327 827 327 767 L76 767 Q76 833 98.5 893.5 Q121 954 163 1000.5 Q205 1047 266 1074.5 Q327 1102 405 1102 Q467 1102 521 1083 Q575 1064 615.5 1022.5 Q656 981 679 915 Q702 849 702 756 L702 254 Q702 176 711 118 Q720 60 735 17 L735 0 L485 0 Z M452 506 L405 506 Q378 506 360 492.5 Q342 479 331 454.5 Q320 430 315.5 395.5 Q311 361 311 319 Q311 243 324.5 212 Q338 181 369 181 Q396 181 418.5 201.5 Q441 222 452 250 L452 506 Z " />
<path fill="black" d="M96 1262 L313 1537 L455 1537 L677 1260 L677 1248 L483 1248 L385 1402 L285 1248 L96 1248 L96 1262 Z " />
</glyph>
<glyph glyph-name="atilde" unicode="&#xe3;" horiz-adv-x="786" >
<path fill="black" d="M485 0 Q478 17 472.5 37 Q467 57 463 80 Q434 26 395 3 Q356 -20 304 -20 Q254 -20 209.5 1.5 Q165 23 132 65 Q99 107 80 168 Q61 229 61 307 Q61 383 81 447.5 Q101 512 143 559.5 Q185 607 249 633.5 Q313 660 401 660 L452 660 L452 760 Q452 843 437 875.5 Q422 908 390 908 Q356 908 341.5 867.5 Q327 827 327 767 L76 767 Q76 833 98.5 893.5 Q121 954 163 1000.5 Q205 1047 266 1074.5 Q327 1102 405 1102 Q467 1102 521 1083 Q575 1064 615.5 1022.5 Q656 981 679 915 Q702 849 702 756 L702 254 Q702 176 711 118 Q720 60 735 17 L735 0 L485 0 Z M452 506 L405 506 Q378 506 360 492.5 Q342 479 331 454.5 Q320 430 315.5 395.5 Q311 361 311 319 Q311 243 324.5 212 Q338 181 369 181 Q396 181 418.5 201.5 Q441 222 452 250 L452 506 Z " />
<g transform="translate(11,-1)" >
<path fill="black" d="M109 1254 Q109 1309 121 1356.5 Q133 1404 154 1439.5 Q175 1475 204.5 1495 Q234 1515 269 1515 Q293 1515 315.5 1501 Q338 1487 360.5 1470.5 Q383 1454 405.5 1440 Q428 1426 452 1426 Q472 1426 486 1453.5 Q500 1481 500 1528 L637 1517 Q637 1462 625 1414.5 Q613 1367 591.5 1332.5 Q570 1298 540.5 1278.5 Q511 1259 476 1259 Q445 1259 422 1273 Q399 1287 379 1303.5 Q359 1320 339 1334 Q319 1348 294 1348 Q274 1348 260.5 1320.5 Q247 1293 247 1247 L109 1254 Z " />
</g>
</glyph>
<glyph glyph-name="adieresis" unicode="&#xe4;" horiz-adv-x="786" >
<g transform="translate(-18,0)" >
<path fill="black" d="M480 1367 Q480 1392 489 1414 Q498 1436 514 1452 Q530 1468 552 1477 Q574 1486 600 1486 Q625 1486 646.5 1477 Q668 1468 684 1452 Q700 1436 709 1414 Q718 1392 718 1367 Q718 1342 709 1320 Q700 1298 684 1282 Q668 1266 646.5 1257 Q625 1248 600 1248 Q574 1248 552 1257 Q530 1266 514 1282 Q498 1298 489 1320 Q480 1342 480 1367 Z M75 1368 Q75 1393 84 1415 Q93 1437 109 1453 Q125 1469 147 1478 Q169 1487 195 1487 Q220 1487 241.5 1478 Q263 1469 279 1453 Q295 1437 304 1415 Q313 1393 313 1368 Q313 1343 304 1321 Q295 1299 279 1283 Q263 1267 241.5 1258 Q220 1249 195 1249 Q169 1249 147 1258 Q125 1267 109 1283 Q93 1299 84 1321 Q75 1343 75 1368 Z " />
</g>
<path fill="black" d="M485 0 Q478 17 472.5 37 Q467 57 463 80 Q434 26 395 3 Q356 -20 304 -20 Q254 -20 209.5 1.5 Q165 23 132 65 Q99 107 80 168 Q61 229 61 307 Q61 383 81 447.5 Q101 512 143 559.5 Q185 607 249 633.5 Q313 660 401 660 L452 660 L452 760 Q452 843 437 875.5 Q422 908 390 908 Q356 908 341.5 867.5 Q327 827 327 767 L76 767 Q76 833 98.5 893.5 Q121 954 163 1000.5 Q205 1047 266 1074.5 Q327 1102 405 1102 Q467 1102 521 1083 Q575 1064 615.5 1022.5 Q656 981 679 915 Q702 849 702 756 L702 254 Q702 176 711 118 Q720 60 735 17 L735 0 L485 0 Z M452 506 L405 506 Q378 506 360 492.5 Q342 479 331 454.5 Q320 430 315.5 395.5 Q311 361 311 319 Q311 243 324.5 212 Q338 181 369 181 Q396 181 418.5 201.5 Q441 222 452 250 L452 506 Z " />
</glyph>
<glyph glyph-name="aring" unicode="&#xe5;" horiz-adv-x="786" d="M485 0 Q478 17 472.5 37 Q467 57 463 80 Q434 26 395 3 Q356 -20 304 -20 Q254 -20 209.5 1.5 Q165 23 132 65 Q99 107 80 168 Q61 229 61 307 Q61 383 81 447.5 Q101 512 143 559.5 Q185 607 249 633.5 Q313 660 401 660 L452 660 L452 760 Q452 843 437 875.5 Q422 908 390 908 Q356 908 341.5 867.5 Q327 827 327 767 L76 767 Q76 833 98.5 893.5 Q121 954 163 1000.5 Q205 1047 266 1074.5 Q327 1102 405 1102 Q467 1102 521 1083 Q575 1064 615.5 1022.5 Q656 981 679 915 Q702 849 702 756 L702 254 Q702 176 711 118 Q720 60 735 17 L735 0 L485 0 Z M387 1218 Q347 1218 313.5 1233.5 Q280 1249 256 1276.5 Q232 1304 218.5 1341 Q205 1378 205 1421 Q205 1463 218.5 1500.5 Q232 1538 256 1566 Q280 1594 313.5 1610.5 Q347 1627 387 1627 Q427 1627 460 1610.5 Q493 1594 517 1566 Q541 1538 554.5 1500.5 Q568 1463 568 1421 Q568 1378 554.5 1341 Q541 1304 517 1276.5 Q493 1249 460 1233.5 Q427 1218 387 1218 Z M452 506 L405 506 Q378 506 360 492.5 Q342 479 331 454.5 Q320 430 315.5 395.5 Q311 361 311 319 Q311 243 324.5 212 Q338 181 369 181 Q396 181 418.5 201.5 Q441 222 452 250 L452 506 Z M387 1309 Q426 1309 448 1342.5 Q470 1376 470 1421 Q470 1443 464.5 1463 Q459 1483 448 1498.5 Q437 1514 422 1523 Q407 1532 387 1532 Q368 1532 352 1523 Q336 1514 325.5 1498.5 Q315 1483 309 1463 Q303 1443 303 1421 Q303 1399 309 1378.5 Q315 1358 325.5 1342.5 Q336 1327 352 1318 Q368 1309 387 1309 Z " />
<glyph glyph-name="ae" unicode="&#xe6;" horiz-adv-x="1205" d="M492 645 L492 712 Q492 799 473 849 Q454 899 419 899 Q400 899 385.5 887 Q371 875 360.5 855 Q350 835 344.5 808 Q339 781 339 751 L89 770 Q89 842 113 903 Q137 964 180.5 1008 Q224 1052 285.5 1077 Q347 1102 422 1102 Q554 1102 633 1021 Q674 1060 725 1081 Q776 1102 839 1102 Q912 1102 969.5 1068 Q1027 1034 1067.5 970.5 Q1108 907 1129.5 816.5 Q1151 726 1151 613 L1151 467 L735 467 L735 440 Q738 385 748.5 338 Q759 291 777 256.5 Q795 222 821 203 Q847 184 882 184 Q916 184 941.5 192 Q967 200 989 212.5 Q1011 225 1030 241 Q1049 257 1069 272 L1130 101 Q1112 83 1082.5 62 Q1053 41 1016 22.5 Q979 4 937 -8.5 Q895 -21 851 -21 Q770 -21 706.5 13 Q643 47 597 109 Q578 83 553.5 59.5 Q529 36 497.5 18 Q466 0 428.5 -10.5 Q391 -21 346 -21 Q278 -21 225.5 3 Q173 27 137 71 Q101 115 82.5 176.5 Q64 238 64 314 Q64 473 152.5 559 Q241 645 413 645 L492 645 Z M492 474 L415 474 Q391 474 372 460.5 Q353 447 340.5 424.5 Q328 402 321 372 Q314 342 314 310 Q314 249 333.5 210 Q353 171 396 171 Q419 171 445 190.5 Q471 210 492 239 L492 474 Z M907 644 L907 672 Q907 720 903 761.5 Q899 803 890.5 833.5 Q882 864 869.5 881.5 Q857 899 839 899 Q812 899 793.5 881 Q775 863 763 831 Q751 799 744.5 755 Q738 711 735 658 L735 644 L907 644 Z " />
<glyph glyph-name="ccedilla" unicode="&#xe7;" horiz-adv-x="770" d="M328 -313 Q352 -313 363 -293 Q374 -273 374 -225 Q374 -180 355 -163.5 Q336 -147 289 -141 L310 -8 Q182 27 121 155 Q60 283 60 491 L60 591 Q60 836 145.5 969 Q231 1102 406 1102 Q477 1102 535 1075 Q593 1048 633.5 996 Q674 944 696 867.5 Q718 791 718 691 L483 691 Q484 794 466.5 846.5 Q449 899 399 899 Q368 899 350 878.5 Q332 858 323.5 818.5 Q315 779 313 722 Q311 665 311 591 L311 491 Q311 416 313 359 Q315 302 323.5 263 Q332 224 350.5 204 Q369 184 402 184 Q445 184 465 225 Q485 266 483 363 L718 363 Q718 290 702 229 Q686 168 657 121 Q628 74 587 41.5 Q546 9 497 -7 L490 -57 Q508 -62 524.5 -73.5 Q541 -85 554.5 -105 Q568 -125 576 -156 Q584 -187 584 -230 Q584 -281 568.5 -323 Q553 -365 521.5 -395 Q490 -425 442.5 -441.5 Q395 -458 332 -458 L328 -313 Z " />
<glyph glyph-name="egrave" unicode="&#xe8;" horiz-adv-x="806" >
<path fill="black" d="M69 578 Q69 850 156.5 976 Q244 1102 413 1102 Q581 1102 668 974.5 Q755 847 755 584 L755 464 L319 464 Q319 385 328.5 331.5 Q338 278 356 245 Q374 212 401.5 198 Q429 184 465 184 Q519 184 566 213 Q613 242 647 290 L740 139 Q723 111 696.5 82.5 Q670 54 632.5 31.5 Q595 9 546.5 -5.5 Q498 -20 437 -20 Q262 -20 165.5 102 Q69 224 69 471 L69 578 Z M509 644 L509 669 Q509 787 488 843.5 Q467 900 415 900 Q388 900 370 885.5 Q352 871 341.5 840 Q331 809 326 760.5 Q321 712 320 644 L509 644 Z " />
<g transform="translate(21,1)" >
<path fill="black" d="M269 1233 L41 1536 L319 1536 L478 1233 L269 1233 Z " />
</g>
</glyph>
<glyph glyph-name="eacute" unicode="&#xe9;" horiz-adv-x="806" >
<path fill="black" d="M69 578 Q69 850 156.5 976 Q244 1102 413 1102 Q581 1102 668 974.5 Q755 847 755 584 L755 464 L319 464 Q319 385 328.5 331.5 Q338 278 356 245 Q374 212 401.5 198 Q429 184 465 184 Q519 184 566 213 Q613 242 647 290 L740 139 Q723 111 696.5 82.5 Q670 54 632.5 31.5 Q595 9 546.5 -5.5 Q498 -20 437 -20 Q262 -20 165.5 102 Q69 224 69 471 L69 578 Z M509 644 L509 669 Q509 787 488 843.5 Q467 900 415 900 Q388 900 370 885.5 Q352 871 341.5 840 Q331 809 326 760.5 Q321 712 320 644 L509 644 Z " />
<g transform="translate(174,1)" >
<path fill="black" d="M246 1536 L521 1536 L295 1233 L86 1233 L246 1536 Z " />
</g>
</glyph>
<glyph glyph-name="ecircumflex" unicode="&#xea;" horiz-adv-x="806" >
<path fill="black" d="M69 578 Q69 850 156.5 976 Q244 1102 413 1102 Q581 1102 668 974.5 Q755 847 755 584 L755 464 L319 464 Q319 385 328.5 331.5 Q338 278 356 245 Q374 212 401.5 198 Q429 184 465 184 Q519 184 566 213 Q613 242 647 290 L740 139 Q723 111 696.5 82.5 Q670 54 632.5 31.5 Q595 9 546.5 -5.5 Q498 -20 437 -20 Q262 -20 165.5 102 Q69 224 69 471 L69 578 Z M509 644 L509 669 Q509 787 488 843.5 Q467 900 415 900 Q388 900 370 885.5 Q352 871 341.5 840 Q331 809 326 760.5 Q321 712 320 644 L509 644 Z " />
<g transform="translate(-4,1)" >
<path fill="black" d="M96 1262 L313 1537 L455 1537 L677 1260 L677 1248 L483 1248 L385 1402 L285 1248 L96 1248 L96 1262 Z " />
</g>
</glyph>
<glyph glyph-name="edieresis" unicode="&#xeb;" horiz-adv-x="806" >
<g transform="translate(-22,1)" >
<path fill="black" d="M480 1367 Q480 1392 489 1414 Q498 1436 514 1452 Q530 1468 552 1477 Q574 1486 600 1486 Q625 1486 646.5 1477 Q668 1468 684 1452 Q700 1436 709 1414 Q718 1392 718 1367 Q718 1342 709 1320 Q700 1298 684 1282 Q668 1266 646.5 1257 Q625 1248 600 1248 Q574 1248 552 1257 Q530 1266 514 1282 Q498 1298 489 1320 Q480 1342 480 1367 Z M75 1368 Q75 1393 84 1415 Q93 1437 109 1453 Q125 1469 147 1478 Q169 1487 195 1487 Q220 1487 241.5 1478 Q263 1469 279 1453 Q295 1437 304 1415 Q313 1393 313 1368 Q313 1343 304 1321 Q295 1299 279 1283 Q263 1267 241.5 1258 Q220 1249 195 1249 Q169 1249 147 1258 Q125 1267 109 1283 Q93 1299 84 1321 Q75 1343 75 1368 Z " />
</g>
<path fill="black" d="M69 578 Q69 850 156.5 976 Q244 1102 413 1102 Q581 1102 668 974.5 Q755 847 755 584 L755 464 L319 464 Q319 385 328.5 331.5 Q338 278 356 245 Q374 212 401.5 198 Q429 184 465 184 Q519 184 566 213 Q613 242 647 290 L740 139 Q723 111 696.5 82.5 Q670 54 632.5 31.5 Q595 9 546.5 -5.5 Q498 -20 437 -20 Q262 -20 165.5 102 Q69 224 69 471 L69 578 Z M509 644 L509 669 Q509 787 488 843.5 Q467 900 415 900 Q388 900 370 885.5 Q352 871 341.5 840 Q331 809 326 760.5 Q321 712 320 644 L509 644 Z " />
</glyph>
<glyph glyph-name="igrave" unicode="&#xec;" horiz-adv-x="462" >
<path fill="black" d="M104 0 L104 1082 L357 1082 L357 0 L104 0 Z " />
<g transform="translate(-129,-10)" >
<path fill="black" d="M269 1233 L41 1536 L319 1536 L478 1233 L269 1233 Z " />
</g>
</glyph>
<glyph glyph-name="iacute" unicode="&#xed;" horiz-adv-x="462" >
<path fill="black" d="M104 0 L104 1082 L357 1082 L357 0 L104 0 Z " />
<g transform="translate(24,-10)" >
<path fill="black" d="M246 1536 L521 1536 L295 1233 L86 1233 L246 1536 Z " />
</g>
</glyph>
<glyph glyph-name="icircumflex" unicode="&#xee;" horiz-adv-x="462" >
<path fill="black" d="M104 0 L104 1082 L357 1082 L357 0 L104 0 Z " />
<g transform="translate(-154,-10)" >
<path fill="black" d="M96 1262 L313 1537 L455 1537 L677 1260 L677 1248 L483 1248 L385 1402 L285 1248 L96 1248 L96 1262 Z " />
</g>
</glyph>
<glyph glyph-name="idieresis" unicode="&#xef;" horiz-adv-x="462" >
<g transform="translate(-172,-10)" >
<path fill="black" d="M480 1367 Q480 1392 489 1414 Q498 1436 514 1452 Q530 1468 552 1477 Q574 1486 600 1486 Q625 1486 646.5 1477 Q668 1468 684 1452 Q700 1436 709 1414 Q718 1392 718 1367 Q718 1342 709 1320 Q700 1298 684 1282 Q668 1266 646.5 1257 Q625 1248 600 1248 Q574 1248 552 1257 Q530 1266 514 1282 Q498 1298 489 1320 Q480 1342 480 1367 Z M75 1368 Q75 1393 84 1415 Q93 1437 109 1453 Q125 1469 147 1478 Q169 1487 195 1487 Q220 1487 241.5 1478 Q263 1469 279 1453 Q295 1437 304 1415 Q313 1393 313 1368 Q313 1343 304 1321 Q295 1299 279 1283 Q263 1267 241.5 1258 Q220 1249 195 1249 Q169 1249 147 1258 Q125 1267 109 1283 Q93 1299 84 1321 Q75 1343 75 1368 Z " />
</g>
<path fill="black" d="M104 0 L104 1082 L357 1082 L357 0 L104 0 Z " />
</glyph>
<glyph glyph-name="eth" unicode="&#xf0;" horiz-adv-x="834" d="M781 562 Q781 433 753 325.5 Q725 218 675.5 141.5 Q626 65 557.5 22.5 Q489 -20 408 -20 Q330 -20 266 18 Q202 56 156 122 Q110 188 85 277 Q60 366 60 468 Q60 582 80.5 675 Q101 768 140 834 Q179 900 236.5 936 Q294 972 368 972 Q406 972 439.5 958.5 Q473 945 502 920 Q486 989 463 1046.5 Q440 1104 411 1152 L289 1040 L228 1149 L339 1250 Q297 1296 252.5 1328 Q208 1360 162 1380 L240 1580 Q394 1531 513 1409 L626 1512 L685 1403 L590 1316 Q679 1191 730 1022.5 Q781 854 781 645 L781 562 Z M412 184 Q443 184 465.5 211.5 Q488 239 502.5 287 Q517 335 524 400.5 Q531 466 531 543 L531 647 Q531 661 531 674.5 Q531 688 530 702 Q514 734 488 755.5 Q462 777 425 777 Q397 777 375.5 755.5 Q354 734 339.5 694 Q325 654 317.5 596.5 Q310 539 310 468 Q310 413 317 361.5 Q324 310 337.5 270.5 Q351 231 369.5 207.5 Q388 184 412 184 Z " />
<glyph glyph-name="ntilde" unicode="&#xf1;" horiz-adv-x="826" >
<path fill="black" d="M79 1082 L314 1082 L321 979 Q358 1039 407.5 1070.5 Q457 1102 518 1102 Q566 1102 607 1080.5 Q648 1059 678 1011 Q708 963 725 885.5 Q742 808 742 697 L742 0 L492 0 L492 698 Q492 806 470.5 851 Q449 896 408 896 Q382 896 362.5 877.5 Q343 859 329 826 L329 0 L79 0 L79 1082 Z " />
<g transform="translate(37,-1)" >
<path fill="black" d="M109 1254 Q109 1309 121 1356.5 Q133 1404 154 1439.5 Q175 1475 204.5 1495 Q234 1515 269 1515 Q293 1515 315.5 1501 Q338 1487 360.5 1470.5 Q383 1454 405.5 1440 Q428 1426 452 1426 Q472 1426 486 1453.5 Q500 1481 500 1528 L637 1517 Q637 1462 625 1414.5 Q613 1367 591.5 1332.5 Q570 1298 540.5 1278.5 Q511 1259 476 1259 Q445 1259 422 1273 Q399 1287 379 1303.5 Q359 1320 339 1334 Q319 1348 294 1348 Q274 1348 260.5 1320.5 Q247 1293 247 1247 L109 1254 Z " />
</g>
</glyph>
<glyph glyph-name="ograve" unicode="&#xf2;" horiz-adv-x="831" >
<path fill="black" d="M62 585 Q62 713 86.5 809.5 Q111 906 157 971 Q203 1036 268 1069 Q333 1102 414 1102 Q496 1102 561.5 1069 Q627 1036 673 971 Q719 906 744 809.5 Q769 713 769 585 L769 497 Q769 369 744 272.5 Q719 176 673.5 111 Q628 46 562.5 13 Q497 -20 416 -20 Q334 -20 268.5 13 Q203 46 157 111 Q111 176 86.5 272.5 Q62 369 62 497 L62 585 Z M518 585 Q518 747 491 823 Q464 899 414 899 Q368 899 340 822.5 Q312 746 312 585 L312 497 Q312 334 339.5 259 Q367 184 416 184 Q466 184 492 259 Q518 334 518 497 L518 585 Z " />
<g transform="translate(53,0)" >
<path fill="black" d="M269 1233 L41 1536 L319 1536 L478 1233 L269 1233 Z " />
</g>
</glyph>
<glyph glyph-name="oacute" unicode="&#xf3;" horiz-adv-x="831" >
<path fill="black" d="M62 585 Q62 713 86.5 809.5 Q111 906 157 971 Q203 1036 268 1069 Q333 1102 414 1102 Q496 1102 561.5 1069 Q627 1036 673 971 Q719 906 744 809.5 Q769 713 769 585 L769 497 Q769 369 744 272.5 Q719 176 673.5 111 Q628 46 562.5 13 Q497 -20 416 -20 Q334 -20 268.5 13 Q203 46 157 111 Q111 176 86.5 272.5 Q62 369 62 497 L62 585 Z M518 585 Q518 747 491 823 Q464 899 414 899 Q368 899 340 822.5 Q312 746 312 585 L312 497 Q312 334 339.5 259 Q367 184 416 184 Q466 184 492 259 Q518 334 518 497 L518 585 Z " />
<g transform="translate(206,0)" >
<path fill="black" d="M246 1536 L521 1536 L295 1233 L86 1233 L246 1536 Z " />
</g>
</glyph>
<glyph glyph-name="ocircumflex" unicode="&#xf4;" horiz-adv-x="831" >
<path fill="black" d="M62 585 Q62 713 86.5 809.5 Q111 906 157 971 Q203 1036 268 1069 Q333 1102 414 1102 Q496 1102 561.5 1069 Q627 1036 673 971 Q719 906 744 809.5 Q769 713 769 585 L769 497 Q769 369 744 272.5 Q719 176 673.5 111 Q628 46 562.5 13 Q497 -20 416 -20 Q334 -20 268.5 13 Q203 46 157 111 Q111 176 86.5 272.5 Q62 369 62 497 L62 585 Z M518 585 Q518 747 491 823 Q464 899 414 899 Q368 899 340 822.5 Q312 746 312 585 L312 497 Q312 334 339.5 259 Q367 184 416 184 Q466 184 492 259 Q518 334 518 497 L518 585 Z " />
<g transform="translate(28,0)" >
<path fill="black" d="M96 1262 L313 1537 L455 1537 L677 1260 L677 1248 L483 1248 L385 1402 L285 1248 L96 1248 L96 1262 Z " />
</g>
</glyph>
<glyph glyph-name="otilde" unicode="&#xf5;" horiz-adv-x="831" >
<path fill="black" d="M62 585 Q62 713 86.5 809.5 Q111 906 157 971 Q203 1036 268 1069 Q333 1102 414 1102 Q496 1102 561.5 1069 Q627 1036 673 971 Q719 906 744 809.5 Q769 713 769 585 L769 497 Q769 369 744 272.5 Q719 176 673.5 111 Q628 46 562.5 13 Q497 -20 416 -20 Q334 -20 268.5 13 Q203 46 157 111 Q111 176 86.5 272.5 Q62 369 62 497 L62 585 Z M518 585 Q518 747 491 823 Q464 899 414 899 Q368 899 340 822.5 Q312 746 312 585 L312 497 Q312 334 339.5 259 Q367 184 416 184 Q466 184 492 259 Q518 334 518 497 L518 585 Z " />
<g transform="translate(39,-1)" >
<path fill="black" d="M109 1254 Q109 1309 121 1356.5 Q133 1404 154 1439.5 Q175 1475 204.5 1495 Q234 1515 269 1515 Q293 1515 315.5 1501 Q338 1487 360.5 1470.5 Q383 1454 405.5 1440 Q428 1426 452 1426 Q472 1426 486 1453.5 Q500 1481 500 1528 L637 1517 Q637 1462 625 1414.5 Q613 1367 591.5 1332.5 Q570 1298 540.5 1278.5 Q511 1259 476 1259 Q445 1259 422 1273 Q399 1287 379 1303.5 Q359 1320 339 1334 Q319 1348 294 1348 Q274 1348 260.5 1320.5 Q247 1293 247 1247 L109 1254 Z " />
</g>
</glyph>
<glyph glyph-name="odieresis" unicode="&#xf6;" horiz-adv-x="831" >
<g transform="translate(10,0)" >
<path fill="black" d="M480 1367 Q480 1392 489 1414 Q498 1436 514 1452 Q530 1468 552 1477 Q574 1486 600 1486 Q625 1486 646.5 1477 Q668 1468 684 1452 Q700 1436 709 1414 Q718 1392 718 1367 Q718 1342 709 1320 Q700 1298 684 1282 Q668 1266 646.5 1257 Q625 1248 600 1248 Q574 1248 552 1257 Q530 1266 514 1282 Q498 1298 489 1320 Q480 1342 480 1367 Z M75 1368 Q75 1393 84 1415 Q93 1437 109 1453 Q125 1469 147 1478 Q169 1487 195 1487 Q220 1487 241.5 1478 Q263 1469 279 1453 Q295 1437 304 1415 Q313 1393 313 1368 Q313 1343 304 1321 Q295 1299 279 1283 Q263 1267 241.5 1258 Q220 1249 195 1249 Q169 1249 147 1258 Q125 1267 109 1283 Q93 1299 84 1321 Q75 1343 75 1368 Z " />
</g>
<path fill="black" d="M62 585 Q62 713 86.5 809.5 Q111 906 157 971 Q203 1036 268 1069 Q333 1102 414 1102 Q496 1102 561.5 1069 Q627 1036 673 971 Q719 906 744 809.5 Q769 713 769 585 L769 497 Q769 369 744 272.5 Q719 176 673.5 111 Q628 46 562.5 13 Q497 -20 416 -20 Q334 -20 268.5 13 Q203 46 157 111 Q111 176 86.5 272.5 Q62 369 62 497 L62 585 Z M518 585 Q518 747 491 823 Q464 899 414 899 Q368 899 340 822.5 Q312 746 312 585 L312 497 Q312 334 339.5 259 Q367 184 416 184 Q466 184 492 259 Q518 334 518 497 L518 585 Z " />
</glyph>
<glyph glyph-name="divide" unicode="&#xf7;" horiz-adv-x="834" d="M65 582 L65 796 L763 796 L763 582 L65 582 Z M276 277 Q276 335 312.5 373 Q349 411 410 411 Q473 411 509.5 373 Q546 335 546 277 Q546 220 509.5 182 Q473 144 410 144 Q349 144 312.5 182 Q276 220 276 277 Z M276 1090 Q276 1148 312.5 1186 Q349 1224 410 1224 Q473 1224 509.5 1186 Q546 1148 546 1090 Q546 1033 509.5 995 Q473 957 410 957 Q349 957 312.5 995 Q276 1033 276 1090 Z " />
<glyph glyph-name="oslash" unicode="&#xf8;" horiz-adv-x="1003" d="M198 72 Q137 135 104 241.5 Q71 348 71 497 L71 585 Q71 713 95.5 809.5 Q120 906 166 971 Q212 1036 277 1069 Q342 1102 423 1102 Q481 1102 529 1086 L571 1214 L701 1214 L638 1022 Q705 959 741.5 850.5 Q778 742 778 585 L778 497 Q778 369 753 272.5 Q728 176 682.5 111 Q637 46 571.5 13 Q506 -20 425 -20 Q359 -20 305 1 L259 -140 L129 -140 L198 72 Z M374 211 Q395 184 425 184 Q475 184 501 259 Q527 334 527 497 L527 585 Q527 609 526.5 631 Q526 653 525 673 L374 211 Z M463 884 Q445 899 423 899 Q377 899 349 822.5 Q321 746 321 585 L321 497 Q321 485 321 473 Q321 461 322 450 L463 884 Z " />
<glyph glyph-name="ugrave" unicode="&#xf9;" horiz-adv-x="826" >
<path fill="black" d="M80 1082 L330 1082 L330 381 Q330 326 334.5 288.5 Q339 251 348 228.5 Q357 206 370 196.5 Q383 187 399 187 Q434 187 456.5 209 Q479 231 493 269 L493 1082 L745 1082 L745 0 L509 0 L503 97 Q470 41 424.5 10.5 Q379 -20 320 -20 Q267 -20 222.5 2.5 Q178 25 146.5 74 Q115 123 97.5 199 Q80 275 80 383 L80 1082 Z " />
<g transform="translate(48,0)" >
<path fill="black" d="M269 1233 L41 1536 L319 1536 L478 1233 L269 1233 Z " />
</g>
</glyph>
<glyph glyph-name="uacute" unicode="&#xfa;" horiz-adv-x="826" >
<path fill="black" d="M80 1082 L330 1082 L330 381 Q330 326 334.5 288.5 Q339 251 348 228.5 Q357 206 370 196.5 Q383 187 399 187 Q434 187 456.5 209 Q479 231 493 269 L493 1082 L745 1082 L745 0 L509 0 L503 97 Q470 41 424.5 10.5 Q379 -20 320 -20 Q267 -20 222.5 2.5 Q178 25 146.5 74 Q115 123 97.5 199 Q80 275 80 383 L80 1082 Z " />
<g transform="translate(201,0)" >
<path fill="black" d="M246 1536 L521 1536 L295 1233 L86 1233 L246 1536 Z " />
</g>
</glyph>
<glyph glyph-name="ucircumflex" unicode="&#xfb;" horiz-adv-x="826" >
<path fill="black" d="M80 1082 L330 1082 L330 381 Q330 326 334.5 288.5 Q339 251 348 228.5 Q357 206 370 196.5 Q383 187 399 187 Q434 187 456.5 209 Q479 231 493 269 L493 1082 L745 1082 L745 0 L509 0 L503 97 Q470 41 424.5 10.5 Q379 -20 320 -20 Q267 -20 222.5 2.5 Q178 25 146.5 74 Q115 123 97.5 199 Q80 275 80 383 L80 1082 Z " />
<g transform="translate(23,0)" >
<path fill="black" d="M96 1262 L313 1537 L455 1537 L677 1260 L677 1248 L483 1248 L385 1402 L285 1248 L96 1248 L96 1262 Z " />
</g>
</glyph>
<glyph glyph-name="udieresis" unicode="&#xfc;" horiz-adv-x="826" >
<g transform="translate(5,0)" >
<path fill="black" d="M480 1367 Q480 1392 489 1414 Q498 1436 514 1452 Q530 1468 552 1477 Q574 1486 600 1486 Q625 1486 646.5 1477 Q668 1468 684 1452 Q700 1436 709 1414 Q718 1392 718 1367 Q718 1342 709 1320 Q700 1298 684 1282 Q668 1266 646.5 1257 Q625 1248 600 1248 Q574 1248 552 1257 Q530 1266 514 1282 Q498 1298 489 1320 Q480 1342 480 1367 Z M75 1368 Q75 1393 84 1415 Q93 1437 109 1453 Q125 1469 147 1478 Q169 1487 195 1487 Q220 1487 241.5 1478 Q263 1469 279 1453 Q295 1437 304 1415 Q313 1393 313 1368 Q313 1343 304 1321 Q295 1299 279 1283 Q263 1267 241.5 1258 Q220 1249 195 1249 Q169 1249 147 1258 Q125 1267 109 1283 Q93 1299 84 1321 Q75 1343 75 1368 Z " />
</g>
<path fill="black" d="M80 1082 L330 1082 L330 381 Q330 326 334.5 288.5 Q339 251 348 228.5 Q357 206 370 196.5 Q383 187 399 187 Q434 187 456.5 209 Q479 231 493 269 L493 1082 L745 1082 L745 0 L509 0 L503 97 Q470 41 424.5 10.5 Q379 -20 320 -20 Q267 -20 222.5 2.5 Q178 25 146.5 74 Q115 123 97.5 199 Q80 275 80 383 L80 1082 Z " />
</glyph>
<glyph glyph-name="yacute" unicode="&#xfd;" horiz-adv-x="760" >
<path fill="black" d="M115 -225 Q122 -226 127 -226.5 Q132 -227 140 -227 Q193 -227 222.5 -182 Q252 -137 260 -30 L266 -21 L19 1082 L288 1082 L378 328 L470 1082 L740 1082 L459 -164 Q449 -205 432.5 -252.5 Q416 -300 387.5 -341 Q359 -382 317 -409.5 Q275 -437 213 -437 Q196 -437 184 -435.5 Q172 -434 161.5 -431.5 Q151 -429 140.5 -426 Q130 -423 115 -419 L115 -225 Z " />
<g transform="translate(170,0)" >
<path fill="black" d="M246 1536 L521 1536 L295 1233 L86 1233 L246 1536 Z " />
</g>
</glyph>
<glyph glyph-name="thorn" unicode="&#xfe;" horiz-adv-x="831" d="M86 1536 L337 1536 L337 1029 Q366 1064 403 1083 Q440 1102 487 1102 Q557 1102 610 1062.5 Q663 1023 699 950.5 Q735 878 753 776.5 Q771 675 771 552 L771 531 Q771 413 753 312 Q735 211 699.5 137.5 Q664 64 611 22 Q558 -20 489 -20 Q441 -20 403.5 -0.5 Q366 19 337 55 L337 -416 L86 -416 L86 1536 Z M337 251 Q349 219 369.5 201.5 Q390 184 421 184 Q451 184 470 211.5 Q489 239 500.5 286.5 Q512 334 516.5 397 Q521 460 521 531 L521 552 Q521 624 516 687 Q511 750 499 796.5 Q487 843 468 869.5 Q449 896 420 896 Q391 896 370.5 875.5 Q350 855 337 819 L337 251 Z " />
<glyph glyph-name="ydieresis" unicode="&#xff;" horiz-adv-x="760" >
<g transform="translate(-26,0)" >
<path fill="black" d="M480 1367 Q480 1392 489 1414 Q498 1436 514 1452 Q530 1468 552 1477 Q574 1486 600 1486 Q625 1486 646.5 1477 Q668 1468 684 1452 Q700 1436 709 1414 Q718 1392 718 1367 Q718 1342 709 1320 Q700 1298 684 1282 Q668 1266 646.5 1257 Q625 1248 600 1248 Q574 1248 552 1257 Q530 1266 514 1282 Q498 1298 489 1320 Q480 1342 480 1367 Z M75 1368 Q75 1393 84 1415 Q93 1437 109 1453 Q125 1469 147 1478 Q169 1487 195 1487 Q220 1487 241.5 1478 Q263 1469 279 1453 Q295 1437 304 1415 Q313 1393 313 1368 Q313 1343 304 1321 Q295 1299 279 1283 Q263 1267 241.5 1258 Q220 1249 195 1249 Q169 1249 147 1258 Q125 1267 109 1283 Q93 1299 84 1321 Q75 1343 75 1368 Z " />
</g>
<path fill="black" d="M115 -225 Q122 -226 127 -226.5 Q132 -227 140 -227 Q193 -227 222.5 -182 Q252 -137 260 -30 L266 -21 L19 1082 L288 1082 L378 328 L470 1082 L740 1082 L459 -164 Q449 -205 432.5 -252.5 Q416 -300 387.5 -341 Q359 -382 317 -409.5 Q275 -437 213 -437 Q196 -437 184 -435.5 Q172 -434 161.5 -431.5 Q151 -429 140.5 -426 Q130 -423 115 -419 L115 -225 Z " />
</glyph>
<glyph glyph-name="Amacron" unicode="&#x100;" horiz-adv-x="1004" d="M382 1456 L621 1456 L983 0 L705 0 L644 329 L361 329 L300 0 L23 0 L382 1456 Z M604 542 L502 1095 L400 542 L604 542 Z M261 1762 L744 1762 L744 1604 L261 1604 L261 1762 Z " />
<glyph glyph-name="amacron" unicode="&#x101;" horiz-adv-x="786" d="M485 0 Q478 17 472.5 37 Q467 57 463 80 Q434 26 395 3 Q356 -20 304 -20 Q254 -20 209.5 1.5 Q165 23 132 65 Q99 107 80 168 Q61 229 61 307 Q61 383 81 447.5 Q101 512 143 559.5 Q185 607 249 633.5 Q313 660 401 660 L452 660 L452 760 Q452 843 437 875.5 Q422 908 390 908 Q356 908 341.5 867.5 Q327 827 327 767 L76 767 Q76 833 98.5 893.5 Q121 954 163 1000.5 Q205 1047 266 1074.5 Q327 1102 405 1102 Q467 1102 521 1083 Q575 1064 615.5 1022.5 Q656 981 679 915 Q702 849 702 756 L702 254 Q702 176 711 118 Q720 60 735 17 L735 0 L485 0 Z M143 1452 L626 1452 L626 1294 L143 1294 L143 1452 Z M452 506 L405 506 Q378 506 360 492.5 Q342 479 331 454.5 Q320 430 315.5 395.5 Q311 361 311 319 Q311 243 324.5 212 Q338 181 369 181 Q396 181 418.5 201.5 Q441 222 452 250 L452 506 Z " />
<glyph glyph-name="Abreve" unicode="&#x102;" horiz-adv-x="1004" >
<path fill="black" d="M382 1456 L621 1456 L983 0 L705 0 L644 329 L361 329 L300 0 L23 0 L382 1456 Z M604 542 L502 1095 L400 542 L604 542 Z " />
<g transform="translate(126,310)" >
<path fill="black" d="M262 1515 Q262 1488 268 1463 Q274 1438 287 1419 Q300 1400 321.5 1388.5 Q343 1377 373 1377 Q403 1377 423.5 1388.5 Q444 1400 457 1419 Q470 1438 476 1463 Q482 1488 482 1515 L661 1515 Q661 1452 641 1399.5 Q621 1347 583.5 1309 Q546 1271 492.5 1250 Q439 1229 373 1229 Q306 1229 252 1250 Q198 1271 160.5 1309 Q123 1347 102.5 1399.5 Q82 1452 82 1515 L262 1515 Z " />
</g>
</glyph>
<glyph glyph-name="abreve" unicode="&#x103;" horiz-adv-x="786" >
<path fill="black" d="M485 0 Q478 17 472.5 37 Q467 57 463 80 Q434 26 395 3 Q356 -20 304 -20 Q254 -20 209.5 1.5 Q165 23 132 65 Q99 107 80 168 Q61 229 61 307 Q61 383 81 447.5 Q101 512 143 559.5 Q185 607 249 633.5 Q313 660 401 660 L452 660 L452 760 Q452 843 437 875.5 Q422 908 390 908 Q356 908 341.5 867.5 Q327 827 327 767 L76 767 Q76 833 98.5 893.5 Q121 954 163 1000.5 Q205 1047 266 1074.5 Q327 1102 405 1102 Q467 1102 521 1083 Q575 1064 615.5 1022.5 Q656 981 679 915 Q702 849 702 756 L702 254 Q702 176 711 118 Q720 60 735 17 L735 0 L485 0 Z M452 506 L405 506 Q378 506 360 492.5 Q342 479 331 454.5 Q320 430 315.5 395.5 Q311 361 311 319 Q311 243 324.5 212 Q338 181 369 181 Q396 181 418.5 201.5 Q441 222 452 250 L452 506 Z " />
<g transform="translate(8,0)" >
<path fill="black" d="M262 1515 Q262 1488 268 1463 Q274 1438 287 1419 Q300 1400 321.5 1388.5 Q343 1377 373 1377 Q403 1377 423.5 1388.5 Q444 1400 457 1419 Q470 1438 476 1463 Q482 1488 482 1515 L661 1515 Q661 1452 641 1399.5 Q621 1347 583.5 1309 Q546 1271 492.5 1250 Q439 1229 373 1229 Q306 1229 252 1250 Q198 1271 160.5 1309 Q123 1347 102.5 1399.5 Q82 1452 82 1515 L262 1515 Z " />
</g>
</glyph>
<glyph glyph-name="Aogonek" unicode="&#x104;" horiz-adv-x="1004" d="M382 1456 L621 1456 L983 0 L905 0 Q851 -45 830 -90.5 Q809 -136 809 -195 Q809 -224 818 -242.5 Q827 -261 847 -261 Q864 -261 873.5 -253 Q883 -245 892 -239 L916 -384 Q898 -399 869.5 -413.5 Q841 -428 799 -428 Q764 -428 733 -415 Q702 -402 678.5 -376.5 Q655 -351 641.5 -313 Q628 -275 628 -225 Q628 -165 642.5 -107.5 Q657 -50 705 1 L644 329 L361 329 L300 0 L23 0 L382 1456 Z M604 542 L502 1095 L400 542 L604 542 Z " />
<glyph glyph-name="aogonek" unicode="&#x105;" horiz-adv-x="786" d="M485 0 Q478 17 472.5 37 Q467 57 463 80 Q434 26 395 3 Q356 -20 304 -20 Q254 -20 209.5 1.5 Q165 23 132 65 Q99 107 80 168 Q61 229 61 307 Q61 383 81 447.5 Q101 512 143 559.5 Q185 607 249 633.5 Q313 660 401 660 L452 660 L452 760 Q452 843 437 875.5 Q422 908 390 908 Q356 908 341.5 867.5 Q327 827 327 767 L76 767 Q76 833 98.5 893.5 Q121 954 163 1000.5 Q205 1047 266 1074.5 Q327 1102 405 1102 Q467 1102 521 1083 Q575 1064 615.5 1022.5 Q656 981 679 915 Q702 849 702 756 L702 254 Q702 176 711 118 Q720 60 735 17 L735 0 L691 0 Q637 -45 616 -90.5 Q595 -136 595 -195 Q595 -224 604 -242.5 Q613 -261 633 -261 Q650 -261 659.5 -253 Q669 -245 678 -239 L702 -384 Q684 -399 655.5 -413.5 Q627 -428 585 -428 Q550 -428 519 -415 Q488 -402 464.5 -376.5 Q441 -351 427.5 -313 Q414 -275 414 -225 Q414 -165 428 -108 Q442 -51 490 0 L485 0 Z M452 506 L405 506 Q378 506 360 492.5 Q342 479 331 454.5 Q320 430 315.5 395.5 Q311 361 311 319 Q311 243 324.5 212 Q338 181 369 181 Q396 181 418.5 201.5 Q441 222 452 250 L452 506 Z " />
<glyph glyph-name="Cacute" unicode="&#x106;" horiz-adv-x="951" >
<path fill="black" d="M74 861 Q74 1007 103 1121.5 Q132 1236 185.5 1315 Q239 1394 315.5 1435.5 Q392 1477 488 1477 Q684 1477 784 1347 Q884 1217 897 972 L637 972 Q636 1054 628.5 1110 Q621 1166 604 1200.5 Q587 1235 559 1250 Q531 1265 488 1265 Q405 1265 370 1167 Q335 1069 335 863 L335 596 Q335 497 341.5 421.5 Q348 346 365 295 Q382 244 412 217.5 Q442 191 488 191 Q526 191 553.5 205 Q581 219 598.5 252.5 Q616 286 624.5 341 Q633 396 634 478 L896 478 Q888 236 782.5 108 Q677 -20 488 -20 Q389 -20 312 21 Q235 62 182 141 Q129 220 101.5 334.5 Q74 449 74 596 L74 861 Z " />
<g transform="translate(281,328)" >
<path fill="black" d="M246 1536 L521 1536 L295 1233 L86 1233 L246 1536 Z " />
</g>
</glyph>
<glyph glyph-name="cacute" unicode="&#x107;" horiz-adv-x="770" >
<path fill="black" d="M60 591 Q60 836 145.5 969 Q231 1102 406 1102 Q477 1102 535 1075 Q593 1048 633.5 996 Q674 944 696 867.5 Q718 791 718 691 L483 691 Q484 794 466.5 846.5 Q449 899 399 899 Q368 899 350 878.5 Q332 858 323.5 818.5 Q315 779 313 722 Q311 665 311 591 L311 491 Q311 416 313 359 Q315 302 323.5 263 Q332 224 350.5 204 Q369 184 402 184 Q445 184 465 225 Q485 266 483 363 L718 363 Q718 275 694.5 204 Q671 133 629.5 83 Q588 33 531 6.5 Q474 -20 408 -20 Q320 -20 254.5 14 Q189 48 145.5 113.5 Q102 179 81 274 Q60 369 60 491 L60 591 Z " />
<g transform="translate(173,0)" >
<path fill="black" d="M246 1536 L521 1536 L295 1233 L86 1233 L246 1536 Z " />
</g>
</glyph>
<glyph glyph-name="Cdotaccent" unicode="&#x10a;" horiz-adv-x="951" >
<path fill="black" d="M74 861 Q74 1007 103 1121.5 Q132 1236 185.5 1315 Q239 1394 315.5 1435.5 Q392 1477 488 1477 Q684 1477 784 1347 Q884 1217 897 972 L637 972 Q636 1054 628.5 1110 Q621 1166 604 1200.5 Q587 1235 559 1250 Q531 1265 488 1265 Q405 1265 370 1167 Q335 1069 335 863 L335 596 Q335 497 341.5 421.5 Q348 346 365 295 Q382 244 412 217.5 Q442 191 488 191 Q526 191 553.5 205 Q581 219 598.5 252.5 Q616 286 624.5 341 Q633 396 634 478 L896 478 Q888 236 782.5 108 Q677 -20 488 -20 Q389 -20 312 21 Q235 62 182 141 Q129 220 101.5 334.5 Q74 449 74 596 L74 861 Z " />
<g transform="translate(259,338)" >
<path fill="black" d="M98 1372 Q98 1427 133 1463 Q168 1499 227 1499 Q284 1499 319.5 1463 Q355 1427 355 1372 Q355 1318 319.5 1282.5 Q284 1247 227 1247 Q168 1247 133 1282.5 Q98 1318 98 1372 Z " />
</g>
</glyph>
<glyph glyph-name="cdotaccent" unicode="&#x10b;" horiz-adv-x="770" >
<path fill="black" d="M60 591 Q60 836 145.5 969 Q231 1102 406 1102 Q477 1102 535 1075 Q593 1048 633.5 996 Q674 944 696 867.5 Q718 791 718 691 L483 691 Q484 794 466.5 846.5 Q449 899 399 899 Q368 899 350 878.5 Q332 858 323.5 818.5 Q315 779 313 722 Q311 665 311 591 L311 491 Q311 416 313 359 Q315 302 323.5 263 Q332 224 350.5 204 Q369 184 402 184 Q445 184 465 225 Q485 266 483 363 L718 363 Q718 275 694.5 204 Q671 133 629.5 83 Q588 33 531 6.5 Q474 -20 408 -20 Q320 -20 254.5 14 Q189 48 145.5 113.5 Q102 179 81 274 Q60 369 60 491 L60 591 Z " />
<g transform="translate(151,10)" >
<path fill="black" d="M98 1372 Q98 1427 133 1463 Q168 1499 227 1499 Q284 1499 319.5 1463 Q355 1427 355 1372 Q355 1318 319.5 1282.5 Q284 1247 227 1247 Q168 1247 133 1282.5 Q98 1318 98 1372 Z " />
</g>
</glyph>
<glyph glyph-name="Ccaron" unicode="&#x10c;" horiz-adv-x="951" >
<path fill="black" d="M74 861 Q74 1007 103 1121.5 Q132 1236 185.5 1315 Q239 1394 315.5 1435.5 Q392 1477 488 1477 Q684 1477 784 1347 Q884 1217 897 972 L637 972 Q636 1054 628.5 1110 Q621 1166 604 1200.5 Q587 1235 559 1250 Q531 1265 488 1265 Q405 1265 370 1167 Q335 1069 335 863 L335 596 Q335 497 341.5 421.5 Q348 346 365 295 Q382 244 412 217.5 Q442 191 488 191 Q526 191 553.5 205 Q581 219 598.5 252.5 Q616 286 624.5 341 Q633 396 634 478 L896 478 Q888 236 782.5 108 Q677 -20 488 -20 Q389 -20 312 21 Q235 62 182 141 Q129 220 101.5 334.5 Q74 449 74 596 L74 861 Z " />
<g transform="translate(123,328)" >
<path fill="black" d="M63 1527 L63 1537 L276 1537 L365 1385 L455 1537 L667 1537 L667 1526 L443 1248 L287 1248 L63 1527 Z " />
</g>
</glyph>
<glyph glyph-name="ccaron" unicode="&#x10d;" horiz-adv-x="770" >
<path fill="black" d="M60 591 Q60 836 145.5 969 Q231 1102 406 1102 Q477 1102 535 1075 Q593 1048 633.5 996 Q674 944 696 867.5 Q718 791 718 691 L483 691 Q484 794 466.5 846.5 Q449 899 399 899 Q368 899 350 878.5 Q332 858 323.5 818.5 Q315 779 313 722 Q311 665 311 591 L311 491 Q311 416 313 359 Q315 302 323.5 263 Q332 224 350.5 204 Q369 184 402 184 Q445 184 465 225 Q485 266 483 363 L718 363 Q718 275 694.5 204 Q671 133 629.5 83 Q588 33 531 6.5 Q474 -20 408 -20 Q320 -20 254.5 14 Q189 48 145.5 113.5 Q102 179 81 274 Q60 369 60 491 L60 591 Z " />
<g transform="translate(15,0)" >
<path fill="black" d="M63 1527 L63 1537 L276 1537 L365 1385 L455 1537 L667 1537 L667 1526 L443 1248 L287 1248 L63 1527 Z " />
</g>
</glyph>
<glyph glyph-name="Dcaron" unicode="&#x10e;" horiz-adv-x="937" d="M94 1456 L408 1456 Q509 1456 592.5 1416.5 Q676 1377 735 1300.5 Q794 1224 826.5 1111 Q859 998 859 851 L859 605 Q859 458 826.5 345 Q794 232 735 155.5 Q676 79 593 39.5 Q510 0 408 0 L94 0 L94 1456 Z M408 211 Q467 211 504 234 Q541 257 562 305 Q583 353 590.5 427.5 Q598 502 598 605 L598 853 Q598 958 590 1032.5 Q582 1107 561 1154 Q540 1201 503 1222.5 Q466 1244 408 1244 L354 1244 L354 211 L408 211 Z M275 1565 L51 1844 L51 1854 L264 1854 L353 1702 L443 1854 L655 1854 L655 1843 L431 1565 L275 1565 Z " />
<glyph glyph-name="dcaron" unicode="&#x10f;" horiz-adv-x="1128" >
<path fill="black" d="M503 100 Q471 43 429 11.5 Q387 -20 331 -20 Q193 -20 124 109 Q55 238 55 496 L55 583 Q55 852 124.5 977 Q194 1102 333 1102 Q382 1102 420.5 1077.5 Q459 1053 489 1008 L489 1536 L741 1536 L741 0 L515 -1 L503 100 Z M489 821 Q475 856 454 876 Q433 896 406 896 Q377 896 358 878 Q339 860 327.5 822 Q316 784 311 725 Q306 666 306 583 L306 496 Q306 414 310.5 355.5 Q315 297 326 259.5 Q337 222 356.5 204.5 Q376 187 406 187 Q435 187 455 204.5 Q475 222 489 253 L489 821 Z " />
</glyph>
<glyph glyph-name="Dcroat" unicode="&#x110;" horiz-adv-x="937" >
<path fill="black" d="M94 650 L-6 650 L-6 823 L94 823 L94 1456 L408 1456 Q509 1456 592.5 1416.5 Q676 1377 735 1300.5 Q794 1224 826.5 1111 Q859 998 859 851 L859 605 Q859 458 826.5 345 Q794 232 735 155.5 Q676 79 593 39.5 Q510 0 408 0 L94 0 L94 650 Z M408 211 Q467 211 504 234 Q541 257 562 305 Q583 353 590.5 427.5 Q598 502 598 605 L598 853 Q598 958 590 1032.5 Q582 1107 561 1154 Q540 1201 503 1222.5 Q466 1244 408 1244 L354 1244 L354 823 L491 823 L491 650 L354 650 L354 211 L408 211 Z " />
</glyph>
<glyph glyph-name="dslash" unicode="&#x111;" horiz-adv-x="953" d="M506 84 Q474 34 433.5 7 Q393 -20 339 -20 Q270 -20 217 21.5 Q164 63 128 136.5 Q92 210 73.5 310.5 Q55 411 55 529 L55 550 Q55 673 73.5 775 Q92 877 128 949.5 Q164 1022 217 1062 Q270 1102 339 1102 Q385 1102 422.5 1082 Q460 1062 489 1024 L489 1224 L342 1224 L342 1396 L489 1396 L489 1536 L741 1536 L741 1396 L840 1396 L840 1224 L741 1224 L741 0 L516 0 L506 84 Z M489 811 Q475 851 454 873.5 Q433 896 406 896 Q377 896 358 869 Q339 842 327.5 795 Q316 748 311 685 Q306 622 306 550 L306 529 Q306 458 310.5 395.5 Q315 333 326 286.5 Q337 240 356.5 213.5 Q376 187 406 187 Q435 187 455 207 Q475 227 489 262 L489 811 Z " />
<glyph glyph-name="Emacron" unicode="&#x112;" horiz-adv-x="816" d="M94 1456 L769 1456 L769 1244 L354 1244 L354 854 L704 854 L704 647 L354 647 L354 211 L770 211 L770 0 L94 0 L94 1456 Z M212 1769 L695 1769 L695 1611 L212 1611 L212 1769 Z " />
<glyph glyph-name="emacron" unicode="&#x113;" horiz-adv-x="806" d="M69 578 Q69 850 156.5 976 Q244 1102 413 1102 Q581 1102 668 974.5 Q755 847 755 584 L755 464 L319 464 Q319 385 328.5 331.5 Q338 278 356 245 Q374 212 401.5 198 Q429 184 465 184 Q519 184 566 213 Q613 242 647 290 L740 139 Q723 111 696.5 82.5 Q670 54 632.5 31.5 Q595 9 546.5 -5.5 Q498 -20 437 -20 Q262 -20 165.5 102 Q69 224 69 471 L69 578 Z M139 1453 L622 1453 L622 1295 L139 1295 L139 1453 Z M509 644 L509 669 Q509 787 488 843.5 Q467 900 415 900 Q388 900 370 885.5 Q352 871 341.5 840 Q331 809 326 760.5 Q321 712 320 644 L509 644 Z " />
<glyph glyph-name="Edotaccent" unicode="&#x116;" horiz-adv-x="816" >
<path fill="black" d="M94 1456 L769 1456 L769 1244 L354 1244 L354 854 L704 854 L704 647 L354 647 L354 211 L770 211 L770 0 L94 0 L94 1456 Z " />
<g transform="translate(225,327)" >
<path fill="black" d="M98 1372 Q98 1427 133 1463 Q168 1499 227 1499 Q284 1499 319.5 1463 Q355 1427 355 1372 Q355 1318 319.5 1282.5 Q284 1247 227 1247 Q168 1247 133 1282.5 Q98 1318 98 1372 Z " />
</g>
</glyph>
<glyph glyph-name="edotaccent" unicode="&#x117;" horiz-adv-x="806" >
<path fill="black" d="M69 578 Q69 850 156.5 976 Q244 1102 413 1102 Q581 1102 668 974.5 Q755 847 755 584 L755 464 L319 464 Q319 385 328.5 331.5 Q338 278 356 245 Q374 212 401.5 198 Q429 184 465 184 Q519 184 566 213 Q613 242 647 290 L740 139 Q723 111 696.5 82.5 Q670 54 632.5 31.5 Q595 9 546.5 -5.5 Q498 -20 437 -20 Q262 -20 165.5 102 Q69 224 69 471 L69 578 Z M509 644 L509 669 Q509 787 488 843.5 Q467 900 415 900 Q388 900 370 885.5 Q352 871 341.5 840 Q331 809 326 760.5 Q321 712 320 644 L509 644 Z " />
<g transform="translate(152,11)" >
<path fill="black" d="M98 1372 Q98 1427 133 1463 Q168 1499 227 1499 Q284 1499 319.5 1463 Q355 1427 355 1372 Q355 1318 319.5 1282.5 Q284 1247 227 1247 Q168 1247 133 1282.5 Q98 1318 98 1372 Z " />
</g>
</glyph>
<glyph glyph-name="Eogonek" unicode="&#x118;" horiz-adv-x="816" d="M94 1456 L769 1456 L769 1244 L354 1244 L354 854 L704 854 L704 647 L354 647 L354 211 L770 211 L770 0 L638 0 Q584 -45 563 -90.5 Q542 -136 542 -195 Q542 -224 551 -242.5 Q560 -261 580 -261 Q597 -261 606.5 -253 Q616 -245 625 -239 L649 -384 Q631 -399 602.5 -413.5 Q574 -428 532 -428 Q497 -428 466 -415 Q435 -402 411.5 -376.5 Q388 -351 374.5 -313 Q361 -275 361 -225 Q361 -165 375 -108 Q389 -51 437 0 L94 0 L94 1456 Z " />
<glyph glyph-name="eogonek" unicode="&#x119;" horiz-adv-x="806" d="M621 -355 Q603 -370 574.5 -384.5 Q546 -399 504 -399 Q469 -399 438 -386 Q407 -373 383.5 -347.5 Q360 -322 346.5 -284 Q333 -246 333 -196 Q333 -149 341 -103.5 Q349 -58 375 -16 Q229 4 149 125 Q69 246 69 471 L69 578 Q69 850 156.5 976 Q244 1102 413 1102 Q581 1102 668 974.5 Q755 847 755 584 L755 464 L319 464 Q319 385 328.5 331.5 Q338 278 356 245 Q374 212 401.5 198 Q429 184 465 184 Q519 184 566 213 Q613 242 647 290 L740 139 Q718 103 681 67 Q644 31 587 8 Q547 -32 530.5 -73 Q514 -114 514 -166 Q514 -195 523 -213.5 Q532 -232 552 -232 Q569 -232 578.5 -224 Q588 -216 597 -210 L621 -355 Z M509 644 L509 669 Q509 787 488 843.5 Q467 900 415 900 Q388 900 370 885.5 Q352 871 341.5 840 Q331 809 326 760.5 Q321 712 320 644 L509 644 Z " />
<glyph glyph-name="Ecaron" unicode="&#x11a;" horiz-adv-x="816" d="M94 1456 L769 1456 L769 1244 L354 1244 L354 854 L704 854 L704 647 L354 647 L354 211 L770 211 L770 0 L94 0 L94 1456 Z M376 1565 L152 1844 L152 1854 L365 1854 L454 1702 L544 1854 L756 1854 L756 1843 L532 1565 L376 1565 Z " />
<glyph glyph-name="ecaron" unicode="&#x11b;" horiz-adv-x="806" d="M69 578 Q69 850 156.5 976 Q244 1102 413 1102 Q581 1102 668 974.5 Q755 847 755 584 L755 464 L319 464 Q319 385 328.5 331.5 Q338 278 356 245 Q374 212 401.5 198 Q429 184 465 184 Q519 184 566 213 Q613 242 647 290 L740 139 Q723 111 696.5 82.5 Q670 54 632.5 31.5 Q595 9 546.5 -5.5 Q498 -20 437 -20 Q262 -20 165.5 102 Q69 224 69 471 L69 578 Z M303 1249 L79 1528 L79 1538 L292 1538 L381 1386 L471 1538 L683 1538 L683 1527 L459 1249 L303 1249 Z M509 644 L509 669 Q509 787 488 843.5 Q467 900 415 900 Q388 900 370 885.5 Q352 871 341.5 840 Q331 809 326 760.5 Q321 712 320 644 L509 644 Z " />
<glyph glyph-name="Gbreve" unicode="&#x11e;" horiz-adv-x="969" >
<path fill="black" d="M80 862 Q80 1018 109 1133.5 Q138 1249 192 1325.5 Q246 1402 322.5 1439.5 Q399 1477 494 1477 Q596 1477 669 1446.5 Q742 1416 790.5 1356 Q839 1296 864.5 1208.5 Q890 1121 897 1007 L647 1007 Q638 1145 605.5 1205 Q573 1265 503 1265 Q463 1265 432 1242.5 Q401 1220 381 1171 Q361 1122 350.5 1046.5 Q340 971 340 864 L340 594 Q340 486 350.5 410 Q361 334 383.5 285 Q406 236 441.5 213.5 Q477 191 526 191 Q552 191 570 199.5 Q588 208 601 219 Q614 230 622.5 241.5 Q631 253 637 260 L637 554 L488 554 L488 752 L898 752 L898 171 Q879 147 846 114 Q813 81 765.5 51.5 Q718 22 654 1 Q590 -20 508 -20 Q410 -20 330.5 17.5 Q251 55 195.5 131 Q140 207 110 322.5 Q80 438 80 594 L80 862 Z " />
<g transform="translate(116,328)" >
<path fill="black" d="M262 1515 Q262 1488 268 1463 Q274 1438 287 1419 Q300 1400 321.5 1388.5 Q343 1377 373 1377 Q403 1377 423.5 1388.5 Q444 1400 457 1419 Q470 1438 476 1463 Q482 1488 482 1515 L661 1515 Q661 1452 641 1399.5 Q621 1347 583.5 1309 Q546 1271 492.5 1250 Q439 1229 373 1229 Q306 1229 252 1250 Q198 1271 160.5 1309 Q123 1347 102.5 1399.5 Q82 1452 82 1515 L262 1515 Z " />
</g>
</glyph>
<glyph glyph-name="gbreve" unicode="&#x11f;" horiz-adv-x="844" >
<path fill="black" d="M204 -132 Q232 -176 281 -202 Q330 -228 379 -228 Q411 -228 435.5 -217 Q460 -206 476.5 -180.5 Q493 -155 501.5 -113.5 Q510 -72 510 -10 L510 76 Q481 31 441.5 7 Q402 -17 351 -17 Q213 -17 136.5 112 Q60 241 60 498 L60 585 Q60 719 79.5 816.5 Q99 914 136 977.5 Q173 1041 227.5 1071.5 Q282 1102 351 1102 Q412 1102 454.5 1075.5 Q497 1049 526 1000 L534 1082 L760 1082 L760 -6 Q760 -116 733.5 -195.5 Q707 -275 658.5 -326 Q610 -377 541.5 -401.5 Q473 -426 390 -426 Q359 -426 322.5 -418 Q286 -410 249 -394.5 Q212 -379 179 -355.5 Q146 -332 123 -301 L204 -132 Z M510 834 Q496 863 475 879.5 Q454 896 425 896 Q367 896 338.5 822.5 Q310 749 310 585 L310 498 Q310 334 337.5 262 Q365 190 425 190 Q454 190 475 204 Q496 218 510 244 L510 834 Z " />
<g transform="translate(17,0)" >
<path fill="black" d="M262 1515 Q262 1488 268 1463 Q274 1438 287 1419 Q300 1400 321.5 1388.5 Q343 1377 373 1377 Q403 1377 423.5 1388.5 Q444 1400 457 1419 Q470 1438 476 1463 Q482 1488 482 1515 L661 1515 Q661 1452 641 1399.5 Q621 1347 583.5 1309 Q546 1271 492.5 1250 Q439 1229 373 1229 Q306 1229 252 1250 Q198 1271 160.5 1309 Q123 1347 102.5 1399.5 Q82 1452 82 1515 L262 1515 Z " />
</g>
</glyph>
<glyph glyph-name="Gdotaccent" unicode="&#x120;" horiz-adv-x="969" >
<path fill="black" d="M80 862 Q80 1018 109 1133.5 Q138 1249 192 1325.5 Q246 1402 322.5 1439.5 Q399 1477 494 1477 Q596 1477 669 1446.5 Q742 1416 790.5 1356 Q839 1296 864.5 1208.5 Q890 1121 897 1007 L647 1007 Q638 1145 605.5 1205 Q573 1265 503 1265 Q463 1265 432 1242.5 Q401 1220 381 1171 Q361 1122 350.5 1046.5 Q340 971 340 864 L340 594 Q340 486 350.5 410 Q361 334 383.5 285 Q406 236 441.5 213.5 Q477 191 526 191 Q552 191 570 199.5 Q588 208 601 219 Q614 230 622.5 241.5 Q631 253 637 260 L637 554 L488 554 L488 752 L898 752 L898 171 Q879 147 846 114 Q813 81 765.5 51.5 Q718 22 654 1 Q590 -20 508 -20 Q410 -20 330.5 17.5 Q251 55 195.5 131 Q140 207 110 322.5 Q80 438 80 594 L80 862 Z " />
<g transform="translate(264,338)" >
<path fill="black" d="M98 1372 Q98 1427 133 1463 Q168 1499 227 1499 Q284 1499 319.5 1463 Q355 1427 355 1372 Q355 1318 319.5 1282.5 Q284 1247 227 1247 Q168 1247 133 1282.5 Q98 1318 98 1372 Z " />
</g>
</glyph>
<glyph glyph-name="gdotaccent" unicode="&#x121;" horiz-adv-x="844" >
<path fill="black" d="M204 -132 Q232 -176 281 -202 Q330 -228 379 -228 Q411 -228 435.5 -217 Q460 -206 476.5 -180.5 Q493 -155 501.5 -113.5 Q510 -72 510 -10 L510 76 Q481 31 441.5 7 Q402 -17 351 -17 Q213 -17 136.5 112 Q60 241 60 498 L60 585 Q60 719 79.5 816.5 Q99 914 136 977.5 Q173 1041 227.5 1071.5 Q282 1102 351 1102 Q412 1102 454.5 1075.5 Q497 1049 526 1000 L534 1082 L760 1082 L760 -6 Q760 -116 733.5 -195.5 Q707 -275 658.5 -326 Q610 -377 541.5 -401.5 Q473 -426 390 -426 Q359 -426 322.5 -418 Q286 -410 249 -394.5 Q212 -379 179 -355.5 Q146 -332 123 -301 L204 -132 Z M510 834 Q496 863 475 879.5 Q454 896 425 896 Q367 896 338.5 822.5 Q310 749 310 585 L310 498 Q310 334 337.5 262 Q365 190 425 190 Q454 190 475 204 Q496 218 510 244 L510 834 Z " />
<g transform="translate(165,10)" >
<path fill="black" d="M98 1372 Q98 1427 133 1463 Q168 1499 227 1499 Q284 1499 319.5 1463 Q355 1427 355 1372 Q355 1318 319.5 1282.5 Q284 1247 227 1247 Q168 1247 133 1282.5 Q98 1318 98 1372 Z " />
</g>
</glyph>
<glyph glyph-name="uni0122" unicode="&#x122;" horiz-adv-x="1197" >
<path fill="black" d="M80 862 Q80 1018 109 1133.5 Q138 1249 192 1325.5 Q246 1402 322.5 1439.5 Q399 1477 494 1477 Q596 1477 669 1446.5 Q742 1416 790.5 1356 Q839 1296 864.5 1208.5 Q890 1121 897 1007 L647 1007 Q638 1145 605.5 1205 Q573 1265 503 1265 Q463 1265 432 1242.5 Q401 1220 381 1171 Q361 1122 350.5 1046.5 Q340 971 340 864 L340 594 Q340 486 350.5 410 Q361 334 383.5 285 Q406 236 441.5 213.5 Q477 191 526 191 Q552 191 570 199.5 Q588 208 601 219 Q614 230 622.5 241.5 Q631 253 637 260 L637 554 L488 554 L488 752 L898 752 L898 171 Q879 147 846 114 Q813 81 765.5 51.5 Q718 22 654 1 Q590 -20 508 -20 Q410 -20 330.5 17.5 Q251 55 195.5 131 Q140 207 110 322.5 Q80 438 80 594 L80 862 Z " />
<g transform="translate(419,-370)" >
<path fill="black" d="M-470 -477 Q-447 -422 -432.5 -364 Q-418 -306 -418 -228 L-418 -145 L-242 -145 L-242 -217 Q-242 -261 -250.5 -307 Q-259 -353 -274 -397.5 Q-289 -442 -309 -482 Q-329 -522 -351 -553 L-470 -477 Z " />
</g>
</glyph>
<glyph glyph-name="uni0123" unicode="&#x123;" horiz-adv-x="844" >
<path fill="black" d="M204 -132 Q232 -176 281 -202 Q330 -228 379 -228 Q411 -228 435.5 -217 Q460 -206 476.5 -180.5 Q493 -155 501.5 -113.5 Q510 -72 510 -10 L510 76 Q481 31 441.5 7 Q402 -17 351 -17 Q213 -17 136.5 112 Q60 241 60 498 L60 585 Q60 719 79.5 816.5 Q99 914 136 977.5 Q173 1041 227.5 1071.5 Q282 1102 351 1102 Q412 1102 454.5 1075.5 Q497 1049 526 1000 L534 1082 L760 1082 L760 -6 Q760 -116 733.5 -195.5 Q707 -275 658.5 -326 Q610 -377 541.5 -401.5 Q473 -426 390 -426 Q359 -426 322.5 -418 Q286 -410 249 -394.5 Q212 -379 179 -355.5 Q146 -332 123 -301 L204 -132 Z M510 834 Q496 863 475 879.5 Q454 896 425 896 Q367 896 338.5 822.5 Q310 749 310 585 L310 498 Q310 334 337.5 262 Q365 190 425 190 Q454 190 475 204 Q496 218 510 244 L510 834 Z " />
<g transform="translate(189,134)" >
<path fill="black" d="M109 1257 Q109 1307 116.5 1354.5 Q124 1402 138.5 1443 Q153 1484 173.5 1517.5 Q194 1551 220 1572 L344 1492 Q327 1441 310.5 1380.5 Q294 1320 294 1245 L293 1122 L109 1122 L109 1257 Z " />
</g>
</glyph>
<glyph glyph-name="Hbar" unicode="&#x126;" horiz-adv-x="1292" d="M127 1041 L51 1041 L51 1205 L127 1205 L127 1456 L387 1456 L387 1205 L694 1205 L694 1456 L955 1456 L955 1205 L1020 1205 L1020 1041 L955 1041 L955 0 L694 0 L694 643 L387 643 L387 0 L127 0 L127 1041 Z M694 854 L694 1041 L387 1041 L387 854 L694 854 Z " />
<glyph glyph-name="hbar" unicode="&#x127;" horiz-adv-x="824" d="M78 1221 L-28 1221 L-28 1394 L78 1394 L78 1536 L328 1536 L328 1394 L469 1394 L469 1221 L328 1221 L328 998 Q362 1048 406.5 1075 Q451 1102 507 1102 Q556 1102 599 1080 Q642 1058 673.5 1009 Q705 960 723 882 Q741 804 741 692 L741 0 L491 0 L491 694 Q491 806 469 851 Q447 896 403 896 Q354 896 328 840 L328 0 L78 0 L78 1221 Z " />
<glyph glyph-name="Itilde" unicode="&#x128;" horiz-adv-x="468" >
<path fill="black" d="M105 0 L105 1456 L364 1456 L364 0 L105 0 Z " />
<g transform="translate(-140,316)" >
<path fill="black" d="M109 1254 Q109 1309 121 1356.5 Q133 1404 154 1439.5 Q175 1475 204.5 1495 Q234 1515 269 1515 Q293 1515 315.5 1501 Q338 1487 360.5 1470.5 Q383 1454 405.5 1440 Q428 1426 452 1426 Q472 1426 486 1453.5 Q500 1481 500 1528 L637 1517 Q637 1462 625 1414.5 Q613 1367 591.5 1332.5 Q570 1298 540.5 1278.5 Q511 1259 476 1259 Q445 1259 422 1273 Q399 1287 379 1303.5 Q359 1320 339 1334 Q319 1348 294 1348 Q274 1348 260.5 1320.5 Q247 1293 247 1247 L109 1254 Z " />
</g>
</glyph>
<glyph glyph-name="itilde" unicode="&#x129;" horiz-adv-x="462" >
<path fill="black" d="M104 0 L104 1082 L357 1082 L357 0 L104 0 Z " />
<g transform="translate(-143,-11)" >
<path fill="black" d="M109 1254 Q109 1309 121 1356.5 Q133 1404 154 1439.5 Q175 1475 204.5 1495 Q234 1515 269 1515 Q293 1515 315.5 1501 Q338 1487 360.5 1470.5 Q383 1454 405.5 1440 Q428 1426 452 1426 Q472 1426 486 1453.5 Q500 1481 500 1528 L637 1517 Q637 1462 625 1414.5 Q613 1367 591.5 1332.5 Q570 1298 540.5 1278.5 Q511 1259 476 1259 Q445 1259 422 1273 Q399 1287 379 1303.5 Q359 1320 339 1334 Q319 1348 294 1348 Q274 1348 260.5 1320.5 Q247 1293 247 1247 L109 1254 Z " />
</g>
</glyph>
<glyph glyph-name="Imacron" unicode="&#x12a;" horiz-adv-x="468" >
<path fill="black" d="M105 0 L105 1456 L364 1456 L364 0 L105 0 Z " />
<g transform="translate(-157,318)" >
<path fill="black" d="M149 1293 L149 1451 L632 1451 L632 1293 L149 1293 Z " />
</g>
</glyph>
<glyph glyph-name="imacron" unicode="&#x12b;" horiz-adv-x="462" >
<path fill="black" d="M104 0 L104 1082 L357 1082 L357 0 L104 0 Z " />
<g transform="translate(-160,-9)" >
<path fill="black" d="M149 1293 L149 1451 L632 1451 L632 1293 L149 1293 Z " />
</g>
</glyph>
<glyph glyph-name="Iogonek" unicode="&#x12e;" horiz-adv-x="468" d="M324 -384 Q306 -399 277.5 -413.5 Q249 -428 207 -428 Q172 -428 141 -415 Q110 -402 86.5 -376.5 Q63 -351 49.5 -313 Q36 -275 36 -225 Q36 -165 50 -108 Q64 -51 112 0 L105 0 L105 1456 L364 1456 L364 0 L313 0 Q259 -45 238 -90.5 Q217 -136 217 -195 Q217 -224 226 -242.5 Q235 -261 255 -261 Q272 -261 281.5 -253 Q291 -245 300 -239 L324 -384 Z " />
<glyph glyph-name="iogonek" unicode="&#x12f;" horiz-adv-x="442" d="M318 -384 Q300 -399 271.5 -413.5 Q243 -428 201 -428 Q166 -428 135 -415 Q104 -402 80.5 -376.5 Q57 -351 43.5 -313 Q30 -275 30 -225 Q30 -165 44 -108 Q58 -51 106 0 L94 0 L94 1082 L347 1082 L347 0 L307 0 Q253 -45 232 -90.5 Q211 -136 211 -195 Q211 -224 220 -242.5 Q229 -261 249 -261 Q266 -261 275.5 -253 Q285 -245 294 -239 L318 -384 Z M85 1365 Q85 1423 121.5 1461 Q158 1499 219 1499 Q282 1499 318.5 1461 Q355 1423 355 1365 Q355 1308 318.5 1270 Q282 1232 219 1232 Q158 1232 121.5 1270 Q85 1308 85 1365 Z " />
<glyph glyph-name="Idot" unicode="&#x130;" horiz-adv-x="468" >
<path fill="black" d="M105 0 L105 1456 L364 1456 L364 0 L105 0 Z " />
<g transform="translate(5,327)" >
<path fill="black" d="M98 1372 Q98 1427 133 1463 Q168 1499 227 1499 Q284 1499 319.5 1463 Q355 1427 355 1372 Q355 1318 319.5 1282.5 Q284 1247 227 1247 Q168 1247 133 1282.5 Q98 1318 98 1372 Z " />
</g>
</glyph>
<glyph glyph-name="dotlessi" unicode="&#x131;" horiz-adv-x="462" d="M104 0 L104 1082 L357 1082 L357 0 L104 0 Z " />
<glyph glyph-name="uni0136" unicode="&#x136;" horiz-adv-x="1126" >
<path fill="black" d="M94 1456 L354 1456 L354 836 L411 974 L607 1456 L927 1456 L603 835 L925 0 L618 0 L430 578 L354 477 L354 0 L94 0 L94 1456 Z " />
<g transform="translate(360,-317)" >
<path fill="black" d="M-470 -477 Q-447 -422 -432.5 -364 Q-418 -306 -418 -228 L-418 -145 L-242 -145 L-242 -217 Q-242 -261 -250.5 -307 Q-259 -353 -274 -397.5 Q-289 -442 -309 -482 Q-329 -522 -351 -553 L-470 -477 Z " />
</g>
</glyph>
<glyph glyph-name="uni0137" unicode="&#x137;" horiz-adv-x="988" >
<path fill="black" d="M85 1537 L335 1537 L335 678 L345 693 L518 1082 L789 1082 L544 648 L811 0 L525 0 L369 457 L335 428 L335 0 L85 0 L85 1537 Z " />
<g transform="translate(305,-339)" >
<path fill="black" d="M-470 -477 Q-447 -422 -432.5 -364 Q-418 -306 -418 -228 L-418 -145 L-242 -145 L-242 -217 Q-242 -261 -250.5 -307 Q-259 -353 -274 -397.5 Q-289 -442 -309 -482 Q-329 -522 -351 -553 L-470 -477 Z " />
</g>
</glyph>
<glyph glyph-name="Lacute" unicode="&#x139;" horiz-adv-x="801" >
<path fill="black" d="M94 1456 L354 1456 L354 211 L751 211 L751 0 L94 0 L94 1456 Z " />
<g transform="translate(24,309)" >
<path fill="black" d="M246 1536 L521 1536 L295 1233 L86 1233 L246 1536 Z " />
</g>
</glyph>
<glyph glyph-name="lacute" unicode="&#x13a;" horiz-adv-x="501" >
<path fill="black" d="M94 1536 L346 1536 L346 308 Q346 271 349 248 Q352 225 359 212 Q366 199 378 194.5 Q390 190 409 190 Q427 190 440.5 193 Q454 196 462 199 L459 4 Q430 -6 399 -13 Q368 -20 328 -20 Q274 -20 230.5 -3.5 Q187 13 156.5 50 Q126 87 110 146 Q94 205 94 289 L94 1536 Z " />
<g transform="translate(15,398)" >
<path fill="black" d="M246 1536 L521 1536 L295 1233 L86 1233 L246 1536 Z " />
</g>
</glyph>
<glyph glyph-name="uni013B" unicode="&#x13b;" horiz-adv-x="972" >
<path fill="black" d="M94 1456 L354 1456 L354 211 L751 211 L751 0 L94 0 L94 1456 Z " />
<g transform="translate(306,-360)" >
<path fill="black" d="M-470 -477 Q-447 -422 -432.5 -364 Q-418 -306 -418 -228 L-418 -145 L-242 -145 L-242 -217 Q-242 -261 -250.5 -307 Q-259 -353 -274 -397.5 Q-289 -442 -309 -482 Q-329 -522 -351 -553 L-470 -477 Z " />
</g>
</glyph>
<glyph glyph-name="uni013C" unicode="&#x13c;" horiz-adv-x="527" >
<path fill="black" d="M94 1536 L346 1536 L346 308 Q346 271 349 248 Q352 225 359 212 Q366 199 378 194.5 Q390 190 409 190 Q427 190 440.5 193 Q454 196 462 199 L459 4 Q430 -6 399 -13 Q368 -20 328 -20 Q274 -20 230.5 -3.5 Q187 13 156.5 50 Q126 87 110 146 Q94 205 94 289 L94 1536 Z " />
<g transform="translate(59,-360)" >
<path fill="black" d="M-470 -477 Q-447 -422 -432.5 -364 Q-418 -306 -418 -228 L-418 -145 L-242 -145 L-242 -217 Q-242 -261 -250.5 -307 Q-259 -353 -274 -397.5 Q-289 -442 -309 -482 Q-329 -522 -351 -553 L-470 -477 Z " />
</g>
</glyph>
<glyph glyph-name="Lcaron" unicode="&#x13d;" horiz-adv-x="972" d="M94 676 L64 695 Q72 716 80 737 Q88 758 94 780 L94 1456 L354 1456 L354 211 L751 211 L751 0 L94 0 L94 676 Z " />
<glyph glyph-name="lcaron" unicode="&#x13e;" horiz-adv-x="651" d="M94 714 L84 699 L-35 775 Q-12 830 2.5 888 Q17 946 17 1024 L17 1107 L94 1107 L94 1536 L346 1536 L346 308 Q346 271 349 248 Q352 225 359 212 Q366 199 378 194.5 Q390 190 409 190 Q427 190 440.5 193 Q454 196 462 199 L459 4 Q430 -6 399 -13 Q368 -20 328 -20 Q274 -20 230.5 -3.5 Q187 13 156.5 50 Q126 87 110 146 Q94 205 94 289 L94 714 Z " />
<glyph glyph-name="Lslash" unicode="&#x141;" horiz-adv-x="1016" d="M139 646 L49 609 L49 760 L139 797 L139 1456 L399 1456 L399 904 L503 947 L503 796 L399 753 L399 211 L796 211 L796 0 L139 0 L139 646 Z " />
<glyph glyph-name="lslash" unicode="&#x142;" horiz-adv-x="607" d="M125 646 L48 610 L48 761 L125 797 L125 1536 L377 1536 L377 913 L453 948 L453 797 L377 762 L377 308 Q377 271 380 248 Q383 225 390 212 Q397 199 409 194.5 Q421 190 440 190 Q458 190 471.5 193 Q485 196 493 199 L490 4 Q461 -6 430 -13 Q399 -20 359 -20 Q305 -20 261.5 -3.5 Q218 13 187.5 50 Q157 87 141 146 Q125 205 125 289 L125 646 Z " />
<glyph glyph-name="Nacute" unicode="&#x143;" horiz-adv-x="1014" >
<path fill="black" d="M94 1456 L388 1456 L660 535 L660 1456 L918 1456 L918 0 L641 0 L354 882 L354 0 L94 0 L94 1456 Z " />
<g transform="translate(304,310)" >
<path fill="black" d="M246 1536 L521 1536 L295 1233 L86 1233 L246 1536 Z " />
</g>
</glyph>
<glyph glyph-name="nacute" unicode="&#x144;" horiz-adv-x="826" >
<path fill="black" d="M79 1082 L314 1082 L321 979 Q358 1039 407.5 1070.5 Q457 1102 518 1102 Q566 1102 607 1080.5 Q648 1059 678 1011 Q708 963 725 885.5 Q742 808 742 697 L742 0 L492 0 L492 698 Q492 806 470.5 851 Q449 896 408 896 Q382 896 362.5 877.5 Q343 859 329 826 L329 0 L79 0 L79 1082 Z " />
<g transform="translate(204,0)" >
<path fill="black" d="M246 1536 L521 1536 L295 1233 L86 1233 L246 1536 Z " />
</g>
</glyph>
<glyph glyph-name="uni0145" unicode="&#x145;" horiz-adv-x="1235" >
<path fill="black" d="M94 1456 L388 1456 L660 535 L660 1456 L918 1456 L918 0 L641 0 L354 882 L354 0 L94 0 L94 1456 Z " />
<g transform="translate(419,-370)" >
<path fill="black" d="M-470 -477 Q-447 -422 -432.5 -364 Q-418 -306 -418 -228 L-418 -145 L-242 -145 L-242 -217 Q-242 -261 -250.5 -307 Q-259 -353 -274 -397.5 Q-289 -442 -309 -482 Q-329 -522 -351 -553 L-470 -477 Z " />
</g>
</glyph>
<glyph glyph-name="uni0146" unicode="&#x146;" horiz-adv-x="1003" >
<path fill="black" d="M79 1082 L314 1082 L321 979 Q358 1039 407.5 1070.5 Q457 1102 518 1102 Q566 1102 607 1080.5 Q648 1059 678 1011 Q708 963 725 885.5 Q742 808 742 697 L742 0 L492 0 L492 698 Q492 806 470.5 851 Q449 896 408 896 Q382 896 362.5 877.5 Q343 859 329 826 L329 0 L79 0 L79 1082 Z " />
<g transform="translate(296,-360)" >
<path fill="black" d="M-470 -477 Q-447 -422 -432.5 -364 Q-418 -306 -418 -228 L-418 -145 L-242 -145 L-242 -217 Q-242 -261 -250.5 -307 Q-259 -353 -274 -397.5 Q-289 -442 -309 -482 Q-329 -522 -351 -553 L-470 -477 Z " />
</g>
</glyph>
<glyph glyph-name="Ncaron" unicode="&#x147;" horiz-adv-x="1014" >
<path fill="black" d="M94 1456 L388 1456 L660 535 L660 1456 L918 1456 L918 0 L641 0 L354 882 L354 0 L94 0 L94 1456 Z " />
<g transform="translate(146,310)" >
<path fill="black" d="M63 1527 L63 1537 L276 1537 L365 1385 L455 1537 L667 1537 L667 1526 L443 1248 L287 1248 L63 1527 Z " />
</g>
</glyph>
<glyph glyph-name="ncaron" unicode="&#x148;" horiz-adv-x="826" d="M79 1082 L314 1082 L321 979 Q358 1039 407.5 1070.5 Q457 1102 518 1102 Q566 1102 607 1080.5 Q648 1059 678 1011 Q708 963 725 885.5 Q742 808 742 697 L742 0 L492 0 L492 698 Q492 806 470.5 851 Q449 896 408 896 Q382 896 362.5 877.5 Q343 859 329 826 L329 0 L79 0 L79 1082 Z M333 1248 L109 1527 L109 1537 L322 1537 L411 1385 L501 1537 L713 1537 L713 1526 L489 1248 L333 1248 Z " />
<glyph glyph-name="Eng" unicode="&#x14a;" horiz-adv-x="1014" d="M533 -213 Q552 -219 565.5 -222 Q579 -225 601 -225 Q630 -225 645.5 -180 Q661 -135 661 -50 L661 0 L354 839 L354 0 L94 0 L94 1456 L354 1456 L661 618 L661 1456 L921 1456 L921 -50 Q921 -239 845.5 -338 Q770 -437 635 -437 Q605 -437 579.5 -433.5 Q554 -430 525 -420 L533 -213 Z " />
<glyph glyph-name="eng" unicode="&#x14b;" horiz-adv-x="829" d="M374 -216 Q391 -222 403.5 -225 Q416 -228 436 -228 Q496 -228 496 -55 L496 668 Q496 733 492 776.5 Q488 820 479 846.5 Q470 873 456.5 884.5 Q443 896 424 896 Q397 896 374 878 Q351 860 333 828 L333 0 L83 0 L83 1082 L317 1082 L327 942 Q362 1017 411 1059.5 Q460 1102 519 1102 Q569 1102 611 1078 Q653 1054 683 1002 Q713 950 730 868 Q747 786 747 670 L747 -55 Q747 -241 673 -339 Q599 -437 467 -437 Q441 -437 416.5 -433.5 Q392 -430 364 -420 L374 -216 Z " />
<glyph glyph-name="Omacron" unicode="&#x14c;" horiz-adv-x="1004" >
<path fill="black" d="M77 851 Q77 1007 107.5 1124 Q138 1241 194 1319 Q250 1397 328 1436.5 Q406 1476 501 1476 Q596 1476 674 1436.5 Q752 1397 808 1319 Q864 1241 895 1124 Q926 1007 926 851 L926 593 Q926 440 895 325 Q864 210 808.5 133.5 Q753 57 675 18.5 Q597 -20 503 -20 Q408 -20 329.5 18.5 Q251 57 195 133.5 Q139 210 108 325 Q77 440 77 593 L77 851 Z M666 853 Q666 962 655.5 1039.5 Q645 1117 624 1166 Q603 1215 572 1238 Q541 1261 501 1261 Q460 1261 429.5 1238 Q399 1215 378.5 1166 Q358 1117 347.5 1039.5 Q337 962 337 853 L337 593 Q337 487 347.5 411.5 Q358 336 379 288 Q400 240 431 217.5 Q462 195 503 195 Q543 195 573.5 217.5 Q604 240 624.5 288 Q645 336 655.5 411.5 Q666 487 666 593 L666 853 Z " />
<g transform="translate(111,312)" >
<path fill="black" d="M149 1293 L149 1451 L632 1451 L632 1293 L149 1293 Z " />
</g>
</glyph>
<glyph glyph-name="omacron" unicode="&#x14d;" horiz-adv-x="831" >
<path fill="black" d="M62 585 Q62 713 86.5 809.5 Q111 906 157 971 Q203 1036 268 1069 Q333 1102 414 1102 Q496 1102 561.5 1069 Q627 1036 673 971 Q719 906 744 809.5 Q769 713 769 585 L769 497 Q769 369 744 272.5 Q719 176 673.5 111 Q628 46 562.5 13 Q497 -20 416 -20 Q334 -20 268.5 13 Q203 46 157 111 Q111 176 86.5 272.5 Q62 369 62 497 L62 585 Z M518 585 Q518 747 491 823 Q464 899 414 899 Q368 899 340 822.5 Q312 746 312 585 L312 497 Q312 334 339.5 259 Q367 184 416 184 Q466 184 492 259 Q518 334 518 497 L518 585 Z " />
<g transform="translate(22,1)" >
<path fill="black" d="M149 1293 L149 1451 L632 1451 L632 1293 L149 1293 Z " />
</g>
</glyph>
<glyph glyph-name="Ohungarumlaut" unicode="&#x150;" horiz-adv-x="1004" d="M77 851 Q77 1007 107.5 1124 Q138 1241 194 1319 Q250 1397 328 1436.5 Q406 1476 501 1476 Q596 1476 674 1436.5 Q752 1397 808 1319 Q864 1241 895 1124 Q926 1007 926 851 L926 593 Q926 440 895 325 Q864 210 808.5 133.5 Q753 57 675 18.5 Q597 -20 503 -20 Q408 -20 329.5 18.5 Q251 57 195 133.5 Q139 210 108 325 Q77 440 77 593 L77 851 Z M666 853 Q666 962 655.5 1039.5 Q645 1117 624 1166 Q603 1215 572 1238 Q541 1261 501 1261 Q460 1261 429.5 1238 Q399 1215 378.5 1166 Q358 1117 347.5 1039.5 Q337 962 337 853 L337 593 Q337 487 347.5 411.5 Q358 336 379 288 Q400 240 431 217.5 Q462 195 503 195 Q543 195 573.5 217.5 Q604 240 624.5 288 Q645 336 655.5 411.5 Q666 487 666 593 L666 853 Z M677 1846 L888 1846 L714 1545 L537 1545 L677 1846 Z M388 1846 L599 1846 L445 1545 L270 1545 L388 1846 Z " />
<glyph glyph-name="ohungarumlaut" unicode="&#x151;" horiz-adv-x="831" d="M62 585 Q62 713 86.5 809.5 Q111 906 157 971 Q203 1036 268 1069 Q333 1102 414 1102 Q496 1102 561.5 1069 Q627 1036 673 971 Q719 906 744 809.5 Q769 713 769 585 L769 497 Q769 369 744 272.5 Q719 176 673.5 111 Q628 46 562.5 13 Q497 -20 416 -20 Q334 -20 268.5 13 Q203 46 157 111 Q111 176 86.5 272.5 Q62 369 62 497 L62 585 Z M518 585 Q518 747 491 823 Q464 899 414 899 Q368 899 340 822.5 Q312 746 312 585 L312 497 Q312 334 339.5 259 Q367 184 416 184 Q466 184 492 259 Q518 334 518 497 L518 585 Z M588 1535 L799 1535 L625 1234 L448 1234 L588 1535 Z M299 1535 L510 1535 L356 1234 L181 1234 L299 1535 Z " />
<glyph glyph-name="OE" unicode="&#x152;" horiz-adv-x="1712" d="M86 880 Q86 1012 116.5 1122 Q147 1232 203 1311 Q259 1390 337.5 1433.5 Q416 1477 511 1477 Q561 1477 608 1470.5 Q655 1464 698 1456 L1314 1456 L1314 1244 L899 1244 L899 854 L1249 854 L1249 647 L899 647 L899 211 L1315 211 L1315 0 L698 0 Q655 -8 608.5 -14.5 Q562 -21 514 -21 Q419 -21 340 22.5 Q261 66 204.5 145 Q148 224 117 334 Q86 444 86 576 L86 880 Z M639 1260 Q609 1266 577 1269.5 Q545 1273 511 1273 Q430 1273 383 1175 Q336 1077 336 882 L336 576 Q336 381 384 282.5 Q432 184 514 184 Q581 184 639 196 L639 1260 Z " />
<glyph glyph-name="oe" unicode="&#x153;" horiz-adv-x="1272" d="M77 551 Q77 669 99.5 770 Q122 871 166.5 944.5 Q211 1018 276.5 1060 Q342 1102 429 1102 Q500 1102 556 1074 Q612 1046 655 995 Q697 1046 751 1074 Q805 1102 873 1102 Q951 1102 1010 1067 Q1069 1032 1109.5 968 Q1150 904 1170.5 814 Q1191 724 1191 615 L1191 467 L788 467 Q790 408 798.5 356.5 Q807 305 823.5 266.5 Q840 228 865 206 Q890 184 925 184 Q959 184 985 190.5 Q1011 197 1033 209 Q1055 221 1075 237 Q1095 253 1117 272 L1180 108 Q1160 84 1130.5 61 Q1101 38 1064.5 20 Q1028 2 985 -9.5 Q942 -21 894 -21 Q821 -21 762.5 8 Q704 37 659 91 Q616 37 559 8 Q502 -21 430 -21 Q343 -21 277 21 Q211 63 166.5 137 Q122 211 99.5 311.5 Q77 412 77 530 L77 551 Z M329 530 Q329 459 333 396 Q337 333 348 286 Q359 239 378.5 211.5 Q398 184 430 184 Q461 184 480.5 211.5 Q500 239 510.5 286 Q521 333 525 396 Q529 459 529 530 L529 551 Q529 622 525.5 685 Q522 748 511 795.5 Q500 843 480.5 871 Q461 899 429 899 Q398 899 378.5 871 Q359 843 348 795.5 Q337 748 333 685 Q329 622 329 551 L329 530 Z M947 649 L947 674 Q947 721 943.5 762 Q940 803 931.5 833.5 Q923 864 909 881.5 Q895 899 873 899 Q851 899 835.5 880 Q820 861 810 827.5 Q800 794 795 748.5 Q790 703 788 649 L947 649 Z " />
<glyph glyph-name="Racute" unicode="&#x154;" horiz-adv-x="928" >
<path fill="black" d="M95 1456 L480 1456 Q568 1456 637.5 1427.5 Q707 1399 755 1343.5 Q803 1288 828.5 1206.5 Q854 1125 854 1018 Q854 869 810 771 Q766 673 688 619 L887 14 L887 0 L608 0 L432 558 L355 558 L355 0 L95 0 L95 1456 Z M355 766 L471 766 Q502 766 525 783.5 Q548 801 563.5 832.5 Q579 864 586.5 907.5 Q594 951 594 1003 Q594 1113 567 1178.5 Q540 1244 480 1244 L355 1244 L355 766 Z " />
<g transform="translate(214,310)" >
<path fill="black" d="M246 1536 L521 1536 L295 1233 L86 1233 L246 1536 Z " />
</g>
</glyph>
<glyph glyph-name="racute" unicode="&#x155;" horiz-adv-x="571" >
<path fill="black" d="M85 1082 L322 1082 L330 969 Q355 1032 389.5 1067 Q424 1102 468 1102 Q484 1102 502 1098 Q520 1094 531 1089 L529 832 Q514 836 490.5 838 Q467 840 452 840 Q407 840 379.5 817.5 Q352 795 337 750 L337 0 L85 0 L85 1082 Z " />
<g transform="translate(95,0)" >
<path fill="black" d="M246 1536 L521 1536 L295 1233 L86 1233 L246 1536 Z " />
</g>
</glyph>
<glyph glyph-name="uni0156" unicode="&#x156;" horiz-adv-x="1140" >
<path fill="black" d="M95 1456 L480 1456 Q568 1456 637.5 1427.5 Q707 1399 755 1343.5 Q803 1288 828.5 1206.5 Q854 1125 854 1018 Q854 869 810 771 Q766 673 688 619 L887 14 L887 0 L608 0 L432 558 L355 558 L355 0 L95 0 L95 1456 Z M355 766 L471 766 Q502 766 525 783.5 Q548 801 563.5 832.5 Q579 864 586.5 907.5 Q594 951 594 1003 Q594 1113 567 1178.5 Q540 1244 480 1244 L355 1244 L355 766 Z " />
<g transform="translate(327,-360)" >
<path fill="black" d="M-470 -477 Q-447 -422 -432.5 -364 Q-418 -306 -418 -228 L-418 -145 L-242 -145 L-242 -217 Q-242 -261 -250.5 -307 Q-259 -353 -274 -397.5 Q-289 -442 -309 -482 Q-329 -522 -351 -553 L-470 -477 Z " />
</g>
</glyph>
<glyph glyph-name="uni0157" unicode="&#x157;" horiz-adv-x="692" >
<path fill="black" d="M85 1082 L322 1082 L330 969 Q355 1032 389.5 1067 Q424 1102 468 1102 Q484 1102 502 1098 Q520 1094 531 1089 L529 832 Q514 836 490.5 838 Q467 840 452 840 Q407 840 379.5 817.5 Q352 795 337 750 L337 0 L85 0 L85 1082 Z " />
<g transform="translate(49,-360)" >
<path fill="black" d="M-470 -477 Q-447 -422 -432.5 -364 Q-418 -306 -418 -228 L-418 -145 L-242 -145 L-242 -217 Q-242 -261 -250.5 -307 Q-259 -353 -274 -397.5 Q-289 -442 -309 -482 Q-329 -522 -351 -553 L-470 -477 Z " />
</g>
</glyph>
<glyph glyph-name="Rcaron" unicode="&#x158;" horiz-adv-x="928" d="M95 1456 L480 1456 Q568 1456 637.5 1427.5 Q707 1399 755 1343.5 Q803 1288 828.5 1206.5 Q854 1125 854 1018 Q854 869 810 771 Q766 673 688 619 L887 14 L887 0 L608 0 L432 558 L355 558 L355 0 L95 0 L95 1456 Z M343 1558 L119 1837 L119 1847 L332 1847 L421 1695 L511 1847 L723 1847 L723 1836 L499 1558 L343 1558 Z M355 766 L471 766 Q502 766 525 783.5 Q548 801 563.5 832.5 Q579 864 586.5 907.5 Q594 951 594 1003 Q594 1113 567 1178.5 Q540 1244 480 1244 L355 1244 L355 766 Z " />
<glyph glyph-name="rcaron" unicode="&#x159;" horiz-adv-x="571" >
<path fill="black" d="M85 1082 L322 1082 L330 969 Q355 1032 389.5 1067 Q424 1102 468 1102 Q484 1102 502 1098 Q520 1094 531 1089 L529 832 Q514 836 490.5 838 Q467 840 452 840 Q407 840 379.5 817.5 Q352 795 337 750 L337 0 L85 0 L85 1082 Z " />
<g transform="translate(-63,0)" >
<path fill="black" d="M63 1527 L63 1537 L276 1537 L365 1385 L455 1537 L667 1537 L667 1526 L443 1248 L287 1248 L63 1527 Z " />
</g>
</glyph>
<glyph glyph-name="Sacute" unicode="&#x15a;" horiz-adv-x="909" >
<path fill="black" d="M328 446 Q328 309 362.5 249 Q397 189 476 189 Q505 189 524.5 203 Q544 217 555.5 241.5 Q567 266 571.5 301 Q576 336 576 378 Q576 421 571.5 453 Q567 485 551.5 512 Q536 539 506 564 Q476 589 425 618 Q362 650 302.5 691 Q243 732 197 786.5 Q151 841 123.5 911.5 Q96 982 96 1073 Q96 1162 120 1236.5 Q144 1311 191.5 1364 Q239 1417 309 1446.5 Q379 1476 471 1476 Q577 1476 645 1441.5 Q713 1407 752.5 1346.5 Q792 1286 807 1205 Q822 1124 822 1031 L579 1031 Q579 1082 573 1125.5 Q567 1169 553.5 1200.5 Q540 1232 518.5 1249.5 Q497 1267 466 1267 Q438 1267 417 1252 Q396 1237 382.5 1211 Q369 1185 362 1150 Q355 1115 355 1074 Q355 995 398 945 Q441 895 515 860 Q595 820 655 773 Q715 726 755.5 668 Q796 610 816.5 540 Q837 470 837 384 Q837 288 817 213 Q797 138 753.5 86.5 Q710 35 641.5 7.5 Q573 -20 476 -20 Q278 -20 181 95 Q84 210 84 446 L328 446 Z " />
<g transform="translate(259,311)" >
<path fill="black" d="M246 1536 L521 1536 L295 1233 L86 1233 L246 1536 Z " />
</g>
</glyph>
<glyph glyph-name="sacute" unicode="&#x15b;" horiz-adv-x="759" >
<path fill="black" d="M266 331 Q267 241 296 204 Q325 167 368 167 Q410 167 432.5 196.5 Q455 226 455 277 Q455 309 445.5 331.5 Q436 354 417.5 372.5 Q399 391 372.5 408 Q346 425 311 446 Q255 479 210.5 509.5 Q166 540 135.5 577.5 Q105 615 88.5 664 Q72 713 72 783 Q72 850 88 908 Q104 966 140 1009 Q176 1052 234.5 1077 Q293 1102 378 1102 Q462 1102 522.5 1077 Q583 1052 621.5 1008 Q660 964 678 902.5 Q696 841 696 768 L464 768 Q464 799 460.5 826 Q457 853 448 873 Q439 893 424 904.5 Q409 916 386 916 Q346 916 327.5 882.5 Q309 849 309 804 Q309 772 317.5 751 Q326 730 343.5 713.5 Q361 697 388 681 Q415 665 453 643 Q509 611 554 582 Q599 553 631 515.5 Q663 478 680.5 427 Q698 376 698 299 Q698 227 679.5 168 Q661 109 622 67 Q583 25 523.5 2.5 Q464 -20 382 -20 Q286 -20 222 10 Q158 40 119 89 Q80 138 63.5 201 Q47 264 47 331 L266 331 Z " />
<g transform="translate(168,0)" >
<path fill="black" d="M246 1536 L521 1536 L295 1233 L86 1233 L246 1536 Z " />
</g>
</glyph>
<glyph glyph-name="Scedilla" unicode="&#x15e;" horiz-adv-x="909" d="M395 -308 Q419 -308 430 -288 Q441 -268 441 -220 Q441 -175 422 -158.5 Q403 -142 356 -136 L375 -12 Q227 15 155.5 128 Q84 241 84 446 L328 446 Q328 309 362.5 249 Q397 189 476 189 Q505 189 524.5 203 Q544 217 555.5 241.5 Q567 266 571.5 301 Q576 336 576 378 Q576 421 571.5 453 Q567 485 551.5 512 Q536 539 506 564 Q476 589 425 618 Q362 650 302.5 691 Q243 732 197 786.5 Q151 841 123.5 911.5 Q96 982 96 1073 Q96 1162 120 1236.5 Q144 1311 191.5 1364 Q239 1417 309 1446.5 Q379 1476 471 1476 Q577 1476 645 1441.5 Q713 1407 752.5 1346.5 Q792 1286 807 1205 Q822 1124 822 1031 L579 1031 Q579 1082 573 1125.5 Q567 1169 553.5 1200.5 Q540 1232 518.5 1249.5 Q497 1267 466 1267 Q438 1267 417 1252 Q396 1237 382.5 1211 Q369 1185 362 1150 Q355 1115 355 1074 Q355 995 398 945 Q441 895 515 860 Q595 820 655 773 Q715 726 755.5 668 Q796 610 816.5 540 Q837 470 837 384 Q837 300 821.5 231.5 Q806 163 773 112.5 Q740 62 688 30 Q636 -2 562 -14 L557 -52 Q575 -57 591.5 -68.5 Q608 -80 621.5 -100 Q635 -120 643 -151 Q651 -182 651 -225 Q651 -276 635.5 -318 Q620 -360 588.5 -390 Q557 -420 509.5 -436.5 Q462 -453 399 -453 L395 -308 Z " />
<glyph glyph-name="scedilla" unicode="&#x15f;" horiz-adv-x="759" d="M302 -318 Q326 -318 337 -298 Q348 -278 348 -230 Q348 -185 329 -168.5 Q310 -152 263 -146 L284 -10 Q217 5 172 38.5 Q127 72 99 118 Q71 164 59 219 Q47 274 47 331 L266 331 Q267 241 296 204 Q325 167 368 167 Q410 167 432.5 196.5 Q455 226 455 277 Q455 309 445.5 331.5 Q436 354 417.5 372.5 Q399 391 372.5 408 Q346 425 311 446 Q255 479 210.5 509.5 Q166 540 135.5 577.5 Q105 615 88.5 664 Q72 713 72 783 Q72 850 88 908 Q104 966 140 1009 Q176 1052 234.5 1077 Q293 1102 378 1102 Q462 1102 522.5 1077 Q583 1052 621.5 1008 Q660 964 678 902.5 Q696 841 696 768 L464 768 Q464 799 460.5 826 Q457 853 448 873 Q439 893 424 904.5 Q409 916 386 916 Q346 916 327.5 882.5 Q309 849 309 804 Q309 772 317.5 751 Q326 730 343.5 713.5 Q361 697 388 681 Q415 665 453 643 Q509 611 554 582 Q599 553 631 515.5 Q663 478 680.5 427 Q698 376 698 299 Q698 176 643 93.5 Q588 11 471 -12 L464 -62 Q482 -67 498.5 -78.5 Q515 -90 528.5 -110 Q542 -130 550 -161 Q558 -192 558 -235 Q558 -286 542.5 -328 Q527 -370 495.5 -400 Q464 -430 416.5 -446.5 Q369 -463 306 -463 L302 -318 Z " />
<glyph glyph-name="Scaron" unicode="&#x160;" horiz-adv-x="909" >
<path fill="black" d="M328 446 Q328 309 362.5 249 Q397 189 476 189 Q505 189 524.5 203 Q544 217 555.5 241.5 Q567 266 571.5 301 Q576 336 576 378 Q576 421 571.5 453 Q567 485 551.5 512 Q536 539 506 564 Q476 589 425 618 Q362 650 302.5 691 Q243 732 197 786.5 Q151 841 123.5 911.5 Q96 982 96 1073 Q96 1162 120 1236.5 Q144 1311 191.5 1364 Q239 1417 309 1446.5 Q379 1476 471 1476 Q577 1476 645 1441.5 Q713 1407 752.5 1346.5 Q792 1286 807 1205 Q822 1124 822 1031 L579 1031 Q579 1082 573 1125.5 Q567 1169 553.5 1200.5 Q540 1232 518.5 1249.5 Q497 1267 466 1267 Q438 1267 417 1252 Q396 1237 382.5 1211 Q369 1185 362 1150 Q355 1115 355 1074 Q355 995 398 945 Q441 895 515 860 Q595 820 655 773 Q715 726 755.5 668 Q796 610 816.5 540 Q837 470 837 384 Q837 288 817 213 Q797 138 753.5 86.5 Q710 35 641.5 7.5 Q573 -20 476 -20 Q278 -20 181 95 Q84 210 84 446 L328 446 Z " />
<g transform="translate(101,311)" >
<path fill="black" d="M63 1527 L63 1537 L276 1537 L365 1385 L455 1537 L667 1537 L667 1526 L443 1248 L287 1248 L63 1527 Z " />
</g>
</glyph>
<glyph glyph-name="scaron" unicode="&#x161;" horiz-adv-x="759" >
<path fill="black" d="M266 331 Q267 241 296 204 Q325 167 368 167 Q410 167 432.5 196.5 Q455 226 455 277 Q455 309 445.5 331.5 Q436 354 417.5 372.5 Q399 391 372.5 408 Q346 425 311 446 Q255 479 210.5 509.5 Q166 540 135.5 577.5 Q105 615 88.5 664 Q72 713 72 783 Q72 850 88 908 Q104 966 140 1009 Q176 1052 234.5 1077 Q293 1102 378 1102 Q462 1102 522.5 1077 Q583 1052 621.5 1008 Q660 964 678 902.5 Q696 841 696 768 L464 768 Q464 799 460.5 826 Q457 853 448 873 Q439 893 424 904.5 Q409 916 386 916 Q346 916 327.5 882.5 Q309 849 309 804 Q309 772 317.5 751 Q326 730 343.5 713.5 Q361 697 388 681 Q415 665 453 643 Q509 611 554 582 Q599 553 631 515.5 Q663 478 680.5 427 Q698 376 698 299 Q698 227 679.5 168 Q661 109 622 67 Q583 25 523.5 2.5 Q464 -20 382 -20 Q286 -20 222 10 Q158 40 119 89 Q80 138 63.5 201 Q47 264 47 331 L266 331 Z " />
<g transform="translate(10,0)" >
<path fill="black" d="M63 1527 L63 1537 L276 1537 L365 1385 L455 1537 L667 1537 L667 1526 L443 1248 L287 1248 L63 1527 Z " />
</g>
</glyph>
<glyph glyph-name="uni0162" unicode="&#x162;" horiz-adv-x="911" d="M377 -303 Q401 -303 412 -283 Q423 -263 423 -215 Q423 -170 404 -153.5 Q385 -137 338 -131 L358 0 L322 0 L322 1244 L49 1244 L49 1456 L862 1456 L862 1244 L583 1244 L583 0 L546 0 L539 -47 Q557 -52 573.5 -63.5 Q590 -75 603.5 -95 Q617 -115 625 -146 Q633 -177 633 -220 Q633 -271 617.5 -313 Q602 -355 570.5 -385 Q539 -415 491.5 -431.5 Q444 -448 381 -448 L377 -303 Z " />
<glyph glyph-name="uni0163" unicode="&#x163;" horiz-adv-x="526" d="M242 -308 Q266 -308 277 -288 Q288 -268 288 -220 Q288 -175 269 -158.5 Q250 -142 203 -136 L225 5 L238 5 Q181 34 150.5 102.5 Q120 171 120 289 L120 896 L29 896 L29 1082 L120 1082 L120 1347 L371 1347 L371 1082 L481 1082 L481 896 L371 896 L371 308 Q371 271 374 248 Q377 225 384 212 Q391 199 403.5 194.5 Q416 190 434 190 Q453 190 466 193 Q479 196 488 199 L484 4 Q467 -2 448.5 -7 Q430 -12 409 -16 L404 -52 Q422 -57 438.5 -68.5 Q455 -80 468.5 -100 Q482 -120 490 -151 Q498 -182 498 -225 Q498 -276 482.5 -318 Q467 -360 435.5 -390 Q404 -420 356.5 -436.5 Q309 -453 246 -453 L242 -308 Z " />
<glyph glyph-name="Tcaron" unicode="&#x164;" horiz-adv-x="911" d="M322 1244 L49 1244 L49 1456 L862 1456 L862 1244 L583 1244 L583 0 L322 0 L322 1244 Z M374 1558 L150 1837 L150 1847 L363 1847 L452 1695 L542 1847 L754 1847 L754 1836 L530 1558 L374 1558 Z " />
<glyph glyph-name="tcaron" unicode="&#x165;" horiz-adv-x="665" >
<g transform="translate(-8,0)" >
<path fill="black" d="M120 896 L29 896 L29 1082 L120 1082 L120 1347 L371 1347 L371 1082 L481 1082 L481 896 L371 896 L371 308 Q371 271 374 248 Q377 225 384 212 Q391 199 403.5 194.5 Q416 190 434 190 Q453 190 466 193 Q479 196 488 199 L484 4 Q455 -6 424.5 -13 Q394 -20 353 -20 Q299 -20 256 -3.5 Q213 13 182.5 50 Q152 87 136 146 Q120 205 120 289 L120 896 Z " />
</g>
</glyph>
<glyph glyph-name="Tbar" unicode="&#x166;" horiz-adv-x="911" d="M322 776 L189 776 L189 949 L322 949 L322 1244 L49 1244 L49 1456 L862 1456 L862 1244 L583 1244 L583 949 L686 949 L686 776 L583 776 L583 0 L322 0 L322 776 Z " />
<glyph glyph-name="tbar" unicode="&#x167;" horiz-adv-x="526" d="M120 557 L-9 557 L-9 730 L120 730 L120 896 L29 896 L29 1082 L120 1082 L120 1347 L371 1347 L371 1082 L481 1082 L481 896 L371 896 L371 730 L488 730 L488 557 L371 557 L371 308 Q371 271 374 248 Q377 225 384 212 Q391 199 403.5 194.5 Q416 190 434 190 Q453 190 466 193 Q479 196 488 199 L484 4 Q455 -6 424.5 -13 Q394 -20 353 -20 Q299 -20 256 -3.5 Q213 13 182.5 50 Q152 87 136 146 Q120 205 120 289 L120 557 Z " />
<glyph glyph-name="Utilde" unicode="&#x168;" horiz-adv-x="954" >
<path fill="black" d="M88 1456 L350 1456 L350 444 Q350 368 358 318.5 Q366 269 381.5 241 Q397 213 421 202 Q445 191 477 191 Q510 191 533.5 202 Q557 213 572.5 241 Q588 269 595.5 318.5 Q603 368 603 444 L603 1456 L865 1456 L865 444 Q865 319 836.5 230.5 Q808 142 757 86.5 Q706 31 634.5 5.5 Q563 -20 477 -20 Q391 -20 319.5 5.5 Q248 31 196.5 86.5 Q145 142 116.5 230.5 Q88 319 88 444 L88 1456 Z " />
<g transform="translate(96,309)" >
<path fill="black" d="M109 1254 Q109 1309 121 1356.5 Q133 1404 154 1439.5 Q175 1475 204.5 1495 Q234 1515 269 1515 Q293 1515 315.5 1501 Q338 1487 360.5 1470.5 Q383 1454 405.5 1440 Q428 1426 452 1426 Q472 1426 486 1453.5 Q500 1481 500 1528 L637 1517 Q637 1462 625 1414.5 Q613 1367 591.5 1332.5 Q570 1298 540.5 1278.5 Q511 1259 476 1259 Q445 1259 422 1273 Q399 1287 379 1303.5 Q359 1320 339 1334 Q319 1348 294 1348 Q274 1348 260.5 1320.5 Q247 1293 247 1247 L109 1254 Z " />
</g>
</glyph>
<glyph glyph-name="utilde" unicode="&#x169;" horiz-adv-x="826" >
<path fill="black" d="M80 1082 L330 1082 L330 381 Q330 326 334.5 288.5 Q339 251 348 228.5 Q357 206 370 196.5 Q383 187 399 187 Q434 187 456.5 209 Q479 231 493 269 L493 1082 L745 1082 L745 0 L509 0 L503 97 Q470 41 424.5 10.5 Q379 -20 320 -20 Q267 -20 222.5 2.5 Q178 25 146.5 74 Q115 123 97.5 199 Q80 275 80 383 L80 1082 Z " />
<g transform="translate(34,-1)" >
<path fill="black" d="M109 1254 Q109 1309 121 1356.5 Q133 1404 154 1439.5 Q175 1475 204.5 1495 Q234 1515 269 1515 Q293 1515 315.5 1501 Q338 1487 360.5 1470.5 Q383 1454 405.5 1440 Q428 1426 452 1426 Q472 1426 486 1453.5 Q500 1481 500 1528 L637 1517 Q637 1462 625 1414.5 Q613 1367 591.5 1332.5 Q570 1298 540.5 1278.5 Q511 1259 476 1259 Q445 1259 422 1273 Q399 1287 379 1303.5 Q359 1320 339 1334 Q319 1348 294 1348 Q274 1348 260.5 1320.5 Q247 1293 247 1247 L109 1254 Z " />
</g>
</glyph>
<glyph glyph-name="Umacron" unicode="&#x16a;" horiz-adv-x="954" >
<path fill="black" d="M88 1456 L350 1456 L350 444 Q350 368 358 318.5 Q366 269 381.5 241 Q397 213 421 202 Q445 191 477 191 Q510 191 533.5 202 Q557 213 572.5 241 Q588 269 595.5 318.5 Q603 368 603 444 L603 1456 L865 1456 L865 444 Q865 319 836.5 230.5 Q808 142 757 86.5 Q706 31 634.5 5.5 Q563 -20 477 -20 Q391 -20 319.5 5.5 Q248 31 196.5 86.5 Q145 142 116.5 230.5 Q88 319 88 444 L88 1456 Z " />
<g transform="translate(79,311)" >
<path fill="black" d="M149 1293 L149 1451 L632 1451 L632 1293 L149 1293 Z " />
</g>
</glyph>
<glyph glyph-name="umacron" unicode="&#x16b;" horiz-adv-x="826" d="M80 1082 L330 1082 L330 381 Q330 326 334.5 288.5 Q339 251 348 228.5 Q357 206 370 196.5 Q383 187 399 187 Q434 187 456.5 209 Q479 231 493 269 L493 1082 L745 1082 L745 0 L509 0 L503 97 Q470 41 424.5 10.5 Q379 -20 320 -20 Q267 -20 222.5 2.5 Q178 25 146.5 74 Q115 123 97.5 199 Q80 275 80 383 L80 1082 Z M166 1452 L649 1452 L649 1294 L166 1294 L166 1452 Z " />
<glyph glyph-name="Uring" unicode="&#x16e;" horiz-adv-x="954" >
<path fill="black" d="M88 1456 L350 1456 L350 444 Q350 368 358 318.5 Q366 269 381.5 241 Q397 213 421 202 Q445 191 477 191 Q510 191 533.5 202 Q557 213 572.5 241 Q588 269 595.5 318.5 Q603 368 603 444 L603 1456 L865 1456 L865 444 Q865 319 836.5 230.5 Q808 142 757 86.5 Q706 31 634.5 5.5 Q563 -20 477 -20 Q391 -20 319.5 5.5 Q248 31 196.5 86.5 Q145 142 116.5 230.5 Q88 319 88 444 L88 1456 Z " />
<g transform="translate(184,373)" >
<path fill="black" d="M288 1155 Q248 1155 214.5 1170.5 Q181 1186 157 1213.5 Q133 1241 119.5 1278 Q106 1315 106 1358 Q106 1400 119.5 1437.5 Q133 1475 157 1503 Q181 1531 214.5 1547.5 Q248 1564 288 1564 Q328 1564 361 1547.5 Q394 1531 418 1503 Q442 1475 455.5 1437.5 Q469 1400 469 1358 Q469 1315 455.5 1278 Q442 1241 418 1213.5 Q394 1186 361 1170.5 Q328 1155 288 1155 Z M288 1246 Q327 1246 349 1279.5 Q371 1313 371 1358 Q371 1380 365.5 1400 Q360 1420 349 1435.5 Q338 1451 323 1460 Q308 1469 288 1469 Q269 1469 253 1460 Q237 1451 226.5 1435.5 Q216 1420 210 1400 Q204 1380 204 1358 Q204 1336 210 1315.5 Q216 1295 226.5 1279.5 Q237 1264 253 1255 Q269 1246 288 1246 Z " />
</g>
</glyph>
<glyph glyph-name="uring" unicode="&#x16f;" horiz-adv-x="826" d="M80 1082 L330 1082 L330 381 Q330 326 334.5 288.5 Q339 251 348 228.5 Q357 206 370 196.5 Q383 187 399 187 Q434 187 456.5 209 Q479 231 493 269 L493 1082 L745 1082 L745 0 L509 0 L503 97 Q470 41 424.5 10.5 Q379 -20 320 -20 Q267 -20 222.5 2.5 Q178 25 146.5 74 Q115 123 97.5 199 Q80 275 80 383 L80 1082 Z M410 1218 Q370 1218 336.5 1233.5 Q303 1249 279 1276.5 Q255 1304 241.5 1341 Q228 1378 228 1421 Q228 1463 241.5 1500.5 Q255 1538 279 1566 Q303 1594 336.5 1610.5 Q370 1627 410 1627 Q450 1627 483 1610.5 Q516 1594 540 1566 Q564 1538 577.5 1500.5 Q591 1463 591 1421 Q591 1378 577.5 1341 Q564 1304 540 1276.5 Q516 1249 483 1233.5 Q450 1218 410 1218 Z M410 1309 Q449 1309 471 1342.5 Q493 1376 493 1421 Q493 1443 487.5 1463 Q482 1483 471 1498.5 Q460 1514 445 1523 Q430 1532 410 1532 Q391 1532 375 1523 Q359 1514 348.5 1498.5 Q338 1483 332 1463 Q326 1443 326 1421 Q326 1399 332 1378.5 Q338 1358 348.5 1342.5 Q359 1327 375 1318 Q391 1309 410 1309 Z " />
<glyph glyph-name="Uhungarumlaut" unicode="&#x170;" horiz-adv-x="954" d="M88 1456 L350 1456 L350 444 Q350 368 358 318.5 Q366 269 381.5 241 Q397 213 421 202 Q445 191 477 191 Q510 191 533.5 202 Q557 213 572.5 241 Q588 269 595.5 318.5 Q603 368 603 444 L603 1456 L865 1456 L865 444 Q865 319 836.5 230.5 Q808 142 757 86.5 Q706 31 634.5 5.5 Q563 -20 477 -20 Q391 -20 319.5 5.5 Q248 31 196.5 86.5 Q145 142 116.5 230.5 Q88 319 88 444 L88 1456 Z M645 1845 L856 1845 L682 1544 L505 1544 L645 1845 Z M356 1845 L567 1845 L413 1544 L238 1544 L356 1845 Z " />
<glyph glyph-name="uhungarumlaut" unicode="&#x171;" horiz-adv-x="826" d="M80 1082 L330 1082 L330 381 Q330 326 334.5 288.5 Q339 251 348 228.5 Q357 206 370 196.5 Q383 187 399 187 Q434 187 456.5 209 Q479 231 493 269 L493 1082 L745 1082 L745 0 L509 0 L503 97 Q470 41 424.5 10.5 Q379 -20 320 -20 Q267 -20 222.5 2.5 Q178 25 146.5 74 Q115 123 97.5 199 Q80 275 80 383 L80 1082 Z M443 1234 L583 1535 L794 1535 L620 1234 L443 1234 Z M294 1535 L505 1535 L351 1234 L176 1234 L294 1535 Z " />
<glyph glyph-name="Uogonek" unicode="&#x172;" horiz-adv-x="954" d="M739 -324 Q721 -339 692.5 -353.5 Q664 -368 622 -368 Q587 -368 556 -355 Q525 -342 501.5 -316.5 Q478 -291 464.5 -253 Q451 -215 451 -165 Q451 -128 456 -91.5 Q461 -55 475 -20 Q389 -20 318 6 Q247 32 196 87.5 Q145 143 116.5 231 Q88 319 88 444 L88 1456 L350 1456 L350 444 Q350 368 358 318.5 Q366 269 381.5 241 Q397 213 421 202 Q445 191 477 191 Q510 191 533.5 202 Q557 213 572.5 241 Q588 269 595.5 318.5 Q603 368 603 444 L603 1456 L865 1456 L865 444 Q865 294 825.5 198 Q786 102 715 49 Q669 7 650.5 -36.5 Q632 -80 632 -135 Q632 -164 641 -182.5 Q650 -201 670 -201 Q687 -201 696.5 -193 Q706 -185 715 -179 L739 -324 Z " />
<glyph glyph-name="uogonek" unicode="&#x173;" horiz-adv-x="826" d="M503 97 Q470 41 424.5 10.5 Q379 -20 320 -20 Q267 -20 222.5 2.5 Q178 25 146.5 74 Q115 123 97.5 199 Q80 275 80 383 L80 1082 L330 1082 L330 381 Q330 326 334.5 288.5 Q339 251 348 228.5 Q357 206 370 196.5 Q383 187 399 187 Q434 187 456.5 209 Q479 231 493 269 L493 1082 L745 1082 L745 0 L714 0 Q660 -45 639 -90.5 Q618 -136 618 -195 Q618 -224 627 -242.5 Q636 -261 656 -261 Q673 -261 682.5 -253 Q692 -245 701 -239 L725 -384 Q707 -399 678.5 -413.5 Q650 -428 608 -428 Q573 -428 542 -415 Q511 -402 487.5 -376.5 Q464 -351 450.5 -313 Q437 -275 437 -225 Q437 -165 451 -108 Q465 -51 513 0 L509 0 L503 97 Z " />
<glyph glyph-name="Wcircumflex" unicode="&#x174;" horiz-adv-x="1234" >
<path fill="black" d="M40 1456 L298 1456 L392 579 L503 1456 L728 1456 L844 566 L935 1456 L1192 1456 L994 0 L725 0 L615 794 L509 0 L239 0 L40 1456 Z " />
<g transform="translate(235,310)" >
<path fill="black" d="M96 1262 L313 1537 L455 1537 L677 1260 L677 1248 L483 1248 L385 1402 L285 1248 L96 1248 L96 1262 Z " />
</g>
</glyph>
<glyph glyph-name="wcircumflex" unicode="&#x175;" horiz-adv-x="1043" >
<path fill="black" d="M33 1082 L272 1082 L330 380 L433 1082 L609 1082 L711 373 L770 1082 L1008 1082 L837 0 L630 0 L522 664 L413 0 L204 0 L33 1082 Z " />
<g transform="translate(136,0)" >
<path fill="black" d="M96 1262 L313 1537 L455 1537 L677 1260 L677 1248 L483 1248 L385 1402 L285 1248 L96 1248 L96 1262 Z " />
</g>
</glyph>
<glyph glyph-name="Ycircumflex" unicode="&#x176;" horiz-adv-x="911" >
<path fill="black" d="M324 534 L20 1456 L302 1456 L457 769 L609 1456 L892 1456 L588 534 L588 0 L324 0 L324 534 Z " />
<g transform="translate(73,310)" >
<path fill="black" d="M96 1262 L313 1537 L455 1537 L677 1260 L677 1248 L483 1248 L385 1402 L285 1248 L96 1248 L96 1262 Z " />
</g>
</glyph>
<glyph glyph-name="ycircumflex" unicode="&#x177;" horiz-adv-x="760" >
<path fill="black" d="M115 -225 Q122 -226 127 -226.5 Q132 -227 140 -227 Q193 -227 222.5 -182 Q252 -137 260 -30 L266 -21 L19 1082 L288 1082 L378 328 L470 1082 L740 1082 L459 -164 Q449 -205 432.5 -252.5 Q416 -300 387.5 -341 Q359 -382 317 -409.5 Q275 -437 213 -437 Q196 -437 184 -435.5 Q172 -434 161.5 -431.5 Q151 -429 140.5 -426 Q130 -423 115 -419 L115 -225 Z " />
<g transform="translate(-8,0)" >
<path fill="black" d="M96 1262 L313 1537 L455 1537 L677 1260 L677 1248 L483 1248 L385 1402 L285 1248 L96 1248 L96 1262 Z " />
</g>
</glyph>
<glyph glyph-name="Ydieresis" unicode="&#x178;" horiz-adv-x="911" >
<g transform="translate(55,310)" >
<path fill="black" d="M480 1367 Q480 1392 489 1414 Q498 1436 514 1452 Q530 1468 552 1477 Q574 1486 600 1486 Q625 1486 646.5 1477 Q668 1468 684 1452 Q700 1436 709 1414 Q718 1392 718 1367 Q718 1342 709 1320 Q700 1298 684 1282 Q668 1266 646.5 1257 Q625 1248 600 1248 Q574 1248 552 1257 Q530 1266 514 1282 Q498 1298 489 1320 Q480 1342 480 1367 Z M75 1368 Q75 1393 84 1415 Q93 1437 109 1453 Q125 1469 147 1478 Q169 1487 195 1487 Q220 1487 241.5 1478 Q263 1469 279 1453 Q295 1437 304 1415 Q313 1393 313 1368 Q313 1343 304 1321 Q295 1299 279 1283 Q263 1267 241.5 1258 Q220 1249 195 1249 Q169 1249 147 1258 Q125 1267 109 1283 Q93 1299 84 1321 Q75 1343 75 1368 Z " />
</g>
<path fill="black" d="M324 534 L20 1456 L302 1456 L457 769 L609 1456 L892 1456 L588 534 L588 0 L324 0 L324 534 Z " />
</glyph>
<glyph glyph-name="Zacute" unicode="&#x179;" horiz-adv-x="888" >
<path fill="black" d="M70 165 L554 1244 L62 1244 L62 1456 L826 1456 L826 1296 L348 211 L831 211 L831 0 L70 0 L70 165 Z " />
<g transform="translate(245,310)" >
<path fill="black" d="M246 1536 L521 1536 L295 1233 L86 1233 L246 1536 Z " />
</g>
</glyph>
<glyph glyph-name="zacute" unicode="&#x17a;" horiz-adv-x="765" >
<path fill="black" d="M72 163 L418 879 L80 879 L80 1082 L686 1082 L686 926 L339 204 L687 204 L687 0 L72 0 L72 163 Z " />
<g transform="translate(171,0)" >
<path fill="black" d="M246 1536 L521 1536 L295 1233 L86 1233 L246 1536 Z " />
</g>
</glyph>
<glyph glyph-name="Zdotaccent" unicode="&#x17b;" horiz-adv-x="888" >
<path fill="black" d="M70 165 L554 1244 L62 1244 L62 1456 L826 1456 L826 1296 L348 211 L831 211 L831 0 L70 0 L70 165 Z " />
<g transform="translate(223,320)" >
<path fill="black" d="M98 1372 Q98 1427 133 1463 Q168 1499 227 1499 Q284 1499 319.5 1463 Q355 1427 355 1372 Q355 1318 319.5 1282.5 Q284 1247 227 1247 Q168 1247 133 1282.5 Q98 1318 98 1372 Z " />
</g>
</glyph>
<glyph glyph-name="zdotaccent" unicode="&#x17c;" horiz-adv-x="765" >
<path fill="black" d="M72 163 L418 879 L80 879 L80 1082 L686 1082 L686 926 L339 204 L687 204 L687 0 L72 0 L72 163 Z " />
<g transform="translate(149,10)" >
<path fill="black" d="M98 1372 Q98 1427 133 1463 Q168 1499 227 1499 Q284 1499 319.5 1463 Q355 1427 355 1372 Q355 1318 319.5 1282.5 Q284 1247 227 1247 Q168 1247 133 1282.5 Q98 1318 98 1372 Z " />
</g>
</glyph>
<glyph glyph-name="Zcaron" unicode="&#x17d;" horiz-adv-x="888" d="M70 165 L554 1244 L62 1244 L62 1456 L826 1456 L826 1296 L348 211 L831 211 L831 0 L70 0 L70 165 Z M374 1558 L150 1837 L150 1847 L363 1847 L452 1695 L542 1847 L754 1847 L754 1836 L530 1558 L374 1558 Z " />
<glyph glyph-name="zcaron" unicode="&#x17e;" horiz-adv-x="765" d="M72 163 L418 879 L80 879 L80 1082 L686 1082 L686 926 L339 204 L687 204 L687 0 L72 0 L72 163 Z M300 1248 L76 1527 L76 1537 L289 1537 L378 1385 L468 1537 L680 1537 L680 1526 L456 1248 L300 1248 Z " />
<glyph glyph-name="florin" unicode="&#x192;" horiz-adv-x="567" d="M21 -222 Q31 -227 49.5 -230.5 Q68 -234 79 -234 Q114 -234 123 -190 Q132 -146 132 -64 L132 896 L31 896 L31 1082 L132 1082 L132 1184 Q132 1367 209 1462 Q286 1557 428 1557 Q457 1557 485 1551 Q513 1545 542 1536 L522 1340 Q509 1345 494.5 1347.5 Q480 1350 460 1350 Q422 1350 402 1307.5 Q382 1265 382 1184 L382 1082 L509 1082 L509 896 L384 896 L382 -64 Q382 -246 312 -341.5 Q242 -437 117 -437 Q88 -437 63.5 -433.5 Q39 -430 10 -420 L21 -222 Z " />
<glyph glyph-name="Ohorn" unicode="&#x1a0;" horiz-adv-x="1243" d="M81 851 Q81 1007 111.5 1124 Q142 1241 198 1319 Q254 1397 332 1436.5 Q410 1476 505 1476 Q599 1476 676.5 1437.5 Q754 1399 811 1321 Q838 1350 848 1415.5 Q858 1481 858 1576 L1017 1576 Q1017 1427 984 1327 Q951 1227 882 1182 Q905 1114 917.5 1032 Q930 950 930 851 L930 593 Q930 440 899 325 Q868 210 812.5 133.5 Q757 57 679 18.5 Q601 -20 507 -20 Q412 -20 333.5 18.5 Q255 57 199 133.5 Q143 210 112 325 Q81 440 81 593 L81 851 Z M341 593 Q341 487 351.5 411.5 Q362 336 383 288 Q404 240 435 217.5 Q466 195 507 195 Q547 195 577.5 217.5 Q608 240 628.5 288 Q649 336 659.5 411.5 Q670 487 670 593 L670 853 Q670 962 659.5 1039.5 Q649 1117 628 1166 Q607 1215 576 1238 Q545 1261 505 1261 Q464 1261 433.5 1238 Q403 1215 382.5 1166 Q362 1117 351.5 1039.5 Q341 962 341 853 L341 593 Z " />
<glyph glyph-name="ohorn" unicode="&#x1a1;" horiz-adv-x="1046" d="M70 585 Q70 713 94.5 809.5 Q119 906 165 971 Q211 1036 276 1069 Q341 1102 422 1102 Q575 1102 667 990 Q684 1023 691 1073.5 Q698 1124 698 1190 L838 1190 Q838 1077 813 995.5 Q788 914 734 868 Q755 811 766 740.5 Q777 670 777 585 L777 497 Q777 369 752 272.5 Q727 176 681.5 111 Q636 46 570.5 13 Q505 -20 424 -20 Q342 -20 276.5 13 Q211 46 165 111 Q119 176 94.5 272.5 Q70 369 70 497 L70 585 Z M320 497 Q320 334 347.5 259 Q375 184 424 184 Q474 184 500 259 Q526 334 526 497 L526 585 Q526 747 499 823 Q472 899 422 899 Q376 899 348 822.5 Q320 746 320 585 L320 497 Z " />
<glyph glyph-name="Uhorn" unicode="&#x1af;" horiz-adv-x="1279" d="M97 1456 L359 1456 L359 444 Q359 368 367 318.5 Q375 269 390.5 241 Q406 213 430 202 Q454 191 486 191 Q519 191 542.5 202 Q566 213 581.5 241 Q597 269 604.5 318.5 Q612 368 612 444 L612 1456 L874 1456 L874 1236 Q914 1244 936.5 1267 Q959 1290 970 1328.5 Q981 1367 983.5 1419 Q986 1471 986 1537 L1141 1537 Q1141 1434 1128.5 1352.5 Q1116 1271 1085.5 1214 Q1055 1157 1003.5 1124 Q952 1091 874 1085 L874 444 Q874 319 845.5 230.5 Q817 142 766 86.5 Q715 31 643.5 5.5 Q572 -20 486 -20 Q400 -20 328.5 5.5 Q257 31 205.5 86.5 Q154 142 125.5 230.5 Q97 319 97 444 L97 1456 Z " />
<glyph glyph-name="uhorn" unicode="&#x1b0;" horiz-adv-x="1086" d="M89 1082 L339 1082 L339 381 Q339 326 343.5 288.5 Q348 251 357 228.5 Q366 206 379 196.5 Q392 187 408 187 Q443 187 465.5 209 Q488 231 502 269 L502 1082 L754 1082 L754 964 Q790 989 799.5 1040.5 Q809 1092 809 1174 L948 1174 Q948 1099 938 1039.5 Q928 980 905.5 936 Q883 892 845.5 863.5 Q808 835 754 823 L754 0 L518 0 L512 97 Q479 41 433.5 10.5 Q388 -20 329 -20 Q276 -20 231.5 2.5 Q187 25 155.5 74 Q124 123 106.5 199 Q89 275 89 383 L89 1082 Z " />
<glyph glyph-name="uni0218" unicode="&#x218;" horiz-adv-x="1110" >
<path fill="black" d="M328 446 Q328 309 362.5 249 Q397 189 476 189 Q505 189 524.5 203 Q544 217 555.5 241.5 Q567 266 571.5 301 Q576 336 576 378 Q576 421 571.5 453 Q567 485 551.5 512 Q536 539 506 564 Q476 589 425 618 Q362 650 302.5 691 Q243 732 197 786.5 Q151 841 123.5 911.5 Q96 982 96 1073 Q96 1162 120 1236.5 Q144 1311 191.5 1364 Q239 1417 309 1446.5 Q379 1476 471 1476 Q577 1476 645 1441.5 Q713 1407 752.5 1346.5 Q792 1286 807 1205 Q822 1124 822 1031 L579 1031 Q579 1082 573 1125.5 Q567 1169 553.5 1200.5 Q540 1232 518.5 1249.5 Q497 1267 466 1267 Q438 1267 417 1252 Q396 1237 382.5 1211 Q369 1185 362 1150 Q355 1115 355 1074 Q355 995 398 945 Q441 895 515 860 Q595 820 655 773 Q715 726 755.5 668 Q796 610 816.5 540 Q837 470 837 384 Q837 288 817 213 Q797 138 753.5 86.5 Q710 35 641.5 7.5 Q573 -20 476 -20 Q278 -20 181 95 Q84 210 84 446 L328 446 Z " />
<g transform="translate(368,-370)" >
<path fill="black" d="M-470 -477 Q-447 -422 -432.5 -364 Q-418 -306 -418 -228 L-418 -145 L-242 -145 L-242 -217 Q-242 -261 -250.5 -307 Q-259 -353 -274 -397.5 Q-289 -442 -309 -482 Q-329 -522 -351 -553 L-470 -477 Z " />
</g>
</glyph>
<glyph glyph-name="uni0219" unicode="&#x219;" horiz-adv-x="919" >
<path fill="black" d="M266 331 Q267 241 296 204 Q325 167 368 167 Q410 167 432.5 196.5 Q455 226 455 277 Q455 309 445.5 331.5 Q436 354 417.5 372.5 Q399 391 372.5 408 Q346 425 311 446 Q255 479 210.5 509.5 Q166 540 135.5 577.5 Q105 615 88.5 664 Q72 713 72 783 Q72 850 88 908 Q104 966 140 1009 Q176 1052 234.5 1077 Q293 1102 378 1102 Q462 1102 522.5 1077 Q583 1052 621.5 1008 Q660 964 678 902.5 Q696 841 696 768 L464 768 Q464 799 460.5 826 Q457 853 448 873 Q439 893 424 904.5 Q409 916 386 916 Q346 916 327.5 882.5 Q309 849 309 804 Q309 772 317.5 751 Q326 730 343.5 713.5 Q361 697 388 681 Q415 665 453 643 Q509 611 554 582 Q599 553 631 515.5 Q663 478 680.5 427 Q698 376 698 299 Q698 227 679.5 168 Q661 109 622 67 Q583 25 523.5 2.5 Q464 -20 382 -20 Q286 -20 222 10 Q158 40 119 89 Q80 138 63.5 201 Q47 264 47 331 L266 331 Z " />
<g transform="translate(245,-380)" >
<path fill="black" d="M-470 -477 Q-447 -422 -432.5 -364 Q-418 -306 -418 -228 L-418 -145 L-242 -145 L-242 -217 Q-242 -261 -250.5 -307 Q-259 -353 -274 -397.5 Q-289 -442 -309 -482 Q-329 -522 -351 -553 L-470 -477 Z " />
</g>
</glyph>
<glyph glyph-name="uni021A" unicode="&#x21a;" horiz-adv-x="1116" >
<path fill="black" d="M322 1244 L49 1244 L49 1456 L862 1456 L862 1244 L583 1244 L583 0 L322 0 L322 1244 Z " />
<g transform="translate(346,-360)" >
<path fill="black" d="M-470 -477 Q-447 -422 -432.5 -364 Q-418 -306 -418 -228 L-418 -145 L-242 -145 L-242 -217 Q-242 -261 -250.5 -307 Q-259 -353 -274 -397.5 Q-289 -442 -309 -482 Q-329 -522 -351 -553 L-470 -477 Z " />
</g>
</glyph>
<glyph glyph-name="uni021B" unicode="&#x21b;" horiz-adv-x="631" >
<path fill="black" d="M120 896 L29 896 L29 1082 L120 1082 L120 1347 L371 1347 L371 1082 L481 1082 L481 896 L371 896 L371 308 Q371 271 374 248 Q377 225 384 212 Q391 199 403.5 194.5 Q416 190 434 190 Q453 190 466 193 Q479 196 488 199 L484 4 Q455 -6 424.5 -13 Q394 -20 353 -20 Q299 -20 256 -3.5 Q213 13 182.5 50 Q152 87 136 146 Q120 205 120 289 L120 896 Z " />
<g transform="translate(172,-370)" >
<path fill="black" d="M-470 -477 Q-447 -422 -432.5 -364 Q-418 -306 -418 -228 L-418 -145 L-242 -145 L-242 -217 Q-242 -261 -250.5 -307 Q-259 -353 -274 -397.5 Q-289 -442 -309 -482 Q-329 -522 -351 -553 L-470 -477 Z " />
</g>
</glyph>
<glyph glyph-name="uni0298" unicode="&#x298;" horiz-adv-x="1223" d="M86 851 Q86 1007 116.5 1124 Q147 1241 203 1319 Q259 1397 337 1436.5 Q415 1476 510 1476 Q605 1476 683 1436.5 Q761 1397 817 1319 Q873 1241 904 1124 Q935 1007 935 851 L935 593 Q935 440 904 325 Q873 210 817.5 133.5 Q762 57 684 18.5 Q606 -20 512 -20 Q417 -20 338.5 18.5 Q260 57 204 133.5 Q148 210 117 325 Q86 440 86 593 L86 851 Z M675 853 Q675 962 664.5 1039.5 Q654 1117 633 1166 Q612 1215 581 1238 Q550 1261 510 1261 Q469 1261 438.5 1238 Q408 1215 387.5 1166 Q367 1117 356.5 1039.5 Q346 962 346 853 L346 593 Q346 487 356.5 411.5 Q367 336 388 288 Q409 240 440 217.5 Q471 195 512 195 Q552 195 582.5 217.5 Q613 240 633.5 288 Q654 336 664.5 411.5 Q675 487 675 593 L675 853 Z M500 594 Q469 594 444 604.5 Q419 615 401 633.5 Q383 652 373.5 677.5 Q364 703 364 732 Q364 762 373.5 787 Q383 812 401 831 Q419 850 444 860.5 Q469 871 500 871 Q530 871 555 860.5 Q580 850 598 831 Q616 812 625.5 787 Q635 762 635 732 Q635 703 625.5 677.5 Q616 652 598 633.5 Q580 615 555 604.5 Q530 594 500 594 Z " />
<glyph glyph-name="uni02AA" unicode="&#x2aa;" horiz-adv-x="1298" d="M103 1536 L355 1536 L355 308 L355 285 Q399 252 441.5 230 Q484 208 522 195 Q560 182 593 176.5 Q626 171 650 171 Q683 171 704.5 179.5 Q726 188 738 204.5 Q750 221 755 244 Q760 267 760 296 Q760 353 731.5 387.5 Q703 422 634 448 Q581 468 534 495.5 Q487 523 451.5 562 Q416 601 395.5 652.5 Q375 704 375 773 Q375 839 395.5 899 Q416 959 455 1004 Q494 1049 550.5 1075.5 Q607 1102 679 1102 Q753 1102 812.5 1075.5 Q872 1049 913.5 1003 Q955 957 977.5 894 Q1000 831 1000 757 L750 757 Q750 789 746.5 818 Q743 847 734.5 869 Q726 891 713 903.5 Q700 916 680 916 Q667 916 655 905.5 Q643 895 634 877 Q625 859 619.5 835 Q614 811 614 784 Q614 725 648.5 693.5 Q683 662 735 645 Q800 623 849.5 594 Q899 565 933 525 Q967 485 984.5 431.5 Q1002 378 1002 308 Q1002 236 978.5 176 Q955 116 910.5 72.5 Q866 29 800.5 4.5 Q735 -20 651 -20 Q606 -20 561 -13 Q516 -6 468 11 L468 4 Q439 -6 408 -13 Q377 -20 337 -20 Q283 -20 239.5 -3.5 Q196 13 165.5 50 Q135 87 119 146 Q103 205 103 289 L103 1536 Z " />
<glyph glyph-name="uni02AD" unicode="&#x2ad;" horiz-adv-x="740" d="M87 583 L654 583 L654 0 L475 0 L475 433 L266 433 L266 0 L87 0 L87 583 Z M87 1456 L654 1456 L654 873 L475 873 L475 1306 L266 1306 L266 873 L87 873 L87 1456 Z " />
<glyph glyph-name="uni02AF" unicode="&#x2af;" horiz-adv-x="1057" d="M607 84 Q574 34 531.5 7 Q489 -20 436 -20 Q383 -20 338.5 6.5 Q294 33 261.5 90 Q229 147 211 236 Q193 325 193 451 L193 776 Q193 819 182 848 Q171 877 154.5 894 Q138 911 119 918.5 Q100 926 85 926 Q73 926 62.5 924 Q52 922 38 919 L39 1089 Q63 1095 90 1098.5 Q117 1102 155 1102 Q199 1102 249.5 1086.5 Q300 1071 343 1033.5 Q386 996 415 933.5 Q444 871 444 776 L444 449 Q444 370 450 319 Q456 268 467 239 Q478 210 493.5 198.5 Q509 187 529 187 Q557 187 576 202.5 Q595 218 607 246 L607 1082 L857 1082 L857 -110 Q857 -153 868.5 -182 Q880 -211 896.5 -228 Q913 -245 931.5 -252.5 Q950 -260 965 -260 Q976 -260 987.5 -258 Q999 -256 1013 -253 L1011 -423 Q987 -430 959.5 -433.5 Q932 -437 894 -437 Q851 -437 801 -421.5 Q751 -406 708 -368 Q665 -330 636 -267.5 Q607 -205 607 -110 L607 84 Z " />
<glyph glyph-name="uni02B5" unicode="&#x2b5;" horiz-adv-x="533" d="M193 730 Q173 688 146 664.5 Q119 641 87 641 Q75 641 65.5 643 Q56 645 53 648 L53 855 Q67 846 84.5 840.5 Q102 835 122 835 Q170 835 193 896 L193 1454 L369 1454 L369 607 Q369 564 386.5 543.5 Q404 523 443 523 Q453 523 462 525.5 Q471 528 480 531 L480 351 Q451 343 425 339 Q399 335 374 335 Q334 335 300.5 349.5 Q267 364 243 395 Q219 426 206 474 Q193 522 193 589 L193 730 Z " />
<glyph glyph-name="uni02B9" unicode="&#x2b9;" horiz-adv-x="429" d="M125 1562 L357 1562 L196 1211 L73 1211 L125 1562 Z " />
<glyph glyph-name="uni02BA" unicode="&#x2ba;" horiz-adv-x="728" >
<g transform="translate(9,0)" >
<path fill="black" d="M125 1562 L357 1562 L196 1211 L73 1211 L125 1562 Z " />
</g>
<g transform="translate(371,0)" >
<path fill="black" d="M125 1562 L357 1562 L196 1211 L73 1211 L125 1562 Z " />
</g>
</glyph>
<glyph glyph-name="uni02BB" unicode="&#x2bb;" horiz-adv-x="415" d="M80 1190 Q80 1241 91.5 1295 Q103 1349 121.5 1400.5 Q140 1452 164.5 1498 Q189 1544 215 1579 L334 1502 Q313 1436 299 1361.5 Q285 1287 285 1192 L285 999 L80 999 L80 1190 Z " />
<glyph glyph-name="uni02BC" unicode="&#x2bc;" horiz-adv-x="402" d="M74 1100 Q95 1162 113 1232 Q131 1302 131 1390 L131 1536 L322 1536 L322 1391 Q322 1343 311 1292 Q300 1241 281 1192.5 Q262 1144 237.5 1100 Q213 1056 186 1023 L74 1100 Z " />
<glyph glyph-name="uni02BD" unicode="&#x2bd;" horiz-adv-x="415" d="M215 999 Q189 1034 164.5 1080 Q140 1126 121.5 1177.5 Q103 1229 91.5 1283 Q80 1337 80 1387 L80 1579 L285 1579 L285 1386 Q285 1290 299 1216 Q313 1142 334 1076 L215 999 Z " />
<glyph glyph-name="uni02BE" unicode="&#x2be;" horiz-adv-x="303" d="M75 1220 Q104 1220 121.5 1248.5 Q139 1277 139 1321 Q139 1366 121.5 1394.5 Q104 1423 75 1423 L75 1517 Q108 1517 136 1502 Q164 1487 185 1461 Q206 1435 217.5 1399 Q229 1363 229 1321 Q229 1279 217.5 1243.5 Q206 1208 185 1182.5 Q164 1157 136 1143 Q108 1129 75 1129 L75 1220 Z " />
<glyph glyph-name="uni02BF" unicode="&#x2bf;" horiz-adv-x="303" d="M229 1129 Q197 1129 169 1143 Q141 1157 120 1182.5 Q99 1208 87 1243.5 Q75 1279 75 1321 Q75 1363 87 1399 Q99 1435 120 1461 Q141 1487 169 1502 Q197 1517 229 1517 L229 1423 Q200 1423 182.5 1394.5 Q165 1366 165 1321 Q165 1277 182.5 1248.5 Q200 1220 229 1220 L229 1129 Z " />
<glyph glyph-name="uni02C0" unicode="&#x2c0;" horiz-adv-x="564" d="M180 1033 L239 1033 Q260 1033 274.5 1051.5 Q289 1070 299 1101 Q309 1132 313.5 1174 Q318 1216 318 1262 L318 1410 Q318 1463 317.5 1505.5 Q317 1548 312.5 1578 Q308 1608 298 1624 Q288 1640 270 1640 Q254 1640 244.5 1631 Q235 1622 230.5 1606 Q226 1590 224.5 1568 Q223 1546 223 1520 L51 1520 Q51 1584 65.5 1637 Q80 1690 108 1727.5 Q136 1765 176 1786 Q216 1807 266 1807 Q325 1807 369.5 1778 Q414 1749 443 1696.5 Q472 1644 486.5 1571.5 Q501 1499 501 1413 L501 1268 Q501 1127 467 1031 Q433 935 365 894 L365 652 L180 652 L180 1033 Z " />
<glyph glyph-name="uni02C1" unicode="&#x2c1;" horiz-adv-x="564" d="M198 893 Q130 934 96 1030.5 Q62 1127 62 1268 L62 1413 Q62 1499 76.5 1571.5 Q91 1644 120 1696.5 Q149 1749 193 1778 Q237 1807 297 1807 Q347 1807 387 1786 Q427 1765 454.5 1727.5 Q482 1690 497 1637 Q512 1584 512 1520 L340 1520 Q340 1546 338.5 1568 Q337 1590 332.5 1606 Q328 1622 318.5 1631 Q309 1640 294 1640 Q276 1640 266.5 1624 Q257 1608 252.5 1578 Q248 1548 247 1505.5 Q246 1463 246 1410 L246 1262 Q246 1216 250.5 1174 Q255 1132 264 1101 Q273 1070 287.5 1051.5 Q302 1033 322 1033 L381 1033 L381 652 L198 652 L198 893 Z " />
<glyph glyph-name="uni02C2" unicode="&#x2c2;" horiz-adv-x="671" d="M77 1048 L594 1334 L594 1140 L323 974 L273 961 L323 947 L594 784 L594 590 L77 877 L77 1048 Z " />
<glyph glyph-name="uni02C3" unicode="&#x2c3;" horiz-adv-x="677" d="M86 784 L358 947 L408 961 L358 974 L86 1140 L86 1334 L604 1048 L604 877 L86 590 L86 784 Z " />
<glyph glyph-name="uni02C4" unicode="&#x2c4;" horiz-adv-x="663" d="M249 1327 L413 1327 L584 579 L412 579 L331 1024 L250 579 L77 579 L249 1327 Z " />
<glyph glyph-name="uni02C5" unicode="&#x2c5;" horiz-adv-x="658" d="M77 1327 L250 1327 L331 882 L412 1327 L584 1327 L413 579 L249 579 L77 1327 Z " />
<glyph glyph-name="circumflex" unicode="&#x2c6;" horiz-adv-x="776" d="M96 1262 L313 1537 L455 1537 L677 1260 L677 1248 L483 1248 L385 1402 L285 1248 L96 1248 L96 1262 Z " />
<glyph glyph-name="caron" unicode="&#x2c7;" horiz-adv-x="739" d="M63 1527 L63 1537 L276 1537 L365 1385 L455 1537 L667 1537 L667 1526 L443 1248 L287 1248 L63 1527 Z " />
<glyph glyph-name="uni02C8" unicode="&#x2c8;" horiz-adv-x="306" d="M77 1145 L77 1569 L230 1569 L230 1145 L77 1145 Z " />
<glyph glyph-name="uni02C9" unicode="&#x2c9;" horiz-adv-x="788" >
<g transform="translate(9,0)" >
<path fill="black" d="M149 1293 L149 1451 L632 1451 L632 1293 L149 1293 Z " />
</g>
</glyph>
<glyph glyph-name="uni02CA" unicode="&#x2ca;" horiz-adv-x="553" >
<g transform="translate(-8,0)" >
<path fill="black" d="M246 1536 L521 1536 L295 1233 L86 1233 L246 1536 Z " />
</g>
</glyph>
<glyph glyph-name="uni02CB" unicode="&#x2cb;" horiz-adv-x="551" >
<g transform="translate(20,0)" >
<path fill="black" d="M269 1233 L41 1536 L319 1536 L478 1233 L269 1233 Z " />
</g>
</glyph>
<glyph glyph-name="uni02CC" unicode="&#x2cc;" horiz-adv-x="306" >
<g transform="translate(0,-1664)" >
<path fill="black" d="M77 1145 L77 1569 L230 1569 L230 1145 L77 1145 Z " />
</g>
</glyph>
<glyph glyph-name="uni02CD" unicode="&#x2cd;" horiz-adv-x="660" >
<g transform="translate(-55,-1614)" >
<path fill="black" d="M149 1293 L149 1451 L632 1451 L632 1293 L149 1293 Z " />
</g>
</glyph>
<glyph glyph-name="uni02CE" unicode="&#x2ce;" horiz-adv-x="551" >
<g transform="translate(20,-1601)" >
<path fill="black" d="M269 1233 L41 1536 L319 1536 L478 1233 L269 1233 Z " />
</g>
</glyph>
<glyph glyph-name="uni02CF" unicode="&#x2cf;" horiz-adv-x="553" >
<g transform="translate(-8,-1601)" >
<path fill="black" d="M246 1536 L521 1536 L295 1233 L86 1233 L246 1536 Z " />
</g>
</glyph>
<glyph glyph-name="uni02D0" unicode="&#x2d0;" horiz-adv-x="483" d="M104 0 L231 248 L251 248 L378 0 L104 0 Z M104 1082 L378 1082 L251 836 L231 836 L104 1082 Z " />
<glyph glyph-name="uni02D1" unicode="&#x2d1;" horiz-adv-x="483" d="M104 1082 L378 1082 L251 836 L231 836 L104 1082 Z " />
<glyph glyph-name="uni02D2" unicode="&#x2d2;" horiz-adv-x="305" >
<g transform="translate(9,-977)" >
<path fill="black" d="M75 1220 Q104 1220 121.5 1248.5 Q139 1277 139 1321 Q139 1366 121.5 1394.5 Q104 1423 75 1423 L75 1517 Q108 1517 136 1502 Q164 1487 185 1461 Q206 1435 217.5 1399 Q229 1363 229 1321 Q229 1279 217.5 1243.5 Q206 1208 185 1182.5 Q164 1157 136 1143 Q108 1129 75 1129 L75 1220 Z " />
</g>
</glyph>
<glyph glyph-name="uni02D3" unicode="&#x2d3;" horiz-adv-x="303" d="M229 151 Q197 151 169 165 Q141 179 120 204.5 Q99 230 87 265.5 Q75 301 75 344 Q75 386 87 421.5 Q99 457 120 483.5 Q141 510 169 524.5 Q197 539 229 539 L229 445 Q200 445 182.5 417 Q165 389 165 344 Q165 300 182.5 272 Q200 244 229 244 L229 151 Z " />
<glyph glyph-name="uni02D5" unicode="&#x2d5;" horiz-adv-x="498" d="M171 399 L80 399 L80 561 L420 561 L420 399 L327 399 L327 161 L171 161 L171 399 Z " />
<glyph glyph-name="uni02D6" unicode="&#x2d6;" horiz-adv-x="498" d="M171 277 L80 277 L80 439 L171 439 L171 593 L327 593 L327 439 L420 439 L420 277 L327 277 L327 122 L171 122 L171 277 Z " />
<glyph glyph-name="uni02D7" unicode="&#x2d7;" horiz-adv-x="520" d="M77 439 L443 439 L443 277 L77 277 L77 439 Z " />
<glyph glyph-name="breve" unicode="&#x2d8;" horiz-adv-x="758" d="M262 1515 Q262 1488 268 1463 Q274 1438 287 1419 Q300 1400 321.5 1388.5 Q343 1377 373 1377 Q403 1377 423.5 1388.5 Q444 1400 457 1419 Q470 1438 476 1463 Q482 1488 482 1515 L661 1515 Q661 1452 641 1399.5 Q621 1347 583.5 1309 Q546 1271 492.5 1250 Q439 1229 373 1229 Q306 1229 252 1250 Q198 1271 160.5 1309 Q123 1347 102.5 1399.5 Q82 1452 82 1515 L262 1515 Z " />
<glyph glyph-name="dotaccent" unicode="&#x2d9;" horiz-adv-x="466" d="M98 1372 Q98 1427 133 1463 Q168 1499 227 1499 Q284 1499 319.5 1463 Q355 1427 355 1372 Q355 1318 319.5 1282.5 Q284 1247 227 1247 Q168 1247 133 1282.5 Q98 1318 98 1372 Z " />
<glyph glyph-name="ring" unicode="&#x2da;" horiz-adv-x="570" d="M288 1155 Q248 1155 214.5 1170.5 Q181 1186 157 1213.5 Q133 1241 119.5 1278 Q106 1315 106 1358 Q106 1400 119.5 1437.5 Q133 1475 157 1503 Q181 1531 214.5 1547.5 Q248 1564 288 1564 Q328 1564 361 1547.5 Q394 1531 418 1503 Q442 1475 455.5 1437.5 Q469 1400 469 1358 Q469 1315 455.5 1278 Q442 1241 418 1213.5 Q394 1186 361 1170.5 Q328 1155 288 1155 Z M288 1246 Q327 1246 349 1279.5 Q371 1313 371 1358 Q371 1380 365.5 1400 Q360 1420 349 1435.5 Q338 1451 323 1460 Q308 1469 288 1469 Q269 1469 253 1460 Q237 1451 226.5 1435.5 Q216 1420 210 1400 Q204 1380 204 1358 Q204 1336 210 1315.5 Q216 1295 226.5 1279.5 Q237 1264 253 1255 Q269 1246 288 1246 Z " />
<glyph glyph-name="ogonek" unicode="&#x2db;" horiz-adv-x="498" d="M327 -384 Q309 -399 280.5 -413.5 Q252 -428 210 -428 Q175 -428 144 -415 Q113 -402 89.5 -376.5 Q66 -351 52.5 -313 Q39 -275 39 -225 Q39 -186 44.5 -148 Q50 -110 66 -74 Q82 -38 111 -4.5 Q140 29 186 59 L316 0 Q262 -45 241 -90.5 Q220 -136 220 -195 Q220 -224 229 -242.5 Q238 -261 258 -261 Q275 -261 284.5 -253 Q294 -245 303 -239 L327 -384 Z " />
<glyph glyph-name="tilde" unicode="&#x2dc;" horiz-adv-x="741" d="M109 1254 Q109 1309 121 1356.5 Q133 1404 154 1439.5 Q175 1475 204.5 1495 Q234 1515 269 1515 Q293 1515 315.5 1501 Q338 1487 360.5 1470.5 Q383 1454 405.5 1440 Q428 1426 452 1426 Q472 1426 486 1453.5 Q500 1481 500 1528 L637 1517 Q637 1462 625 1414.5 Q613 1367 591.5 1332.5 Q570 1298 540.5 1278.5 Q511 1259 476 1259 Q445 1259 422 1273 Q399 1287 379 1303.5 Q359 1320 339 1334 Q319 1348 294 1348 Q274 1348 260.5 1320.5 Q247 1293 247 1247 L109 1254 Z " />
<glyph glyph-name="hungarumlaut" unicode="&#x2dd;" horiz-adv-x="638" d="M451 1535 L662 1535 L488 1234 L311 1234 L451 1535 Z M162 1535 L373 1535 L219 1234 L44 1234 L162 1535 Z " />
<glyph glyph-name="uni02DE" unicode="&#x2de;" horiz-adv-x="435" d="M-101 741 L189 823 Q200 754 205.5 700.5 Q211 647 220 610.5 Q229 574 245 555.5 Q261 537 293 537 Q308 537 321 540 L354 358 Q330 341 300.5 330.5 Q271 320 238 320 Q185 320 152.5 340 Q120 360 99 395.5 Q78 431 64.5 480 Q51 529 36 588 L-101 541 L-101 741 Z " />
<glyph glyph-name="uni02DF" unicode="&#x2df;" horiz-adv-x="553" d="M80 1269 L187 1419 L82 1571 L183 1686 L278 1548 L374 1684 L474 1570 L367 1419 L472 1267 L371 1152 L276 1290 L180 1154 L80 1269 Z " />
<glyph glyph-name="uni02E0" unicode="&#x2e0;" horiz-adv-x="670" d="M235 709 L56 1454 L267 1454 L330 962 L335 929 L341 962 L403 1454 L615 1454 L429 689 L474 541 Q488 496 498 463 Q508 430 508 404 Q508 358 494 323 Q480 288 456 264.5 Q432 241 400.5 229.5 Q369 218 333 218 Q297 218 264 229.5 Q231 241 205.5 264.5 Q180 288 165 323 Q150 358 150 404 Q150 430 159.5 462 Q169 494 183 536 L235 709 Z M333 369 Q345 369 347 384 Q349 399 349 420 Q349 436 345.5 454 Q342 472 334 497 Q325 473 320 454.5 Q315 436 315 420 Q315 399 318.5 384 Q322 369 333 369 Z " />
<glyph glyph-name="uni02E1" unicode="&#x2e1;" horiz-adv-x="355" d="M90 653 L90 1848 L265 1848 L265 653 L90 653 Z " />
<glyph glyph-name="uni02E2" unicode="&#x2e2;" horiz-adv-x="607" d="M231 904 Q232 839 249 813.5 Q266 788 311 788 Q337 788 354.5 808.5 Q372 829 372 867 Q372 909 344.5 933 Q317 957 263 977 Q225 991 191.5 1012 Q158 1033 133 1063 Q108 1093 93.5 1133 Q79 1173 79 1226 Q79 1281 94.5 1325 Q110 1369 139 1400.5 Q168 1432 210 1449 Q252 1466 304 1466 Q360 1466 404.5 1446.5 Q449 1427 480 1393 Q511 1359 527.5 1312.5 Q544 1266 544 1212 L366 1212 Q366 1254 347.5 1284.5 Q329 1315 300 1315 Q279 1315 264.5 1293 Q250 1271 250 1237 Q250 1196 274.5 1174.5 Q299 1153 354 1136 Q403 1120 439 1098.5 Q475 1077 498.5 1046.5 Q522 1016 533.5 975 Q545 934 545 879 Q545 766 485.5 701 Q426 636 306 636 Q246 636 200.5 659.5 Q155 683 124.5 720.5 Q94 758 78 806.5 Q62 855 62 904 L231 904 Z " />
<glyph glyph-name="uni02E4" unicode="&#x2e4;" horiz-adv-x="652" d="M248 762 Q178 790 135 878.5 Q92 967 92 1102 Q92 1190 109.5 1258 Q127 1326 159 1372 Q191 1418 236 1442 Q281 1466 335 1466 Q389 1466 433.5 1444.5 Q478 1423 509 1383 Q540 1343 557 1287.5 Q574 1232 574 1163 L411 1163 Q410 1224 392 1261 Q374 1298 345 1298 Q307 1298 286.5 1243.5 Q266 1189 266 1097 Q266 1011 284 959 Q302 907 337 907 L424 907 L424 653 L248 653 L248 762 Z " />
<glyph glyph-name="uni02EA" unicode="&#x2ea;" horiz-adv-x="646" d="M96 908 L346 908 L346 204 L575 204 L575 0 L96 0 L96 908 Z " />
<glyph glyph-name="uni02EE" unicode="&#x2ee;" horiz-adv-x="687" >
<g transform="translate(884,-14)" >
<path fill="black" d="M-533 1075 Q-511 1141 -497 1215.5 Q-483 1290 -483 1385 L-483 1574 L-278 1574 L-278 1386 Q-278 1336 -289 1282 Q-300 1228 -319 1176.5 Q-338 1125 -362.5 1079.5 Q-387 1034 -414 999 L-533 1075 Z " />
</g>
<g transform="translate(613,-14)" >
<path fill="black" d="M-533 1075 Q-511 1141 -497 1215.5 Q-483 1290 -483 1385 L-483 1574 L-278 1574 L-278 1386 Q-278 1336 -289 1282 Q-300 1228 -319 1176.5 Q-338 1125 -362.5 1079.5 Q-387 1034 -414 999 L-533 1075 Z " />
</g>
</glyph>
<glyph glyph-name="uni02EF" unicode="&#x2ef;" horiz-adv-x="508" d="M77 -72 L195 -72 L253 -358 L254 -367 L256 -358 L311 -72 L431 -72 L311 -548 L197 -548 L77 -72 Z " />
<glyph glyph-name="uni02F0" unicode="&#x2f0;" horiz-adv-x="507" d="M196 -72 L311 -72 L430 -548 L311 -548 L254 -262 L253 -259 L253 -262 L195 -548 L77 -548 L196 -72 Z " />
<glyph glyph-name="uni02F1" unicode="&#x2f1;" horiz-adv-x="516" d="M77 -253 L440 -66 L440 -193 L249 -301 L215 -309 L249 -318 L440 -424 L440 -550 L77 -364 L77 -253 Z " />
<glyph glyph-name="uni02F2" unicode="&#x2f2;" horiz-adv-x="516" d="M77 -424 L268 -318 L302 -309 L268 -301 L77 -193 L77 -66 L440 -253 L440 -364 L77 -550 L77 -424 Z " />
<glyph glyph-name="uni02F3" unicode="&#x2f3;" horiz-adv-x="492" d="M255 -403 Q226 -403 201 -390.5 Q176 -378 157.5 -356 Q139 -334 128.5 -303.5 Q118 -273 118 -236 Q118 -199 128.5 -167.5 Q139 -136 157.5 -113 Q176 -90 201 -77 Q226 -64 255 -64 Q284 -64 308.5 -77 Q333 -90 351 -113 Q369 -136 379 -167.5 Q389 -199 389 -236 Q389 -273 379 -304 Q369 -335 351 -357 Q333 -379 308.5 -391 Q284 -403 255 -403 Z M255 -314 Q275 -314 287 -292 Q299 -270 299 -236 Q299 -201 287 -178 Q275 -155 255 -155 Q234 -155 220 -178 Q206 -201 206 -236 Q206 -268 220 -291 Q234 -314 255 -314 Z " />
<glyph glyph-name="uni02F4" unicode="&#x2f4;" horiz-adv-x="551" >
<g transform="translate(20,-1019)" >
<path fill="black" d="M269 1233 L41 1536 L319 1536 L478 1233 L269 1233 Z " />
</g>
</glyph>
<glyph glyph-name="uni02F5" unicode="&#x2f5;" horiz-adv-x="926" >
<g transform="translate(20,-1019)" >
<path fill="black" d="M269 1233 L41 1536 L319 1536 L478 1233 L269 1233 Z " />
</g>
<g transform="translate(480,-1020)" >
<path fill="black" d="M269 1233 L41 1536 L319 1536 L478 1233 L269 1233 Z " />
</g>
</glyph>
<glyph glyph-name="uni02F6" unicode="&#x2f6;" horiz-adv-x="929" >
<g transform="translate(-8,-1019)" >
<path fill="black" d="M246 1536 L521 1536 L295 1233 L86 1233 L246 1536 Z " />
</g>
<g transform="translate(450,-1020)" >
<path fill="black" d="M246 1536 L521 1536 L295 1233 L86 1233 L246 1536 Z " />
</g>
</glyph>
<glyph glyph-name="uni02F7" unicode="&#x2f7;" horiz-adv-x="687" >
<g transform="translate(-33,-1676)" >
<path fill="black" d="M109 1254 Q109 1309 121 1356.5 Q133 1404 154 1439.5 Q175 1475 204.5 1495 Q234 1515 269 1515 Q293 1515 315.5 1501 Q338 1487 360.5 1470.5 Q383 1454 405.5 1440 Q428 1426 452 1426 Q472 1426 486 1453.5 Q500 1481 500 1528 L637 1517 Q637 1462 625 1414.5 Q613 1367 591.5 1332.5 Q570 1298 540.5 1278.5 Q511 1259 476 1259 Q445 1259 422 1273 Q399 1287 379 1303.5 Q359 1320 339 1334 Q319 1348 294 1348 Q274 1348 260.5 1320.5 Q247 1293 247 1247 L109 1254 Z " />
</g>
</glyph>
<glyph glyph-name="uni02F8" unicode="&#x2f8;" horiz-adv-x="471" >
<g transform="translate(4,391)" >
<path fill="black" d="M108 127 Q108 157 118 182 Q128 207 147 226 Q166 245 192 255.5 Q218 266 250 266 Q283 266 309 255.5 Q335 245 354 226 Q373 207 383 182 Q393 157 393 127 Q393 98 383 72.5 Q373 47 354 28.5 Q335 10 309 -1 Q283 -12 250 -12 Q218 -12 192 -1 Q166 10 147 28.5 Q128 47 118 72.5 Q108 98 108 127 Z " />
</g>
<g transform="translate(4,1178)" >
<path fill="black" d="M108 127 Q108 157 118 182 Q128 207 147 226 Q166 245 192 255.5 Q218 266 250 266 Q283 266 309 255.5 Q335 245 354 226 Q373 207 383 182 Q393 157 393 127 Q393 98 383 72.5 Q373 47 354 28.5 Q335 10 309 -1 Q283 -12 250 -12 Q218 -12 192 -1 Q166 10 147 28.5 Q128 47 118 72.5 Q108 98 108 127 Z " />
</g>
</glyph>
<glyph glyph-name="uni02F9" unicode="&#x2f9;" horiz-adv-x="441" d="M80 1536 L361 1536 L361 1375 L234 1375 L234 1141 L80 1141 L80 1536 Z " />
<glyph glyph-name="uni02FA" unicode="&#x2fa;" horiz-adv-x="441" d="M206 1375 L80 1375 L80 1536 L361 1536 L361 1141 L206 1141 L206 1375 Z " />
<glyph glyph-name="uni02FB" unicode="&#x2fb;" horiz-adv-x="441" d="M80 -72 L234 -72 L234 -306 L361 -306 L361 -467 L80 -467 L80 -72 Z " />
<glyph glyph-name="uni02FC" unicode="&#x2fc;" horiz-adv-x="441" d="M80 -306 L206 -306 L206 -72 L361 -72 L361 -467 L80 -467 L80 -306 Z " />
<glyph glyph-name="uni02FD" unicode="&#x2fd;" d="M80 -81 L235 -81 L235 -298 L419 -298 L419 -81 L574 -81 L574 -452 L80 -452 L80 -81 Z " />
<glyph glyph-name="uni02FE" unicode="&#x2fe;" horiz-adv-x="611" d="M80 -72 L235 -72 L235 -314 L531 -314 L531 -467 L80 -467 L80 -72 Z " />
<glyph glyph-name="uni02FF" unicode="&#x2ff;" horiz-adv-x="682" d="M77 -133 L277 169 L457 169 L302 -54 L603 -54 L603 -213 L304 -213 L457 -435 L277 -435 L77 -133 Z " />
<glyph glyph-name="gravecomb" unicode="&#x300;" horiz-adv-x="0" d="M-403 1233 L-603 1536 L-336 1536 L-203 1233 L-403 1233 Z " />
<glyph glyph-name="acutecomb" unicode="&#x301;" horiz-adv-x="0" d="M-318 1536 L-51 1536 L-251 1233 L-451 1233 L-318 1536 Z " />
<glyph glyph-name="uni0302" unicode="&#x302;" horiz-adv-x="0" >
<g transform="translate(-738,0)" >
<path fill="black" d="M96 1262 L313 1537 L455 1537 L677 1260 L677 1248 L483 1248 L385 1402 L285 1248 L96 1248 L96 1262 Z " />
</g>
</glyph>
<glyph glyph-name="tildecomb" unicode="&#x303;" horiz-adv-x="0" >
<g transform="translate(-717,0)" >
<path fill="black" d="M109 1254 Q109 1309 121 1356.5 Q133 1404 154 1439.5 Q175 1475 204.5 1495 Q234 1515 269 1515 Q293 1515 315.5 1501 Q338 1487 360.5 1470.5 Q383 1454 405.5 1440 Q428 1426 452 1426 Q472 1426 486 1453.5 Q500 1481 500 1528 L637 1517 Q637 1462 625 1414.5 Q613 1367 591.5 1332.5 Q570 1298 540.5 1278.5 Q511 1259 476 1259 Q445 1259 422 1273 Q399 1287 379 1303.5 Q359 1320 339 1334 Q319 1348 294 1348 Q274 1348 260.5 1320.5 Q247 1293 247 1247 L109 1254 Z " />
</g>
</glyph>
<glyph glyph-name="uni0304" unicode="&#x304;" horiz-adv-x="0" >
<g transform="translate(-756,0)" >
<path fill="black" d="M149 1293 L149 1451 L632 1451 L632 1293 L149 1293 Z " />
</g>
</glyph>
<glyph glyph-name="uni0305" unicode="&#x305;" horiz-adv-x="0" >
<g transform="translate(-687,1783)" >
<path fill="black" d="M27 -200 L27 0 L645 0 L645 -200 L27 -200 Z " />
</g>
</glyph>
<glyph glyph-name="uni0306" unicode="&#x306;" horiz-adv-x="0" d="M-441 1515 Q-441 1488 -437 1463 Q-433 1438 -423.5 1419 Q-414 1400 -399 1388.5 Q-384 1377 -362 1377 Q-341 1377 -326 1388.5 Q-311 1400 -302 1419 Q-293 1438 -289 1463 Q-285 1488 -285 1515 L-112 1515 Q-112 1452 -130 1399.5 Q-148 1347 -180.5 1309 Q-213 1271 -259 1250 Q-305 1229 -362 1229 Q-420 1229 -466.5 1250 Q-513 1271 -545.5 1309 Q-578 1347 -595.5 1399.5 Q-613 1452 -613 1515 L-441 1515 Z " />
<glyph glyph-name="uni0307" unicode="&#x307;" horiz-adv-x="0" >
<g transform="translate(-609,659)" >
<path fill="black" d="M112 706 Q112 764 148.5 802 Q185 840 246 840 Q309 840 345.5 802 Q382 764 382 706 Q382 649 345.5 611 Q309 573 246 573 Q185 573 148.5 611 Q112 649 112 706 Z " />
</g>
</glyph>
<glyph glyph-name="uni0308" unicode="&#x308;" horiz-adv-x="0" d="M-239 1248 Q-263 1248 -283.5 1257 Q-304 1266 -319.5 1282 Q-335 1298 -343.5 1320 Q-352 1342 -352 1367 Q-352 1392 -343.5 1414 Q-335 1436 -319.5 1452 Q-304 1468 -283.5 1477 Q-263 1486 -239 1486 Q-215 1486 -195 1477 Q-175 1468 -160 1452 Q-145 1436 -136.5 1414 Q-128 1392 -128 1367 Q-128 1342 -136.5 1320 Q-145 1298 -160 1282 Q-175 1266 -195 1257 Q-215 1248 -239 1248 Z M-583 1249 Q-607 1249 -627.5 1258 Q-648 1267 -663.5 1283 Q-679 1299 -687.5 1321 Q-696 1343 -696 1368 Q-696 1393 -687.5 1415 Q-679 1437 -663.5 1453 Q-648 1469 -627.5 1478 Q-607 1487 -583 1487 Q-559 1487 -539 1478 Q-519 1469 -504 1453 Q-489 1437 -480.5 1415 Q-472 1393 -472 1368 Q-472 1343 -480.5 1321 Q-489 1299 -504 1283 Q-519 1267 -539 1258 Q-559 1249 -583 1249 Z " />
<glyph glyph-name="hookabovecomb" unicode="&#x309;" horiz-adv-x="0" d="M-486 1258 L-500 1399 Q-456 1403 -437.5 1418.5 Q-419 1434 -419 1468 Q-419 1509 -437.5 1524.5 Q-456 1540 -494 1540 L-489 1665 Q-346 1665 -276 1613.5 Q-206 1562 -206 1472 Q-206 1436 -214 1410 Q-222 1384 -235.5 1366.5 Q-249 1349 -265.5 1339 Q-282 1329 -299 1325 L-299 1258 L-486 1258 Z " />
<glyph glyph-name="uni030A" unicode="&#x30a;" horiz-adv-x="0" >
<g transform="translate(-609,0)" >
<path fill="black" d="M288 1155 Q248 1155 214.5 1170.5 Q181 1186 157 1213.5 Q133 1241 119.5 1278 Q106 1315 106 1358 Q106 1400 119.5 1437.5 Q133 1475 157 1503 Q181 1531 214.5 1547.5 Q248 1564 288 1564 Q328 1564 361 1547.5 Q394 1531 418 1503 Q442 1475 455.5 1437.5 Q469 1400 469 1358 Q469 1315 455.5 1278 Q442 1241 418 1213.5 Q394 1186 361 1170.5 Q328 1155 288 1155 Z M288 1246 Q327 1246 349 1279.5 Q371 1313 371 1358 Q371 1380 365.5 1400 Q360 1420 349 1435.5 Q338 1451 323 1460 Q308 1469 288 1469 Q269 1469 253 1460 Q237 1451 226.5 1435.5 Q216 1420 210 1400 Q204 1380 204 1358 Q204 1336 210 1315.5 Q216 1295 226.5 1279.5 Q237 1264 253 1255 Q269 1246 288 1246 Z " />
</g>
</glyph>
<glyph glyph-name="uni030B" unicode="&#x30b;" horiz-adv-x="0" d="M-590 1536 L-55 1536 L-281 1233 L-490 1233 L-366 1467 L-541 1233 L-750 1233 L-590 1536 Z " />
<glyph glyph-name="uni030C" unicode="&#x30c;" horiz-adv-x="0" d="M-435 1248 L-653 1523 L-653 1537 L-462 1537 L-365 1385 L-266 1537 L-71 1537 L-71 1526 L-293 1248 L-435 1248 Z " />
<glyph glyph-name="uni030D" unicode="&#x30d;" horiz-adv-x="0" >
<g transform="translate(-508,0)" >
<path fill="black" d="M77 1145 L77 1569 L230 1569 L230 1145 L77 1145 Z " />
</g>
</glyph>
<glyph glyph-name="uni030E" unicode="&#x30e;" horiz-adv-x="0" d="M-544 1569 L-276 1569 L-276 1145 L-544 1145 L-544 1569 Z " />
<glyph glyph-name="uni030F" unicode="&#x30f;" horiz-adv-x="0" d="M-501 1252 L-691 1518 L-456 1518 L-301 1252 L-501 1252 Z M-237 1252 L-402 1518 L-167 1518 L-40 1252 L-237 1252 Z " />
<glyph glyph-name="uni0310" unicode="&#x310;" horiz-adv-x="0" d="M-449 1510 Q-472 1527 -484.5 1553 Q-497 1579 -497 1610 Q-497 1637 -487.5 1660 Q-478 1683 -460 1700.5 Q-442 1718 -417 1728 Q-392 1738 -362 1738 Q-331 1738 -306 1728 Q-281 1718 -263.5 1700.5 Q-246 1683 -236.5 1660 Q-227 1637 -227 1610 Q-227 1579 -239.5 1553 Q-252 1527 -275 1510 L-111 1510 Q-111 1447 -129 1394.5 Q-147 1342 -180 1304 Q-213 1266 -259 1245 Q-305 1224 -362 1224 Q-420 1224 -466.5 1245 Q-513 1266 -545.5 1304 Q-578 1342 -595.5 1394.5 Q-613 1447 -613 1510 L-449 1510 Z M-362 1372 Q-341 1372 -326.5 1383 Q-312 1394 -303 1412 Q-294 1430 -289.5 1453.5 Q-285 1477 -285 1503 Q-317 1483 -362 1483 Q-406 1483 -441 1505 Q-441 1479 -436.5 1455 Q-432 1431 -422.5 1412.5 Q-413 1394 -398 1383 Q-383 1372 -362 1372 Z " />
</font>
</svg>
