<?xml version="1.0" encoding="UTF-8"?>
<svg xmlns="http://www.w3.org/2000/svg" xmlns:xlink="http://www.w3.org/1999/xlink" version="1.1" >
<font id="Gotho-3Cd800ExBd" horiz-adv-x="649">
<font-face  font-family="Gotho" units-per-em="2048" ascent="2146" descent="-555" font-style="normal" font-weight="800" font-stretch="condensed" cap-height="1456" x-height="1082" underline-position="-100" underline-thickness="100" />
<missing-glyph horiz-adv-x="659" d="M566 1456 L93 1456 L93 0 L566 0 L566 1456 Z M328 659 L499 54 L157 54 L328 659 Z M309 728 L129 94 L129 1362 L309 728 Z M348 728 L529 1369 L529 87 L348 728 Z M157 1402 L499 1402 L328 797 L157 1402 Z " />
<glyph glyph-name="NULL" horiz-adv-x="0" />
<glyph glyph-name="CR" unicode="&#xd;" horiz-adv-x="395" />
<glyph glyph-name="space" unicode="&#x20;" horiz-adv-x="395" />
<glyph glyph-name="uni0002" unicode="&#x2;" horiz-adv-x="0" />
<glyph glyph-name="uni0009" unicode="&#x9;" horiz-adv-x="395" />
<glyph glyph-name="exclam" unicode="&#x21;" horiz-adv-x="446" d="M228 238 C153 238 103 183 103 112 C103 42 153 -14 228 -14 C305 -14 353 42 353 112 C353 183 305 238 228 238 L228 238 Z M324 428 L352 1456 L107 1456 L135 428 L324 428 Z " />
<glyph glyph-name="quotedbl" unicode="&#x22;" horiz-adv-x="545" d="M222 1400 L222 1537 L57 1537 L57 1020 L189 1020 L222 1400 Z M486 1400 L486 1537 L321 1537 L321 1020 L455 1020 L486 1400 Z " />
<glyph glyph-name="numbersign" unicode="&#x23;" horiz-adv-x="875" d="M810 888 L810 1040 L667 1040 L715 1456 L576 1456 L528 1040 L424 1040 L472 1456 L332 1456 L284 1040 L117 1040 L117 888 L266 888 L229 561 L66 561 L66 410 L211 410 L164 0 L304 0 L351 410 L455 410 L408 0 L548 0 L595 410 L760 410 L760 561 L612 561 L650 888 L810 888 Z M473 561 L369 561 L406 888 L510 888 L473 561 Z " />
<glyph glyph-name="dollar" unicode="&#x24;" horiz-adv-x="845" d="M469 836 C376 888 348 962 348 1077 C348 1199 376 1286 437 1286 C491 1286 532 1179 532 1008 L761 1008 C761 1272 662 1433 508 1469 L508 1690 L388 1690 L388 1473 C227 1447 120 1299 120 1076 C120 828 240 717 412 619 C501 572 530 495 530 379 C530 254 499 171 429 171 C368 171 312 231 312 442 L84 442 C84 135 225 9 372 -16 L372 -212 L491 -212 L491 -16 C653 12 759 151 759 381 C759 628 639 736 469 836 L469 836 Z " />
<glyph glyph-name="percent" unicode="&#x25;" horiz-adv-x="1060" d="M543 357 L543 280 C543 116 617 -21 762 -21 C908 -21 978 116 978 280 L978 357 C978 521 908 657 760 657 C617 657 543 521 543 357 L543 357 Z M347 111 L821 1249 L714 1318 L238 180 L347 111 Z M87 1176 L87 1099 C87 936 162 800 305 800 C450 800 521 936 521 1099 L521 1176 C521 1341 450 1477 304 1477 C162 1477 87 1341 87 1176 L87 1176 Z M693 280 L693 357 C693 441 714 517 760 517 C807 517 830 441 830 357 L830 280 C830 196 820 120 762 120 C723 120 693 197 693 280 L693 280 Z M237 1099 L237 1176 C237 1260 258 1337 304 1337 C351 1337 374 1260 374 1176 L374 1099 C374 1017 352 940 305 940 C259 940 237 1018 237 1099 L237 1099 Z " />
<glyph glyph-name="ampersand" unicode="&#x26;" horiz-adv-x="967" d="M928 0 L771 282 C830 399 865 532 865 691 L672 691 C672 620 665 554 653 494 L499 770 L560 836 C638 922 689 1018 689 1156 C689 1328 585 1477 427 1477 C259 1477 149 1338 149 1112 C149 1000 185 902 243 787 C138 671 67 566 67 391 C67 151 190 -21 389 -21 C479 -21 555 13 625 80 L669 0 L928 0 Z M402 167 C344 167 297 269 297 399 C297 447 295 531 343 599 L538 240 C497 193 450 167 402 167 L402 167 Z M427 1290 C474 1290 502 1219 502 1148 C502 1066 497 1015 439 964 L407 936 C374 1000 352 1059 352 1116 C352 1211 376 1290 427 1290 L427 1290 Z " />
<glyph glyph-name="quotesingle" unicode="&#x27;" horiz-adv-x="283" d="M231 1409 L231 1536 L58 1536 L58 1027 L208 1027 L231 1409 Z " />
<glyph glyph-name="parenleft" unicode="&#x28;" horiz-adv-x="547" d="M105 592 L105 576 C105 3 297 -360 450 -464 L493 -334 C398 -212 297 77 297 574 L297 594 C297 1091 398 1379 493 1495 L450 1631 C297 1528 105 1163 105 592 L105 592 Z " />
<glyph glyph-name="parenright" unicode="&#x29;" horiz-adv-x="546" d="M455 576 L455 592 C455 1154 257 1528 96 1631 L54 1502 C145 1386 249 1091 249 594 L249 574 C249 77 147 -218 54 -334 L96 -464 C257 -360 455 12 455 576 L455 576 Z " />
<glyph glyph-name="asterisk" unicode="&#x2a;" horiz-adv-x="769" d="M287 975 L111 700 L240 602 L387 885 L534 594 L662 696 L492 966 L751 1056 L703 1220 L458 1103 L474 1457 L315 1457 L331 1110 L80 1228 L31 1066 L287 975 Z " />
<glyph glyph-name="plus" unicode="&#x2b;" horiz-adv-x="792" d="M726 796 L504 796 L504 1206 L287 1206 L287 796 L60 796 L60 584 L287 584 L287 146 L504 146 L504 584 L726 584 L726 796 Z " />
<glyph glyph-name="comma" unicode="&#x2c;" horiz-adv-x="426" d="M322 61 L322 231 L123 231 L123 54 C123 -72 78 -160 39 -249 L161 -324 C254 -230 322 -74 322 61 L322 61 Z " />
<glyph glyph-name="hyphen" unicode="&#x2d;" horiz-adv-x="622" d="M503 529 L503 716 L111 716 L111 529 L503 529 Z " />
<glyph glyph-name="period" unicode="&#x2e;" horiz-adv-x="499" d="M243 248 C163 248 110 191 110 117 C110 45 163 -12 243 -12 C324 -12 377 45 377 117 C377 191 324 248 243 248 L243 248 Z " />
<glyph glyph-name="slash" unicode="&#x2f;" horiz-adv-x="555" d="M175 -125 L519 1456 L352 1456 L8 -125 L175 -125 Z " />
<glyph glyph-name="zero" unicode="0" horiz-adv-x="845" d="M759 613 L759 850 C759 1307 620 1476 423 1476 C224 1476 85 1307 85 850 L85 613 C85 156 226 -20 424 -20 C621 -20 759 156 759 613 L759 613 Z M530 885 L530 580 C530 283 490 167 424 167 C356 167 314 283 314 580 L314 885 C314 1181 356 1290 423 1290 C489 1290 530 1181 530 885 L530 885 Z " />
<glyph glyph-name="one" unicode="1" horiz-adv-x="845" d="M584 0 L584 1461 L561 1461 L135 1256 L135 1059 L355 1183 L355 0 L584 0 Z " />
<glyph glyph-name="two" unicode="2" horiz-adv-x="846" d="M769 0 L769 187 L357 187 L543 531 C652 730 743 894 743 1076 C743 1321 630 1477 417 1477 C200 1477 66 1268 66 1015 L296 1015 C296 1176 334 1290 412 1290 C476 1290 512 1190 512 1052 C512 951 490 854 391 684 L83 160 L82 0 L769 0 Z " />
<glyph glyph-name="three" unicode="3" horiz-adv-x="847" d="M580 747 C683 813 743 945 743 1064 C743 1335 603 1477 400 1477 C220 1477 73 1308 73 1077 L304 1077 C304 1208 352 1290 406 1290 C479 1290 515 1205 515 1065 C515 930 477 835 397 835 L287 835 L287 652 L397 652 C480 652 528 577 528 407 C528 253 482 167 404 167 C340 167 293 259 293 391 L63 391 C63 120 230 -20 398 -20 C602 -20 758 136 758 407 C758 553 698 687 580 747 L580 747 Z " />
<glyph glyph-name="four" unicode="4" horiz-adv-x="845" d="M778 516 L681 516 L681 1456 L389 1456 L39 470 L51 329 L474 329 L474 0 L681 0 L681 329 L778 329 L778 516 Z M257 516 L474 1197 L474 516 L257 516 Z " />
<glyph glyph-name="five" unicode="5" horiz-adv-x="845" d="M105 725 L288 679 C307 729 336 766 400 766 C493 766 534 643 534 472 C534 291 506 167 421 167 C360 167 318 248 310 394 L83 394 C85 123 251 -20 423 -20 C652 -20 762 196 762 467 C762 768 657 954 464 954 C405 954 355 921 330 894 L351 1256 L726 1256 L726 1456 L164 1456 L105 725 Z " />
<glyph glyph-name="six" unicode="6" horiz-adv-x="846" d="M500 975 C422 975 361 941 316 884 C330 1152 408 1288 544 1288 C585 1288 621 1274 652 1261 L683 1436 C623 1464 573 1477 495 1477 C262 1477 85 1229 85 775 L85 536 C85 167 235 -21 438 -21 C642 -21 777 196 777 488 C777 763 678 975 500 975 L500 975 Z M438 166 C365 166 314 283 314 537 L314 682 C334 748 369 792 426 792 C499 792 548 663 548 488 C548 317 511 166 438 166 L438 166 Z " />
<glyph glyph-name="seven" unicode="7" horiz-adv-x="844" d="M63 1456 L63 1270 L544 1270 C375 956 288 604 257 151 L246 0 L477 0 L487 151 C514 544 527 849 764 1270 L764 1456 L63 1456 Z " />
<glyph glyph-name="eight" unicode="8" horiz-adv-x="845" d="M590 750 C680 813 736 931 736 1074 C736 1332 608 1477 421 1477 C238 1477 107 1332 107 1074 C107 931 163 813 254 750 C153 684 88 557 88 396 C88 126 231 -20 422 -20 C614 -20 756 126 756 396 C756 557 691 684 590 750 L590 750 Z M422 167 C357 167 317 256 317 408 C317 557 358 655 422 655 C487 655 525 557 525 408 C525 256 489 167 422 167 L422 167 Z M421 1290 C480 1290 508 1198 508 1066 C508 931 481 842 422 842 C366 842 337 931 337 1066 C337 1204 366 1290 421 1290 L421 1290 Z " />
<glyph glyph-name="nine" unicode="9" horiz-adv-x="845" d="M414 1477 C220 1477 81 1276 81 960 C81 661 188 457 369 457 C427 457 481 482 525 531 C521 286 465 166 356 166 C303 166 255 189 215 214 L180 40 C246 -2 315 -21 385 -21 C593 -21 753 184 753 565 L753 902 C753 1284 606 1477 414 1477 L414 1477 Z M425 639 C347 639 308 785 308 960 C308 1164 351 1291 414 1291 C478 1291 525 1171 525 930 L525 728 C504 677 470 639 425 639 L425 639 Z " />
<glyph glyph-name="colon" unicode="&#x3a;" horiz-adv-x="470" d="M253 248 C173 248 120 191 120 117 C120 45 173 -12 253 -12 C334 -12 387 45 387 117 C387 191 334 248 253 248 L253 248 Z M245 1062 C165 1062 112 1005 112 931 C112 859 165 802 245 802 C326 802 379 859 379 931 C379 1005 326 1062 245 1062 L245 1062 Z " />
<glyph glyph-name="semicolon" unicode="&#x3b;" horiz-adv-x="439" d="M240 1104 C160 1104 107 1047 107 973 C107 901 160 844 240 844 C321 844 374 901 374 973 C374 1047 321 1104 240 1104 L240 1104 Z M347 61 L347 231 L148 231 L148 54 C148 -72 103 -160 64 -249 L186 -324 C279 -230 347 -74 347 61 L347 61 Z " />
<glyph glyph-name="less" unicode="&#x3c;" horiz-adv-x="747" d="M639 1101 L59 729 L59 544 L639 171 L639 403 L279 634 L639 870 L639 1101 Z " />
<glyph glyph-name="equal" unicode="&#x3d;" horiz-adv-x="841" d="M723 361 L723 554 L114 554 L114 361 L723 361 Z M723 784 L723 977 L114 977 L114 784 L723 784 Z " />
<glyph glyph-name="greater" unicode="&#x3e;" horiz-adv-x="759" d="M107 1101 L107 874 L477 639 L107 400 L107 171 L694 544 L694 729 L107 1101 Z " />
<glyph glyph-name="question" unicode="&#x3f;" horiz-adv-x="751" d="M355 240 C279 240 230 185 230 115 C230 44 279 -12 355 -12 C430 -12 479 44 479 115 C479 185 430 240 355 240 L355 240 Z M251 427 L452 427 C454 527 465 607 514 675 C599 794 679 914 679 1092 C679 1332 562 1476 366 1476 C188 1476 52 1345 49 1095 L279 1095 C280 1225 327 1283 366 1283 C421 1283 449 1210 449 1083 C449 963 407 898 350 810 C274 692 251 613 251 427 L251 427 Z " />
<glyph glyph-name="at" unicode="&#x40;" horiz-adv-x="1266" d="M665 1424 C313 1424 90 1018 75 472 C58 -111 262 -453 618 -453 C702 -453 806 -424 869 -364 L842 -234 C787 -277 700 -308 621 -308 C358 -308 213 -21 226 472 C240 946 394 1280 661 1280 C941 1280 1065 987 1053 515 C1046 291 994 116 918 116 C879 116 850 150 858 318 L893 883 C836 941 787 990 679 990 C520 990 389 771 364 424 C344 157 427 -20 560 -20 C625 -20 682 28 725 120 C755 31 814 -21 887 -21 C1099 -21 1183 261 1190 519 C1204 1067 1010 1424 665 1424 L665 1424 Z M616 139 C557 139 528 241 537 424 C550 698 594 841 694 841 C707 841 720 839 731 835 L703 318 L703 315 C677 184 638 139 616 139 L616 139 Z " />
<glyph glyph-name="A" unicode="A" horiz-adv-x="993" d="M714 0 L968 0 L606 1456 L387 1456 L27 0 L280 0 L346 345 L647 345 L714 0 Z M383 540 L496 1129 L610 540 L383 540 Z " />
<glyph glyph-name="B" unicode="B" horiz-adv-x="935" d="M678 757 C787 813 833 928 833 1064 C833 1335 694 1456 460 1456 L101 1456 L101 0 L485 0 C724 0 849 148 849 424 C849 575 804 712 678 757 L678 757 Z M485 193 L339 193 L339 662 L493 662 C581 662 611 570 611 424 C611 286 577 193 485 193 L485 193 Z M460 1262 C554 1262 593 1199 593 1051 C593 916 551 840 457 840 L339 840 L339 1262 L460 1262 Z " />
<glyph glyph-name="C" unicode="C" horiz-adv-x="950" d="M889 473 L649 473 C645 247 599 173 488 173 C356 173 320 329 320 592 L320 867 C320 1142 369 1283 489 1283 C609 1283 647 1202 652 977 L890 977 C872 1303 743 1477 489 1477 C237 1477 81 1251 81 865 L81 592 C81 205 229 -20 488 -20 C734 -20 877 156 889 473 L889 473 Z " />
<glyph glyph-name="D" unicode="D" horiz-adv-x="939" d="M409 1456 L101 1456 L101 0 L408 0 C678 0 855 210 855 602 L855 854 C855 1245 676 1456 409 1456 L409 1456 Z M616 602 C616 322 573 193 408 193 L339 193 L339 1262 L409 1262 C571 1262 616 1144 616 856 L616 602 Z " />
<glyph glyph-name="E" unicode="E" horiz-adv-x="818" d="M339 193 L339 655 L701 655 L701 846 L339 846 L339 1262 L766 1262 L766 1456 L101 1456 L101 0 L767 0 L767 193 L339 193 Z " />
<glyph glyph-name="F" unicode="F" horiz-adv-x="794" d="M743 1262 L743 1456 L101 1456 L101 0 L339 0 L339 623 L701 623 L701 817 L339 817 L339 1262 L743 1262 Z " />
<glyph glyph-name="G" unicode="G" horiz-adv-x="970" d="M892 173 L892 743 L491 743 L491 559 L653 559 L653 250 C635 230 604 173 524 173 C387 173 324 298 324 591 L324 869 C324 1157 383 1283 503 1283 C605 1283 649 1200 661 1015 L891 1015 C873 1313 759 1477 495 1477 C243 1477 86 1278 86 867 L86 591 C86 178 251 -20 509 -20 C727 -20 842 109 892 173 L892 173 Z " />
<glyph glyph-name="H" unicode="H" horiz-adv-x="1018" d="M677 1456 L677 846 L339 846 L339 1456 L101 1456 L101 0 L339 0 L339 653 L677 653 L677 0 L916 0 L916 1456 L677 1456 Z " />
<glyph glyph-name="I" unicode="I" horiz-adv-x="462" d="M350 0 L350 1456 L113 1456 L113 0 L350 0 Z " />
<glyph glyph-name="J" unicode="J" horiz-adv-x="818" d="M481 1456 L481 436 C481 267 446 173 383 173 C325 173 286 243 286 416 L47 416 C47 119 188 -20 383 -20 C574 -20 719 147 719 436 L719 1456 L481 1456 Z " />
<glyph glyph-name="K" unicode="K" horiz-adv-x="920" d="M636 0 L918 0 L581 832 L915 1456 L622 1456 L405 962 L339 811 L339 1456 L101 1456 L101 0 L339 0 L339 483 L424 599 L636 0 Z " />
<glyph glyph-name="L" unicode="L" horiz-adv-x="798" d="M339 193 L339 1456 L101 1456 L101 0 L746 0 L746 193 L339 193 Z " />
<glyph glyph-name="M" unicode="M" horiz-adv-x="1253" d="M1151 1456 L836 1456 L626 457 L416 1456 L101 1456 L101 0 L339 0 L339 494 L310 1033 L544 0 L707 0 L942 1036 L912 494 L912 0 L1151 0 L1151 1456 Z " />
<glyph glyph-name="N" unicode="N" horiz-adv-x="1016" d="M913 0 L913 1456 L676 1456 L676 494 L372 1456 L101 1456 L101 0 L339 0 L339 927 L656 0 L913 0 Z " />
<glyph glyph-name="O" unicode="O" horiz-adv-x="1002" d="M918 591 L918 855 C918 1267 749 1476 500 1476 C250 1476 83 1267 83 855 L83 591 C83 184 252 -20 501 -20 C750 -20 918 184 918 591 L918 591 Z M680 857 L680 591 C680 298 618 177 501 177 C383 177 320 298 320 591 L320 857 C320 1156 382 1278 500 1278 C617 1278 680 1156 680 857 L680 857 Z " />
<glyph glyph-name="P" unicode="P" horiz-adv-x="947" d="M496 1456 L101 1456 L101 0 L339 0 L339 546 L496 546 C730 546 874 715 874 995 C874 1263 730 1456 496 1456 L496 1456 Z M496 740 L339 740 L339 1262 L496 1262 C592 1262 632 1133 632 993 C632 846 592 740 496 740 L496 740 Z " />
<glyph glyph-name="Q" unicode="Q" horiz-adv-x="1002" d="M922 -113 L750 75 C855 173 918 349 918 601 L918 855 C918 1268 748 1476 500 1476 C250 1476 82 1268 82 855 L82 601 C82 188 252 -20 501 -20 C521 -20 541 -19 560 -16 L774 -254 L922 -113 Z M321 601 L321 857 C321 1156 382 1278 500 1278 C617 1278 680 1156 680 857 L680 601 C680 301 618 177 501 177 C382 177 321 301 321 601 L321 601 Z " />
<glyph glyph-name="R" unicode="R" horiz-adv-x="943" d="M839 243 L839 360 C839 526 799 655 677 708 C783 772 850 878 850 1036 C850 1308 731 1456 505 1456 L104 1456 L104 0 L343 0 L343 603 L481 603 C563 603 602 510 602 358 L602 245 C602 196 601 52 644 0 L889 0 L889 28 C847 76 839 174 839 243 L839 243 Z M343 797 L343 1262 L492 1262 C577 1262 612 1168 612 1025 C612 879 566 797 484 797 L343 797 Z " />
<glyph glyph-name="S" unicode="S" horiz-adv-x="901" d="M425 628 C570 549 590 496 590 375 C590 254 559 172 472 172 C362 172 308 249 308 439 L83 439 C83 130 221 -20 472 -20 C721 -20 829 130 829 380 C829 607 721 746 507 849 C397 900 335 966 335 1077 C335 1194 376 1284 463 1284 C555 1284 592 1179 592 1033 L816 1033 C816 1276 738 1476 467 1476 C229 1476 98 1310 98 1076 C98 839 253 712 425 628 L425 628 Z " />
<glyph glyph-name="T" unicode="T" horiz-adv-x="905" d="M854 1456 L51 1456 L51 1262 L330 1262 L330 0 L569 0 L569 1262 L854 1262 L854 1456 Z " />
<glyph glyph-name="U" unicode="U" horiz-adv-x="952" d="M858 1456 L619 1456 L619 440 C619 228 571 173 477 173 C383 173 333 228 333 440 L333 1456 L93 1456 L93 440 C93 108 251 -20 477 -20 C700 -20 858 108 858 440 L858 1456 Z " />
<glyph glyph-name="V" unicode="V" horiz-adv-x="961" d="M671 1456 L480 350 L291 1456 L25 1456 L355 0 L606 0 L937 1456 L671 1456 Z " />
<glyph glyph-name="W" unicode="W" horiz-adv-x="1239" d="M959 1456 L855 479 L724 1456 L515 1456 L387 483 L280 1456 L44 1456 L248 0 L494 0 L619 890 L747 0 L992 0 L1195 1456 L959 1456 Z " />
<glyph glyph-name="X" unicode="X" horiz-adv-x="932" d="M467 918 L315 1456 L41 1456 L313 734 L35 0 L312 0 L467 548 L623 0 L898 0 L622 734 L892 1456 L619 1456 L467 918 Z " />
<glyph glyph-name="Y" unicode="Y" horiz-adv-x="905" d="M453 754 L282 1456 L23 1456 L333 537 L333 0 L574 0 L574 537 L882 1456 L623 1456 L453 754 Z " />
<glyph glyph-name="Z" unicode="Z" horiz-adv-x="885" d="M325 193 L817 1304 L817 1456 L67 1456 L67 1262 L569 1262 L72 157 L72 0 L824 0 L824 193 L325 193 Z " />
<glyph glyph-name="bracketleft" unicode="&#x5b;" horiz-adv-x="449" d="M408 1496 L408 1678 L97 1678 L97 -325 L408 -325 L408 -142 L327 -142 L327 1496 L408 1496 Z " />
<glyph glyph-name="backslash" unicode="&#x5c;" horiz-adv-x="642" d="M17 1456 L422 -125 L657 -125 L252 1456 L17 1456 Z " />
<glyph glyph-name="bracketright" unicode="&#x5d;" horiz-adv-x="450" d="M38 1678 L38 1496 L120 1496 L120 -142 L38 -142 L38 -325 L348 -325 L348 1678 L38 1678 Z " />
<glyph glyph-name="asciicircum" unicode="&#x5e;" horiz-adv-x="659" d="M613 729 L414 1456 L250 1456 L49 729 L228 729 L332 1209 L436 729 L613 729 Z " />
<glyph glyph-name="underscore" unicode="&#x5f;" horiz-adv-x="671" d="M643 -184 L643 0 L27 0 L27 -184 L643 -184 Z " />
<glyph glyph-name="grave" unicode="&#x60;" horiz-adv-x="564" d="M460 1236 L301 1536 L44 1536 L267 1236 L460 1236 Z " />
<glyph glyph-name="a" unicode="a" horiz-adv-x="787" d="M697 249 L697 760 C697 1007 567 1102 404 1102 C202 1102 82 942 82 771 L311 771 C311 855 336 922 391 922 C442 922 468 882 468 764 L468 658 L407 658 C175 658 66 508 66 304 C66 97 175 -20 310 -20 C383 -20 437 17 476 88 C481 54 488 23 498 0 L728 0 L728 17 C709 74 697 154 697 249 L697 249 Z M368 167 C320 167 295 209 295 318 C295 437 330 512 413 512 L468 512 L468 256 C452 209 414 167 368 167 L368 167 Z " />
<glyph glyph-name="b" unicode="b" horiz-adv-x="827" d="M488 1102 C416 1102 362 1065 321 1000 L321 1536 L93 1536 L93 0 L304 0 L311 99 C353 23 411 -20 490 -20 C681 -20 765 148 765 496 L765 586 C765 939 681 1102 488 1102 L488 1102 Z M535 496 C535 265 519 171 422 171 C370 171 339 205 321 257 L321 820 C340 877 371 913 420 913 C518 913 535 810 535 586 L535 496 Z " />
<glyph glyph-name="c" unicode="c" horiz-adv-x="769" d="M498 357 C499 219 464 167 403 167 C304 167 294 283 294 489 L294 594 C294 797 305 916 400 916 C471 916 499 842 498 697 L714 697 C713 958 592 1102 406 1102 C176 1102 64 918 64 594 L64 489 C64 165 175 -20 408 -20 C579 -20 713 126 714 357 L498 357 Z " />
<glyph glyph-name="d" unicode="d" horiz-adv-x="827" d="M504 1536 L504 999 C463 1065 408 1102 339 1102 C156 1102 60 943 60 585 L60 495 C60 151 157 -20 338 -20 C415 -20 473 25 516 104 L526 -1 L734 0 L734 1536 L504 1536 Z M405 170 C317 170 291 267 291 495 L291 585 C291 813 319 913 405 913 C450 913 483 877 504 820 L504 256 C484 203 453 170 405 170 L405 170 Z " />
<glyph glyph-name="e" unicode="e" horiz-adv-x="801" d="M746 472 L746 587 C746 933 632 1102 410 1102 C196 1102 72 945 72 581 L72 469 C72 141 206 -20 434 -20 C593 -20 687 63 731 140 L645 277 C599 212 533 167 458 167 C354 167 300 247 300 470 L300 472 L746 472 Z M412 916 C491 916 519 831 520 668 L520 643 L301 643 C305 840 335 916 412 916 L412 916 Z " />
<glyph glyph-name="f" unicode="f" horiz-adv-x="555" d="M472 1367 C493 1367 512 1364 527 1357 L527 1540 C495 1551 461 1557 424 1557 C251 1557 142 1427 142 1189 L142 1082 L39 1082 L39 911 L142 911 L142 0 L372 0 L372 911 L507 911 L507 1082 L372 1082 L372 1189 C372 1303 408 1367 472 1367 L472 1367 Z " />
<glyph glyph-name="g" unicode="g" horiz-adv-x="776" d="M476 210 L353 210 C304 210 270 226 270 288 C270 322 278 347 289 366 C315 360 343 356 373 356 C572 356 699 519 699 718 L699 740 C699 813 684 879 656 934 L741 934 L739 1082 L491 1082 C455 1095 415 1102 372 1102 C173 1102 45 952 45 740 L45 718 C45 588 100 473 193 410 C148 369 108 310 108 219 C108 169 121 130 143 100 C72 54 8 -33 8 -162 C8 -309 132 -438 356 -438 C597 -438 735 -247 735 -88 C735 111 643 210 476 210 L476 210 Z M274 740 C274 840 309 922 372 922 C435 922 471 840 471 740 L471 718 C471 625 436 537 373 537 C309 537 274 625 274 718 L274 740 Z M356 -259 C267 -259 224 -191 224 -111 C224 -45 237 9 252 36 C270 32 289 30 309 30 L439 30 C496 30 508 -21 508 -94 C508 -169 466 -259 356 -259 L356 -259 Z " />
<glyph glyph-name="h" unicode="h" horiz-adv-x="821" d="M499 1102 C422 1102 359 1060 313 988 L313 1536 L84 1536 L84 0 L313 0 L313 831 C333 882 362 913 406 913 C470 913 504 856 504 699 L504 0 L733 0 L733 697 C733 991 632 1102 499 1102 L499 1102 Z " />
<glyph glyph-name="i" unicode="i" horiz-adv-x="432" d="M331 0 L331 1082 L100 1082 L100 0 L331 0 Z M215 1492 C140 1492 90 1438 90 1368 C90 1297 140 1244 215 1244 C291 1244 340 1297 340 1368 C340 1438 291 1492 215 1492 L215 1492 Z " />
<glyph glyph-name="j" unicode="j" horiz-adv-x="422" d="M332 1082 L102 1082 L102 -99 C102 -203 77 -246 26 -246 C6 -246 -12 -243 -36 -237 L-35 -420 C0 -432 34 -437 69 -437 C235 -437 332 -317 332 -99 L332 1082 Z M212 1492 C136 1492 87 1438 87 1368 C87 1297 136 1244 212 1244 C288 1244 337 1297 337 1368 C337 1438 288 1492 212 1492 L212 1492 Z " />
<glyph glyph-name="k" unicode="k" horiz-adv-x="803" d="M533 0 L796 0 L521 645 L773 1082 L522 1082 L340 693 L320 663 L320 1537 L91 1537 L91 0 L320 0 L320 421 L363 463 L533 0 Z " />
<glyph glyph-name="l" unicode="l" horiz-adv-x="495" d="M330 1536 L100 1536 L100 283 C100 60 186 -20 323 -20 C374 -20 412 -9 448 3 L451 183 C439 179 420 173 396 173 C347 173 330 193 330 297 L330 1536 Z " />
<glyph glyph-name="m" unicode="m" horiz-adv-x="1226" d="M901 1102 C808 1102 739 1048 693 961 C655 1059 590 1102 509 1102 C426 1102 360 1058 313 982 L306 1082 L92 1082 L92 0 L321 0 L321 822 C341 878 371 913 412 913 C467 913 497 857 497 702 L497 0 L728 0 L728 722 C728 755 727 785 724 813 C742 873 773 912 817 913 C871 913 903 867 903 703 L903 0 L1133 0 L1133 702 C1133 989 1041 1102 901 1102 L901 1102 Z " />
<glyph glyph-name="n" unicode="n" horiz-adv-x="823" d="M508 1102 C426 1102 357 1055 307 972 L301 1082 L85 1082 L85 0 L314 0 L314 818 C335 876 366 913 410 913 C471 913 505 855 505 702 L505 0 L734 0 L734 701 C734 994 639 1102 508 1102 L508 1102 Z " />
<glyph glyph-name="o" unicode="o" horiz-adv-x="830" d="M66 587 L66 495 C66 155 202 -20 416 -20 C627 -20 764 155 764 495 L764 587 C764 927 627 1102 414 1102 C202 1102 66 927 66 587 L66 587 Z M295 495 L295 587 C295 809 342 916 414 916 C489 916 534 809 534 587 L534 495 C534 270 493 167 416 167 C341 167 295 270 295 495 L295 495 Z " />
<glyph glyph-name="p" unicode="p" horiz-adv-x="827" d="M487 1102 C410 1102 353 1061 312 988 L304 1082 L93 1082 L93 -416 L321 -416 L321 80 C362 16 417 -20 490 -20 C673 -20 764 153 764 496 L764 586 C764 944 674 1102 487 1102 L487 1102 Z M535 496 C535 270 508 167 420 167 C370 167 339 199 321 247 L321 827 C340 880 371 913 420 913 C505 913 535 816 535 586 L535 496 Z " />
<glyph glyph-name="q" unicode="q" horiz-adv-x="828" d="M533 1082 L519 979 C477 1057 419 1102 339 1102 C154 1102 60 944 60 585 L60 495 C60 152 155 -20 339 -20 C410 -20 464 16 504 80 L504 -416 L733 -416 L733 1082 L533 1082 Z M405 167 C317 167 291 269 291 495 L291 585 C291 815 320 916 406 916 C453 916 484 883 504 832 L504 245 C485 197 454 167 405 167 L405 167 Z " />
<glyph glyph-name="r" unicode="r" horiz-adv-x="563" d="M460 1102 C398 1102 349 1050 315 966 L308 1082 L91 1082 L91 0 L321 0 L321 756 C341 826 381 862 445 862 C466 862 500 860 520 854 L521 1089 C508 1096 481 1102 460 1102 L460 1102 Z " />
<glyph glyph-name="s" unicode="s" horiz-adv-x="758" d="M318 454 C422 395 469 361 469 275 C469 202 433 155 370 155 C309 155 259 199 257 327 L54 327 C54 149 140 -20 381 -20 C590 -20 692 104 692 295 C692 490 604 549 447 638 C335 700 297 721 297 805 C297 870 323 928 385 928 C451 928 475 856 475 770 L689 770 C689 962 593 1102 378 1102 C163 1102 78 963 78 787 C78 604 167 543 318 454 L318 454 Z " />
<glyph glyph-name="t" unicode="t" horiz-adv-x="522" d="M423 173 C375 173 357 193 357 297 L357 911 L472 911 L472 1082 L357 1082 L357 1347 L127 1347 L127 1082 L30 1082 L30 911 L127 911 L127 283 C127 60 213 -20 350 -20 C401 -20 439 -9 475 3 L478 183 C466 179 447 173 423 173 L423 173 Z " />
<glyph glyph-name="u" unicode="u" horiz-adv-x="823" d="M505 1082 L505 270 C485 208 450 170 395 170 C348 170 315 220 315 381 L315 1082 L86 1082 L86 383 C86 96 184 -20 326 -20 C407 -20 469 24 514 99 L519 0 L735 0 L735 1082 L505 1082 Z " />
<glyph glyph-name="v" unicode="v" horiz-adv-x="754" d="M481 1082 L375 301 L270 1082 L29 1082 L264 0 L486 0 L721 1082 L481 1082 Z " />
<glyph glyph-name="w" unicode="w" horiz-adv-x="1049" d="M790 1082 L719 338 L605 1082 L442 1082 L328 348 L257 1082 L37 1082 L213 0 L405 0 L524 701 L643 0 L833 0 L1009 1082 L790 1082 Z " />
<glyph glyph-name="x" unicode="x" horiz-adv-x="758" d="M381 693 L287 1082 L43 1082 L236 550 L34 0 L278 0 L380 406 L484 0 L728 0 L526 550 L720 1082 L478 1082 L381 693 Z " />
<glyph glyph-name="y" unicode="y" horiz-adv-x="751" d="M481 1082 L375 310 L269 1082 L23 1082 L274 -24 L263 -44 C247 -188 209 -243 137 -243 C127 -243 119 -242 110 -241 L110 -420 C147 -428 161 -437 203 -437 C362 -437 419 -273 444 -166 L728 1082 L481 1082 Z " />
<glyph glyph-name="z" unicode="z" horiz-adv-x="759" d="M317 187 L678 935 L678 1082 L82 1082 L82 895 L433 895 L74 153 L74 0 L683 0 L683 187 L317 187 Z " />
<glyph glyph-name="braceleft" unicode="&#x7b;" horiz-adv-x="505" d="M366 101 L366 306 C366 439 326 554 235 616 C326 679 366 793 366 926 L366 1132 C366 1288 382 1416 452 1463 L408 1597 C220 1520 162 1342 162 1132 L162 926 C162 790 130 703 54 703 L54 530 C130 530 162 443 162 306 L162 101 C162 -109 220 -288 408 -365 L450 -230 C381 -182 366 -54 366 101 L366 101 Z " />
<glyph glyph-name="bar" unicode="&#x7c;" horiz-adv-x="435" d="M289 -270 L289 1456 L148 1456 L148 -270 L289 -270 Z " />
<glyph glyph-name="braceright" unicode="&#x7d;" horiz-adv-x="505" d="M343 926 L343 1132 C343 1342 285 1520 97 1597 L54 1463 C122 1416 140 1288 140 1132 L140 926 C140 789 182 676 278 616 C182 557 140 443 140 306 L140 101 C140 -54 124 -182 54 -230 L97 -365 C285 -288 343 -109 343 101 L343 306 C343 443 374 530 451 530 L451 703 C374 703 343 790 343 926 L343 926 Z " />
<glyph glyph-name="asciitilde" unicode="&#x7e;" horiz-adv-x="924" d="M836 786 L669 786 C669 669 635 586 592 586 C561 586 533 616 500 676 C448 768 386 814 318 814 C186 814 88 657 88 428 L256 428 C256 543 286 619 330 619 C361 619 390 586 424 530 C481 434 535 391 605 391 C736 391 836 559 836 786 L836 786 Z " />
<glyph glyph-name="uni00A0" unicode="&#xa0;" horiz-adv-x="395" />
<glyph glyph-name="exclamdown" unicode="&#xa1;" horiz-adv-x="465" d="M140 665 L111 -366 L357 -366 L328 665 L140 665 Z M235 850 C311 850 360 905 360 977 C360 1047 311 1102 235 1102 C159 1102 110 1047 110 977 C110 905 159 850 235 850 L235 850 Z " />
<glyph glyph-name="cent" unicode="&#xa2;" horiz-adv-x="1036" d="M436 167 C337 167 327 283 327 489 L327 594 C327 797 338 916 433 916 C504 916 532 842 531 697 L747 697 C746 925 654 1064 506 1095 L506 1318 L354 1318 L354 1092 C181 1051 97 875 97 594 L97 489 C97 208 180 32 354 -10 L354 -245 L506 -245 L506 -13 C645 20 746 156 747 357 L531 357 C532 219 497 167 436 167 L436 167 Z " />
<glyph glyph-name="sterling" unicode="&#xa3;" horiz-adv-x="875" d="M379 193 C423 251 439 328 437 417 L433 603 L628 603 L628 794 L429 794 L423 1039 C423 1197 456 1283 500 1283 C547 1283 589 1226 589 1074 L814 1074 C814 1315 702 1476 498 1476 C312 1476 184 1315 188 1039 L192 794 L94 794 L94 603 L194 603 L197 409 C198 325 194 210 155 193 L95 193 L95 0 L816 0 L816 193 L379 193 Z " />
<glyph glyph-name="currency" unicode="&#xa4;" horiz-adv-x="1160" d="M1062 608 C1062 746 1029 872 974 974 L1094 1126 L981 1265 L864 1117 C785 1191 688 1234 582 1234 C477 1234 380 1192 301 1118 L186 1264 L73 1126 L192 976 C135 874 102 747 102 608 C102 475 132 353 185 252 L73 112 L186 -26 L291 107 C372 27 473 -20 582 -20 C692 -20 794 27 875 108 L981 -27 L1094 112 L981 255 C1032 355 1062 476 1062 608 L1062 608 Z M582 158 C397 158 250 358 250 608 C250 858 397 1057 582 1057 C765 1057 913 858 913 608 C913 358 765 158 582 158 L582 158 Z " />
<glyph glyph-name="yen" unicode="&#xa5;" horiz-adv-x="793" d="M764 1456 L518 1456 L398 950 L278 1456 L30 1456 L247 738 L83 738 L83 593 L275 593 L275 448 L83 448 L83 303 L275 303 L275 0 L513 0 L513 303 L689 303 L689 448 L513 448 L513 593 L689 593 L689 738 L549 738 L764 1456 Z " />
<glyph glyph-name="brokenbar" unicode="&#xa6;" horiz-adv-x="434" d="M112 -270 L323 -270 L323 522 L112 522 L112 -270 Z M323 698 L323 1456 L112 1456 L112 698 L323 698 Z " />
<glyph glyph-name="section" unicode="&#xa7;" horiz-adv-x="919" d="M709 190 C784 246 826 335 826 454 C826 699 712 795 507 882 C360 942 329 989 329 1107 C329 1207 366 1290 456 1290 C542 1290 583 1182 583 1049 L812 1049 C812 1325 676 1477 456 1477 C240 1477 98 1330 98 1105 C98 966 136 876 203 808 C128 751 85 661 85 544 C85 298 203 200 402 115 C545 53 583 -2 583 -109 C583 -214 541 -290 457 -290 C386 -290 314 -234 314 -50 L85 -51 C85 -374 271 -476 457 -476 C671 -476 813 -343 813 -106 C813 33 777 123 709 190 L709 190 Z M315 558 C315 620 326 673 350 706 C373 694 397 682 423 671 C563 611 601 550 601 440 C601 378 586 326 560 292 C537 303 513 314 487 325 C341 385 315 437 315 558 L315 558 Z " />
<glyph glyph-name="dieresis" unicode="&#xa8;" horiz-adv-x="795" d="M190 1485 C124 1485 76 1434 76 1370 C76 1306 124 1256 190 1256 C254 1256 302 1306 302 1370 C302 1434 254 1485 190 1485 L190 1485 Z M585 1483 C521 1483 473 1433 473 1368 C473 1305 521 1255 585 1255 C651 1255 697 1305 697 1368 C697 1433 651 1483 585 1483 L585 1483 Z " />
<glyph glyph-name="copyright" unicode="&#xa9;" horiz-adv-x="1314" d="M910 598 L786 598 C786 464 736 414 639 414 C536 414 483 519 483 671 L483 788 C483 938 536 1044 639 1044 C736 1044 786 992 786 861 L911 861 C911 1070 806 1174 639 1174 C467 1174 359 1016 359 787 L359 671 C359 441 467 284 639 284 C806 284 910 388 910 598 L910 598 Z M651 1476 C336 1476 79 1152 79 729 C79 306 336 -21 651 -21 C967 -21 1224 306 1224 729 C1224 1152 967 1476 651 1476 L651 1476 Z M651 100 C389 100 177 374 177 729 C177 1084 389 1355 651 1355 C914 1355 1125 1084 1125 729 C1125 374 914 100 651 100 L651 100 Z " />
<glyph glyph-name="guillemotleft" unicode="&#xab;" horiz-adv-x="754" d="M401 937 L259 937 L75 548 L75 529 L259 140 L401 140 L248 539 L401 937 Z M726 939 L584 939 L400 550 L400 531 L584 142 L726 142 L573 541 L726 939 Z " />
<glyph glyph-name="logicalnot" unicode="&#xac;" horiz-adv-x="810" d="M111 802 L111 638 L521 638 L521 376 L675 376 L675 802 L111 802 Z " />
<glyph glyph-name="uni00AD" unicode="&#xad;" horiz-adv-x="623" d="M512 529 L512 716 L120 716 L120 529 L512 529 Z " />
<glyph glyph-name="registered" unicode="&#xae;" horiz-adv-x="1315" d="M651 1476 C336 1476 79 1152 79 729 C79 306 336 -21 651 -21 C967 -21 1224 306 1224 729 C1224 1152 967 1476 651 1476 L651 1476 Z M899 515 C899 604 878 678 817 719 C872 759 902 832 902 907 C902 1079 801 1166 640 1166 L416 1166 L416 316 L534 316 L534 655 L664 655 C747 655 779 610 779 514 L779 460 C779 431 779 350 790 316 L914 316 L914 332 C903 362 899 409 899 459 L899 515 Z M651 100 C390 100 178 374 178 729 C178 1084 390 1355 651 1355 C914 1355 1125 1084 1125 729 C1125 374 914 100 651 100 L651 100 Z M645 784 L534 784 L534 1037 L640 1037 C746 1037 782 1002 782 904 C782 825 718 785 645 784 L645 784 Z " />
<glyph glyph-name="macron" unicode="&#xaf;" horiz-adv-x="770" d="M621 1298 L621 1449 L144 1449 L144 1298 L621 1298 Z " />
<glyph glyph-name="degree" unicode="&#xb0;" horiz-adv-x="662" d="M332 1477 C212 1477 112 1356 112 1210 C112 1063 212 947 332 947 C451 947 548 1063 548 1210 C548 1356 451 1477 332 1477 L332 1477 Z M332 1083 C277 1083 230 1137 230 1210 C230 1285 277 1342 332 1342 C387 1342 431 1285 431 1210 C431 1137 387 1083 332 1083 L332 1083 Z " />
<glyph glyph-name="plusminus" unicode="&#xb1;" horiz-adv-x="791" d="M109 1 L690 1 L690 189 L109 189 L109 1 Z M494 894 L494 1276 L294 1276 L294 894 L87 894 L87 704 L294 704 L294 311 L494 311 L494 704 L699 704 L699 894 L494 894 Z " />
<glyph glyph-name="uni00B2" unicode="&#xb2;" horiz-adv-x="567" d="M504 667 L504 810 L288 810 L354 921 C428 1052 492 1116 492 1227 C492 1377 413 1468 276 1468 C149 1468 67 1347 67 1201 L227 1201 C227 1270 246 1324 284 1324 C316 1324 335 1284 335 1226 C335 1187 317 1126 267 1055 L80 787 L80 667 L504 667 Z " />
<glyph glyph-name="uni00B3" unicode="&#xb3;" horiz-adv-x="567" d="M399 1072 C458 1104 498 1166 498 1242 C498 1389 407 1468 278 1468 C169 1468 71 1387 71 1245 L230 1245 C230 1294 253 1324 281 1324 C325 1324 339 1282 339 1232 C339 1173 320 1131 280 1131 L218 1131 L218 1007 L280 1007 C324 1007 347 978 347 901 C347 843 330 800 286 800 C246 800 223 843 223 896 L62 896 C62 725 176 656 276 656 C406 656 506 741 506 888 C506 984 464 1044 399 1072 L399 1072 Z " />
<glyph glyph-name="acute" unicode="&#xb4;" horiz-adv-x="566" d="M249 1536 L89 1236 L282 1236 L504 1536 L249 1536 Z " />
<glyph glyph-name="uni00B5" unicode="&#xb5;" horiz-adv-x="919" d="M558 1082 L558 266 C536 204 500 167 446 167 C380 167 344 217 344 461 L344 1082 L115 1082 L115 -416 L344 -416 L344 9 C371 -12 402 -21 439 -21 C492 -21 536 4 571 49 L574 0 L788 0 L788 1082 L558 1082 Z " />
<glyph glyph-name="paragraph" unicode="&#xb6;" horiz-adv-x="730" d="M452 0 L622 0 L622 1456 L403 1456 C190 1456 75 1256 75 988 C75 718 190 520 403 520 L452 520 L452 0 Z " />
<glyph glyph-name="periodcentered" unicode="&#xb7;" horiz-adv-x="488" d="M241 845 C164 845 114 788 114 715 C114 642 164 587 241 587 C318 587 367 642 367 715 C367 788 318 845 241 845 L241 845 Z " />
<glyph glyph-name="cedilla" unicode="&#xb8;" horiz-adv-x="429" d="M279 4 L108 4 L85 -135 C150 -144 175 -162 175 -223 C175 -289 155 -315 118 -315 L122 -448 C285 -448 366 -358 366 -226 C366 -110 318 -66 271 -53 L279 4 Z " />
<glyph glyph-name="uni00B9" unicode="&#xb9;" horiz-adv-x="567" d="M402 667 L402 1456 L388 1456 L127 1338 L127 1197 L243 1247 L243 667 L402 667 Z " />
<glyph glyph-name="guillemotright" unicode="&#xbb;" horiz-adv-x="755" d="M85 938 L237 539 L85 141 L227 141 L411 529 L411 548 L227 938 L85 938 Z M565 938 L423 938 L575 539 L423 141 L565 141 L749 529 L749 548 L565 938 Z " />
<glyph glyph-name="onequarter" unicode="&#xbc;" horiz-adv-x="1258" d="M961 312 L912 312 L912 789 L752 789 L752 787 L523 282 L533 166 L752 166 L752 0 L912 0 L912 166 L961 166 L961 312 Z M754 1326 L281 188 L388 119 L864 1257 L754 1326 Z M373 664 L373 1453 L359 1453 L98 1335 L98 1194 L214 1244 L214 664 L373 664 Z M671 312 L747 542 L752 551 L752 312 L671 312 Z " />
<glyph glyph-name="onehalf" unicode="&#xbd;" horiz-adv-x="1339" d="M814 143 L880 254 C954 385 1018 449 1018 560 C1018 710 939 801 802 801 C675 801 593 680 593 534 L753 534 C753 603 772 657 810 657 C842 657 861 617 861 559 C861 520 843 459 793 388 L606 120 L606 0 L1030 0 L1030 143 L814 143 Z M514 1318 L342 904 L342 1459 L328 1459 L67 1341 L67 1200 L183 1250 L183 670 L245 670 L41 180 L148 111 L624 1249 L514 1318 Z " />
<glyph glyph-name="threequarters" unicode="&#xbe;" horiz-adv-x="1431" d="M1202 312 L1153 312 L1153 789 L993 789 L993 787 L764 282 L774 166 L993 166 L993 0 L1153 0 L1153 166 L1202 166 L1202 312 Z M521 1314 C495 1415 415 1468 309 1468 C200 1468 102 1387 102 1245 L261 1245 C261 1294 284 1324 312 1324 C356 1324 370 1282 370 1232 C370 1173 351 1131 311 1131 L249 1131 L249 1007 L311 1007 C339 1007 358 996 369 968 L300 803 C271 813 254 851 254 896 L93 896 C93 761 164 690 243 666 L41 180 L148 111 L380 666 C473 692 537 770 537 888 C537 929 530 963 516 991 L624 1249 L521 1314 Z M912 312 L988 542 L993 551 L993 312 L912 312 Z " />
<glyph glyph-name="questiondown" unicode="&#xbf;" horiz-adv-x="750" d="M496 664 L294 664 C292 564 282 492 235 423 C150 303 69 179 69 0 C69 -246 187 -386 382 -386 C561 -386 699 -251 700 -1 L470 -1 C470 -132 423 -192 378 -192 C331 -192 298 -126 298 3 C298 130 338 196 396 286 C472 405 495 478 496 664 L496 664 Z M398 851 C474 851 523 906 523 978 C523 1048 474 1103 398 1103 C323 1103 274 1048 274 978 C274 906 323 851 398 851 L398 851 Z " />
<glyph glyph-name="Agrave" unicode="&#xc0;" horiz-adv-x="993" d="M714 0 L968 0 L606 1456 L387 1456 L27 0 L280 0 L346 345 L647 345 L714 0 Z M606 1547 L447 1847 L190 1847 L413 1547 L606 1547 Z M383 540 L496 1129 L610 540 L383 540 Z " />
<glyph glyph-name="Aacute" unicode="&#xc1;" horiz-adv-x="993" d="M714 0 L968 0 L606 1456 L387 1456 L27 0 L280 0 L346 345 L647 345 L714 0 Z M800 1847 L545 1847 L385 1547 L578 1547 L800 1847 Z M383 540 L496 1129 L610 540 L383 540 Z " />
<glyph glyph-name="Acircumflex" unicode="&#xc2;" horiz-adv-x="993" d="M714 0 L968 0 L606 1456 L387 1456 L27 0 L280 0 L346 345 L647 345 L714 0 Z M498 1720 L597 1561 L776 1561 L776 1572 L563 1847 L432 1847 L224 1574 L224 1561 L398 1561 L498 1720 Z M383 540 L496 1129 L610 540 L383 540 Z " />
<glyph glyph-name="Atilde" unicode="&#xc3;" horiz-adv-x="993" d="M714 0 L968 0 L606 1456 L387 1456 L27 0 L280 0 L346 345 L647 345 L714 0 Z M417 1662 C485 1662 516 1571 599 1571 C691 1571 757 1676 757 1822 L630 1834 C630 1771 606 1728 578 1728 C512 1728 463 1819 395 1819 C303 1819 238 1710 238 1564 L367 1557 C367 1619 389 1662 417 1662 L417 1662 Z M383 540 L496 1129 L610 540 L383 540 Z " />
<glyph glyph-name="Adieresis" unicode="&#xc4;" horiz-adv-x="993" d="M714 0 L968 0 L606 1456 L387 1456 L27 0 L280 0 L346 345 L647 345 L714 0 Z M292 1567 C356 1567 404 1617 404 1681 C404 1745 356 1796 292 1796 C226 1796 178 1745 178 1681 C178 1617 226 1567 292 1567 L292 1567 Z M687 1566 C753 1566 799 1616 799 1679 C799 1744 753 1794 687 1794 C623 1794 575 1744 575 1679 C575 1616 623 1566 687 1566 L687 1566 Z M383 540 L496 1129 L610 540 L383 540 Z " />
<glyph glyph-name="Aring" unicode="&#xc5;" horiz-adv-x="993" d="M714 0 L968 0 L606 1456 L387 1456 L27 0 L280 0 L346 345 L647 345 L714 0 Z M500 1528 C603 1528 678 1617 678 1731 C678 1844 603 1937 500 1937 C396 1937 322 1844 322 1731 C322 1617 396 1528 500 1528 L500 1528 Z M383 540 L496 1129 L610 540 L383 540 Z M500 1844 C552 1844 584 1791 584 1731 C584 1671 552 1618 500 1618 C448 1618 415 1672 415 1731 C415 1791 448 1844 500 1844 L500 1844 Z " />
<glyph glyph-name="AE" unicode="&#xc6;" horiz-adv-x="1351" d="M890 188 L876 660 L1187 660 L1187 847 L871 847 L859 1268 L1241 1268 L1241 1456 L529 1456 L24 0 L293 0 L400 346 L655 346 L665 0 L1282 0 L1282 188 L890 188 Z M463 551 L634 1104 L649 551 L463 551 Z " />
<glyph glyph-name="Ccedilla" unicode="&#xc7;" horiz-adv-x="950" d="M488 173 C356 173 320 329 320 592 L320 867 C320 1142 369 1283 489 1283 C609 1283 647 1202 652 977 L890 977 C872 1303 743 1477 489 1477 C237 1477 81 1251 81 865 L81 592 C81 250 196 35 402 -11 L380 -141 C445 -150 470 -168 470 -229 C470 -295 450 -321 413 -321 L417 -454 C580 -454 661 -364 661 -232 C661 -116 613 -72 566 -59 L573 -12 C767 25 878 194 889 473 L649 473 C645 247 599 173 488 173 L488 173 Z " />
<glyph glyph-name="Egrave" unicode="&#xc8;" horiz-adv-x="818" d="M339 193 L339 655 L701 655 L701 846 L339 846 L339 1262 L766 1262 L766 1456 L101 1456 L101 0 L767 0 L767 193 L339 193 Z M560 1554 L401 1854 L144 1854 L367 1554 L560 1554 Z " />
<glyph glyph-name="Eacute" unicode="&#xc9;" horiz-adv-x="818" d="M339 193 L339 655 L701 655 L701 846 L339 846 L339 1262 L766 1262 L766 1456 L101 1456 L101 0 L767 0 L767 193 L339 193 Z M754 1854 L499 1854 L339 1554 L532 1554 L754 1854 Z " />
<glyph glyph-name="Ecircumflex" unicode="&#xca;" horiz-adv-x="818" d="M339 193 L339 655 L701 655 L701 846 L339 846 L339 1262 L766 1262 L766 1456 L101 1456 L101 0 L767 0 L767 193 L339 193 Z M452 1727 L551 1568 L730 1568 L730 1579 L517 1854 L386 1854 L178 1581 L178 1568 L352 1568 L452 1727 Z " />
<glyph glyph-name="Edieresis" unicode="&#xcb;" horiz-adv-x="818" d="M339 193 L339 655 L701 655 L701 846 L339 846 L339 1262 L766 1262 L766 1456 L101 1456 L101 0 L767 0 L767 193 L339 193 Z M246 1574 C310 1574 358 1624 358 1688 C358 1752 310 1803 246 1803 C180 1803 132 1752 132 1688 C132 1624 180 1574 246 1574 L246 1574 Z M641 1573 C707 1573 753 1623 753 1686 C753 1751 707 1801 641 1801 C577 1801 529 1751 529 1686 C529 1623 577 1573 641 1573 L641 1573 Z " />
<glyph glyph-name="Igrave" unicode="&#xcc;" horiz-adv-x="462" d="M350 0 L350 1456 L113 1456 L113 0 L350 0 Z M338 1554 L179 1854 L-78 1854 L145 1554 L338 1554 Z " />
<glyph glyph-name="Iacute" unicode="&#xcd;" horiz-adv-x="462" d="M350 0 L350 1456 L113 1456 L113 0 L350 0 Z M277 1854 L117 1554 L310 1554 L532 1854 L277 1854 Z " />
<glyph glyph-name="Icircumflex" unicode="&#xce;" horiz-adv-x="462" d="M350 0 L350 1456 L113 1456 L113 0 L350 0 Z M508 1579 L295 1854 L164 1854 L-44 1581 L-44 1568 L130 1568 L230 1727 L329 1568 L508 1568 L508 1579 Z " />
<glyph glyph-name="Idieresis" unicode="&#xcf;" horiz-adv-x="462" d="M350 0 L350 1456 L113 1456 L113 0 L350 0 Z M24 1803 C-42 1803 -90 1752 -90 1688 C-90 1624 -42 1574 24 1574 C88 1574 136 1624 136 1688 C136 1752 88 1803 24 1803 L24 1803 Z M419 1801 C355 1801 307 1751 307 1686 C307 1623 355 1573 419 1573 C485 1573 531 1623 531 1686 C531 1751 485 1801 419 1801 L419 1801 Z " />
<glyph glyph-name="Eth" unicode="&#xd0;" horiz-adv-x="939" d="M409 1456 L101 1456 L101 820 L0 820 L0 656 L101 656 L101 0 L408 0 C678 0 855 210 855 602 L855 854 C855 1245 676 1456 409 1456 L409 1456 Z M616 602 C616 322 573 193 408 193 L339 193 L339 656 L485 656 L485 820 L339 820 L339 1262 L409 1262 C571 1262 616 1144 616 856 L616 602 Z " />
<glyph glyph-name="Ntilde" unicode="&#xd1;" horiz-adv-x="1016" d="M913 0 L913 1456 L676 1456 L676 494 L372 1456 L101 1456 L101 0 L339 0 L339 927 L656 0 L913 0 Z M770 1822 L643 1834 C643 1771 619 1728 591 1728 C525 1728 476 1819 408 1819 C316 1819 251 1710 251 1564 L380 1557 C380 1619 402 1662 430 1662 C498 1662 529 1571 612 1571 C704 1571 770 1676 770 1822 L770 1822 Z " />
<glyph glyph-name="Ograve" unicode="&#xd2;" horiz-adv-x="1002" d="M918 591 L918 855 C918 1267 749 1476 500 1476 C250 1476 83 1267 83 855 L83 591 C83 184 252 -20 501 -20 C750 -20 918 184 918 591 L918 591 Z M609 1548 L450 1848 L193 1848 L416 1548 L609 1548 Z M680 857 L680 591 C680 298 618 177 501 177 C383 177 320 298 320 591 L320 857 C320 1156 382 1278 500 1278 C617 1278 680 1156 680 857 L680 857 Z " />
<glyph glyph-name="Oacute" unicode="&#xd3;" horiz-adv-x="1002" d="M918 591 L918 855 C918 1267 749 1476 500 1476 C250 1476 83 1267 83 855 L83 591 C83 184 252 -20 501 -20 C750 -20 918 184 918 591 L918 591 Z M548 1848 L388 1548 L581 1548 L803 1848 L548 1848 Z M680 857 L680 591 C680 298 618 177 501 177 C383 177 320 298 320 591 L320 857 C320 1156 382 1278 500 1278 C617 1278 680 1156 680 857 L680 857 Z " />
<glyph glyph-name="Ocircumflex" unicode="&#xd4;" horiz-adv-x="1002" d="M918 591 L918 855 C918 1267 749 1476 500 1476 C250 1476 83 1267 83 855 L83 591 C83 184 252 -20 501 -20 C750 -20 918 184 918 591 L918 591 Z M779 1573 L566 1848 L435 1848 L227 1575 L227 1562 L401 1562 L501 1721 L600 1562 L779 1562 L779 1573 Z M680 857 L680 591 C680 298 618 177 501 177 C383 177 320 298 320 591 L320 857 C320 1156 382 1278 500 1278 C617 1278 680 1156 680 857 L680 857 Z " />
<glyph glyph-name="Otilde" unicode="&#xd5;" horiz-adv-x="1002" d="M918 591 L918 855 C918 1267 749 1476 500 1476 C250 1476 83 1267 83 855 L83 591 C83 184 252 -20 501 -20 C750 -20 918 184 918 591 L918 591 Z M760 1823 L633 1835 C633 1772 609 1729 581 1729 C515 1729 466 1820 398 1820 C306 1820 241 1711 241 1565 L370 1558 C370 1620 392 1663 420 1663 C488 1663 519 1572 602 1572 C694 1572 760 1677 760 1823 L760 1823 Z M680 857 L680 591 C680 298 618 177 501 177 C383 177 320 298 320 591 L320 857 C320 1156 382 1278 500 1278 C617 1278 680 1156 680 857 L680 857 Z " />
<glyph glyph-name="Odieresis" unicode="&#xd6;" horiz-adv-x="1002" d="M918 591 L918 855 C918 1267 749 1476 500 1476 C250 1476 83 1267 83 855 L83 591 C83 184 252 -20 501 -20 C750 -20 918 184 918 591 L918 591 Z M295 1797 C229 1797 181 1746 181 1682 C181 1618 229 1568 295 1568 C359 1568 407 1618 407 1682 C407 1746 359 1797 295 1797 L295 1797 Z M690 1795 C626 1795 578 1745 578 1680 C578 1617 626 1567 690 1567 C756 1567 802 1617 802 1680 C802 1745 756 1795 690 1795 L690 1795 Z M680 857 L680 591 C680 298 618 177 501 177 C383 177 320 298 320 591 L320 857 C320 1156 382 1278 500 1278 C617 1278 680 1156 680 857 L680 857 Z " />
<glyph glyph-name="multiply" unicode="&#xd7;" horiz-adv-x="784" d="M718 996 L584 1139 L389 841 L194 1139 L61 996 L276 668 L65 345 L198 202 L390 494 L581 202 L715 345 L503 668 L718 996 Z " />
<glyph glyph-name="Oslash" unicode="&#xd8;" horiz-adv-x="1220" d="M816 1323 L891 1516 L749 1516 L712 1422 C655 1458 588 1476 515 1476 C265 1476 98 1267 98 855 L98 591 C98 390 139 238 211 137 L121 -94 L263 -94 L314 36 C372 -1 440 -20 516 -20 C765 -20 933 184 933 591 L933 855 C933 1063 890 1219 816 1323 L816 1323 Z M695 591 C695 298 633 177 516 177 C466 177 426 199 396 247 L689 999 C693 957 695 910 695 857 L695 591 Z M335 591 L335 857 C335 1156 397 1278 515 1278 C563 1278 602 1258 631 1213 L340 466 C337 504 335 545 335 591 L335 591 Z " />
<glyph glyph-name="Ugrave" unicode="&#xd9;" horiz-adv-x="952" d="M858 1456 L619 1456 L619 440 C619 228 571 173 477 173 C383 173 333 228 333 440 L333 1456 L93 1456 L93 440 C93 108 251 -20 477 -20 C700 -20 858 108 858 440 L858 1456 Z M579 1547 L420 1847 L163 1847 L386 1547 L579 1547 Z " />
<glyph glyph-name="Uacute" unicode="&#xda;" horiz-adv-x="952" d="M858 1456 L619 1456 L619 440 C619 228 571 173 477 173 C383 173 333 228 333 440 L333 1456 L93 1456 L93 440 C93 108 251 -20 477 -20 C700 -20 858 108 858 440 L858 1456 Z M518 1847 L358 1547 L551 1547 L773 1847 L518 1847 Z " />
<glyph glyph-name="Ucircumflex" unicode="&#xdb;" horiz-adv-x="952" d="M858 1456 L619 1456 L619 440 C619 228 571 173 477 173 C383 173 333 228 333 440 L333 1456 L93 1456 L93 440 C93 108 251 -20 477 -20 C700 -20 858 108 858 440 L858 1456 Z M749 1572 L536 1847 L405 1847 L197 1574 L197 1561 L371 1561 L471 1720 L570 1561 L749 1561 L749 1572 Z " />
<glyph glyph-name="Udieresis" unicode="&#xdc;" horiz-adv-x="952" d="M858 1456 L619 1456 L619 440 C619 228 571 173 477 173 C383 173 333 228 333 440 L333 1456 L93 1456 L93 440 C93 108 251 -20 477 -20 C700 -20 858 108 858 440 L858 1456 Z M265 1796 C199 1796 151 1745 151 1681 C151 1617 199 1567 265 1567 C329 1567 377 1617 377 1681 C377 1745 329 1796 265 1796 L265 1796 Z M660 1794 C596 1794 548 1744 548 1679 C548 1616 596 1566 660 1566 C726 1566 772 1616 772 1679 C772 1744 726 1794 660 1794 L660 1794 Z " />
<glyph glyph-name="Yacute" unicode="&#xdd;" horiz-adv-x="905" d="M453 754 L282 1456 L23 1456 L333 537 L333 0 L574 0 L574 537 L882 1456 L623 1456 L453 754 Z M502 1846 L342 1546 L535 1546 L757 1846 L502 1846 Z " />
<glyph glyph-name="Thorn" unicode="&#xde;" horiz-adv-x="890" d="M460 1175 L334 1175 L334 1456 L104 1456 L104 0 L334 0 L334 302 L460 302 C701 302 833 487 833 738 C833 991 701 1175 460 1175 L460 1175 Z M460 489 L334 489 L334 993 L337 989 L460 989 C563 989 603 865 603 736 C603 611 563 489 460 489 L460 489 Z " />
<glyph glyph-name="germandbls" unicode="&#xdf;" horiz-adv-x="933" d="M342 0 L342 1106 C342 1294 377 1371 433 1371 C489 1371 524 1306 524 1191 C524 1036 454 991 454 820 C454 555 642 505 642 327 C642 234 612 167 557 167 C493 167 445 205 420 233 L379 46 C415 10 492 -20 560 -20 C770 -20 870 102 870 335 C870 589 682 663 682 825 C682 971 751 999 751 1205 C751 1442 619 1557 453 1557 C245 1557 114 1405 114 1108 L114 0 L342 0 Z " />
<glyph glyph-name="agrave" unicode="&#xe0;" horiz-adv-x="787" d="M697 249 L697 760 C697 1007 567 1102 404 1102 C202 1102 82 942 82 771 L311 771 C311 855 336 922 391 922 C442 922 468 882 468 764 L468 658 L407 658 C175 658 66 508 66 304 C66 97 175 -20 310 -20 C383 -20 437 17 476 88 C481 54 488 23 498 0 L728 0 L728 17 C709 74 697 154 697 249 L697 249 Z M497 1236 L338 1536 L81 1536 L304 1236 L497 1236 Z M368 167 C320 167 295 209 295 318 C295 437 330 512 413 512 L468 512 L468 256 C452 209 414 167 368 167 L368 167 Z " />
<glyph glyph-name="aacute" unicode="&#xe1;" horiz-adv-x="787" d="M697 249 L697 760 C697 1007 567 1102 404 1102 C202 1102 82 942 82 771 L311 771 C311 855 336 922 391 922 C442 922 468 882 468 764 L468 658 L407 658 C175 658 66 508 66 304 C66 97 175 -20 310 -20 C383 -20 437 17 476 88 C481 54 488 23 498 0 L728 0 L728 17 C709 74 697 154 697 249 L697 249 Z M691 1536 L436 1536 L276 1236 L469 1236 L691 1536 Z M368 167 C320 167 295 209 295 318 C295 437 330 512 413 512 L468 512 L468 256 C452 209 414 167 368 167 L368 167 Z " />
<glyph glyph-name="acircumflex" unicode="&#xe2;" horiz-adv-x="787" d="M697 249 L697 760 C697 1007 567 1102 404 1102 C202 1102 82 942 82 771 L311 771 C311 855 336 922 391 922 C442 922 468 882 468 764 L468 658 L407 658 C175 658 66 508 66 304 C66 97 175 -20 310 -20 C383 -20 437 17 476 88 C481 54 488 23 498 0 L728 0 L728 17 C709 74 697 154 697 249 L697 249 Z M389 1409 L488 1250 L667 1250 L667 1261 L454 1536 L323 1536 L115 1263 L115 1250 L289 1250 L389 1409 Z M368 167 C320 167 295 209 295 318 C295 437 330 512 413 512 L468 512 L468 256 C452 209 414 167 368 167 L368 167 Z " />
<glyph glyph-name="atilde" unicode="&#xe3;" horiz-adv-x="787" d="M697 249 L697 760 C697 1007 567 1102 404 1102 C202 1102 82 942 82 771 L311 771 C311 855 336 922 391 922 C442 922 468 882 468 764 L468 658 L407 658 C175 658 66 508 66 304 C66 97 175 -20 310 -20 C383 -20 437 17 476 88 C481 54 488 23 498 0 L728 0 L728 17 C709 74 697 154 697 249 L697 249 Z M308 1351 C376 1351 407 1260 490 1260 C582 1260 648 1365 648 1511 L521 1523 C521 1460 497 1417 469 1417 C403 1417 354 1508 286 1508 C194 1508 129 1399 129 1253 L258 1246 C258 1308 280 1351 308 1351 L308 1351 Z M368 167 C320 167 295 209 295 318 C295 437 330 512 413 512 L468 512 L468 256 C452 209 414 167 368 167 L368 167 Z " />
<glyph glyph-name="adieresis" unicode="&#xe4;" horiz-adv-x="787" d="M697 249 L697 760 C697 1007 567 1102 404 1102 C202 1102 82 942 82 771 L311 771 C311 855 336 922 391 922 C442 922 468 882 468 764 L468 658 L407 658 C175 658 66 508 66 304 C66 97 175 -20 310 -20 C383 -20 437 17 476 88 C481 54 488 23 498 0 L728 0 L728 17 C709 74 697 154 697 249 L697 249 Z M183 1256 C247 1256 295 1306 295 1370 C295 1434 247 1485 183 1485 C117 1485 69 1434 69 1370 C69 1306 117 1256 183 1256 L183 1256 Z M578 1255 C644 1255 690 1305 690 1368 C690 1433 644 1483 578 1483 C514 1483 466 1433 466 1368 C466 1305 514 1255 578 1255 L578 1255 Z M368 167 C320 167 295 209 295 318 C295 437 330 512 413 512 L468 512 L468 256 C452 209 414 167 368 167 L368 167 Z " />
<glyph glyph-name="aring" unicode="&#xe5;" horiz-adv-x="787" d="M697 249 L697 760 C697 1007 567 1102 404 1102 C202 1102 82 942 82 771 L311 771 C311 855 336 922 391 922 C442 922 468 882 468 764 L468 658 L407 658 C175 658 66 508 66 304 C66 97 175 -20 310 -20 C383 -20 437 17 476 88 C481 54 488 23 498 0 L728 0 L728 17 C709 74 697 154 697 249 L697 249 Z M391 1217 C494 1217 569 1306 569 1420 C569 1533 494 1626 391 1626 C287 1626 213 1533 213 1420 C213 1306 287 1217 391 1217 L391 1217 Z M368 167 C320 167 295 209 295 318 C295 437 330 512 413 512 L468 512 L468 256 C452 209 414 167 368 167 L368 167 Z M391 1533 C443 1533 475 1480 475 1420 C475 1360 443 1307 391 1307 C339 1307 306 1361 306 1420 C306 1480 339 1533 391 1533 L391 1533 Z " />
<glyph glyph-name="ae" unicode="&#xe6;" horiz-adv-x="1206" d="M1149 478 L1149 615 C1149 915 1033 1102 839 1102 C754 1102 684 1070 631 1012 C578 1072 504 1102 416 1102 C219 1102 91 963 91 773 L320 754 C320 842 355 916 413 916 C467 916 498 839 498 715 L498 643 L408 643 C185 643 66 522 66 311 C66 110 164 -21 342 -21 C465 -21 549 44 599 117 C659 30 745 -21 854 -21 C974 -21 1082 57 1129 102 L1071 260 C1018 218 972 167 880 167 C776 167 728 294 721 461 L721 478 L1149 478 Z M387 157 C324 157 295 221 295 307 C295 399 336 482 410 482 L498 482 L498 237 C467 193 423 157 387 157 L387 157 Z M839 916 C899 916 924 808 924 672 L924 643 L722 643 C728 801 759 916 839 916 L839 916 Z " />
<glyph glyph-name="ccedilla" unicode="&#xe7;" horiz-adv-x="769" d="M403 167 C304 167 294 283 294 489 L294 594 C294 797 305 916 400 916 C471 916 499 842 498 697 L714 697 C713 958 592 1102 406 1102 C176 1102 64 918 64 594 L64 489 C64 211 146 36 316 -9 L294 -141 C359 -150 384 -168 384 -229 C384 -295 364 -321 327 -321 L331 -454 C494 -454 575 -364 575 -232 C575 -116 527 -72 480 -59 L487 -9 C619 29 713 163 714 357 L498 357 C499 219 464 167 403 167 L403 167 Z " />
<glyph glyph-name="egrave" unicode="&#xe8;" horiz-adv-x="801" d="M746 472 L746 587 C746 933 632 1102 410 1102 C196 1102 72 945 72 581 L72 469 C72 141 206 -20 434 -20 C593 -20 687 63 731 140 L645 277 C599 212 533 167 458 167 C354 167 300 247 300 470 L300 472 L746 472 Z M492 1237 L333 1537 L76 1537 L299 1237 L492 1237 Z M412 916 C491 916 519 831 520 668 L520 643 L301 643 C305 840 335 916 412 916 L412 916 Z " />
<glyph glyph-name="eacute" unicode="&#xe9;" horiz-adv-x="801" d="M746 472 L746 587 C746 933 632 1102 410 1102 C196 1102 72 945 72 581 L72 469 C72 141 206 -20 434 -20 C593 -20 687 63 731 140 L645 277 C599 212 533 167 458 167 C354 167 300 247 300 470 L300 472 L746 472 Z M686 1537 L431 1537 L271 1237 L464 1237 L686 1537 Z M412 916 C491 916 519 831 520 668 L520 643 L301 643 C305 840 335 916 412 916 L412 916 Z " />
<glyph glyph-name="ecircumflex" unicode="&#xea;" horiz-adv-x="801" d="M746 472 L746 587 C746 933 632 1102 410 1102 C196 1102 72 945 72 581 L72 469 C72 141 206 -20 434 -20 C593 -20 687 63 731 140 L645 277 C599 212 533 167 458 167 C354 167 300 247 300 470 L300 472 L746 472 Z M384 1410 L483 1251 L662 1251 L662 1262 L449 1537 L318 1537 L110 1264 L110 1251 L284 1251 L384 1410 Z M412 916 C491 916 519 831 520 668 L520 643 L301 643 C305 840 335 916 412 916 L412 916 Z " />
<glyph glyph-name="edieresis" unicode="&#xeb;" horiz-adv-x="801" d="M746 472 L746 587 C746 933 632 1102 410 1102 C196 1102 72 945 72 581 L72 469 C72 141 206 -20 434 -20 C593 -20 687 63 731 140 L645 277 C599 212 533 167 458 167 C354 167 300 247 300 470 L300 472 L746 472 Z M178 1257 C242 1257 290 1307 290 1371 C290 1435 242 1486 178 1486 C112 1486 64 1435 64 1371 C64 1307 112 1257 178 1257 L178 1257 Z M573 1256 C639 1256 685 1306 685 1369 C685 1434 639 1484 573 1484 C509 1484 461 1434 461 1369 C461 1306 509 1256 573 1256 L573 1256 Z M412 916 C491 916 519 831 520 668 L520 643 L301 643 C305 840 335 916 412 916 L412 916 Z " />
<glyph glyph-name="igrave" unicode="&#xec;" horiz-adv-x="450" d="M338 0 L338 1082 L108 1082 L108 0 L338 0 Z M333 1228 L174 1528 L-83 1528 L140 1228 L333 1228 Z " />
<glyph glyph-name="iacute" unicode="&#xed;" horiz-adv-x="450" d="M338 0 L338 1082 L108 1082 L108 0 L338 0 Z M272 1528 L112 1228 L305 1228 L527 1528 L272 1528 Z " />
<glyph glyph-name="icircumflex" unicode="&#xee;" horiz-adv-x="450" d="M338 0 L338 1082 L108 1082 L108 0 L338 0 Z M503 1253 L290 1528 L159 1528 L-49 1255 L-49 1242 L125 1242 L225 1401 L324 1242 L503 1242 L503 1253 Z " />
<glyph glyph-name="idieresis" unicode="&#xef;" horiz-adv-x="450" d="M338 0 L338 1082 L108 1082 L108 0 L338 0 Z M19 1477 C-47 1477 -95 1426 -95 1362 C-95 1298 -47 1248 19 1248 C83 1248 131 1298 131 1362 C131 1426 83 1477 19 1477 L19 1477 Z M414 1475 C350 1475 302 1425 302 1360 C302 1297 350 1247 414 1247 C480 1247 526 1297 526 1360 C526 1425 480 1475 414 1475 L414 1475 Z " />
<glyph glyph-name="eth" unicode="&#xf0;" horiz-adv-x="837" d="M586 1315 L685 1407 L628 1512 L513 1405 C434 1488 341 1547 240 1580 L168 1395 C232 1366 297 1322 353 1258 L237 1151 L295 1045 L423 1163 C464 1095 497 1012 519 912 C478 950 429 973 374 973 C180 973 69 772 69 468 C69 196 207 -20 412 -20 C621 -20 774 214 774 554 L774 642 C774 921 703 1150 586 1315 L586 1315 Z M545 541 C545 327 503 167 415 167 C342 167 298 315 298 468 C298 667 343 792 427 792 C483 792 521 754 544 706 C545 686 545 665 545 644 L545 541 Z " />
<glyph glyph-name="ntilde" unicode="&#xf1;" horiz-adv-x="823" d="M508 1102 C426 1102 357 1055 307 972 L301 1082 L85 1082 L85 0 L314 0 L314 818 C335 876 366 913 410 913 C471 913 505 855 505 702 L505 0 L734 0 L734 701 C734 994 639 1102 508 1102 L508 1102 Z M329 1351 C397 1351 428 1260 511 1260 C603 1260 669 1365 669 1511 L542 1523 C542 1460 518 1417 490 1417 C424 1417 375 1508 307 1508 C215 1508 150 1399 150 1253 L279 1246 C279 1308 301 1351 329 1351 L329 1351 Z " />
<glyph glyph-name="ograve" unicode="&#xf2;" horiz-adv-x="830" d="M66 587 L66 495 C66 155 202 -20 416 -20 C627 -20 764 155 764 495 L764 587 C764 927 627 1102 414 1102 C202 1102 66 927 66 587 L66 587 Z M520 1236 L361 1536 L104 1536 L327 1236 L520 1236 Z M295 495 L295 587 C295 809 342 916 414 916 C489 916 534 809 534 587 L534 495 C534 270 493 167 416 167 C341 167 295 270 295 495 L295 495 Z " />
<glyph glyph-name="oacute" unicode="&#xf3;" horiz-adv-x="830" d="M66 587 L66 495 C66 155 202 -20 416 -20 C627 -20 764 155 764 495 L764 587 C764 927 627 1102 414 1102 C202 1102 66 927 66 587 L66 587 Z M459 1536 L299 1236 L492 1236 L714 1536 L459 1536 Z M295 495 L295 587 C295 809 342 916 414 916 C489 916 534 809 534 587 L534 495 C534 270 493 167 416 167 C341 167 295 270 295 495 L295 495 Z " />
<glyph glyph-name="ocircumflex" unicode="&#xf4;" horiz-adv-x="830" d="M66 587 L66 495 C66 155 202 -20 416 -20 C627 -20 764 155 764 495 L764 587 C764 927 627 1102 414 1102 C202 1102 66 927 66 587 L66 587 Z M690 1261 L477 1536 L346 1536 L138 1263 L138 1250 L312 1250 L412 1409 L511 1250 L690 1250 L690 1261 Z M295 495 L295 587 C295 809 342 916 414 916 C489 916 534 809 534 587 L534 495 C534 270 493 167 416 167 C341 167 295 270 295 495 L295 495 Z " />
<glyph glyph-name="otilde" unicode="&#xf5;" horiz-adv-x="830" d="M66 587 L66 495 C66 155 202 -20 416 -20 C627 -20 764 155 764 495 L764 587 C764 927 627 1102 414 1102 C202 1102 66 927 66 587 L66 587 Z M671 1511 L544 1523 C544 1460 520 1417 492 1417 C426 1417 377 1508 309 1508 C217 1508 152 1399 152 1253 L281 1246 C281 1308 303 1351 331 1351 C399 1351 430 1260 513 1260 C605 1260 671 1365 671 1511 L671 1511 Z M295 495 L295 587 C295 809 342 916 414 916 C489 916 534 809 534 587 L534 495 C534 270 493 167 416 167 C341 167 295 270 295 495 L295 495 Z " />
<glyph glyph-name="odieresis" unicode="&#xf6;" horiz-adv-x="830" d="M66 587 L66 495 C66 155 202 -20 416 -20 C627 -20 764 155 764 495 L764 587 C764 927 627 1102 414 1102 C202 1102 66 927 66 587 L66 587 Z M206 1485 C140 1485 92 1434 92 1370 C92 1306 140 1256 206 1256 C270 1256 318 1306 318 1370 C318 1434 270 1485 206 1485 L206 1485 Z M601 1483 C537 1483 489 1433 489 1368 C489 1305 537 1255 601 1255 C667 1255 713 1305 713 1368 C713 1433 667 1483 601 1483 L601 1483 Z M295 495 L295 587 C295 809 342 916 414 916 C489 916 534 809 534 587 L534 495 C534 270 493 167 416 167 C341 167 295 270 295 495 L295 495 Z " />
<glyph glyph-name="divide" unicode="&#xf7;" horiz-adv-x="834" d="M413 409 C335 409 286 355 286 281 C286 209 335 154 413 154 C489 154 538 209 538 281 C538 355 489 409 413 409 L413 409 Z M760 589 L760 792 L66 792 L66 589 L760 589 Z M413 1224 C335 1224 286 1168 286 1094 C286 1022 335 967 413 967 C489 967 538 1022 538 1094 C538 1168 489 1224 413 1224 L413 1224 Z " />
<glyph glyph-name="oslash" unicode="&#xf8;" horiz-adv-x="1006" d="M635 1021 L698 1213 L575 1213 L533 1084 C499 1096 462 1102 423 1102 C211 1102 75 927 75 587 L75 495 C75 297 121 154 202 70 L134 -139 L255 -139 L301 3 C339 -12 380 -20 425 -20 C636 -20 773 155 773 495 L773 587 C773 793 723 939 635 1021 L635 1021 Z M543 495 C543 270 502 167 425 167 C402 167 382 177 365 196 L536 720 C541 681 543 637 543 587 L543 495 Z M304 495 L304 587 C304 809 351 916 423 916 C441 916 458 910 472 897 L308 393 C305 424 304 458 304 495 L304 495 Z " />
<glyph glyph-name="ugrave" unicode="&#xf9;" horiz-adv-x="823" d="M505 1082 L505 270 C485 208 450 170 395 170 C348 170 315 220 315 381 L315 1082 L86 1082 L86 383 C86 96 184 -20 326 -20 C407 -20 469 24 514 99 L519 0 L735 0 L735 1082 L505 1082 Z M516 1236 L357 1536 L100 1536 L323 1236 L516 1236 Z " />
<glyph glyph-name="uacute" unicode="&#xfa;" horiz-adv-x="823" d="M505 1082 L505 270 C485 208 450 170 395 170 C348 170 315 220 315 381 L315 1082 L86 1082 L86 383 C86 96 184 -20 326 -20 C407 -20 469 24 514 99 L519 0 L735 0 L735 1082 L505 1082 Z M710 1536 L455 1536 L295 1236 L488 1236 L710 1536 Z " />
<glyph glyph-name="ucircumflex" unicode="&#xfb;" horiz-adv-x="823" d="M505 1082 L505 270 C485 208 450 170 395 170 C348 170 315 220 315 381 L315 1082 L86 1082 L86 383 C86 96 184 -20 326 -20 C407 -20 469 24 514 99 L519 0 L735 0 L735 1082 L505 1082 Z M408 1409 L507 1250 L686 1250 L686 1261 L473 1536 L342 1536 L134 1263 L134 1250 L308 1250 L408 1409 Z " />
<glyph glyph-name="udieresis" unicode="&#xfc;" horiz-adv-x="823" d="M505 1082 L505 270 C485 208 450 170 395 170 C348 170 315 220 315 381 L315 1082 L86 1082 L86 383 C86 96 184 -20 326 -20 C407 -20 469 24 514 99 L519 0 L735 0 L735 1082 L505 1082 Z M202 1256 C266 1256 314 1306 314 1370 C314 1434 266 1485 202 1485 C136 1485 88 1434 88 1370 C88 1306 136 1256 202 1256 L202 1256 Z M597 1255 C663 1255 709 1305 709 1368 C709 1433 663 1483 597 1483 C533 1483 485 1433 485 1368 C485 1305 533 1255 597 1255 L597 1255 Z " />
<glyph glyph-name="yacute" unicode="&#xfd;" horiz-adv-x="751" d="M481 1082 L375 310 L269 1082 L23 1082 L274 -24 L263 -44 C247 -188 209 -243 137 -243 C127 -243 119 -242 110 -241 L110 -420 C147 -428 161 -437 203 -437 C362 -437 419 -273 444 -166 L728 1082 L481 1082 Z M677 1536 L422 1536 L262 1236 L455 1236 L677 1536 Z " />
<glyph glyph-name="thorn" unicode="&#xfe;" horiz-adv-x="832" d="M481 1102 C414 1102 362 1073 322 1021 L322 1536 L92 1536 L92 -416 L322 -416 L322 63 C363 10 415 -20 483 -20 C667 -20 765 214 765 531 L765 552 C765 881 667 1102 481 1102 L481 1102 Z M536 531 C536 333 508 167 421 167 C371 167 340 201 322 254 L322 816 C341 876 372 913 420 913 C505 913 536 752 536 552 L536 531 Z " />
<glyph glyph-name="ydieresis" unicode="&#xff;" horiz-adv-x="751" d="M481 1082 L375 310 L269 1082 L23 1082 L274 -24 L263 -44 C247 -188 209 -243 137 -243 C127 -243 119 -242 110 -241 L110 -420 C147 -428 161 -437 203 -437 C362 -437 419 -273 444 -166 L728 1082 L481 1082 Z M169 1256 C233 1256 281 1306 281 1370 C281 1434 233 1485 169 1485 C103 1485 55 1434 55 1370 C55 1306 103 1256 169 1256 L169 1256 Z M564 1255 C630 1255 676 1305 676 1368 C676 1433 630 1483 564 1483 C500 1483 452 1433 452 1368 C452 1305 500 1255 564 1255 L564 1255 Z " />
<glyph glyph-name="Amacron" unicode="&#x100;" horiz-adv-x="993" d="M714 0 L968 0 L606 1456 L387 1456 L27 0 L280 0 L346 345 L647 345 L714 0 Z M736 1763 L259 1763 L259 1612 L736 1612 L736 1763 Z M383 540 L496 1129 L610 540 L383 540 Z " />
<glyph glyph-name="amacron" unicode="&#x101;" horiz-adv-x="787" d="M697 249 L697 760 C697 1007 567 1102 404 1102 C202 1102 82 942 82 771 L311 771 C311 855 336 922 391 922 C442 922 468 882 468 764 L468 658 L407 658 C175 658 66 508 66 304 C66 97 175 -20 310 -20 C383 -20 437 17 476 88 C481 54 488 23 498 0 L728 0 L728 17 C709 74 697 154 697 249 L697 249 Z M627 1452 L150 1452 L150 1301 L627 1301 L627 1452 Z M368 167 C320 167 295 209 295 318 C295 437 330 512 413 512 L468 512 L468 256 C452 209 414 167 368 167 L368 167 Z " />
<glyph glyph-name="Abreve" unicode="&#x102;" horiz-adv-x="993" d="M714 0 L968 0 L606 1456 L387 1456 L27 0 L280 0 L346 345 L647 345 L714 0 Z M491 1540 C663 1540 772 1656 772 1820 L604 1820 C604 1746 573 1678 491 1678 C407 1678 376 1746 376 1820 L208 1820 C208 1656 317 1540 491 1540 L491 1540 Z M383 540 L496 1129 L610 540 L383 540 Z " />
<glyph glyph-name="abreve" unicode="&#x103;" horiz-adv-x="787" d="M697 249 L697 760 C697 1007 567 1102 404 1102 C202 1102 82 942 82 771 L311 771 C311 855 336 922 391 922 C442 922 468 882 468 764 L468 658 L407 658 C175 658 66 508 66 304 C66 97 175 -20 310 -20 C383 -20 437 17 476 88 C481 54 488 23 498 0 L728 0 L728 17 C709 74 697 154 697 249 L697 249 Z M382 1229 C554 1229 663 1345 663 1509 L495 1509 C495 1435 464 1367 382 1367 C298 1367 267 1435 267 1509 L99 1509 C99 1345 208 1229 382 1229 L382 1229 Z M368 167 C320 167 295 209 295 318 C295 437 330 512 413 512 L468 512 L468 256 C452 209 414 167 368 167 L368 167 Z " />
<glyph glyph-name="Aogonek" unicode="&#x104;" horiz-adv-x="993" d="M840 -272 C812 -272 800 -244 800 -203 C800 -123 830 -61 899 0 L968 0 L606 1456 L387 1456 L27 0 L280 0 L346 345 L647 345 L714 1 C648 -69 632 -150 632 -230 C632 -360 706 -429 795 -429 C851 -429 887 -405 910 -385 L888 -248 C876 -257 863 -272 840 -272 L840 -272 Z M383 540 L496 1129 L610 540 L383 540 Z " />
<glyph glyph-name="aogonek" unicode="&#x105;" horiz-adv-x="787" d="M688 0 L728 0 L728 17 C709 74 697 154 697 249 L697 760 C697 1007 567 1102 404 1102 C202 1102 82 942 82 771 L311 771 C311 855 336 922 391 922 C442 922 468 882 468 764 L468 658 L407 658 C175 658 66 508 66 304 C66 97 175 -20 310 -20 C383 -20 437 17 476 88 C481 54 488 23 498 0 L502 0 C437 -70 421 -150 421 -230 C421 -360 495 -429 584 -429 C640 -429 676 -405 699 -385 L677 -248 C665 -257 652 -272 629 -272 C601 -272 589 -244 589 -203 C589 -123 619 -61 688 0 L688 0 Z M368 167 C320 167 295 209 295 318 C295 437 330 512 413 512 L468 512 L468 256 C452 209 414 167 368 167 L368 167 Z " />
<glyph glyph-name="Cacute" unicode="&#x106;" horiz-adv-x="950" d="M889 473 L649 473 C645 247 599 173 488 173 C356 173 320 329 320 592 L320 867 C320 1142 369 1283 489 1283 C609 1283 647 1202 652 977 L890 977 C872 1303 743 1477 489 1477 C237 1477 81 1251 81 865 L81 592 C81 205 229 -20 488 -20 C734 -20 877 156 889 473 L889 473 Z M534 1868 L374 1568 L567 1568 L789 1868 L534 1868 Z " />
<glyph glyph-name="cacute" unicode="&#x107;" horiz-adv-x="769" d="M498 357 C499 219 464 167 403 167 C304 167 294 283 294 489 L294 594 C294 797 305 916 400 916 C471 916 499 842 498 697 L714 697 C713 958 592 1102 406 1102 C176 1102 64 918 64 594 L64 489 C64 165 175 -20 408 -20 C579 -20 713 126 714 357 L498 357 Z M427 1536 L267 1236 L460 1236 L682 1536 L427 1536 Z " />
<glyph glyph-name="Cdotaccent" unicode="&#x10a;" horiz-adv-x="950" d="M889 473 L649 473 C645 247 599 173 488 173 C356 173 320 329 320 592 L320 867 C320 1142 369 1283 489 1283 C609 1283 647 1202 652 977 L890 977 C872 1303 743 1477 489 1477 C237 1477 81 1251 81 865 L81 592 C81 205 229 -20 488 -20 C734 -20 877 156 889 473 L889 473 Z M484 1830 C411 1830 363 1779 363 1711 C363 1644 411 1592 484 1592 C556 1592 604 1644 604 1711 C604 1779 556 1830 484 1830 L484 1830 Z " />
<glyph glyph-name="cdotaccent" unicode="&#x10b;" horiz-adv-x="769" d="M498 357 C499 219 464 167 403 167 C304 167 294 283 294 489 L294 594 C294 797 305 916 400 916 C471 916 499 842 498 697 L714 697 C713 958 592 1102 406 1102 C176 1102 64 918 64 594 L64 489 C64 165 175 -20 408 -20 C579 -20 713 126 714 357 L498 357 Z M377 1498 C304 1498 256 1447 256 1379 C256 1312 304 1260 377 1260 C449 1260 497 1312 497 1379 C497 1447 449 1498 377 1498 L377 1498 Z " />
<glyph glyph-name="Ccaron" unicode="&#x10c;" horiz-adv-x="950" d="M889 473 L649 473 C645 247 599 173 488 173 C356 173 320 329 320 592 L320 867 C320 1142 369 1283 489 1283 C609 1283 647 1202 652 977 L890 977 C872 1303 743 1477 489 1477 C237 1477 81 1251 81 865 L81 592 C81 205 229 -20 488 -20 C734 -20 877 156 889 473 L889 473 Z M487 1710 L396 1868 L201 1868 L201 1858 L416 1581 L559 1581 L774 1857 L774 1868 L579 1868 L487 1710 Z " />
<glyph glyph-name="ccaron" unicode="&#x10d;" horiz-adv-x="769" d="M498 357 C499 219 464 167 403 167 C304 167 294 283 294 489 L294 594 C294 797 305 916 400 916 C471 916 499 842 498 697 L714 697 C713 958 592 1102 406 1102 C176 1102 64 918 64 594 L64 489 C64 165 175 -20 408 -20 C579 -20 713 126 714 357 L498 357 Z M380 1378 L289 1536 L94 1536 L94 1526 L309 1249 L452 1249 L667 1525 L667 1536 L472 1536 L380 1378 Z " />
<glyph glyph-name="Dcaron" unicode="&#x10e;" horiz-adv-x="939" d="M409 1456 L101 1456 L101 0 L408 0 C678 0 855 210 855 602 L855 854 C855 1245 676 1456 409 1456 L409 1456 Z M436 1567 L651 1843 L651 1854 L456 1854 L364 1696 L273 1854 L78 1854 L78 1844 L293 1567 L436 1567 Z M616 602 C616 322 573 193 408 193 L339 193 L339 1262 L409 1262 C571 1262 616 1144 616 856 L616 602 Z " />
<glyph glyph-name="dcaron" unicode="&#x10f;" horiz-adv-x="1129" d="M504 1536 L504 1113 L500 1113 L500 1031 L500 1006 C459 1068 406 1102 339 1102 C156 1102 60 943 60 585 L60 495 C60 151 157 -20 338 -20 C415 -20 473 25 516 104 L526 -1 L734 0 L734 1536 L504 1536 Z M405 170 C317 170 291 267 291 495 L291 585 C291 813 319 913 405 913 C435 913 460 897 479 870 C471 840 461 811 449 783 L504 746 L504 256 C484 203 453 170 405 170 L405 170 Z " />
<glyph glyph-name="Dcroat" unicode="&#x110;" horiz-adv-x="939" d="M409 1456 L101 1456 L101 820 L0 820 L0 656 L101 656 L101 0 L408 0 C678 0 855 210 855 602 L855 854 C855 1245 676 1456 409 1456 L409 1456 Z M616 602 C616 322 573 193 408 193 L339 193 L339 656 L485 656 L485 820 L339 820 L339 1262 L409 1262 C571 1262 616 1144 616 856 L616 602 Z " />
<glyph glyph-name="dcroat" unicode="&#x111;" horiz-adv-x="939" d="M837 1392 L734 1392 L734 1536 L504 1536 L504 1392 L351 1392 L351 1228 L504 1228 L504 1016 C463 1071 411 1102 345 1102 C162 1102 60 880 60 550 L60 529 C60 213 163 -20 345 -20 C418 -20 475 19 518 88 L527 0 L734 0 L734 1228 L837 1228 L837 1392 Z M405 170 C317 170 291 330 291 529 L291 550 C291 750 319 913 405 913 C450 913 483 873 504 809 L504 266 C484 207 453 170 405 170 L405 170 Z " />
<glyph glyph-name="Emacron" unicode="&#x112;" horiz-adv-x="818" d="M339 193 L339 655 L701 655 L701 846 L339 846 L339 1262 L766 1262 L766 1456 L101 1456 L101 0 L767 0 L767 193 L339 193 Z M690 1770 L213 1770 L213 1619 L690 1619 L690 1770 Z " />
<glyph glyph-name="emacron" unicode="&#x113;" horiz-adv-x="801" d="M746 472 L746 587 C746 933 632 1102 410 1102 C196 1102 72 945 72 581 L72 469 C72 141 206 -20 434 -20 C593 -20 687 63 731 140 L645 277 C599 212 533 167 458 167 C354 167 300 247 300 470 L300 472 L746 472 Z M622 1453 L145 1453 L145 1302 L622 1302 L622 1453 Z M412 916 C491 916 519 831 520 668 L520 643 L301 643 C305 840 335 916 412 916 L412 916 Z " />
<glyph glyph-name="Edotaccent" unicode="&#x116;" horiz-adv-x="818" d="M339 193 L339 655 L701 655 L701 846 L339 846 L339 1262 L766 1262 L766 1456 L101 1456 L101 0 L767 0 L767 193 L339 193 Z M449 1578 C521 1578 569 1630 569 1697 C569 1765 521 1816 449 1816 C376 1816 328 1765 328 1697 C328 1630 376 1578 449 1578 L449 1578 Z " />
<glyph glyph-name="edotaccent" unicode="&#x117;" horiz-adv-x="801" d="M746 472 L746 587 C746 933 632 1102 410 1102 C196 1102 72 945 72 581 L72 469 C72 141 206 -20 434 -20 C593 -20 687 63 731 140 L645 277 C599 212 533 167 458 167 C354 167 300 247 300 470 L300 472 L746 472 Z M381 1261 C453 1261 501 1313 501 1380 C501 1448 453 1499 381 1499 C308 1499 260 1448 260 1380 C260 1313 308 1261 381 1261 L381 1261 Z M412 916 C491 916 519 831 520 668 L520 643 L301 643 C305 840 335 916 412 916 L412 916 Z " />
<glyph glyph-name="Eogonek" unicode="&#x118;" horiz-adv-x="818" d="M649 0 L767 0 L767 193 L339 193 L339 655 L701 655 L701 846 L339 846 L339 1262 L766 1262 L766 1456 L101 1456 L101 0 L463 0 C398 -70 382 -150 382 -230 C382 -360 456 -429 545 -429 C601 -429 637 -405 660 -385 L638 -248 C626 -257 613 -272 590 -272 C562 -272 550 -244 550 -203 C550 -123 580 -61 649 0 L649 0 Z " />
<glyph glyph-name="eogonek" unicode="&#x119;" horiz-adv-x="801" d="M746 472 L746 587 C746 933 632 1102 410 1102 C196 1102 72 945 72 581 L72 469 C72 166 186 6 383 -17 C347 -75 337 -138 337 -201 C337 -331 411 -400 500 -400 C556 -400 592 -376 615 -356 L593 -219 C581 -228 568 -243 545 -243 C517 -243 505 -215 505 -174 C505 -103 529 -46 583 9 C655 40 703 91 731 140 L645 277 C599 212 533 167 458 167 C354 167 300 247 300 470 L300 472 L746 472 Z M412 916 C491 916 519 831 520 668 L520 643 L301 643 C305 840 335 916 412 916 L412 916 Z " />
<glyph glyph-name="Ecaron" unicode="&#x11a;" horiz-adv-x="818" d="M339 193 L339 655 L701 655 L701 846 L339 846 L339 1262 L766 1262 L766 1456 L101 1456 L101 0 L767 0 L767 193 L339 193 Z M524 1567 L739 1843 L739 1854 L544 1854 L452 1696 L361 1854 L166 1854 L166 1844 L381 1567 L524 1567 Z " />
<glyph glyph-name="ecaron" unicode="&#x11b;" horiz-adv-x="801" d="M746 472 L746 587 C746 933 632 1102 410 1102 C196 1102 72 945 72 581 L72 469 C72 141 206 -20 434 -20 C593 -20 687 63 731 140 L645 277 C599 212 533 167 458 167 C354 167 300 247 300 470 L300 472 L746 472 Z M456 1250 L671 1526 L671 1537 L476 1537 L384 1379 L293 1537 L98 1537 L98 1527 L313 1250 L456 1250 Z M412 916 C491 916 519 831 520 668 L520 643 L301 643 C305 840 335 916 412 916 L412 916 Z " />
<glyph glyph-name="Gbreve" unicode="&#x11e;" horiz-adv-x="970" d="M892 173 L892 743 L491 743 L491 559 L653 559 L653 250 C635 230 604 173 524 173 C387 173 324 298 324 591 L324 869 C324 1157 383 1283 503 1283 C605 1283 649 1200 661 1015 L891 1015 C873 1313 759 1477 495 1477 C243 1477 86 1278 86 867 L86 591 C86 178 251 -20 509 -20 C727 -20 842 109 892 173 L892 173 Z M765 1841 L597 1841 C597 1767 566 1699 484 1699 C400 1699 369 1767 369 1841 L201 1841 C201 1677 310 1561 484 1561 C656 1561 765 1677 765 1841 L765 1841 Z " />
<glyph glyph-name="gbreve" unicode="&#x11f;" horiz-adv-x="840" d="M543 1082 L535 992 C495 1062 439 1102 355 1102 C171 1102 65 944 65 586 L65 495 C65 152 172 -19 354 -19 C426 -19 481 18 521 82 L521 -15 C521 -187 472 -244 381 -244 C315 -244 242 -208 201 -143 L126 -298 C188 -384 310 -426 391 -426 C607 -426 750 -300 750 -9 L750 1082 L543 1082 Z M388 1229 C560 1229 669 1345 669 1509 L501 1509 C501 1435 470 1367 388 1367 C304 1367 273 1435 273 1509 L105 1509 C105 1345 214 1229 388 1229 L388 1229 Z M421 171 C333 171 294 268 294 495 L294 586 C294 814 335 913 422 913 C468 913 500 883 521 834 L521 244 C501 199 469 171 421 171 L421 171 Z " />
<glyph glyph-name="Gdotaccent" unicode="&#x120;" horiz-adv-x="970" d="M892 173 L892 743 L491 743 L491 559 L653 559 L653 250 C635 230 604 173 524 173 C387 173 324 298 324 591 L324 869 C324 1157 383 1283 503 1283 C605 1283 649 1200 661 1015 L891 1015 C873 1313 759 1477 495 1477 C243 1477 86 1278 86 867 L86 591 C86 178 251 -20 509 -20 C727 -20 842 109 892 173 L892 173 Z M488 1830 C415 1830 367 1779 367 1711 C367 1644 415 1592 488 1592 C560 1592 608 1644 608 1711 C608 1779 560 1830 488 1830 L488 1830 Z " />
<glyph glyph-name="gdotaccent" unicode="&#x121;" horiz-adv-x="840" d="M543 1082 L535 992 C495 1062 439 1102 355 1102 C171 1102 65 944 65 586 L65 495 C65 152 172 -19 354 -19 C426 -19 481 18 521 82 L521 -15 C521 -187 472 -244 381 -244 C315 -244 242 -208 201 -143 L126 -298 C188 -384 310 -426 391 -426 C607 -426 750 -300 750 -9 L750 1082 L543 1082 Z M392 1260 C464 1260 512 1312 512 1379 C512 1447 464 1498 392 1498 C319 1498 271 1447 271 1379 C271 1312 319 1260 392 1260 L392 1260 Z M421 171 C333 171 294 268 294 495 L294 586 C294 814 335 913 422 913 C468 913 500 883 521 834 L521 244 C501 199 469 171 421 171 L421 171 Z " />
<glyph glyph-name="Gcommaaccent" unicode="&#x122;" horiz-adv-x="1197" d="M892 173 L892 743 L491 743 L491 559 L653 559 L653 250 C635 230 604 173 524 173 C387 173 324 298 324 591 L324 869 C324 1157 383 1283 503 1283 C605 1283 649 1200 661 1015 L891 1015 C873 1313 759 1477 495 1477 C243 1477 86 1278 86 867 L86 591 C86 178 251 -20 509 -20 C727 -20 842 109 892 173 L892 173 Z M164 -591 L164 -518 L-1 -518 L-1 -600 C-1 -700 -22 -774 -52 -848 L58 -922 C118 -840 164 -705 164 -591 L164 -591 Z " />
<glyph glyph-name="gcommaaccent" unicode="&#x123;" horiz-adv-x="840" d="M543 1082 L535 992 C495 1062 439 1102 355 1102 C171 1102 65 944 65 586 L65 495 C65 152 172 -19 354 -19 C426 -19 481 18 521 82 L521 -15 C521 -187 472 -244 381 -244 C315 -244 242 -208 201 -143 L126 -298 C188 -384 310 -426 391 -426 C607 -426 750 -300 750 -9 L750 1082 L543 1082 Z M478 1378 C478 1472 503 1547 526 1618 L411 1697 C347 1641 304 1516 304 1389 L304 1256 L477 1256 L478 1378 Z M421 171 C333 171 294 268 294 495 L294 586 C294 814 335 913 422 913 C468 913 500 883 521 834 L521 244 C501 199 469 171 421 171 L421 171 Z " />
<glyph glyph-name="Hbar" unicode="&#x126;" horiz-adv-x="1282" d="M1012 1192 L944 1192 L944 1456 L705 1456 L705 1192 L367 1192 L367 1456 L129 1456 L129 1192 L50 1192 L50 1037 L129 1037 L129 0 L367 0 L367 653 L705 653 L705 0 L944 0 L944 1037 L1012 1037 L1012 1192 Z M705 846 L367 846 L367 1037 L705 1037 L705 846 Z " />
<glyph glyph-name="hbar" unicode="&#x127;" horiz-adv-x="821" d="M499 1102 C422 1102 359 1060 313 988 L313 1227 L463 1227 L463 1391 L313 1391 L313 1536 L84 1536 L84 1391 L-22 1391 L-22 1227 L84 1227 L84 0 L313 0 L313 831 C333 882 362 913 406 913 C470 913 504 856 504 699 L504 0 L733 0 L733 697 C733 991 632 1102 499 1102 L499 1102 Z " />
<glyph glyph-name="Itilde" unicode="&#x128;" horiz-adv-x="462" d="M350 0 L350 1456 L113 1456 L113 0 L350 0 Z M489 1829 L362 1841 C362 1778 338 1735 310 1735 C244 1735 195 1826 127 1826 C35 1826 -30 1717 -30 1571 L99 1564 C99 1626 121 1669 149 1669 C217 1669 248 1578 331 1578 C423 1578 489 1683 489 1829 L489 1829 Z " />
<glyph glyph-name="itilde" unicode="&#x129;" horiz-adv-x="450" d="M338 0 L338 1082 L108 1082 L108 0 L338 0 Z M484 1503 L357 1515 C357 1452 333 1409 305 1409 C239 1409 190 1500 122 1500 C30 1500 -35 1391 -35 1245 L94 1238 C94 1300 116 1343 144 1343 C212 1343 243 1252 326 1252 C418 1252 484 1357 484 1503 L484 1503 Z " />
<glyph glyph-name="Imacron" unicode="&#x12a;" horiz-adv-x="462" d="M350 0 L350 1456 L113 1456 L113 0 L350 0 Z M468 1619 L468 1770 L-9 1770 L-9 1619 L468 1619 Z " />
<glyph glyph-name="imacron" unicode="&#x12b;" horiz-adv-x="450" d="M338 0 L338 1082 L108 1082 L108 0 L338 0 Z M463 1293 L463 1444 L-14 1444 L-14 1293 L463 1293 Z " />
<glyph glyph-name="Iogonek" unicode="&#x12e;" horiz-adv-x="462" d="M303 0 L350 0 L350 1456 L113 1456 L113 0 L117 0 C52 -70 36 -150 36 -230 C36 -360 110 -429 199 -429 C255 -429 291 -405 314 -385 L292 -248 C280 -257 267 -272 244 -272 C216 -272 204 -244 204 -203 C204 -123 234 -61 303 0 L303 0 Z " />
<glyph glyph-name="iogonek" unicode="&#x12f;" horiz-adv-x="432" d="M100 0 L110 0 C45 -70 29 -150 29 -230 C29 -360 103 -429 192 -429 C248 -429 284 -405 307 -385 L285 -248 C273 -257 260 -272 237 -272 C209 -272 197 -244 197 -203 C197 -123 227 -61 296 0 L331 0 L331 1082 L100 1082 L100 0 Z M215 1244 C291 1244 340 1297 340 1368 C340 1438 291 1492 215 1492 C140 1492 90 1438 90 1368 C90 1297 140 1244 215 1244 L215 1244 Z " />
<glyph glyph-name="Idotaccent" unicode="&#x130;" horiz-adv-x="462" d="M350 0 L350 1456 L113 1456 L113 0 L350 0 Z M227 1816 C154 1816 106 1765 106 1697 C106 1630 154 1578 227 1578 C299 1578 347 1630 347 1697 C347 1765 299 1816 227 1816 L227 1816 Z " />
<glyph glyph-name="dotlessi" unicode="&#x131;" horiz-adv-x="450" d="M338 0 L338 1082 L108 1082 L108 0 L338 0 Z " />
<glyph glyph-name="Kcommaaccent" unicode="&#x136;" horiz-adv-x="1121" d="M636 0 L918 0 L581 832 L915 1456 L622 1456 L405 962 L339 811 L339 1456 L101 1456 L101 0 L339 0 L339 483 L424 599 L636 0 Z M-58 -538 C-58 -638 -79 -712 -109 -786 L1 -860 C61 -778 107 -643 107 -529 L107 -456 L-58 -456 L-58 -538 Z " />
<glyph glyph-name="kcommaaccent" unicode="&#x137;" horiz-adv-x="974" d="M533 0 L796 0 L521 645 L773 1082 L522 1082 L340 693 L320 663 L320 1537 L91 1537 L91 0 L320 0 L320 421 L363 463 L533 0 Z M-126 -560 C-126 -660 -147 -734 -177 -808 L-67 -882 C-7 -800 39 -665 39 -551 L39 -478 L-126 -478 L-126 -560 Z " />
<glyph glyph-name="Lacute" unicode="&#x139;" horiz-adv-x="798" d="M339 193 L339 1456 L101 1456 L101 0 L746 0 L746 193 L339 193 Z M528 1843 L273 1843 L113 1543 L306 1543 L528 1843 Z " />
<glyph glyph-name="lacute" unicode="&#x13a;" horiz-adv-x="495" d="M330 1536 L100 1536 L100 283 C100 60 186 -20 323 -20 C374 -20 412 -9 448 3 L451 183 C439 179 420 173 396 173 C347 173 330 193 330 297 L330 1536 Z M264 1936 L104 1636 L297 1636 L519 1936 L264 1936 Z " />
<glyph glyph-name="Lcommaaccent" unicode="&#x13b;" horiz-adv-x="971" d="M339 193 L339 1456 L101 1456 L101 0 L746 0 L746 193 L339 193 Z M-110 -588 C-110 -688 -131 -762 -161 -836 L-51 -910 C9 -828 55 -693 55 -579 L55 -506 L-110 -506 L-110 -588 Z " />
<glyph glyph-name="lcommaaccent" unicode="&#x13c;" horiz-adv-x="516" d="M330 1536 L100 1536 L100 283 C100 60 186 -20 323 -20 C374 -20 412 -9 448 3 L451 183 C439 179 420 173 396 173 C347 173 330 193 330 297 L330 1536 Z M-202 -579 L-202 -506 L-367 -506 L-367 -588 C-367 -688 -388 -762 -418 -836 L-308 -910 C-248 -828 -202 -693 -202 -579 L-202 -579 Z " />
<glyph glyph-name="Lcaron" unicode="&#x13d;" horiz-adv-x="971" d="M339 193 L339 1456 L101 1456 L101 1032 L95 1032 L95 950 C95 850 74 776 44 702 L101 664 L101 0 L746 0 L746 193 L339 193 Z " />
<glyph glyph-name="lcaron" unicode="&#x13e;" horiz-adv-x="640" d="M396 173 C347 173 330 193 330 297 L330 1536 L100 1536 L100 1113 L-5 1113 L-5 1031 C-5 931 -26 857 -56 783 L54 709 C71 732 86 759 100 788 L100 283 C100 60 186 -20 323 -20 C374 -20 412 -9 448 3 L451 183 C439 179 420 173 396 173 L396 173 Z " />
<glyph glyph-name="Lslash" unicode="&#x141;" horiz-adv-x="1006" d="M378 193 L378 750 L494 799 L494 941 L378 892 L378 1456 L140 1456 L140 792 L49 754 L49 612 L140 650 L140 0 L785 0 L785 193 L378 193 Z " />
<glyph glyph-name="lslash" unicode="&#x142;" horiz-adv-x="588" d="M426 173 C377 173 360 193 360 297 L360 762 L441 801 L441 943 L360 904 L360 1536 L130 1536 L130 795 L48 756 L48 614 L130 653 L130 283 C130 60 216 -20 353 -20 C404 -20 442 -9 478 3 L481 183 C469 179 450 173 426 173 L426 173 Z " />
<glyph glyph-name="Nacute" unicode="&#x143;" horiz-adv-x="1016" d="M913 0 L913 1456 L676 1456 L676 494 L372 1456 L101 1456 L101 0 L339 0 L339 927 L656 0 L913 0 Z M558 1847 L398 1547 L591 1547 L813 1847 L558 1847 Z " />
<glyph glyph-name="nacute" unicode="&#x144;" horiz-adv-x="823" d="M508 1102 C426 1102 357 1055 307 972 L301 1082 L85 1082 L85 0 L314 0 L314 818 C335 876 366 913 410 913 C471 913 505 855 505 702 L505 0 L734 0 L734 701 C734 994 639 1102 508 1102 L508 1102 Z M712 1536 L457 1536 L297 1236 L490 1236 L712 1536 Z " />
<glyph glyph-name="Ncommaaccent" unicode="&#x145;" horiz-adv-x="1239" d="M913 0 L913 1456 L676 1456 L676 494 L372 1456 L101 1456 L101 0 L339 0 L339 927 L656 0 L913 0 Z M162 -587 L162 -514 L-3 -514 L-3 -596 C-3 -696 -24 -770 -54 -844 L56 -918 C116 -836 162 -701 162 -587 L162 -587 Z " />
<glyph glyph-name="ncommaaccent" unicode="&#x146;" horiz-adv-x="999" d="M508 1102 C426 1102 357 1055 307 972 L301 1082 L85 1082 L85 0 L314 0 L314 818 C335 876 366 913 410 913 C471 913 505 855 505 702 L505 0 L734 0 L734 701 C734 994 639 1102 508 1102 L508 1102 Z M-128 -588 C-128 -688 -149 -762 -179 -836 L-69 -910 C-9 -828 37 -693 37 -579 L37 -506 L-128 -506 L-128 -588 Z " />
<glyph glyph-name="Ncaron" unicode="&#x147;" horiz-adv-x="1016" d="M913 0 L913 1456 L676 1456 L676 494 L372 1456 L101 1456 L101 0 L339 0 L339 927 L656 0 L913 0 Z M511 1689 L420 1847 L225 1847 L225 1837 L440 1560 L583 1560 L798 1836 L798 1847 L603 1847 L511 1689 Z " />
<glyph glyph-name="ncaron" unicode="&#x148;" horiz-adv-x="823" d="M508 1102 C426 1102 357 1055 307 972 L301 1082 L85 1082 L85 0 L314 0 L314 818 C335 876 366 913 410 913 C471 913 505 855 505 702 L505 0 L734 0 L734 701 C734 994 639 1102 508 1102 L508 1102 Z M482 1249 L697 1525 L697 1536 L502 1536 L410 1378 L319 1536 L124 1536 L124 1526 L339 1249 L482 1249 Z " />
<glyph glyph-name="Eng" unicode="&#x14a;" horiz-adv-x="1012" d="M675 1456 L675 563 L339 1456 L100 1456 L100 0 L339 0 L339 895 L675 0 L675 -60 C675 -176 651 -243 609 -243 C582 -243 565 -239 541 -231 L533 -420 C570 -433 600 -437 638 -437 C810 -437 913 -304 913 -60 L913 1456 L675 1456 Z " />
<glyph glyph-name="eng" unicode="&#x14b;" horiz-adv-x="828" d="M508 1102 C427 1102 359 1041 312 938 L303 1082 L89 1082 L89 0 L318 0 L318 830 C344 882 380 913 423 913 C481 913 509 854 509 670 L509 -65 C509 -183 486 -244 443 -244 C419 -244 402 -240 380 -232 L370 -420 C406 -433 436 -437 469 -437 C638 -437 739 -305 739 -65 L739 672 C739 979 644 1102 508 1102 L508 1102 Z " />
<glyph glyph-name="Omacron" unicode="&#x14c;" horiz-adv-x="1002" d="M918 591 L918 855 C918 1267 749 1476 500 1476 C250 1476 83 1267 83 855 L83 591 C83 184 252 -20 501 -20 C750 -20 918 184 918 591 L918 591 Z M739 1613 L739 1764 L262 1764 L262 1613 L739 1613 Z M680 857 L680 591 C680 298 618 177 501 177 C383 177 320 298 320 591 L320 857 C320 1156 382 1278 500 1278 C617 1278 680 1156 680 857 L680 857 Z " />
<glyph glyph-name="omacron" unicode="&#x14d;" horiz-adv-x="830" d="M66 587 L66 495 C66 155 202 -20 416 -20 C627 -20 764 155 764 495 L764 587 C764 927 627 1102 414 1102 C202 1102 66 927 66 587 L66 587 Z M650 1301 L650 1452 L173 1452 L173 1301 L650 1301 Z M295 495 L295 587 C295 809 342 916 414 916 C489 916 534 809 534 587 L534 495 C534 270 493 167 416 167 C341 167 295 270 295 495 L295 495 Z " />
<glyph glyph-name="Ohungarumlaut" unicode="&#x150;" horiz-adv-x="1002" d="M918 591 L918 855 C918 1267 749 1476 500 1476 C250 1476 83 1267 83 855 L83 591 C83 184 252 -20 501 -20 C750 -20 918 184 918 591 L918 591 Z M398 1847 L279 1546 L443 1546 L595 1847 L398 1847 Z M677 1847 L534 1546 L699 1546 L875 1847 L677 1847 Z M680 857 L680 591 C680 298 618 177 501 177 C383 177 320 298 320 591 L320 857 C320 1156 382 1278 500 1278 C617 1278 680 1156 680 857 L680 857 Z " />
<glyph glyph-name="ohungarumlaut" unicode="&#x151;" horiz-adv-x="830" d="M66 587 L66 495 C66 155 202 -20 416 -20 C627 -20 764 155 764 495 L764 587 C764 927 627 1102 414 1102 C202 1102 66 927 66 587 L66 587 Z M309 1535 L190 1234 L354 1234 L506 1535 L309 1535 Z M588 1535 L445 1234 L610 1234 L786 1535 L588 1535 Z M295 495 L295 587 C295 809 342 916 414 916 C489 916 534 809 534 587 L534 495 C534 270 493 167 416 167 C341 167 295 270 295 495 L295 495 Z " />
<glyph glyph-name="OE" unicode="&#x152;" horiz-adv-x="1705" d="M874 193 L874 655 L1236 655 L1236 846 L874 846 L874 1262 L1301 1262 L1301 1456 L693 1456 C635 1467 571 1477 504 1477 C255 1477 88 1233 88 880 L88 576 C88 223 257 -21 506 -21 C571 -21 635 -10 693 0 L1302 0 L1302 193 L874 193 Z M316 576 L316 882 C316 1151 388 1290 504 1290 C550 1290 595 1285 636 1278 L636 179 C595 172 551 167 506 167 C390 167 316 307 316 576 L316 576 Z " />
<glyph glyph-name="oe" unicode="&#x153;" horiz-adv-x="1276" d="M1197 617 C1197 905 1088 1102 883 1102 C790 1102 715 1058 660 982 C602 1058 524 1102 426 1102 C200 1102 79 866 79 552 L79 530 C79 216 200 -21 427 -21 C526 -21 605 25 663 103 C722 25 803 -21 903 -21 C1030 -21 1132 45 1184 110 L1123 261 C1067 208 1021 167 929 167 C829 167 786 304 781 478 L1197 478 L1197 617 Z M543 530 C543 331 519 167 427 167 C334 167 310 331 310 530 L310 552 C310 747 335 916 426 916 C520 916 543 747 543 552 L543 530 Z M973 649 L782 649 C789 802 816 916 883 916 C951 916 973 807 973 675 L973 649 Z " />
<glyph glyph-name="Racute" unicode="&#x154;" horiz-adv-x="924" d="M676 623 C782 692 846 825 846 1018 C846 1303 708 1456 478 1456 L102 1456 L102 0 L340 0 L340 567 L441 567 L625 0 L880 0 L880 14 L676 623 Z M725 1847 L470 1847 L310 1547 L503 1547 L725 1847 Z M340 1262 L478 1262 C568 1262 607 1162 607 1008 C607 865 562 759 471 759 L340 759 L340 1262 Z " />
<glyph glyph-name="racute" unicode="&#x155;" horiz-adv-x="563" d="M315 966 L308 1082 L91 1082 L91 0 L321 0 L321 756 C341 826 381 862 445 862 C466 862 500 860 520 854 L521 1089 C508 1096 481 1102 460 1102 C398 1102 349 1050 315 966 L315 966 Z M603 1536 L348 1536 L188 1236 L381 1236 L603 1536 Z " />
<glyph glyph-name="Rcommaaccent" unicode="&#x156;" horiz-adv-x="1125" d="M676 623 C782 692 846 825 846 1018 C846 1303 708 1456 478 1456 L102 1456 L102 0 L340 0 L340 567 L441 567 L625 0 L880 0 L880 14 L676 623 Z M-94 -588 C-94 -688 -115 -762 -145 -836 L-35 -910 C25 -828 71 -693 71 -579 L71 -506 L-94 -506 L-94 -588 Z M340 1262 L478 1262 C568 1262 607 1162 607 1008 C607 865 562 759 471 759 L340 759 L340 1262 Z " />
<glyph glyph-name="rcommaaccent" unicode="&#x157;" horiz-adv-x="677" d="M460 1102 C398 1102 349 1050 315 966 L308 1082 L91 1082 L91 0 L321 0 L321 756 C341 826 381 862 445 862 C466 862 500 860 520 854 L521 1089 C508 1096 481 1102 460 1102 L460 1102 Z M-375 -588 C-375 -688 -396 -762 -426 -836 L-316 -910 C-256 -828 -210 -693 -210 -579 L-210 -506 L-375 -506 L-375 -588 Z " />
<glyph glyph-name="Rcaron" unicode="&#x158;" horiz-adv-x="924" d="M676 623 C782 692 846 825 846 1018 C846 1303 708 1456 478 1456 L102 1456 L102 0 L340 0 L340 567 L441 567 L625 0 L880 0 L880 14 L676 623 Z M495 1560 L710 1836 L710 1847 L515 1847 L423 1689 L332 1847 L137 1847 L137 1837 L352 1560 L495 1560 Z M340 1262 L478 1262 C568 1262 607 1162 607 1008 C607 865 562 759 471 759 L340 759 L340 1262 Z " />
<glyph glyph-name="rcaron" unicode="&#x159;" horiz-adv-x="563" d="M315 966 L308 1082 L91 1082 L91 0 L321 0 L321 756 C341 826 381 862 445 862 C466 862 500 860 520 854 L521 1089 C508 1096 481 1102 460 1102 C398 1102 349 1050 315 966 L315 966 Z M393 1536 L301 1378 L210 1536 L15 1536 L15 1526 L230 1249 L373 1249 L588 1525 L588 1536 L393 1536 Z " />
<glyph glyph-name="Sacute" unicode="&#x15a;" horiz-adv-x="901" d="M425 628 C570 549 590 496 590 375 C590 254 559 172 472 172 C362 172 308 249 308 439 L83 439 C83 130 221 -20 472 -20 C721 -20 829 130 829 380 C829 607 721 746 507 849 C397 900 335 966 335 1077 C335 1194 376 1284 463 1284 C555 1284 592 1179 592 1033 L816 1033 C816 1276 738 1476 467 1476 C229 1476 98 1310 98 1076 C98 839 253 712 425 628 L425 628 Z M509 1848 L349 1548 L542 1548 L764 1848 L509 1848 Z " />
<glyph glyph-name="sacute" unicode="&#x15b;" horiz-adv-x="758" d="M318 454 C422 395 469 361 469 275 C469 202 433 155 370 155 C309 155 259 199 257 327 L54 327 C54 149 140 -20 381 -20 C590 -20 692 104 692 295 C692 490 604 549 447 638 C335 700 297 721 297 805 C297 870 323 928 385 928 C451 928 475 856 475 770 L689 770 C689 962 593 1102 378 1102 C163 1102 78 963 78 787 C78 604 167 543 318 454 L318 454 Z M425 1536 L265 1236 L458 1236 L680 1536 L425 1536 Z " />
<glyph glyph-name="Scedilla" unicode="&#x15e;" horiz-adv-x="901" d="M829 380 C829 607 721 746 507 849 C397 900 335 966 335 1077 C335 1194 376 1284 463 1284 C555 1284 592 1179 592 1033 L816 1033 C816 1276 738 1476 467 1476 C229 1476 98 1310 98 1076 C98 839 253 712 425 628 C570 549 590 496 590 375 C590 254 559 172 472 172 C362 172 308 249 308 439 L83 439 C83 170 188 21 381 -13 L361 -135 C426 -144 451 -162 451 -223 C451 -289 431 -315 394 -315 L398 -448 C561 -448 642 -358 642 -226 C642 -110 594 -66 547 -53 L552 -14 C744 16 829 159 829 380 L829 380 Z " />
<glyph glyph-name="scedilla" unicode="&#x15f;" horiz-adv-x="758" d="M692 295 C692 490 604 549 447 638 C335 700 297 721 297 805 C297 870 323 928 385 928 C451 928 475 856 475 770 L689 770 C689 962 593 1102 378 1102 C163 1102 78 963 78 787 C78 604 167 543 318 454 C422 395 469 361 469 275 C469 202 433 155 370 155 C309 155 259 199 257 327 L54 327 C54 172 119 23 296 -12 L274 -145 C339 -154 364 -172 364 -233 C364 -299 344 -325 307 -325 L311 -458 C474 -458 555 -368 555 -236 C555 -120 507 -76 460 -63 L467 -12 C618 18 692 132 692 295 L692 295 Z " />
<glyph glyph-name="Scaron" unicode="&#x160;" horiz-adv-x="901" d="M425 628 C570 549 590 496 590 375 C590 254 559 172 472 172 C362 172 308 249 308 439 L83 439 C83 130 221 -20 472 -20 C721 -20 829 130 829 380 C829 607 721 746 507 849 C397 900 335 966 335 1077 C335 1194 376 1284 463 1284 C555 1284 592 1179 592 1033 L816 1033 C816 1276 738 1476 467 1476 C229 1476 98 1310 98 1076 C98 839 253 712 425 628 L425 628 Z M462 1690 L371 1848 L176 1848 L176 1838 L391 1561 L534 1561 L749 1837 L749 1848 L554 1848 L462 1690 Z " />
<glyph glyph-name="scaron" unicode="&#x161;" horiz-adv-x="758" d="M318 454 C422 395 469 361 469 275 C469 202 433 155 370 155 C309 155 259 199 257 327 L54 327 C54 149 140 -20 381 -20 C590 -20 692 104 692 295 C692 490 604 549 447 638 C335 700 297 721 297 805 C297 870 323 928 385 928 C451 928 475 856 475 770 L689 770 C689 962 593 1102 378 1102 C163 1102 78 963 78 787 C78 604 167 543 318 454 L318 454 Z M378 1378 L287 1536 L92 1536 L92 1526 L307 1249 L450 1249 L665 1525 L665 1536 L470 1536 L378 1378 Z " />
<glyph glyph-name="uni0162" unicode="&#x162;" horiz-adv-x="905" d="M569 0 L569 1262 L854 1262 L854 1456 L51 1456 L51 1262 L330 1262 L330 0 L366 0 L344 -131 C409 -140 434 -158 434 -219 C434 -285 414 -311 377 -311 L381 -444 C544 -444 625 -354 625 -222 C625 -106 577 -62 530 -49 L537 0 L569 0 Z " />
<glyph glyph-name="uni0163" unicode="&#x163;" horiz-adv-x="522" d="M399 -53 L404 -16 C430 -11 453 -4 475 3 L478 183 C466 179 447 173 423 173 C375 173 357 193 357 297 L357 911 L472 911 L472 1082 L357 1082 L357 1347 L127 1347 L127 1082 L30 1082 L30 911 L127 911 L127 283 C127 128 169 42 240 4 L236 4 L213 -135 C278 -144 303 -162 303 -223 C303 -289 283 -315 246 -315 L250 -448 C413 -448 494 -358 494 -226 C494 -110 446 -66 399 -53 L399 -53 Z " />
<glyph glyph-name="Tcaron" unicode="&#x164;" horiz-adv-x="905" d="M854 1456 L51 1456 L51 1262 L330 1262 L330 0 L569 0 L569 1262 L854 1262 L854 1456 Z M522 1559 L737 1835 L737 1846 L542 1846 L450 1688 L359 1846 L164 1846 L164 1836 L379 1559 L522 1559 Z " />
<glyph glyph-name="tcaron" unicode="&#x165;" horiz-adv-x="659" d="M423 173 C375 173 357 193 357 297 L357 911 L472 911 L472 1082 L357 1082 L357 1347 L127 1347 L127 1244 L51 1244 L51 1162 C51 1133 49 1107 46 1082 L30 1082 L30 1001 C22 971 12 943 0 914 L110 840 C116 848 121 856 127 865 L127 283 C127 60 213 -20 350 -20 C401 -20 439 -9 475 3 L478 183 C466 179 447 173 423 173 L423 173 Z " />
<glyph glyph-name="Tbar" unicode="&#x166;" horiz-adv-x="905" d="M854 1262 L854 1456 L51 1456 L51 1262 L330 1262 L330 955 L195 955 L195 791 L330 791 L330 0 L569 0 L569 791 L680 791 L680 955 L569 955 L569 1262 L854 1262 Z " />
<glyph glyph-name="tbar" unicode="&#x167;" horiz-adv-x="522" d="M480 572 L480 736 L357 736 L357 911 L472 911 L472 1082 L357 1082 L357 1347 L127 1347 L127 1082 L30 1082 L30 911 L127 911 L127 736 L-5 736 L-5 572 L127 572 L127 283 C127 60 213 -20 350 -20 C401 -20 439 -9 475 3 L478 183 C466 179 447 173 423 173 C375 173 357 193 357 297 L357 572 L480 572 Z " />
<glyph glyph-name="Utilde" unicode="&#x168;" horiz-adv-x="952" d="M858 1456 L619 1456 L619 440 C619 228 571 173 477 173 C383 173 333 228 333 440 L333 1456 L93 1456 L93 440 C93 108 251 -20 477 -20 C700 -20 858 108 858 440 L858 1456 Z M730 1822 L603 1834 C603 1771 579 1728 551 1728 C485 1728 436 1819 368 1819 C276 1819 211 1710 211 1564 L340 1557 C340 1619 362 1662 390 1662 C458 1662 489 1571 572 1571 C664 1571 730 1676 730 1822 L730 1822 Z " />
<glyph glyph-name="utilde" unicode="&#x169;" horiz-adv-x="823" d="M505 1082 L505 270 C485 208 450 170 395 170 C348 170 315 220 315 381 L315 1082 L86 1082 L86 383 C86 96 184 -20 326 -20 C407 -20 469 24 514 99 L519 0 L735 0 L735 1082 L505 1082 Z M327 1351 C395 1351 426 1260 509 1260 C601 1260 667 1365 667 1511 L540 1523 C540 1460 516 1417 488 1417 C422 1417 373 1508 305 1508 C213 1508 148 1399 148 1253 L277 1246 C277 1308 299 1351 327 1351 L327 1351 Z " />
<glyph glyph-name="Umacron" unicode="&#x16a;" horiz-adv-x="952" d="M858 1456 L619 1456 L619 440 C619 228 571 173 477 173 C383 173 333 228 333 440 L333 1456 L93 1456 L93 440 C93 108 251 -20 477 -20 C700 -20 858 108 858 440 L858 1456 Z M709 1612 L709 1763 L232 1763 L232 1612 L709 1612 Z " />
<glyph glyph-name="umacron" unicode="&#x16b;" horiz-adv-x="823" d="M505 1082 L505 270 C485 208 450 170 395 170 C348 170 315 220 315 381 L315 1082 L86 1082 L86 383 C86 96 184 -20 326 -20 C407 -20 469 24 514 99 L519 0 L735 0 L735 1082 L505 1082 Z M646 1452 L169 1452 L169 1301 L646 1301 L646 1452 Z " />
<glyph glyph-name="Uring" unicode="&#x16e;" horiz-adv-x="952" d="M858 1456 L619 1456 L619 440 C619 228 571 173 477 173 C383 173 333 228 333 440 L333 1456 L93 1456 L93 440 C93 108 251 -20 477 -20 C700 -20 858 108 858 440 L858 1456 Z M473 1937 C369 1937 295 1844 295 1731 C295 1617 369 1528 473 1528 C576 1528 651 1617 651 1731 C651 1844 576 1937 473 1937 L473 1937 Z M473 1618 C421 1618 388 1672 388 1731 C388 1791 421 1844 473 1844 C525 1844 557 1791 557 1731 C557 1671 525 1618 473 1618 L473 1618 Z " />
<glyph glyph-name="uring" unicode="&#x16f;" horiz-adv-x="823" d="M505 1082 L505 270 C485 208 450 170 395 170 C348 170 315 220 315 381 L315 1082 L86 1082 L86 383 C86 96 184 -20 326 -20 C407 -20 469 24 514 99 L519 0 L735 0 L735 1082 L505 1082 Z M410 1217 C513 1217 588 1306 588 1420 C588 1533 513 1626 410 1626 C306 1626 232 1533 232 1420 C232 1306 306 1217 410 1217 L410 1217 Z M410 1533 C462 1533 494 1480 494 1420 C494 1360 462 1307 410 1307 C358 1307 325 1361 325 1420 C325 1480 358 1533 410 1533 L410 1533 Z " />
<glyph glyph-name="Uhungarumlaut" unicode="&#x170;" horiz-adv-x="952" d="M858 1456 L619 1456 L619 440 C619 228 571 173 477 173 C383 173 333 228 333 440 L333 1456 L93 1456 L93 440 C93 108 251 -20 477 -20 C700 -20 858 108 858 440 L858 1456 Z M368 1846 L249 1545 L413 1545 L565 1846 L368 1846 Z M647 1846 L504 1545 L669 1545 L845 1846 L647 1846 Z " />
<glyph glyph-name="uhungarumlaut" unicode="&#x171;" horiz-adv-x="823" d="M505 270 C485 208 450 170 395 170 C348 170 315 220 315 381 L315 1082 L86 1082 L86 383 C86 96 184 -20 326 -20 C407 -20 469 24 514 99 L519 0 L735 0 L735 1082 L505 1082 L505 270 Z M502 1535 L305 1535 L186 1234 L350 1234 L502 1535 Z M606 1234 L782 1535 L584 1535 L441 1234 L606 1234 Z " />
<glyph glyph-name="Uogonek" unicode="&#x172;" horiz-adv-x="952" d="M619 1456 L619 440 C619 228 571 173 477 173 C383 173 333 228 333 440 L333 1456 L93 1456 L93 440 C93 108 251 -20 477 -20 L480 -20 C457 -70 450 -123 450 -175 C450 -305 524 -374 613 -374 C669 -374 705 -350 728 -330 L706 -193 C694 -202 681 -217 658 -217 C630 -217 618 -189 618 -148 C618 -72 645 -12 707 46 C801 115 858 241 858 440 L858 1456 L619 1456 Z " />
<glyph glyph-name="uogonek" unicode="&#x173;" horiz-adv-x="823" d="M708 0 L735 0 L735 1082 L505 1082 L505 270 C485 208 450 170 395 170 C348 170 315 220 315 381 L315 1082 L86 1082 L86 383 C86 96 184 -20 326 -20 C407 -20 469 24 514 99 L519 0 L522 0 C457 -70 441 -150 441 -230 C441 -360 515 -429 604 -429 C660 -429 696 -405 719 -385 L697 -248 C685 -257 672 -272 649 -272 C621 -272 609 -244 609 -203 C609 -123 639 -61 708 0 L708 0 Z " />
<glyph glyph-name="Wcircumflex" unicode="&#x174;" horiz-adv-x="1239" d="M959 1456 L855 479 L724 1456 L515 1456 L387 483 L280 1456 L44 1456 L248 0 L494 0 L619 890 L747 0 L992 0 L1195 1456 L959 1456 Z M624 1720 L723 1561 L902 1561 L902 1572 L689 1847 L558 1847 L350 1574 L350 1561 L524 1561 L624 1720 Z " />
<glyph glyph-name="wcircumflex" unicode="&#x175;" horiz-adv-x="1049" d="M790 1082 L719 338 L605 1082 L442 1082 L328 348 L257 1082 L37 1082 L213 0 L405 0 L524 701 L643 0 L833 0 L1009 1082 L790 1082 Z M523 1409 L622 1250 L801 1250 L801 1261 L588 1536 L457 1536 L249 1263 L249 1250 L423 1250 L523 1409 Z " />
<glyph glyph-name="Ycircumflex" unicode="&#x176;" horiz-adv-x="905" d="M453 754 L282 1456 L23 1456 L333 537 L333 0 L574 0 L574 537 L882 1456 L623 1456 L453 754 Z M733 1571 L520 1846 L389 1846 L181 1573 L181 1560 L355 1560 L455 1719 L554 1560 L733 1560 L733 1571 Z " />
<glyph glyph-name="ycircumflex" unicode="&#x177;" horiz-adv-x="751" d="M481 1082 L375 310 L269 1082 L23 1082 L274 -24 L263 -44 C247 -188 209 -243 137 -243 C127 -243 119 -242 110 -241 L110 -420 C147 -428 161 -437 203 -437 C362 -437 419 -273 444 -166 L728 1082 L481 1082 Z M375 1409 L474 1250 L653 1250 L653 1261 L440 1536 L309 1536 L101 1263 L101 1250 L275 1250 L375 1409 Z " />
<glyph glyph-name="Ydieresis" unicode="&#x178;" horiz-adv-x="905" d="M453 754 L282 1456 L23 1456 L333 537 L333 0 L574 0 L574 537 L882 1456 L623 1456 L453 754 Z M249 1795 C183 1795 135 1744 135 1680 C135 1616 183 1566 249 1566 C313 1566 361 1616 361 1680 C361 1744 313 1795 249 1795 L249 1795 Z M644 1793 C580 1793 532 1743 532 1678 C532 1615 580 1565 644 1565 C710 1565 756 1615 756 1678 C756 1743 710 1793 644 1793 L644 1793 Z " />
<glyph glyph-name="Zacute" unicode="&#x179;" horiz-adv-x="885" d="M325 193 L817 1304 L817 1456 L67 1456 L67 1262 L569 1262 L72 157 L72 0 L824 0 L824 193 L325 193 Z M752 1847 L497 1847 L337 1547 L530 1547 L752 1847 Z " />
<glyph glyph-name="zacute" unicode="&#x17a;" horiz-adv-x="759" d="M317 187 L678 935 L678 1082 L82 1082 L82 895 L433 895 L74 153 L74 0 L683 0 L683 187 L317 187 Z M679 1536 L424 1536 L264 1236 L457 1236 L679 1536 Z " />
<glyph glyph-name="Zdotaccent" unicode="&#x17b;" horiz-adv-x="885" d="M325 193 L817 1304 L817 1456 L67 1456 L67 1262 L569 1262 L72 157 L72 0 L824 0 L824 193 L325 193 Z M447 1571 C519 1571 567 1623 567 1690 C567 1758 519 1809 447 1809 C374 1809 326 1758 326 1690 C326 1623 374 1571 447 1571 L447 1571 Z " />
<glyph glyph-name="zdotaccent" unicode="&#x17c;" horiz-adv-x="759" d="M317 187 L678 935 L678 1082 L82 1082 L82 895 L433 895 L74 153 L74 0 L683 0 L683 187 L317 187 Z M374 1260 C446 1260 494 1312 494 1379 C494 1447 446 1498 374 1498 C301 1498 253 1447 253 1379 C253 1312 301 1260 374 1260 L374 1260 Z " />
<glyph glyph-name="Zcaron" unicode="&#x17d;" horiz-adv-x="885" d="M325 193 L817 1304 L817 1456 L67 1456 L67 1262 L569 1262 L72 157 L72 0 L824 0 L824 193 L325 193 Z M522 1560 L737 1836 L737 1847 L542 1847 L450 1689 L359 1847 L164 1847 L164 1837 L379 1560 L522 1560 Z " />
<glyph glyph-name="zcaron" unicode="&#x17e;" horiz-adv-x="759" d="M317 187 L678 935 L678 1082 L82 1082 L82 895 L433 895 L74 153 L74 0 L683 0 L683 187 L317 187 Z M449 1249 L664 1525 L664 1536 L469 1536 L377 1378 L286 1536 L91 1536 L91 1526 L306 1249 L449 1249 Z " />
<glyph glyph-name="florin" unicode="&#x192;" horiz-adv-x="559" d="M497 911 L497 1082 L368 1082 L368 1189 C368 1303 396 1367 453 1367 C479 1367 498 1363 516 1356 L534 1536 C496 1548 461 1557 423 1557 C243 1557 138 1427 138 1189 L138 1082 L36 1082 L36 911 L138 911 L138 -71 C138 -186 127 -251 78 -251 C64 -251 32 -245 19 -238 L8 -420 C45 -433 74 -437 111 -437 C271 -437 368 -307 368 -71 L369 911 L497 911 Z " />
<glyph glyph-name="Ohorn" unicode="&#x1a0;" horiz-adv-x="1239" d="M1015 1579 L865 1579 C865 1448 851 1357 808 1320 C735 1424 631 1476 506 1476 C256 1476 89 1267 89 855 L89 591 C89 184 258 -20 507 -20 C756 -20 924 184 924 591 L924 855 C924 987 907 1098 875 1188 C970 1245 1015 1380 1015 1579 L1015 1579 Z M686 591 C686 298 624 177 507 177 C389 177 326 298 326 591 L326 857 C326 1156 388 1278 506 1278 C623 1278 686 1156 686 857 L686 591 Z " />
<glyph glyph-name="ohorn" unicode="&#x1a1;" horiz-adv-x="1041" d="M837 1193 L704 1193 C704 1100 695 1029 667 987 C607 1063 523 1102 423 1102 C211 1102 75 927 75 587 L75 495 C75 155 211 -20 425 -20 C636 -20 773 155 773 495 L773 587 C773 700 758 795 730 871 C804 929 837 1041 837 1193 L837 1193 Z M543 495 C543 270 502 167 425 167 C350 167 304 270 304 495 L304 587 C304 809 351 916 423 916 C498 916 543 809 543 587 L543 495 Z " />
<glyph glyph-name="Uhorn" unicode="&#x1af;" horiz-adv-x="1271" d="M1129 1538 L983 1538 C983 1363 974 1257 867 1238 L867 1456 L628 1456 L628 440 C628 228 580 173 486 173 C392 173 342 228 342 440 L342 1456 L102 1456 L102 440 C102 108 260 -20 486 -20 C709 -20 867 108 867 440 L867 1094 C1069 1110 1129 1265 1129 1538 L1129 1538 Z " />
<glyph glyph-name="uhorn" unicode="&#x1b0;" horiz-adv-x="1095" d="M938 1173 L806 1173 C806 1059 799 990 744 961 L744 1082 L514 1082 L514 270 C494 208 459 170 404 170 C357 170 324 220 324 381 L324 1082 L95 1082 L95 383 C95 96 193 -20 335 -20 C416 -20 478 24 523 99 L528 0 L744 0 L744 830 C889 859 938 975 938 1173 L938 1173 Z " />
<glyph glyph-name="Scommaaccent" unicode="&#x218;" horiz-adv-x="1098" d="M425 628 C570 549 590 496 590 375 C590 254 559 172 472 172 C362 172 308 249 308 439 L83 439 C83 130 221 -20 472 -20 C721 -20 829 130 829 380 C829 607 721 746 507 849 C397 900 335 966 335 1077 C335 1194 376 1284 463 1284 C555 1284 592 1179 592 1033 L816 1033 C816 1276 738 1476 467 1476 C229 1476 98 1310 98 1076 C98 839 253 712 425 628 L425 628 Z M106 -589 L106 -516 L-59 -516 L-59 -598 C-59 -698 -80 -772 -110 -846 L0 -920 C60 -838 106 -703 106 -589 L106 -589 Z " />
<glyph glyph-name="scommaaccent" unicode="&#x219;" horiz-adv-x="921" d="M318 454 C422 395 469 361 469 275 C469 202 433 155 370 155 C309 155 259 199 257 327 L54 327 C54 149 140 -20 381 -20 C590 -20 692 104 692 295 C692 490 604 549 447 638 C335 700 297 721 297 805 C297 870 323 928 385 928 C451 928 475 856 475 770 L689 770 C689 962 593 1102 378 1102 C163 1102 78 963 78 787 C78 604 167 543 318 454 L318 454 Z M0 -599 L0 -526 L-165 -526 L-165 -608 C-165 -708 -186 -782 -216 -856 L-106 -930 C-46 -848 0 -713 0 -599 L0 -599 Z " />
<glyph glyph-name="uni021A" unicode="&#x21a;" horiz-adv-x="1103" d="M854 1456 L51 1456 L51 1262 L330 1262 L330 0 L569 0 L569 1262 L854 1262 L854 1456 Z M-79 -590 C-79 -690 -100 -764 -130 -838 L-20 -912 C40 -830 86 -695 86 -581 L86 -508 L-79 -508 L-79 -590 Z " />
<glyph glyph-name="uni021B" unicode="&#x21b;" horiz-adv-x="625" d="M423 173 C375 173 357 193 357 297 L357 911 L472 911 L472 1082 L357 1082 L357 1347 L127 1347 L127 1082 L30 1082 L30 911 L127 911 L127 283 C127 60 213 -20 350 -20 C401 -20 439 -9 475 3 L478 183 C466 179 447 173 423 173 L423 173 Z M-242 -598 C-242 -698 -263 -772 -293 -846 L-183 -920 C-123 -838 -77 -703 -77 -589 L-77 -516 L-242 -516 L-242 -598 Z " />
<glyph glyph-name="uni0298" unicode="&#x298;" horiz-adv-x="1223" d="M499 862 C422 862 373 805 373 732 C373 659 422 603 499 603 C575 603 624 659 624 732 C624 805 575 862 499 862 L499 862 Z M927 591 L927 855 C927 1267 758 1476 509 1476 C259 1476 92 1267 92 855 L92 591 C92 184 261 -20 510 -20 C759 -20 927 184 927 591 L927 591 Z M689 857 L689 591 C689 298 627 177 510 177 C392 177 329 298 329 591 L329 857 C329 1156 391 1278 509 1278 C626 1278 689 1156 689 857 L689 857 Z " />
<glyph glyph-name="uni02AA" unicode="&#x2aa;" horiz-adv-x="1278" d="M711 640 C632 664 583 705 583 787 C583 860 615 928 662 928 C721 928 746 848 746 760 L975 760 C975 953 855 1102 661 1102 C474 1102 363 953 363 778 C363 597 478 510 622 456 C721 420 755 374 755 293 C755 212 728 157 637 157 C571 157 456 182 339 278 L339 297 L339 1536 L109 1536 L109 283 C109 60 195 -20 332 -20 C383 -20 421 -9 457 3 L457 11 C519 -11 579 -20 638 -20 C853 -20 977 115 977 305 C977 489 884 581 711 640 L711 640 Z " />
<glyph glyph-name="uni02AD" unicode="&#x2ad;" horiz-adv-x="734" d="M647 583 L87 583 L87 0 L252 0 L252 443 L483 443 L483 0 L647 0 L647 583 Z M647 1456 L87 1456 L87 874 L252 874 L252 1317 L483 1317 L483 874 L647 874 L647 1456 Z " />
<glyph glyph-name="uni02AF" unicode="&#x2af;" horiz-adv-x="1038" d="M951 -275 C907 -275 842 -234 842 -116 L842 1082 L613 1082 L613 254 C594 202 565 170 518 170 C461 170 424 224 424 446 L424 782 C424 1018 265 1102 149 1102 C103 1102 70 1097 40 1089 L39 933 C56 937 70 940 86 940 C131 940 194 900 194 782 L194 448 C194 116 294 -20 436 -20 C509 -20 569 21 613 91 L613 -116 C613 -353 773 -437 886 -437 C932 -437 966 -432 996 -424 L998 -267 C980 -272 965 -275 951 -275 L951 -275 Z " />
<glyph glyph-name="uni02B5" unicode="&#x2b5;" horiz-adv-x="522" d="M431 515 C383 515 362 539 362 596 L362 1454 L198 1454 L198 894 C182 848 156 822 121 822 C95 822 72 831 53 843 L53 647 C58 643 72 640 89 640 C134 640 171 675 198 734 L198 580 C198 415 262 335 365 335 C399 335 433 342 470 352 L470 524 C458 520 444 515 431 515 L431 515 Z " />
<glyph glyph-name="uni02B9" unicode="&#x2b9;" horiz-adv-x="406" d="M125 1562 L68 1207 L183 1207 L337 1562 L125 1562 Z " />
<glyph glyph-name="uni02BA" unicode="&#x2ba;" horiz-adv-x="687" d="M134 1562 L77 1207 L192 1207 L346 1562 L134 1562 Z M475 1562 L418 1207 L533 1207 L687 1562 L475 1562 Z " />
<glyph glyph-name="uni02BB" unicode="&#x2bb;" horiz-adv-x="402" d="M80 1190 L80 1001 L270 1001 L270 1192 C270 1315 292 1410 322 1500 L211 1574 C141 1481 80 1322 80 1190 L80 1190 Z " />
<glyph glyph-name="uni02BC" unicode="&#x2bc;" horiz-adv-x="389" d="M310 1396 L310 1536 L132 1536 L132 1395 C132 1280 104 1191 74 1107 L178 1032 C250 1121 310 1271 310 1396 L310 1396 Z " />
<glyph glyph-name="uni02BD" unicode="&#x2bd;" horiz-adv-x="402" d="M80 1385 L80 1574 L270 1574 L270 1384 C270 1261 292 1165 322 1076 L211 1001 C141 1094 80 1253 80 1385 L80 1385 Z " />
<glyph glyph-name="uni02BE" unicode="&#x2be;" horiz-adv-x="294" d="M73 1218 L73 1128 C158 1128 223 1206 223 1319 C223 1430 158 1513 73 1513 L73 1421 C112 1421 136 1378 136 1319 C136 1260 112 1218 73 1218 L73 1218 Z " />
<glyph glyph-name="uni02BF" unicode="&#x2bf;" horiz-adv-x="294" d="M223 1218 L223 1128 C139 1128 73 1206 73 1319 C73 1430 139 1513 223 1513 L223 1421 C184 1421 158 1378 158 1319 C158 1260 184 1218 223 1218 L223 1218 Z " />
<glyph glyph-name="uni02C0" unicode="&#x2c0;" horiz-adv-x="563" d="M264 1807 C133 1807 50 1689 50 1519 L210 1519 C211 1594 220 1648 267 1648 C323 1648 329 1550 329 1409 L329 1276 C329 1147 305 1029 241 1029 L186 1029 L186 652 L358 652 L358 896 C452 949 500 1087 500 1281 L500 1411 C500 1637 422 1807 264 1807 L264 1807 Z " />
<glyph glyph-name="uni02C1" unicode="&#x2c1;" horiz-adv-x="563" d="M320 1029 C257 1029 235 1147 235 1276 L235 1409 C235 1550 240 1648 296 1648 C342 1648 352 1594 353 1519 L513 1519 C512 1689 430 1807 299 1807 C140 1807 63 1637 63 1411 L63 1281 C63 1087 111 948 205 896 L205 652 L376 652 L376 1029 L320 1029 Z " />
<glyph glyph-name="uni02C2" unicode="&#x2c2;" horiz-adv-x="662" d="M588 1149 L588 1333 L75 1042 L75 884 L588 592 L588 776 L309 945 L253 961 L309 977 L588 1149 Z " />
<glyph glyph-name="uni02C3" unicode="&#x2c3;" horiz-adv-x="667" d="M82 1333 L82 1149 L361 977 L417 961 L361 945 L82 776 L82 592 L595 884 L595 1042 L82 1333 Z " />
<glyph glyph-name="uni02C4" unicode="&#x2c4;" horiz-adv-x="652" d="M402 1322 L250 1322 L73 580 L235 580 L324 1036 L326 1046 L327 1036 L416 580 L578 580 L402 1322 Z " />
<glyph glyph-name="uni02C5" unicode="&#x2c5;" horiz-adv-x="648" d="M416 1322 L327 867 L326 857 L324 867 L235 1322 L73 1322 L250 580 L402 580 L578 1322 L416 1322 Z " />
<glyph glyph-name="circumflex" unicode="&#x2c6;" horiz-adv-x="761" d="M655 1261 L442 1536 L311 1536 L103 1263 L103 1250 L277 1250 L377 1409 L476 1250 L655 1250 L655 1261 Z " />
<glyph glyph-name="caron" unicode="&#x2c7;" horiz-adv-x="725" d="M358 1378 L267 1536 L72 1536 L72 1526 L287 1249 L430 1249 L645 1525 L645 1536 L450 1536 L358 1378 Z " />
<glyph glyph-name="uni02C8" unicode="&#x2c8;" horiz-adv-x="292" d="M218 1147 L218 1566 L75 1566 L75 1147 L218 1147 Z " />
<glyph glyph-name="uni02C9" unicode="&#x2c9;" horiz-adv-x="769" d="M630 1298 L630 1449 L153 1449 L153 1298 L630 1298 Z " />
<glyph glyph-name="uni02CA" unicode="&#x2ca;" horiz-adv-x="534" d="M239 1536 L79 1236 L272 1236 L494 1536 L239 1536 Z " />
<glyph glyph-name="uni02CB" unicode="&#x2cb;" horiz-adv-x="531" d="M478 1236 L319 1536 L62 1536 L285 1236 L478 1236 Z " />
<glyph glyph-name="uni02CC" unicode="&#x2cc;" horiz-adv-x="292" d="M218 -513 L218 -97 L75 -97 L75 -513 L218 -513 Z " />
<glyph glyph-name="uni02CD" unicode="&#x2cd;" horiz-adv-x="650" d="M570 -312 L570 -161 L93 -161 L93 -312 L570 -312 Z " />
<glyph glyph-name="uni02CE" unicode="&#x2ce;" horiz-adv-x="531" d="M478 -366 L319 -66 L62 -66 L285 -366 L478 -366 Z " />
<glyph glyph-name="uni02CF" unicode="&#x2cf;" horiz-adv-x="534" d="M239 -66 L79 -366 L272 -366 L494 -66 L239 -66 Z " />
<glyph glyph-name="uni02D0" unicode="&#x2d0;" horiz-adv-x="461" d="M221 235 C221 235 102 0 102 0 L359 0 C359 0 240 235 240 235 L221 235 Z M359 1081 C359 1081 102 1081 102 1081 L221 848 C221 848 240 848 240 848 L359 1081 Z " />
<glyph glyph-name="uni02D1" unicode="&#x2d1;" horiz-adv-x="461" d="M359 1081 C359 1081 102 1081 102 1081 L221 848 C221 848 240 848 240 848 L359 1081 Z " />
<glyph glyph-name="uni02D2" unicode="&#x2d2;" horiz-adv-x="296" d="M82 238 L82 148 C167 148 232 226 232 339 C232 450 167 533 82 533 L82 441 C121 441 145 398 145 339 C145 280 121 238 82 238 L82 238 Z " />
<glyph glyph-name="uni02D3" unicode="&#x2d3;" horiz-adv-x="294" d="M223 148 L223 238 C184 238 158 281 158 339 C158 398 184 441 223 441 L223 533 C139 533 73 450 73 339 C73 225 139 148 223 148 L223 148 Z " />
<glyph glyph-name="uni02D5" unicode="&#x2d5;" horiz-adv-x="488" d="M409 553 L80 553 L80 402 L171 402 L171 164 L316 164 L316 402 L409 402 L409 553 Z " />
<glyph glyph-name="uni02D6" unicode="&#x2d6;" horiz-adv-x="488" d="M409 432 L316 432 L316 581 L171 581 L171 432 L80 432 L80 281 L171 281 L171 131 L316 131 L316 281 L409 281 L409 432 Z " />
<glyph glyph-name="uni02D7" unicode="&#x2d7;" horiz-adv-x="506" d="M431 432 L75 432 L75 281 L431 281 L431 432 Z " />
<glyph glyph-name="breve" unicode="&#x2d8;" horiz-adv-x="752" d="M648 1509 L480 1509 C480 1435 449 1367 367 1367 C283 1367 252 1435 252 1509 L84 1509 C84 1345 193 1229 367 1229 C539 1229 648 1345 648 1509 L648 1509 Z " />
<glyph glyph-name="dotaccent" unicode="&#x2d9;" horiz-adv-x="456" d="M222 1491 C149 1491 101 1440 101 1372 C101 1305 149 1253 222 1253 C294 1253 342 1305 342 1372 C342 1440 294 1491 222 1491 L222 1491 Z " />
<glyph glyph-name="ring" unicode="&#x2da;" horiz-adv-x="566" d="M285 1578 C181 1578 107 1485 107 1372 C107 1258 181 1169 285 1169 C388 1169 463 1258 463 1372 C463 1485 388 1578 285 1578 L285 1578 Z M285 1259 C233 1259 200 1313 200 1372 C200 1432 233 1485 285 1485 C337 1485 369 1432 369 1372 C369 1312 337 1259 285 1259 L285 1259 Z " />
<glyph glyph-name="ogonek" unicode="&#x2db;" horiz-adv-x="486" d="M310 0 L193 58 C70 -23 43 -127 43 -230 C43 -360 117 -429 206 -429 C262 -429 298 -405 321 -385 L299 -248 C287 -257 274 -272 251 -272 C223 -272 211 -244 211 -203 C211 -123 241 -61 310 0 L310 0 Z " />
<glyph glyph-name="tilde" unicode="&#x2dc;" horiz-adv-x="732" d="M627 1511 L500 1523 C500 1460 476 1417 448 1417 C382 1417 333 1508 265 1508 C173 1508 108 1399 108 1253 L237 1246 C237 1308 259 1351 287 1351 C355 1351 386 1260 469 1260 C561 1260 627 1365 627 1511 L627 1511 Z " />
<glyph glyph-name="hungarumlaut" unicode="&#x2dd;" horiz-adv-x="627" d="M170 1535 L51 1234 L215 1234 L367 1535 L170 1535 Z M449 1535 L306 1234 L471 1234 L647 1535 L449 1535 Z " />
<glyph glyph-name="uni02DE" unicode="&#x2de;" horiz-adv-x="421" d="M-102 735 L-102 546 L37 592 C73 435 96 331 231 331 C273 331 310 345 342 367 L311 539 C301 537 292 535 281 535 C199 535 206 630 181 813 L-102 735 Z " />
<glyph glyph-name="uni02DF" unicode="&#x2df;" horiz-adv-x="542" d="M463 1565 L369 1673 L272 1536 L176 1675 L81 1566 L186 1414 L80 1263 L173 1155 L270 1293 L367 1153 L461 1262 L356 1414 L463 1565 Z " />
<glyph glyph-name="uni02E0" unicode="&#x2e0;" horiz-adv-x="662" d="M418 684 L605 1454 L408 1454 L337 946 L331 910 L325 946 L253 1454 L57 1454 L239 704 L185 528 C170 474 155 435 155 401 C155 282 235 220 328 220 C421 220 496 282 496 401 C496 436 482 476 464 533 L418 684 Z M328 364 C312 364 309 387 309 415 C309 438 317 464 329 502 C341 464 347 438 347 415 C347 387 345 364 328 364 L328 364 Z " />
<glyph glyph-name="uni02E1" unicode="&#x2e1;" horiz-adv-x="345" d="M255 653 L255 1836 L91 1836 L91 653 L255 653 Z " />
<glyph glyph-name="uni02E2" unicode="&#x2e2;" horiz-adv-x="601" d="M265 981 C339 954 376 924 376 865 C376 815 348 784 310 784 C250 784 224 812 222 901 L63 901 C63 769 147 636 305 636 C459 636 538 726 538 877 C538 1024 476 1090 347 1133 C272 1157 241 1182 241 1238 C241 1283 263 1319 298 1319 C342 1319 370 1269 370 1214 L536 1214 C536 1356 447 1466 300 1466 C164 1466 80 1374 80 1229 C80 1088 159 1019 265 981 L265 981 Z " />
<glyph glyph-name="uni02E4" unicode="&#x2e4;" horiz-adv-x="644" d="M338 1307 C382 1307 411 1250 412 1164 L566 1164 C566 1348 471 1466 329 1466 C187 1466 90 1337 90 1103 C90 919 153 798 247 763 L247 653 L412 653 L412 903 L331 903 C278 903 253 981 253 1100 C253 1226 282 1307 338 1307 L338 1307 Z " />
<glyph glyph-name="uni02EA" unicode="&#x2ea;" horiz-adv-x="634" d="M329 187 L329 908 L100 908 L100 0 L565 0 L565 187 L329 187 Z " />
<glyph glyph-name="uni02EE" unicode="&#x2ee;" horiz-adv-x="662" d="M322 1374 L322 1560 L132 1560 L132 1373 C132 1250 110 1154 80 1065 L190 991 C261 1083 322 1242 322 1374 L322 1374 Z M582 1374 L582 1560 L391 1560 L391 1373 C391 1250 370 1154 339 1065 L450 991 C521 1083 582 1242 582 1374 L582 1374 Z " />
<glyph glyph-name="uni02EF" unicode="&#x2ef;" horiz-adv-x="502" d="M315 -72 L254 -364 L251 -378 L249 -364 L186 -72 L75 -72 L199 -547 L304 -547 L427 -72 L315 -72 Z " />
<glyph glyph-name="uni02F0" unicode="&#x2f0;" horiz-adv-x="501" d="M304 -72 L198 -72 L75 -547 L186 -547 L249 -255 L251 -243 L253 -255 L315 -547 L427 -547 L304 -72 Z " />
<glyph glyph-name="uni02F1" unicode="&#x2f1;" horiz-adv-x="509" d="M434 -188 L434 -67 L75 -258 L75 -360 L434 -549 L434 -429 L238 -319 L202 -309 L238 -300 L434 -188 Z " />
<glyph glyph-name="uni02F2" unicode="&#x2f2;" horiz-adv-x="509" d="M75 -67 L75 -188 L270 -300 L307 -309 L270 -319 L75 -429 L75 -549 L434 -360 L434 -258 L75 -67 Z " />
<glyph glyph-name="uni02F3" unicode="&#x2f3;" horiz-adv-x="487" d="M251 -68 C176 -68 118 -140 118 -237 C118 -334 176 -402 251 -402 C324 -402 381 -335 381 -237 C381 -140 324 -68 251 -68 L251 -68 Z M251 -316 C222 -316 200 -281 200 -237 C200 -191 222 -156 251 -156 C278 -156 297 -191 297 -237 C297 -283 278 -316 251 -316 L251 -316 Z " />
<glyph glyph-name="uni02F4" unicode="&#x2f4;" horiz-adv-x="531" d="M478 216 L319 516 L62 516 L285 216 L478 216 Z " />
<glyph glyph-name="uni02F5" unicode="&#x2f5;" horiz-adv-x="884" d="M478 216 L319 516 L62 516 L285 216 L478 216 Z M913 217 L754 517 L497 517 L720 217 L913 217 Z " />
<glyph glyph-name="uni02F6" unicode="&#x2f6;" horiz-adv-x="887" d="M239 516 L79 216 L272 216 L494 516 L239 516 Z M667 517 L507 217 L700 217 L922 517 L667 517 Z " />
<glyph glyph-name="uni02F7" unicode="&#x2f7;" horiz-adv-x="676" d="M597 -164 L468 -154 C468 -216 445 -258 417 -258 C352 -258 301 -167 235 -167 C141 -167 76 -278 76 -422 L206 -429 C206 -367 227 -325 257 -325 C325 -325 355 -417 438 -417 C530 -417 597 -312 597 -164 L597 -164 Z " />
<glyph glyph-name="uni02F8" unicode="&#x2f8;" horiz-adv-x="444" d="M241 642 C161 642 108 585 108 511 C108 439 161 382 241 382 C322 382 375 439 375 511 C375 585 322 642 241 642 L241 642 Z M230 1446 C150 1446 97 1389 97 1315 C97 1243 150 1186 230 1186 C311 1186 364 1243 364 1315 C364 1389 311 1446 230 1446 L230 1446 Z " />
<glyph glyph-name="uni02F9" unicode="&#x2f9;" horiz-adv-x="438" d="M359 1536 L80 1536 L80 1144 L224 1144 L224 1384 L359 1384 L359 1536 Z " />
<glyph glyph-name="uni02FA" unicode="&#x2fa;" horiz-adv-x="438" d="M359 1536 L80 1536 L80 1384 L214 1384 L214 1144 L359 1144 L359 1536 Z " />
<glyph glyph-name="uni02FB" unicode="&#x2fb;" horiz-adv-x="438" d="M224 -317 L224 -76 L80 -76 L80 -469 L359 -469 L359 -317 L224 -317 Z " />
<glyph glyph-name="uni02FC" unicode="&#x2fc;" horiz-adv-x="438" d="M214 -76 L214 -317 L80 -317 L80 -469 L359 -469 L359 -76 L214 -76 Z " />
<glyph glyph-name="uni02FD" unicode="&#x2fd;" horiz-adv-x="646" d="M422 -85 L422 -309 L224 -309 L224 -85 L80 -85 L80 -451 L567 -451 L567 -85 L422 -85 Z " />
<glyph glyph-name="uni02FE" unicode="&#x2fe;" horiz-adv-x="607" d="M224 -327 L224 -76 L80 -76 L80 -469 L527 -469 L527 -327 L224 -327 Z " />
<glyph glyph-name="uni02FF" unicode="&#x2ff;" horiz-adv-x="678" d="M599 -61 L285 -61 L444 169 L276 169 L76 -133 L276 -435 L444 -435 L286 -206 L599 -206 L599 -61 Z " />
<glyph glyph-name="gravecomb" unicode="&#x300;" horiz-adv-x="0" d="M-214 1236 L-346 1536 L-593 1536 L-398 1236 L-214 1236 Z " />
<glyph glyph-name="acutecomb" unicode="&#x301;" horiz-adv-x="0" d="M-312 1536 L-444 1236 L-261 1236 L-65 1536 L-312 1536 Z " />
<glyph glyph-name="uni0302" unicode="&#x302;" horiz-adv-x="0" d="M-76 1261 L-289 1536 L-420 1536 L-628 1263 L-628 1250 L-454 1250 L-354 1409 L-255 1250 L-76 1250 L-76 1261 Z " />
<glyph glyph-name="tildecomb" unicode="&#x303;" horiz-adv-x="0" d="M-80 1511 L-207 1523 C-207 1460 -231 1417 -259 1417 C-325 1417 -374 1508 -442 1508 C-534 1508 -599 1399 -599 1253 L-470 1246 C-470 1308 -448 1351 -420 1351 C-352 1351 -321 1260 -238 1260 C-146 1260 -80 1365 -80 1511 L-80 1511 Z " />
<glyph glyph-name="uni0304" unicode="&#x304;" horiz-adv-x="0" d="M-126 1298 L-126 1449 L-603 1449 L-603 1298 L-126 1298 Z " />
<glyph glyph-name="uni0305" unicode="&#x305;" horiz-adv-x="0" d="M-44 1586 L-44 1770 L-660 1770 L-660 1586 L-44 1586 Z " />
<glyph glyph-name="uni0306" unicode="&#x306;" horiz-adv-x="0" d="M-120 1509 L-280 1509 C-280 1435 -303 1367 -362 1367 C-423 1367 -445 1435 -445 1509 L-605 1509 C-605 1345 -511 1229 -362 1229 C-215 1229 -120 1345 -120 1509 L-120 1509 Z " />
<glyph glyph-name="uni0307" unicode="&#x307;" horiz-adv-x="0" d="M-363 1492 C-438 1492 -487 1438 -487 1368 C-487 1297 -438 1244 -363 1244 C-286 1244 -237 1297 -237 1368 C-237 1438 -286 1492 -363 1492 L-363 1492 Z " />
<glyph glyph-name="uni0308" unicode="&#x308;" horiz-adv-x="0" d="M-579 1485 C-639 1485 -685 1434 -685 1370 C-685 1306 -639 1256 -579 1256 C-519 1256 -474 1306 -474 1370 C-474 1434 -519 1485 -579 1485 L-579 1485 Z M-245 1483 C-305 1483 -350 1433 -350 1368 C-350 1305 -305 1255 -245 1255 C-186 1255 -141 1305 -141 1368 C-141 1433 -186 1483 -245 1483 L-245 1483 Z " />
<glyph glyph-name="hookabovecomb" unicode="&#x309;" horiz-adv-x="0" d="M-473 1253 L-302 1253 L-302 1320 C-256 1331 -207 1372 -207 1470 C-207 1586 -297 1660 -478 1660 L-483 1542 C-431 1542 -401 1523 -401 1468 C-401 1420 -426 1402 -485 1396 L-473 1253 Z " />
<glyph glyph-name="uni030A" unicode="&#x30a;" horiz-adv-x="0" d="M-324 1578 C-428 1578 -502 1485 -502 1372 C-502 1258 -428 1169 -324 1169 C-221 1169 -146 1258 -146 1372 C-146 1485 -221 1578 -324 1578 L-324 1578 Z M-324 1259 C-376 1259 -409 1313 -409 1372 C-409 1432 -376 1485 -324 1485 C-272 1485 -240 1432 -240 1372 C-240 1312 -272 1259 -324 1259 L-324 1259 Z " />
<glyph glyph-name="uni030B" unicode="&#x30b;" horiz-adv-x="0" d="M-78 1536 L-568 1536 L-728 1236 L-535 1236 L-385 1439 L-493 1236 L-300 1236 L-78 1536 Z " />
<glyph glyph-name="uni030C" unicode="&#x30c;" horiz-adv-x="0" d="M-85 1526 L-298 1250 L-430 1250 L-639 1523 L-639 1536 L-463 1536 L-365 1379 L-266 1536 L-85 1536 L-85 1526 Z " />
<glyph glyph-name="uni030D" unicode="&#x30d;" horiz-adv-x="0" d="M-283 1147 L-283 1566 L-426 1566 L-426 1147 L-283 1147 Z " />
<glyph glyph-name="uni030E" unicode="&#x30e;" horiz-adv-x="0" d="M-284 1566 L-533 1566 L-533 1147 L-284 1147 L-284 1566 Z " />
<glyph glyph-name="uni030F" unicode="&#x30f;" horiz-adv-x="0" d="M-462 1518 L-304 1252 L-489 1252 L-682 1518 L-462 1518 Z M-185 1518 L-57 1252 L-239 1252 L-403 1518 L-185 1518 Z " />
<glyph glyph-name="uni0310" unicode="&#x310;" horiz-adv-x="0" d="M-279 1503 C-252 1525 -237 1558 -237 1596 C-237 1662 -286 1716 -362 1716 C-438 1716 -487 1662 -487 1596 C-487 1528 -438 1476 -362 1476 C-329 1476 -301 1486 -280 1503 C-280 1429 -301 1361 -362 1361 C-423 1361 -445 1428 -445 1503 L-605 1503 C-605 1339 -511 1223 -362 1223 C-215 1223 -119 1339 -119 1503 L-279 1503 Z " />
<glyph glyph-name="uni0311" unicode="&#x311;" horiz-adv-x="0" d="M-280 1176 L-119 1176 C-119 1341 -215 1456 -362 1456 C-511 1456 -605 1341 -605 1176 L-446 1176 C-446 1251 -423 1318 -362 1318 C-301 1318 -280 1251 -280 1176 L-280 1176 Z " />
<glyph glyph-name="uni0312" unicode="&#x312;" horiz-adv-x="0" d="M-459 1190 L-459 1001 L-269 1001 L-269 1192 C-269 1315 -247 1410 -216 1500 L-328 1574 C-398 1481 -459 1322 -459 1190 L-459 1190 Z " />
<glyph glyph-name="uni0313" unicode="&#x313;" horiz-adv-x="0" d="M-284 1386 L-284 1575 L-474 1575 L-474 1384 C-474 1261 -496 1166 -527 1076 L-415 1002 C-345 1095 -284 1254 -284 1386 L-284 1386 Z " />
<glyph glyph-name="uni0314" unicode="&#x314;" horiz-adv-x="0" d="M-489 1385 L-489 1574 L-300 1574 L-300 1384 C-300 1261 -277 1165 -247 1076 L-357 1001 C-428 1094 -489 1253 -489 1385 L-489 1385 Z " />
<glyph glyph-name="uni0315" unicode="&#x315;" horiz-adv-x="0" d="M94 1386 L94 1575 L-96 1575 L-96 1384 C-96 1261 -118 1166 -149 1076 L-37 1002 C33 1095 94 1254 94 1386 L94 1386 Z " />
<glyph glyph-name="uni0316" unicode="&#x316;" horiz-adv-x="0" d="M-150 -388 L-309 -88 L-566 -88 L-343 -388 L-150 -388 Z " />
<glyph glyph-name="uni0317" unicode="&#x317;" horiz-adv-x="0" d="M-391 -88 L-551 -388 L-358 -388 L-136 -88 L-391 -88 Z " />
<glyph glyph-name="uni0318" unicode="&#x318;" horiz-adv-x="0" d="M-332 -62 L-332 -193 L-543 -193 L-543 -344 L-332 -344 L-332 -474 L-187 -474 L-187 -62 L-332 -62 Z " />
<glyph glyph-name="uni0319" unicode="&#x319;" horiz-adv-x="0" d="M-184 -193 L-395 -193 L-395 -62 L-540 -62 L-540 -474 L-395 -474 L-395 -344 L-184 -344 L-184 -193 Z " />
<glyph glyph-name="uni031A" unicode="&#x31a;" horiz-adv-x="0" d="M-59 1656 L-526 1656 L-526 1516 L-203 1516 L-203 1283 L-59 1283 L-59 1656 Z " />
<glyph glyph-name="uni031B" unicode="&#x31b;" horiz-adv-x="0" d="M-39 1488 L-39 1567 L-230 1567 C-230 1270 -247 1181 -282 1069 L-171 994 C-92 1099 -39 1238 -39 1488 L-39 1488 Z " />
<glyph glyph-name="uni031C" unicode="&#x31c;" horiz-adv-x="0" d="M-288 -374 L-288 -464 C-372 -464 -438 -387 -438 -273 C-438 -162 -372 -79 -288 -79 L-288 -171 C-326 -171 -352 -214 -352 -273 C-352 -332 -326 -374 -288 -374 L-288 -374 Z " />
<glyph glyph-name="uni031D" unicode="&#x31d;" horiz-adv-x="0" d="M-283 -297 L-283 -79 L-428 -79 L-428 -297 L-519 -297 L-519 -449 L-190 -449 L-190 -297 L-283 -297 Z " />
<glyph glyph-name="uni031E" unicode="&#x31e;" horiz-adv-x="0" d="M-199 -89 L-529 -89 L-529 -242 L-437 -242 L-437 -461 L-290 -461 L-290 -242 L-199 -242 L-199 -89 Z " />
<glyph glyph-name="uni031F" unicode="&#x31f;" horiz-adv-x="0" d="M-189 -225 L-282 -225 L-282 -89 L-427 -89 L-427 -225 L-518 -225 L-518 -362 L-427 -362 L-427 -499 L-282 -499 L-282 -362 L-189 -362 L-189 -225 Z " />
<glyph glyph-name="uni0320" unicode="&#x320;" horiz-adv-x="0" d="M-176 -193 L-549 -193 L-549 -346 L-176 -346 L-176 -193 Z " />
<glyph glyph-name="uni0321" unicode="&#x321;" horiz-adv-x="0" d="M-32 181 L-198 181 L-198 -78 C-198 -209 -261 -252 -304 -252 C-319 -252 -333 -249 -352 -243 L-350 -415 C-320 -425 -292 -431 -263 -431 C-120 -431 -32 -306 -32 -78 L-32 181 Z " />
<glyph glyph-name="uni0322" unicode="&#x322;" horiz-adv-x="0" d="M-190 181 L-25 181 L-25 -78 C-25 -209 36 -252 81 -252 C97 -252 111 -249 130 -243 L128 -415 C97 -425 70 -431 40 -431 C-103 -431 -190 -306 -190 -78 L-190 181 Z " />
<glyph glyph-name="dotbelowcomb" unicode="&#x323;" horiz-adv-x="0" d="M-456 -120 C-536 -120 -588 -173 -588 -240 C-588 -307 -536 -359 -456 -359 C-376 -359 -323 -307 -323 -240 C-323 -173 -376 -120 -456 -120 L-456 -120 Z " />
<glyph glyph-name="uni0324" unicode="&#x324;" horiz-adv-x="0" d="M-582 -125 C-642 -125 -687 -176 -687 -240 C-687 -305 -642 -354 -582 -354 C-521 -354 -477 -305 -477 -240 C-477 -176 -521 -125 -582 -125 L-582 -125 Z M-248 -126 C-308 -126 -352 -177 -352 -242 C-352 -306 -308 -356 -248 -356 C-188 -356 -143 -306 -143 -242 C-143 -177 -188 -126 -248 -126 L-248 -126 Z " />
<glyph glyph-name="uni0325" unicode="&#x325;" horiz-adv-x="0" d="M-322 -61 C-426 -61 -500 -154 -500 -267 C-500 -381 -426 -470 -322 -470 C-219 -470 -144 -381 -144 -267 C-144 -154 -219 -61 -322 -61 L-322 -61 Z M-322 -380 C-374 -380 -407 -326 -407 -267 C-407 -207 -374 -154 -322 -154 C-270 -154 -238 -207 -238 -267 C-238 -327 -270 -380 -322 -380 L-322 -380 Z " />
<glyph glyph-name="uni0326" unicode="&#x326;" horiz-adv-x="0" d="M-249 -220 L-249 -147 L-414 -147 L-414 -229 C-414 -329 -435 -403 -465 -477 L-355 -551 C-295 -469 -249 -334 -249 -220 L-249 -220 Z " />
<glyph glyph-name="uni0327" unicode="&#x327;" horiz-adv-x="0" d="M-302 4 L-474 4 L-495 -135 C-432 -144 -406 -162 -406 -223 C-406 -289 -426 -315 -462 -315 L-458 -448 C-297 -448 -214 -358 -214 -226 C-214 -110 -263 -66 -310 -53 L-302 4 Z " />
<glyph glyph-name="uni0328" unicode="&#x328;" horiz-adv-x="0" d="M-268 0 L-372 58 C-493 -23 -535 -127 -535 -230 C-535 -360 -462 -429 -371 -429 C-315 -429 -279 -405 -256 -385 L-279 -248 C-290 -257 -305 -272 -326 -272 C-355 -272 -366 -244 -366 -203 C-366 -123 -336 -61 -268 0 L-268 0 Z " />
<glyph glyph-name="uni0329" unicode="&#x329;" horiz-adv-x="0" d="M-284 -497 L-284 -78 L-427 -78 L-427 -497 L-284 -497 Z " />
<glyph glyph-name="uni032A" unicode="&#x32a;" horiz-adv-x="0" d="M-120 -104 L-608 -104 L-608 -468 L-463 -468 L-463 -244 L-265 -244 L-265 -468 L-120 -468 L-120 -104 Z " />
<glyph glyph-name="uni032B" unicode="&#x32b;" horiz-adv-x="0" d="M-157 -113 C-157 -184 -189 -230 -239 -230 C-291 -230 -320 -184 -320 -114 L-402 -114 C-402 -184 -433 -230 -485 -230 C-533 -230 -568 -184 -568 -113 L-648 -113 C-648 -251 -579 -351 -485 -351 C-434 -351 -391 -323 -362 -277 C-333 -323 -291 -351 -239 -351 C-145 -351 -74 -251 -74 -113 L-157 -113 Z " />
<glyph glyph-name="uni032C" unicode="&#x32c;" horiz-adv-x="0" d="M-85 -132 L-298 -407 L-430 -407 L-639 -133 L-639 -120 L-463 -120 L-365 -279 L-265 -120 L-85 -120 L-85 -132 Z " />
<glyph glyph-name="uni032D" unicode="&#x32d;" horiz-adv-x="0" d="M-77 -383 L-290 -108 L-421 -108 L-629 -381 L-629 -394 L-455 -394 L-355 -235 L-256 -394 L-77 -394 L-77 -383 Z " />
<glyph glyph-name="uni032E" unicode="&#x32e;" horiz-adv-x="0" d="M-120 -91 L-280 -91 C-280 -167 -303 -233 -362 -233 C-423 -233 -446 -167 -446 -91 L-605 -91 C-605 -256 -511 -372 -362 -372 C-215 -372 -120 -256 -120 -91 L-120 -91 Z " />
<glyph glyph-name="uni032F" unicode="&#x32f;" horiz-adv-x="0" d="M-280 -381 L-120 -381 C-120 -216 -215 -101 -362 -101 C-511 -101 -605 -216 -605 -381 L-446 -381 C-446 -306 -423 -240 -362 -240 C-303 -240 -280 -306 -280 -381 L-280 -381 Z " />
<glyph glyph-name="uni0330" unicode="&#x330;" horiz-adv-x="0" d="M-96 -121 L-223 -109 C-223 -172 -247 -215 -275 -215 C-341 -215 -390 -124 -458 -124 C-550 -124 -615 -233 -615 -379 L-486 -386 C-486 -324 -464 -281 -436 -281 C-368 -281 -337 -372 -254 -372 C-162 -372 -96 -267 -96 -121 L-96 -121 Z " />
<glyph glyph-name="uni0331" unicode="&#x331;" horiz-adv-x="0" d="M-116 -312 L-116 -161 L-593 -161 L-593 -312 L-116 -312 Z " />
<glyph glyph-name="uni0332" unicode="&#x332;" horiz-adv-x="0" d="M-46 -333 L-46 -149 L-662 -149 L-662 -333 L-46 -333 Z " />
<glyph glyph-name="uni0333" unicode="&#x333;" horiz-adv-x="0" d="M-54 -250 L-54 -85 L-669 -85 L-669 -250 L-54 -250 Z M-54 -508 L-54 -343 L-669 -343 L-669 -508 L-54 -508 Z " />
<glyph glyph-name="uni0334" unicode="&#x334;" horiz-adv-x="0" d="M-96 667 L-223 679 C-223 616 -247 573 -275 573 C-341 573 -390 664 -458 664 C-550 664 -615 555 -615 409 L-486 402 C-486 464 -464 507 -436 507 C-368 507 -337 416 -254 416 C-162 416 -96 521 -96 667 L-96 667 Z " />
<glyph glyph-name="uni0335" unicode="&#x335;" horiz-adv-x="0" d="M-113 455 L-113 619 L-598 619 L-598 455 L-113 455 Z " />
<glyph glyph-name="uni0336" unicode="&#x336;" horiz-adv-x="0" d="M61 454 L61 618 L-788 618 L-788 454 L61 454 Z " />
<glyph glyph-name="uni0337" unicode="&#x337;" horiz-adv-x="0" d="M-525 -139 L-81 1213 L-205 1213 L-646 -139 L-525 -139 Z " />
<glyph glyph-name="uni0338" unicode="&#x338;" horiz-adv-x="0" d="M-717 -94 L-91 1516 L-187 1516 L-815 -94 L-717 -94 Z " />
<glyph glyph-name="uni0339" unicode="&#x339;" horiz-adv-x="0" d="M-429 -374 L-429 -464 C-344 -464 -279 -386 -279 -273 C-279 -162 -344 -79 -429 -79 L-429 -171 C-390 -171 -366 -214 -366 -273 C-366 -332 -390 -374 -429 -374 L-429 -374 Z " />
<glyph glyph-name="uni033A" unicode="&#x33a;" horiz-adv-x="0" d="M-255 -110 L-255 -334 L-453 -334 L-453 -110 L-597 -110 L-597 -476 L-110 -476 L-110 -110 L-255 -110 Z " />
<glyph glyph-name="uni033B" unicode="&#x33b;" horiz-adv-x="0" d="M-512 -81 L-512 -494 L-210 -494 L-210 -81 L-512 -81 Z M-402 -373 L-402 -202 L-320 -202 L-320 -373 L-402 -373 Z " />
<glyph glyph-name="uni033C" unicode="&#x33c;" horiz-adv-x="0" d="M-239 -110 C-291 -110 -333 -138 -362 -185 C-391 -138 -434 -110 -485 -110 C-579 -110 -648 -211 -648 -349 L-568 -349 C-568 -277 -533 -231 -485 -231 C-433 -231 -402 -277 -402 -348 L-320 -348 C-320 -277 -291 -231 -239 -231 C-189 -231 -157 -277 -157 -349 L-74 -349 C-74 -211 -145 -110 -239 -110 L-239 -110 Z " />
<glyph glyph-name="uni033D" unicode="&#x33d;" horiz-adv-x="0" d="M-190 1629 L-268 1728 L-346 1600 L-424 1729 L-503 1630 L-416 1487 L-503 1345 L-425 1246 L-347 1373 L-269 1244 L-191 1343 L-278 1486 L-190 1629 Z " />
<glyph glyph-name="uni033E" unicode="&#x33e;" horiz-adv-x="0" d="M-454 1249 L-454 1123 C-345 1123 -276 1174 -276 1269 C-276 1358 -314 1434 -314 1494 C-314 1526 -302 1544 -275 1544 L-275 1670 C-371 1670 -449 1625 -449 1528 C-449 1442 -410 1360 -410 1306 C-410 1279 -410 1249 -454 1249 L-454 1249 Z " />
<glyph glyph-name="uni033F" unicode="&#x33f;" horiz-adv-x="0" d="M-53 1496 L-53 1646 L-669 1646 L-669 1496 L-53 1496 Z M-53 1764 L-53 1914 L-670 1914 L-670 1764 L-53 1764 Z " />
<glyph glyph-name="uni0340" unicode="&#x340;" horiz-adv-x="0" d="M238 1236 L79 1536 L-178 1536 L45 1236 L238 1236 Z " />
<glyph glyph-name="uni0341" unicode="&#x341;" horiz-adv-x="0" d="M1 1536 L-159 1236 L34 1236 L256 1536 L1 1536 Z " />
<glyph glyph-name="uni0342" unicode="&#x342;" horiz-adv-x="0" d="M-96 1511 L-223 1523 C-223 1460 -247 1417 -275 1417 C-341 1417 -390 1508 -458 1508 C-550 1508 -615 1399 -615 1253 L-486 1246 C-486 1308 -464 1351 -436 1351 C-368 1351 -337 1260 -254 1260 C-162 1260 -96 1365 -96 1511 L-96 1511 Z " />
<glyph glyph-name="uni0343" unicode="&#x343;" horiz-adv-x="0" d="M-756 1155 L-756 1228 L-921 1228 L-921 1146 C-921 1046 -942 972 -972 898 L-862 824 C-802 906 -756 1041 -756 1155 L-756 1155 Z " />
<glyph glyph-name="uni0344" unicode="&#x344;" horiz-adv-x="0" d="M-573 1485 C-633 1485 -678 1434 -678 1370 C-678 1306 -633 1256 -573 1256 C-513 1256 -468 1306 -468 1370 C-468 1434 -513 1485 -573 1485 L-573 1485 Z M-389 1708 L-419 1414 L-309 1414 L-188 1708 L-389 1708 Z M-137 1483 C-197 1483 -242 1433 -242 1368 C-242 1305 -197 1255 -137 1255 C-77 1255 -33 1305 -33 1368 C-33 1433 -77 1483 -137 1483 L-137 1483 Z " />
<glyph glyph-name="uni0345" unicode="&#x345;" horiz-adv-x="0" d="M-301 -70 L-438 -70 L-438 -342 C-438 -472 -379 -526 -305 -526 C-278 -526 -259 -521 -241 -514 L-240 -409 C-247 -411 -256 -413 -266 -413 C-293 -413 -301 -395 -301 -338 L-301 -70 Z " />
<glyph glyph-name="uni0346" unicode="&#x346;" horiz-adv-x="0" d="M-120 1606 L-607 1606 L-607 1214 L-462 1214 L-462 1466 L-264 1466 L-264 1214 L-120 1214 L-120 1606 Z " />
<glyph glyph-name="uni0347" unicode="&#x347;" horiz-adv-x="0" d="M-176 -102 L-549 -102 L-549 -251 L-176 -251 L-176 -102 Z M-176 -343 L-549 -343 L-549 -492 L-176 -492 L-176 -343 Z " />
<glyph glyph-name="uni0348" unicode="&#x348;" horiz-adv-x="0" d="M-405 -82 L-405 -78 L-548 -78 L-548 -497 L-407 -497 L-407 -501 L-264 -501 L-264 -82 L-405 -82 Z " />
<glyph glyph-name="uni0349" unicode="&#x349;" horiz-adv-x="0" d="M-198 -113 L-477 -113 L-477 -264 L-342 -264 L-342 -506 L-198 -506 L-198 -113 Z " />
<glyph glyph-name="uni034A" unicode="&#x34a;" horiz-adv-x="0" d="M-222 1523 C-222 1460 -246 1417 -274 1417 C-280 1417 -285 1418 -291 1419 L-258 1522 C-258 1522 -345 1581 -345 1581 L-380 1474 C-404 1492 -429 1508 -457 1508 C-549 1508 -614 1399 -614 1253 L-485 1246 C-485 1308 -463 1351 -435 1351 C-430 1351 -425 1350 -420 1349 L-456 1237 L-368 1178 L-332 1291 C-310 1274 -285 1260 -253 1260 C-161 1260 -95 1365 -95 1511 L-222 1523 Z " />
<glyph glyph-name="uni034B" unicode="&#x34b;" horiz-adv-x="0" d="M-371 1388 C-446 1388 -496 1335 -496 1268 C-496 1201 -446 1149 -371 1149 C-295 1149 -246 1201 -246 1268 C-246 1335 -295 1388 -371 1388 L-371 1388 Z M-114 1662 L-242 1674 C-242 1611 -265 1569 -294 1569 C-359 1569 -409 1660 -476 1660 C-568 1660 -634 1550 -634 1404 L-506 1398 C-506 1460 -482 1502 -455 1502 C-386 1502 -356 1411 -273 1411 C-181 1411 -114 1517 -114 1662 L-114 1662 Z M-371 1926 C-446 1926 -496 1875 -496 1807 C-496 1740 -446 1688 -371 1688 C-295 1688 -246 1740 -246 1807 C-246 1875 -295 1926 -371 1926 L-371 1926 Z " />
<glyph glyph-name="uni034C" unicode="&#x34c;" horiz-adv-x="0" d="M-101 1457 L-229 1467 C-229 1416 -253 1383 -281 1383 C-346 1383 -396 1456 -463 1456 C-555 1456 -622 1367 -622 1253 L-493 1247 C-493 1297 -469 1330 -441 1330 C-374 1330 -343 1257 -260 1257 C-168 1257 -101 1342 -101 1457 L-101 1457 Z M-101 1683 L-229 1692 C-229 1642 -253 1609 -281 1609 C-346 1609 -396 1682 -463 1682 C-555 1682 -622 1592 -622 1480 L-493 1473 C-493 1523 -469 1556 -441 1556 C-374 1556 -343 1483 -260 1483 C-168 1483 -101 1568 -101 1683 L-101 1683 Z " />
<glyph glyph-name="uni034D" unicode="&#x34d;" horiz-adv-x="0" d="M-192 -116 L-309 -116 L-200 -279 L-525 -279 L-416 -116 L-532 -116 L-672 -333 L-532 -551 L-415 -551 L-524 -389 L-200 -389 L-309 -551 L-192 -551 L-53 -333 L-192 -116 Z " />
<glyph glyph-name="uni034E" unicode="&#x34e;" horiz-adv-x="0" d="M-222 -295 L-362 -89 L-502 -295 L-502 -423 L-412 -296 L-412 -551 L-312 -551 L-312 -296 L-222 -423 L-222 -295 Z " />
<glyph glyph-name="uni034F" unicode="&#x34f;" horiz-adv-x="0" />
<glyph glyph-name="uni0350" unicode="&#x350;" horiz-adv-x="0" d="M-565 1846 L-565 1687 L-368 1532 L-326 1517 L-368 1502 L-565 1349 L-565 1191 L-198 1452 L-198 1585 L-565 1846 Z " />
<glyph glyph-name="uni0351" unicode="&#x351;" horiz-adv-x="0" d="M-438 1319 C-438 1206 -374 1128 -288 1128 L-288 1218 C-328 1218 -353 1260 -353 1319 C-353 1378 -328 1421 -288 1421 L-288 1513 C-374 1513 -438 1430 -438 1319 L-438 1319 Z " />
<glyph glyph-name="uni0352" unicode="&#x352;" horiz-adv-x="0" d="M-360 1408 C-438 1408 -486 1354 -486 1287 C-486 1219 -438 1168 -360 1168 C-284 1168 -237 1219 -237 1287 C-237 1354 -284 1408 -360 1408 L-360 1408 Z M-277 1434 L-118 1434 C-118 1599 -212 1714 -361 1714 C-509 1714 -603 1599 -603 1434 L-444 1434 C-444 1510 -421 1576 -361 1576 C-300 1576 -277 1510 -277 1434 L-277 1434 Z " />
<glyph glyph-name="uni0353" unicode="&#x353;" horiz-adv-x="0" d="M-194 -154 L-272 -59 L-349 -182 L-426 -57 L-504 -154 L-418 -293 L-504 -430 L-426 -526 L-350 -404 L-273 -528 L-195 -431 L-280 -293 L-194 -154 Z " />
<glyph glyph-name="uni0354" unicode="&#x354;" horiz-adv-x="0" d="M-176 -188 L-176 -67 L-535 -258 L-535 -360 L-176 -549 L-176 -429 L-372 -319 L-408 -309 L-372 -300 L-176 -188 Z " />
<glyph glyph-name="uni0355" unicode="&#x355;" horiz-adv-x="0" d="M-546 -67 L-546 -188 L-351 -300 L-314 -309 L-351 -319 L-546 -429 L-546 -549 L-187 -360 L-187 -258 L-546 -67 Z " />
<glyph glyph-name="uni0356" unicode="&#x356;" horiz-adv-x="0" d="M-195 -72 L-301 -72 L-344 -237 L-304 -258 L-304 -276 L-357 -290 L-344 -237 L-663 -67 L-663 -188 L-468 -300 L-431 -309 L-468 -319 L-663 -429 L-663 -549 L-387 -404 L-367 -326 L-304 -342 L-304 -360 L-387 -404 L-424 -547 L-313 -547 L-250 -255 L-248 -243 L-246 -255 L-184 -547 L-72 -547 L-195 -72 Z " />
<glyph glyph-name="uni0357" unicode="&#x357;" horiz-adv-x="0" d="M-429 1218 L-429 1128 C-344 1128 -279 1206 -279 1319 C-279 1430 -344 1513 -429 1513 L-429 1421 C-390 1421 -366 1378 -366 1319 C-366 1260 -390 1218 -429 1218 L-429 1218 Z " />
<glyph glyph-name="uni0358" unicode="&#x358;" horiz-adv-x="0" d="M-278 1430 C-358 1430 -410 1377 -410 1310 C-410 1243 -358 1191 -278 1191 C-198 1191 -145 1243 -145 1310 C-145 1377 -198 1430 -278 1430 L-278 1430 Z " />
<glyph glyph-name="uni0359" unicode="&#x359;" horiz-adv-x="0" d="M-410 -329 L-480 -475 L-422 -528 L-364 -379 L-310 -532 L-250 -478 L-315 -335 L-211 -287 L-233 -199 L-332 -260 L-324 -74 L-397 -74 L-388 -257 L-489 -196 L-513 -282 L-410 -329 Z " />
<glyph glyph-name="uni035A" unicode="&#x35a;" horiz-adv-x="0" d="M-232 -67 C-279 -67 -319 -92 -347 -132 C-375 -92 -415 -67 -461 -67 C-553 -67 -618 -159 -618 -273 C-618 -387 -553 -475 -461 -475 C-415 -475 -375 -451 -347 -412 C-319 -451 -279 -475 -232 -475 C-142 -475 -77 -387 -77 -273 C-77 -159 -142 -67 -232 -67 L-232 -67 Z M-461 -384 C-506 -384 -534 -332 -534 -273 C-534 -212 -506 -159 -461 -159 C-418 -159 -392 -212 -392 -273 C-392 -333 -418 -384 -461 -384 L-461 -384 Z M-232 -384 C-274 -384 -302 -332 -302 -273 C-302 -212 -274 -159 -232 -159 C-189 -159 -162 -212 -162 -273 C-162 -333 -189 -384 -232 -384 L-232 -384 Z " />
<glyph glyph-name="uni035B" unicode="&#x35b;" horiz-adv-x="0" d="M-327 1661 C-327 1661 -440 1661 -440 1661 L-521 1357 C-521 1357 -354 1357 -354 1357 L-393 1181 C-393 1181 -281 1181 -281 1181 L-198 1486 C-198 1486 -366 1486 -366 1486 L-327 1661 Z " />
<glyph glyph-name="uni035C" unicode="&#x35c;" horiz-adv-x="0" d="M533 -104 L374 -104 C340 -178 251 -290 36 -290 C-179 -290 -264 -179 -303 -104 L-461 -104 C-412 -269 -281 -428 36 -428 C352 -428 483 -269 533 -104 L533 -104 Z " />
<glyph glyph-name="uni035D" unicode="&#x35d;" horiz-adv-x="0" d="M524 1500 L365 1500 C331 1426 242 1314 27 1314 C-188 1314 -273 1425 -312 1500 L-470 1500 C-421 1335 -290 1176 27 1176 C343 1176 474 1335 524 1500 L524 1500 Z " />
<glyph glyph-name="uni035E" unicode="&#x35e;" horiz-adv-x="0" d="M416 1286 L416 1437 L-363 1437 L-363 1286 L416 1286 Z " />
<glyph glyph-name="uni035F" unicode="&#x35f;" horiz-adv-x="0" d="M425 -301 L425 -150 L-354 -150 L-354 -301 L425 -301 Z " />
<glyph glyph-name="uni0360" unicode="&#x360;" horiz-adv-x="0" d="M717 1488 L600 1526 C586 1448 538 1410 467 1410 C280 1410 -220 1504 -437 1504 C-563 1504 -640 1409 -666 1274 L-546 1242 C-527 1321 -471 1356 -411 1356 C-208 1356 218 1262 496 1262 C616 1262 707 1346 717 1488 L717 1488 Z " />
<glyph glyph-name="uni0361" unicode="&#x361;" horiz-adv-x="0" d="M365 1160 L524 1160 C474 1325 343 1484 27 1484 C-290 1484 -421 1325 -470 1160 L-312 1160 C-273 1236 -188 1346 27 1346 C242 1346 331 1235 365 1160 L365 1160 Z " />
<glyph glyph-name="uni0362" unicode="&#x362;" horiz-adv-x="0" d="M454 -116 L289 -116 L446 -282 L-493 -282 L-493 -386 L448 -386 L288 -553 L454 -553 L656 -334 L454 -116 Z " />
<glyph glyph-name="uni0363" unicode="&#x363;" horiz-adv-x="0" d="M-187 1202 C-196 1241 -202 1279 -202 1334 L-202 1563 C-202 1695 -266 1761 -355 1761 C-454 1761 -516 1687 -516 1588 L-398 1583 C-398 1628 -385 1652 -362 1652 C-334 1652 -322 1622 -322 1564 L-322 1527 L-358 1527 C-473 1527 -529 1464 -529 1356 C-529 1257 -479 1192 -407 1192 C-364 1192 -336 1218 -317 1250 C-315 1233 -311 1217 -307 1202 L-187 1202 Z M-372 1298 C-393 1298 -408 1322 -408 1360 C-408 1405 -396 1444 -356 1444 L-322 1444 L-322 1349 C-330 1322 -349 1298 -372 1298 L-372 1298 Z " />
<glyph glyph-name="uni0364" unicode="&#x364;" horiz-adv-x="0" d="M-184 1490 C-184 1647 -244 1759 -355 1759 C-469 1759 -532 1652 -532 1475 L-532 1454 C-532 1303 -464 1187 -342 1187 C-268 1187 -217 1239 -194 1291 L-249 1363 C-269 1319 -301 1300 -334 1300 C-382 1300 -408 1350 -412 1435 L-184 1435 L-184 1490 Z M-302 1526 L-411 1526 C-407 1601 -392 1648 -356 1648 C-318 1648 -302 1601 -302 1535 L-302 1526 Z " />
<glyph glyph-name="uni0365" unicode="&#x365;" horiz-adv-x="0" d="M-297 1201 L-297 1753 L-418 1753 L-418 1201 L-297 1201 Z M-358 1966 C-397 1966 -422 1933 -422 1891 C-422 1849 -397 1818 -358 1818 C-317 1818 -290 1849 -290 1891 C-290 1933 -317 1966 -358 1966 L-358 1966 Z " />
<glyph glyph-name="uni0366" unicode="&#x366;" horiz-adv-x="0" d="M-536 1467 C-536 1301 -473 1187 -358 1187 C-244 1187 -178 1301 -178 1467 L-178 1478 C-178 1645 -244 1759 -358 1759 C-473 1759 -536 1645 -536 1478 L-536 1467 Z M-299 1467 C-299 1367 -313 1299 -358 1299 C-404 1299 -417 1367 -417 1467 L-417 1478 C-417 1579 -404 1648 -358 1648 C-313 1648 -299 1579 -299 1478 L-299 1467 Z " />
<glyph glyph-name="uni0367" unicode="&#x367;" horiz-adv-x="0" d="M-313 1753 L-313 1345 C-324 1318 -340 1303 -364 1303 C-392 1303 -406 1340 -406 1424 L-406 1753 L-526 1753 L-526 1425 C-526 1259 -476 1191 -402 1191 C-358 1191 -325 1215 -301 1256 L-293 1201 L-190 1201 L-190 1753 L-313 1753 Z " />
<glyph glyph-name="uni0368" unicode="&#x368;" horiz-adv-x="0" d="M-526 1465 C-526 1312 -471 1187 -351 1187 C-261 1187 -192 1273 -193 1379 L-306 1379 C-307 1332 -323 1298 -353 1298 C-401 1298 -406 1371 -406 1465 L-406 1483 C-406 1573 -400 1648 -354 1648 C-319 1648 -306 1601 -306 1553 L-193 1553 C-194 1675 -256 1759 -352 1759 C-470 1759 -526 1634 -526 1483 L-526 1465 Z " />
<glyph glyph-name="uni0369" unicode="&#x369;" horiz-adv-x="0" d="M-305 1992 L-305 1718 C-326 1745 -353 1759 -387 1759 C-484 1759 -534 1647 -534 1480 L-534 1469 C-534 1308 -481 1189 -388 1189 C-348 1189 -318 1209 -296 1245 L-290 1201 L-187 1201 L-187 1992 L-305 1992 Z M-358 1300 C-399 1300 -415 1367 -415 1469 L-415 1480 C-415 1582 -398 1649 -357 1649 C-333 1649 -315 1629 -305 1594 L-305 1353 C-315 1319 -332 1300 -358 1300 L-358 1300 Z " />
<glyph glyph-name="uni036A" unicode="&#x36a;" horiz-adv-x="0" d="M-315 1759 C-352 1759 -383 1737 -406 1699 L-406 1992 L-526 1992 L-526 1201 L-406 1201 L-406 1614 C-396 1636 -381 1648 -360 1648 C-328 1648 -313 1615 -313 1521 L-313 1201 L-190 1201 L-190 1520 C-190 1691 -242 1759 -315 1759 L-315 1759 Z " />
<glyph glyph-name="uni036B" unicode="&#x36b;" horiz-adv-x="0" d="M-210 1759 C-259 1759 -296 1728 -319 1675 C-341 1734 -378 1759 -423 1759 C-467 1759 -501 1735 -525 1694 L-534 1753 L-635 1753 L-635 1201 L-514 1201 L-514 1602 C-504 1631 -487 1648 -463 1648 C-433 1648 -419 1612 -419 1528 L-419 1201 L-299 1201 L-299 1527 C-299 1551 -300 1573 -302 1593 C-292 1628 -275 1648 -247 1648 C-219 1648 -205 1612 -205 1528 L-205 1201 L-85 1201 L-85 1527 C-85 1693 -136 1759 -210 1759 L-210 1759 Z " />
<glyph glyph-name="uni036C" unicode="&#x36c;" horiz-adv-x="0" d="M-265 1759 C-296 1759 -322 1737 -342 1700 L-350 1753 L-452 1753 L-452 1201 L-331 1201 L-331 1592 C-318 1622 -300 1636 -278 1636 C-256 1636 -244 1632 -232 1624 L-232 1754 C-242 1757 -252 1759 -265 1759 L-265 1759 Z " />
<glyph glyph-name="uni036D" unicode="&#x36d;" horiz-adv-x="0" d="M-307 1309 C-331 1309 -339 1327 -339 1384 L-339 1652 L-280 1652 L-280 1759 L-339 1759 L-339 1893 L-460 1893 L-460 1759 L-510 1759 L-510 1652 L-460 1652 L-460 1380 C-460 1250 -416 1196 -344 1196 C-318 1196 -296 1202 -279 1208 L-279 1314 C-283 1312 -294 1309 -307 1309 L-307 1309 Z " />
<glyph glyph-name="uni036E" unicode="&#x36e;" horiz-adv-x="0" d="M-307 1755 L-352 1406 L-358 1363 L-363 1406 L-412 1755 L-539 1755 L-418 1201 L-300 1201 L-180 1755 L-307 1755 Z " />
<glyph glyph-name="uni036F" unicode="&#x36f;" horiz-adv-x="0" d="M-351 1587 L-396 1755 L-525 1755 L-429 1482 L-531 1201 L-402 1201 L-350 1379 L-299 1201 L-169 1201 L-271 1482 L-173 1755 L-302 1755 L-351 1587 Z " />
<glyph glyph-name="uni037E" unicode="&#x37e;" horiz-adv-x="455" d="M247 1104 C167 1104 114 1047 114 973 C114 901 167 844 247 844 C328 844 381 901 381 973 C381 1047 328 1104 247 1104 L247 1104 Z M354 61 L354 231 L155 231 L155 54 C155 -72 110 -160 71 -249 L193 -324 C286 -230 354 -74 354 61 L354 61 Z " />
<glyph glyph-name="tonos" unicode="&#x384;" horiz-adv-x="584" d="M238 1600 L178 1261 L318 1261 L453 1600 L238 1600 Z " />
<glyph glyph-name="dieresistonos" unicode="&#x385;" horiz-adv-x="833" d="M188 1485 C128 1485 83 1434 83 1370 C83 1306 128 1256 188 1256 C248 1256 293 1306 293 1370 C293 1434 248 1485 188 1485 L188 1485 Z M372 1708 L342 1414 L452 1414 L573 1708 L372 1708 Z M624 1483 C564 1483 519 1433 519 1368 C519 1305 564 1255 624 1255 C684 1255 728 1305 728 1368 C728 1433 684 1483 624 1483 L624 1483 Z " />
<glyph glyph-name="anoteleia" unicode="&#x387;" horiz-adv-x="488" d="M250 845 C173 845 123 788 123 715 C123 642 173 587 250 587 C327 587 376 642 376 715 C376 788 327 845 250 845 L250 845 Z " />
<glyph glyph-name="uni03F6" unicode="&#x3f6;" horiz-adv-x="661" d="M250 1089 L53 1089 L53 902 L250 902 C334 902 360 779 365 629 L147 629 L147 454 L365 454 C360 304 334 180 251 180 L53 180 L53 -7 L251 -7 C481 -7 595 225 595 524 L595 558 C595 857 480 1089 250 1089 L250 1089 Z " />
<glyph glyph-name="uni0482" unicode="&#x482;" horiz-adv-x="909" d="M433 447 L564 811 L757 641 L811 764 L616 935 L765 1342 L642 1342 L523 1013 L328 1184 L275 1057 L469 886 L338 523 L143 694 L91 569 L284 398 L134 0 L259 0 L379 321 L573 151 L626 275 L433 447 Z " />
<glyph glyph-name="uni1AB0" unicode="&#x1ab0;" horiz-adv-x="0" d="M-648 1250 L-548 1409 L-450 1250 L-256 1250 L-156 1409 L-56 1250 L121 1250 L121 1261 L-91 1536 L-222 1536 L-353 1344 L-483 1536 L-614 1536 L-824 1263 L-824 1250 L-648 1250 Z " />
<glyph glyph-name="uni1AB1" unicode="&#x1ab1;" horiz-adv-x="0" d="M-662 1472 C-731 1472 -773 1422 -773 1357 C-773 1294 -731 1244 -662 1244 C-595 1244 -552 1294 -552 1357 C-552 1422 -595 1472 -662 1472 L-662 1472 Z M-354 1690 C-448 1690 -514 1597 -514 1484 C-514 1370 -448 1281 -354 1281 C-261 1281 -193 1370 -193 1484 C-193 1597 -261 1690 -354 1690 L-354 1690 Z M-63 1471 C-131 1471 -175 1421 -175 1356 C-175 1293 -131 1243 -63 1243 C4 1243 48 1293 48 1356 C48 1421 4 1471 -63 1471 L-63 1471 Z M-354 1371 C-401 1371 -430 1425 -430 1484 C-430 1544 -401 1597 -354 1597 C-307 1597 -278 1544 -278 1484 C-278 1424 -307 1371 -354 1371 L-354 1371 Z " />
<glyph glyph-name="uni1AB2" unicode="&#x1ab2;" horiz-adv-x="0" d="M-211 1698 C-276 1698 -329 1636 -361 1566 C-394 1636 -446 1698 -511 1698 C-624 1698 -695 1578 -695 1426 L-695 1395 C-695 1245 -624 1125 -510 1125 C-445 1125 -394 1188 -361 1258 C-329 1188 -277 1125 -212 1125 C-98 1125 -29 1245 -29 1395 L-29 1426 C-29 1578 -98 1698 -211 1698 L-211 1698 Z M-419 1404 C-424 1367 -455 1233 -510 1233 C-557 1233 -577 1295 -577 1395 L-577 1426 C-577 1526 -557 1588 -511 1588 C-454 1588 -424 1457 -419 1422 L-419 1404 Z M-153 1395 C-153 1292 -172 1233 -212 1233 C-268 1233 -300 1367 -304 1404 L-304 1422 C-299 1457 -268 1588 -211 1588 C-171 1588 -153 1529 -153 1426 L-153 1395 Z " />
<glyph glyph-name="uni1AB3" unicode="&#x1ab3;" horiz-adv-x="0" d="M-290 1461 L-290 1836 L-432 1836 L-432 1458 L-563 1648 L-563 1460 L-362 1159 L-160 1460 L-160 1648 L-290 1461 Z " />
<glyph glyph-name="uni1AB4" unicode="&#x1ab4;" horiz-adv-x="0" d="M-626 1430 C-706 1430 -758 1377 -758 1310 C-758 1243 -706 1191 -626 1191 C-546 1191 -493 1243 -493 1310 C-493 1377 -546 1430 -626 1430 L-626 1430 Z M-214 1445 C-294 1445 -346 1392 -346 1325 C-346 1258 -294 1206 -214 1206 C-134 1206 -81 1258 -81 1325 C-81 1392 -134 1445 -214 1445 L-214 1445 Z M-439 1730 C-519 1730 -571 1677 -571 1610 C-571 1543 -519 1491 -439 1491 C-359 1491 -306 1543 -306 1610 C-306 1677 -359 1730 -439 1730 L-439 1730 Z " />
<glyph glyph-name="uni1AB5" unicode="&#x1ab5;" horiz-adv-x="0" d="M-405 -272 L-450 -145 L-579 -145 L-483 -351 L-585 -563 L-456 -563 L-404 -429 L-353 -563 L-223 -563 L-325 -351 L-227 -145 L-356 -145 L-405 -272 Z M37 -259 L-8 -132 L-137 -132 L-41 -338 L-143 -550 L-14 -550 L38 -416 L89 -550 L219 -550 L117 -338 L215 -132 L86 -132 L37 -259 Z " />
<glyph glyph-name="uni1AB6" unicode="&#x1ab6;" horiz-adv-x="0" d="M-87 -119 C-155 -119 -173 -210 -226 -210 C-279 -210 -290 -119 -362 -119 C-434 -119 -444 -210 -497 -210 C-550 -210 -568 -119 -636 -119 C-705 -119 -763 -197 -786 -301 L-681 -349 C-669 -304 -657 -271 -633 -271 C-585 -271 -564 -362 -497 -362 C-431 -362 -410 -271 -362 -271 C-313 -271 -293 -362 -226 -362 C-159 -362 -140 -271 -91 -271 C-68 -271 -54 -305 -42 -350 L64 -302 C41 -199 -18 -119 -87 -119 L-87 -119 Z " />
<glyph glyph-name="uni1AB7" unicode="&#x1ab7;" horiz-adv-x="0" d="M-290 -100 L-432 -100 L-432 -284 C-432 -460 -365 -555 -258 -555 C-236 -555 -214 -551 -192 -542 L-190 -400 C-204 -405 -215 -407 -225 -407 C-257 -407 -290 -376 -290 -284 L-290 -100 Z " />
<glyph glyph-name="uni1AB8" unicode="&#x1ab8;" horiz-adv-x="0" d="M-417 -100 L-559 -100 L-559 -284 C-559 -460 -492 -555 -385 -555 C-363 -555 -341 -551 -319 -542 L-317 -400 C-331 -405 -342 -407 -352 -407 C-384 -407 -417 -376 -417 -284 L-417 -100 Z M-144 -100 L-286 -100 L-286 -284 C-286 -460 -219 -555 -112 -555 C-90 -555 -68 -551 -46 -542 L-44 -400 C-58 -405 -69 -407 -79 -407 C-111 -407 -144 -376 -144 -284 L-144 -100 Z " />
<glyph glyph-name="uni1AB9" unicode="&#x1ab9;" horiz-adv-x="0" d="M-352 -483 L-122 71 L-224 142 L-461 -413 L-352 -483 Z " />
<glyph glyph-name="uni1ABA" unicode="&#x1aba;" horiz-adv-x="0" d="M-110 71 L-210 142 L-372 -256 C-418 -268 -452 -316 -452 -374 C-452 -440 -407 -493 -349 -493 C-293 -493 -247 -440 -247 -374 C-247 -352 -252 -332 -260 -314 L-110 71 Z " />
<glyph glyph-name="uni1ABB" unicode="&#x1abb;" horiz-adv-x="0" d="M-751 1500 C-751 1378 -678 1305 -621 1284 L-607 1355 C-637 1377 -671 1416 -671 1500 C-671 1577 -639 1618 -607 1640 L-621 1713 C-678 1691 -751 1618 -751 1500 L-751 1500 Z M-139 1355 L-125 1284 C-68 1305 6 1378 6 1500 C6 1619 -68 1691 -125 1713 L-139 1640 C-107 1618 -74 1579 -74 1500 C-74 1415 -109 1377 -139 1355 L-139 1355 Z " />
<glyph glyph-name="uni1ABC" unicode="&#x1abc;" horiz-adv-x="0" d="M-870 1500 C-870 1378 -797 1305 -740 1284 L-726 1355 C-755 1377 -790 1416 -790 1500 C-790 1577 -757 1618 -726 1640 L-740 1713 C-797 1691 -870 1618 -870 1500 L-870 1500 Z M-731 1500 C-731 1378 -657 1305 -599 1284 L-586 1355 C-615 1377 -650 1416 -650 1500 C-650 1577 -617 1618 -586 1640 L-599 1713 C-657 1691 -731 1618 -731 1500 L-731 1500 Z M-117 1355 L-103 1284 C-47 1305 26 1378 26 1500 C26 1619 -47 1691 -103 1713 L-117 1640 C-86 1618 -54 1579 -54 1500 C-54 1415 -88 1377 -117 1355 L-117 1355 Z M22 1355 L37 1284 C93 1305 166 1378 166 1500 C166 1619 93 1691 37 1713 L22 1640 C53 1618 88 1579 88 1500 C88 1415 51 1377 22 1355 L22 1355 Z " />
<glyph glyph-name="uni1ABD" unicode="&#x1abd;" horiz-adv-x="0" d="M-754 -326 C-754 -447 -681 -520 -624 -542 L-610 -470 C-639 -447 -674 -409 -674 -325 C-674 -249 -641 -208 -610 -185 L-624 -113 C-681 -133 -754 -207 -754 -326 L-754 -326 Z M-141 -470 L-128 -542 C-71 -520 3 -447 3 -326 C3 -206 -71 -133 -128 -113 L-141 -185 C-110 -208 -77 -247 -77 -325 C-77 -409 -112 -447 -141 -470 L-141 -470 Z " />
<glyph glyph-name="uni1ABE" unicode="&#x1abe;" horiz-adv-x="0" d="M-850 590 C-850 469 -777 396 -720 374 L-707 446 C-736 469 -770 506 -770 591 C-770 668 -738 709 -707 731 L-720 804 C-777 783 -850 709 -850 590 L-850 590 Z M6 446 L20 374 C77 396 149 469 149 590 C149 710 77 783 20 804 L6 731 C37 709 70 670 70 591 C70 506 35 469 6 446 L6 446 Z " />
<glyph glyph-name="uni1DC0" unicode="&#x1dc0;" horiz-adv-x="0" d="M-662 1413 C-737 1413 -786 1361 -786 1292 C-786 1225 -737 1173 -662 1173 C-585 1173 -537 1225 -537 1292 C-537 1361 -585 1413 -662 1413 L-662 1413 Z M-218 1235 L-352 1535 L-600 1535 L-404 1235 L-218 1235 Z M-104 1513 C-180 1513 -228 1460 -228 1392 C-228 1325 -180 1273 -104 1273 C-29 1273 21 1325 21 1392 C21 1460 -29 1513 -104 1513 L-104 1513 Z " />
<glyph glyph-name="uni1DC1" unicode="&#x1dc1;" horiz-adv-x="0" d="M-638 1513 C-713 1513 -762 1460 -762 1392 C-762 1325 -713 1273 -638 1273 C-560 1273 -512 1325 -512 1392 C-512 1460 -560 1513 -638 1513 L-638 1513 Z M-388 1535 L-518 1235 L-335 1235 L-139 1535 L-388 1535 Z M-77 1413 C-153 1413 -202 1361 -202 1292 C-202 1225 -153 1173 -77 1173 C-1 1173 47 1225 47 1292 C47 1361 -1 1413 -77 1413 L-77 1413 Z " />
<glyph glyph-name="uni1DC2" unicode="&#x1dc2;" horiz-adv-x="0" d="M-343 -83 C-388 -83 -442 -101 -481 -137 L-440 -213 C-417 -192 -384 -177 -359 -177 C-352 -177 -342 -181 -342 -198 C-342 -222 -448 -236 -448 -291 C-448 -352 -354 -346 -354 -368 C-354 -393 -447 -380 -447 -448 C-447 -505 -383 -543 -276 -555 L-262 -473 C-310 -467 -330 -456 -330 -444 C-330 -421 -233 -433 -233 -366 C-233 -298 -329 -307 -329 -283 C-329 -257 -239 -260 -239 -181 C-239 -128 -280 -83 -343 -83 L-343 -83 Z " />
<glyph glyph-name="uni1DC3" unicode="&#x1dc3;" horiz-adv-x="0" d="M-144 1576 L-356 1397 L-463 1486 L-536 1347 L-355 1198 L-71 1438 L-144 1576 Z " />
<glyph glyph-name="uni1DC5" unicode="&#x1dc5;" horiz-adv-x="0" d="M-665 1535 L-478 1235 L-106 1235 L-106 1388 L-379 1388 L-426 1535 L-665 1535 Z " />
<glyph glyph-name="uni1DC6" unicode="&#x1dc6;" horiz-adv-x="0" d="M-579 1535 L-579 1384 L-318 1384 L-237 1235 L-50 1235 L-184 1535 L-579 1535 Z " />
<glyph glyph-name="uni1DC7" unicode="&#x1dc7;" horiz-adv-x="0" d="M-486 1535 L-619 1235 L-433 1235 L-353 1384 L-101 1384 L-101 1535 L-486 1535 Z " />
<glyph glyph-name="uni1DC8" unicode="&#x1dc8;" horiz-adv-x="0" d="M-674 1535 L-540 1235 L-313 1235 L-249 1406 L-178 1235 L-23 1235 L-106 1535 L-372 1535 L-423 1370 L-474 1535 L-674 1535 Z " />
<glyph glyph-name="uni1DC9" unicode="&#x1dc9;" horiz-adv-x="0" d="M-567 1535 L-652 1235 L-502 1235 L-431 1406 L-360 1235 L-130 1235 L5 1535 L-197 1535 L-248 1372 L-300 1535 L-567 1535 Z " />
<glyph glyph-name="uni1DCA" unicode="&#x1dca;" horiz-adv-x="0" d="M-265 -121 C-296 -121 -322 -143 -342 -180 L-350 -127 L-453 -127 L-453 -550 L-331 -550 L-331 -288 C-318 -258 -300 -244 -278 -244 C-257 -244 -244 -249 -232 -257 L-232 -127 C-243 -123 -253 -121 -265 -121 L-265 -121 Z " />
<glyph glyph-name="uni1DCB" unicode="&#x1dcb;" horiz-adv-x="0" d="M-335 1358 L88 1358 L88 1509 L-454 1509 C-454 1435 -476 1367 -537 1367 C-598 1367 -620 1435 -620 1509 L-780 1509 C-780 1345 -687 1229 -537 1229 C-448 1229 -379 1278 -335 1358 L-335 1358 Z " />
<glyph glyph-name="uni1DCC" unicode="&#x1dcc;" horiz-adv-x="0" d="M-385 1358 C-341 1278 -270 1229 -181 1229 C-33 1229 62 1345 62 1509 L-99 1509 C-99 1435 -120 1367 -181 1367 C-242 1367 -265 1435 -265 1509 L-804 1509 L-804 1358 L-385 1358 Z " />
<glyph glyph-name="uni1DCD" unicode="&#x1dcd;" horiz-adv-x="0" d="M587 1277 L88 1516 L-37 1516 L-531 1279 L-531 1252 L-394 1188 L27 1398 L446 1188 L587 1252 L587 1277 Z " />
<glyph glyph-name="uni1DCE" unicode="&#x1dce;" horiz-adv-x="0" d="M-529 1060 L-412 1002 C-289 1083 -262 1187 -262 1290 C-262 1420 -336 1489 -425 1489 C-481 1489 -517 1465 -540 1445 L-518 1308 C-506 1317 -493 1332 -470 1332 C-442 1332 -430 1304 -430 1263 C-430 1183 -460 1121 -529 1060 L-529 1060 Z " />
<glyph glyph-name="uni1DCF" unicode="&#x1dcf;" horiz-adv-x="0" d="M-274 -278 C-274 -278 -301 -278 -317 -278 L-382 -278 L-346 -112 L-469 -112 L-527 -389 L-341 -389 L-376 -555 L-254 -555 L-196 -278 L-274 -278 Z " />
<glyph glyph-name="uni1DD0" unicode="&#x1dd0;" horiz-adv-x="0" d="M-319 -64 L-448 -64 C-448 -64 -550 -424 -550 -424 L-459 -472 C-421 -436 -382 -414 -347 -414 C-284 -414 -226 -489 -150 -489 C-62 -489 -23 -390 -15 -285 L-113 -248 C-123 -304 -151 -331 -169 -331 C-208 -331 -241 -266 -290 -266 C-317 -266 -341 -279 -378 -311 L-319 -64 Z " />
<glyph glyph-name="uni1DD1" unicode="&#x1dd1;" horiz-adv-x="0" d="M-249 1317 C-249 1271 -260 1249 -279 1249 C-295 1249 -306 1266 -318 1341 C-332 1422 -368 1488 -435 1488 C-500 1488 -556 1421 -556 1323 C-556 1220 -505 1149 -432 1149 L-432 1249 C-457 1253 -472 1273 -472 1323 C-472 1364 -460 1385 -440 1385 C-425 1385 -413 1365 -402 1304 C-384 1203 -352 1146 -283 1146 C-213 1146 -164 1221 -164 1320 C-164 1436 -234 1501 -297 1502 L-297 1405 C-262 1401 -249 1360 -249 1317 L-249 1317 Z " />
<glyph glyph-name="uni1DD2" unicode="&#x1dd2;" horiz-adv-x="0" d="M-563 1657 C-563 1492 -477 1427 -388 1427 C-345 1427 -317 1442 -294 1465 L-311 1548 C-328 1534 -346 1528 -373 1528 C-410 1528 -444 1569 -444 1663 C-444 1751 -407 1805 -358 1805 C-311 1805 -269 1739 -269 1605 C-269 1363 -382 1300 -465 1258 L-423 1150 C-308 1197 -149 1303 -149 1606 C-149 1798 -241 1914 -368 1914 C-478 1914 -563 1810 -563 1657 L-563 1657 Z " />
<glyph glyph-name="uni1DD3" unicode="&#x1dd3;" horiz-adv-x="0" d="M-237 1387 C-237 1330 -247 1300 -274 1300 C-300 1300 -316 1334 -316 1387 L-427 1387 C-427 1330 -438 1300 -465 1300 C-492 1300 -504 1334 -504 1387 L-623 1387 C-623 1274 -559 1192 -465 1192 C-422 1192 -390 1206 -368 1233 C-345 1207 -314 1192 -274 1192 C-181 1192 -117 1257 -117 1387 L-237 1387 Z " />
<glyph glyph-name="uni1DD4" unicode="&#x1dd4;" horiz-adv-x="0" d="M-59 1490 C-59 1647 -119 1759 -230 1759 C-275 1759 -312 1742 -340 1712 C-367 1745 -406 1761 -450 1761 C-549 1761 -612 1687 -612 1588 L-493 1583 C-493 1628 -481 1652 -457 1652 C-429 1652 -417 1622 -417 1564 L-417 1527 L-453 1527 C-568 1527 -624 1464 -624 1356 C-624 1257 -574 1192 -502 1192 C-437 1192 -404 1252 -386 1317 L-409 1391 C-410 1338 -435 1298 -467 1298 C-488 1298 -504 1322 -504 1360 C-504 1405 -491 1444 -452 1444 L-407 1444 C-404 1298 -336 1187 -217 1187 C-143 1187 -92 1239 -69 1291 L-124 1363 C-144 1319 -176 1300 -209 1300 C-257 1300 -283 1350 -287 1435 L-59 1435 L-59 1490 Z M-177 1526 L-286 1526 C-282 1601 -267 1648 -231 1648 C-193 1648 -177 1601 -177 1535 L-177 1526 Z " />
<glyph glyph-name="uni1DD5" unicode="&#x1dd5;" horiz-adv-x="0" d="M-241 1759 C-286 1759 -322 1742 -351 1711 C-378 1744 -417 1761 -461 1761 C-561 1761 -624 1687 -624 1588 L-504 1583 C-504 1628 -492 1652 -469 1652 C-441 1652 -428 1622 -428 1564 L-428 1527 L-465 1527 C-580 1527 -636 1464 -636 1356 C-636 1257 -585 1192 -514 1192 C-449 1192 -415 1252 -398 1317 L-401 1330 C-375 1242 -321 1187 -241 1187 C-127 1187 -61 1301 -61 1467 L-61 1478 C-61 1645 -127 1759 -241 1759 L-241 1759 Z M-417 1391 C-424 1338 -447 1298 -479 1298 C-500 1298 -515 1322 -515 1360 C-515 1405 -502 1444 -464 1444 L-419 1444 C-417 1412 -414 1382 -408 1355 L-417 1391 Z M-182 1467 C-182 1367 -196 1299 -241 1299 C-287 1299 -300 1367 -300 1467 L-300 1478 C-300 1579 -287 1648 -241 1648 C-196 1648 -182 1579 -182 1478 L-182 1467 Z " />
<glyph glyph-name="uni1DD6" unicode="&#x1dd6;" horiz-adv-x="0" d="M-237 1757 L-318 1429 L-318 1563 C-318 1695 -382 1761 -471 1761 C-570 1761 -632 1687 -632 1588 L-514 1583 C-514 1628 -501 1652 -478 1652 C-450 1652 -438 1622 -438 1564 L-438 1527 L-474 1527 C-589 1527 -645 1464 -645 1356 C-645 1257 -595 1192 -523 1192 C-480 1192 -452 1218 -433 1250 C-431 1233 -427 1217 -423 1202 L-264 1202 L-109 1757 L-237 1757 Z M-488 1298 C-509 1298 -524 1322 -524 1360 C-524 1405 -512 1444 -472 1444 L-438 1444 L-438 1349 C-446 1322 -465 1298 -488 1298 L-488 1298 Z " />
<glyph glyph-name="uni1DD7" unicode="&#x1dd7;" horiz-adv-x="0" d="M-185 1379 L-298 1379 C-299 1332 -315 1298 -345 1298 C-393 1298 -398 1371 -398 1465 L-398 1483 C-398 1573 -392 1648 -346 1648 C-311 1648 -298 1601 -298 1553 L-185 1553 C-186 1675 -248 1759 -344 1759 C-462 1759 -518 1634 -518 1483 L-518 1465 C-518 1337 -479 1228 -396 1196 L-408 1124 C-377 1119 -365 1114 -365 1086 C-365 1054 -373 1044 -392 1044 L-389 969 C-304 970 -263 1015 -263 1082 C-263 1140 -288 1161 -313 1170 L-311 1191 C-237 1208 -184 1286 -185 1379 L-185 1379 Z " />
<glyph glyph-name="uni1DD8" unicode="&#x1dd8;" horiz-adv-x="0" d="M-404 1988 L-442 1883 C-386 1853 -326 1787 -300 1665 C-324 1687 -352 1700 -382 1700 C-489 1700 -555 1597 -555 1442 C-555 1303 -477 1193 -364 1193 C-256 1193 -169 1314 -169 1490 L-169 1534 C-169 1770 -273 1941 -404 1988 L-404 1988 Z M-288 1490 C-288 1375 -316 1304 -362 1304 C-407 1304 -435 1364 -435 1442 C-435 1529 -409 1591 -362 1591 C-326 1591 -301 1572 -288 1546 L-288 1535 L-288 1490 Z " />
<glyph glyph-name="uni1DD9" unicode="&#x1dd9;" horiz-adv-x="0" d="M-257 1865 L-196 1916 L-225 1970 L-294 1912 C-326 1948 -364 1974 -404 1988 L-442 1883 C-422 1872 -402 1857 -383 1837 L-447 1782 L-419 1728 L-347 1789 C-327 1756 -311 1716 -300 1665 C-324 1687 -352 1700 -382 1700 C-489 1700 -555 1597 -555 1442 C-555 1303 -477 1193 -364 1193 C-256 1193 -169 1314 -169 1490 L-169 1534 C-169 1669 -203 1783 -257 1865 L-257 1865 Z M-288 1490 C-288 1375 -316 1304 -362 1304 C-407 1304 -435 1364 -435 1442 C-435 1529 -409 1591 -362 1591 C-326 1591 -301 1572 -288 1546 L-288 1535 L-288 1490 Z " />
<glyph glyph-name="uni1DDA" unicode="&#x1dda;" horiz-adv-x="0" d="M-288 1755 L-293 1714 C-314 1747 -343 1766 -384 1766 C-479 1766 -540 1653 -540 1484 L-540 1473 C-540 1313 -478 1193 -386 1193 C-351 1193 -324 1209 -303 1237 L-303 1217 C-303 1128 -332 1095 -378 1095 C-413 1095 -443 1116 -465 1165 L-517 1079 C-484 1017 -421 986 -372 986 C-263 986 -183 1058 -183 1219 L-183 1755 L-288 1755 Z M-354 1305 C-401 1305 -419 1373 -419 1473 L-419 1484 C-419 1586 -398 1655 -353 1655 C-329 1655 -313 1641 -303 1615 L-303 1342 C-313 1318 -328 1305 -354 1305 L-354 1305 Z " />
<glyph glyph-name="uni1DDB" unicode="&#x1ddb;" horiz-adv-x="0" d="M-548 1434 C-548 1290 -469 1191 -360 1191 C-257 1191 -204 1243 -176 1281 L-176 1519 L-365 1519 L-365 1416 L-297 1416 L-297 1332 C-308 1319 -322 1302 -360 1302 C-406 1302 -428 1349 -428 1445 L-428 1542 C-428 1645 -405 1691 -364 1691 C-331 1691 -313 1667 -308 1612 L-188 1613 C-198 1729 -261 1801 -364 1801 C-470 1801 -548 1703 -548 1558 L-548 1434 Z " />
<glyph glyph-name="uni1DDC" unicode="&#x1ddc;" horiz-adv-x="0" d="M-292 1201 L-155 1201 L-297 1536 L-174 1753 L-308 1753 L-386 1578 L-400 1555 L-400 1997 L-520 1997 L-520 1201 L-400 1201 L-400 1370 L-370 1417 L-292 1201 Z " />
<glyph glyph-name="uni1DDD" unicode="&#x1ddd;" horiz-adv-x="0" d="M-302 1992 L-423 1992 L-423 1201 L-302 1201 L-302 1992 Z " />
<glyph glyph-name="uni1DDE" unicode="&#x1dde;" horiz-adv-x="0" d="M-358 1313 L-358 1796 L-479 1796 L-479 1201 L-203 1201 L-203 1313 L-358 1313 Z " />
<glyph glyph-name="uni1DDF" unicode="&#x1ddf;" horiz-adv-x="0" d="M-133 1796 L-284 1796 L-364 1354 L-443 1796 L-591 1796 L-591 1201 L-472 1201 L-472 1499 L-406 1201 L-323 1201 L-254 1507 L-254 1201 L-133 1201 L-133 1796 Z " />
<glyph glyph-name="uni1DE0" unicode="&#x1de0;" horiz-adv-x="0" d="M-364 1763 C-408 1763 -441 1739 -465 1698 L-473 1753 L-576 1753 L-576 1201 L-453 1201 L-453 1609 C-442 1636 -426 1651 -402 1651 C-374 1651 -360 1614 -360 1530 L-360 1201 L-240 1201 L-240 1529 C-240 1695 -290 1763 -364 1763 L-364 1763 Z " />
<glyph glyph-name="uni1DE1" unicode="&#x1de1;" horiz-adv-x="0" d="M-300 1797 L-300 1484 L-431 1797 L-551 1797 L-551 1202 L-431 1202 L-431 1517 L-300 1202 L-179 1202 L-179 1797 L-300 1797 Z " />
<glyph glyph-name="uni1DE2" unicode="&#x1de2;" horiz-adv-x="0" d="M-201 1296 L-201 1340 C-201 1406 -220 1459 -273 1483 C-230 1515 -206 1559 -206 1620 C-206 1730 -272 1797 -373 1797 L-535 1797 L-535 1202 L-415 1202 L-415 1417 L-376 1417 C-341 1417 -321 1401 -321 1340 L-321 1297 C-321 1280 -321 1220 -313 1202 L-191 1202 L-191 1210 C-199 1228 -201 1275 -201 1296 L-201 1296 Z M-415 1528 L-415 1686 L-373 1686 C-347 1686 -327 1659 -327 1612 C-327 1560 -347 1528 -373 1528 L-415 1528 Z " />
<glyph glyph-name="uni1DE3" unicode="&#x1de3;" horiz-adv-x="0" d="M-290 1413 C-243 1452 -215 1505 -215 1582 C-215 1692 -276 1758 -351 1758 C-416 1758 -444 1732 -488 1692 L-432 1610 C-404 1630 -388 1648 -366 1648 C-343 1648 -333 1622 -333 1577 C-333 1515 -359 1482 -417 1438 L-324 1201 L-206 1201 L-206 1207 L-290 1413 Z " />
<glyph glyph-name="uni1DE4" unicode="&#x1de4;" horiz-adv-x="0" d="M-385 1429 C-329 1411 -316 1386 -316 1352 C-316 1316 -331 1292 -359 1292 C-392 1292 -417 1312 -417 1373 L-529 1373 C-529 1283 -471 1191 -363 1191 C-266 1191 -200 1253 -200 1357 C-200 1458 -248 1499 -337 1530 C-390 1548 -403 1569 -403 1603 C-403 1641 -384 1663 -363 1663 C-331 1663 -321 1635 -319 1590 L-200 1590 C-200 1688 -265 1763 -363 1763 C-460 1763 -517 1695 -517 1600 C-517 1500 -463 1455 -385 1429 L-385 1429 Z " />
<glyph glyph-name="uni1DE5" unicode="&#x1de5;" horiz-adv-x="0" d="M-425 1201 L-305 1201 L-305 1811 C-305 1870 -285 1897 -255 1897 C-243 1897 -234 1895 -227 1891 L-225 1997 C-242 2003 -260 2008 -280 2008 C-366 2008 -425 1941 -425 1811 L-425 1201 Z " />
<glyph glyph-name="uni1DE6" unicode="&#x1de6;" horiz-adv-x="0" d="M-381 1314 L-209 1662 L-209 1753 L-512 1753 L-512 1642 L-345 1642 L-518 1297 L-518 1201 L-206 1201 L-206 1314 L-381 1314 Z " />
<glyph glyph-name="uni1DE7" unicode="&#x1de7;" horiz-adv-x="0" d="M-183 1301 C-183 1300 -185 1300 -187 1300 C-199 1300 -208 1319 -208 1365 L-208 1754 L-314 1754 L-320 1704 C-340 1742 -366 1764 -402 1764 C-498 1764 -551 1643 -551 1471 L-551 1460 C-551 1303 -497 1191 -403 1191 C-363 1191 -334 1217 -315 1262 C-297 1213 -265 1191 -223 1191 C-204 1191 -189 1193 -174 1206 L-183 1301 Z M-372 1303 C-416 1303 -430 1364 -430 1460 L-430 1471 C-430 1579 -417 1653 -371 1653 C-353 1653 -339 1639 -329 1614 L-329 1365 C-329 1356 -329 1348 -328 1339 C-338 1316 -352 1303 -372 1303 L-372 1303 Z M-183 1302 L-183 1301 L-183 1302 Z " />
<glyph glyph-name="uni1DE8" unicode="&#x1de8;" horiz-adv-x="0" d="M-335 1759 C-368 1759 -394 1746 -415 1721 L-415 1992 L-536 1992 L-536 1201 L-432 1201 L-426 1243 C-404 1208 -374 1189 -335 1189 C-241 1189 -189 1308 -189 1469 L-189 1480 C-189 1647 -240 1759 -335 1759 L-335 1759 Z M-308 1469 C-308 1367 -323 1300 -365 1300 C-388 1300 -405 1316 -415 1343 L-415 1602 C-405 1632 -388 1649 -366 1649 C-324 1649 -308 1582 -308 1480 L-308 1469 Z " />
<glyph glyph-name="uni1DE9" unicode="&#x1de9;" horiz-adv-x="0" d="M-268 1598 C-226 1629 -200 1685 -200 1761 C-200 1883 -268 1954 -369 1954 C-463 1954 -544 1882 -544 1722 L-544 1000 L-423 1000 L-423 1219 C-396 1200 -365 1191 -336 1191 C-237 1191 -179 1273 -179 1415 C-179 1501 -212 1568 -268 1598 L-268 1598 Z M-363 1298 C-388 1298 -408 1309 -423 1325 L-423 1722 C-423 1812 -399 1847 -368 1847 C-336 1847 -319 1805 -319 1750 C-319 1684 -334 1643 -369 1643 L-389 1643 L-389 1542 L-362 1542 C-323 1542 -300 1505 -300 1415 C-300 1342 -323 1298 -363 1298 L-363 1298 Z " />
<glyph glyph-name="uni1DEA" unicode="&#x1dea;" horiz-adv-x="0" d="M-379 1759 C-452 1759 -504 1708 -527 1656 L-471 1584 C-451 1628 -419 1647 -387 1647 C-338 1647 -313 1597 -309 1511 L-536 1511 L-536 1458 C-536 1299 -478 1187 -366 1187 C-253 1187 -188 1294 -188 1472 L-188 1492 C-188 1644 -256 1759 -379 1759 L-379 1759 Z M-366 1299 C-403 1299 -419 1346 -419 1413 L-419 1422 L-310 1422 C-314 1345 -328 1299 -366 1299 L-366 1299 Z " />
<glyph glyph-name="uni1DEB" unicode="&#x1deb;" horiz-adv-x="0" d="M-272 2008 C-358 2008 -417 1941 -417 1811 L-417 1759 L-481 1759 L-481 1652 L-417 1652 L-417 1201 L-297 1201 L-297 1652 L-252 1652 L-252 1759 L-297 1759 L-297 1811 C-297 1870 -277 1897 -247 1897 C-235 1897 -226 1895 -219 1891 L-217 1997 C-234 2003 -252 2008 -272 2008 L-272 2008 Z " />
<glyph glyph-name="uni1DEC" unicode="&#x1dec;" horiz-adv-x="0" d="M-293 1559 L-293 1614 C-253 1620 -225 1668 -225 1728 L-287 1748 C-287 1733 -289 1719 -293 1709 L-293 1992 L-414 1992 L-414 1735 C-418 1736 -423 1737 -427 1737 C-471 1737 -501 1682 -501 1620 L-441 1603 C-441 1634 -430 1660 -414 1660 L-414 1585 C-418 1586 -423 1587 -427 1587 C-471 1587 -501 1532 -501 1469 L-441 1453 C-441 1485 -430 1510 -414 1510 L-414 1201 L-293 1201 L-293 1463 C-253 1469 -225 1519 -225 1579 L-287 1598 C-287 1583 -289 1569 -293 1559 L-293 1559 Z " />
<glyph glyph-name="uni1DED" unicode="&#x1ded;" horiz-adv-x="0" d="M-354 1759 C-469 1759 -532 1645 -532 1478 L-532 1467 C-532 1390 -518 1324 -493 1276 L-584 1068 L-489 1006 L-407 1196 C-390 1190 -373 1187 -354 1187 C-240 1187 -174 1301 -174 1467 L-174 1478 C-174 1645 -240 1759 -354 1759 L-354 1759 Z M-295 1467 C-295 1367 -309 1299 -354 1299 C-400 1299 -413 1367 -413 1467 L-413 1478 C-413 1579 -400 1648 -354 1648 C-309 1648 -295 1579 -295 1478 L-295 1467 Z " />
<glyph glyph-name="uni1DEE" unicode="&#x1dee;" horiz-adv-x="0" d="M-378 1761 C-418 1761 -448 1741 -470 1705 L-476 1749 L-579 1749 L-579 958 L-461 958 L-461 1232 C-440 1205 -413 1191 -379 1191 C-282 1191 -232 1303 -232 1470 L-232 1481 C-232 1642 -285 1761 -378 1761 L-378 1761 Z M-351 1470 C-351 1368 -368 1301 -409 1301 C-433 1301 -451 1321 -461 1356 L-461 1597 C-451 1631 -434 1650 -408 1650 C-367 1650 -351 1583 -351 1481 L-351 1470 Z " />
<glyph glyph-name="uni1DEF" unicode="&#x1def;" horiz-adv-x="0" d="M-278 2008 C-364 2008 -423 1941 -423 1811 L-423 1153 C-423 1094 -443 1068 -473 1068 C-486 1068 -494 1069 -500 1073 L-503 967 C-484 961 -468 956 -449 956 C-362 956 -303 1023 -303 1153 L-303 1811 C-303 1870 -283 1897 -252 1897 C-241 1897 -232 1895 -225 1891 L-224 1997 C-240 2003 -258 2008 -278 2008 L-278 2008 Z " />
<glyph glyph-name="uni1DF0" unicode="&#x1df0;" horiz-adv-x="0" d="M-308 1753 L-308 1345 C-319 1318 -335 1303 -359 1303 C-387 1303 -401 1340 -401 1424 L-401 1753 L-521 1753 L-521 1425 C-521 1365 -514 1318 -503 1282 L-596 1068 L-501 1006 L-420 1193 C-412 1192 -405 1191 -397 1191 C-353 1191 -320 1215 -296 1256 L-288 1201 L-185 1201 L-185 1753 L-308 1753 Z " />
<glyph glyph-name="uni1DF1" unicode="&#x1df1;" horiz-adv-x="0" d="M-228 1753 L-262 1459 L-319 1753 L-406 1753 L-461 1459 L-495 1753 L-612 1753 L-523 1201 L-424 1201 L-363 1515 L-301 1201 L-201 1201 L-112 1753 L-228 1753 Z " />
<glyph glyph-name="uni1DF2" unicode="&#x1df2;" horiz-adv-x="0" d="M-178 1202 C-187 1241 -193 1279 -193 1334 L-193 1563 C-193 1695 -257 1761 -346 1761 C-445 1761 -507 1687 -507 1588 L-389 1583 C-389 1628 -376 1652 -353 1652 C-325 1652 -313 1622 -313 1564 L-313 1527 L-349 1527 C-464 1527 -520 1464 -520 1356 C-520 1257 -470 1192 -398 1192 C-355 1192 -327 1218 -308 1250 C-306 1233 -302 1217 -298 1202 L-178 1202 Z M-459 1818 C-418 1818 -392 1849 -392 1891 C-392 1933 -418 1966 -459 1966 C-499 1966 -524 1933 -524 1891 C-524 1849 -499 1818 -459 1818 L-459 1818 Z M-268 1818 C-228 1818 -202 1849 -202 1891 C-202 1933 -228 1966 -268 1966 C-308 1966 -333 1933 -333 1891 C-333 1849 -308 1818 -268 1818 L-268 1818 Z M-363 1298 C-384 1298 -399 1322 -399 1360 C-399 1405 -387 1444 -347 1444 L-313 1444 L-313 1349 C-321 1322 -340 1298 -363 1298 L-363 1298 Z " />
<glyph glyph-name="uni1DF3" unicode="&#x1df3;" horiz-adv-x="0" d="M-541 1467 C-541 1301 -476 1187 -361 1187 C-247 1187 -182 1301 -182 1467 L-182 1478 C-182 1645 -247 1759 -362 1759 C-476 1759 -541 1645 -541 1478 L-541 1467 Z M-458 1966 C-498 1966 -523 1933 -523 1891 C-523 1849 -498 1818 -458 1818 C-417 1818 -392 1849 -392 1891 C-392 1933 -417 1966 -458 1966 L-458 1966 Z M-267 1966 C-308 1966 -331 1933 -331 1891 C-331 1849 -308 1818 -267 1818 C-227 1818 -202 1849 -202 1891 C-202 1933 -227 1966 -267 1966 L-267 1966 Z M-303 1467 C-303 1367 -317 1299 -361 1299 C-408 1299 -421 1367 -421 1467 L-421 1478 C-421 1579 -407 1648 -362 1648 C-317 1648 -303 1579 -303 1478 L-303 1467 Z " />
<glyph glyph-name="uni1DF4" unicode="&#x1df4;" horiz-adv-x="0" d="M-308 1753 L-308 1345 C-319 1318 -335 1303 -359 1303 C-387 1303 -401 1340 -401 1424 L-401 1753 L-521 1753 L-521 1425 C-521 1259 -471 1191 -397 1191 C-353 1191 -320 1215 -296 1256 L-288 1201 L-185 1201 L-185 1753 L-308 1753 Z M-459 1818 C-418 1818 -392 1849 -392 1891 C-392 1933 -418 1966 -459 1966 C-498 1966 -524 1933 -524 1891 C-524 1849 -498 1818 -459 1818 L-459 1818 Z M-268 1818 C-228 1818 -202 1849 -202 1891 C-202 1933 -228 1966 -268 1966 C-307 1966 -333 1933 -333 1891 C-333 1849 -307 1818 -268 1818 L-268 1818 Z " />
<glyph glyph-name="uni1DF5" unicode="&#x1df5;" horiz-adv-x="0" d="M-283 1327 L-283 1545 L-428 1545 L-428 1327 L-519 1327 L-519 1175 L-190 1175 L-190 1327 L-283 1327 Z " />
<glyph glyph-name="uni1DFC" unicode="&#x1dfc;" horiz-adv-x="0" d="M359 -419 L517 -419 C468 -255 337 -96 21 -96 C-296 -96 -426 -255 -477 -419 L-318 -419 C-278 -345 -193 -234 21 -234 C236 -234 326 -345 359 -419 L359 -419 Z " />
<glyph glyph-name="uni1DFD" unicode="&#x1dfd;" horiz-adv-x="0" d="M-103 -71 L-230 -62 C-230 -113 -254 -145 -281 -145 C-347 -145 -398 -72 -464 -72 C-557 -72 -622 -161 -622 -275 L-493 -281 C-493 -231 -471 -199 -442 -199 C-374 -199 -343 -272 -261 -272 C-169 -272 -103 -187 -103 -71 L-103 -71 Z M-103 -296 L-230 -287 C-230 -338 -254 -371 -281 -371 C-347 -371 -398 -298 -464 -298 C-557 -298 -622 -387 -622 -500 L-493 -507 C-493 -457 -471 -424 -442 -424 C-374 -424 -343 -497 -261 -497 C-169 -497 -103 -413 -103 -296 L-103 -296 Z " />
<glyph glyph-name="uni1DFE" unicode="&#x1dfe;" horiz-adv-x="0" d="M-97 1738 L-97 1922 L-610 1631 L-610 1473 L-97 1181 L-97 1365 L-376 1534 L-432 1550 L-376 1566 L-97 1738 Z " />
<glyph glyph-name="uni1DFF" unicode="&#x1dff;" horiz-adv-x="0" d="M-910 -195 L-631 -305 L-624 -306 L-631 -307 L-910 -415 L-910 -542 L-397 -355 L-397 -255 L-910 -67 L-910 -195 Z M-19 -73 L-109 -365 L-125 -416 L-141 -365 L-229 -73 L-377 -73 L-200 -548 L-50 -548 L128 -73 L-19 -73 Z " />
<glyph glyph-name="Wgrave" unicode="&#x1e80;" horiz-adv-x="1239" d="M959 1456 L855 479 L724 1456 L515 1456 L387 483 L280 1456 L44 1456 L248 0 L494 0 L619 890 L747 0 L992 0 L1195 1456 L959 1456 Z M732 1547 L573 1847 L316 1847 L539 1547 L732 1547 Z " />
<glyph glyph-name="wgrave" unicode="&#x1e81;" horiz-adv-x="1049" d="M790 1082 L719 338 L605 1082 L442 1082 L328 348 L257 1082 L37 1082 L213 0 L405 0 L524 701 L643 0 L833 0 L1009 1082 L790 1082 Z M631 1236 L472 1536 L215 1536 L438 1236 L631 1236 Z " />
<glyph glyph-name="Wacute" unicode="&#x1e82;" horiz-adv-x="1239" d="M959 1456 L855 479 L724 1456 L515 1456 L387 483 L280 1456 L44 1456 L248 0 L494 0 L619 890 L747 0 L992 0 L1195 1456 L959 1456 Z M926 1847 L671 1847 L511 1547 L704 1547 L926 1847 Z " />
<glyph glyph-name="wacute" unicode="&#x1e83;" horiz-adv-x="1049" d="M790 1082 L719 338 L605 1082 L442 1082 L328 348 L257 1082 L37 1082 L213 0 L405 0 L524 701 L643 0 L833 0 L1009 1082 L790 1082 Z M825 1536 L570 1536 L410 1236 L603 1236 L825 1536 Z " />
<glyph glyph-name="Wdieresis" unicode="&#x1e84;" horiz-adv-x="1239" d="M959 1456 L855 479 L724 1456 L515 1456 L387 483 L280 1456 L44 1456 L248 0 L494 0 L619 890 L747 0 L992 0 L1195 1456 L959 1456 Z M418 1567 C482 1567 530 1617 530 1681 C530 1745 482 1796 418 1796 C352 1796 304 1745 304 1681 C304 1617 352 1567 418 1567 L418 1567 Z M813 1566 C879 1566 925 1616 925 1679 C925 1744 879 1794 813 1794 C749 1794 701 1744 701 1679 C701 1616 749 1566 813 1566 L813 1566 Z " />
<glyph glyph-name="wdieresis" unicode="&#x1e85;" horiz-adv-x="1049" d="M790 1082 L719 338 L605 1082 L442 1082 L328 348 L257 1082 L37 1082 L213 0 L405 0 L524 701 L643 0 L833 0 L1009 1082 L790 1082 Z M317 1256 C381 1256 429 1306 429 1370 C429 1434 381 1485 317 1485 C251 1485 203 1434 203 1370 C203 1306 251 1256 317 1256 L317 1256 Z M712 1255 C778 1255 824 1305 824 1368 C824 1433 778 1483 712 1483 C648 1483 600 1433 600 1368 C600 1305 648 1255 712 1255 L712 1255 Z " />
<glyph glyph-name="uni1E9E" unicode="&#x1e9e;" horiz-adv-x="993" d="M646 841 L871 1242 C729 1377 596 1477 427 1477 C195 1477 73 1302 73 960 L73 0 L303 0 L303 958 C303 1158 352 1290 427 1290 C499 1290 545 1244 589 1193 L430 849 L430 685 L517 685 C622 685 685 605 685 411 C685 264 634 166 548 166 C486 166 433 192 408 215 L343 34 C397 -2 471 -21 575 -21 C757 -21 913 131 913 413 C913 653 815 806 646 841 L646 841 Z " />
<glyph glyph-name="uni1EA0" unicode="&#x1ea0;" horiz-adv-x="993" d="M606 1456 L387 1456 L27 0 L280 0 L346 345 L647 345 L714 0 L968 0 L606 1456 Z M519 -116 C439 -116 387 -169 387 -236 C387 -303 439 -355 519 -355 C599 -355 652 -303 652 -236 C652 -169 599 -116 519 -116 L519 -116 Z M383 540 L496 1129 L610 540 L383 540 Z " />
<glyph glyph-name="uni1EA1" unicode="&#x1ea1;" horiz-adv-x="787" d="M697 249 L697 760 C697 1007 567 1102 404 1102 C202 1102 82 942 82 771 L311 771 C311 855 336 922 391 922 C442 922 468 882 468 764 L468 658 L407 658 C175 658 66 508 66 304 C66 97 175 -20 310 -20 C383 -20 437 17 476 88 C481 54 488 23 498 0 L728 0 L728 17 C709 74 697 154 697 249 L697 249 Z M357 -113 C277 -113 225 -166 225 -233 C225 -300 277 -352 357 -352 C437 -352 490 -300 490 -233 C490 -166 437 -113 357 -113 L357 -113 Z M368 167 C320 167 295 209 295 318 C295 437 330 512 413 512 L468 512 L468 256 C452 209 414 167 368 167 L368 167 Z " />
<glyph glyph-name="uni1EA2" unicode="&#x1ea2;" horiz-adv-x="993" d="M714 0 L968 0 L606 1456 L387 1456 L27 0 L280 0 L346 345 L647 345 L714 0 Z M399 1714 L411 1571 L582 1571 L582 1638 C628 1649 677 1690 677 1788 C677 1904 587 1978 406 1978 L401 1860 C453 1860 483 1841 483 1786 C483 1738 458 1720 399 1714 L399 1714 Z M383 540 L496 1129 L610 540 L383 540 Z " />
<glyph glyph-name="uni1EA3" unicode="&#x1ea3;" horiz-adv-x="787" d="M697 249 L697 760 C697 1007 567 1102 404 1102 C202 1102 82 942 82 771 L311 771 C311 855 336 922 391 922 C442 922 468 882 468 764 L468 658 L407 658 C175 658 66 508 66 304 C66 97 175 -20 310 -20 C383 -20 437 17 476 88 C481 54 488 23 498 0 L728 0 L728 17 C709 74 697 154 697 249 L697 249 Z M290 1403 L302 1260 L473 1260 L473 1327 C519 1338 568 1379 568 1477 C568 1593 478 1667 297 1667 L292 1549 C344 1549 374 1530 374 1475 C374 1427 349 1409 290 1403 L290 1403 Z M368 167 C320 167 295 209 295 318 C295 437 330 512 413 512 L468 512 L468 256 C452 209 414 167 368 167 L368 167 Z " />
<glyph glyph-name="uni1EA4" unicode="&#x1ea4;" horiz-adv-x="993" d="M606 1456 L387 1456 L27 0 L280 0 L346 345 L647 345 L714 0 L968 0 L606 1456 Z M497 1690 L590 1546 L751 1546 L558 1793 L436 1793 L243 1546 L404 1546 L497 1690 Z M987 1966 L811 1966 L699 1703 L825 1703 L987 1966 Z M383 540 L496 1129 L610 540 L383 540 Z " />
<glyph glyph-name="uni1EA5" unicode="&#x1ea5;" horiz-adv-x="787" d="M697 760 C697 1007 567 1102 404 1102 C202 1102 82 942 82 771 L311 771 C311 855 336 922 391 922 C442 922 468 882 468 764 L468 658 L407 658 C175 658 66 508 66 304 C66 97 175 -20 310 -20 C383 -20 437 17 476 88 C481 54 488 23 498 0 L728 0 L728 17 C709 74 697 154 697 249 L697 760 Z M388 1379 L481 1235 L642 1235 L449 1482 L327 1482 L134 1235 L295 1235 L388 1379 Z M878 1655 L702 1655 L590 1392 L716 1392 L878 1655 Z M368 167 C320 167 295 209 295 318 C295 437 330 512 413 512 L468 512 L468 256 C452 209 414 167 368 167 L368 167 Z " />
<glyph glyph-name="uni1EA6" unicode="&#x1ea6;" horiz-adv-x="993" d="M714 0 L968 0 L606 1456 L387 1456 L27 0 L280 0 L346 345 L647 345 L714 0 Z M297 1699 L186 1963 L9 1963 L171 1699 L297 1699 Z M405 1542 L499 1687 L593 1542 L753 1542 L558 1789 L439 1789 L245 1542 L405 1542 Z M383 540 L496 1129 L610 540 L383 540 Z " />
<glyph glyph-name="uni1EA7" unicode="&#x1ea7;" horiz-adv-x="787" d="M697 249 L697 760 C697 1007 567 1102 404 1102 C202 1102 82 942 82 771 L311 771 C311 855 336 922 391 922 C442 922 468 882 468 764 L468 658 L407 658 C175 658 66 508 66 304 C66 97 175 -20 310 -20 C383 -20 437 17 476 88 C481 54 488 23 498 0 L728 0 L728 17 C709 74 697 154 697 249 L697 249 Z M77 1652 L-100 1652 L62 1388 L188 1388 L77 1652 Z M296 1231 L390 1376 L484 1231 L644 1231 L449 1478 L330 1478 L136 1231 L296 1231 Z M368 167 C320 167 295 209 295 318 C295 437 330 512 413 512 L468 512 L468 256 C452 209 414 167 368 167 L368 167 Z " />
<glyph glyph-name="uni1EA8" unicode="&#x1ea8;" horiz-adv-x="993" d="M714 0 L968 0 L606 1456 L387 1456 L27 0 L280 0 L346 345 L647 345 L714 0 Z M496 1698 L595 1536 L750 1536 L558 1783 L433 1783 L243 1536 L398 1536 L496 1698 Z M665 1792 L676 1668 L796 1668 L795 1726 C833 1735 874 1770 874 1853 C874 1952 808 2015 673 2015 L668 1914 C712 1914 740 1898 740 1851 C740 1810 715 1797 665 1792 L665 1792 Z M383 540 L496 1129 L610 540 L383 540 Z " />
<glyph glyph-name="uni1EA9" unicode="&#x1ea9;" horiz-adv-x="787" d="M697 760 C697 1007 567 1102 404 1102 C202 1102 82 942 82 771 L311 771 C311 855 336 922 391 922 C442 922 468 882 468 764 L468 658 L407 658 C175 658 66 508 66 304 C66 97 175 -20 310 -20 C383 -20 437 17 476 88 C481 54 488 23 498 0 L728 0 L728 17 C709 74 697 154 697 249 L697 760 Z M387 1387 L486 1225 L641 1225 L449 1472 L324 1472 L134 1225 L289 1225 L387 1387 Z M564 1704 L559 1603 C603 1603 631 1587 631 1540 C631 1499 606 1486 556 1481 L567 1357 L687 1357 L686 1415 C724 1424 765 1459 765 1542 C765 1641 699 1704 564 1704 L564 1704 Z M368 167 C320 167 295 209 295 318 C295 437 330 512 413 512 L468 512 L468 256 C452 209 414 167 368 167 L368 167 Z " />
<glyph glyph-name="uni1EAA" unicode="&#x1eaa;" horiz-adv-x="993" d="M714 0 L968 0 L606 1456 L387 1456 L27 0 L280 0 L346 345 L647 345 L714 0 Z M498 1664 L597 1520 L752 1520 L558 1754 L439 1754 L245 1520 L400 1520 L498 1664 Z M440 1888 C487 1888 525 1819 581 1819 C637 1819 670 1896 670 1976 L595 2005 C595 1966 582 1930 564 1930 C521 1930 468 1997 423 1997 C368 1997 335 1917 335 1839 L410 1814 C410 1853 422 1888 440 1888 L440 1888 Z M383 540 L496 1129 L610 540 L383 540 Z " />
<glyph glyph-name="uni1EAB" unicode="&#x1eab;" horiz-adv-x="787" d="M697 249 L697 760 C697 1007 567 1102 404 1102 C202 1102 82 942 82 771 L311 771 C311 855 336 922 391 922 C442 922 468 882 468 764 L468 658 L407 658 C175 658 66 508 66 304 C66 97 175 -20 310 -20 C383 -20 437 17 476 88 C481 54 488 23 498 0 L728 0 L728 17 C709 74 697 154 697 249 L697 249 Z M389 1353 L488 1209 L643 1209 L449 1443 L330 1443 L136 1209 L291 1209 L389 1353 Z M331 1577 C378 1577 416 1508 472 1508 C528 1508 561 1585 561 1665 L486 1694 C486 1655 473 1619 455 1619 C412 1619 359 1686 314 1686 C259 1686 226 1606 226 1528 L301 1503 C301 1542 313 1577 331 1577 L331 1577 Z M368 167 C320 167 295 209 295 318 C295 437 330 512 413 512 L468 512 L468 256 C452 209 414 167 368 167 L368 167 Z " />
<glyph glyph-name="uni1EAC" unicode="&#x1eac;" horiz-adv-x="993" d="M606 1456 L387 1456 L27 0 L280 0 L346 345 L647 345 L714 0 L968 0 L606 1456 Z M498 1720 L597 1561 L776 1561 L776 1572 L563 1847 L432 1847 L224 1574 L224 1561 L398 1561 L498 1720 Z M519 -116 C439 -116 387 -169 387 -236 C387 -303 439 -355 519 -355 C599 -355 652 -303 652 -236 C652 -169 599 -116 519 -116 L519 -116 Z M383 540 L496 1129 L610 540 L383 540 Z " />
<glyph glyph-name="uni1EAD" unicode="&#x1ead;" horiz-adv-x="787" d="M697 249 L697 760 C697 1007 567 1102 404 1102 C202 1102 82 942 82 771 L311 771 C311 855 336 922 391 922 C442 922 468 882 468 764 L468 658 L407 658 C175 658 66 508 66 304 C66 97 175 -20 310 -20 C383 -20 437 17 476 88 C481 54 488 23 498 0 L728 0 L728 17 C709 74 697 154 697 249 L697 249 Z M389 1409 L488 1250 L667 1250 L667 1261 L454 1536 L323 1536 L115 1263 L115 1250 L289 1250 L389 1409 Z M357 -113 C277 -113 225 -166 225 -233 C225 -300 277 -352 357 -352 C437 -352 490 -300 490 -233 C490 -166 437 -113 357 -113 L357 -113 Z M368 167 C320 167 295 209 295 318 C295 437 330 512 413 512 L468 512 L468 256 C452 209 414 167 368 167 L368 167 Z " />
<glyph glyph-name="uni1EAE" unicode="&#x1eae;" horiz-adv-x="993" d="M714 0 L968 0 L606 1456 L387 1456 L27 0 L280 0 L346 345 L647 345 L714 0 Z M496 1542 C645 1542 739 1634 739 1762 L591 1762 C591 1702 567 1648 496 1648 C426 1648 401 1702 401 1762 L253 1762 C253 1634 348 1542 496 1542 L496 1542 Z M673 1969 L518 1969 L441 1774 L557 1774 L673 1969 Z M383 540 L496 1129 L610 540 L383 540 Z " />
<glyph glyph-name="uni1EAF" unicode="&#x1eaf;" horiz-adv-x="787" d="M697 249 L697 760 C697 1007 567 1102 404 1102 C202 1102 82 942 82 771 L311 771 C311 855 336 922 391 922 C442 922 468 882 468 764 L468 658 L407 658 C175 658 66 508 66 304 C66 97 175 -20 310 -20 C383 -20 437 17 476 88 C481 54 488 23 498 0 L728 0 L728 17 C709 74 697 154 697 249 L697 249 Z M387 1231 C536 1231 630 1323 630 1451 L482 1451 C482 1391 458 1337 387 1337 C317 1337 292 1391 292 1451 L144 1451 C144 1323 239 1231 387 1231 L387 1231 Z M564 1658 L409 1658 L332 1463 L448 1463 L564 1658 Z M368 167 C320 167 295 209 295 318 C295 437 330 512 413 512 L468 512 L468 256 C452 209 414 167 368 167 L368 167 Z " />
<glyph glyph-name="uni1EB0" unicode="&#x1eb0;" horiz-adv-x="993" d="M714 0 L968 0 L606 1456 L387 1456 L27 0 L280 0 L346 345 L647 345 L714 0 Z M496 1543 C645 1543 739 1634 739 1764 L591 1764 C591 1703 567 1649 496 1649 C426 1649 401 1703 401 1764 L253 1764 C253 1634 348 1543 496 1543 L496 1543 Z M561 1774 L485 1969 L328 1969 L446 1774 L561 1774 Z M383 540 L496 1129 L610 540 L383 540 Z " />
<glyph glyph-name="uni1EB1" unicode="&#x1eb1;" horiz-adv-x="787" d="M697 249 L697 760 C697 1007 567 1102 404 1102 C202 1102 82 942 82 771 L311 771 C311 855 336 922 391 922 C442 922 468 882 468 764 L468 658 L407 658 C175 658 66 508 66 304 C66 97 175 -20 310 -20 C383 -20 437 17 476 88 C481 54 488 23 498 0 L728 0 L728 17 C709 74 697 154 697 249 L697 249 Z M387 1232 C536 1232 630 1323 630 1453 L482 1453 C482 1392 458 1338 387 1338 C317 1338 292 1392 292 1453 L144 1453 C144 1323 239 1232 387 1232 L387 1232 Z M452 1463 L376 1658 L219 1658 L337 1463 L452 1463 Z M368 167 C320 167 295 209 295 318 C295 437 330 512 413 512 L468 512 L468 256 C452 209 414 167 368 167 L368 167 Z " />
<glyph glyph-name="uni1EB2" unicode="&#x1eb2;" horiz-adv-x="993" d="M714 0 L968 0 L606 1456 L387 1456 L27 0 L280 0 L346 345 L647 345 L714 0 Z M495 1548 C645 1548 740 1637 740 1766 L591 1766 C591 1707 564 1654 495 1654 C423 1654 397 1707 397 1766 L247 1766 C247 1637 344 1548 495 1548 L495 1548 Z M407 1905 L419 1789 L560 1789 L561 1847 C606 1855 653 1886 653 1962 C653 2051 573 2108 413 2108 L409 2017 C461 2017 490 2002 490 1960 C490 1923 465 1910 407 1905 L407 1905 Z M383 540 L496 1129 L610 540 L383 540 Z " />
<glyph glyph-name="uni1EB3" unicode="&#x1eb3;" horiz-adv-x="787" d="M697 249 L697 760 C697 1007 567 1102 404 1102 C202 1102 82 942 82 771 L311 771 C311 855 336 922 391 922 C442 922 468 882 468 764 L468 658 L407 658 C175 658 66 508 66 304 C66 97 175 -20 310 -20 C383 -20 437 17 476 88 C481 54 488 23 498 0 L728 0 L728 17 C709 74 697 154 697 249 L697 249 Z M386 1237 C536 1237 631 1326 631 1455 L482 1455 C482 1396 455 1343 386 1343 C314 1343 288 1396 288 1455 L138 1455 C138 1326 235 1237 386 1237 L386 1237 Z M298 1594 L310 1478 L451 1478 L452 1536 C497 1544 544 1575 544 1651 C544 1740 464 1797 304 1797 L300 1706 C352 1706 381 1691 381 1649 C381 1612 356 1599 298 1594 L298 1594 Z M368 167 C320 167 295 209 295 318 C295 437 330 512 413 512 L468 512 L468 256 C452 209 414 167 368 167 L368 167 Z " />
<glyph glyph-name="uni1EB4" unicode="&#x1eb4;" horiz-adv-x="993" d="M714 0 L968 0 L606 1456 L387 1456 L27 0 L280 0 L346 345 L647 345 L714 0 Z M494 1549 C644 1549 739 1641 739 1772 L592 1772 C592 1712 567 1658 494 1658 C424 1658 398 1712 398 1772 L250 1772 C250 1641 346 1549 494 1549 L494 1549 Z M422 1933 C479 1933 512 1861 583 1861 C646 1861 693 1944 693 2040 L600 2069 C600 2020 583 1981 562 1981 C508 1981 460 2054 402 2054 C338 2054 293 1967 293 1873 L384 1846 C384 1895 400 1933 422 1933 L422 1933 Z M383 540 L496 1129 L610 540 L383 540 Z " />
<glyph glyph-name="uni1EB5" unicode="&#x1eb5;" horiz-adv-x="787" d="M697 249 L697 760 C697 1007 567 1102 404 1102 C202 1102 82 942 82 771 L311 771 C311 855 336 922 391 922 C442 922 468 882 468 764 L468 658 L407 658 C175 658 66 508 66 304 C66 97 175 -20 310 -20 C383 -20 437 17 476 88 C481 54 488 23 498 0 L728 0 L728 17 C709 74 697 154 697 249 L697 249 Z M385 1238 C535 1238 630 1330 630 1461 L483 1461 C483 1401 458 1347 385 1347 C315 1347 289 1401 289 1461 L141 1461 C141 1330 237 1238 385 1238 L385 1238 Z M313 1622 C370 1622 403 1550 474 1550 C537 1550 584 1633 584 1729 L491 1758 C491 1709 474 1670 453 1670 C399 1670 351 1743 293 1743 C229 1743 184 1656 184 1562 L275 1535 C275 1584 291 1622 313 1622 L313 1622 Z M368 167 C320 167 295 209 295 318 C295 437 330 512 413 512 L468 512 L468 256 C452 209 414 167 368 167 L368 167 Z " />
<glyph glyph-name="uni1EB6" unicode="&#x1eb6;" horiz-adv-x="993" d="M606 1456 L387 1456 L27 0 L280 0 L346 345 L647 345 L714 0 L968 0 L606 1456 Z M491 1540 C663 1540 772 1656 772 1820 L604 1820 C604 1746 573 1678 491 1678 C407 1678 376 1746 376 1820 L208 1820 C208 1656 317 1540 491 1540 L491 1540 Z M519 -116 C439 -116 387 -169 387 -236 C387 -303 439 -355 519 -355 C599 -355 652 -303 652 -236 C652 -169 599 -116 519 -116 L519 -116 Z M383 540 L496 1129 L610 540 L383 540 Z " />
<glyph glyph-name="uni1EB7" unicode="&#x1eb7;" horiz-adv-x="787" d="M697 249 L697 760 C697 1007 567 1102 404 1102 C202 1102 82 942 82 771 L311 771 C311 855 336 922 391 922 C442 922 468 882 468 764 L468 658 L407 658 C175 658 66 508 66 304 C66 97 175 -20 310 -20 C383 -20 437 17 476 88 C481 54 488 23 498 0 L728 0 L728 17 C709 74 697 154 697 249 L697 249 Z M382 1229 C554 1229 663 1345 663 1509 L495 1509 C495 1435 464 1367 382 1367 C298 1367 267 1435 267 1509 L99 1509 C99 1345 208 1229 382 1229 L382 1229 Z M357 -113 C277 -113 225 -166 225 -233 C225 -300 277 -352 357 -352 C437 -352 490 -300 490 -233 C490 -166 437 -113 357 -113 L357 -113 Z M368 167 C320 167 295 209 295 318 C295 437 330 512 413 512 L468 512 L468 256 C452 209 414 167 368 167 L368 167 Z " />
<glyph glyph-name="uni1EB8" unicode="&#x1eb8;" horiz-adv-x="818" d="M339 193 L339 655 L701 655 L701 846 L339 846 L339 1262 L766 1262 L766 1456 L101 1456 L101 0 L767 0 L767 193 L339 193 Z M474 -110 C394 -110 342 -163 342 -230 C342 -297 394 -349 474 -349 C554 -349 607 -297 607 -230 C607 -163 554 -110 474 -110 L474 -110 Z " />
<glyph glyph-name="uni1EB9" unicode="&#x1eb9;" horiz-adv-x="801" d="M746 472 L746 587 C746 933 632 1102 410 1102 C196 1102 72 945 72 581 L72 469 C72 141 206 -20 434 -20 C593 -20 687 63 731 140 L645 277 C599 212 533 167 458 167 C354 167 300 247 300 470 L300 472 L746 472 Z M426 -120 C346 -120 294 -173 294 -240 C294 -307 346 -359 426 -359 C506 -359 559 -307 559 -240 C559 -173 506 -120 426 -120 L426 -120 Z M412 916 C491 916 519 831 520 668 L520 643 L301 643 C305 840 335 916 412 916 L412 916 Z " />
<glyph glyph-name="uni1EBA" unicode="&#x1eba;" horiz-adv-x="818" d="M339 193 L339 655 L701 655 L701 846 L339 846 L339 1262 L766 1262 L766 1456 L101 1456 L101 0 L767 0 L767 193 L339 193 Z M353 1721 L365 1578 L536 1578 L536 1645 C582 1656 631 1697 631 1795 C631 1911 541 1985 360 1985 L355 1867 C407 1867 437 1848 437 1793 C437 1745 412 1727 353 1721 L353 1721 Z " />
<glyph glyph-name="uni1EBB" unicode="&#x1ebb;" horiz-adv-x="801" d="M746 472 L746 587 C746 933 632 1102 410 1102 C196 1102 72 945 72 581 L72 469 C72 141 206 -20 434 -20 C593 -20 687 63 731 140 L645 277 C599 212 533 167 458 167 C354 167 300 247 300 470 L300 472 L746 472 Z M285 1404 L297 1261 L468 1261 L468 1328 C514 1339 563 1380 563 1478 C563 1594 473 1668 292 1668 L287 1550 C339 1550 369 1531 369 1476 C369 1428 344 1410 285 1404 L285 1404 Z M412 916 C491 916 519 831 520 668 L520 643 L301 643 C305 840 335 916 412 916 L412 916 Z " />
<glyph glyph-name="uni1EBC" unicode="&#x1ebc;" horiz-adv-x="818" d="M339 193 L339 655 L701 655 L701 846 L339 846 L339 1262 L766 1262 L766 1456 L101 1456 L101 0 L767 0 L767 193 L339 193 Z M371 1669 C439 1669 470 1578 553 1578 C645 1578 711 1683 711 1829 L584 1841 C584 1778 560 1735 532 1735 C466 1735 417 1826 349 1826 C257 1826 192 1717 192 1571 L321 1564 C321 1626 343 1669 371 1669 L371 1669 Z " />
<glyph glyph-name="uni1EBD" unicode="&#x1ebd;" horiz-adv-x="801" d="M746 472 L746 587 C746 933 632 1102 410 1102 C196 1102 72 945 72 581 L72 469 C72 141 206 -20 434 -20 C593 -20 687 63 731 140 L645 277 C599 212 533 167 458 167 C354 167 300 247 300 470 L300 472 L746 472 Z M303 1352 C371 1352 402 1261 485 1261 C577 1261 643 1366 643 1512 L516 1524 C516 1461 492 1418 464 1418 C398 1418 349 1509 281 1509 C189 1509 124 1400 124 1254 L253 1247 C253 1309 275 1352 303 1352 L303 1352 Z M412 916 C491 916 519 831 520 668 L520 643 L301 643 C305 840 335 916 412 916 L412 916 Z " />
<glyph glyph-name="uni1EBE" unicode="&#x1ebe;" horiz-adv-x="818" d="M339 655 L701 655 L701 846 L339 846 L339 1262 L766 1262 L766 1456 L101 1456 L101 0 L767 0 L767 193 L339 193 L339 655 Z M451 1697 L544 1553 L705 1553 L512 1800 L390 1800 L197 1553 L358 1553 L451 1697 Z M765 1973 L653 1710 L779 1710 L941 1973 L765 1973 Z " />
<glyph glyph-name="uni1EBF" unicode="&#x1ebf;" horiz-adv-x="801" d="M410 1102 C196 1102 72 945 72 581 L72 469 C72 141 206 -20 434 -20 C593 -20 687 63 731 140 L645 277 C599 212 533 167 458 167 C354 167 300 247 300 470 L300 472 L746 472 L746 587 C746 933 632 1102 410 1102 L410 1102 Z M383 1380 L476 1236 L637 1236 L444 1483 L322 1483 L129 1236 L290 1236 L383 1380 Z M873 1656 L697 1656 L585 1393 L711 1393 L873 1656 Z M520 643 L301 643 C305 840 335 916 412 916 C491 916 519 831 520 668 L520 643 Z " />
<glyph glyph-name="uni1EC0" unicode="&#x1ec0;" horiz-adv-x="818" d="M339 193 L339 655 L701 655 L701 846 L339 846 L339 1262 L766 1262 L766 1456 L101 1456 L101 0 L767 0 L767 193 L339 193 Z M251 1706 L140 1970 L-37 1970 L125 1706 L251 1706 Z M359 1549 L453 1694 L547 1549 L707 1549 L512 1796 L393 1796 L199 1549 L359 1549 Z " />
<glyph glyph-name="uni1EC1" unicode="&#x1ec1;" horiz-adv-x="801" d="M746 472 L746 587 C746 933 632 1102 410 1102 C196 1102 72 945 72 581 L72 469 C72 141 206 -20 434 -20 C593 -20 687 63 731 140 L645 277 C599 212 533 167 458 167 C354 167 300 247 300 470 L300 472 L746 472 Z M72 1653 L-105 1653 L57 1389 L183 1389 L72 1653 Z M291 1232 L385 1377 L479 1232 L639 1232 L444 1479 L325 1479 L131 1232 L291 1232 Z M412 916 C491 916 519 831 520 668 L520 643 L301 643 C305 840 335 916 412 916 L412 916 Z " />
<glyph glyph-name="uni1EC2" unicode="&#x1ec2;" horiz-adv-x="818" d="M339 655 L701 655 L701 846 L339 846 L339 1262 L766 1262 L766 1456 L101 1456 L101 0 L767 0 L767 193 L339 193 L339 655 Z M450 1705 L549 1543 L704 1543 L512 1790 L387 1790 L197 1543 L352 1543 L450 1705 Z M627 2022 L622 1921 C666 1921 694 1905 694 1858 C694 1817 669 1804 619 1799 L630 1675 L750 1675 L749 1733 C787 1742 828 1777 828 1860 C828 1959 762 2022 627 2022 L627 2022 Z " />
<glyph glyph-name="uni1EC3" unicode="&#x1ec3;" horiz-adv-x="801" d="M410 1102 C196 1102 72 945 72 581 L72 469 C72 141 206 -20 434 -20 C593 -20 687 63 731 140 L645 277 C599 212 533 167 458 167 C354 167 300 247 300 470 L300 472 L746 472 L746 587 C746 933 632 1102 410 1102 L410 1102 Z M382 1388 L481 1226 L636 1226 L444 1473 L319 1473 L129 1226 L284 1226 L382 1388 Z M551 1482 L562 1358 L682 1358 L681 1416 C719 1425 760 1460 760 1543 C760 1642 694 1705 559 1705 L554 1604 C598 1604 626 1588 626 1541 C626 1500 601 1487 551 1482 L551 1482 Z M520 643 L301 643 C305 840 335 916 412 916 C491 916 519 831 520 668 L520 643 Z " />
<glyph glyph-name="uni1EC4" unicode="&#x1ec4;" horiz-adv-x="818" d="M339 193 L339 655 L701 655 L701 846 L339 846 L339 1262 L766 1262 L766 1456 L101 1456 L101 0 L767 0 L767 193 L339 193 Z M452 1671 L551 1527 L706 1527 L512 1761 L393 1761 L199 1527 L354 1527 L452 1671 Z M394 1895 C441 1895 479 1826 535 1826 C591 1826 624 1903 624 1983 L549 2012 C549 1973 536 1937 518 1937 C475 1937 422 2004 377 2004 C322 2004 289 1924 289 1846 L364 1821 C364 1860 376 1895 394 1895 L394 1895 Z " />
<glyph glyph-name="uni1EC5" unicode="&#x1ec5;" horiz-adv-x="801" d="M746 472 L746 587 C746 933 632 1102 410 1102 C196 1102 72 945 72 581 L72 469 C72 141 206 -20 434 -20 C593 -20 687 63 731 140 L645 277 C599 212 533 167 458 167 C354 167 300 247 300 470 L300 472 L746 472 Z M384 1354 L483 1210 L638 1210 L444 1444 L325 1444 L131 1210 L286 1210 L384 1354 Z M326 1578 C373 1578 411 1509 467 1509 C523 1509 556 1586 556 1666 L481 1695 C481 1656 468 1620 450 1620 C407 1620 354 1687 309 1687 C254 1687 221 1607 221 1529 L296 1504 C296 1543 308 1578 326 1578 L326 1578 Z M412 916 C491 916 519 831 520 668 L520 643 L301 643 C305 840 335 916 412 916 L412 916 Z " />
<glyph glyph-name="uni1EC6" unicode="&#x1ec6;" horiz-adv-x="818" d="M339 193 L339 655 L701 655 L701 846 L339 846 L339 1262 L766 1262 L766 1456 L101 1456 L101 0 L767 0 L767 193 L339 193 Z M452 1727 L551 1568 L730 1568 L730 1579 L517 1854 L386 1854 L178 1581 L178 1568 L352 1568 L452 1727 Z M474 -110 C394 -110 342 -163 342 -230 C342 -297 394 -349 474 -349 C554 -349 607 -297 607 -230 C607 -163 554 -110 474 -110 L474 -110 Z " />
<glyph glyph-name="uni1EC7" unicode="&#x1ec7;" horiz-adv-x="801" d="M746 472 L746 587 C746 933 632 1102 410 1102 C196 1102 72 945 72 581 L72 469 C72 141 206 -20 434 -20 C593 -20 687 63 731 140 L645 277 C599 212 533 167 458 167 C354 167 300 247 300 470 L300 472 L746 472 Z M384 1410 L483 1251 L662 1251 L662 1262 L449 1537 L318 1537 L110 1264 L110 1251 L284 1251 L384 1410 Z M426 -120 C346 -120 294 -173 294 -240 C294 -307 346 -359 426 -359 C506 -359 559 -307 559 -240 C559 -173 506 -120 426 -120 L426 -120 Z M412 916 C491 916 519 831 520 668 L520 643 L301 643 C305 840 335 916 412 916 L412 916 Z " />
<glyph glyph-name="uni1EC8" unicode="&#x1ec8;" horiz-adv-x="462" d="M350 0 L350 1456 L113 1456 L113 0 L350 0 Z M143 1578 L314 1578 L314 1645 C360 1656 409 1697 409 1795 C409 1911 319 1985 138 1985 L133 1867 C185 1867 215 1848 215 1793 C215 1745 190 1727 131 1721 L143 1578 Z " />
<glyph glyph-name="uni1EC9" unicode="&#x1ec9;" horiz-adv-x="450" d="M338 0 L338 1082 L108 1082 L108 0 L338 0 Z M138 1252 L309 1252 L309 1319 C355 1330 404 1371 404 1469 C404 1585 314 1659 133 1659 L128 1541 C180 1541 210 1522 210 1467 C210 1419 185 1401 126 1395 L138 1252 Z " />
<glyph glyph-name="uni1ECA" unicode="&#x1eca;" horiz-adv-x="462" d="M350 0 L350 1456 L113 1456 L113 0 L350 0 Z M250 -114 C170 -114 118 -167 118 -234 C118 -301 170 -353 250 -353 C330 -353 383 -301 383 -234 C383 -167 330 -114 250 -114 L250 -114 Z " />
<glyph glyph-name="uni1ECB" unicode="&#x1ecb;" horiz-adv-x="432" d="M331 0 L331 1082 L100 1082 L100 0 L331 0 Z M215 1492 C140 1492 90 1438 90 1368 C90 1297 140 1244 215 1244 C291 1244 340 1297 340 1368 C340 1438 291 1492 215 1492 L215 1492 Z M236 -110 C156 -110 104 -163 104 -230 C104 -297 156 -349 236 -349 C316 -349 369 -297 369 -230 C369 -163 316 -110 236 -110 L236 -110 Z " />
<glyph glyph-name="uni1ECC" unicode="&#x1ecc;" horiz-adv-x="1002" d="M918 591 L918 855 C918 1267 749 1476 500 1476 C250 1476 83 1267 83 855 L83 591 C83 184 252 -20 501 -20 C750 -20 918 184 918 591 L918 591 Z M523 -120 C443 -120 391 -173 391 -240 C391 -307 443 -359 523 -359 C603 -359 656 -307 656 -240 C656 -173 603 -120 523 -120 L523 -120 Z M680 857 L680 591 C680 298 618 177 501 177 C383 177 320 298 320 591 L320 857 C320 1156 382 1278 500 1278 C617 1278 680 1156 680 857 L680 857 Z " />
<glyph glyph-name="uni1ECD" unicode="&#x1ecd;" horiz-adv-x="830" d="M66 587 L66 495 C66 155 202 -20 416 -20 C627 -20 764 155 764 495 L764 587 C764 927 627 1102 414 1102 C202 1102 66 927 66 587 L66 587 Z M433 -124 C353 -124 301 -177 301 -244 C301 -311 353 -363 433 -363 C513 -363 566 -311 566 -244 C566 -177 513 -124 433 -124 L433 -124 Z M295 495 L295 587 C295 809 342 916 414 916 C489 916 534 809 534 587 L534 495 C534 270 493 167 416 167 C341 167 295 270 295 495 L295 495 Z " />
</font>
</svg>
