<?xml version="1.0" encoding="UTF-8"?>
<svg xmlns="http://www.w3.org/2000/svg" xmlns:xlink="http://www.w3.org/1999/xlink" version="1.1" >
<font id="Gotho-7Wd500Md" horiz-adv-x="897">
<font-face  font-family="Gotho" units-per-em="2048" ascent="2146" descent="-555" font-style="normal" font-weight="500" font-stretch="expanded" cap-height="1456" x-height="1082" underline-position="-100" underline-thickness="100" />
<missing-glyph horiz-adv-x="990" d="M876 1456 L114 1456 L114 0 L876 0 L876 1456 Z M492 660 L769 54 L215 54 L492 660 Z M461 728 L172 96 L172 1360 L461 728 Z M523 728 L818 1373 L818 83 L523 728 Z M215 1402 L769 1402 L492 796 L215 1402 Z " />
<glyph glyph-name="NULL" horiz-adv-x="0" />
<glyph glyph-name="CR" unicode="&#xd;" horiz-adv-x="557" />
<glyph glyph-name="space" unicode="&#x20;" horiz-adv-x="557" />
<glyph glyph-name="uni0002" unicode="&#x2;" horiz-adv-x="0" />
<glyph glyph-name="uni0009" unicode="&#x9;" horiz-adv-x="557" />
<glyph glyph-name="exclam" unicode="&#x21;" horiz-adv-x="565" d="M289 202 C215 202 174 154 174 94 C174 35 215 -12 289 -12 C362 -12 404 35 404 94 C404 154 362 202 289 202 L289 202 Z M368 411 L383 1456 L183 1456 L197 411 L368 411 Z " />
<glyph glyph-name="quotedbl" unicode="&#x22;" horiz-adv-x="710" d="M298 1401 L298 1536 L151 1536 L151 1391 L150 1041 L267 1041 L298 1401 Z M591 1401 L591 1536 L444 1536 L444 1399 L443 1041 L561 1041 L591 1401 Z " />
<glyph glyph-name="numbersign" unicode="&#x23;" horiz-adv-x="1348" d="M1322 900 L1322 1040 L1095 1040 L1181 1456 L1035 1456 L949 1040 L658 1040 L744 1456 L598 1456 L512 1040 L203 1040 L203 900 L483 900 L410 549 L121 549 L121 410 L382 410 L297 0 L443 0 L528 410 L819 410 L734 0 L881 0 L965 410 L1241 410 L1241 549 L994 549 L1066 900 L1322 900 Z M847 549 L556 549 L629 900 L920 900 L847 549 Z " />
<glyph glyph-name="dollar" unicode="&#x24;" horiz-adv-x="1249" d="M1125 378 C1125 614 963 727 689 810 C445 883 375 955 375 1082 C375 1220 461 1313 647 1313 C825 1313 923 1185 923 1007 L1113 1007 C1113 1283 969 1445 725 1473 L725 1693 L576 1693 L576 1474 C336 1450 184 1304 184 1079 C184 843 352 721 624 642 C853 577 933 493 933 376 C933 233 822 143 628 143 C481 143 316 205 316 430 L125 430 C125 123 337 1 561 -18 L561 -208 L709 -208 L709 -17 C963 6 1125 144 1125 378 L1125 378 Z " />
<glyph glyph-name="percent" unicode="&#x25;" horiz-adv-x="1630" d="M887 357 L887 279 C887 115 1008 -21 1208 -21 C1406 -21 1525 115 1525 279 L1525 357 C1525 521 1406 657 1206 657 C1008 657 887 521 887 357 L887 357 Z M485 110 L1251 1248 L1143 1315 L377 177 L485 110 Z M119 1176 L119 1099 C119 936 240 800 440 800 C638 800 758 936 758 1099 L758 1176 C758 1341 638 1477 437 1477 C240 1477 119 1341 119 1176 L119 1176 Z M1030 279 L1030 357 C1030 450 1088 535 1206 535 C1325 535 1382 450 1382 357 L1382 279 C1382 186 1327 101 1208 101 C1088 101 1030 187 1030 279 L1030 279 Z M262 1099 L262 1176 C262 1269 320 1355 437 1355 C557 1355 615 1269 615 1176 L615 1099 C615 1007 559 922 440 922 C319 922 262 1008 262 1099 L262 1099 Z " />
<glyph glyph-name="ampersand" unicode="&#x26;" horiz-adv-x="1385" d="M1365 0 L1142 246 C1232 362 1277 506 1277 673 L1105 673 C1105 559 1075 458 1025 375 L667 769 L785 852 C907 937 999 1027 999 1168 C999 1333 860 1476 633 1476 C399 1476 246 1350 246 1122 C246 1009 311 911 413 794 C240 675 115 568 115 392 C115 152 307 -20 617 -20 C766 -20 919 25 1030 117 L1137 0 L1365 0 Z M618 134 C407 134 306 251 306 392 C306 435 323 528 480 637 L525 669 L913 245 C828 174 724 134 618 134 L618 134 Z M632 1322 C755 1322 823 1246 823 1168 C823 1067 771 1020 681 963 L561 888 C484 977 434 1055 434 1128 C434 1233 503 1322 632 1322 L632 1322 Z " />
<glyph glyph-name="quotesingle" unicode="&#x27;" horiz-adv-x="396" d="M277 1427 L277 1536 L121 1536 L121 1410 L119 1056 L254 1056 L277 1427 Z " />
<glyph glyph-name="parenleft" unicode="&#x28;" horiz-adv-x="756" d="M151 592 L151 582 C151 -4 458 -366 669 -470 L710 -357 C537 -228 339 72 339 580 L339 594 C339 1102 537 1401 710 1520 L669 1644 C458 1539 151 1176 151 592 L151 592 Z " />
<glyph glyph-name="parenright" unicode="&#x29;" horiz-adv-x="769" d="M607 582 L607 592 C607 1176 299 1539 87 1644 L47 1529 C207 1412 417 1102 417 594 L417 580 C417 72 220 -238 47 -357 L87 -470 C299 -366 607 -4 607 582 L607 582 Z " />
<glyph glyph-name="asterisk" unicode="&#x2a;" horiz-adv-x="981" d="M379 983 L150 708 L278 616 L486 896 L700 609 L828 704 L600 974 L950 1064 L902 1218 L563 1108 L574 1457 L417 1457 L426 1114 L81 1225 L33 1073 L379 983 Z " />
<glyph glyph-name="plus" unicode="&#x2b;" horiz-adv-x="1258" d="M1162 783 L719 783 L719 1206 L529 1206 L529 783 L88 783 L88 606 L529 606 L529 146 L719 146 L719 606 L1162 606 L1162 783 Z " />
<glyph glyph-name="comma" unicode="&#x2c;" horiz-adv-x="456" d="M339 72 L339 221 L153 221 L153 69 C153 -39 113 -130 45 -218 L154 -292 C270 -200 339 -49 339 72 L339 72 Z " />
<glyph glyph-name="hyphen" unicode="&#x2d;" horiz-adv-x="646" d="M585 541 L585 695 L56 695 L56 541 L585 541 Z " />
<glyph glyph-name="period" unicode="&#x2e;" horiz-adv-x="591" d="M283 212 C205 212 161 163 161 99 C161 37 205 -12 283 -12 C361 -12 405 37 405 99 C405 163 361 212 283 212 L283 212 Z " />
<glyph glyph-name="slash" unicode="&#x2f;" horiz-adv-x="907" d="M189 -125 L837 1456 L675 1456 L26 -125 L189 -125 Z " />
<glyph glyph-name="zero" unicode="0" horiz-adv-x="1249" d="M1119 622 L1119 843 C1119 1322 928 1476 623 1476 C322 1476 130 1322 130 843 L130 622 C130 144 325 -20 626 -20 C930 -20 1119 144 1119 622 L1119 622 Z M928 875 L928 592 C928 266 826 134 626 134 C429 134 321 266 321 592 L321 875 C321 1204 427 1322 623 1322 C823 1322 928 1204 928 875 L928 875 Z " />
<glyph glyph-name="one" unicode="1" horiz-adv-x="1249" d="M788 0 L788 1464 L759 1464 L192 1264 L192 1094 L597 1230 L597 0 L788 0 Z " />
<glyph glyph-name="two" unicode="2" horiz-adv-x="1249" d="M1158 0 L1158 154 L372 154 L788 575 C947 739 1086 915 1086 1087 C1086 1319 910 1476 615 1476 C288 1476 108 1274 108 1027 L299 1027 C299 1201 407 1322 615 1322 C794 1322 894 1206 894 1064 C894 951 840 861 651 666 L139 135 L139 0 L1158 0 Z " />
<glyph glyph-name="three" unicode="3" horiz-adv-x="1248" d="M828 748 C1000 816 1079 957 1079 1064 C1079 1335 889 1476 605 1476 C321 1476 123 1297 123 1075 L314 1075 C314 1226 434 1322 606 1322 C797 1322 888 1234 888 1068 C888 926 782 820 571 820 L430 820 L430 666 L571 666 C778 666 913 582 913 403 C913 221 797 134 608 134 C420 134 298 233 298 384 L107 384 C107 126 339 -20 608 -20 C891 -20 1104 135 1104 407 C1104 538 1033 685 828 748 L828 748 Z " />
<glyph glyph-name="four" unicode="4" horiz-adv-x="1249" d="M1195 491 L974 491 L974 1456 L765 1456 L68 448 L69 337 L782 337 L782 0 L974 0 L974 337 L1195 337 L1195 491 Z M291 491 L779 1204 L782 1209 L782 491 L291 491 Z " />
<glyph glyph-name="five" unicode="5" horiz-adv-x="1249" d="M226 730 L379 692 C449 749 506 784 643 784 C848 784 962 644 962 462 C962 261 855 134 661 134 C487 134 377 219 354 383 L171 383 C197 111 407 -20 661 -20 C995 -20 1153 185 1153 464 C1153 761 973 953 686 953 C568 953 474 921 419 890 L467 1283 L1110 1283 L1110 1456 L305 1456 L226 730 Z " />
<glyph glyph-name="six" unicode="6" horiz-adv-x="1249" d="M675 972 C529 972 419 926 344 853 C370 1159 542 1322 779 1322 C860 1322 915 1308 959 1298 L995 1440 C936 1462 847 1476 760 1476 C423 1476 149 1219 149 744 L149 532 C149 155 379 -20 651 -20 C954 -20 1138 195 1138 491 C1138 762 962 972 675 972 L675 972 Z M651 133 C483 133 340 253 340 533 L340 665 C393 756 498 821 640 821 C842 821 947 676 947 491 C947 299 850 133 651 133 L651 133 Z " />
<glyph glyph-name="seven" unicode="7" horiz-adv-x="1248" d="M88 1456 L88 1302 L951 1302 C661 975 468 635 414 157 L396 0 L588 0 L603 157 C657 550 758 846 1141 1302 L1141 1456 L88 1456 Z " />
<glyph glyph-name="eight" unicode="8" horiz-adv-x="1249" d="M859 750 C999 814 1089 934 1089 1077 C1089 1331 892 1476 624 1476 C356 1476 161 1331 161 1077 C161 934 248 814 387 751 C226 687 124 556 124 394 C124 128 341 -20 625 -20 C907 -20 1126 128 1126 394 C1126 555 1021 686 859 750 L859 750 Z M625 134 C437 134 315 232 315 399 C315 559 438 673 623 673 C806 673 934 559 934 399 C934 232 814 134 625 134 L625 134 Z M624 1322 C785 1322 897 1217 897 1073 C897 924 786 826 625 826 C463 826 353 924 353 1073 C353 1226 463 1322 624 1322 L624 1322 Z " />
<glyph glyph-name="nine" unicode="9" horiz-adv-x="1248" d="M581 1477 C313 1477 103 1294 103 960 C103 666 286 458 581 458 C707 458 820 496 901 569 C899 271 739 133 508 133 C422 133 349 157 281 183 L243 38 C330 -5 435 -21 527 -21 C852 -21 1093 178 1093 577 L1093 912 C1093 1295 886 1477 581 1477 L581 1477 Z M594 611 C408 611 296 776 296 960 C296 1203 420 1323 586 1323 C784 1323 901 1192 901 932 L901 781 C861 692 761 611 594 611 L594 611 Z " />
<glyph glyph-name="colon" unicode="&#x3a;" horiz-adv-x="536" d="M271 212 C193 212 149 163 149 99 C149 37 193 -12 271 -12 C349 -12 393 37 393 99 C393 163 349 212 271 212 L271 212 Z M275 1088 C197 1088 153 1039 153 975 C153 913 197 864 275 864 C353 864 397 913 397 975 C397 1039 353 1088 275 1088 L275 1088 Z " />
<glyph glyph-name="semicolon" unicode="&#x3b;" horiz-adv-x="479" d="M251 1093 C173 1093 129 1044 129 980 C129 918 173 869 251 869 C329 869 373 918 373 980 C373 1044 329 1093 251 1093 L251 1093 Z M355 72 L355 221 L169 221 L169 69 C169 -39 129 -130 61 -218 L170 -292 C286 -200 355 -49 355 72 L355 72 Z " />
<glyph glyph-name="less" unicode="&#x3c;" horiz-adv-x="1135" d="M970 1099 L83 721 L83 573 L970 194 L970 393 L290 645 L970 900 L970 1099 Z " />
<glyph glyph-name="equal" unicode="&#x3d;" horiz-adv-x="1228" d="M1071 398 L1071 561 L168 561 L168 398 L1071 398 Z M1071 814 L1071 977 L168 977 L168 814 L1071 814 Z " />
<glyph glyph-name="greater" unicode="&#x3e;" horiz-adv-x="1161" d="M147 1100 L147 907 L863 651 L147 390 L147 196 L1065 575 L1065 722 L147 1100 Z " />
<glyph glyph-name="question" unicode="&#x3f;" horiz-adv-x="1048" d="M497 202 C423 202 382 154 382 94 C382 35 423 -12 497 -12 C571 -12 613 35 613 94 C613 154 571 202 497 202 L497 202 Z M395 410 L583 410 C583 508 606 595 689 662 C830 779 954 916 954 1096 C954 1330 800 1476 528 1476 C281 1476 90 1341 87 1115 L278 1115 C279 1253 395 1312 528 1312 C681 1312 763 1228 763 1090 C763 955 679 891 578 796 C441 668 396 603 395 410 L395 410 Z " />
<glyph glyph-name="at" unicode="&#x40;" horiz-adv-x="1998" d="M1053 1432 C510 1432 155 1025 130 478 C103 -96 421 -453 968 -453 C1101 -453 1268 -424 1367 -364 L1329 -249 C1240 -297 1099 -327 972 -327 C508 -327 253 -21 278 478 C302 965 595 1299 1048 1299 C1553 1299 1769 1000 1745 502 C1734 279 1637 100 1463 100 C1394 100 1302 136 1320 331 L1375 884 C1295 942 1222 990 1068 990 C841 990 633 769 599 417 C573 155 678 -21 888 -21 C1000 -21 1107 39 1184 153 C1220 43 1308 -21 1442 -21 C1749 -21 1868 257 1879 502 C1903 1071 1610 1432 1053 1432 L1053 1432 Z M933 125 C803 125 742 230 762 417 C792 709 922 860 1082 860 C1136 860 1182 847 1218 828 L1169 331 L1169 327 C1109 183 1012 125 933 125 L933 125 Z " />
<glyph glyph-name="A" unicode="A" horiz-adv-x="1439" d="M1200 0 L1405 0 L809 1456 L631 1456 L36 0 L241 0 L389 380 L1051 380 L1200 0 Z M452 540 L720 1228 L989 540 L452 540 Z " />
<glyph glyph-name="B" unicode="B" horiz-adv-x="1382" d="M983 766 C1124 823 1209 933 1209 1068 C1209 1339 1016 1456 693 1456 L189 1456 L189 0 L736 0 C1050 0 1254 148 1254 421 C1254 583 1157 720 983 766 L983 766 Z M736 159 L388 159 L388 680 L747 680 C962 680 1056 580 1056 419 C1056 260 939 159 736 159 L736 159 Z M693 1296 C906 1296 1010 1228 1010 1069 C1010 924 891 837 700 837 L388 837 L388 1296 L693 1296 Z " />
<glyph glyph-name="C" unicode="C" horiz-adv-x="1448" d="M1338 463 L1139 463 C1106 253 1007 139 745 139 C467 139 336 363 336 640 L336 818 C336 1117 484 1316 760 1316 C1006 1316 1110 1197 1139 988 L1338 988 C1307 1282 1113 1476 760 1476 C376 1476 137 1216 137 816 L137 640 C137 239 376 -20 745 -20 C1114 -20 1307 182 1338 463 L1338 463 Z " />
<glyph glyph-name="D" unicode="D" horiz-adv-x="1456" d="M633 1456 L189 1456 L189 0 L618 0 C1044 0 1319 249 1319 665 L1319 790 C1319 1206 1041 1456 633 1456 L633 1456 Z M1122 665 C1122 352 949 159 618 159 L388 159 L388 1296 L633 1296 C943 1296 1122 1119 1122 792 L1122 665 Z " />
<glyph glyph-name="E" unicode="E" horiz-adv-x="1264" d="M388 159 L388 672 L1074 672 L1074 831 L388 831 L388 1296 L1174 1296 L1174 1456 L189 1456 L189 0 L1183 0 L1183 159 L388 159 Z " />
<glyph glyph-name="F" unicode="F" horiz-adv-x="1235" d="M1163 1296 L1163 1456 L189 1456 L189 0 L388 0 L388 642 L1059 642 L1059 801 L388 801 L388 1296 L1163 1296 Z " />
<glyph glyph-name="G" unicode="G" horiz-adv-x="1514" d="M1347 191 L1347 727 L777 727 L777 568 L1148 568 L1148 242 C1107 203 1014 139 793 139 C520 139 342 324 342 653 L342 806 C342 1127 480 1316 770 1316 C1016 1316 1120 1192 1149 1029 L1346 1029 C1310 1293 1127 1476 768 1476 C371 1476 143 1233 143 804 L143 653 C143 223 410 -20 791 -20 C1136 -20 1287 114 1347 191 L1347 191 Z " />
<glyph glyph-name="H" unicode="H" horiz-adv-x="1580" d="M1190 1456 L1190 831 L388 831 L388 1456 L189 1456 L189 0 L388 0 L388 672 L1190 672 L1190 0 L1389 0 L1389 1456 L1190 1456 Z " />
<glyph glyph-name="I" unicode="I" horiz-adv-x="613" d="M407 0 L407 1456 L208 1456 L208 0 L407 0 Z " />
<glyph glyph-name="J" unicode="J" horiz-adv-x="1229" d="M853 1456 L853 425 C853 238 726 139 559 139 C383 139 266 220 266 403 L67 403 C67 116 271 -20 559 -20 C844 -20 1051 136 1051 425 L1051 1456 L853 1456 Z " />
<glyph glyph-name="K" unicode="K" horiz-adv-x="1398" d="M1146 0 L1385 0 L720 814 L1338 1456 L1097 1456 L565 918 L388 731 L388 1456 L189 1456 L189 0 L388 0 L388 485 L583 676 L1146 0 Z " />
<glyph glyph-name="L" unicode="L" horiz-adv-x="1193" d="M388 159 L388 1456 L189 1456 L189 0 L1133 0 L1133 159 L388 159 Z " />
<glyph glyph-name="M" unicode="M" horiz-adv-x="1932" d="M1743 1456 L1473 1456 L966 291 L458 1456 L189 1456 L189 0 L387 0 L387 565 L367 1216 L890 0 L1039 0 L1565 1219 L1545 565 L1545 0 L1743 0 L1743 1456 Z " />
<glyph glyph-name="N" unicode="N" horiz-adv-x="1581" d="M1390 0 L1390 1456 L1193 1456 L1193 309 L394 1456 L189 1456 L189 0 L388 0 L388 1144 L1184 0 L1390 0 Z " />
<glyph glyph-name="O" unicode="O" horiz-adv-x="1523" d="M1388 663 L1388 792 C1388 1223 1141 1476 761 1476 C389 1476 135 1223 135 792 L135 663 C135 232 391 -20 763 -20 C1143 -20 1388 232 1388 663 L1388 663 Z M1191 794 L1191 663 C1191 321 1037 146 763 146 C500 146 332 321 332 663 L332 794 C332 1134 498 1309 761 1309 C1033 1309 1191 1134 1191 794 L1191 794 Z " />
<glyph glyph-name="P" unicode="P" horiz-adv-x="1397" d="M759 1456 L189 1456 L189 0 L388 0 L388 570 L759 570 C1113 570 1306 730 1306 1011 C1306 1270 1112 1456 759 1456 L759 1456 Z M759 729 L388 729 L388 1296 L759 1296 C1006 1296 1107 1158 1107 1009 C1107 845 1006 729 759 729 L759 729 Z " />
<glyph glyph-name="Q" unicode="Q" horiz-adv-x="1523" d="M1381 -124 L1112 77 C1282 188 1380 389 1380 663 L1380 792 C1380 1224 1133 1476 752 1476 C381 1476 126 1224 126 792 L126 663 C126 232 383 -20 754 -20 C814 -20 870 -14 923 -2 L1247 -246 L1381 -124 Z M324 663 L324 794 C324 1134 491 1309 752 1309 C1025 1309 1183 1134 1183 794 L1183 663 C1183 321 1029 146 754 146 C492 146 324 321 324 663 L324 663 Z " />
<glyph glyph-name="R" unicode="R" horiz-adv-x="1467" d="M1275 236 L1275 369 C1275 531 1214 660 1031 714 C1194 778 1286 889 1286 1040 C1286 1312 1099 1456 757 1456 L196 1456 L196 0 L395 0 L395 628 L782 628 C969 628 1076 524 1076 367 L1076 238 C1076 187 1082 54 1145 0 L1348 0 L1348 25 C1292 74 1275 155 1275 236 L1275 236 Z M737 787 L395 787 L395 1296 L754 1296 C988 1296 1087 1196 1087 1040 C1087 876 991 787 737 787 L737 787 Z " />
<glyph glyph-name="S" unicode="S" horiz-adv-x="1322" d="M653 649 C953 569 1034 504 1034 369 C1034 228 907 139 687 139 C484 139 293 225 293 422 L94 422 C94 133 399 -20 687 -20 C1014 -20 1233 134 1233 371 C1233 596 1066 725 718 819 C450 885 342 960 342 1082 C342 1216 451 1316 677 1316 C912 1316 1030 1198 1030 1036 L1228 1036 C1228 1263 1025 1476 678 1476 C358 1476 143 1305 143 1079 C143 853 344 732 653 649 L653 649 Z " />
<glyph glyph-name="T" unicode="T" horiz-adv-x="1331" d="M1274 1456 L59 1456 L59 1296 L568 1296 L568 0 L764 0 L764 1296 L1274 1296 L1274 1456 Z " />
<glyph glyph-name="U" unicode="U" horiz-adv-x="1448" d="M1293 1456 L1094 1456 L1094 461 C1094 234 946 139 726 139 C507 139 357 234 357 461 L357 1456 L160 1456 L160 461 C160 133 406 -20 726 -20 C1032 -20 1293 133 1293 461 L1293 1456 Z " />
<glyph glyph-name="V" unicode="V" horiz-adv-x="1408" d="M1157 1456 L703 244 L252 1456 L36 1456 L613 0 L795 0 L1374 1456 L1157 1456 Z " />
<glyph glyph-name="W" unicode="W" horiz-adv-x="1971" d="M1716 1456 L1465 426 L1433 240 L1393 405 L1085 1456 L908 1456 L593 405 L553 244 L524 425 L268 1456 L69 1456 L450 0 L638 0 L973 1072 L998 1187 L1022 1072 L1347 0 L1536 0 L1916 1456 L1716 1456 Z " />
<glyph glyph-name="X" unicode="X" horiz-adv-x="1388" d="M696 885 L310 1456 L77 1456 L576 735 L65 0 L299 0 L696 582 L1092 0 L1326 0 L816 735 L1313 1456 L1081 1456 L696 885 Z " />
<glyph glyph-name="Y" unicode="Y" horiz-adv-x="1338" d="M668 728 L250 1456 L23 1456 L568 544 L568 0 L767 0 L767 544 L1311 1456 L1086 1456 L668 728 Z " />
<glyph glyph-name="Z" unicode="Z" horiz-adv-x="1333" d="M343 159 L1207 1314 L1207 1456 L116 1456 L116 1296 L961 1296 L99 147 L99 0 L1240 0 L1240 159 L343 159 Z " />
<glyph glyph-name="bracketleft" unicode="&#x5b;" horiz-adv-x="586" d="M565 1510 L565 1664 L166 1664 L166 -312 L565 -312 L565 -158 L358 -158 L358 1510 L565 1510 Z " />
<glyph glyph-name="backslash" unicode="&#x5c;" horiz-adv-x="910" d="M49 1456 L704 -125 L887 -125 L233 1456 L49 1456 Z " />
<glyph glyph-name="bracketright" unicode="&#x5d;" horiz-adv-x="586" d="M15 1664 L15 1510 L222 1510 L222 -158 L15 -158 L15 -312 L414 -312 L414 1664 L15 1664 Z " />
<glyph glyph-name="asciicircum" unicode="&#x5e;" horiz-adv-x="936" d="M853 729 L533 1456 L399 1456 L77 729 L252 729 L466 1209 L678 729 L853 729 Z " />
<glyph glyph-name="underscore" unicode="&#x5f;" horiz-adv-x="996" d="M986 -154 L986 0 L9 0 L9 -154 L986 -154 Z " />
<glyph glyph-name="grave" unicode="&#x60;" horiz-adv-x="695" d="M520 1242 L306 1536 L76 1536 L353 1242 L520 1242 Z " />
<glyph glyph-name="a" unicode="a" horiz-adv-x="1205" d="M1038 237 L1038 747 C1038 989 858 1102 604 1102 C325 1102 143 937 143 782 L334 782 C334 872 439 951 595 951 C760 951 846 876 846 749 L846 658 L646 658 C318 658 118 529 118 300 C118 114 273 -20 507 -20 C660 -20 776 46 850 122 C855 76 865 29 879 0 L1078 0 L1078 17 C1051 75 1038 165 1038 237 L1038 237 Z M536 144 C389 144 309 216 309 326 C309 458 441 525 673 525 L846 525 L846 305 C801 226 687 144 536 144 L536 144 Z " />
<glyph glyph-name="b" unicode="b" horiz-adv-x="1246" d="M686 1102 C536 1102 426 1048 350 951 L350 1536 L158 1536 L158 0 L334 0 L344 136 C421 36 534 -20 688 -20 C976 -20 1138 197 1138 519 L1138 560 C1138 896 977 1102 686 1102 L686 1102 Z M946 519 C946 299 858 139 642 139 C492 139 400 215 350 311 L350 776 C398 872 487 944 640 944 C865 944 946 780 946 560 L946 519 Z " />
<glyph glyph-name="c" unicode="c" horiz-adv-x="1161" d="M899 342 C888 215 763 134 618 134 C371 134 295 316 295 510 L295 572 C295 764 372 948 618 948 C779 948 889 848 899 710 L1080 710 C1070 938 886 1102 618 1102 C274 1102 104 868 104 572 L104 510 C104 214 273 -20 619 -20 C864 -20 1070 144 1080 342 L899 342 Z " />
<glyph glyph-name="d" unicode="d" horiz-adv-x="1251" d="M895 1536 L895 959 C819 1051 711 1102 566 1102 C288 1102 109 896 109 560 L109 519 C109 197 289 -20 564 -20 C714 -20 825 33 901 128 L910 0 L1087 0 L1087 1536 L895 1536 Z M610 139 C394 139 301 299 301 519 L301 560 C301 780 394 944 612 944 C757 944 845 878 895 790 L895 300 C843 207 756 139 610 139 L610 139 Z " />
<glyph glyph-name="e" unicode="e" horiz-adv-x="1176" d="M1091 576 C1091 886 938 1102 613 1102 C344 1102 104 916 104 555 L104 493 C104 182 316 -20 639 -20 C864 -20 997 78 1072 178 L961 273 C886 190 788 134 649 134 C432 134 298 279 295 487 L1091 487 L1091 576 Z M899 640 L300 640 C325 849 444 948 613 948 C816 948 892 806 899 658 L899 640 Z " />
<glyph glyph-name="f" unicode="f" horiz-adv-x="772" d="M652 1397 C692 1397 730 1394 761 1388 L771 1541 C726 1551 678 1557 632 1557 C398 1557 255 1429 255 1196 L255 1082 L70 1082 L70 938 L255 938 L255 0 L446 0 L446 938 L700 938 L700 1082 L446 1082 L446 1196 C446 1325 523 1397 652 1397 L652 1397 Z " />
<glyph glyph-name="g" unicode="g" horiz-adv-x="1175" d="M675 197 L487 197 C411 197 351 217 351 279 C351 328 378 361 408 384 C457 370 512 363 570 363 C840 363 1027 525 1027 721 L1027 743 C1027 815 1005 880 965 934 L1119 934 L1118 1082 L731 1082 C681 1095 626 1102 567 1102 C298 1102 109 952 109 743 L109 721 C109 599 182 491 302 426 C242 385 181 323 181 222 C181 170 203 130 240 101 C135 53 43 -34 43 -161 C43 -309 216 -438 537 -438 C902 -438 1111 -251 1111 -98 C1111 105 947 197 675 197 L675 197 Z M300 743 C300 854 407 948 567 948 C729 948 836 854 836 743 L836 721 C836 618 731 516 570 516 C406 516 300 618 300 721 L300 743 Z M537 -285 C329 -285 233 -212 233 -124 C233 -44 292 21 367 50 C394 45 423 43 452 43 L672 43 C858 43 919 -8 919 -98 C919 -180 785 -285 537 -285 L537 -285 Z " />
<glyph glyph-name="h" unicode="h" horiz-adv-x="1227" d="M699 1102 C553 1102 432 1041 350 939 L350 1536 L158 1536 L158 0 L350 0 L350 765 C404 871 505 944 642 944 C795 944 881 878 881 711 L881 0 L1072 0 L1072 709 C1072 993 929 1102 699 1102 L699 1102 Z " />
<glyph glyph-name="i" unicode="i" horiz-adv-x="542" d="M368 0 L368 1082 L176 1082 L176 0 L368 0 Z M273 1476 C199 1476 158 1428 158 1368 C158 1309 199 1263 273 1263 C347 1263 389 1309 389 1368 C389 1428 347 1476 273 1476 L273 1476 Z " />
<glyph glyph-name="j" unicode="j" horiz-adv-x="538" d="M359 1082 L167 1082 L167 -129 C167 -238 114 -278 18 -278 C-10 -278 -48 -275 -76 -269 L-77 -420 C-42 -430 9 -437 46 -437 C253 -437 359 -328 359 -129 L359 1082 Z M261 1476 C186 1476 146 1428 146 1368 C146 1309 186 1263 261 1263 C335 1263 376 1309 376 1368 C376 1428 335 1476 261 1476 L261 1476 Z " />
<glyph glyph-name="k" unicode="k" horiz-adv-x="1126" d="M893 0 L1118 0 L610 633 L1069 1082 L835 1082 L351 595 L351 1536 L160 1536 L160 0 L351 0 L351 371 L478 500 L893 0 Z " />
<glyph glyph-name="l" unicode="l" horiz-adv-x="677" d="M366 1536 L174 1536 L174 269 C174 52 292 -20 444 -20 C510 -20 564 -9 596 0 L594 153 C573 149 533 141 498 141 C427 141 366 159 366 268 L366 1536 Z " />
<glyph glyph-name="m" unicode="m" horiz-adv-x="1947" d="M1406 1102 C1236 1102 1109 1027 1032 918 C974 1047 850 1102 695 1102 C540 1102 423 1044 344 948 L338 1082 L157 1082 L157 0 L348 0 L348 777 C392 876 477 944 627 944 C779 944 878 878 878 712 L878 0 L1069 0 L1069 721 L1069 722 C1087 846 1181 943 1350 944 C1502 944 1601 892 1601 713 L1601 0 L1792 0 L1792 711 C1792 984 1652 1102 1406 1102 L1406 1102 Z " />
<glyph glyph-name="n" unicode="n" horiz-adv-x="1229" d="M701 1102 C552 1102 429 1038 346 933 L340 1082 L159 1082 L159 0 L350 0 L350 764 C404 871 506 944 642 944 C795 944 881 878 881 711 L881 0 L1073 0 L1073 709 C1073 993 930 1102 701 1102 L701 1102 Z " />
<glyph glyph-name="o" unicode="o" horiz-adv-x="1264" d="M103 562 L103 519 C103 201 310 -20 633 -20 C955 -20 1160 201 1160 519 L1160 562 C1160 880 955 1102 630 1102 C310 1102 103 880 103 562 L103 562 Z M295 519 L295 562 C295 778 411 948 630 948 C852 948 969 778 969 562 L969 519 C969 301 854 134 633 134 C411 134 295 301 295 519 L295 519 Z " />
<glyph glyph-name="p" unicode="p" horiz-adv-x="1245" d="M684 1102 C534 1102 422 1048 344 951 L334 1082 L158 1082 L158 -416 L350 -416 L350 117 C428 29 539 -20 687 -20 C975 -20 1136 197 1136 519 L1136 560 C1136 896 976 1102 684 1102 L684 1102 Z M945 519 C945 299 849 134 633 134 C489 134 402 198 350 284 L350 794 C400 880 487 944 630 944 C848 944 945 780 945 560 L945 519 Z " />
<glyph glyph-name="q" unicode="q" horiz-adv-x="1259" d="M910 1082 L901 959 C824 1051 714 1102 569 1102 C279 1102 109 896 109 560 L109 519 C109 197 280 -20 567 -20 C710 -20 818 28 895 114 L895 -416 L1086 -416 L1086 1082 L910 1082 Z M614 134 C397 134 301 299 301 519 L301 560 C301 780 398 948 615 948 C754 948 842 886 895 802 L895 286 C841 198 753 134 614 134 L614 134 Z " />
<glyph glyph-name="r" unicode="r" horiz-adv-x="763" d="M636 1102 C503 1102 409 1042 349 949 L344 1082 L159 1082 L159 0 L350 0 L350 763 C393 858 483 917 627 917 C663 917 691 915 723 909 L725 1088 C709 1094 665 1102 636 1102 L636 1102 Z " />
<glyph glyph-name="s" unicode="s" horiz-adv-x="1144" d="M559 472 C791 421 838 365 838 285 C838 197 748 134 582 134 C453 134 307 181 298 333 L107 333 C107 153 274 -20 581 -20 C852 -20 1029 109 1029 299 C1029 474 897 558 614 625 C387 678 337 714 337 793 C337 871 406 948 575 948 C738 948 828 854 828 766 L1019 766 C1019 952 854 1102 575 1102 C314 1102 147 959 147 787 C147 611 302 531 559 472 L559 472 Z " />
<glyph glyph-name="t" unicode="t" horiz-adv-x="732" d="M650 153 C628 149 588 141 553 141 C483 141 421 159 421 268 L421 938 L642 938 L642 1082 L421 1082 L421 1344 L229 1344 L229 1082 L20 1082 L20 938 L229 938 L229 269 C229 52 348 -20 499 -20 C566 -20 619 -9 652 0 L650 153 Z " />
<glyph glyph-name="u" unicode="u" horiz-adv-x="1228" d="M878 1082 L878 302 C832 204 737 139 569 139 C453 139 346 188 346 382 L346 1082 L154 1082 L154 384 C154 96 309 -20 537 -20 C698 -20 811 31 883 117 L888 0 L1070 0 L1070 1082 L878 1082 Z " />
<glyph glyph-name="v" unicode="v" horiz-adv-x="1082" d="M840 1082 L542 247 L238 1082 L41 1082 L464 0 L616 0 L1037 1082 L840 1082 Z " />
<glyph glyph-name="w" unicode="w" horiz-adv-x="1667" d="M1414 1082 L1187 222 L908 1082 L754 1082 L479 235 L247 1082 L57 1082 L392 0 L548 0 L828 852 L1113 0 L1270 0 L1605 1082 L1414 1082 Z " />
<glyph glyph-name="x" unicode="x" horiz-adv-x="1103" d="M548 681 L283 1082 L64 1082 L445 548 L51 0 L271 0 L550 412 L830 0 L1049 0 L655 548 L1036 1082 L815 1082 L548 681 Z " />
<glyph glyph-name="y" unicode="y" horiz-adv-x="1061" d="M824 1082 L547 266 L239 1082 L31 1082 L452 9 L409 -98 C355 -229 293 -273 158 -273 C147 -273 114 -271 101 -269 L101 -421 C124 -426 179 -437 213 -437 C426 -437 514 -274 555 -167 L1029 1082 L824 1082 Z " />
<glyph glyph-name="z" unicode="z" horiz-adv-x="1102" d="M337 154 L990 949 L990 1082 L113 1082 L113 927 L749 927 L100 138 L100 0 L1025 0 L1025 154 L337 154 Z " />
<glyph glyph-name="braceleft" unicode="&#x7b;" horiz-adv-x="752" d="M494 101 L494 306 C494 439 441 554 320 616 C441 679 494 793 494 926 L494 1132 C494 1295 551 1432 723 1482 L684 1597 C394 1520 305 1342 305 1132 L305 926 C305 782 237 690 75 690 L75 543 C237 543 305 450 305 306 L305 101 C305 -109 394 -288 684 -365 L724 -248 C552 -198 494 -62 494 101 L494 101 Z " />
<glyph glyph-name="bar" unicode="&#x7c;" horiz-adv-x="545" d="M350 -270 L350 1456 L198 1456 L198 -270 L350 -270 Z " />
<glyph glyph-name="braceright" unicode="&#x7d;" horiz-adv-x="753" d="M445 926 L445 1132 C445 1342 357 1520 67 1597 L27 1482 C200 1432 257 1295 257 1132 L257 926 C257 788 315 673 448 616 C315 558 257 445 257 306 L257 101 C257 -62 199 -198 26 -248 L67 -365 C357 -288 445 -109 445 101 L445 306 C445 450 513 543 676 543 L676 690 C513 690 445 782 445 926 L445 926 Z " />
<glyph glyph-name="asciitilde" unicode="&#x7e;" horiz-adv-x="1508" d="M1360 778 L1203 778 C1203 653 1130 566 1016 566 C944 566 890 598 809 664 C703 751 615 803 490 803 C285 803 149 645 149 436 L313 437 C313 562 379 638 492 638 C565 638 622 602 698 540 C809 449 892 402 1017 402 C1221 402 1360 572 1360 778 L1360 778 Z " />
<glyph glyph-name="uni00A0" unicode="&#xa0;" horiz-adv-x="557" />
<glyph glyph-name="exclamdown" unicode="&#xa1;" horiz-adv-x="544" d="M191 684 L177 -361 L377 -361 L363 684 L191 684 Z M271 888 C345 888 386 935 386 995 C386 1054 345 1101 271 1101 C197 1101 156 1054 156 995 C156 935 197 888 271 888 L271 888 Z " />
<glyph glyph-name="cent" unicode="&#xa2;" horiz-adv-x="1088" d="M639 134 C392 134 316 316 316 510 L316 572 C316 764 393 948 639 948 C800 948 910 848 920 710 L1101 710 C1092 914 944 1067 721 1097 L721 1318 L537 1318 L537 1095 C261 1052 125 837 125 572 L125 510 C125 245 260 30 537 -12 L537 -245 L721 -245 L721 -14 C929 17 1092 166 1101 342 L920 342 C909 215 784 134 639 134 L639 134 Z " />
<glyph glyph-name="sterling" unicode="&#xa3;" horiz-adv-x="1290" d="M429 159 C476 222 498 311 494 404 L486 622 L831 622 L831 781 L481 781 L472 1039 C472 1218 583 1317 729 1317 C866 1317 989 1253 989 1087 L1186 1087 C1186 1319 1024 1476 743 1476 C471 1476 271 1315 279 1039 L286 781 L105 781 L105 622 L291 622 L297 403 C299 315 274 177 199 159 L110 159 L110 0 L1214 0 L1214 159 L429 159 Z " />
<glyph glyph-name="currency" unicode="&#xa4;" horiz-adv-x="1626" d="M1476 608 C1476 746 1431 872 1355 973 L1521 1126 L1389 1265 L1217 1108 C1106 1188 967 1234 816 1234 C666 1234 528 1188 417 1109 L249 1264 L118 1126 L280 977 C202 874 156 748 156 608 C156 474 198 352 270 252 L118 112 L249 -26 L403 116 C516 30 660 -20 816 -20 C973 -20 1118 31 1231 117 L1389 -27 L1521 112 L1364 255 C1435 355 1476 476 1476 608 L1476 608 Z M329 608 C329 858 547 1060 816 1060 C1085 1060 1302 858 1302 608 C1302 358 1085 154 816 154 C547 154 329 358 329 608 L329 608 Z " />
<glyph glyph-name="yen" unicode="&#xa5;" horiz-adv-x="1167" d="M1142 1456 L923 1456 L586 776 L582 776 L246 1456 L24 1456 L419 738 L130 738 L130 612 L481 612 L481 448 L130 448 L130 322 L481 322 L481 0 L679 0 L679 322 L1034 322 L1034 448 L679 448 L679 612 L1034 612 L1034 738 L748 738 L1142 1456 Z " />
<glyph glyph-name="brokenbar" unicode="&#xa6;" horiz-adv-x="535" d="M168 -270 L358 -270 L358 522 L168 522 L168 -270 Z M358 698 L358 1456 L168 1456 L168 698 L358 698 Z " />
<glyph glyph-name="section" unicode="&#xa7;" horiz-adv-x="1362" d="M1039 158 C1163 211 1235 305 1235 431 C1235 681 1049 773 728 856 C425 933 351 979 351 1112 C351 1227 454 1323 684 1323 C902 1323 1019 1199 1019 1046 L1211 1046 C1211 1324 1011 1477 684 1477 C366 1477 160 1332 160 1110 C160 978 211 890 305 825 C184 770 113 674 113 551 C113 301 304 204 619 126 C912 44 997 -7 997 -130 C997 -250 877 -341 666 -341 C493 -341 298 -272 298 -62 L107 -64 C107 -388 391 -495 666 -495 C982 -495 1188 -360 1188 -128 C1188 6 1136 93 1039 158 L1039 158 Z M304 553 C304 644 357 716 473 742 C527 722 587 705 652 688 C953 610 1044 552 1044 428 C1044 338 981 267 867 239 C815 258 757 274 693 291 C380 371 304 419 304 553 L304 553 Z " />
<glyph glyph-name="dieresis" unicode="&#xa8;" horiz-adv-x="969" d="M235 1478 C161 1478 120 1430 120 1370 C120 1311 161 1265 235 1265 C308 1265 350 1311 350 1370 C350 1430 308 1478 235 1478 L235 1478 Z M719 1476 C646 1476 605 1428 605 1368 C605 1309 646 1263 719 1263 C793 1263 835 1309 835 1368 C835 1428 793 1476 719 1476 L719 1476 Z " />
<glyph glyph-name="copyright" unicode="&#xa9;" horiz-adv-x="1797" d="M1243 597 L1097 597 C1097 464 1022 413 881 413 C730 413 648 519 648 670 L648 788 C648 937 730 1044 881 1044 C1022 1044 1098 991 1098 861 L1244 861 C1244 1070 1104 1174 881 1174 C649 1174 502 1016 502 787 L502 670 C502 440 649 283 881 283 C1104 283 1243 387 1243 597 L1243 597 Z M895 1476 C461 1476 108 1152 108 729 C108 306 461 -21 895 -21 C1328 -21 1682 306 1682 729 C1682 1152 1328 1476 895 1476 L895 1476 Z M895 100 C527 100 227 374 227 729 C227 1084 527 1355 895 1355 C1263 1355 1562 1084 1562 729 C1562 374 1263 100 895 100 L895 100 Z " />
<glyph glyph-name="guillemotleft" unicode="&#xab;" horiz-adv-x="1044" d="M584 947 L437 947 L121 559 L121 540 L437 151 L584 151 L304 549 L584 947 Z M897 949 L750 949 L434 561 L434 542 L750 153 L897 153 L617 551 L897 949 Z " />
<glyph glyph-name="logicalnot" unicode="&#xac;" horiz-adv-x="1228" d="M142 802 L142 638 L848 638 L848 375 L1032 375 L1032 802 L142 802 Z " />
<glyph glyph-name="uni00AD" unicode="&#xad;" horiz-adv-x="645" d="M587 541 L587 695 L58 695 L58 541 L587 541 Z " />
<glyph glyph-name="registered" unicode="&#xae;" horiz-adv-x="1799" d="M893 1476 C459 1476 106 1152 106 729 C106 306 459 -21 893 -21 C1326 -21 1680 306 1680 729 C1680 1152 1326 1476 893 1476 L893 1476 Z M1227 514 C1227 603 1196 677 1110 716 C1191 755 1234 831 1234 909 C1234 1082 1101 1165 883 1165 L582 1165 L582 317 L725 317 L725 654 L914 654 C1037 654 1083 609 1083 513 L1083 461 C1083 432 1083 351 1097 317 L1245 317 L1245 333 C1231 363 1227 410 1227 460 L1227 514 Z M893 100 C525 100 225 374 225 729 C225 1084 525 1355 893 1355 C1261 1355 1560 1084 1560 729 C1560 374 1261 100 893 100 L893 100 Z M905 784 L725 784 L725 1037 L883 1037 C1038 1037 1092 1002 1092 904 C1092 826 1005 786 905 784 L905 784 Z " />
<glyph glyph-name="macron" unicode="&#xaf;" horiz-adv-x="1014" d="M871 1301 L871 1445 L160 1445 L160 1301 L871 1301 Z " />
<glyph glyph-name="degree" unicode="&#xb0;" horiz-adv-x="858" d="M432 1477 C278 1477 151 1359 151 1216 C151 1073 278 959 432 959 C583 959 708 1073 708 1216 C708 1359 583 1477 432 1477 L432 1477 Z M432 1089 C348 1089 279 1143 279 1216 C279 1291 348 1348 432 1348 C516 1348 580 1291 580 1216 C580 1143 516 1089 432 1089 L432 1089 Z " />
<glyph glyph-name="plusminus" unicode="&#xb1;" horiz-adv-x="1189" d="M151 1 L1052 1 L1052 154 L151 154 L151 1 Z M698 856 L698 1267 L525 1267 L525 856 L107 856 L107 702 L525 702 L525 289 L698 289 L698 702 L1093 702 L1093 856 L698 856 Z " />
<glyph glyph-name="uni00B2" unicode="&#xb2;" horiz-adv-x="819" d="M740 667 L740 797 L305 797 L497 944 C625 1043 705 1124 705 1230 C705 1376 590 1467 401 1467 C201 1467 81 1349 81 1205 L241 1205 C241 1281 294 1337 405 1337 C495 1337 545 1292 545 1228 C545 1185 509 1130 412 1046 L101 777 L102 667 L740 667 Z " />
<glyph glyph-name="uni00B3" unicode="&#xb3;" horiz-adv-x="819" d="M563 1072 C657 1105 709 1170 709 1242 C709 1389 582 1467 396 1467 C225 1467 89 1382 89 1246 L249 1246 C249 1302 313 1337 399 1337 C503 1337 549 1293 549 1235 C549 1172 494 1127 384 1127 L295 1127 L295 1010 L384 1010 C494 1010 564 978 564 896 C564 830 507 786 403 786 C303 786 237 831 237 890 L77 890 C77 727 237 656 397 656 C583 656 724 740 724 887 C724 979 672 1043 563 1072 L563 1072 Z " />
<glyph glyph-name="acute" unicode="&#xb4;" horiz-adv-x="698" d="M351 1536 L137 1242 L295 1242 L581 1536 L351 1536 Z " />
<glyph glyph-name="uni00B5" unicode="&#xb5;" horiz-adv-x="1264" d="M898 1082 L898 293 C857 194 771 133 608 133 C473 133 363 186 363 461 L363 1082 L173 1082 L173 -416 L363 -416 L363 51 C426 1 511 -21 616 -21 C749 -21 844 31 907 119 L916 0 L1090 0 L1090 1082 L898 1082 Z " />
<glyph glyph-name="paragraph" unicode="&#xb6;" horiz-adv-x="1083" d="M711 0 L897 0 L897 1456 L612 1456 C271 1456 83 1256 83 988 C83 718 271 520 612 520 L711 520 L711 0 Z " />
<glyph glyph-name="periodcentered" unicode="&#xb7;" horiz-adv-x="586" d="M288 843 C211 843 168 793 168 730 C168 668 211 619 288 619 C365 619 408 668 408 730 C408 793 365 843 288 843 L288 843 Z " />
<glyph glyph-name="cedilla" unicode="&#xb8;" horiz-adv-x="560" d="M308 0 L168 0 L136 -135 C257 -144 311 -163 311 -229 C311 -299 227 -327 128 -327 L135 -435 C349 -435 463 -351 463 -225 C463 -110 380 -65 296 -52 L308 0 Z " />
<glyph glyph-name="uni00B9" unicode="&#xb9;" horiz-adv-x="819" d="M536 667 L536 1456 L518 1456 L143 1339 L143 1209 L377 1266 L377 667 L536 667 Z " />
<glyph glyph-name="guillemotright" unicode="&#xbb;" horiz-adv-x="1042" d="M583 541 L583 560 L267 949 L120 949 L401 551 L120 152 L267 152 L583 541 Z M607 949 L460 949 L741 551 L460 152 L607 152 L923 541 L923 560 L607 949 Z " />
<glyph glyph-name="onequarter" unicode="&#xbc;" horiz-adv-x="1455" d="M1532 301 L1413 301 L1413 789 L1249 789 L840 273 L847 169 L1253 169 L1253 0 L1413 0 L1413 169 L1532 169 L1532 301 Z M1102 1323 L337 185 L445 118 L1210 1256 L1102 1323 Z M343 664 L502 664 L502 1453 L484 1453 L109 1336 L109 1206 L343 1263 L343 664 Z M1001 301 L1232 558 L1253 592 L1253 301 L1001 301 Z " />
<glyph glyph-name="onehalf" unicode="&#xbd;" horiz-adv-x="1548" d="M1155 130 L1347 277 C1475 376 1555 457 1555 563 C1555 709 1440 800 1251 800 C1051 800 931 682 931 538 L1091 538 C1091 614 1144 670 1255 670 C1345 670 1395 625 1395 561 C1395 518 1359 463 1262 379 L951 110 L952 0 L1590 0 L1590 130 L1155 130 Z M833 1315 L487 800 L487 1453 L469 1453 L94 1336 L94 1206 L328 1263 L328 664 L395 664 L68 177 L176 110 L941 1248 L833 1315 Z " />
<glyph glyph-name="threequarters" unicode="&#xbe;" horiz-adv-x="1541" d="M1542 301 L1423 301 L1423 789 L1259 789 L850 273 L857 169 L1263 169 L1263 0 L1423 0 L1423 169 L1542 169 L1542 301 Z M941 1248 L833 1315 L754 1198 C759 1212 761 1227 761 1242 C761 1389 634 1467 448 1467 C277 1467 141 1382 141 1246 L301 1246 C301 1302 365 1337 451 1337 C555 1337 601 1293 601 1235 C601 1172 546 1127 436 1127 L347 1127 L347 1010 L436 1010 C510 1010 566 995 595 961 L478 787 C471 786 463 786 455 786 C355 786 289 831 289 890 L129 890 C129 746 253 674 392 659 L68 177 L176 110 L549 665 C683 690 776 768 776 887 C776 919 770 948 756 973 L941 1248 Z M1011 301 L1242 558 L1263 592 L1263 301 L1011 301 Z M615 1072 C651 1085 680 1102 704 1122 L660 1057 C646 1063 631 1068 615 1072 L615 1072 Z " />
<glyph glyph-name="questiondown" unicode="&#xbf;" horiz-adv-x="1052" d="M637 680 L448 680 C448 582 431 499 350 431 C216 314 85 176 85 -6 C85 -246 246 -386 522 -386 C768 -386 958 -247 960 -20 L769 -20 C768 -158 655 -222 521 -222 C364 -222 277 -144 277 0 C277 137 366 205 460 297 C595 428 635 487 637 680 L637 680 Z M535 889 C609 889 650 936 650 996 C650 1055 609 1102 535 1102 C461 1102 420 1055 420 996 C420 936 461 889 535 889 L535 889 Z " />
<glyph glyph-name="Agrave" unicode="&#xc0;" horiz-adv-x="1439" d="M1200 0 L1405 0 L809 1456 L631 1456 L36 0 L241 0 L389 380 L1051 380 L1200 0 Z M829 1553 L615 1847 L385 1847 L662 1553 L829 1553 Z M452 540 L720 1228 L989 540 L452 540 Z " />
<glyph glyph-name="Aacute" unicode="&#xc1;" horiz-adv-x="1439" d="M1200 0 L1405 0 L809 1456 L631 1456 L36 0 L241 0 L389 380 L1051 380 L1200 0 Z M1061 1847 L831 1847 L617 1553 L775 1553 L1061 1847 Z M452 540 L720 1228 L989 540 L452 540 Z " />
<glyph glyph-name="Acircumflex" unicode="&#xc2;" horiz-adv-x="1439" d="M1200 0 L1405 0 L809 1456 L631 1456 L36 0 L241 0 L389 380 L1051 380 L1200 0 Z M723 1732 L889 1564 L1050 1564 L1050 1574 L781 1848 L665 1848 L399 1575 L399 1564 L557 1564 L723 1732 Z M452 540 L720 1228 L989 540 L452 540 Z " />
<glyph glyph-name="Atilde" unicode="&#xc3;" horiz-adv-x="1439" d="M1200 0 L1405 0 L809 1456 L631 1456 L36 0 L241 0 L389 380 L1051 380 L1200 0 Z M585 1666 C704 1666 729 1572 876 1572 C1003 1572 1104 1668 1104 1815 L975 1827 C975 1764 927 1715 866 1715 C752 1715 700 1810 574 1810 C446 1810 348 1708 348 1561 L476 1555 C476 1617 523 1666 585 1666 L585 1666 Z M452 540 L720 1228 L989 540 L452 540 Z " />
<glyph glyph-name="Adieresis" unicode="&#xc4;" horiz-adv-x="1439" d="M1200 0 L1405 0 L809 1456 L631 1456 L36 0 L241 0 L389 380 L1051 380 L1200 0 Z M478 1576 C551 1576 593 1622 593 1681 C593 1741 551 1789 478 1789 C404 1789 363 1741 363 1681 C363 1622 404 1576 478 1576 L478 1576 Z M962 1574 C1036 1574 1078 1620 1078 1679 C1078 1739 1036 1787 962 1787 C889 1787 848 1739 848 1679 C848 1620 889 1574 962 1574 L962 1574 Z M452 540 L720 1228 L989 540 L452 540 Z " />
<glyph glyph-name="Aring" unicode="&#xc5;" horiz-adv-x="1439" d="M1200 0 L1405 0 L809 1456 L631 1456 L36 0 L241 0 L389 380 L1051 380 L1200 0 Z M724 1527 C855 1527 955 1615 955 1731 C955 1847 855 1940 724 1940 C592 1940 493 1847 493 1731 C493 1615 592 1527 724 1527 L724 1527 Z M452 540 L720 1228 L989 540 L452 540 Z M724 1850 C800 1850 851 1794 851 1731 C851 1671 800 1616 724 1616 C649 1616 596 1673 596 1731 C596 1794 649 1850 724 1850 L724 1850 Z " />
<glyph glyph-name="AE" unicode="&#xc6;" horiz-adv-x="2061" d="M1263 154 L1239 681 L1860 681 L1860 835 L1232 835 L1211 1302 L1947 1302 L1947 1456 L940 1456 L0 0 L233 0 L454 352 L1062 352 L1078 0 L2014 0 L2014 154 L1263 154 Z M565 529 L1022 1258 L1054 529 L565 529 Z " />
<glyph glyph-name="Ccedilla" unicode="&#xc7;" horiz-adv-x="1448" d="M745 139 C467 139 336 363 336 640 L336 818 C336 1117 484 1316 760 1316 C1006 1316 1110 1197 1139 988 L1338 988 C1307 1282 1113 1476 760 1476 C376 1476 137 1216 137 816 L137 640 C137 266 345 16 671 -16 L641 -145 C762 -154 816 -173 816 -239 C816 -309 732 -337 633 -337 L640 -445 C854 -445 968 -361 968 -235 C968 -120 885 -75 801 -62 L811 -18 C1137 5 1309 199 1338 463 L1139 463 C1106 253 1007 139 745 139 L745 139 Z " />
<glyph glyph-name="Egrave" unicode="&#xc8;" horiz-adv-x="1264" d="M388 159 L388 672 L1074 672 L1074 831 L388 831 L388 1296 L1174 1296 L1174 1456 L189 1456 L189 0 L1183 0 L1183 159 L388 159 Z M780 1564 L566 1858 L336 1858 L613 1564 L780 1564 Z " />
<glyph glyph-name="Eacute" unicode="&#xc9;" horiz-adv-x="1264" d="M388 159 L388 672 L1074 672 L1074 831 L388 831 L388 1296 L1174 1296 L1174 1456 L189 1456 L189 0 L1183 0 L1183 159 L388 159 Z M1012 1858 L782 1858 L568 1564 L726 1564 L1012 1858 Z " />
<glyph glyph-name="Ecircumflex" unicode="&#xca;" horiz-adv-x="1264" d="M388 159 L388 672 L1074 672 L1074 831 L388 831 L388 1296 L1174 1296 L1174 1456 L189 1456 L189 0 L1183 0 L1183 159 L388 159 Z M674 1743 L840 1575 L1001 1575 L1001 1585 L732 1859 L616 1859 L350 1586 L350 1575 L508 1575 L674 1743 Z " />
<glyph glyph-name="Edieresis" unicode="&#xcb;" horiz-adv-x="1264" d="M388 159 L388 672 L1074 672 L1074 831 L388 831 L388 1296 L1174 1296 L1174 1456 L189 1456 L189 0 L1183 0 L1183 159 L388 159 Z M429 1587 C502 1587 544 1633 544 1692 C544 1752 502 1800 429 1800 C355 1800 314 1752 314 1692 C314 1633 355 1587 429 1587 L429 1587 Z M913 1585 C987 1585 1029 1631 1029 1690 C1029 1750 987 1798 913 1798 C840 1798 799 1750 799 1690 C799 1631 840 1585 913 1585 L913 1585 Z " />
<glyph glyph-name="Igrave" unicode="&#xcc;" horiz-adv-x="613" d="M407 0 L407 1456 L208 1456 L208 0 L407 0 Z M413 1564 L199 1858 L-31 1858 L246 1564 L413 1564 Z " />
<glyph glyph-name="Iacute" unicode="&#xcd;" horiz-adv-x="613" d="M407 0 L407 1456 L208 1456 L208 0 L407 0 Z M415 1858 L201 1564 L359 1564 L645 1858 L415 1858 Z " />
<glyph glyph-name="Icircumflex" unicode="&#xce;" horiz-adv-x="613" d="M407 0 L407 1456 L208 1456 L208 0 L407 0 Z M634 1585 L365 1859 L249 1859 L-17 1586 L-17 1575 L141 1575 L307 1743 L473 1575 L634 1575 L634 1585 Z " />
<glyph glyph-name="Idieresis" unicode="&#xcf;" horiz-adv-x="613" d="M407 0 L407 1456 L208 1456 L208 0 L407 0 Z M62 1800 C-12 1800 -53 1752 -53 1692 C-53 1633 -12 1587 62 1587 C135 1587 177 1633 177 1692 C177 1752 135 1800 62 1800 L62 1800 Z M546 1798 C473 1798 432 1750 432 1690 C432 1631 473 1585 546 1585 C620 1585 662 1631 662 1690 C662 1750 620 1798 546 1798 L546 1798 Z " />
<glyph glyph-name="Eth" unicode="&#xd0;" horiz-adv-x="1456" d="M633 1456 L189 1456 L189 818 L17 818 L17 665 L189 665 L189 0 L618 0 C1044 0 1319 249 1319 665 L1319 790 C1319 1206 1041 1456 633 1456 L633 1456 Z M1122 665 C1122 352 949 159 618 159 L388 159 L388 665 L702 665 L702 818 L388 818 L388 1296 L633 1296 C943 1296 1122 1119 1122 792 L1122 665 Z " />
<glyph glyph-name="Ntilde" unicode="&#xd1;" horiz-adv-x="1581" d="M1390 0 L1390 1456 L1193 1456 L1193 309 L394 1456 L189 1456 L189 0 L388 0 L388 1144 L1184 0 L1390 0 Z M1168 1815 L1039 1827 C1039 1764 991 1715 930 1715 C816 1715 764 1810 638 1810 C510 1810 412 1708 412 1561 L540 1555 C540 1617 587 1666 649 1666 C768 1666 793 1572 940 1572 C1067 1572 1168 1668 1168 1815 L1168 1815 Z " />
<glyph glyph-name="Ograve" unicode="&#xd2;" horiz-adv-x="1523" d="M1388 663 L1388 792 C1388 1223 1141 1476 761 1476 C389 1476 135 1223 135 792 L135 663 C135 232 391 -20 763 -20 C1143 -20 1388 232 1388 663 L1388 663 Z M868 1554 L654 1848 L424 1848 L701 1554 L868 1554 Z M1191 794 L1191 663 C1191 321 1037 146 763 146 C500 146 332 321 332 663 L332 794 C332 1134 498 1309 761 1309 C1033 1309 1191 1134 1191 794 L1191 794 Z " />
<glyph glyph-name="Oacute" unicode="&#xd3;" horiz-adv-x="1523" d="M1388 663 L1388 792 C1388 1223 1141 1476 761 1476 C389 1476 135 1223 135 792 L135 663 C135 232 391 -20 763 -20 C1143 -20 1388 232 1388 663 L1388 663 Z M870 1848 L656 1554 L814 1554 L1100 1848 L870 1848 Z M1191 794 L1191 663 C1191 321 1037 146 763 146 C500 146 332 321 332 663 L332 794 C332 1134 498 1309 761 1309 C1033 1309 1191 1134 1191 794 L1191 794 Z " />
<glyph glyph-name="Ocircumflex" unicode="&#xd4;" horiz-adv-x="1523" d="M1388 663 L1388 792 C1388 1223 1141 1476 761 1476 C389 1476 135 1223 135 792 L135 663 C135 232 391 -20 763 -20 C1143 -20 1388 232 1388 663 L1388 663 Z M1089 1575 L820 1849 L704 1849 L438 1576 L438 1565 L596 1565 L762 1733 L928 1565 L1089 1565 L1089 1575 Z M1191 794 L1191 663 C1191 321 1037 146 763 146 C500 146 332 321 332 663 L332 794 C332 1134 498 1309 761 1309 C1033 1309 1191 1134 1191 794 L1191 794 Z " />
<glyph glyph-name="Otilde" unicode="&#xd5;" horiz-adv-x="1523" d="M1388 663 L1388 792 C1388 1223 1141 1476 761 1476 C389 1476 135 1223 135 792 L135 663 C135 232 391 -20 763 -20 C1143 -20 1388 232 1388 663 L1388 663 Z M1143 1816 L1014 1828 C1014 1765 966 1716 905 1716 C791 1716 739 1811 613 1811 C485 1811 387 1709 387 1562 L515 1556 C515 1618 562 1667 624 1667 C743 1667 768 1573 915 1573 C1042 1573 1143 1669 1143 1816 L1143 1816 Z M1191 794 L1191 663 C1191 321 1037 146 763 146 C500 146 332 321 332 663 L332 794 C332 1134 498 1309 761 1309 C1033 1309 1191 1134 1191 794 L1191 794 Z " />
<glyph glyph-name="Odieresis" unicode="&#xd6;" horiz-adv-x="1523" d="M1388 663 L1388 792 C1388 1223 1141 1476 761 1476 C389 1476 135 1223 135 792 L135 663 C135 232 391 -20 763 -20 C1143 -20 1388 232 1388 663 L1388 663 Z M517 1790 C443 1790 402 1742 402 1682 C402 1623 443 1577 517 1577 C590 1577 632 1623 632 1682 C632 1742 590 1790 517 1790 L517 1790 Z M1001 1788 C928 1788 887 1740 887 1680 C887 1621 928 1575 1001 1575 C1075 1575 1117 1621 1117 1680 C1117 1740 1075 1788 1001 1788 L1001 1788 Z M1191 794 L1191 663 C1191 321 1037 146 763 146 C500 146 332 321 332 663 L332 794 C332 1134 498 1309 761 1309 C1033 1309 1191 1134 1191 794 L1191 794 Z " />
<glyph glyph-name="multiply" unicode="&#xd7;" horiz-adv-x="1182" d="M1067 336 L711 673 L1062 1005 L939 1130 L584 794 L229 1130 L107 1005 L457 673 L101 336 L223 211 L584 553 L945 211 L1067 336 Z " />
<glyph glyph-name="Oslash" unicode="&#xd8;" horiz-adv-x="1370" d="M1405 1517 L1259 1517 L1152 1357 C1049 1435 918 1476 764 1476 C392 1476 138 1223 138 792 L138 663 C138 432 211 253 337 136 L183 -94 L331 -94 L435 63 C529 8 641 -20 766 -20 C1146 -20 1391 232 1391 663 L1391 792 C1391 993 1337 1155 1241 1271 L1405 1517 Z M335 663 L335 794 C335 1134 501 1309 764 1309 C884 1309 981 1275 1053 1208 L440 291 C373 377 335 501 335 663 L335 663 Z M1194 794 L1194 663 C1194 321 1040 146 766 146 C676 146 597 167 532 207 L1130 1105 C1172 1025 1194 921 1194 794 L1194 794 Z " />
<glyph glyph-name="Ugrave" unicode="&#xd9;" horiz-adv-x="1448" d="M1293 1456 L1094 1456 L1094 461 C1094 234 946 139 726 139 C507 139 357 234 357 461 L357 1456 L160 1456 L160 461 C160 133 406 -20 726 -20 C1032 -20 1293 133 1293 461 L1293 1456 Z M834 1553 L620 1847 L390 1847 L667 1553 L834 1553 Z " />
<glyph glyph-name="Uacute" unicode="&#xda;" horiz-adv-x="1448" d="M1293 1456 L1094 1456 L1094 461 C1094 234 946 139 726 139 C507 139 357 234 357 461 L357 1456 L160 1456 L160 461 C160 133 406 -20 726 -20 C1032 -20 1293 133 1293 461 L1293 1456 Z M836 1847 L622 1553 L780 1553 L1066 1847 L836 1847 Z " />
<glyph glyph-name="Ucircumflex" unicode="&#xdb;" horiz-adv-x="1448" d="M1293 1456 L1094 1456 L1094 461 C1094 234 946 139 726 139 C507 139 357 234 357 461 L357 1456 L160 1456 L160 461 C160 133 406 -20 726 -20 C1032 -20 1293 133 1293 461 L1293 1456 Z M1055 1574 L786 1848 L670 1848 L404 1575 L404 1564 L562 1564 L728 1732 L894 1564 L1055 1564 L1055 1574 Z " />
<glyph glyph-name="Udieresis" unicode="&#xdc;" horiz-adv-x="1448" d="M1293 1456 L1094 1456 L1094 461 C1094 234 946 139 726 139 C507 139 357 234 357 461 L357 1456 L160 1456 L160 461 C160 133 406 -20 726 -20 C1032 -20 1293 133 1293 461 L1293 1456 Z M483 1789 C409 1789 368 1741 368 1681 C368 1622 409 1576 483 1576 C556 1576 598 1622 598 1681 C598 1741 556 1789 483 1789 L483 1789 Z M967 1787 C894 1787 853 1739 853 1679 C853 1620 894 1574 967 1574 C1041 1574 1083 1620 1083 1679 C1083 1739 1041 1787 967 1787 L967 1787 Z " />
<glyph glyph-name="Yacute" unicode="&#xdd;" horiz-adv-x="1338" d="M668 728 L250 1456 L23 1456 L568 544 L568 0 L767 0 L767 544 L1311 1456 L1086 1456 L668 728 Z M779 1846 L565 1552 L723 1552 L1009 1846 L779 1846 Z " />
<glyph glyph-name="Thorn" unicode="&#xde;" horiz-adv-x="1318" d="M684 1164 L378 1164 L378 1456 L187 1456 L187 0 L378 0 L378 313 L684 313 C1023 313 1208 494 1208 738 C1208 983 1023 1164 684 1164 L684 1164 Z M684 467 L378 467 L378 1010 L684 1010 C921 1010 1016 875 1016 736 C1016 601 921 467 684 467 L684 467 Z " />
<glyph glyph-name="germandbls" unicode="&#xdf;" horiz-adv-x="1325" d="M350 0 L350 1111 C350 1310 439 1401 589 1401 C707 1401 799 1333 799 1200 C799 1047 655 982 655 822 C655 550 1031 496 1031 308 C1031 211 955 134 786 134 C685 134 577 180 527 209 L483 52 C538 15 687 -20 805 -20 C1043 -20 1222 88 1222 318 C1222 576 846 637 846 820 C846 955 981 1001 981 1216 C981 1449 808 1555 581 1555 C327 1555 160 1405 160 1111 L160 0 L350 0 Z " />
<glyph glyph-name="agrave" unicode="&#xe0;" horiz-adv-x="1205" d="M1038 237 L1038 747 C1038 989 858 1102 604 1102 C325 1102 143 937 143 782 L334 782 C334 872 439 951 595 951 C760 951 846 876 846 749 L846 658 L646 658 C318 658 118 529 118 300 C118 114 273 -20 507 -20 C660 -20 776 46 850 122 C855 76 865 29 879 0 L1078 0 L1078 17 C1051 75 1038 165 1038 237 L1038 237 Z M735 1242 L521 1536 L291 1536 L568 1242 L735 1242 Z M536 144 C389 144 309 216 309 326 C309 458 441 525 673 525 L846 525 L846 305 C801 226 687 144 536 144 L536 144 Z " />
<glyph glyph-name="aacute" unicode="&#xe1;" horiz-adv-x="1205" d="M1038 237 L1038 747 C1038 989 858 1102 604 1102 C325 1102 143 937 143 782 L334 782 C334 872 439 951 595 951 C760 951 846 876 846 749 L846 658 L646 658 C318 658 118 529 118 300 C118 114 273 -20 507 -20 C660 -20 776 46 850 122 C855 76 865 29 879 0 L1078 0 L1078 17 C1051 75 1038 165 1038 237 L1038 237 Z M967 1536 L737 1536 L523 1242 L681 1242 L967 1536 Z M536 144 C389 144 309 216 309 326 C309 458 441 525 673 525 L846 525 L846 305 C801 226 687 144 536 144 L536 144 Z " />
<glyph glyph-name="acircumflex" unicode="&#xe2;" horiz-adv-x="1205" d="M1038 237 L1038 747 C1038 989 858 1102 604 1102 C325 1102 143 937 143 782 L334 782 C334 872 439 951 595 951 C760 951 846 876 846 749 L846 658 L646 658 C318 658 118 529 118 300 C118 114 273 -20 507 -20 C660 -20 776 46 850 122 C855 76 865 29 879 0 L1078 0 L1078 17 C1051 75 1038 165 1038 237 L1038 237 Z M629 1421 L795 1253 L956 1253 L956 1263 L687 1537 L571 1537 L305 1264 L305 1253 L463 1253 L629 1421 Z M536 144 C389 144 309 216 309 326 C309 458 441 525 673 525 L846 525 L846 305 C801 226 687 144 536 144 L536 144 Z " />
<glyph glyph-name="atilde" unicode="&#xe3;" horiz-adv-x="1205" d="M1038 237 L1038 747 C1038 989 858 1102 604 1102 C325 1102 143 937 143 782 L334 782 C334 872 439 951 595 951 C760 951 846 876 846 749 L846 658 L646 658 C318 658 118 529 118 300 C118 114 273 -20 507 -20 C660 -20 776 46 850 122 C855 76 865 29 879 0 L1078 0 L1078 17 C1051 75 1038 165 1038 237 L1038 237 Z M491 1355 C610 1355 635 1261 782 1261 C909 1261 1010 1357 1010 1504 L881 1516 C881 1453 833 1404 772 1404 C658 1404 606 1499 480 1499 C352 1499 254 1397 254 1250 L382 1244 C382 1306 429 1355 491 1355 L491 1355 Z M536 144 C389 144 309 216 309 326 C309 458 441 525 673 525 L846 525 L846 305 C801 226 687 144 536 144 L536 144 Z " />
<glyph glyph-name="adieresis" unicode="&#xe4;" horiz-adv-x="1205" d="M1038 237 L1038 747 C1038 989 858 1102 604 1102 C325 1102 143 937 143 782 L334 782 C334 872 439 951 595 951 C760 951 846 876 846 749 L846 658 L646 658 C318 658 118 529 118 300 C118 114 273 -20 507 -20 C660 -20 776 46 850 122 C855 76 865 29 879 0 L1078 0 L1078 17 C1051 75 1038 165 1038 237 L1038 237 Z M384 1265 C457 1265 499 1311 499 1370 C499 1430 457 1478 384 1478 C310 1478 269 1430 269 1370 C269 1311 310 1265 384 1265 L384 1265 Z M868 1263 C942 1263 984 1309 984 1368 C984 1428 942 1476 868 1476 C795 1476 754 1428 754 1368 C754 1309 795 1263 868 1263 L868 1263 Z M536 144 C389 144 309 216 309 326 C309 458 441 525 673 525 L846 525 L846 305 C801 226 687 144 536 144 L536 144 Z " />
<glyph glyph-name="aring" unicode="&#xe5;" horiz-adv-x="1205" d="M1038 237 L1038 747 C1038 989 858 1102 604 1102 C325 1102 143 937 143 782 L334 782 C334 872 439 951 595 951 C760 951 846 876 846 749 L846 658 L646 658 C318 658 118 529 118 300 C118 114 273 -20 507 -20 C660 -20 776 46 850 122 C855 76 865 29 879 0 L1078 0 L1078 17 C1051 75 1038 165 1038 237 L1038 237 Z M630 1216 C761 1216 861 1304 861 1420 C861 1536 761 1629 630 1629 C498 1629 399 1536 399 1420 C399 1304 498 1216 630 1216 L630 1216 Z M536 144 C389 144 309 216 309 326 C309 458 441 525 673 525 L846 525 L846 305 C801 226 687 144 536 144 L536 144 Z M630 1539 C706 1539 757 1483 757 1420 C757 1360 706 1305 630 1305 C555 1305 502 1362 502 1420 C502 1483 555 1539 630 1539 L630 1539 Z " />
<glyph glyph-name="ae" unicode="&#xe6;" horiz-adv-x="1874" d="M1794 615 C1794 914 1627 1102 1322 1102 C1169 1102 1039 1039 950 932 C881 1045 750 1102 583 1102 C307 1102 123 965 123 778 L312 760 C312 861 417 948 583 948 C737 948 819 861 819 720 L819 636 L575 636 C258 636 92 515 92 305 C92 108 229 -21 477 -21 C718 -21 869 73 939 162 C1030 48 1173 -21 1364 -21 C1590 -21 1720 67 1772 101 L1707 239 C1633 195 1534 133 1366 133 C1126 133 1018 294 1009 496 L1794 496 L1794 615 Z M513 133 C358 133 283 207 283 301 C283 403 382 494 577 494 L819 494 L819 267 C755 199 628 133 513 133 L513 133 Z M1603 641 L1014 641 C1038 817 1146 948 1322 948 C1524 948 1603 821 1603 672 L1603 641 Z " />
<glyph glyph-name="ccedilla" unicode="&#xe7;" horiz-adv-x="1161" d="M618 134 C371 134 295 316 295 510 L295 572 C295 764 372 948 618 948 C779 948 889 848 899 710 L1080 710 C1070 938 886 1102 618 1102 C274 1102 104 868 104 572 L104 510 C104 245 240 29 517 -13 L486 -145 C607 -154 661 -173 661 -239 C661 -309 577 -337 478 -337 L485 -445 C699 -445 813 -361 813 -235 C813 -120 730 -75 646 -62 L656 -19 C884 -3 1071 154 1080 342 L899 342 C888 215 763 134 618 134 L618 134 Z " />
<glyph glyph-name="egrave" unicode="&#xe8;" horiz-adv-x="1176" d="M1091 576 C1091 886 938 1102 613 1102 C344 1102 104 916 104 555 L104 493 C104 182 316 -20 639 -20 C864 -20 997 78 1072 178 L961 273 C886 190 788 134 649 134 C432 134 298 279 295 487 L1091 487 L1091 576 Z M719 1242 L505 1536 L275 1536 L552 1242 L719 1242 Z M899 640 L300 640 C325 849 444 948 613 948 C816 948 892 806 899 658 L899 640 Z " />
<glyph glyph-name="eacute" unicode="&#xe9;" horiz-adv-x="1176" d="M1091 576 C1091 886 938 1102 613 1102 C344 1102 104 916 104 555 L104 493 C104 182 316 -20 639 -20 C864 -20 997 78 1072 178 L961 273 C886 190 788 134 649 134 C432 134 298 279 295 487 L1091 487 L1091 576 Z M951 1536 L721 1536 L507 1242 L665 1242 L951 1536 Z M899 640 L300 640 C325 849 444 948 613 948 C816 948 892 806 899 658 L899 640 Z " />
<glyph glyph-name="ecircumflex" unicode="&#xea;" horiz-adv-x="1176" d="M1091 576 C1091 886 938 1102 613 1102 C344 1102 104 916 104 555 L104 493 C104 182 316 -20 639 -20 C864 -20 997 78 1072 178 L961 273 C886 190 788 134 649 134 C432 134 298 279 295 487 L1091 487 L1091 576 Z M613 1421 L779 1253 L940 1253 L940 1263 L671 1537 L555 1537 L289 1264 L289 1253 L447 1253 L613 1421 Z M899 640 L300 640 C325 849 444 948 613 948 C816 948 892 806 899 658 L899 640 Z " />
<glyph glyph-name="edieresis" unicode="&#xeb;" horiz-adv-x="1176" d="M1091 576 C1091 886 938 1102 613 1102 C344 1102 104 916 104 555 L104 493 C104 182 316 -20 639 -20 C864 -20 997 78 1072 178 L961 273 C886 190 788 134 649 134 C432 134 298 279 295 487 L1091 487 L1091 576 Z M368 1265 C441 1265 483 1311 483 1370 C483 1430 441 1478 368 1478 C294 1478 253 1430 253 1370 C253 1311 294 1265 368 1265 L368 1265 Z M852 1263 C926 1263 968 1309 968 1368 C968 1428 926 1476 852 1476 C779 1476 738 1428 738 1368 C738 1309 779 1263 852 1263 L852 1263 Z M899 640 L300 640 C325 849 444 948 613 948 C816 948 892 806 899 658 L899 640 Z " />
<glyph glyph-name="igrave" unicode="&#xec;" horiz-adv-x="549" d="M366 0 L366 1082 L175 1082 L175 0 L366 0 Z M381 1241 L167 1535 L-63 1535 L214 1241 L381 1241 Z " />
<glyph glyph-name="iacute" unicode="&#xed;" horiz-adv-x="549" d="M366 0 L366 1082 L175 1082 L175 0 L366 0 Z M383 1535 L169 1241 L327 1241 L613 1535 L383 1535 Z " />
<glyph glyph-name="icircumflex" unicode="&#xee;" horiz-adv-x="549" d="M366 0 L366 1082 L175 1082 L175 0 L366 0 Z M602 1262 L333 1536 L217 1536 L-49 1263 L-49 1252 L109 1252 L275 1420 L441 1252 L602 1252 L602 1262 Z " />
<glyph glyph-name="idieresis" unicode="&#xef;" horiz-adv-x="549" d="M366 0 L366 1082 L175 1082 L175 0 L366 0 Z M30 1477 C-44 1477 -85 1429 -85 1369 C-85 1310 -44 1264 30 1264 C103 1264 145 1310 145 1369 C145 1429 103 1477 30 1477 L30 1477 Z M514 1475 C441 1475 400 1427 400 1367 C400 1308 441 1262 514 1262 C588 1262 630 1308 630 1367 C630 1427 588 1475 514 1475 L514 1475 Z " />
<glyph glyph-name="eth" unicode="&#xf0;" horiz-adv-x="1300" d="M893 1303 L1070 1417 L997 1517 L795 1388 C672 1480 521 1546 349 1581 L290 1419 C412 1390 528 1345 628 1280 L425 1150 L497 1049 L732 1200 C828 1113 901 1001 938 860 C859 931 748 979 624 979 C343 979 144 776 144 468 C144 196 354 -20 656 -20 C945 -20 1156 206 1156 535 L1156 634 C1156 909 1060 1137 893 1303 L893 1303 Z M965 535 C965 306 849 134 661 134 C452 134 336 305 336 468 C336 687 453 825 668 825 C823 825 921 762 963 693 C964 675 965 655 965 636 L965 535 Z " />
<glyph glyph-name="ntilde" unicode="&#xf1;" horiz-adv-x="1229" d="M701 1102 C552 1102 429 1038 346 933 L340 1082 L159 1082 L159 0 L350 0 L350 764 C404 871 506 944 642 944 C795 944 881 878 881 711 L881 0 L1073 0 L1073 709 C1073 993 930 1102 701 1102 L701 1102 Z M485 1355 C604 1355 629 1261 776 1261 C903 1261 1004 1357 1004 1504 L875 1516 C875 1453 827 1404 766 1404 C652 1404 600 1499 474 1499 C346 1499 248 1397 248 1250 L376 1244 C376 1306 423 1355 485 1355 L485 1355 Z " />
<glyph glyph-name="ograve" unicode="&#xf2;" horiz-adv-x="1264" d="M103 562 L103 519 C103 201 310 -20 633 -20 C955 -20 1160 201 1160 519 L1160 562 C1160 880 955 1102 630 1102 C310 1102 103 880 103 562 L103 562 Z M730 1242 L516 1536 L286 1536 L563 1242 L730 1242 Z M295 519 L295 562 C295 778 411 948 630 948 C852 948 969 778 969 562 L969 519 C969 301 854 134 633 134 C411 134 295 301 295 519 L295 519 Z " />
<glyph glyph-name="oacute" unicode="&#xf3;" horiz-adv-x="1264" d="M103 562 L103 519 C103 201 310 -20 633 -20 C955 -20 1160 201 1160 519 L1160 562 C1160 880 955 1102 630 1102 C310 1102 103 880 103 562 L103 562 Z M732 1536 L518 1242 L676 1242 L962 1536 L732 1536 Z M295 519 L295 562 C295 778 411 948 630 948 C852 948 969 778 969 562 L969 519 C969 301 854 134 633 134 C411 134 295 301 295 519 L295 519 Z " />
<glyph glyph-name="ocircumflex" unicode="&#xf4;" horiz-adv-x="1264" d="M103 562 L103 519 C103 201 310 -20 633 -20 C955 -20 1160 201 1160 519 L1160 562 C1160 880 955 1102 630 1102 C310 1102 103 880 103 562 L103 562 Z M951 1263 L682 1537 L566 1537 L300 1264 L300 1253 L458 1253 L624 1421 L790 1253 L951 1253 L951 1263 Z M295 519 L295 562 C295 778 411 948 630 948 C852 948 969 778 969 562 L969 519 C969 301 854 134 633 134 C411 134 295 301 295 519 L295 519 Z " />
<glyph glyph-name="otilde" unicode="&#xf5;" horiz-adv-x="1264" d="M103 562 L103 519 C103 201 310 -20 633 -20 C955 -20 1160 201 1160 519 L1160 562 C1160 880 955 1102 630 1102 C310 1102 103 880 103 562 L103 562 Z M1005 1504 L876 1516 C876 1453 828 1404 767 1404 C653 1404 601 1499 475 1499 C347 1499 249 1397 249 1250 L377 1244 C377 1306 424 1355 486 1355 C605 1355 630 1261 777 1261 C904 1261 1005 1357 1005 1504 L1005 1504 Z M295 519 L295 562 C295 778 411 948 630 948 C852 948 969 778 969 562 L969 519 C969 301 854 134 633 134 C411 134 295 301 295 519 L295 519 Z " />
<glyph glyph-name="odieresis" unicode="&#xf6;" horiz-adv-x="1264" d="M103 562 L103 519 C103 201 310 -20 633 -20 C955 -20 1160 201 1160 519 L1160 562 C1160 880 955 1102 630 1102 C310 1102 103 880 103 562 L103 562 Z M379 1478 C305 1478 264 1430 264 1370 C264 1311 305 1265 379 1265 C452 1265 494 1311 494 1370 C494 1430 452 1478 379 1478 L379 1478 Z M863 1476 C790 1476 749 1428 749 1368 C749 1309 790 1263 863 1263 C937 1263 979 1309 979 1368 C979 1428 937 1476 863 1476 L863 1476 Z M295 519 L295 562 C295 778 411 948 630 948 C852 948 969 778 969 562 L969 519 C969 301 854 134 633 134 C411 134 295 301 295 519 L295 519 Z " />
<glyph glyph-name="divide" unicode="&#xf7;" horiz-adv-x="1270" d="M628 395 C550 395 508 345 508 281 C508 219 550 171 628 171 C705 171 748 219 748 281 C748 345 705 395 628 395 L628 395 Z M1159 599 L1159 785 L82 785 L82 599 L1159 599 Z M628 1212 C550 1212 508 1163 508 1099 C508 1037 550 988 628 988 C705 988 748 1037 748 1099 C748 1163 705 1212 628 1212 L628 1212 Z " />
<glyph glyph-name="oslash" unicode="&#xf8;" horiz-adv-x="1130" d="M952 1008 L1059 1209 L931 1209 L853 1062 C788 1088 714 1102 632 1102 C312 1102 105 880 105 562 L105 519 C105 321 186 160 324 67 L217 -135 L345 -135 L425 16 C488 -7 558 -20 635 -20 C957 -20 1162 201 1162 519 L1162 562 C1162 756 1086 914 952 1008 L952 1008 Z M297 519 L297 562 C297 778 413 948 632 948 C687 948 735 938 777 919 L406 220 C334 290 297 396 297 519 L297 519 Z M971 519 C971 301 856 134 635 134 C585 134 540 143 501 158 L870 853 C937 783 971 679 971 562 L971 519 Z " />
<glyph glyph-name="ugrave" unicode="&#xf9;" horiz-adv-x="1228" d="M878 1082 L878 302 C832 204 737 139 569 139 C453 139 346 188 346 382 L346 1082 L154 1082 L154 384 C154 96 309 -20 537 -20 C698 -20 811 31 883 117 L888 0 L1070 0 L1070 1082 L878 1082 Z M725 1242 L511 1536 L281 1536 L558 1242 L725 1242 Z " />
<glyph glyph-name="uacute" unicode="&#xfa;" horiz-adv-x="1228" d="M878 1082 L878 302 C832 204 737 139 569 139 C453 139 346 188 346 382 L346 1082 L154 1082 L154 384 C154 96 309 -20 537 -20 C698 -20 811 31 883 117 L888 0 L1070 0 L1070 1082 L878 1082 Z M957 1536 L727 1536 L513 1242 L671 1242 L957 1536 Z " />
<glyph glyph-name="ucircumflex" unicode="&#xfb;" horiz-adv-x="1228" d="M878 1082 L878 302 C832 204 737 139 569 139 C453 139 346 188 346 382 L346 1082 L154 1082 L154 384 C154 96 309 -20 537 -20 C698 -20 811 31 883 117 L888 0 L1070 0 L1070 1082 L878 1082 Z M619 1421 L785 1253 L946 1253 L946 1263 L677 1537 L561 1537 L295 1264 L295 1253 L453 1253 L619 1421 Z " />
<glyph glyph-name="udieresis" unicode="&#xfc;" horiz-adv-x="1228" d="M878 1082 L878 302 C832 204 737 139 569 139 C453 139 346 188 346 382 L346 1082 L154 1082 L154 384 C154 96 309 -20 537 -20 C698 -20 811 31 883 117 L888 0 L1070 0 L1070 1082 L878 1082 Z M374 1265 C447 1265 489 1311 489 1370 C489 1430 447 1478 374 1478 C300 1478 259 1430 259 1370 C259 1311 300 1265 374 1265 L374 1265 Z M858 1263 C932 1263 974 1309 974 1368 C974 1428 932 1476 858 1476 C785 1476 744 1428 744 1368 C744 1309 785 1263 858 1263 L858 1263 Z " />
<glyph glyph-name="yacute" unicode="&#xfd;" horiz-adv-x="1061" d="M824 1082 L547 266 L239 1082 L31 1082 L452 9 L409 -98 C355 -229 293 -273 158 -273 C147 -273 114 -271 101 -269 L101 -421 C124 -426 179 -437 213 -437 C426 -437 514 -274 555 -167 L1029 1082 L824 1082 Z M893 1536 L663 1536 L449 1242 L607 1242 L893 1536 Z " />
<glyph glyph-name="thorn" unicode="&#xfe;" horiz-adv-x="1273" d="M692 1102 C546 1102 436 1051 358 959 L358 1536 L167 1536 L167 -416 L358 -416 L358 116 C436 29 548 -20 695 -20 C982 -20 1145 213 1145 529 L1145 550 C1145 880 983 1102 692 1102 L692 1102 Z M953 529 C953 315 857 134 641 134 C497 134 410 199 358 288 L358 789 C408 878 495 944 638 944 C857 944 953 764 953 550 L953 529 Z " />
<glyph glyph-name="ydieresis" unicode="&#xff;" horiz-adv-x="1061" d="M824 1082 L547 266 L239 1082 L31 1082 L452 9 L409 -98 C355 -229 293 -273 158 -273 C147 -273 114 -271 101 -269 L101 -421 C124 -426 179 -437 213 -437 C426 -437 514 -274 555 -167 L1029 1082 L824 1082 Z M310 1265 C383 1265 425 1311 425 1370 C425 1430 383 1478 310 1478 C236 1478 195 1430 195 1370 C195 1311 236 1265 310 1265 L310 1265 Z M794 1263 C868 1263 910 1309 910 1368 C910 1428 868 1476 794 1476 C721 1476 680 1428 680 1368 C680 1309 721 1263 794 1263 L794 1263 Z " />
<glyph glyph-name="Amacron" unicode="&#x100;" horiz-adv-x="1439" d="M1200 0 L1405 0 L809 1456 L631 1456 L36 0 L241 0 L389 380 L1051 380 L1200 0 Z M1082 1764 L371 1764 L371 1620 L1082 1620 L1082 1764 Z M452 540 L720 1228 L989 540 L452 540 Z " />
<glyph glyph-name="amacron" unicode="&#x101;" horiz-adv-x="1205" d="M1038 237 L1038 747 C1038 989 858 1102 604 1102 C325 1102 143 937 143 782 L334 782 C334 872 439 951 595 951 C760 951 846 876 846 749 L846 658 L646 658 C318 658 118 529 118 300 C118 114 273 -20 507 -20 C660 -20 776 46 850 122 C855 76 865 29 879 0 L1078 0 L1078 17 C1051 75 1038 165 1038 237 L1038 237 Z M988 1453 L277 1453 L277 1309 L988 1309 L988 1453 Z M536 144 C389 144 309 216 309 326 C309 458 441 525 673 525 L846 525 L846 305 C801 226 687 144 536 144 L536 144 Z " />
<glyph glyph-name="Abreve" unicode="&#x102;" horiz-adv-x="1439" d="M1200 0 L1405 0 L809 1456 L631 1456 L36 0 L241 0 L389 380 L1051 380 L1200 0 Z M719 1539 C925 1539 1051 1649 1051 1806 L896 1806 C896 1728 846 1659 719 1659 C590 1659 543 1728 543 1806 L387 1806 C387 1649 514 1539 719 1539 L719 1539 Z M452 540 L720 1228 L989 540 L452 540 Z " />
<glyph glyph-name="abreve" unicode="&#x103;" horiz-adv-x="1205" d="M1038 237 L1038 747 C1038 989 858 1102 604 1102 C325 1102 143 937 143 782 L334 782 C334 872 439 951 595 951 C760 951 846 876 846 749 L846 658 L646 658 C318 658 118 529 118 300 C118 114 273 -20 507 -20 C660 -20 776 46 850 122 C855 76 865 29 879 0 L1078 0 L1078 17 C1051 75 1038 165 1038 237 L1038 237 Z M625 1228 C831 1228 957 1338 957 1495 L802 1495 C802 1417 752 1348 625 1348 C496 1348 449 1417 449 1495 L293 1495 C293 1338 420 1228 625 1228 L625 1228 Z M536 144 C389 144 309 216 309 326 C309 458 441 525 673 525 L846 525 L846 305 C801 226 687 144 536 144 L536 144 Z " />
<glyph glyph-name="Aogonek" unicode="&#x104;" horiz-adv-x="1439" d="M1266 -294 C1203 -294 1181 -266 1181 -221 C1181 -135 1271 -64 1366 0 L1405 0 L809 1456 L631 1456 L36 0 L241 0 L389 380 L1051 380 L1196 11 C1073 -65 1017 -155 1017 -243 C1017 -369 1106 -435 1220 -435 C1303 -435 1355 -411 1389 -391 L1373 -267 C1351 -278 1314 -294 1266 -294 L1266 -294 Z M452 540 L720 1228 L989 540 L452 540 Z " />
<glyph glyph-name="aogonek" unicode="&#x105;" horiz-adv-x="1205" d="M1046 0 L1078 0 L1078 17 C1051 75 1038 165 1038 237 L1038 747 C1038 989 858 1102 604 1102 C325 1102 143 937 143 782 L334 782 C334 872 439 951 595 951 C760 951 846 876 846 749 L846 658 L646 658 C318 658 118 529 118 300 C118 114 273 -20 507 -20 C660 -20 776 46 850 122 C854 81 862 39 874 10 C753 -66 697 -155 697 -243 C697 -369 786 -435 900 -435 C983 -435 1035 -411 1069 -391 L1053 -267 C1031 -278 994 -294 946 -294 C883 -294 861 -266 861 -221 C861 -135 951 -64 1046 0 L1046 0 Z M536 144 C389 144 309 216 309 326 C309 458 441 525 673 525 L846 525 L846 305 C801 226 687 144 536 144 L536 144 Z " />
<glyph glyph-name="Cacute" unicode="&#x106;" horiz-adv-x="1448" d="M1338 463 L1139 463 C1106 253 1007 139 745 139 C467 139 336 363 336 640 L336 818 C336 1117 484 1316 760 1316 C1006 1316 1110 1197 1139 988 L1338 988 C1307 1282 1113 1476 760 1476 C376 1476 137 1216 137 816 L137 640 C137 239 376 -20 745 -20 C1114 -20 1307 182 1338 463 L1338 463 Z M847 1879 L633 1585 L791 1585 L1077 1879 L847 1879 Z " />
<glyph glyph-name="cacute" unicode="&#x107;" horiz-adv-x="1161" d="M899 342 C888 215 763 134 618 134 C371 134 295 316 295 510 L295 572 C295 764 372 948 618 948 C779 948 889 848 899 710 L1080 710 C1070 938 886 1102 618 1102 C274 1102 104 868 104 572 L104 510 C104 214 273 -20 619 -20 C864 -20 1070 144 1080 342 L899 342 Z M689 1536 L475 1242 L633 1242 L919 1536 L689 1536 Z " />
<glyph glyph-name="Cdotaccent" unicode="&#x10a;" horiz-adv-x="1448" d="M1338 463 L1139 463 C1106 253 1007 139 745 139 C467 139 336 363 336 640 L336 818 C336 1117 484 1316 760 1316 C1006 1316 1110 1197 1139 988 L1338 988 C1307 1282 1113 1476 760 1476 C376 1476 137 1216 137 816 L137 640 C137 239 376 -20 745 -20 C1114 -20 1307 182 1338 463 L1338 463 Z M737 1818 C663 1818 622 1770 622 1710 C622 1651 663 1604 737 1604 C811 1604 854 1651 854 1710 C854 1770 811 1818 737 1818 L737 1818 Z " />
<glyph glyph-name="cdotaccent" unicode="&#x10b;" horiz-adv-x="1161" d="M899 342 C888 215 763 134 618 134 C371 134 295 316 295 510 L295 572 C295 764 372 948 618 948 C779 948 889 848 899 710 L1080 710 C1070 938 886 1102 618 1102 C274 1102 104 868 104 572 L104 510 C104 214 273 -20 619 -20 C864 -20 1070 144 1080 342 L899 342 Z M579 1475 C505 1475 464 1427 464 1367 C464 1308 505 1261 579 1261 C653 1261 696 1308 696 1367 C696 1427 653 1475 579 1475 L579 1475 Z " />
<glyph glyph-name="Ccaron" unicode="&#x10c;" horiz-adv-x="1448" d="M1338 463 L1139 463 C1106 253 1007 139 745 139 C467 139 336 363 336 640 L336 818 C336 1117 484 1316 760 1316 C1006 1316 1110 1197 1139 988 L1338 988 C1307 1282 1113 1476 760 1476 C376 1476 137 1216 137 816 L137 640 C137 239 376 -20 745 -20 C1114 -20 1307 182 1338 463 L1338 463 Z M739 1710 L571 1879 L408 1879 L408 1869 L678 1595 L799 1595 L1071 1869 L1071 1879 L906 1879 L739 1710 Z " />
<glyph glyph-name="ccaron" unicode="&#x10d;" horiz-adv-x="1161" d="M899 342 C888 215 763 134 618 134 C371 134 295 316 295 510 L295 572 C295 764 372 948 618 948 C779 948 889 848 899 710 L1080 710 C1070 938 886 1102 618 1102 C274 1102 104 868 104 572 L104 510 C104 214 273 -20 619 -20 C864 -20 1070 144 1080 342 L899 342 Z M581 1367 L413 1536 L250 1536 L250 1526 L520 1252 L641 1252 L913 1526 L913 1536 L748 1536 L581 1367 Z " />
<glyph glyph-name="Dcaron" unicode="&#x10e;" horiz-adv-x="1456" d="M633 1456 L189 1456 L189 0 L618 0 C1044 0 1319 249 1319 665 L1319 790 C1319 1206 1041 1456 633 1456 L633 1456 Z M712 1574 L984 1848 L984 1858 L819 1858 L652 1689 L484 1858 L321 1858 L321 1848 L591 1574 L712 1574 Z M1122 665 C1122 352 949 159 618 159 L388 159 L388 1296 L633 1296 C943 1296 1122 1119 1122 792 L1122 665 Z " />
<glyph glyph-name="dcaron" unicode="&#x10f;" horiz-adv-x="1268" d="M895 1536 L895 959 C819 1051 711 1102 566 1102 C528 1102 492 1098 458 1091 L458 1141 L281 1141 L281 1059 C281 1039 280 1020 277 1002 C170 909 109 757 109 560 L109 519 C109 197 289 -20 564 -20 C714 -20 825 33 901 128 L910 0 L1087 0 L1087 1536 L895 1536 Z M610 139 C394 139 301 299 301 519 L301 560 C301 635 312 704 335 762 C368 795 394 835 414 878 C463 920 528 944 612 944 C757 944 845 878 895 790 L895 300 C843 207 756 139 610 139 L610 139 Z " />
<glyph glyph-name="Dcroat" unicode="&#x110;" horiz-adv-x="1456" d="M633 1456 L189 1456 L189 818 L17 818 L17 665 L189 665 L189 0 L618 0 C1044 0 1319 249 1319 665 L1319 790 C1319 1206 1041 1456 633 1456 L633 1456 Z M1122 665 C1122 352 949 159 618 159 L388 159 L388 665 L702 665 L702 818 L388 818 L388 1296 L633 1296 C943 1296 1122 1119 1122 792 L1122 665 Z " />
<glyph glyph-name="dcroat" unicode="&#x111;" horiz-adv-x="1321" d="M1282 1386 L1087 1386 L1087 1536 L895 1536 L895 1386 L599 1386 L599 1232 L895 1232 L895 961 C819 1052 711 1102 567 1102 C288 1102 109 880 109 550 L109 529 C109 213 289 -20 565 -20 C714 -20 824 32 901 127 L910 0 L1087 0 L1087 1232 L1282 1232 L1282 1386 Z M610 139 C394 139 301 315 301 529 L301 550 C301 764 394 944 612 944 C757 944 845 876 895 786 L895 303 C843 208 756 139 610 139 L610 139 Z " />
<glyph glyph-name="Emacron" unicode="&#x112;" horiz-adv-x="1264" d="M388 159 L388 672 L1074 672 L1074 831 L388 831 L388 1296 L1174 1296 L1174 1456 L189 1456 L189 0 L1183 0 L1183 159 L388 159 Z M1033 1775 L322 1775 L322 1631 L1033 1631 L1033 1775 Z " />
<glyph glyph-name="emacron" unicode="&#x113;" horiz-adv-x="1176" d="M1091 576 C1091 886 938 1102 613 1102 C344 1102 104 916 104 555 L104 493 C104 182 316 -20 639 -20 C864 -20 997 78 1072 178 L961 273 C886 190 788 134 649 134 C432 134 298 279 295 487 L1091 487 L1091 576 Z M972 1453 L261 1453 L261 1309 L972 1309 L972 1453 Z M899 640 L300 640 C325 849 444 948 613 948 C816 948 892 806 899 658 L899 640 Z " />
<glyph glyph-name="Edotaccent" unicode="&#x116;" horiz-adv-x="1264" d="M388 159 L388 672 L1074 672 L1074 831 L388 831 L388 1296 L1174 1296 L1174 1456 L189 1456 L189 0 L1183 0 L1183 159 L388 159 Z M672 1583 C746 1583 789 1630 789 1689 C789 1749 746 1797 672 1797 C598 1797 557 1749 557 1689 C557 1630 598 1583 672 1583 L672 1583 Z " />
<glyph glyph-name="edotaccent" unicode="&#x117;" horiz-adv-x="1176" d="M1091 576 C1091 886 938 1102 613 1102 C344 1102 104 916 104 555 L104 493 C104 182 316 -20 639 -20 C864 -20 997 78 1072 178 L961 273 C886 190 788 134 649 134 C432 134 298 279 295 487 L1091 487 L1091 576 Z M611 1261 C685 1261 728 1308 728 1367 C728 1427 685 1475 611 1475 C537 1475 496 1427 496 1367 C496 1308 537 1261 611 1261 L611 1261 Z M899 640 L300 640 C325 849 444 948 613 948 C816 948 892 806 899 658 L899 640 Z " />
<glyph glyph-name="Eogonek" unicode="&#x118;" horiz-adv-x="1264" d="M1101 0 L1183 0 L1183 159 L388 159 L388 672 L1074 672 L1074 831 L388 831 L388 1296 L1174 1296 L1174 1456 L189 1456 L189 0 L914 0 C803 -74 752 -159 752 -243 C752 -369 841 -435 955 -435 C1038 -435 1090 -411 1124 -391 L1108 -267 C1086 -278 1049 -294 1001 -294 C938 -294 916 -266 916 -221 C916 -135 1006 -64 1101 0 L1101 0 Z " />
<glyph glyph-name="eogonek" unicode="&#x119;" horiz-adv-x="1176" d="M1091 576 C1091 886 938 1102 613 1102 C344 1102 104 916 104 555 L104 493 C104 182 316 -20 639 -20 L641 -20 C571 -82 538 -151 538 -218 C538 -344 627 -410 741 -410 C824 -410 876 -386 910 -366 L894 -242 C872 -253 835 -269 787 -269 C724 -269 702 -241 702 -196 C702 -110 792 -39 887 25 L883 28 C969 66 1030 121 1072 178 L961 273 C886 190 788 134 649 134 C432 134 298 279 295 487 L1091 487 L1091 576 Z M899 640 L300 640 C325 849 444 948 613 948 C816 948 892 806 899 658 L899 640 Z " />
<glyph glyph-name="Ecaron" unicode="&#x11a;" horiz-adv-x="1264" d="M388 159 L388 672 L1074 672 L1074 831 L388 831 L388 1296 L1174 1296 L1174 1456 L189 1456 L189 0 L1183 0 L1183 159 L388 159 Z M734 1574 L1006 1848 L1006 1858 L841 1858 L674 1689 L506 1858 L343 1858 L343 1848 L613 1574 L734 1574 Z " />
<glyph glyph-name="ecaron" unicode="&#x11b;" horiz-adv-x="1176" d="M1091 576 C1091 886 938 1102 613 1102 C344 1102 104 916 104 555 L104 493 C104 182 316 -20 639 -20 C864 -20 997 78 1072 178 L961 273 C886 190 788 134 649 134 C432 134 298 279 295 487 L1091 487 L1091 576 Z M673 1252 L945 1526 L945 1536 L780 1536 L613 1367 L445 1536 L282 1536 L282 1526 L552 1252 L673 1252 Z M899 640 L300 640 C325 849 444 948 613 948 C816 948 892 806 899 658 L899 640 Z " />
<glyph glyph-name="Gbreve" unicode="&#x11e;" horiz-adv-x="1514" d="M1347 191 L1347 727 L777 727 L777 568 L1148 568 L1148 242 C1107 203 1014 139 793 139 C520 139 342 324 342 653 L342 806 C342 1127 480 1316 770 1316 C1016 1316 1120 1192 1149 1029 L1346 1029 C1310 1293 1127 1476 768 1476 C371 1476 143 1233 143 804 L143 653 C143 223 410 -20 791 -20 C1136 -20 1287 114 1347 191 L1347 191 Z M1063 1838 L908 1838 C908 1760 858 1691 731 1691 C602 1691 555 1760 555 1838 L399 1838 C399 1681 526 1571 731 1571 C937 1571 1063 1681 1063 1838 L1063 1838 Z " />
<glyph glyph-name="gbreve" unicode="&#x11f;" horiz-adv-x="1248" d="M915 1082 L906 950 C830 1048 719 1102 568 1102 C285 1102 111 896 111 560 L111 519 C111 197 287 -20 566 -20 C713 -20 822 30 898 122 L898 5 C898 -183 779 -273 585 -273 C475 -273 365 -239 270 -136 L175 -250 C276 -382 471 -427 598 -427 C890 -427 1090 -273 1090 14 L1090 1082 L915 1082 Z M602 1228 C808 1228 934 1338 934 1495 L779 1495 C779 1417 729 1348 602 1348 C473 1348 426 1417 426 1495 L270 1495 C270 1338 397 1228 602 1228 L602 1228 Z M612 139 C396 139 302 299 302 519 L302 560 C302 780 397 944 615 944 C761 944 848 877 898 788 L898 301 C846 208 759 139 612 139 L612 139 Z " />
<glyph glyph-name="Gdotaccent" unicode="&#x120;" horiz-adv-x="1514" d="M1347 191 L1347 727 L777 727 L777 568 L1148 568 L1148 242 C1107 203 1014 139 793 139 C520 139 342 324 342 653 L342 806 C342 1127 480 1316 770 1316 C1016 1316 1120 1192 1149 1029 L1346 1029 C1310 1293 1127 1476 768 1476 C371 1476 143 1233 143 804 L143 653 C143 223 410 -20 791 -20 C1136 -20 1287 114 1347 191 L1347 191 Z M733 1818 C659 1818 618 1770 618 1710 C618 1651 659 1604 733 1604 C807 1604 850 1651 850 1710 C850 1770 807 1818 733 1818 L733 1818 Z " />
<glyph glyph-name="gdotaccent" unicode="&#x121;" horiz-adv-x="1248" d="M915 1082 L906 950 C830 1048 719 1102 568 1102 C285 1102 111 896 111 560 L111 519 C111 197 287 -20 566 -20 C713 -20 822 30 898 122 L898 5 C898 -183 779 -273 585 -273 C475 -273 365 -239 270 -136 L175 -250 C276 -382 471 -427 598 -427 C890 -427 1090 -273 1090 14 L1090 1082 L915 1082 Z M604 1261 C678 1261 721 1308 721 1367 C721 1427 678 1475 604 1475 C530 1475 489 1427 489 1367 C489 1308 530 1261 604 1261 L604 1261 Z M612 139 C396 139 302 299 302 519 L302 560 C302 780 397 944 615 944 C761 944 848 877 898 788 L898 301 C846 208 759 139 612 139 L612 139 Z " />
<glyph glyph-name="Gcommaaccent" unicode="&#x122;" horiz-adv-x="1348" d="M1347 191 L1347 727 L777 727 L777 568 L1148 568 L1148 242 C1107 203 1014 139 793 139 C520 139 342 324 342 653 L342 806 C342 1127 480 1316 770 1316 C1016 1316 1120 1192 1149 1029 L1346 1029 C1310 1293 1127 1476 768 1476 C371 1476 143 1233 143 804 L143 653 C143 223 410 -20 791 -20 C1136 -20 1287 114 1347 191 L1347 191 Z M-38 -602 L-38 -523 L-215 -523 L-215 -605 C-215 -698 -242 -777 -295 -853 L-187 -926 C-89 -845 -38 -708 -38 -602 L-38 -602 Z " />
<glyph glyph-name="gcommaaccent" unicode="&#x123;" horiz-adv-x="1248" d="M915 1082 L906 950 C830 1048 719 1102 568 1102 C285 1102 111 896 111 560 L111 519 C111 197 287 -20 566 -20 C713 -20 822 30 898 122 L898 5 C898 -183 779 -273 585 -273 C475 -273 365 -239 270 -136 L175 -250 C276 -382 471 -427 598 -427 C890 -427 1090 -273 1090 14 L1090 1082 L915 1082 Z M694 1373 C694 1455 712 1520 759 1600 L649 1685 C584 1629 508 1501 508 1382 L508 1253 L694 1253 L694 1373 Z M612 139 C396 139 302 299 302 519 L302 560 C302 780 397 944 615 944 C761 944 848 877 898 788 L898 301 C846 208 759 139 612 139 L612 139 Z " />
<glyph glyph-name="Hbar" unicode="&#x126;" horiz-adv-x="1395" d="M1525 1168 L1382 1168 L1382 1456 L1183 1456 L1183 1168 L381 1168 L381 1456 L182 1456 L182 1168 L37 1168 L37 1024 L182 1024 L182 0 L381 0 L381 672 L1183 672 L1183 0 L1382 0 L1382 1024 L1525 1024 L1525 1168 Z M1183 831 L381 831 L381 1024 L1183 1024 L1183 831 Z " />
<glyph glyph-name="hbar" unicode="&#x127;" horiz-adv-x="1227" d="M699 1102 C553 1102 432 1041 350 939 L350 1233 L665 1233 L665 1386 L350 1386 L350 1536 L158 1536 L158 1386 L-20 1386 L-20 1233 L158 1233 L158 0 L350 0 L350 765 C404 871 505 944 642 944 C795 944 881 878 881 711 L881 0 L1072 0 L1072 709 C1072 993 929 1102 699 1102 L699 1102 Z " />
<glyph glyph-name="Itilde" unicode="&#x128;" horiz-adv-x="613" d="M407 0 L407 1456 L208 1456 L208 0 L407 0 Z M688 1826 L559 1838 C559 1775 511 1726 450 1726 C336 1726 284 1821 158 1821 C30 1821 -68 1719 -68 1572 L60 1566 C60 1628 107 1677 169 1677 C288 1677 313 1583 460 1583 C587 1583 688 1679 688 1826 L688 1826 Z " />
<glyph glyph-name="itilde" unicode="&#x129;" horiz-adv-x="549" d="M366 0 L366 1082 L175 1082 L175 0 L366 0 Z M656 1503 L527 1515 C527 1452 479 1403 418 1403 C304 1403 252 1498 126 1498 C-2 1498 -100 1396 -100 1249 L28 1243 C28 1305 75 1354 137 1354 C256 1354 281 1260 428 1260 C555 1260 656 1356 656 1503 L656 1503 Z " />
<glyph glyph-name="Imacron" unicode="&#x12a;" horiz-adv-x="613" d="M407 0 L407 1456 L208 1456 L208 0 L407 0 Z M666 1631 L666 1775 L-45 1775 L-45 1631 L666 1631 Z " />
<glyph glyph-name="imacron" unicode="&#x12b;" horiz-adv-x="549" d="M366 0 L366 1082 L175 1082 L175 0 L366 0 Z M634 1308 L634 1452 L-77 1452 L-77 1308 L634 1308 Z " />
<glyph glyph-name="Iogonek" unicode="&#x12e;" horiz-adv-x="613" d="M370 0 L407 0 L407 1456 L208 1456 L208 16 C80 -61 21 -153 21 -243 C21 -369 110 -435 224 -435 C307 -435 359 -411 393 -391 L377 -267 C355 -278 318 -294 270 -294 C207 -294 185 -266 185 -221 C185 -135 275 -64 370 0 L370 0 Z " />
<glyph glyph-name="iogonek" unicode="&#x12f;" horiz-adv-x="542" d="M251 -294 C188 -294 166 -266 166 -221 C166 -135 256 -64 351 0 L368 0 L368 1082 L176 1082 L176 8 C57 -68 2 -156 2 -243 C2 -369 91 -435 205 -435 C288 -435 340 -411 374 -391 L358 -267 C336 -278 299 -294 251 -294 L251 -294 Z M273 1263 C347 1263 389 1309 389 1368 C389 1428 347 1476 273 1476 C199 1476 158 1428 158 1368 C158 1309 199 1263 273 1263 L273 1263 Z " />
<glyph glyph-name="Idotaccent" unicode="&#x130;" horiz-adv-x="613" d="M407 0 L407 1456 L208 1456 L208 0 L407 0 Z M305 1797 C231 1797 190 1749 190 1689 C190 1630 231 1583 305 1583 C379 1583 422 1630 422 1689 C422 1749 379 1797 305 1797 L305 1797 Z " />
<glyph glyph-name="dotlessi" unicode="&#x131;" horiz-adv-x="549" d="M366 0 L366 1082 L175 1082 L175 0 L366 0 Z " />
<glyph glyph-name="Kcommaaccent" unicode="&#x136;" horiz-adv-x="1241" d="M1146 0 L1385 0 L720 814 L1338 1456 L1097 1456 L565 918 L388 731 L388 1456 L189 1456 L189 0 L388 0 L388 485 L583 676 L1146 0 Z M-277 -507 C-277 -600 -304 -679 -357 -755 L-249 -828 C-151 -747 -100 -610 -100 -504 L-100 -425 L-277 -425 L-277 -507 Z " />
<glyph glyph-name="kcommaaccent" unicode="&#x137;" horiz-adv-x="1017" d="M893 0 L1118 0 L610 633 L1069 1082 L835 1082 L351 595 L351 1536 L160 1536 L160 0 L351 0 L351 371 L478 500 L893 0 Z M-407 -528 C-407 -621 -434 -700 -487 -776 L-379 -849 C-281 -768 -230 -631 -230 -525 L-230 -446 L-407 -446 L-407 -528 Z " />
<glyph glyph-name="Lacute" unicode="&#x139;" horiz-adv-x="1193" d="M388 159 L388 1456 L189 1456 L189 0 L1133 0 L1133 159 L388 159 Z M625 1843 L395 1843 L181 1549 L339 1549 L625 1843 Z " />
<glyph glyph-name="lacute" unicode="&#x13a;" horiz-adv-x="677" d="M366 1536 L174 1536 L174 269 C174 52 292 -20 444 -20 C510 -20 564 -9 596 0 L594 153 C573 149 533 141 498 141 C427 141 366 159 366 268 L366 1536 Z M379 1944 L165 1650 L323 1650 L609 1944 L379 1944 Z " />
<glyph glyph-name="Lcommaaccent" unicode="&#x13b;" horiz-adv-x="1076" d="M388 159 L388 1456 L189 1456 L189 0 L1133 0 L1133 159 L388 159 Z M-322 -585 C-322 -678 -349 -757 -402 -833 L-294 -906 C-196 -825 -145 -688 -145 -582 L-145 -503 L-322 -503 L-322 -585 Z " />
<glyph glyph-name="lcommaaccent" unicode="&#x13c;" horiz-adv-x="499" d="M366 1536 L174 1536 L174 269 C174 52 292 -20 444 -20 C510 -20 564 -9 596 0 L594 153 C573 149 533 141 498 141 C427 141 366 159 366 268 L366 1536 Z M-495 -582 L-495 -503 L-672 -503 L-672 -585 C-672 -678 -699 -757 -752 -833 L-644 -906 C-546 -825 -495 -688 -495 -582 L-495 -582 Z " />
<glyph glyph-name="Lcaron" unicode="&#x13d;" horiz-adv-x="1076" d="M-205 978 C-205 885 -232 806 -285 730 L-177 657 C-79 738 -28 875 -28 981 L-28 1060 L-205 1060 L-205 978 Z M388 159 L388 1456 L189 1456 L189 0 L1133 0 L1133 159 L388 159 Z " />
<glyph glyph-name="lcaron" unicode="&#x13e;" horiz-adv-x="643" d="M-147 1062 L-147 1141 L-324 1141 L-324 1059 C-324 966 -351 887 -404 811 L-296 738 C-198 819 -147 956 -147 1062 L-147 1062 Z M366 1536 L174 1536 L174 269 C174 52 292 -20 444 -20 C510 -20 564 -9 596 0 L594 153 C573 149 533 141 498 141 C427 141 366 159 366 268 L366 1536 Z " />
<glyph glyph-name="Lslash" unicode="&#x141;" horiz-adv-x="1076" d="M391 159 L391 718 L679 802 L679 928 L391 844 L391 1456 L192 1456 L192 785 L40 741 L40 615 L192 659 L192 0 L1136 0 L1136 159 L391 159 Z " />
<glyph glyph-name="lslash" unicode="&#x142;" horiz-adv-x="549" d="M624 153 C603 149 563 141 528 141 C457 141 396 159 396 268 L396 744 L570 806 L570 930 L396 868 L396 1536 L204 1536 L204 801 L41 743 L41 619 L204 677 L204 269 C204 52 322 -20 474 -20 C540 -20 594 -9 626 0 L624 153 Z " />
<glyph glyph-name="Nacute" unicode="&#x143;" horiz-adv-x="1581" d="M1390 0 L1390 1456 L1193 1456 L1193 309 L394 1456 L189 1456 L189 0 L388 0 L388 1144 L1184 0 L1390 0 Z M895 1847 L681 1553 L839 1553 L1125 1847 L895 1847 Z " />
<glyph glyph-name="nacute" unicode="&#x144;" horiz-adv-x="1229" d="M701 1102 C552 1102 429 1038 346 933 L340 1082 L159 1082 L159 0 L350 0 L350 764 C404 871 506 944 642 944 C795 944 881 878 881 711 L881 0 L1073 0 L1073 709 C1073 993 930 1102 701 1102 L701 1102 Z M961 1536 L731 1536 L517 1242 L675 1242 L961 1536 Z " />
<glyph glyph-name="Ncommaaccent" unicode="&#x145;" horiz-adv-x="1414" d="M1390 0 L1390 1456 L1193 1456 L1193 309 L394 1456 L189 1456 L189 0 L388 0 L388 1144 L1184 0 L1390 0 Z M-49 -582 L-49 -503 L-226 -503 L-226 -585 C-226 -678 -253 -757 -306 -833 L-198 -906 C-100 -825 -49 -688 -49 -582 L-49 -582 Z " />
<glyph glyph-name="ncommaaccent" unicode="&#x146;" horiz-adv-x="1097" d="M701 1102 C552 1102 429 1038 346 933 L340 1082 L159 1082 L159 0 L350 0 L350 764 C404 871 506 944 642 944 C795 944 881 878 881 711 L881 0 L1073 0 L1073 709 C1073 993 930 1102 701 1102 L701 1102 Z M-378 -585 C-378 -678 -405 -757 -458 -833 L-350 -906 C-252 -825 -201 -688 -201 -582 L-201 -503 L-378 -503 L-378 -585 Z " />
<glyph glyph-name="Ncaron" unicode="&#x147;" horiz-adv-x="1581" d="M1390 0 L1390 1456 L1193 1456 L1193 309 L394 1456 L189 1456 L189 0 L388 0 L388 1144 L1184 0 L1390 0 Z M787 1678 L619 1847 L456 1847 L456 1837 L726 1563 L847 1563 L1119 1837 L1119 1847 L954 1847 L787 1678 Z " />
<glyph glyph-name="ncaron" unicode="&#x148;" horiz-adv-x="1229" d="M701 1102 C552 1102 429 1038 346 933 L340 1082 L159 1082 L159 0 L350 0 L350 764 C404 871 506 944 642 944 C795 944 881 878 881 711 L881 0 L1073 0 L1073 709 C1073 993 930 1102 701 1102 L701 1102 Z M683 1252 L955 1526 L955 1536 L790 1536 L623 1367 L455 1536 L292 1536 L292 1526 L562 1252 L683 1252 Z " />
<glyph glyph-name="Eng" unicode="&#x14a;" horiz-adv-x="1545" d="M1171 1456 L1171 318 L382 1456 L183 1456 L183 0 L382 0 L382 1139 L1171 0 L1171 -84 C1171 -205 1113 -277 1013 -277 C987 -277 932 -272 907 -264 L892 -420 C936 -433 972 -437 1018 -437 C1237 -437 1370 -312 1370 -84 L1370 1456 L1171 1456 Z " />
<glyph glyph-name="eng" unicode="&#x14b;" horiz-adv-x="1256" d="M697 1102 C543 1102 424 1034 348 923 L335 1082 L163 1082 L163 0 L354 0 L354 802 C406 888 498 944 640 944 C802 944 897 877 897 679 L897 -89 C897 -210 839 -273 738 -273 C713 -273 652 -269 628 -261 L613 -420 C657 -433 695 -437 741 -437 C957 -437 1088 -314 1088 -89 L1088 683 C1088 979 939 1102 697 1102 L697 1102 Z " />
<glyph glyph-name="Omacron" unicode="&#x14c;" horiz-adv-x="1523" d="M1388 663 L1388 792 C1388 1223 1141 1476 761 1476 C389 1476 135 1223 135 792 L135 663 C135 232 391 -20 763 -20 C1143 -20 1388 232 1388 663 L1388 663 Z M1121 1621 L1121 1765 L410 1765 L410 1621 L1121 1621 Z M1191 794 L1191 663 C1191 321 1037 146 763 146 C500 146 332 321 332 663 L332 794 C332 1134 498 1309 761 1309 C1033 1309 1191 1134 1191 794 L1191 794 Z " />
<glyph glyph-name="omacron" unicode="&#x14d;" horiz-adv-x="1264" d="M103 562 L103 519 C103 201 310 -20 633 -20 C955 -20 1160 201 1160 519 L1160 562 C1160 880 955 1102 630 1102 C310 1102 103 880 103 562 L103 562 Z M983 1309 L983 1453 L272 1453 L272 1309 L983 1309 Z M295 519 L295 562 C295 778 411 948 630 948 C852 948 969 778 969 562 L969 519 C969 301 854 134 633 134 C411 134 295 301 295 519 L295 519 Z " />
<glyph glyph-name="Ohungarumlaut" unicode="&#x150;" horiz-adv-x="1523" d="M1388 663 L1388 792 C1388 1223 1141 1476 761 1476 C389 1476 135 1223 135 792 L135 663 C135 232 391 -20 763 -20 C1143 -20 1388 232 1388 663 L1388 663 Z M691 1847 L499 1544 L655 1544 L893 1847 L691 1847 Z M1054 1847 L800 1544 L974 1544 L1265 1847 L1054 1847 Z M1191 794 L1191 663 C1191 321 1037 146 763 146 C500 146 332 321 332 663 L332 794 C332 1134 498 1309 761 1309 C1033 1309 1191 1134 1191 794 L1191 794 Z " />
<glyph glyph-name="ohungarumlaut" unicode="&#x151;" horiz-adv-x="1264" d="M103 562 L103 519 C103 201 310 -20 633 -20 C955 -20 1160 201 1160 519 L1160 562 C1160 880 955 1102 630 1102 C310 1102 103 880 103 562 L103 562 Z M553 1535 L361 1232 L517 1232 L755 1535 L553 1535 Z M916 1535 L662 1232 L836 1232 L1127 1535 L916 1535 Z M295 519 L295 562 C295 778 411 948 630 948 C852 948 969 778 969 562 L969 519 C969 301 854 134 633 134 C411 134 295 301 295 519 L295 519 Z " />
<glyph glyph-name="OE" unicode="&#x152;" horiz-adv-x="1897" d="M1157 159 L1157 672 L1843 672 L1843 831 L1157 831 L1157 1296 L1943 1296 L1943 1456 L1037 1456 C938 1467 827 1477 715 1477 C360 1477 119 1233 119 880 L119 576 C119 223 362 -21 717 -21 C829 -21 938 -10 1037 0 L1952 0 L1952 159 L1157 159 Z M310 576 L310 882 C310 1171 467 1323 715 1323 C800 1323 882 1317 958 1307 L958 148 C883 139 800 133 717 133 C469 133 310 286 310 576 L310 576 Z " />
<glyph glyph-name="oe" unicode="&#x153;" horiz-adv-x="2021" d="M1941 619 C1941 901 1781 1102 1468 1102 C1303 1102 1153 1018 1062 881 C974 1017 826 1102 629 1102 C305 1102 109 865 109 552 L109 529 C109 216 305 -21 631 -21 C826 -21 974 64 1061 199 C1151 63 1303 -21 1495 -21 C1702 -21 1833 49 1907 113 L1833 240 C1759 181 1657 133 1498 133 C1289 133 1171 294 1163 496 L1941 496 L1941 619 Z M960 529 C960 315 854 133 631 133 C406 133 300 315 300 529 L300 552 C300 763 406 948 629 948 C854 948 960 763 960 552 L960 529 Z M1750 650 L1169 650 C1198 821 1311 948 1468 948 C1659 948 1750 819 1750 675 L1750 650 Z " />
<glyph glyph-name="Racute" unicode="&#x154;" horiz-adv-x="1384" d="M956 628 C1141 695 1257 837 1257 1018 C1257 1303 1056 1456 709 1456 L188 1456 L188 0 L387 0 L387 589 L769 589 L1112 0 L1325 0 L1325 12 L956 628 Z M999 1847 L769 1847 L555 1553 L713 1553 L999 1847 Z M387 748 L387 1296 L709 1296 C948 1296 1058 1185 1058 1018 C1058 868 945 748 720 748 L387 748 Z " />
<glyph glyph-name="racute" unicode="&#x155;" horiz-adv-x="763" d="M349 949 L344 1082 L159 1082 L159 0 L350 0 L350 763 C393 858 483 917 627 917 C663 917 691 915 723 909 L725 1088 C709 1094 665 1102 636 1102 C503 1102 409 1042 349 949 L349 949 Z M784 1536 L554 1536 L340 1242 L498 1242 L784 1536 Z " />
<glyph glyph-name="Rcommaaccent" unicode="&#x156;" horiz-adv-x="1210" d="M956 628 C1141 695 1257 837 1257 1018 C1257 1303 1056 1456 709 1456 L188 1456 L188 0 L387 0 L387 589 L769 589 L1112 0 L1325 0 L1325 12 L956 628 Z M-329 -585 C-329 -678 -356 -757 -409 -833 L-301 -906 C-203 -825 -152 -688 -152 -582 L-152 -503 L-329 -503 L-329 -585 Z M387 748 L387 1296 L709 1296 C948 1296 1058 1185 1058 1018 C1058 868 945 748 720 748 L387 748 Z " />
<glyph glyph-name="rcommaaccent" unicode="&#x157;" horiz-adv-x="678" d="M636 1102 C503 1102 409 1042 349 949 L344 1082 L159 1082 L159 0 L350 0 L350 763 C393 858 483 917 627 917 C663 917 691 915 723 909 L725 1088 C709 1094 665 1102 636 1102 L636 1102 Z M-673 -585 C-673 -678 -700 -757 -753 -833 L-645 -906 C-547 -825 -496 -688 -496 -582 L-496 -503 L-673 -503 L-673 -585 Z " />
<glyph glyph-name="Rcaron" unicode="&#x158;" horiz-adv-x="1384" d="M956 628 C1141 695 1257 837 1257 1018 C1257 1303 1056 1456 709 1456 L188 1456 L188 0 L387 0 L387 589 L769 589 L1112 0 L1325 0 L1325 12 L956 628 Z M721 1563 L993 1837 L993 1847 L828 1847 L661 1678 L493 1847 L330 1847 L330 1837 L600 1563 L721 1563 Z M387 748 L387 1296 L709 1296 C948 1296 1058 1185 1058 1018 C1058 868 945 748 720 748 L387 748 Z " />
<glyph glyph-name="rcaron" unicode="&#x159;" horiz-adv-x="763" d="M349 949 L344 1082 L159 1082 L159 0 L350 0 L350 763 C393 858 483 917 627 917 C663 917 691 915 723 909 L725 1088 C709 1094 665 1102 636 1102 C503 1102 409 1042 349 949 L349 949 Z M613 1536 L446 1367 L278 1536 L115 1536 L115 1526 L385 1252 L506 1252 L778 1526 L778 1536 L613 1536 Z " />
<glyph glyph-name="Sacute" unicode="&#x15a;" horiz-adv-x="1322" d="M653 649 C953 569 1034 504 1034 369 C1034 228 907 139 687 139 C484 139 293 225 293 422 L94 422 C94 133 399 -20 687 -20 C1014 -20 1233 134 1233 371 C1233 596 1066 725 718 819 C450 885 342 960 342 1082 C342 1216 451 1316 677 1316 C912 1316 1030 1198 1030 1036 L1228 1036 C1228 1263 1025 1476 678 1476 C358 1476 143 1305 143 1079 C143 853 344 732 653 649 L653 649 Z M787 1848 L573 1554 L731 1554 L1017 1848 L787 1848 Z " />
<glyph glyph-name="sacute" unicode="&#x15b;" horiz-adv-x="1144" d="M559 472 C791 421 838 365 838 285 C838 197 748 134 582 134 C453 134 307 181 298 333 L107 333 C107 153 274 -20 581 -20 C852 -20 1029 109 1029 299 C1029 474 897 558 614 625 C387 678 337 714 337 793 C337 871 406 948 575 948 C738 948 828 854 828 766 L1019 766 C1019 952 854 1102 575 1102 C314 1102 147 959 147 787 C147 611 302 531 559 472 L559 472 Z M710 1536 L496 1242 L654 1242 L940 1536 L710 1536 Z " />
<glyph glyph-name="Scedilla" unicode="&#x15e;" horiz-adv-x="1322" d="M1233 371 C1233 596 1066 725 718 819 C450 885 342 960 342 1082 C342 1216 451 1316 677 1316 C912 1316 1030 1198 1030 1036 L1228 1036 C1228 1263 1025 1476 678 1476 C358 1476 143 1305 143 1079 C143 853 344 732 653 649 C953 569 1034 504 1034 369 C1034 228 907 139 687 139 C484 139 293 225 293 422 L94 422 C94 157 351 6 615 -17 L587 -136 C708 -145 762 -164 762 -230 C762 -300 678 -328 579 -328 L586 -436 C800 -436 914 -352 914 -226 C914 -111 831 -66 747 -53 L755 -18 C1044 2 1233 151 1233 371 L1233 371 Z " />
<glyph glyph-name="scedilla" unicode="&#x15f;" horiz-adv-x="1144" d="M1029 299 C1029 474 897 558 614 625 C387 678 337 714 337 793 C337 871 406 948 575 948 C738 948 828 854 828 766 L1019 766 C1019 952 854 1102 575 1102 C314 1102 147 959 147 787 C147 611 302 531 559 472 C791 421 838 365 838 285 C838 197 748 134 582 134 C453 134 307 181 298 333 L107 333 C107 162 257 -2 535 -19 L505 -145 C626 -154 680 -173 680 -239 C680 -309 596 -337 497 -337 L504 -445 C718 -445 832 -361 832 -235 C832 -120 749 -75 665 -62 L676 -14 C893 12 1029 132 1029 299 L1029 299 Z " />
<glyph glyph-name="Scaron" unicode="&#x160;" horiz-adv-x="1322" d="M653 649 C953 569 1034 504 1034 369 C1034 228 907 139 687 139 C484 139 293 225 293 422 L94 422 C94 133 399 -20 687 -20 C1014 -20 1233 134 1233 371 C1233 596 1066 725 718 819 C450 885 342 960 342 1082 C342 1216 451 1316 677 1316 C912 1316 1030 1198 1030 1036 L1228 1036 C1228 1263 1025 1476 678 1476 C358 1476 143 1305 143 1079 C143 853 344 732 653 649 L653 649 Z M679 1679 L511 1848 L348 1848 L348 1838 L618 1564 L739 1564 L1011 1838 L1011 1848 L846 1848 L679 1679 Z " />
<glyph glyph-name="scaron" unicode="&#x161;" horiz-adv-x="1144" d="M559 472 C791 421 838 365 838 285 C838 197 748 134 582 134 C453 134 307 181 298 333 L107 333 C107 153 274 -20 581 -20 C852 -20 1029 109 1029 299 C1029 474 897 558 614 625 C387 678 337 714 337 793 C337 871 406 948 575 948 C738 948 828 854 828 766 L1019 766 C1019 952 854 1102 575 1102 C314 1102 147 959 147 787 C147 611 302 531 559 472 L559 472 Z M602 1367 L434 1536 L271 1536 L271 1526 L541 1252 L662 1252 L934 1526 L934 1536 L769 1536 L602 1367 Z " />
<glyph glyph-name="uni0162" unicode="&#x162;" horiz-adv-x="1331" d="M764 0 L764 1296 L1274 1296 L1274 1456 L59 1456 L59 1296 L568 1296 L568 0 L602 0 L570 -135 C691 -144 745 -163 745 -229 C745 -299 661 -327 562 -327 L569 -435 C783 -435 897 -351 897 -225 C897 -110 814 -65 730 -52 L742 0 L764 0 Z " />
<glyph glyph-name="uni0163" unicode="&#x163;" horiz-adv-x="732" d="M550 -52 L558 -17 C597 -13 629 -6 652 0 L650 153 C628 149 588 141 553 141 C483 141 421 159 421 268 L421 938 L642 938 L642 1082 L421 1082 L421 1344 L229 1344 L229 1082 L20 1082 L20 938 L229 938 L229 269 C229 92 308 12 419 -12 L390 -135 C511 -144 565 -163 565 -229 C565 -299 481 -327 382 -327 L389 -435 C603 -435 717 -351 717 -225 C717 -110 634 -65 550 -52 L550 -52 Z " />
<glyph glyph-name="Tcaron" unicode="&#x164;" horiz-adv-x="1331" d="M1274 1456 L59 1456 L59 1296 L568 1296 L568 0 L764 0 L764 1296 L1274 1296 L1274 1456 Z M725 1562 L997 1836 L997 1846 L832 1846 L665 1677 L497 1846 L334 1846 L334 1836 L604 1562 L725 1562 Z " />
<glyph glyph-name="tcaron" unicode="&#x165;" horiz-adv-x="695" d="M650 153 C628 149 588 141 553 141 C483 141 421 159 421 268 L421 938 L642 938 L642 1082 L421 1082 L421 1344 L229 1344 L229 1082 L20 1082 L20 938 L229 938 L229 269 C229 52 348 -20 499 -20 C566 -20 619 -9 652 0 L650 153 Z M-264 1187 C-264 1094 -291 1015 -344 939 L-236 866 C-138 947 -87 1084 -87 1190 L-87 1269 L-264 1269 L-264 1187 Z " />
<glyph glyph-name="Tbar" unicode="&#x166;" horiz-adv-x="1331" d="M1274 1296 L1274 1456 L59 1456 L59 1296 L568 1296 L568 976 L327 976 L327 823 L568 823 L568 0 L764 0 L764 823 L1012 823 L1012 976 L764 976 L764 1296 L1274 1296 Z " />
<glyph glyph-name="tbar" unicode="&#x167;" horiz-adv-x="732" d="M683 602 L683 755 L421 755 L421 938 L642 938 L642 1082 L421 1082 L421 1344 L229 1344 L229 1082 L20 1082 L20 938 L229 938 L229 755 L-2 755 L-2 602 L229 602 L229 269 C229 52 348 -20 499 -20 C566 -20 619 -9 652 0 L650 153 C628 149 588 141 553 141 C483 141 421 159 421 268 L421 602 L683 602 Z " />
<glyph glyph-name="Utilde" unicode="&#x168;" horiz-adv-x="1448" d="M1293 1456 L1094 1456 L1094 461 C1094 234 946 139 726 139 C507 139 357 234 357 461 L357 1456 L160 1456 L160 461 C160 133 406 -20 726 -20 C1032 -20 1293 133 1293 461 L1293 1456 Z M1109 1815 L980 1827 C980 1764 932 1715 871 1715 C757 1715 705 1810 579 1810 C451 1810 353 1708 353 1561 L481 1555 C481 1617 528 1666 590 1666 C709 1666 734 1572 881 1572 C1008 1572 1109 1668 1109 1815 L1109 1815 Z " />
<glyph glyph-name="utilde" unicode="&#x169;" horiz-adv-x="1228" d="M878 1082 L878 302 C832 204 737 139 569 139 C453 139 346 188 346 382 L346 1082 L154 1082 L154 384 C154 96 309 -20 537 -20 C698 -20 811 31 883 117 L888 0 L1070 0 L1070 1082 L878 1082 Z M481 1355 C600 1355 625 1261 772 1261 C899 1261 1000 1357 1000 1504 L871 1516 C871 1453 823 1404 762 1404 C648 1404 596 1499 470 1499 C342 1499 244 1397 244 1250 L372 1244 C372 1306 419 1355 481 1355 L481 1355 Z " />
<glyph glyph-name="Umacron" unicode="&#x16a;" horiz-adv-x="1448" d="M1293 1456 L1094 1456 L1094 461 C1094 234 946 139 726 139 C507 139 357 234 357 461 L357 1456 L160 1456 L160 461 C160 133 406 -20 726 -20 C1032 -20 1293 133 1293 461 L1293 1456 Z M1087 1620 L1087 1764 L376 1764 L376 1620 L1087 1620 Z " />
<glyph glyph-name="umacron" unicode="&#x16b;" horiz-adv-x="1228" d="M878 1082 L878 302 C832 204 737 139 569 139 C453 139 346 188 346 382 L346 1082 L154 1082 L154 384 C154 96 309 -20 537 -20 C698 -20 811 31 883 117 L888 0 L1070 0 L1070 1082 L878 1082 Z M978 1453 L267 1453 L267 1309 L978 1309 L978 1453 Z " />
<glyph glyph-name="Uring" unicode="&#x16e;" horiz-adv-x="1448" d="M1293 1456 L1094 1456 L1094 461 C1094 234 946 139 726 139 C507 139 357 234 357 461 L357 1456 L160 1456 L160 461 C160 133 406 -20 726 -20 C1032 -20 1293 133 1293 461 L1293 1456 Z M729 1940 C597 1940 498 1847 498 1731 C498 1615 597 1527 729 1527 C860 1527 960 1615 960 1731 C960 1847 860 1940 729 1940 L729 1940 Z M729 1616 C654 1616 601 1673 601 1731 C601 1794 654 1850 729 1850 C805 1850 856 1794 856 1731 C856 1671 805 1616 729 1616 L729 1616 Z " />
<glyph glyph-name="uring" unicode="&#x16f;" horiz-adv-x="1228" d="M878 1082 L878 302 C832 204 737 139 569 139 C453 139 346 188 346 382 L346 1082 L154 1082 L154 384 C154 96 309 -20 537 -20 C698 -20 811 31 883 117 L888 0 L1070 0 L1070 1082 L878 1082 Z M620 1216 C751 1216 851 1304 851 1420 C851 1536 751 1629 620 1629 C488 1629 389 1536 389 1420 C389 1304 488 1216 620 1216 L620 1216 Z M620 1539 C696 1539 747 1483 747 1420 C747 1360 696 1305 620 1305 C545 1305 492 1362 492 1420 C492 1483 545 1539 620 1539 L620 1539 Z " />
<glyph glyph-name="Uhungarumlaut" unicode="&#x170;" horiz-adv-x="1448" d="M1293 1456 L1094 1456 L1094 461 C1094 234 946 139 726 139 C507 139 357 234 357 461 L357 1456 L160 1456 L160 461 C160 133 406 -20 726 -20 C1032 -20 1293 133 1293 461 L1293 1456 Z M657 1846 L465 1543 L621 1543 L859 1846 L657 1846 Z M1020 1846 L766 1543 L940 1543 L1231 1846 L1020 1846 Z " />
<glyph glyph-name="uhungarumlaut" unicode="&#x171;" horiz-adv-x="1228" d="M878 302 C832 204 737 139 569 139 C453 139 346 188 346 382 L346 1082 L154 1082 L154 384 C154 96 309 -20 537 -20 C698 -20 811 31 883 117 L888 0 L1070 0 L1070 1082 L878 1082 L878 302 Z M750 1535 L548 1535 L356 1232 L512 1232 L750 1535 Z M831 1232 L1122 1535 L911 1535 L657 1232 L831 1232 Z " />
<glyph glyph-name="Uogonek" unicode="&#x172;" horiz-adv-x="1448" d="M1094 1456 L1094 461 C1094 234 946 139 726 139 C507 139 357 234 357 461 L357 1456 L160 1456 L160 461 C160 133 406 -20 726 -20 C737 -20 748 -20 759 -19 C702 -77 675 -138 675 -199 C675 -325 764 -391 878 -391 C961 -391 1013 -367 1047 -347 L1031 -223 C1009 -234 972 -250 924 -250 C861 -250 839 -222 839 -177 C839 -98 916 -31 1002 29 C1174 98 1293 239 1293 461 L1293 1456 L1094 1456 Z " />
<glyph glyph-name="uogonek" unicode="&#x173;" horiz-adv-x="1228" d="M1065 -267 C1043 -278 1006 -294 958 -294 C895 -294 873 -266 873 -221 C873 -135 963 -64 1058 0 L1070 0 L1070 1082 L878 1082 L878 302 C832 204 737 139 569 139 C453 139 346 188 346 382 L346 1082 L154 1082 L154 384 C154 96 309 -20 537 -20 C698 -20 811 31 883 117 L888 11 C765 -65 709 -155 709 -243 C709 -369 798 -435 912 -435 C995 -435 1047 -411 1081 -391 L1065 -267 Z " />
<glyph glyph-name="Wcircumflex" unicode="&#x174;" horiz-adv-x="1971" d="M1716 1456 L1465 426 L1433 240 L1393 405 L1085 1456 L908 1456 L593 405 L553 244 L524 425 L268 1456 L69 1456 L450 0 L638 0 L973 1072 L998 1187 L1022 1072 L1347 0 L1536 0 L1916 1456 L1716 1456 Z M999 1732 L1165 1564 L1326 1564 L1326 1574 L1057 1848 L941 1848 L675 1575 L675 1564 L833 1564 L999 1732 Z " />
<glyph glyph-name="wcircumflex" unicode="&#x175;" horiz-adv-x="1667" d="M1414 1082 L1187 222 L908 1082 L754 1082 L479 235 L247 1082 L57 1082 L392 0 L548 0 L828 852 L1113 0 L1270 0 L1605 1082 L1414 1082 Z M827 1421 L993 1253 L1154 1253 L1154 1263 L885 1537 L769 1537 L503 1264 L503 1253 L661 1253 L827 1421 Z " />
<glyph glyph-name="Ycircumflex" unicode="&#x176;" horiz-adv-x="1338" d="M668 728 L250 1456 L23 1456 L568 544 L568 0 L767 0 L767 544 L1311 1456 L1086 1456 L668 728 Z M998 1573 L729 1847 L613 1847 L347 1574 L347 1563 L505 1563 L671 1731 L837 1563 L998 1563 L998 1573 Z " />
<glyph glyph-name="ycircumflex" unicode="&#x177;" horiz-adv-x="1061" d="M824 1082 L547 266 L239 1082 L31 1082 L452 9 L409 -98 C355 -229 293 -273 158 -273 C147 -273 114 -271 101 -269 L101 -421 C124 -426 179 -437 213 -437 C426 -437 514 -274 555 -167 L1029 1082 L824 1082 Z M555 1421 L721 1253 L882 1253 L882 1263 L613 1537 L497 1537 L231 1264 L231 1253 L389 1253 L555 1421 Z " />
<glyph glyph-name="Ydieresis" unicode="&#x178;" horiz-adv-x="1338" d="M668 728 L250 1456 L23 1456 L568 544 L568 0 L767 0 L767 544 L1311 1456 L1086 1456 L668 728 Z M426 1788 C352 1788 311 1740 311 1680 C311 1621 352 1575 426 1575 C499 1575 541 1621 541 1680 C541 1740 499 1788 426 1788 L426 1788 Z M910 1786 C837 1786 796 1738 796 1678 C796 1619 837 1573 910 1573 C984 1573 1026 1619 1026 1678 C1026 1738 984 1786 910 1786 L910 1786 Z " />
<glyph glyph-name="Zacute" unicode="&#x179;" horiz-adv-x="1333" d="M343 159 L1207 1314 L1207 1456 L116 1456 L116 1296 L961 1296 L99 147 L99 0 L1240 0 L1240 159 L343 159 Z M1007 1847 L777 1847 L563 1553 L721 1553 L1007 1847 Z " />
<glyph glyph-name="zacute" unicode="&#x17a;" horiz-adv-x="1102" d="M337 154 L990 949 L990 1082 L113 1082 L113 927 L749 927 L100 138 L100 0 L1025 0 L1025 154 L337 154 Z M897 1536 L667 1536 L453 1242 L611 1242 L897 1536 Z " />
<glyph glyph-name="Zdotaccent" unicode="&#x17b;" horiz-adv-x="1333" d="M343 159 L1207 1314 L1207 1456 L116 1456 L116 1296 L961 1296 L99 147 L99 0 L1240 0 L1240 159 L343 159 Z M667 1572 C741 1572 784 1619 784 1678 C784 1738 741 1786 667 1786 C593 1786 552 1738 552 1678 C552 1619 593 1572 667 1572 L667 1572 Z " />
<glyph glyph-name="zdotaccent" unicode="&#x17c;" horiz-adv-x="1102" d="M337 154 L990 949 L990 1082 L113 1082 L113 927 L749 927 L100 138 L100 0 L1025 0 L1025 154 L337 154 Z M557 1261 C631 1261 674 1308 674 1367 C674 1427 631 1475 557 1475 C483 1475 442 1427 442 1367 C442 1308 483 1261 557 1261 L557 1261 Z " />
<glyph glyph-name="Zcaron" unicode="&#x17d;" horiz-adv-x="1333" d="M343 159 L1207 1314 L1207 1456 L116 1456 L116 1296 L961 1296 L99 147 L99 0 L1240 0 L1240 159 L343 159 Z M729 1563 L1001 1837 L1001 1847 L836 1847 L669 1678 L501 1847 L338 1847 L338 1837 L608 1563 L729 1563 Z " />
<glyph glyph-name="zcaron" unicode="&#x17e;" horiz-adv-x="1102" d="M337 154 L990 949 L990 1082 L113 1082 L113 927 L749 927 L100 138 L100 0 L1025 0 L1025 154 L337 154 Z M619 1252 L891 1526 L891 1536 L726 1536 L559 1367 L391 1536 L228 1536 L228 1526 L498 1252 L619 1252 Z " />
<glyph glyph-name="florin" unicode="&#x192;" horiz-adv-x="760" d="M665 938 L665 1082 L435 1082 L435 1196 C435 1325 499 1398 628 1398 C672 1398 708 1394 736 1387 L759 1536 C707 1548 657 1557 605 1557 C380 1557 244 1429 244 1196 L244 1082 L59 1082 L59 938 L244 938 L244 -89 C244 -210 187 -283 86 -283 C63 -283 3 -278 -18 -270 L-34 -420 C9 -433 45 -437 89 -437 C306 -437 435 -314 435 -89 L435 938 L665 938 Z " />
<glyph glyph-name="Ohorn" unicode="&#x1a0;" horiz-adv-x="1379" d="M1577 1593 L1408 1593 C1408 1430 1356 1332 1198 1324 C1091 1423 944 1476 770 1476 C398 1476 144 1223 144 792 L144 663 C144 232 400 -20 772 -20 C1152 -20 1397 232 1397 663 L1397 792 C1397 954 1362 1090 1299 1198 C1487 1238 1577 1377 1577 1593 L1577 1593 Z M1200 663 C1200 321 1046 146 772 146 C509 146 341 321 341 663 L341 794 C341 1134 507 1309 770 1309 C1042 1309 1200 1134 1200 794 L1200 663 Z " />
<glyph glyph-name="ohorn" unicode="&#x1a1;" horiz-adv-x="1141" d="M1302 1201 L1151 1201 C1151 1072 1130 982 1005 965 C914 1052 787 1102 632 1102 C312 1102 105 880 105 562 L105 519 C105 201 312 -20 635 -20 C957 -20 1162 201 1162 519 L1162 562 C1162 675 1136 776 1088 859 C1244 900 1302 1022 1302 1201 L1302 1201 Z M971 519 C971 301 856 134 635 134 C413 134 297 301 297 519 L297 562 C297 778 413 948 632 948 C854 948 971 778 971 562 L971 519 Z " />
<glyph glyph-name="Uhorn" unicode="&#x1af;" horiz-adv-x="1387" d="M1682 1538 L1523 1538 C1523 1359 1476 1258 1295 1243 L1295 1456 L1096 1456 L1096 461 C1096 234 948 139 728 139 C509 139 359 234 359 461 L359 1456 L162 1456 L162 461 C162 133 408 -20 728 -20 C1034 -20 1295 133 1295 461 L1295 1106 C1576 1122 1682 1269 1682 1538 L1682 1538 Z " />
<glyph glyph-name="uhorn" unicode="&#x1b0;" horiz-adv-x="1247" d="M1391 1168 L1246 1168 C1246 1026 1235 960 1072 953 L1072 1082 L880 1082 L880 302 C834 204 739 139 571 139 C455 139 348 188 348 382 L348 1082 L156 1082 L156 384 C156 96 311 -20 539 -20 C700 -20 813 31 885 117 L890 0 L1072 0 L1072 838 C1319 846 1391 958 1391 1168 L1391 1168 Z " />
<glyph glyph-name="Scommaaccent" unicode="&#x218;" horiz-adv-x="1178" d="M653 649 C953 569 1034 504 1034 369 C1034 228 907 139 687 139 C484 139 293 225 293 422 L94 422 C94 133 399 -20 687 -20 C1014 -20 1233 134 1233 371 C1233 596 1066 725 718 819 C450 885 342 960 342 1082 C342 1216 451 1316 677 1316 C912 1316 1030 1198 1030 1036 L1228 1036 C1228 1263 1025 1476 678 1476 C358 1476 143 1305 143 1079 C143 853 344 732 653 649 L653 649 Z M-136 -592 L-136 -513 L-313 -513 L-313 -595 C-313 -688 -340 -767 -393 -843 L-285 -916 C-187 -835 -136 -698 -136 -592 L-136 -592 Z " />
<glyph glyph-name="scommaaccent" unicode="&#x219;" horiz-adv-x="1030" d="M559 472 C791 421 838 365 838 285 C838 197 748 134 582 134 C453 134 307 181 298 333 L107 333 C107 153 274 -20 581 -20 C852 -20 1029 109 1029 299 C1029 474 897 558 614 625 C387 678 337 714 337 793 C337 871 406 948 575 948 C738 948 828 854 828 766 L1019 766 C1019 952 854 1102 575 1102 C314 1102 147 959 147 787 C147 611 302 531 559 472 L559 472 Z M-192 -602 L-192 -523 L-369 -523 L-369 -605 C-369 -698 -396 -777 -449 -853 L-341 -926 C-243 -845 -192 -708 -192 -602 L-192 -602 Z " />
<glyph glyph-name="uni021A" unicode="&#x21a;" horiz-adv-x="1183" d="M1274 1456 L59 1456 L59 1296 L568 1296 L568 0 L764 0 L764 1296 L1274 1296 L1274 1456 Z M-327 -595 C-327 -688 -354 -767 -407 -843 L-299 -916 C-201 -835 -150 -698 -150 -592 L-150 -513 L-327 -513 L-327 -595 Z " />
<glyph glyph-name="uni021B" unicode="&#x21b;" horiz-adv-x="656" d="M650 153 C628 149 588 141 553 141 C483 141 421 159 421 268 L421 938 L642 938 L642 1082 L421 1082 L421 1344 L229 1344 L229 1082 L20 1082 L20 938 L229 938 L229 269 C229 52 348 -20 499 -20 C566 -20 619 -9 652 0 L650 153 Z M-476 -595 C-476 -688 -503 -767 -556 -843 L-448 -916 C-350 -835 -299 -698 -299 -592 L-299 -513 L-476 -513 L-476 -595 Z " />
<glyph glyph-name="uni0298" unicode="&#x298;" horiz-adv-x="1370" d="M762 845 C685 845 642 796 642 732 C642 670 685 621 762 621 C840 621 882 670 882 732 C882 796 840 845 762 845 L762 845 Z M1390 663 L1390 792 C1390 1223 1143 1476 763 1476 C391 1476 137 1223 137 792 L137 663 C137 232 393 -20 765 -20 C1145 -20 1390 232 1390 663 L1390 663 Z M1193 794 L1193 663 C1193 321 1039 146 765 146 C502 146 334 321 334 663 L334 794 C334 1134 500 1309 763 1309 C1035 1309 1193 1134 1193 794 L1193 794 Z " />
<glyph glyph-name="uni02AA" unicode="&#x2aa;" horiz-adv-x="1325" d="M908 626 C708 665 641 706 641 791 C641 869 710 948 880 948 C1042 948 1132 852 1132 764 L1323 764 C1323 950 1158 1102 880 1102 C618 1102 451 956 451 785 C451 609 606 526 867 473 C1085 429 1143 379 1143 288 C1143 199 1053 134 886 134 C763 134 562 162 368 304 L368 1536 L176 1536 L176 269 C176 52 294 -20 446 -20 C512 -20 566 -9 598 0 L598 14 C695 -10 794 -20 886 -20 C1156 -20 1333 111 1333 302 C1333 479 1188 572 908 626 L908 626 Z " />
<glyph glyph-name="uni02AD" unicode="&#x2ad;" horiz-adv-x="1057" d="M954 581 L102 581 L102 0 L249 0 L249 462 L808 462 L808 0 L954 0 L954 581 Z M954 1455 L102 1455 L102 874 L249 874 L249 1336 L808 1336 L808 874 L954 874 L954 1455 Z " />
<glyph glyph-name="uni02AF" unicode="&#x2af;" horiz-adv-x="1435" d="M1440 -296 C1421 -300 1391 -302 1369 -302 C1259 -302 1198 -256 1198 -136 L1198 1082 L1006 1082 L1006 360 C970 231 877 139 698 139 C580 139 474 199 474 440 L474 801 C474 995 332 1102 151 1102 C112 1102 70 1097 38 1090 L40 961 C59 965 89 967 111 967 C221 967 282 921 282 801 L282 590 L283 590 L283 442 C283 114 433 -20 663 -20 C821 -20 934 40 1006 139 L1006 -136 C1006 -330 1148 -437 1328 -437 C1367 -437 1410 -432 1442 -425 L1440 -296 Z " />
<glyph glyph-name="uni02B5" unicode="&#x2b5;" horiz-adv-x="682" d="M554 503 C519 503 490 516 490 570 L490 1451 L319 1451 L319 906 C290 841 234 801 153 801 C113 801 80 811 49 825 L49 644 C61 640 91 636 124 636 C204 636 272 679 319 751 L319 559 C319 423 356 330 482 330 C533 330 581 337 633 350 L633 512 C613 508 581 503 554 503 L554 503 Z " />
<glyph glyph-name="uni02B9" unicode="&#x2b9;" horiz-adv-x="382" d="M167 1562 L36 1205 L154 1205 L345 1562 L167 1562 Z " />
<glyph glyph-name="uni02BA" unicode="&#x2ba;" horiz-adv-x="682" d="M169 1562 L38 1205 L156 1205 L347 1562 L169 1562 Z M460 1562 L329 1205 L447 1205 L638 1562 L460 1562 Z " />
<glyph glyph-name="uni02BB" unicode="&#x2bb;" horiz-adv-x="471" d="M92 1177 L92 994 L278 994 L278 1180 C278 1296 314 1393 379 1487 L272 1560 C160 1464 92 1305 92 1177 L92 1177 Z " />
<glyph glyph-name="uni02BC" unicode="&#x2bc;" horiz-adv-x="447" d="M351 1407 L351 1536 L167 1536 L167 1405 C167 1296 131 1206 65 1117 L172 1044 C284 1135 351 1286 351 1407 L351 1407 Z " />
<glyph glyph-name="uni02BD" unicode="&#x2bd;" horiz-adv-x="471" d="M92 1377 L92 1560 L278 1560 L278 1374 C278 1259 314 1162 379 1068 L272 994 C160 1091 92 1249 92 1377 L92 1377 Z " />
<glyph glyph-name="uni02BE" unicode="&#x2be;" horiz-adv-x="327" d="M60 1205 L60 1116 C174 1116 267 1194 267 1309 C267 1423 174 1506 60 1506 L60 1415 C119 1415 164 1370 164 1309 C164 1250 119 1205 60 1205 L60 1205 Z " />
<glyph glyph-name="uni02BF" unicode="&#x2bf;" horiz-adv-x="327" d="M267 1205 L267 1116 C154 1116 60 1194 60 1309 C60 1423 154 1506 267 1506 L267 1415 C208 1415 163 1370 163 1309 C163 1250 208 1205 267 1205 L267 1205 Z " />
<glyph glyph-name="uni02C0" unicode="&#x2c0;" horiz-adv-x="833" d="M373 1805 C176 1805 40 1679 33 1515 L187 1515 C201 1600 258 1658 373 1658 C534 1658 585 1544 585 1406 L585 1313 C585 1173 553 1026 371 1026 L307 1026 L307 651 L479 651 L479 893 C666 934 758 1090 758 1313 L758 1406 C758 1620 627 1805 373 1805 L373 1805 Z " />
<glyph glyph-name="uni02C1" unicode="&#x2c1;" horiz-adv-x="833" d="M459 1805 C206 1805 75 1620 75 1406 L75 1313 C75 1090 166 934 353 893 L353 651 L525 651 L525 1026 L462 1026 C280 1026 247 1173 247 1313 L247 1406 C247 1544 298 1658 459 1658 C575 1658 632 1600 646 1515 L800 1515 C792 1679 657 1805 459 1805 L459 1805 Z " />
<glyph glyph-name="uni02C2" unicode="&#x2c2;" horiz-adv-x="921" d="M853 1162 L853 1329 L68 1029 L68 897 L853 596 L853 764 L342 942 L265 962 L342 981 L853 1162 Z " />
<glyph glyph-name="uni02C3" unicode="&#x2c3;" horiz-adv-x="914" d="M57 1329 L57 1162 L567 981 L644 962 L567 942 L57 764 L57 596 L841 897 L841 1029 L57 1329 Z " />
<glyph glyph-name="uni02C4" unicode="&#x2c4;" horiz-adv-x="884" d="M510 1310 L377 1310 L48 583 L214 583 L417 1043 L443 1133 L467 1043 L672 583 L838 583 L510 1310 Z " />
<glyph glyph-name="uni02C5" unicode="&#x2c5;" horiz-adv-x="890" d="M672 1310 L467 850 L443 760 L417 850 L214 1310 L48 1310 L377 583 L510 583 L838 1310 L672 1310 Z " />
<glyph glyph-name="circumflex" unicode="&#x2c6;" horiz-adv-x="1032" d="M834 1263 L565 1537 L449 1537 L183 1264 L183 1253 L341 1253 L507 1421 L673 1253 L834 1253 L834 1263 Z " />
<glyph glyph-name="caron" unicode="&#x2c7;" horiz-adv-x="977" d="M486 1367 L318 1536 L155 1536 L155 1526 L425 1252 L546 1252 L818 1526 L818 1536 L653 1536 L486 1367 Z " />
<glyph glyph-name="uni02C8" unicode="&#x2c8;" horiz-adv-x="280" d="M212 1151 L212 1559 L68 1559 L68 1151 L212 1151 Z " />
<glyph glyph-name="uni02C9" unicode="&#x2c9;" horiz-adv-x="1013" d="M873 1301 L873 1445 L162 1445 L162 1301 L873 1301 Z " />
<glyph glyph-name="uni02CA" unicode="&#x2ca;" horiz-adv-x="624" d="M305 1536 L91 1242 L249 1242 L535 1536 L305 1536 Z " />
<glyph glyph-name="uni02CB" unicode="&#x2cb;" horiz-adv-x="619" d="M521 1242 L307 1536 L77 1536 L354 1242 L521 1242 Z " />
<glyph glyph-name="uni02CC" unicode="&#x2cc;" horiz-adv-x="280" d="M212 -492 L212 -85 L68 -85 L68 -492 L212 -492 Z " />
<glyph glyph-name="uni02CD" unicode="&#x2cd;" horiz-adv-x="894" d="M807 -299 L807 -155 L96 -155 L96 -299 L807 -299 Z " />
<glyph glyph-name="uni02CE" unicode="&#x2ce;" horiz-adv-x="619" d="M521 -359 L307 -65 L77 -65 L354 -359 L521 -359 Z " />
<glyph glyph-name="uni02CF" unicode="&#x2cf;" horiz-adv-x="624" d="M305 -65 L91 -359 L249 -359 L535 -65 L305 -65 Z " />
<glyph glyph-name="uni02D0" unicode="&#x2d0;" horiz-adv-x="484" d="M231 214 C231 214 104 0 104 0 L380 0 C380 0 251 214 251 214 L231 214 Z M380 1081 C380 1081 104 1081 104 1081 L231 867 C231 867 251 867 251 867 L380 1081 Z " />
<glyph glyph-name="uni02D1" unicode="&#x2d1;" horiz-adv-x="484" d="M380 1081 C380 1081 104 1081 104 1081 L231 867 C231 867 251 867 251 867 L380 1081 Z " />
<glyph glyph-name="uni02D2" unicode="&#x2d2;" horiz-adv-x="327" d="M62 221 L62 132 C176 132 269 210 269 325 C269 439 176 522 62 522 L62 431 C121 431 166 386 166 325 C166 266 121 221 62 221 L62 221 Z " />
<glyph glyph-name="uni02D3" unicode="&#x2d3;" horiz-adv-x="327" d="M267 132 L267 222 C208 222 163 266 163 325 C163 386 208 432 267 432 L267 522 C154 522 60 440 60 325 C60 210 154 132 267 132 L267 132 Z " />
<glyph glyph-name="uni02D5" unicode="&#x2d5;" horiz-adv-x="629" d="M537 537 L92 537 L92 402 L243 402 L243 171 L386 171 L386 402 L537 402 L537 537 Z " />
<glyph glyph-name="uni02D6" unicode="&#x2d6;" horiz-adv-x="629" d="M537 419 L386 419 L386 552 L243 552 L243 419 L92 419 L92 284 L243 284 L243 151 L386 151 L386 284 L537 284 L537 419 Z " />
<glyph glyph-name="uni02D7" unicode="&#x2d7;" horiz-adv-x="624" d="M556 419 L68 419 L68 284 L556 284 L556 419 Z " />
<glyph glyph-name="breve" unicode="&#x2d8;" horiz-adv-x="974" d="M807 1495 L652 1495 C652 1417 602 1348 475 1348 C346 1348 299 1417 299 1495 L143 1495 C143 1338 270 1228 475 1228 C681 1228 807 1338 807 1495 L807 1495 Z " />
<glyph glyph-name="dotaccent" unicode="&#x2d9;" horiz-adv-x="547" d="M273 1475 C199 1475 158 1427 158 1367 C158 1308 199 1261 273 1261 C347 1261 390 1308 390 1367 C390 1427 347 1475 273 1475 L273 1475 Z " />
<glyph glyph-name="ring" unicode="&#x2da;" horiz-adv-x="748" d="M367 1618 C235 1618 136 1525 136 1409 C136 1293 235 1205 367 1205 C498 1205 598 1293 598 1409 C598 1525 498 1618 367 1618 L367 1618 Z M367 1294 C292 1294 239 1351 239 1409 C239 1472 292 1528 367 1528 C443 1528 494 1472 494 1409 C494 1349 443 1294 367 1294 L367 1294 Z " />
<glyph glyph-name="ogonek" unicode="&#x2db;" horiz-adv-x="604" d="M411 0 L328 58 C145 -27 62 -136 62 -243 C62 -369 151 -435 265 -435 C348 -435 400 -411 434 -391 L418 -267 C396 -278 359 -294 311 -294 C248 -294 226 -266 226 -221 C226 -135 316 -64 411 0 L411 0 Z " />
<glyph glyph-name="tilde" unicode="&#x2dc;" horiz-adv-x="1035" d="M891 1501 L762 1513 C762 1450 714 1401 653 1401 C539 1401 487 1496 361 1496 C233 1496 135 1394 135 1247 L263 1241 C263 1303 310 1352 372 1352 C491 1352 516 1258 663 1258 C790 1258 891 1354 891 1501 L891 1501 Z " />
<glyph glyph-name="hungarumlaut" unicode="&#x2dd;" horiz-adv-x="843" d="M304 1535 L112 1232 L268 1232 L506 1535 L304 1535 Z M667 1535 L413 1232 L587 1232 L878 1535 L667 1535 Z " />
<glyph glyph-name="uni02DE" unicode="&#x2de;" horiz-adv-x="481" d="M-209 724 L-209 551 L30 593 C64 449 110 354 274 354 C322 354 371 367 412 386 L380 544 C360 541 339 540 319 540 C212 540 204 626 183 795 L-209 724 Z " />
<glyph glyph-name="uni02DF" unicode="&#x2df;" horiz-adv-x="706" d="M614 1553 L518 1650 L353 1497 L189 1651 L94 1554 L253 1405 L92 1256 L187 1159 L352 1312 L517 1157 L612 1254 L452 1404 L614 1553 Z " />
<glyph glyph-name="uni02E0" unicode="&#x2e0;" horiz-adv-x="922" d="M551 677 L856 1451 L666 1451 L474 915 L461 851 L448 915 L255 1451 L66 1451 L367 685 L289 507 C269 460 255 426 255 392 C255 281 332 217 456 217 C580 217 657 281 657 392 C657 425 648 461 625 512 L551 677 Z M456 355 C420 355 406 375 406 401 C406 435 423 475 456 554 C490 475 506 435 506 401 C506 376 492 355 456 355 L456 355 Z " />
<glyph glyph-name="uni02E1" unicode="&#x2e1;" horiz-adv-x="407" d="M289 651 L289 1805 L118 1805 L118 651 L289 651 Z " />
<glyph glyph-name="uni02E2" unicode="&#x2e2;" horiz-adv-x="847" d="M400 986 C543 955 601 924 601 864 C601 814 544 783 448 783 C349 783 258 806 242 899 L75 899 C75 765 196 636 443 636 C652 636 773 718 773 874 C773 1022 659 1087 456 1130 C328 1157 274 1177 274 1236 C274 1278 315 1319 428 1319 C548 1319 594 1269 597 1216 L765 1216 C765 1353 635 1466 418 1466 C237 1466 103 1379 103 1235 C103 1093 208 1027 400 986 L400 986 Z " />
<glyph glyph-name="uni02E4" unicode="&#x2e4;" horiz-adv-x="899" d="M452 1466 C242 1466 87 1335 87 1103 C87 904 193 790 358 761 L358 651 L529 651 L529 898 L453 898 C306 898 259 979 259 1106 C259 1234 314 1319 452 1319 C559 1319 633 1255 638 1168 L812 1168 C812 1352 649 1466 452 1466 L452 1466 Z " />
<glyph glyph-name="uni02EA" unicode="&#x2ea;" horiz-adv-x="841" d="M357 154 L357 908 L166 908 L166 0 L791 0 L791 154 L357 154 Z " />
<glyph glyph-name="uni02EE" unicode="&#x2ee;" horiz-adv-x="791" d="M379 1377 L379 1560 L193 1560 L193 1374 C193 1259 158 1162 92 1068 L200 994 C312 1091 379 1249 379 1377 L379 1377 Z M699 1377 L699 1560 L513 1560 L513 1374 C513 1259 477 1162 412 1068 L519 994 C632 1091 699 1249 699 1377 L699 1377 Z " />
<glyph glyph-name="uni02EF" unicode="&#x2ef;" horiz-adv-x="689" d="M503 -72 L359 -370 L344 -424 L328 -370 L186 -72 L68 -72 L298 -545 L391 -545 L621 -72 L503 -72 Z " />
<glyph glyph-name="uni02F0" unicode="&#x2f0;" horiz-adv-x="689" d="M391 -72 L298 -72 L68 -545 L186 -545 L328 -246 L344 -192 L359 -246 L503 -545 L621 -545 L391 -72 Z " />
<glyph glyph-name="uni02F1" unicode="&#x2f1;" horiz-adv-x="686" d="M618 -180 L618 -71 L68 -266 L68 -352 L618 -547 L618 -438 L261 -322 L209 -310 L261 -298 L618 -180 Z " />
<glyph glyph-name="uni02F2" unicode="&#x2f2;" horiz-adv-x="686" d="M68 -71 L68 -180 L425 -298 L477 -310 L425 -322 L68 -438 L68 -547 L618 -352 L618 -266 L68 -71 Z " />
<glyph glyph-name="uni02F3" unicode="&#x2f3;" horiz-adv-x="668" d="M334 -75 C235 -75 152 -146 152 -244 C152 -341 235 -407 334 -407 C433 -407 513 -341 513 -244 C513 -146 433 -75 334 -75 L334 -75 Z M334 -327 C285 -327 243 -290 243 -244 C243 -194 285 -156 334 -156 C383 -156 423 -194 423 -244 C423 -291 383 -327 334 -327 L334 -327 Z " />
<glyph glyph-name="uni02F4" unicode="&#x2f4;" horiz-adv-x="619" d="M521 224 L307 518 L77 518 L354 224 L521 224 Z " />
<glyph glyph-name="uni02F5" unicode="&#x2f5;" horiz-adv-x="996" d="M521 224 L307 518 L77 518 L354 224 L521 224 Z M896 225 L682 519 L452 519 L729 225 L896 225 Z " />
<glyph glyph-name="uni02F6" unicode="&#x2f6;" horiz-adv-x="1002" d="M305 518 L91 224 L249 224 L535 518 L305 518 Z M672 519 L458 225 L616 225 L902 519 L672 519 Z " />
<glyph glyph-name="uni02F7" unicode="&#x2f7;" horiz-adv-x="926" d="M844 -177 L716 -165 C716 -228 667 -277 606 -277 C492 -277 440 -182 315 -182 C186 -182 88 -284 88 -431 L216 -437 C216 -375 263 -326 325 -326 C445 -326 470 -420 616 -420 C744 -420 844 -325 844 -177 L844 -177 Z " />
<glyph glyph-name="uni02F8" unicode="&#x2f8;" horiz-adv-x="416" d="M211 612 C133 612 89 563 89 499 C89 437 133 388 211 388 C289 388 333 437 333 499 C333 563 289 612 211 612 L211 612 Z M200 1488 C122 1488 78 1439 78 1375 C78 1313 122 1264 200 1264 C278 1264 322 1313 322 1375 C322 1439 278 1488 200 1488 L200 1488 Z " />
<glyph glyph-name="uni02F9" unicode="&#x2f9;" horiz-adv-x="614" d="M522 1536 L92 1536 L92 1150 L236 1150 L236 1401 L522 1401 L522 1536 Z " />
<glyph glyph-name="uni02FA" unicode="&#x2fa;" horiz-adv-x="614" d="M522 1536 L92 1536 L92 1401 L378 1401 L378 1150 L522 1150 L522 1536 Z " />
<glyph glyph-name="uni02FB" unicode="&#x2fb;" horiz-adv-x="614" d="M236 -340 L236 -89 L92 -89 L92 -475 L522 -475 L522 -340 L236 -340 Z " />
<glyph glyph-name="uni02FC" unicode="&#x2fc;" horiz-adv-x="614" d="M378 -89 L378 -340 L92 -340 L92 -475 L522 -475 L522 -89 L378 -89 Z " />
<glyph glyph-name="uni02FD" unicode="&#x2fd;" horiz-adv-x="907" d="M670 -98 L670 -335 L237 -335 L237 -98 L92 -98 L92 -453 L814 -453 L814 -98 L670 -98 Z " />
<glyph glyph-name="uni02FE" unicode="&#x2fe;" horiz-adv-x="876" d="M237 -356 L237 -89 L92 -89 L92 -475 L784 -475 L784 -356 L237 -356 Z " />
<glyph glyph-name="uni02FF" unicode="&#x2ff;" horiz-adv-x="987" d="M895 -74 L314 -74 L570 169 L400 169 L76 -133 L400 -435 L570 -435 L315 -193 L895 -193 L895 -74 Z " />
<glyph glyph-name="gravecomb" unicode="&#x300;" horiz-adv-x="0" d="M-469 1242 L-677 1536 L-905 1536 L-634 1242 L-469 1242 Z " />
<glyph glyph-name="acutecomb" unicode="&#x301;" horiz-adv-x="0" d="M-486 1536 L-693 1242 L-538 1242 L-257 1536 L-486 1536 Z " />
<glyph glyph-name="uni0302" unicode="&#x302;" horiz-adv-x="0" d="M-294 1263 L-563 1537 L-679 1537 L-945 1264 L-945 1253 L-787 1253 L-621 1421 L-455 1253 L-294 1253 L-294 1263 Z " />
<glyph glyph-name="tildecomb" unicode="&#x303;" horiz-adv-x="0" d="M-183 1501 L-312 1513 C-312 1450 -360 1401 -421 1401 C-535 1401 -587 1496 -713 1496 C-841 1496 -939 1394 -939 1247 L-811 1241 C-811 1303 -764 1352 -702 1352 C-583 1352 -558 1258 -411 1258 C-284 1258 -183 1354 -183 1501 L-183 1501 Z " />
<glyph glyph-name="uni0304" unicode="&#x304;" horiz-adv-x="0" d="M-263 1301 L-263 1445 L-974 1445 L-974 1301 L-263 1301 Z " />
<glyph glyph-name="uni0305" unicode="&#x305;" horiz-adv-x="0" d="M-130 1588 L-130 1742 L-1107 1742 L-1107 1588 L-130 1588 Z " />
<glyph glyph-name="uni0306" unicode="&#x306;" horiz-adv-x="0" d="M-298 1495 L-452 1495 C-452 1417 -499 1348 -621 1348 C-745 1348 -790 1417 -790 1495 L-944 1495 C-944 1338 -820 1228 -621 1228 C-421 1228 -298 1338 -298 1495 L-298 1495 Z " />
<glyph glyph-name="uni0307" unicode="&#x307;" horiz-adv-x="0" d="M-621 1476 C-695 1476 -735 1428 -735 1368 C-735 1309 -695 1263 -621 1263 C-547 1263 -505 1309 -505 1368 C-505 1428 -547 1476 -621 1476 L-621 1476 Z " />
<glyph glyph-name="uni0308" unicode="&#x308;" horiz-adv-x="0" d="M-935 1478 C-1007 1478 -1048 1430 -1048 1370 C-1048 1311 -1007 1265 -935 1265 C-863 1265 -821 1311 -821 1370 C-821 1430 -863 1478 -935 1478 L-935 1478 Z M-465 1476 C-538 1476 -578 1428 -578 1368 C-578 1309 -538 1263 -465 1263 C-393 1263 -351 1309 -351 1368 C-351 1428 -393 1476 -465 1476 L-465 1476 Z " />
<glyph glyph-name="hookabovecomb" unicode="&#x309;" horiz-adv-x="0" d="M-695 1242 L-556 1242 L-555 1313 C-468 1324 -384 1364 -384 1466 C-384 1579 -501 1653 -714 1653 L-722 1546 C-622 1546 -537 1525 -537 1469 C-537 1418 -585 1402 -697 1395 L-695 1242 Z " />
<glyph glyph-name="uni030A" unicode="&#x30a;" horiz-adv-x="0" d="M-623 1618 C-755 1618 -854 1525 -854 1409 C-854 1293 -755 1205 -623 1205 C-492 1205 -392 1293 -392 1409 C-392 1525 -492 1618 -623 1618 L-623 1618 Z M-623 1294 C-698 1294 -751 1351 -751 1409 C-751 1472 -698 1528 -623 1528 C-547 1528 -496 1472 -496 1409 C-496 1349 -547 1294 -623 1294 L-623 1294 Z " />
<glyph glyph-name="uni030B" unicode="&#x30b;" horiz-adv-x="0" d="M-822 1536 L-1036 1242 L-878 1242 L-592 1536 L-822 1536 Z M-350 1536 L-564 1242 L-406 1242 L-120 1536 L-350 1536 Z " />
<glyph glyph-name="uni030C" unicode="&#x30c;" horiz-adv-x="0" d="M-297 1527 L-565 1253 L-681 1253 L-948 1526 L-948 1537 L-789 1537 L-624 1368 L-457 1537 L-297 1537 L-297 1527 Z " />
<glyph glyph-name="uni030D" unicode="&#x30d;" horiz-adv-x="0" d="M-547 1151 L-547 1559 L-691 1559 L-691 1151 L-547 1151 Z " />
<glyph glyph-name="uni030E" unicode="&#x30e;" horiz-adv-x="0" d="M-672 1151 L-672 1559 L-816 1559 L-816 1151 L-672 1151 Z M-355 1151 L-355 1559 L-499 1559 L-499 1151 L-355 1151 Z " />
<glyph glyph-name="uni030F" unicode="&#x30f;" horiz-adv-x="0" d="M-829 1518 L-554 1252 L-731 1252 L-1057 1518 L-829 1518 Z M-484 1518 L-272 1252 L-430 1252 L-695 1518 L-484 1518 Z " />
<glyph glyph-name="uni0310" unicode="&#x310;" horiz-adv-x="0" d="M-298 1486 L-452 1486 C-452 1408 -499 1338 -621 1338 C-745 1338 -790 1407 -790 1486 L-944 1486 C-944 1329 -820 1218 -621 1218 C-421 1218 -298 1329 -298 1486 L-298 1486 Z M-620 1666 C-694 1666 -735 1619 -735 1559 C-735 1499 -694 1453 -620 1453 C-546 1453 -504 1499 -504 1559 C-504 1619 -546 1666 -620 1666 L-620 1666 Z " />
<glyph glyph-name="uni0311" unicode="&#x311;" horiz-adv-x="0" d="M-451 1188 L-297 1188 C-297 1346 -420 1456 -620 1456 C-820 1456 -943 1346 -943 1188 L-789 1188 C-789 1267 -744 1336 -620 1336 C-498 1336 -451 1267 -451 1188 L-451 1188 Z " />
<glyph glyph-name="uni0312" unicode="&#x312;" horiz-adv-x="0" d="M-717 1177 L-717 994 L-531 994 L-531 1180 C-531 1296 -495 1393 -430 1487 L-537 1560 C-649 1464 -717 1305 -717 1177 L-717 1177 Z " />
<glyph glyph-name="uni0313" unicode="&#x313;" horiz-adv-x="0" d="M-486 1378 L-486 1561 L-672 1561 L-672 1375 C-672 1259 -708 1162 -773 1068 L-666 995 C-554 1091 -486 1250 -486 1378 L-486 1378 Z " />
<glyph glyph-name="uni0314" unicode="&#x314;" horiz-adv-x="0" d="M-755 1377 L-755 1560 L-569 1560 L-569 1374 C-569 1259 -533 1162 -468 1068 L-575 994 C-687 1091 -755 1249 -755 1377 L-755 1377 Z " />
<glyph glyph-name="uni0315" unicode="&#x315;" horiz-adv-x="0" d="M66 1378 L66 1561 L-120 1561 L-120 1375 C-120 1259 -156 1162 -221 1068 L-114 995 C-2 1091 66 1250 66 1378 L66 1378 Z " />
<glyph glyph-name="uni0316" unicode="&#x316;" horiz-adv-x="0" d="M-409 -387 L-623 -93 L-853 -93 L-576 -387 L-409 -387 Z " />
<glyph glyph-name="uni0317" unicode="&#x317;" horiz-adv-x="0" d="M-627 -93 L-841 -387 L-683 -387 L-397 -93 L-627 -93 Z " />
<glyph glyph-name="uni0318" unicode="&#x318;" horiz-adv-x="0" d="M-566 -60 L-566 -186 L-837 -186 L-837 -320 L-566 -320 L-566 -446 L-422 -446 L-422 -60 L-566 -60 Z " />
<glyph glyph-name="uni0319" unicode="&#x319;" horiz-adv-x="0" d="M-412 -186 L-684 -186 L-684 -60 L-828 -60 L-828 -446 L-684 -446 L-684 -320 L-412 -320 L-412 -186 Z " />
<glyph glyph-name="uni031A" unicode="&#x31a;" horiz-adv-x="0" d="M-111 1656 L-822 1656 L-822 1537 L-255 1537 L-255 1283 L-111 1283 L-111 1656 Z " />
<glyph glyph-name="uni031B" unicode="&#x31b;" horiz-adv-x="0" d="M-117 1473 L-117 1553 L-303 1553 C-303 1255 -332 1158 -404 1061 L-296 987 C-192 1077 -117 1218 -117 1473 L-117 1473 Z " />
<glyph glyph-name="uni031C" unicode="&#x31c;" horiz-adv-x="0" d="M-475 -385 L-475 -475 C-588 -475 -681 -397 -681 -281 C-681 -167 -588 -84 -475 -84 L-475 -175 C-533 -175 -579 -220 -579 -281 C-579 -341 -533 -385 -475 -385 L-475 -385 Z " />
<glyph glyph-name="uni031D" unicode="&#x31d;" horiz-adv-x="0" d="M-547 -294 L-547 -91 L-690 -91 L-690 -294 L-841 -294 L-841 -429 L-396 -429 L-396 -294 L-547 -294 Z " />
<glyph glyph-name="uni031E" unicode="&#x31e;" horiz-adv-x="0" d="M-398 -92 L-842 -92 L-842 -226 L-692 -226 L-692 -430 L-548 -430 L-548 -226 L-398 -226 L-398 -92 Z " />
<glyph glyph-name="uni031F" unicode="&#x31f;" horiz-adv-x="0" d="M-396 -193 L-547 -193 L-547 -60 L-690 -60 L-690 -193 L-841 -193 L-841 -328 L-690 -328 L-690 -461 L-547 -461 L-547 -328 L-396 -328 L-396 -193 Z " />
<glyph glyph-name="uni0320" unicode="&#x320;" horiz-adv-x="0" d="M-368 -193 L-871 -193 L-871 -328 L-368 -328 L-368 -193 Z " />
<glyph glyph-name="uni0321" unicode="&#x321;" horiz-adv-x="0" d="M-187 146 L-373 146 L-373 -89 C-373 -228 -427 -278 -532 -278 C-556 -278 -587 -275 -610 -269 L-613 -420 C-577 -430 -527 -437 -488 -437 C-284 -437 -187 -314 -187 -89 L-187 146 Z " />
<glyph glyph-name="uni0322" unicode="&#x322;" horiz-adv-x="0" d="M-301 146 L-116 146 L-116 -89 C-116 -228 -63 -278 44 -278 C67 -278 99 -275 121 -269 L124 -420 C87 -430 37 -437 -2 -437 C-206 -437 -301 -314 -301 -89 L-301 146 Z " />
<glyph glyph-name="dotbelowcomb" unicode="&#x323;" horiz-adv-x="0" d="M-651 -138 C-726 -138 -768 -186 -768 -246 C-768 -305 -726 -352 -651 -352 C-577 -352 -534 -305 -534 -246 C-534 -186 -577 -138 -651 -138 L-651 -138 Z " />
<glyph glyph-name="uni0324" unicode="&#x324;" horiz-adv-x="0" d="M-935 -138 C-1007 -138 -1048 -186 -1048 -246 C-1048 -305 -1007 -352 -935 -352 C-863 -352 -822 -305 -822 -246 C-822 -186 -863 -138 -935 -138 L-935 -138 Z M-465 -140 C-538 -140 -578 -188 -578 -248 C-578 -307 -538 -354 -465 -354 C-393 -354 -352 -307 -352 -248 C-352 -188 -393 -140 -465 -140 L-465 -140 Z " />
<glyph glyph-name="uni0325" unicode="&#x325;" horiz-adv-x="0" d="M-623 -50 C-755 -50 -854 -143 -854 -259 C-854 -375 -755 -463 -623 -463 C-492 -463 -392 -375 -392 -259 C-392 -143 -492 -50 -623 -50 L-623 -50 Z M-623 -374 C-698 -374 -751 -317 -751 -259 C-751 -196 -698 -140 -623 -140 C-547 -140 -496 -196 -496 -259 C-496 -319 -547 -374 -623 -374 L-623 -374 Z " />
<glyph glyph-name="uni0326" unicode="&#x326;" horiz-adv-x="0" d="M-492 -226 L-492 -147 L-669 -147 L-669 -229 C-669 -322 -696 -401 -749 -477 L-641 -550 C-543 -469 -492 -332 -492 -226 L-492 -226 Z " />
<glyph glyph-name="uni0327" unicode="&#x327;" horiz-adv-x="0" d="M-565 0 L-705 0 L-738 -135 C-617 -144 -562 -163 -562 -229 C-562 -299 -647 -327 -746 -327 L-738 -435 C-525 -435 -411 -351 -411 -225 C-411 -110 -494 -65 -578 -52 L-565 0 Z " />
<glyph glyph-name="uni0328" unicode="&#x328;" horiz-adv-x="0" d="M-505 0 L-582 58 C-766 -27 -855 -136 -855 -243 C-855 -369 -766 -435 -651 -435 C-568 -435 -516 -411 -482 -391 L-499 -267 C-521 -278 -558 -294 -606 -294 C-669 -294 -690 -266 -690 -221 C-690 -135 -601 -64 -505 0 L-505 0 Z " />
<glyph glyph-name="uni0329" unicode="&#x329;" horiz-adv-x="0" d="M-547 -489 L-547 -81 L-691 -81 L-691 -489 L-547 -489 Z " />
<glyph glyph-name="uni032A" unicode="&#x32a;" horiz-adv-x="0" d="M-260 -110 L-982 -110 L-982 -464 L-837 -464 L-837 -228 L-405 -228 L-405 -464 L-260 -464 L-260 -110 Z " />
<glyph glyph-name="uni032B" unicode="&#x32b;" horiz-adv-x="0" d="M-321 -113 C-321 -188 -374 -236 -444 -236 C-530 -236 -572 -188 -572 -114 L-668 -114 C-668 -188 -711 -236 -797 -236 C-865 -236 -919 -188 -919 -113 L-1016 -113 C-1016 -251 -923 -347 -797 -347 C-719 -347 -659 -318 -620 -269 C-582 -318 -522 -347 -444 -347 C-318 -347 -224 -251 -224 -113 L-321 -113 Z " />
<glyph glyph-name="uni032C" unicode="&#x32c;" horiz-adv-x="0" d="M-295 -140 L-563 -414 L-680 -414 L-946 -141 L-946 -130 L-787 -130 L-622 -298 L-455 -130 L-295 -130 L-295 -140 Z " />
<glyph glyph-name="uni032D" unicode="&#x32d;" horiz-adv-x="0" d="M-293 -394 L-562 -120 L-678 -120 L-944 -393 L-944 -404 L-786 -404 L-620 -236 L-454 -404 L-293 -404 L-293 -394 Z " />
<glyph glyph-name="uni032E" unicode="&#x32e;" horiz-adv-x="0" d="M-297 -96 L-451 -96 C-451 -174 -499 -244 -620 -244 C-744 -244 -789 -174 -789 -96 L-943 -96 C-943 -253 -820 -364 -620 -364 C-420 -364 -297 -253 -297 -96 L-297 -96 Z " />
<glyph glyph-name="uni032F" unicode="&#x32f;" horiz-adv-x="0" d="M-451 -372 L-297 -372 C-297 -215 -420 -104 -620 -104 C-820 -104 -943 -215 -943 -372 L-789 -372 C-789 -293 -744 -224 -620 -224 C-499 -224 -451 -294 -451 -372 L-451 -372 Z " />
<glyph glyph-name="uni0330" unicode="&#x330;" horiz-adv-x="0" d="M-248 -118 L-377 -106 C-377 -169 -425 -218 -486 -218 C-600 -218 -652 -123 -778 -123 C-906 -123 -1004 -225 -1004 -372 L-876 -378 C-876 -316 -829 -267 -767 -267 C-648 -267 -623 -361 -476 -361 C-349 -361 -248 -265 -248 -118 L-248 -118 Z " />
<glyph glyph-name="uni0331" unicode="&#x331;" horiz-adv-x="0" d="M-261 -299 L-261 -155 L-972 -155 L-972 -299 L-261 -299 Z " />
<glyph glyph-name="uni0332" unicode="&#x332;" horiz-adv-x="0" d="M-131 -301 L-131 -147 L-1108 -147 L-1108 -301 L-131 -301 Z " />
<glyph glyph-name="uni0333" unicode="&#x333;" horiz-adv-x="0" d="M-133 -240 L-133 -86 L-1109 -86 L-1109 -240 L-133 -240 Z M-132 -490 L-132 -337 L-1108 -337 L-1108 -490 L-132 -490 Z " />
<glyph glyph-name="uni0334" unicode="&#x334;" horiz-adv-x="0" d="M-235 655 L-364 667 C-364 604 -412 555 -473 555 C-587 555 -639 650 -765 650 C-893 650 -991 548 -991 401 L-863 395 C-863 457 -816 506 -754 506 C-635 506 -610 412 -463 412 C-336 412 -235 508 -235 655 L-235 655 Z " />
<glyph glyph-name="uni0335" unicode="&#x335;" horiz-adv-x="0" d="M-276 462 L-276 615 L-961 615 L-961 462 L-276 462 Z " />
<glyph glyph-name="uni0336" unicode="&#x336;" horiz-adv-x="0" d="M53 461 L53 615 L-1295 615 L-1295 461 L53 461 Z " />
<glyph glyph-name="uni0337" unicode="&#x337;" horiz-adv-x="0" d="M-920 -135 L-207 1209 L-335 1209 L-1048 -135 L-920 -135 Z " />
<glyph glyph-name="uni0338" unicode="&#x338;" horiz-adv-x="0" d="M-1254 -94 L-179 1517 L-282 1517 L-1358 -94 L-1254 -94 Z " />
<glyph glyph-name="uni0339" unicode="&#x339;" horiz-adv-x="0" d="M-722 -385 L-722 -474 C-608 -474 -515 -396 -515 -281 C-515 -167 -608 -84 -722 -84 L-722 -175 C-663 -175 -618 -220 -618 -281 C-618 -340 -663 -385 -722 -385 L-722 -385 Z " />
<glyph glyph-name="uni033A" unicode="&#x33a;" horiz-adv-x="0" d="M-402 -120 L-402 -357 L-835 -357 L-835 -120 L-980 -120 L-980 -475 L-258 -475 L-258 -120 L-402 -120 Z " />
<glyph glyph-name="uni033B" unicode="&#x33b;" horiz-adv-x="0" d="M-833 -80 L-833 -481 L-406 -481 L-406 -80 L-833 -80 Z M-724 -375 L-724 -186 L-515 -186 L-515 -375 L-724 -375 Z " />
<glyph glyph-name="uni033C" unicode="&#x33c;" horiz-adv-x="0" d="M-444 -113 C-522 -113 -582 -143 -620 -192 C-659 -143 -719 -113 -797 -113 C-923 -113 -1016 -211 -1016 -347 L-919 -347 C-919 -272 -865 -224 -797 -224 C-711 -224 -668 -272 -668 -346 L-572 -346 C-572 -272 -530 -224 -444 -224 C-374 -224 -321 -272 -321 -347 L-224 -347 C-224 -211 -318 -113 -444 -113 L-444 -113 Z " />
<glyph glyph-name="uni033D" unicode="&#x33d;" horiz-adv-x="0" d="M-291 1633 L-385 1730 L-548 1577 L-710 1731 L-804 1634 L-647 1485 L-806 1336 L-712 1239 L-549 1392 L-386 1237 L-292 1334 L-450 1484 L-291 1633 Z " />
<glyph glyph-name="uni033E" unicode="&#x33e;" horiz-adv-x="0" d="M-727 1243 L-727 1127 C-589 1127 -508 1185 -508 1278 C-508 1358 -589 1434 -589 1484 C-589 1521 -557 1534 -512 1534 L-512 1650 C-643 1650 -731 1597 -731 1508 C-731 1428 -643 1356 -643 1302 C-643 1274 -673 1243 -727 1243 L-727 1243 Z " />
<glyph glyph-name="uni033F" unicode="&#x33f;" horiz-adv-x="0" d="M-133 1487 L-133 1641 L-1110 1641 L-1110 1487 L-133 1487 Z M-134 1742 L-134 1895 L-1111 1895 L-1111 1742 L-134 1742 Z " />
<glyph glyph-name="uni0340" unicode="&#x340;" horiz-adv-x="0" d="M218 1242 L4 1536 L-226 1536 L51 1242 L218 1242 Z " />
<glyph glyph-name="uni0341" unicode="&#x341;" horiz-adv-x="0" d="M-1 1536 L-215 1242 L-57 1242 L229 1536 L-1 1536 Z " />
<glyph glyph-name="uni0342" unicode="&#x342;" horiz-adv-x="0" d="M-237 1501 L-366 1513 C-366 1450 -414 1401 -475 1401 C-589 1401 -641 1496 -767 1496 C-895 1496 -993 1394 -993 1247 L-865 1241 C-865 1303 -818 1352 -756 1352 C-637 1352 -612 1258 -465 1258 C-338 1258 -237 1354 -237 1501 L-237 1501 Z " />
<glyph glyph-name="uni0343" unicode="&#x343;" horiz-adv-x="0" d="M-1346 1168 L-1346 1247 L-1523 1247 L-1523 1165 C-1523 1072 -1550 993 -1603 917 L-1495 844 C-1397 925 -1346 1062 -1346 1168 L-1346 1168 Z " />
<glyph glyph-name="uni0344" unicode="&#x344;" horiz-adv-x="0" d="M-921 1478 C-993 1478 -1034 1430 -1034 1370 C-1034 1311 -993 1265 -921 1265 C-849 1265 -807 1311 -807 1370 C-807 1430 -849 1478 -921 1478 L-921 1478 Z M-648 1673 L-695 1409 L-558 1409 L-453 1673 L-648 1673 Z M-323 1476 C-395 1476 -436 1428 -436 1368 C-436 1309 -395 1263 -323 1263 C-250 1263 -209 1309 -209 1368 C-209 1428 -250 1476 -323 1476 L-323 1476 Z " />
<glyph glyph-name="uni0345" unicode="&#x345;" horiz-adv-x="0" d="M-553 -70 L-695 -70 L-695 -343 C-695 -473 -628 -526 -524 -526 C-489 -526 -464 -520 -446 -515 L-447 -416 C-459 -418 -478 -421 -496 -421 C-531 -421 -553 -401 -553 -338 L-553 -70 Z " />
<glyph glyph-name="uni0346" unicode="&#x346;" horiz-adv-x="0" d="M-260 1612 L-982 1612 L-982 1226 L-837 1226 L-837 1493 L-405 1493 L-405 1226 L-260 1226 L-260 1612 Z " />
<glyph glyph-name="uni0347" unicode="&#x347;" horiz-adv-x="0" d="M-368 -112 L-871 -112 L-871 -247 L-368 -247 L-368 -112 Z M-368 -329 L-871 -329 L-871 -464 L-368 -464 L-368 -329 Z " />
<glyph glyph-name="uni0348" unicode="&#x348;" horiz-adv-x="0" d="M-684 -489 L-684 -81 L-828 -81 L-828 -489 L-684 -489 Z M-336 -489 L-336 -81 L-480 -81 L-480 -489 L-336 -489 Z " />
<glyph glyph-name="uni0349" unicode="&#x349;" horiz-adv-x="0" d="M-379 -120 L-809 -120 L-809 -255 L-523 -255 L-523 -506 L-379 -506 L-379 -120 Z " />
<glyph glyph-name="uni034A" unicode="&#x34a;" horiz-adv-x="0" d="M-365 1513 C-365 1450 -413 1401 -474 1401 C-496 1401 -516 1405 -534 1410 C-506 1455 -470 1514 -470 1514 L-563 1573 C-563 1573 -602 1511 -634 1459 C-672 1479 -712 1496 -766 1496 C-894 1496 -992 1394 -992 1247 L-864 1241 C-864 1303 -817 1352 -755 1352 C-736 1352 -719 1350 -704 1346 C-730 1303 -766 1246 -766 1246 L-671 1187 L-604 1296 C-569 1276 -528 1258 -464 1258 C-337 1258 -236 1354 -236 1501 L-365 1513 Z " />
<glyph glyph-name="uni034B" unicode="&#x34b;" horiz-adv-x="0" d="M-656 1353 C-731 1353 -771 1306 -771 1245 C-771 1186 -731 1140 -656 1140 C-582 1140 -540 1186 -540 1245 C-540 1306 -582 1353 -656 1353 L-656 1353 Z M-278 1615 L-407 1627 C-407 1564 -455 1515 -516 1515 C-631 1515 -682 1609 -808 1609 C-936 1609 -1035 1508 -1035 1361 L-906 1354 C-906 1417 -859 1465 -797 1465 C-678 1465 -653 1371 -507 1371 C-379 1371 -278 1467 -278 1615 L-278 1615 Z M-656 1849 C-731 1849 -771 1802 -771 1741 C-771 1682 -731 1636 -656 1636 C-582 1636 -540 1682 -540 1741 C-540 1802 -582 1849 -656 1849 L-656 1849 Z " />
<glyph glyph-name="uni034C" unicode="&#x34c;" horiz-adv-x="0" d="M-225 1446 L-354 1455 C-354 1406 -403 1370 -464 1370 C-578 1370 -630 1442 -755 1442 C-884 1442 -982 1364 -982 1253 L-854 1248 C-854 1296 -806 1333 -745 1333 C-625 1333 -600 1261 -454 1261 C-326 1261 -225 1334 -225 1446 L-225 1446 Z M-225 1654 L-354 1664 C-354 1614 -403 1578 -464 1578 C-578 1578 -630 1650 -755 1650 C-884 1650 -982 1572 -982 1461 L-854 1456 C-854 1504 -806 1542 -745 1542 C-625 1542 -600 1469 -454 1469 C-326 1469 -225 1542 -225 1654 L-225 1654 Z " />
<glyph glyph-name="uni034D" unicode="&#x34d;" horiz-adv-x="0" d="M-405 -105 L-524 -105 L-349 -279 L-891 -279 L-716 -105 L-835 -105 L-1062 -328 L-835 -551 L-716 -551 L-889 -377 L-350 -377 L-524 -551 L-405 -551 L-178 -328 L-405 -105 Z " />
<glyph glyph-name="uni034E" unicode="&#x34e;" horiz-adv-x="0" d="M-358 -307 L-621 -95 L-882 -307 L-882 -424 L-669 -248 L-669 -549 L-572 -549 L-572 -248 L-358 -424 L-358 -307 Z " />
<glyph glyph-name="uni034F" unicode="&#x34f;" horiz-adv-x="0" />
<glyph glyph-name="uni0350" unicode="&#x350;" horiz-adv-x="0" d="M-976 1912 L-976 1745 L-474 1564 L-397 1544 L-474 1524 L-976 1347 L-976 1179 L-205 1480 L-205 1611 L-976 1912 Z " />
<glyph glyph-name="uni0351" unicode="&#x351;" horiz-adv-x="0" d="M-684 1309 C-684 1194 -591 1116 -477 1116 L-477 1205 C-536 1205 -581 1250 -581 1309 C-581 1370 -536 1415 -477 1415 L-477 1506 C-591 1506 -684 1423 -684 1309 L-684 1309 Z " />
<glyph glyph-name="uni0352" unicode="&#x352;" horiz-adv-x="0" d="M-623 1384 C-697 1384 -738 1336 -738 1276 C-738 1217 -697 1171 -623 1171 C-549 1171 -507 1217 -507 1276 C-507 1336 -549 1384 -623 1384 L-623 1384 Z M-453 1411 L-299 1411 C-299 1568 -422 1678 -622 1678 C-822 1678 -946 1568 -946 1411 L-791 1411 C-791 1489 -746 1558 -622 1558 C-501 1558 -453 1489 -453 1411 L-453 1411 Z " />
<glyph glyph-name="uni0353" unicode="&#x353;" horiz-adv-x="0" d="M-309 -150 L-399 -58 L-557 -204 L-714 -57 L-803 -149 L-651 -292 L-805 -434 L-715 -527 L-557 -381 L-401 -528 L-311 -436 L-463 -293 L-309 -150 Z " />
<glyph glyph-name="uni0354" unicode="&#x354;" horiz-adv-x="0" d="M-331 -180 L-331 -71 L-881 -266 L-881 -352 L-331 -547 L-331 -438 L-688 -322 L-740 -310 L-688 -298 L-331 -180 Z " />
<glyph glyph-name="uni0355" unicode="&#x355;" horiz-adv-x="0" d="M-853 -71 L-853 -180 L-496 -298 L-444 -310 L-496 -322 L-853 -438 L-853 -547 L-303 -352 L-303 -266 L-853 -71 Z " />
<glyph glyph-name="uni0356" unicode="&#x356;" horiz-adv-x="0" d="M-1053 -180 L-696 -298 L-644 -310 L-696 -322 L-1053 -438 L-1053 -547 L-503 -352 L-503 -266 L-1053 -71 L-1053 -180 Z M-83 -72 L-176 -72 L-406 -545 L-288 -545 L-146 -246 L-130 -192 L-115 -246 L29 -545 L147 -545 L-83 -72 Z " />
<glyph glyph-name="uni0357" unicode="&#x357;" horiz-adv-x="0" d="M-722 1205 L-722 1116 C-608 1116 -515 1194 -515 1309 C-515 1423 -608 1506 -722 1506 L-722 1415 C-663 1415 -618 1370 -618 1309 C-618 1250 -663 1205 -722 1205 L-722 1205 Z " />
<glyph glyph-name="uni0358" unicode="&#x358;" horiz-adv-x="0" d="M-244 1412 C-319 1412 -361 1364 -361 1304 C-361 1245 -319 1198 -244 1198 C-170 1198 -127 1245 -127 1304 C-127 1364 -170 1412 -244 1412 L-244 1412 Z " />
<glyph glyph-name="uni0359" unicode="&#x359;" horiz-adv-x="0" d="M-684 -324 L-802 -471 L-733 -521 L-624 -372 L-513 -524 L-441 -474 L-562 -330 L-384 -282 L-409 -199 L-583 -257 L-577 -73 L-664 -73 L-659 -254 L-835 -196 L-860 -278 L-684 -324 Z " />
<glyph glyph-name="uni035A" unicode="&#x35a;" horiz-adv-x="0" d="M-430 -57 C-504 -57 -568 -88 -609 -136 C-650 -88 -714 -57 -787 -57 C-916 -57 -1014 -150 -1014 -265 C-1014 -382 -916 -470 -787 -470 C-714 -470 -650 -441 -609 -394 C-568 -441 -504 -470 -430 -470 C-303 -470 -204 -382 -204 -265 C-204 -150 -303 -57 -430 -57 L-430 -57 Z M-787 -381 C-861 -381 -912 -324 -912 -265 C-912 -203 -861 -147 -787 -147 C-714 -147 -663 -203 -663 -265 C-663 -326 -714 -381 -787 -381 L-787 -381 Z M-430 -381 C-503 -381 -554 -324 -554 -265 C-554 -203 -503 -147 -430 -147 C-357 -147 -306 -203 -306 -265 C-306 -326 -357 -381 -430 -381 L-430 -381 Z " />
<glyph glyph-name="uni035B" unicode="&#x35b;" horiz-adv-x="0" d="M-571 1661 C-571 1661 -690 1661 -690 1661 L-796 1363 C-796 1363 -563 1363 -563 1363 L-630 1181 C-630 1181 -511 1181 -511 1181 L-404 1479 C-404 1479 -638 1479 -638 1479 L-571 1661 Z " />
<glyph glyph-name="uni035C" unicode="&#x35c;" horiz-adv-x="0" d="M760 -104 L604 -104 C506 -183 292 -283 8 -283 C-279 -283 -490 -183 -589 -104 L-745 -104 C-622 -262 -363 -403 8 -403 C379 -403 637 -262 760 -104 L760 -104 Z " />
<glyph glyph-name="uni035D" unicode="&#x35d;" horiz-adv-x="0" d="M758 1487 L602 1487 C504 1408 290 1308 6 1308 C-281 1308 -492 1408 -591 1487 L-747 1487 C-624 1329 -365 1188 6 1188 C377 1188 635 1329 758 1487 L758 1487 Z " />
<glyph glyph-name="uni035E" unicode="&#x35e;" horiz-adv-x="0" d="M635 1286 L635 1430 L-623 1430 L-623 1286 L635 1286 Z " />
<glyph glyph-name="uni035F" unicode="&#x35f;" horiz-adv-x="0" d="M637 -291 L637 -147 L-621 -147 L-621 -291 L637 -291 Z " />
<glyph glyph-name="uni0360" unicode="&#x360;" horiz-adv-x="0" d="M1023 1492 L913 1523 C888 1442 809 1401 690 1401 C374 1401 -350 1505 -681 1505 C-869 1505 -986 1398 -1011 1276 L-902 1250 C-869 1332 -797 1371 -678 1371 C-352 1371 311 1267 693 1267 C879 1267 999 1358 1023 1492 L1023 1492 Z " />
<glyph glyph-name="uni0361" unicode="&#x361;" horiz-adv-x="0" d="M602 1186 L758 1186 C635 1343 377 1484 6 1484 C-365 1484 -624 1343 -747 1186 L-591 1186 C-492 1265 -281 1364 6 1364 C290 1364 504 1264 602 1186 L602 1186 Z " />
<glyph glyph-name="uni0362" unicode="&#x362;" horiz-adv-x="0" d="M591 -105 L421 -105 L676 -285 L-766 -285 L-766 -374 L677 -374 L421 -554 L591 -554 L915 -329 L591 -105 Z " />
<glyph glyph-name="uni0363" unicode="&#x363;" horiz-adv-x="0" d="M-340 1202 C-355 1243 -362 1284 -362 1332 L-362 1561 C-362 1693 -456 1759 -591 1759 C-734 1759 -828 1688 -828 1591 L-710 1582 C-710 1629 -665 1656 -591 1656 C-519 1656 -486 1623 -486 1562 L-486 1523 L-596 1523 C-768 1523 -861 1462 -861 1356 C-861 1257 -786 1192 -665 1192 C-575 1192 -516 1228 -483 1267 C-479 1244 -474 1222 -466 1202 L-340 1202 Z M-638 1292 C-704 1292 -737 1317 -737 1359 C-737 1403 -687 1441 -594 1441 L-486 1441 L-486 1362 C-509 1327 -573 1292 -638 1292 L-638 1292 Z " />
<glyph glyph-name="uni0364" unicode="&#x364;" horiz-adv-x="0" d="M-343 1488 C-343 1642 -429 1759 -595 1759 C-744 1759 -862 1661 -862 1476 L-862 1454 C-862 1298 -756 1187 -582 1187 C-467 1187 -395 1240 -357 1294 L-421 1357 C-460 1312 -506 1291 -576 1291 C-672 1291 -733 1344 -738 1441 L-343 1441 L-343 1488 Z M-460 1524 L-735 1524 C-723 1610 -677 1656 -595 1656 C-500 1656 -460 1603 -460 1531 L-460 1524 Z " />
<glyph glyph-name="uni0365" unicode="&#x365;" horiz-adv-x="0" d="M-536 1201 L-536 1753 L-661 1753 L-661 1201 L-536 1201 Z M-599 1958 C-647 1958 -673 1927 -673 1887 C-673 1849 -647 1819 -599 1819 C-553 1819 -525 1849 -525 1887 C-525 1927 -553 1958 -599 1958 L-599 1958 Z " />
<glyph glyph-name="uni0366" unicode="&#x366;" horiz-adv-x="0" d="M-878 1467 C-878 1298 -768 1187 -600 1187 C-431 1187 -322 1298 -322 1467 L-322 1479 C-322 1648 -431 1759 -601 1759 C-767 1759 -878 1648 -878 1479 L-878 1467 Z M-447 1467 C-447 1359 -493 1290 -600 1290 C-708 1290 -753 1359 -753 1467 L-753 1479 C-753 1587 -707 1656 -601 1656 C-493 1656 -447 1587 -447 1479 L-447 1467 Z " />
<glyph glyph-name="uni0367" unicode="&#x367;" horiz-adv-x="0" d="M-484 1753 L-484 1364 C-504 1319 -546 1294 -616 1294 C-691 1294 -726 1334 -726 1427 L-726 1753 L-851 1753 L-851 1428 C-851 1259 -774 1191 -647 1191 C-565 1191 -507 1220 -471 1268 L-456 1201 L-360 1201 L-360 1753 L-484 1753 Z " />
<glyph glyph-name="uni0368" unicode="&#x368;" horiz-adv-x="0" d="M-868 1462 C-868 1315 -780 1187 -596 1187 C-462 1187 -354 1274 -349 1372 L-468 1372 C-476 1325 -522 1290 -596 1290 C-695 1290 -743 1366 -743 1462 L-743 1484 C-743 1579 -695 1656 -596 1656 C-514 1656 -471 1606 -468 1559 L-349 1559 C-354 1672 -452 1759 -596 1759 C-780 1759 -868 1632 -868 1484 L-868 1462 Z " />
<glyph glyph-name="uni0369" unicode="&#x369;" horiz-adv-x="0" d="M-469 1993 L-469 1696 C-508 1738 -563 1759 -637 1759 C-787 1759 -878 1646 -878 1478 L-878 1467 C-878 1306 -788 1187 -638 1187 C-559 1187 -501 1211 -462 1257 L-454 1201 L-345 1201 L-345 1993 L-469 1993 Z M-615 1290 C-708 1290 -754 1358 -754 1467 L-754 1478 C-754 1587 -708 1656 -614 1656 C-543 1656 -494 1625 -469 1574 L-469 1375 C-495 1321 -544 1290 -615 1290 L-615 1290 Z " />
<glyph glyph-name="uni036A" unicode="&#x36a;" horiz-adv-x="0" d="M-562 1759 C-635 1759 -689 1736 -726 1697 L-726 1993 L-851 1993 L-851 1201 L-726 1201 L-726 1589 C-705 1633 -664 1657 -595 1657 C-519 1657 -484 1617 -484 1524 L-484 1201 L-360 1201 L-360 1523 C-360 1692 -436 1759 -562 1759 L-562 1759 Z " />
<glyph glyph-name="uni036B" unicode="&#x36b;" horiz-adv-x="0" d="M-375 1759 C-468 1759 -529 1722 -565 1662 C-597 1730 -658 1759 -741 1759 C-824 1759 -881 1730 -918 1682 L-934 1753 L-1030 1753 L-1030 1201 L-905 1201 L-905 1588 C-884 1633 -843 1657 -774 1657 C-698 1657 -662 1617 -662 1524 L-662 1201 L-539 1201 L-539 1523 C-539 1542 -540 1560 -542 1577 C-523 1629 -482 1657 -406 1657 C-331 1657 -296 1617 -296 1524 L-296 1201 L-172 1201 L-172 1523 C-172 1692 -248 1759 -375 1759 L-375 1759 Z " />
<glyph glyph-name="uni036C" unicode="&#x36c;" horiz-adv-x="0" d="M-456 1759 C-526 1759 -577 1731 -611 1684 L-627 1753 L-723 1753 L-723 1201 L-598 1201 L-598 1578 C-579 1627 -538 1653 -470 1653 C-447 1653 -427 1648 -411 1639 L-411 1755 C-420 1757 -437 1759 -456 1759 L-456 1759 Z " />
<glyph glyph-name="uni036D" unicode="&#x36d;" horiz-adv-x="0" d="M-468 1656 L-468 1759 L-578 1759 L-578 1893 L-702 1893 L-702 1759 L-809 1759 L-809 1656 L-702 1656 L-702 1380 C-702 1250 -652 1197 -548 1197 C-514 1197 -488 1203 -470 1208 L-471 1307 C-482 1305 -502 1302 -520 1302 C-555 1302 -578 1322 -578 1385 L-578 1656 L-468 1656 Z " />
<glyph glyph-name="uni036E" unicode="&#x36e;" horiz-adv-x="0" d="M-465 1753 L-589 1396 L-600 1343 L-610 1396 L-736 1753 L-870 1753 L-656 1201 L-545 1201 L-331 1753 L-465 1753 Z " />
<glyph glyph-name="uni036F" unicode="&#x36f;" horiz-adv-x="0" d="M-561 1578 L-677 1753 L-823 1753 L-638 1480 L-830 1201 L-684 1201 L-559 1382 L-435 1201 L-289 1201 L-480 1480 L-296 1753 L-443 1753 L-561 1578 Z " />
<glyph glyph-name="uni037E" unicode="&#x37e;" horiz-adv-x="548" d="M280 1093 C202 1093 158 1044 158 980 C158 918 202 869 280 869 C358 869 402 918 402 980 C402 1044 358 1093 280 1093 L280 1093 Z M391 72 L391 221 L205 221 L205 69 C205 -39 165 -130 97 -218 L206 -292 C322 -200 391 -49 391 72 L391 72 Z " />
<glyph glyph-name="tonos" unicode="&#x384;" horiz-adv-x="599" d="M276 1600 L209 1262 L328 1262 L459 1600 L276 1600 Z " />
<glyph glyph-name="dieresistonos" unicode="&#x385;" horiz-adv-x="1121" d="M251 1478 C179 1478 138 1430 138 1370 C138 1311 179 1265 251 1265 C323 1265 365 1311 365 1370 C365 1430 323 1478 251 1478 L251 1478 Z M524 1673 L477 1409 L614 1409 L719 1673 L524 1673 Z M849 1476 C777 1476 736 1428 736 1368 C736 1309 777 1263 849 1263 C922 1263 963 1309 963 1368 C963 1428 922 1476 849 1476 L849 1476 Z " />
<glyph glyph-name="anoteleia" unicode="&#x387;" horiz-adv-x="587" d="M290 843 C213 843 170 793 170 730 C170 668 213 619 290 619 C367 619 410 668 410 730 C410 793 367 843 290 843 L290 843 Z " />
<glyph glyph-name="uni03F6" unicode="&#x3f6;" horiz-adv-x="997" d="M379 1082 L51 1082 L51 928 L379 928 C600 928 685 782 700 617 L239 617 L239 463 L700 463 C685 298 601 154 379 154 L50 154 L50 0 L379 0 C724 0 894 230 894 520 L894 562 C894 852 723 1082 379 1082 L379 1082 Z " />
<glyph glyph-name="uni0482" unicode="&#x482;" horiz-adv-x="1380" d="M646 447 L873 811 L1183 641 L1258 764 L942 935 L1193 1342 L1023 1342 L817 1012 L504 1183 L432 1057 L745 886 L520 522 L205 693 L136 569 L447 398 L205 0 L377 0 L574 321 L887 151 L958 275 L646 447 Z " />
<glyph glyph-name="uni1AB0" unicode="&#x1ab0;" horiz-adv-x="0" d="M-1033 1253 L-867 1421 L-701 1253 L-521 1253 L-355 1421 L-189 1253 L-29 1253 L-29 1263 L-298 1537 L-413 1537 L-611 1339 L-809 1537 L-925 1537 L-1191 1264 L-1191 1253 L-1033 1253 Z " />
<glyph glyph-name="uni1AB1" unicode="&#x1ab1;" horiz-adv-x="0" d="M-996 1462 C-1069 1462 -1109 1414 -1109 1354 C-1109 1295 -1069 1248 -996 1248 C-923 1248 -882 1295 -882 1354 C-882 1414 -923 1462 -996 1462 L-996 1462 Z M-601 1682 C-733 1682 -832 1589 -832 1473 C-832 1357 -733 1269 -601 1269 C-470 1269 -370 1357 -370 1473 C-370 1589 -470 1682 -601 1682 L-601 1682 Z M-246 1460 C-320 1460 -360 1412 -360 1352 C-360 1293 -320 1246 -246 1246 C-173 1246 -132 1293 -132 1352 C-132 1412 -173 1460 -246 1460 L-246 1460 Z M-601 1358 C-676 1358 -729 1415 -729 1473 C-729 1536 -676 1592 -601 1592 C-525 1592 -474 1536 -474 1473 C-474 1413 -525 1358 -601 1358 L-601 1358 Z " />
<glyph glyph-name="uni1AB2" unicode="&#x1ab2;" horiz-adv-x="0" d="M-353 1662 C-481 1662 -574 1569 -621 1486 C-667 1569 -760 1662 -888 1662 C-1043 1662 -1139 1540 -1139 1392 L-1139 1358 C-1139 1211 -1043 1089 -887 1089 C-759 1089 -667 1182 -621 1264 C-574 1182 -482 1089 -354 1089 C-198 1089 -102 1211 -102 1358 L-102 1392 C-102 1540 -198 1662 -353 1662 L-353 1662 Z M-673 1365 C-682 1319 -758 1187 -887 1187 C-990 1187 -1031 1248 -1031 1358 L-1031 1392 C-1031 1501 -990 1563 -888 1563 C-758 1563 -682 1430 -673 1386 L-673 1365 Z M-211 1358 C-211 1248 -252 1187 -354 1187 C-483 1187 -559 1319 -569 1365 L-569 1386 C-559 1430 -483 1563 -353 1563 C-252 1563 -211 1501 -211 1392 L-211 1358 Z " />
<glyph glyph-name="uni1AB3" unicode="&#x1ab3;" horiz-adv-x="0" d="M-559 1377 L-559 1805 L-682 1805 L-682 1377 L-945 1626 L-945 1458 L-621 1157 L-295 1458 L-295 1626 L-559 1377 Z " />
<glyph glyph-name="uni1AB4" unicode="&#x1ab4;" horiz-adv-x="0" d="M-897 1405 C-972 1405 -1014 1357 -1014 1297 C-1014 1238 -972 1191 -897 1191 C-823 1191 -780 1238 -780 1297 C-780 1357 -823 1405 -897 1405 L-897 1405 Z M-469 1410 C-544 1410 -586 1362 -586 1302 C-586 1243 -544 1196 -469 1196 C-395 1196 -352 1243 -352 1302 C-352 1362 -395 1410 -469 1410 L-469 1410 Z M-665 1705 C-740 1705 -782 1657 -782 1597 C-782 1538 -740 1491 -665 1491 C-591 1491 -548 1538 -548 1597 C-548 1657 -591 1705 -665 1705 L-665 1705 Z " />
<glyph glyph-name="uni1AB5" unicode="&#x1ab5;" horiz-adv-x="0" d="M-920 -262 L-1036 -127 L-1182 -127 L-997 -337 L-1189 -552 L-1043 -552 L-918 -413 L-794 -552 L-648 -552 L-839 -337 L-655 -127 L-802 -127 L-920 -262 Z M-269 -262 L-385 -127 L-531 -127 L-346 -337 L-538 -552 L-392 -552 L-267 -413 L-143 -552 L3 -552 L-188 -337 L-4 -127 L-151 -127 L-269 -262 Z " />
<glyph glyph-name="uni1AB6" unicode="&#x1ab6;" horiz-adv-x="0" d="M-137 -125 C-267 -125 -307 -220 -388 -220 C-470 -220 -510 -125 -621 -125 C-731 -125 -771 -220 -852 -220 C-934 -220 -974 -125 -1097 -125 C-1196 -125 -1278 -200 -1298 -296 L-1187 -344 C-1173 -300 -1136 -269 -1085 -269 C-984 -269 -970 -364 -852 -364 C-735 -364 -721 -269 -621 -269 C-520 -269 -506 -364 -388 -364 C-270 -364 -257 -269 -157 -269 C-105 -269 -66 -302 -52 -347 L57 -298 C37 -202 -43 -125 -137 -125 L-137 -125 Z " />
<glyph glyph-name="uni1AB7" unicode="&#x1ab7;" horiz-adv-x="0" d="M-543 -100 L-706 -100 L-706 -287 C-706 -460 -622 -555 -439 -555 C-404 -555 -361 -549 -327 -540 L-331 -408 C-351 -413 -379 -416 -400 -416 C-498 -416 -543 -380 -543 -287 L-543 -100 Z " />
<glyph glyph-name="uni1AB8" unicode="&#x1ab8;" horiz-adv-x="0" d="M-235 -408 C-255 -413 -283 -416 -304 -416 C-402 -416 -447 -380 -447 -287 L-447 -100 L-610 -100 L-610 -287 C-610 -334 -604 -375 -591 -410 C-610 -414 -634 -416 -653 -416 C-751 -416 -796 -380 -796 -287 L-796 -100 L-959 -100 L-959 -287 C-959 -460 -875 -555 -692 -555 C-657 -555 -614 -549 -580 -540 L-583 -429 C-546 -511 -467 -555 -343 -555 C-308 -555 -265 -549 -231 -540 L-235 -408 Z " />
<glyph glyph-name="uni1AB9" unicode="&#x1ab9;" horiz-adv-x="0" d="M-565 -498 L-194 75 L-303 140 L-673 -431 L-565 -498 Z " />
<glyph glyph-name="uni1ABA" unicode="&#x1aba;" horiz-adv-x="0" d="M-193 75 L-302 140 L-584 -293 C-644 -295 -692 -343 -692 -403 C-692 -461 -642 -510 -581 -510 C-519 -510 -468 -461 -468 -403 C-468 -388 -471 -374 -477 -361 L-193 75 Z " />
<glyph glyph-name="uni1ABB" unicode="&#x1abb;" horiz-adv-x="0" d="M-1158 1498 C-1158 1374 -1044 1301 -963 1280 L-952 1349 C-1005 1373 -1062 1412 -1062 1498 C-1062 1576 -1007 1620 -952 1642 L-963 1713 C-1044 1692 -1158 1620 -1158 1498 L-1158 1498 Z M-244 1349 L-234 1280 C-151 1301 -37 1374 -37 1498 C-37 1620 -151 1692 -234 1713 L-244 1642 C-189 1620 -134 1579 -134 1498 C-134 1411 -190 1373 -244 1349 L-244 1349 Z " />
<glyph glyph-name="uni1ABC" unicode="&#x1abc;" horiz-adv-x="0" d="M-1361 1498 C-1361 1374 -1247 1301 -1165 1280 L-1155 1349 C-1208 1373 -1265 1412 -1265 1498 C-1265 1576 -1210 1620 -1155 1642 L-1165 1713 C-1247 1692 -1361 1620 -1361 1498 L-1361 1498 Z M-1156 1498 C-1156 1374 -1042 1301 -961 1280 L-950 1349 C-1004 1373 -1060 1412 -1060 1498 C-1060 1576 -1005 1620 -950 1642 L-961 1713 C-1042 1692 -1156 1620 -1156 1498 L-1156 1498 Z M-242 1349 L-232 1280 C-150 1301 -36 1374 -36 1498 C-36 1620 -150 1692 -232 1713 L-242 1642 C-187 1620 -132 1579 -132 1498 C-132 1411 -189 1373 -242 1349 L-242 1349 Z M-37 1349 L-27 1280 C55 1301 169 1374 169 1498 C169 1620 55 1692 -27 1713 L-37 1642 C18 1620 73 1579 73 1498 C73 1411 16 1373 -37 1349 L-37 1349 Z " />
<glyph glyph-name="uni1ABD" unicode="&#x1abd;" horiz-adv-x="0" d="M-1174 -323 C-1174 -448 -1060 -520 -979 -541 L-968 -472 C-1022 -448 -1078 -409 -1078 -323 C-1078 -245 -1024 -201 -968 -180 L-979 -108 C-1060 -129 -1174 -202 -1174 -323 L-1174 -323 Z M-260 -472 L-250 -541 C-168 -520 -53 -448 -53 -323 C-53 -201 -168 -129 -250 -108 L-260 -180 C-205 -201 -150 -242 -150 -323 C-150 -410 -206 -448 -260 -472 L-260 -472 Z " />
<glyph glyph-name="uni1ABE" unicode="&#x1abe;" horiz-adv-x="0" d="M-1367 591 C-1367 466 -1253 394 -1172 373 L-1161 442 C-1215 466 -1271 505 -1271 591 C-1271 669 -1217 713 -1161 734 L-1172 806 C-1253 785 -1367 712 -1367 591 L-1367 591 Z M-38 442 L-28 373 C54 394 168 466 168 591 C168 713 54 785 -28 806 L-38 734 C16 713 72 672 72 591 C72 504 15 466 -38 442 L-38 442 Z " />
<glyph glyph-name="uni1DC0" unicode="&#x1dc0;" horiz-adv-x="0" d="M-927 1398 C-1001 1398 -1041 1351 -1041 1290 C-1041 1231 -1001 1185 -927 1185 C-853 1185 -811 1231 -811 1290 C-811 1351 -853 1398 -927 1398 L-927 1398 Z M-470 1241 L-679 1535 L-906 1535 L-636 1241 L-470 1241 Z M-364 1497 C-439 1497 -479 1450 -479 1389 C-479 1330 -439 1284 -364 1284 C-290 1284 -249 1330 -249 1389 C-249 1450 -290 1497 -364 1497 L-364 1497 Z " />
<glyph glyph-name="uni1DC1" unicode="&#x1dc1;" horiz-adv-x="0" d="M-946 1497 C-1020 1497 -1061 1450 -1061 1389 C-1061 1330 -1020 1284 -946 1284 C-872 1284 -830 1330 -830 1389 C-830 1450 -872 1497 -946 1497 L-946 1497 Z M-626 1535 L-834 1241 L-678 1241 L-398 1535 L-626 1535 Z M-389 1398 C-463 1398 -504 1351 -504 1290 C-504 1231 -463 1185 -389 1185 C-316 1185 -274 1231 -274 1290 C-274 1351 -316 1398 -389 1398 L-389 1398 Z " />
<glyph glyph-name="uni1DC2" unicode="&#x1dc2;" horiz-adv-x="0" d="M-598 -89 C-669 -89 -744 -108 -807 -144 L-761 -214 C-713 -192 -662 -176 -612 -176 C-585 -176 -568 -182 -568 -199 C-568 -224 -730 -237 -730 -297 C-730 -356 -567 -353 -567 -375 C-567 -404 -729 -385 -729 -456 C-729 -513 -631 -545 -492 -555 L-473 -481 C-564 -476 -617 -467 -617 -455 C-617 -430 -452 -446 -452 -372 C-452 -306 -617 -313 -617 -290 C-617 -263 -464 -268 -464 -184 C-464 -136 -504 -89 -598 -89 L-598 -89 Z " />
<glyph glyph-name="uni1DC3" unicode="&#x1dc3;" horiz-adv-x="0" d="M-217 1561 L-590 1371 L-793 1480 L-865 1355 L-592 1208 L-145 1436 L-217 1561 Z " />
<glyph glyph-name="uni1DC5" unicode="&#x1dc5;" horiz-adv-x="0" d="M-985 1535 L-753 1241 L-256 1241 L-256 1385 L-683 1385 L-774 1535 L-985 1535 Z " />
<glyph glyph-name="uni1DC6" unicode="&#x1dc6;" horiz-adv-x="0" d="M-885 1535 L-885 1391 L-470 1391 L-323 1241 L-159 1241 L-367 1535 L-885 1535 Z " />
<glyph glyph-name="uni1DC7" unicode="&#x1dc7;" horiz-adv-x="0" d="M-733 1535 L-941 1241 L-775 1241 L-629 1391 L-217 1391 L-217 1535 L-733 1535 Z " />
<glyph glyph-name="uni1DC8" unicode="&#x1dc8;" horiz-adv-x="0" d="M-1022 1535 L-803 1241 L-602 1241 L-447 1420 L-300 1241 L-146 1241 L-310 1535 L-575 1535 L-698 1369 L-814 1535 L-1022 1535 Z " />
<glyph glyph-name="uni1DC9" unicode="&#x1dc9;" horiz-adv-x="0" d="M-776 1535 L-940 1241 L-788 1241 L-642 1419 L-488 1241 L-289 1241 L-70 1535 L-278 1535 L-393 1370 L-515 1535 L-776 1535 Z " />
<glyph glyph-name="uni1DCA" unicode="&#x1dca;" horiz-adv-x="0" d="M-459 -121 C-529 -121 -580 -149 -614 -196 L-630 -127 L-725 -127 L-725 -550 L-601 -550 L-601 -304 C-583 -254 -542 -227 -472 -227 C-449 -227 -430 -232 -413 -242 L-413 -126 C-423 -123 -440 -121 -459 -121 L-459 -121 Z " />
<glyph glyph-name="uni1DCB" unicode="&#x1dcb;" horiz-adv-x="0" d="M-641 1351 L42 1351 L42 1495 L-756 1495 C-756 1417 -804 1348 -925 1348 C-1049 1348 -1094 1417 -1094 1495 L-1249 1495 C-1249 1338 -1125 1228 -925 1228 C-788 1228 -690 1275 -641 1351 L-641 1351 Z " />
<glyph glyph-name="uni1DCC" unicode="&#x1dcc;" horiz-adv-x="0" d="M-603 1351 C-555 1275 -454 1228 -318 1228 C-118 1228 4 1338 4 1495 L-149 1495 C-149 1417 -197 1348 -318 1348 C-442 1348 -488 1417 -488 1495 L-1286 1495 L-1286 1351 L-603 1351 Z " />
<glyph glyph-name="uni1DCD" unicode="&#x1dcd;" horiz-adv-x="0" d="M931 1277 L68 1516 L-57 1516 L-917 1279 L-917 1252 L-719 1194 L5 1401 L731 1194 L931 1252 L931 1277 Z " />
<glyph glyph-name="uni1DCE" unicode="&#x1dce;" horiz-adv-x="0" d="M-720 1067 L-637 1009 C-454 1094 -371 1203 -371 1310 C-371 1436 -460 1502 -574 1502 C-657 1502 -709 1478 -743 1458 L-727 1334 C-705 1345 -668 1361 -620 1361 C-557 1361 -535 1333 -535 1288 C-535 1202 -625 1131 -720 1067 L-720 1067 Z " />
<glyph glyph-name="uni1DCF" unicode="&#x1dcf;" horiz-adv-x="0" d="M-476 -277 C-476 -277 -516 -277 -538 -277 L-672 -277 L-621 -111 L-759 -111 L-845 -389 L-572 -389 L-623 -555 L-485 -555 L-399 -277 L-476 -277 Z " />
<glyph glyph-name="uni1DD0" unicode="&#x1dd0;" horiz-adv-x="0" d="M-564 -66 L-698 -66 C-698 -66 -845 -420 -845 -420 L-757 -465 C-691 -432 -639 -406 -579 -406 C-490 -406 -403 -481 -285 -481 C-162 -481 -106 -376 -95 -282 L-202 -248 C-218 -305 -253 -334 -308 -334 C-387 -334 -446 -270 -530 -270 C-573 -270 -619 -288 -673 -319 L-564 -66 Z " />
<glyph glyph-name="uni1DD1" unicode="&#x1dd1;" horiz-adv-x="0" d="M-413 1310 C-413 1263 -443 1240 -487 1240 C-529 1240 -556 1260 -583 1332 C-608 1402 -658 1471 -765 1471 C-869 1471 -936 1407 -936 1318 C-936 1223 -855 1154 -751 1154 L-751 1237 C-807 1244 -839 1266 -839 1318 C-839 1359 -811 1380 -767 1380 C-725 1380 -699 1355 -679 1303 C-641 1206 -600 1150 -491 1150 C-378 1150 -316 1224 -316 1312 C-316 1421 -410 1484 -508 1484 L-508 1401 C-435 1397 -413 1351 -413 1310 L-413 1310 Z " />
<glyph glyph-name="uni1DD2" unicode="&#x1dd2;" horiz-adv-x="0" d="M-918 1658 C-918 1491 -790 1426 -658 1426 C-588 1426 -543 1441 -506 1464 L-533 1540 C-561 1528 -592 1522 -640 1522 C-742 1522 -794 1568 -794 1663 C-794 1751 -725 1811 -625 1811 C-518 1811 -446 1739 -446 1608 C-446 1355 -615 1292 -754 1251 L-718 1150 C-527 1196 -321 1308 -321 1611 C-321 1798 -448 1914 -629 1914 C-788 1914 -918 1810 -918 1658 L-918 1658 Z " />
<glyph glyph-name="uni1DD3" unicode="&#x1dd3;" horiz-adv-x="0" d="M-328 1388 C-328 1327 -365 1295 -436 1295 C-507 1295 -560 1329 -560 1388 L-676 1388 C-676 1327 -713 1295 -784 1295 C-855 1295 -899 1329 -899 1388 L-1018 1388 C-1018 1268 -924 1192 -784 1192 C-708 1192 -649 1213 -612 1254 C-573 1214 -512 1192 -436 1192 C-300 1192 -203 1257 -203 1388 L-328 1388 Z " />
<glyph glyph-name="uni1DD4" unicode="&#x1dd4;" horiz-adv-x="0" d="M-169 1488 C-169 1642 -255 1759 -421 1759 C-495 1759 -561 1735 -609 1688 C-649 1735 -716 1759 -796 1759 C-940 1759 -1033 1688 -1033 1591 L-916 1582 C-916 1629 -870 1656 -797 1656 C-725 1656 -692 1623 -692 1562 L-692 1523 L-801 1523 C-974 1523 -1067 1462 -1067 1356 C-1067 1257 -992 1192 -871 1192 C-759 1192 -686 1247 -654 1315 C-610 1236 -524 1187 -408 1187 C-293 1187 -221 1240 -183 1294 L-247 1357 C-286 1312 -332 1291 -402 1291 C-498 1291 -559 1344 -564 1441 L-169 1441 L-169 1488 Z M-843 1292 C-910 1292 -942 1317 -942 1359 C-942 1403 -893 1441 -800 1441 L-688 1441 C-687 1418 -684 1397 -678 1377 C-706 1326 -774 1292 -843 1292 L-843 1292 Z M-286 1524 L-561 1524 C-549 1610 -503 1656 -421 1656 C-326 1656 -286 1603 -286 1531 L-286 1524 Z " />
<glyph glyph-name="uni1DD5" unicode="&#x1dd5;" horiz-adv-x="0" d="M-412 1759 C-493 1759 -561 1733 -609 1686 C-649 1735 -716 1759 -797 1759 C-941 1759 -1035 1688 -1035 1591 L-917 1582 C-917 1629 -871 1656 -798 1656 C-726 1656 -693 1623 -693 1562 L-693 1523 L-803 1523 C-975 1523 -1068 1462 -1068 1356 C-1068 1257 -993 1192 -872 1192 C-759 1192 -685 1248 -654 1318 C-609 1236 -523 1187 -411 1187 C-242 1187 -133 1298 -133 1467 L-133 1479 C-133 1648 -242 1759 -412 1759 L-412 1759 Z M-845 1292 C-911 1292 -943 1317 -943 1359 C-943 1403 -894 1441 -801 1441 L-688 1441 C-687 1419 -683 1399 -678 1380 C-705 1328 -774 1292 -845 1292 L-845 1292 Z M-258 1467 C-258 1359 -304 1290 -411 1290 C-519 1290 -564 1359 -564 1467 L-564 1479 C-564 1587 -518 1656 -412 1656 C-304 1656 -258 1587 -258 1479 L-258 1467 Z " />
<glyph glyph-name="uni1DD6" unicode="&#x1dd6;" horiz-adv-x="0" d="M-383 1754 L-541 1395 L-558 1340 L-558 1561 C-558 1693 -652 1759 -787 1759 C-930 1759 -1024 1688 -1024 1591 L-906 1582 C-906 1629 -861 1656 -787 1656 C-715 1656 -682 1623 -682 1562 L-682 1523 L-792 1523 C-964 1523 -1057 1462 -1057 1356 C-1057 1257 -982 1192 -861 1192 C-771 1192 -712 1228 -679 1267 C-675 1244 -670 1222 -662 1202 L-493 1202 L-247 1754 L-383 1754 Z M-834 1292 C-900 1292 -933 1317 -933 1359 C-933 1403 -883 1441 -790 1441 L-682 1441 L-682 1362 C-705 1327 -769 1292 -834 1292 L-834 1292 Z " />
<glyph glyph-name="uni1DD7" unicode="&#x1dd7;" horiz-adv-x="0" d="M-594 1290 C-693 1290 -741 1366 -741 1462 L-741 1484 C-741 1579 -693 1656 -594 1656 C-512 1656 -469 1606 -466 1559 L-347 1559 C-352 1672 -450 1759 -594 1759 C-778 1759 -866 1632 -866 1484 L-866 1462 C-866 1330 -795 1214 -648 1191 L-665 1125 C-611 1120 -581 1116 -581 1086 C-581 1055 -615 1045 -668 1044 L-663 978 C-546 979 -481 1020 -481 1084 C-481 1143 -518 1162 -570 1172 L-566 1188 C-445 1199 -352 1281 -347 1372 L-466 1372 C-474 1325 -520 1290 -594 1290 L-594 1290 Z " />
<glyph glyph-name="uni1DD8" unicode="&#x1dd8;" horiz-adv-x="0" d="M-695 1994 L-736 1895 C-632 1863 -526 1792 -483 1663 C-523 1687 -572 1702 -623 1702 C-779 1702 -898 1599 -898 1442 C-898 1303 -779 1192 -619 1192 C-462 1192 -338 1308 -338 1476 L-338 1527 C-338 1766 -502 1946 -695 1994 L-695 1994 Z M-462 1476 C-462 1359 -523 1295 -619 1295 C-723 1295 -774 1358 -774 1442 C-774 1531 -730 1599 -621 1599 C-534 1599 -486 1579 -463 1552 C-462 1544 -462 1536 -462 1528 L-462 1476 Z " />
<glyph glyph-name="uni1DD9" unicode="&#x1dd9;" horiz-adv-x="0" d="M-466 1858 L-345 1922 L-384 1974 L-516 1904 C-569 1947 -630 1978 -695 1994 L-736 1895 C-699 1883 -661 1867 -627 1845 L-743 1783 L-705 1731 L-571 1802 C-533 1766 -502 1720 -483 1663 C-523 1687 -572 1702 -623 1702 C-779 1702 -898 1599 -898 1442 C-898 1303 -779 1192 -619 1192 C-462 1192 -338 1308 -338 1476 L-338 1527 C-338 1660 -388 1774 -466 1858 L-466 1858 Z M-462 1476 C-462 1359 -523 1295 -619 1295 C-723 1295 -774 1358 -774 1442 C-774 1531 -730 1599 -621 1599 C-534 1599 -486 1579 -463 1552 C-462 1544 -462 1536 -462 1528 L-462 1476 Z " />
<glyph glyph-name="uni1DDA" unicode="&#x1dda;" horiz-adv-x="0" d="M-456 1753 L-464 1685 C-503 1736 -559 1764 -637 1764 C-782 1764 -887 1651 -887 1482 L-887 1471 C-887 1311 -781 1191 -639 1191 C-565 1191 -509 1217 -470 1262 L-470 1209 C-470 1113 -531 1087 -629 1087 C-685 1087 -747 1104 -796 1161 L-855 1082 C-802 1014 -708 984 -623 984 C-474 984 -345 1048 -345 1214 L-345 1753 L-456 1753 Z M-615 1294 C-720 1294 -763 1363 -763 1471 L-763 1482 C-763 1591 -716 1661 -614 1661 C-541 1661 -496 1637 -470 1597 L-470 1361 C-497 1318 -542 1294 -615 1294 L-615 1294 Z " />
<glyph glyph-name="uni1DDB" unicode="&#x1ddb;" horiz-adv-x="0" d="M-902 1434 C-902 1290 -780 1191 -614 1191 C-468 1191 -366 1245 -340 1280 L-340 1519 L-604 1519 L-604 1416 L-464 1416 L-464 1329 C-481 1315 -522 1294 -614 1294 C-725 1294 -777 1340 -777 1450 L-777 1532 C-777 1653 -723 1698 -617 1698 C-517 1698 -483 1672 -470 1616 L-355 1616 C-366 1722 -453 1801 -617 1801 C-780 1801 -902 1703 -902 1558 L-902 1434 Z " />
<glyph glyph-name="uni1DDC" unicode="&#x1ddc;" horiz-adv-x="0" d="M-467 1201 L-325 1201 L-582 1531 L-364 1753 L-502 1753 L-686 1573 L-732 1519 L-732 1997 L-857 1997 L-857 1201 L-732 1201 L-732 1377 L-662 1449 L-467 1201 Z " />
<glyph glyph-name="uni1DDD" unicode="&#x1ddd;" horiz-adv-x="0" d="M-558 1993 L-682 1993 L-682 1201 L-558 1201 L-558 1993 Z " />
<glyph glyph-name="uni1DDE" unicode="&#x1dde;" horiz-adv-x="0" d="M-678 1304 L-678 1796 L-802 1796 L-802 1201 L-384 1201 L-384 1304 L-678 1304 Z " />
<glyph glyph-name="uni1DDF" unicode="&#x1ddf;" horiz-adv-x="0" d="M-265 1796 L-414 1796 L-619 1339 L-825 1796 L-977 1796 L-977 1201 L-853 1201 L-853 1610 L-671 1201 L-569 1201 L-389 1604 L-389 1201 L-265 1201 L-265 1796 Z " />
<glyph glyph-name="uni1DE0" unicode="&#x1de0;" horiz-adv-x="0" d="M-589 1763 C-671 1763 -729 1734 -765 1686 L-780 1753 L-876 1753 L-876 1201 L-752 1201 L-752 1590 C-732 1635 -690 1660 -620 1660 C-545 1660 -510 1620 -510 1527 L-510 1201 L-385 1201 L-385 1526 C-385 1695 -462 1763 -589 1763 L-589 1763 Z " />
<glyph glyph-name="uni1DE1" unicode="&#x1de1;" horiz-adv-x="0" d="M-462 1796 L-462 1384 L-805 1796 L-929 1796 L-929 1201 L-805 1201 L-805 1614 L-462 1201 L-337 1201 L-337 1796 L-462 1796 Z " />
<glyph glyph-name="uni1DE2" unicode="&#x1de2;" horiz-adv-x="0" d="M-377 1299 L-377 1349 C-377 1415 -402 1468 -477 1491 C-414 1526 -376 1563 -376 1622 C-376 1732 -462 1796 -610 1796 L-886 1796 L-886 1201 L-762 1201 L-762 1422 L-620 1422 C-543 1422 -501 1411 -501 1349 L-501 1300 C-501 1281 -501 1222 -483 1201 L-355 1201 L-355 1211 C-372 1230 -377 1271 -377 1299 L-377 1299 Z M-762 1525 L-762 1693 L-610 1693 C-542 1693 -501 1669 -501 1616 C-501 1560 -541 1525 -610 1525 L-762 1525 Z " />
<glyph glyph-name="uni1DE3" unicode="&#x1de3;" horiz-adv-x="0" d="M-539 1402 C-470 1446 -408 1505 -408 1589 C-408 1696 -499 1762 -616 1762 C-688 1762 -762 1736 -818 1694 L-761 1621 C-722 1639 -679 1658 -626 1658 C-573 1658 -536 1632 -536 1580 C-536 1510 -591 1477 -697 1424 L-542 1201 L-407 1201 L-407 1205 L-539 1402 Z " />
<glyph glyph-name="uni1DE4" unicode="&#x1de4;" horiz-adv-x="0" d="M-649 1436 C-536 1412 -507 1391 -507 1352 C-507 1315 -542 1289 -620 1289 C-686 1289 -754 1309 -761 1374 L-877 1374 C-877 1283 -785 1193 -622 1193 C-490 1193 -383 1248 -383 1357 C-383 1458 -464 1497 -609 1530 C-699 1551 -733 1569 -733 1606 C-733 1646 -699 1669 -631 1669 C-548 1669 -511 1640 -504 1593 L-388 1593 C-388 1688 -489 1765 -631 1765 C-763 1765 -856 1704 -856 1605 C-856 1505 -759 1459 -649 1436 L-649 1436 Z " />
<glyph glyph-name="uni1DE5" unicode="&#x1de5;" horiz-adv-x="0" d="M-688 1201 L-564 1201 L-564 1810 C-564 1877 -525 1905 -471 1905 C-451 1905 -434 1903 -419 1899 L-407 1997 C-433 2003 -459 2008 -485 2008 C-600 2008 -688 1943 -688 1810 L-688 1201 Z " />
<glyph glyph-name="uni1DE6" unicode="&#x1de6;" horiz-adv-x="0" d="M-700 1305 L-402 1661 L-402 1753 L-849 1753 L-849 1650 L-553 1650 L-856 1297 L-856 1201 L-385 1201 L-385 1305 L-700 1305 Z " />
<glyph glyph-name="uni1DE7" unicode="&#x1de7;" horiz-adv-x="0" d="M-324 1292 C-330 1291 -337 1290 -345 1290 C-369 1290 -389 1309 -389 1353 L-389 1754 L-500 1754 L-508 1678 C-546 1733 -601 1764 -679 1764 C-832 1764 -926 1642 -926 1468 L-926 1457 C-926 1302 -830 1191 -680 1191 C-600 1191 -543 1223 -506 1280 C-491 1217 -454 1191 -395 1191 C-365 1191 -336 1194 -314 1208 L-324 1292 Z M-656 1294 C-758 1294 -801 1354 -801 1457 L-801 1468 C-801 1586 -755 1661 -655 1661 C-587 1661 -541 1627 -513 1574 L-513 1378 C-541 1326 -585 1294 -656 1294 L-656 1294 Z " />
<glyph glyph-name="uni1DE8" unicode="&#x1de8;" horiz-adv-x="0" d="M-595 1759 C-669 1759 -724 1738 -763 1696 L-763 1993 L-887 1993 L-887 1201 L-778 1201 L-770 1257 C-731 1211 -673 1187 -594 1187 C-444 1187 -354 1306 -354 1467 L-354 1478 C-354 1646 -445 1759 -595 1759 L-595 1759 Z M-478 1467 C-478 1358 -524 1290 -617 1290 C-687 1290 -736 1321 -763 1374 L-763 1575 C-738 1625 -689 1656 -619 1656 C-524 1656 -478 1587 -478 1478 L-478 1467 Z " />
<glyph glyph-name="uni1DE9" unicode="&#x1de9;" horiz-adv-x="0" d="M-487 1606 C-426 1636 -388 1689 -388 1764 C-388 1881 -490 1954 -632 1954 C-764 1954 -901 1890 -901 1721 L-901 1005 L-777 1005 L-777 1238 C-730 1205 -666 1191 -607 1191 C-445 1191 -339 1273 -339 1418 C-339 1505 -391 1576 -487 1606 L-487 1606 Z M-618 1287 C-691 1287 -745 1315 -777 1350 L-777 1722 C-777 1825 -707 1858 -635 1858 C-552 1858 -503 1816 -503 1756 C-503 1689 -536 1646 -635 1646 L-682 1646 L-682 1551 L-611 1551 C-525 1551 -464 1513 -464 1416 C-464 1331 -517 1287 -618 1287 L-618 1287 Z " />
<glyph glyph-name="uni1DEA" unicode="&#x1dea;" horiz-adv-x="0" d="M-641 1759 C-756 1759 -827 1706 -866 1652 L-802 1590 C-762 1634 -716 1655 -647 1655 C-550 1655 -490 1601 -485 1505 L-879 1505 L-879 1458 C-879 1304 -794 1187 -628 1187 C-479 1187 -360 1286 -360 1471 L-360 1493 C-360 1648 -467 1759 -641 1759 L-641 1759 Z M-628 1290 C-722 1290 -763 1343 -763 1416 L-763 1423 L-488 1423 C-500 1337 -545 1290 -628 1290 L-628 1290 Z " />
<glyph glyph-name="uni1DEB" unicode="&#x1deb;" horiz-adv-x="0" d="M-469 1905 C-449 1905 -432 1903 -417 1899 L-405 1997 C-431 2003 -457 2008 -483 2008 C-598 2008 -686 1943 -686 1810 L-686 1759 L-797 1759 L-797 1656 L-686 1656 L-686 1201 L-562 1201 L-562 1656 L-456 1656 L-456 1759 L-562 1759 L-562 1810 C-562 1877 -523 1905 -469 1905 L-469 1905 Z " />
<glyph glyph-name="uni1DEC" unicode="&#x1dec;" horiz-adv-x="0" d="M-545 1538 C-549 1538 -552 1538 -556 1539 L-556 1612 L-544 1612 C-479 1612 -432 1664 -432 1727 L-489 1743 C-489 1710 -514 1685 -545 1685 C-549 1685 -552 1685 -556 1686 L-556 1993 L-680 1993 L-680 1732 C-686 1733 -693 1734 -700 1734 C-765 1734 -811 1678 -811 1617 L-755 1603 C-755 1635 -730 1660 -698 1660 C-692 1660 -686 1659 -680 1659 L-680 1585 C-686 1586 -693 1587 -700 1587 C-765 1587 -811 1531 -811 1469 L-755 1456 C-755 1488 -730 1513 -698 1513 C-692 1513 -686 1512 -680 1512 L-680 1201 L-556 1201 L-556 1465 L-544 1465 C-479 1465 -432 1517 -432 1579 L-489 1596 C-489 1563 -514 1538 -545 1538 L-545 1538 Z " />
<glyph glyph-name="uni1DED" unicode="&#x1ded;" horiz-adv-x="0" d="M-618 1759 C-784 1759 -895 1648 -895 1479 L-895 1467 C-895 1387 -870 1320 -827 1272 L-960 1069 L-861 1012 L-733 1208 C-699 1194 -660 1187 -617 1187 C-448 1187 -339 1298 -339 1467 L-339 1479 C-339 1648 -448 1759 -618 1759 L-618 1759 Z M-464 1467 C-464 1359 -510 1290 -617 1290 C-725 1290 -770 1359 -770 1467 L-770 1479 C-770 1587 -724 1656 -618 1656 C-510 1656 -464 1587 -464 1479 L-464 1467 Z " />
<glyph glyph-name="uni1DEE" unicode="&#x1dee;" horiz-adv-x="0" d="M-604 1763 C-683 1763 -741 1739 -780 1693 L-788 1749 L-897 1749 L-897 957 L-773 957 L-773 1254 C-734 1212 -679 1191 -605 1191 C-455 1191 -364 1304 -364 1472 L-364 1483 C-364 1644 -454 1763 -604 1763 L-604 1763 Z M-488 1472 C-488 1363 -534 1294 -628 1294 C-699 1294 -748 1325 -773 1376 L-773 1575 C-747 1629 -698 1660 -627 1660 C-534 1660 -488 1592 -488 1483 L-488 1472 Z " />
<glyph glyph-name="uni1DEF" unicode="&#x1def;" horiz-adv-x="0" d="M-485 2008 C-600 2008 -688 1943 -688 1810 L-688 1156 C-688 1088 -727 1061 -781 1061 C-802 1061 -819 1063 -834 1067 L-845 969 C-819 963 -794 958 -767 958 C-653 958 -564 1023 -564 1156 L-564 1810 C-564 1877 -525 1905 -471 1905 C-451 1905 -434 1903 -419 1899 L-407 1997 C-434 2003 -459 2008 -485 2008 L-485 2008 Z " />
<glyph glyph-name="uni1DF0" unicode="&#x1df0;" horiz-adv-x="0" d="M-497 1753 L-497 1364 C-517 1319 -559 1294 -629 1294 C-704 1294 -739 1334 -739 1427 L-739 1753 L-864 1753 L-864 1428 C-864 1360 -852 1308 -828 1271 L-961 1069 L-863 1012 L-739 1202 C-715 1195 -689 1191 -660 1191 C-578 1191 -520 1220 -484 1268 L-469 1201 L-373 1201 L-373 1753 L-497 1753 Z " />
<glyph glyph-name="uni1DF1" unicode="&#x1df1;" horiz-adv-x="0" d="M-340 1753 L-430 1402 L-440 1344 L-450 1402 L-562 1753 L-677 1753 L-789 1402 L-798 1350 L-806 1402 L-899 1753 L-1022 1753 L-856 1201 L-758 1201 L-645 1529 L-621 1609 L-597 1529 L-481 1201 L-383 1201 L-217 1753 L-340 1753 Z " />
<glyph glyph-name="uni1DF2" unicode="&#x1df2;" horiz-adv-x="0" d="M-338 1202 C-353 1243 -360 1284 -360 1332 L-360 1561 C-360 1693 -454 1759 -589 1759 C-732 1759 -826 1688 -826 1591 L-708 1582 C-708 1629 -663 1656 -589 1656 C-517 1656 -484 1623 -484 1562 L-484 1523 L-594 1523 C-766 1523 -859 1462 -859 1356 C-859 1257 -784 1192 -663 1192 C-573 1192 -514 1228 -481 1267 C-477 1244 -472 1222 -464 1202 L-338 1202 Z M-725 1819 C-678 1819 -651 1849 -651 1887 C-651 1927 -678 1958 -725 1958 C-773 1958 -799 1927 -799 1887 C-799 1849 -773 1819 -725 1819 L-725 1819 Z M-473 1819 C-427 1819 -399 1849 -399 1887 C-399 1927 -427 1958 -473 1958 C-521 1958 -547 1927 -547 1887 C-547 1849 -521 1819 -473 1819 L-473 1819 Z M-636 1292 C-702 1292 -735 1317 -735 1359 C-735 1403 -685 1441 -592 1441 L-484 1441 L-484 1362 C-507 1327 -571 1292 -636 1292 L-636 1292 Z " />
<glyph glyph-name="uni1DF3" unicode="&#x1df3;" horiz-adv-x="0" d="M-898 1467 C-898 1298 -788 1187 -621 1187 C-452 1187 -343 1298 -343 1467 L-343 1479 C-343 1648 -452 1759 -622 1759 C-788 1759 -898 1648 -898 1479 L-898 1467 Z M-746 1958 C-794 1958 -820 1927 -820 1887 C-820 1849 -794 1819 -746 1819 C-700 1819 -672 1849 -672 1887 C-672 1927 -700 1958 -746 1958 L-746 1958 Z M-494 1958 C-541 1958 -567 1927 -567 1887 C-567 1849 -541 1819 -494 1819 C-448 1819 -420 1849 -420 1887 C-420 1927 -448 1958 -494 1958 L-494 1958 Z M-467 1467 C-467 1359 -513 1290 -621 1290 C-728 1290 -774 1359 -774 1467 L-774 1479 C-774 1587 -728 1656 -622 1656 C-513 1656 -467 1587 -467 1479 L-467 1467 Z " />
<glyph glyph-name="uni1DF4" unicode="&#x1df4;" horiz-adv-x="0" d="M-497 1753 L-497 1364 C-517 1319 -559 1294 -629 1294 C-704 1294 -739 1334 -739 1427 L-739 1753 L-864 1753 L-864 1428 C-864 1259 -787 1191 -660 1191 C-578 1191 -520 1220 -484 1268 L-469 1201 L-373 1201 L-373 1753 L-497 1753 Z M-749 1819 C-702 1819 -675 1849 -675 1887 C-675 1927 -702 1958 -749 1958 C-797 1958 -822 1927 -822 1887 C-822 1849 -797 1819 -749 1819 L-749 1819 Z M-497 1819 C-450 1819 -422 1849 -422 1887 C-422 1927 -450 1958 -497 1958 C-545 1958 -571 1927 -571 1887 C-571 1849 -545 1819 -497 1819 L-497 1819 Z " />
<glyph glyph-name="uni1DF5" unicode="&#x1df5;" horiz-adv-x="0" d="M-547 1297 L-547 1500 L-690 1500 L-690 1297 L-841 1297 L-841 1162 L-396 1162 L-396 1297 L-547 1297 Z " />
<glyph glyph-name="uni1DFC" unicode="&#x1dfc;" horiz-adv-x="0" d="M581 -402 L737 -402 C614 -244 357 -103 -15 -103 C-386 -103 -644 -244 -767 -402 L-611 -402 C-513 -323 -301 -223 -15 -223 C269 -223 484 -323 581 -402 L581 -402 Z " />
<glyph glyph-name="uni1DFD" unicode="&#x1dfd;" horiz-adv-x="0" d="M-225 -87 L-353 -77 C-353 -126 -402 -163 -463 -163 C-577 -163 -629 -91 -754 -91 C-883 -91 -981 -168 -981 -279 L-853 -285 C-853 -236 -806 -199 -744 -199 C-624 -199 -599 -272 -453 -272 C-325 -272 -225 -199 -225 -87 L-225 -87 Z M-225 -294 L-353 -284 C-353 -333 -402 -370 -463 -370 C-577 -370 -629 -298 -754 -298 C-883 -298 -981 -375 -981 -486 L-853 -492 C-853 -443 -806 -406 -744 -406 C-624 -406 -599 -479 -453 -479 C-325 -479 -225 -406 -225 -294 L-225 -294 Z " />
<glyph glyph-name="uni1DFE" unicode="&#x1dfe;" horiz-adv-x="0" d="M-226 1745 L-226 1912 L-1011 1612 L-1011 1480 L-226 1179 L-226 1347 L-737 1525 L-814 1545 L-737 1564 L-226 1745 Z " />
<glyph glyph-name="uni1DFF" unicode="&#x1dff;" horiz-adv-x="0" d="M-1348 -189 L-838 -307 L-815 -310 L-838 -313 L-1348 -429 L-1348 -547 L-564 -352 L-564 -266 L-1348 -71 L-1348 -189 Z M14 -72 L-192 -371 L-226 -442 L-260 -371 L-463 -72 L-620 -72 L-292 -544 L-158 -544 L170 -72 L14 -72 Z " />
<glyph glyph-name="Wgrave" unicode="&#x1e80;" horiz-adv-x="1971" d="M1716 1456 L1465 426 L1433 240 L1393 405 L1085 1456 L908 1456 L593 405 L553 244 L524 425 L268 1456 L69 1456 L450 0 L638 0 L973 1072 L998 1187 L1022 1072 L1347 0 L1536 0 L1916 1456 L1716 1456 Z M1105 1553 L891 1847 L661 1847 L938 1553 L1105 1553 Z " />
<glyph glyph-name="wgrave" unicode="&#x1e81;" horiz-adv-x="1667" d="M1414 1082 L1187 222 L908 1082 L754 1082 L479 235 L247 1082 L57 1082 L392 0 L548 0 L828 852 L1113 0 L1270 0 L1605 1082 L1414 1082 Z M933 1242 L719 1536 L489 1536 L766 1242 L933 1242 Z " />
<glyph glyph-name="Wacute" unicode="&#x1e82;" horiz-adv-x="1971" d="M1716 1456 L1465 426 L1433 240 L1393 405 L1085 1456 L908 1456 L593 405 L553 244 L524 425 L268 1456 L69 1456 L450 0 L638 0 L973 1072 L998 1187 L1022 1072 L1347 0 L1536 0 L1916 1456 L1716 1456 Z M1337 1847 L1107 1847 L893 1553 L1051 1553 L1337 1847 Z " />
<glyph glyph-name="wacute" unicode="&#x1e83;" horiz-adv-x="1667" d="M1414 1082 L1187 222 L908 1082 L754 1082 L479 235 L247 1082 L57 1082 L392 0 L548 0 L828 852 L1113 0 L1270 0 L1605 1082 L1414 1082 Z M1165 1536 L935 1536 L721 1242 L879 1242 L1165 1536 Z " />
<glyph glyph-name="Wdieresis" unicode="&#x1e84;" horiz-adv-x="1971" d="M1716 1456 L1465 426 L1433 240 L1393 405 L1085 1456 L908 1456 L593 405 L553 244 L524 425 L268 1456 L69 1456 L450 0 L638 0 L973 1072 L998 1187 L1022 1072 L1347 0 L1536 0 L1916 1456 L1716 1456 Z M754 1576 C827 1576 869 1622 869 1681 C869 1741 827 1789 754 1789 C680 1789 639 1741 639 1681 C639 1622 680 1576 754 1576 L754 1576 Z M1238 1574 C1312 1574 1354 1620 1354 1679 C1354 1739 1312 1787 1238 1787 C1165 1787 1124 1739 1124 1679 C1124 1620 1165 1574 1238 1574 L1238 1574 Z " />
<glyph glyph-name="wdieresis" unicode="&#x1e85;" horiz-adv-x="1667" d="M1414 1082 L1187 222 L908 1082 L754 1082 L479 235 L247 1082 L57 1082 L392 0 L548 0 L828 852 L1113 0 L1270 0 L1605 1082 L1414 1082 Z M582 1265 C655 1265 697 1311 697 1370 C697 1430 655 1478 582 1478 C508 1478 467 1430 467 1370 C467 1311 508 1265 582 1265 L582 1265 Z M1066 1263 C1140 1263 1182 1309 1182 1368 C1182 1428 1140 1476 1066 1476 C993 1476 952 1428 952 1368 C952 1309 993 1263 1066 1263 L1066 1263 Z " />
<glyph glyph-name="uni1E9E" unicode="&#x1e9e;" horiz-adv-x="1442" d="M832 847 L1191 1253 C1049 1375 880 1476 647 1476 C314 1476 164 1303 163 960 L163 0 L354 0 L354 958 C354 1153 413 1322 647 1322 C794 1322 889 1274 961 1224 L621 852 L621 699 L779 699 C1022 699 1142 610 1142 404 C1142 246 1016 133 806 133 C702 133 619 158 561 184 L504 29 C604 -6 704 -21 809 -21 C1117 -21 1333 135 1333 408 C1333 678 1154 834 832 847 L832 847 Z " />
<glyph glyph-name="uni1EA0" unicode="&#x1ea0;" horiz-adv-x="1439" d="M1405 0 L809 1456 L631 1456 L36 0 L241 0 L389 380 L1051 380 L1200 0 L1405 0 Z M744 -138 C669 -138 627 -186 627 -246 C627 -305 669 -352 744 -352 C818 -352 861 -305 861 -246 C861 -186 818 -138 744 -138 L744 -138 Z M452 540 L720 1228 L989 540 L452 540 Z " />
<glyph glyph-name="uni1EA1" unicode="&#x1ea1;" horiz-adv-x="1205" d="M1038 237 L1038 747 C1038 989 858 1102 604 1102 C325 1102 143 937 143 782 L334 782 C334 872 439 951 595 951 C760 951 846 876 846 749 L846 658 L646 658 C318 658 118 529 118 300 C118 114 273 -20 507 -20 C660 -20 776 46 850 122 C855 76 865 29 879 0 L1078 0 L1078 17 C1051 75 1038 165 1038 237 L1038 237 Z M550 -138 C475 -138 433 -186 433 -246 C433 -305 475 -352 550 -352 C624 -352 667 -305 667 -246 C667 -186 624 -138 550 -138 L550 -138 Z M536 144 C389 144 309 216 309 326 C309 458 441 525 673 525 L846 525 L846 305 C801 226 687 144 536 144 L536 144 Z " />
<glyph glyph-name="uni1EA2" unicode="&#x1ea2;" horiz-adv-x="1439" d="M1200 0 L1405 0 L809 1456 L631 1456 L36 0 L241 0 L389 380 L1051 380 L1200 0 Z M815 1795 C815 1744 767 1728 655 1721 L657 1568 L796 1568 L797 1639 C884 1650 968 1690 968 1792 C968 1905 851 1979 638 1979 L630 1872 C730 1872 815 1851 815 1795 L815 1795 Z M452 540 L720 1228 L989 540 L452 540 Z " />
<glyph glyph-name="uni1EA3" unicode="&#x1ea3;" horiz-adv-x="1205" d="M1038 237 L1038 747 C1038 989 858 1102 604 1102 C325 1102 143 937 143 782 L334 782 C334 872 439 951 595 951 C760 951 846 876 846 749 L846 658 L646 658 C318 658 118 529 118 300 C118 114 273 -20 507 -20 C660 -20 776 46 850 122 C855 76 865 29 879 0 L1078 0 L1078 17 C1051 75 1038 165 1038 237 L1038 237 Z M721 1484 C721 1433 673 1417 561 1410 L563 1257 L702 1257 L703 1328 C790 1339 874 1379 874 1481 C874 1594 757 1668 544 1668 L536 1561 C636 1561 721 1540 721 1484 L721 1484 Z M536 144 C389 144 309 216 309 326 C309 458 441 525 673 525 L846 525 L846 305 C801 226 687 144 536 144 L536 144 Z " />
<glyph glyph-name="uni1EA4" unicode="&#x1ea4;" horiz-adv-x="1439" d="M1200 0 L1405 0 L809 1456 L631 1456 L36 0 L241 0 L389 380 L1051 380 L1200 0 Z M723 1710 L909 1552 L1108 1552 L801 1815 L645 1815 L338 1552 L537 1552 L723 1710 Z M1388 1989 L1186 1989 L1031 1730 L1175 1730 L1388 1989 Z M452 540 L720 1228 L989 540 L452 540 Z " />
<glyph glyph-name="uni1EA5" unicode="&#x1ea5;" horiz-adv-x="1205" d="M1038 747 C1038 989 858 1102 604 1102 C325 1102 143 937 143 782 L334 782 C334 872 439 951 595 951 C760 951 846 876 846 749 L846 658 L646 658 C318 658 118 529 118 300 C118 114 273 -20 507 -20 C660 -20 776 46 850 122 C855 76 865 29 879 0 L1078 0 L1078 17 C1051 75 1038 165 1038 237 L1038 747 Z M629 1399 L815 1241 L1014 1241 L707 1504 L551 1504 L244 1241 L443 1241 L629 1399 Z M1092 1678 L937 1419 L1081 1419 L1294 1678 L1092 1678 Z M536 144 C389 144 309 216 309 326 C309 458 441 525 673 525 L846 525 L846 305 C801 226 687 144 536 144 L536 144 Z " />
<glyph glyph-name="uni1EA6" unicode="&#x1ea6;" horiz-adv-x="1439" d="M1200 0 L1405 0 L809 1456 L631 1456 L36 0 L241 0 L389 380 L1051 380 L1200 0 Z M413 1726 L257 1986 L56 1986 L269 1726 L413 1726 Z M535 1548 L721 1706 L906 1548 L1106 1548 L798 1812 L643 1812 L336 1548 L535 1548 Z M452 540 L720 1228 L989 540 L452 540 Z " />
<glyph glyph-name="uni1EA7" unicode="&#x1ea7;" horiz-adv-x="1205" d="M1038 237 L1038 747 C1038 989 858 1102 604 1102 C325 1102 143 937 143 782 L334 782 C334 872 439 951 595 951 C760 951 846 876 846 749 L846 658 L646 658 C318 658 118 529 118 300 C118 114 273 -20 507 -20 C660 -20 776 46 850 122 C855 76 865 29 879 0 L1078 0 L1078 17 C1051 75 1038 165 1038 237 L1038 237 Z M319 1415 L163 1675 L-38 1675 L175 1415 L319 1415 Z M441 1237 L627 1395 L812 1237 L1012 1237 L704 1501 L549 1501 L242 1237 L441 1237 Z M536 144 C389 144 309 216 309 326 C309 458 441 525 673 525 L846 525 L846 305 C801 226 687 144 536 144 L536 144 Z " />
<glyph glyph-name="uni1EA8" unicode="&#x1ea8;" horiz-adv-x="1439" d="M1200 0 L1405 0 L809 1456 L631 1456 L36 0 L241 0 L389 380 L1051 380 L1200 0 Z M721 1721 L931 1535 L1107 1535 L815 1798 L628 1798 L337 1535 L511 1535 L721 1721 Z M1160 1868 C1160 1824 1120 1812 1023 1806 L1026 1674 L1143 1674 L1144 1735 C1221 1743 1292 1779 1292 1866 C1292 1964 1192 2028 1010 2028 L1004 1935 C1089 1935 1160 1917 1160 1868 L1160 1868 Z M452 540 L720 1228 L989 540 L452 540 Z " />
<glyph glyph-name="uni1EA9" unicode="&#x1ea9;" horiz-adv-x="1205" d="M1038 747 C1038 989 858 1102 604 1102 C325 1102 143 937 143 782 L334 782 C334 872 439 951 595 951 C760 951 846 876 846 749 L846 658 L646 658 C318 658 118 529 118 300 C118 114 273 -20 507 -20 C660 -20 776 46 850 122 C855 76 865 29 879 0 L1078 0 L1078 17 C1051 75 1038 165 1038 237 L1038 747 Z M627 1410 L837 1224 L1013 1224 L721 1487 L534 1487 L243 1224 L417 1224 L627 1410 Z M916 1717 L910 1624 C995 1624 1066 1606 1066 1557 C1066 1513 1026 1501 929 1495 L932 1363 L1049 1363 L1050 1424 C1127 1432 1198 1468 1198 1555 C1198 1653 1098 1717 916 1717 L916 1717 Z M536 144 C389 144 309 216 309 326 C309 458 441 525 673 525 L846 525 L846 305 C801 226 687 144 536 144 L536 144 Z " />
<glyph glyph-name="uni1EAA" unicode="&#x1eaa;" horiz-adv-x="1439" d="M1200 0 L1405 0 L809 1456 L631 1456 L36 0 L241 0 L389 380 L1051 380 L1200 0 Z M721 1671 L931 1513 L1107 1513 L789 1758 L654 1758 L337 1513 L511 1513 L721 1671 Z M613 1902 C701 1902 727 1831 835 1831 C928 1831 1001 1908 1001 1988 L920 2011 C920 1974 877 1939 833 1939 C750 1939 704 2008 611 2008 C519 2008 446 1927 446 1847 L528 1828 C528 1865 569 1902 613 1902 L613 1902 Z M452 540 L720 1228 L989 540 L452 540 Z " />
<glyph glyph-name="uni1EAB" unicode="&#x1eab;" horiz-adv-x="1205" d="M1038 237 L1038 747 C1038 989 858 1102 604 1102 C325 1102 143 937 143 782 L334 782 C334 872 439 951 595 951 C760 951 846 876 846 749 L846 658 L646 658 C318 658 118 529 118 300 C118 114 273 -20 507 -20 C660 -20 776 46 850 122 C855 76 865 29 879 0 L1078 0 L1078 17 C1051 75 1038 165 1038 237 L1038 237 Z M627 1360 L837 1202 L1013 1202 L695 1447 L560 1447 L243 1202 L417 1202 L627 1360 Z M519 1591 C607 1591 633 1520 741 1520 C834 1520 907 1597 907 1677 L826 1700 C826 1663 783 1628 739 1628 C656 1628 610 1697 517 1697 C425 1697 352 1616 352 1536 L434 1517 C434 1554 475 1591 519 1591 L519 1591 Z M536 144 C389 144 309 216 309 326 C309 458 441 525 673 525 L846 525 L846 305 C801 226 687 144 536 144 L536 144 Z " />
<glyph glyph-name="uni1EAC" unicode="&#x1eac;" horiz-adv-x="1439" d="M1405 0 L809 1456 L631 1456 L36 0 L241 0 L389 380 L1051 380 L1200 0 L1405 0 Z M723 1732 L889 1564 L1050 1564 L1050 1574 L781 1848 L665 1848 L399 1575 L399 1564 L557 1564 L723 1732 Z M744 -138 C669 -138 627 -186 627 -246 C627 -305 669 -352 744 -352 C818 -352 861 -305 861 -246 C861 -186 818 -138 744 -138 L744 -138 Z M452 540 L720 1228 L989 540 L452 540 Z " />
<glyph glyph-name="uni1EAD" unicode="&#x1ead;" horiz-adv-x="1205" d="M1038 237 L1038 747 C1038 989 858 1102 604 1102 C325 1102 143 937 143 782 L334 782 C334 872 439 951 595 951 C760 951 846 876 846 749 L846 658 L646 658 C318 658 118 529 118 300 C118 114 273 -20 507 -20 C660 -20 776 46 850 122 C855 76 865 29 879 0 L1078 0 L1078 17 C1051 75 1038 165 1038 237 L1038 237 Z M629 1421 L795 1253 L956 1253 L956 1263 L687 1537 L571 1537 L305 1264 L305 1253 L463 1253 L629 1421 Z M550 -138 C475 -138 433 -186 433 -246 C433 -305 475 -352 550 -352 C624 -352 667 -305 667 -246 C667 -186 624 -138 550 -138 L550 -138 Z M536 144 C389 144 309 216 309 326 C309 458 441 525 673 525 L846 525 L846 305 C801 226 687 144 536 144 L536 144 Z " />
<glyph glyph-name="uni1EAE" unicode="&#x1eae;" horiz-adv-x="1439" d="M1200 0 L1405 0 L809 1456 L631 1456 L36 0 L241 0 L389 380 L1051 380 L1200 0 Z M718 1548 C919 1548 1044 1635 1044 1757 L889 1757 C889 1697 841 1643 718 1643 C590 1643 545 1696 545 1757 L390 1757 C390 1635 515 1548 718 1548 L718 1548 Z M939 1977 L782 1977 L653 1779 L760 1779 L939 1977 Z M452 540 L720 1228 L989 540 L452 540 Z " />
<glyph glyph-name="uni1EAF" unicode="&#x1eaf;" horiz-adv-x="1205" d="M1038 237 L1038 747 C1038 989 858 1102 604 1102 C325 1102 143 937 143 782 L334 782 C334 872 439 951 595 951 C760 951 846 876 846 749 L846 658 L646 658 C318 658 118 529 118 300 C118 114 273 -20 507 -20 C660 -20 776 46 850 122 C855 76 865 29 879 0 L1078 0 L1078 17 C1051 75 1038 165 1038 237 L1038 237 Z M624 1237 C825 1237 950 1324 950 1446 L795 1446 C795 1386 747 1332 624 1332 C496 1332 451 1385 451 1446 L296 1446 C296 1324 421 1237 624 1237 L624 1237 Z M845 1666 L688 1666 L559 1468 L666 1468 L845 1666 Z M536 144 C389 144 309 216 309 326 C309 458 441 525 673 525 L846 525 L846 305 C801 226 687 144 536 144 L536 144 Z " />
<glyph glyph-name="uni1EB0" unicode="&#x1eb0;" horiz-adv-x="1439" d="M1200 0 L1405 0 L809 1456 L631 1456 L36 0 L241 0 L389 380 L1051 380 L1200 0 Z M718 1548 C919 1548 1044 1635 1044 1757 L889 1757 C889 1697 841 1643 718 1643 C590 1643 545 1696 545 1757 L390 1757 C390 1635 515 1548 718 1548 L718 1548 Z M793 1779 L664 1977 L507 1977 L686 1779 L793 1779 Z M452 540 L720 1228 L989 540 L452 540 Z " />
<glyph glyph-name="uni1EB1" unicode="&#x1eb1;" horiz-adv-x="1205" d="M1038 237 L1038 747 C1038 989 858 1102 604 1102 C325 1102 143 937 143 782 L334 782 C334 872 439 951 595 951 C760 951 846 876 846 749 L846 658 L646 658 C318 658 118 529 118 300 C118 114 273 -20 507 -20 C660 -20 776 46 850 122 C855 76 865 29 879 0 L1078 0 L1078 17 C1051 75 1038 165 1038 237 L1038 237 Z M624 1237 C825 1237 950 1324 950 1446 L795 1446 C795 1386 747 1332 624 1332 C496 1332 451 1385 451 1446 L296 1446 C296 1324 421 1237 624 1237 L624 1237 Z M699 1468 L570 1666 L413 1666 L592 1468 L699 1468 Z M536 144 C389 144 309 216 309 326 C309 458 441 525 673 525 L846 525 L846 305 C801 226 687 144 536 144 L536 144 Z " />
<glyph glyph-name="uni1EB2" unicode="&#x1eb2;" horiz-adv-x="1439" d="M1200 0 L1405 0 L809 1456 L631 1456 L36 0 L241 0 L389 380 L1051 380 L1200 0 Z M710 1566 C907 1566 1027 1652 1027 1774 L877 1774 C877 1714 830 1660 710 1660 C589 1660 542 1714 542 1774 L393 1774 C393 1652 515 1566 710 1566 L710 1566 Z M805 1973 C805 1934 757 1922 650 1917 L652 1792 L783 1792 L784 1855 C869 1864 950 1893 950 1971 C950 2057 838 2114 633 2114 L625 2032 C722 2032 805 2016 805 1973 L805 1973 Z M452 540 L720 1228 L989 540 L452 540 Z " />
<glyph glyph-name="uni1EB3" unicode="&#x1eb3;" horiz-adv-x="1205" d="M1038 237 L1038 747 C1038 989 858 1102 604 1102 C325 1102 143 937 143 782 L334 782 C334 872 439 951 595 951 C760 951 846 876 846 749 L846 658 L646 658 C318 658 118 529 118 300 C118 114 273 -20 507 -20 C660 -20 776 46 850 122 C855 76 865 29 879 0 L1078 0 L1078 17 C1051 75 1038 165 1038 237 L1038 237 Z M616 1255 C813 1255 933 1341 933 1463 L783 1463 C783 1403 736 1349 616 1349 C495 1349 448 1403 448 1463 L299 1463 C299 1341 421 1255 616 1255 L616 1255 Z M711 1662 C711 1623 663 1611 556 1606 L558 1481 L689 1481 L690 1544 C775 1553 856 1582 856 1660 C856 1746 744 1803 539 1803 L531 1721 C628 1721 711 1705 711 1662 L711 1662 Z M536 144 C389 144 309 216 309 326 C309 458 441 525 673 525 L846 525 L846 305 C801 226 687 144 536 144 L536 144 Z " />
<glyph glyph-name="uni1EB4" unicode="&#x1eb4;" horiz-adv-x="1439" d="M1200 0 L1405 0 L809 1456 L631 1456 L36 0 L241 0 L389 380 L1051 380 L1200 0 Z M716 1568 C913 1568 1034 1656 1034 1781 L882 1781 C882 1719 835 1664 716 1664 C595 1664 551 1719 551 1781 L398 1781 C398 1656 520 1568 716 1568 L716 1568 Z M607 1943 C701 1943 729 1868 844 1868 C947 1868 1022 1950 1022 2047 L934 2071 C934 2022 892 1983 842 1983 C752 1983 703 2058 605 2058 C501 2058 429 1971 429 1875 L517 1854 C517 1904 557 1943 607 1943 L607 1943 Z M452 540 L720 1228 L989 540 L452 540 Z " />
<glyph glyph-name="uni1EB5" unicode="&#x1eb5;" horiz-adv-x="1205" d="M1038 237 L1038 747 C1038 989 858 1102 604 1102 C325 1102 143 937 143 782 L334 782 C334 872 439 951 595 951 C760 951 846 876 846 749 L846 658 L646 658 C318 658 118 529 118 300 C118 114 273 -20 507 -20 C660 -20 776 46 850 122 C855 76 865 29 879 0 L1078 0 L1078 17 C1051 75 1038 165 1038 237 L1038 237 Z M622 1257 C819 1257 940 1345 940 1470 L788 1470 C788 1408 741 1353 622 1353 C501 1353 457 1408 457 1470 L304 1470 C304 1345 426 1257 622 1257 L622 1257 Z M513 1632 C607 1632 635 1557 750 1557 C853 1557 928 1639 928 1736 L840 1760 C840 1711 798 1672 748 1672 C658 1672 609 1747 511 1747 C407 1747 335 1660 335 1564 L423 1543 C423 1593 463 1632 513 1632 L513 1632 Z M536 144 C389 144 309 216 309 326 C309 458 441 525 673 525 L846 525 L846 305 C801 226 687 144 536 144 L536 144 Z " />
<glyph glyph-name="uni1EB6" unicode="&#x1eb6;" horiz-adv-x="1439" d="M1405 0 L809 1456 L631 1456 L36 0 L241 0 L389 380 L1051 380 L1200 0 L1405 0 Z M719 1539 C925 1539 1051 1649 1051 1806 L896 1806 C896 1728 846 1659 719 1659 C590 1659 543 1728 543 1806 L387 1806 C387 1649 514 1539 719 1539 L719 1539 Z M744 -138 C669 -138 627 -186 627 -246 C627 -305 669 -352 744 -352 C818 -352 861 -305 861 -246 C861 -186 818 -138 744 -138 L744 -138 Z M452 540 L720 1228 L989 540 L452 540 Z " />
<glyph glyph-name="uni1EB7" unicode="&#x1eb7;" horiz-adv-x="1205" d="M1038 237 L1038 747 C1038 989 858 1102 604 1102 C325 1102 143 937 143 782 L334 782 C334 872 439 951 595 951 C760 951 846 876 846 749 L846 658 L646 658 C318 658 118 529 118 300 C118 114 273 -20 507 -20 C660 -20 776 46 850 122 C855 76 865 29 879 0 L1078 0 L1078 17 C1051 75 1038 165 1038 237 L1038 237 Z M625 1228 C831 1228 957 1338 957 1495 L802 1495 C802 1417 752 1348 625 1348 C496 1348 449 1417 449 1495 L293 1495 C293 1338 420 1228 625 1228 L625 1228 Z M550 -138 C475 -138 433 -186 433 -246 C433 -305 475 -352 550 -352 C624 -352 667 -305 667 -246 C667 -186 624 -138 550 -138 L550 -138 Z M536 144 C389 144 309 216 309 326 C309 458 441 525 673 525 L846 525 L846 305 C801 226 687 144 536 144 L536 144 Z " />
<glyph glyph-name="uni1EB8" unicode="&#x1eb8;" horiz-adv-x="1264" d="M388 159 L388 672 L1074 672 L1074 831 L388 831 L388 1296 L1174 1296 L1174 1456 L189 1456 L189 0 L1183 0 L1183 159 L388 159 Z M679 -128 C604 -128 562 -176 562 -236 C562 -295 604 -342 679 -342 C753 -342 796 -295 796 -236 C796 -176 753 -128 679 -128 L679 -128 Z " />
<glyph glyph-name="uni1EB9" unicode="&#x1eb9;" horiz-adv-x="1176" d="M1091 576 C1091 886 938 1102 613 1102 C344 1102 104 916 104 555 L104 493 C104 182 316 -20 639 -20 C864 -20 997 78 1072 178 L961 273 C886 190 788 134 649 134 C432 134 298 279 295 487 L1091 487 L1091 576 Z M622 -138 C547 -138 505 -186 505 -246 C505 -305 547 -352 622 -352 C696 -352 739 -305 739 -246 C739 -186 696 -138 622 -138 L622 -138 Z M899 640 L300 640 C325 849 444 948 613 948 C816 948 892 806 899 658 L899 640 Z " />
<glyph glyph-name="uni1EBA" unicode="&#x1eba;" horiz-adv-x="1264" d="M388 159 L388 672 L1074 672 L1074 831 L388 831 L388 1296 L1174 1296 L1174 1456 L189 1456 L189 0 L1183 0 L1183 159 L388 159 Z M766 1806 C766 1755 718 1739 606 1732 L608 1579 L747 1579 L748 1650 C835 1661 919 1701 919 1803 C919 1916 802 1990 589 1990 L581 1883 C681 1883 766 1862 766 1806 L766 1806 Z " />
<glyph glyph-name="uni1EBB" unicode="&#x1ebb;" horiz-adv-x="1176" d="M1091 576 C1091 886 938 1102 613 1102 C344 1102 104 916 104 555 L104 493 C104 182 316 -20 639 -20 C864 -20 997 78 1072 178 L961 273 C886 190 788 134 649 134 C432 134 298 279 295 487 L1091 487 L1091 576 Z M705 1484 C705 1433 657 1417 545 1410 L547 1257 L686 1257 L687 1328 C774 1339 858 1379 858 1481 C858 1594 741 1668 528 1668 L520 1561 C620 1561 705 1540 705 1484 L705 1484 Z M899 640 L300 640 C325 849 444 948 613 948 C816 948 892 806 899 658 L899 640 Z " />
<glyph glyph-name="uni1EBC" unicode="&#x1ebc;" horiz-adv-x="1264" d="M388 159 L388 672 L1074 672 L1074 831 L388 831 L388 1296 L1174 1296 L1174 1456 L189 1456 L189 0 L1183 0 L1183 159 L388 159 Z M536 1677 C655 1677 680 1583 827 1583 C954 1583 1055 1679 1055 1826 L926 1838 C926 1775 878 1726 817 1726 C703 1726 651 1821 525 1821 C397 1821 299 1719 299 1572 L427 1566 C427 1628 474 1677 536 1677 L536 1677 Z " />
<glyph glyph-name="uni1EBD" unicode="&#x1ebd;" horiz-adv-x="1176" d="M1091 576 C1091 886 938 1102 613 1102 C344 1102 104 916 104 555 L104 493 C104 182 316 -20 639 -20 C864 -20 997 78 1072 178 L961 273 C886 190 788 134 649 134 C432 134 298 279 295 487 L1091 487 L1091 576 Z M475 1355 C594 1355 619 1261 766 1261 C893 1261 994 1357 994 1504 L865 1516 C865 1453 817 1404 756 1404 C642 1404 590 1499 464 1499 C336 1499 238 1397 238 1250 L366 1244 C366 1306 413 1355 475 1355 L475 1355 Z M899 640 L300 640 C325 849 444 948 613 948 C816 948 892 806 899 658 L899 640 Z " />
<glyph glyph-name="uni1EBE" unicode="&#x1ebe;" horiz-adv-x="1264" d="M388 672 L1074 672 L1074 831 L388 831 L388 1296 L1174 1296 L1174 1456 L189 1456 L189 0 L1183 0 L1183 159 L388 159 L388 672 Z M674 1721 L860 1563 L1059 1563 L752 1826 L596 1826 L289 1563 L488 1563 L674 1721 Z M1339 2000 L1137 2000 L982 1741 L1126 1741 L1339 2000 Z " />
<glyph glyph-name="uni1EBF" unicode="&#x1ebf;" horiz-adv-x="1176" d="M613 1102 C344 1102 104 916 104 555 L104 493 C104 182 316 -20 639 -20 C864 -20 997 78 1072 178 L961 273 C886 190 788 134 649 134 C432 134 298 279 295 487 L1091 487 L1091 576 C1091 886 938 1102 613 1102 L613 1102 Z M613 1399 L799 1241 L998 1241 L691 1504 L535 1504 L228 1241 L427 1241 L613 1399 Z M1278 1678 L1076 1678 L921 1419 L1065 1419 L1278 1678 Z M899 640 L300 640 C325 849 444 948 613 948 C816 948 892 806 899 658 L899 640 Z " />
<glyph glyph-name="uni1EC0" unicode="&#x1ec0;" horiz-adv-x="1264" d="M388 159 L388 672 L1074 672 L1074 831 L388 831 L388 1296 L1174 1296 L1174 1456 L189 1456 L189 0 L1183 0 L1183 159 L388 159 Z M364 1737 L208 1997 L7 1997 L220 1737 L364 1737 Z M486 1559 L672 1717 L857 1559 L1057 1559 L749 1823 L594 1823 L287 1559 L486 1559 Z " />
<glyph glyph-name="uni1EC1" unicode="&#x1ec1;" horiz-adv-x="1176" d="M1091 576 C1091 886 938 1102 613 1102 C344 1102 104 916 104 555 L104 493 C104 182 316 -20 639 -20 C864 -20 997 78 1072 178 L961 273 C886 190 788 134 649 134 C432 134 298 279 295 487 L1091 487 L1091 576 Z M303 1415 L147 1675 L-54 1675 L159 1415 L303 1415 Z M425 1237 L611 1395 L796 1237 L996 1237 L688 1501 L533 1501 L226 1237 L425 1237 Z M899 640 L300 640 C325 849 444 948 613 948 C816 948 892 806 899 658 L899 640 Z " />
<glyph glyph-name="uni1EC2" unicode="&#x1ec2;" horiz-adv-x="1264" d="M388 672 L1074 672 L1074 831 L388 831 L388 1296 L1174 1296 L1174 1456 L189 1456 L189 0 L1183 0 L1183 159 L388 159 L388 672 Z M672 1732 L882 1546 L1058 1546 L766 1809 L579 1809 L288 1546 L462 1546 L672 1732 Z M961 2039 L955 1946 C1040 1946 1111 1928 1111 1879 C1111 1835 1071 1823 974 1817 L977 1685 L1094 1685 L1095 1746 C1172 1754 1243 1790 1243 1877 C1243 1975 1143 2039 961 2039 L961 2039 Z " />
<glyph glyph-name="uni1EC3" unicode="&#x1ec3;" horiz-adv-x="1176" d="M613 1102 C344 1102 104 916 104 555 L104 493 C104 182 316 -20 639 -20 C864 -20 997 78 1072 178 L961 273 C886 190 788 134 649 134 C432 134 298 279 295 487 L1091 487 L1091 576 C1091 886 938 1102 613 1102 L613 1102 Z M611 1410 L821 1224 L997 1224 L705 1487 L518 1487 L227 1224 L401 1224 L611 1410 Z M900 1717 L894 1624 C979 1624 1050 1606 1050 1557 C1050 1513 1010 1501 913 1495 L916 1363 L1033 1363 L1034 1424 C1111 1432 1182 1468 1182 1555 C1182 1653 1082 1717 900 1717 L900 1717 Z M899 640 L300 640 C325 849 444 948 613 948 C816 948 892 806 899 658 L899 640 Z " />
</font>
</svg>
