<?xml version="1.0" encoding="UTF-8"?>
<svg xmlns="http://www.w3.org/2000/svg" xmlns:xlink="http://www.w3.org/1999/xlink" version="1.1" >
<font id="Gotho-6SmWd800ExBd" horiz-adv-x="841">
<font-face  font-family="Gotho" units-per-em="2048" ascent="2146" descent="-555" font-style="normal" font-weight="800" font-stretch="semi-expanded" cap-height="1456" x-height="1082" underline-position="-100" underline-thickness="100" />
<missing-glyph horiz-adv-x="890" d="M782 1456 L108 1456 L108 0 L782 0 L782 1456 Z M442 659 L687 54 L198 54 L442 659 Z M415 728 L159 97 L159 1359 L415 728 Z M470 728 L730 1372 L730 84 L470 728 Z M198 1402 L687 1402 L442 797 L198 1402 Z " />
<glyph glyph-name="NULL" horiz-adv-x="0" />
<glyph glyph-name="CR" unicode="&#xd;" horiz-adv-x="511" />
<glyph glyph-name="space" unicode="&#x20;" horiz-adv-x="511" />
<glyph glyph-name="uni0002" unicode="&#x2;" horiz-adv-x="0" />
<glyph glyph-name="uni0009" unicode="&#x9;" horiz-adv-x="511" />
<glyph glyph-name="exclam" unicode="&#x21;" horiz-adv-x="561" d="M287 282 C194 282 135 217 135 133 C135 49 194 -16 287 -16 C382 -16 440 49 440 133 C440 217 382 282 287 282 L287 282 Z M401 446 L432 1456 L142 1456 L172 446 L401 446 Z " />
<glyph glyph-name="quotedbl" unicode="&#x22;" horiz-adv-x="678" d="M278 1399 L278 1537 L83 1537 L83 1386 L82 993 L239 993 L278 1399 Z M599 1399 L599 1537 L404 1537 L404 993 L561 993 L599 1399 Z " />
<glyph glyph-name="numbersign" unicode="&#x23;" horiz-adv-x="1202" d="M1147 872 L1147 1040 L945 1040 L1016 1456 L840 1456 L769 1040 L583 1040 L654 1456 L479 1456 L408 1040 L157 1040 L157 872 L379 872 L329 578 L85 578 L85 410 L300 410 L230 0 L406 0 L476 410 L661 410 L591 0 L767 0 L837 410 L1076 410 L1076 578 L866 578 L916 872 L1147 872 Z M690 578 L504 578 L555 872 L740 872 L690 578 Z " />
<glyph glyph-name="dollar" unicode="&#x24;" horiz-adv-x="1142" d="M1039 384 C1039 644 877 746 632 850 C477 912 427 970 427 1071 C427 1173 478 1252 592 1252 C697 1252 765 1169 765 1007 L1037 1007 C1037 1271 900 1436 683 1470 L683 1687 L524 1687 L524 1473 C300 1447 154 1296 154 1072 C154 811 318 709 565 609 C712 553 766 495 766 382 C766 280 704 204 580 204 C478 204 374 262 374 455 L102 455 C102 138 297 8 504 -17 L504 -215 L662 -215 L662 -16 C891 10 1039 153 1039 384 L1039 384 Z " />
<glyph glyph-name="percent" unicode="&#x25;" horiz-adv-x="1461" d="M764 357 L764 280 C764 116 871 -21 1067 -21 C1264 -21 1366 116 1366 280 L1366 357 C1366 521 1264 657 1065 657 C871 657 764 521 764 357 L764 357 Z M459 110 L1136 1248 L1002 1322 L324 184 L459 110 Z M103 1176 L103 1099 C103 936 210 800 406 800 C602 800 705 936 705 1099 L705 1176 C705 1341 602 1477 404 1477 C210 1477 103 1341 103 1176 L103 1176 Z M948 280 L948 357 C948 429 986 495 1065 495 C1145 495 1184 429 1184 357 L1184 280 C1184 208 1157 142 1067 142 C994 142 948 208 948 280 L948 280 Z M287 1099 L287 1176 C287 1249 325 1315 404 1315 C485 1315 522 1249 522 1176 L522 1099 C522 1028 485 962 406 962 C326 962 287 1029 287 1099 L287 1099 Z " />
<glyph glyph-name="ampersand" unicode="&#x26;" horiz-adv-x="1299" d="M1270 0 L1062 256 C1148 377 1185 536 1185 710 L951 710 C951 616 931 530 898 458 L661 750 L750 818 C860 903 935 1006 935 1141 C935 1322 796 1477 579 1477 C350 1477 200 1325 200 1097 C200 985 254 885 339 769 C188 659 83 559 83 391 C83 150 257 -21 538 -21 C668 -21 784 15 887 87 L957 0 L1270 0 Z M551 205 C432 205 357 291 357 407 C357 462 365 528 450 588 L470 603 L741 267 C683 227 617 205 551 205 L551 205 Z M578 1251 C659 1251 706 1187 706 1124 C706 1062 685 1015 606 959 L535 908 C483 979 448 1040 448 1101 C448 1183 491 1251 578 1251 L578 1251 Z " />
<glyph glyph-name="quotesingle" unicode="&#x27;" horiz-adv-x="351" d="M281 1389 L281 1536 L76 1536 L76 1375 L75 992 L253 992 L281 1389 Z " />
<glyph glyph-name="parenleft" unicode="&#x28;" horiz-adv-x="714" d="M130 592 L130 569 C130 8 403 -354 610 -456 L663 -308 C522 -192 367 81 367 567 L367 594 C367 1080 522 1353 663 1466 L610 1617 C403 1515 130 1152 130 592 L130 592 Z " />
<glyph glyph-name="parenright" unicode="&#x29;" horiz-adv-x="718" d="M596 569 L596 592 C596 1133 318 1515 104 1617 L51 1469 C184 1356 347 1080 347 594 L347 567 C347 81 190 -195 51 -308 L104 -456 C318 -354 596 27 596 569 L596 569 Z " />
<glyph glyph-name="asterisk" unicode="&#x2a;" horiz-adv-x="945" d="M350 965 L132 691 L289 586 L472 870 L657 577 L812 687 L602 954 L925 1045 L866 1222 L560 1099 L578 1457 L386 1457 L404 1106 L91 1232 L32 1056 L350 965 Z " />
<glyph glyph-name="plus" unicode="&#x2b;" horiz-adv-x="1096" d="M1020 811 L677 811 L677 1206 L415 1206 L415 811 L69 811 L69 559 L415 559 L415 146 L677 146 L677 559 L1020 559 L1020 811 Z " />
<glyph glyph-name="comma" unicode="&#x2c;" horiz-adv-x="500" d="M382 49 L383 243 L144 243 L144 35 C144 -108 91 -194 39 -284 L184 -361 C301 -264 382 -101 382 49 L382 49 Z " />
<glyph glyph-name="hyphen" unicode="&#x2d;" horiz-adv-x="750" d="M635 512 L635 739 L107 739 L107 512 L635 512 Z " />
<glyph glyph-name="period" unicode="&#x2e;" horiz-adv-x="605" d="M294 290 C197 290 136 224 136 139 C136 54 197 -11 294 -11 C391 -11 452 54 452 139 C452 224 391 290 294 290 L294 290 Z " />
<glyph glyph-name="slash" unicode="&#x2f;" horiz-adv-x="768" d="M207 -125 L726 1456 L521 1456 L2 -125 L207 -125 Z " />
<glyph glyph-name="zero" unicode="0" horiz-adv-x="1142" d="M1037 603 L1037 856 C1037 1292 849 1476 570 1476 C293 1476 105 1292 105 856 L105 603 C105 167 296 -20 573 -20 C850 -20 1037 167 1037 603 L1037 603 Z M764 895 L764 566 C764 302 695 206 573 206 C451 206 378 302 378 566 L378 895 C378 1156 450 1251 570 1251 C693 1251 764 1156 764 895 L764 895 Z " />
<glyph glyph-name="one" unicode="1" horiz-adv-x="1144" d="M773 0 L773 1458 L742 1458 L171 1245 L171 1017 L499 1127 L499 0 L773 0 Z " />
<glyph glyph-name="two" unicode="2" horiz-adv-x="1143" d="M1058 0 L1058 226 L446 226 L714 515 C898 697 1011 871 1011 1065 C1011 1321 853 1477 563 1477 C260 1477 80 1262 80 1000 L354 1000 C354 1145 423 1251 558 1251 C673 1251 738 1169 738 1037 C738 951 697 852 556 695 L88 192 L87 0 L1058 0 Z " />
<glyph glyph-name="three" unicode="3" horiz-adv-x="1143" d="M802 748 C937 813 1010 936 1010 1063 C1010 1334 821 1477 544 1477 C289 1477 92 1320 92 1079 L365 1079 C365 1186 447 1251 550 1251 C676 1251 737 1171 737 1059 C737 935 670 853 531 853 L385 853 L385 634 L531 634 C671 634 758 570 758 412 C758 288 679 206 549 206 C432 206 351 287 351 399 L77 399 C77 113 305 -20 543 -20 C820 -20 1031 136 1031 408 C1031 568 960 691 802 748 L802 748 Z " />
<glyph glyph-name="four" unicode="4" horiz-adv-x="1143" d="M1078 544 L920 544 L920 1456 L616 1456 L54 494 L65 319 L656 319 L656 0 L920 0 L920 319 L1078 319 L1078 544 Z M346 544 L656 1128 L656 544 L346 544 Z " />
<glyph glyph-name="five" unicode="5" horiz-adv-x="1143" d="M153 719 L371 663 C411 705 455 745 556 745 C706 745 778 639 778 483 C778 326 719 206 582 206 C471 206 398 280 385 405 L116 405 C126 136 345 -20 583 -20 C900 -20 1051 208 1051 468 C1051 775 897 956 629 956 C538 956 463 922 423 899 L457 1224 L1004 1224 L1004 1456 L232 1456 L153 719 Z " />
<glyph glyph-name="six" unicode="6" horiz-adv-x="1143" d="M659 979 C542 979 452 943 386 883 C405 1129 530 1248 733 1248 C795 1248 847 1233 888 1218 L928 1431 C855 1466 780 1477 681 1477 C360 1477 111 1239 111 810 L111 541 C111 180 322 -21 594 -21 C878 -21 1060 196 1060 485 C1060 763 914 979 659 979 L659 979 Z M594 205 C475 205 384 317 384 541 L384 657 C419 717 484 756 580 756 C709 756 788 647 788 485 C788 338 722 205 594 205 L594 205 Z " />
<glyph glyph-name="seven" unicode="7" horiz-adv-x="1142" d="M72 1456 L72 1231 L785 1231 C538 932 397 572 353 145 L337 0 L612 0 L626 145 C666 533 710 844 1049 1231 L1049 1456 L72 1456 Z " />
<glyph glyph-name="eight" unicode="8" horiz-adv-x="1142" d="M817 751 C934 815 1006 929 1006 1070 C1006 1333 827 1477 571 1477 C317 1477 135 1333 135 1070 C135 929 207 816 325 751 C191 685 106 560 106 398 C106 124 307 -20 572 -20 C837 -20 1036 124 1036 398 C1036 560 951 684 817 751 L817 751 Z M572 206 C453 206 380 285 380 419 C380 552 454 634 570 634 C687 634 762 552 762 419 C762 285 691 206 572 206 L572 206 Z M571 1251 C674 1251 734 1174 734 1057 C734 939 676 859 572 859 C469 859 409 939 409 1057 C409 1178 470 1251 571 1251 L571 1251 Z " />
<glyph glyph-name="nine" unicode="9" horiz-adv-x="1142" d="M550 1477 C287 1477 93 1256 93 958 C93 655 249 456 509 456 C601 456 685 487 751 546 L751 532 C751 317 649 205 474 205 C398 205 331 227 273 251 L228 41 C317 1 413 -21 506 -21 C801 -21 1024 189 1024 549 L1024 891 C1024 1273 823 1477 550 1477 L550 1477 Z M565 670 C436 670 365 795 365 958 C365 1120 442 1252 552 1252 C672 1252 751 1146 751 926 L751 768 C716 713 655 670 565 670 L565 670 Z " />
<glyph glyph-name="colon" unicode="&#x3a;" horiz-adv-x="575" d="M296 290 C199 290 138 224 138 139 C138 54 199 -11 296 -11 C393 -11 454 54 454 139 C454 224 393 290 296 290 L296 290 Z M294 1104 C197 1104 136 1038 136 953 C136 868 197 803 294 803 C391 803 452 868 452 953 C452 1038 391 1104 294 1104 L294 1104 Z " />
<glyph glyph-name="semicolon" unicode="&#x3b;" horiz-adv-x="529" d="M277 1115 C180 1115 119 1049 119 964 C119 879 180 814 277 814 C374 814 435 879 435 964 C435 1049 374 1115 277 1115 L277 1115 Z M405 49 L406 243 L167 243 L167 35 C167 -108 114 -194 62 -284 L207 -361 C324 -264 405 -101 405 49 L405 49 Z " />
<glyph glyph-name="less" unicode="&#x3c;" horiz-adv-x="1017" d="M879 1102 L66 737 L66 509 L879 143 L879 414 L337 621 L879 832 L879 1102 Z " />
<glyph glyph-name="equal" unicode="&#x3d;" horiz-adv-x="1133" d="M989 319 L989 547 L144 547 L144 319 L989 319 Z M989 751 L989 979 L144 979 L144 751 L989 751 Z " />
<glyph glyph-name="greater" unicode="&#x3e;" horiz-adv-x="1036" d="M131 1102 L131 833 L687 625 L131 412 L131 142 L960 508 L960 737 L131 1102 Z " />
<glyph glyph-name="question" unicode="&#x3f;" horiz-adv-x="994" d="M469 286 C375 286 317 221 317 137 C317 53 375 -12 469 -12 C563 -12 621 53 621 137 C621 221 563 286 469 286 L469 286 Z M340 445 L586 445 C588 549 606 619 677 687 C798 809 912 910 912 1085 C912 1335 755 1476 489 1476 C247 1476 61 1348 58 1072 L332 1072 C333 1195 412 1248 489 1248 C586 1248 638 1188 638 1073 C638 973 574 907 488 826 C378 720 341 625 340 445 L340 445 Z " />
<glyph glyph-name="at" unicode="&#x40;" horiz-adv-x="1765" d="M928 1416 C434 1416 118 1011 96 464 C72 -128 359 -453 859 -453 C979 -453 1127 -424 1216 -364 L1179 -215 C1099 -254 975 -284 863 -284 C476 -284 261 -21 282 464 C302 922 536 1258 924 1258 C1339 1258 1521 971 1503 529 C1493 307 1415 136 1290 136 C1234 136 1178 166 1191 304 L1241 881 C1163 939 1094 990 947 990 C729 990 542 772 509 431 C483 160 593 -18 780 -18 C875 -18 961 29 1025 122 C1064 31 1146 -21 1255 -21 C1547 -21 1662 264 1671 536 C1692 1064 1421 1416 928 1416 L928 1416 Z M846 156 C752 156 706 254 721 431 C742 684 823 819 965 819 C993 819 1018 814 1041 807 L1001 327 C959 192 892 156 846 156 L846 156 Z " />
<glyph glyph-name="A" unicode="A" horiz-adv-x="1340" d="M1020 0 L1321 0 L799 1456 L540 1456 L21 0 L322 0 L420 306 L922 306 L1020 0 Z M495 541 L671 1091 L847 541 L495 541 Z " />
<glyph glyph-name="B" unicode="B" horiz-adv-x="1269" d="M930 751 C1068 809 1134 927 1134 1059 C1134 1330 945 1456 627 1456 L138 1456 L138 0 L665 0 C983 0 1163 146 1163 428 C1163 571 1094 710 930 751 L930 751 Z M665 234 L422 234 L422 639 L676 639 C822 639 879 557 879 430 C879 317 811 234 665 234 L665 234 Z M627 1221 C781 1221 849 1165 849 1030 C849 909 773 844 627 844 L422 844 L422 1221 L627 1221 Z " />
<glyph glyph-name="C" unicode="C" horiz-adv-x="1301" d="M1225 484 L941 484 C925 290 853 216 668 216 C462 216 385 355 385 644 L385 815 C385 1109 478 1240 675 1240 C862 1240 929 1157 942 964 L1226 964 C1200 1278 1020 1477 675 1477 C322 1477 99 1226 99 813 L99 644 C99 229 315 -20 668 -20 C1012 -20 1205 172 1225 484 L1225 484 Z " />
<glyph glyph-name="D" unicode="D" horiz-adv-x="1294" d="M561 1456 L138 1456 L138 0 L555 0 C938 0 1192 250 1192 653 L1192 803 C1192 1205 937 1456 561 1456 L561 1456 Z M907 653 C907 372 800 234 555 234 L422 234 L422 1221 L561 1221 C797 1221 907 1088 907 805 L907 653 Z " />
<glyph glyph-name="E" unicode="E" horiz-adv-x="1123" d="M422 234 L422 635 L969 635 L969 863 L422 863 L422 1221 L1061 1221 L1061 1456 L138 1456 L138 0 L1065 0 L1065 234 L422 234 Z " />
<glyph glyph-name="F" unicode="F" horiz-adv-x="1091" d="M1036 1221 L1036 1456 L138 1456 L138 0 L422 0 L422 601 L964 601 L964 835 L422 835 L422 1221 L1036 1221 Z " />
<glyph glyph-name="G" unicode="G" horiz-adv-x="1347" d="M1231 176 L1231 761 L685 761 L685 548 L947 548 L947 283 C916 259 860 214 718 214 C507 214 392 350 392 642 L392 817 C392 1107 491 1243 691 1243 C861 1243 933 1160 954 997 L1230 997 C1200 1291 1040 1477 684 1477 C327 1477 106 1247 106 815 L106 642 C106 208 346 -20 704 -20 C1013 -20 1167 103 1231 176 L1231 176 Z " />
<glyph glyph-name="H" unicode="H" horiz-adv-x="1405" d="M982 1456 L982 863 L422 863 L422 1456 L138 1456 L138 0 L422 0 L422 629 L982 629 L982 0 L1266 0 L1266 1456 L982 1456 Z " />
<glyph glyph-name="I" unicode="I" horiz-adv-x="590" d="M437 0 L437 1456 L154 1456 L154 0 L437 0 Z " />
<glyph glyph-name="J" unicode="J" horiz-adv-x="1112" d="M695 1456 L695 448 C695 299 624 214 514 214 C407 214 334 269 334 429 L50 429 C50 122 245 -20 514 -20 C780 -20 979 157 979 448 L979 1456 L695 1456 Z " />
<glyph glyph-name="K" unicode="K" horiz-adv-x="1259" d="M930 0 L1267 0 L756 809 L1250 1456 L903 1456 L541 963 L422 798 L422 1456 L138 1456 L138 0 L422 0 L422 444 L568 598 L930 0 Z " />
<glyph glyph-name="L" unicode="L" horiz-adv-x="1082" d="M422 234 L422 1456 L138 1456 L138 0 L1030 0 L1030 234 L422 234 Z " />
<glyph glyph-name="M" unicode="M" horiz-adv-x="1735" d="M1595 1456 L1221 1456 L866 447 L511 1456 L138 1456 L138 0 L422 0 L422 412 L389 1093 L767 0 L964 0 L1343 1094 L1310 412 L1310 0 L1595 0 L1595 1456 Z " />
<glyph glyph-name="N" unicode="N" horiz-adv-x="1404" d="M1264 0 L1264 1456 L981 1456 L981 475 L437 1456 L138 1456 L138 0 L422 0 L422 985 L971 0 L1264 0 Z " />
<glyph glyph-name="O" unicode="O" horiz-adv-x="1373" d="M1271 648 L1271 803 C1271 1232 1035 1476 685 1476 C339 1476 100 1232 100 803 L100 648 C100 221 342 -20 687 -20 C1037 -20 1271 221 1271 648 L1271 648 Z M987 805 L987 648 C987 359 880 218 687 218 C497 218 385 359 385 648 L385 805 C385 1098 495 1237 685 1237 C878 1237 987 1098 987 805 L987 805 Z " />
<glyph glyph-name="P" unicode="P" horiz-adv-x="1283" d="M682 1456 L138 1456 L138 0 L422 0 L422 518 L682 518 C1009 518 1202 696 1202 977 C1202 1255 1009 1456 682 1456 L682 1456 Z M682 753 L422 753 L422 1221 L682 1221 C847 1221 915 1105 915 975 C915 846 847 753 682 753 L682 753 Z " />
<glyph glyph-name="Q" unicode="Q" horiz-adv-x="1373" d="M1270 -97 L1040 92 C1184 203 1269 394 1269 652 L1269 803 C1269 1233 1032 1476 683 1476 C336 1476 97 1233 97 803 L97 652 C97 223 339 -20 684 -20 C722 -20 758 -17 793 -12 L1089 -261 L1270 -97 Z M383 652 L383 805 C383 1098 493 1237 683 1237 C875 1237 984 1098 984 805 L984 652 C984 361 877 218 684 218 C494 218 383 361 383 652 L383 652 Z " />
<glyph glyph-name="R" unicode="R" horiz-adv-x="1302" d="M1159 249 L1159 351 C1159 518 1102 648 925 701 C1079 763 1173 863 1173 1030 C1173 1303 1005 1456 689 1456 L142 1456 L142 0 L426 0 L426 575 L674 575 C808 575 876 493 876 349 L876 251 C876 206 877 50 936 0 L1228 0 L1228 29 C1172 77 1159 195 1159 249 L1159 249 Z M663 809 L426 809 L426 1221 L675 1221 C826 1221 889 1135 889 1008 C889 882 817 809 663 809 L663 809 Z " />
<glyph glyph-name="S" unicode="S" horiz-adv-x="1218" d="M583 614 C808 538 853 487 853 381 C853 283 785 210 637 210 C472 210 363 276 363 457 L85 457 C85 128 341 -20 637 -20 C954 -20 1138 126 1138 387 C1138 623 982 760 679 860 C499 913 405 972 405 1071 C405 1167 475 1245 625 1245 C783 1245 854 1155 854 1028 L1132 1028 C1132 1289 962 1476 629 1476 C321 1476 122 1314 122 1071 C122 821 327 698 583 614 L583 614 Z " />
<glyph glyph-name="T" unicode="T" horiz-adv-x="1225" d="M1173 1456 L51 1456 L51 1221 L468 1221 L468 0 L752 0 L752 1221 L1173 1221 L1173 1456 Z " />
<glyph glyph-name="U" unicode="U" horiz-adv-x="1303" d="M1183 1456 L898 1456 L898 475 C898 279 808 214 652 214 C498 214 406 279 406 475 L406 1456 L122 1456 L122 475 C122 138 344 -20 652 -20 C955 -20 1183 138 1183 475 L1183 1456 Z " />
<glyph glyph-name="V" unicode="V" horiz-adv-x="1300" d="M966 1456 L650 332 L335 1456 L21 1456 L505 0 L795 0 L1281 1456 L966 1456 Z " />
<glyph glyph-name="W" unicode="W" horiz-adv-x="1731" d="M1405 1456 L1228 446 L1001 1456 L737 1456 L517 464 L331 1456 L49 1456 L355 0 L654 0 L869 994 L1083 0 L1381 0 L1687 1456 L1405 1456 Z " />
<glyph glyph-name="X" unicode="X" horiz-adv-x="1267" d="M634 931 L375 1456 L48 1456 L453 734 L38 0 L369 0 L634 535 L901 0 L1230 0 L816 734 L1221 1456 L894 1456 L634 931 Z " />
<glyph glyph-name="Y" unicode="Y" horiz-adv-x="1227" d="M613 777 L326 1456 L14 1456 L469 530 L469 0 L756 0 L756 530 L1212 1456 L899 1456 L613 777 Z " />
<glyph glyph-name="Z" unicode="Z" horiz-adv-x="1206" d="M431 234 L1119 1290 L1119 1456 L84 1456 L84 1221 L774 1221 L83 171 L83 0 L1135 0 L1135 234 L431 234 Z " />
<glyph glyph-name="bracketleft" unicode="&#x5b;" horiz-adv-x="571" d="M540 1477 L540 1693 L127 1693 L127 -338 L540 -338 L540 -122 L401 -122 L401 1477 L540 1477 Z " />
<glyph glyph-name="backslash" unicode="&#x5c;" horiz-adv-x="850" d="M16 1456 L595 -125 L871 -125 L293 1456 L16 1456 Z " />
<glyph glyph-name="bracketright" unicode="&#x5d;" horiz-adv-x="571" d="M26 1693 L26 1477 L166 1477 L166 -122 L26 -122 L26 -338 L438 -338 L438 1693 L26 1693 Z " />
<glyph glyph-name="asciicircum" unicode="&#x5e;" horiz-adv-x="873" d="M820 729 L536 1456 L340 1456 L55 729 L276 729 L439 1192 L601 729 L820 729 Z " />
<glyph glyph-name="underscore" unicode="&#x5f;" horiz-adv-x="903" d="M888 -219 L888 0 L14 0 L14 -219 L888 -219 Z " />
<glyph glyph-name="grave" unicode="&#x60;" horiz-adv-x="690" d="M558 1229 L358 1536 L52 1536 L331 1229 L558 1229 Z " />
<glyph glyph-name="a" unicode="a" horiz-adv-x="1074" d="M954 262 L954 737 C954 989 780 1102 542 1102 C276 1102 106 947 106 759 L379 759 C379 841 436 893 527 893 C633 893 680 843 680 740 L680 659 L546 659 C233 659 84 517 84 306 C84 103 220 -20 422 -20 C541 -20 633 24 694 89 C700 55 708 24 719 0 L995 0 L995 17 C969 72 954 141 954 262 L954 262 Z M478 195 C386 195 356 236 356 320 C356 419 407 495 559 495 L680 495 L680 291 C649 242 572 195 478 195 L478 195 Z " />
<glyph glyph-name="b" unicode="b" horiz-adv-x="1124" d="M652 1102 C538 1102 454 1059 392 984 L392 1536 L120 1536 L120 0 L369 0 L379 114 C442 30 531 -20 654 -20 C914 -20 1048 178 1048 515 L1048 569 C1048 903 914 1102 652 1102 L652 1102 Z M774 515 C774 313 733 207 574 207 C483 207 425 246 392 311 L392 768 C425 835 484 875 573 875 C734 875 774 758 774 569 L774 515 Z " />
<glyph glyph-name="c" unicode="c" horiz-adv-x="1044" d="M725 373 C722 259 654 206 549 206 C383 206 350 328 350 510 L350 572 C350 749 385 877 546 877 C666 877 722 801 725 681 L982 681 C979 951 810 1102 552 1102 C233 1102 77 890 77 572 L77 510 C77 191 233 -20 555 -20 C791 -20 979 134 982 373 L725 373 Z " />
<glyph glyph-name="d" unicode="d" horiz-adv-x="1126" d="M730 1536 L730 986 C668 1059 586 1102 479 1102 C223 1102 76 909 76 566 L76 512 C76 184 224 -20 477 -20 C592 -20 680 30 744 113 L756 0 L1003 0 L1003 1536 L730 1536 Z M551 207 C402 207 349 319 349 512 L349 566 C349 763 405 875 552 875 C635 875 695 838 730 774 L730 306 C695 245 636 207 551 207 L551 207 Z " />
<glyph glyph-name="e" unicode="e" horiz-adv-x="1080" d="M1016 585 C1016 919 858 1102 571 1102 C267 1102 84 918 84 561 L84 488 C84 151 273 -20 592 -20 C797 -20 930 67 997 155 L869 316 C807 243 716 206 614 206 C457 206 368 284 358 458 L1016 458 L1016 585 Z M746 645 L361 645 C377 800 442 882 573 882 C694 882 745 799 746 670 L746 645 Z " />
<glyph glyph-name="f" unicode="f" horiz-adv-x="726" d="M626 1330 C658 1330 687 1327 710 1321 L714 1538 C671 1549 624 1557 575 1557 C342 1557 197 1424 197 1179 L197 1082 L44 1082 L44 878 L197 878 L197 0 L470 0 L470 878 L674 878 L674 1082 L470 1082 L470 1179 C470 1276 527 1330 626 1330 L626 1330 Z " />
<glyph glyph-name="g" unicode="g" horiz-adv-x="1056" d="M637 225 L465 225 C397 225 345 238 345 299 C345 326 355 347 370 363 C413 353 459 347 509 347 C778 347 953 510 953 714 L953 736 C953 810 932 877 894 932 L1020 932 L1018 1082 L668 1082 C619 1095 565 1102 507 1102 C238 1102 61 953 61 736 L61 714 C61 584 133 471 255 406 C196 365 142 306 142 214 C142 161 159 120 187 89 C91 43 7 -40 7 -162 C7 -309 175 -438 483 -438 C820 -438 1012 -242 1012 -77 C1012 117 876 225 637 225 L637 225 Z M334 736 C334 823 400 891 507 891 C615 891 681 823 681 736 L681 714 C681 633 617 559 509 559 C399 559 334 633 334 714 L334 736 Z M483 -228 C336 -228 267 -167 267 -95 C267 -43 294 -1 328 21 C355 16 384 14 413 14 L602 14 C711 14 741 -36 741 -90 C741 -154 661 -228 483 -228 L483 -228 Z " />
<glyph glyph-name="h" unicode="h" horiz-adv-x="1114" d="M663 1102 C549 1102 455 1054 386 972 L386 1536 L113 1536 L113 0 L386 0 L386 774 C421 836 479 875 562 875 C668 875 725 830 725 685 L725 0 L999 0 L999 683 C999 988 862 1102 663 1102 L663 1102 Z " />
<glyph glyph-name="i" unicode="i" horiz-adv-x="542" d="M408 0 L408 1082 L134 1082 L134 0 L408 0 Z M270 1510 C177 1510 119 1449 119 1365 C119 1280 177 1220 270 1220 C364 1220 423 1280 423 1365 C423 1449 364 1510 270 1510 L270 1510 Z " />
<glyph glyph-name="j" unicode="j" horiz-adv-x="530" d="M406 1082 L132 1082 L132 -64 C132 -163 92 -208 16 -208 C-11 -208 -40 -204 -70 -198 L-70 -420 C-26 -433 21 -437 66 -437 C284 -437 406 -305 406 -64 L406 1082 Z M264 1510 C170 1510 112 1449 112 1365 C112 1280 170 1220 264 1220 C358 1220 416 1280 416 1365 C416 1449 358 1510 264 1510 L264 1510 Z " />
<glyph glyph-name="k" unicode="k" horiz-adv-x="1066" d="M756 0 L1071 0 L659 636 L1035 1082 L716 1082 L448 722 L393 657 L393 1537 L120 1537 L120 0 L393 0 L393 376 L481 456 L756 0 Z " />
<glyph glyph-name="l" unicode="l" horiz-adv-x="639" d="M404 1536 L130 1536 L130 298 C130 69 247 -20 421 -20 C490 -20 541 -10 585 6 L586 218 C568 214 539 210 506 210 C439 210 404 232 404 327 L404 1536 Z " />
<glyph glyph-name="m" unicode="m" horiz-adv-x="1712" d="M1258 1102 C1120 1102 1016 1042 950 944 C897 1054 798 1102 675 1102 C549 1102 452 1054 384 972 L376 1082 L119 1082 L119 0 L392 0 L392 774 C425 836 480 875 561 875 C659 875 719 836 719 690 L719 0 L992 0 L992 722 L992 747 C1020 824 1077 875 1161 875 C1258 875 1318 840 1318 690 L1318 0 L1591 0 L1591 690 C1591 992 1462 1102 1258 1102 L1258 1102 Z " />
<glyph glyph-name="n" unicode="n" horiz-adv-x="1117" d="M674 1102 C552 1102 451 1053 380 965 L372 1082 L114 1082 L114 0 L387 0 L387 767 C424 833 483 875 564 875 C669 875 726 833 726 691 L726 0 L1000 0 L1000 690 C1000 994 869 1102 674 1102 L674 1102 Z " />
<glyph glyph-name="o" unicode="o" horiz-adv-x="1132" d="M79 568 L79 513 C79 186 262 -20 567 -20 C871 -20 1053 186 1053 513 L1053 568 C1053 896 871 1102 565 1102 C262 1102 79 896 79 568 L79 568 Z M351 513 L351 568 C351 756 420 877 565 877 C713 877 780 756 780 568 L780 513 C780 322 714 206 567 206 C419 206 351 322 351 513 L351 513 Z " />
<glyph glyph-name="p" unicode="p" horiz-adv-x="1124" d="M647 1102 C531 1102 445 1056 382 976 L372 1082 L120 1082 L120 -416 L392 -416 L392 96 C454 23 538 -20 649 -20 C908 -20 1047 187 1047 515 L1047 570 C1047 912 909 1102 647 1102 L647 1102 Z M774 515 C774 323 718 206 571 206 C483 206 426 243 392 302 L392 779 C426 840 484 875 569 875 C716 875 774 767 774 570 L774 515 Z " />
<glyph glyph-name="q" unicode="q" horiz-adv-x="1130" d="M762 1082 L746 973 C683 1054 597 1102 481 1102 C219 1102 76 911 76 568 L76 514 C76 185 220 -20 479 -20 C587 -20 669 21 730 91 L730 -416 L1004 -416 L1004 1082 L762 1082 Z M552 206 C404 206 349 322 349 514 L349 568 C349 765 407 877 553 877 C637 877 695 843 730 785 L730 297 C695 240 638 206 552 206 L552 206 Z " />
<glyph glyph-name="r" unicode="r" horiz-adv-x="730" d="M610 1102 C511 1102 436 1050 386 961 L379 1082 L119 1082 L119 0 L393 0 L393 712 C425 784 490 821 593 821 C624 821 663 818 692 813 L695 1089 C676 1097 638 1102 610 1102 L610 1102 Z " />
<glyph glyph-name="s" unicode="s" horiz-adv-x="1031" d="M464 439 C597 395 680 370 680 291 C680 224 621 180 519 180 C419 180 330 222 324 337 L69 337 C69 162 193 -20 522 -20 C805 -20 947 113 947 310 C947 536 760 590 573 648 C439 690 366 711 366 791 C366 854 416 903 517 903 C625 903 675 843 675 760 L941 760 C941 960 805 1102 520 1102 C226 1102 104 953 104 775 C104 582 245 509 464 439 L464 439 Z " />
<glyph glyph-name="t" unicode="t" horiz-adv-x="683" d="M551 210 C484 210 448 232 448 327 L448 878 L623 878 L623 1082 L448 1082 L448 1350 L175 1350 L175 1082 L20 1082 L20 878 L175 878 L175 298 C175 69 291 -20 466 -20 C535 -20 586 -10 630 6 L631 218 C613 214 583 210 551 210 L551 210 Z " />
<glyph glyph-name="u" unicode="u" horiz-adv-x="1115" d="M725 1082 L725 311 C692 247 630 207 530 207 C449 207 386 255 386 381 L386 1082 L113 1082 L113 383 C113 96 251 -20 454 -20 C578 -20 671 26 735 105 L742 0 L999 0 L999 1082 L725 1082 Z " />
<glyph glyph-name="v" unicode="v" horiz-adv-x="1007" d="M692 1082 L503 332 L311 1082 L26 1082 L375 0 L628 0 L976 1082 L692 1082 Z " />
<glyph glyph-name="w" unicode="w" horiz-adv-x="1462" d="M1156 1082 L1018 373 L829 1082 L629 1082 L440 384 L302 1082 L38 1082 L305 0 L532 0 L728 693 L926 0 L1153 0 L1420 1082 L1156 1082 Z " />
<glyph glyph-name="x" unicode="x" horiz-adv-x="1017" d="M509 719 L341 1082 L46 1082 L342 553 L34 0 L330 0 L510 388 L692 0 L987 0 L679 553 L976 1082 L681 1082 L509 719 Z " />
<glyph glyph-name="y" unicode="y" horiz-adv-x="996" d="M687 1082 L501 333 L311 1082 L16 1082 L378 -14 L350 -68 C320 -165 270 -208 161 -208 L120 -207 L120 -418 C161 -430 192 -437 241 -437 C455 -437 534 -271 570 -163 L980 1082 L687 1082 Z " />
<glyph glyph-name="z" unicode="z" horiz-adv-x="1018" d="M427 226 L923 917 L923 1082 L97 1082 L97 856 L578 856 L85 171 L85 0 L937 0 L937 226 L427 226 Z " />
<glyph glyph-name="braceleft" unicode="&#x7b;" horiz-adv-x="673" d="M479 103 L479 307 C479 440 426 554 306 617 C426 680 479 794 479 927 L479 1132 C479 1277 511 1397 628 1441 L576 1597 C311 1520 230 1342 230 1132 L230 927 C230 800 180 717 60 717 L60 516 C180 516 230 434 230 307 L230 103 C230 -107 311 -286 576 -363 L628 -206 C510 -162 479 -43 479 103 L479 103 Z " />
<glyph glyph-name="bar" unicode="&#x7c;" horiz-adv-x="533" d="M355 -270 L355 1456 L181 1456 L181 -270 L355 -270 Z " />
<glyph glyph-name="braceright" unicode="&#x7d;" horiz-adv-x="674" d="M443 927 L443 1132 C443 1342 362 1520 97 1597 L45 1441 C161 1397 194 1277 194 1132 L194 927 C194 792 249 678 373 617 C249 556 194 442 194 307 L194 103 C194 -43 162 -162 45 -206 L97 -363 C362 -286 443 -107 443 103 L443 307 C443 434 493 516 614 516 L614 717 C493 717 443 800 443 927 L443 927 Z " />
<glyph glyph-name="asciitilde" unicode="&#x7e;" horiz-adv-x="1296" d="M1182 793 L978 793 C978 687 925 608 849 608 C799 608 756 636 701 693 C618 781 536 825 433 825 C247 825 114 670 114 418 L321 416 C321 521 369 597 445 597 C497 597 541 567 595 512 C684 419 758 379 862 379 C1047 379 1182 543 1182 793 L1182 793 Z " />
<glyph glyph-name="uni00A0" unicode="&#xa0;" horiz-adv-x="511" />
<glyph glyph-name="exclamdown" unicode="&#xa1;" horiz-adv-x="573" d="M174 642 L144 -369 L434 -369 L403 642 L174 642 Z M288 804 C382 804 440 869 440 954 C440 1037 382 1102 288 1102 C194 1102 136 1037 136 954 C136 869 194 804 288 804 L288 804 Z " />
<glyph glyph-name="cent" unicode="&#xa2;" horiz-adv-x="1115" d="M581 206 C415 206 382 328 382 510 L382 572 C382 749 417 877 578 877 C698 877 754 801 757 681 L1014 681 C1011 916 883 1061 679 1095 L679 1318 L480 1318 L480 1094 C231 1052 109 853 109 572 L109 510 C109 229 230 31 480 -11 L480 -245 L679 -245 L679 -12 C870 23 1011 166 1014 373 L757 373 C754 259 686 206 581 206 L581 206 Z " />
<glyph glyph-name="sterling" unicode="&#xa3;" horiz-adv-x="1183" d="M491 234 C532 287 548 352 546 434 L541 581 L827 581 L827 808 L534 808 L526 1039 C526 1173 591 1242 675 1242 C761 1242 838 1195 838 1060 L1110 1060 C1110 1309 955 1476 679 1476 C421 1476 240 1315 246 1039 L251 808 L105 808 L105 581 L256 581 L260 417 C262 338 251 250 191 234 L108 234 L108 0 L1119 0 L1119 234 L491 234 Z " />
<glyph glyph-name="currency" unicode="&#xa4;" horiz-adv-x="1458" d="M1337 608 C1337 746 1296 871 1227 972 L1378 1124 L1235 1265 L1088 1117 C988 1191 865 1234 732 1234 C600 1234 478 1192 378 1119 L233 1264 L91 1124 L239 975 C169 873 127 747 127 608 C127 475 165 354 231 254 L91 114 L233 -26 L365 106 C467 27 594 -20 732 -20 C871 -20 999 27 1101 108 L1235 -27 L1378 114 L1235 257 C1300 356 1337 476 1337 608 L1337 608 Z M732 165 C501 165 314 359 314 608 C314 857 501 1050 732 1050 C963 1050 1149 857 1149 608 C1149 359 963 165 732 165 L732 165 Z " />
<glyph glyph-name="yen" unicode="&#xa5;" horiz-adv-x="1070" d="M1049 1456 L752 1456 L537 903 L322 1456 L22 1456 L333 739 L103 739 L103 570 L390 570 L390 449 L103 449 L103 281 L390 281 L390 0 L674 0 L674 281 L947 281 L947 449 L674 449 L674 570 L947 570 L947 739 L739 739 L1049 1456 Z " />
<glyph glyph-name="brokenbar" unicode="&#xa6;" horiz-adv-x="530" d="M138 -270 L390 -270 L390 523 L138 523 L138 -270 Z M390 698 L390 1456 L138 1456 L138 698 L390 698 Z " />
<glyph glyph-name="section" unicode="&#xa7;" horiz-adv-x="1248" d="M978 208 C1078 264 1135 355 1135 479 C1135 720 971 821 681 901 C453 962 401 1000 401 1099 C401 1183 467 1251 621 1251 C767 1251 842 1162 842 1050 L1115 1050 C1115 1325 927 1477 621 1477 C321 1477 127 1327 127 1097 C127 964 174 875 258 809 C158 751 100 658 100 535 C100 294 269 194 552 114 C771 51 835 6 835 -84 C835 -172 758 -229 616 -229 C498 -229 370 -191 370 -37 L98 -37 C98 -358 359 -454 616 -454 C913 -454 1108 -322 1108 -82 C1108 52 1063 141 978 208 L978 208 Z M373 563 C373 627 396 679 447 709 C489 693 534 678 583 663 C801 599 866 548 866 452 C866 390 838 338 786 307 C745 323 699 338 650 352 C423 416 373 456 373 563 L373 563 Z " />
<glyph glyph-name="dieresis" unicode="&#xa8;" horiz-adv-x="962" d="M232 1492 C151 1492 96 1438 96 1368 C96 1298 151 1244 232 1244 C312 1244 368 1298 368 1368 C368 1438 312 1492 232 1492 L232 1492 Z M717 1491 C636 1491 581 1437 581 1367 C581 1298 636 1244 717 1244 C798 1244 853 1298 853 1367 C853 1437 798 1491 717 1491 L717 1491 Z " />
<glyph glyph-name="copyright" unicode="&#xa9;" horiz-adv-x="1642" d="M1141 597 L983 597 C983 465 921 415 800 415 C670 415 603 519 603 670 L603 788 C603 937 670 1042 800 1042 C921 1042 984 991 984 861 L1142 861 C1142 1070 1009 1174 800 1174 C582 1174 445 1016 445 787 L445 670 C445 440 582 283 800 283 C1009 283 1141 387 1141 597 L1141 597 Z M814 1476 C416 1476 93 1152 93 729 C93 306 416 -21 814 -21 C1212 -21 1536 306 1536 729 C1536 1152 1212 1476 814 1476 L814 1476 Z M814 102 C484 102 216 375 216 729 C216 1083 484 1354 814 1354 C1145 1354 1411 1083 1411 729 C1411 375 1145 102 814 102 L814 102 Z " />
<glyph glyph-name="guillemotleft" unicode="&#xab;" horiz-adv-x="996" d="M535 925 L357 925 L89 536 L89 517 L357 127 L535 127 L308 526 L535 925 Z M892 926 L714 926 L446 537 L446 518 L714 128 L892 128 L665 527 L892 926 Z " />
<glyph glyph-name="logicalnot" unicode="&#xac;" horiz-adv-x="1103" d="M133 803 L133 637 L731 637 L731 375 L931 375 L931 803 L133 803 Z " />
<glyph glyph-name="uni00AD" unicode="&#xad;" horiz-adv-x="751" d="M639 512 L639 739 L111 739 L111 512 L639 512 Z " />
<glyph glyph-name="registered" unicode="&#xae;" horiz-adv-x="1642" d="M814 1476 C416 1476 92 1152 92 729 C92 306 416 -21 814 -21 C1212 -21 1536 306 1536 729 C1536 1152 1212 1476 814 1476 L814 1476 Z M1127 515 C1127 604 1101 679 1029 722 C1095 762 1131 833 1131 905 C1131 1076 1002 1166 800 1166 L516 1166 L516 316 L667 316 L667 654 L829 654 C935 654 975 609 975 514 L975 460 C975 431 975 350 988 316 L1145 316 L1145 332 C1132 362 1127 409 1127 459 L1127 515 Z M814 102 C484 102 216 375 216 729 C216 1083 484 1354 814 1354 C1144 1354 1411 1083 1411 729 C1411 375 1144 102 814 102 L814 102 Z M809 785 L667 785 L667 1036 L800 1036 C933 1036 979 1002 979 904 C979 825 899 786 809 785 L809 785 Z " />
<glyph glyph-name="macron" unicode="&#xaf;" horiz-adv-x="1001" d="M833 1292 L833 1454 L170 1454 L170 1292 L833 1292 Z " />
<glyph glyph-name="degree" unicode="&#xb0;" horiz-adv-x="812" d="M407 1477 C258 1477 133 1352 133 1202 C133 1052 258 931 407 931 C555 931 676 1052 676 1202 C676 1352 555 1477 407 1477 L407 1477 Z M407 1076 C337 1076 279 1130 279 1202 C279 1276 337 1332 407 1332 C477 1332 531 1276 531 1202 C531 1129 477 1076 407 1076 L407 1076 Z " />
<glyph glyph-name="plusminus" unicode="&#xb1;" horiz-adv-x="1074" d="M128 1 L947 1 L947 229 L128 229 L128 1 Z M661 937 L661 1285 L421 1285 L421 937 L101 937 L101 704 L421 704 L421 335 L661 335 L661 704 L973 704 L973 937 L661 937 Z " />
<glyph glyph-name="uni00B2" unicode="&#xb2;" horiz-adv-x="752" d="M678 667 L678 826 L345 826 L455 921 C585 1031 656 1105 656 1221 C656 1378 548 1468 361 1468 C181 1468 69 1344 69 1195 L267 1195 C267 1255 300 1308 369 1308 C427 1308 459 1273 459 1221 C459 1188 430 1127 359 1059 L86 801 L86 667 L678 667 Z " />
<glyph glyph-name="uni00B3" unicode="&#xb3;" horiz-adv-x="752" d="M533 1072 C612 1102 662 1161 662 1242 C662 1389 539 1468 361 1468 C208 1468 74 1390 74 1243 L272 1243 C272 1284 314 1308 366 1308 C439 1308 465 1267 465 1228 C465 1173 431 1136 360 1136 L275 1136 L275 1003 L360 1003 C434 1003 477 977 477 907 C477 858 445 816 371 816 C304 816 261 857 261 903 L63 903 C63 723 218 656 360 656 C539 656 675 741 675 888 C675 991 622 1047 533 1072 L533 1072 Z " />
<glyph glyph-name="acute" unicode="&#xb4;" horiz-adv-x="694" d="M311 1536 L111 1229 L335 1229 L616 1536 L311 1536 Z " />
<glyph glyph-name="uni00B5" unicode="&#xb5;" horiz-adv-x="1217" d="M782 1082 L782 312 C748 247 688 208 589 208 C486 208 419 252 419 461 L419 1082 L146 1082 L146 -416 L419 -416 L419 27 C464 -6 519 -21 584 -21 C672 -21 743 12 796 69 L802 0 L1055 0 L1055 1082 L782 1082 Z " />
<glyph glyph-name="paragraph" unicode="&#xb6;" horiz-adv-x="984" d="M625 0 L841 0 L841 1456 L549 1456 C246 1456 81 1256 81 988 C81 718 246 520 549 520 L625 520 L625 0 Z " />
<glyph glyph-name="periodcentered" unicode="&#xb7;" horiz-adv-x="608" d="M299 849 C204 849 145 784 145 698 C145 613 204 549 299 549 C394 549 454 613 454 698 C454 784 394 849 299 849 L299 849 Z " />
<glyph glyph-name="cedilla" unicode="&#xb8;" horiz-adv-x="544" d="M340 7 L138 7 L107 -135 C204 -143 244 -160 244 -216 C244 -276 199 -300 136 -300 L142 -461 C359 -461 471 -367 471 -225 C471 -110 399 -65 330 -52 L340 7 Z " />
<glyph glyph-name="uni00B9" unicode="&#xb9;" horiz-adv-x="752" d="M520 667 L520 1454 L502 1454 L144 1334 L144 1180 L323 1223 L323 667 L520 667 Z " />
<glyph glyph-name="guillemotright" unicode="&#xbb;" horiz-adv-x="996" d="M544 516 L544 535 L275 925 L97 925 L324 526 L97 127 L275 127 L544 516 Z M643 925 L465 925 L692 526 L465 127 L643 127 L912 516 L912 535 L643 925 Z " />
<glyph glyph-name="onequarter" unicode="&#xbc;" horiz-adv-x="1370" d="M1348 324 L1265 324 L1265 789 L1066 789 L727 292 L738 161 L1067 161 L1067 0 L1265 0 L1265 161 L1348 161 L1348 324 Z M986 1330 L309 192 L443 118 L1121 1256 L986 1330 Z M482 664 L482 1451 L464 1451 L106 1331 L106 1177 L285 1220 L285 664 L482 664 Z M915 324 L1055 522 L1067 541 L1067 324 L915 324 Z " />
<glyph glyph-name="onehalf" unicode="&#xbd;" horiz-adv-x="1455" d="M1097 159 L1207 254 C1337 364 1408 438 1408 554 C1408 711 1300 801 1113 801 C933 801 821 677 821 528 L1019 528 C1019 588 1052 641 1121 641 C1179 641 1211 606 1211 554 C1211 521 1182 460 1111 392 L838 134 L838 0 L1430 0 L1430 159 L1097 159 Z M721 1322 L464 890 L464 1457 L446 1457 L88 1337 L88 1183 L267 1226 L267 670 L333 670 L44 184 L178 110 L856 1248 L721 1322 Z " />
<glyph glyph-name="threequarters" unicode="&#xbe;" horiz-adv-x="1554" d="M1463 324 L1380 324 L1380 789 L1181 789 L842 292 L853 161 L1182 161 L1182 0 L1380 0 L1380 161 L1463 161 L1463 324 Z M856 1248 L721 1322 L702 1290 C678 1406 563 1468 406 1468 C253 1468 119 1390 119 1243 L317 1243 C317 1284 359 1308 411 1308 C484 1308 510 1267 510 1228 C510 1173 476 1136 405 1136 L320 1136 L320 1003 L405 1003 C454 1003 489 992 508 964 L420 816 L416 816 C349 816 306 857 306 903 L108 903 C108 755 213 683 329 663 L44 184 L178 110 L510 667 C634 694 720 771 720 888 C720 926 713 958 699 984 L856 1248 Z M1030 324 L1170 522 L1182 541 L1182 324 L1030 324 Z " />
<glyph glyph-name="questiondown" unicode="&#xbf;" horiz-adv-x="994" d="M644 646 L398 646 C396 543 381 482 313 413 C193 292 76 182 76 6 C76 -246 235 -385 503 -385 C745 -385 932 -256 934 21 L661 21 C660 -102 582 -157 499 -157 C407 -157 350 -104 350 7 C350 121 414 185 499 270 C605 379 644 466 644 646 L644 646 Z M521 805 C615 805 674 870 674 955 C674 1038 615 1103 521 1103 C428 1103 369 1038 369 955 C369 870 428 805 521 805 L521 805 Z " />
<glyph glyph-name="Agrave" unicode="&#xc0;" horiz-adv-x="1340" d="M1020 0 L1321 0 L799 1456 L540 1456 L21 0 L322 0 L420 306 L922 306 L1020 0 Z M807 1539 L607 1846 L301 1846 L580 1539 L807 1539 Z M495 541 L671 1091 L847 541 L495 541 Z " />
<glyph glyph-name="Aacute" unicode="&#xc1;" horiz-adv-x="1340" d="M1020 0 L1321 0 L799 1456 L540 1456 L21 0 L322 0 L420 306 L922 306 L1020 0 Z M1043 1846 L738 1846 L538 1539 L762 1539 L1043 1846 Z M495 541 L671 1091 L847 541 L495 541 Z " />
<glyph glyph-name="Acircumflex" unicode="&#xc2;" horiz-adv-x="1340" d="M1020 0 L1321 0 L799 1456 L540 1456 L21 0 L322 0 L420 306 L922 306 L1020 0 Z M673 1702 L817 1556 L1033 1556 L1033 1568 L752 1846 L594 1846 L317 1571 L317 1556 L530 1556 L673 1702 Z M495 541 L671 1091 L847 541 L495 541 Z " />
<glyph glyph-name="Atilde" unicode="&#xc3;" horiz-adv-x="1340" d="M1020 0 L1321 0 L799 1456 L540 1456 L21 0 L322 0 L420 306 L922 306 L1020 0 Z M553 1654 C653 1654 690 1567 813 1567 C938 1567 1030 1684 1030 1829 L871 1840 C871 1778 835 1743 790 1743 C694 1743 631 1830 531 1830 C405 1830 314 1709 314 1566 L474 1558 C474 1619 509 1654 553 1654 L553 1654 Z M495 541 L671 1091 L847 541 L495 541 Z " />
<glyph glyph-name="Adieresis" unicode="&#xc4;" horiz-adv-x="1340" d="M1020 0 L1321 0 L799 1456 L540 1456 L21 0 L322 0 L420 306 L922 306 L1020 0 Z M426 1554 C506 1554 562 1608 562 1678 C562 1748 506 1802 426 1802 C345 1802 290 1748 290 1678 C290 1608 345 1554 426 1554 L426 1554 Z M911 1554 C992 1554 1047 1608 1047 1677 C1047 1747 992 1801 911 1801 C830 1801 775 1747 775 1677 C775 1608 830 1554 911 1554 L911 1554 Z M495 541 L671 1091 L847 541 L495 541 Z " />
<glyph glyph-name="Aring" unicode="&#xc5;" horiz-adv-x="1340" d="M1020 0 L1321 0 L799 1456 L540 1456 L21 0 L322 0 L420 306 L922 306 L1020 0 Z M674 1529 C804 1529 899 1617 899 1729 C899 1840 804 1933 674 1933 C544 1933 449 1840 449 1729 C449 1617 544 1529 674 1529 L674 1529 Z M495 541 L671 1091 L847 541 L495 541 Z M674 1838 C742 1838 785 1788 785 1729 C785 1670 742 1621 674 1621 C608 1621 564 1671 564 1729 C564 1788 608 1838 674 1838 L674 1838 Z " />
<glyph glyph-name="AE" unicode="&#xc6;" horiz-adv-x="1864" d="M1201 229 L1185 634 L1663 634 L1663 863 L1176 863 L1161 1228 L1740 1228 L1740 1456 L767 1456 L8 0 L330 0 L492 337 L923 337 L936 0 L1799 0 L1799 229 L1201 229 Z M607 576 L890 1162 L913 576 L607 576 Z " />
<glyph glyph-name="Ccedilla" unicode="&#xc7;" horiz-adv-x="1301" d="M668 216 C462 216 385 355 385 644 L385 815 C385 1109 478 1240 675 1240 C862 1240 929 1157 942 964 L1226 964 C1200 1278 1020 1477 675 1477 C322 1477 99 1226 99 813 L99 644 C99 272 272 34 563 -12 L535 -138 C632 -146 672 -163 672 -219 C672 -279 627 -303 564 -303 L570 -464 C787 -464 899 -370 899 -228 C899 -113 827 -68 758 -55 L765 -15 C1048 19 1207 203 1225 484 L941 484 C925 290 853 216 668 216 L668 216 Z " />
<glyph glyph-name="Egrave" unicode="&#xc8;" horiz-adv-x="1123" d="M422 234 L422 635 L969 635 L969 863 L422 863 L422 1221 L1061 1221 L1061 1456 L138 1456 L138 0 L1065 0 L1065 234 L422 234 Z M748 1543 L548 1850 L242 1850 L521 1543 L748 1543 Z " />
<glyph glyph-name="Eacute" unicode="&#xc9;" horiz-adv-x="1123" d="M422 234 L422 635 L969 635 L969 863 L422 863 L422 1221 L1061 1221 L1061 1456 L138 1456 L138 0 L1065 0 L1065 234 L422 234 Z M984 1850 L679 1850 L479 1543 L703 1543 L984 1850 Z " />
<glyph glyph-name="Ecircumflex" unicode="&#xca;" horiz-adv-x="1123" d="M422 234 L422 635 L969 635 L969 863 L422 863 L422 1221 L1061 1221 L1061 1456 L138 1456 L138 0 L1065 0 L1065 234 L422 234 Z M614 1706 L758 1560 L974 1560 L974 1572 L693 1850 L535 1850 L258 1575 L258 1560 L471 1560 L614 1706 Z " />
<glyph glyph-name="Edieresis" unicode="&#xcb;" horiz-adv-x="1123" d="M422 234 L422 635 L969 635 L969 863 L422 863 L422 1221 L1061 1221 L1061 1456 L138 1456 L138 0 L1065 0 L1065 234 L422 234 Z M367 1558 C447 1558 503 1612 503 1682 C503 1752 447 1806 367 1806 C286 1806 231 1752 231 1682 C231 1612 286 1558 367 1558 L367 1558 Z M852 1558 C933 1558 988 1612 988 1681 C988 1751 933 1805 852 1805 C771 1805 716 1751 716 1681 C716 1612 771 1558 852 1558 L852 1558 Z " />
<glyph glyph-name="Igrave" unicode="&#xcc;" horiz-adv-x="590" d="M437 0 L437 1456 L154 1456 L154 0 L437 0 Z M428 1543 L228 1850 L-78 1850 L201 1543 L428 1543 Z " />
<glyph glyph-name="Iacute" unicode="&#xcd;" horiz-adv-x="590" d="M437 0 L437 1456 L154 1456 L154 0 L437 0 Z M359 1850 L159 1543 L383 1543 L664 1850 L359 1850 Z " />
<glyph glyph-name="Icircumflex" unicode="&#xce;" horiz-adv-x="590" d="M437 0 L437 1456 L154 1456 L154 0 L437 0 Z M654 1572 L373 1850 L215 1850 L-62 1575 L-62 1560 L151 1560 L294 1706 L438 1560 L654 1560 L654 1572 Z " />
<glyph glyph-name="Idieresis" unicode="&#xcf;" horiz-adv-x="590" d="M437 0 L437 1456 L154 1456 L154 0 L437 0 Z M47 1806 C-34 1806 -89 1752 -89 1682 C-89 1612 -34 1558 47 1558 C127 1558 183 1612 183 1682 C183 1752 127 1806 47 1806 L47 1806 Z M532 1805 C451 1805 396 1751 396 1681 C396 1612 451 1558 532 1558 C613 1558 668 1612 668 1681 C668 1751 613 1805 532 1805 L532 1805 Z " />
<glyph glyph-name="Eth" unicode="&#xd0;" horiz-adv-x="1294" d="M561 1456 L138 1456 L138 823 L-8 823 L-8 645 L138 645 L138 0 L555 0 C938 0 1192 250 1192 653 L1192 803 C1192 1205 937 1456 561 1456 L561 1456 Z M907 653 C907 372 800 234 555 234 L422 234 L422 645 L655 645 L655 823 L422 823 L422 1221 L561 1221 C797 1221 907 1088 907 805 L907 653 Z " />
<glyph glyph-name="Ntilde" unicode="&#xd1;" horiz-adv-x="1404" d="M1264 0 L1264 1456 L981 1456 L981 475 L437 1456 L138 1456 L138 0 L422 0 L422 985 L971 0 L1264 0 Z M1060 1829 L901 1840 C901 1778 865 1743 820 1743 C724 1743 661 1830 561 1830 C435 1830 344 1709 344 1566 L504 1558 C504 1619 539 1654 583 1654 C683 1654 720 1567 843 1567 C968 1567 1060 1684 1060 1829 L1060 1829 Z " />
<glyph glyph-name="Ograve" unicode="&#xd2;" horiz-adv-x="1373" d="M1271 648 L1271 803 C1271 1232 1035 1476 685 1476 C339 1476 100 1232 100 803 L100 648 C100 221 342 -20 687 -20 C1037 -20 1271 221 1271 648 L1271 648 Z M821 1540 L621 1847 L315 1847 L594 1540 L821 1540 Z M987 805 L987 648 C987 359 880 218 687 218 C497 218 385 359 385 648 L385 805 C385 1098 495 1237 685 1237 C878 1237 987 1098 987 805 L987 805 Z " />
<glyph glyph-name="Oacute" unicode="&#xd3;" horiz-adv-x="1373" d="M1271 648 L1271 803 C1271 1232 1035 1476 685 1476 C339 1476 100 1232 100 803 L100 648 C100 221 342 -20 687 -20 C1037 -20 1271 221 1271 648 L1271 648 Z M752 1847 L552 1540 L776 1540 L1057 1847 L752 1847 Z M987 805 L987 648 C987 359 880 218 687 218 C497 218 385 359 385 648 L385 805 C385 1098 495 1237 685 1237 C878 1237 987 1098 987 805 L987 805 Z " />
<glyph glyph-name="Ocircumflex" unicode="&#xd4;" horiz-adv-x="1373" d="M1271 648 L1271 803 C1271 1232 1035 1476 685 1476 C339 1476 100 1232 100 803 L100 648 C100 221 342 -20 687 -20 C1037 -20 1271 221 1271 648 L1271 648 Z M1047 1569 L766 1847 L608 1847 L331 1572 L331 1557 L544 1557 L687 1703 L831 1557 L1047 1557 L1047 1569 Z M987 805 L987 648 C987 359 880 218 687 218 C497 218 385 359 385 648 L385 805 C385 1098 495 1237 685 1237 C878 1237 987 1098 987 805 L987 805 Z " />
<glyph glyph-name="Otilde" unicode="&#xd5;" horiz-adv-x="1373" d="M1271 648 L1271 803 C1271 1232 1035 1476 685 1476 C339 1476 100 1232 100 803 L100 648 C100 221 342 -20 687 -20 C1037 -20 1271 221 1271 648 L1271 648 Z M1044 1830 L885 1841 C885 1779 849 1744 804 1744 C708 1744 645 1831 545 1831 C419 1831 328 1710 328 1567 L488 1559 C488 1620 523 1655 567 1655 C667 1655 704 1568 827 1568 C952 1568 1044 1685 1044 1830 L1044 1830 Z M987 805 L987 648 C987 359 880 218 687 218 C497 218 385 359 385 648 L385 805 C385 1098 495 1237 685 1237 C878 1237 987 1098 987 805 L987 805 Z " />
<glyph glyph-name="Odieresis" unicode="&#xd6;" horiz-adv-x="1373" d="M1271 648 L1271 803 C1271 1232 1035 1476 685 1476 C339 1476 100 1232 100 803 L100 648 C100 221 342 -20 687 -20 C1037 -20 1271 221 1271 648 L1271 648 Z M440 1803 C359 1803 304 1749 304 1679 C304 1609 359 1555 440 1555 C520 1555 576 1609 576 1679 C576 1749 520 1803 440 1803 L440 1803 Z M925 1802 C844 1802 789 1748 789 1678 C789 1609 844 1555 925 1555 C1006 1555 1061 1609 1061 1678 C1061 1748 1006 1802 925 1802 L925 1802 Z M987 805 L987 648 C987 359 880 218 687 218 C497 218 385 359 385 648 L385 805 C385 1098 495 1237 685 1237 C878 1237 987 1098 987 805 L987 805 Z " />
<glyph glyph-name="multiply" unicode="&#xd7;" horiz-adv-x="1065" d="M981 991 L818 1155 L528 844 L237 1155 L75 991 L370 675 L77 361 L239 197 L528 506 L817 197 L979 361 L686 675 L981 991 Z " />
<glyph glyph-name="Oslash" unicode="&#xd8;" horiz-adv-x="1322" d="M1122 1297 L1247 1517 L1069 1517 L1001 1398 C915 1449 811 1476 695 1476 C349 1476 110 1232 110 803 L110 648 C110 426 176 254 287 140 L154 -94 L333 -94 L413 46 C495 3 591 -20 697 -20 C1047 -20 1281 221 1281 648 L1281 803 C1281 1015 1223 1183 1122 1297 L1122 1297 Z M395 648 L395 805 C395 1098 505 1237 695 1237 C768 1237 828 1217 876 1177 L434 400 C409 465 395 547 395 648 L395 648 Z M997 648 C997 359 890 218 697 218 C635 218 580 233 536 264 L969 1026 C987 966 997 892 997 805 L997 648 Z " />
<glyph glyph-name="Ugrave" unicode="&#xd9;" horiz-adv-x="1303" d="M1183 1456 L898 1456 L898 475 C898 279 808 214 652 214 C498 214 406 279 406 475 L406 1456 L122 1456 L122 475 C122 138 344 -20 652 -20 C955 -20 1183 138 1183 475 L1183 1456 Z M782 1539 L582 1846 L276 1846 L555 1539 L782 1539 Z " />
<glyph glyph-name="Uacute" unicode="&#xda;" horiz-adv-x="1303" d="M1183 1456 L898 1456 L898 475 C898 279 808 214 652 214 C498 214 406 279 406 475 L406 1456 L122 1456 L122 475 C122 138 344 -20 652 -20 C955 -20 1183 138 1183 475 L1183 1456 Z M713 1846 L513 1539 L737 1539 L1018 1846 L713 1846 Z " />
<glyph glyph-name="Ucircumflex" unicode="&#xdb;" horiz-adv-x="1303" d="M1183 1456 L898 1456 L898 475 C898 279 808 214 652 214 C498 214 406 279 406 475 L406 1456 L122 1456 L122 475 C122 138 344 -20 652 -20 C955 -20 1183 138 1183 475 L1183 1456 Z M1008 1568 L727 1846 L569 1846 L292 1571 L292 1556 L505 1556 L648 1702 L792 1556 L1008 1556 L1008 1568 Z " />
<glyph glyph-name="Udieresis" unicode="&#xdc;" horiz-adv-x="1303" d="M1183 1456 L898 1456 L898 475 C898 279 808 214 652 214 C498 214 406 279 406 475 L406 1456 L122 1456 L122 475 C122 138 344 -20 652 -20 C955 -20 1183 138 1183 475 L1183 1456 Z M401 1802 C320 1802 265 1748 265 1678 C265 1608 320 1554 401 1554 C481 1554 537 1608 537 1678 C537 1748 481 1802 401 1802 L401 1802 Z M886 1801 C805 1801 750 1747 750 1677 C750 1608 805 1554 886 1554 C967 1554 1022 1608 1022 1677 C1022 1747 967 1801 886 1801 L886 1801 Z " />
<glyph glyph-name="Yacute" unicode="&#xdd;" horiz-adv-x="1227" d="M613 777 L326 1456 L14 1456 L469 530 L469 0 L756 0 L756 530 L1212 1456 L899 1456 L613 777 Z M681 1846 L481 1539 L705 1539 L986 1846 L681 1846 Z " />
<glyph glyph-name="Thorn" unicode="&#xde;" horiz-adv-x="1206" d="M625 1187 L414 1187 L414 1456 L140 1456 L140 0 L414 0 L414 289 L625 289 C954 289 1133 477 1133 738 C1133 1000 954 1187 625 1187 L625 1187 Z M625 514 L414 514 L414 965 L416 962 L625 962 C793 962 860 853 860 736 C860 622 793 514 625 514 L625 514 Z " />
<glyph glyph-name="germandbls" unicode="&#xdf;" horiz-adv-x="1248" d="M413 0 L413 1100 C413 1273 472 1334 570 1334 C658 1334 720 1274 720 1179 C720 1023 610 998 610 819 C610 560 900 514 900 348 C900 261 849 206 746 206 C656 206 578 235 539 260 L487 38 C538 4 656 -20 754 -20 C1023 -20 1173 116 1173 353 C1173 604 882 693 882 831 C882 988 988 995 988 1193 C988 1435 811 1559 586 1559 C315 1559 140 1404 140 1103 L140 0 L413 0 Z " />
<glyph glyph-name="agrave" unicode="&#xe0;" horiz-adv-x="1074" d="M954 262 L954 737 C954 989 780 1102 542 1102 C276 1102 106 947 106 759 L379 759 C379 841 436 893 527 893 C633 893 680 843 680 740 L680 659 L546 659 C233 659 84 517 84 306 C84 103 220 -20 422 -20 C541 -20 633 24 694 89 C700 55 708 24 719 0 L995 0 L995 17 C969 72 954 141 954 262 L954 262 Z M675 1229 L475 1536 L169 1536 L448 1229 L675 1229 Z M478 195 C386 195 356 236 356 320 C356 419 407 495 559 495 L680 495 L680 291 C649 242 572 195 478 195 L478 195 Z " />
<glyph glyph-name="aacute" unicode="&#xe1;" horiz-adv-x="1074" d="M954 262 L954 737 C954 989 780 1102 542 1102 C276 1102 106 947 106 759 L379 759 C379 841 436 893 527 893 C633 893 680 843 680 740 L680 659 L546 659 C233 659 84 517 84 306 C84 103 220 -20 422 -20 C541 -20 633 24 694 89 C700 55 708 24 719 0 L995 0 L995 17 C969 72 954 141 954 262 L954 262 Z M911 1536 L606 1536 L406 1229 L630 1229 L911 1536 Z M478 195 C386 195 356 236 356 320 C356 419 407 495 559 495 L680 495 L680 291 C649 242 572 195 478 195 L478 195 Z " />
<glyph glyph-name="acircumflex" unicode="&#xe2;" horiz-adv-x="1074" d="M954 262 L954 737 C954 989 780 1102 542 1102 C276 1102 106 947 106 759 L379 759 C379 841 436 893 527 893 C633 893 680 843 680 740 L680 659 L546 659 C233 659 84 517 84 306 C84 103 220 -20 422 -20 C541 -20 633 24 694 89 C700 55 708 24 719 0 L995 0 L995 17 C969 72 954 141 954 262 L954 262 Z M541 1392 L685 1246 L901 1246 L901 1258 L620 1536 L462 1536 L185 1261 L185 1246 L398 1246 L541 1392 Z M478 195 C386 195 356 236 356 320 C356 419 407 495 559 495 L680 495 L680 291 C649 242 572 195 478 195 L478 195 Z " />
<glyph glyph-name="atilde" unicode="&#xe3;" horiz-adv-x="1074" d="M954 262 L954 737 C954 989 780 1102 542 1102 C276 1102 106 947 106 759 L379 759 C379 841 436 893 527 893 C633 893 680 843 680 740 L680 659 L546 659 C233 659 84 517 84 306 C84 103 220 -20 422 -20 C541 -20 633 24 694 89 C700 55 708 24 719 0 L995 0 L995 17 C969 72 954 141 954 262 L954 262 Z M421 1344 C521 1344 558 1257 681 1257 C806 1257 898 1374 898 1519 L739 1530 C739 1468 703 1433 658 1433 C562 1433 499 1520 399 1520 C273 1520 182 1399 182 1256 L342 1248 C342 1309 377 1344 421 1344 L421 1344 Z M478 195 C386 195 356 236 356 320 C356 419 407 495 559 495 L680 495 L680 291 C649 242 572 195 478 195 L478 195 Z " />
<glyph glyph-name="adieresis" unicode="&#xe4;" horiz-adv-x="1074" d="M954 262 L954 737 C954 989 780 1102 542 1102 C276 1102 106 947 106 759 L379 759 C379 841 436 893 527 893 C633 893 680 843 680 740 L680 659 L546 659 C233 659 84 517 84 306 C84 103 220 -20 422 -20 C541 -20 633 24 694 89 C700 55 708 24 719 0 L995 0 L995 17 C969 72 954 141 954 262 L954 262 Z M294 1244 C374 1244 430 1298 430 1368 C430 1438 374 1492 294 1492 C213 1492 158 1438 158 1368 C158 1298 213 1244 294 1244 L294 1244 Z M779 1244 C860 1244 915 1298 915 1367 C915 1437 860 1491 779 1491 C698 1491 643 1437 643 1367 C643 1298 698 1244 779 1244 L779 1244 Z M478 195 C386 195 356 236 356 320 C356 419 407 495 559 495 L680 495 L680 291 C649 242 572 195 478 195 L478 195 Z " />
<glyph glyph-name="aring" unicode="&#xe5;" horiz-adv-x="1074" d="M954 262 L954 737 C954 989 780 1102 542 1102 C276 1102 106 947 106 759 L379 759 C379 841 436 893 527 893 C633 893 680 843 680 740 L680 659 L546 659 C233 659 84 517 84 306 C84 103 220 -20 422 -20 C541 -20 633 24 694 89 C700 55 708 24 719 0 L995 0 L995 17 C969 72 954 141 954 262 L954 262 Z M542 1219 C672 1219 767 1307 767 1419 C767 1530 672 1623 542 1623 C412 1623 317 1530 317 1419 C317 1307 412 1219 542 1219 L542 1219 Z M478 195 C386 195 356 236 356 320 C356 419 407 495 559 495 L680 495 L680 291 C649 242 572 195 478 195 L478 195 Z M542 1528 C610 1528 653 1478 653 1419 C653 1360 610 1311 542 1311 C476 1311 432 1361 432 1419 C432 1478 476 1528 542 1528 L542 1528 Z " />
<glyph glyph-name="ae" unicode="&#xe6;" horiz-adv-x="1670" d="M1607 614 C1607 914 1448 1102 1174 1102 C1047 1102 943 1061 865 990 C793 1065 684 1102 552 1102 C284 1102 108 960 108 765 L381 747 C381 818 444 877 550 877 C647 877 701 812 701 707 L701 649 L542 649 C237 649 76 529 76 318 C76 113 209 -21 451 -21 C636 -21 760 51 830 128 C914 34 1039 -21 1201 -21 C1382 -21 1522 47 1582 101 L1508 285 C1436 244 1362 206 1225 206 C1058 206 981 311 969 455 L1607 455 L1607 614 Z M348 314 C348 393 417 466 545 466 L701 466 L701 266 C651 223 572 186 504 186 C397 186 348 237 348 314 L348 314 Z M1338 645 L971 645 C988 781 1049 877 1174 877 C1291 877 1338 793 1338 672 L1338 645 Z " />
<glyph glyph-name="ccedilla" unicode="&#xe7;" horiz-adv-x="1044" d="M549 206 C383 206 350 328 350 510 L350 572 C350 749 385 877 546 877 C666 877 722 801 725 681 L982 681 C979 951 810 1102 552 1102 C233 1102 77 890 77 572 L77 510 C77 233 194 38 435 -9 L407 -138 C504 -146 544 -163 544 -219 C544 -279 499 -303 436 -303 L442 -464 C659 -464 771 -370 771 -228 C771 -113 699 -68 630 -55 L637 -14 C833 18 979 162 982 373 L725 373 C722 259 654 206 549 206 L549 206 Z " />
<glyph glyph-name="egrave" unicode="&#xe8;" horiz-adv-x="1080" d="M1016 585 C1016 919 858 1102 571 1102 C267 1102 84 918 84 561 L84 488 C84 151 273 -20 592 -20 C797 -20 930 67 997 155 L869 316 C807 243 716 206 614 206 C457 206 368 284 358 458 L1016 458 L1016 585 Z M667 1230 L467 1537 L161 1537 L440 1230 L667 1230 Z M746 645 L361 645 C377 800 442 882 573 882 C694 882 745 799 746 670 L746 645 Z " />
<glyph glyph-name="eacute" unicode="&#xe9;" horiz-adv-x="1080" d="M1016 585 C1016 919 858 1102 571 1102 C267 1102 84 918 84 561 L84 488 C84 151 273 -20 592 -20 C797 -20 930 67 997 155 L869 316 C807 243 716 206 614 206 C457 206 368 284 358 458 L1016 458 L1016 585 Z M903 1537 L598 1537 L398 1230 L622 1230 L903 1537 Z M746 645 L361 645 C377 800 442 882 573 882 C694 882 745 799 746 670 L746 645 Z " />
<glyph glyph-name="ecircumflex" unicode="&#xea;" horiz-adv-x="1080" d="M1016 585 C1016 919 858 1102 571 1102 C267 1102 84 918 84 561 L84 488 C84 151 273 -20 592 -20 C797 -20 930 67 997 155 L869 316 C807 243 716 206 614 206 C457 206 368 284 358 458 L1016 458 L1016 585 Z M533 1393 L677 1247 L893 1247 L893 1259 L612 1537 L454 1537 L177 1262 L177 1247 L390 1247 L533 1393 Z M746 645 L361 645 C377 800 442 882 573 882 C694 882 745 799 746 670 L746 645 Z " />
<glyph glyph-name="edieresis" unicode="&#xeb;" horiz-adv-x="1080" d="M1016 585 C1016 919 858 1102 571 1102 C267 1102 84 918 84 561 L84 488 C84 151 273 -20 592 -20 C797 -20 930 67 997 155 L869 316 C807 243 716 206 614 206 C457 206 368 284 358 458 L1016 458 L1016 585 Z M286 1245 C366 1245 422 1299 422 1369 C422 1439 366 1493 286 1493 C205 1493 150 1439 150 1369 C150 1299 205 1245 286 1245 L286 1245 Z M771 1245 C852 1245 907 1299 907 1368 C907 1438 852 1492 771 1492 C690 1492 635 1438 635 1368 C635 1299 690 1245 771 1245 L771 1245 Z M746 645 L361 645 C377 800 442 882 573 882 C694 882 745 799 746 670 L746 645 Z " />
<glyph glyph-name="igrave" unicode="&#xec;" horiz-adv-x="560" d="M414 0 L414 1082 L140 1082 L140 0 L414 0 Z M413 1214 L213 1521 L-93 1521 L186 1214 L413 1214 Z " />
<glyph glyph-name="iacute" unicode="&#xed;" horiz-adv-x="560" d="M414 0 L414 1082 L140 1082 L140 0 L414 0 Z M344 1521 L144 1214 L368 1214 L649 1521 L344 1521 Z " />
<glyph glyph-name="icircumflex" unicode="&#xee;" horiz-adv-x="560" d="M414 0 L414 1082 L140 1082 L140 0 L414 0 Z M639 1243 L358 1521 L200 1521 L-77 1246 L-77 1231 L136 1231 L279 1377 L423 1231 L639 1231 L639 1243 Z " />
<glyph glyph-name="idieresis" unicode="&#xef;" horiz-adv-x="560" d="M414 0 L414 1082 L140 1082 L140 0 L414 0 Z M32 1477 C-49 1477 -104 1423 -104 1353 C-104 1283 -49 1229 32 1229 C112 1229 168 1283 168 1353 C168 1423 112 1477 32 1477 L32 1477 Z M517 1476 C436 1476 381 1422 381 1352 C381 1283 436 1229 517 1229 C598 1229 653 1283 653 1352 C653 1422 598 1476 517 1476 L517 1476 Z " />
<glyph glyph-name="eth" unicode="&#xf0;" horiz-adv-x="1151" d="M816 1305 L953 1396 L877 1507 L712 1398 C600 1485 465 1547 316 1580 L231 1364 C321 1339 409 1301 487 1249 L337 1150 L414 1038 L597 1159 C666 1089 722 1001 755 892 C692 939 614 966 526 966 C259 966 94 768 94 468 C94 196 287 -20 571 -20 C855 -20 1063 222 1063 576 L1063 649 C1063 918 970 1142 816 1305 L816 1305 Z M789 548 C789 352 714 206 575 206 C443 206 366 326 366 468 C366 644 445 754 589 754 C689 754 755 714 789 667 L789 651 L789 548 Z " />
<glyph glyph-name="ntilde" unicode="&#xf1;" horiz-adv-x="1117" d="M674 1102 C552 1102 451 1053 380 965 L372 1082 L114 1082 L114 0 L387 0 L387 767 C424 833 483 875 564 875 C669 875 726 833 726 691 L726 0 L1000 0 L1000 690 C1000 994 869 1102 674 1102 L674 1102 Z M440 1344 C540 1344 577 1257 700 1257 C825 1257 917 1374 917 1519 L758 1530 C758 1468 722 1433 677 1433 C581 1433 518 1520 418 1520 C292 1520 201 1399 201 1256 L361 1248 C361 1309 396 1344 440 1344 L440 1344 Z " />
<glyph glyph-name="ograve" unicode="&#xf2;" horiz-adv-x="1132" d="M79 568 L79 513 C79 186 262 -20 567 -20 C871 -20 1053 186 1053 513 L1053 568 C1053 896 871 1102 565 1102 C262 1102 79 896 79 568 L79 568 Z M695 1229 L495 1536 L189 1536 L468 1229 L695 1229 Z M351 513 L351 568 C351 756 420 877 565 877 C713 877 780 756 780 568 L780 513 C780 322 714 206 567 206 C419 206 351 322 351 513 L351 513 Z " />
<glyph glyph-name="oacute" unicode="&#xf3;" horiz-adv-x="1132" d="M79 568 L79 513 C79 186 262 -20 567 -20 C871 -20 1053 186 1053 513 L1053 568 C1053 896 871 1102 565 1102 C262 1102 79 896 79 568 L79 568 Z M626 1536 L426 1229 L650 1229 L931 1536 L626 1536 Z M351 513 L351 568 C351 756 420 877 565 877 C713 877 780 756 780 568 L780 513 C780 322 714 206 567 206 C419 206 351 322 351 513 L351 513 Z " />
<glyph glyph-name="ocircumflex" unicode="&#xf4;" horiz-adv-x="1132" d="M79 568 L79 513 C79 186 262 -20 567 -20 C871 -20 1053 186 1053 513 L1053 568 C1053 896 871 1102 565 1102 C262 1102 79 896 79 568 L79 568 Z M921 1258 L640 1536 L482 1536 L205 1261 L205 1246 L418 1246 L561 1392 L705 1246 L921 1246 L921 1258 Z M351 513 L351 568 C351 756 420 877 565 877 C713 877 780 756 780 568 L780 513 C780 322 714 206 567 206 C419 206 351 322 351 513 L351 513 Z " />
<glyph glyph-name="otilde" unicode="&#xf5;" horiz-adv-x="1132" d="M79 568 L79 513 C79 186 262 -20 567 -20 C871 -20 1053 186 1053 513 L1053 568 C1053 896 871 1102 565 1102 C262 1102 79 896 79 568 L79 568 Z M918 1519 L759 1530 C759 1468 723 1433 678 1433 C582 1433 519 1520 419 1520 C293 1520 202 1399 202 1256 L362 1248 C362 1309 397 1344 441 1344 C541 1344 578 1257 701 1257 C826 1257 918 1374 918 1519 L918 1519 Z M351 513 L351 568 C351 756 420 877 565 877 C713 877 780 756 780 568 L780 513 C780 322 714 206 567 206 C419 206 351 322 351 513 L351 513 Z " />
<glyph glyph-name="odieresis" unicode="&#xf6;" horiz-adv-x="1132" d="M79 568 L79 513 C79 186 262 -20 567 -20 C871 -20 1053 186 1053 513 L1053 568 C1053 896 871 1102 565 1102 C262 1102 79 896 79 568 L79 568 Z M314 1492 C233 1492 178 1438 178 1368 C178 1298 233 1244 314 1244 C394 1244 450 1298 450 1368 C450 1438 394 1492 314 1492 L314 1492 Z M799 1491 C718 1491 663 1437 663 1367 C663 1298 718 1244 799 1244 C880 1244 935 1298 935 1367 C935 1437 880 1491 799 1491 L799 1491 Z M351 513 L351 568 C351 756 420 877 565 877 C713 877 780 756 780 568 L780 513 C780 322 714 206 567 206 C419 206 351 322 351 513 L351 513 Z " />
<glyph glyph-name="divide" unicode="&#xf7;" horiz-adv-x="1138" d="M562 426 C467 426 408 364 408 279 C408 194 467 132 562 132 C658 132 717 194 717 279 C717 364 658 426 562 426 L562 426 Z M1049 576 L1049 800 L73 800 L73 576 L1049 576 Z M562 1237 C467 1237 408 1175 408 1089 C408 1005 467 943 562 943 C658 943 717 1005 717 1089 C717 1175 658 1237 562 1237 L562 1237 Z " />
<glyph glyph-name="oslash" unicode="&#xf8;" horiz-adv-x="1086" d="M867 1013 L961 1216 L808 1216 L743 1076 C691 1093 633 1102 569 1102 C266 1102 83 896 83 568 L83 513 C83 313 152 158 275 68 L177 -142 L330 -142 L399 5 C450 -11 508 -20 571 -20 C875 -20 1057 186 1057 513 L1057 568 C1057 768 989 923 867 1013 L867 1013 Z M355 513 L355 568 C355 756 424 877 569 877 C597 877 622 873 645 864 L391 318 C367 368 355 434 355 513 L355 513 Z M784 513 C784 322 718 206 571 206 C544 206 519 210 497 218 L750 761 C773 710 784 645 784 568 L784 513 Z " />
<glyph glyph-name="ugrave" unicode="&#xf9;" horiz-adv-x="1115" d="M725 1082 L725 311 C692 247 630 207 530 207 C449 207 386 255 386 381 L386 1082 L113 1082 L113 383 C113 96 251 -20 454 -20 C578 -20 671 26 735 105 L742 0 L999 0 L999 1082 L725 1082 Z M689 1229 L489 1536 L183 1536 L462 1229 L689 1229 Z " />
<glyph glyph-name="uacute" unicode="&#xfa;" horiz-adv-x="1115" d="M725 1082 L725 311 C692 247 630 207 530 207 C449 207 386 255 386 381 L386 1082 L113 1082 L113 383 C113 96 251 -20 454 -20 C578 -20 671 26 735 105 L742 0 L999 0 L999 1082 L725 1082 Z M925 1536 L620 1536 L420 1229 L644 1229 L925 1536 Z " />
<glyph glyph-name="ucircumflex" unicode="&#xfb;" horiz-adv-x="1115" d="M725 1082 L725 311 C692 247 630 207 530 207 C449 207 386 255 386 381 L386 1082 L113 1082 L113 383 C113 96 251 -20 454 -20 C578 -20 671 26 735 105 L742 0 L999 0 L999 1082 L725 1082 Z M555 1392 L699 1246 L915 1246 L915 1258 L634 1536 L476 1536 L199 1261 L199 1246 L412 1246 L555 1392 Z " />
<glyph glyph-name="udieresis" unicode="&#xfc;" horiz-adv-x="1115" d="M725 1082 L725 311 C692 247 630 207 530 207 C449 207 386 255 386 381 L386 1082 L113 1082 L113 383 C113 96 251 -20 454 -20 C578 -20 671 26 735 105 L742 0 L999 0 L999 1082 L725 1082 Z M308 1244 C388 1244 444 1298 444 1368 C444 1438 388 1492 308 1492 C227 1492 172 1438 172 1368 C172 1298 227 1244 308 1244 L308 1244 Z M793 1244 C874 1244 929 1298 929 1367 C929 1437 874 1491 793 1491 C712 1491 657 1437 657 1367 C657 1298 712 1244 793 1244 L793 1244 Z " />
<glyph glyph-name="yacute" unicode="&#xfd;" horiz-adv-x="996" d="M687 1082 L501 333 L311 1082 L16 1082 L378 -14 L350 -68 C320 -165 270 -208 161 -208 L120 -207 L120 -418 C161 -430 192 -437 241 -437 C455 -437 534 -271 570 -163 L980 1082 L687 1082 Z M876 1536 L571 1536 L371 1229 L595 1229 L876 1536 Z " />
<glyph glyph-name="thorn" unicode="&#xfe;" horiz-adv-x="1138" d="M647 1102 C541 1102 459 1063 397 996 L397 1536 L123 1536 L123 -416 L397 -416 L397 89 C459 20 542 -20 650 -20 C909 -20 1050 216 1050 532 L1050 553 C1050 883 910 1102 647 1102 L647 1102 Z M777 532 C777 353 722 206 575 206 C488 206 431 243 397 304 L397 776 C431 839 489 875 573 875 C719 875 777 737 777 553 L777 532 Z " />
<glyph glyph-name="ydieresis" unicode="&#xff;" horiz-adv-x="996" d="M687 1082 L501 333 L311 1082 L16 1082 L378 -14 L350 -68 C320 -165 270 -208 161 -208 L120 -207 L120 -418 C161 -430 192 -437 241 -437 C455 -437 534 -271 570 -163 L980 1082 L687 1082 Z M259 1244 C339 1244 395 1298 395 1368 C395 1438 339 1492 259 1492 C178 1492 123 1438 123 1368 C123 1298 178 1244 259 1244 L259 1244 Z M744 1244 C825 1244 880 1298 880 1367 C880 1437 825 1491 744 1491 C663 1491 608 1437 608 1367 C608 1298 663 1244 744 1244 L744 1244 Z " />
<glyph glyph-name="Amacron" unicode="&#x100;" horiz-adv-x="1340" d="M1020 0 L1321 0 L799 1456 L540 1456 L21 0 L322 0 L420 306 L922 306 L1020 0 Z M1006 1762 L343 1762 L343 1600 L1006 1600 L1006 1762 Z M495 541 L671 1091 L847 541 L495 541 Z " />
<glyph glyph-name="amacron" unicode="&#x101;" horiz-adv-x="1074" d="M954 262 L954 737 C954 989 780 1102 542 1102 C276 1102 106 947 106 759 L379 759 C379 841 436 893 527 893 C633 893 680 843 680 740 L680 659 L546 659 C233 659 84 517 84 306 C84 103 220 -20 422 -20 C541 -20 633 24 694 89 C700 55 708 24 719 0 L995 0 L995 17 C969 72 954 141 954 262 L954 262 Z M874 1452 L211 1452 L211 1290 L874 1290 L874 1452 Z M478 195 C386 195 356 236 356 320 C356 419 407 495 559 495 L680 495 L680 291 C649 242 572 195 478 195 L478 195 Z " />
<glyph glyph-name="Abreve" unicode="&#x102;" horiz-adv-x="1340" d="M1020 0 L1321 0 L799 1456 L540 1456 L21 0 L322 0 L420 306 L922 306 L1020 0 Z M670 1540 C881 1540 1013 1661 1013 1835 L812 1835 C812 1765 774 1701 670 1701 C564 1701 526 1765 526 1835 L326 1835 C326 1661 459 1540 670 1540 L670 1540 Z M495 541 L671 1091 L847 541 L495 541 Z " />
<glyph glyph-name="abreve" unicode="&#x103;" horiz-adv-x="1074" d="M954 262 L954 737 C954 989 780 1102 542 1102 C276 1102 106 947 106 759 L379 759 C379 841 436 893 527 893 C633 893 680 843 680 740 L680 659 L546 659 C233 659 84 517 84 306 C84 103 220 -20 422 -20 C541 -20 633 24 694 89 C700 55 708 24 719 0 L995 0 L995 17 C969 72 954 141 954 262 L954 262 Z M538 1230 C749 1230 881 1351 881 1525 L680 1525 C680 1455 642 1391 538 1391 C432 1391 394 1455 394 1525 L194 1525 C194 1351 327 1230 538 1230 L538 1230 Z M478 195 C386 195 356 236 356 320 C356 419 407 495 559 495 L680 495 L680 291 C649 242 572 195 478 195 L478 195 Z " />
<glyph glyph-name="Aogonek" unicode="&#x104;" horiz-adv-x="1340" d="M1159 -246 C1113 -246 1096 -218 1096 -180 C1096 -108 1151 -57 1243 0 L1321 0 L799 1456 L540 1456 L21 0 L322 0 L420 306 L922 306 L1017 8 C919 -59 888 -137 888 -215 C888 -351 984 -422 1103 -422 C1181 -422 1230 -398 1262 -378 L1236 -225 C1219 -234 1195 -246 1159 -246 L1159 -246 Z M495 541 L671 1091 L847 541 L495 541 Z " />
<glyph glyph-name="aogonek" unicode="&#x105;" horiz-adv-x="1074" d="M948 0 L995 0 L995 17 C969 72 954 141 954 262 L954 737 C954 989 780 1102 542 1102 C276 1102 106 947 106 759 L379 759 C379 841 436 893 527 893 C633 893 680 843 680 740 L680 659 L546 659 C233 659 84 517 84 306 C84 103 220 -20 422 -20 C541 -20 633 24 694 89 C699 57 707 28 717 4 C623 -62 593 -138 593 -215 C593 -351 689 -422 808 -422 C886 -422 935 -398 967 -378 L941 -225 C924 -234 900 -246 864 -246 C818 -246 801 -218 801 -180 C801 -108 856 -57 948 0 L948 0 Z M478 195 C386 195 356 236 356 320 C356 419 407 495 559 495 L680 495 L680 291 C649 242 572 195 478 195 L478 195 Z " />
<glyph glyph-name="Cacute" unicode="&#x106;" horiz-adv-x="1301" d="M1225 484 L941 484 C925 290 853 216 668 216 C462 216 385 355 385 644 L385 815 C385 1109 478 1240 675 1240 C862 1240 929 1157 942 964 L1226 964 C1200 1278 1020 1477 675 1477 C322 1477 99 1226 99 813 L99 644 C99 229 315 -20 668 -20 C1012 -20 1205 172 1225 484 L1225 484 Z M731 1856 L531 1549 L755 1549 L1036 1856 L731 1856 Z " />
<glyph glyph-name="cacute" unicode="&#x107;" horiz-adv-x="1044" d="M725 373 C722 259 654 206 549 206 C383 206 350 328 350 510 L350 572 C350 749 385 877 546 877 C666 877 722 801 725 681 L982 681 C979 951 810 1102 552 1102 C233 1102 77 890 77 572 L77 510 C77 191 233 -20 555 -20 C791 -20 979 134 982 373 L725 373 Z M584 1536 L384 1229 L608 1229 L889 1536 L584 1536 Z " />
<glyph glyph-name="Cdotaccent" unicode="&#x10a;" horiz-adv-x="1301" d="M1225 484 L941 484 C925 290 853 216 668 216 C462 216 385 355 385 644 L385 815 C385 1109 478 1240 675 1240 C862 1240 929 1157 942 964 L1226 964 C1200 1278 1020 1477 675 1477 C322 1477 99 1226 99 813 L99 644 C99 229 315 -20 668 -20 C1012 -20 1205 172 1225 484 L1225 484 Z M664 1846 C575 1846 520 1789 520 1712 C520 1635 575 1578 664 1578 C752 1578 808 1635 808 1712 C808 1789 752 1846 664 1846 L664 1846 Z " />
<glyph glyph-name="cdotaccent" unicode="&#x10b;" horiz-adv-x="1044" d="M725 373 C722 259 654 206 549 206 C383 206 350 328 350 510 L350 572 C350 749 385 877 546 877 C666 877 722 801 725 681 L982 681 C979 951 810 1102 552 1102 C233 1102 77 890 77 572 L77 510 C77 191 233 -20 555 -20 C791 -20 979 134 982 373 L725 373 Z M517 1526 C428 1526 373 1469 373 1392 C373 1315 428 1258 517 1258 C605 1258 661 1315 661 1392 C661 1469 605 1526 517 1526 L517 1526 Z " />
<glyph glyph-name="Ccaron" unicode="&#x10c;" horiz-adv-x="1301" d="M1225 484 L941 484 C925 290 853 216 668 216 C462 216 385 355 385 644 L385 815 C385 1109 478 1240 675 1240 C862 1240 929 1157 942 964 L1226 964 C1200 1278 1020 1477 675 1477 C322 1477 99 1226 99 813 L99 644 C99 229 315 -20 668 -20 C1012 -20 1205 172 1225 484 L1225 484 Z M665 1710 L529 1856 L296 1856 L296 1847 L580 1565 L751 1565 L1035 1845 L1035 1856 L802 1856 L665 1710 Z " />
<glyph glyph-name="ccaron" unicode="&#x10d;" horiz-adv-x="1044" d="M725 373 C722 259 654 206 549 206 C383 206 350 328 350 510 L350 572 C350 749 385 877 546 877 C666 877 722 801 725 681 L982 681 C979 951 810 1102 552 1102 C233 1102 77 890 77 572 L77 510 C77 191 233 -20 555 -20 C791 -20 979 134 982 373 L725 373 Z M518 1390 L382 1536 L149 1536 L149 1527 L433 1245 L604 1245 L888 1525 L888 1536 L655 1536 L518 1390 Z " />
<glyph glyph-name="Dcaron" unicode="&#x10e;" horiz-adv-x="1294" d="M561 1456 L138 1456 L138 0 L555 0 C938 0 1192 250 1192 653 L1192 803 C1192 1205 937 1456 561 1456 L561 1456 Z M610 1559 L894 1839 L894 1850 L661 1850 L524 1704 L388 1850 L155 1850 L155 1841 L439 1559 L610 1559 Z M907 653 C907 372 800 234 555 234 L422 234 L422 1221 L561 1221 C797 1221 907 1088 907 805 L907 653 Z " />
<glyph glyph-name="dcaron" unicode="&#x10f;" horiz-adv-x="1223" d="M730 1536 L730 986 C694 1029 651 1061 601 1080 L601 1116 L394 1116 L394 1094 C191 1055 76 869 76 566 L76 512 C76 184 224 -20 477 -20 C592 -20 680 30 744 113 L756 0 L1003 0 L1003 1536 L730 1536 Z M551 207 C402 207 349 319 349 512 L349 566 C349 642 357 706 376 755 L458 710 C503 753 541 811 566 875 C642 871 697 834 730 774 L730 306 C695 245 636 207 551 207 L551 207 Z " />
<glyph glyph-name="Dcroat" unicode="&#x110;" horiz-adv-x="1294" d="M561 1456 L138 1456 L138 823 L-8 823 L-8 645 L138 645 L138 0 L555 0 C938 0 1192 250 1192 653 L1192 803 C1192 1205 937 1456 561 1456 L561 1456 Z M907 653 C907 372 800 234 555 234 L422 234 L422 645 L655 645 L655 823 L422 823 L422 1221 L561 1221 C797 1221 907 1088 907 805 L907 653 Z " />
<glyph glyph-name="dcroat" unicode="&#x111;" horiz-adv-x="1253" d="M1160 1399 L1003 1399 L1003 1536 L730 1536 L730 1399 L497 1399 L497 1221 L730 1221 L730 991 C668 1061 586 1102 482 1102 C226 1102 76 879 76 550 L76 529 C76 213 227 -20 480 -20 C594 -20 680 28 744 108 L756 0 L1003 0 L1003 1221 L1160 1221 L1160 1399 Z M551 207 C402 207 349 349 349 529 L349 550 C349 733 405 875 552 875 C635 875 695 835 730 767 L730 312 C695 247 636 207 551 207 L551 207 Z " />
<glyph glyph-name="Emacron" unicode="&#x112;" horiz-adv-x="1123" d="M422 234 L422 635 L969 635 L969 863 L422 863 L422 1221 L1061 1221 L1061 1456 L138 1456 L138 0 L1065 0 L1065 234 L422 234 Z M947 1766 L284 1766 L284 1604 L947 1604 L947 1766 Z " />
<glyph glyph-name="emacron" unicode="&#x113;" horiz-adv-x="1080" d="M1016 585 C1016 919 858 1102 571 1102 C267 1102 84 918 84 561 L84 488 C84 151 273 -20 592 -20 C797 -20 930 67 997 155 L869 316 C807 243 716 206 614 206 C457 206 368 284 358 458 L1016 458 L1016 585 Z M866 1453 L203 1453 L203 1291 L866 1291 L866 1453 Z M746 645 L361 645 C377 800 442 882 573 882 C694 882 745 799 746 670 L746 645 Z " />
<glyph glyph-name="Edotaccent" unicode="&#x116;" horiz-adv-x="1123" d="M422 234 L422 635 L969 635 L969 863 L422 863 L422 1221 L1061 1221 L1061 1456 L138 1456 L138 0 L1065 0 L1065 234 L422 234 Z M612 1572 C700 1572 756 1629 756 1706 C756 1783 700 1840 612 1840 C523 1840 468 1783 468 1706 C468 1629 523 1572 612 1572 L612 1572 Z " />
<glyph glyph-name="edotaccent" unicode="&#x117;" horiz-adv-x="1080" d="M1016 585 C1016 919 858 1102 571 1102 C267 1102 84 918 84 561 L84 488 C84 151 273 -20 592 -20 C797 -20 930 67 997 155 L869 316 C807 243 716 206 614 206 C457 206 368 284 358 458 L1016 458 L1016 585 Z M531 1259 C619 1259 675 1316 675 1393 C675 1470 619 1527 531 1527 C442 1527 387 1470 387 1393 C387 1316 442 1259 531 1259 L531 1259 Z M746 645 L361 645 C377 800 442 882 573 882 C694 882 745 799 746 670 L746 645 Z " />
<glyph glyph-name="Eogonek" unicode="&#x118;" horiz-adv-x="1123" d="M928 0 L1065 0 L1065 234 L422 234 L422 635 L969 635 L969 863 L422 863 L422 1221 L1061 1221 L1061 1456 L138 1456 L138 0 L691 0 C602 -65 573 -140 573 -215 C573 -351 669 -422 788 -422 C866 -422 915 -398 947 -378 L921 -225 C904 -234 880 -246 844 -246 C798 -246 781 -218 781 -180 C781 -108 836 -57 928 0 L928 0 Z " />
<glyph glyph-name="eogonek" unicode="&#x119;" horiz-adv-x="1080" d="M1016 585 C1016 919 858 1102 571 1102 C267 1102 84 918 84 561 L84 488 C84 175 247 5 527 -17 C481 -69 465 -126 465 -182 C465 -318 561 -389 680 -389 C758 -389 807 -365 839 -345 L813 -192 C796 -201 772 -213 736 -213 C690 -213 673 -185 673 -147 C673 -85 713 -39 783 9 C883 42 954 98 997 155 L869 316 C807 243 716 206 614 206 C457 206 368 284 358 458 L1016 458 L1016 585 Z M746 645 L361 645 C377 800 442 882 573 882 C694 882 745 799 746 670 L746 645 Z " />
<glyph glyph-name="Ecaron" unicode="&#x11a;" horiz-adv-x="1123" d="M422 234 L422 635 L969 635 L969 863 L422 863 L422 1221 L1061 1221 L1061 1456 L138 1456 L138 0 L1065 0 L1065 234 L422 234 Z M699 1559 L983 1839 L983 1850 L750 1850 L613 1704 L477 1850 L244 1850 L244 1841 L528 1559 L699 1559 Z " />
<glyph glyph-name="ecaron" unicode="&#x11b;" horiz-adv-x="1080" d="M1016 585 C1016 919 858 1102 571 1102 C267 1102 84 918 84 561 L84 488 C84 151 273 -20 592 -20 C797 -20 930 67 997 155 L869 316 C807 243 716 206 614 206 C457 206 368 284 358 458 L1016 458 L1016 585 Z M618 1246 L902 1526 L902 1537 L669 1537 L532 1391 L396 1537 L163 1537 L163 1528 L447 1246 L618 1246 Z M746 645 L361 645 C377 800 442 882 573 882 C694 882 745 799 746 670 L746 645 Z " />
<glyph glyph-name="Gbreve" unicode="&#x11e;" horiz-adv-x="1347" d="M1231 176 L1231 761 L685 761 L685 548 L947 548 L947 283 C916 259 860 214 718 214 C507 214 392 350 392 642 L392 817 C392 1107 491 1243 691 1243 C861 1243 933 1160 954 997 L1230 997 C1200 1291 1040 1477 684 1477 C327 1477 106 1247 106 815 L106 642 C106 208 346 -20 704 -20 C1013 -20 1167 103 1231 176 L1231 176 Z M1009 1845 L808 1845 C808 1775 770 1711 666 1711 C560 1711 522 1775 522 1845 L322 1845 C322 1671 455 1550 666 1550 C877 1550 1009 1671 1009 1845 L1009 1845 Z " />
<glyph glyph-name="gbreve" unicode="&#x11f;" horiz-adv-x="1137" d="M772 1082 L761 981 C701 1058 616 1102 494 1102 C236 1102 80 914 80 571 L80 517 C80 189 237 -10 492 -10 C601 -10 684 31 745 101 L745 17 C745 -139 661 -209 516 -209 C421 -209 326 -165 259 -103 L147 -280 C237 -376 412 -426 530 -426 C821 -426 1019 -278 1019 18 L1019 1082 L772 1082 Z M536 1230 C747 1230 879 1351 879 1525 L678 1525 C678 1455 640 1391 536 1391 C430 1391 392 1455 392 1525 L192 1525 C192 1351 325 1230 536 1230 L536 1230 Z M566 217 C418 217 352 324 352 517 L352 571 C352 768 420 875 567 875 C650 875 709 843 745 787 L745 303 C709 249 651 217 566 217 L566 217 Z " />
<glyph glyph-name="Gdotaccent" unicode="&#x120;" horiz-adv-x="1347" d="M1231 176 L1231 761 L685 761 L685 548 L947 548 L947 283 C916 259 860 214 718 214 C507 214 392 350 392 642 L392 817 C392 1107 491 1243 691 1243 C861 1243 933 1160 954 997 L1230 997 C1200 1291 1040 1477 684 1477 C327 1477 106 1247 106 815 L106 642 C106 208 346 -20 704 -20 C1013 -20 1167 103 1231 176 L1231 176 Z M667 1846 C578 1846 523 1789 523 1712 C523 1635 578 1578 667 1578 C755 1578 811 1635 811 1712 C811 1789 755 1846 667 1846 L667 1846 Z " />
<glyph glyph-name="gdotaccent" unicode="&#x121;" horiz-adv-x="1137" d="M772 1082 L761 981 C701 1058 616 1102 494 1102 C236 1102 80 914 80 571 L80 517 C80 189 237 -10 492 -10 C601 -10 684 31 745 101 L745 17 C745 -139 661 -209 516 -209 C421 -209 326 -165 259 -103 L147 -280 C237 -376 412 -426 530 -426 C821 -426 1019 -278 1019 18 L1019 1082 L772 1082 Z M537 1258 C625 1258 681 1315 681 1392 C681 1469 625 1526 537 1526 C448 1526 393 1469 393 1392 C393 1315 448 1258 537 1258 L537 1258 Z M566 217 C418 217 352 324 352 517 L352 571 C352 768 420 875 567 875 C650 875 709 843 745 787 L745 303 C709 249 651 217 566 217 L566 217 Z " />
<glyph glyph-name="Gcommaaccent" unicode="&#x122;" horiz-adv-x="1303" d="M1231 176 L1231 761 L685 761 L685 548 L947 548 L947 283 C916 259 860 214 718 214 C507 214 392 350 392 642 L392 817 C392 1107 491 1243 691 1243 C861 1243 933 1160 954 997 L1230 997 C1200 1291 1040 1477 684 1477 C327 1477 106 1247 106 815 L106 642 C106 208 346 -20 704 -20 C1013 -20 1167 103 1231 176 L1231 176 Z M60 -584 L60 -515 L-147 -515 L-147 -598 C-147 -706 -176 -776 -220 -846 L-83 -921 C2 -841 60 -705 60 -584 L60 -584 Z " />
<glyph glyph-name="gcommaaccent" unicode="&#x123;" horiz-adv-x="1137" d="M772 1082 L761 981 C701 1058 616 1102 494 1102 C236 1102 80 914 80 571 L80 517 C80 189 237 -10 492 -10 C601 -10 684 31 745 101 L745 17 C745 -139 661 -209 516 -209 C421 -209 326 -165 259 -103 L147 -280 C237 -376 412 -426 530 -426 C821 -426 1019 -278 1019 18 L1019 1082 L772 1082 Z M645 1384 C645 1490 674 1577 709 1640 L568 1715 C488 1658 425 1534 425 1396 L425 1260 L644 1260 L645 1384 Z M566 217 C418 217 352 324 352 517 L352 571 C352 768 420 875 567 875 C650 875 709 843 745 787 L745 303 C709 249 651 217 566 217 L566 217 Z " />
<glyph glyph-name="Hbar" unicode="&#x126;" horiz-adv-x="1386" d="M1397 1219 L1285 1219 L1285 1456 L1001 1456 L1001 1219 L441 1219 L441 1456 L157 1456 L157 1219 L44 1219 L44 1049 L157 1049 L157 0 L441 0 L441 629 L1001 629 L1001 0 L1285 0 L1285 1049 L1397 1049 L1397 1219 Z M1001 863 L441 863 L441 1049 L1001 1049 L1001 863 Z " />
<glyph glyph-name="hbar" unicode="&#x127;" horiz-adv-x="1114" d="M663 1102 C549 1102 455 1054 386 972 L386 1218 L623 1218 L623 1396 L386 1396 L386 1536 L113 1536 L113 1396 L-40 1396 L-40 1218 L113 1218 L113 0 L386 0 L386 774 C421 836 479 875 562 875 C668 875 725 830 725 685 L725 0 L999 0 L999 683 C999 988 862 1102 663 1102 L663 1102 Z " />
<glyph glyph-name="Itilde" unicode="&#x128;" horiz-adv-x="590" d="M437 0 L437 1456 L154 1456 L154 0 L437 0 Z M651 1833 L492 1844 C492 1782 456 1747 411 1747 C315 1747 252 1834 152 1834 C26 1834 -65 1713 -65 1570 L95 1562 C95 1623 130 1658 174 1658 C274 1658 311 1571 434 1571 C559 1571 651 1688 651 1833 L651 1833 Z " />
<glyph glyph-name="itilde" unicode="&#x129;" horiz-adv-x="560" d="M414 0 L414 1082 L140 1082 L140 0 L414 0 Z M636 1504 L477 1515 C477 1453 441 1418 396 1418 C300 1418 237 1505 137 1505 C11 1505 -80 1384 -80 1241 L80 1233 C80 1294 115 1329 159 1329 C259 1329 296 1242 419 1242 C544 1242 636 1359 636 1504 L636 1504 Z " />
<glyph glyph-name="Imacron" unicode="&#x12a;" horiz-adv-x="590" d="M437 0 L437 1456 L154 1456 L154 0 L437 0 Z M627 1604 L627 1766 L-36 1766 L-36 1604 L627 1604 Z " />
<glyph glyph-name="imacron" unicode="&#x12b;" horiz-adv-x="560" d="M414 0 L414 1082 L140 1082 L140 0 L414 0 Z M612 1275 L612 1437 L-51 1437 L-51 1275 L612 1275 Z " />
<glyph glyph-name="Iogonek" unicode="&#x12e;" horiz-adv-x="590" d="M382 0 L437 0 L437 1456 L154 1456 L154 6 C58 -60 27 -137 27 -215 C27 -351 123 -422 242 -422 C320 -422 369 -398 401 -378 L375 -225 C358 -234 334 -246 298 -246 C252 -246 235 -218 235 -180 C235 -108 290 -57 382 0 L382 0 Z " />
<glyph glyph-name="iogonek" unicode="&#x12f;" horiz-adv-x="542" d="M134 1 C44 -64 15 -139 15 -215 C15 -351 111 -422 230 -422 C308 -422 357 -398 389 -378 L363 -225 C346 -234 322 -246 286 -246 C240 -246 223 -218 223 -180 C223 -108 278 -57 370 0 L408 0 L408 1082 L134 1082 L134 1 Z M270 1220 C364 1220 423 1280 423 1365 C423 1449 364 1510 270 1510 C177 1510 119 1449 119 1365 C119 1280 177 1220 270 1220 L270 1220 Z " />
<glyph glyph-name="Idotaccent" unicode="&#x130;" horiz-adv-x="590" d="M437 0 L437 1456 L154 1456 L154 0 L437 0 Z M292 1840 C203 1840 148 1783 148 1706 C148 1629 203 1572 292 1572 C380 1572 436 1629 436 1706 C436 1783 380 1840 292 1840 L292 1840 Z " />
<glyph glyph-name="dotlessi" unicode="&#x131;" horiz-adv-x="560" d="M414 0 L414 1082 L140 1082 L140 0 L414 0 Z " />
<glyph glyph-name="Kcommaaccent" unicode="&#x136;" horiz-adv-x="1218" d="M930 0 L1267 0 L756 809 L1250 1456 L903 1456 L541 963 L422 798 L422 1456 L138 1456 L138 0 L422 0 L422 444 L568 598 L930 0 Z M-215 -536 C-215 -644 -244 -714 -288 -784 L-151 -859 C-66 -779 -8 -643 -8 -522 L-8 -453 L-215 -453 L-215 -536 Z " />
<glyph glyph-name="kcommaaccent" unicode="&#x137;" horiz-adv-x="1041" d="M756 0 L1071 0 L659 636 L1035 1082 L716 1082 L448 722 L393 657 L393 1537 L120 1537 L120 0 L393 0 L393 376 L481 456 L756 0 Z M-291 -558 C-291 -666 -320 -736 -364 -806 L-227 -881 C-142 -801 -84 -665 -84 -544 L-84 -475 L-291 -475 L-291 -558 Z " />
<glyph glyph-name="Lacute" unicode="&#x139;" horiz-adv-x="1082" d="M422 234 L422 1456 L138 1456 L138 0 L1030 0 L1030 234 L422 234 Z M655 1844 L350 1844 L150 1537 L374 1537 L655 1844 Z " />
<glyph glyph-name="lacute" unicode="&#x13a;" horiz-adv-x="639" d="M404 1536 L130 1536 L130 298 C130 69 247 -20 421 -20 C490 -20 541 -10 585 6 L586 218 C568 214 539 210 506 210 C439 210 404 232 404 327 L404 1536 Z M336 1929 L136 1622 L360 1622 L641 1929 L336 1929 Z " />
<glyph glyph-name="Lcommaaccent" unicode="&#x13b;" horiz-adv-x="1045" d="M422 234 L422 1456 L138 1456 L138 0 L1030 0 L1030 234 L422 234 Z M-266 -586 C-266 -694 -295 -764 -339 -834 L-202 -909 C-117 -829 -59 -693 -59 -572 L-59 -503 L-266 -503 L-266 -586 Z " />
<glyph glyph-name="lcommaaccent" unicode="&#x13c;" horiz-adv-x="532" d="M404 1536 L130 1536 L130 298 C130 69 247 -20 421 -20 C490 -20 541 -10 585 6 L586 218 C568 214 539 210 506 210 C439 210 404 232 404 327 L404 1536 Z M-354 -572 L-354 -503 L-561 -503 L-561 -586 C-561 -694 -590 -764 -634 -834 L-497 -909 C-412 -829 -354 -693 -354 -572 L-354 -572 Z " />
<glyph glyph-name="Lcaron" unicode="&#x13d;" horiz-adv-x="1045" d="M422 234 L422 1456 L138 1456 L138 1035 L-61 1035 L-61 952 C-61 844 -90 774 -134 704 L3 629 C69 692 119 788 138 885 L138 0 L1030 0 L1030 234 L422 234 Z " />
<glyph glyph-name="lcaron" unicode="&#x13e;" horiz-adv-x="670" d="M33 1047 L33 1116 L-174 1116 L-174 1033 C-174 925 -203 855 -247 785 L-110 710 C-25 790 33 926 33 1047 L33 1047 Z M404 1536 L130 1536 L130 298 C130 69 247 -20 421 -20 C490 -20 541 -10 585 6 L586 218 C568 214 539 210 506 210 C439 210 404 232 404 327 L404 1536 Z " />
<glyph glyph-name="Lslash" unicode="&#x141;" horiz-adv-x="1080" d="M455 234 L455 733 L654 794 L654 955 L455 894 L455 1456 L171 1456 L171 807 L43 768 L43 607 L171 646 L171 0 L1063 0 L1063 234 L455 234 Z " />
<glyph glyph-name="lslash" unicode="&#x142;" horiz-adv-x="611" d="M540 210 C473 210 438 232 438 327 L438 747 L572 794 L572 956 L438 909 L438 1536 L164 1536 L164 812 L43 769 L43 607 L164 650 L164 298 C164 69 281 -20 455 -20 C524 -20 575 -10 619 6 L620 218 C602 214 573 210 540 210 L540 210 Z " />
<glyph glyph-name="Nacute" unicode="&#x143;" horiz-adv-x="1404" d="M1264 0 L1264 1456 L981 1456 L981 475 L437 1456 L138 1456 L138 0 L422 0 L422 985 L971 0 L1264 0 Z M768 1846 L568 1539 L792 1539 L1073 1846 L768 1846 Z " />
<glyph glyph-name="nacute" unicode="&#x144;" horiz-adv-x="1117" d="M674 1102 C552 1102 451 1053 380 965 L372 1082 L114 1082 L114 0 L387 0 L387 767 C424 833 483 875 564 875 C669 875 726 833 726 691 L726 0 L1000 0 L1000 690 C1000 994 869 1102 674 1102 L674 1102 Z M930 1536 L625 1536 L425 1229 L649 1229 L930 1536 Z " />
<glyph glyph-name="Ncommaaccent" unicode="&#x145;" horiz-adv-x="1349" d="M1264 0 L1264 1456 L981 1456 L981 475 L437 1456 L138 1456 L138 0 L422 0 L422 985 L971 0 L1264 0 Z M57 -580 L57 -511 L-150 -511 L-150 -594 C-150 -702 -179 -772 -223 -842 L-86 -917 C-1 -837 57 -701 57 -580 L57 -580 Z " />
<glyph glyph-name="ncommaaccent" unicode="&#x146;" horiz-adv-x="1079" d="M674 1102 C552 1102 451 1053 380 965 L372 1082 L114 1082 L114 0 L387 0 L387 767 C424 833 483 875 564 875 C669 875 726 833 726 691 L726 0 L1000 0 L1000 690 C1000 994 869 1102 674 1102 L674 1102 Z M-289 -586 C-289 -694 -318 -764 -362 -834 L-225 -909 C-140 -829 -82 -693 -82 -572 L-82 -503 L-289 -503 L-289 -586 Z " />
<glyph glyph-name="Ncaron" unicode="&#x147;" horiz-adv-x="1404" d="M1264 0 L1264 1456 L981 1456 L981 475 L437 1456 L138 1456 L138 0 L422 0 L422 985 L971 0 L1264 0 Z M702 1700 L566 1846 L333 1846 L333 1837 L617 1555 L788 1555 L1072 1835 L1072 1846 L839 1846 L702 1700 Z " />
<glyph glyph-name="ncaron" unicode="&#x148;" horiz-adv-x="1117" d="M674 1102 C552 1102 451 1053 380 965 L372 1082 L114 1082 L114 0 L387 0 L387 767 C424 833 483 875 564 875 C669 875 726 833 726 691 L726 0 L1000 0 L1000 690 C1000 994 869 1102 674 1102 L674 1102 Z M645 1245 L929 1525 L929 1536 L696 1536 L559 1390 L423 1536 L190 1536 L190 1527 L474 1245 L645 1245 Z " />
<glyph glyph-name="Eng" unicode="&#x14a;" horiz-adv-x="1391" d="M974 1456 L974 473 L420 1456 L136 1456 L136 0 L420 0 L420 984 L974 0 L974 -31 C974 -143 934 -202 864 -202 C831 -202 798 -199 769 -191 L756 -420 C804 -433 844 -437 893 -437 C1120 -437 1259 -294 1259 -31 L1259 1456 L974 1456 Z " />
<glyph glyph-name="eng" unicode="&#x14b;" horiz-adv-x="1128" d="M674 1102 C551 1102 451 1039 384 934 L371 1082 L118 1082 L118 0 L391 0 L391 788 C432 842 494 875 576 875 C680 875 735 824 735 660 L735 -37 C735 -151 696 -209 626 -209 C595 -209 560 -205 532 -197 L519 -420 C565 -433 604 -437 651 -437 C874 -437 1009 -296 1009 -37 L1009 660 C1009 979 874 1102 674 1102 L674 1102 Z " />
<glyph glyph-name="Omacron" unicode="&#x14c;" horiz-adv-x="1373" d="M1271 648 L1271 803 C1271 1232 1035 1476 685 1476 C339 1476 100 1232 100 803 L100 648 C100 221 342 -20 687 -20 C1037 -20 1271 221 1271 648 L1271 648 Z M1020 1601 L1020 1763 L357 1763 L357 1601 L1020 1601 Z M987 805 L987 648 C987 359 880 218 687 218 C497 218 385 359 385 648 L385 805 C385 1098 495 1237 685 1237 C878 1237 987 1098 987 805 L987 805 Z " />
<glyph glyph-name="omacron" unicode="&#x14d;" horiz-adv-x="1132" d="M79 568 L79 513 C79 186 262 -20 567 -20 C871 -20 1053 186 1053 513 L1053 568 C1053 896 871 1102 565 1102 C262 1102 79 896 79 568 L79 568 Z M894 1290 L894 1452 L231 1452 L231 1290 L894 1290 Z M351 513 L351 568 C351 756 420 877 565 877 C713 877 780 756 780 568 L780 513 C780 322 714 206 567 206 C419 206 351 322 351 513 L351 513 Z " />
<glyph glyph-name="Ohungarumlaut" unicode="&#x150;" horiz-adv-x="1373" d="M1271 648 L1271 803 C1271 1232 1035 1476 685 1476 C339 1476 100 1232 100 803 L100 648 C100 221 342 -20 687 -20 C1037 -20 1271 221 1271 648 L1271 648 Z M569 1846 L399 1546 L599 1546 L814 1846 L569 1846 Z M940 1846 L729 1546 L938 1546 L1189 1846 L940 1846 Z M987 805 L987 648 C987 359 880 218 687 218 C497 218 385 359 385 648 L385 805 C385 1098 495 1237 685 1237 C878 1237 987 1098 987 805 L987 805 Z " />
<glyph glyph-name="ohungarumlaut" unicode="&#x151;" horiz-adv-x="1132" d="M79 568 L79 513 C79 186 262 -20 567 -20 C871 -20 1053 186 1053 513 L1053 568 C1053 896 871 1102 565 1102 C262 1102 79 896 79 568 L79 568 Z M443 1535 L273 1235 L473 1235 L688 1535 L443 1535 Z M814 1535 L603 1235 L812 1235 L1063 1535 L814 1535 Z M351 513 L351 568 C351 756 420 877 565 877 C713 877 780 756 780 568 L780 513 C780 322 714 206 567 206 C419 206 351 322 351 513 L351 513 Z " />
<glyph glyph-name="OE" unicode="&#x152;" horiz-adv-x="1855" d="M1152 234 L1152 635 L1699 635 L1699 863 L1152 863 L1152 1221 L1791 1221 L1791 1456 L950 1456 C866 1467 772 1477 675 1477 C335 1477 104 1233 104 880 L104 576 C104 223 338 -21 678 -21 C773 -21 866 -10 950 0 L1795 0 L1795 234 L1152 234 Z M377 576 L377 882 C377 1127 492 1251 675 1251 C742 1251 807 1246 868 1238 L868 219 C808 211 744 206 678 206 C494 206 377 331 377 576 L377 576 Z " />
<glyph glyph-name="oe" unicode="&#x153;" horiz-adv-x="1781" d="M1697 615 C1697 910 1547 1102 1259 1102 C1123 1102 1010 1046 929 952 C847 1046 728 1102 576 1102 C267 1102 94 867 94 551 L94 530 C94 214 267 -21 578 -21 C729 -21 848 35 930 129 C1014 36 1135 -21 1286 -21 C1468 -21 1603 41 1674 105 L1596 285 C1520 240 1446 206 1311 206 C1164 206 1088 316 1073 455 L1697 455 L1697 615 Z M787 530 C787 350 731 206 578 206 C422 206 367 350 367 530 L367 551 C367 727 422 877 576 877 C733 877 787 727 787 551 L787 530 Z M1429 647 L1076 647 C1095 779 1154 877 1259 877 C1380 877 1429 793 1429 673 L1429 647 Z " />
<glyph glyph-name="Racute" unicode="&#x154;" horiz-adv-x="1258" d="M913 612 C1067 683 1161 807 1161 1017 C1161 1303 971 1456 649 1456 L139 1456 L139 0 L423 0 L423 548 L643 548 L910 0 L1214 0 L1214 15 L913 612 Z M954 1846 L649 1846 L449 1539 L673 1539 L954 1846 Z M423 1221 L649 1221 C806 1221 876 1134 876 995 C876 862 800 772 647 772 L423 772 L423 1221 Z " />
<glyph glyph-name="racute" unicode="&#x155;" horiz-adv-x="730" d="M386 961 L379 1082 L119 1082 L119 0 L393 0 L393 712 C425 784 490 821 593 821 C624 821 663 818 692 813 L695 1089 C676 1097 638 1102 610 1102 C511 1102 436 1050 386 961 L386 961 Z M773 1536 L468 1536 L268 1229 L492 1229 L773 1536 Z " />
<glyph glyph-name="Rcommaaccent" unicode="&#x156;" horiz-adv-x="1225" d="M913 612 C1067 683 1161 807 1161 1017 C1161 1303 971 1456 649 1456 L139 1456 L139 0 L423 0 L423 548 L643 548 L910 0 L1214 0 L1214 15 L913 612 Z M-252 -586 C-252 -694 -281 -764 -325 -834 L-188 -909 C-103 -829 -45 -693 -45 -572 L-45 -503 L-252 -503 L-252 -586 Z M423 1221 L649 1221 C806 1221 876 1134 876 995 C876 862 800 772 647 772 L423 772 L423 1221 Z " />
<glyph glyph-name="rcommaaccent" unicode="&#x157;" horiz-adv-x="717" d="M610 1102 C511 1102 436 1050 386 961 L379 1082 L119 1082 L119 0 L393 0 L393 712 C425 784 490 821 593 821 C624 821 663 818 692 813 L695 1089 C676 1097 638 1102 610 1102 L610 1102 Z M-571 -586 C-571 -694 -600 -764 -644 -834 L-507 -909 C-422 -829 -364 -693 -364 -572 L-364 -503 L-571 -503 L-571 -586 Z " />
<glyph glyph-name="Rcaron" unicode="&#x158;" horiz-adv-x="1258" d="M913 612 C1067 683 1161 807 1161 1017 C1161 1303 971 1456 649 1456 L139 1456 L139 0 L423 0 L423 548 L643 548 L910 0 L1214 0 L1214 15 L913 612 Z M669 1555 L953 1835 L953 1846 L720 1846 L583 1700 L447 1846 L214 1846 L214 1837 L498 1555 L669 1555 Z M423 1221 L649 1221 C806 1221 876 1134 876 995 C876 862 800 772 647 772 L423 772 L423 1221 Z " />
<glyph glyph-name="rcaron" unicode="&#x159;" horiz-adv-x="730" d="M386 961 L379 1082 L119 1082 L119 0 L393 0 L393 712 C425 784 490 821 593 821 C624 821 663 818 692 813 L695 1089 C676 1097 638 1102 610 1102 C511 1102 436 1050 386 961 L386 961 Z M539 1536 L402 1390 L266 1536 L33 1536 L33 1527 L317 1245 L488 1245 L772 1525 L772 1536 L539 1536 Z " />
<glyph glyph-name="Sacute" unicode="&#x15a;" horiz-adv-x="1218" d="M583 614 C808 538 853 487 853 381 C853 283 785 210 637 210 C472 210 363 276 363 457 L85 457 C85 128 341 -20 637 -20 C954 -20 1138 126 1138 387 C1138 623 982 760 679 860 C499 913 405 972 405 1071 C405 1167 475 1245 625 1245 C783 1245 854 1155 854 1028 L1132 1028 C1132 1289 962 1476 629 1476 C321 1476 122 1314 122 1071 C122 821 327 698 583 614 L583 614 Z M690 1847 L490 1540 L714 1540 L995 1847 L690 1847 Z " />
<glyph glyph-name="sacute" unicode="&#x15b;" horiz-adv-x="1031" d="M464 439 C597 395 680 370 680 291 C680 224 621 180 519 180 C419 180 330 222 324 337 L69 337 C69 162 193 -20 522 -20 C805 -20 947 113 947 310 C947 536 760 590 573 648 C439 690 366 711 366 791 C366 854 416 903 517 903 C625 903 675 843 675 760 L941 760 C941 960 805 1102 520 1102 C226 1102 104 953 104 775 C104 582 245 509 464 439 L464 439 Z M589 1536 L389 1229 L613 1229 L894 1536 L589 1536 Z " />
<glyph glyph-name="Scedilla" unicode="&#x15e;" horiz-adv-x="1218" d="M1138 387 C1138 623 982 760 679 860 C499 913 405 972 405 1071 C405 1167 475 1245 625 1245 C783 1245 854 1155 854 1028 L1132 1028 C1132 1289 962 1476 629 1476 C321 1476 122 1314 122 1071 C122 821 327 698 583 614 C808 538 853 487 853 381 C853 283 785 210 637 210 C472 210 363 276 363 457 L85 457 C85 169 281 20 528 -13 L501 -135 C598 -143 638 -160 638 -216 C638 -276 593 -300 530 -300 L536 -461 C753 -461 865 -367 865 -225 C865 -110 793 -65 724 -52 L730 -15 C990 11 1138 153 1138 387 L1138 387 Z " />
<glyph glyph-name="scedilla" unicode="&#x15f;" horiz-adv-x="1031" d="M947 310 C947 536 760 590 573 648 C439 690 366 711 366 791 C366 854 416 903 517 903 C625 903 675 843 675 760 L941 760 C941 960 805 1102 520 1102 C226 1102 104 953 104 775 C104 582 245 509 464 439 C597 395 680 370 680 291 C680 224 621 180 519 180 C419 180 330 222 324 337 L69 337 C69 180 168 18 425 -14 L396 -145 C493 -153 533 -170 533 -226 C533 -286 488 -310 425 -310 L431 -471 C648 -471 760 -377 760 -235 C760 -120 688 -75 619 -62 L627 -13 C840 16 947 139 947 310 L947 310 Z " />
<glyph glyph-name="Scaron" unicode="&#x160;" horiz-adv-x="1218" d="M583 614 C808 538 853 487 853 381 C853 283 785 210 637 210 C472 210 363 276 363 457 L85 457 C85 128 341 -20 637 -20 C954 -20 1138 126 1138 387 C1138 623 982 760 679 860 C499 913 405 972 405 1071 C405 1167 475 1245 625 1245 C783 1245 854 1155 854 1028 L1132 1028 C1132 1289 962 1476 629 1476 C321 1476 122 1314 122 1071 C122 821 327 698 583 614 L583 614 Z M624 1701 L488 1847 L255 1847 L255 1838 L539 1556 L710 1556 L994 1836 L994 1847 L761 1847 L624 1701 Z " />
<glyph glyph-name="scaron" unicode="&#x161;" horiz-adv-x="1031" d="M464 439 C597 395 680 370 680 291 C680 224 621 180 519 180 C419 180 330 222 324 337 L69 337 C69 162 193 -20 522 -20 C805 -20 947 113 947 310 C947 536 760 590 573 648 C439 690 366 711 366 791 C366 854 416 903 517 903 C625 903 675 843 675 760 L941 760 C941 960 805 1102 520 1102 C226 1102 104 953 104 775 C104 582 245 509 464 439 L464 439 Z M523 1390 L387 1536 L154 1536 L154 1527 L438 1245 L609 1245 L893 1525 L893 1536 L660 1536 L523 1390 Z " />
<glyph glyph-name="uni0162" unicode="&#x162;" horiz-adv-x="1225" d="M752 0 L752 1221 L1173 1221 L1173 1456 L51 1456 L51 1221 L468 1221 L468 0 L509 0 L481 -128 C578 -136 618 -153 618 -209 C618 -269 573 -293 510 -293 L516 -454 C733 -454 845 -360 845 -218 C845 -103 773 -58 704 -45 L712 0 L752 0 Z " />
<glyph glyph-name="uni0163" unicode="&#x163;" horiz-adv-x="683" d="M525 -52 L531 -17 C569 -12 601 -5 630 6 L631 218 C613 214 583 210 551 210 C484 210 448 232 448 327 L448 878 L623 878 L623 1082 L448 1082 L448 1350 L175 1350 L175 1082 L20 1082 L20 878 L175 878 L175 298 C175 134 234 42 332 3 L302 -135 C399 -143 439 -160 439 -216 C439 -276 394 -300 331 -300 L337 -461 C554 -461 666 -367 666 -225 C666 -110 594 -65 525 -52 L525 -52 Z " />
<glyph glyph-name="Tcaron" unicode="&#x164;" horiz-adv-x="1225" d="M1173 1456 L51 1456 L51 1221 L468 1221 L468 0 L752 0 L752 1221 L1173 1221 L1173 1456 Z M693 1555 L977 1835 L977 1846 L744 1846 L607 1700 L471 1846 L238 1846 L238 1837 L522 1555 L693 1555 Z " />
<glyph glyph-name="tcaron" unicode="&#x165;" horiz-adv-x="699" d="M551 210 C484 210 448 232 448 327 L448 878 L623 878 L623 1082 L448 1082 L448 1350 L175 1350 L175 1082 L84 1082 C91 1114 95 1147 95 1178 L95 1247 L-112 1247 L-112 1164 C-112 1056 -141 986 -185 916 L-48 841 C-23 865 0 894 20 926 L20 878 L175 878 L175 298 C175 69 291 -20 466 -20 C535 -20 586 -10 630 6 L631 218 C613 214 583 210 551 210 L551 210 Z " />
<glyph glyph-name="Tbar" unicode="&#x166;" horiz-adv-x="1225" d="M1173 1221 L1173 1456 L51 1456 L51 1221 L468 1221 L468 931 L268 931 L268 753 L468 753 L468 0 L752 0 L752 753 L931 753 L931 931 L752 931 L752 1221 L1173 1221 Z " />
<glyph glyph-name="tbar" unicode="&#x167;" horiz-adv-x="683" d="M644 536 L644 714 L448 714 L448 878 L623 878 L623 1082 L448 1082 L448 1350 L175 1350 L175 1082 L20 1082 L20 878 L175 878 L175 714 L-19 714 L-19 536 L175 536 L175 298 C175 69 291 -20 466 -20 C535 -20 586 -10 630 6 L631 218 C613 214 583 210 551 210 C484 210 448 232 448 327 L448 536 L644 536 Z " />
<glyph glyph-name="Utilde" unicode="&#x168;" horiz-adv-x="1303" d="M1183 1456 L898 1456 L898 475 C898 279 808 214 652 214 C498 214 406 279 406 475 L406 1456 L122 1456 L122 475 C122 138 344 -20 652 -20 C955 -20 1183 138 1183 475 L1183 1456 Z M1005 1829 L846 1840 C846 1778 810 1743 765 1743 C669 1743 606 1830 506 1830 C380 1830 289 1709 289 1566 L449 1558 C449 1619 484 1654 528 1654 C628 1654 665 1567 788 1567 C913 1567 1005 1684 1005 1829 L1005 1829 Z " />
<glyph glyph-name="utilde" unicode="&#x169;" horiz-adv-x="1115" d="M725 1082 L725 311 C692 247 630 207 530 207 C449 207 386 255 386 381 L386 1082 L113 1082 L113 383 C113 96 251 -20 454 -20 C578 -20 671 26 735 105 L742 0 L999 0 L999 1082 L725 1082 Z M435 1344 C535 1344 572 1257 695 1257 C820 1257 912 1374 912 1519 L753 1530 C753 1468 717 1433 672 1433 C576 1433 513 1520 413 1520 C287 1520 196 1399 196 1256 L356 1248 C356 1309 391 1344 435 1344 L435 1344 Z " />
<glyph glyph-name="Umacron" unicode="&#x16a;" horiz-adv-x="1303" d="M1183 1456 L898 1456 L898 475 C898 279 808 214 652 214 C498 214 406 279 406 475 L406 1456 L122 1456 L122 475 C122 138 344 -20 652 -20 C955 -20 1183 138 1183 475 L1183 1456 Z M981 1600 L981 1762 L318 1762 L318 1600 L981 1600 Z " />
<glyph glyph-name="umacron" unicode="&#x16b;" horiz-adv-x="1115" d="M725 1082 L725 311 C692 247 630 207 530 207 C449 207 386 255 386 381 L386 1082 L113 1082 L113 383 C113 96 251 -20 454 -20 C578 -20 671 26 735 105 L742 0 L999 0 L999 1082 L725 1082 Z M888 1452 L225 1452 L225 1290 L888 1290 L888 1452 Z " />
<glyph glyph-name="Uring" unicode="&#x16e;" horiz-adv-x="1303" d="M1183 1456 L898 1456 L898 475 C898 279 808 214 652 214 C498 214 406 279 406 475 L406 1456 L122 1456 L122 475 C122 138 344 -20 652 -20 C955 -20 1183 138 1183 475 L1183 1456 Z M649 1933 C519 1933 424 1840 424 1729 C424 1617 519 1529 649 1529 C779 1529 874 1617 874 1729 C874 1840 779 1933 649 1933 L649 1933 Z M649 1621 C583 1621 539 1671 539 1729 C539 1788 583 1838 649 1838 C717 1838 760 1788 760 1729 C760 1670 717 1621 649 1621 L649 1621 Z " />
<glyph glyph-name="uring" unicode="&#x16f;" horiz-adv-x="1115" d="M725 1082 L725 311 C692 247 630 207 530 207 C449 207 386 255 386 381 L386 1082 L113 1082 L113 383 C113 96 251 -20 454 -20 C578 -20 671 26 735 105 L742 0 L999 0 L999 1082 L725 1082 Z M556 1219 C686 1219 781 1307 781 1419 C781 1530 686 1623 556 1623 C426 1623 331 1530 331 1419 C331 1307 426 1219 556 1219 L556 1219 Z M556 1528 C624 1528 667 1478 667 1419 C667 1360 624 1311 556 1311 C490 1311 446 1361 446 1419 C446 1478 490 1528 556 1528 L556 1528 Z " />
<glyph glyph-name="Uhungarumlaut" unicode="&#x170;" horiz-adv-x="1303" d="M1183 1456 L898 1456 L898 475 C898 279 808 214 652 214 C498 214 406 279 406 475 L406 1456 L122 1456 L122 475 C122 138 344 -20 652 -20 C955 -20 1183 138 1183 475 L1183 1456 Z M530 1845 L360 1545 L560 1545 L775 1845 L530 1845 Z M901 1845 L690 1545 L899 1545 L1150 1845 L901 1845 Z " />
<glyph glyph-name="uhungarumlaut" unicode="&#x171;" horiz-adv-x="1115" d="M725 311 C692 247 630 207 530 207 C449 207 386 255 386 381 L386 1082 L113 1082 L113 383 C113 96 251 -20 454 -20 C578 -20 671 26 735 105 L742 0 L999 0 L999 1082 L725 1082 L725 311 Z M682 1535 L437 1535 L267 1235 L467 1235 L682 1535 Z M806 1235 L1057 1535 L808 1535 L597 1235 L806 1235 Z " />
<glyph glyph-name="Uogonek" unicode="&#x172;" horiz-adv-x="1303" d="M898 1456 L898 475 C898 279 808 214 652 214 C498 214 406 279 406 475 L406 1456 L122 1456 L122 475 C122 139 342 -19 649 -20 C623 -62 613 -105 613 -149 C613 -285 709 -356 828 -356 C906 -356 955 -332 987 -312 L961 -159 C944 -168 920 -180 884 -180 C838 -180 821 -152 821 -114 C821 -58 854 -15 911 28 C1076 97 1183 244 1183 475 L1183 1456 L898 1456 Z " />
<glyph glyph-name="uogonek" unicode="&#x173;" horiz-adv-x="1115" d="M971 0 L999 0 L999 1082 L725 1082 L725 311 C692 247 630 207 530 207 C449 207 386 255 386 381 L386 1082 L113 1082 L113 383 C113 96 251 -20 454 -20 C578 -20 671 26 735 105 L742 5 C647 -61 616 -138 616 -215 C616 -351 712 -422 831 -422 C909 -422 958 -398 990 -378 L964 -225 C947 -234 923 -246 887 -246 C841 -246 824 -218 824 -180 C824 -108 879 -57 971 0 L971 0 Z " />
<glyph glyph-name="Wcircumflex" unicode="&#x174;" horiz-adv-x="1731" d="M1405 1456 L1228 446 L1001 1456 L737 1456 L517 464 L331 1456 L49 1456 L355 0 L654 0 L869 994 L1083 0 L1381 0 L1687 1456 L1405 1456 Z M875 1702 L1019 1556 L1235 1556 L1235 1568 L954 1846 L796 1846 L519 1571 L519 1556 L732 1556 L875 1702 Z " />
<glyph glyph-name="wcircumflex" unicode="&#x175;" horiz-adv-x="1462" d="M1156 1082 L1018 373 L829 1082 L629 1082 L440 384 L302 1082 L38 1082 L305 0 L532 0 L728 693 L926 0 L1153 0 L1420 1082 L1156 1082 Z M728 1392 L872 1246 L1088 1246 L1088 1258 L807 1536 L649 1536 L372 1261 L372 1246 L585 1246 L728 1392 Z " />
<glyph glyph-name="Ycircumflex" unicode="&#x176;" horiz-adv-x="1227" d="M613 777 L326 1456 L14 1456 L469 530 L469 0 L756 0 L756 530 L1212 1456 L899 1456 L613 777 Z M976 1568 L695 1846 L537 1846 L260 1571 L260 1556 L473 1556 L616 1702 L760 1556 L976 1556 L976 1568 Z " />
<glyph glyph-name="ycircumflex" unicode="&#x177;" horiz-adv-x="996" d="M687 1082 L501 333 L311 1082 L16 1082 L378 -14 L350 -68 C320 -165 270 -208 161 -208 L120 -207 L120 -418 C161 -430 192 -437 241 -437 C455 -437 534 -271 570 -163 L980 1082 L687 1082 Z M506 1392 L650 1246 L866 1246 L866 1258 L585 1536 L427 1536 L150 1261 L150 1246 L363 1246 L506 1392 Z " />
<glyph glyph-name="Ydieresis" unicode="&#x178;" horiz-adv-x="1227" d="M613 777 L326 1456 L14 1456 L469 530 L469 0 L756 0 L756 530 L1212 1456 L899 1456 L613 777 Z M369 1802 C288 1802 233 1748 233 1678 C233 1608 288 1554 369 1554 C449 1554 505 1608 505 1678 C505 1748 449 1802 369 1802 L369 1802 Z M854 1801 C773 1801 718 1747 718 1677 C718 1608 773 1554 854 1554 C935 1554 990 1608 990 1677 C990 1747 935 1801 854 1801 L854 1801 Z " />
<glyph glyph-name="Zacute" unicode="&#x179;" horiz-adv-x="1206" d="M431 234 L1119 1290 L1119 1456 L84 1456 L84 1221 L774 1221 L83 171 L83 0 L1135 0 L1135 234 L431 234 Z M981 1846 L676 1846 L476 1539 L700 1539 L981 1846 Z " />
<glyph glyph-name="zacute" unicode="&#x17a;" horiz-adv-x="1018" d="M427 226 L923 917 L923 1082 L97 1082 L97 856 L578 856 L85 171 L85 0 L937 0 L937 226 L427 226 Z M879 1536 L574 1536 L374 1229 L598 1229 L879 1536 Z " />
<glyph glyph-name="Zdotaccent" unicode="&#x17b;" horiz-adv-x="1206" d="M431 234 L1119 1290 L1119 1456 L84 1456 L84 1221 L774 1221 L83 171 L83 0 L1135 0 L1135 234 L431 234 Z M609 1568 C697 1568 753 1625 753 1702 C753 1779 697 1836 609 1836 C520 1836 465 1779 465 1702 C465 1625 520 1568 609 1568 L609 1568 Z " />
<glyph glyph-name="zdotaccent" unicode="&#x17c;" horiz-adv-x="1018" d="M427 226 L923 917 L923 1082 L97 1082 L97 856 L578 856 L85 171 L85 0 L937 0 L937 226 L427 226 Z M507 1258 C595 1258 651 1315 651 1392 C651 1469 595 1526 507 1526 C418 1526 363 1469 363 1392 C363 1315 418 1258 507 1258 L507 1258 Z " />
<glyph glyph-name="Zcaron" unicode="&#x17d;" horiz-adv-x="1206" d="M431 234 L1119 1290 L1119 1456 L84 1456 L84 1221 L774 1221 L83 171 L83 0 L1135 0 L1135 234 L431 234 Z M696 1555 L980 1835 L980 1846 L747 1846 L610 1700 L474 1846 L241 1846 L241 1837 L525 1555 L696 1555 Z " />
<glyph glyph-name="zcaron" unicode="&#x17e;" horiz-adv-x="1018" d="M427 226 L923 917 L923 1082 L97 1082 L97 856 L578 856 L85 171 L85 0 L937 0 L937 226 L427 226 Z M594 1245 L878 1525 L878 1536 L645 1536 L508 1390 L372 1536 L139 1536 L139 1527 L423 1245 L594 1245 Z " />
<glyph glyph-name="florin" unicode="&#x192;" horiz-adv-x="727" d="M654 878 L654 1082 L463 1082 L463 1179 C463 1276 510 1330 601 1330 C640 1330 668 1326 693 1320 L718 1536 C666 1548 618 1557 567 1557 C330 1557 190 1424 190 1179 L190 1082 L37 1082 L37 878 L190 878 L190 -51 C190 -156 162 -212 86 -212 C66 -212 17 -206 -2 -199 L-16 -420 C31 -433 70 -437 117 -437 C333 -437 463 -301 463 -51 L464 878 L654 878 Z " />
<glyph glyph-name="Ohorn" unicode="&#x1a0;" horiz-adv-x="1349" d="M1414 1566 L1223 1566 C1223 1422 1197 1325 1119 1293 C1016 1412 867 1476 688 1476 C342 1476 103 1232 103 803 L103 648 C103 221 345 -20 690 -20 C1040 -20 1274 221 1274 648 L1274 803 C1274 939 1250 1057 1207 1154 C1347 1210 1414 1354 1414 1566 L1414 1566 Z M990 648 C990 359 883 218 690 218 C500 218 388 359 388 648 L388 805 C388 1098 498 1237 688 1237 C881 1237 990 1098 990 805 L990 648 Z " />
<glyph glyph-name="ohorn" unicode="&#x1a1;" horiz-adv-x="1122" d="M1166 1184 L996 1184 C996 1075 983 995 931 955 C847 1049 724 1102 569 1102 C266 1102 83 896 83 568 L83 513 C83 186 266 -20 571 -20 C875 -20 1057 186 1057 513 L1057 568 C1057 671 1039 762 1005 839 C1118 895 1166 1016 1166 1184 L1166 1184 Z M784 513 C784 322 718 206 571 206 C423 206 355 322 355 513 L355 568 C355 756 424 877 569 877 C717 877 784 756 784 568 L784 513 Z " />
<glyph glyph-name="Uhorn" unicode="&#x1af;" horiz-adv-x="1373" d="M1556 1538 L1369 1538 C1369 1360 1347 1247 1187 1230 L1187 1456 L902 1456 L902 475 C902 279 812 214 656 214 C502 214 410 279 410 475 L410 1456 L126 1456 L126 475 C126 138 348 -20 656 -20 C959 -20 1187 138 1187 475 L1187 1076 C1466 1092 1556 1257 1556 1538 L1556 1538 Z " />
<glyph glyph-name="uhorn" unicode="&#x1b0;" horiz-adv-x="1176" d="M1287 1178 L1120 1178 C1120 1043 1109 967 1003 944 L1003 1082 L729 1082 L729 311 C696 247 634 207 534 207 C453 207 390 255 390 381 L390 1082 L117 1082 L117 383 C117 96 255 -20 458 -20 C582 -20 675 26 739 105 L746 0 L1003 0 L1003 807 C1218 831 1287 957 1287 1178 L1287 1178 Z " />
<glyph glyph-name="Scommaaccent" unicode="&#x218;" horiz-adv-x="1186" d="M583 614 C808 538 853 487 853 381 C853 283 785 210 637 210 C472 210 363 276 363 457 L85 457 C85 128 341 -20 637 -20 C954 -20 1138 126 1138 387 C1138 623 982 760 679 860 C499 913 405 972 405 1071 C405 1167 475 1245 625 1245 C783 1245 854 1155 854 1028 L1132 1028 C1132 1289 962 1476 629 1476 C321 1476 122 1314 122 1071 C122 821 327 698 583 614 L583 614 Z M-8 -582 L-8 -513 L-215 -513 L-215 -596 C-215 -704 -244 -774 -288 -844 L-151 -919 C-66 -839 -8 -703 -8 -582 L-8 -582 Z " />
<glyph glyph-name="scommaaccent" unicode="&#x219;" horiz-adv-x="991" d="M464 439 C597 395 680 370 680 291 C680 224 621 180 519 180 C419 180 330 222 324 337 L69 337 C69 162 193 -20 522 -20 C805 -20 947 113 947 310 C947 536 760 590 573 648 C439 690 366 711 366 791 C366 854 416 903 517 903 C625 903 675 843 675 760 L941 760 C941 960 805 1102 520 1102 C226 1102 104 953 104 775 C104 582 245 509 464 439 L464 439 Z M-124 -592 L-124 -523 L-331 -523 L-331 -606 C-331 -714 -360 -784 -404 -854 L-267 -929 C-182 -849 -124 -713 -124 -592 L-124 -592 Z " />
<glyph glyph-name="uni021A" unicode="&#x21a;" horiz-adv-x="1193" d="M1173 1456 L51 1456 L51 1221 L468 1221 L468 0 L752 0 L752 1221 L1173 1221 L1173 1456 Z M-236 -588 C-236 -696 -265 -766 -309 -836 L-172 -911 C-87 -831 -29 -695 -29 -574 L-29 -505 L-236 -505 L-236 -588 Z " />
<glyph glyph-name="uni021B" unicode="&#x21b;" horiz-adv-x="662" d="M551 210 C484 210 448 232 448 327 L448 878 L623 878 L623 1082 L448 1082 L448 1350 L175 1350 L175 1082 L20 1082 L20 878 L175 878 L175 298 C175 69 291 -20 466 -20 C535 -20 586 -10 630 6 L631 218 C613 214 583 210 551 210 L551 210 Z M-418 -596 C-418 -704 -447 -774 -491 -844 L-354 -919 C-269 -839 -211 -703 -211 -582 L-211 -513 L-418 -513 L-418 -596 Z " />
<glyph glyph-name="uni0298" unicode="&#x298;" horiz-adv-x="1325" d="M685 882 C590 882 530 817 530 732 C530 647 590 582 685 582 C780 582 840 647 840 732 C840 817 780 882 685 882 L685 882 Z M1275 648 L1275 803 C1275 1232 1039 1476 689 1476 C343 1476 104 1232 104 803 L104 648 C104 221 346 -20 691 -20 C1041 -20 1275 221 1275 648 L1275 648 Z M991 805 L991 648 C991 359 884 218 691 218 C501 218 389 359 389 648 L389 805 C389 1098 499 1237 689 1237 C882 1237 991 1098 991 805 L991 805 Z " />
<glyph glyph-name="uni02AA" unicode="&#x2aa;" horiz-adv-x="1365" d="M929 646 C795 673 727 705 727 782 C727 850 779 903 873 903 C979 903 1029 840 1029 755 L1302 755 C1302 956 1139 1102 873 1102 C618 1102 463 948 463 769 C463 581 618 491 833 440 C991 404 1041 368 1041 299 C1041 227 988 184 853 184 C752 184 580 218 408 323 L408 327 L408 1536 L134 1536 L134 298 C134 69 251 -20 425 -20 C494 -20 545 -10 589 6 L589 13 C680 -11 768 -20 854 -20 C1138 -20 1307 119 1307 310 C1307 500 1175 593 929 646 L929 646 Z " />
<glyph glyph-name="uni02AD" unicode="&#x2ad;" horiz-adv-x="980" d="M882 584 L98 584 L98 0 L297 0 L297 420 L683 420 L683 0 L882 0 L882 584 Z M882 1456 L98 1456 L98 872 L297 872 L297 1293 L683 1293 L683 872 L882 872 L882 1456 Z " />
<glyph glyph-name="uni02AF" unicode="&#x2af;" horiz-adv-x="1380" d="M1292 -241 C1217 -241 1139 -208 1139 -94 L1139 1082 L866 1082 L866 318 C835 250 778 207 682 207 C594 207 526 255 526 452 L526 760 C526 1044 334 1102 171 1102 C117 1102 72 1097 35 1088 L35 900 C57 904 78 907 100 907 C175 907 253 875 253 760 L253 454 C253 117 392 -20 595 -20 C711 -20 802 27 866 106 L866 -94 C866 -378 1058 -437 1220 -437 C1275 -437 1320 -432 1357 -422 L1357 -234 C1336 -238 1313 -241 1292 -241 L1292 -241 Z " />
<glyph glyph-name="uni02B5" unicode="&#x2b5;" horiz-adv-x="668" d="M558 531 C503 531 474 566 474 624 L474 1455 L267 1455 L267 915 C243 872 203 848 146 848 C109 848 77 855 50 865 L50 649 C58 645 81 643 107 643 C172 643 227 680 267 742 L267 602 C267 403 339 339 475 339 C521 339 567 344 618 353 L618 539 C601 534 578 531 558 531 L558 531 Z " />
<glyph glyph-name="uni02B9" unicode="&#x2b9;" horiz-adv-x="468" d="M153 1562 L61 1211 L205 1211 L407 1562 L153 1562 Z " />
<glyph glyph-name="uni02BA" unicode="&#x2ba;" horiz-adv-x="822" d="M157 1562 L65 1211 L209 1211 L411 1562 L157 1562 Z M519 1562 L427 1211 L571 1211 L773 1562 L519 1562 Z " />
<glyph glyph-name="uni02BB" unicode="&#x2bb;" horiz-adv-x="492" d="M88 1201 L88 1006 L323 1006 L323 1202 C323 1333 355 1427 403 1511 L266 1588 C166 1498 88 1338 88 1201 L88 1201 Z " />
<glyph glyph-name="uni02BC" unicode="&#x2bc;" horiz-adv-x="472" d="M378 1383 L378 1536 L154 1536 L154 1383 C154 1260 117 1172 69 1093 L199 1016 C300 1102 378 1254 378 1383 L378 1383 Z " />
<glyph glyph-name="uni02BD" unicode="&#x2bd;" horiz-adv-x="492" d="M88 1393 L88 1588 L323 1588 L323 1392 C323 1261 355 1167 403 1083 L266 1006 C166 1095 88 1256 88 1393 L88 1393 Z " />
<glyph glyph-name="uni02BE" unicode="&#x2be;" horiz-adv-x="348" d="M72 1231 L72 1138 C186 1138 276 1217 276 1327 C276 1437 186 1521 72 1521 L72 1426 C126 1426 164 1386 164 1327 C164 1270 126 1231 72 1231 L72 1231 Z " />
<glyph glyph-name="uni02BF" unicode="&#x2bf;" horiz-adv-x="348" d="M276 1231 L276 1138 C163 1138 72 1217 72 1327 C72 1437 163 1521 276 1521 L276 1426 C222 1426 184 1386 184 1327 C184 1270 222 1231 276 1231 L276 1231 Z " />
<glyph glyph-name="uni02C0" unicode="&#x2c0;" horiz-adv-x="752" d="M347 1808 C163 1808 44 1697 42 1522 L239 1522 C245 1586 270 1633 349 1633 C450 1633 471 1554 471 1412 L471 1235 C471 1118 440 1032 325 1032 L253 1032 L253 652 L466 652 L466 875 C611 920 684 1053 684 1244 L684 1416 C684 1655 572 1808 347 1808 L347 1808 Z " />
<glyph glyph-name="uni02C1" unicode="&#x2c1;" horiz-adv-x="752" d="M403 1633 C482 1633 507 1586 513 1522 L710 1522 C708 1697 589 1808 405 1808 C180 1808 68 1655 68 1416 L68 1244 C68 1053 141 920 286 875 L286 652 L498 652 L498 1032 L426 1032 C312 1032 281 1118 281 1235 L281 1412 C281 1554 302 1633 403 1633 L403 1633 Z " />
<glyph glyph-name="uni02C2" unicode="&#x2c2;" horiz-adv-x="872" d="M795 1132 L795 1336 L76 1055 L76 868 L795 586 L795 790 L379 949 L327 960 L379 971 L795 1132 Z " />
<glyph glyph-name="uni02C3" unicode="&#x2c3;" horiz-adv-x="874" d="M80 1336 L80 1132 L496 971 L548 960 L496 949 L80 790 L80 586 L799 868 L799 1055 L80 1336 Z " />
<glyph glyph-name="uni02C4" unicode="&#x2c4;" horiz-adv-x="852" d="M517 1335 L334 1335 L69 577 L272 577 L415 1024 L425 1071 L434 1024 L580 577 L782 577 L517 1335 Z " />
<glyph glyph-name="uni02C5" unicode="&#x2c5;" horiz-adv-x="850" d="M580 1335 L434 887 L425 840 L415 887 L272 1335 L69 1335 L334 577 L517 577 L782 1335 L580 1335 Z " />
<glyph glyph-name="circumflex" unicode="&#x2c6;" horiz-adv-x="998" d="M853 1258 L572 1536 L414 1536 L137 1261 L137 1246 L350 1246 L493 1392 L637 1246 L853 1246 L853 1258 Z " />
<glyph glyph-name="caron" unicode="&#x2c7;" horiz-adv-x="949" d="M469 1390 L333 1536 L100 1536 L100 1527 L384 1245 L555 1245 L839 1525 L839 1536 L606 1536 L469 1390 Z " />
<glyph glyph-name="uni02C8" unicode="&#x2c8;" horiz-adv-x="330" d="M254 1141 L254 1574 L76 1574 L76 1141 L254 1141 Z " />
<glyph glyph-name="uni02C9" unicode="&#x2c9;" horiz-adv-x="1001" d="M837 1292 L837 1454 L174 1454 L174 1292 L837 1292 Z " />
<glyph glyph-name="uni02CA" unicode="&#x2ca;" horiz-adv-x="662" d="M283 1536 L83 1229 L307 1229 L588 1536 L283 1536 Z " />
<glyph glyph-name="uni02CB" unicode="&#x2cb;" horiz-adv-x="658" d="M571 1229 L371 1536 L65 1536 L344 1229 L571 1229 Z " />
<glyph glyph-name="uni02CC" unicode="&#x2cc;" horiz-adv-x="330" d="M254 -534 L254 -110 L76 -110 L76 -534 L254 -534 Z " />
<glyph glyph-name="uni02CD" unicode="&#x2cd;" horiz-adv-x="853" d="M761 -329 L761 -167 L98 -167 L98 -329 L761 -329 Z " />
<glyph glyph-name="uni02CE" unicode="&#x2ce;" horiz-adv-x="658" d="M571 -372 L371 -65 L65 -65 L344 -372 L571 -372 Z " />
<glyph glyph-name="uni02CF" unicode="&#x2cf;" horiz-adv-x="662" d="M283 -65 L83 -372 L307 -372 L588 -65 L283 -65 Z " />
<glyph glyph-name="uni02D0" unicode="&#x2d0;" horiz-adv-x="550" d="M263 259 C263 259 112 0 112 0 L437 0 C437 0 286 259 286 259 L263 259 Z M437 1081 C437 1081 112 1081 112 1081 L263 823 C263 823 286 823 286 823 L437 1081 Z " />
<glyph glyph-name="uni02D1" unicode="&#x2d1;" horiz-adv-x="550" d="M437 1081 C437 1081 112 1081 112 1081 L263 823 C263 823 286 823 286 823 L437 1081 Z " />
<glyph glyph-name="uni02D2" unicode="&#x2d2;" horiz-adv-x="348" d="M76 256 L76 163 C190 163 280 242 280 352 C280 462 190 546 76 546 L76 451 C130 451 168 411 168 352 C168 295 130 256 76 256 L76 256 Z " />
<glyph glyph-name="uni02D3" unicode="&#x2d3;" horiz-adv-x="348" d="M276 163 L276 256 C222 256 184 296 184 353 C184 411 222 451 276 451 L276 545 C163 545 72 462 72 353 C72 241 163 163 276 163 L276 163 Z " />
<glyph glyph-name="uni02D5" unicode="&#x2d5;" horiz-adv-x="620" d="M532 572 L88 572 L88 398 L220 398 L220 155 L400 155 L400 398 L532 398 L532 572 Z " />
<glyph glyph-name="uni02D6" unicode="&#x2d6;" horiz-adv-x="620" d="M532 447 L400 447 L400 614 L220 614 L220 447 L88 447 L88 274 L220 274 L220 107 L400 107 L400 274 L532 274 L532 447 Z " />
<glyph glyph-name="uni02D7" unicode="&#x2d7;" horiz-adv-x="635" d="M558 447 L76 447 L76 274 L558 274 L558 447 Z " />
<glyph glyph-name="breve" unicode="&#x2d8;" horiz-adv-x="927" d="M799 1525 L598 1525 C598 1455 560 1391 456 1391 C350 1391 312 1455 312 1525 L112 1525 C112 1351 245 1230 456 1230 C667 1230 799 1351 799 1525 L799 1525 Z " />
<glyph glyph-name="dotaccent" unicode="&#x2d9;" horiz-adv-x="553" d="M272 1510 C183 1510 128 1453 128 1376 C128 1299 183 1242 272 1242 C360 1242 416 1299 416 1376 C416 1453 360 1510 272 1510 L272 1510 Z " />
<glyph glyph-name="ring" unicode="&#x2da;" horiz-adv-x="704" d="M352 1533 C222 1533 127 1440 127 1329 C127 1217 222 1129 352 1129 C482 1129 577 1217 577 1329 C577 1440 482 1533 352 1533 L352 1533 Z M352 1221 C286 1221 242 1271 242 1329 C242 1388 286 1438 352 1438 C420 1438 463 1388 463 1329 C463 1270 420 1221 352 1221 L352 1221 Z " />
<glyph glyph-name="ogonek" unicode="&#x2db;" horiz-adv-x="610" d="M400 0 L266 58 C95 -18 45 -116 45 -215 C45 -351 141 -422 260 -422 C338 -422 387 -398 419 -378 L393 -225 C376 -234 352 -246 316 -246 C270 -246 253 -218 253 -180 C253 -108 308 -57 400 0 L400 0 Z " />
<glyph glyph-name="tilde" unicode="&#x2dc;" horiz-adv-x="972" d="M844 1522 L685 1533 C685 1471 649 1436 604 1436 C508 1436 445 1523 345 1523 C219 1523 128 1402 128 1259 L288 1251 C288 1312 323 1347 367 1347 C467 1347 504 1260 627 1260 C752 1260 844 1377 844 1522 L844 1522 Z " />
<glyph glyph-name="hungarumlaut" unicode="&#x2dd;" horiz-adv-x="815" d="M238 1535 L68 1235 L268 1235 L483 1535 L238 1535 Z M609 1535 L398 1235 L607 1235 L858 1535 L609 1535 Z " />
<glyph glyph-name="uni02DE" unicode="&#x2de;" horiz-adv-x="512" d="M-173 748 L-173 538 L29 589 C73 421 109 305 286 305 C339 305 390 320 431 344 L393 535 C377 533 363 532 346 532 C237 532 241 637 211 835 L-173 748 Z " />
<glyph glyph-name="uni02DF" unicode="&#x2df;" horiz-adv-x="694" d="M606 1579 L488 1700 L347 1550 L208 1701 L90 1580 L232 1426 L88 1273 L205 1152 L346 1302 L486 1150 L603 1271 L461 1425 L606 1579 Z " />
<glyph glyph-name="uni02E0" unicode="&#x2e0;" horiz-adv-x="872" d="M547 692 L813 1455 L571 1455 L446 983 L436 930 L426 983 L301 1455 L59 1455 L319 704 L250 549 C223 492 208 445 208 411 C208 281 307 221 431 221 C556 221 650 281 650 411 C650 446 635 493 607 554 L547 692 Z M431 376 C405 376 398 400 398 429 C398 454 412 482 433 526 C452 482 464 454 464 429 C464 400 459 376 431 376 L431 376 Z " />
<glyph glyph-name="uni02E1" unicode="&#x2e1;" horiz-adv-x="419" d="M313 654 L313 1870 L106 1870 L106 654 L313 654 Z " />
<glyph glyph-name="uni02E2" unicode="&#x2e2;" horiz-adv-x="793" d="M355 975 C469 950 520 922 520 867 C520 816 477 786 412 786 C326 786 274 820 267 904 L68 904 C68 774 182 636 406 636 C614 636 725 735 725 880 C725 1026 633 1095 449 1135 C340 1159 295 1187 295 1238 C295 1286 329 1317 395 1317 C473 1317 513 1268 514 1210 L721 1210 C721 1358 598 1466 394 1466 C212 1466 92 1368 92 1223 C92 1082 198 1008 355 975 L355 975 Z " />
<glyph glyph-name="uni02E4" unicode="&#x2e4;" horiz-adv-x="848" d="M441 1290 C514 1290 563 1240 566 1161 L765 1161 C765 1342 625 1466 432 1466 C235 1466 96 1338 96 1101 C96 930 188 798 327 761 L327 654 L533 654 L533 910 L434 910 C340 910 302 983 302 1093 C302 1214 347 1290 441 1290 L441 1290 Z " />
<glyph glyph-name="uni02EA" unicode="&#x2ea;" horiz-adv-x="821" d="M403 226 L403 908 L130 908 L130 0 L756 0 L756 226 L403 226 Z " />
<glyph glyph-name="uni02EE" unicode="&#x2ee;" horiz-adv-x="833" d="M403 1370 L403 1560 L168 1560 L168 1370 C168 1238 137 1144 88 1060 L225 983 C326 1073 403 1233 403 1370 L403 1370 Z M744 1370 L744 1560 L509 1560 L509 1370 C509 1238 477 1144 428 1060 L565 983 C667 1073 744 1233 744 1370 L744 1370 Z " />
<glyph glyph-name="uni02EF" unicode="&#x2ef;" horiz-adv-x="651" d="M434 -72 L333 -354 L326 -387 L318 -354 L217 -72 L76 -72 L262 -549 L389 -549 L575 -72 L434 -72 Z " />
<glyph glyph-name="uni02F0" unicode="&#x2f0;" horiz-adv-x="651" d="M389 -72 L262 -72 L76 -549 L217 -549 L318 -267 L325 -238 L331 -267 L433 -549 L574 -549 L389 -72 Z " />
<glyph glyph-name="uni02F1" unicode="&#x2f1;" horiz-adv-x="656" d="M580 -197 L580 -64 L76 -247 L76 -369 L580 -551 L580 -419 L288 -316 L252 -309 L288 -302 L580 -197 Z " />
<glyph glyph-name="uni02F2" unicode="&#x2f2;" horiz-adv-x="656" d="M76 -64 L76 -197 L368 -302 L404 -309 L368 -316 L76 -419 L76 -551 L580 -369 L580 -247 L76 -64 Z " />
<glyph glyph-name="uni02F3" unicode="&#x2f3;" horiz-adv-x="630" d="M322 -60 C221 -60 142 -133 142 -230 C142 -328 221 -398 322 -398 C421 -398 499 -328 499 -230 C499 -133 421 -60 322 -60 L322 -60 Z M322 -304 C281 -304 248 -272 248 -230 C248 -186 281 -154 322 -154 C363 -154 392 -186 392 -230 C392 -273 363 -304 322 -304 L322 -304 Z " />
<glyph glyph-name="uni02F4" unicode="&#x2f4;" horiz-adv-x="658" d="M571 209 L371 516 L65 516 L344 209 L571 209 Z " />
<glyph glyph-name="uni02F5" unicode="&#x2f5;" horiz-adv-x="1103" d="M571 209 L371 516 L65 516 L344 209 L571 209 Z M1028 210 L828 517 L522 517 L801 210 L1028 210 Z " />
<glyph glyph-name="uni02F6" unicode="&#x2f6;" horiz-adv-x="1108" d="M283 516 L83 209 L307 209 L588 516 L283 516 Z M745 517 L545 210 L769 210 L1050 517 L745 517 Z " />
<glyph glyph-name="uni02F7" unicode="&#x2f7;" horiz-adv-x="886" d="M801 -150 L641 -139 C641 -201 605 -236 561 -236 C465 -236 401 -149 301 -149 C175 -149 84 -271 84 -413 L244 -422 C244 -360 279 -325 324 -325 C424 -325 461 -413 583 -413 C709 -413 801 -296 801 -150 L801 -150 Z " />
<glyph glyph-name="uni02F8" unicode="&#x2f8;" horiz-adv-x="514" d="M266 676 C169 676 108 610 108 525 C108 440 169 375 266 375 C363 375 424 440 424 525 C424 610 363 676 266 676 L266 676 Z M278 1488 C181 1488 120 1422 120 1337 C120 1252 181 1187 278 1187 C375 1187 436 1252 436 1337 C436 1422 375 1488 278 1488 L278 1488 Z " />
<glyph glyph-name="uni02F9" unicode="&#x2f9;" horiz-adv-x="568" d="M480 1536 L88 1536 L88 1136 L267 1136 L267 1364 L480 1364 L480 1536 Z " />
<glyph glyph-name="uni02FA" unicode="&#x2fa;" horiz-adv-x="568" d="M480 1536 L88 1536 L88 1364 L301 1364 L301 1136 L480 1136 L480 1536 Z " />
<glyph glyph-name="uni02FB" unicode="&#x2fb;" horiz-adv-x="568" d="M267 -290 L267 -61 L88 -61 L88 -461 L480 -461 L480 -290 L267 -290 Z " />
<glyph glyph-name="uni02FC" unicode="&#x2fc;" horiz-adv-x="568" d="M301 -61 L301 -290 L88 -290 L88 -461 L480 -461 L480 -61 L301 -61 Z " />
<glyph glyph-name="uni02FD" unicode="&#x2fd;" horiz-adv-x="853" d="M585 -71 L585 -280 L268 -280 L268 -71 L88 -71 L88 -447 L764 -447 L764 -71 L585 -71 Z " />
<glyph glyph-name="uni02FE" unicode="&#x2fe;" horiz-adv-x="807" d="M268 -294 L268 -61 L88 -61 L88 -461 L719 -461 L719 -294 L268 -294 Z " />
<glyph glyph-name="uni02FF" unicode="&#x2ff;" horiz-adv-x="907" d="M819 -45 L369 -45 L575 169 L366 169 L80 -133 L366 -435 L575 -435 L369 -221 L819 -221 L819 -45 Z " />
<glyph glyph-name="gravecomb" unicode="&#x300;" horiz-adv-x="0" d="M-357 1229 L-545 1536 L-845 1536 L-580 1229 L-357 1229 Z " />
<glyph glyph-name="acutecomb" unicode="&#x301;" horiz-adv-x="0" d="M-454 1536 L-641 1229 L-421 1229 L-153 1536 L-454 1536 Z " />
<glyph glyph-name="uni0302" unicode="&#x302;" horiz-adv-x="0" d="M-180 1258 L-461 1536 L-619 1536 L-896 1261 L-896 1246 L-683 1246 L-540 1392 L-396 1246 L-180 1246 L-180 1258 Z " />
<glyph glyph-name="tildecomb" unicode="&#x303;" horiz-adv-x="0" d="M-150 1522 L-309 1533 C-309 1471 -345 1436 -390 1436 C-486 1436 -549 1523 -649 1523 C-775 1523 -866 1402 -866 1259 L-706 1251 C-706 1312 -671 1347 -627 1347 C-527 1347 -490 1260 -367 1260 C-242 1260 -150 1377 -150 1522 L-150 1522 Z " />
<glyph glyph-name="uni0304" unicode="&#x304;" horiz-adv-x="0" d="M-212 1292 L-212 1454 L-875 1454 L-875 1292 L-212 1292 Z " />
<glyph glyph-name="uni0305" unicode="&#x305;" horiz-adv-x="0" d="M-99 1583 L-99 1802 L-973 1802 L-973 1583 L-99 1583 Z " />
<glyph glyph-name="uni0306" unicode="&#x306;" horiz-adv-x="0" d="M-217 1525 L-414 1525 C-414 1455 -448 1391 -542 1391 C-636 1391 -671 1455 -671 1525 L-868 1525 C-868 1351 -742 1230 -542 1230 C-342 1230 -217 1351 -217 1525 L-217 1525 Z " />
<glyph glyph-name="uni0307" unicode="&#x307;" horiz-adv-x="0" d="M-542 1510 C-636 1510 -694 1449 -694 1365 C-694 1280 -636 1220 -542 1220 C-448 1220 -390 1280 -390 1365 C-390 1449 -448 1510 -542 1510 L-542 1510 Z " />
<glyph glyph-name="uni0308" unicode="&#x308;" horiz-adv-x="0" d="M-842 1492 C-921 1492 -975 1438 -975 1368 C-975 1298 -921 1244 -842 1244 C-764 1244 -709 1298 -709 1368 C-709 1438 -764 1492 -842 1492 L-842 1492 Z M-386 1491 C-465 1491 -518 1437 -518 1367 C-518 1298 -465 1244 -386 1244 C-308 1244 -253 1298 -253 1367 C-253 1437 -308 1491 -386 1491 L-386 1491 Z " />
<glyph glyph-name="hookabovecomb" unicode="&#x309;" horiz-adv-x="0" d="M-669 1266 L-466 1266 L-466 1330 C-397 1340 -325 1382 -325 1474 C-325 1594 -445 1668 -679 1668 L-686 1536 C-608 1536 -553 1520 -553 1466 C-553 1423 -591 1403 -681 1398 L-669 1266 Z " />
<glyph glyph-name="uni030A" unicode="&#x30a;" horiz-adv-x="0" d="M-524 1533 C-654 1533 -749 1440 -749 1329 C-749 1217 -654 1129 -524 1129 C-394 1129 -299 1217 -299 1329 C-299 1440 -394 1533 -524 1533 L-524 1533 Z M-524 1221 C-590 1221 -634 1271 -634 1329 C-634 1388 -590 1438 -524 1438 C-456 1438 -413 1388 -413 1329 C-413 1270 -456 1221 -524 1221 L-524 1221 Z " />
<glyph glyph-name="uni030B" unicode="&#x30b;" horiz-adv-x="0" d="M-816 1536 L-1016 1229 L-792 1229 L-511 1536 L-816 1536 Z M-338 1536 L-538 1229 L-314 1229 L-33 1536 L-338 1536 Z " />
<glyph glyph-name="uni030C" unicode="&#x30c;" horiz-adv-x="0" d="M-185 1524 L-465 1246 L-624 1246 L-901 1520 L-901 1536 L-688 1536 L-545 1390 L-402 1536 L-185 1536 L-185 1524 Z " />
<glyph glyph-name="uni030D" unicode="&#x30d;" horiz-adv-x="0" d="M-450 1141 L-450 1574 L-628 1574 L-628 1141 L-450 1141 Z " />
<glyph glyph-name="uni030E" unicode="&#x30e;" horiz-adv-x="0" d="M-590 1141 L-590 1574 L-768 1574 L-768 1141 L-590 1141 Z M-303 1141 L-303 1574 L-481 1574 L-481 1141 L-303 1141 Z " />
<glyph glyph-name="uni030F" unicode="&#x30f;" horiz-adv-x="0" d="M-698 1518 L-467 1252 L-694 1252 L-974 1518 L-698 1518 Z M-333 1518 L-150 1252 L-368 1252 L-602 1518 L-333 1518 Z " />
<glyph glyph-name="uni0310" unicode="&#x310;" horiz-adv-x="0" d="M-216 1522 L-414 1522 C-414 1452 -448 1388 -542 1388 C-636 1388 -671 1452 -671 1522 L-868 1522 C-868 1349 -742 1228 -542 1228 C-342 1228 -216 1349 -216 1522 L-216 1522 Z M-541 1772 C-635 1772 -693 1713 -693 1636 C-693 1559 -635 1501 -541 1501 C-447 1501 -389 1559 -389 1636 C-389 1713 -447 1772 -541 1772 L-541 1772 Z " />
<glyph glyph-name="uni0311" unicode="&#x311;" horiz-adv-x="0" d="M-414 1161 L-217 1161 C-217 1335 -342 1456 -542 1456 C-742 1456 -868 1335 -868 1161 L-672 1161 C-672 1232 -637 1296 -542 1296 C-448 1296 -414 1232 -414 1161 L-414 1161 Z " />
<glyph glyph-name="uni0312" unicode="&#x312;" horiz-adv-x="0" d="M-662 1201 L-662 1006 L-427 1006 L-427 1202 C-427 1333 -396 1427 -347 1511 L-484 1588 C-584 1498 -662 1338 -662 1201 L-662 1201 Z " />
<glyph glyph-name="uni0313" unicode="&#x313;" horiz-adv-x="0" d="M-405 1393 L-405 1588 L-640 1588 L-640 1392 C-640 1261 -671 1167 -720 1083 L-583 1006 C-483 1096 -405 1256 -405 1393 L-405 1393 Z " />
<glyph glyph-name="uni0314" unicode="&#x314;" horiz-adv-x="0" d="M-702 1393 L-702 1588 L-468 1588 L-468 1392 C-468 1261 -436 1167 -388 1083 L-524 1006 C-625 1095 -702 1256 -702 1393 L-702 1393 Z " />
<glyph glyph-name="uni0315" unicode="&#x315;" horiz-adv-x="0" d="M117 1393 L117 1588 L-118 1588 L-118 1392 C-118 1261 -149 1167 -198 1083 L-61 1006 C39 1096 117 1256 117 1393 L117 1393 Z " />
<glyph glyph-name="uni0316" unicode="&#x316;" horiz-adv-x="0" d="M-300 -388 L-500 -81 L-806 -81 L-527 -388 L-300 -388 Z " />
<glyph glyph-name="uni0317" unicode="&#x317;" horiz-adv-x="0" d="M-590 -81 L-790 -388 L-566 -388 L-285 -81 L-590 -81 Z " />
<glyph glyph-name="uni0318" unicode="&#x318;" horiz-adv-x="0" d="M-497 -64 L-497 -199 L-777 -199 L-777 -371 L-497 -371 L-497 -506 L-317 -506 L-317 -64 L-497 -64 Z " />
<glyph glyph-name="uni0319" unicode="&#x319;" horiz-adv-x="0" d="M-312 -199 L-592 -199 L-592 -64 L-772 -64 L-772 -506 L-592 -506 L-592 -371 L-312 -371 L-312 -199 Z " />
<glyph glyph-name="uni031A" unicode="&#x31a;" horiz-adv-x="0" d="M-103 1657 L-757 1657 L-757 1491 L-282 1491 L-282 1283 L-103 1283 L-103 1657 Z " />
<glyph glyph-name="uni031B" unicode="&#x31b;" horiz-adv-x="0" d="M-86 1439 L-86 1584 L-321 1584 C-321 1286 -347 1204 -401 1078 L-265 1001 C-164 1096 -86 1248 -86 1439 L-86 1439 Z " />
<glyph glyph-name="uni031C" unicode="&#x31c;" horiz-adv-x="0" d="M-428 -362 L-428 -455 C-541 -455 -631 -376 -631 -265 C-631 -156 -541 -73 -428 -73 L-428 -167 C-482 -167 -520 -207 -520 -265 C-520 -322 -482 -362 -428 -362 L-428 -362 Z " />
<glyph glyph-name="uni031D" unicode="&#x31d;" horiz-adv-x="0" d="M-450 -299 L-450 -65 L-630 -65 L-630 -299 L-762 -299 L-762 -473 L-318 -473 L-318 -299 L-450 -299 Z " />
<glyph glyph-name="uni031E" unicode="&#x31e;" horiz-adv-x="0" d="M-321 -86 L-765 -86 L-765 -260 L-634 -260 L-634 -495 L-453 -495 L-453 -260 L-321 -260 L-321 -86 Z " />
<glyph glyph-name="uni031F" unicode="&#x31f;" horiz-adv-x="0" d="M-316 -217 L-448 -217 L-448 -64 L-628 -64 L-628 -217 L-760 -217 L-760 -375 L-628 -375 L-628 -527 L-448 -527 L-448 -375 L-316 -375 L-316 -217 Z " />
<glyph glyph-name="uni0320" unicode="&#x320;" horiz-adv-x="0" d="M-291 -192 L-793 -192 L-793 -365 L-291 -365 L-291 -192 Z " />
<glyph glyph-name="uni0321" unicode="&#x321;" horiz-adv-x="0" d="M-101 223 L-313 223 L-313 -67 C-313 -187 -389 -221 -461 -221 C-482 -221 -505 -218 -530 -212 L-528 -407 C-490 -419 -448 -423 -408 -423 C-213 -423 -101 -297 -101 -67 L-101 223 Z " />
<glyph glyph-name="uni0322" unicode="&#x322;" horiz-adv-x="0" d="M-284 223 L-72 223 L-72 -67 C-72 -187 2 -221 75 -221 C97 -221 120 -218 144 -212 L144 -407 C104 -419 63 -423 23 -423 C-173 -423 -284 -297 -284 -67 L-284 223 Z " />
<glyph glyph-name="dotbelowcomb" unicode="&#x323;" horiz-adv-x="0" d="M-598 -99 C-693 -99 -753 -158 -753 -234 C-753 -311 -693 -369 -598 -369 C-502 -369 -441 -311 -441 -234 C-441 -158 -502 -99 -598 -99 L-598 -99 Z " />
<glyph glyph-name="uni0324" unicode="&#x324;" horiz-adv-x="0" d="M-844 -110 C-922 -110 -976 -165 -976 -234 C-976 -304 -922 -358 -844 -358 C-765 -358 -711 -304 -711 -234 C-711 -165 -765 -110 -844 -110 L-844 -110 Z M-388 -111 C-466 -111 -520 -165 -520 -235 C-520 -305 -466 -359 -388 -359 C-309 -359 -255 -305 -255 -235 C-255 -165 -309 -111 -388 -111 L-388 -111 Z " />
<glyph glyph-name="uni0325" unicode="&#x325;" horiz-adv-x="0" d="M-523 -76 C-653 -76 -748 -169 -748 -280 C-748 -392 -653 -480 -523 -480 C-393 -480 -298 -392 -298 -280 C-298 -169 -393 -76 -523 -76 L-523 -76 Z M-523 -388 C-589 -388 -633 -338 -633 -280 C-633 -221 -589 -171 -523 -171 C-455 -171 -412 -221 -412 -280 C-412 -339 -455 -388 -523 -388 L-523 -388 Z " />
<glyph glyph-name="uni0326" unicode="&#x326;" horiz-adv-x="0" d="M-398 -213 L-398 -144 L-605 -144 L-605 -227 C-605 -335 -634 -405 -678 -475 L-541 -550 C-456 -470 -398 -334 -398 -213 L-398 -213 Z " />
<glyph glyph-name="uni0327" unicode="&#x327;" horiz-adv-x="0" d="M-469 7 L-672 7 L-702 -135 C-605 -143 -566 -160 -566 -216 C-566 -276 -610 -300 -673 -300 L-667 -461 C-451 -461 -339 -367 -339 -225 C-339 -110 -411 -65 -480 -52 L-469 7 Z " />
<glyph glyph-name="uni0328" unicode="&#x328;" horiz-adv-x="0" d="M-420 0 L-539 58 C-709 -18 -776 -116 -776 -215 C-776 -351 -680 -422 -560 -422 C-482 -422 -433 -398 -401 -378 L-427 -225 C-444 -234 -469 -246 -504 -246 C-551 -246 -567 -218 -567 -180 C-567 -108 -512 -57 -420 0 L-420 0 Z " />
<glyph glyph-name="uni0329" unicode="&#x329;" horiz-adv-x="0" d="M-451 -506 L-451 -73 L-629 -73 L-629 -506 L-451 -506 Z " />
<glyph glyph-name="uni032A" unicode="&#x32a;" horiz-adv-x="0" d="M-206 -96 L-882 -96 L-882 -472 L-702 -472 L-702 -263 L-385 -263 L-385 -472 L-206 -472 L-206 -96 Z " />
<glyph glyph-name="uni032B" unicode="&#x32b;" horiz-adv-x="0" d="M-258 -112 C-258 -180 -305 -224 -372 -224 C-447 -224 -487 -180 -487 -113 L-594 -113 C-594 -180 -635 -224 -711 -224 C-776 -224 -824 -180 -824 -112 L-929 -112 C-929 -252 -838 -357 -711 -357 C-640 -357 -581 -327 -541 -278 C-502 -327 -444 -357 -372 -357 C-246 -357 -151 -252 -151 -112 L-258 -112 Z " />
<glyph glyph-name="uni032C" unicode="&#x32c;" horiz-adv-x="0" d="M-184 -121 L-465 -399 L-623 -399 L-900 -124 L-900 -109 L-687 -109 L-544 -255 L-401 -109 L-184 -109 L-184 -121 Z " />
<glyph glyph-name="uni032D" unicode="&#x32d;" horiz-adv-x="0" d="M-180 -372 L-461 -94 L-619 -94 L-896 -369 L-896 -384 L-683 -384 L-540 -238 L-396 -384 L-180 -384 L-180 -372 Z " />
<glyph glyph-name="uni032E" unicode="&#x32e;" horiz-adv-x="0" d="M-217 -86 L-414 -86 C-414 -157 -449 -221 -542 -221 C-637 -221 -672 -157 -672 -86 L-868 -86 C-868 -260 -742 -381 -542 -381 C-342 -381 -217 -260 -217 -86 L-217 -86 Z " />
<glyph glyph-name="uni032F" unicode="&#x32f;" horiz-adv-x="0" d="M-414 -391 L-217 -391 C-217 -217 -342 -97 -542 -97 C-742 -97 -868 -217 -868 -391 L-672 -391 C-672 -321 -637 -257 -542 -257 C-449 -257 -414 -321 -414 -391 L-414 -391 Z " />
<glyph glyph-name="uni0330" unicode="&#x330;" horiz-adv-x="0" d="M-184 -125 L-343 -114 C-343 -176 -379 -211 -424 -211 C-520 -211 -583 -124 -683 -124 C-809 -124 -900 -245 -900 -388 L-740 -396 C-740 -335 -705 -300 -661 -300 C-561 -300 -524 -387 -401 -387 C-276 -387 -184 -270 -184 -125 L-184 -125 Z " />
<glyph glyph-name="uni0331" unicode="&#x331;" horiz-adv-x="0" d="M-207 -329 L-207 -167 L-870 -167 L-870 -329 L-207 -329 Z " />
<glyph glyph-name="uni0332" unicode="&#x332;" horiz-adv-x="0" d="M-101 -370 L-101 -151 L-975 -151 L-975 -370 L-101 -370 Z " />
<glyph glyph-name="uni0333" unicode="&#x333;" horiz-adv-x="0" d="M-105 -262 L-105 -84 L-978 -84 L-978 -262 L-105 -262 Z M-104 -530 L-104 -351 L-978 -351 L-978 -530 L-104 -530 Z " />
<glyph glyph-name="uni0334" unicode="&#x334;" horiz-adv-x="0" d="M-181 681 L-340 692 C-340 630 -376 595 -421 595 C-517 595 -580 682 -680 682 C-806 682 -897 561 -897 418 L-737 410 C-737 471 -702 506 -658 506 C-558 506 -521 419 -398 419 C-273 419 -181 536 -181 681 L-181 681 Z " />
<glyph glyph-name="uni0335" unicode="&#x335;" horiz-adv-x="0" d="M-208 445 L-208 623 L-871 623 L-871 445 L-208 445 Z " />
<glyph glyph-name="uni0336" unicode="&#x336;" horiz-adv-x="0" d="M59 445 L59 622 L-1145 622 L-1145 445 L59 445 Z " />
<glyph glyph-name="uni0337" unicode="&#x337;" horiz-adv-x="0" d="M-785 -142 L-153 1216 L-307 1216 L-938 -142 L-785 -142 Z " />
<glyph glyph-name="uni0338" unicode="&#x338;" horiz-adv-x="0" d="M-1067 -94 L-153 1517 L-276 1517 L-1191 -94 L-1067 -94 Z " />
<glyph glyph-name="uni0339" unicode="&#x339;" horiz-adv-x="0" d="M-641 -362 L-641 -455 C-527 -455 -437 -376 -437 -266 C-437 -156 -527 -72 -641 -72 L-641 -167 C-587 -167 -549 -207 -549 -266 C-549 -323 -587 -362 -641 -362 L-641 -362 Z " />
<glyph glyph-name="uni033A" unicode="&#x33a;" horiz-adv-x="0" d="M-380 -99 L-380 -308 L-697 -308 L-697 -99 L-877 -99 L-877 -475 L-201 -475 L-201 -99 L-380 -99 Z " />
<glyph glyph-name="uni033B" unicode="&#x33b;" horiz-adv-x="0" d="M-747 -81 L-747 -510 L-335 -510 L-335 -81 L-747 -81 Z M-612 -371 L-612 -220 L-471 -220 L-471 -371 L-612 -371 Z " />
<glyph glyph-name="uni033C" unicode="&#x33c;" horiz-adv-x="0" d="M-372 -106 C-444 -106 -502 -136 -541 -185 C-581 -136 -640 -106 -711 -106 C-838 -106 -929 -212 -929 -352 L-824 -352 C-824 -283 -776 -239 -711 -239 C-635 -239 -594 -283 -594 -351 L-487 -351 C-487 -283 -447 -239 -372 -239 C-305 -239 -258 -283 -258 -352 L-151 -352 C-151 -212 -246 -106 -372 -106 L-372 -106 Z " />
<glyph glyph-name="uni033D" unicode="&#x33d;" horiz-adv-x="0" d="M-279 1624 L-381 1727 L-504 1597 L-627 1729 L-729 1625 L-604 1491 L-730 1359 L-628 1256 L-505 1385 L-383 1254 L-281 1357 L-405 1491 L-279 1624 Z " />
<glyph glyph-name="uni033E" unicode="&#x33e;" horiz-adv-x="0" d="M-661 1256 L-661 1117 C-516 1117 -426 1160 -426 1260 C-426 1356 -487 1434 -487 1502 C-487 1530 -466 1553 -428 1553 L-428 1692 C-556 1692 -656 1657 -656 1549 C-656 1458 -594 1365 -594 1311 C-594 1286 -603 1256 -661 1256 L-661 1256 Z " />
<glyph glyph-name="uni033F" unicode="&#x33f;" horiz-adv-x="0" d="M-105 1504 L-105 1653 L-978 1653 L-978 1504 L-105 1504 Z M-105 1787 L-105 1936 L-979 1936 L-979 1787 L-105 1787 Z " />
<glyph glyph-name="uni0340" unicode="&#x340;" horiz-adv-x="0" d="M253 1229 L53 1536 L-253 1536 L26 1229 L253 1229 Z " />
<glyph glyph-name="uni0341" unicode="&#x341;" horiz-adv-x="0" d="M-34 1536 L-234 1229 L-10 1229 L271 1536 L-34 1536 Z " />
<glyph glyph-name="uni0342" unicode="&#x342;" horiz-adv-x="0" d="M-181 1522 L-340 1533 C-340 1471 -376 1436 -421 1436 C-517 1436 -580 1523 -680 1523 C-806 1523 -897 1402 -897 1259 L-737 1251 C-737 1312 -702 1347 -658 1347 C-558 1347 -521 1260 -398 1260 C-273 1260 -181 1377 -181 1522 L-181 1522 Z " />
<glyph glyph-name="uni0343" unicode="&#x343;" horiz-adv-x="0" d="M-1137 1141 L-1137 1210 L-1344 1210 L-1344 1127 C-1344 1019 -1373 949 -1417 879 L-1280 804 C-1195 884 -1137 1020 -1137 1141 L-1137 1141 Z " />
<glyph glyph-name="uni0344" unicode="&#x344;" horiz-adv-x="0" d="M-837 1492 C-916 1492 -970 1438 -970 1368 C-970 1298 -916 1244 -837 1244 C-759 1244 -704 1298 -704 1368 C-704 1438 -759 1492 -837 1492 L-837 1492 Z M-247 1491 C-325 1491 -379 1437 -379 1367 C-379 1298 -325 1244 -247 1244 C-168 1244 -114 1298 -114 1367 C-114 1437 -168 1491 -247 1491 L-247 1491 Z M-582 1747 L-624 1420 L-479 1420 L-335 1747 L-582 1747 Z " />
<glyph glyph-name="uni0345" unicode="&#x345;" horiz-adv-x="0" d="M-464 -70 L-636 -70 L-636 -340 C-636 -472 -560 -526 -459 -526 C-424 -526 -397 -521 -375 -512 L-374 -398 C-384 -400 -398 -402 -414 -402 C-449 -402 -464 -386 -464 -337 L-464 -70 Z " />
<glyph glyph-name="uni0346" unicode="&#x346;" horiz-adv-x="0" d="M-205 1601 L-881 1601 L-881 1202 L-701 1202 L-701 1434 L-385 1434 L-385 1202 L-205 1202 L-205 1601 Z " />
<glyph glyph-name="uni0347" unicode="&#x347;" horiz-adv-x="0" d="M-291 -90 L-793 -90 L-793 -257 L-291 -257 L-291 -90 Z M-291 -357 L-793 -357 L-793 -524 L-291 -524 L-291 -357 Z " />
<glyph glyph-name="uni0348" unicode="&#x348;" horiz-adv-x="0" d="M-607 -506 L-607 -73 L-785 -73 L-785 -506 L-607 -506 Z M-283 -507 L-283 -74 L-461 -74 L-461 -507 L-283 -507 Z " />
<glyph glyph-name="uni0349" unicode="&#x349;" horiz-adv-x="0" d="M-315 -104 L-706 -104 L-706 -275 L-493 -275 L-493 -504 L-315 -504 L-315 -104 Z " />
<glyph glyph-name="uni034A" unicode="&#x34a;" horiz-adv-x="0" d="M-339 1533 C-339 1471 -375 1436 -420 1436 C-427 1436 -434 1436 -440 1437 C-424 1473 -398 1531 -398 1531 L-508 1591 C-508 1591 -536 1529 -557 1484 C-594 1504 -633 1523 -679 1523 C-805 1523 -896 1402 -896 1259 L-736 1251 C-736 1312 -701 1347 -657 1347 C-644 1347 -632 1346 -621 1343 C-643 1293 -673 1228 -673 1228 L-562 1168 L-508 1288 C-478 1272 -444 1260 -397 1260 C-272 1260 -180 1377 -180 1522 L-339 1533 Z " />
<glyph glyph-name="uni034B" unicode="&#x34b;" horiz-adv-x="0" d="M-561 1427 C-654 1427 -713 1369 -713 1292 C-713 1216 -654 1157 -561 1157 C-467 1157 -408 1216 -408 1292 C-408 1369 -467 1427 -561 1427 L-561 1427 Z M-206 1717 L-365 1728 C-365 1666 -401 1631 -446 1631 C-542 1631 -605 1718 -705 1718 C-831 1718 -923 1596 -923 1454 L-763 1445 C-763 1507 -727 1542 -683 1542 C-582 1542 -546 1454 -424 1454 C-298 1454 -206 1571 -206 1717 L-206 1717 Z M-561 2015 C-654 2015 -713 1957 -713 1880 C-713 1804 -654 1745 -561 1745 C-467 1745 -408 1804 -408 1880 C-408 1957 -467 2015 -561 2015 L-561 2015 Z " />
<glyph glyph-name="uni034C" unicode="&#x34c;" horiz-adv-x="0" d="M-178 1469 L-337 1478 C-337 1427 -373 1398 -418 1398 C-514 1398 -577 1470 -677 1470 C-803 1470 -895 1369 -895 1252 L-735 1244 C-735 1296 -699 1325 -655 1325 C-555 1325 -518 1251 -396 1251 C-270 1251 -178 1349 -178 1469 L-178 1469 Z M-178 1715 L-337 1725 C-337 1673 -373 1644 -418 1644 C-514 1644 -577 1716 -677 1716 C-803 1716 -895 1615 -895 1498 L-735 1490 C-735 1542 -699 1571 -655 1571 C-555 1571 -518 1497 -396 1497 C-270 1497 -178 1595 -178 1715 L-178 1715 Z " />
<glyph glyph-name="uni034D" unicode="&#x34d;" horiz-adv-x="0" d="M-317 -129 L-463 -129 L-319 -278 L-764 -278 L-620 -129 L-766 -129 L-966 -339 L-766 -551 L-620 -551 L-764 -402 L-319 -402 L-463 -551 L-317 -551 L-117 -339 L-317 -129 Z " />
<glyph glyph-name="uni034E" unicode="&#x34e;" horiz-adv-x="0" d="M-331 -282 L-542 -81 L-752 -282 L-752 -422 L-603 -282 L-603 -552 L-480 -552 L-480 -283 L-331 -422 L-331 -282 Z " />
<glyph glyph-name="uni034F" unicode="&#x34f;" horiz-adv-x="0" />
<glyph glyph-name="uni0350" unicode="&#x350;" horiz-adv-x="0" d="M-840 1770 L-840 1620 L-503 1495 L-457 1486 L-503 1476 L-840 1353 L-840 1204 L-262 1419 L-262 1555 L-840 1770 Z " />
<glyph glyph-name="uni0351" unicode="&#x351;" horiz-adv-x="0" d="M-632 1327 C-632 1217 -543 1138 -429 1138 L-429 1231 C-483 1231 -522 1270 -522 1327 C-522 1386 -483 1426 -429 1426 L-429 1521 C-543 1521 -632 1437 -632 1327 L-632 1327 Z " />
<glyph glyph-name="uni0352" unicode="&#x352;" horiz-adv-x="0" d="M-541 1435 C-636 1435 -694 1376 -694 1299 C-694 1222 -636 1164 -541 1164 C-447 1164 -390 1222 -390 1299 C-390 1376 -447 1435 -541 1435 L-541 1435 Z M-413 1463 L-216 1463 C-216 1636 -341 1757 -541 1757 C-741 1757 -867 1636 -867 1463 L-671 1463 C-671 1534 -636 1597 -541 1597 C-447 1597 -413 1534 -413 1463 L-413 1463 Z " />
<glyph glyph-name="uni0353" unicode="&#x353;" horiz-adv-x="0" d="M-290 -161 L-390 -60 L-510 -188 L-630 -58 L-730 -161 L-608 -293 L-731 -423 L-631 -525 L-512 -398 L-392 -527 L-291 -425 L-413 -293 L-290 -161 Z " />
<glyph glyph-name="uni0354" unicode="&#x354;" horiz-adv-x="0" d="M-285 -197 L-285 -64 L-789 -247 L-789 -369 L-285 -551 L-285 -419 L-577 -316 L-613 -309 L-577 -302 L-285 -197 Z " />
<glyph glyph-name="uni0355" unicode="&#x355;" horiz-adv-x="0" d="M-790 -64 L-790 -197 L-498 -302 L-462 -309 L-498 -316 L-790 -419 L-790 -551 L-286 -369 L-286 -247 L-790 -64 Z " />
<glyph glyph-name="uni0356" unicode="&#x356;" horiz-adv-x="0" d="M-456 -369 L-456 -247 L-960 -64 L-960 -197 L-668 -302 L-632 -309 L-668 -316 L-960 -419 L-960 -551 L-456 -369 Z M-170 -72 L-297 -72 L-483 -549 L-342 -549 L-241 -267 L-234 -238 L-228 -267 L-126 -549 L15 -549 L-170 -72 Z " />
<glyph glyph-name="uni0357" unicode="&#x357;" horiz-adv-x="0" d="M-641 1231 L-641 1138 C-527 1138 -437 1217 -437 1327 C-437 1437 -527 1521 -641 1521 L-641 1426 C-587 1426 -549 1386 -549 1327 C-549 1270 -587 1231 -641 1231 L-641 1231 Z " />
<glyph glyph-name="uni0358" unicode="&#x358;" horiz-adv-x="0" d="M-284 1453 C-379 1453 -439 1394 -439 1318 C-439 1241 -379 1183 -284 1183 C-188 1183 -127 1241 -127 1318 C-127 1394 -188 1453 -284 1453 L-284 1453 Z " />
<glyph glyph-name="uni0359" unicode="&#x359;" horiz-adv-x="0" d="M-606 -335 L-709 -480 L-632 -536 L-546 -387 L-461 -541 L-383 -483 L-482 -341 L-328 -293 L-357 -199 L-503 -264 L-493 -75 L-588 -75 L-579 -260 L-726 -195 L-756 -288 L-606 -335 Z " />
<glyph glyph-name="uni035A" unicode="&#x35a;" horiz-adv-x="0" d="M-362 -78 C-429 -78 -486 -105 -524 -147 C-563 -105 -620 -78 -686 -78 C-811 -78 -901 -170 -901 -282 C-901 -393 -811 -482 -686 -482 C-620 -482 -563 -456 -524 -415 C-486 -456 -429 -482 -362 -482 C-238 -482 -147 -393 -147 -282 C-147 -170 -238 -78 -362 -78 L-362 -78 Z M-686 -389 C-749 -389 -790 -340 -790 -282 C-790 -222 -749 -172 -686 -172 C-623 -172 -583 -222 -583 -282 C-583 -341 -623 -389 -686 -389 L-686 -389 Z M-362 -389 C-425 -389 -465 -340 -465 -282 C-465 -222 -425 -172 -362 -172 C-299 -172 -258 -222 -258 -282 C-258 -341 -299 -389 -362 -389 L-362 -389 Z " />
<glyph glyph-name="uni035B" unicode="&#x35b;" horiz-adv-x="0" d="M-493 1661 C-493 1661 -636 1661 -636 1661 L-744 1349 C-744 1349 -517 1349 -517 1349 L-573 1181 C-573 1181 -431 1181 -431 1181 L-323 1494 C-323 1494 -550 1494 -550 1494 L-493 1661 Z " />
<glyph glyph-name="uni035C" unicode="&#x35c;" horiz-adv-x="0" d="M711 -104 L514 -104 C453 -174 304 -296 16 -296 C-271 -296 -416 -174 -482 -104 L-678 -104 C-594 -277 -393 -457 16 -457 C426 -457 626 -277 711 -104 L711 -104 Z " />
<glyph glyph-name="uni035D" unicode="&#x35d;" horiz-adv-x="0" d="M707 1514 L510 1514 C449 1444 300 1322 12 1322 C-275 1322 -420 1444 -486 1514 L-682 1514 C-598 1341 -397 1161 12 1161 C422 1161 622 1341 707 1514 L707 1514 Z " />
<glyph glyph-name="uni035E" unicode="&#x35e;" horiz-adv-x="0" d="M569 1286 L569 1447 L-544 1447 L-544 1286 L569 1286 Z " />
<glyph glyph-name="uni035F" unicode="&#x35f;" horiz-adv-x="0" d="M573 -313 L573 -152 L-540 -152 L-540 -313 L573 -313 Z " />
<glyph glyph-name="uni0360" unicode="&#x360;" horiz-adv-x="0" d="M969 1483 L825 1528 C805 1455 736 1420 633 1420 C361 1420 -326 1504 -631 1504 C-805 1504 -914 1421 -945 1273 L-800 1231 C-772 1307 -697 1337 -606 1337 C-316 1337 283 1254 661 1254 C830 1254 951 1333 969 1483 L969 1483 Z " />
<glyph glyph-name="uni0361" unicode="&#x361;" horiz-adv-x="0" d="M510 1132 L707 1132 C622 1306 422 1485 12 1485 C-397 1485 -598 1306 -682 1132 L-486 1132 C-420 1203 -275 1325 12 1325 C300 1325 449 1202 510 1132 L510 1132 Z " />
<glyph glyph-name="uni0362" unicode="&#x362;" horiz-adv-x="0" d="M591 -129 L384 -129 L590 -279 L-708 -279 L-708 -401 L591 -401 L384 -552 L591 -552 L878 -340 L591 -129 Z " />
<glyph glyph-name="uni0363" unicode="&#x363;" horiz-adv-x="0" d="M-292 1202 C-305 1239 -312 1273 -312 1337 L-312 1565 C-312 1696 -402 1762 -526 1762 C-662 1762 -750 1687 -750 1585 L-602 1583 C-602 1626 -577 1646 -532 1646 C-485 1646 -463 1618 -463 1566 L-463 1533 L-530 1533 C-690 1533 -771 1467 -771 1356 C-771 1256 -702 1192 -598 1192 C-530 1192 -486 1223 -458 1260 C-454 1238 -449 1218 -443 1202 L-292 1202 Z M-556 1305 C-596 1305 -620 1329 -620 1363 C-620 1407 -593 1446 -529 1446 L-463 1446 L-463 1361 C-475 1333 -513 1305 -556 1305 L-556 1305 Z " />
<glyph glyph-name="uni0364" unicode="&#x364;" horiz-adv-x="0" d="M-291 1490 C-291 1652 -373 1759 -527 1759 C-679 1759 -775 1643 -775 1475 L-775 1455 C-775 1307 -679 1187 -512 1187 C-407 1187 -337 1237 -304 1287 L-376 1370 C-406 1328 -450 1310 -503 1310 C-573 1310 -614 1354 -622 1427 L-291 1427 L-291 1490 Z M-436 1526 L-621 1526 C-612 1592 -585 1637 -528 1637 C-464 1637 -436 1598 -436 1538 L-436 1526 Z " />
<glyph glyph-name="uni0365" unicode="&#x365;" horiz-adv-x="0" d="M-455 1201 L-455 1753 L-605 1753 L-605 1201 L-455 1201 Z M-531 1973 C-583 1973 -615 1940 -615 1894 C-615 1848 -583 1815 -531 1815 C-479 1815 -446 1848 -446 1894 C-446 1940 -479 1973 -531 1973 L-531 1973 Z " />
<glyph glyph-name="uni0366" unicode="&#x366;" horiz-adv-x="0" d="M-783 1467 C-783 1304 -689 1187 -531 1187 C-373 1187 -279 1304 -279 1467 L-279 1478 C-279 1642 -373 1759 -532 1759 C-689 1759 -783 1642 -783 1478 L-783 1467 Z M-430 1467 C-430 1376 -457 1310 -531 1310 C-607 1310 -633 1376 -633 1467 L-633 1478 C-633 1568 -606 1637 -532 1637 C-457 1637 -430 1568 -430 1478 L-430 1467 Z " />
<glyph glyph-name="uni0367" unicode="&#x367;" horiz-adv-x="0" d="M-454 1753 L-454 1362 C-471 1331 -499 1313 -542 1313 C-591 1313 -615 1346 -615 1419 L-615 1753 L-766 1753 L-766 1420 C-766 1257 -695 1191 -587 1191 C-521 1191 -472 1217 -439 1261 L-427 1201 L-302 1201 L-302 1753 L-454 1753 Z " />
<glyph glyph-name="uni0368" unicode="&#x368;" horiz-adv-x="0" d="M-771 1466 C-771 1309 -692 1187 -523 1187 C-399 1187 -302 1271 -301 1387 L-443 1387 C-447 1340 -475 1309 -526 1309 C-600 1309 -620 1378 -620 1466 L-620 1481 C-620 1565 -600 1637 -527 1637 C-469 1637 -444 1594 -443 1545 L-301 1545 C-303 1676 -390 1759 -525 1759 C-691 1759 -771 1636 -771 1481 L-771 1466 Z " />
<glyph glyph-name="uni0369" unicode="&#x369;" horiz-adv-x="0" d="M-444 1992 L-444 1705 C-476 1739 -518 1759 -572 1759 C-706 1759 -782 1648 -782 1481 L-782 1470 C-782 1309 -706 1190 -573 1190 C-512 1190 -467 1215 -434 1258 L-425 1201 L-294 1201 L-294 1992 L-444 1992 Z M-537 1312 C-604 1312 -632 1378 -632 1470 L-632 1481 C-632 1574 -603 1640 -536 1640 C-494 1640 -461 1617 -444 1577 L-444 1374 C-461 1335 -493 1312 -537 1312 L-537 1312 Z " />
<glyph glyph-name="uni036A" unicode="&#x36a;" horiz-adv-x="0" d="M-480 1759 C-537 1759 -582 1737 -615 1698 L-615 1992 L-766 1992 L-766 1201 L-615 1201 L-615 1593 C-599 1621 -572 1637 -532 1637 C-480 1637 -454 1610 -454 1518 L-454 1201 L-302 1201 L-302 1517 C-302 1690 -373 1759 -480 1759 L-480 1759 Z " />
<glyph glyph-name="uni036B" unicode="&#x36b;" horiz-adv-x="0" d="M-324 1759 C-398 1759 -451 1726 -484 1671 C-514 1732 -568 1759 -636 1759 C-702 1759 -751 1733 -784 1689 L-797 1753 L-922 1753 L-922 1201 L-771 1201 L-771 1584 C-755 1617 -726 1637 -682 1637 C-633 1637 -608 1605 -608 1532 L-608 1201 L-458 1201 L-458 1531 C-458 1548 -459 1565 -460 1580 C-445 1616 -416 1637 -369 1637 C-320 1637 -296 1605 -296 1532 L-296 1201 L-145 1201 L-145 1531 C-145 1694 -216 1759 -324 1759 L-324 1759 Z " />
<glyph glyph-name="uni036C" unicode="&#x36c;" horiz-adv-x="0" d="M-401 1759 C-451 1759 -491 1735 -520 1694 L-532 1753 L-657 1753 L-657 1201 L-506 1201 L-506 1573 C-488 1602 -457 1616 -416 1616 C-390 1616 -372 1611 -356 1604 L-356 1754 C-368 1757 -384 1759 -401 1759 L-401 1759 Z " />
<glyph glyph-name="uni036D" unicode="&#x36d;" horiz-adv-x="0" d="M-418 1646 L-418 1759 L-507 1759 L-507 1893 L-658 1893 L-658 1759 L-737 1759 L-737 1646 L-658 1646 L-658 1381 C-658 1248 -603 1194 -502 1194 C-467 1194 -440 1200 -418 1208 L-418 1322 C-426 1320 -442 1318 -459 1318 C-493 1318 -507 1334 -507 1383 L-507 1646 L-418 1646 Z " />
<glyph glyph-name="uni036E" unicode="&#x36e;" horiz-adv-x="0" d="M-443 1757 L-523 1417 L-532 1367 L-540 1417 L-623 1757 L-783 1757 L-605 1201 L-460 1201 L-283 1757 L-443 1757 Z " />
<glyph glyph-name="uni036F" unicode="&#x36f;" horiz-adv-x="0" d="M-512 1597 L-590 1757 L-755 1757 L-609 1484 L-762 1201 L-596 1201 L-511 1373 L-426 1201 L-260 1201 L-413 1484 L-265 1757 L-432 1757 L-512 1597 Z " />
<glyph glyph-name="uni037E" unicode="&#x37e;" horiz-adv-x="564" d="M292 1115 C195 1115 134 1049 134 964 C134 879 195 814 292 814 C389 814 450 879 450 964 C450 1049 389 1115 292 1115 L292 1115 Z M413 49 L414 243 L175 243 L175 35 C175 -108 122 -194 70 -284 L215 -361 C332 -264 413 -101 413 49 L413 49 Z " />
<glyph glyph-name="tonos" unicode="&#x384;" horiz-adv-x="681" d="M285 1601 L214 1259 L379 1259 L537 1601 L285 1601 Z " />
<glyph glyph-name="dieresistonos" unicode="&#x385;" horiz-adv-x="1092" d="M238 1492 C159 1492 105 1438 105 1368 C105 1298 159 1244 238 1244 C316 1244 371 1298 371 1368 C371 1438 316 1492 238 1492 L238 1492 Z M828 1491 C750 1491 696 1437 696 1367 C696 1298 750 1244 828 1244 C907 1244 961 1298 961 1367 C961 1437 907 1491 828 1491 L828 1491 Z M493 1747 L451 1420 L596 1420 L740 1747 L493 1747 Z " />
<glyph glyph-name="anoteleia" unicode="&#x387;" horiz-adv-x="607" d="M303 849 C208 849 149 784 149 698 C149 613 208 549 303 549 C398 549 458 613 458 698 C458 784 398 849 303 849 L303 849 Z " />
<glyph glyph-name="uni03F6" unicode="&#x3f6;" horiz-adv-x="894" d="M335 1096 L51 1096 L51 871 L335 871 C472 871 523 772 537 642 L197 642 L197 442 L537 442 C523 312 472 211 336 211 L50 211 L50 -14 L336 -14 C656 -14 815 220 815 527 L815 555 C815 862 655 1096 335 1096 L335 1096 Z " />
<glyph glyph-name="uni0482" unicode="&#x482;" horiz-adv-x="1243" d="M588 448 L780 810 L1055 640 L1129 765 L850 936 L1066 1342 L898 1342 L724 1014 L447 1185 L375 1057 L652 886 L461 524 L182 695 L112 569 L388 398 L174 0 L344 0 L516 320 L793 150 L864 276 L588 448 Z " />
<glyph glyph-name="uni1AB0" unicode="&#x1ab0;" horiz-adv-x="0" d="M-934 1246 L-791 1392 L-648 1246 L-412 1246 L-268 1392 L-125 1246 L91 1246 L91 1258 L-190 1536 L-348 1536 L-530 1351 L-712 1536 L-870 1536 L-1148 1261 L-1148 1246 L-934 1246 Z " />
<glyph glyph-name="uni1AB1" unicode="&#x1ab1;" horiz-adv-x="0" d="M-938 1485 C-1024 1485 -1076 1432 -1076 1361 C-1076 1292 -1024 1238 -938 1238 C-852 1238 -799 1292 -799 1361 C-799 1432 -852 1485 -938 1485 L-938 1485 Z M-540 1623 C-665 1623 -756 1530 -756 1419 C-756 1307 -665 1219 -540 1219 C-415 1219 -324 1307 -324 1419 C-324 1530 -415 1623 -540 1623 L-540 1623 Z M-148 1485 C-234 1485 -287 1431 -287 1361 C-287 1292 -234 1237 -148 1237 C-62 1237 -9 1292 -9 1361 C-9 1431 -62 1485 -148 1485 L-148 1485 Z M-540 1311 C-603 1311 -646 1361 -646 1419 C-646 1478 -603 1528 -540 1528 C-475 1528 -433 1478 -433 1419 C-433 1360 -475 1311 -540 1311 L-540 1311 Z " />
<glyph glyph-name="uni1AB2" unicode="&#x1ab2;" horiz-adv-x="0" d="M-320 1736 C-419 1736 -496 1673 -541 1600 C-586 1673 -663 1736 -763 1736 C-917 1736 -1011 1619 -1011 1462 L-1011 1435 C-1011 1279 -917 1163 -762 1163 C-663 1163 -587 1228 -542 1302 C-496 1228 -420 1163 -321 1163 C-166 1163 -72 1279 -72 1435 L-72 1462 C-72 1619 -166 1736 -320 1736 L-320 1736 Z M-612 1445 C-618 1417 -672 1283 -762 1283 C-837 1283 -868 1344 -868 1435 L-868 1462 C-868 1551 -837 1614 -763 1614 C-671 1614 -618 1486 -612 1460 L-612 1445 Z M-221 1435 C-221 1337 -253 1283 -321 1283 C-411 1283 -465 1417 -471 1445 L-471 1460 C-465 1486 -412 1614 -320 1614 C-251 1614 -221 1558 -221 1462 L-221 1435 Z " />
<glyph glyph-name="uni1AB3" unicode="&#x1ab3;" horiz-adv-x="0" d="M-456 1465 L-456 1870 L-626 1870 L-626 1464 L-830 1674 L-830 1462 L-542 1161 L-254 1462 L-254 1674 L-456 1465 Z " />
<glyph glyph-name="uni1AB4" unicode="&#x1ab4;" horiz-adv-x="0" d="M-837 1461 C-932 1461 -992 1402 -992 1326 C-992 1249 -932 1191 -837 1191 C-741 1191 -680 1249 -680 1326 C-680 1402 -741 1461 -837 1461 L-837 1461 Z M-337 1466 C-432 1466 -492 1407 -492 1331 C-492 1254 -432 1196 -337 1196 C-241 1196 -180 1254 -180 1331 C-180 1407 -241 1466 -337 1466 L-337 1466 Z M-591 1761 C-686 1761 -746 1702 -746 1626 C-746 1549 -686 1491 -591 1491 C-495 1491 -434 1549 -434 1626 C-434 1702 -495 1761 -591 1761 L-591 1761 Z " />
<glyph glyph-name="uni1AB5" unicode="&#x1ab5;" horiz-adv-x="0" d="M-751 -255 L-829 -134 L-994 -134 L-848 -340 L-1001 -553 L-835 -553 L-750 -424 L-665 -553 L-499 -553 L-652 -340 L-504 -134 L-671 -134 L-751 -255 Z M-175 -252 L-253 -131 L-418 -131 L-272 -337 L-425 -550 L-259 -550 L-174 -421 L-89 -550 L77 -550 L-76 -337 L72 -131 L-95 -131 L-175 -252 Z " />
<glyph glyph-name="uni1AB6" unicode="&#x1ab6;" horiz-adv-x="0" d="M-137 -111 C-241 -111 -270 -198 -344 -198 C-419 -198 -441 -111 -542 -111 C-642 -111 -664 -198 -738 -198 C-813 -198 -842 -111 -943 -111 C-1037 -111 -1117 -193 -1144 -305 L-1012 -354 C-997 -309 -974 -274 -936 -274 C-861 -274 -837 -361 -738 -361 C-641 -361 -617 -274 -542 -274 C-465 -274 -443 -361 -344 -361 C-245 -361 -223 -274 -147 -274 C-109 -274 -86 -310 -71 -354 L62 -305 C35 -194 -45 -111 -137 -111 L-137 -111 Z " />
<glyph glyph-name="uni1AB7" unicode="&#x1ab7;" horiz-adv-x="0" d="M-451 -100 L-634 -100 L-634 -281 C-634 -458 -546 -555 -390 -555 C-358 -555 -324 -552 -294 -543 L-293 -389 C-313 -393 -331 -395 -347 -395 C-406 -395 -451 -370 -451 -281 L-451 -100 Z " />
<glyph glyph-name="uni1AB8" unicode="&#x1ab8;" horiz-adv-x="0" d="M-651 -100 L-834 -100 L-834 -281 C-834 -458 -746 -555 -590 -555 C-558 -555 -524 -552 -494 -543 L-493 -389 C-513 -393 -531 -395 -547 -395 C-606 -395 -651 -370 -651 -281 L-651 -100 Z M-296 -100 L-479 -100 L-479 -281 C-479 -458 -391 -555 -235 -555 C-203 -555 -169 -552 -139 -543 L-138 -389 C-158 -393 -176 -395 -192 -395 C-251 -395 -296 -370 -296 -281 L-296 -100 Z " />
<glyph glyph-name="uni1AB9" unicode="&#x1ab9;" horiz-adv-x="0" d="M-517 -468 L-188 67 L-316 146 L-652 -394 L-517 -468 Z " />
<glyph glyph-name="uni1ABA" unicode="&#x1aba;" horiz-adv-x="0" d="M-175 68 L-302 146 L-522 -207 C-591 -209 -648 -268 -648 -342 C-648 -416 -589 -476 -518 -476 C-445 -476 -387 -416 -387 -342 C-387 -324 -390 -307 -396 -292 L-175 68 Z " />
<glyph glyph-name="uni1ABB" unicode="&#x1abb;" horiz-adv-x="0" d="M-1070 1500 C-1070 1381 -966 1308 -888 1286 L-872 1361 C-916 1383 -966 1420 -966 1501 C-966 1576 -918 1613 -872 1636 L-888 1712 C-966 1691 -1070 1616 -1070 1500 L-1070 1500 Z M-218 1361 L-202 1286 C-124 1308 -20 1381 -20 1500 C-20 1617 -124 1691 -202 1712 L-218 1636 C-172 1613 -124 1578 -124 1501 C-124 1419 -174 1383 -218 1361 L-218 1361 Z " />
<glyph glyph-name="uni1ABC" unicode="&#x1abc;" horiz-adv-x="0" d="M-1243 1500 C-1243 1381 -1139 1308 -1061 1286 L-1045 1361 C-1089 1383 -1139 1420 -1139 1501 C-1139 1576 -1091 1613 -1045 1636 L-1061 1712 C-1139 1691 -1243 1616 -1243 1500 L-1243 1500 Z M-1050 1500 C-1050 1381 -946 1308 -868 1286 L-852 1361 C-896 1383 -946 1420 -946 1501 C-946 1576 -897 1613 -852 1636 L-868 1712 C-946 1691 -1050 1616 -1050 1500 L-1050 1500 Z M-198 1361 L-182 1286 C-104 1308 -1 1381 -1 1500 C-1 1617 -104 1691 -182 1712 L-198 1636 C-152 1613 -104 1578 -104 1501 C-104 1419 -154 1383 -198 1361 L-198 1361 Z M-5 1361 L12 1286 C89 1308 193 1381 193 1500 C193 1617 89 1691 12 1712 L-5 1636 C41 1613 90 1578 90 1501 C90 1419 39 1383 -5 1361 L-5 1361 Z " />
<glyph glyph-name="uni1ABD" unicode="&#x1abd;" horiz-adv-x="0" d="M-1078 -328 C-1078 -447 -974 -520 -897 -542 L-880 -467 C-924 -445 -974 -409 -974 -327 C-974 -252 -926 -216 -880 -191 L-897 -117 C-974 -137 -1078 -212 -1078 -328 L-1078 -328 Z M-226 -467 L-210 -542 C-132 -520 -28 -447 -28 -328 C-28 -211 -132 -137 -210 -117 L-226 -191 C-180 -216 -132 -250 -132 -327 C-132 -409 -182 -445 -226 -467 L-226 -467 Z " />
<glyph glyph-name="uni1ABE" unicode="&#x1abe;" horiz-adv-x="0" d="M-1227 590 C-1227 471 -1123 398 -1045 376 L-1029 451 C-1073 473 -1123 509 -1123 591 C-1123 666 -1075 703 -1029 727 L-1045 802 C-1123 781 -1227 706 -1227 590 L-1227 590 Z M-22 451 L-5 376 C73 398 176 471 176 590 C176 707 73 781 -5 802 L-22 727 C25 703 73 668 73 591 C73 509 23 473 -22 451 L-22 451 Z " />
<glyph glyph-name="uni1DC0" unicode="&#x1dc0;" horiz-adv-x="0" d="M-916 1430 C-1010 1430 -1068 1371 -1068 1294 C-1068 1217 -1010 1159 -916 1159 C-822 1159 -764 1217 -764 1294 C-764 1371 -822 1430 -916 1430 L-916 1430 Z M-362 1228 L-549 1535 L-852 1535 L-586 1228 L-362 1228 Z M-222 1530 C-316 1530 -374 1471 -374 1394 C-374 1318 -316 1259 -222 1259 C-129 1259 -70 1318 -70 1394 C-70 1471 -129 1530 -222 1530 L-222 1530 Z " />
<glyph glyph-name="uni1DC1" unicode="&#x1dc1;" horiz-adv-x="0" d="M-900 1530 C-993 1530 -1052 1471 -1052 1394 C-1052 1318 -993 1259 -900 1259 C-805 1259 -747 1318 -747 1394 C-747 1471 -805 1530 -900 1530 L-900 1530 Z M-567 1535 L-754 1228 L-534 1228 L-266 1535 L-567 1535 Z M-204 1430 C-299 1430 -357 1371 -357 1294 C-357 1217 -299 1159 -204 1159 C-111 1159 -53 1217 -53 1294 C-53 1371 -111 1430 -204 1430 L-204 1430 Z " />
<glyph glyph-name="uni1DC2" unicode="&#x1dc2;" horiz-adv-x="0" d="M-517 -75 C-580 -75 -654 -94 -711 -130 L-659 -214 C-622 -193 -576 -178 -537 -178 C-522 -178 -507 -181 -507 -198 C-507 -219 -657 -234 -657 -286 C-657 -348 -519 -339 -519 -360 C-519 -380 -656 -374 -656 -438 C-656 -496 -565 -541 -422 -555 L-402 -462 C-476 -455 -511 -443 -511 -432 C-511 -410 -370 -417 -370 -358 C-370 -288 -510 -298 -510 -275 C-510 -252 -380 -253 -380 -178 C-380 -119 -431 -75 -517 -75 L-517 -75 Z " />
<glyph glyph-name="uni1DC3" unicode="&#x1dc3;" horiz-adv-x="0" d="M-215 1592 L-529 1396 L-689 1492 L-779 1337 L-527 1186 L-124 1437 L-215 1592 Z " />
<glyph glyph-name="uni1DC5" unicode="&#x1dc5;" horiz-adv-x="0" d="M-936 1535 L-690 1228 L-192 1228 L-192 1391 L-577 1391 L-649 1535 L-936 1535 Z " />
<glyph glyph-name="uni1DC6" unicode="&#x1dc6;" horiz-adv-x="0" d="M-826 1535 L-826 1373 L-454 1373 L-334 1228 L-110 1228 L-298 1535 L-826 1535 Z " />
<glyph glyph-name="uni1DC7" unicode="&#x1dc7;" horiz-adv-x="0" d="M-693 1535 L-880 1228 L-656 1228 L-536 1373 L-174 1373 L-174 1535 L-693 1535 Z " />
<glyph glyph-name="uni1DC8" unicode="&#x1dc8;" horiz-adv-x="0" d="M-956 1535 L-764 1228 L-490 1228 L-382 1390 L-272 1228 L-79 1228 L-207 1535 L-537 1535 L-622 1374 L-706 1535 L-956 1535 Z " />
<glyph glyph-name="uni1DC9" unicode="&#x1dc9;" horiz-adv-x="0" d="M-781 1535 L-910 1228 L-723 1228 L-612 1390 L-499 1228 L-223 1228 L-30 1535 L-283 1535 L-365 1375 L-451 1535 L-781 1535 Z " />
<glyph glyph-name="uni1DCA" unicode="&#x1dca;" horiz-adv-x="0" d="M-402 -121 C-452 -121 -493 -145 -522 -186 L-534 -127 L-659 -127 L-659 -550 L-507 -550 L-507 -307 C-489 -278 -458 -264 -418 -264 C-391 -264 -373 -269 -357 -276 L-357 -127 C-369 -123 -385 -121 -402 -121 L-402 -121 Z " />
<glyph glyph-name="uni1DCB" unicode="&#x1dcb;" horiz-adv-x="0" d="M-523 1363 L81 1363 L81 1525 L-670 1525 C-670 1455 -704 1391 -798 1391 C-893 1391 -928 1455 -928 1525 L-1125 1525 C-1125 1351 -999 1230 -798 1230 C-674 1230 -578 1281 -523 1363 L-523 1363 Z " />
<glyph glyph-name="uni1DCC" unicode="&#x1dcc;" horiz-adv-x="0" d="M-558 1363 C-502 1281 -405 1230 -280 1230 C-80 1230 45 1351 45 1525 L-152 1525 C-152 1455 -186 1391 -280 1391 C-375 1391 -410 1455 -410 1525 L-1158 1525 L-1158 1363 L-558 1363 Z " />
<glyph glyph-name="uni1DCD" unicode="&#x1dcd;" horiz-adv-x="0" d="M818 1275 L90 1516 L-66 1516 L-791 1278 L-791 1252 L-601 1180 L12 1393 L626 1180 L818 1252 L818 1275 Z " />
<glyph glyph-name="uni1DCE" unicode="&#x1dce;" horiz-adv-x="0" d="M-703 1051 L-569 993 C-398 1069 -348 1167 -348 1266 C-348 1402 -444 1473 -563 1473 C-641 1473 -690 1449 -722 1429 L-696 1276 C-679 1285 -655 1297 -619 1297 C-573 1297 -556 1269 -556 1231 C-556 1159 -611 1108 -703 1051 L-703 1051 Z " />
<glyph glyph-name="uni1DCF" unicode="&#x1dcf;" horiz-adv-x="0" d="M-415 -277 C-415 -277 -452 -277 -474 -277 L-575 -277 L-527 -112 L-684 -112 L-764 -389 L-507 -389 L-555 -555 L-399 -555 L-318 -277 L-415 -277 Z " />
<glyph glyph-name="uni1DD0" unicode="&#x1dd0;" horiz-adv-x="0" d="M-485 -61 L-646 -61 C-646 -61 -787 -430 -787 -430 L-675 -481 C-619 -442 -567 -424 -515 -424 C-428 -424 -348 -499 -242 -499 C-122 -499 -67 -405 -57 -289 L-181 -247 C-196 -303 -232 -325 -266 -325 C-327 -325 -376 -259 -447 -259 C-485 -259 -522 -269 -573 -301 L-485 -61 Z " />
<glyph glyph-name="uni1DD1" unicode="&#x1dd1;" horiz-adv-x="0" d="M-373 1325 C-373 1281 -392 1259 -424 1259 C-451 1259 -470 1276 -488 1352 C-512 1444 -559 1506 -654 1506 C-748 1506 -820 1439 -820 1329 C-820 1216 -747 1143 -647 1143 L-647 1262 C-687 1264 -712 1283 -712 1329 C-712 1367 -692 1389 -660 1389 C-633 1389 -614 1374 -596 1303 C-571 1198 -526 1142 -429 1142 C-328 1142 -264 1217 -264 1328 C-264 1452 -358 1520 -446 1520 L-446 1408 C-392 1405 -373 1369 -373 1325 L-373 1325 Z " />
<glyph glyph-name="uni1DD2" unicode="&#x1dd2;" horiz-adv-x="0" d="M-821 1657 C-821 1491 -701 1426 -578 1426 C-516 1426 -476 1441 -443 1464 L-467 1555 C-492 1543 -518 1536 -558 1536 C-624 1536 -671 1569 -671 1663 C-671 1750 -616 1798 -540 1798 C-463 1798 -402 1738 -402 1601 C-402 1373 -558 1310 -679 1266 L-628 1150 C-462 1196 -251 1295 -251 1598 C-251 1798 -376 1914 -550 1914 C-701 1914 -821 1810 -821 1657 L-821 1657 Z " />
<glyph glyph-name="uni1DD3" unicode="&#x1dd3;" horiz-adv-x="0" d="M-336 1387 C-336 1335 -357 1307 -404 1307 C-450 1307 -479 1341 -479 1387 L-620 1387 C-620 1335 -641 1307 -688 1307 C-735 1307 -760 1341 -760 1387 L-907 1387 C-907 1280 -819 1192 -688 1192 C-624 1192 -575 1208 -543 1240 C-510 1210 -464 1192 -404 1192 C-275 1192 -186 1256 -186 1387 L-336 1387 Z " />
<glyph glyph-name="uni1DD4" unicode="&#x1dd4;" horiz-adv-x="0" d="M-127 1490 C-127 1652 -209 1759 -363 1759 C-425 1759 -477 1740 -518 1706 C-556 1743 -613 1762 -678 1762 C-814 1762 -902 1687 -902 1585 L-754 1583 C-754 1626 -730 1646 -684 1646 C-637 1646 -615 1618 -615 1566 L-615 1533 L-682 1533 C-842 1533 -923 1467 -923 1356 C-923 1256 -854 1192 -750 1192 C-655 1192 -601 1253 -575 1311 C-533 1236 -455 1187 -348 1187 C-243 1187 -173 1237 -140 1287 L-212 1370 C-242 1328 -286 1310 -339 1310 C-409 1310 -450 1354 -458 1427 L-127 1427 L-127 1490 Z M-709 1305 C-748 1305 -772 1329 -772 1363 C-772 1407 -745 1446 -681 1446 L-611 1446 C-610 1425 -608 1404 -603 1384 C-614 1342 -657 1305 -709 1305 L-709 1305 Z M-272 1526 L-457 1526 C-448 1592 -421 1637 -364 1637 C-300 1637 -272 1598 -272 1538 L-272 1526 Z " />
<glyph glyph-name="uni1DD5" unicode="&#x1dd5;" horiz-adv-x="0" d="M-369 1759 C-433 1759 -487 1740 -528 1705 C-566 1743 -623 1762 -689 1762 C-825 1762 -913 1687 -913 1585 L-765 1583 C-765 1626 -740 1646 -695 1646 C-648 1646 -626 1618 -626 1566 L-626 1533 L-693 1533 C-853 1533 -934 1467 -934 1356 C-934 1256 -864 1192 -761 1192 C-665 1192 -611 1255 -585 1313 C-544 1235 -469 1187 -368 1187 C-210 1187 -116 1304 -116 1467 L-116 1478 C-116 1642 -210 1759 -369 1759 L-369 1759 Z M-719 1305 C-759 1305 -783 1329 -783 1363 C-783 1407 -756 1446 -692 1446 L-619 1446 C-618 1425 -616 1404 -611 1384 C-627 1340 -668 1305 -719 1305 L-719 1305 Z M-267 1467 C-267 1376 -294 1310 -368 1310 C-444 1310 -470 1376 -470 1467 L-470 1478 C-470 1568 -443 1637 -369 1637 C-294 1637 -267 1568 -267 1478 L-267 1467 Z " />
<glyph glyph-name="uni1DD6" unicode="&#x1dd6;" horiz-adv-x="0" d="M-352 1758 L-484 1395 L-484 1565 C-484 1696 -574 1762 -698 1762 C-834 1762 -922 1687 -922 1585 L-774 1583 C-774 1626 -749 1646 -704 1646 C-657 1646 -635 1618 -635 1566 L-635 1533 L-702 1533 C-862 1533 -943 1467 -943 1356 C-943 1256 -874 1192 -770 1192 C-702 1192 -658 1223 -630 1260 C-626 1238 -621 1218 -615 1202 L-411 1202 L-192 1758 L-352 1758 Z M-728 1305 C-768 1305 -792 1329 -792 1363 C-792 1407 -765 1446 -701 1446 L-635 1446 L-635 1361 C-647 1333 -685 1305 -728 1305 L-728 1305 Z " />
<glyph glyph-name="uni1DD7" unicode="&#x1dd7;" horiz-adv-x="0" d="M-522 1309 C-596 1309 -616 1378 -616 1466 L-616 1481 C-616 1565 -596 1637 -523 1637 C-465 1637 -440 1594 -439 1545 L-297 1545 C-299 1676 -386 1759 -521 1759 C-687 1759 -767 1636 -767 1481 L-767 1466 C-767 1330 -708 1221 -583 1193 L-598 1122 C-553 1119 -532 1112 -532 1084 C-532 1055 -551 1044 -584 1044 L-580 958 C-465 959 -407 1007 -407 1079 C-407 1137 -441 1159 -481 1167 L-477 1190 C-374 1207 -298 1284 -297 1387 L-439 1387 C-443 1340 -471 1309 -522 1309 L-522 1309 Z " />
<glyph glyph-name="uni1DD8" unicode="&#x1dd8;" horiz-adv-x="0" d="M-605 1982 L-653 1867 C-568 1839 -479 1777 -442 1662 C-476 1684 -517 1696 -561 1696 C-708 1696 -807 1595 -807 1442 C-807 1303 -698 1193 -543 1193 C-394 1193 -275 1319 -275 1504 L-275 1542 C-275 1773 -424 1937 -605 1982 L-605 1982 Z M-542 1314 C-616 1314 -656 1369 -656 1442 C-656 1526 -619 1581 -542 1581 C-483 1581 -444 1562 -425 1539 L-425 1504 C-425 1393 -469 1314 -542 1314 L-542 1314 Z " />
<glyph glyph-name="uni1DD9" unicode="&#x1dd9;" horiz-adv-x="0" d="M-392 1855 L-303 1907 L-341 1964 L-445 1904 C-492 1941 -547 1968 -605 1982 L-653 1867 C-626 1858 -599 1846 -573 1830 L-659 1780 L-620 1724 L-516 1784 C-485 1752 -458 1712 -442 1662 C-476 1684 -517 1696 -561 1696 C-708 1696 -807 1595 -807 1442 C-807 1303 -698 1193 -543 1193 C-394 1193 -275 1319 -275 1504 L-275 1542 C-275 1670 -321 1777 -392 1855 L-392 1855 Z M-542 1314 C-616 1314 -656 1369 -656 1442 C-656 1526 -619 1581 -542 1581 C-483 1581 -444 1562 -425 1539 L-425 1504 C-425 1393 -469 1314 -542 1314 L-542 1314 Z " />
<glyph glyph-name="uni1DDA" unicode="&#x1dda;" horiz-adv-x="0" d="M-422 1757 L-430 1704 C-461 1744 -505 1768 -568 1768 C-700 1768 -789 1654 -789 1486 L-789 1475 C-789 1315 -699 1195 -569 1195 C-514 1195 -472 1216 -441 1251 L-441 1224 C-441 1145 -486 1106 -559 1106 C-609 1106 -657 1131 -691 1170 L-758 1075 C-711 1018 -623 988 -552 988 C-405 988 -291 1068 -291 1224 L-291 1757 L-422 1757 Z M-533 1318 C-608 1318 -638 1384 -638 1475 L-638 1486 C-638 1580 -605 1646 -532 1646 C-487 1646 -458 1628 -441 1595 L-441 1369 C-458 1337 -486 1318 -533 1318 L-533 1318 Z " />
<glyph glyph-name="uni1DDB" unicode="&#x1ddb;" horiz-adv-x="0" d="M-801 1434 C-801 1290 -691 1191 -537 1191 C-397 1191 -315 1241 -283 1281 L-283 1520 L-538 1520 L-538 1415 L-433 1415 L-433 1335 C-449 1324 -474 1312 -537 1312 C-615 1312 -651 1359 -651 1439 L-651 1552 C-651 1634 -614 1680 -543 1680 C-481 1680 -454 1659 -445 1607 L-298 1608 C-311 1735 -396 1801 -543 1801 C-691 1801 -801 1703 -801 1558 L-801 1434 Z " />
<glyph glyph-name="uni1DDC" unicode="&#x1ddc;" horiz-adv-x="0" d="M-430 1201 L-258 1201 L-467 1530 L-288 1753 L-456 1753 L-584 1585 L-611 1550 L-611 1997 L-762 1997 L-762 1201 L-611 1201 L-611 1373 L-561 1425 L-430 1201 Z " />
<glyph glyph-name="uni1DDD" unicode="&#x1ddd;" horiz-adv-x="0" d="M-466 1992 L-617 1992 L-617 1201 L-466 1201 L-466 1992 Z " />
<glyph glyph-name="uni1DDE" unicode="&#x1dde;" horiz-adv-x="0" d="M-556 1323 L-556 1796 L-707 1796 L-707 1201 L-321 1201 L-321 1323 L-556 1323 Z " />
<glyph glyph-name="uni1DDF" unicode="&#x1ddf;" horiz-adv-x="0" d="M-221 1796 L-407 1796 L-544 1373 L-681 1796 L-866 1796 L-866 1201 L-716 1201 L-716 1541 L-599 1201 L-490 1201 L-371 1545 L-371 1201 L-221 1201 L-221 1796 Z " />
<glyph glyph-name="uni1DE0" unicode="&#x1de0;" horiz-adv-x="0" d="M-510 1763 C-576 1763 -625 1737 -658 1693 L-670 1753 L-795 1753 L-795 1201 L-643 1201 L-643 1592 C-626 1623 -598 1641 -555 1641 C-506 1641 -482 1608 -482 1535 L-482 1201 L-331 1201 L-331 1534 C-331 1697 -402 1763 -510 1763 L-510 1763 Z " />
<glyph glyph-name="uni1DE1" unicode="&#x1de1;" horiz-adv-x="0" d="M-435 1797 L-435 1436 L-662 1797 L-812 1797 L-812 1202 L-662 1202 L-662 1561 L-435 1202 L-284 1202 L-284 1797 L-435 1797 Z " />
<glyph glyph-name="uni1DE2" unicode="&#x1de2;" horiz-adv-x="0" d="M-317 1292 L-317 1331 C-317 1396 -341 1448 -410 1471 C-353 1501 -322 1555 -322 1618 C-322 1728 -410 1797 -549 1797 L-785 1797 L-785 1202 L-634 1202 L-634 1408 L-554 1408 C-498 1408 -468 1387 -468 1331 L-468 1293 C-468 1279 -468 1218 -455 1202 L-300 1202 L-300 1210 C-314 1226 -317 1280 -317 1292 L-317 1292 Z M-634 1530 L-634 1675 L-549 1675 C-504 1675 -473 1646 -473 1606 C-473 1559 -504 1530 -549 1530 L-634 1530 Z " />
<glyph glyph-name="uni1DE3" unicode="&#x1de3;" horiz-adv-x="0" d="M-445 1416 C-383 1452 -340 1500 -340 1574 C-340 1687 -425 1755 -530 1755 C-613 1755 -662 1728 -720 1689 L-650 1595 C-613 1618 -584 1633 -547 1633 C-510 1633 -489 1610 -489 1572 C-489 1521 -530 1488 -617 1453 L-484 1201 L-331 1201 L-331 1209 L-445 1416 Z " />
<glyph glyph-name="uni1DE4" unicode="&#x1de4;" horiz-adv-x="0" d="M-572 1424 C-485 1405 -464 1381 -464 1352 C-464 1318 -488 1296 -539 1296 C-589 1296 -634 1315 -635 1373 L-776 1373 C-776 1284 -693 1189 -542 1189 C-411 1189 -317 1257 -317 1357 C-317 1457 -387 1501 -515 1530 C-591 1546 -613 1569 -613 1598 C-613 1633 -586 1654 -546 1654 C-490 1654 -470 1628 -466 1585 L-319 1585 C-319 1687 -410 1761 -546 1761 C-676 1761 -758 1686 -758 1592 C-758 1494 -677 1448 -572 1424 L-572 1424 Z " />
<glyph glyph-name="uni1DE5" unicode="&#x1de5;" horiz-adv-x="0" d="M-622 1201 L-471 1201 L-471 1811 C-471 1861 -440 1886 -396 1886 C-378 1886 -365 1885 -354 1880 L-349 1997 C-372 2003 -397 2008 -423 2008 C-539 2008 -622 1940 -622 1811 L-622 1201 Z " />
<glyph glyph-name="uni1DE6" unicode="&#x1de6;" horiz-adv-x="0" d="M-575 1324 L-333 1661 L-333 1753 L-753 1753 L-753 1631 L-515 1631 L-760 1296 L-760 1201 L-325 1201 L-325 1324 L-575 1324 Z " />
<glyph glyph-name="uni1DE7" unicode="&#x1de7;" horiz-adv-x="0" d="M-284 1314 C-286 1313 -289 1312 -294 1312 C-314 1312 -328 1330 -328 1378 L-328 1754 L-459 1754 L-469 1689 C-499 1736 -541 1764 -598 1764 C-734 1764 -812 1644 -812 1474 L-812 1463 C-812 1303 -733 1191 -599 1191 C-536 1191 -492 1222 -462 1273 C-441 1217 -400 1191 -343 1191 C-317 1191 -294 1193 -272 1203 L-284 1314 Z M-563 1313 C-634 1313 -661 1373 -661 1463 L-661 1474 C-661 1570 -634 1642 -562 1642 C-523 1642 -496 1623 -478 1589 L-478 1378 L-478 1360 C-495 1330 -522 1313 -563 1313 L-563 1313 Z " />
<glyph glyph-name="uni1DE8" unicode="&#x1de8;" horiz-adv-x="0" d="M-509 1759 C-562 1759 -603 1740 -635 1706 L-635 1992 L-787 1992 L-787 1201 L-656 1201 L-646 1257 C-613 1215 -568 1190 -508 1190 C-375 1190 -298 1309 -298 1470 L-298 1481 C-298 1648 -374 1759 -509 1759 L-509 1759 Z M-448 1470 C-448 1378 -476 1312 -544 1312 C-588 1312 -618 1335 -635 1375 L-635 1576 C-618 1617 -587 1640 -545 1640 C-478 1640 -448 1574 -448 1481 L-448 1470 Z " />
<glyph glyph-name="uni1DE9" unicode="&#x1de9;" horiz-adv-x="0" d="M-415 1595 C-356 1627 -320 1685 -320 1757 C-320 1884 -415 1954 -552 1954 C-680 1954 -798 1872 -798 1721 L-798 994 L-647 994 L-647 1228 C-607 1203 -558 1191 -513 1191 C-372 1191 -286 1271 -286 1412 C-286 1501 -333 1566 -415 1595 L-415 1595 Z M-543 1311 C-588 1311 -623 1323 -647 1342 L-647 1721 C-647 1797 -603 1833 -553 1833 C-497 1833 -466 1793 -466 1743 C-466 1678 -490 1640 -553 1640 L-586 1640 L-586 1530 L-539 1530 C-476 1530 -437 1496 -437 1414 C-437 1353 -474 1311 -543 1311 L-543 1311 Z " />
<glyph glyph-name="uni1DEA" unicode="&#x1dea;" horiz-adv-x="0" d="M-563 1759 C-669 1759 -738 1710 -771 1660 L-699 1577 C-669 1619 -625 1637 -573 1637 C-503 1637 -461 1593 -453 1520 L-784 1520 L-784 1457 C-784 1294 -703 1187 -548 1187 C-396 1187 -300 1303 -300 1472 L-300 1492 C-300 1640 -396 1759 -563 1759 L-563 1759 Z M-548 1309 C-611 1309 -639 1349 -639 1409 L-639 1420 L-454 1420 C-463 1354 -490 1309 -548 1309 L-548 1309 Z " />
<glyph glyph-name="uni1DEB" unicode="&#x1deb;" horiz-adv-x="0" d="M-392 1886 C-374 1886 -361 1885 -350 1880 L-345 1997 C-368 2003 -393 2008 -419 2008 C-535 2008 -618 1940 -618 1811 L-618 1759 L-707 1759 L-707 1646 L-618 1646 L-618 1201 L-467 1201 L-467 1646 L-388 1646 L-388 1759 L-467 1759 L-467 1811 C-467 1861 -436 1886 -392 1886 L-392 1886 Z " />
<glyph glyph-name="uni1DEC" unicode="&#x1dec;" horiz-adv-x="0" d="M-462 1544 L-462 1614 L-460 1614 C-399 1614 -356 1668 -356 1731 L-431 1754 C-431 1727 -444 1705 -462 1699 L-462 1992 L-613 1992 L-613 1741 C-618 1742 -622 1742 -627 1742 C-688 1742 -730 1686 -730 1624 L-656 1603 C-656 1634 -639 1659 -615 1659 L-613 1659 L-613 1586 C-618 1587 -622 1587 -627 1587 C-688 1587 -730 1531 -730 1469 L-656 1448 C-656 1479 -639 1504 -615 1504 L-613 1504 L-613 1201 L-462 1201 L-462 1459 L-460 1459 C-399 1459 -356 1514 -356 1576 L-431 1599 C-431 1572 -444 1550 -462 1544 L-462 1544 Z " />
<glyph glyph-name="uni1DED" unicode="&#x1ded;" horiz-adv-x="0" d="M-537 1759 C-694 1759 -788 1642 -788 1478 L-788 1467 C-788 1390 -767 1323 -728 1274 L-852 1069 L-733 1000 L-614 1198 C-590 1191 -564 1187 -536 1187 C-378 1187 -284 1304 -284 1467 L-284 1478 C-284 1642 -378 1759 -537 1759 L-537 1759 Z M-435 1467 C-435 1376 -462 1310 -536 1310 C-612 1310 -638 1376 -638 1467 L-638 1478 C-638 1568 -611 1637 -537 1637 C-462 1637 -435 1568 -435 1478 L-435 1467 Z " />
<glyph glyph-name="uni1DEE" unicode="&#x1dee;" horiz-adv-x="0" d="M-527 1760 C-588 1760 -633 1735 -666 1692 L-675 1749 L-806 1749 L-806 958 L-656 958 L-656 1245 C-624 1211 -582 1191 -528 1191 C-394 1191 -318 1302 -318 1469 L-318 1480 C-318 1641 -394 1760 -527 1760 L-527 1760 Z M-468 1469 C-468 1376 -497 1310 -564 1310 C-606 1310 -639 1333 -656 1373 L-656 1576 C-639 1615 -607 1638 -563 1638 C-496 1638 -468 1572 -468 1480 L-468 1469 Z " />
<glyph glyph-name="uni1DEF" unicode="&#x1def;" horiz-adv-x="0" d="M-422 2008 C-538 2008 -620 1940 -620 1811 L-620 1150 C-620 1100 -651 1076 -695 1076 C-713 1076 -725 1077 -736 1081 L-742 964 C-717 958 -693 953 -668 953 C-552 953 -469 1022 -469 1150 L-469 1811 C-469 1861 -439 1886 -394 1886 C-377 1886 -364 1885 -352 1880 L-347 1997 C-371 2003 -395 2008 -422 2008 L-422 2008 Z " />
<glyph glyph-name="uni1DF0" unicode="&#x1df0;" horiz-adv-x="0" d="M-458 1753 L-458 1362 C-475 1331 -503 1313 -546 1313 C-595 1313 -619 1346 -619 1419 L-619 1753 L-770 1753 L-770 1420 C-770 1357 -760 1309 -741 1273 L-864 1069 L-745 1000 L-628 1194 C-616 1192 -604 1191 -591 1191 C-525 1191 -476 1217 -443 1261 L-431 1201 L-306 1201 L-306 1753 L-458 1753 Z " />
<glyph glyph-name="uni1DF1" unicode="&#x1df1;" horiz-adv-x="0" d="M-331 1753 L-394 1409 L-484 1753 L-600 1753 L-689 1410 L-752 1753 L-898 1753 L-764 1201 L-641 1201 L-545 1552 L-542 1564 L-539 1551 L-443 1201 L-319 1201 L-185 1753 L-331 1753 Z " />
<glyph glyph-name="uni1DF2" unicode="&#x1df2;" horiz-adv-x="0" d="M-288 1202 C-301 1239 -308 1273 -308 1337 L-308 1565 C-308 1696 -398 1762 -522 1762 C-658 1762 -746 1687 -746 1585 L-598 1583 C-598 1626 -573 1646 -528 1646 C-481 1646 -459 1618 -459 1566 L-459 1533 L-526 1533 C-686 1533 -767 1467 -767 1356 C-767 1256 -698 1192 -594 1192 C-526 1192 -482 1223 -454 1260 C-450 1238 -445 1218 -439 1202 L-288 1202 Z M-664 1815 C-612 1815 -580 1848 -580 1894 C-580 1940 -612 1973 -664 1973 C-716 1973 -748 1940 -748 1894 C-748 1848 -716 1815 -664 1815 L-664 1815 Z M-409 1815 C-357 1815 -325 1848 -325 1894 C-325 1940 -357 1973 -409 1973 C-461 1973 -493 1940 -493 1894 C-493 1848 -461 1815 -409 1815 L-409 1815 Z M-552 1305 C-592 1305 -616 1329 -616 1363 C-616 1407 -589 1446 -525 1446 L-459 1446 L-459 1361 C-471 1333 -509 1305 -552 1305 L-552 1305 Z " />
<glyph glyph-name="uni1DF3" unicode="&#x1df3;" horiz-adv-x="0" d="M-794 1467 C-794 1304 -700 1187 -542 1187 C-383 1187 -289 1304 -289 1467 L-289 1478 C-289 1642 -383 1759 -542 1759 C-700 1759 -794 1642 -794 1478 L-794 1467 Z M-669 1973 C-721 1973 -753 1940 -753 1894 C-753 1848 -721 1815 -669 1815 C-618 1815 -586 1848 -586 1894 C-586 1940 -618 1973 -669 1973 L-669 1973 Z M-414 1973 C-467 1973 -498 1940 -498 1894 C-498 1848 -467 1815 -414 1815 C-362 1815 -330 1848 -330 1894 C-330 1940 -362 1973 -414 1973 L-414 1973 Z M-440 1467 C-440 1376 -467 1310 -542 1310 C-617 1310 -643 1376 -643 1467 L-643 1478 C-643 1568 -616 1637 -542 1637 C-467 1637 -440 1568 -440 1478 L-440 1467 Z " />
<glyph glyph-name="uni1DF4" unicode="&#x1df4;" horiz-adv-x="0" d="M-458 1753 L-458 1362 C-475 1331 -503 1313 -546 1313 C-595 1313 -619 1346 -619 1419 L-619 1753 L-770 1753 L-770 1420 C-770 1257 -699 1191 -591 1191 C-525 1191 -476 1217 -443 1261 L-431 1201 L-306 1201 L-306 1753 L-458 1753 Z M-672 1815 C-619 1815 -587 1848 -587 1894 C-587 1940 -619 1973 -672 1973 C-723 1973 -755 1940 -755 1894 C-755 1848 -723 1815 -672 1815 L-672 1815 Z M-416 1815 C-364 1815 -331 1848 -331 1894 C-331 1940 -364 1973 -416 1973 C-467 1973 -500 1940 -500 1894 C-500 1848 -467 1815 -416 1815 L-416 1815 Z " />
<glyph glyph-name="uni1DF5" unicode="&#x1df5;" horiz-adv-x="0" d="M-450 1361 L-450 1595 L-630 1595 L-630 1361 L-762 1361 L-762 1187 L-318 1187 L-318 1361 L-450 1361 Z " />
<glyph glyph-name="uni1DFC" unicode="&#x1dfc;" horiz-adv-x="0" d="M498 -440 L695 -440 C611 -266 410 -87 1 -87 C-408 -87 -609 -266 -694 -440 L-497 -440 C-431 -369 -287 -247 1 -247 C288 -247 437 -369 498 -440 L498 -440 Z " />
<glyph glyph-name="uni1DFD" unicode="&#x1dfd;" horiz-adv-x="0" d="M-178 -53 L-337 -44 C-337 -96 -374 -124 -418 -124 C-514 -124 -578 -52 -677 -52 C-804 -52 -895 -153 -895 -270 L-735 -278 C-735 -227 -700 -198 -655 -198 C-555 -198 -518 -271 -396 -271 C-270 -271 -178 -174 -178 -53 L-178 -53 Z M-178 -299 L-337 -290 C-337 -341 -374 -370 -418 -370 C-514 -370 -578 -298 -677 -298 C-804 -298 -895 -399 -895 -516 L-735 -524 C-735 -472 -700 -444 -655 -444 C-555 -444 -518 -517 -396 -517 C-270 -517 -178 -420 -178 -299 L-178 -299 Z " />
<glyph glyph-name="uni1DFE" unicode="&#x1dfe;" horiz-adv-x="0" d="M-179 1726 L-179 1930 L-898 1649 L-898 1462 L-179 1180 L-179 1384 L-595 1543 L-647 1554 L-595 1565 L-179 1726 Z " />
<glyph glyph-name="uni1DFF" unicode="&#x1dff;" horiz-adv-x="0" d="M-1275 -202 L-869 -300 L-1275 -398 L-1275 -536 L-556 -359 L-556 -241 L-1275 -64 L-1275 -202 Z M-28 -73 L-174 -355 L-199 -419 L-225 -355 L-368 -73 L-555 -73 L-289 -551 L-107 -551 L158 -73 L-28 -73 Z " />
<glyph glyph-name="Wgrave" unicode="&#x1e80;" horiz-adv-x="1731" d="M1405 1456 L1228 446 L1001 1456 L737 1456 L517 464 L331 1456 L49 1456 L355 0 L654 0 L869 994 L1083 0 L1381 0 L1687 1456 L1405 1456 Z M1009 1539 L809 1846 L503 1846 L782 1539 L1009 1539 Z " />
<glyph glyph-name="wgrave" unicode="&#x1e81;" horiz-adv-x="1462" d="M1156 1082 L1018 373 L829 1082 L629 1082 L440 384 L302 1082 L38 1082 L305 0 L532 0 L728 693 L926 0 L1153 0 L1420 1082 L1156 1082 Z M862 1229 L662 1536 L356 1536 L635 1229 L862 1229 Z " />
<glyph glyph-name="Wacute" unicode="&#x1e82;" horiz-adv-x="1731" d="M1405 1456 L1228 446 L1001 1456 L737 1456 L517 464 L331 1456 L49 1456 L355 0 L654 0 L869 994 L1083 0 L1381 0 L1687 1456 L1405 1456 Z M1245 1846 L940 1846 L740 1539 L964 1539 L1245 1846 Z " />
<glyph glyph-name="wacute" unicode="&#x1e83;" horiz-adv-x="1462" d="M1156 1082 L1018 373 L829 1082 L629 1082 L440 384 L302 1082 L38 1082 L305 0 L532 0 L728 693 L926 0 L1153 0 L1420 1082 L1156 1082 Z M1098 1536 L793 1536 L593 1229 L817 1229 L1098 1536 Z " />
<glyph glyph-name="Wdieresis" unicode="&#x1e84;" horiz-adv-x="1731" d="M1405 1456 L1228 446 L1001 1456 L737 1456 L517 464 L331 1456 L49 1456 L355 0 L654 0 L869 994 L1083 0 L1381 0 L1687 1456 L1405 1456 Z M628 1554 C708 1554 764 1608 764 1678 C764 1748 708 1802 628 1802 C547 1802 492 1748 492 1678 C492 1608 547 1554 628 1554 L628 1554 Z M1113 1554 C1194 1554 1249 1608 1249 1677 C1249 1747 1194 1801 1113 1801 C1032 1801 977 1747 977 1677 C977 1608 1032 1554 1113 1554 L1113 1554 Z " />
<glyph glyph-name="wdieresis" unicode="&#x1e85;" horiz-adv-x="1462" d="M1156 1082 L1018 373 L829 1082 L629 1082 L440 384 L302 1082 L38 1082 L305 0 L532 0 L728 693 L926 0 L1153 0 L1420 1082 L1156 1082 Z M481 1244 C561 1244 617 1298 617 1368 C617 1438 561 1492 481 1492 C400 1492 345 1438 345 1368 C345 1298 400 1244 481 1244 L481 1244 Z M966 1244 C1047 1244 1102 1298 1102 1367 C1102 1437 1047 1491 966 1491 C885 1491 830 1437 830 1367 C830 1298 885 1244 966 1244 L966 1244 Z " />
<glyph glyph-name="uni1E9E" unicode="&#x1e9e;" horiz-adv-x="1339" d="M855 849 L1164 1229 C987 1379 811 1477 581 1477 C264 1477 103 1301 102 960 L102 0 L376 0 L376 958 C376 1159 440 1251 581 1251 C693 1251 765 1209 828 1157 L577 846 L577 667 L706 667 C878 667 973 600 973 418 C973 286 889 205 742 205 C654 205 579 233 537 252 L459 37 C541 3 640 -21 769 -21 C1033 -21 1246 128 1246 418 C1246 666 1103 817 855 849 L855 849 Z " />
<glyph glyph-name="uni1EA0" unicode="&#x1ea0;" horiz-adv-x="1340" d="M1321 0 L799 1456 L540 1456 L21 0 L322 0 L420 306 L922 306 L1020 0 L1321 0 Z M687 -92 C592 -92 532 -151 532 -227 C532 -304 592 -362 687 -362 C783 -362 844 -304 844 -227 C844 -151 783 -92 687 -92 L687 -92 Z M495 541 L671 1091 L847 541 L495 541 Z " />
<glyph glyph-name="uni1EA1" unicode="&#x1ea1;" horiz-adv-x="1074" d="M954 262 L954 737 C954 989 780 1102 542 1102 C276 1102 106 947 106 759 L379 759 C379 841 436 893 527 893 C633 893 680 843 680 740 L680 659 L546 659 C233 659 84 517 84 306 C84 103 220 -20 422 -20 C541 -20 633 24 694 89 C700 55 708 24 719 0 L995 0 L995 17 C969 72 954 141 954 262 L954 262 Z M476 -84 C381 -84 321 -143 321 -219 C321 -296 381 -354 476 -354 C572 -354 633 -296 633 -219 C633 -143 572 -84 476 -84 L476 -84 Z M478 195 C386 195 356 236 356 320 C356 419 407 495 559 495 L680 495 L680 291 C649 242 572 195 478 195 L478 195 Z " />
<glyph glyph-name="uni1EA2" unicode="&#x1ea2;" horiz-adv-x="1340" d="M1020 0 L1321 0 L799 1456 L540 1456 L21 0 L322 0 L420 306 L922 306 L1020 0 Z M687 1774 C687 1731 649 1711 559 1706 L571 1574 L774 1574 L774 1638 C843 1648 915 1690 915 1782 C915 1902 795 1976 561 1976 L554 1844 C632 1844 687 1828 687 1774 L687 1774 Z M495 541 L671 1091 L847 541 L495 541 Z " />
<glyph glyph-name="uni1EA3" unicode="&#x1ea3;" horiz-adv-x="1074" d="M954 262 L954 737 C954 989 780 1102 542 1102 C276 1102 106 947 106 759 L379 759 C379 841 436 893 527 893 C633 893 680 843 680 740 L680 659 L546 659 C233 659 84 517 84 306 C84 103 220 -20 422 -20 C541 -20 633 24 694 89 C700 55 708 24 719 0 L995 0 L995 17 C969 72 954 141 954 262 L954 262 Z M555 1464 C555 1421 517 1401 427 1396 L439 1264 L642 1264 L642 1328 C711 1338 783 1380 783 1472 C783 1592 663 1666 429 1666 L422 1534 C500 1534 555 1518 555 1464 L555 1464 Z M478 195 C386 195 356 236 356 320 C356 419 407 495 559 495 L680 495 L680 291 C649 242 572 195 478 195 L478 195 Z " />
<glyph glyph-name="uni1EA4" unicode="&#x1ea4;" horiz-adv-x="1340" d="M799 1456 L540 1456 L21 0 L322 0 L420 306 L922 306 L1020 0 L1321 0 L799 1456 Z M671 1664 L816 1535 L1027 1535 L752 1766 L591 1766 L316 1535 L528 1535 L671 1664 Z M1333 1939 L1107 1939 L954 1670 L1116 1670 L1333 1939 Z M495 541 L671 1091 L847 541 L495 541 Z " />
<glyph glyph-name="uni1EA5" unicode="&#x1ea5;" horiz-adv-x="1074" d="M954 737 C954 989 780 1102 542 1102 C276 1102 106 947 106 759 L379 759 C379 841 436 893 527 893 C633 893 680 843 680 740 L680 659 L546 659 C233 659 84 517 84 306 C84 103 220 -20 422 -20 C541 -20 633 24 694 89 C700 55 708 24 719 0 L995 0 L995 17 C969 72 954 141 954 262 L954 737 Z M539 1354 L684 1225 L895 1225 L620 1456 L459 1456 L184 1225 L396 1225 L539 1354 Z M1201 1629 L975 1629 L822 1360 L984 1360 L1201 1629 Z M478 195 C386 195 356 236 356 320 C356 419 407 495 559 495 L680 495 L680 291 C649 242 572 195 478 195 L478 195 Z " />
<glyph glyph-name="uni1EA6" unicode="&#x1ea6;" horiz-adv-x="1340" d="M1020 0 L1321 0 L799 1456 L540 1456 L21 0 L322 0 L420 306 L922 306 L1020 0 Z M390 1670 L238 1939 L11 1939 L228 1670 L390 1670 Z M529 1534 L673 1664 L817 1534 L1028 1534 L752 1765 L593 1765 L317 1534 L529 1534 Z M495 541 L671 1091 L847 541 L495 541 Z " />
<glyph glyph-name="uni1EA7" unicode="&#x1ea7;" horiz-adv-x="1074" d="M954 262 L954 737 C954 989 780 1102 542 1102 C276 1102 106 947 106 759 L379 759 C379 841 436 893 527 893 C633 893 680 843 680 740 L680 659 L546 659 C233 659 84 517 84 306 C84 103 220 -20 422 -20 C541 -20 633 24 694 89 C700 55 708 24 719 0 L995 0 L995 17 C969 72 954 141 954 262 L954 262 Z M258 1360 L106 1629 L-121 1629 L96 1360 L258 1360 Z M397 1224 L541 1354 L685 1224 L896 1224 L620 1455 L461 1455 L185 1224 L397 1224 Z M478 195 C386 195 356 236 356 320 C356 419 407 495 559 495 L680 495 L680 291 C649 242 572 195 478 195 L478 195 Z " />
<glyph glyph-name="uni1EA8" unicode="&#x1ea8;" horiz-adv-x="1340" d="M1020 0 L1321 0 L799 1456 L540 1456 L21 0 L322 0 L420 306 L922 306 L1020 0 Z M670 1668 L827 1531 L1026 1531 L758 1762 L583 1762 L316 1531 L515 1531 L670 1668 Z M1031 1827 C1031 1791 997 1776 921 1772 L932 1658 L1079 1658 L1079 1713 C1138 1721 1198 1757 1198 1835 C1198 1936 1105 1998 924 1998 L917 1887 C984 1887 1031 1873 1031 1827 L1031 1827 Z M495 541 L671 1091 L847 541 L495 541 Z " />
<glyph glyph-name="uni1EA9" unicode="&#x1ea9;" horiz-adv-x="1074" d="M954 737 C954 989 780 1102 542 1102 C276 1102 106 947 106 759 L379 759 C379 841 436 893 527 893 C633 893 680 843 680 740 L680 659 L546 659 C233 659 84 517 84 306 C84 103 220 -20 422 -20 C541 -20 633 24 694 89 C700 55 708 24 719 0 L995 0 L995 17 C969 72 954 141 954 262 L954 737 Z M538 1358 L695 1221 L894 1221 L626 1452 L451 1452 L184 1221 L383 1221 L538 1358 Z M792 1688 L785 1577 C852 1577 899 1563 899 1517 C899 1481 865 1466 789 1462 L800 1348 L947 1348 L947 1403 C1006 1411 1066 1447 1066 1525 C1066 1626 973 1688 792 1688 L792 1688 Z M478 195 C386 195 356 236 356 320 C356 419 407 495 559 495 L680 495 L680 291 C649 242 572 195 478 195 L478 195 Z " />
<glyph glyph-name="uni1EAA" unicode="&#x1eaa;" horiz-adv-x="1340" d="M1020 0 L1321 0 L799 1456 L540 1456 L21 0 L322 0 L420 306 L922 306 L1020 0 Z M672 1653 L829 1524 L1028 1524 L749 1750 L597 1750 L318 1524 L517 1524 L672 1653 Z M585 1871 C655 1871 699 1806 785 1806 C865 1806 919 1883 919 1962 L823 1998 C823 1958 799 1920 768 1920 C702 1920 638 1985 568 1985 C488 1985 435 1905 435 1828 L531 1799 C531 1838 554 1871 585 1871 L585 1871 Z M495 541 L671 1091 L847 541 L495 541 Z " />
<glyph glyph-name="uni1EAB" unicode="&#x1eab;" horiz-adv-x="1074" d="M954 262 L954 737 C954 989 780 1102 542 1102 C276 1102 106 947 106 759 L379 759 C379 841 436 893 527 893 C633 893 680 843 680 740 L680 659 L546 659 C233 659 84 517 84 306 C84 103 220 -20 422 -20 C541 -20 633 24 694 89 C700 55 708 24 719 0 L995 0 L995 17 C969 72 954 141 954 262 L954 262 Z M540 1343 L697 1214 L896 1214 L617 1440 L465 1440 L186 1214 L385 1214 L540 1343 Z M453 1561 C523 1561 567 1496 653 1496 C733 1496 787 1573 787 1652 L691 1688 C691 1648 667 1610 636 1610 C570 1610 506 1675 436 1675 C356 1675 303 1595 303 1518 L399 1489 C399 1528 422 1561 453 1561 L453 1561 Z M478 195 C386 195 356 236 356 320 C356 419 407 495 559 495 L680 495 L680 291 C649 242 572 195 478 195 L478 195 Z " />
<glyph glyph-name="uni1EAC" unicode="&#x1eac;" horiz-adv-x="1340" d="M1321 0 L799 1456 L540 1456 L21 0 L322 0 L420 306 L922 306 L1020 0 L1321 0 Z M673 1702 L817 1556 L1033 1556 L1033 1568 L752 1846 L594 1846 L317 1571 L317 1556 L530 1556 L673 1702 Z M687 -92 C592 -92 532 -151 532 -227 C532 -304 592 -362 687 -362 C783 -362 844 -304 844 -227 C844 -151 783 -92 687 -92 L687 -92 Z M495 541 L671 1091 L847 541 L495 541 Z " />
<glyph glyph-name="uni1EAD" unicode="&#x1ead;" horiz-adv-x="1074" d="M954 262 L954 737 C954 989 780 1102 542 1102 C276 1102 106 947 106 759 L379 759 C379 841 436 893 527 893 C633 893 680 843 680 740 L680 659 L546 659 C233 659 84 517 84 306 C84 103 220 -20 422 -20 C541 -20 633 24 694 89 C700 55 708 24 719 0 L995 0 L995 17 C969 72 954 141 954 262 L954 262 Z M541 1392 L685 1246 L901 1246 L901 1258 L620 1536 L462 1536 L185 1261 L185 1246 L398 1246 L541 1392 Z M476 -84 C381 -84 321 -143 321 -219 C321 -296 381 -354 476 -354 C572 -354 633 -296 633 -219 C633 -143 572 -84 476 -84 L476 -84 Z M478 195 C386 195 356 236 356 320 C356 419 407 495 559 495 L680 495 L680 291 C649 242 572 195 478 195 L478 195 Z " />
<glyph glyph-name="uni1EAE" unicode="&#x1eae;" horiz-adv-x="1340" d="M1020 0 L1321 0 L799 1456 L540 1456 L21 0 L322 0 L420 306 L922 306 L1020 0 Z M671 1535 C872 1535 997 1631 997 1767 L811 1767 C811 1708 774 1654 671 1654 C567 1654 529 1708 529 1767 L344 1767 C344 1631 470 1535 671 1535 L671 1535 Z M904 1958 L710 1958 L599 1769 L740 1769 L904 1958 Z M495 541 L671 1091 L847 541 L495 541 Z " />
<glyph glyph-name="uni1EAF" unicode="&#x1eaf;" horiz-adv-x="1074" d="M954 262 L954 737 C954 989 780 1102 542 1102 C276 1102 106 947 106 759 L379 759 C379 841 436 893 527 893 C633 893 680 843 680 740 L680 659 L546 659 C233 659 84 517 84 306 C84 103 220 -20 422 -20 C541 -20 633 24 694 89 C700 55 708 24 719 0 L995 0 L995 17 C969 72 954 141 954 262 L954 262 Z M539 1225 C740 1225 865 1321 865 1457 L679 1457 C679 1398 642 1344 539 1344 C435 1344 397 1398 397 1457 L212 1457 C212 1321 338 1225 539 1225 L539 1225 Z M772 1648 L578 1648 L467 1459 L608 1459 L772 1648 Z M478 195 C386 195 356 236 356 320 C356 419 407 495 559 495 L680 495 L680 291 C649 242 572 195 478 195 L478 195 Z " />
<glyph glyph-name="uni1EB0" unicode="&#x1eb0;" horiz-adv-x="1340" d="M1020 0 L1321 0 L799 1456 L540 1456 L21 0 L322 0 L420 306 L922 306 L1020 0 Z M671 1537 C872 1537 997 1632 997 1770 L811 1770 C811 1710 774 1655 671 1655 C567 1655 529 1710 529 1770 L344 1770 C344 1632 470 1537 671 1537 L671 1537 Z M755 1769 L644 1958 L449 1958 L614 1769 L755 1769 Z M495 541 L671 1091 L847 541 L495 541 Z " />
<glyph glyph-name="uni1EB1" unicode="&#x1eb1;" horiz-adv-x="1074" d="M954 262 L954 737 C954 989 780 1102 542 1102 C276 1102 106 947 106 759 L379 759 C379 841 436 893 527 893 C633 893 680 843 680 740 L680 659 L546 659 C233 659 84 517 84 306 C84 103 220 -20 422 -20 C541 -20 633 24 694 89 C700 55 708 24 719 0 L995 0 L995 17 C969 72 954 141 954 262 L954 262 Z M539 1227 C740 1227 865 1322 865 1460 L679 1460 C679 1400 642 1345 539 1345 C435 1345 397 1400 397 1460 L212 1460 C212 1322 338 1227 539 1227 L539 1227 Z M623 1459 L512 1648 L317 1648 L482 1459 L623 1459 Z M478 195 C386 195 356 236 356 320 C356 419 407 495 559 495 L680 495 L680 291 C649 242 572 195 478 195 L478 195 Z " />
<glyph glyph-name="uni1EB2" unicode="&#x1eb2;" horiz-adv-x="1340" d="M1020 0 L1321 0 L799 1456 L540 1456 L21 0 L322 0 L420 306 L922 306 L1020 0 Z M666 1529 C867 1529 993 1621 993 1758 L807 1758 C807 1701 767 1649 666 1649 C562 1649 524 1701 524 1758 L339 1758 C339 1621 465 1529 666 1529 L666 1529 Z M691 1945 C691 1912 653 1897 565 1893 L578 1787 L750 1787 L751 1839 C819 1848 887 1880 887 1952 C887 2046 779 2103 567 2103 L560 1999 C638 1999 691 1987 691 1945 L691 1945 Z M495 541 L671 1091 L847 541 L495 541 Z " />
<glyph glyph-name="uni1EB3" unicode="&#x1eb3;" horiz-adv-x="1074" d="M954 262 L954 737 C954 989 780 1102 542 1102 C276 1102 106 947 106 759 L379 759 C379 841 436 893 527 893 C633 893 680 843 680 740 L680 659 L546 659 C233 659 84 517 84 306 C84 103 220 -20 422 -20 C541 -20 633 24 694 89 C700 55 708 24 719 0 L995 0 L995 17 C969 72 954 141 954 262 L954 262 Z M534 1219 C735 1219 861 1311 861 1448 L675 1448 C675 1391 635 1339 534 1339 C430 1339 392 1391 392 1448 L207 1448 C207 1311 333 1219 534 1219 L534 1219 Z M559 1635 C559 1602 521 1587 433 1583 L446 1477 L618 1477 L619 1529 C687 1538 755 1570 755 1642 C755 1736 647 1793 435 1793 L428 1689 C506 1689 559 1677 559 1635 L559 1635 Z M478 195 C386 195 356 236 356 320 C356 419 407 495 559 495 L680 495 L680 291 C649 242 572 195 478 195 L478 195 Z " />
<glyph glyph-name="uni1EB4" unicode="&#x1eb4;" horiz-adv-x="1340" d="M1020 0 L1321 0 L799 1456 L540 1456 L21 0 L322 0 L420 306 L922 306 L1020 0 Z M668 1528 C868 1528 993 1624 993 1762 L808 1762 C808 1704 771 1653 668 1653 C564 1653 527 1704 527 1762 L342 1762 C342 1624 469 1528 668 1528 L668 1528 Z M567 1923 C649 1923 688 1854 789 1854 C881 1854 946 1938 946 2034 L833 2068 C833 2019 804 1981 769 1981 C691 1981 631 2049 548 2049 C455 2049 392 1963 392 1869 L504 1836 C504 1885 532 1923 567 1923 L567 1923 Z M495 541 L671 1091 L847 541 L495 541 Z " />
<glyph glyph-name="uni1EB5" unicode="&#x1eb5;" horiz-adv-x="1074" d="M954 262 L954 737 C954 989 780 1102 542 1102 C276 1102 106 947 106 759 L379 759 C379 841 436 893 527 893 C633 893 680 843 680 740 L680 659 L546 659 C233 659 84 517 84 306 C84 103 220 -20 422 -20 C541 -20 633 24 694 89 C700 55 708 24 719 0 L995 0 L995 17 C969 72 954 141 954 262 L954 262 Z M536 1218 C736 1218 861 1314 861 1452 L676 1452 C676 1394 639 1343 536 1343 C432 1343 395 1394 395 1452 L210 1452 C210 1314 337 1218 536 1218 L536 1218 Z M435 1613 C517 1613 556 1544 657 1544 C749 1544 814 1628 814 1724 L701 1758 C701 1709 672 1671 637 1671 C559 1671 499 1739 416 1739 C323 1739 260 1653 260 1559 L372 1526 C372 1575 400 1613 435 1613 L435 1613 Z M478 195 C386 195 356 236 356 320 C356 419 407 495 559 495 L680 495 L680 291 C649 242 572 195 478 195 L478 195 Z " />
<glyph glyph-name="uni1EB6" unicode="&#x1eb6;" horiz-adv-x="1340" d="M1321 0 L799 1456 L540 1456 L21 0 L322 0 L420 306 L922 306 L1020 0 L1321 0 Z M670 1540 C881 1540 1013 1661 1013 1835 L812 1835 C812 1765 774 1701 670 1701 C564 1701 526 1765 526 1835 L326 1835 C326 1661 459 1540 670 1540 L670 1540 Z M687 -92 C592 -92 532 -151 532 -227 C532 -304 592 -362 687 -362 C783 -362 844 -304 844 -227 C844 -151 783 -92 687 -92 L687 -92 Z M495 541 L671 1091 L847 541 L495 541 Z " />
<glyph glyph-name="uni1EB7" unicode="&#x1eb7;" horiz-adv-x="1074" d="M954 262 L954 737 C954 989 780 1102 542 1102 C276 1102 106 947 106 759 L379 759 C379 841 436 893 527 893 C633 893 680 843 680 740 L680 659 L546 659 C233 659 84 517 84 306 C84 103 220 -20 422 -20 C541 -20 633 24 694 89 C700 55 708 24 719 0 L995 0 L995 17 C969 72 954 141 954 262 L954 262 Z M538 1230 C749 1230 881 1351 881 1525 L680 1525 C680 1455 642 1391 538 1391 C432 1391 394 1455 394 1525 L194 1525 C194 1351 327 1230 538 1230 L538 1230 Z M476 -84 C381 -84 321 -143 321 -219 C321 -296 381 -354 476 -354 C572 -354 633 -296 633 -219 C633 -143 572 -84 476 -84 L476 -84 Z M478 195 C386 195 356 236 356 320 C356 419 407 495 559 495 L680 495 L680 291 C649 242 572 195 478 195 L478 195 Z " />
<glyph glyph-name="uni1EB8" unicode="&#x1eb8;" horiz-adv-x="1123" d="M422 234 L422 635 L969 635 L969 863 L422 863 L422 1221 L1061 1221 L1061 1456 L138 1456 L138 0 L1065 0 L1065 234 L422 234 Z M625 -89 C530 -89 470 -148 470 -224 C470 -301 530 -359 625 -359 C721 -359 782 -301 782 -224 C782 -148 721 -89 625 -89 L625 -89 Z " />
<glyph glyph-name="uni1EB9" unicode="&#x1eb9;" horiz-adv-x="1080" d="M1016 585 C1016 919 858 1102 571 1102 C267 1102 84 918 84 561 L84 488 C84 151 273 -20 592 -20 C797 -20 930 67 997 155 L869 316 C807 243 716 206 614 206 C457 206 368 284 358 458 L1016 458 L1016 585 Z M562 -99 C467 -99 407 -158 407 -234 C407 -311 467 -369 562 -369 C658 -369 719 -311 719 -234 C719 -158 658 -99 562 -99 L562 -99 Z M746 645 L361 645 C377 800 442 882 573 882 C694 882 745 799 746 670 L746 645 Z " />
<glyph glyph-name="uni1EBA" unicode="&#x1eba;" horiz-adv-x="1123" d="M422 234 L422 635 L969 635 L969 863 L422 863 L422 1221 L1061 1221 L1061 1456 L138 1456 L138 0 L1065 0 L1065 234 L422 234 Z M628 1778 C628 1735 590 1715 500 1710 L512 1578 L715 1578 L715 1642 C784 1652 856 1694 856 1786 C856 1906 736 1980 502 1980 L495 1848 C573 1848 628 1832 628 1778 L628 1778 Z " />
<glyph glyph-name="uni1EBB" unicode="&#x1ebb;" horiz-adv-x="1080" d="M1016 585 C1016 919 858 1102 571 1102 C267 1102 84 918 84 561 L84 488 C84 151 273 -20 592 -20 C797 -20 930 67 997 155 L869 316 C807 243 716 206 614 206 C457 206 368 284 358 458 L1016 458 L1016 585 Z M547 1465 C547 1422 509 1402 419 1397 L431 1265 L634 1265 L634 1329 C703 1339 775 1381 775 1473 C775 1593 655 1667 421 1667 L414 1535 C492 1535 547 1519 547 1465 L547 1465 Z M746 645 L361 645 C377 800 442 882 573 882 C694 882 745 799 746 670 L746 645 Z " />
<glyph glyph-name="uni1EBC" unicode="&#x1ebc;" horiz-adv-x="1123" d="M422 234 L422 635 L969 635 L969 863 L422 863 L422 1221 L1061 1221 L1061 1456 L138 1456 L138 0 L1065 0 L1065 234 L422 234 Z M494 1658 C594 1658 631 1571 754 1571 C879 1571 971 1688 971 1833 L812 1844 C812 1782 776 1747 731 1747 C635 1747 572 1834 472 1834 C346 1834 255 1713 255 1570 L415 1562 C415 1623 450 1658 494 1658 L494 1658 Z " />
<glyph glyph-name="uni1EBD" unicode="&#x1ebd;" horiz-adv-x="1080" d="M1016 585 C1016 919 858 1102 571 1102 C267 1102 84 918 84 561 L84 488 C84 151 273 -20 592 -20 C797 -20 930 67 997 155 L869 316 C807 243 716 206 614 206 C457 206 368 284 358 458 L1016 458 L1016 585 Z M413 1345 C513 1345 550 1258 673 1258 C798 1258 890 1375 890 1520 L731 1531 C731 1469 695 1434 650 1434 C554 1434 491 1521 391 1521 C265 1521 174 1400 174 1257 L334 1249 C334 1310 369 1345 413 1345 L413 1345 Z M746 645 L361 645 C377 800 442 882 573 882 C694 882 745 799 746 670 L746 645 Z " />
<glyph glyph-name="uni1EBE" unicode="&#x1ebe;" horiz-adv-x="1123" d="M422 635 L969 635 L969 863 L422 863 L422 1221 L1061 1221 L1061 1456 L138 1456 L138 0 L1065 0 L1065 234 L422 234 L422 635 Z M612 1668 L757 1539 L968 1539 L693 1770 L532 1770 L257 1539 L469 1539 L612 1668 Z M1274 1943 L1048 1943 L895 1674 L1057 1674 L1274 1943 Z " />
<glyph glyph-name="uni1EBF" unicode="&#x1ebf;" horiz-adv-x="1080" d="M571 1102 C267 1102 84 918 84 561 L84 488 C84 151 273 -20 592 -20 C797 -20 930 67 997 155 L869 316 C807 243 716 206 614 206 C457 206 368 284 358 458 L1016 458 L1016 585 C1016 919 858 1102 571 1102 L571 1102 Z M531 1355 L676 1226 L887 1226 L612 1457 L451 1457 L176 1226 L388 1226 L531 1355 Z M1193 1630 L967 1630 L814 1361 L976 1361 L1193 1630 Z M746 645 L361 645 C377 800 442 882 573 882 C694 882 745 799 746 670 L746 645 Z " />
<glyph glyph-name="uni1EC0" unicode="&#x1ec0;" horiz-adv-x="1123" d="M422 234 L422 635 L969 635 L969 863 L422 863 L422 1221 L1061 1221 L1061 1456 L138 1456 L138 0 L1065 0 L1065 234 L422 234 Z M331 1674 L179 1943 L-48 1943 L169 1674 L331 1674 Z M470 1538 L614 1668 L758 1538 L969 1538 L693 1769 L534 1769 L258 1538 L470 1538 Z " />
<glyph glyph-name="uni1EC1" unicode="&#x1ec1;" horiz-adv-x="1080" d="M1016 585 C1016 919 858 1102 571 1102 C267 1102 84 918 84 561 L84 488 C84 151 273 -20 592 -20 C797 -20 930 67 997 155 L869 316 C807 243 716 206 614 206 C457 206 368 284 358 458 L1016 458 L1016 585 Z M250 1361 L98 1630 L-129 1630 L88 1361 L250 1361 Z M389 1225 L533 1355 L677 1225 L888 1225 L612 1456 L453 1456 L177 1225 L389 1225 Z M746 645 L361 645 C377 800 442 882 573 882 C694 882 745 799 746 670 L746 645 Z " />
<glyph glyph-name="uni1EC2" unicode="&#x1ec2;" horiz-adv-x="1123" d="M422 635 L969 635 L969 863 L422 863 L422 1221 L1061 1221 L1061 1456 L138 1456 L138 0 L1065 0 L1065 234 L422 234 L422 635 Z M611 1672 L768 1535 L967 1535 L699 1766 L524 1766 L257 1535 L456 1535 L611 1672 Z M865 2002 L858 1891 C925 1891 972 1877 972 1831 C972 1795 938 1780 862 1776 L873 1662 L1020 1662 L1020 1717 C1079 1725 1139 1761 1139 1839 C1139 1940 1046 2002 865 2002 L865 2002 Z " />
<glyph glyph-name="uni1EC3" unicode="&#x1ec3;" horiz-adv-x="1080" d="M571 1102 C267 1102 84 918 84 561 L84 488 C84 151 273 -20 592 -20 C797 -20 930 67 997 155 L869 316 C807 243 716 206 614 206 C457 206 368 284 358 458 L1016 458 L1016 585 C1016 919 858 1102 571 1102 L571 1102 Z M530 1359 L687 1222 L886 1222 L618 1453 L443 1453 L176 1222 L375 1222 L530 1359 Z M784 1689 L777 1578 C844 1578 891 1564 891 1518 C891 1482 857 1467 781 1463 L792 1349 L939 1349 L939 1404 C998 1412 1058 1448 1058 1526 C1058 1627 965 1689 784 1689 L784 1689 Z M746 645 L361 645 C377 800 442 882 573 882 C694 882 745 799 746 670 L746 645 Z " />
<glyph glyph-name="uni1EC4" unicode="&#x1ec4;" horiz-adv-x="1123" d="M422 234 L422 635 L969 635 L969 863 L422 863 L422 1221 L1061 1221 L1061 1456 L138 1456 L138 0 L1065 0 L1065 234 L422 234 Z M613 1657 L770 1528 L969 1528 L690 1754 L538 1754 L259 1528 L458 1528 L613 1657 Z M526 1875 C596 1875 640 1810 726 1810 C806 1810 860 1887 860 1966 L764 2002 C764 1962 740 1924 709 1924 C643 1924 579 1989 509 1989 C429 1989 376 1909 376 1832 L472 1803 C472 1842 495 1875 526 1875 L526 1875 Z " />
<glyph glyph-name="uni1EC5" unicode="&#x1ec5;" horiz-adv-x="1080" d="M1016 585 C1016 919 858 1102 571 1102 C267 1102 84 918 84 561 L84 488 C84 151 273 -20 592 -20 C797 -20 930 67 997 155 L869 316 C807 243 716 206 614 206 C457 206 368 284 358 458 L1016 458 L1016 585 Z M532 1344 L689 1215 L888 1215 L609 1441 L457 1441 L178 1215 L377 1215 L532 1344 Z M445 1562 C515 1562 559 1497 645 1497 C725 1497 779 1574 779 1653 L683 1689 C683 1649 659 1611 628 1611 C562 1611 498 1676 428 1676 C348 1676 295 1596 295 1519 L391 1490 C391 1529 414 1562 445 1562 L445 1562 Z M746 645 L361 645 C377 800 442 882 573 882 C694 882 745 799 746 670 L746 645 Z " />
<glyph glyph-name="uni1EC6" unicode="&#x1ec6;" horiz-adv-x="1123" d="M422 234 L422 635 L969 635 L969 863 L422 863 L422 1221 L1061 1221 L1061 1456 L138 1456 L138 0 L1065 0 L1065 234 L422 234 Z M614 1706 L758 1560 L974 1560 L974 1572 L693 1850 L535 1850 L258 1575 L258 1560 L471 1560 L614 1706 Z M625 -89 C530 -89 470 -148 470 -224 C470 -301 530 -359 625 -359 C721 -359 782 -301 782 -224 C782 -148 721 -89 625 -89 L625 -89 Z " />
<glyph glyph-name="uni1EC7" unicode="&#x1ec7;" horiz-adv-x="1080" d="M1016 585 C1016 919 858 1102 571 1102 C267 1102 84 918 84 561 L84 488 C84 151 273 -20 592 -20 C797 -20 930 67 997 155 L869 316 C807 243 716 206 614 206 C457 206 368 284 358 458 L1016 458 L1016 585 Z M533 1393 L677 1247 L893 1247 L893 1259 L612 1537 L454 1537 L177 1262 L177 1247 L390 1247 L533 1393 Z M562 -99 C467 -99 407 -158 407 -234 C407 -311 467 -369 562 -369 C658 -369 719 -311 719 -234 C719 -158 658 -99 562 -99 L562 -99 Z M746 645 L361 645 C377 800 442 882 573 882 C694 882 745 799 746 670 L746 645 Z " />
<glyph glyph-name="uni1EC8" unicode="&#x1ec8;" horiz-adv-x="590" d="M437 0 L437 1456 L154 1456 L154 0 L437 0 Z M192 1578 L395 1578 L395 1642 C464 1652 536 1694 536 1786 C536 1906 416 1980 182 1980 L175 1848 C253 1848 308 1832 308 1778 C308 1735 270 1715 180 1710 L192 1578 Z " />
<glyph glyph-name="uni1EC9" unicode="&#x1ec9;" horiz-adv-x="560" d="M414 0 L414 1082 L140 1082 L140 0 L414 0 Z M177 1249 L380 1249 L380 1313 C449 1323 521 1365 521 1457 C521 1577 401 1651 167 1651 L160 1519 C238 1519 293 1503 293 1449 C293 1406 255 1386 165 1381 L177 1249 Z " />
</font>
</svg>
