<?xml version="1.0" encoding="UTF-8"?>
<svg xmlns="http://www.w3.org/2000/svg" xmlns:xlink="http://www.w3.org/1999/xlink" version="1.1" >
<font id="Gotho-7Wd100Th" horiz-adv-x="856">
<font-face  font-family="Gotho" units-per-em="2048" ascent="2146" descent="-555" font-style="normal" font-weight="100" font-stretch="expanded" cap-height="1456" x-height="1082" underline-position="-100" underline-thickness="100" />
<missing-glyph horiz-adv-x="989" d="M876 1456 L114 1456 L114 0 L876 0 L876 1456 Z M492 660 L769 54 L215 54 L492 660 Z M461 728 L172 96 L172 1360 L461 728 Z M523 728 L818 1373 L818 83 L523 728 Z M215 1402 L769 1402 L492 796 L215 1402 Z " />
<glyph glyph-name="NULL" horiz-adv-x="0" />
<glyph glyph-name="CR" unicode="&#xd;" horiz-adv-x="539" />
<glyph glyph-name="space" unicode="&#x20;" horiz-adv-x="539" />
<glyph glyph-name="uni0002" unicode="&#x2;" horiz-adv-x="0" />
<glyph glyph-name="uni0009" unicode="&#x9;" horiz-adv-x="539" />
<glyph glyph-name="exclam" unicode="&#x21;" horiz-adv-x="433" d="M220 105 C189 105 163 80 163 49 C163 18 189 -6 220 -6 C252 -6 278 18 278 49 C278 80 252 105 220 105 L220 105 Z M238 401 L237 1456 L185 1456 L185 401 L238 401 Z " />
<glyph glyph-name="quotedbl" unicode="&#x22;" horiz-adv-x="575" d="M232 1393 L232 1536 L174 1536 L174 1390 L169 1122 L221 1122 L232 1393 Z M452 1393 L452 1536 L396 1536 L396 1390 L388 1122 L442 1122 L452 1393 Z " />
<glyph glyph-name="numbersign" unicode="&#x23;" horiz-adv-x="1212" d="M1258 986 L1258 1040 L983 1040 L1064 1456 L1008 1456 L927 1040 L530 1040 L611 1456 L555 1456 L474 1040 L140 1040 L140 986 L463 986 L361 462 L58 462 L58 410 L351 410 L271 0 L328 0 L408 410 L803 410 L723 0 L779 0 L859 410 L1178 410 L1178 462 L869 462 L972 986 L1258 986 Z M813 462 L418 462 L520 986 L916 986 L813 462 Z " />
<glyph glyph-name="dollar" unicode="&#x24;" horiz-adv-x="1217" d="M1082 346 C1082 586 905 670 642 753 C304 858 240 948 240 1112 C240 1270 362 1424 628 1424 C884 1424 1021 1262 1021 1047 L1073 1047 C1073 1314 917 1465 659 1476 L659 1663 L603 1663 L603 1477 C348 1468 187 1324 187 1110 C187 870 353 787 626 700 C935 602 1029 518 1029 344 C1029 183 884 32 637 32 C431 32 189 120 189 409 L137 409 C137 95 378 -15 616 -21 L616 -208 L672 -208 L672 -20 C919 -8 1082 130 1082 346 L1082 346 Z " />
<glyph glyph-name="percent" unicode="&#x25;" horiz-adv-x="1656" d="M945 357 L945 279 C945 115 1061 -21 1237 -21 C1410 -21 1526 115 1526 279 L1526 357 C1526 521 1410 657 1235 657 C1061 657 945 521 945 357 L945 357 Z M458 131 L1224 1269 L1178 1300 L413 162 L458 131 Z M129 1176 L129 1099 C129 936 245 800 423 800 C594 800 711 936 711 1099 L711 1176 C711 1341 593 1477 420 1477 C245 1477 129 1341 129 1176 L129 1176 Z M1000 279 L1000 357 C1000 491 1080 602 1235 602 C1394 602 1470 491 1470 357 L1470 279 C1470 156 1395 34 1237 34 C1075 34 1000 157 1000 279 L1000 279 Z M185 1099 L185 1176 C185 1299 264 1422 420 1422 C579 1422 655 1299 655 1176 L655 1099 C655 977 580 855 423 855 C260 855 185 978 185 1099 L185 1099 Z " />
<glyph glyph-name="ampersand" unicode="&#x26;" horiz-adv-x="1352" d="M1289 0 L1086 214 C1172 324 1230 458 1230 632 L1176 632 C1176 482 1127 353 1049 254 L536 795 L698 918 C777 979 904 1090 904 1213 C904 1358 800 1477 610 1477 C409 1477 284 1349 284 1167 C284 1042 347 934 461 804 L403 762 C257 646 131 518 131 352 C131 124 308 -20 596 -20 C785 -20 935 64 1055 178 L1225 0 L1289 0 Z M596 34 C314 34 183 187 183 352 C183 440 219 553 439 721 L496 764 C508 752 520 739 532 726 L1017 217 C909 101 756 34 596 34 L596 34 Z M338 1169 C338 1307 433 1423 610 1423 C766 1423 849 1323 849 1213 C849 1115 766 1027 674 960 L500 833 C387 954 338 1068 338 1169 L338 1169 Z " />
<glyph glyph-name="quotesingle" unicode="&#x27;" horiz-adv-x="380" d="M222 1367 L222 1536 L164 1536 L164 1365 L154 1122 L206 1122 L222 1367 Z " />
<glyph glyph-name="parenleft" unicode="&#x28;" horiz-adv-x="662" d="M166 586 L166 566 C166 80 367 -329 608 -470 L628 -427 C413 -296 219 132 219 564 L219 590 C219 1022 413 1450 628 1580 L608 1623 C367 1482 166 1047 166 586 L166 586 Z " />
<glyph glyph-name="parenright" unicode="&#x29;" horiz-adv-x="679" d="M498 566 L498 586 C498 1047 297 1482 55 1623 L36 1580 C252 1450 445 1022 445 590 L445 564 C445 132 251 -296 36 -427 L55 -470 C297 -329 498 80 498 566 L498 566 Z " />
<glyph glyph-name="asterisk" unicode="&#x2a;" horiz-adv-x="952" d="M440 1017 L179 693 L226 661 L481 986 L752 664 L800 697 L522 1014 L924 1151 L903 1204 L510 1061 L517 1456 L459 1456 L458 1062 L53 1195 L35 1141 L440 1017 Z " />
<glyph glyph-name="plus" unicode="&#x2b;" horiz-adv-x="1251" d="M1159 702 L637 702 L637 1206 L584 1206 L584 702 L84 702 L84 649 L584 649 L584 146 L637 146 L637 649 L1159 649 L1159 702 Z " />
<glyph glyph-name="comma" unicode="&#x2c;" horiz-adv-x="428" d="M259 27 L259 159 L205 159 L205 25 C205 -78 173 -145 107 -223 L145 -255 C212 -188 259 -96 259 27 L259 27 Z " />
<glyph glyph-name="hyphen" unicode="&#x2d;" horiz-adv-x="668" d="M578 639 L578 693 L73 693 L73 639 L578 639 Z " />
<glyph glyph-name="period" unicode="&#x2e;" horiz-adv-x="486" d="M224 105 C192 105 165 80 165 49 C165 18 192 -6 224 -6 C257 -6 283 18 283 49 C283 80 257 105 224 105 L224 105 Z " />
<glyph glyph-name="slash" unicode="&#x2f;" horiz-adv-x="851" d="M111 -125 L766 1456 L707 1456 L52 -125 L111 -125 Z " />
<glyph glyph-name="zero" unicode="0" horiz-adv-x="1218" d="M1077 594 L1077 862 C1077 1242 910 1477 608 1477 C307 1477 141 1242 141 862 L141 594 C141 214 310 -20 611 -20 C914 -20 1077 214 1077 594 L1077 594 Z M1024 862 L1024 596 C1024 268 891 34 611 34 C330 34 194 268 194 596 L194 862 C194 1196 329 1423 608 1423 C889 1423 1024 1196 1024 862 L1024 862 Z " />
<glyph glyph-name="one" unicode="1" horiz-adv-x="1217" d="M713 0 L713 1460 L701 1460 L208 1290 L208 1231 L660 1388 L660 0 L713 0 Z " />
<glyph glyph-name="two" unicode="2" horiz-adv-x="1217" d="M1106 0 L1106 54 L222 54 L697 546 C861 715 1021 905 1021 1085 C1021 1340 850 1476 582 1476 C317 1476 161 1281 161 1045 L213 1045 C213 1261 356 1422 582 1422 C835 1422 967 1291 967 1085 C967 956 884 809 685 604 L152 54 L152 0 L1106 0 Z " />
<glyph glyph-name="three" unicode="3" horiz-adv-x="1217" d="M761 745 C942 797 1054 928 1054 1081 C1054 1326 882 1476 613 1476 C363 1476 152 1323 152 1074 L204 1074 C204 1290 385 1422 613 1422 C884 1422 1002 1268 1002 1085 C1002 917 851 770 575 770 L456 770 L456 714 L575 714 C844 714 1036 620 1036 382 C1036 165 887 34 623 34 C365 34 170 189 170 405 L117 405 C117 111 389 -20 623 -20 C893 -20 1089 128 1089 386 C1089 577 965 701 761 745 L761 745 Z " />
<glyph glyph-name="four" unicode="4" horiz-adv-x="1217" d="M1183 451 L910 451 L910 1456 L845 1456 L96 427 L96 397 L857 397 L857 0 L910 0 L910 397 L1183 397 L1183 451 Z M181 451 L764 1253 L857 1396 L857 451 L181 451 Z " />
<glyph glyph-name="five" unicode="5" horiz-adv-x="1217" d="M256 762 L295 746 C377 817 479 862 646 862 C908 862 1052 690 1052 462 C1052 182 926 34 667 34 C423 34 279 157 257 383 L203 383 C226 110 422 -20 667 -20 C982 -20 1106 185 1106 464 C1106 748 913 916 643 916 C496 916 364 860 313 819 L377 1403 L1091 1403 L1091 1456 L329 1456 L256 762 Z " />
<glyph glyph-name="six" unicode="6" horiz-adv-x="1217" d="M642 957 C445 957 289 854 219 720 L219 741 C219 1222 439 1422 692 1422 C797 1422 855 1404 937 1371 L957 1424 C885 1460 780 1476 693 1476 C407 1476 166 1265 166 740 L166 492 C166 177 375 -21 654 -21 C913 -21 1095 197 1095 480 C1095 754 931 957 642 957 L642 957 Z M654 32 C399 32 219 215 219 493 L219 556 C219 748 420 903 636 903 C908 903 1042 716 1042 480 C1042 244 891 32 654 32 L654 32 Z " />
<glyph glyph-name="seven" unicode="7" horiz-adv-x="1217" d="M89 1456 L89 1402 L1022 1402 C711 1060 481 636 431 91 L422 0 L475 0 L483 91 C539 704 830 1117 1087 1402 L1087 1456 L89 1456 Z " />
<glyph glyph-name="eight" unicode="8" horiz-adv-x="1217" d="M776 745 C946 794 1067 920 1067 1086 C1067 1339 861 1476 609 1476 C353 1476 157 1339 157 1086 C157 920 274 794 446 745 C250 696 113 560 113 379 C113 114 330 -20 613 -20 C890 -20 1112 114 1112 379 C1112 560 971 696 776 745 L776 745 Z M613 34 C360 34 165 154 165 374 C165 584 360 718 612 718 C859 718 1058 584 1058 374 C1058 154 860 34 613 34 L613 34 Z M210 1091 C210 1297 382 1422 609 1422 C832 1422 1014 1285 1014 1091 C1014 894 834 772 612 772 C382 772 210 894 210 1091 L210 1091 Z " />
<glyph glyph-name="nine" unicode="9" horiz-adv-x="1217" d="M577 1477 C300 1477 108 1240 108 958 C108 695 294 468 568 468 C761 468 923 569 998 726 L998 618 C998 257 816 34 536 34 C424 34 347 56 258 97 L238 44 C334 2 436 -20 536 -20 C843 -20 1052 214 1052 620 L1052 903 C1052 1286 876 1477 577 1477 L577 1477 Z M567 521 C317 521 170 734 170 958 C170 1194 329 1423 581 1423 C843 1423 998 1248 998 902 L998 838 C957 693 817 521 567 521 L567 521 Z " />
<glyph glyph-name="colon" unicode="&#x3a;" horiz-adv-x="398" d="M195 105 C163 105 136 80 136 49 C136 18 163 -6 195 -6 C228 -6 254 18 254 49 C254 80 228 105 195 105 L195 105 Z M202 1067 C170 1067 143 1042 143 1011 C143 980 170 956 202 956 C235 956 261 980 261 1011 C261 1042 235 1067 202 1067 L202 1067 Z " />
<glyph glyph-name="semicolon" unicode="&#x3b;" horiz-adv-x="401" d="M202 1067 C170 1067 143 1042 143 1011 C143 980 170 956 202 956 C235 956 261 980 261 1011 C261 1042 235 1067 202 1067 L202 1067 Z M247 27 L247 159 L193 159 L193 25 C193 -78 161 -145 95 -223 L133 -255 C200 -188 247 -96 247 27 L247 27 Z " />
<glyph glyph-name="less" unicode="&#x3c;" horiz-adv-x="1146" d="M996 1069 L95 691 L95 641 L996 262 L996 321 L169 666 L996 1011 L996 1069 Z " />
<glyph glyph-name="equal" unicode="&#x3d;" horiz-adv-x="1242" d="M1062 436 L1062 490 L164 490 L164 436 L1062 436 Z M1062 843 L1062 897 L164 897 L164 843 L1062 843 Z " />
<glyph glyph-name="greater" unicode="&#x3e;" horiz-adv-x="1144" d="M128 1072 L128 1013 L947 668 L128 324 L128 265 L1026 644 L1026 694 L128 1072 Z " />
<glyph glyph-name="question" unicode="&#x3f;" horiz-adv-x="970" d="M463 105 C432 105 406 80 406 49 C406 18 432 -6 463 -6 C495 -6 521 18 521 49 C521 80 495 105 463 105 L463 105 Z M433 400 L485 400 C485 515 521 621 627 701 C795 829 865 934 865 1110 C865 1318 737 1476 498 1476 C288 1476 111 1346 107 1116 L159 1116 C164 1296 287 1423 498 1423 C708 1423 812 1291 812 1112 C812 929 735 857 602 740 C476 631 435 548 433 400 L433 400 Z " />
<glyph glyph-name="at" unicode="&#x40;" horiz-adv-x="2061" d="M1085 1411 C542 1411 172 1049 146 478 C119 -96 436 -453 981 -453 C1107 -453 1275 -421 1366 -364 L1341 -318 C1253 -366 1111 -398 986 -398 C459 -398 174 -17 201 478 C230 1017 606 1354 1080 1354 C1652 1354 1880 1033 1852 523 C1836 243 1725 35 1515 35 C1446 35 1293 61 1315 293 L1367 878 C1297 935 1234 988 1100 988 C854 988 663 773 630 436 C603 162 703 -20 899 -20 C1060 -20 1181 59 1260 213 C1275 68 1369 -20 1513 -20 C1780 -20 1899 267 1909 523 C1933 1067 1680 1411 1085 1411 L1085 1411 Z M895 34 C725 34 657 213 683 436 C723 780 906 933 1095 933 C1193 933 1262 901 1309 850 L1265 345 C1173 86 1028 34 895 34 L895 34 Z " />
<glyph glyph-name="A" unicode="A" horiz-adv-x="1323" d="M1222 0 L1281 0 L695 1456 L628 1456 L42 0 L100 0 L275 435 L1047 435 L1222 0 Z M297 489 L661 1395 L1025 489 L297 489 Z " />
<glyph glyph-name="B" unicode="B" horiz-adv-x="1339" d="M869 754 C1047 784 1143 914 1143 1083 C1143 1340 947 1456 631 1456 L222 1456 L222 0 L732 0 C1017 0 1215 142 1215 401 C1215 578 1064 730 869 754 L869 754 Z M732 54 L275 54 L275 719 L743 719 C1023 719 1163 566 1163 399 C1163 182 998 54 732 54 L732 54 Z M631 1402 C932 1402 1089 1296 1089 1087 C1089 874 941 773 653 773 L275 773 L275 1402 L631 1402 Z " />
<glyph glyph-name="C" unicode="C" horiz-adv-x="1441" d="M1285 446 L1232 446 C1200 151 1019 34 728 34 C422 34 217 254 217 604 L217 859 C217 1204 422 1422 727 1422 C1026 1422 1200 1289 1232 1012 L1285 1012 C1253 1333 1040 1476 727 1476 C384 1476 164 1231 164 857 L164 604 C164 227 384 -20 728 -20 C1039 -20 1253 121 1285 446 L1285 446 Z " />
<glyph glyph-name="D" unicode="D" horiz-adv-x="1453" d="M656 1456 L222 1456 L222 0 L656 0 C1024 0 1299 246 1299 619 L1299 837 C1299 1210 1024 1456 656 1456 L656 1456 Z M1246 619 C1246 283 993 54 656 54 L275 54 L275 1402 L656 1402 C993 1402 1246 1173 1246 840 L1246 619 Z " />
<glyph glyph-name="E" unicode="E" horiz-adv-x="1267" d="M1175 1402 L1175 1456 L222 1456 L222 0 L1174 0 L1174 54 L275 54 L275 722 L1065 722 L1065 776 L275 776 L275 1402 L1175 1402 Z " />
<glyph glyph-name="F" unicode="F" horiz-adv-x="1275" d="M1193 1402 L1193 1456 L222 1456 L222 0 L275 0 L275 716 L1083 716 L1083 772 L275 772 L275 1402 L1193 1402 Z " />
<glyph glyph-name="G" unicode="G" horiz-adv-x="1526" d="M1325 156 L1325 660 L789 660 L789 605 L1272 605 L1272 181 C1224 126 1048 34 791 34 C457 34 243 263 243 600 L243 880 C243 1202 452 1422 773 1422 C1102 1422 1238 1260 1270 1062 L1322 1062 C1294 1303 1110 1476 773 1476 C430 1476 191 1239 191 878 L191 600 C191 226 434 -20 791 -20 C1094 -20 1274 94 1325 156 L1325 156 Z " />
<glyph glyph-name="H" unicode="H" horiz-adv-x="1559" d="M1284 1456 L1284 776 L275 776 L275 1456 L222 1456 L222 0 L275 0 L275 722 L1284 722 L1284 0 L1336 0 L1336 1456 L1284 1456 Z " />
<glyph glyph-name="I" unicode="I" horiz-adv-x="586" d="M319 0 L319 1456 L267 1456 L267 0 L319 0 Z " />
<glyph glyph-name="J" unicode="J" horiz-adv-x="1223" d="M953 1456 L953 442 C953 173 772 34 555 34 C290 34 157 165 157 401 L105 401 C105 116 278 -20 555 -20 C808 -20 1005 143 1005 442 L1005 1456 L953 1456 Z " />
<glyph glyph-name="K" unicode="K" horiz-adv-x="1412" d="M1254 0 L1323 0 L569 803 L1269 1456 L1191 1456 L534 847 L275 612 L275 1456 L222 1456 L222 0 L275 0 L275 550 L527 766 L1254 0 Z " />
<glyph glyph-name="L" unicode="L" horiz-adv-x="1147" d="M276 54 L276 1456 L222 1456 L222 0 L1082 0 L1082 54 L276 54 Z " />
<glyph glyph-name="M" unicode="M" horiz-adv-x="1900" d="M1678 1456 L1600 1456 L948 79 L298 1456 L222 1456 L222 0 L275 0 L275 703 L276 1376 L927 0 L969 0 L1625 1384 L1626 703 L1626 0 L1678 0 L1678 1456 Z " />
<glyph glyph-name="N" unicode="N" horiz-adv-x="1571" d="M1349 0 L1349 1456 L1296 1456 L1296 95 L276 1456 L222 1456 L222 0 L276 0 L276 1364 L1296 0 L1349 0 Z " />
<glyph glyph-name="O" unicode="O" horiz-adv-x="1479" d="M1327 599 L1327 857 C1327 1231 1097 1476 738 1476 C379 1476 152 1231 152 857 L152 599 C152 225 381 -20 740 -20 C1100 -20 1327 225 1327 599 L1327 599 Z M1275 859 L1275 599 C1275 262 1081 34 740 34 C401 34 205 262 205 599 L205 859 C205 1194 399 1422 738 1422 C1078 1422 1275 1194 1275 859 L1275 859 Z " />
<glyph glyph-name="P" unicode="P" horiz-adv-x="1333" d="M708 1456 L222 1456 L222 0 L275 0 L275 615 L708 615 C1042 615 1213 774 1213 1031 C1213 1287 1041 1456 708 1456 L708 1456 Z M708 669 L275 669 L275 1402 L708 1402 C1028 1402 1160 1235 1160 1029 C1160 831 1028 669 708 669 L708 669 Z " />
<glyph glyph-name="Q" unicode="Q" horiz-adv-x="1478" d="M1327 599 L1327 857 C1327 1231 1097 1476 738 1476 C379 1476 152 1231 152 857 L152 599 C152 225 381 -20 740 -20 C813 -20 881 -10 943 10 L1246 -263 L1283 -228 L1001 31 C1206 122 1327 326 1327 599 L1327 599 Z M740 34 C401 34 205 262 205 599 L205 859 C205 1194 399 1422 738 1422 C1078 1422 1275 1194 1275 859 L1275 599 C1275 262 1081 34 740 34 L740 34 Z " />
<glyph glyph-name="R" unicode="R" horiz-adv-x="1453" d="M1221 234 L1221 371 C1221 542 1148 674 912 711 C1116 753 1227 910 1227 1065 C1227 1323 1040 1455 713 1455 L216 1455 L216 -1 L269 -1 L269 683 L748 683 C1026 683 1168 565 1168 369 L1168 236 C1168 136 1196 54 1246 -1 L1297 -1 L1297 24 C1240 73 1221 151 1221 234 L1221 234 Z M703 737 L269 737 L269 1401 L713 1401 C1023 1401 1174 1281 1174 1065 C1174 899 1052 737 703 737 L703 737 Z " />
<glyph glyph-name="S" unicode="S" horiz-adv-x="1314" d="M677 718 C1035 627 1164 533 1164 349 C1164 162 965 34 687 34 C460 34 162 120 162 411 L110 411 C110 85 420 -20 687 -20 C978 -20 1218 113 1218 351 C1218 596 998 695 692 770 C312 860 213 967 213 1122 C213 1280 381 1422 679 1422 C960 1422 1148 1261 1148 1046 L1200 1046 C1200 1303 982 1476 680 1476 C385 1476 160 1342 160 1120 C160 886 358 799 677 718 L677 718 Z " />
<glyph glyph-name="T" unicode="T" horiz-adv-x="1329" d="M1264 1456 L65 1456 L65 1402 L638 1402 L638 0 L690 0 L690 1402 L1264 1402 L1264 1456 Z " />
<glyph glyph-name="U" unicode="U" horiz-adv-x="1483" d="M1275 1456 L1223 1456 L1223 459 C1223 178 1015 34 742 34 C468 34 260 178 260 459 L260 1456 L207 1456 L207 459 C207 132 437 -20 742 -20 C1047 -20 1275 132 1275 459 L1275 1456 Z " />
<glyph glyph-name="V" unicode="V" horiz-adv-x="1324" d="M1224 1456 L696 142 L663 49 L629 142 L101 1456 L44 1456 L629 0 L696 0 L1282 1456 L1224 1456 Z " />
<glyph glyph-name="W" unicode="W" horiz-adv-x="2010" d="M1879 1456 L1552 330 L1478 87 L1407 330 L1036 1456 L976 1456 L603 330 L532 88 L459 330 L131 1456 L72 1456 L497 0 L558 0 L558 2 L951 1214 L1005 1372 L1061 1214 L1451 2 L1451 0 L1513 0 L1936 1456 L1879 1456 Z " />
<glyph glyph-name="X" unicode="X" horiz-adv-x="1326" d="M662 785 L151 1456 L85 1456 L629 743 L64 0 L128 0 L662 701 L1196 0 L1261 0 L696 743 L1240 1456 L1173 1456 L662 785 Z " />
<glyph glyph-name="Y" unicode="Y" horiz-adv-x="1328" d="M662 602 L114 1456 L43 1456 L635 553 L635 0 L688 0 L688 553 L1280 1456 L1216 1456 L662 602 Z " />
<glyph glyph-name="Z" unicode="Z" horiz-adv-x="1329" d="M183 54 L1187 1418 L1187 1456 L152 1456 L152 1403 L1109 1403 L107 44 L107 0 L1221 0 L1221 54 L183 54 Z " />
<glyph glyph-name="bracketleft" unicode="&#x5b;" horiz-adv-x="481" d="M504 1610 L504 1664 L203 1664 L203 -312 L504 -312 L504 -258 L255 -258 L255 1610 L504 1610 Z " />
<glyph glyph-name="backslash" unicode="&#x5c;" horiz-adv-x="842" d="M68 1456 L723 -125 L780 -125 L126 1456 L68 1456 Z " />
<glyph glyph-name="bracketright" unicode="&#x5d;" horiz-adv-x="480" d="M-3 1664 L-3 1610 L243 1610 L243 -258 L-3 -258 L-3 -312 L298 -312 L298 1664 L-3 1664 Z " />
<glyph glyph-name="asciicircum" unicode="&#x5e;" horiz-adv-x="925" d="M801 729 L480 1456 L427 1456 L105 729 L163 729 L453 1383 L740 729 L801 729 Z " />
<glyph glyph-name="underscore" unicode="&#x5f;" horiz-adv-x="918" d="M912 -54 L912 0 L4 0 L4 -54 L912 -54 Z " />
<glyph glyph-name="grave" unicode="&#x60;" horiz-adv-x="596" d="M446 1270 L238 1536 L171 1536 L384 1270 L446 1270 Z " />
<glyph glyph-name="a" unicode="a" horiz-adv-x="1173" d="M977 218 L977 768 C977 996 806 1102 565 1102 C316 1102 136 958 136 786 L188 784 C188 937 352 1048 566 1048 C795 1048 924 950 924 770 L924 604 L639 604 C301 604 104 467 104 274 C104 95 245 -20 461 -20 C697 -20 846 82 924 199 C924 129 931 51 946 0 L1007 0 L1007 9 C988 53 977 140 977 218 L977 218 Z M460 33 C282 33 157 132 157 270 C157 434 335 549 641 549 L924 549 L924 287 C845 131 687 33 460 33 L460 33 Z " />
<glyph glyph-name="b" unicode="b" horiz-adv-x="1218" d="M640 1102 C448 1102 317 1015 243 885 L243 1536 L191 1536 L191 0 L244 0 L243 171 C315 62 449 -20 643 -20 C918 -20 1079 185 1079 521 L1079 562 C1079 910 917 1102 640 1102 L640 1102 Z M1024 521 C1024 227 901 34 646 34 C427 34 296 136 243 269 L243 774 C286 899 387 1048 644 1048 C901 1048 1024 856 1024 562 L1024 521 Z " />
<glyph glyph-name="c" unicode="c" horiz-adv-x="1129" d="M962 328 C948 113 768 34 584 34 C296 34 163 233 163 510 L163 572 C163 848 296 1048 583 1048 C775 1048 952 948 962 725 L1015 725 C1004 981 805 1102 583 1102 C285 1102 111 896 111 572 L111 510 C111 187 285 -20 584 -20 C811 -20 1003 101 1015 328 L962 328 Z " />
<glyph glyph-name="d" unicode="d" horiz-adv-x="1217" d="M974 1536 L974 882 C901 1014 771 1102 576 1102 C300 1102 138 910 138 562 L138 521 C138 185 298 -20 575 -20 C769 -20 903 63 974 174 L973 0 L1027 0 L1027 1536 L974 1536 Z M571 34 C316 34 193 227 193 521 L193 562 C193 856 316 1048 573 1048 C826 1048 930 903 974 780 L974 264 C920 133 787 34 571 34 L571 34 Z " />
<glyph glyph-name="e" unicode="e" horiz-adv-x="1122" d="M152 577 L1028 577 L1028 645 C1028 931 842 1102 587 1102 C318 1102 99 895 99 572 L99 508 C99 188 327 -20 608 -20 C793 -20 914 47 991 143 L955 172 C858 64 742 33 608 33 C351 33 152 232 152 508 L152 572 L152 577 Z M587 1048 C822 1048 976 876 975 649 L975 631 L155 631 C178 875 346 1048 587 1048 L587 1048 Z " />
<glyph glyph-name="f" unicode="f" horiz-adv-x="704" d="M582 1503 C641 1503 670 1498 711 1488 L720 1540 C674 1553 626 1557 582 1557 C394 1557 281 1443 281 1236 L281 1082 L77 1082 L77 1027 L281 1027 L281 0 L333 0 L333 1027 L643 1027 L643 1082 L333 1082 L333 1236 C333 1405 429 1503 582 1503 L582 1503 Z " />
<glyph glyph-name="g" unicode="g" horiz-adv-x="1169" d="M672 178 L466 178 C400 178 330 198 330 288 C330 363 392 412 432 439 C477 426 527 419 579 419 C815 419 988 565 988 740 L988 762 C988 873 933 967 842 1028 L1058 1028 L1056 1082 L724 1082 C678 1095 629 1102 576 1102 C341 1102 166 959 166 762 L166 740 C166 621 246 516 372 460 C325 423 276 368 276 288 C276 214 311 170 359 147 C226 95 105 -7 105 -152 C105 -310 253 -438 537 -438 C878 -438 1068 -260 1068 -107 C1068 83 897 178 672 178 L672 178 Z M219 740 L219 762 C219 912 360 1048 576 1048 C794 1048 935 912 935 762 L935 740 C935 609 797 473 579 473 C524 473 473 482 429 497 L428 499 C427 499 427 498 426 498 C296 543 219 643 219 740 L219 740 Z M537 -384 C276 -384 158 -280 158 -152 C158 -20 297 103 462 124 L468 124 L672 124 C911 124 1015 23 1015 -107 C1015 -232 846 -384 537 -384 L537 -384 Z " />
<glyph glyph-name="h" unicode="h" horiz-adv-x="1218" d="M661 1102 C463 1102 314 978 245 821 L245 1536 L192 1536 L192 0 L245 0 L245 685 C277 826 398 1049 660 1049 C847 1049 979 975 979 700 L979 0 L1031 0 L1031 700 C1031 987 897 1102 661 1102 L661 1102 Z " />
<glyph glyph-name="i" unicode="i" horiz-adv-x="463" d="M260 0 L260 1082 L207 1082 L207 0 L260 0 Z M233 1476 C201 1476 176 1451 176 1420 C176 1389 201 1365 233 1365 C264 1365 291 1389 291 1420 C291 1451 264 1476 233 1476 L233 1476 Z " />
<glyph glyph-name="j" unicode="j" horiz-adv-x="490" d="M261 1082 L208 1082 L208 -129 C208 -290 117 -383 -45 -383 C-85 -383 -125 -373 -147 -365 L-151 -417 C-117 -430 -82 -437 -47 -437 C146 -437 261 -328 261 -129 L261 1082 Z M241 1476 C208 1476 184 1451 184 1420 C184 1389 208 1365 241 1365 C272 1365 298 1389 298 1420 C298 1451 272 1476 241 1476 L241 1476 Z " />
<glyph glyph-name="k" unicode="k" horiz-adv-x="1052" d="M1029 0 L459 622 L996 1082 L919 1082 L383 627 L245 505 L245 1536 L192 1536 L192 0 L245 0 L245 447 L413 583 L417 586 L959 0 L1029 0 Z " />
<glyph glyph-name="l" unicode="l" horiz-adv-x="653" d="M262 1536 L208 1536 L208 259 C208 42 296 -20 444 -20 C473 -20 534 -18 565 -8 L555 43 C514 38 483 34 439 34 C344 34 262 69 262 259 L262 1536 Z " />
<glyph glyph-name="m" unicode="m" horiz-adv-x="1989" d="M1443 1102 C1231 1102 1075 985 1012 839 C976 1025 848 1102 649 1102 C449 1102 301 975 234 815 L234 1082 L180 1082 L180 0 L234 0 L234 676 C262 816 383 1049 649 1049 C835 1049 970 979 970 720 L970 0 L1022 0 L1022 720 C1034 836 1163 1046 1441 1049 C1628 1051 1763 975 1763 700 L1763 0 L1815 0 L1815 700 C1815 987 1678 1102 1443 1102 L1443 1102 Z " />
<glyph glyph-name="n" unicode="n" horiz-adv-x="1218" d="M662 1102 C463 1102 314 978 245 821 L245 851 L246 1082 L192 1082 L192 0 L245 0 L245 685 C277 826 399 1049 660 1049 C847 1049 979 975 979 700 L979 0 L1031 0 L1031 700 C1031 987 897 1102 662 1102 L662 1102 Z " />
<glyph glyph-name="o" unicode="o" horiz-adv-x="1223" d="M107 572 L107 510 C107 193 311 -20 613 -20 C914 -20 1115 193 1115 510 L1115 572 C1115 889 914 1102 610 1102 C311 1102 107 889 107 572 L107 572 Z M160 510 L160 572 C160 824 324 1048 610 1048 C898 1048 1063 824 1063 572 L1063 510 C1063 252 899 34 613 34 C324 34 160 252 160 510 L160 510 Z " />
<glyph glyph-name="p" unicode="p" horiz-adv-x="1217" d="M640 1102 C449 1102 318 1016 243 888 L244 1082 L190 1082 L190 759 L189 755 L189 295 L190 291 L190 -416 L243 -416 L243 169 C316 60 450 -20 643 -20 C918 -20 1079 185 1079 521 L1079 562 C1079 910 917 1102 640 1102 L640 1102 Z M1026 521 C1026 227 902 34 646 34 C429 34 298 133 243 265 L243 780 C287 903 391 1048 644 1048 C902 1048 1026 856 1026 562 L1026 521 Z " />
<glyph glyph-name="q" unicode="q" horiz-adv-x="1216" d="M1028 755 L1027 759 L1027 1082 L973 1082 L974 888 C899 1016 767 1102 576 1102 C301 1102 138 910 138 562 L138 521 C138 185 299 -20 574 -20 C766 -20 901 61 974 169 L974 -416 L1027 -416 L1027 290 L1028 294 L1028 755 Z M571 34 C316 34 193 227 193 521 L193 562 C193 856 316 1048 573 1048 C822 1048 930 899 974 779 L974 265 C919 133 788 34 571 34 L571 34 Z " />
<glyph glyph-name="r" unicode="r" horiz-adv-x="749" d="M629 1102 C436 1102 309 1005 245 852 L245 1082 L192 1082 L192 0 L245 0 L245 706 C282 902 410 1049 630 1049 C656 1049 682 1046 704 1043 L711 1091 C692 1097 665 1102 629 1102 L629 1102 Z " />
<glyph glyph-name="s" unicode="s" horiz-adv-x="1107" d="M552 531 C840 462 911 361 911 263 C911 150 788 34 557 34 C386 34 189 87 175 273 L122 273 C122 114 276 -20 557 -20 C806 -20 964 95 964 262 C964 432 839 511 569 578 C266 655 213 725 213 832 C213 933 310 1048 548 1048 C781 1048 910 928 910 794 L964 794 C964 978 808 1102 548 1102 C305 1102 160 981 160 830 C160 660 293 594 552 531 L552 531 Z " />
<glyph glyph-name="t" unicode="t" horiz-adv-x="709" d="M611 43 C570 38 539 34 495 34 C400 34 318 69 318 259 L318 1027 L584 1027 L584 1082 L318 1082 L318 1374 L264 1374 L264 1082 L49 1082 L49 1027 L264 1027 L264 259 C264 42 352 -20 500 -20 C529 -20 590 -18 621 -8 L611 43 Z " />
<glyph glyph-name="u" unicode="u" horiz-adv-x="1218" d="M1032 425 L1029 425 L1029 1082 L975 1082 L975 325 C944 167 832 34 568 34 C379 34 241 128 241 393 L241 1082 L188 1082 L188 395 C188 93 343 -20 571 -20 C776 -20 907 57 975 179 L975 0 L1029 0 L1029 362 C1031 382 1032 403 1032 425 L1032 425 Z " />
<glyph glyph-name="v" unicode="v" horiz-adv-x="1064" d="M957 1082 L532 84 L110 1082 L53 1082 L506 0 L559 0 L1014 1082 L957 1082 Z " />
<glyph glyph-name="w" unicode="w" horiz-adv-x="1681" d="M1509 1082 L1273 313 L1205 75 L1122 313 L863 1082 L807 1082 L547 313 L464 75 L396 313 L159 1082 L98 1082 L435 0 L489 0 L772 813 L834 1013 L893 813 L1178 0 L1233 0 L1572 1082 L1509 1082 Z " />
<glyph glyph-name="x" unicode="x" horiz-adv-x="1063" d="M532 602 L154 1082 L88 1082 L498 555 L66 0 L131 0 L530 508 L930 0 L996 0 L564 555 L974 1082 L908 1082 L532 602 Z " />
<glyph glyph-name="y" unicode="y" horiz-adv-x="1065" d="M963 1082 L558 104 L549 82 L110 1082 L53 1082 L519 7 L448 -170 C398 -295 335 -384 191 -384 C177 -384 133 -380 111 -375 L112 -426 C129 -433 174 -437 198 -437 C410 -437 465 -271 502 -180 L1021 1082 L963 1082 Z " />
<glyph glyph-name="z" unicode="z" horiz-adv-x="1063" d="M175 54 L941 1034 L941 1082 L134 1082 L134 1027 L866 1027 L99 44 L99 0 L1006 0 L1006 54 L175 54 Z " />
<glyph glyph-name="braceleft" unicode="&#x7b;" horiz-adv-x="720" d="M408 20 L408 265 C408 416 343 541 184 576 C343 611 408 734 408 885 L408 1132 C408 1331 499 1489 712 1552 L697 1597 C436 1520 356 1342 356 1132 L356 885 C356 717 276 609 85 609 L85 543 C276 543 356 434 356 265 L356 20 C356 -190 436 -364 697 -441 L718 -395 C505 -329 408 -181 408 20 L408 20 Z " />
<glyph glyph-name="bar" unicode="&#x7c;" horiz-adv-x="451" d="M259 -270 L259 1456 L203 1456 L203 -270 L259 -270 Z " />
<glyph glyph-name="braceright" unicode="&#x7d;" horiz-adv-x="721" d="M367 885 L367 1132 C367 1342 288 1520 25 1597 L11 1552 C225 1489 314 1331 314 1132 L314 885 C314 734 380 611 539 576 C380 541 314 416 314 265 L314 20 C314 -181 217 -329 6 -395 L25 -441 C288 -364 367 -190 367 20 L367 265 C367 434 447 543 637 543 L637 609 C447 609 367 717 367 885 L367 885 Z " />
<glyph glyph-name="asciitilde" unicode="&#x7e;" horiz-adv-x="1532" d="M1346 752 L1290 753 C1290 596 1210 496 1059 496 C965 496 899 531 788 624 C676 718 596 774 466 774 C267 774 179 631 179 462 L234 462 C234 632 322 720 466 720 C570 720 631 682 738 593 C854 496 930 443 1059 443 C1254 443 1346 589 1346 752 L1346 752 Z " />
<glyph glyph-name="uni00A0" unicode="&#xa0;" horiz-adv-x="539" />
<glyph glyph-name="exclamdown" unicode="&#xa1;" horiz-adv-x="445" d="M199 696 L200 -359 L252 -359 L253 696 L199 696 Z M217 992 C249 992 274 1017 274 1048 C274 1079 249 1103 217 1103 C185 1103 159 1079 159 1048 C159 1017 185 992 217 992 L217 992 Z " />
<glyph glyph-name="cent" unicode="&#xa2;" horiz-adv-x="1076" d="M628 34 C340 34 207 233 207 510 L207 572 C207 848 340 1048 627 1048 C819 1048 996 948 1006 725 L1059 725 C1048 971 864 1092 653 1101 L653 1318 L600 1318 L600 1101 C319 1089 155 886 155 572 L155 510 C155 197 318 -7 600 -19 L600 -245 L653 -245 L653 -20 C869 -11 1047 109 1059 328 L1006 328 C992 113 812 34 628 34 L628 34 Z " />
<glyph glyph-name="sterling" unicode="&#xa3;" horiz-adv-x="1248" d="M244 54 L113 54 L113 0 L1145 0 L1144 54 L330 54 C380 112 404 206 400 336 L390 667 L788 667 L788 721 L388 721 L378 1039 C378 1287 508 1422 717 1422 C907 1422 1064 1325 1064 1089 L1117 1089 C1117 1317 975 1476 716 1476 C479 1476 323 1315 330 1039 L338 721 L108 721 L108 667 L340 667 L348 336 C351 216 322 75 244 54 L244 54 Z " />
<glyph glyph-name="currency" unicode="&#xa4;" horiz-adv-x="1670" d="M1486 608 C1486 772 1423 919 1319 1029 L1531 1225 L1490 1265 L1277 1069 C1159 1172 1001 1234 828 1234 C655 1234 497 1173 379 1071 L168 1264 L128 1225 L338 1032 C232 922 167 774 167 608 C167 448 227 305 327 196 L128 13 L168 -26 L367 156 C486 46 648 -20 828 -20 C1008 -20 1170 47 1289 158 L1490 -27 L1531 13 L1330 199 C1427 308 1486 450 1486 608 L1486 608 Z M828 33 C497 33 223 290 223 608 C223 925 497 1181 828 1181 C1158 1181 1432 925 1432 608 C1432 290 1158 33 828 33 L828 33 Z " />
<glyph glyph-name="yen" unicode="&#xa5;" horiz-adv-x="1128" d="M1080 1456 L1019 1456 L597 738 L568 687 L554 687 L525 738 L103 1456 L43 1456 L507 676 L111 676 L111 621 L535 621 L535 381 L111 381 L111 326 L535 326 L535 0 L587 0 L587 326 L1012 326 L1012 381 L587 381 L587 621 L1012 621 L1012 676 L614 676 L1080 1456 Z " />
<glyph glyph-name="brokenbar" unicode="&#xa6;" horiz-adv-x="440" d="M194 -270 L248 -270 L248 482 L194 482 L194 -270 Z M248 698 L248 1456 L194 1456 L194 698 L248 698 Z " />
<glyph glyph-name="section" unicode="&#xa7;" horiz-adv-x="1327" d="M857 164 C1057 191 1181 292 1181 431 C1181 656 988 729 667 807 C319 892 238 968 238 1132 C238 1292 372 1422 671 1422 C952 1422 1105 1253 1105 1045 L1158 1045 C1158 1323 974 1476 671 1476 C376 1476 186 1339 186 1129 C186 971 278 885 443 822 C253 795 137 696 137 551 C137 325 347 236 661 166 C1000 84 1080 2 1080 -151 C1080 -319 926 -441 651 -441 C434 -441 184 -353 184 -62 L131 -64 C131 -388 395 -495 651 -495 C943 -495 1133 -367 1133 -149 C1133 16 1035 101 857 164 L857 164 Z M190 553 C190 682 293 786 520 796 C557 785 597 774 640 764 C1015 673 1129 593 1129 428 C1129 303 994 200 756 196 C731 203 704 210 677 217 C285 315 190 379 190 553 L190 553 Z " />
<glyph glyph-name="dieresis" unicode="&#xa8;" horiz-adv-x="1010" d="M256 1477 C224 1477 197 1452 197 1421 C197 1390 224 1366 256 1366 C289 1366 316 1390 316 1421 C316 1452 289 1477 256 1477 L256 1477 Z M750 1477 C717 1477 691 1452 691 1421 C691 1390 717 1366 750 1366 C782 1366 810 1390 810 1421 C810 1452 782 1477 750 1477 L750 1477 Z " />
<glyph glyph-name="copyright" unicode="&#xa9;" horiz-adv-x="1853" d="M1248 616 L1195 616 C1195 437 1096 357 919 357 C731 357 623 502 623 689 L623 769 C623 954 731 1102 919 1102 C1096 1102 1196 1016 1196 842 L1249 842 C1249 1051 1119 1155 919 1155 C708 1155 566 997 566 768 L566 689 C566 459 708 302 919 302 C1119 302 1248 406 1248 616 L1248 616 Z M927 1476 C494 1476 140 1152 140 729 C140 306 494 -21 927 -21 C1361 -21 1714 306 1714 729 C1714 1152 1361 1476 927 1476 L927 1476 Z M927 34 C528 34 200 341 200 729 C200 1117 528 1421 927 1421 C1325 1421 1654 1117 1654 729 C1654 341 1325 34 927 34 L927 34 Z " />
<glyph glyph-name="guillemotleft" unicode="&#xab;" horiz-adv-x="984" d="M557 904 L484 904 L167 534 L167 515 L484 145 L557 145 L240 525 L557 904 Z M824 904 L751 904 L434 534 L434 515 L751 145 L824 145 L507 525 L824 904 Z " />
<glyph glyph-name="logicalnot" unicode="&#xac;" horiz-adv-x="1196" d="M137 753 L137 700 L936 700 L936 396 L989 396 L989 753 L137 753 Z " />
<glyph glyph-name="uni00AD" unicode="&#xad;" horiz-adv-x="667" d="M580 639 L580 693 L75 693 L75 639 L580 639 Z " />
<glyph glyph-name="registered" unicode="&#xae;" horiz-adv-x="1863" d="M918 1476 C484 1476 131 1152 131 729 C131 306 484 -21 918 -21 C1352 -21 1705 306 1705 729 C1705 1152 1352 1476 918 1476 L918 1476 Z M1245 916 C1245 1074 1139 1156 927 1156 L663 1156 L663 326 L720 326 L720 678 L957 678 C1108 678 1163 629 1163 504 L1163 470 C1163 441 1163 360 1179 326 L1240 326 L1240 342 C1228 372 1222 419 1222 469 L1222 505 C1222 598 1187 678 1079 709 C1184 743 1245 817 1245 916 L1245 916 Z M918 34 C519 34 189 341 189 729 C189 1117 519 1421 918 1421 C1316 1421 1645 1117 1645 729 C1645 341 1316 34 918 34 L918 34 Z M950 734 L720 734 L720 1101 L927 1101 C1124 1101 1188 1042 1188 917 C1188 797 1080 734 950 734 L950 734 Z " />
<glyph glyph-name="macron" unicode="&#xaf;" horiz-adv-x="879" d="M754 1383 L754 1436 L148 1436 L148 1383 L754 1383 Z " />
<glyph glyph-name="degree" unicode="&#xb0;" horiz-adv-x="873" d="M437 1476 C293 1476 176 1367 176 1236 C176 1103 293 999 437 999 C577 999 693 1103 693 1236 C693 1367 577 1476 437 1476 L437 1476 Z M437 1055 C321 1055 234 1131 234 1236 C234 1343 321 1421 437 1421 C551 1421 634 1343 634 1236 C634 1131 551 1055 437 1055 L437 1055 Z " />
<glyph glyph-name="plusminus" unicode="&#xb1;" horiz-adv-x="1170" d="M139 -1 L1038 -1 L1038 53 L139 53 L139 -1 Z M615 805 L615 1267 L562 1267 L562 805 L83 805 L83 751 L562 751 L562 289 L615 289 L615 751 L1068 751 L1068 805 L615 805 Z " />
<glyph glyph-name="uni00B2" unicode="&#xb2;" horiz-adv-x="795" d="M707 664 L707 713 L192 713 L464 963 C563 1053 658 1150 658 1248 C658 1384 550 1464 391 1464 C211 1464 102 1356 102 1226 L155 1226 C155 1335 236 1415 391 1415 C532 1415 604 1349 604 1247 C604 1181 555 1112 438 1002 L125 708 L126 664 L707 664 Z " />
<glyph glyph-name="uni00B3" unicode="&#xb3;" horiz-adv-x="795" d="M505 1068 C611 1099 672 1170 672 1246 C672 1384 564 1464 397 1464 C240 1464 113 1377 113 1246 L166 1246 C166 1350 268 1415 397 1415 C550 1415 618 1341 618 1249 C618 1162 534 1090 374 1090 L299 1090 L299 1041 L374 1041 C529 1041 639 993 639 874 C639 766 552 701 403 701 C257 701 148 775 148 881 L95 881 C95 725 255 653 403 653 C569 653 692 734 692 875 C692 971 627 1041 505 1068 L505 1068 Z " />
<glyph glyph-name="acute" unicode="&#xb4;" horiz-adv-x="564" d="M350 1536 L141 1270 L204 1270 L417 1536 L350 1536 Z " />
<glyph glyph-name="uni00B5" unicode="&#xb5;" horiz-adv-x="1216" d="M1032 505 L1029 505 L1029 1082 L976 1082 L976 417 C960 198 870 34 574 34 C403 34 241 118 241 440 L241 1082 L190 1082 L190 377 L189 372 C189 368 190 365 190 361 L190 -416 L241 -416 L241 173 C314 28 449 -20 583 -20 C786 -20 912 68 976 209 L979 0 L1029 0 L1029 427 C1031 452 1032 478 1032 505 L1032 505 Z " />
<glyph glyph-name="paragraph" unicode="&#xb6;" horiz-adv-x="1028" d="M779 0 L832 0 L832 1456 L643 1456 C301 1456 114 1256 114 988 C114 718 301 520 643 520 L779 520 L779 0 Z " />
<glyph glyph-name="periodcentered" unicode="&#xb7;" horiz-adv-x="517" d="M257 762 C226 762 200 737 200 706 C200 675 226 651 257 651 C289 651 314 675 314 706 C314 737 289 762 257 762 L257 762 Z " />
<glyph glyph-name="cedilla" unicode="&#xb8;" horiz-adv-x="539" d="M226 0 L172 0 L146 -121 C279 -134 350 -157 350 -245 C350 -344 208 -386 92 -386 L99 -435 C288 -435 406 -359 406 -245 C406 -124 311 -85 214 -76 L226 0 Z " />
<glyph glyph-name="uni00B9" unicode="&#xb9;" horiz-adv-x="795" d="M471 664 L471 1455 L462 1455 L150 1358 L150 1305 L418 1386 L418 664 L471 664 Z " />
<glyph glyph-name="guillemotright" unicode="&#xbb;" horiz-adv-x="975" d="M535 541 L535 560 L219 940 L147 940 L464 551 L147 171 L219 171 L535 541 Z M493 940 L421 940 L738 551 L421 171 L493 171 L809 541 L809 560 L493 940 Z " />
<glyph glyph-name="onequarter" unicode="&#xbc;" horiz-adv-x="1418" d="M1482 253 L1322 253 L1322 789 L1262 789 L812 236 L812 204 L1270 204 L1270 0 L1322 0 L1322 204 L1482 204 L1482 253 Z M1106 1308 L341 170 L387 139 L1152 1277 L1106 1308 Z M436 664 L489 664 L489 1455 L480 1455 L168 1358 L168 1305 L436 1386 L436 664 Z M883 253 L1221 656 L1270 732 L1270 253 L883 253 Z " />
<glyph glyph-name="onehalf" unicode="&#xbd;" horiz-adv-x="1458" d="M987 49 L1259 299 C1358 389 1453 486 1453 584 C1453 720 1345 800 1186 800 C1006 800 897 692 897 562 L950 562 C950 671 1031 751 1186 751 C1327 751 1399 685 1399 583 C1399 517 1350 448 1233 338 L920 44 L921 0 L1502 0 L1502 49 L987 49 Z M459 732 L459 1455 L450 1455 L138 1358 L138 1305 L406 1386 L406 664 L413 664 L76 162 L122 131 L887 1269 L841 1300 L459 732 Z " />
<glyph glyph-name="threequarters" unicode="&#xbe;" horiz-adv-x="1533" d="M1537 253 L1377 253 L1377 789 L1317 789 L867 236 L867 204 L1325 204 L1325 0 L1377 0 L1377 204 L1537 204 L1537 253 Z M887 1269 L841 1300 L657 1026 C629 1044 594 1059 552 1068 C658 1099 719 1170 719 1246 C719 1384 611 1464 444 1464 C287 1464 160 1377 160 1246 L213 1246 C213 1350 315 1415 444 1415 C597 1415 665 1341 665 1249 C665 1162 581 1090 421 1090 L346 1090 L346 1041 L421 1041 C510 1041 585 1025 632 989 L438 701 C298 705 195 778 195 881 L142 881 C142 740 273 668 407 655 L76 162 L122 131 L473 654 C627 661 739 741 739 875 C739 919 725 957 699 989 L887 1269 Z M938 253 L1276 656 L1325 732 L1325 253 L938 253 Z M686 874 C686 781 621 720 508 705 L669 945 C680 925 686 901 686 874 L686 874 Z " />
<glyph glyph-name="questiondown" unicode="&#xbf;" horiz-adv-x="991" d="M556 695 L504 695 C504 580 504 522 399 443 C230 314 124 188 124 -15 C124 -232 264 -381 501 -381 C711 -381 878 -263 881 -21 L828 -21 C824 -201 713 -328 501 -328 C292 -328 177 -211 177 -17 C177 193 290 286 424 403 C550 512 554 547 556 695 L556 695 Z M526 990 C558 990 583 1015 583 1046 C583 1077 558 1101 526 1101 C495 1101 468 1077 468 1046 C468 1015 495 990 526 990 L526 990 Z " />
<glyph glyph-name="Agrave" unicode="&#xc0;" horiz-adv-x="1323" d="M1222 0 L1281 0 L695 1456 L628 1456 L42 0 L100 0 L275 435 L1047 435 L1222 0 Z M707 1589 L499 1855 L432 1855 L645 1589 L707 1589 Z M297 489 L661 1395 L1025 489 L297 489 Z " />
<glyph glyph-name="Aacute" unicode="&#xc1;" horiz-adv-x="1323" d="M1222 0 L1281 0 L695 1456 L628 1456 L42 0 L100 0 L275 435 L1047 435 L1222 0 Z M896 1855 L829 1855 L620 1589 L683 1589 L896 1855 Z M297 489 L661 1395 L1025 489 L297 489 Z " />
<glyph glyph-name="Acircumflex" unicode="&#xc2;" horiz-adv-x="1323" d="M1222 0 L1281 0 L695 1456 L628 1456 L42 0 L100 0 L275 435 L1047 435 L1222 0 Z M661 1779 L863 1583 L933 1583 L933 1593 L682 1836 L642 1836 L395 1597 L395 1583 L460 1583 L661 1779 Z M297 489 L661 1395 L1025 489 L297 489 Z " />
<glyph glyph-name="Atilde" unicode="&#xc3;" horiz-adv-x="1323" d="M1222 0 L1281 0 L695 1456 L628 1456 L42 0 L100 0 L275 435 L1047 435 L1222 0 Z M516 1745 C644 1745 671 1620 826 1620 C930 1620 1014 1695 1014 1806 L957 1806 C957 1722 898 1675 826 1675 C705 1675 667 1799 516 1799 C411 1799 329 1730 329 1620 L385 1620 C385 1704 443 1745 516 1745 L516 1745 Z M297 489 L661 1395 L1025 489 L297 489 Z " />
<glyph glyph-name="Adieresis" unicode="&#xc4;" horiz-adv-x="1323" d="M1222 0 L1281 0 L695 1456 L628 1456 L42 0 L100 0 L275 435 L1047 435 L1222 0 Z M416 1685 C449 1685 476 1709 476 1740 C476 1771 449 1796 416 1796 C384 1796 357 1771 357 1740 C357 1709 384 1685 416 1685 L416 1685 Z M910 1685 C942 1685 970 1709 970 1740 C970 1771 942 1796 910 1796 C877 1796 851 1771 851 1740 C851 1709 877 1685 910 1685 L910 1685 Z M297 489 L661 1395 L1025 489 L297 489 Z " />
<glyph glyph-name="Aring" unicode="&#xc5;" horiz-adv-x="1323" d="M1222 0 L1281 0 L695 1456 L628 1456 L42 0 L100 0 L275 435 L1047 435 L1222 0 Z M665 1531 C769 1531 852 1603 852 1701 C852 1799 769 1875 665 1875 C560 1875 477 1799 477 1701 C477 1603 560 1531 665 1531 L665 1531 Z M297 489 L661 1395 L1025 489 L297 489 Z M665 1821 C740 1821 794 1772 794 1701 C794 1632 740 1585 665 1585 C589 1585 534 1632 534 1701 C534 1772 589 1821 665 1821 L665 1821 Z " />
<glyph glyph-name="AE" unicode="&#xc6;" horiz-adv-x="1963" d="M1151 54 L1120 732 L1750 732 L1750 786 L1118 786 L1090 1402 L1838 1402 L1838 1456 L1010 1456 L63 0 L126 0 L402 425 L1081 425 L1081 426 L1100 0 L1904 0 L1904 54 L1151 54 Z M437 478 L1037 1401 L1079 478 L437 478 Z " />
<glyph glyph-name="Ccedilla" unicode="&#xc7;" horiz-adv-x="1441" d="M728 34 C422 34 217 254 217 604 L217 859 C217 1204 422 1422 727 1422 C1026 1422 1200 1289 1232 1012 L1285 1012 C1253 1333 1040 1476 727 1476 C384 1476 164 1231 164 857 L164 604 C164 234 375 -10 708 -20 L684 -131 C817 -144 888 -167 888 -255 C888 -354 746 -396 630 -396 L637 -445 C826 -445 944 -369 944 -255 C944 -134 849 -95 752 -86 L763 -19 C1055 -9 1254 133 1285 446 L1232 446 C1200 151 1019 34 728 34 L728 34 Z " />
<glyph glyph-name="Egrave" unicode="&#xc8;" horiz-adv-x="1267" d="M1175 1402 L1175 1456 L222 1456 L222 0 L1174 0 L1174 54 L275 54 L275 722 L1065 722 L1065 776 L275 776 L275 1402 L1175 1402 Z M717 1589 L509 1855 L442 1855 L655 1589 L717 1589 Z " />
<glyph glyph-name="Eacute" unicode="&#xc9;" horiz-adv-x="1267" d="M1175 1402 L1175 1456 L222 1456 L222 0 L1174 0 L1174 54 L275 54 L275 722 L1065 722 L1065 776 L275 776 L275 1402 L1175 1402 Z M906 1855 L839 1855 L630 1589 L693 1589 L906 1855 Z " />
<glyph glyph-name="Ecircumflex" unicode="&#xca;" horiz-adv-x="1267" d="M1175 1402 L1175 1456 L222 1456 L222 0 L1174 0 L1174 54 L275 54 L275 722 L1065 722 L1065 776 L275 776 L275 1402 L1175 1402 Z M671 1779 L873 1583 L943 1583 L943 1593 L692 1836 L652 1836 L405 1597 L405 1583 L470 1583 L671 1779 Z " />
<glyph glyph-name="Edieresis" unicode="&#xcb;" horiz-adv-x="1267" d="M1175 1402 L1175 1456 L222 1456 L222 0 L1174 0 L1174 54 L275 54 L275 722 L1065 722 L1065 776 L275 776 L275 1402 L1175 1402 Z M426 1685 C459 1685 486 1709 486 1740 C486 1771 459 1796 426 1796 C394 1796 367 1771 367 1740 C367 1709 394 1685 426 1685 L426 1685 Z M920 1685 C952 1685 980 1709 980 1740 C980 1771 952 1796 920 1796 C887 1796 861 1771 861 1740 C861 1709 887 1685 920 1685 L920 1685 Z " />
<glyph glyph-name="Igrave" unicode="&#xcc;" horiz-adv-x="586" d="M319 0 L319 1456 L267 1456 L267 0 L319 0 Z M339 1589 L131 1855 L64 1855 L277 1589 L339 1589 Z " />
<glyph glyph-name="Iacute" unicode="&#xcd;" horiz-adv-x="586" d="M319 0 L319 1456 L267 1456 L267 0 L319 0 Z M461 1855 L252 1589 L315 1589 L528 1855 L461 1855 Z " />
<glyph glyph-name="Icircumflex" unicode="&#xce;" horiz-adv-x="586" d="M319 0 L319 1456 L267 1456 L267 0 L319 0 Z M565 1593 L314 1836 L274 1836 L27 1597 L27 1583 L92 1583 L293 1779 L495 1583 L565 1583 L565 1593 Z " />
<glyph glyph-name="Idieresis" unicode="&#xcf;" horiz-adv-x="586" d="M319 0 L319 1456 L267 1456 L267 0 L319 0 Z M48 1796 C16 1796 -11 1771 -11 1740 C-11 1709 16 1685 48 1685 C81 1685 108 1709 108 1740 C108 1771 81 1796 48 1796 L48 1796 Z M542 1796 C509 1796 483 1771 483 1740 C483 1709 509 1685 542 1685 C574 1685 602 1709 602 1740 C602 1771 574 1796 542 1796 L542 1796 Z " />
<glyph glyph-name="Eth" unicode="&#xd0;" horiz-adv-x="1453" d="M656 1456 L222 1456 L222 767 L73 767 L73 713 L222 713 L222 0 L656 0 C1024 0 1299 246 1299 619 L1299 837 C1299 1210 1024 1456 656 1456 L656 1456 Z M1246 619 C1246 283 993 54 656 54 L275 54 L275 713 L703 713 L703 767 L275 767 L275 1402 L656 1402 C993 1402 1246 1173 1246 840 L1246 619 Z " />
<glyph glyph-name="Ntilde" unicode="&#xd1;" horiz-adv-x="1571" d="M1349 0 L1349 1456 L1296 1456 L1296 95 L276 1456 L222 1456 L222 0 L276 0 L276 1364 L1296 0 L1349 0 Z M1139 1806 L1082 1806 C1082 1722 1023 1675 951 1675 C830 1675 792 1799 641 1799 C536 1799 454 1730 454 1620 L510 1620 C510 1704 568 1745 641 1745 C769 1745 796 1620 951 1620 C1055 1620 1139 1695 1139 1806 L1139 1806 Z " />
<glyph glyph-name="Ograve" unicode="&#xd2;" horiz-adv-x="1479" d="M1327 599 L1327 857 C1327 1231 1097 1476 738 1476 C379 1476 152 1231 152 857 L152 599 C152 225 381 -20 740 -20 C1100 -20 1327 225 1327 599 L1327 599 Z M777 1610 L569 1876 L502 1876 L715 1610 L777 1610 Z M1275 859 L1275 599 C1275 262 1081 34 740 34 C401 34 205 262 205 599 L205 859 C205 1194 399 1422 738 1422 C1078 1422 1275 1194 1275 859 L1275 859 Z " />
<glyph glyph-name="Oacute" unicode="&#xd3;" horiz-adv-x="1479" d="M1327 599 L1327 857 C1327 1231 1097 1476 738 1476 C379 1476 152 1231 152 857 L152 599 C152 225 381 -20 740 -20 C1100 -20 1327 225 1327 599 L1327 599 Z M899 1876 L690 1610 L753 1610 L966 1876 L899 1876 Z M1275 859 L1275 599 C1275 262 1081 34 740 34 C401 34 205 262 205 599 L205 859 C205 1194 399 1422 738 1422 C1078 1422 1275 1194 1275 859 L1275 859 Z " />
<glyph glyph-name="Ocircumflex" unicode="&#xd4;" horiz-adv-x="1479" d="M1327 599 L1327 857 C1327 1231 1097 1476 738 1476 C379 1476 152 1231 152 857 L152 599 C152 225 381 -20 740 -20 C1100 -20 1327 225 1327 599 L1327 599 Z M1003 1614 L752 1857 L712 1857 L465 1618 L465 1604 L530 1604 L731 1800 L933 1604 L1003 1604 L1003 1614 Z M1275 859 L1275 599 C1275 262 1081 34 740 34 C401 34 205 262 205 599 L205 859 C205 1194 399 1422 738 1422 C1078 1422 1275 1194 1275 859 L1275 859 Z " />
<glyph glyph-name="Otilde" unicode="&#xd5;" horiz-adv-x="1479" d="M1327 599 L1327 857 C1327 1231 1097 1476 738 1476 C379 1476 152 1231 152 857 L152 599 C152 225 381 -20 740 -20 C1100 -20 1327 225 1327 599 L1327 599 Z M1084 1827 L1027 1827 C1027 1743 968 1696 896 1696 C775 1696 737 1820 586 1820 C481 1820 399 1751 399 1641 L455 1641 C455 1725 513 1766 586 1766 C714 1766 741 1641 896 1641 C1000 1641 1084 1716 1084 1827 L1084 1827 Z M1275 859 L1275 599 C1275 262 1081 34 740 34 C401 34 205 262 205 599 L205 859 C205 1194 399 1422 738 1422 C1078 1422 1275 1194 1275 859 L1275 859 Z " />
<glyph glyph-name="Odieresis" unicode="&#xd6;" horiz-adv-x="1479" d="M1327 599 L1327 857 C1327 1231 1097 1476 738 1476 C379 1476 152 1231 152 857 L152 599 C152 225 381 -20 740 -20 C1100 -20 1327 225 1327 599 L1327 599 Z M486 1817 C454 1817 427 1792 427 1761 C427 1730 454 1706 486 1706 C519 1706 546 1730 546 1761 C546 1792 519 1817 486 1817 L486 1817 Z M980 1817 C947 1817 921 1792 921 1761 C921 1730 947 1706 980 1706 C1012 1706 1040 1730 1040 1761 C1040 1792 1012 1817 980 1817 L980 1817 Z M1275 859 L1275 599 C1275 262 1081 34 740 34 C401 34 205 262 205 599 L205 859 C205 1194 399 1422 738 1422 C1078 1422 1275 1194 1275 859 L1275 859 Z " />
<glyph glyph-name="multiply" unicode="&#xd7;" horiz-adv-x="1142" d="M1020 36 L605 429 L989 793 L950 832 L565 467 L180 832 L142 793 L526 430 L111 36 L150 -1 L566 392 L981 -1 L1020 36 Z " />
<glyph glyph-name="Oslash" unicode="&#xd8;" horiz-adv-x="1320" d="M1338 1495 L1269 1495 L1152 1324 C1051 1421 910 1476 740 1476 C381 1476 154 1231 154 857 L154 599 C154 399 219 236 335 127 L197 -75 L265 -75 L379 91 C474 20 598 -20 742 -20 C1102 -20 1329 225 1329 599 L1329 857 C1329 1030 1280 1175 1192 1281 L1338 1495 Z M207 599 L207 859 C207 1194 401 1422 740 1422 C902 1422 1031 1370 1122 1280 L365 172 C262 271 207 420 207 599 L207 599 Z M1277 859 L1277 599 C1277 262 1083 34 742 34 C607 34 495 70 408 135 L1161 1236 C1237 1140 1277 1010 1277 859 L1277 859 Z " />
<glyph glyph-name="Ugrave" unicode="&#xd9;" horiz-adv-x="1483" d="M1275 1456 L1223 1456 L1223 459 C1223 178 1015 34 742 34 C468 34 260 178 260 459 L260 1456 L207 1456 L207 459 C207 132 437 -20 742 -20 C1047 -20 1275 132 1275 459 L1275 1456 Z M802 1589 L594 1855 L527 1855 L740 1589 L802 1589 Z " />
<glyph glyph-name="Uacute" unicode="&#xda;" horiz-adv-x="1483" d="M1275 1456 L1223 1456 L1223 459 C1223 178 1015 34 742 34 C468 34 260 178 260 459 L260 1456 L207 1456 L207 459 C207 132 437 -20 742 -20 C1047 -20 1275 132 1275 459 L1275 1456 Z M924 1855 L715 1589 L778 1589 L991 1855 L924 1855 Z " />
<glyph glyph-name="Ucircumflex" unicode="&#xdb;" horiz-adv-x="1483" d="M1275 1456 L1223 1456 L1223 459 C1223 178 1015 34 742 34 C468 34 260 178 260 459 L260 1456 L207 1456 L207 459 C207 132 437 -20 742 -20 C1047 -20 1275 132 1275 459 L1275 1456 Z M1028 1593 L777 1836 L737 1836 L490 1597 L490 1583 L555 1583 L756 1779 L958 1583 L1028 1583 L1028 1593 Z " />
<glyph glyph-name="Udieresis" unicode="&#xdc;" horiz-adv-x="1483" d="M1275 1456 L1223 1456 L1223 459 C1223 178 1015 34 742 34 C468 34 260 178 260 459 L260 1456 L207 1456 L207 459 C207 132 437 -20 742 -20 C1047 -20 1275 132 1275 459 L1275 1456 Z M511 1796 C479 1796 452 1771 452 1740 C452 1709 479 1685 511 1685 C544 1685 571 1709 571 1740 C571 1771 544 1796 511 1796 L511 1796 Z M1005 1796 C972 1796 946 1771 946 1740 C946 1709 972 1685 1005 1685 C1037 1685 1065 1709 1065 1740 C1065 1771 1037 1796 1005 1796 L1005 1796 Z " />
<glyph glyph-name="Yacute" unicode="&#xdd;" horiz-adv-x="1328" d="M662 602 L114 1456 L43 1456 L635 553 L635 0 L688 0 L688 553 L1280 1456 L1216 1456 L662 602 Z M827 1844 L618 1578 L681 1578 L894 1844 L827 1844 Z " />
<glyph glyph-name="Thorn" unicode="&#xde;" horiz-adv-x="1324" d="M678 1143 L275 1143 L275 1456 L222 1456 L222 0 L275 0 L275 334 L678 334 C991 334 1161 505 1161 738 C1161 970 991 1143 678 1143 L678 1143 Z M678 388 L275 388 L275 1089 L678 1089 C983 1089 1108 909 1108 736 C1108 571 983 388 678 388 L678 388 Z " />
<glyph glyph-name="germandbls" unicode="&#xdf;" horiz-adv-x="1285" d="M236 0 L236 1143 C236 1389 360 1481 546 1481 C677 1481 808 1384 808 1259 C808 1080 687 1036 687 831 C687 585 1094 536 1094 306 C1094 159 948 32 744 32 C630 32 499 75 442 117 L416 68 C474 20 627 -21 752 -21 C926 -21 1147 95 1147 297 C1147 569 739 621 739 829 C739 1037 867 1068 867 1257 C867 1425 703 1535 535 1535 C308 1535 184 1396 184 1143 L184 0 L236 0 Z " />
<glyph glyph-name="agrave" unicode="&#xe0;" horiz-adv-x="1173" d="M977 218 L977 768 C977 996 806 1102 565 1102 C316 1102 136 958 136 786 L188 784 C188 937 352 1048 566 1048 C795 1048 924 950 924 770 L924 604 L639 604 C301 604 104 467 104 274 C104 95 245 -20 461 -20 C697 -20 846 82 924 199 C924 129 931 51 946 0 L1007 0 L1007 9 C988 53 977 140 977 218 L977 218 Z M672 1269 L464 1535 L397 1535 L610 1269 L672 1269 Z M460 33 C282 33 157 132 157 270 C157 434 335 549 641 549 L924 549 L924 287 C845 131 687 33 460 33 L460 33 Z " />
<glyph glyph-name="aacute" unicode="&#xe1;" horiz-adv-x="1173" d="M977 218 L977 768 C977 996 806 1102 565 1102 C316 1102 136 958 136 786 L188 784 C188 937 352 1048 566 1048 C795 1048 924 950 924 770 L924 604 L639 604 C301 604 104 467 104 274 C104 95 245 -20 461 -20 C697 -20 846 82 924 199 C924 129 931 51 946 0 L1007 0 L1007 9 C988 53 977 140 977 218 L977 218 Z M861 1535 L794 1535 L585 1269 L648 1269 L861 1535 Z M460 33 C282 33 157 132 157 270 C157 434 335 549 641 549 L924 549 L924 287 C845 131 687 33 460 33 L460 33 Z " />
<glyph glyph-name="acircumflex" unicode="&#xe2;" horiz-adv-x="1173" d="M977 218 L977 768 C977 996 806 1102 565 1102 C316 1102 136 958 136 786 L188 784 C188 937 352 1048 566 1048 C795 1048 924 950 924 770 L924 604 L639 604 C301 604 104 467 104 274 C104 95 245 -20 461 -20 C697 -20 846 82 924 199 C924 129 931 51 946 0 L1007 0 L1007 9 C988 53 977 140 977 218 L977 218 Z M626 1459 L828 1263 L898 1263 L898 1273 L647 1516 L607 1516 L360 1277 L360 1263 L425 1263 L626 1459 Z M460 33 C282 33 157 132 157 270 C157 434 335 549 641 549 L924 549 L924 287 C845 131 687 33 460 33 L460 33 Z " />
<glyph glyph-name="atilde" unicode="&#xe3;" horiz-adv-x="1173" d="M977 218 L977 768 C977 996 806 1102 565 1102 C316 1102 136 958 136 786 L188 784 C188 937 352 1048 566 1048 C795 1048 924 950 924 770 L924 604 L639 604 C301 604 104 467 104 274 C104 95 245 -20 461 -20 C697 -20 846 82 924 199 C924 129 931 51 946 0 L1007 0 L1007 9 C988 53 977 140 977 218 L977 218 Z M481 1425 C609 1425 636 1300 791 1300 C895 1300 979 1375 979 1486 L922 1486 C922 1402 863 1355 791 1355 C670 1355 632 1479 481 1479 C376 1479 294 1410 294 1300 L350 1300 C350 1384 408 1425 481 1425 L481 1425 Z M460 33 C282 33 157 132 157 270 C157 434 335 549 641 549 L924 549 L924 287 C845 131 687 33 460 33 L460 33 Z " />
<glyph glyph-name="adieresis" unicode="&#xe4;" horiz-adv-x="1173" d="M977 218 L977 768 C977 996 806 1102 565 1102 C316 1102 136 958 136 786 L188 784 C188 937 352 1048 566 1048 C795 1048 924 950 924 770 L924 604 L639 604 C301 604 104 467 104 274 C104 95 245 -20 461 -20 C697 -20 846 82 924 199 C924 129 931 51 946 0 L1007 0 L1007 9 C988 53 977 140 977 218 L977 218 Z M381 1365 C414 1365 441 1389 441 1420 C441 1451 414 1476 381 1476 C349 1476 322 1451 322 1420 C322 1389 349 1365 381 1365 L381 1365 Z M875 1365 C907 1365 935 1389 935 1420 C935 1451 907 1476 875 1476 C842 1476 816 1451 816 1420 C816 1389 842 1365 875 1365 L875 1365 Z M460 33 C282 33 157 132 157 270 C157 434 335 549 641 549 L924 549 L924 287 C845 131 687 33 460 33 L460 33 Z " />
<glyph glyph-name="aring" unicode="&#xe5;" horiz-adv-x="1173" d="M977 218 L977 768 C977 996 806 1102 565 1102 C316 1102 136 958 136 786 L188 784 C188 937 352 1048 566 1048 C795 1048 924 950 924 770 L924 604 L639 604 C301 604 104 467 104 274 C104 95 245 -20 461 -20 C697 -20 846 82 924 199 C924 129 931 51 946 0 L1007 0 L1007 9 C988 53 977 140 977 218 L977 218 Z M630 1211 C734 1211 817 1283 817 1381 C817 1479 734 1555 630 1555 C525 1555 442 1479 442 1381 C442 1283 525 1211 630 1211 L630 1211 Z M460 33 C282 33 157 132 157 270 C157 434 335 549 641 549 L924 549 L924 287 C845 131 687 33 460 33 L460 33 Z M630 1501 C705 1501 759 1452 759 1381 C759 1312 705 1265 630 1265 C554 1265 499 1312 499 1381 C499 1452 554 1501 630 1501 L630 1501 Z " />
<glyph glyph-name="ae" unicode="&#xe6;" horiz-adv-x="1879" d="M940 577 L1789 577 L1789 660 C1789 934 1626 1102 1356 1102 C1163 1102 1005 988 931 807 C901 1003 764 1102 566 1102 C303 1102 138 965 138 778 L188 771 C188 929 326 1048 566 1048 C782 1048 884 928 884 720 L884 630 L569 630 C266 630 107 489 107 284 C107 100 243 -20 489 -20 C739 -20 888 111 941 218 L938 219 L938 240 C1011 81 1158 -20 1371 -20 C1576 -20 1682 50 1759 122 L1729 164 C1646 86 1523 34 1371 34 C1069 34 940 241 940 500 L940 564 L940 577 Z M883 229 C860 158 696 32 486 32 C277 32 160 126 160 280 C160 438 289 575 571 575 L884 575 L884 229 L883 229 Z M1356 1048 C1607 1048 1736 880 1736 664 L1736 632 L943 632 C968 868 1120 1048 1356 1048 L1356 1048 Z " />
<glyph glyph-name="ccedilla" unicode="&#xe7;" horiz-adv-x="1129" d="M584 34 C296 34 163 233 163 510 L163 572 C163 848 296 1048 583 1048 C775 1048 952 948 962 725 L1015 725 C1004 981 805 1102 583 1102 C285 1102 111 896 111 572 L111 510 C111 193 279 -12 568 -20 L544 -131 C677 -144 748 -167 748 -255 C748 -354 606 -396 490 -396 L497 -445 C686 -445 804 -369 804 -255 C804 -134 709 -95 612 -86 L623 -19 C832 -6 1004 114 1015 328 L962 328 C948 113 768 34 584 34 L584 34 Z " />
<glyph glyph-name="egrave" unicode="&#xe8;" horiz-adv-x="1122" d="M152 577 L1028 577 L1028 645 C1028 931 842 1102 587 1102 C318 1102 99 895 99 572 L99 508 C99 188 327 -20 608 -20 C793 -20 914 47 991 143 L955 172 C858 64 742 33 608 33 C351 33 152 232 152 508 L152 572 L152 577 Z M661 1268 L453 1534 L386 1534 L599 1268 L661 1268 Z M587 1048 C822 1048 976 876 975 649 L975 631 L155 631 C178 875 346 1048 587 1048 L587 1048 Z " />
<glyph glyph-name="eacute" unicode="&#xe9;" horiz-adv-x="1122" d="M152 577 L1028 577 L1028 645 C1028 931 842 1102 587 1102 C318 1102 99 895 99 572 L99 508 C99 188 327 -20 608 -20 C793 -20 914 47 991 143 L955 172 C858 64 742 33 608 33 C351 33 152 232 152 508 L152 572 L152 577 Z M850 1534 L783 1534 L574 1268 L637 1268 L850 1534 Z M587 1048 C822 1048 976 876 975 649 L975 631 L155 631 C178 875 346 1048 587 1048 L587 1048 Z " />
<glyph glyph-name="ecircumflex" unicode="&#xea;" horiz-adv-x="1122" d="M152 577 L1028 577 L1028 645 C1028 931 842 1102 587 1102 C318 1102 99 895 99 572 L99 508 C99 188 327 -20 608 -20 C793 -20 914 47 991 143 L955 172 C858 64 742 33 608 33 C351 33 152 232 152 508 L152 572 L152 577 Z M615 1458 L817 1262 L887 1262 L887 1272 L636 1515 L596 1515 L349 1276 L349 1262 L414 1262 L615 1458 Z M587 1048 C822 1048 976 876 975 649 L975 631 L155 631 C178 875 346 1048 587 1048 L587 1048 Z " />
<glyph glyph-name="edieresis" unicode="&#xeb;" horiz-adv-x="1122" d="M152 577 L1028 577 L1028 645 C1028 931 842 1102 587 1102 C318 1102 99 895 99 572 L99 508 C99 188 327 -20 608 -20 C793 -20 914 47 991 143 L955 172 C858 64 742 33 608 33 C351 33 152 232 152 508 L152 572 L152 577 Z M370 1364 C403 1364 430 1388 430 1419 C430 1450 403 1475 370 1475 C338 1475 311 1450 311 1419 C311 1388 338 1364 370 1364 L370 1364 Z M864 1364 C896 1364 924 1388 924 1419 C924 1450 896 1475 864 1475 C831 1475 805 1450 805 1419 C805 1388 831 1364 864 1364 L864 1364 Z M587 1048 C822 1048 976 876 975 649 L975 631 L155 631 C178 875 346 1048 587 1048 L587 1048 Z " />
<glyph glyph-name="igrave" unicode="&#xec;" horiz-adv-x="445" d="M254 0 L254 1082 L202 1082 L202 0 L254 0 Z M275 1246 L67 1512 L0 1512 L213 1246 L275 1246 Z " />
<glyph glyph-name="iacute" unicode="&#xed;" horiz-adv-x="445" d="M254 0 L254 1082 L202 1082 L202 0 L254 0 Z M397 1512 L188 1246 L251 1246 L464 1512 L397 1512 Z " />
<glyph glyph-name="icircumflex" unicode="&#xee;" horiz-adv-x="445" d="M254 0 L254 1082 L202 1082 L202 0 L254 0 Z M501 1250 L250 1493 L210 1493 L-37 1254 L-37 1240 L28 1240 L229 1436 L431 1240 L501 1240 L501 1250 Z " />
<glyph glyph-name="idieresis" unicode="&#xef;" horiz-adv-x="445" d="M254 0 L254 1082 L202 1082 L202 0 L254 0 Z M-16 1453 C-48 1453 -75 1428 -75 1397 C-75 1366 -48 1342 -16 1342 C17 1342 44 1366 44 1397 C44 1428 17 1453 -16 1453 L-16 1453 Z M478 1453 C445 1453 419 1428 419 1397 C419 1366 445 1342 478 1342 C510 1342 538 1366 538 1397 C538 1428 510 1453 478 1453 L478 1453 Z " />
<glyph glyph-name="eth" unicode="&#xf0;" horiz-adv-x="1285" d="M1127 583 C1127 596 1126 608 1125 620 C1124 922 1040 1143 870 1308 L1072 1413 L1043 1461 L826 1348 C714 1442 570 1517 393 1577 L374 1527 C524 1475 661 1410 773 1320 L537 1197 L565 1149 L818 1281 C946 1162 1034 1002 1062 778 C977 891 817 953 654 953 C365 953 194 775 194 465 C194 194 396 -20 684 -20 C940 -20 1125 206 1125 535 L1125 582 L1127 583 Z M1072 535 C1072 246 923 38 689 38 C404 38 248 251 248 465 C248 705 368 895 652 895 C885 895 1020 782 1071 672 C1072 654 1072 636 1072 617 L1072 535 Z " />
<glyph glyph-name="ntilde" unicode="&#xf1;" horiz-adv-x="1218" d="M662 1102 C463 1102 314 978 245 821 L245 851 L246 1082 L192 1082 L192 0 L245 0 L245 685 C277 826 399 1049 660 1049 C847 1049 979 975 979 700 L979 0 L1031 0 L1031 700 C1031 987 897 1102 662 1102 L662 1102 Z M482 1423 C610 1423 637 1298 792 1298 C896 1298 980 1373 980 1484 L923 1484 C923 1400 864 1353 792 1353 C671 1353 633 1477 482 1477 C377 1477 295 1408 295 1298 L351 1298 C351 1382 409 1423 482 1423 L482 1423 Z " />
<glyph glyph-name="ograve" unicode="&#xf2;" horiz-adv-x="1223" d="M107 572 L107 510 C107 193 311 -20 613 -20 C914 -20 1115 193 1115 510 L1115 572 C1115 889 914 1102 610 1102 C311 1102 107 889 107 572 L107 572 Z M661 1267 L453 1533 L386 1533 L599 1267 L661 1267 Z M160 510 L160 572 C160 824 324 1048 610 1048 C898 1048 1063 824 1063 572 L1063 510 C1063 252 899 34 613 34 C324 34 160 252 160 510 L160 510 Z " />
<glyph glyph-name="oacute" unicode="&#xf3;" horiz-adv-x="1223" d="M107 572 L107 510 C107 193 311 -20 613 -20 C914 -20 1115 193 1115 510 L1115 572 C1115 889 914 1102 610 1102 C311 1102 107 889 107 572 L107 572 Z M783 1533 L574 1267 L637 1267 L850 1533 L783 1533 Z M160 510 L160 572 C160 824 324 1048 610 1048 C898 1048 1063 824 1063 572 L1063 510 C1063 252 899 34 613 34 C324 34 160 252 160 510 L160 510 Z " />
<glyph glyph-name="ocircumflex" unicode="&#xf4;" horiz-adv-x="1223" d="M107 572 L107 510 C107 193 311 -20 613 -20 C914 -20 1115 193 1115 510 L1115 572 C1115 889 914 1102 610 1102 C311 1102 107 889 107 572 L107 572 Z M887 1271 L636 1514 L596 1514 L349 1275 L349 1261 L414 1261 L615 1457 L817 1261 L887 1261 L887 1271 Z M160 510 L160 572 C160 824 324 1048 610 1048 C898 1048 1063 824 1063 572 L1063 510 C1063 252 899 34 613 34 C324 34 160 252 160 510 L160 510 Z " />
<glyph glyph-name="otilde" unicode="&#xf5;" horiz-adv-x="1223" d="M107 572 L107 510 C107 193 311 -20 613 -20 C914 -20 1115 193 1115 510 L1115 572 C1115 889 914 1102 610 1102 C311 1102 107 889 107 572 L107 572 Z M968 1484 L911 1484 C911 1400 852 1353 780 1353 C659 1353 621 1477 470 1477 C365 1477 283 1408 283 1298 L339 1298 C339 1382 397 1423 470 1423 C598 1423 625 1298 780 1298 C884 1298 968 1373 968 1484 L968 1484 Z M160 510 L160 572 C160 824 324 1048 610 1048 C898 1048 1063 824 1063 572 L1063 510 C1063 252 899 34 613 34 C324 34 160 252 160 510 L160 510 Z " />
<glyph glyph-name="odieresis" unicode="&#xf6;" horiz-adv-x="1223" d="M107 572 L107 510 C107 193 311 -20 613 -20 C914 -20 1115 193 1115 510 L1115 572 C1115 889 914 1102 610 1102 C311 1102 107 889 107 572 L107 572 Z M370 1474 C338 1474 311 1449 311 1418 C311 1387 338 1363 370 1363 C403 1363 430 1387 430 1418 C430 1449 403 1474 370 1474 L370 1474 Z M864 1474 C831 1474 805 1449 805 1418 C805 1387 831 1363 864 1363 C896 1363 924 1387 924 1418 C924 1449 896 1474 864 1474 L864 1474 Z M160 510 L160 572 C160 824 324 1048 610 1048 C898 1048 1063 824 1063 572 L1063 510 C1063 252 899 34 613 34 C324 34 160 252 160 510 L160 510 Z " />
<glyph glyph-name="divide" unicode="&#xf7;" horiz-adv-x="1260" d="M636 357 C604 357 578 332 578 301 C578 270 604 246 636 246 C667 246 693 270 693 301 C693 332 667 357 636 357 L636 357 Z M1159 686 L1159 738 L85 738 L85 686 L1159 686 Z M636 1135 C604 1135 578 1110 578 1079 C578 1048 604 1024 636 1024 C667 1024 693 1048 693 1079 C693 1110 667 1135 636 1135 L636 1135 Z " />
<glyph glyph-name="oslash" unicode="&#xf8;" horiz-adv-x="1086" d="M901 1019 L1006 1219 L941 1219 L852 1048 C782 1083 701 1102 610 1102 C311 1102 107 889 107 572 L107 510 C107 306 192 145 332 56 L227 -145 L292 -145 L383 29 C450 -3 528 -20 613 -20 C914 -20 1115 193 1115 510 L1115 572 C1115 771 1036 929 901 1019 L901 1019 Z M160 510 L160 572 C160 824 324 1048 610 1048 C692 1048 764 1030 825 998 L358 106 C230 191 160 342 160 510 L160 510 Z M1063 510 C1063 252 899 34 613 34 C536 34 467 50 408 77 L874 968 C997 880 1063 732 1063 572 L1063 510 Z " />
<glyph glyph-name="ugrave" unicode="&#xf9;" horiz-adv-x="1218" d="M1032 425 L1029 425 L1029 1082 L975 1082 L975 325 C944 167 832 34 568 34 C379 34 241 128 241 393 L241 1082 L188 1082 L188 395 C188 93 343 -20 571 -20 C776 -20 907 57 975 179 L975 0 L1029 0 L1029 362 C1031 382 1032 403 1032 425 L1032 425 Z M676 1270 L468 1536 L401 1536 L614 1270 L676 1270 Z " />
<glyph glyph-name="uacute" unicode="&#xfa;" horiz-adv-x="1218" d="M1032 425 L1029 425 L1029 1082 L975 1082 L975 325 C944 167 832 34 568 34 C379 34 241 128 241 393 L241 1082 L188 1082 L188 395 C188 93 343 -20 571 -20 C776 -20 907 57 975 179 L975 0 L1029 0 L1029 362 C1031 382 1032 403 1032 425 L1032 425 Z M865 1536 L798 1536 L589 1270 L652 1270 L865 1536 Z " />
<glyph glyph-name="ucircumflex" unicode="&#xfb;" horiz-adv-x="1218" d="M1032 425 L1029 425 L1029 1082 L975 1082 L975 325 C944 167 832 34 568 34 C379 34 241 128 241 393 L241 1082 L188 1082 L188 395 C188 93 343 -20 571 -20 C776 -20 907 57 975 179 L975 0 L1029 0 L1029 362 C1031 382 1032 403 1032 425 L1032 425 Z M630 1460 L832 1264 L902 1264 L902 1274 L651 1517 L611 1517 L364 1278 L364 1264 L429 1264 L630 1460 Z " />
<glyph glyph-name="udieresis" unicode="&#xfc;" horiz-adv-x="1218" d="M1032 425 L1029 425 L1029 1082 L975 1082 L975 325 C944 167 832 34 568 34 C379 34 241 128 241 393 L241 1082 L188 1082 L188 395 C188 93 343 -20 571 -20 C776 -20 907 57 975 179 L975 0 L1029 0 L1029 362 C1031 382 1032 403 1032 425 L1032 425 Z M385 1366 C418 1366 445 1390 445 1421 C445 1452 418 1477 385 1477 C353 1477 326 1452 326 1421 C326 1390 353 1366 385 1366 L385 1366 Z M879 1366 C911 1366 939 1390 939 1421 C939 1452 911 1477 879 1477 C846 1477 820 1452 820 1421 C820 1390 846 1366 879 1366 L879 1366 Z " />
<glyph glyph-name="yacute" unicode="&#xfd;" horiz-adv-x="1065" d="M963 1082 L558 104 L549 82 L110 1082 L53 1082 L519 7 L448 -170 C398 -295 335 -384 191 -384 C177 -384 133 -380 111 -375 L112 -426 C129 -433 174 -437 198 -437 C410 -437 465 -271 502 -180 L1021 1082 L963 1082 Z M799 1536 L732 1536 L523 1270 L586 1270 L799 1536 Z " />
<glyph glyph-name="thorn" unicode="&#xfe;" horiz-adv-x="1216" d="M639 1102 C450 1102 318 1014 243 883 L243 1536 L189 1536 L189 749 L188 745 L188 305 C188 303 189 302 189 300 L189 -416 L243 -416 L243 173 C316 62 450 -20 642 -20 C917 -20 1078 201 1078 531 L1078 552 C1078 893 916 1102 639 1102 L639 1102 Z M1025 531 C1025 243 901 34 645 34 C429 34 298 135 243 271 L243 774 C288 901 392 1048 643 1048 C901 1048 1025 839 1025 552 L1025 531 Z " />
<glyph glyph-name="ydieresis" unicode="&#xff;" horiz-adv-x="1065" d="M963 1082 L558 104 L549 82 L110 1082 L53 1082 L519 7 L448 -170 C398 -295 335 -384 191 -384 C177 -384 133 -380 111 -375 L112 -426 C129 -433 174 -437 198 -437 C410 -437 465 -271 502 -180 L1021 1082 L963 1082 Z M319 1366 C352 1366 379 1390 379 1421 C379 1452 352 1477 319 1477 C287 1477 260 1452 260 1421 C260 1390 287 1366 319 1366 L319 1366 Z M813 1366 C845 1366 873 1390 873 1421 C873 1452 845 1477 813 1477 C780 1477 754 1452 754 1421 C754 1390 780 1366 813 1366 L813 1366 Z " />
<glyph glyph-name="Amacron" unicode="&#x100;" horiz-adv-x="1323" d="M1222 0 L1281 0 L695 1456 L628 1456 L42 0 L100 0 L275 435 L1047 435 L1222 0 Z M967 1766 L361 1766 L361 1713 L967 1713 L967 1766 Z M297 489 L661 1395 L1025 489 L297 489 Z " />
<glyph glyph-name="amacron" unicode="&#x101;" horiz-adv-x="1173" d="M977 218 L977 768 C977 996 806 1102 565 1102 C316 1102 136 958 136 786 L188 784 C188 937 352 1048 566 1048 C795 1048 924 950 924 770 L924 604 L639 604 C301 604 104 467 104 274 C104 95 245 -20 461 -20 C697 -20 846 82 924 199 C924 129 931 51 946 0 L1007 0 L1007 9 C988 53 977 140 977 218 L977 218 Z M932 1446 L326 1446 L326 1393 L932 1393 L932 1446 Z M460 33 C282 33 157 132 157 270 C157 434 335 549 641 549 L924 549 L924 287 C845 131 687 33 460 33 L460 33 Z " />
<glyph glyph-name="Abreve" unicode="&#x102;" horiz-adv-x="1323" d="M1222 0 L1281 0 L695 1456 L628 1456 L42 0 L100 0 L275 435 L1047 435 L1222 0 Z M660 1562 C852 1562 967 1664 967 1810 L912 1810 C912 1707 838 1618 660 1618 C474 1618 407 1705 407 1810 L351 1810 C351 1664 467 1562 660 1562 L660 1562 Z M297 489 L661 1395 L1025 489 L297 489 Z " />
<glyph glyph-name="abreve" unicode="&#x103;" horiz-adv-x="1173" d="M977 218 L977 768 C977 996 806 1102 565 1102 C316 1102 136 958 136 786 L188 784 C188 937 352 1048 566 1048 C795 1048 924 950 924 770 L924 604 L639 604 C301 604 104 467 104 274 C104 95 245 -20 461 -20 C697 -20 846 82 924 199 C924 129 931 51 946 0 L1007 0 L1007 9 C988 53 977 140 977 218 L977 218 Z M625 1242 C817 1242 932 1344 932 1490 L877 1490 C877 1387 803 1298 625 1298 C439 1298 372 1385 372 1490 L316 1490 C316 1344 432 1242 625 1242 L625 1242 Z M460 33 C282 33 157 132 157 270 C157 434 335 549 641 549 L924 549 L924 287 C845 131 687 33 460 33 L460 33 Z " />
<glyph glyph-name="Aogonek" unicode="&#x104;" horiz-adv-x="1323" d="M1298 -303 C1272 -320 1237 -341 1180 -341 C1101 -341 1079 -295 1079 -246 C1079 -150 1179 -75 1282 0 L1281 1 L695 1456 L628 1456 L42 0 L100 0 L275 435 L1047 435 L1219 7 C1124 -65 1026 -157 1026 -246 C1026 -347 1087 -395 1182 -395 C1247 -395 1289 -371 1316 -351 L1298 -303 Z M297 489 L661 1395 L1025 489 L297 489 Z " />
<glyph glyph-name="aogonek" unicode="&#x105;" horiz-adv-x="1173" d="M1025 -303 C999 -320 964 -341 907 -341 C828 -341 806 -295 806 -246 C806 -150 906 -75 1009 0 L1007 1 L1007 9 C988 53 977 140 977 218 L977 768 C977 996 806 1102 565 1102 C316 1102 136 958 136 786 L188 784 C188 937 352 1048 566 1048 C795 1048 924 950 924 770 L924 604 L639 604 C301 604 104 467 104 274 C104 95 245 -20 461 -20 C697 -20 846 82 924 199 C924 131 931 57 944 6 C849 -66 753 -158 753 -246 C753 -347 814 -395 909 -395 C974 -395 1016 -371 1043 -351 L1025 -303 Z M460 33 C282 33 157 132 157 270 C157 434 335 549 641 549 L924 549 L924 287 C845 131 687 33 460 33 L460 33 Z " />
<glyph glyph-name="Cacute" unicode="&#x106;" horiz-adv-x="1441" d="M1285 446 L1232 446 C1200 151 1019 34 728 34 C422 34 217 254 217 604 L217 859 C217 1204 422 1422 727 1422 C1026 1422 1200 1289 1232 1012 L1285 1012 C1253 1333 1040 1476 727 1476 C384 1476 164 1231 164 857 L164 604 C164 227 384 -20 728 -20 C1039 -20 1253 121 1285 446 L1285 446 Z M903 1876 L694 1610 L757 1610 L970 1876 L903 1876 Z " />
<glyph glyph-name="cacute" unicode="&#x107;" horiz-adv-x="1129" d="M962 328 C948 113 768 34 584 34 C296 34 163 233 163 510 L163 572 C163 848 296 1048 583 1048 C775 1048 952 948 962 725 L1015 725 C1004 981 805 1102 583 1102 C285 1102 111 896 111 572 L111 510 C111 187 285 -20 584 -20 C811 -20 1003 101 1015 328 L962 328 Z M763 1533 L554 1267 L617 1267 L830 1533 L763 1533 Z " />
<glyph glyph-name="Cdotaccent" unicode="&#x10a;" horiz-adv-x="1441" d="M1285 446 L1232 446 C1200 151 1019 34 728 34 C422 34 217 254 217 604 L217 859 C217 1204 422 1422 727 1422 C1026 1422 1200 1289 1232 1012 L1285 1012 C1253 1333 1040 1476 727 1476 C384 1476 164 1231 164 857 L164 604 C164 227 384 -20 728 -20 C1039 -20 1253 121 1285 446 L1285 446 Z M736 1793 C703 1793 677 1768 677 1737 C677 1706 703 1682 736 1682 C768 1682 795 1706 795 1737 C795 1768 768 1793 736 1793 L736 1793 Z " />
<glyph glyph-name="cdotaccent" unicode="&#x10b;" horiz-adv-x="1129" d="M962 328 C948 113 768 34 584 34 C296 34 163 233 163 510 L163 572 C163 848 296 1048 583 1048 C775 1048 952 948 962 725 L1015 725 C1004 981 805 1102 583 1102 C285 1102 111 896 111 572 L111 510 C111 187 285 -20 584 -20 C811 -20 1003 101 1015 328 L962 328 Z M596 1450 C563 1450 537 1425 537 1394 C537 1363 563 1339 596 1339 C628 1339 655 1363 655 1394 C655 1425 628 1450 596 1450 L596 1450 Z " />
<glyph glyph-name="Ccaron" unicode="&#x10c;" horiz-adv-x="1441" d="M1285 446 L1232 446 C1200 151 1019 34 728 34 C422 34 217 254 217 604 L217 859 C217 1204 422 1422 727 1422 C1026 1422 1200 1289 1232 1012 L1285 1012 C1253 1333 1040 1476 727 1476 C384 1476 164 1231 164 857 L164 604 C164 227 384 -20 728 -20 C1039 -20 1253 121 1285 446 L1285 446 Z M735 1634 L525 1851 L468 1851 L468 1840 L704 1588 L764 1588 L997 1838 L997 1851 L945 1851 L735 1634 Z " />
<glyph glyph-name="ccaron" unicode="&#x10d;" horiz-adv-x="1129" d="M962 328 C948 113 768 34 584 34 C296 34 163 233 163 510 L163 572 C163 848 296 1048 583 1048 C775 1048 952 948 962 725 L1015 725 C1004 981 805 1102 583 1102 C285 1102 111 896 111 572 L111 510 C111 187 285 -20 584 -20 C811 -20 1003 101 1015 328 L962 328 Z M595 1291 L385 1508 L328 1508 L328 1497 L564 1245 L624 1245 L857 1495 L857 1508 L805 1508 L595 1291 Z " />
<glyph glyph-name="Dcaron" unicode="&#x10e;" horiz-adv-x="1453" d="M656 1456 L222 1456 L222 0 L656 0 C1024 0 1299 246 1299 619 L1299 837 C1299 1210 1024 1456 656 1456 L656 1456 Z M668 1567 L901 1817 L901 1830 L849 1830 L639 1613 L429 1830 L372 1830 L372 1819 L608 1567 L668 1567 Z M1246 619 C1246 283 993 54 656 54 L275 54 L275 1402 L656 1402 C993 1402 1246 1173 1246 840 L1246 619 Z " />
<glyph glyph-name="dcaron" unicode="&#x10f;" horiz-adv-x="1230" d="M974 1536 L974 882 C901 1014 771 1102 576 1102 C458 1102 361 1067 288 1000 C313 1047 328 1103 328 1170 L328 1247 L275 1247 L275 1168 C275 1081 251 1026 201 960 L231 933 C171 843 138 718 138 562 L138 521 C138 185 298 -20 575 -20 C769 -20 903 63 974 174 L973 0 L1027 0 L1027 1536 L974 1536 Z M571 34 C316 34 193 227 193 521 L193 562 C193 856 316 1048 573 1048 C826 1048 930 903 974 780 L974 264 C920 133 787 34 571 34 L571 34 Z " />
<glyph glyph-name="Dcroat" unicode="&#x110;" horiz-adv-x="1453" d="M656 1456 L222 1456 L222 767 L73 767 L73 713 L222 713 L222 0 L656 0 C1024 0 1299 246 1299 619 L1299 837 C1299 1210 1024 1456 656 1456 L656 1456 Z M1246 619 C1246 283 993 54 656 54 L275 54 L275 713 L703 713 L703 767 L275 767 L275 1402 L656 1402 C993 1402 1246 1173 1246 840 L1246 619 Z " />
<glyph glyph-name="dcroat" unicode="&#x111;" horiz-adv-x="1214" d="M1197 1335 L1027 1335 L1027 1536 L974 1536 L974 1335 L568 1335 L568 1281 L974 1281 L974 876 C901 1011 771 1102 576 1102 C300 1102 138 893 138 552 L138 531 C138 201 298 -20 575 -20 C769 -20 903 65 974 180 L973 0 L1027 0 L1027 1281 L1197 1281 L1197 1335 Z M571 34 C316 34 193 243 193 531 L193 552 C193 839 316 1048 573 1048 C826 1048 930 899 974 772 L974 272 C920 136 787 34 571 34 L571 34 Z " />
<glyph glyph-name="Emacron" unicode="&#x112;" horiz-adv-x="1267" d="M1175 1402 L1175 1456 L222 1456 L222 0 L1174 0 L1174 54 L275 54 L275 722 L1065 722 L1065 776 L275 776 L275 1402 L1175 1402 Z M977 1766 L371 1766 L371 1713 L977 1713 L977 1766 Z " />
<glyph glyph-name="emacron" unicode="&#x113;" horiz-adv-x="1122" d="M152 577 L1028 577 L1028 645 C1028 931 842 1102 587 1102 C318 1102 99 895 99 572 L99 508 C99 188 327 -20 608 -20 C793 -20 914 47 991 143 L955 172 C858 64 742 33 608 33 C351 33 152 232 152 508 L152 572 L152 577 Z M921 1445 L315 1445 L315 1392 L921 1392 L921 1445 Z M587 1048 C822 1048 976 876 975 649 L975 631 L155 631 C178 875 346 1048 587 1048 L587 1048 Z " />
<glyph glyph-name="Edotaccent" unicode="&#x116;" horiz-adv-x="1267" d="M1175 1402 L1175 1456 L222 1456 L222 0 L1174 0 L1174 54 L275 54 L275 722 L1065 722 L1065 776 L275 776 L275 1402 L1175 1402 Z M672 1661 C704 1661 731 1685 731 1716 C731 1747 704 1772 672 1772 C639 1772 613 1747 613 1716 C613 1685 639 1661 672 1661 L672 1661 Z " />
<glyph glyph-name="edotaccent" unicode="&#x117;" horiz-adv-x="1122" d="M152 577 L1028 577 L1028 645 C1028 931 842 1102 587 1102 C318 1102 99 895 99 572 L99 508 C99 188 327 -20 608 -20 C793 -20 914 47 991 143 L955 172 C858 64 742 33 608 33 C351 33 152 232 152 508 L152 572 L152 577 Z M616 1340 C648 1340 675 1364 675 1395 C675 1426 648 1451 616 1451 C583 1451 557 1426 557 1395 C557 1364 583 1340 616 1340 L616 1340 Z M587 1048 C822 1048 976 876 975 649 L975 631 L155 631 C178 875 346 1048 587 1048 L587 1048 Z " />
<glyph glyph-name="Eogonek" unicode="&#x118;" horiz-adv-x="1267" d="M1175 1402 L1175 1456 L222 1456 L222 0 L1039 0 C946 -71 855 -160 855 -246 C855 -347 916 -395 1011 -395 C1076 -395 1118 -371 1145 -351 L1127 -303 C1101 -320 1066 -341 1009 -341 C930 -341 908 -295 908 -246 C908 -150 1008 -75 1111 0 L1174 0 L1174 54 L275 54 L275 722 L1065 722 L1065 776 L275 776 L275 1402 L1175 1402 Z " />
<glyph glyph-name="eogonek" unicode="&#x119;" horiz-adv-x="1122" d="M152 577 L1028 577 L1028 645 C1028 931 842 1102 587 1102 C318 1102 99 895 99 572 L99 508 C99 188 327 -20 608 -20 C663 -20 712 -14 757 -3 C695 -61 646 -126 646 -188 C646 -289 707 -337 802 -337 C867 -337 909 -313 936 -293 L918 -245 C892 -262 857 -283 800 -283 C721 -283 699 -237 699 -188 C699 -92 799 -17 902 58 L900 59 C936 83 966 111 991 143 L955 172 C858 64 742 33 608 33 C351 33 152 232 152 508 L152 572 L152 577 Z M587 1048 C822 1048 976 876 975 649 L975 631 L155 631 C178 875 346 1048 587 1048 L587 1048 Z " />
<glyph glyph-name="Ecaron" unicode="&#x11a;" horiz-adv-x="1267" d="M1175 1402 L1175 1456 L222 1456 L222 0 L1174 0 L1174 54 L275 54 L275 722 L1065 722 L1065 776 L275 776 L275 1402 L1175 1402 Z M700 1567 L933 1817 L933 1830 L881 1830 L671 1613 L461 1830 L404 1830 L404 1819 L640 1567 L700 1567 Z " />
<glyph glyph-name="ecaron" unicode="&#x11b;" horiz-adv-x="1122" d="M152 577 L1028 577 L1028 645 C1028 931 842 1102 587 1102 C318 1102 99 895 99 572 L99 508 C99 188 327 -20 608 -20 C793 -20 914 47 991 143 L955 172 C858 64 742 33 608 33 C351 33 152 232 152 508 L152 572 L152 577 Z M644 1246 L877 1496 L877 1509 L825 1509 L615 1292 L405 1509 L348 1509 L348 1498 L584 1246 L644 1246 Z M587 1048 C822 1048 976 876 975 649 L975 631 L155 631 C178 875 346 1048 587 1048 L587 1048 Z " />
<glyph glyph-name="Gbreve" unicode="&#x11e;" horiz-adv-x="1526" d="M1325 156 L1325 660 L789 660 L789 605 L1272 605 L1272 181 C1224 126 1048 34 791 34 C457 34 243 263 243 600 L243 880 C243 1202 452 1422 773 1422 C1102 1422 1238 1260 1270 1062 L1322 1062 C1294 1303 1110 1476 773 1476 C430 1476 191 1239 191 878 L191 600 C191 226 434 -20 791 -20 C1094 -20 1274 94 1325 156 L1325 156 Z M1069 1831 L1014 1831 C1014 1728 940 1639 762 1639 C576 1639 509 1726 509 1831 L453 1831 C453 1685 569 1583 762 1583 C954 1583 1069 1685 1069 1831 L1069 1831 Z " />
<glyph glyph-name="gbreve" unicode="&#x11f;" horiz-adv-x="1220" d="M972 1082 L972 884 C899 1014 768 1102 575 1102 C299 1102 137 910 137 562 L137 521 C137 185 298 -20 574 -20 C767 -20 901 62 972 173 L972 0 C972 -243 843 -383 588 -383 C442 -383 338 -326 247 -223 L209 -259 C292 -363 417 -436 589 -436 C863 -436 1026 -277 1026 0 L1026 1082 L972 1082 Z M614 1240 C806 1240 921 1342 921 1488 L866 1488 C866 1385 792 1296 614 1296 C428 1296 361 1383 361 1488 L305 1488 C305 1342 421 1240 614 1240 L614 1240 Z M570 34 C315 34 191 227 191 521 L191 562 C191 856 315 1048 573 1048 C831 1048 930 897 972 772 L972 272 C920 137 792 34 570 34 L570 34 Z " />
<glyph glyph-name="Gdotaccent" unicode="&#x120;" horiz-adv-x="1526" d="M1325 156 L1325 660 L789 660 L789 605 L1272 605 L1272 181 C1224 126 1048 34 791 34 C457 34 243 263 243 600 L243 880 C243 1202 452 1422 773 1422 C1102 1422 1238 1260 1270 1062 L1322 1062 C1294 1303 1110 1476 773 1476 C430 1476 191 1239 191 878 L191 600 C191 226 434 -20 791 -20 C1094 -20 1274 94 1325 156 L1325 156 Z M764 1793 C731 1793 705 1768 705 1737 C705 1706 731 1682 764 1682 C796 1682 823 1706 823 1737 C823 1768 796 1793 764 1793 L764 1793 Z " />
<glyph glyph-name="gdotaccent" unicode="&#x121;" horiz-adv-x="1220" d="M972 1082 L972 884 C899 1014 768 1102 575 1102 C299 1102 137 910 137 562 L137 521 C137 185 298 -20 574 -20 C767 -20 901 62 972 173 L972 0 C972 -243 843 -383 588 -383 C442 -383 338 -326 247 -223 L209 -259 C292 -363 417 -436 589 -436 C863 -436 1026 -277 1026 0 L1026 1082 L972 1082 Z M616 1339 C648 1339 675 1363 675 1394 C675 1425 648 1450 616 1450 C583 1450 557 1425 557 1394 C557 1363 583 1339 616 1339 L616 1339 Z M570 34 C315 34 191 227 191 521 L191 562 C191 856 315 1048 573 1048 C831 1048 930 897 972 772 L972 272 C920 137 792 34 570 34 L570 34 Z " />
<glyph glyph-name="Gcommaaccent" unicode="&#x122;" horiz-adv-x="1360" d="M1325 156 L1325 660 L789 660 L789 605 L1272 605 L1272 181 C1224 126 1048 34 791 34 C457 34 243 263 243 600 L243 880 C243 1202 452 1422 773 1422 C1102 1422 1238 1260 1270 1062 L1322 1062 C1294 1303 1110 1476 773 1476 C430 1476 191 1239 191 878 L191 600 C191 226 434 -20 791 -20 C1094 -20 1274 94 1325 156 L1325 156 Z M-94 -465 L-94 -388 L-147 -388 L-147 -467 C-147 -554 -171 -609 -221 -675 L-185 -707 C-131 -650 -94 -570 -94 -465 L-94 -465 Z " />
<glyph glyph-name="gcommaaccent" unicode="&#x123;" horiz-adv-x="1220" d="M972 1082 L972 884 C899 1014 768 1102 575 1102 C299 1102 137 910 137 562 L137 521 C137 185 298 -20 574 -20 C767 -20 901 62 972 173 L972 0 C972 -243 843 -383 588 -383 C442 -383 338 -326 247 -223 L209 -259 C292 -363 417 -436 589 -436 C863 -436 1026 -277 1026 0 L1026 1082 L972 1082 Z M641 1406 C641 1466 662 1512 694 1574 L649 1590 C617 1538 589 1481 589 1402 L589 1274 L641 1274 L641 1406 Z M570 34 C315 34 191 227 191 521 L191 562 C191 856 315 1048 573 1048 C831 1048 930 897 972 772 L972 272 C920 137 792 34 570 34 L570 34 Z " />
<glyph glyph-name="Hbar" unicode="&#x126;" horiz-adv-x="1344" d="M1458 1081 L1292 1081 L1292 1456 L1240 1456 L1240 1081 L231 1081 L231 1456 L178 1456 L178 1081 L27 1081 L27 1028 L178 1028 L178 0 L231 0 L231 722 L1240 722 L1240 0 L1292 0 L1292 1028 L1458 1028 L1458 1081 Z M1240 776 L231 776 L231 1028 L1240 1028 L1240 776 Z " />
<glyph glyph-name="hbar" unicode="&#x127;" horiz-adv-x="1218" d="M661 1102 C463 1102 314 978 245 821 L245 1281 L672 1281 L672 1335 L245 1335 L245 1536 L192 1536 L192 1335 L42 1335 L42 1281 L192 1281 L192 0 L245 0 L245 685 C277 826 398 1049 660 1049 C847 1049 979 975 979 700 L979 0 L1031 0 L1031 700 C1031 987 897 1102 661 1102 L661 1102 Z " />
<glyph glyph-name="Itilde" unicode="&#x128;" horiz-adv-x="586" d="M319 0 L319 1456 L267 1456 L267 0 L319 0 Z M646 1806 L589 1806 C589 1722 530 1675 458 1675 C337 1675 299 1799 148 1799 C43 1799 -39 1730 -39 1620 L17 1620 C17 1704 75 1745 148 1745 C276 1745 303 1620 458 1620 C562 1620 646 1695 646 1806 L646 1806 Z " />
<glyph glyph-name="itilde" unicode="&#x129;" horiz-adv-x="445" d="M254 0 L254 1082 L202 1082 L202 0 L254 0 Z M582 1463 L525 1463 C525 1379 466 1332 394 1332 C273 1332 235 1456 84 1456 C-21 1456 -103 1387 -103 1277 L-47 1277 C-47 1361 11 1402 84 1402 C212 1402 239 1277 394 1277 C498 1277 582 1352 582 1463 L582 1463 Z " />
<glyph glyph-name="Imacron" unicode="&#x12a;" horiz-adv-x="586" d="M319 0 L319 1456 L267 1456 L267 0 L319 0 Z M599 1713 L599 1766 L-7 1766 L-7 1713 L599 1713 Z " />
<glyph glyph-name="imacron" unicode="&#x12b;" horiz-adv-x="445" d="M254 0 L254 1082 L202 1082 L202 0 L254 0 Z M535 1370 L535 1423 L-71 1423 L-71 1370 L535 1370 Z " />
<glyph glyph-name="Iogonek" unicode="&#x12e;" horiz-adv-x="586" d="M329 -303 C303 -320 268 -341 211 -341 C132 -341 110 -295 110 -246 C110 -150 210 -75 313 0 L319 0 L319 1456 L267 1456 L267 19 C166 -54 57 -152 57 -246 C57 -347 118 -395 213 -395 C278 -395 320 -371 347 -351 L329 -303 Z " />
<glyph glyph-name="iogonek" unicode="&#x12f;" horiz-adv-x="463" d="M275 -303 C249 -320 214 -341 157 -341 C78 -341 56 -295 56 -246 C56 -150 156 -75 259 0 L260 0 L260 1082 L207 1082 L207 15 C108 -58 3 -154 3 -246 C3 -347 64 -395 159 -395 C224 -395 266 -371 293 -351 L275 -303 Z M233 1365 C264 1365 291 1389 291 1420 C291 1451 264 1476 233 1476 C201 1476 176 1451 176 1420 C176 1389 201 1365 233 1365 L233 1365 Z " />
<glyph glyph-name="Idotaccent" unicode="&#x130;" horiz-adv-x="586" d="M319 0 L319 1456 L267 1456 L267 0 L319 0 Z M294 1772 C261 1772 235 1747 235 1716 C235 1685 261 1661 294 1661 C326 1661 353 1685 353 1716 C353 1747 326 1772 294 1772 L294 1772 Z " />
<glyph glyph-name="dotlessi" unicode="&#x131;" horiz-adv-x="445" d="M254 0 L254 1082 L202 1082 L202 0 L254 0 Z " />
<glyph glyph-name="Kcommaaccent" unicode="&#x136;" horiz-adv-x="1258" d="M1254 0 L1323 0 L569 803 L1269 1456 L1191 1456 L534 847 L275 612 L275 1456 L222 1456 L222 0 L275 0 L275 550 L527 766 L1254 0 Z M-249 -357 C-249 -444 -273 -499 -323 -565 L-287 -597 C-233 -540 -196 -460 -196 -355 L-196 -278 L-249 -278 L-249 -357 Z " />
<glyph glyph-name="kcommaaccent" unicode="&#x137;" horiz-adv-x="940" d="M1029 0 L459 622 L996 1082 L919 1082 L383 627 L245 505 L245 1536 L192 1536 L192 0 L245 0 L245 447 L413 583 L417 586 L959 0 L1029 0 Z M-350 -353 C-350 -440 -374 -495 -424 -561 L-388 -593 C-334 -536 -297 -456 -297 -351 L-297 -274 L-350 -274 L-350 -353 Z " />
<glyph glyph-name="Lacute" unicode="&#x139;" horiz-adv-x="1147" d="M276 54 L276 1456 L222 1456 L222 0 L1082 0 L1082 54 L276 54 Z M488 1792 L421 1792 L212 1526 L275 1526 L488 1792 Z " />
<glyph glyph-name="lacute" unicode="&#x13a;" horiz-adv-x="653" d="M262 1536 L208 1536 L208 259 C208 42 296 -20 444 -20 C473 -20 534 -18 565 -8 L555 43 C514 38 483 34 439 34 C344 34 262 69 262 259 L262 1536 Z M402 1916 L193 1650 L256 1650 L469 1916 L402 1916 Z " />
<glyph glyph-name="Lcommaaccent" unicode="&#x13b;" horiz-adv-x="1025" d="M276 54 L276 1456 L222 1456 L222 0 L1082 0 L1082 54 L276 54 Z M-247 -457 C-247 -544 -271 -599 -321 -665 L-285 -697 C-231 -640 -194 -560 -194 -455 L-194 -378 L-247 -378 L-247 -457 Z " />
<glyph glyph-name="lcommaaccent" unicode="&#x13c;" horiz-adv-x="415" d="M262 1536 L208 1536 L208 259 C208 42 296 -20 444 -20 C473 -20 534 -18 565 -8 L555 43 C514 38 483 34 439 34 C344 34 262 69 262 259 L262 1536 Z M-589 -455 L-589 -378 L-642 -378 L-642 -457 C-642 -544 -666 -599 -716 -665 L-680 -697 C-626 -640 -589 -560 -589 -455 L-589 -455 Z " />
<glyph glyph-name="Lcaron" unicode="&#x13d;" horiz-adv-x="1025" d="M276 54 L276 1456 L222 1456 L222 0 L1082 0 L1082 54 L276 54 Z M-237 1087 C-237 1000 -261 945 -311 879 L-275 847 C-221 904 -184 984 -184 1089 L-184 1166 L-237 1166 L-237 1087 Z " />
<glyph glyph-name="lcaron" unicode="&#x13e;" horiz-adv-x="559" d="M262 1536 L208 1536 L208 259 C208 42 296 -20 444 -20 C473 -20 534 -18 565 -8 L555 43 C514 38 483 34 439 34 C344 34 262 69 262 259 L262 1536 Z M-329 1170 L-329 1247 L-382 1247 L-382 1168 C-382 1081 -406 1026 -456 960 L-420 928 C-366 985 -329 1065 -329 1170 L-329 1170 Z " />
<glyph glyph-name="Lslash" unicode="&#x141;" horiz-adv-x="1029" d="M269 54 L269 733 L649 845 L649 902 L269 790 L269 1456 L215 1456 L215 774 L14 715 L14 658 L215 717 L215 0 L1075 0 L1075 54 L269 54 Z " />
<glyph glyph-name="lslash" unicode="&#x142;" horiz-adv-x="495" d="M609 43 C568 38 537 34 493 34 C398 34 316 69 316 259 L316 792 L529 871 L529 930 L316 851 L316 1536 L262 1536 L262 831 L23 743 L23 684 L262 772 L262 259 C262 42 350 -20 498 -20 C527 -20 588 -18 619 -8 L609 43 Z " />
<glyph glyph-name="Nacute" unicode="&#x143;" horiz-adv-x="1571" d="M1349 0 L1349 1456 L1296 1456 L1296 95 L276 1456 L222 1456 L222 0 L276 0 L276 1364 L1296 0 L1349 0 Z M954 1855 L745 1589 L808 1589 L1021 1855 L954 1855 Z " />
<glyph glyph-name="nacute" unicode="&#x144;" horiz-adv-x="1218" d="M662 1102 C463 1102 314 978 245 821 L245 851 L246 1082 L192 1082 L192 0 L245 0 L245 685 C277 826 399 1049 660 1049 C847 1049 979 975 979 700 L979 0 L1031 0 L1031 700 C1031 987 897 1102 662 1102 L662 1102 Z M862 1533 L795 1533 L586 1267 L649 1267 L862 1533 Z " />
<glyph glyph-name="Ncommaaccent" unicode="&#x145;" horiz-adv-x="1401" d="M1349 0 L1349 1456 L1296 1456 L1296 95 L276 1456 L222 1456 L222 0 L276 0 L276 1364 L1296 0 L1349 0 Z M-97 -455 L-97 -378 L-150 -378 L-150 -457 C-150 -544 -174 -599 -224 -665 L-188 -697 C-134 -640 -97 -560 -97 -455 L-97 -455 Z " />
<glyph glyph-name="ncommaaccent" unicode="&#x146;" horiz-adv-x="1086" d="M662 1102 C463 1102 314 978 245 821 L245 851 L246 1082 L192 1082 L192 0 L245 0 L245 685 C277 826 399 1049 660 1049 C847 1049 979 975 979 700 L979 0 L1031 0 L1031 700 C1031 987 897 1102 662 1102 L662 1102 Z M-292 -457 C-292 -544 -316 -599 -366 -665 L-330 -697 C-276 -640 -239 -560 -239 -455 L-239 -378 L-292 -378 L-292 -457 Z " />
<glyph glyph-name="Ncaron" unicode="&#x147;" horiz-adv-x="1571" d="M1349 0 L1349 1456 L1296 1456 L1296 95 L276 1456 L222 1456 L222 0 L276 0 L276 1364 L1296 0 L1349 0 Z M786 1613 L576 1830 L519 1830 L519 1819 L755 1567 L815 1567 L1048 1817 L1048 1830 L996 1830 L786 1613 Z " />
<glyph glyph-name="ncaron" unicode="&#x148;" horiz-adv-x="1218" d="M662 1102 C463 1102 314 978 245 821 L245 851 L246 1082 L192 1082 L192 0 L245 0 L245 685 C277 826 399 1049 660 1049 C847 1049 979 975 979 700 L979 0 L1031 0 L1031 700 C1031 987 897 1102 662 1102 L662 1102 Z M656 1245 L889 1495 L889 1508 L837 1508 L627 1291 L417 1508 L360 1508 L360 1497 L596 1245 L656 1245 Z " />
<glyph glyph-name="Eng" unicode="&#x14a;" horiz-adv-x="1574" d="M1299 1456 L1299 88 L276 1456 L223 1456 L223 0 L276 0 L276 1370 L1299 0 L1299 -89 C1299 -277 1206 -383 1046 -383 C1004 -383 962 -373 939 -365 L925 -417 C967 -430 1002 -437 1046 -437 C1236 -437 1351 -314 1351 -89 L1351 1456 L1299 1456 Z " />
<glyph glyph-name="eng" unicode="&#x14b;" horiz-adv-x="1216" d="M649 1102 C443 1102 310 1008 242 855 L236 1082 L189 1082 L189 632 C187 607 186 581 186 554 L189 554 L189 0 L242 0 L242 663 C268 860 375 1048 653 1048 C833 1048 977 962 977 639 L977 -89 C977 -277 886 -384 725 -384 C675 -384 621 -373 595 -365 L581 -417 C630 -430 672 -437 725 -437 C916 -437 1030 -314 1030 -89 L1030 637 C1030 966 900 1102 649 1102 L649 1102 Z " />
<glyph glyph-name="Omacron" unicode="&#x14c;" horiz-adv-x="1479" d="M1327 599 L1327 857 C1327 1231 1097 1476 738 1476 C379 1476 152 1231 152 857 L152 599 C152 225 381 -20 740 -20 C1100 -20 1327 225 1327 599 L1327 599 Z M1037 1734 L1037 1787 L431 1787 L431 1734 L1037 1734 Z M1275 859 L1275 599 C1275 262 1081 34 740 34 C401 34 205 262 205 599 L205 859 C205 1194 399 1422 738 1422 C1078 1422 1275 1194 1275 859 L1275 859 Z " />
<glyph glyph-name="omacron" unicode="&#x14d;" horiz-adv-x="1223" d="M107 572 L107 510 C107 193 311 -20 613 -20 C914 -20 1115 193 1115 510 L1115 572 C1115 889 914 1102 610 1102 C311 1102 107 889 107 572 L107 572 Z M921 1391 L921 1444 L315 1444 L315 1391 L921 1391 Z M160 510 L160 572 C160 824 324 1048 610 1048 C898 1048 1063 824 1063 572 L1063 510 C1063 252 899 34 613 34 C324 34 160 252 160 510 L160 510 Z " />
<glyph glyph-name="Ohungarumlaut" unicode="&#x150;" horiz-adv-x="1479" d="M1327 599 L1327 857 C1327 1231 1097 1476 738 1476 C379 1476 152 1231 152 857 L152 599 C152 225 381 -20 740 -20 C1100 -20 1327 225 1327 599 L1327 599 Z M793 1876 L536 1572 L607 1572 L870 1876 L793 1876 Z M1092 1876 L788 1572 L862 1572 L1173 1876 L1092 1876 Z M1275 859 L1275 599 C1275 262 1081 34 740 34 C401 34 205 262 205 599 L205 859 C205 1194 399 1422 738 1422 C1078 1422 1275 1194 1275 859 L1275 859 Z " />
<glyph glyph-name="ohungarumlaut" unicode="&#x151;" horiz-adv-x="1223" d="M107 572 L107 510 C107 193 311 -20 613 -20 C914 -20 1115 193 1115 510 L1115 572 C1115 889 914 1102 610 1102 C311 1102 107 889 107 572 L107 572 Z M677 1533 L420 1229 L491 1229 L754 1533 L677 1533 Z M976 1533 L672 1229 L746 1229 L1057 1533 L976 1533 Z M160 510 L160 572 C160 824 324 1048 610 1048 C898 1048 1063 824 1063 572 L1063 510 C1063 252 899 34 613 34 C324 34 160 252 160 510 L160 510 Z " />
<glyph glyph-name="OE" unicode="&#x152;" horiz-adv-x="1808" d="M1947 1402 L1947 1456 L1041 1456 C931 1467 808 1476 682 1476 C352 1476 127 1233 127 880 L127 576 C127 223 354 -21 684 -21 C810 -21 931 -10 1041 0 L1946 0 L1946 54 L1047 54 L1047 722 L1837 722 L1837 776 L1047 776 L1047 1402 L1947 1402 Z M179 576 L179 882 C179 1205 376 1422 682 1422 C793 1422 898 1420 994 1409 L994 47 C901 37 787 33 684 33 C378 33 179 260 179 576 L179 576 Z " />
<glyph glyph-name="oe" unicode="&#x153;" horiz-adv-x="2086" d="M1129 577 L2005 577 L2005 660 C2005 935 1817 1102 1561 1102 C1344 1102 1162 959 1100 738 C1038 959 857 1102 614 1102 C314 1102 105 879 105 562 L105 520 C105 203 314 -20 615 -20 C856 -20 1036 122 1099 341 C1163 124 1355 -20 1563 -20 C1746 -20 1873 32 1962 123 L1932 165 C1853 81 1745 34 1563 34 C1317 34 1129 241 1129 500 L1129 564 L1129 577 Z M1071 520 C1071 261 901 34 615 34 C327 34 158 261 158 520 L158 562 C158 815 327 1048 614 1048 C901 1048 1071 815 1071 562 L1071 520 Z M1561 1048 C1796 1048 1953 881 1953 664 L1953 631 L1133 631 C1159 867 1322 1048 1561 1048 L1561 1048 Z " />
<glyph glyph-name="Racute" unicode="&#x154;" horiz-adv-x="1458" d="M874 637 C1070 669 1229 828 1229 1036 C1229 1307 1012 1456 716 1456 L217 1456 L217 0 L270 0 L270 623 L821 623 L1239 0 L1294 0 L1294 14 L874 637 Z M892 1855 L825 1855 L616 1589 L679 1589 L892 1855 Z M270 677 L270 1402 L716 1402 C995 1402 1176 1265 1176 1036 C1176 855 1040 677 770 677 L270 677 Z " />
<glyph glyph-name="racute" unicode="&#x155;" horiz-adv-x="749" d="M629 1102 C436 1102 309 1005 245 852 L245 1082 L192 1082 L192 0 L245 0 L245 706 C282 902 410 1049 630 1049 C656 1049 682 1046 704 1043 L711 1091 C692 1097 665 1102 629 1102 L629 1102 Z M685 1533 L618 1533 L409 1267 L472 1267 L685 1533 Z " />
<glyph glyph-name="Rcommaaccent" unicode="&#x156;" horiz-adv-x="1297" d="M874 637 C1070 669 1229 828 1229 1036 C1229 1307 1012 1456 716 1456 L217 1456 L217 0 L270 0 L270 623 L821 623 L1239 0 L1294 0 L1294 14 L874 637 Z M-265 -457 C-265 -544 -289 -599 -339 -665 L-303 -697 C-249 -640 -212 -560 -212 -455 L-212 -378 L-265 -378 L-265 -457 Z M270 677 L270 1402 L716 1402 C995 1402 1176 1265 1176 1036 C1176 855 1040 677 770 677 L270 677 Z " />
<glyph glyph-name="rcommaaccent" unicode="&#x157;" horiz-adv-x="668" d="M629 1102 C436 1102 309 1005 245 852 L245 1082 L192 1082 L192 0 L245 0 L245 706 C282 902 410 1049 630 1049 C656 1049 682 1046 704 1043 L711 1091 C692 1097 665 1102 629 1102 L629 1102 Z M-656 -448 C-656 -535 -680 -590 -730 -656 L-694 -688 C-640 -631 -603 -551 -603 -446 L-603 -369 L-656 -369 L-656 -448 Z " />
<glyph glyph-name="Rcaron" unicode="&#x158;" horiz-adv-x="1458" d="M874 637 C1070 669 1229 828 1229 1036 C1229 1307 1012 1456 716 1456 L217 1456 L217 0 L270 0 L270 623 L821 623 L1239 0 L1294 0 L1294 14 L874 637 Z M686 1567 L919 1817 L919 1830 L867 1830 L657 1613 L447 1830 L390 1830 L390 1819 L626 1567 L686 1567 Z M270 677 L270 1402 L716 1402 C995 1402 1176 1265 1176 1036 C1176 855 1040 677 770 677 L270 677 Z " />
<glyph glyph-name="rcaron" unicode="&#x159;" horiz-adv-x="749" d="M245 852 L245 1082 L192 1082 L192 0 L245 0 L245 706 C282 902 410 1049 630 1049 C656 1049 682 1046 704 1043 L711 1091 C692 1097 665 1102 629 1102 C436 1102 309 1005 245 852 L245 852 Z M660 1508 L450 1291 L240 1508 L183 1508 L183 1497 L419 1245 L479 1245 L712 1495 L712 1508 L660 1508 Z " />
<glyph glyph-name="Sacute" unicode="&#x15a;" horiz-adv-x="1314" d="M677 718 C1035 627 1164 533 1164 349 C1164 162 965 34 687 34 C460 34 162 120 162 411 L110 411 C110 85 420 -20 687 -20 C978 -20 1218 113 1218 351 C1218 596 998 695 692 770 C312 860 213 967 213 1122 C213 1280 381 1422 679 1422 C960 1422 1148 1261 1148 1046 L1200 1046 C1200 1303 982 1476 680 1476 C385 1476 160 1342 160 1120 C160 886 358 799 677 718 L677 718 Z M853 1876 L644 1610 L707 1610 L920 1876 L853 1876 Z " />
<glyph glyph-name="sacute" unicode="&#x15b;" horiz-adv-x="1107" d="M552 531 C840 462 911 361 911 263 C911 150 788 34 557 34 C386 34 189 87 175 273 L122 273 C122 114 276 -20 557 -20 C806 -20 964 95 964 262 C964 432 839 511 569 578 C266 655 213 725 213 832 C213 933 310 1048 548 1048 C781 1048 910 928 910 794 L964 794 C964 978 808 1102 548 1102 C305 1102 160 981 160 830 C160 660 293 594 552 531 L552 531 Z M722 1533 L513 1267 L576 1267 L789 1533 L722 1533 Z " />
<glyph glyph-name="Scedilla" unicode="&#x15e;" horiz-adv-x="1314" d="M1218 351 C1218 596 998 695 692 770 C312 860 213 967 213 1122 C213 1280 381 1422 679 1422 C960 1422 1148 1261 1148 1046 L1200 1046 C1200 1303 982 1476 680 1476 C385 1476 160 1342 160 1120 C160 886 358 799 677 718 C1035 627 1164 533 1164 349 C1164 162 965 34 687 34 C460 34 162 120 162 411 L110 411 C110 97 398 -12 658 -20 L634 -131 C767 -144 838 -167 838 -255 C838 -354 696 -396 580 -396 L587 -445 C776 -445 894 -369 894 -255 C894 -134 799 -95 702 -86 L712 -20 C992 -12 1218 120 1218 351 L1218 351 Z " />
<glyph glyph-name="scedilla" unicode="&#x15f;" horiz-adv-x="1107" d="M569 578 C266 655 213 725 213 832 C213 933 310 1048 548 1048 C781 1048 910 928 910 794 L964 794 C964 978 808 1102 548 1102 C305 1102 160 981 160 830 C160 660 293 594 552 531 C840 462 911 361 911 263 C911 150 788 34 557 34 C386 34 189 87 175 273 L122 273 C122 120 265 -10 526 -19 L503 -126 C636 -139 707 -162 707 -250 C707 -349 565 -391 449 -391 L456 -440 C645 -440 763 -364 763 -250 C763 -129 668 -90 571 -81 L581 -20 C816 -13 964 100 964 262 C964 432 839 511 569 578 L569 578 Z " />
<glyph glyph-name="Scaron" unicode="&#x160;" horiz-adv-x="1314" d="M677 718 C1035 627 1164 533 1164 349 C1164 162 965 34 687 34 C460 34 162 120 162 411 L110 411 C110 85 420 -20 687 -20 C978 -20 1218 113 1218 351 C1218 596 998 695 692 770 C312 860 213 967 213 1122 C213 1280 381 1422 679 1422 C960 1422 1148 1261 1148 1046 L1200 1046 C1200 1303 982 1476 680 1476 C385 1476 160 1342 160 1120 C160 886 358 799 677 718 L677 718 Z M685 1634 L475 1851 L418 1851 L418 1840 L654 1588 L714 1588 L947 1838 L947 1851 L895 1851 L685 1634 Z " />
<glyph glyph-name="scaron" unicode="&#x161;" horiz-adv-x="1107" d="M552 531 C840 462 911 361 911 263 C911 150 788 34 557 34 C386 34 189 87 175 273 L122 273 C122 114 276 -20 557 -20 C806 -20 964 95 964 262 C964 432 839 511 569 578 C266 655 213 725 213 832 C213 933 310 1048 548 1048 C781 1048 910 928 910 794 L964 794 C964 978 808 1102 548 1102 C305 1102 160 981 160 830 C160 660 293 594 552 531 L552 531 Z M554 1291 L344 1508 L287 1508 L287 1497 L523 1245 L583 1245 L816 1495 L816 1508 L764 1508 L554 1291 Z " />
<glyph glyph-name="uni0162" unicode="&#x162;" horiz-adv-x="1329" d="M1264 1402 L1264 1456 L65 1456 L65 1402 L638 1402 L638 0 L612 -121 C745 -134 816 -157 816 -245 C816 -344 674 -386 558 -386 L565 -435 C754 -435 872 -359 872 -245 C872 -124 777 -85 680 -76 L692 0 L690 0 L690 1402 L1264 1402 Z " />
<glyph glyph-name="uni0163" unicode="&#x163;" horiz-adv-x="709" d="M465 -76 L474 -19 C482 -20 491 -20 500 -20 C529 -20 590 -18 621 -8 L611 43 C570 38 539 34 495 34 C400 34 318 69 318 259 L318 1027 L584 1027 L584 1082 L318 1082 L318 1374 L264 1374 L264 1082 L49 1082 L49 1027 L264 1027 L264 259 C264 84 321 10 420 -12 L397 -121 C530 -134 601 -157 601 -245 C601 -344 459 -386 343 -386 L350 -435 C539 -435 657 -359 657 -245 C657 -124 562 -85 465 -76 L465 -76 Z " />
<glyph glyph-name="Tcaron" unicode="&#x164;" horiz-adv-x="1329" d="M1264 1456 L65 1456 L65 1402 L638 1402 L638 0 L690 0 L690 1402 L1264 1402 L1264 1456 Z M689 1559 L922 1809 L922 1822 L870 1822 L660 1605 L450 1822 L393 1822 L393 1811 L629 1559 L689 1559 Z " />
<glyph glyph-name="tcaron" unicode="&#x165;" horiz-adv-x="671" d="M611 43 C570 38 539 34 495 34 C400 34 318 69 318 259 L318 1027 L584 1027 L584 1082 L318 1082 L318 1374 L264 1374 L264 1082 L49 1082 L49 1027 L264 1027 L264 259 C264 42 352 -20 500 -20 C529 -20 590 -18 621 -8 L611 43 Z M-323 1192 C-323 1105 -347 1050 -397 984 L-361 952 C-307 1009 -270 1089 -270 1194 L-270 1271 L-323 1271 L-323 1192 Z " />
<glyph glyph-name="Tbar" unicode="&#x166;" horiz-adv-x="1329" d="M1264 1402 L1264 1456 L65 1456 L65 1402 L638 1402 L638 901 L329 901 L329 847 L638 847 L638 0 L690 0 L690 847 L959 847 L959 901 L690 901 L690 1402 L1264 1402 Z " />
<glyph glyph-name="tbar" unicode="&#x167;" horiz-adv-x="709" d="M683 634 L683 688 L318 688 L318 1027 L584 1027 L584 1082 L318 1082 L318 1374 L264 1374 L264 1082 L49 1082 L49 1027 L264 1027 L264 688 L53 688 L53 634 L264 634 L264 259 C264 42 352 -20 500 -20 C529 -20 590 -18 621 -8 L611 43 C570 38 539 34 495 34 C400 34 318 69 318 259 L318 634 L683 634 Z " />
<glyph glyph-name="Utilde" unicode="&#x168;" horiz-adv-x="1483" d="M1275 1456 L1223 1456 L1223 459 C1223 178 1015 34 742 34 C468 34 260 178 260 459 L260 1456 L207 1456 L207 459 C207 132 437 -20 742 -20 C1047 -20 1275 132 1275 459 L1275 1456 Z M1109 1806 L1052 1806 C1052 1722 993 1675 921 1675 C800 1675 762 1799 611 1799 C506 1799 424 1730 424 1620 L480 1620 C480 1704 538 1745 611 1745 C739 1745 766 1620 921 1620 C1025 1620 1109 1695 1109 1806 L1109 1806 Z " />
<glyph glyph-name="utilde" unicode="&#x169;" horiz-adv-x="1218" d="M1032 425 L1029 425 L1029 1082 L975 1082 L975 325 C944 167 832 34 568 34 C379 34 241 128 241 393 L241 1082 L188 1082 L188 395 C188 93 343 -20 571 -20 C776 -20 907 57 975 179 L975 0 L1029 0 L1029 362 C1031 382 1032 403 1032 425 L1032 425 Z M485 1426 C613 1426 640 1301 795 1301 C899 1301 983 1376 983 1487 L926 1487 C926 1403 867 1356 795 1356 C674 1356 636 1480 485 1480 C380 1480 298 1411 298 1301 L354 1301 C354 1385 412 1426 485 1426 L485 1426 Z " />
<glyph glyph-name="Umacron" unicode="&#x16a;" horiz-adv-x="1483" d="M1275 1456 L1223 1456 L1223 459 C1223 178 1015 34 742 34 C468 34 260 178 260 459 L260 1456 L207 1456 L207 459 C207 132 437 -20 742 -20 C1047 -20 1275 132 1275 459 L1275 1456 Z M1062 1713 L1062 1766 L456 1766 L456 1713 L1062 1713 Z " />
<glyph glyph-name="umacron" unicode="&#x16b;" horiz-adv-x="1218" d="M1032 425 L1029 425 L1029 1082 L975 1082 L975 325 C944 167 832 34 568 34 C379 34 241 128 241 393 L241 1082 L188 1082 L188 395 C188 93 343 -20 571 -20 C776 -20 907 57 975 179 L975 0 L1029 0 L1029 362 C1031 382 1032 403 1032 425 L1032 425 Z M936 1447 L330 1447 L330 1394 L936 1394 L936 1447 Z " />
<glyph glyph-name="Uring" unicode="&#x16e;" horiz-adv-x="1483" d="M1275 1456 L1223 1456 L1223 459 C1223 178 1015 34 742 34 C468 34 260 178 260 459 L260 1456 L207 1456 L207 459 C207 132 437 -20 742 -20 C1047 -20 1275 132 1275 459 L1275 1456 Z M760 1875 C655 1875 572 1799 572 1701 C572 1603 655 1531 760 1531 C864 1531 947 1603 947 1701 C947 1799 864 1875 760 1875 L760 1875 Z M760 1585 C684 1585 629 1632 629 1701 C629 1772 684 1821 760 1821 C835 1821 889 1772 889 1701 C889 1632 835 1585 760 1585 L760 1585 Z " />
<glyph glyph-name="uring" unicode="&#x16f;" horiz-adv-x="1218" d="M1032 425 L1029 425 L1029 1082 L975 1082 L975 325 C944 167 832 34 568 34 C379 34 241 128 241 393 L241 1082 L188 1082 L188 395 C188 93 343 -20 571 -20 C776 -20 907 57 975 179 L975 0 L1029 0 L1029 362 C1031 382 1032 403 1032 425 L1032 425 Z M634 1212 C738 1212 821 1284 821 1382 C821 1480 738 1556 634 1556 C529 1556 446 1480 446 1382 C446 1284 529 1212 634 1212 L634 1212 Z M634 1502 C709 1502 763 1453 763 1382 C763 1313 709 1266 634 1266 C558 1266 503 1313 503 1382 C503 1453 558 1502 634 1502 L634 1502 Z " />
<glyph glyph-name="Uhungarumlaut" unicode="&#x170;" horiz-adv-x="1483" d="M1275 1456 L1223 1456 L1223 459 C1223 178 1015 34 742 34 C468 34 260 178 260 459 L260 1456 L207 1456 L207 459 C207 132 437 -20 742 -20 C1047 -20 1275 132 1275 459 L1275 1456 Z M818 1855 L561 1551 L632 1551 L895 1855 L818 1855 Z M1117 1855 L813 1551 L887 1551 L1198 1855 L1117 1855 Z " />
<glyph glyph-name="uhungarumlaut" unicode="&#x171;" horiz-adv-x="1218" d="M1029 425 L1029 1082 L975 1082 L975 325 C944 167 832 34 568 34 C379 34 241 128 241 393 L241 1082 L188 1082 L188 395 C188 93 343 -20 571 -20 C776 -20 907 57 975 179 L975 0 L1029 0 L1029 362 C1031 382 1032 403 1032 425 L1029 425 Z M769 1536 L692 1536 L435 1232 L506 1232 L769 1536 Z M761 1232 L1072 1536 L991 1536 L687 1232 L761 1232 Z " />
<glyph glyph-name="Uogonek" unicode="&#x172;" horiz-adv-x="1483" d="M1223 1456 L1223 459 C1223 178 1015 34 742 34 C468 34 260 178 260 459 L260 1456 L207 1456 L207 459 C207 132 437 -20 742 -20 C795 -20 845 -15 892 -6 C819 -69 757 -143 757 -213 C757 -314 818 -362 913 -362 C978 -362 1020 -338 1047 -318 L1029 -270 C1003 -287 968 -308 911 -308 C832 -308 810 -262 810 -213 C810 -120 904 -46 1004 27 C1169 94 1275 236 1275 459 L1275 1456 L1223 1456 Z " />
<glyph glyph-name="uogonek" unicode="&#x173;" horiz-adv-x="1218" d="M1044 -303 C1018 -320 983 -341 926 -341 C847 -341 825 -295 825 -246 C825 -150 925 -75 1028 0 L1029 0 L1029 362 C1031 382 1032 403 1032 425 L1029 425 L1029 1082 L975 1082 L975 325 C944 167 832 34 568 34 C379 34 241 128 241 393 L241 1082 L188 1082 L188 395 C188 93 343 -20 571 -20 C776 -20 907 57 975 179 L975 14 C876 -58 772 -154 772 -246 C772 -347 833 -395 928 -395 C993 -395 1035 -371 1062 -351 L1044 -303 Z " />
<glyph glyph-name="Wcircumflex" unicode="&#x174;" horiz-adv-x="2010" d="M1879 1456 L1552 330 L1478 87 L1407 330 L1036 1456 L976 1456 L603 330 L532 88 L459 330 L131 1456 L72 1456 L497 0 L558 0 L558 2 L951 1214 L1005 1372 L1061 1214 L1451 2 L1451 0 L1513 0 L1936 1456 L1879 1456 Z M1001 1779 L1203 1583 L1273 1583 L1273 1593 L1022 1836 L982 1836 L735 1597 L735 1583 L800 1583 L1001 1779 Z " />
<glyph glyph-name="wcircumflex" unicode="&#x175;" horiz-adv-x="1681" d="M1509 1082 L1273 313 L1205 75 L1122 313 L863 1082 L807 1082 L547 313 L464 75 L396 313 L159 1082 L98 1082 L435 0 L489 0 L772 813 L834 1013 L893 813 L1178 0 L1233 0 L1572 1082 L1509 1082 Z M831 1460 L1033 1264 L1103 1264 L1103 1274 L852 1517 L812 1517 L565 1278 L565 1264 L630 1264 L831 1460 Z " />
<glyph glyph-name="Ycircumflex" unicode="&#x176;" horiz-adv-x="1328" d="M662 602 L114 1456 L43 1456 L635 553 L635 0 L688 0 L688 553 L1280 1456 L1216 1456 L662 602 Z M931 1582 L680 1825 L640 1825 L393 1586 L393 1572 L458 1572 L659 1768 L861 1572 L931 1572 L931 1582 Z " />
<glyph glyph-name="ycircumflex" unicode="&#x177;" horiz-adv-x="1065" d="M963 1082 L558 104 L549 82 L110 1082 L53 1082 L519 7 L448 -170 C398 -295 335 -384 191 -384 C177 -384 133 -380 111 -375 L112 -426 C129 -433 174 -437 198 -437 C410 -437 465 -271 502 -180 L1021 1082 L963 1082 Z M564 1460 L766 1264 L836 1264 L836 1274 L585 1517 L545 1517 L298 1278 L298 1264 L363 1264 L564 1460 Z " />
<glyph glyph-name="Ydieresis" unicode="&#x178;" horiz-adv-x="1328" d="M662 602 L114 1456 L43 1456 L635 553 L635 0 L688 0 L688 553 L1280 1456 L1216 1456 L662 602 Z M414 1785 C382 1785 355 1760 355 1729 C355 1698 382 1674 414 1674 C447 1674 474 1698 474 1729 C474 1760 447 1785 414 1785 L414 1785 Z M908 1785 C875 1785 849 1760 849 1729 C849 1698 875 1674 908 1674 C940 1674 968 1698 968 1729 C968 1760 940 1785 908 1785 L908 1785 Z " />
<glyph glyph-name="Zacute" unicode="&#x179;" horiz-adv-x="1329" d="M183 54 L1187 1418 L1187 1456 L152 1456 L152 1403 L1109 1403 L107 44 L107 0 L1221 0 L1221 54 L183 54 Z M895 1855 L828 1855 L619 1589 L682 1589 L895 1855 Z " />
<glyph glyph-name="zacute" unicode="&#x17a;" horiz-adv-x="1063" d="M175 54 L941 1034 L941 1082 L134 1082 L134 1027 L866 1027 L99 44 L99 0 L1006 0 L1006 54 L175 54 Z M788 1536 L721 1536 L512 1270 L575 1270 L788 1536 Z " />
<glyph glyph-name="Zdotaccent" unicode="&#x17b;" horiz-adv-x="1329" d="M183 54 L1187 1418 L1187 1456 L152 1456 L152 1403 L1109 1403 L107 44 L107 0 L1221 0 L1221 54 L183 54 Z M661 1661 C693 1661 720 1685 720 1716 C720 1747 693 1772 661 1772 C628 1772 602 1747 602 1716 C602 1685 628 1661 661 1661 L661 1661 Z " />
<glyph glyph-name="zdotaccent" unicode="&#x17c;" horiz-adv-x="1063" d="M175 54 L941 1034 L941 1082 L134 1082 L134 1027 L866 1027 L99 44 L99 0 L1006 0 L1006 54 L175 54 Z M554 1342 C586 1342 613 1366 613 1397 C613 1428 586 1453 554 1453 C521 1453 495 1428 495 1397 C495 1366 521 1342 554 1342 L554 1342 Z " />
<glyph glyph-name="Zcaron" unicode="&#x17d;" horiz-adv-x="1329" d="M183 54 L1187 1418 L1187 1456 L152 1456 L152 1403 L1109 1403 L107 44 L107 0 L1221 0 L1221 54 L183 54 Z M689 1567 L922 1817 L922 1830 L870 1830 L660 1613 L450 1830 L393 1830 L393 1819 L629 1567 L689 1567 Z " />
<glyph glyph-name="zcaron" unicode="&#x17e;" horiz-adv-x="1063" d="M175 54 L941 1034 L941 1082 L134 1082 L134 1027 L866 1027 L99 44 L99 0 L1006 0 L1006 54 L175 54 Z M582 1248 L815 1498 L815 1511 L763 1511 L553 1294 L343 1511 L286 1511 L286 1500 L522 1248 L582 1248 Z " />
<glyph glyph-name="florin" unicode="&#x192;" horiz-adv-x="703" d="M643 1027 L643 1082 L332 1082 L332 1236 C332 1405 428 1503 582 1503 C641 1503 669 1498 711 1488 L719 1540 C674 1553 626 1557 581 1557 C393 1557 280 1443 280 1236 L280 1082 L77 1082 L77 1027 L280 1027 L280 -89 C280 -277 189 -383 26 -383 C-14 -383 -57 -373 -80 -365 L-94 -417 C-52 -430 -17 -437 26 -437 C219 -437 332 -314 332 -89 L332 1027 L643 1027 Z " />
<glyph glyph-name="Ohorn" unicode="&#x1a0;" horiz-adv-x="1403" d="M1577 1541 L1523 1541 C1523 1351 1473 1243 1258 1238 C1157 1388 989 1476 774 1476 C415 1476 188 1231 188 857 L188 599 C188 225 417 -20 776 -20 C1136 -20 1363 225 1363 599 L1363 857 C1363 983 1337 1094 1289 1186 C1502 1201 1577 1324 1577 1541 L1577 1541 Z M1311 599 C1311 262 1117 34 776 34 C437 34 241 262 241 599 L241 859 C241 1194 435 1422 774 1422 C1114 1422 1311 1194 1311 859 L1311 599 Z " />
<glyph glyph-name="ohorn" unicode="&#x1a1;" horiz-adv-x="1087" d="M1250 1196 L1195 1196 C1195 1047 1161 959 979 953 C891 1048 763 1102 610 1102 C311 1102 107 889 107 572 L107 510 C107 193 311 -20 613 -20 C914 -20 1115 193 1115 510 L1115 572 C1115 702 1081 815 1020 902 C1193 921 1250 1022 1250 1196 L1250 1196 Z M1063 510 C1063 252 899 34 613 34 C324 34 160 252 160 510 L160 572 C160 824 324 1048 610 1048 C898 1048 1063 824 1063 572 L1063 510 Z " />
<glyph glyph-name="Uhorn" unicode="&#x1af;" horiz-adv-x="1321" d="M1581 1551 L1528 1551 C1528 1365 1479 1258 1277 1249 L1277 1456 L1225 1456 L1225 459 C1225 178 1017 34 744 34 C470 34 262 178 262 459 L262 1456 L209 1456 L209 459 C209 132 439 -20 744 -20 C1049 -20 1277 132 1277 459 L1277 1195 C1503 1204 1581 1328 1581 1551 L1581 1551 Z " />
<glyph glyph-name="uhorn" unicode="&#x1b0;" horiz-adv-x="1098" d="M1279 1190 L1223 1190 C1223 1047 1191 961 1031 948 L1031 1082 L977 1082 L977 325 C946 167 834 34 570 34 C381 34 243 128 243 393 L243 1082 L190 1082 L190 395 C190 93 345 -20 573 -20 C778 -20 909 57 977 179 L977 0 L1031 0 L1031 362 C1033 382 1034 403 1034 425 L1031 425 L1031 894 C1218 907 1279 1011 1279 1190 L1279 1190 Z " />
<glyph glyph-name="Scommaaccent" unicode="&#x218;" horiz-adv-x="1173" d="M677 718 C1035 627 1164 533 1164 349 C1164 162 965 34 687 34 C460 34 162 120 162 411 L110 411 C110 85 420 -20 687 -20 C978 -20 1218 113 1218 351 C1218 596 998 695 692 770 C312 860 213 967 213 1122 C213 1280 381 1422 679 1422 C960 1422 1148 1261 1148 1046 L1200 1046 C1200 1303 982 1476 680 1476 C385 1476 160 1342 160 1120 C160 886 358 799 677 718 L677 718 Z M-187 -475 L-187 -398 L-240 -398 L-240 -477 C-240 -564 -264 -619 -314 -685 L-278 -717 C-224 -660 -187 -580 -187 -475 L-187 -475 Z " />
<glyph glyph-name="scommaaccent" unicode="&#x219;" horiz-adv-x="988" d="M552 531 C840 462 911 361 911 263 C911 150 788 34 557 34 C386 34 189 87 175 273 L122 273 C122 114 276 -20 557 -20 C806 -20 964 95 964 262 C964 432 839 511 569 578 C266 655 213 725 213 832 C213 933 310 1048 548 1048 C781 1048 910 928 910 794 L964 794 C964 978 808 1102 548 1102 C305 1102 160 981 160 830 C160 660 293 594 552 531 L552 531 Z M-303 -470 L-303 -393 L-356 -393 L-356 -472 C-356 -559 -380 -614 -430 -680 L-394 -712 C-340 -655 -303 -575 -303 -470 L-303 -470 Z " />
<glyph glyph-name="uni021A" unicode="&#x21a;" horiz-adv-x="1185" d="M1264 1456 L65 1456 L65 1402 L638 1402 L638 0 L690 0 L690 1402 L1264 1402 L1264 1456 Z M-260 -467 C-260 -554 -284 -609 -334 -675 L-298 -707 C-244 -650 -207 -570 -207 -465 L-207 -388 L-260 -388 L-260 -467 Z " />
<glyph glyph-name="uni021B" unicode="&#x21b;" horiz-adv-x="632" d="M611 43 C570 38 539 34 495 34 C400 34 318 69 318 259 L318 1027 L584 1027 L584 1082 L318 1082 L318 1374 L264 1374 L264 1082 L49 1082 L49 1027 L264 1027 L264 259 C264 42 352 -20 500 -20 C529 -20 590 -18 621 -8 L611 43 Z M-451 -467 C-451 -554 -475 -609 -525 -675 L-489 -707 C-435 -650 -398 -570 -398 -465 L-398 -388 L-451 -388 L-451 -467 Z " />
<glyph glyph-name="uni0298" unicode="&#x298;" horiz-adv-x="1320" d="M739 784 C708 784 682 759 682 728 C682 697 708 673 739 673 C771 673 796 697 796 728 C796 759 771 784 739 784 L739 784 Z M1329 599 L1329 857 C1329 1231 1099 1476 740 1476 C381 1476 154 1231 154 857 L154 599 C154 225 383 -20 742 -20 C1102 -20 1329 225 1329 599 L1329 599 Z M1277 859 L1277 599 C1277 262 1083 34 742 34 C403 34 207 262 207 599 L207 859 C207 1194 401 1422 740 1422 C1080 1422 1277 1194 1277 859 L1277 859 Z " />
<glyph glyph-name="uni02AA" unicode="&#x2aa;" horiz-adv-x="1157" d="M754 579 C454 642 397 714 397 831 C397 932 494 1048 733 1048 C966 1048 1095 927 1095 793 L1148 793 C1148 977 993 1102 733 1102 C491 1102 345 980 345 829 C345 652 478 584 738 532 C1029 474 1097 363 1097 265 C1097 152 974 33 757 33 C559 33 406 94 267 200 C265 218 264 237 264 259 L264 1536 L210 1536 L210 259 C210 42 298 -20 446 -20 C475 -20 536 -18 567 -8 L565 0 C624 -13 688 -21 757 -21 C992 -21 1149 97 1149 264 C1149 439 1024 522 754 579 L754 579 Z M441 34 C378 34 321 49 289 115 C327 89 382 59 450 34 L441 34 Z " />
<glyph glyph-name="uni02AD" unicode="&#x2ad;" horiz-adv-x="1036" d="M899 581 L137 581 L137 0 L191 0 L191 527 L844 527 L844 0 L899 0 L899 581 Z M899 1455 L137 1455 L137 874 L191 874 L191 1401 L844 1401 L844 874 L899 874 L899 1455 Z " />
<glyph glyph-name="uni02AF" unicode="&#x2af;" horiz-adv-x="1510" d="M1522 -365 C1500 -373 1455 -383 1414 -383 C1253 -383 1207 -276 1207 -89 L1207 1082 L1154 1082 L1154 392 C1121 250 997 33 741 33 C552 33 421 115 421 422 L421 754 C421 979 353 1102 159 1102 C115 1102 81 1095 38 1082 L53 1030 C76 1038 120 1048 161 1048 C323 1048 368 941 368 754 L368 422 C368 107 502 -20 738 -20 C936 -20 1085 103 1154 259 L1154 -89 C1154 -314 1223 -437 1416 -437 C1460 -437 1495 -430 1537 -417 L1522 -365 Z " />
<glyph glyph-name="uni02B5" unicode="&#x2b5;" horiz-adv-x="675" d="M535 436 C481 436 455 468 455 527 L455 1456 L402 1456 L402 939 C369 794 256 690 123 690 C89 690 65 692 49 694 L49 646 C65 643 90 641 124 641 C243 641 345 709 402 817 L402 525 C402 442 439 382 523 382 C552 382 590 386 626 396 L626 449 C590 438 560 436 535 436 L535 436 Z " />
<glyph glyph-name="uni02B9" unicode="&#x2b9;" horiz-adv-x="373" d="M223 1560 L95 1122 L146 1122 L277 1560 L223 1560 Z " />
<glyph glyph-name="uni02BA" unicode="&#x2ba;" horiz-adv-x="550" d="M225 1560 L97 1122 L148 1122 L279 1560 L225 1560 Z M386 1560 L258 1122 L309 1122 L440 1560 L386 1560 Z " />
<glyph glyph-name="uni02BB" unicode="&#x2bb;" horiz-adv-x="332" d="M92 1296 L92 1128 L145 1128 L145 1298 C145 1401 176 1468 240 1546 L203 1578 C137 1511 92 1419 92 1296 L92 1296 Z " />
<glyph glyph-name="uni02BC" unicode="&#x2bc;" horiz-adv-x="352" d="M240 1433 L240 1536 L188 1536 L188 1431 C188 1328 157 1261 93 1183 L129 1151 C195 1218 240 1310 240 1433 L240 1433 Z " />
<glyph glyph-name="uni02BD" unicode="&#x2bd;" horiz-adv-x="332" d="M92 1410 L92 1578 L145 1578 L145 1408 C145 1305 176 1238 240 1160 L203 1128 C137 1195 92 1287 92 1410 L92 1410 Z " />
<glyph glyph-name="uni02BE" unicode="&#x2be;" horiz-adv-x="328" d="M94 1259 L94 1203 C171 1203 234 1262 234 1338 C234 1414 171 1477 94 1477 L94 1420 C140 1420 174 1386 174 1338 C174 1292 140 1259 94 1259 L94 1259 Z " />
<glyph glyph-name="uni02BF" unicode="&#x2bf;" horiz-adv-x="328" d="M234 1259 L234 1203 C158 1203 94 1262 94 1338 C94 1414 158 1477 234 1477 L234 1420 C188 1420 153 1386 153 1338 C153 1292 188 1259 234 1259 L234 1259 Z " />
<glyph glyph-name="uni02C0" unicode="&#x2c0;" horiz-adv-x="812" d="M369 1806 C205 1806 57 1711 50 1527 L104 1527 C111 1686 242 1752 369 1752 C564 1752 665 1606 665 1407 L665 1313 C665 1112 581 952 368 952 L341 952 L341 651 L394 651 L394 899 C621 911 719 1086 719 1313 L719 1407 C719 1641 591 1806 369 1806 L369 1806 Z " />
<glyph glyph-name="uni02C1" unicode="&#x2c1;" horiz-adv-x="812" d="M441 1806 C221 1806 93 1641 93 1407 L93 1313 C93 1086 191 911 417 899 L417 651 L470 651 L470 952 L443 952 C230 952 146 1112 146 1313 L146 1407 C146 1606 247 1752 441 1752 C569 1752 700 1686 708 1527 L762 1527 C754 1711 606 1806 441 1806 L441 1806 Z " />
<glyph glyph-name="uni02C2" unicode="&#x2c2;" horiz-adv-x="969" d="M875 1269 L875 1329 L93 990 L93 936 L875 596 L875 655 L265 917 L150 963 L265 1006 L875 1269 Z " />
<glyph glyph-name="uni02C3" unicode="&#x2c3;" horiz-adv-x="934" d="M36 1329 L36 1269 L646 1006 L761 963 L646 917 L36 655 L36 596 L818 936 L818 990 L36 1329 Z " />
<glyph glyph-name="uni02C4" unicode="&#x2c4;" horiz-adv-x="921" d="M494 1310 L439 1310 L72 583 L131 583 L416 1146 L466 1258 L514 1146 L801 583 L861 583 L494 1310 Z " />
<glyph glyph-name="uni02C5" unicode="&#x2c5;" horiz-adv-x="955" d="M801 1310 L514 747 L466 635 L416 747 L131 1310 L72 1310 L439 583 L494 583 L861 1310 L801 1310 Z " />
<glyph glyph-name="circumflex" unicode="&#x2c6;" horiz-adv-x="861" d="M707 1274 L456 1517 L416 1517 L169 1278 L169 1264 L234 1264 L435 1460 L637 1264 L707 1264 L707 1274 Z " />
<glyph glyph-name="caron" unicode="&#x2c7;" horiz-adv-x="828" d="M431 1289 L221 1506 L164 1506 L164 1495 L400 1243 L460 1243 L693 1493 L693 1506 L641 1506 L431 1289 Z " />
<glyph glyph-name="uni02C8" unicode="&#x2c8;" horiz-adv-x="240" d="M147 1151 L147 1559 L93 1559 L93 1151 L147 1151 Z " />
<glyph glyph-name="uni02C9" unicode="&#x2c9;" horiz-adv-x="880" d="M756 1383 L756 1436 L150 1436 L150 1383 L756 1383 Z " />
<glyph glyph-name="uni02CA" unicode="&#x2ca;" horiz-adv-x="513" d="M327 1536 L118 1270 L181 1270 L394 1536 L327 1536 Z " />
<glyph glyph-name="uni02CB" unicode="&#x2cb;" horiz-adv-x="526" d="M428 1270 L220 1536 L153 1536 L366 1270 L428 1270 Z " />
<glyph glyph-name="uni02CC" unicode="&#x2cc;" horiz-adv-x="240" d="M147 -540 L147 -141 L93 -141 L93 -540 L147 -540 Z " />
<glyph glyph-name="uni02CD" unicode="&#x2cd;" horiz-adv-x="858" d="M746 -217 L746 -164 L140 -164 L140 -217 L746 -217 Z " />
<glyph glyph-name="uni02CE" unicode="&#x2ce;" horiz-adv-x="526" d="M428 -350 L220 -84 L153 -84 L366 -350 L428 -350 Z " />
<glyph glyph-name="uni02CF" unicode="&#x2cf;" horiz-adv-x="513" d="M327 -84 L118 -350 L181 -350 L394 -84 L327 -84 Z " />
<glyph glyph-name="uni02D0" unicode="&#x2d0;" horiz-adv-x="408" d="M199 101 C199 101 137 0 137 0 L270 0 C270 0 208 101 208 101 L199 101 Z M270 1062 C270 1062 137 1062 137 1062 L199 961 C199 961 208 961 208 961 L270 1062 Z " />
<glyph glyph-name="uni02D1" unicode="&#x2d1;" horiz-adv-x="408" d="M270 1062 C270 1062 137 1062 137 1062 L199 961 C199 961 208 961 208 961 L270 1062 Z " />
<glyph glyph-name="uni02D2" unicode="&#x2d2;" horiz-adv-x="328" d="M96 249 L96 193 C173 193 236 252 236 328 C236 404 173 467 96 467 L96 410 C142 410 176 376 176 328 C176 282 142 249 96 249 L96 249 Z " />
<glyph glyph-name="uni02D3" unicode="&#x2d3;" horiz-adv-x="328" d="M234 193 L234 249 C188 249 153 282 153 328 C153 376 188 410 234 410 L234 467 C158 467 94 404 94 328 C94 252 158 193 234 193 L234 193 Z " />
<glyph glyph-name="uni02D5" unicode="&#x2d5;" horiz-adv-x="624" d="M532 509 L92 509 L92 455 L285 455 L285 171 L339 171 L339 455 L532 455 L532 509 Z " />
<glyph glyph-name="uni02D6" unicode="&#x2d6;" horiz-adv-x="624" d="M532 383 L339 383 L339 559 L285 559 L285 383 L92 383 L92 329 L285 329 L285 151 L339 151 L339 329 L532 329 L532 383 Z " />
<glyph glyph-name="uni02D7" unicode="&#x2d7;" horiz-adv-x="669" d="M576 383 L93 383 L93 329 L576 329 L576 383 Z " />
<glyph glyph-name="breve" unicode="&#x2d8;" horiz-adv-x="953" d="M781 1486 L726 1486 C726 1383 652 1294 474 1294 C288 1294 221 1381 221 1486 L165 1486 C165 1340 281 1238 474 1238 C666 1238 781 1340 781 1486 L781 1486 Z " />
<glyph glyph-name="dotaccent" unicode="&#x2d9;" horiz-adv-x="468" d="M234 1453 C201 1453 175 1428 175 1397 C175 1366 201 1342 234 1342 C266 1342 293 1366 293 1397 C293 1428 266 1453 234 1453 L234 1453 Z " />
<glyph glyph-name="ring" unicode="&#x2da;" horiz-adv-x="649" d="M316 1556 C211 1556 128 1480 128 1382 C128 1284 211 1212 316 1212 C420 1212 503 1284 503 1382 C503 1480 420 1556 316 1556 L316 1556 Z M316 1266 C240 1266 185 1313 185 1382 C185 1453 240 1502 316 1502 C391 1502 445 1453 445 1382 C445 1313 391 1266 316 1266 L316 1266 Z " />
<glyph glyph-name="ogonek" unicode="&#x2db;" horiz-adv-x="516" d="M340 0 L295 20 C194 -53 84 -152 84 -246 C84 -347 145 -395 240 -395 C305 -395 347 -371 374 -351 L356 -303 C330 -320 295 -341 238 -341 C159 -341 137 -295 137 -246 C137 -150 237 -75 340 0 L340 0 Z " />
<glyph glyph-name="tilde" unicode="&#x2dc;" horiz-adv-x="885" d="M787 1472 L730 1472 C730 1388 671 1341 599 1341 C478 1341 440 1465 289 1465 C184 1465 102 1396 102 1286 L158 1286 C158 1370 216 1411 289 1411 C417 1411 444 1286 599 1286 C703 1286 787 1361 787 1472 L787 1472 Z " />
<glyph glyph-name="hungarumlaut" unicode="&#x2dd;" d="M422 1536 L165 1232 L236 1232 L499 1536 L422 1536 Z M721 1536 L417 1232 L491 1232 L802 1536 L721 1536 Z " />
<glyph glyph-name="uni02DE" unicode="&#x2de;" horiz-adv-x="463" d="M-192 672 L-192 619 L78 676 C77 419 148 384 244 384 C281 384 324 395 369 411 L358 460 C321 450 277 440 244 440 C186 440 122 459 131 741 L-192 672 Z " />
<glyph glyph-name="uni02DF" unicode="&#x2df;" horiz-adv-x="656" d="M564 1566 L527 1604 L329 1415 L129 1606 L92 1567 L290 1378 L92 1189 L129 1151 L329 1341 L527 1152 L564 1191 L367 1379 L564 1566 Z " />
<glyph glyph-name="uni02E0" unicode="&#x2e0;" horiz-adv-x="804" d="M429 660 L755 1456 L697 1456 L448 842 L402 724 L358 842 L106 1456 L49 1456 L375 660 L302 507 C287 474 273 434 273 404 C273 326 324 283 401 283 C479 283 532 326 532 404 C532 431 522 467 505 503 L429 660 Z M401 337 C352 337 326 360 326 404 C326 441 342 485 373 552 L401 610 L430 551 C461 486 478 441 478 404 C478 360 451 337 401 337 L401 337 Z " />
<glyph glyph-name="uni02E1" unicode="&#x2e1;" horiz-adv-x="326" d="M190 651 L190 1805 L136 1805 L136 651 L190 651 Z " />
<glyph glyph-name="uni02E2" unicode="&#x2e2;" horiz-adv-x="808" d="M411 1040 C626 997 662 919 662 847 C662 763 585 689 413 689 C287 689 157 716 147 854 L93 854 C93 715 207 635 413 635 C598 635 715 722 715 846 C715 987 606 1050 429 1087 C197 1135 174 1194 174 1265 C174 1340 242 1412 408 1412 C579 1412 659 1337 659 1237 L714 1237 C714 1374 600 1466 408 1466 C228 1466 121 1376 121 1264 C121 1133 219 1079 411 1040 L411 1040 Z " />
<glyph glyph-name="uni02E4" unicode="&#x2e4;" horiz-adv-x="760" d="M656 1169 C656 1353 529 1466 384 1466 C212 1466 104 1349 104 1125 C104 938 172 825 345 811 L345 651 L398 651 L398 863 L389 863 C216 863 156 951 156 1125 C156 1303 227 1412 384 1412 C495 1412 604 1329 603 1169 L656 1169 Z " />
<glyph glyph-name="uni02EA" unicode="&#x2ea;" horiz-adv-x="916" d="M276 54 L276 908 L224 908 L224 0 L867 0 L867 54 L276 54 Z " />
<glyph glyph-name="uni02EE" unicode="&#x2ee;" horiz-adv-x="494" d="M240 1393 L240 1560 L187 1560 L187 1391 C187 1288 157 1221 92 1143 L129 1111 C194 1178 240 1270 240 1393 L240 1393 Z M401 1393 L401 1560 L349 1560 L349 1391 C349 1288 318 1221 254 1143 L290 1111 C356 1178 401 1270 401 1393 L401 1393 Z " />
<glyph glyph-name="uni02EF" unicode="&#x2ef;" horiz-adv-x="739" d="M592 -72 L392 -438 L369 -502 L345 -438 L145 -72 L93 -72 L351 -545 L389 -545 L646 -72 L592 -72 Z " />
<glyph glyph-name="uni02F0" unicode="&#x2f0;" horiz-adv-x="739" d="M389 -72 L351 -72 L93 -545 L145 -545 L345 -179 L369 -115 L392 -179 L592 -545 L646 -545 L389 -72 Z " />
<glyph glyph-name="uni02F1" unicode="&#x2f1;" horiz-adv-x="734" d="M641 -120 L641 -71 L93 -291 L93 -326 L641 -547 L641 -499 L214 -329 L144 -309 L214 -291 L641 -120 Z " />
<glyph glyph-name="uni02F2" unicode="&#x2f2;" horiz-adv-x="734" d="M93 -71 L93 -120 L520 -291 L590 -309 L520 -329 L93 -499 L93 -547 L641 -326 L641 -291 L93 -71 Z " />
<glyph glyph-name="uni02F3" unicode="&#x2f3;" horiz-adv-x="704" d="M354 -99 C276 -99 212 -154 212 -219 C212 -284 276 -335 354 -335 C432 -335 496 -284 496 -219 C496 -154 432 -99 354 -99 L354 -99 Z M354 -279 C309 -279 273 -254 273 -219 C273 -183 309 -157 354 -157 C400 -157 436 -183 436 -219 C436 -254 400 -279 354 -279 L354 -279 Z " />
<glyph glyph-name="uni02F4" unicode="&#x2f4;" horiz-adv-x="526" d="M428 232 L220 498 L153 498 L366 232 L428 232 Z " />
<glyph glyph-name="uni02F5" unicode="&#x2f5;" horiz-adv-x="735" d="M428 232 L220 498 L153 498 L366 232 L428 232 Z M621 232 L413 498 L346 498 L559 232 L621 232 Z " />
<glyph glyph-name="uni02F6" unicode="&#x2f6;" horiz-adv-x="722" d="M327 496 L118 230 L181 230 L394 496 L327 496 Z M519 496 L310 230 L373 230 L586 496 L519 496 Z " />
<glyph glyph-name="uni02F7" unicode="&#x2f7;" horiz-adv-x="871" d="M794 -178 L738 -178 C738 -262 678 -309 607 -309 C486 -309 448 -185 297 -185 C191 -185 109 -254 109 -364 L166 -364 C166 -280 224 -239 297 -239 C424 -239 451 -364 606 -364 C711 -364 794 -289 794 -178 L794 -178 Z " />
<glyph glyph-name="uni02F8" unicode="&#x2f8;" horiz-adv-x="396" d="M199 505 C167 505 140 480 140 449 C140 418 167 394 199 394 C232 394 258 418 258 449 C258 480 232 505 199 505 L199 505 Z M203 1467 C171 1467 144 1442 144 1411 C144 1380 171 1356 203 1356 C236 1356 262 1380 262 1411 C262 1442 236 1467 203 1467 L203 1467 Z " />
<glyph glyph-name="uni02F9" unicode="&#x2f9;" horiz-adv-x="613" d="M521 1536 L92 1536 L92 1150 L146 1150 L146 1482 L521 1482 L521 1536 Z " />
<glyph glyph-name="uni02FA" unicode="&#x2fa;" horiz-adv-x="613" d="M521 1536 L92 1536 L92 1482 L466 1482 L466 1150 L521 1150 L521 1536 Z " />
<glyph glyph-name="uni02FB" unicode="&#x2fb;" horiz-adv-x="613" d="M146 -383 L146 -51 L92 -51 L92 -437 L521 -437 L521 -383 L146 -383 Z " />
<glyph glyph-name="uni02FC" unicode="&#x2fc;" horiz-adv-x="613" d="M466 -51 L466 -383 L92 -383 L92 -437 L521 -437 L521 -51 L466 -51 Z " />
<glyph glyph-name="uni02FD" unicode="&#x2fd;" horiz-adv-x="850" d="M704 -51 L704 -343 L148 -343 L148 -51 L92 -51 L92 -397 L758 -397 L758 -51 L704 -51 Z " />
<glyph glyph-name="uni02FE" unicode="&#x2fe;" horiz-adv-x="721" d="M148 -383 L148 -51 L92 -51 L92 -437 L628 -437 L628 -383 L148 -383 Z " />
<glyph glyph-name="uni02FF" unicode="&#x2ff;" horiz-adv-x="950" d="M858 -103 L204 -103 L495 169 L417 169 L93 -133 L417 -435 L496 -435 L199 -157 L858 -157 L858 -103 Z " />
<glyph glyph-name="gravecomb" unicode="&#x300;" horiz-adv-x="0" d="M-523 1270 L-725 1536 L-789 1536 L-582 1270 L-523 1270 Z " />
<glyph glyph-name="acutecomb" unicode="&#x301;" horiz-adv-x="0" d="M-406 1536 L-608 1270 L-548 1270 L-341 1536 L-406 1536 Z " />
<glyph glyph-name="uni0302" unicode="&#x302;" horiz-adv-x="0" d="M-326 1274 L-577 1517 L-617 1517 L-864 1278 L-864 1264 L-799 1264 L-598 1460 L-396 1264 L-326 1264 L-326 1274 Z " />
<glyph glyph-name="tildecomb" unicode="&#x303;" horiz-adv-x="0" d="M-189 1472 L-246 1472 C-246 1388 -305 1341 -377 1341 C-498 1341 -536 1465 -687 1465 C-792 1465 -874 1396 -874 1286 L-818 1286 C-818 1370 -760 1411 -687 1411 C-559 1411 -532 1286 -377 1286 C-273 1286 -189 1361 -189 1472 L-189 1472 Z " />
<glyph glyph-name="uni0304" unicode="&#x304;" horiz-adv-x="0" d="M-283 1383 L-283 1436 L-889 1436 L-889 1383 L-283 1383 Z " />
<glyph glyph-name="uni0305" unicode="&#x305;" horiz-adv-x="0" d="M-142 1626 L-142 1680 L-1050 1680 L-1050 1626 L-142 1626 Z " />
<glyph glyph-name="uni0306" unicode="&#x306;" horiz-adv-x="0" d="M-300 1486 L-353 1486 C-353 1383 -424 1294 -598 1294 C-778 1294 -843 1381 -843 1486 L-897 1486 C-897 1340 -785 1238 -598 1238 C-411 1238 -300 1340 -300 1486 L-300 1486 Z " />
<glyph glyph-name="uni0307" unicode="&#x307;" horiz-adv-x="0" d="M-598 1476 C-630 1476 -655 1451 -655 1420 C-655 1389 -630 1365 -598 1365 C-566 1365 -540 1389 -540 1420 C-540 1451 -566 1476 -598 1476 L-598 1476 Z " />
<glyph glyph-name="uni0308" unicode="&#x308;" horiz-adv-x="0" d="M-834 1477 C-865 1477 -891 1452 -891 1421 C-891 1390 -865 1366 -834 1366 C-803 1366 -776 1390 -776 1421 C-776 1452 -803 1477 -834 1477 L-834 1477 Z M-355 1477 C-386 1477 -411 1452 -411 1421 C-411 1390 -386 1366 -355 1366 C-323 1366 -297 1390 -297 1421 C-297 1452 -323 1477 -355 1477 L-355 1477 Z " />
<glyph glyph-name="hookabovecomb" unicode="&#x309;" horiz-adv-x="0" d="M-636 1227 L-587 1227 L-587 1281 C-468 1289 -374 1333 -374 1440 C-374 1540 -502 1599 -680 1599 L-687 1550 C-571 1550 -431 1524 -431 1440 C-431 1366 -493 1337 -636 1326 L-636 1227 Z " />
<glyph glyph-name="uni030A" unicode="&#x30a;" horiz-adv-x="0" d="M-650 1556 C-755 1556 -838 1480 -838 1382 C-838 1284 -755 1212 -650 1212 C-546 1212 -463 1284 -463 1382 C-463 1480 -546 1556 -650 1556 L-650 1556 Z M-650 1266 C-726 1266 -781 1313 -781 1382 C-781 1453 -726 1502 -650 1502 C-575 1502 -521 1453 -521 1382 C-521 1313 -575 1266 -650 1266 L-650 1266 Z " />
<glyph glyph-name="uni030B" unicode="&#x30b;" horiz-adv-x="0" d="M-630 1536 L-839 1270 L-776 1270 L-563 1536 L-630 1536 Z M-341 1536 L-550 1270 L-487 1270 L-274 1536 L-341 1536 Z " />
<glyph glyph-name="uni030C" unicode="&#x30c;" horiz-adv-x="0" d="M-328 1507 L-579 1264 L-620 1264 L-867 1503 L-867 1517 L-802 1517 L-601 1321 L-398 1517 L-328 1517 L-328 1507 Z " />
<glyph glyph-name="uni030D" unicode="&#x30d;" horiz-adv-x="0" d="M-569 1151 L-569 1559 L-623 1559 L-623 1151 L-569 1151 Z " />
<glyph glyph-name="uni030E" unicode="&#x30e;" horiz-adv-x="0" d="M-638 1151 L-638 1559 L-692 1559 L-692 1151 L-638 1151 Z M-424 1151 L-424 1559 L-478 1559 L-478 1151 L-424 1151 Z " />
<glyph glyph-name="uni030F" unicode="&#x30f;" horiz-adv-x="0" d="M-957 1518 L-641 1252 L-716 1252 L-1036 1518 L-957 1518 Z M-668 1518 L-401 1252 L-472 1252 L-744 1518 L-668 1518 Z " />
<glyph glyph-name="uni0310" unicode="&#x310;" horiz-adv-x="0" d="M-300 1486 L-354 1486 C-354 1383 -425 1294 -599 1294 C-779 1294 -844 1381 -844 1486 L-898 1486 C-898 1340 -786 1238 -599 1238 C-412 1238 -300 1340 -300 1486 L-300 1486 Z M-599 1608 C-631 1608 -656 1583 -656 1552 C-656 1521 -631 1497 -599 1497 C-567 1497 -541 1521 -541 1552 C-541 1583 -567 1608 -599 1608 L-599 1608 Z " />
<glyph glyph-name="uni0311" unicode="&#x311;" horiz-adv-x="0" d="M-354 1208 L-300 1208 C-300 1354 -412 1456 -599 1456 C-786 1456 -898 1354 -898 1208 L-844 1208 C-844 1313 -779 1400 -599 1400 C-425 1400 -354 1311 -354 1208 L-354 1208 Z " />
<glyph glyph-name="uni0312" unicode="&#x312;" horiz-adv-x="0" d="M-626 1296 L-626 1128 L-574 1128 L-574 1298 C-574 1401 -543 1468 -479 1546 L-515 1578 C-581 1511 -626 1419 -626 1296 L-626 1296 Z " />
<glyph glyph-name="uni0313" unicode="&#x313;" horiz-adv-x="0" d="M-533 1410 L-533 1578 L-585 1578 L-585 1408 C-585 1305 -616 1238 -680 1160 L-644 1128 C-578 1195 -533 1287 -533 1410 L-533 1410 Z " />
<glyph glyph-name="uni0314" unicode="&#x314;" horiz-adv-x="0" d="M-624 1410 L-624 1578 L-572 1578 L-572 1408 C-572 1305 -541 1238 -477 1160 L-513 1128 C-579 1195 -624 1287 -624 1410 L-624 1410 Z " />
<glyph glyph-name="uni0315" unicode="&#x315;" horiz-adv-x="0" d="M-108 1410 L-108 1578 L-160 1578 L-160 1408 C-160 1305 -191 1238 -255 1160 L-219 1128 C-153 1195 -108 1287 -108 1410 L-108 1410 Z " />
<glyph glyph-name="uni0316" unicode="&#x316;" horiz-adv-x="0" d="M-434 -350 L-642 -84 L-709 -84 L-496 -350 L-434 -350 Z " />
<glyph glyph-name="uni0317" unicode="&#x317;" horiz-adv-x="0" d="M-528 -84 L-737 -350 L-674 -350 L-461 -84 L-528 -84 Z " />
<glyph glyph-name="uni0318" unicode="&#x318;" horiz-adv-x="0" d="M-491 -60 L-491 -227 L-758 -227 L-758 -280 L-491 -280 L-491 -446 L-438 -446 L-438 -60 L-491 -60 Z " />
<glyph glyph-name="uni0319" unicode="&#x319;" horiz-adv-x="0" d="M-438 -227 L-706 -227 L-706 -60 L-759 -60 L-759 -446 L-706 -446 L-706 -280 L-438 -280 L-438 -227 Z " />
<glyph glyph-name="uni031A" unicode="&#x31a;" horiz-adv-x="0" d="M-291 1609 L-916 1609 L-916 1555 L-345 1555 L-345 1283 L-291 1283 L-291 1609 Z " />
<glyph glyph-name="uni031B" unicode="&#x31b;" horiz-adv-x="0" d="M-202 1361 L-202 1457 L-254 1457 C-254 1240 -259 1172 -349 1039 L-313 1007 C-243 1086 -202 1163 -202 1361 L-202 1361 Z " />
<glyph glyph-name="uni031C" unicode="&#x31c;" horiz-adv-x="0" d="M-569 -334 L-569 -390 C-646 -390 -709 -331 -709 -255 C-709 -179 -646 -116 -569 -116 L-569 -173 C-615 -173 -650 -207 -650 -255 C-650 -301 -615 -334 -569 -334 L-569 -334 Z " />
<glyph glyph-name="uni031D" unicode="&#x31d;" horiz-adv-x="0" d="M-570 -376 L-570 -92 L-624 -92 L-624 -376 L-817 -376 L-817 -430 L-377 -430 L-377 -376 L-570 -376 Z " />
<glyph glyph-name="uni031E" unicode="&#x31e;" horiz-adv-x="0" d="M-378 -101 L-817 -101 L-817 -155 L-624 -155 L-624 -439 L-570 -439 L-570 -155 L-378 -155 L-378 -101 Z " />
<glyph glyph-name="uni031F" unicode="&#x31f;" horiz-adv-x="0" d="M-377 -257 L-570 -257 L-570 -81 L-624 -81 L-624 -257 L-817 -257 L-817 -311 L-624 -311 L-624 -489 L-570 -489 L-570 -311 L-377 -311 L-377 -257 Z " />
<glyph glyph-name="uni0320" unicode="&#x320;" horiz-adv-x="0" d="M-324 -257 L-874 -257 L-874 -311 L-324 -311 L-324 -257 Z " />
<glyph glyph-name="uni0321" unicode="&#x321;" horiz-adv-x="0" d="M-139 54 L-191 54 L-191 -89 C-191 -276 -238 -383 -399 -383 C-439 -383 -484 -373 -507 -365 L-521 -417 C-479 -430 -446 -437 -401 -437 C-209 -437 -139 -314 -139 -89 L-139 54 Z " />
<glyph glyph-name="uni0322" unicode="&#x322;" horiz-adv-x="0" d="M-196 54 L-144 54 L-144 -89 C-144 -276 -98 -383 64 -383 C105 -383 149 -373 172 -365 L187 -417 C144 -430 110 -437 66 -437 C-127 -437 -196 -314 -196 -89 L-196 54 Z " />
<glyph glyph-name="dotbelowcomb" unicode="&#x323;" horiz-adv-x="0" d="M-635 -162 C-667 -162 -694 -187 -694 -218 C-694 -249 -667 -273 -635 -273 C-602 -273 -575 -249 -575 -218 C-575 -187 -602 -162 -635 -162 L-635 -162 Z " />
<glyph glyph-name="uni0324" unicode="&#x324;" horiz-adv-x="0" d="M-834 -162 C-865 -162 -891 -187 -891 -218 C-891 -249 -865 -273 -834 -273 C-803 -273 -776 -249 -776 -218 C-776 -187 -803 -162 -834 -162 L-834 -162 Z M-355 -162 C-386 -162 -411 -187 -411 -218 C-411 -249 -386 -273 -355 -273 C-323 -273 -297 -249 -297 -218 C-297 -187 -323 -162 -355 -162 L-355 -162 Z " />
<glyph glyph-name="uni0325" unicode="&#x325;" horiz-adv-x="0" d="M-654 -74 C-759 -74 -842 -150 -842 -248 C-842 -346 -759 -418 -654 -418 C-550 -418 -467 -346 -467 -248 C-467 -150 -550 -74 -654 -74 L-654 -74 Z M-654 -364 C-730 -364 -785 -317 -785 -248 C-785 -177 -730 -128 -654 -128 C-579 -128 -525 -177 -525 -248 C-525 -317 -579 -364 -654 -364 L-654 -364 Z " />
<glyph glyph-name="uni0326" unicode="&#x326;" horiz-adv-x="0" d="M-558 -250 L-558 -173 L-611 -173 L-611 -252 C-611 -339 -635 -394 -685 -460 L-649 -492 C-595 -435 -558 -355 -558 -250 L-558 -250 Z " />
<glyph glyph-name="uni0327" unicode="&#x327;" horiz-adv-x="0" d="M-556 0 L-610 0 L-637 -121 C-503 -134 -432 -157 -432 -245 C-432 -344 -574 -386 -690 -386 L-683 -435 C-494 -435 -377 -359 -377 -245 C-377 -124 -472 -85 -568 -76 L-556 0 Z " />
<glyph glyph-name="uni0328" unicode="&#x328;" horiz-adv-x="0" d="M-494 0 L-540 20 C-641 -53 -751 -152 -751 -246 C-751 -347 -690 -395 -595 -395 C-530 -395 -488 -371 -461 -351 L-479 -303 C-504 -320 -540 -341 -597 -341 C-676 -341 -698 -295 -698 -246 C-698 -150 -597 -75 -494 0 L-494 0 Z " />
<glyph glyph-name="uni0329" unicode="&#x329;" horiz-adv-x="0" d="M-573 -489 L-573 -81 L-627 -81 L-627 -489 L-573 -489 Z " />
<glyph glyph-name="uni032A" unicode="&#x32a;" horiz-adv-x="0" d="M-266 -119 L-932 -119 L-932 -455 L-876 -455 L-876 -173 L-321 -173 L-321 -455 L-266 -455 L-266 -119 Z " />
<glyph glyph-name="uni032B" unicode="&#x32b;" horiz-adv-x="0" d="M-399 -126 C-399 -169 -435 -202 -486 -202 C-534 -202 -568 -169 -568 -126 L-627 -126 C-627 -169 -664 -202 -714 -202 C-762 -202 -797 -169 -797 -126 L-856 -126 C-856 -199 -793 -259 -714 -259 C-668 -259 -625 -238 -598 -207 C-573 -238 -532 -259 -486 -259 C-406 -259 -339 -199 -339 -126 L-399 -126 Z " />
<glyph glyph-name="uni032C" unicode="&#x32c;" horiz-adv-x="0" d="M-328 -151 L-579 -394 L-620 -394 L-867 -155 L-867 -141 L-802 -141 L-601 -337 L-398 -141 L-328 -141 L-328 -151 Z " />
<glyph glyph-name="uni032D" unicode="&#x32d;" horiz-adv-x="0" d="M-328 -374 L-579 -131 L-619 -131 L-866 -370 L-866 -384 L-801 -384 L-600 -188 L-398 -384 L-328 -384 L-328 -374 Z " />
<glyph glyph-name="uni032E" unicode="&#x32e;" horiz-adv-x="0" d="M-300 -93 L-353 -93 C-353 -196 -424 -285 -598 -285 C-778 -285 -843 -198 -843 -93 L-897 -93 C-897 -239 -785 -341 -598 -341 C-411 -341 -300 -239 -300 -93 L-300 -93 Z " />
<glyph glyph-name="uni032F" unicode="&#x32f;" horiz-adv-x="0" d="M-353 -371 L-300 -371 C-300 -225 -411 -123 -598 -123 C-785 -123 -897 -225 -897 -371 L-843 -371 C-843 -266 -778 -179 -598 -179 C-424 -179 -353 -268 -353 -371 L-353 -371 Z " />
<glyph glyph-name="uni0330" unicode="&#x330;" horiz-adv-x="0" d="M-258 -138 L-315 -138 C-315 -222 -374 -269 -446 -269 C-567 -269 -605 -145 -756 -145 C-861 -145 -943 -214 -943 -324 L-887 -324 C-887 -240 -829 -199 -756 -199 C-628 -199 -601 -324 -446 -324 C-342 -324 -258 -249 -258 -138 L-258 -138 Z " />
<glyph glyph-name="uni0331" unicode="&#x331;" horiz-adv-x="0" d="M-282 -217 L-282 -164 L-888 -164 L-888 -217 L-282 -217 Z " />
<glyph glyph-name="uni0332" unicode="&#x332;" horiz-adv-x="0" d="M-142 -244 L-142 -190 L-1050 -190 L-1050 -244 L-142 -244 Z " />
<glyph glyph-name="uni0333" unicode="&#x333;" horiz-adv-x="0" d="M-144 -154 L-144 -100 L-1052 -100 L-1052 -154 L-144 -154 Z M-144 -324 L-144 -270 L-1052 -270 L-1052 -324 L-144 -324 Z " />
<glyph glyph-name="uni0334" unicode="&#x334;" horiz-adv-x="0" d="M-235 631 L-292 631 C-292 547 -351 500 -423 500 C-544 500 -582 624 -733 624 C-838 624 -920 555 -920 445 L-864 445 C-864 529 -806 570 -733 570 C-605 570 -578 445 -423 445 C-319 445 -235 520 -235 631 L-235 631 Z " />
<glyph glyph-name="uni0335" unicode="&#x335;" horiz-adv-x="0" d="M-281 514 L-281 568 L-911 568 L-911 514 L-281 514 Z " />
<glyph glyph-name="uni0336" unicode="&#x336;" horiz-adv-x="0" d="M95 514 L95 568 L-1292 568 L-1292 514 L95 514 Z " />
<glyph glyph-name="uni0337" unicode="&#x337;" horiz-adv-x="0" d="M-921 -145 L-208 1219 L-273 1219 L-986 -145 L-921 -145 Z " />
<glyph glyph-name="uni0338" unicode="&#x338;" horiz-adv-x="0" d="M-1228 -75 L-155 1495 L-225 1495 L-1298 -75 L-1228 -75 Z " />
<glyph glyph-name="uni0339" unicode="&#x339;" horiz-adv-x="0" d="M-666 -334 L-666 -390 C-589 -390 -526 -331 -526 -255 C-526 -179 -589 -116 -666 -116 L-666 -173 C-620 -173 -586 -207 -586 -255 C-586 -301 -620 -334 -666 -334 L-666 -334 Z " />
<glyph glyph-name="uni033A" unicode="&#x33a;" horiz-adv-x="0" d="M-318 -101 L-318 -393 L-874 -393 L-874 -101 L-930 -101 L-930 -447 L-264 -447 L-264 -101 L-318 -101 Z " />
<glyph glyph-name="uni033B" unicode="&#x33b;" horiz-adv-x="0" d="M-787 -78 L-787 -429 L-411 -429 L-411 -78 L-787 -78 Z M-731 -375 L-731 -132 L-467 -132 L-467 -375 L-731 -375 Z " />
<glyph glyph-name="uni033C" unicode="&#x33c;" horiz-adv-x="0" d="M-486 -126 C-532 -126 -573 -147 -598 -178 C-625 -147 -668 -126 -714 -126 C-793 -126 -856 -186 -856 -259 L-797 -259 C-797 -216 -762 -183 -714 -183 C-664 -183 -627 -216 -627 -259 L-568 -259 C-568 -216 -534 -183 -486 -183 C-435 -183 -399 -216 -399 -259 L-339 -259 C-339 -186 -406 -126 -486 -126 L-486 -126 Z " />
<glyph glyph-name="uni033D" unicode="&#x33d;" horiz-adv-x="0" d="M-369 1616 L-406 1654 L-604 1465 L-803 1656 L-841 1617 L-643 1428 L-841 1239 L-803 1201 L-604 1391 L-406 1202 L-369 1241 L-565 1429 L-369 1616 Z " />
<glyph glyph-name="uni033E" unicode="&#x33e;" horiz-adv-x="0" d="M-669 1182 L-669 1128 C-568 1128 -493 1175 -493 1255 C-493 1361 -636 1421 -636 1518 C-636 1567 -598 1593 -514 1593 L-514 1647 C-620 1647 -691 1599 -691 1518 C-691 1406 -548 1341 -548 1255 C-548 1207 -600 1182 -669 1182 L-669 1182 Z " />
<glyph glyph-name="uni033F" unicode="&#x33f;" horiz-adv-x="0" d="M-155 1553 L-155 1607 L-1062 1607 L-1062 1553 L-155 1553 Z M-155 1787 L-155 1841 L-1062 1841 L-1062 1787 L-155 1787 Z " />
<glyph glyph-name="uni0340" unicode="&#x340;" horiz-adv-x="0" d="M169 1270 L-39 1536 L-106 1536 L107 1270 L169 1270 Z " />
<glyph glyph-name="uni0341" unicode="&#x341;" horiz-adv-x="0" d="M76 1536 L-133 1270 L-70 1270 L143 1536 L76 1536 Z " />
<glyph glyph-name="uni0342" unicode="&#x342;" horiz-adv-x="0" d="M-237 1472 L-294 1472 C-294 1388 -353 1341 -425 1341 C-546 1341 -584 1465 -735 1465 C-840 1465 -922 1396 -922 1286 L-866 1286 C-866 1370 -808 1411 -735 1411 C-607 1411 -580 1286 -425 1286 C-321 1286 -237 1361 -237 1472 L-237 1472 Z " />
<glyph glyph-name="uni0343" unicode="&#x343;" horiz-adv-x="0" d="M-1389 1112 L-1389 1189 L-1442 1189 L-1442 1110 C-1442 1023 -1466 968 -1516 902 L-1480 870 C-1426 927 -1389 1007 -1389 1112 L-1389 1112 Z " />
<glyph glyph-name="uni0344" unicode="&#x344;" horiz-adv-x="0" d="M-829 1477 C-860 1477 -885 1452 -885 1421 C-885 1390 -860 1366 -829 1366 C-797 1366 -771 1390 -771 1421 C-771 1452 -797 1477 -829 1477 L-829 1477 Z M-597 1657 L-620 1417 L-560 1417 L-516 1657 L-597 1657 Z M-355 1477 C-386 1477 -412 1452 -412 1421 C-412 1390 -386 1366 -355 1366 C-323 1366 -297 1390 -297 1421 C-297 1452 -323 1477 -355 1477 L-355 1477 Z " />
<glyph glyph-name="uni0345" unicode="&#x345;" horiz-adv-x="0" d="M-582 -70 L-621 -70 L-621 -373 C-621 -484 -588 -526 -501 -526 C-483 -526 -461 -523 -440 -519 L-445 -482 C-466 -484 -482 -486 -505 -486 C-548 -486 -582 -470 -582 -373 L-582 -70 Z " />
<glyph glyph-name="uni0346" unicode="&#x346;" horiz-adv-x="0" d="M-266 1560 L-931 1560 L-931 1174 L-876 1174 L-876 1506 L-320 1506 L-320 1174 L-266 1174 L-266 1560 Z " />
<glyph glyph-name="uni0347" unicode="&#x347;" horiz-adv-x="0" d="M-324 -157 L-874 -157 L-874 -211 L-324 -211 L-324 -157 Z M-324 -327 L-874 -327 L-874 -381 L-324 -381 L-324 -327 Z " />
<glyph glyph-name="uni0348" unicode="&#x348;" horiz-adv-x="0" d="M-645 -489 L-645 -81 L-699 -81 L-699 -489 L-645 -489 Z M-431 -489 L-431 -81 L-485 -81 L-485 -489 L-431 -489 Z " />
<glyph glyph-name="uni0349" unicode="&#x349;" horiz-adv-x="0" d="M-338 -109 L-767 -109 L-767 -163 L-393 -163 L-393 -495 L-338 -495 L-338 -109 Z " />
<glyph glyph-name="uni034A" unicode="&#x34a;" horiz-adv-x="0" d="M-294 1472 C-294 1388 -353 1341 -425 1341 C-477 1341 -514 1364 -551 1391 L-469 1523 C-469 1523 -517 1551 -517 1551 L-597 1423 C-634 1446 -676 1465 -735 1465 C-840 1465 -922 1396 -922 1286 L-866 1286 C-866 1370 -808 1411 -735 1411 C-690 1411 -657 1395 -627 1375 L-722 1224 L-672 1196 L-581 1342 C-542 1313 -497 1286 -425 1286 C-321 1286 -237 1361 -237 1472 L-294 1472 Z " />
<glyph glyph-name="uni034B" unicode="&#x34b;" horiz-adv-x="0" d="M-597 1308 C-629 1308 -654 1283 -654 1252 C-654 1221 -629 1197 -597 1197 C-565 1197 -539 1221 -539 1252 C-539 1283 -565 1308 -597 1308 L-597 1308 Z M-247 1562 L-304 1562 C-304 1478 -363 1431 -435 1431 C-556 1431 -594 1555 -745 1555 C-850 1555 -932 1486 -932 1376 L-876 1376 C-876 1460 -818 1501 -745 1501 C-618 1501 -591 1376 -436 1376 C-331 1376 -247 1451 -247 1562 L-247 1562 Z M-597 1743 C-629 1743 -654 1718 -654 1687 C-654 1656 -629 1632 -597 1632 C-565 1632 -539 1656 -539 1687 C-539 1718 -565 1743 -597 1743 L-597 1743 Z " />
<glyph glyph-name="uni034C" unicode="&#x34c;" horiz-adv-x="0" d="M-243 1462 L-299 1462 C-299 1378 -359 1331 -431 1331 C-552 1331 -589 1455 -740 1455 C-846 1455 -928 1386 -928 1276 L-872 1276 C-872 1360 -813 1401 -740 1401 C-613 1401 -586 1276 -431 1276 C-327 1276 -243 1351 -243 1462 L-243 1462 Z M-243 1672 L-299 1672 C-299 1588 -359 1541 -431 1541 C-552 1541 -589 1665 -740 1665 C-846 1665 -928 1596 -928 1486 L-872 1486 C-872 1570 -813 1611 -740 1611 C-613 1611 -586 1486 -431 1486 C-327 1486 -243 1561 -243 1672 L-243 1672 Z " />
<glyph glyph-name="uni034D" unicode="&#x34d;" horiz-adv-x="0" d="M-368 -75 L-423 -75 L-215 -295 L-980 -295 L-773 -75 L-828 -75 L-1055 -314 L-828 -552 L-774 -552 L-977 -337 L-219 -337 L-422 -552 L-368 -552 L-141 -314 L-368 -75 Z " />
<glyph glyph-name="uni034E" unicode="&#x34e;" horiz-adv-x="0" d="M-320 -315 L-598 -101 L-875 -315 L-875 -369 L-625 -174 L-625 -551 L-578 -551 L-578 -169 L-320 -369 L-320 -315 Z " />
<glyph glyph-name="uni034F" unicode="&#x34f;" horiz-adv-x="0" />
<glyph glyph-name="uni0350" unicode="&#x350;" horiz-adv-x="0" d="M-1029 1909 L-1029 1849 L-419 1586 L-304 1543 L-419 1497 L-1029 1235 L-1029 1176 L-247 1516 L-247 1570 L-1029 1909 Z " />
<glyph glyph-name="uni0351" unicode="&#x351;" horiz-adv-x="0" d="M-709 1338 C-709 1262 -646 1203 -569 1203 L-569 1259 C-615 1259 -650 1292 -650 1338 C-650 1386 -615 1420 -569 1420 L-569 1477 C-646 1477 -709 1414 -709 1338 L-709 1338 Z " />
<glyph glyph-name="uni0352" unicode="&#x352;" horiz-adv-x="0" d="M-363 1308 L-309 1308 C-309 1454 -421 1556 -608 1556 C-794 1556 -907 1454 -907 1308 L-853 1308 C-853 1413 -788 1500 -608 1500 C-434 1500 -363 1411 -363 1308 L-363 1308 Z M-609 1290 C-640 1290 -666 1265 -666 1234 C-666 1203 -640 1179 -609 1179 C-577 1179 -550 1203 -550 1234 C-550 1265 -577 1290 -609 1290 L-609 1290 Z " />
<glyph glyph-name="uni0353" unicode="&#x353;" horiz-adv-x="0" d="M-363 -479 L-560 -291 L-364 -104 L-401 -66 L-598 -254 L-798 -64 L-836 -103 L-638 -292 L-836 -481 L-798 -519 L-599 -329 L-401 -518 L-363 -479 Z " />
<glyph glyph-name="uni0354" unicode="&#x354;" horiz-adv-x="0" d="M-349 -120 L-349 -71 L-897 -291 L-897 -326 L-349 -547 L-349 -499 L-776 -329 L-846 -309 L-776 -291 L-349 -120 Z " />
<glyph glyph-name="uni0355" unicode="&#x355;" horiz-adv-x="0" d="M-910 -71 L-910 -120 L-483 -291 L-413 -309 L-483 -329 L-910 -499 L-910 -547 L-362 -326 L-362 -291 L-910 -71 Z " />
<glyph glyph-name="uni0356" unicode="&#x356;" horiz-adv-x="0" d="M-1096 -120 L-669 -291 L-599 -309 L-669 -329 L-1096 -499 L-1096 -547 L-548 -326 L-548 -291 L-1096 -71 L-1096 -120 Z M-238 -71 L-276 -71 L-534 -544 L-482 -544 L-282 -178 L-258 -114 L-235 -178 L-35 -544 L19 -544 L-238 -71 Z " />
<glyph glyph-name="uni0357" unicode="&#x357;" horiz-adv-x="0" d="M-668 1259 L-668 1203 C-591 1203 -528 1262 -528 1338 C-528 1414 -591 1477 -668 1477 L-668 1420 C-622 1420 -588 1386 -588 1338 C-588 1292 -622 1259 -668 1259 L-668 1259 Z " />
<glyph glyph-name="uni0358" unicode="&#x358;" horiz-adv-x="0" d="M-180 1318 C-212 1318 -239 1293 -239 1262 C-239 1231 -212 1207 -180 1207 C-147 1207 -120 1231 -120 1262 C-120 1293 -147 1318 -180 1318 L-180 1318 Z " />
<glyph glyph-name="uni0359" unicode="&#x359;" horiz-adv-x="0" d="M-637 -312 L-779 -484 L-740 -514 L-599 -343 L-444 -513 L-399 -482 L-563 -314 L-359 -251 L-370 -205 L-574 -272 L-573 -80 L-628 -80 L-625 -272 L-832 -210 L-842 -257 L-637 -312 Z " />
<glyph glyph-name="uni035A" unicode="&#x35a;" horiz-adv-x="0" d="M-458 -37 C-525 -37 -583 -70 -615 -121 C-646 -70 -704 -37 -771 -37 C-873 -37 -953 -113 -953 -211 C-953 -309 -873 -381 -771 -381 C-704 -381 -646 -350 -615 -300 C-583 -350 -525 -381 -458 -381 C-357 -381 -276 -309 -276 -211 C-276 -113 -357 -37 -458 -37 L-458 -37 Z M-771 -327 C-844 -327 -897 -280 -897 -211 C-897 -140 -844 -91 -771 -91 C-697 -91 -645 -140 -645 -211 C-645 -280 -697 -327 -771 -327 L-771 -327 Z M-458 -327 C-530 -327 -583 -280 -583 -211 C-583 -140 -530 -91 -458 -91 C-384 -91 -331 -140 -331 -211 C-331 -280 -384 -327 -458 -327 L-458 -327 Z " />
<glyph glyph-name="uni035B" unicode="&#x35b;" horiz-adv-x="0" d="M-603 1661 C-603 1661 -665 1661 -665 1661 L-761 1395 C-761 1395 -520 1395 -520 1395 L-597 1181 C-597 1181 -535 1181 -535 1181 L-437 1449 C-437 1449 -679 1449 -679 1449 L-603 1661 Z " />
<glyph glyph-name="uni035C" unicode="&#x35c;" horiz-adv-x="0" d="M737 -104 L672 -104 C519 -207 400 -336 8 -336 C-390 -336 -504 -209 -657 -104 L-722 -104 C-570 -250 -397 -392 8 -392 C413 -392 585 -250 737 -104 L737 -104 Z " />
<glyph glyph-name="uni035D" unicode="&#x35d;" horiz-adv-x="0" d="M735 1496 L670 1496 C517 1393 398 1264 6 1264 C-392 1264 -506 1391 -659 1496 L-724 1496 C-572 1350 -399 1208 6 1208 C411 1208 583 1350 735 1496 L735 1496 Z " />
<glyph glyph-name="uni035E" unicode="&#x35e;" horiz-adv-x="0" d="M609 1286 L609 1340 L-597 1340 L-597 1286 L609 1286 Z " />
<glyph glyph-name="uni035F" unicode="&#x35f;" horiz-adv-x="0" d="M611 -244 L611 -190 L-595 -190 L-595 -244 L611 -244 Z " />
<glyph glyph-name="uni0360" unicode="&#x360;" horiz-adv-x="0" d="M984 1472 L927 1482 C894 1378 836 1341 677 1341 C370 1341 -356 1465 -663 1465 C-858 1465 -938 1416 -971 1286 L-914 1276 C-881 1381 -824 1411 -663 1411 C-362 1411 360 1286 677 1286 C868 1286 951 1341 984 1472 L984 1472 Z " />
<glyph glyph-name="uni0361" unicode="&#x361;" horiz-adv-x="0" d="M670 1168 L735 1168 C583 1314 411 1456 6 1456 C-399 1456 -572 1314 -724 1168 L-659 1168 C-506 1273 -392 1400 6 1400 C398 1400 517 1271 670 1168 L670 1168 Z " />
<glyph glyph-name="uni0362" unicode="&#x362;" horiz-adv-x="0" d="M590 -75 L511 -75 L807 -292 L-863 -292 L-863 -334 L803 -334 L511 -546 L590 -546 L914 -311 L590 -75 Z " />
<glyph glyph-name="uni0363" unicode="&#x363;" horiz-adv-x="0" d="M-364 1202 C-382 1229 -390 1273 -390 1313 L-390 1584 C-390 1701 -477 1759 -601 1759 C-728 1759 -819 1684 -819 1598 L-779 1596 C-779 1664 -709 1719 -601 1719 C-483 1719 -430 1674 -430 1585 L-430 1510 L-566 1510 C-747 1510 -835 1440 -835 1339 C-835 1248 -768 1191 -657 1191 C-550 1191 -474 1234 -429 1286 C-427 1255 -420 1223 -408 1202 L-364 1202 Z M-659 1231 C-750 1231 -795 1273 -795 1339 C-795 1426 -713 1470 -564 1470 L-430 1470 L-430 1348 C-473 1276 -551 1231 -659 1231 L-659 1231 Z " />
<glyph glyph-name="uni0364" unicode="&#x364;" horiz-adv-x="0" d="M-363 1479 L-363 1523 C-363 1668 -457 1759 -587 1759 C-724 1759 -836 1657 -836 1483 L-836 1461 C-836 1301 -719 1192 -576 1192 C-482 1192 -420 1229 -381 1282 L-407 1303 C-460 1249 -509 1232 -576 1232 C-693 1232 -796 1323 -796 1461 L-796 1479 L-363 1479 Z M-587 1719 C-467 1719 -403 1636 -403 1525 L-403 1519 L-794 1519 C-782 1637 -707 1719 -587 1719 L-587 1719 Z " />
<glyph glyph-name="uni0365" unicode="&#x365;" horiz-adv-x="0" d="M-581 1202 L-581 1754 L-621 1754 L-621 1202 L-581 1202 Z M-601 1961 C-622 1961 -636 1945 -636 1926 C-636 1907 -622 1892 -601 1892 C-582 1892 -565 1907 -565 1926 C-565 1945 -582 1961 -601 1961 L-601 1961 Z " />
<glyph glyph-name="uni0366" unicode="&#x366;" horiz-adv-x="0" d="M-860 1465 C-860 1297 -762 1192 -600 1192 C-439 1192 -341 1297 -341 1465 L-341 1486 C-341 1654 -438 1759 -600 1759 C-760 1759 -860 1654 -860 1486 L-860 1465 Z M-381 1465 C-381 1333 -449 1232 -600 1232 C-753 1232 -820 1333 -820 1465 L-820 1486 C-820 1618 -752 1719 -600 1719 C-448 1719 -381 1618 -381 1486 L-381 1465 Z " />
<glyph glyph-name="uni0367" unicode="&#x367;" horiz-adv-x="0" d="M-383 1429 L-386 1429 L-386 1754 L-425 1754 L-425 1385 C-436 1300 -484 1231 -621 1231 C-717 1231 -774 1271 -774 1438 L-774 1754 L-814 1754 L-814 1439 C-814 1253 -746 1191 -618 1191 C-526 1191 -463 1223 -426 1275 L-427 1202 L-386 1202 L-386 1382 C-384 1397 -383 1413 -383 1429 L-383 1429 Z " />
<glyph glyph-name="uni0368" unicode="&#x368;" horiz-adv-x="0" d="M-835 1462 C-835 1300 -740 1186 -588 1186 C-472 1186 -368 1252 -361 1364 L-401 1364 C-407 1268 -493 1226 -588 1226 C-717 1226 -795 1324 -795 1462 L-795 1483 C-795 1621 -725 1719 -589 1719 C-490 1719 -406 1666 -401 1566 L-361 1566 C-367 1693 -475 1759 -589 1759 C-740 1759 -835 1645 -835 1483 L-835 1462 Z " />
<glyph glyph-name="uni0369" unicode="&#x369;" horiz-adv-x="0" d="M-405 1997 L-405 1648 C-443 1715 -510 1759 -608 1759 C-748 1759 -831 1657 -831 1483 L-831 1473 C-831 1304 -761 1191 -609 1191 C-510 1191 -442 1235 -405 1294 L-406 1202 L-366 1202 L-366 1997 L-405 1997 Z M-610 1231 C-734 1231 -791 1326 -791 1473 L-791 1483 C-791 1630 -734 1719 -609 1719 C-489 1719 -429 1640 -405 1574 L-405 1360 C-433 1289 -500 1231 -610 1231 L-610 1231 Z " />
<glyph glyph-name="uni036A" unicode="&#x36a;" horiz-adv-x="0" d="M-581 1765 C-673 1765 -737 1733 -774 1679 L-774 1991 L-814 1991 L-814 1565 C-815 1553 -816 1540 -816 1527 L-814 1527 L-814 1202 L-774 1202 L-774 1578 C-761 1660 -711 1725 -578 1725 C-482 1725 -425 1685 -425 1518 L-425 1202 L-385 1202 L-385 1517 C-385 1703 -453 1765 -581 1765 L-581 1765 Z " />
<glyph glyph-name="uni036B" unicode="&#x36b;" horiz-adv-x="0" d="M-387 1765 C-497 1765 -564 1720 -597 1650 C-625 1734 -686 1765 -776 1765 C-868 1765 -931 1733 -968 1681 L-967 1754 L-1009 1754 L-1009 1565 C-1010 1553 -1011 1540 -1011 1527 L-1009 1527 L-1009 1202 L-969 1202 L-969 1578 C-956 1660 -906 1725 -773 1725 C-684 1725 -629 1691 -621 1555 C-622 1546 -622 1536 -622 1527 L-620 1527 L-620 1518 L-620 1202 L-580 1202 L-580 1517 C-580 1534 -581 1550 -582 1565 C-572 1653 -525 1725 -386 1725 C-288 1725 -231 1685 -231 1518 L-231 1202 L-193 1202 L-193 1517 C-193 1703 -260 1765 -387 1765 L-387 1765 Z " />
<glyph glyph-name="uni036C" unicode="&#x36c;" horiz-adv-x="0" d="M-401 1765 C-480 1765 -540 1732 -577 1679 L-576 1754 L-618 1754 L-618 1564 C-619 1552 -620 1540 -620 1527 L-618 1527 L-618 1202 L-578 1202 L-578 1578 C-565 1660 -519 1725 -401 1725 C-386 1725 -375 1725 -366 1724 L-366 1763 C-373 1764 -390 1765 -401 1765 L-401 1765 Z " />
<glyph glyph-name="uni036D" unicode="&#x36d;" horiz-adv-x="0" d="M-510 1240 C-531 1238 -547 1236 -570 1236 C-613 1236 -647 1252 -647 1349 L-647 1719 L-524 1719 L-524 1759 L-647 1759 L-647 1907 L-686 1907 L-686 1759 L-796 1759 L-796 1719 L-686 1719 L-686 1349 C-686 1238 -652 1196 -566 1196 C-548 1196 -526 1199 -504 1203 L-510 1240 Z " />
<glyph glyph-name="uni036E" unicode="&#x36e;" horiz-adv-x="0" d="M-395 1754 L-575 1316 L-600 1243 L-624 1316 L-804 1754 L-843 1754 L-616 1202 L-583 1202 L-356 1754 L-395 1754 Z " />
<glyph glyph-name="uni036F" unicode="&#x36f;" horiz-adv-x="0" d="M-602 1515 L-783 1754 L-828 1754 L-622 1485 L-839 1202 L-796 1202 L-602 1455 L-409 1202 L-366 1202 L-582 1485 L-377 1754 L-421 1754 L-602 1515 Z " />
<glyph glyph-name="uni037E" unicode="&#x37e;" horiz-adv-x="398" d="M201 1067 C169 1067 142 1042 142 1011 C142 980 169 956 201 956 C234 956 260 980 260 1011 C260 1042 234 1067 201 1067 L201 1067 Z M247 27 L247 159 L193 159 L193 25 C193 -78 161 -145 95 -223 L133 -255 C200 -188 247 -96 247 27 L247 27 Z " />
<glyph glyph-name="tonos" unicode="&#x384;" horiz-adv-x="574" d="M347 1578 L242 1305 L299 1305 L413 1578 L347 1578 Z " />
<glyph glyph-name="dieresistonos" unicode="&#x385;" horiz-adv-x="1007" d="M275 1477 C244 1477 219 1452 219 1421 C219 1390 244 1366 275 1366 C307 1366 333 1390 333 1421 C333 1452 307 1477 275 1477 L275 1477 Z M507 1657 L484 1417 L544 1417 L588 1657 L507 1657 Z M749 1477 C718 1477 692 1452 692 1421 C692 1390 718 1366 749 1366 C781 1366 807 1390 807 1421 C807 1452 781 1477 749 1477 L749 1477 Z " />
<glyph glyph-name="anoteleia" unicode="&#x387;" horiz-adv-x="518" d="M259 762 C228 762 202 737 202 706 C202 675 228 651 259 651 C291 651 316 675 316 706 C316 737 291 762 259 762 L259 762 Z " />
<glyph glyph-name="uni03F6" unicode="&#x3f6;" horiz-adv-x="958" d="M384 1082 L55 1082 L55 1028 L384 1028 C667 1028 800 835 803 570 L176 570 L176 516 L803 516 C802 247 669 54 382 54 L55 54 L55 0 L382 0 C682 0 855 203 855 520 L855 562 C855 879 682 1082 384 1082 L384 1082 Z " />
<glyph glyph-name="uni0482" unicode="&#x482;" horiz-adv-x="1323" d="M600 419 L856 839 L1166 669 L1211 736 L896 907 L1167 1342 L1063 1342 L827 956 L514 1127 L472 1057 L784 886 L530 466 L215 637 L175 569 L487 398 L245 0 L351 0 L557 349 L870 179 L911 247 L600 419 Z " />
<glyph glyph-name="uni1AB0" unicode="&#x1ab0;" horiz-adv-x="0" d="M-1036 1264 L-835 1460 L-632 1264 L-555 1264 L-354 1460 L-151 1264 L-81 1264 L-81 1274 L-333 1517 L-372 1517 L-593 1305 L-813 1517 L-854 1517 L-1101 1278 L-1101 1264 L-1036 1264 Z " />
<glyph glyph-name="uni1AB1" unicode="&#x1ab1;" horiz-adv-x="0" d="M-844 1396 C-875 1396 -901 1371 -901 1340 C-901 1309 -875 1285 -844 1285 C-813 1285 -786 1309 -786 1340 C-786 1371 -813 1396 -844 1396 L-844 1396 Z M-595 1555 C-677 1555 -742 1494 -742 1415 C-742 1336 -677 1279 -595 1279 C-514 1279 -450 1336 -450 1415 C-450 1494 -514 1555 -595 1555 L-595 1555 Z M-355 1396 C-386 1396 -411 1371 -411 1340 C-411 1309 -386 1285 -355 1285 C-323 1285 -297 1309 -297 1340 C-297 1371 -323 1396 -355 1396 L-355 1396 Z M-595 1322 C-655 1322 -698 1360 -698 1415 C-698 1472 -655 1511 -595 1511 C-537 1511 -495 1472 -495 1415 C-495 1360 -537 1322 -595 1322 L-595 1322 Z " />
<glyph glyph-name="uni1AB2" unicode="&#x1ab2;" horiz-adv-x="0" d="M-318 1765 C-477 1765 -571 1619 -599 1534 C-627 1619 -720 1765 -879 1765 C-1033 1765 -1128 1643 -1128 1501 L-1128 1456 C-1128 1315 -1033 1192 -878 1192 C-718 1192 -626 1340 -599 1424 C-571 1340 -479 1192 -319 1192 C-164 1192 -69 1315 -69 1456 L-69 1501 C-69 1643 -164 1765 -318 1765 L-318 1765 Z M-878 1231 C-1017 1231 -1088 1342 -1088 1456 L-1088 1501 C-1088 1614 -1017 1725 -879 1725 C-685 1725 -615 1491 -616 1489 L-616 1468 C-615 1466 -685 1231 -878 1231 L-878 1231 Z M-109 1456 C-109 1342 -181 1232 -319 1232 C-512 1232 -582 1466 -581 1468 L-581 1489 C-582 1491 -512 1725 -318 1725 C-181 1725 -109 1614 -109 1501 L-109 1456 Z " />
<glyph glyph-name="uni1AB3" unicode="&#x1ab3;" horiz-adv-x="0" d="M-573 1269 L-573 1805 L-629 1805 L-629 1273 L-923 1548 L-923 1472 L-598 1171 L-272 1472 L-272 1549 L-573 1269 Z " />
<glyph glyph-name="uni1AB4" unicode="&#x1ab4;" horiz-adv-x="0" d="M-831 1303 C-863 1303 -890 1278 -890 1247 C-890 1216 -863 1192 -831 1192 C-798 1192 -771 1216 -771 1247 C-771 1278 -798 1303 -831 1303 L-831 1303 Z M-429 1303 C-461 1303 -488 1278 -488 1247 C-488 1216 -461 1192 -429 1192 C-396 1192 -369 1216 -369 1247 C-369 1278 -396 1303 -429 1303 L-429 1303 Z M-616 1603 C-648 1603 -675 1578 -675 1547 C-675 1516 -648 1492 -616 1492 C-583 1492 -556 1516 -556 1547 C-556 1578 -583 1603 -616 1603 L-616 1603 Z " />
<glyph glyph-name="uni1AB5" unicode="&#x1ab5;" horiz-adv-x="0" d="M-1079 -310 L-1260 -126 L-1305 -126 L-1099 -334 L-1316 -551 L-1273 -551 L-1079 -357 L-886 -551 L-843 -551 L-1059 -334 L-854 -126 L-898 -126 L-1079 -310 Z M-499 -310 L-680 -126 L-725 -126 L-519 -334 L-736 -551 L-693 -551 L-499 -357 L-306 -551 L-263 -551 L-479 -334 L-274 -126 L-318 -126 L-499 -310 Z " />
<glyph glyph-name="uni1AB6" unicode="&#x1ab6;" horiz-adv-x="0" d="M27 -145 C-124 -145 -163 -269 -285 -269 C-408 -269 -446 -145 -598 -145 C-749 -145 -788 -269 -910 -269 C-1033 -269 -1071 -145 -1221 -145 C-1329 -145 -1412 -214 -1411 -324 L-1354 -334 C-1354 -250 -1296 -199 -1223 -199 C-1094 -199 -1067 -324 -910 -324 C-753 -324 -725 -199 -598 -199 C-469 -199 -442 -324 -285 -324 C-128 -324 -101 -199 27 -199 C100 -199 160 -250 159 -334 L216 -324 C217 -214 134 -145 27 -145 L27 -145 Z " />
<glyph glyph-name="uni1AB7" unicode="&#x1ab7;" horiz-adv-x="0" d="M-567 -100 L-621 -100 L-621 -243 C-621 -442 -551 -555 -357 -555 C-313 -555 -279 -548 -236 -535 L-251 -483 C-274 -491 -318 -501 -359 -501 C-522 -501 -567 -405 -567 -243 L-567 -100 Z " />
<glyph glyph-name="uni1AB8" unicode="&#x1ab8;" horiz-adv-x="0" d="M-778 -100 L-832 -100 L-832 -243 C-832 -442 -762 -555 -568 -555 C-524 -555 -490 -548 -447 -535 L-462 -483 C-485 -491 -529 -501 -570 -501 C-733 -501 -778 -405 -778 -243 L-778 -100 Z M-471 -100 L-525 -100 L-525 -243 C-525 -442 -455 -555 -261 -555 C-217 -555 -183 -548 -140 -535 L-155 -483 C-178 -491 -222 -501 -263 -501 C-426 -501 -471 -405 -471 -243 L-471 -100 Z " />
<glyph glyph-name="uni1AB9" unicode="&#x1ab9;" horiz-adv-x="0" d="M-457 -399 L-173 0 L-229 0 L-504 -369 L-457 -399 Z " />
<glyph glyph-name="uni1ABA" unicode="&#x1aba;" horiz-adv-x="0" d="M-173 0 L-229 0 L-469 -321 C-474 -320 -479 -319 -485 -319 C-522 -319 -552 -348 -552 -384 C-552 -419 -522 -449 -485 -449 C-447 -449 -417 -419 -417 -384 C-417 -373 -420 -362 -425 -353 L-173 0 Z " />
<glyph glyph-name="uni1ABB" unicode="&#x1abb;" horiz-adv-x="0" d="M-1136 1517 C-1136 1414 -1058 1334 -948 1302 L-944 1335 C-1029 1361 -1095 1430 -1095 1517 C-1095 1600 -1036 1669 -944 1696 L-948 1728 C-1058 1696 -1136 1611 -1136 1517 L-1136 1517 Z M-255 1335 L-251 1302 C-140 1334 -62 1414 -62 1517 C-62 1611 -140 1696 -251 1728 L-255 1696 C-163 1669 -103 1600 -103 1517 C-103 1430 -169 1361 -255 1335 L-255 1335 Z " />
<glyph glyph-name="uni1ABC" unicode="&#x1abc;" horiz-adv-x="0" d="M-1296 1517 C-1296 1414 -1218 1334 -1108 1302 L-1104 1335 C-1189 1361 -1255 1430 -1255 1517 C-1255 1600 -1196 1669 -1104 1696 L-1108 1728 C-1218 1696 -1296 1611 -1296 1517 L-1296 1517 Z M-1136 1517 C-1136 1414 -1058 1334 -948 1302 L-944 1335 C-1029 1361 -1095 1430 -1095 1517 C-1095 1600 -1036 1669 -944 1696 L-948 1728 C-1058 1696 -1136 1611 -1136 1517 L-1136 1517 Z M-255 1335 L-251 1302 C-141 1334 -63 1414 -63 1517 C-63 1611 -141 1696 -251 1728 L-255 1696 C-163 1669 -104 1600 -104 1517 C-104 1430 -170 1361 -255 1335 L-255 1335 Z M-96 1335 L-91 1302 C19 1334 97 1414 97 1517 C97 1611 19 1696 -91 1728 L-96 1696 C-3 1669 56 1600 56 1517 C56 1430 -10 1361 -96 1335 L-96 1335 Z " />
<glyph glyph-name="uni1ABD" unicode="&#x1abd;" horiz-adv-x="0" d="M-1136 -323 C-1136 -426 -1058 -506 -948 -538 L-943 -505 C-1029 -479 -1095 -410 -1095 -323 C-1095 -240 -1036 -171 -943 -144 L-948 -112 C-1058 -144 -1136 -229 -1136 -323 L-1136 -323 Z M-254 -505 L-250 -538 C-140 -506 -62 -426 -62 -323 C-62 -229 -140 -144 -250 -112 L-254 -144 C-163 -171 -103 -240 -103 -323 C-103 -410 -169 -479 -254 -505 L-254 -505 Z " />
<glyph glyph-name="uni1ABE" unicode="&#x1abe;" horiz-adv-x="0" d="M-1261 574 C-1261 471 -1183 391 -1073 359 L-1069 392 C-1154 418 -1220 487 -1220 574 C-1220 657 -1161 726 -1069 753 L-1073 785 C-1183 753 -1261 668 -1261 574 L-1261 574 Z M-16 392 L-12 359 C98 391 176 471 176 574 C176 668 98 753 -12 785 L-16 753 C76 726 135 657 135 574 C135 487 69 418 -16 392 L-16 392 Z " />
<glyph glyph-name="uni1DC0" unicode="&#x1dc0;" horiz-adv-x="0" d="M-726 1368 C-758 1368 -783 1343 -783 1312 C-783 1281 -758 1257 -726 1257 C-694 1257 -668 1281 -668 1312 C-668 1343 -694 1368 -726 1368 L-726 1368 Z M-475 1250 L-678 1516 L-742 1516 L-535 1250 L-475 1250 Z M-460 1468 C-492 1468 -517 1443 -517 1412 C-517 1381 -492 1357 -460 1357 C-428 1357 -402 1381 -402 1412 C-402 1443 -428 1468 -460 1468 L-460 1468 Z " />
<glyph glyph-name="uni1DC1" unicode="&#x1dc1;" horiz-adv-x="0" d="M-713 1468 C-745 1468 -770 1443 -770 1412 C-770 1381 -745 1357 -713 1357 C-682 1357 -655 1381 -655 1412 C-655 1443 -682 1468 -713 1468 L-713 1468 Z M-510 1516 L-712 1250 L-652 1250 L-445 1516 L-510 1516 Z M-482 1368 C-514 1368 -539 1343 -539 1312 C-539 1281 -514 1257 -482 1257 C-451 1257 -425 1281 -425 1312 C-425 1343 -451 1368 -482 1368 L-482 1368 Z " />
<glyph glyph-name="uni1DC2" unicode="&#x1dc2;" horiz-adv-x="0" d="M-598 -89 C-670 -89 -735 -117 -799 -153 L-772 -192 C-703 -158 -662 -142 -604 -142 C-565 -142 -540 -153 -540 -173 C-540 -215 -688 -215 -688 -274 C-688 -336 -536 -331 -536 -356 C-536 -385 -688 -387 -688 -451 C-688 -501 -611 -527 -501 -555 L-489 -513 C-577 -491 -634 -476 -634 -451 C-634 -417 -481 -417 -481 -356 C-481 -294 -634 -304 -634 -272 C-634 -241 -484 -242 -484 -170 C-484 -127 -516 -89 -598 -89 L-598 -89 Z " />
<glyph glyph-name="uni1DC3" unicode="&#x1dc3;" horiz-adv-x="0" d="M-88 1570 L-600 1297 L-823 1417 L-850 1371 L-600 1236 L-61 1524 L-88 1570 Z " />
<glyph glyph-name="uni1DC5" unicode="&#x1dc5;" horiz-adv-x="0" d="M-913 1516 L-704 1250 L-236 1250 L-236 1303 L-682 1303 L-848 1516 L-913 1516 Z " />
<glyph glyph-name="uni1DC6" unicode="&#x1dc6;" horiz-adv-x="0" d="M-812 1516 L-812 1463 L-357 1463 L-188 1250 L-129 1250 L-331 1516 L-812 1516 Z " />
<glyph glyph-name="uni1DC7" unicode="&#x1dc7;" horiz-adv-x="0" d="M-664 1516 L-867 1250 L-806 1250 L-637 1463 L-193 1463 L-193 1516 L-664 1516 Z " />
<glyph glyph-name="uni1DC8" unicode="&#x1dc8;" horiz-adv-x="0" d="M-962 1516 L-753 1250 L-666 1250 L-474 1491 L-282 1250 L-223 1250 L-427 1516 L-522 1516 L-710 1274 L-897 1516 L-962 1516 Z " />
<glyph glyph-name="uni1DC9" unicode="&#x1dc9;" horiz-adv-x="0" d="M-677 1516 L-882 1250 L-822 1250 L-637 1482 L-453 1250 L-380 1250 L-171 1516 L-236 1516 L-416 1283 L-596 1516 L-677 1516 Z " />
<glyph glyph-name="uni1DCA" unicode="&#x1dca;" horiz-adv-x="0" d="M-401 -116 C-480 -116 -540 -149 -577 -202 L-576 -127 L-618 -127 L-618 -317 C-619 -329 -620 -341 -620 -354 L-618 -354 L-618 -550 L-578 -550 L-578 -303 C-565 -221 -519 -156 -401 -156 C-386 -156 -375 -156 -366 -157 L-366 -118 C-373 -117 -390 -116 -401 -116 L-401 -116 Z " />
<glyph glyph-name="uni1DCB" unicode="&#x1dcb;" horiz-adv-x="0" d="M-618 1433 L18 1433 L18 1486 L-668 1486 C-668 1383 -739 1294 -912 1294 C-1092 1294 -1157 1381 -1157 1486 L-1212 1486 C-1212 1340 -1099 1238 -912 1238 C-747 1238 -641 1316 -618 1433 L-618 1433 Z " />
<glyph glyph-name="uni1DCC" unicode="&#x1dcc;" horiz-adv-x="0" d="M-586 1433 C-562 1316 -455 1238 -291 1238 C-104 1238 8 1340 8 1486 L-46 1486 C-46 1383 -117 1294 -291 1294 C-470 1294 -536 1381 -536 1486 L-1231 1486 L-1231 1433 L-586 1433 Z " />
<glyph glyph-name="uni1DCD" unicode="&#x1dcd;" horiz-adv-x="0" d="M746 1266 L50 1476 L-35 1476 L-727 1270 L-727 1253 L-684 1226 L6 1432 L699 1226 L746 1253 L746 1266 Z " />
<glyph glyph-name="uni1DCE" unicode="&#x1dce;" horiz-adv-x="0" d="M-668 1074 L-623 1054 C-522 1127 -412 1226 -412 1320 C-412 1421 -473 1469 -568 1469 C-633 1469 -675 1445 -702 1425 L-684 1377 C-658 1394 -623 1415 -566 1415 C-487 1415 -465 1369 -465 1320 C-465 1224 -565 1149 -668 1074 L-668 1074 Z " />
<glyph glyph-name="uni1DCF" unicode="&#x1dcf;" horiz-adv-x="0" d="M-461 -300 C-461 -300 -487 -300 -495 -300 L-687 -300 L-625 -102 L-678 -102 L-756 -353 L-511 -353 L-572 -550 L-519 -550 L-442 -300 L-461 -300 Z " />
<glyph glyph-name="uni1DD0" unicode="&#x1dd0;" horiz-adv-x="0" d="M-566 -66 L-624 -66 C-624 -66 -745 -355 -745 -355 L-716 -400 C-650 -367 -613 -361 -566 -361 C-485 -361 -400 -436 -284 -436 C-191 -436 -133 -391 -112 -271 L-156 -259 C-174 -333 -192 -382 -283 -382 C-384 -382 -468 -307 -563 -307 C-606 -307 -639 -315 -682 -338 L-566 -66 Z " />
<glyph glyph-name="uni1DD1" unicode="&#x1dd1;" horiz-adv-x="0" d="M-371 1307 C-371 1226 -419 1191 -480 1191 C-532 1191 -583 1202 -613 1311 C-641 1410 -687 1459 -781 1459 C-865 1459 -924 1399 -924 1310 C-924 1211 -859 1152 -761 1152 L-761 1192 C-838 1192 -883 1229 -883 1310 C-883 1396 -834 1419 -781 1419 C-729 1419 -680 1396 -652 1293 C-626 1201 -577 1151 -480 1151 C-393 1151 -330 1211 -330 1307 C-330 1414 -397 1466 -486 1473 L-486 1433 C-393 1420 -371 1371 -371 1307 L-371 1307 Z " />
<glyph glyph-name="uni1DD2" unicode="&#x1dd2;" horiz-adv-x="0" d="M-891 1667 C-891 1512 -781 1445 -649 1445 C-579 1445 -534 1460 -497 1483 L-524 1513 C-550 1496 -588 1485 -648 1485 C-780 1485 -851 1558 -851 1667 C-851 1805 -747 1874 -626 1874 C-476 1874 -390 1768 -390 1612 C-390 1315 -565 1242 -733 1190 L-718 1150 C-514 1213 -350 1308 -350 1611 C-350 1793 -450 1914 -629 1914 C-778 1914 -891 1814 -891 1667 L-891 1667 Z " />
<glyph glyph-name="uni1DD3" unicode="&#x1dd3;" horiz-adv-x="0" d="M-183 1366 C-183 1277 -257 1231 -357 1231 C-466 1231 -531 1298 -531 1366 L-572 1366 C-572 1277 -647 1231 -746 1231 C-856 1231 -920 1298 -920 1366 L-961 1366 C-961 1280 -874 1191 -746 1191 C-662 1191 -583 1224 -549 1289 C-515 1234 -446 1191 -357 1191 C-244 1191 -143 1249 -143 1366 L-183 1366 Z " />
<glyph glyph-name="uni1DD4" unicode="&#x1dd4;" horiz-adv-x="0" d="M-143 1479 L-143 1523 C-143 1668 -237 1759 -367 1759 C-459 1759 -540 1713 -583 1630 C-603 1716 -682 1759 -789 1759 C-916 1759 -1007 1684 -1007 1598 L-967 1596 C-967 1664 -897 1719 -789 1719 C-671 1719 -618 1674 -618 1585 L-618 1510 L-754 1510 C-935 1510 -1023 1440 -1023 1339 C-1023 1248 -956 1191 -846 1191 C-707 1191 -621 1262 -587 1333 C-544 1246 -456 1192 -356 1192 C-262 1192 -200 1229 -161 1282 L-187 1303 C-240 1249 -289 1232 -356 1232 C-473 1232 -576 1323 -576 1461 L-576 1479 L-143 1479 Z M-847 1231 C-939 1231 -983 1273 -983 1339 C-983 1426 -901 1470 -752 1470 L-616 1470 L-616 1461 C-616 1430 -612 1402 -604 1375 C-643 1288 -726 1231 -847 1231 L-847 1231 Z M-367 1719 C-247 1719 -183 1636 -183 1525 L-183 1519 L-574 1519 C-562 1637 -487 1719 -367 1719 L-367 1719 Z " />
<glyph glyph-name="uni1DD5" unicode="&#x1dd5;" horiz-adv-x="0" d="M-356 1759 C-463 1759 -543 1712 -584 1631 C-605 1717 -684 1759 -790 1759 C-917 1759 -1008 1684 -1008 1598 L-968 1596 C-968 1664 -898 1719 -790 1719 C-672 1719 -619 1674 -619 1585 L-619 1510 L-755 1510 C-936 1510 -1024 1440 -1024 1339 C-1024 1248 -957 1191 -847 1191 C-710 1191 -624 1260 -590 1330 C-550 1243 -469 1192 -356 1192 C-195 1192 -97 1297 -97 1465 L-97 1486 C-97 1654 -194 1759 -356 1759 L-356 1759 Z M-848 1231 C-940 1231 -984 1273 -984 1339 C-984 1426 -902 1470 -753 1470 L-616 1470 L-616 1465 C-616 1432 -612 1402 -605 1374 C-644 1288 -728 1231 -848 1231 L-848 1231 Z M-137 1465 C-137 1333 -205 1232 -356 1232 C-509 1232 -576 1333 -576 1465 L-576 1486 C-576 1618 -508 1719 -356 1719 C-204 1719 -137 1618 -137 1486 L-137 1465 Z " />
<glyph glyph-name="uni1DD6" unicode="&#x1dd6;" horiz-adv-x="0" d="M-253 1759 L-299 1759 L-508 1283 L-518 1248 C-523 1269 -525 1292 -525 1313 L-525 1584 C-525 1701 -612 1759 -736 1759 C-863 1759 -954 1684 -954 1598 L-914 1596 C-914 1664 -844 1719 -736 1719 C-618 1719 -565 1674 -565 1585 L-565 1510 L-701 1510 C-882 1510 -970 1440 -970 1339 C-970 1248 -903 1191 -792 1191 C-685 1191 -609 1234 -564 1286 C-562 1255 -555 1223 -543 1202 L-499 1202 C-500 1203 -501 1204 -501 1206 L-253 1759 Z M-794 1231 C-885 1231 -930 1273 -930 1339 C-930 1426 -848 1470 -699 1470 L-565 1470 L-565 1348 C-608 1276 -686 1231 -794 1231 L-794 1231 Z " />
<glyph glyph-name="uni1DD7" unicode="&#x1dd7;" horiz-adv-x="0" d="M-586 1226 C-715 1226 -793 1324 -793 1462 L-793 1483 C-793 1621 -723 1719 -587 1719 C-488 1719 -404 1666 -399 1566 L-359 1566 C-365 1693 -473 1759 -587 1759 C-738 1759 -833 1645 -833 1483 L-833 1462 C-833 1310 -749 1200 -612 1187 L-624 1126 C-555 1119 -517 1112 -517 1074 C-517 1031 -580 1019 -653 1018 L-647 978 C-552 978 -476 1010 -476 1074 C-476 1131 -519 1148 -575 1161 L-571 1186 C-461 1192 -366 1257 -359 1364 L-399 1364 C-405 1268 -491 1226 -586 1226 L-586 1226 Z " />
<glyph glyph-name="uni1DD8" unicode="&#x1dd8;" horiz-adv-x="0" d="M-347 1498 C-347 1505 -347 1511 -348 1518 L-348 1520 C-348 1765 -439 1892 -642 1980 L-659 1944 C-523 1886 -419 1808 -393 1618 C-437 1666 -510 1693 -593 1693 C-753 1693 -849 1599 -849 1443 C-849 1295 -746 1196 -599 1196 C-445 1196 -348 1312 -348 1479 L-348 1497 L-347 1498 Z M-387 1479 C-387 1332 -464 1236 -597 1236 C-741 1236 -809 1330 -809 1443 C-809 1562 -754 1653 -593 1653 C-475 1653 -414 1602 -387 1550 L-387 1521 L-387 1479 Z " />
<glyph glyph-name="uni1DD9" unicode="&#x1dd9;" horiz-adv-x="0" d="M-348 1518 L-348 1520 C-348 1677 -385 1785 -465 1866 L-323 1942 L-345 1977 L-498 1895 C-537 1928 -585 1955 -642 1980 L-659 1944 C-613 1925 -571 1903 -535 1875 L-702 1786 L-682 1751 L-501 1847 C-446 1795 -407 1724 -393 1618 C-437 1666 -510 1693 -593 1693 C-753 1693 -849 1599 -849 1443 C-849 1295 -746 1196 -599 1196 C-445 1196 -348 1312 -348 1479 L-348 1497 L-347 1498 C-347 1505 -347 1511 -348 1518 L-348 1518 Z M-387 1479 C-387 1332 -464 1236 -597 1236 C-741 1236 -809 1330 -809 1443 C-809 1562 -754 1653 -593 1653 C-475 1653 -414 1602 -387 1550 L-387 1521 L-387 1479 Z " />
<glyph glyph-name="uni1DDA" unicode="&#x1dda;" horiz-adv-x="0" d="M-407 1755 L-406 1651 C-444 1719 -510 1765 -608 1765 C-749 1765 -831 1659 -831 1485 L-831 1474 C-831 1306 -749 1192 -610 1192 C-511 1192 -442 1235 -406 1293 L-406 1211 C-406 1087 -472 1021 -602 1021 C-676 1021 -719 1049 -768 1101 L-795 1074 C-752 1019 -689 981 -602 981 C-462 981 -367 1060 -367 1211 L-367 1755 L-407 1755 Z M-610 1232 C-731 1232 -792 1327 -792 1474 L-792 1485 C-792 1631 -731 1725 -609 1725 C-486 1725 -428 1645 -406 1580 L-406 1358 C-434 1286 -507 1232 -610 1232 L-610 1232 Z " />
<glyph glyph-name="uni1DDB" unicode="&#x1ddb;" horiz-adv-x="0" d="M-845 1435 C-845 1291 -739 1192 -582 1192 C-448 1192 -373 1248 -351 1280 L-351 1485 L-559 1485 L-559 1445 L-390 1445 L-390 1298 C-410 1268 -463 1232 -582 1232 C-715 1232 -805 1309 -805 1435 L-805 1560 C-805 1685 -718 1762 -590 1762 C-439 1762 -400 1711 -387 1625 L-349 1633 C-362 1743 -436 1802 -590 1802 C-742 1802 -845 1704 -845 1559 L-845 1435 Z " />
<glyph glyph-name="uni1DDC" unicode="&#x1ddc;" horiz-adv-x="0" d="M-333 1202 L-606 1527 L-347 1754 L-409 1754 L-676 1519 L-731 1470 L-731 1998 L-771 1998 L-771 1202 L-731 1202 L-731 1420 L-649 1490 L-637 1501 L-381 1202 L-333 1202 Z " />
<glyph glyph-name="uni1DDD" unicode="&#x1ddd;" horiz-adv-x="0" d="M-576 1991 L-616 1991 L-616 1202 L-576 1202 L-576 1991 Z " />
<glyph glyph-name="uni1DDE" unicode="&#x1dde;" horiz-adv-x="0" d="M-711 1242 L-711 1797 L-751 1797 L-751 1202 L-382 1202 L-382 1242 L-711 1242 Z " />
<glyph glyph-name="uni1DDF" unicode="&#x1ddf;" horiz-adv-x="0" d="M-281 1797 L-327 1797 L-597 1254 L-870 1797 L-916 1797 L-916 1202 L-877 1202 L-877 1726 L-612 1202 L-582 1202 L-320 1723 L-320 1202 L-281 1202 L-281 1797 Z " />
<glyph glyph-name="uni1DE0" unicode="&#x1de0;" horiz-adv-x="0" d="M-590 1764 C-682 1764 -745 1732 -782 1680 L-781 1753 L-822 1753 L-822 1573 C-824 1558 -825 1542 -825 1526 L-822 1526 L-822 1201 L-783 1201 L-783 1570 C-772 1655 -724 1724 -587 1724 C-491 1724 -434 1684 -434 1517 L-434 1201 L-394 1201 L-394 1516 C-394 1702 -462 1764 -590 1764 L-590 1764 Z " />
<glyph glyph-name="uni1DE1" unicode="&#x1de1;" horiz-adv-x="0" d="M-374 1797 L-374 1262 L-819 1797 L-859 1797 L-859 1202 L-819 1202 L-819 1737 L-374 1202 L-335 1202 L-335 1797 L-374 1797 Z " />
<glyph glyph-name="uni1DE2" unicode="&#x1de2;" horiz-adv-x="0" d="M-377 1290 L-377 1351 C-377 1414 -399 1467 -470 1489 C-402 1509 -374 1571 -374 1635 C-374 1741 -449 1797 -585 1797 L-832 1797 L-832 1202 L-792 1202 L-792 1476 L-574 1476 C-471 1476 -416 1429 -416 1350 L-416 1291 C-416 1273 -416 1223 -407 1202 L-364 1202 L-364 1213 C-375 1230 -377 1259 -377 1290 L-377 1290 Z M-585 1516 L-792 1516 L-792 1757 L-585 1757 C-459 1757 -414 1721 -414 1635 C-414 1550 -459 1516 -585 1516 L-585 1516 Z " />
<glyph glyph-name="uni1DE3" unicode="&#x1de3;" horiz-adv-x="0" d="M-410 1589 C-410 1696 -500 1762 -617 1762 C-686 1762 -762 1736 -817 1694 L-793 1654 C-738 1685 -694 1709 -616 1709 C-538 1709 -465 1674 -465 1589 C-465 1493 -550 1459 -680 1411 L-524 1202 L-464 1202 L-464 1206 L-598 1387 C-499 1428 -410 1484 -410 1589 L-410 1589 Z " />
<glyph glyph-name="uni1DE4" unicode="&#x1de4;" horiz-adv-x="0" d="M-595 1469 C-448 1439 -423 1387 -423 1337 C-423 1279 -472 1232 -591 1232 C-678 1232 -754 1255 -772 1343 L-812 1343 C-812 1262 -735 1192 -591 1192 C-463 1192 -384 1252 -384 1337 C-384 1431 -455 1477 -577 1503 C-737 1536 -754 1576 -754 1626 C-754 1677 -712 1725 -595 1725 C-485 1725 -424 1680 -425 1607 L-384 1607 C-384 1701 -463 1765 -595 1765 C-714 1765 -793 1708 -793 1626 C-793 1535 -729 1496 -595 1469 L-595 1469 Z " />
<glyph glyph-name="uni1DE5" unicode="&#x1de5;" horiz-adv-x="0" d="M-617 1202 L-577 1202 L-577 1845 C-577 1931 -543 1969 -464 1969 C-440 1969 -420 1967 -399 1961 L-394 2000 C-417 2007 -442 2009 -464 2009 C-561 2009 -617 1951 -617 1845 L-617 1202 Z " />
<glyph glyph-name="uni1DE6" unicode="&#x1de6;" horiz-adv-x="0" d="M-780 1242 L-401 1713 L-401 1754 L-812 1754 L-812 1714 L-448 1714 L-829 1241 L-829 1202 L-368 1202 L-368 1242 L-780 1242 Z " />
<glyph glyph-name="uni1DE7" unicode="&#x1de7;" horiz-adv-x="0" d="M-322 1236 C-337 1233 -346 1232 -360 1232 C-394 1232 -415 1258 -415 1333 L-415 1755 L-455 1755 L-454 1638 L-454 1626 C-490 1709 -555 1765 -656 1765 C-796 1765 -879 1653 -879 1479 L-879 1469 C-879 1300 -798 1192 -656 1192 C-555 1192 -489 1245 -454 1315 C-450 1226 -422 1192 -355 1192 C-344 1192 -331 1195 -318 1199 L-322 1236 Z M-658 1232 C-788 1232 -839 1342 -839 1469 L-839 1479 C-839 1635 -773 1725 -657 1725 C-531 1725 -474 1621 -454 1542 L-454 1393 C-478 1302 -539 1232 -658 1232 L-658 1232 Z " />
<glyph glyph-name="uni1DE8" unicode="&#x1de8;" horiz-adv-x="0" d="M-589 1759 C-687 1759 -754 1715 -792 1648 L-792 1997 L-831 1997 L-831 1202 L-791 1202 L-792 1294 C-755 1235 -687 1191 -588 1191 C-436 1191 -366 1304 -366 1473 L-366 1483 C-366 1657 -449 1759 -589 1759 L-589 1759 Z M-406 1473 C-406 1326 -463 1231 -587 1231 C-696 1231 -763 1288 -792 1358 L-792 1576 C-767 1641 -707 1719 -588 1719 C-463 1719 -406 1630 -406 1483 L-406 1473 Z " />
<glyph glyph-name="uni1DE9" unicode="&#x1de9;" horiz-adv-x="0" d="M-511 1601 C-444 1633 -409 1694 -409 1764 C-409 1876 -492 1955 -622 1955 C-738 1955 -846 1876 -846 1739 L-846 992 L-806 992 L-806 1279 C-759 1220 -668 1192 -594 1192 C-449 1192 -350 1267 -350 1399 C-350 1490 -402 1572 -511 1601 L-511 1601 Z M-594 1232 C-690 1232 -776 1280 -806 1340 L-806 1739 C-806 1849 -725 1915 -622 1915 C-504 1915 -449 1844 -449 1764 C-449 1685 -491 1616 -625 1616 L-682 1616 L-682 1576 L-603 1576 C-468 1576 -390 1511 -390 1399 C-390 1288 -462 1232 -594 1232 L-594 1232 Z " />
<glyph glyph-name="uni1DEA" unicode="&#x1dea;" horiz-adv-x="0" d="M-621 1759 C-715 1759 -777 1722 -817 1669 L-790 1648 C-737 1702 -689 1719 -621 1719 C-504 1719 -401 1628 -401 1490 L-401 1472 L-834 1472 L-834 1428 C-834 1283 -741 1192 -611 1192 C-473 1192 -362 1294 -362 1468 L-362 1490 C-362 1650 -479 1759 -621 1759 L-621 1759 Z M-611 1232 C-730 1232 -794 1315 -794 1426 L-794 1432 L-403 1432 C-415 1314 -490 1232 -611 1232 L-611 1232 Z " />
<glyph glyph-name="uni1DEB" unicode="&#x1deb;" horiz-adv-x="0" d="M-462 1969 C-438 1969 -418 1967 -397 1961 L-392 2000 C-415 2007 -440 2009 -462 2009 C-559 2009 -615 1951 -615 1845 L-615 1759 L-734 1759 L-734 1719 L-615 1719 L-615 1202 L-575 1202 L-575 1719 L-461 1719 L-461 1759 L-575 1759 L-575 1845 C-575 1931 -541 1969 -462 1969 L-462 1969 Z " />
<glyph glyph-name="uni1DEC" unicode="&#x1dec;" horiz-adv-x="0" d="M-519 1537 C-541 1537 -558 1545 -574 1556 L-574 1622 C-559 1614 -542 1609 -519 1609 C-465 1609 -423 1647 -423 1703 L-453 1709 C-453 1666 -483 1637 -519 1637 C-541 1637 -558 1645 -574 1656 L-574 1991 L-614 1991 L-614 1683 C-631 1693 -651 1700 -677 1700 C-731 1700 -772 1665 -772 1609 L-743 1603 C-743 1646 -714 1672 -677 1672 C-650 1672 -632 1661 -614 1648 L-614 1583 C-631 1593 -651 1600 -677 1600 C-731 1600 -772 1565 -772 1509 L-743 1503 C-743 1546 -714 1572 -677 1572 C-650 1572 -632 1561 -614 1548 L-614 1202 L-574 1202 L-574 1522 C-559 1514 -542 1509 -519 1509 C-465 1509 -423 1547 -423 1603 L-453 1609 C-453 1566 -483 1537 -519 1537 L-519 1537 Z " />
<glyph glyph-name="uni1DED" unicode="&#x1ded;" horiz-adv-x="0" d="M-595 1759 C-755 1759 -855 1654 -855 1486 L-855 1465 C-855 1372 -825 1298 -770 1251 L-907 1044 L-867 1021 L-732 1224 C-694 1203 -648 1192 -595 1192 C-434 1192 -336 1297 -336 1465 L-336 1486 C-336 1654 -433 1759 -595 1759 L-595 1759 Z M-376 1465 C-376 1333 -444 1232 -595 1232 C-748 1232 -815 1333 -815 1465 L-815 1486 C-815 1618 -747 1719 -595 1719 C-443 1719 -376 1618 -376 1486 L-376 1465 Z " />
<glyph glyph-name="uni1DEE" unicode="&#x1dee;" horiz-adv-x="0" d="M-598 1760 C-697 1760 -765 1716 -802 1657 L-801 1749 L-841 1749 L-841 954 L-802 954 L-802 1303 C-764 1236 -697 1192 -599 1192 C-459 1192 -376 1294 -376 1468 L-376 1478 C-376 1647 -446 1760 -598 1760 L-598 1760 Z M-416 1468 C-416 1321 -473 1232 -598 1232 C-718 1232 -778 1311 -802 1377 L-802 1591 C-774 1662 -707 1720 -597 1720 C-473 1720 -416 1625 -416 1478 L-416 1468 Z " />
<glyph glyph-name="uni1DEF" unicode="&#x1def;" horiz-adv-x="0" d="M-464 2009 C-561 2009 -617 1951 -617 1845 L-617 1118 C-617 1032 -651 994 -731 994 C-756 994 -776 996 -796 1002 L-800 963 C-778 956 -754 954 -731 954 C-635 954 -577 1012 -577 1118 L-577 1845 C-577 1931 -543 1969 -464 1969 C-440 1969 -419 1967 -399 1961 L-395 2000 C-418 2007 -442 2009 -464 2009 L-464 2009 Z " />
<glyph glyph-name="uni1DF0" unicode="&#x1df0;" horiz-adv-x="0" d="M-380 1429 L-383 1429 L-383 1754 L-422 1754 L-422 1385 C-433 1300 -481 1231 -618 1231 C-714 1231 -771 1271 -771 1438 L-771 1754 L-811 1754 L-811 1439 C-811 1353 -796 1293 -768 1254 L-907 1044 L-867 1021 L-734 1221 C-704 1200 -664 1191 -615 1191 C-523 1191 -460 1223 -423 1275 L-424 1202 L-383 1202 L-383 1382 C-381 1397 -380 1413 -380 1429 L-380 1429 Z " />
<glyph glyph-name="uni1DF1" unicode="&#x1df1;" horiz-adv-x="0" d="M-262 1754 L-384 1362 L-414 1262 L-443 1362 L-572 1754 L-622 1754 L-751 1362 L-782 1262 L-811 1362 L-934 1754 L-973 1754 L-800 1202 L-762 1202 L-628 1617 L-598 1719 L-570 1617 L-433 1202 L-395 1202 L-222 1754 L-262 1754 Z " />
<glyph glyph-name="uni1DF2" unicode="&#x1df2;" horiz-adv-x="0" d="M-362 1202 C-380 1229 -388 1273 -388 1313 L-388 1584 C-388 1701 -475 1759 -599 1759 C-726 1759 -817 1684 -817 1598 L-777 1596 C-777 1664 -707 1719 -599 1719 C-481 1719 -428 1674 -428 1585 L-428 1510 L-564 1510 C-745 1510 -833 1440 -833 1339 C-833 1248 -766 1191 -655 1191 C-548 1191 -472 1234 -427 1286 C-425 1255 -418 1223 -406 1202 L-362 1202 Z M-706 1892 C-687 1892 -671 1907 -671 1926 C-671 1945 -687 1961 -706 1961 C-727 1961 -741 1945 -741 1926 C-741 1907 -727 1892 -706 1892 L-706 1892 Z M-493 1892 C-473 1892 -456 1907 -456 1926 C-456 1945 -473 1961 -493 1961 C-513 1961 -528 1945 -528 1926 C-528 1907 -513 1892 -493 1892 L-493 1892 Z M-657 1231 C-748 1231 -793 1273 -793 1339 C-793 1426 -711 1470 -562 1470 L-428 1470 L-428 1348 C-471 1276 -549 1231 -657 1231 L-657 1231 Z " />
<glyph glyph-name="uni1DF3" unicode="&#x1df3;" horiz-adv-x="0" d="M-858 1465 C-858 1297 -760 1192 -599 1192 C-437 1192 -340 1297 -340 1465 L-340 1486 C-340 1654 -436 1759 -599 1759 C-759 1759 -858 1654 -858 1486 L-858 1465 Z M-706 1961 C-726 1961 -741 1945 -741 1926 C-741 1907 -726 1892 -706 1892 C-686 1892 -669 1907 -669 1926 C-669 1945 -686 1961 -706 1961 L-706 1961 Z M-492 1961 C-512 1961 -527 1945 -527 1926 C-527 1907 -512 1892 -492 1892 C-473 1892 -456 1907 -456 1926 C-456 1945 -473 1961 -492 1961 L-492 1961 Z M-380 1465 C-380 1333 -447 1232 -599 1232 C-751 1232 -819 1333 -819 1465 L-819 1486 C-819 1618 -750 1719 -599 1719 C-446 1719 -380 1618 -380 1486 L-380 1465 Z " />
<glyph glyph-name="uni1DF4" unicode="&#x1df4;" horiz-adv-x="0" d="M-380 1429 L-383 1429 L-383 1754 L-422 1754 L-422 1385 C-433 1300 -481 1231 -618 1231 C-714 1231 -771 1271 -771 1438 L-771 1754 L-811 1754 L-811 1439 C-811 1253 -743 1191 -615 1191 C-523 1191 -460 1223 -423 1275 L-424 1202 L-383 1202 L-383 1382 C-381 1397 -380 1413 -380 1429 L-380 1429 Z M-705 1892 C-686 1892 -669 1907 -669 1926 C-669 1945 -686 1961 -705 1961 C-726 1961 -740 1945 -740 1926 C-740 1907 -726 1892 -705 1892 L-705 1892 Z M-492 1892 C-472 1892 -455 1907 -455 1926 C-455 1945 -472 1961 -492 1961 C-512 1961 -526 1945 -526 1926 C-526 1907 -512 1892 -492 1892 L-492 1892 Z " />
<glyph glyph-name="uni1DF5" unicode="&#x1df5;" horiz-adv-x="0" d="M-570 1225 L-570 1509 L-624 1509 L-624 1225 L-817 1225 L-817 1171 L-377 1171 L-377 1225 L-570 1225 Z " />
<glyph glyph-name="uni1DFC" unicode="&#x1dfc;" horiz-adv-x="0" d="M673 -379 L738 -379 C586 -233 414 -91 9 -91 C-395 -91 -569 -233 -721 -379 L-655 -379 C-502 -274 -389 -147 9 -147 C401 -147 520 -276 673 -379 L673 -379 Z " />
<glyph glyph-name="uni1DFD" unicode="&#x1dfd;" horiz-adv-x="0" d="M-239 -80 L-296 -80 C-296 -164 -355 -211 -427 -211 C-548 -211 -586 -87 -737 -87 C-842 -87 -924 -156 -924 -266 L-868 -266 C-868 -182 -810 -141 -736 -141 C-609 -141 -582 -266 -427 -266 C-323 -266 -239 -191 -239 -80 L-239 -80 Z M-239 -273 L-296 -273 C-296 -357 -355 -404 -427 -404 C-548 -404 -586 -280 -737 -280 C-842 -280 -924 -349 -924 -459 L-868 -459 C-868 -375 -810 -334 -736 -334 C-609 -334 -582 -459 -427 -459 C-323 -459 -239 -384 -239 -273 L-239 -273 Z " />
<glyph glyph-name="uni1DFE" unicode="&#x1dfe;" horiz-adv-x="0" d="M-206 1855 L-206 1915 L-988 1576 L-988 1522 L-206 1182 L-206 1241 L-816 1503 L-931 1549 L-816 1592 L-206 1855 Z " />
<glyph glyph-name="uni1DFF" unicode="&#x1dff;" horiz-adv-x="0" d="M-1453 -120 L-843 -291 L-744 -309 L-843 -329 L-1453 -499 L-1453 -547 L-671 -326 L-671 -291 L-1453 -71 L-1453 -120 Z M-14 -78 L-300 -444 L-347 -518 L-397 -444 L-683 -78 L-742 -78 L-375 -551 L-319 -551 L47 -78 L-14 -78 Z " />
<glyph glyph-name="Wgrave" unicode="&#x1e80;" horiz-adv-x="2010" d="M1879 1456 L1552 330 L1478 87 L1407 330 L1036 1456 L976 1456 L603 330 L532 88 L459 330 L131 1456 L72 1456 L497 0 L558 0 L558 2 L951 1214 L1005 1372 L1061 1214 L1451 2 L1451 0 L1513 0 L1936 1456 L1879 1456 Z M1047 1589 L839 1855 L772 1855 L985 1589 L1047 1589 Z " />
<glyph glyph-name="wgrave" unicode="&#x1e81;" horiz-adv-x="1681" d="M1509 1082 L1273 313 L1205 75 L1122 313 L863 1082 L807 1082 L547 313 L464 75 L396 313 L159 1082 L98 1082 L435 0 L489 0 L772 813 L834 1013 L893 813 L1178 0 L1233 0 L1572 1082 L1509 1082 Z M877 1270 L669 1536 L602 1536 L815 1270 L877 1270 Z " />
<glyph glyph-name="Wacute" unicode="&#x1e82;" horiz-adv-x="2010" d="M1879 1456 L1552 330 L1478 87 L1407 330 L1036 1456 L976 1456 L603 330 L532 88 L459 330 L131 1456 L72 1456 L497 0 L558 0 L558 2 L951 1214 L1005 1372 L1061 1214 L1451 2 L1451 0 L1513 0 L1936 1456 L1879 1456 Z M1236 1855 L1169 1855 L960 1589 L1023 1589 L1236 1855 Z " />
<glyph glyph-name="wacute" unicode="&#x1e83;" horiz-adv-x="1681" d="M1509 1082 L1273 313 L1205 75 L1122 313 L863 1082 L807 1082 L547 313 L464 75 L396 313 L159 1082 L98 1082 L435 0 L489 0 L772 813 L834 1013 L893 813 L1178 0 L1233 0 L1572 1082 L1509 1082 Z M1066 1536 L999 1536 L790 1270 L853 1270 L1066 1536 Z " />
<glyph glyph-name="Wdieresis" unicode="&#x1e84;" horiz-adv-x="2010" d="M1879 1456 L1552 330 L1478 87 L1407 330 L1036 1456 L976 1456 L603 330 L532 88 L459 330 L131 1456 L72 1456 L497 0 L558 0 L558 2 L951 1214 L1005 1372 L1061 1214 L1451 2 L1451 0 L1513 0 L1936 1456 L1879 1456 Z M756 1685 C789 1685 816 1709 816 1740 C816 1771 789 1796 756 1796 C724 1796 697 1771 697 1740 C697 1709 724 1685 756 1685 L756 1685 Z M1250 1685 C1282 1685 1310 1709 1310 1740 C1310 1771 1282 1796 1250 1796 C1217 1796 1191 1771 1191 1740 C1191 1709 1217 1685 1250 1685 L1250 1685 Z " />
<glyph glyph-name="wdieresis" unicode="&#x1e85;" horiz-adv-x="1681" d="M1509 1082 L1273 313 L1205 75 L1122 313 L863 1082 L807 1082 L547 313 L464 75 L396 313 L159 1082 L98 1082 L435 0 L489 0 L772 813 L834 1013 L893 813 L1178 0 L1233 0 L1572 1082 L1509 1082 Z M586 1366 C619 1366 646 1390 646 1421 C646 1452 619 1477 586 1477 C554 1477 527 1452 527 1421 C527 1390 554 1366 586 1366 L586 1366 Z M1080 1366 C1112 1366 1140 1390 1140 1421 C1140 1452 1112 1477 1080 1477 C1047 1477 1021 1452 1021 1421 C1021 1390 1047 1366 1080 1366 L1080 1366 Z " />
<glyph glyph-name="uni1E9E" unicode="&#x1e9e;" horiz-adv-x="1438" d="M792 829 L713 829 L1146 1234 C1028 1381 879 1476 666 1476 C315 1476 223 1284 223 998 L223 0 L275 0 L275 996 C275 1300 391 1422 666 1422 C831 1422 975 1349 1064 1236 L629 833 L629 775 L792 775 C1128 775 1250 621 1250 408 C1250 152 1074 34 814 34 C710 34 618 61 559 87 L526 29 C627 -6 713 -20 814 -20 C1123 -20 1303 135 1303 408 C1303 657 1143 829 792 829 L792 829 Z " />
<glyph glyph-name="uni1EA0" unicode="&#x1ea0;" horiz-adv-x="1323" d="M1281 0 L695 1456 L628 1456 L42 0 L100 0 L275 435 L1047 435 L1222 0 L1281 0 Z M686 -162 C654 -162 627 -187 627 -218 C627 -249 654 -273 686 -273 C719 -273 746 -249 746 -218 C746 -187 719 -162 686 -162 L686 -162 Z M297 489 L661 1395 L1025 489 L297 489 Z " />
<glyph glyph-name="uni1EA1" unicode="&#x1ea1;" horiz-adv-x="1173" d="M977 218 L977 768 C977 996 806 1102 565 1102 C316 1102 136 958 136 786 L188 784 C188 937 352 1048 566 1048 C795 1048 924 950 924 770 L924 604 L639 604 C301 604 104 467 104 274 C104 95 245 -20 461 -20 C697 -20 846 82 924 199 C924 129 931 51 946 0 L1007 0 L1007 9 C988 53 977 140 977 218 L977 218 Z M548 -162 C516 -162 489 -187 489 -218 C489 -249 516 -273 548 -273 C581 -273 608 -249 608 -218 C608 -187 581 -162 548 -162 L548 -162 Z M460 33 C282 33 157 132 157 270 C157 434 335 549 641 549 L924 549 L924 287 C845 131 687 33 460 33 L460 33 Z " />
<glyph glyph-name="uni1EA2" unicode="&#x1ea2;" horiz-adv-x="1323" d="M1222 0 L1281 0 L695 1456 L628 1456 L42 0 L100 0 L275 435 L1047 435 L1222 0 Z M842 1800 C842 1726 780 1697 637 1686 L637 1587 L686 1587 L686 1641 C805 1649 899 1693 899 1800 C899 1900 771 1959 593 1959 L586 1910 C702 1910 842 1884 842 1800 L842 1800 Z M297 489 L661 1395 L1025 489 L297 489 Z " />
<glyph glyph-name="uni1EA3" unicode="&#x1ea3;" horiz-adv-x="1173" d="M977 218 L977 768 C977 996 806 1102 565 1102 C316 1102 136 958 136 786 L188 784 C188 937 352 1048 566 1048 C795 1048 924 950 924 770 L924 604 L639 604 C301 604 104 467 104 274 C104 95 245 -20 461 -20 C697 -20 846 82 924 199 C924 129 931 51 946 0 L1007 0 L1007 9 C988 53 977 140 977 218 L977 218 Z M807 1480 C807 1406 745 1377 602 1366 L602 1267 L651 1267 L651 1321 C770 1329 864 1373 864 1480 C864 1580 736 1639 558 1639 L551 1590 C667 1590 807 1564 807 1480 L807 1480 Z M460 33 C282 33 157 132 157 270 C157 434 335 549 641 549 L924 549 L924 287 C845 131 687 33 460 33 L460 33 Z " />
<glyph glyph-name="uni1EA4" unicode="&#x1ea4;" horiz-adv-x="1323" d="M1222 0 L1281 0 L695 1456 L628 1456 L42 0 L100 0 L275 435 L1047 435 L1222 0 Z M658 1729 L878 1543 L964 1543 L699 1766 L616 1766 L351 1543 L436 1543 L658 1729 Z M1149 1905 L1075 1905 L910 1701 L975 1701 L1149 1905 Z M297 489 L661 1395 L1025 489 L297 489 Z " />
<glyph glyph-name="uni1EA5" unicode="&#x1ea5;" horiz-adv-x="1173" d="M977 768 C977 996 806 1102 565 1102 C316 1102 136 958 136 786 L188 784 C188 937 352 1048 566 1048 C795 1048 924 950 924 770 L924 604 L639 604 C301 604 104 467 104 274 C104 95 245 -20 461 -20 C697 -20 846 82 924 199 C924 129 931 51 946 0 L1007 0 L1007 9 C988 53 977 140 977 218 L977 768 Z M623 1409 L843 1223 L929 1223 L664 1446 L581 1446 L316 1223 L401 1223 L623 1409 Z M1114 1585 L1040 1585 L875 1381 L940 1381 L1114 1585 Z M460 33 C282 33 157 132 157 270 C157 434 335 549 641 549 L924 549 L924 287 C845 131 687 33 460 33 L460 33 Z " />
<glyph glyph-name="uni1EA6" unicode="&#x1ea6;" horiz-adv-x="1323" d="M1222 0 L1281 0 L695 1456 L628 1456 L42 0 L100 0 L275 435 L1047 435 L1222 0 Z M403 1701 L237 1905 L164 1905 L339 1701 L403 1701 Z M435 1543 L655 1729 L876 1543 L962 1543 L696 1766 L614 1766 L349 1543 L435 1543 Z M297 489 L661 1395 L1025 489 L297 489 Z " />
<glyph glyph-name="uni1EA7" unicode="&#x1ea7;" horiz-adv-x="1173" d="M977 218 L977 768 C977 996 806 1102 565 1102 C316 1102 136 958 136 786 L188 784 C188 937 352 1048 566 1048 C795 1048 924 950 924 770 L924 604 L639 604 C301 604 104 467 104 274 C104 95 245 -20 461 -20 C697 -20 846 82 924 199 C924 129 931 51 946 0 L1007 0 L1007 9 C988 53 977 140 977 218 L977 218 Z M368 1381 L202 1585 L129 1585 L304 1381 L368 1381 Z M400 1223 L620 1409 L841 1223 L927 1223 L661 1446 L579 1446 L314 1223 L400 1223 Z M460 33 C282 33 157 132 157 270 C157 434 335 549 641 549 L924 549 L924 287 C845 131 687 33 460 33 L460 33 Z " />
<glyph glyph-name="uni1EA8" unicode="&#x1ea8;" horiz-adv-x="1323" d="M1222 0 L1281 0 L695 1456 L628 1456 L42 0 L100 0 L275 435 L1047 435 L1222 0 Z M663 1778 L883 1592 L970 1592 L704 1815 L623 1815 L357 1592 L443 1592 L663 1778 Z M1129 1882 C1129 1825 1091 1809 968 1801 L968 1708 L1014 1708 L1014 1752 C1115 1760 1192 1797 1192 1889 C1192 1973 1084 2024 932 2024 L928 1969 C1024 1969 1129 1951 1129 1882 L1129 1882 Z M297 489 L661 1395 L1025 489 L297 489 Z " />
<glyph glyph-name="uni1EA9" unicode="&#x1ea9;" horiz-adv-x="1173" d="M977 768 C977 996 806 1102 565 1102 C316 1102 136 958 136 786 L188 784 C188 937 352 1048 566 1048 C795 1048 924 950 924 770 L924 604 L639 604 C301 604 104 467 104 274 C104 95 245 -20 461 -20 C697 -20 846 82 924 199 C924 129 931 51 946 0 L1007 0 L1007 9 C988 53 977 140 977 218 L977 768 Z M628 1458 L848 1272 L935 1272 L669 1495 L588 1495 L322 1272 L408 1272 L628 1458 Z M897 1704 L893 1649 C989 1649 1094 1631 1094 1562 C1094 1505 1056 1489 933 1481 L933 1388 L979 1388 L979 1432 C1080 1440 1157 1477 1157 1569 C1157 1653 1049 1704 897 1704 L897 1704 Z M460 33 C282 33 157 132 157 270 C157 434 335 549 641 549 L924 549 L924 287 C845 131 687 33 460 33 L460 33 Z " />
<glyph glyph-name="uni1EAA" unicode="&#x1eaa;" horiz-adv-x="1323" d="M1222 0 L1281 0 L695 1456 L628 1456 L42 0 L100 0 L275 435 L1047 435 L1222 0 Z M659 1748 L879 1562 L966 1562 L690 1785 L628 1785 L353 1562 L439 1562 L659 1748 Z M570 1939 C664 1939 685 1834 800 1834 C877 1834 938 1890 938 1974 L884 1982 C884 1919 853 1885 800 1885 C710 1885 683 1991 570 1991 C494 1991 433 1917 433 1834 L486 1826 C486 1890 517 1939 570 1939 L570 1939 Z M297 489 L661 1395 L1025 489 L297 489 Z " />
<glyph glyph-name="uni1EAB" unicode="&#x1eab;" horiz-adv-x="1173" d="M977 218 L977 768 C977 996 806 1102 565 1102 C316 1102 136 958 136 786 L188 784 C188 937 352 1048 566 1048 C795 1048 924 950 924 770 L924 604 L639 604 C301 604 104 467 104 274 C104 95 245 -20 461 -20 C697 -20 846 82 924 199 C924 129 931 51 946 0 L1007 0 L1007 9 C988 53 977 140 977 218 L977 218 Z M624 1428 L844 1242 L931 1242 L655 1465 L593 1465 L318 1242 L404 1242 L624 1428 Z M535 1619 C629 1619 650 1514 765 1514 C842 1514 903 1570 903 1654 L849 1662 C849 1599 818 1565 765 1565 C675 1565 648 1671 535 1671 C459 1671 398 1597 398 1514 L451 1506 C451 1570 482 1619 535 1619 L535 1619 Z M460 33 C282 33 157 132 157 270 C157 434 335 549 641 549 L924 549 L924 287 C845 131 687 33 460 33 L460 33 Z " />
<glyph glyph-name="uni1EAC" unicode="&#x1eac;" horiz-adv-x="1323" d="M1281 0 L695 1456 L628 1456 L42 0 L100 0 L275 435 L1047 435 L1222 0 L1281 0 Z M661 1779 L863 1583 L933 1583 L933 1593 L682 1836 L642 1836 L395 1597 L395 1583 L460 1583 L661 1779 Z M686 -162 C654 -162 627 -187 627 -218 C627 -249 654 -273 686 -273 C719 -273 746 -249 746 -218 C746 -187 719 -162 686 -162 L686 -162 Z M297 489 L661 1395 L1025 489 L297 489 Z " />
<glyph glyph-name="uni1EAD" unicode="&#x1ead;" horiz-adv-x="1173" d="M977 218 L977 768 C977 996 806 1102 565 1102 C316 1102 136 958 136 786 L188 784 C188 937 352 1048 566 1048 C795 1048 924 950 924 770 L924 604 L639 604 C301 604 104 467 104 274 C104 95 245 -20 461 -20 C697 -20 846 82 924 199 C924 129 931 51 946 0 L1007 0 L1007 9 C988 53 977 140 977 218 L977 218 Z M626 1459 L828 1263 L898 1263 L898 1273 L647 1516 L607 1516 L360 1277 L360 1263 L425 1263 L626 1459 Z M548 -162 C516 -162 489 -187 489 -218 C489 -249 516 -273 548 -273 C581 -273 608 -249 608 -218 C608 -187 581 -162 548 -162 L548 -162 Z M460 33 C282 33 157 132 157 270 C157 434 335 549 641 549 L924 549 L924 287 C845 131 687 33 460 33 L460 33 Z " />
<glyph glyph-name="uni1EAE" unicode="&#x1eae;" horiz-adv-x="1323" d="M1222 0 L1281 0 L695 1456 L628 1456 L42 0 L100 0 L275 435 L1047 435 L1222 0 Z M652 1588 C840 1588 953 1673 953 1796 L899 1796 C899 1710 828 1634 652 1634 C469 1634 403 1708 403 1796 L349 1796 C349 1673 463 1588 652 1588 L652 1588 Z M830 1977 L764 1977 L583 1764 L640 1764 L830 1977 Z M297 489 L661 1395 L1025 489 L297 489 Z " />
<glyph glyph-name="uni1EAF" unicode="&#x1eaf;" horiz-adv-x="1173" d="M977 218 L977 768 C977 996 806 1102 565 1102 C316 1102 136 958 136 786 L188 784 C188 937 352 1048 566 1048 C795 1048 924 950 924 770 L924 604 L639 604 C301 604 104 467 104 274 C104 95 245 -20 461 -20 C697 -20 846 82 924 199 C924 129 931 51 946 0 L1007 0 L1007 9 C988 53 977 140 977 218 L977 218 Z M617 1268 C805 1268 918 1353 918 1476 L864 1476 C864 1390 793 1314 617 1314 C434 1314 368 1388 368 1476 L314 1476 C314 1353 428 1268 617 1268 L617 1268 Z M795 1657 L729 1657 L548 1444 L605 1444 L795 1657 Z M460 33 C282 33 157 132 157 270 C157 434 335 549 641 549 L924 549 L924 287 C845 131 687 33 460 33 L460 33 Z " />
<glyph glyph-name="uni1EB0" unicode="&#x1eb0;" horiz-adv-x="1323" d="M1222 0 L1281 0 L695 1456 L628 1456 L42 0 L100 0 L275 435 L1047 435 L1222 0 Z M712 1764 L532 1977 L466 1977 L656 1764 L712 1764 Z M652 1588 C840 1588 953 1673 953 1796 L899 1796 C899 1710 828 1634 652 1634 C469 1634 403 1708 403 1796 L349 1796 C349 1673 463 1588 652 1588 L652 1588 Z M297 489 L661 1395 L1025 489 L297 489 Z " />
<glyph glyph-name="uni1EB1" unicode="&#x1eb1;" horiz-adv-x="1173" d="M977 218 L977 768 C977 996 806 1102 565 1102 C316 1102 136 958 136 786 L188 784 C188 937 352 1048 566 1048 C795 1048 924 950 924 770 L924 604 L639 604 C301 604 104 467 104 274 C104 95 245 -20 461 -20 C697 -20 846 82 924 199 C924 129 931 51 946 0 L1007 0 L1007 9 C988 53 977 140 977 218 L977 218 Z M677 1444 L497 1657 L431 1657 L621 1444 L677 1444 Z M617 1268 C805 1268 918 1353 918 1476 L864 1476 C864 1390 793 1314 617 1314 C434 1314 368 1388 368 1476 L314 1476 C314 1353 428 1268 617 1268 L617 1268 Z M460 33 C282 33 157 132 157 270 C157 434 335 549 641 549 L924 549 L924 287 C845 131 687 33 460 33 L460 33 Z " />
<glyph glyph-name="uni1EB2" unicode="&#x1eb2;" horiz-adv-x="1323" d="M1222 0 L1281 0 L695 1456 L628 1456 L42 0 L100 0 L275 435 L1047 435 L1222 0 Z M648 1581 C831 1581 942 1665 942 1785 L886 1785 C886 1701 817 1627 648 1627 C472 1627 407 1699 407 1785 L354 1785 C354 1665 465 1581 648 1581 L648 1581 Z M825 1957 C825 1890 765 1865 627 1857 L627 1768 L673 1768 L673 1815 C788 1823 880 1862 880 1957 C880 2046 756 2096 585 2096 L578 2053 C690 2053 825 2030 825 1957 L825 1957 Z M297 489 L661 1395 L1025 489 L297 489 Z " />
<glyph glyph-name="uni1EB3" unicode="&#x1eb3;" horiz-adv-x="1173" d="M977 218 L977 768 C977 996 806 1102 565 1102 C316 1102 136 958 136 786 L188 784 C188 937 352 1048 566 1048 C795 1048 924 950 924 770 L924 604 L639 604 C301 604 104 467 104 274 C104 95 245 -20 461 -20 C697 -20 846 82 924 199 C924 129 931 51 946 0 L1007 0 L1007 9 C988 53 977 140 977 218 L977 218 Z M613 1261 C796 1261 907 1345 907 1465 L851 1465 C851 1381 782 1307 613 1307 C437 1307 372 1379 372 1465 L319 1465 C319 1345 430 1261 613 1261 L613 1261 Z M790 1637 C790 1570 730 1545 592 1537 L592 1448 L638 1448 L638 1495 C753 1503 845 1542 845 1637 C845 1726 721 1776 550 1776 L543 1733 C655 1733 790 1710 790 1637 L790 1637 Z M460 33 C282 33 157 132 157 270 C157 434 335 549 641 549 L924 549 L924 287 C845 131 687 33 460 33 L460 33 Z " />
<glyph glyph-name="uni1EB4" unicode="&#x1eb4;" horiz-adv-x="1323" d="M1222 0 L1281 0 L695 1456 L628 1456 L42 0 L100 0 L275 435 L1047 435 L1222 0 Z M656 1561 C830 1561 936 1649 936 1774 L880 1774 C880 1686 816 1609 656 1609 C490 1609 430 1684 430 1774 L375 1774 C375 1649 480 1561 656 1561 L656 1561 Z M544 1948 C636 1948 655 1859 770 1859 C864 1859 937 1917 937 2003 L887 2013 C887 1950 833 1907 770 1907 C681 1907 653 1998 544 1998 C450 1998 378 1944 378 1860 L428 1851 C428 1912 480 1948 544 1948 L544 1948 Z M297 489 L661 1395 L1025 489 L297 489 Z " />
<glyph glyph-name="uni1EB5" unicode="&#x1eb5;" horiz-adv-x="1173" d="M977 218 L977 768 C977 996 806 1102 565 1102 C316 1102 136 958 136 786 L188 784 C188 937 352 1048 566 1048 C795 1048 924 950 924 770 L924 604 L639 604 C301 604 104 467 104 274 C104 95 245 -20 461 -20 C697 -20 846 82 924 199 C924 129 931 51 946 0 L1007 0 L1007 9 C988 53 977 140 977 218 L977 218 Z M621 1241 C795 1241 901 1329 901 1454 L845 1454 C845 1366 781 1289 621 1289 C455 1289 395 1364 395 1454 L340 1454 C340 1329 445 1241 621 1241 L621 1241 Z M509 1628 C601 1628 620 1539 735 1539 C829 1539 902 1597 902 1683 L852 1693 C852 1630 798 1587 735 1587 C646 1587 618 1678 509 1678 C415 1678 343 1624 343 1540 L393 1531 C393 1592 445 1628 509 1628 L509 1628 Z M460 33 C282 33 157 132 157 270 C157 434 335 549 641 549 L924 549 L924 287 C845 131 687 33 460 33 L460 33 Z " />
<glyph glyph-name="uni1EB6" unicode="&#x1eb6;" horiz-adv-x="1323" d="M1281 0 L695 1456 L628 1456 L42 0 L100 0 L275 435 L1047 435 L1222 0 L1281 0 Z M660 1562 C852 1562 967 1664 967 1810 L912 1810 C912 1707 838 1618 660 1618 C474 1618 407 1705 407 1810 L351 1810 C351 1664 467 1562 660 1562 L660 1562 Z M686 -162 C654 -162 627 -187 627 -218 C627 -249 654 -273 686 -273 C719 -273 746 -249 746 -218 C746 -187 719 -162 686 -162 L686 -162 Z M297 489 L661 1395 L1025 489 L297 489 Z " />
<glyph glyph-name="uni1EB7" unicode="&#x1eb7;" horiz-adv-x="1173" d="M977 218 L977 768 C977 996 806 1102 565 1102 C316 1102 136 958 136 786 L188 784 C188 937 352 1048 566 1048 C795 1048 924 950 924 770 L924 604 L639 604 C301 604 104 467 104 274 C104 95 245 -20 461 -20 C697 -20 846 82 924 199 C924 129 931 51 946 0 L1007 0 L1007 9 C988 53 977 140 977 218 L977 218 Z M625 1242 C817 1242 932 1344 932 1490 L877 1490 C877 1387 803 1298 625 1298 C439 1298 372 1385 372 1490 L316 1490 C316 1344 432 1242 625 1242 L625 1242 Z M548 -162 C516 -162 489 -187 489 -218 C489 -249 516 -273 548 -273 C581 -273 608 -249 608 -218 C608 -187 581 -162 548 -162 L548 -162 Z M460 33 C282 33 157 132 157 270 C157 434 335 549 641 549 L924 549 L924 287 C845 131 687 33 460 33 L460 33 Z " />
<glyph glyph-name="uni1EB8" unicode="&#x1eb8;" horiz-adv-x="1267" d="M1175 1402 L1175 1456 L222 1456 L222 0 L1174 0 L1174 54 L275 54 L275 722 L1065 722 L1065 776 L275 776 L275 1402 L1175 1402 Z M668 -152 C636 -152 609 -177 609 -208 C609 -239 636 -263 668 -263 C701 -263 728 -239 728 -208 C728 -177 701 -152 668 -152 L668 -152 Z " />
<glyph glyph-name="uni1EB9" unicode="&#x1eb9;" horiz-adv-x="1122" d="M152 577 L1028 577 L1028 645 C1028 931 842 1102 587 1102 C318 1102 99 895 99 572 L99 508 C99 188 327 -20 608 -20 C793 -20 914 47 991 143 L955 172 C858 64 742 33 608 33 C351 33 152 232 152 508 L152 572 L152 577 Z M610 -158 C578 -158 551 -183 551 -214 C551 -245 578 -269 610 -269 C643 -269 670 -245 670 -214 C670 -183 643 -158 610 -158 L610 -158 Z M587 1048 C822 1048 976 876 975 649 L975 631 L155 631 C178 875 346 1048 587 1048 L587 1048 Z " />
<glyph glyph-name="uni1EBA" unicode="&#x1eba;" horiz-adv-x="1267" d="M1175 1402 L1175 1456 L222 1456 L222 0 L1174 0 L1174 54 L275 54 L275 722 L1065 722 L1065 776 L275 776 L275 1402 L1175 1402 Z M852 1800 C852 1726 790 1697 647 1686 L647 1587 L696 1587 L696 1641 C815 1649 909 1693 909 1800 C909 1900 781 1959 603 1959 L596 1910 C712 1910 852 1884 852 1800 L852 1800 Z " />
<glyph glyph-name="uni1EBB" unicode="&#x1ebb;" horiz-adv-x="1122" d="M152 577 L1028 577 L1028 645 C1028 931 842 1102 587 1102 C318 1102 99 895 99 572 L99 508 C99 188 327 -20 608 -20 C793 -20 914 47 991 143 L955 172 C858 64 742 33 608 33 C351 33 152 232 152 508 L152 572 L152 577 Z M796 1479 C796 1405 734 1376 591 1365 L591 1266 L640 1266 L640 1320 C759 1328 853 1372 853 1479 C853 1579 725 1638 547 1638 L540 1589 C656 1589 796 1563 796 1479 L796 1479 Z M587 1048 C822 1048 976 876 975 649 L975 631 L155 631 C178 875 346 1048 587 1048 L587 1048 Z " />
<glyph glyph-name="uni1EBC" unicode="&#x1ebc;" horiz-adv-x="1267" d="M1175 1402 L1175 1456 L222 1456 L222 0 L1174 0 L1174 54 L275 54 L275 722 L1065 722 L1065 776 L275 776 L275 1402 L1175 1402 Z M526 1745 C654 1745 681 1620 836 1620 C940 1620 1024 1695 1024 1806 L967 1806 C967 1722 908 1675 836 1675 C715 1675 677 1799 526 1799 C421 1799 339 1730 339 1620 L395 1620 C395 1704 453 1745 526 1745 L526 1745 Z " />
<glyph glyph-name="uni1EBD" unicode="&#x1ebd;" horiz-adv-x="1122" d="M152 577 L1028 577 L1028 645 C1028 931 842 1102 587 1102 C318 1102 99 895 99 572 L99 508 C99 188 327 -20 608 -20 C793 -20 914 47 991 143 L955 172 C858 64 742 33 608 33 C351 33 152 232 152 508 L152 572 L152 577 Z M470 1424 C598 1424 625 1299 780 1299 C884 1299 968 1374 968 1485 L911 1485 C911 1401 852 1354 780 1354 C659 1354 621 1478 470 1478 C365 1478 283 1409 283 1299 L339 1299 C339 1383 397 1424 470 1424 L470 1424 Z M587 1048 C822 1048 976 876 975 649 L975 631 L155 631 C178 875 346 1048 587 1048 L587 1048 Z " />
<glyph glyph-name="uni1EBE" unicode="&#x1ebe;" horiz-adv-x="1267" d="M1175 1402 L1175 1456 L222 1456 L222 0 L1174 0 L1174 54 L275 54 L275 722 L1065 722 L1065 776 L275 776 L275 1402 L1175 1402 Z M668 1729 L888 1543 L974 1543 L709 1766 L626 1766 L361 1543 L446 1543 L668 1729 Z M1159 1905 L1085 1905 L920 1701 L985 1701 L1159 1905 Z " />
<glyph glyph-name="uni1EBF" unicode="&#x1ebf;" horiz-adv-x="1122" d="M587 1102 C318 1102 99 895 99 572 L99 508 C99 188 327 -20 608 -20 C793 -20 914 47 991 143 L955 172 C858 64 742 33 608 33 C351 33 152 232 152 508 L152 572 L152 577 L1028 577 L1028 645 C1028 931 842 1102 587 1102 L587 1102 Z M612 1408 L832 1222 L918 1222 L653 1445 L570 1445 L305 1222 L390 1222 L612 1408 Z M1103 1584 L1029 1584 L864 1380 L929 1380 L1103 1584 Z M975 649 L975 631 L155 631 C178 875 346 1048 587 1048 C822 1048 976 876 975 649 L975 649 Z " />
</font>
</svg>
