<?xml version="1.0" encoding="UTF-8"?>
<svg xmlns="http://www.w3.org/2000/svg" xmlns:xlink="http://www.w3.org/1999/xlink" version="1.1" >
<font id="Gotho-4SmCd800ExBd" horiz-adv-x="707">
<font-face  font-family="Gotho" units-per-em="2048" ascent="2146" descent="-555" font-style="normal" font-weight="800" font-stretch="semi-condensed" cap-height="1456" x-height="1082" underline-position="-100" underline-thickness="100" />
<missing-glyph horiz-adv-x="729" d="M632 1456 L98 1456 L98 0 L632 0 L632 1456 Z M363 659 L556 54 L169 54 L363 659 Z M341 728 L138 96 L138 1360 L341 728 Z M385 728 L590 1370 L590 86 L385 728 Z M169 1402 L556 1402 L363 797 L169 1402 Z " />
<glyph glyph-name="NULL" horiz-adv-x="0" />
<glyph glyph-name="CR" unicode="&#xd;" horiz-adv-x="431" />
<glyph glyph-name="space" unicode="&#x20;" horiz-adv-x="431" />
<glyph glyph-name="uni0002" unicode="&#x2;" horiz-adv-x="0" />
<glyph glyph-name="uni0009" unicode="&#x9;" horiz-adv-x="431" />
<glyph glyph-name="exclam" unicode="&#x21;" horiz-adv-x="480" d="M246 250 C166 250 113 192 113 117 C113 44 166 -14 246 -14 C327 -14 379 44 379 117 C379 192 327 250 246 250 L246 250 Z M347 433 L376 1456 L118 1456 L146 433 L347 433 Z " />
<glyph glyph-name="quotedbl" unicode="&#x22;" horiz-adv-x="585" d="M239 1400 L239 1537 L66 1537 L66 1388 L65 1013 L205 1013 L239 1400 Z M520 1400 L520 1537 L347 1537 L347 1396 L346 1013 L487 1013 L520 1400 Z " />
<glyph glyph-name="numbersign" unicode="&#x23;" horiz-adv-x="975" d="M913 884 L913 1040 L752 1040 L807 1456 L657 1456 L602 1040 L472 1040 L527 1456 L377 1456 L322 1040 L130 1040 L130 884 L302 884 L260 566 L72 566 L72 410 L239 410 L185 0 L335 0 L389 410 L518 410 L464 0 L615 0 L669 410 L856 410 L856 566 L690 566 L732 884 L913 884 Z M539 566 L410 566 L452 884 L581 884 L539 566 Z " />
<glyph glyph-name="dollar" unicode="&#x24;" horiz-adv-x="935" d="M519 840 C405 895 371 964 371 1076 C371 1192 406 1277 484 1277 C555 1277 604 1176 604 1008 L845 1008 C845 1272 734 1434 561 1470 L561 1689 L429 1689 L429 1473 C249 1447 130 1298 130 1075 C130 824 264 714 458 617 C566 567 603 495 603 380 C603 261 562 180 475 180 C401 180 330 239 330 445 L89 445 C89 135 247 8 412 -16 L412 -213 L543 -213 L543 -16 C726 11 844 151 844 382 C844 632 711 739 519 840 L519 840 Z " />
<glyph glyph-name="percent" unicode="&#x25;" horiz-adv-x="1182" d="M611 357 L611 280 C611 116 694 -21 855 -21 C1016 -21 1096 116 1096 280 L1096 357 C1096 521 1016 657 853 657 C694 657 611 521 611 357 L611 357 Z M381 110 L917 1248 L802 1319 L265 181 L381 110 Z M92 1176 L92 1099 C92 936 176 800 336 800 C496 800 577 936 577 1099 L577 1176 C577 1341 496 1477 334 1477 C176 1477 92 1341 92 1176 L92 1176 Z M770 280 L770 357 C770 437 797 511 853 511 C910 511 938 437 938 357 L938 280 C938 199 923 126 855 126 C805 126 770 200 770 280 L770 280 Z M251 1099 L251 1176 C251 1257 278 1331 334 1331 C392 1331 419 1257 419 1176 L419 1099 C419 1020 393 946 336 946 C279 946 251 1021 251 1099 L251 1099 Z " />
<glyph glyph-name="ampersand" unicode="&#x26;" horiz-adv-x="1067" d="M1032 0 L859 273 C926 393 962 532 962 696 L757 696 C757 616 747 543 729 478 L547 764 L617 831 C705 917 763 1015 763 1152 C763 1326 649 1477 473 1477 C287 1477 165 1335 165 1108 C165 995 206 898 273 782 C154 667 72 565 72 392 C72 151 210 -21 435 -21 C537 -21 624 14 705 83 L757 0 L1032 0 Z M447 177 C370 177 314 275 314 401 C314 451 316 534 378 600 L382 603 L603 248 C555 202 501 177 447 177 L447 177 Z M473 1280 C530 1280 564 1211 564 1142 C564 1064 554 1015 490 962 L446 926 C407 993 381 1053 381 1112 C381 1204 411 1280 473 1280 L473 1280 Z " />
<glyph glyph-name="quotesingle" unicode="&#x27;" horiz-adv-x="304" d="M246 1405 L246 1536 L64 1536 L64 1390 L63 1018 L221 1018 L246 1405 Z " />
<glyph glyph-name="parenleft" unicode="&#x28;" horiz-adv-x="597" d="M113 592 L113 575 C113 4 329 -359 498 -462 L544 -327 C435 -207 318 77 318 573 L318 594 C318 1089 435 1372 544 1487 L498 1628 C329 1525 113 1162 113 592 L113 592 Z " />
<glyph glyph-name="parenright" unicode="&#x29;" horiz-adv-x="598" d="M497 575 L497 592 C497 1150 275 1525 98 1628 L53 1493 C157 1378 279 1089 279 594 L279 573 C279 77 160 -212 53 -327 L98 -462 C275 -359 497 15 497 575 L497 575 Z " />
<glyph glyph-name="asterisk" unicode="&#x2a;" horiz-adv-x="822" d="M306 973 L118 698 L255 598 L413 881 L571 590 L707 694 L525 962 L804 1052 L752 1220 L488 1103 L505 1457 L337 1457 L353 1109 L83 1229 L32 1063 L306 973 Z " />
<glyph glyph-name="plus" unicode="&#x2b;" horiz-adv-x="885" d="M816 800 L556 800 L556 1206 L327 1206 L327 800 L63 800 L63 578 L327 578 L327 146 L556 146 L556 578 L816 578 L816 800 Z " />
<glyph glyph-name="comma" unicode="&#x2c;" horiz-adv-x="448" d="M339 59 L340 235 L129 235 L129 49 C129 -81 82 -169 39 -258 L168 -333 C268 -239 339 -80 339 59 L339 59 Z " />
<glyph glyph-name="hyphen" unicode="&#x2d;" horiz-adv-x="659" d="M542 524 L542 722 L109 722 L109 524 L542 524 Z " />
<glyph glyph-name="period" unicode="&#x2e;" horiz-adv-x="531" d="M258 259 C174 259 118 200 118 123 C118 47 174 -12 258 -12 C344 -12 399 47 399 123 C399 200 344 259 258 259 L258 259 Z " />
<glyph glyph-name="slash" unicode="&#x2f;" horiz-adv-x="620" d="M185 -125 L582 1456 L405 1456 L7 -125 L185 -125 Z " />
<glyph glyph-name="zero" unicode="0" horiz-adv-x="935" d="M844 611 L844 852 C844 1304 690 1476 467 1476 C245 1476 91 1304 91 852 L91 611 C91 158 247 -20 469 -20 C690 -20 844 158 844 611 L844 611 Z M602 888 L602 577 C602 288 553 178 469 178 C384 178 332 288 332 577 L332 888 C332 1175 384 1279 467 1279 C551 1279 602 1175 602 888 L602 888 Z " />
<glyph glyph-name="one" unicode="1" horiz-adv-x="936" d="M641 0 L641 1460 L615 1460 L146 1253 L146 1047 L399 1168 L399 0 L641 0 Z " />
<glyph glyph-name="two" unicode="2" horiz-adv-x="936" d="M856 0 L856 198 L382 198 L596 527 C726 722 824 889 824 1074 C824 1321 698 1477 461 1477 C219 1477 70 1267 70 1011 L313 1011 C313 1167 360 1280 456 1280 C536 1280 581 1184 581 1048 C581 951 554 854 441 687 L85 169 L85 0 L856 0 Z " />
<glyph glyph-name="three" unicode="3" horiz-adv-x="937" d="M645 748 C760 814 824 943 824 1063 C824 1335 669 1477 444 1477 C241 1477 79 1311 79 1077 L322 1077 C322 1202 380 1280 449 1280 C539 1280 583 1196 583 1063 C583 931 536 840 438 840 L317 840 L317 647 L438 647 C539 647 599 575 599 408 C599 262 542 178 448 178 C368 178 309 266 309 393 L67 393 C67 118 253 -20 442 -20 C668 -20 840 136 840 408 C840 556 777 688 645 748 L645 748 Z " />
<glyph glyph-name="four" unicode="4" horiz-adv-x="935" d="M869 523 L754 523 L754 1456 L458 1456 L43 476 L54 326 L531 326 L531 0 L754 0 L754 326 L869 326 L869 523 Z M281 523 L530 1180 L531 1182 L531 523 L281 523 Z " />
<glyph glyph-name="five" unicode="5" horiz-adv-x="935" d="M120 723 L313 675 C339 722 372 760 447 760 C558 760 609 641 609 474 C609 300 571 178 470 178 C393 178 342 256 332 396 L94 396 C98 126 280 -20 472 -20 C727 -20 850 199 850 467 C850 770 729 955 514 955 C445 955 387 922 358 896 L383 1247 L810 1247 L810 1456 L185 1456 L120 723 Z " />
<glyph glyph-name="six" unicode="6" horiz-adv-x="936" d="M548 976 C458 976 388 941 336 882 C352 1145 445 1278 601 1278 C648 1278 690 1263 723 1250 L757 1435 C694 1464 636 1477 552 1477 C292 1477 93 1231 93 784 L93 538 C93 170 262 -21 485 -21 C713 -21 863 196 863 487 C863 763 749 976 548 976 L548 976 Z M485 177 C398 177 334 292 334 538 L334 673 C359 739 404 782 473 782 C563 782 622 658 622 487 C622 323 575 177 485 177 L485 177 Z " />
<glyph glyph-name="seven" unicode="7" horiz-adv-x="935" d="M66 1456 L66 1259 L618 1259 C425 949 322 596 286 150 L274 0 L517 0 L528 150 C559 540 583 845 851 1259 L851 1456 L66 1456 Z " />
<glyph glyph-name="eight" unicode="8" horiz-adv-x="935" d="M658 750 C757 814 818 930 818 1073 C818 1332 675 1477 467 1477 C262 1477 116 1332 116 1073 C116 930 177 814 276 750 C165 684 93 558 93 396 C93 126 254 -20 468 -20 C682 -20 841 126 841 396 C841 558 770 684 658 750 L658 750 Z M468 178 C386 178 335 264 335 411 C335 555 386 649 467 649 C548 649 598 555 598 411 C598 264 551 178 468 178 L468 178 Z M467 1280 C540 1280 578 1191 578 1063 C578 933 541 847 468 847 C397 847 358 933 358 1063 C358 1197 397 1280 467 1280 L467 1280 Z " />
<glyph glyph-name="nine" unicode="9" horiz-adv-x="935" d="M455 1477 C240 1477 84 1272 84 959 C84 659 206 456 412 456 C480 456 543 483 594 536 C591 296 521 177 392 177 C332 177 278 200 233 224 L195 40 C267 -1 344 -21 422 -21 C656 -21 835 185 835 560 L835 899 C835 1281 672 1477 455 1477 L455 1477 Z M467 647 C373 647 324 788 324 959 C324 1153 378 1280 455 1280 C538 1280 594 1164 594 929 L594 742 C568 688 526 647 467 647 L467 647 Z " />
<glyph glyph-name="colon" unicode="&#x3a;" horiz-adv-x="501" d="M266 259 C182 259 126 200 126 123 C126 47 182 -12 266 -12 C352 -12 407 47 407 123 C407 200 352 259 266 259 L266 259 Z M260 1073 C176 1073 120 1014 120 937 C120 861 176 802 260 802 C346 802 401 861 401 937 C401 1014 346 1073 260 1073 L260 1073 Z " />
<glyph glyph-name="semicolon" unicode="&#x3b;" horiz-adv-x="465" d="M251 1106 C167 1106 111 1047 111 970 C111 894 167 835 251 835 C337 835 392 894 392 970 C392 1047 337 1106 251 1106 L251 1106 Z M363 59 L364 235 L153 235 L153 49 C153 -81 106 -169 63 -258 L192 -333 C292 -239 363 -80 363 59 L363 59 Z " />
<glyph glyph-name="less" unicode="&#x3c;" horiz-adv-x="829" d="M712 1101 L61 731 L61 535 L712 164 L712 406 L296 630 L712 859 L712 1101 Z " />
<glyph glyph-name="equal" unicode="&#x3d;" horiz-adv-x="930" d="M804 351 L804 553 L124 553 L124 351 L804 351 Z M804 776 L804 978 L124 978 L124 776 L804 776 Z " />
<glyph glyph-name="greater" unicode="&#x3e;" horiz-adv-x="844" d="M114 1101 L114 863 L543 635 L114 404 L114 164 L775 535 L775 731 L114 1101 Z " />
<glyph glyph-name="question" unicode="&#x3f;" horiz-adv-x="824" d="M389 253 C308 253 257 195 257 121 C257 46 308 -12 389 -12 C470 -12 521 46 521 121 C521 195 470 253 389 253 L389 253 Z M279 432 L492 432 C494 533 507 609 563 677 C659 797 749 913 749 1090 C749 1333 620 1476 404 1476 C206 1476 55 1346 52 1089 L294 1089 C296 1217 352 1273 404 1273 C472 1273 507 1204 507 1080 C507 966 458 900 393 814 C306 699 279 617 279 432 L279 432 Z " />
<glyph glyph-name="at" unicode="&#x40;" horiz-adv-x="1418" d="M745 1423 C351 1423 99 1016 81 470 C62 -115 292 -453 692 -453 C786 -453 904 -424 975 -364 L945 -229 C882 -271 783 -301 695 -301 C394 -301 227 -21 243 470 C258 939 438 1274 741 1274 C1062 1274 1204 983 1190 518 C1183 296 1123 122 1031 122 C987 122 950 155 959 315 L998 882 C936 940 881 990 761 990 C584 990 436 771 408 426 C386 158 478 -20 627 -20 C701 -20 767 28 816 121 C850 31 915 -21 1000 -21 C1235 -21 1329 262 1336 523 C1353 1066 1135 1423 745 1423 L745 1423 Z M686 144 C616 144 581 244 592 426 C608 694 664 835 777 835 C795 835 811 832 826 826 L793 315 L793 313 C762 185 715 144 686 144 L686 144 Z " />
<glyph glyph-name="A" unicode="A" horiz-adv-x="1098" d="M808 0 L1075 0 L664 1456 L434 1456 L25 0 L291 0 L368 335 L731 335 L808 0 Z M415 541 L549 1123 L683 541 L415 541 Z " />
<glyph glyph-name="B" unicode="B" horiz-adv-x="1036" d="M754 755 C872 812 924 928 924 1063 C924 1334 770 1456 511 1456 L113 1456 L113 0 L540 0 C802 0 944 147 944 425 C944 574 892 711 754 755 L754 755 Z M540 204 L363 204 L363 656 L549 656 C655 656 693 567 693 426 C693 294 648 204 540 204 L540 204 Z M511 1251 C623 1251 672 1190 672 1046 C672 915 619 841 508 841 L363 841 L363 1251 L511 1251 Z " />
<glyph glyph-name="C" unicode="C" horiz-adv-x="1056" d="M991 476 L739 476 C731 259 677 184 543 184 C388 184 339 338 339 607 L339 852 C339 1132 402 1272 546 1272 C686 1272 733 1189 741 974 L992 974 C971 1295 827 1477 546 1477 C263 1477 87 1243 87 850 L87 607 C87 212 255 -20 543 -20 C818 -20 976 161 991 476 L991 476 Z " />
<glyph glyph-name="D" unicode="D" horiz-adv-x="1047" d="M456 1456 L113 1456 L113 0 L453 0 C757 0 957 221 957 618 L957 838 C957 1234 756 1456 456 1456 L456 1456 Z M706 618 C706 337 643 204 453 204 L363 204 L363 1251 L456 1251 C641 1251 706 1128 706 840 L706 618 Z " />
<glyph glyph-name="E" unicode="E" horiz-adv-x="911" d="M363 204 L363 650 L783 650 L783 851 L363 851 L363 1251 L856 1251 L856 1456 L113 1456 L113 0 L858 0 L858 204 L363 204 Z " />
<glyph glyph-name="F" unicode="F" horiz-adv-x="884" d="M832 1251 L832 1456 L113 1456 L113 0 L363 0 L363 617 L781 617 L781 822 L363 822 L363 1251 L832 1251 Z " />
<glyph glyph-name="G" unicode="G" horiz-adv-x="1085" d="M995 174 L995 748 L550 748 L550 556 L743 556 L743 259 C721 238 682 184 583 184 C423 184 344 313 344 606 L344 853 C344 1142 415 1272 560 1272 C683 1272 736 1188 751 1010 L994 1010 C972 1306 844 1477 552 1477 C269 1477 92 1269 92 851 L92 606 C92 187 280 -20 568 -20 C814 -20 940 108 995 174 L995 174 Z " />
<glyph glyph-name="H" unicode="H" horiz-adv-x="1136" d="M771 1456 L771 851 L363 851 L363 1456 L113 1456 L113 0 L363 0 L363 647 L771 647 L771 0 L1022 0 L1022 1456 L771 1456 Z " />
<glyph glyph-name="I" unicode="I" horiz-adv-x="500" d="M376 0 L376 1456 L126 1456 L126 0 L376 0 Z " />
<glyph glyph-name="J" unicode="J" horiz-adv-x="908" d="M547 1456 L547 439 C547 275 500 184 422 184 C349 184 299 250 299 419 L48 419 C48 120 206 -20 422 -20 C636 -20 798 149 798 439 L798 1456 L547 1456 Z " />
<glyph glyph-name="K" unicode="K" horiz-adv-x="1023" d="M727 0 L1024 0 L632 824 L1016 1456 L708 1456 L446 962 L363 803 L363 1456 L113 1456 L113 0 L363 0 L363 474 L467 602 L727 0 Z " />
<glyph glyph-name="L" unicode="L" horiz-adv-x="884" d="M363 204 L363 1456 L113 1456 L113 0 L832 0 L832 204 L363 204 Z " />
<glyph glyph-name="M" unicode="M" horiz-adv-x="1400" d="M1285 1456 L954 1456 L699 453 L443 1456 L113 1456 L113 0 L364 0 L364 472 L332 1064 L612 0 L785 0 L1065 1066 L1034 472 L1034 0 L1285 0 L1285 1456 Z " />
<glyph glyph-name="N" unicode="N" horiz-adv-x="1134" d="M1019 0 L1019 1456 L770 1456 L770 488 L391 1456 L113 1456 L113 0 L363 0 L363 942 L753 0 L1019 0 Z " />
<glyph glyph-name="O" unicode="O" horiz-adv-x="1114" d="M1025 608 L1025 839 C1025 1256 836 1476 556 1476 C277 1476 88 1256 88 839 L88 608 C88 195 280 -20 558 -20 C837 -20 1025 195 1025 608 L1025 608 Z M774 841 L774 608 C774 315 698 188 558 188 C417 188 339 315 339 608 L339 841 C339 1139 416 1267 556 1267 C697 1267 774 1139 774 841 L774 841 Z " />
<glyph glyph-name="P" unicode="P" horiz-adv-x="1049" d="M553 1456 L113 1456 L113 0 L363 0 L363 539 L553 539 C814 539 973 710 973 991 C973 1261 815 1456 553 1456 L553 1456 Z M553 743 L363 743 L363 1251 L553 1251 C670 1251 719 1126 719 989 C719 846 670 743 553 743 L553 743 Z " />
<glyph glyph-name="Q" unicode="Q" horiz-adv-x="1115" d="M1028 -108 L838 80 C955 183 1024 363 1024 617 L1024 839 C1024 1258 834 1476 555 1476 C276 1476 87 1258 87 839 L87 617 C87 199 278 -20 557 -20 C582 -20 607 -18 631 -15 L870 -256 L1028 -108 Z M338 617 L338 841 C338 1139 415 1267 555 1267 C696 1267 773 1139 773 841 L773 617 C773 318 697 188 557 188 C415 188 338 318 338 617 L338 617 Z " />
<glyph glyph-name="R" unicode="R" horiz-adv-x="1052" d="M936 244 L936 358 C936 524 892 653 754 707 C874 770 948 874 948 1034 C948 1307 814 1456 561 1456 L116 1456 L116 0 L367 0 L367 595 L540 595 C638 595 686 506 686 356 L686 246 C686 199 686 52 734 0 L992 0 L992 28 C946 76 936 179 936 244 L936 244 Z M538 800 L367 800 L367 1251 L547 1251 C653 1251 697 1159 697 1021 C697 879 643 800 538 800 L538 800 Z " />
<glyph glyph-name="S" unicode="S" horiz-adv-x="997" d="M473 624 C643 546 671 494 671 377 C671 261 628 182 522 182 C395 182 324 257 324 444 L84 444 C84 130 256 -20 522 -20 C793 -20 923 129 923 382 C923 611 800 749 559 852 C427 903 355 967 355 1075 C355 1187 406 1273 512 1273 C625 1273 673 1172 673 1032 L911 1032 C911 1279 807 1476 516 1476 C256 1476 106 1311 106 1074 C106 834 275 708 473 624 L473 624 Z " />
<glyph glyph-name="T" unicode="T" horiz-adv-x="1002" d="M951 1456 L51 1456 L51 1251 L373 1251 L373 0 L624 0 L624 1251 L951 1251 L951 1456 Z " />
<glyph glyph-name="U" unicode="U" horiz-adv-x="1059" d="M957 1456 L705 1456 L705 450 C705 242 644 184 530 184 C417 184 354 242 354 450 L354 1456 L102 1456 L102 450 C102 116 280 -20 530 -20 C777 -20 957 116 957 450 L957 1456 Z " />
<glyph glyph-name="V" unicode="V" horiz-adv-x="1064" d="M761 1456 L531 339 L303 1456 L24 1456 L401 0 L662 0 L1041 1456 L761 1456 Z " />
<glyph glyph-name="W" unicode="W" horiz-adv-x="1389" d="M1097 1456 L969 468 L807 1456 L584 1456 L427 478 L295 1456 L46 1456 L282 0 L541 0 L695 930 L851 0 L1110 0 L1345 1456 L1097 1456 Z " />
<glyph glyph-name="X" unicode="X" horiz-adv-x="1034" d="M518 922 L332 1456 L44 1456 L356 734 L36 0 L328 0 L518 544 L708 0 L999 0 L680 734 L992 1456 L704 1456 L518 922 Z " />
<glyph glyph-name="Y" unicode="Y" horiz-adv-x="1003" d="M502 761 L294 1456 L20 1456 L375 535 L375 0 L628 0 L628 535 L982 1456 L708 1456 L502 761 Z " />
<glyph glyph-name="Z" unicode="Z" horiz-adv-x="983" d="M354 204 L908 1300 L908 1456 L72 1456 L72 1251 L634 1251 L75 161 L75 0 L919 0 L919 204 L354 204 Z " />
<glyph glyph-name="bracketleft" unicode="&#x5b;" horiz-adv-x="486" d="M447 1491 L447 1681 L107 1681 L107 -328 L447 -328 L447 -136 L349 -136 L349 1491 L447 1491 Z " />
<glyph glyph-name="backslash" unicode="&#x5c;" horiz-adv-x="705" d="M17 1456 L475 -125 L721 -125 L264 1456 L17 1456 Z " />
<glyph glyph-name="bracketright" unicode="&#x5d;" horiz-adv-x="486" d="M34 1681 L34 1491 L134 1491 L134 -136 L34 -136 L34 -328 L375 -328 L375 1681 L34 1681 Z " />
<glyph glyph-name="asciicircum" unicode="&#x5e;" horiz-adv-x="724" d="M676 729 L450 1456 L277 1456 L51 729 L242 729 L364 1202 L486 729 L676 729 Z " />
<glyph glyph-name="underscore" unicode="&#x5f;" horiz-adv-x="741" d="M717 -194 L717 0 L23 0 L23 -194 L717 -194 Z " />
<glyph glyph-name="grave" unicode="&#x60;" horiz-adv-x="602" d="M489 1234 L318 1536 L47 1536 L286 1234 L489 1234 Z " />
<glyph glyph-name="a" unicode="a" horiz-adv-x="874" d="M775 252 L775 753 C775 1001 632 1102 446 1102 C224 1102 89 943 89 768 L331 768 C331 851 366 914 433 914 C500 914 533 871 533 757 L533 659 L450 659 C194 659 72 511 72 305 C72 99 190 -20 345 -20 C432 -20 497 19 543 88 C549 54 556 23 566 0 L809 0 L809 17 C788 74 775 151 775 252 L775 252 Z M402 175 C340 175 313 217 313 319 C313 433 355 508 459 508 L533 508 L533 268 C512 219 463 175 402 175 L402 175 Z " />
<glyph glyph-name="b" unicode="b" horiz-adv-x="918" d="M538 1102 C453 1102 389 1063 342 994 L342 1536 L101 1536 L101 0 L323 0 L331 104 C380 25 447 -20 540 -20 C751 -20 851 157 851 502 L851 581 C851 928 752 1102 538 1102 L538 1102 Z M609 502 C609 279 585 181 469 181 C404 181 365 218 342 277 L342 803 C365 864 405 903 467 903 C584 903 609 794 609 581 L609 502 Z " />
<glyph glyph-name="c" unicode="c" horiz-adv-x="853" d="M568 361 C568 231 522 178 448 178 C328 178 310 297 310 495 L310 587 C310 782 329 905 445 905 C531 905 567 830 568 693 L795 693 C794 955 658 1102 450 1102 C193 1102 68 909 68 587 L68 495 C68 174 193 -20 453 -20 C644 -20 794 129 795 361 L568 361 Z " />
<glyph glyph-name="d" unicode="d" horiz-adv-x="918" d="M573 1536 L573 995 C525 1064 463 1102 382 1102 C176 1102 65 932 65 579 L65 500 C65 162 177 -20 380 -20 C469 -20 536 27 586 107 L597 -1 L816 0 L816 1536 L573 1536 Z M450 180 C342 180 308 283 308 500 L308 579 C308 798 344 903 450 903 C507 903 548 866 573 806 L573 272 C549 216 509 180 450 180 L450 180 Z " />
<glyph glyph-name="e" unicode="e" horiz-adv-x="885" d="M828 585 C828 927 701 1102 458 1102 C219 1102 76 936 76 574 L76 475 C76 145 227 -20 482 -20 C656 -20 760 65 812 145 L713 288 C662 220 589 177 505 177 C384 177 319 260 317 468 L828 468 L828 585 Z M589 644 L318 644 C326 828 366 907 460 907 C553 907 588 822 589 668 L589 644 Z " />
<glyph glyph-name="f" unicode="f" horiz-adv-x="607" d="M519 1357 C543 1357 565 1354 582 1348 L584 1539 C548 1550 511 1557 470 1557 C279 1557 159 1426 159 1186 L159 1082 L41 1082 L41 902 L159 902 L159 0 L401 0 L401 902 L557 902 L557 1082 L401 1082 L401 1186 C401 1296 443 1357 519 1357 L519 1357 Z " />
<glyph glyph-name="g" unicode="g" horiz-adv-x="861" d="M524 214 L387 214 C332 214 293 229 293 291 C293 323 302 348 315 366 C346 358 379 354 414 354 C635 354 776 517 776 717 L776 739 C776 812 759 878 728 933 L825 933 L824 1082 L545 1082 C505 1095 461 1102 413 1102 C193 1102 50 952 50 739 L50 717 C50 587 110 473 213 409 C163 368 118 309 118 217 C118 166 132 126 157 96 C78 50 8 -35 8 -162 C8 -309 146 -438 395 -438 C665 -438 819 -246 819 -85 C819 112 714 214 524 214 L524 214 Z M292 739 C292 835 336 914 413 914 C490 914 536 835 536 739 L536 717 C536 627 492 543 414 543 C336 543 292 627 292 717 L292 739 Z M395 -251 C288 -251 236 -185 236 -106 C236 -44 253 6 275 31 C296 27 318 25 341 25 L489 25 C562 25 580 -25 580 -93 C580 -165 526 -251 395 -251 L395 -251 Z " />
<glyph glyph-name="h" unicode="h" horiz-adv-x="910" d="M549 1102 C461 1102 388 1058 335 982 L335 1536 L94 1536 L94 0 L335 0 L335 811 C360 868 398 903 454 903 C531 903 572 848 572 696 L572 0 L813 0 L813 694 C813 990 701 1102 549 1102 L549 1102 Z " />
<glyph glyph-name="i" unicode="i" horiz-adv-x="465" d="M354 0 L354 1082 L111 1082 L111 0 L354 0 Z M231 1497 C151 1497 99 1441 99 1367 C99 1292 151 1237 231 1237 C313 1237 364 1292 364 1367 C364 1441 313 1497 231 1497 L231 1497 Z " />
<glyph glyph-name="j" unicode="j" horiz-adv-x="454" d="M354 1082 L111 1082 L111 -90 C111 -193 82 -236 23 -236 C1 -236 -21 -233 -46 -226 L-46 -420 C-8 -432 30 -437 68 -437 C249 -437 354 -314 354 -90 L354 1082 Z M228 1497 C146 1497 95 1441 95 1367 C95 1292 146 1237 228 1237 C309 1237 360 1292 360 1367 C360 1441 309 1497 228 1497 L228 1497 Z " />
<glyph glyph-name="k" unicode="k" horiz-adv-x="882" d="M601 0 L879 0 L561 642 L852 1082 L582 1082 L372 700 L341 658 L341 1537 L100 1537 L100 0 L341 0 L341 410 L398 463 L601 0 Z " />
<glyph glyph-name="l" unicode="l" horiz-adv-x="538" d="M352 1536 L109 1536 L109 287 C109 63 205 -20 353 -20 C409 -20 451 -9 489 4 L492 193 C478 188 456 183 429 183 C375 183 352 203 352 304 L352 1536 Z " />
<glyph glyph-name="m" unicode="m" horiz-adv-x="1374" d="M1010 1102 C903 1102 823 1045 771 955 C728 1057 652 1102 558 1102 C463 1102 387 1056 334 978 L327 1082 L101 1082 L101 0 L342 0 L342 807 C366 866 405 903 458 903 C526 903 565 851 565 698 L565 0 L808 0 L808 722 C808 747 807 770 806 792 C827 859 866 902 922 903 C990 903 1031 860 1031 700 L1031 0 L1272 0 L1272 699 C1272 989 1170 1102 1010 1102 L1010 1102 Z " />
<glyph glyph-name="n" unicode="n" horiz-adv-x="912" d="M558 1102 C463 1102 385 1054 329 969 L322 1082 L95 1082 L95 0 L336 0 L336 801 C362 863 402 903 457 903 C532 903 573 848 573 699 L573 0 L814 0 L814 698 C814 994 709 1102 558 1102 L558 1102 Z " />
<glyph glyph-name="o" unicode="o" horiz-adv-x="922" d="M70 581 L70 501 C70 165 221 -20 462 -20 C701 -20 852 165 852 501 L852 581 C852 917 701 1102 460 1102 C221 1102 70 917 70 581 L70 581 Z M311 501 L311 581 C311 793 366 905 460 905 C557 905 610 793 610 581 L610 501 C610 285 560 178 462 178 C365 178 311 285 311 501 L311 501 Z " />
<glyph glyph-name="p" unicode="p" horiz-adv-x="917" d="M536 1102 C447 1102 381 1059 333 983 L324 1082 L101 1082 L101 -416 L342 -416 L342 85 C390 19 453 -20 538 -20 C744 -20 850 163 850 502 L850 581 C850 934 745 1102 536 1102 L536 1102 Z M609 502 C609 286 572 178 466 178 C403 178 365 212 342 265 L342 811 C366 868 405 903 465 903 C570 903 609 801 609 581 L609 502 Z " />
<glyph glyph-name="q" unicode="q" horiz-adv-x="920" d="M603 1082 L588 978 C540 1057 474 1102 383 1102 C174 1102 65 933 65 580 L65 501 C65 162 175 -20 382 -20 C464 -20 526 17 573 83 L573 -416 L815 -416 L815 1082 L603 1082 Z M450 178 C343 178 308 285 308 501 L308 580 C308 799 346 905 451 905 C509 905 549 872 573 818 L573 262 C549 210 510 178 450 178 L450 178 Z " />
<glyph glyph-name="r" unicode="r" horiz-adv-x="613" d="M505 1102 C432 1102 375 1050 336 964 L329 1082 L100 1082 L100 0 L342 0 L342 743 C366 814 414 851 490 851 C514 851 549 849 572 843 L574 1089 C559 1096 528 1102 505 1102 L505 1102 Z " />
<glyph glyph-name="s" unicode="s" horiz-adv-x="841" d="M363 450 C478 395 534 364 534 280 C534 208 491 162 415 162 C342 162 279 205 276 331 L59 331 C59 153 156 -20 424 -20 C655 -20 769 107 769 300 C769 502 655 560 486 641 C365 697 317 718 317 801 C317 865 350 921 426 921 C505 921 537 852 537 767 L766 767 C766 961 657 1102 421 1102 C183 1102 86 960 86 784 C86 598 191 533 363 450 L363 450 Z " />
<glyph glyph-name="t" unicode="t" horiz-adv-x="571" d="M461 183 C407 183 384 203 384 304 L384 902 L517 902 L517 1082 L384 1082 L384 1347 L142 1347 L142 1082 L27 1082 L27 902 L142 902 L142 287 C142 63 237 -20 385 -20 C442 -20 484 -9 522 4 L524 193 C510 188 488 183 461 183 L461 183 Z " />
<glyph glyph-name="u" unicode="u" horiz-adv-x="912" d="M572 1082 L572 284 C547 220 505 180 436 180 C378 180 336 229 336 381 L336 1082 L95 1082 L95 383 C95 96 205 -20 365 -20 C459 -20 531 25 581 101 L587 0 L815 0 L815 1082 L572 1082 Z " />
<glyph glyph-name="v" unicode="v" horiz-adv-x="831" d="M546 1082 L413 307 L281 1082 L29 1082 L299 0 L529 0 L798 1082 L546 1082 Z " />
<glyph glyph-name="w" unicode="w" horiz-adv-x="1175" d="M903 1082 L810 342 L673 1082 L499 1082 L361 350 L270 1082 L38 1082 L242 0 L443 0 L587 705 L730 0 L930 0 L1134 1082 L903 1082 Z " />
<glyph glyph-name="x" unicode="x" horiz-adv-x="836" d="M420 700 L303 1082 L44 1082 L269 551 L34 0 L293 0 L420 401 L548 0 L806 0 L572 551 L798 1082 L541 1082 L420 700 Z " />
<glyph glyph-name="y" unicode="y" horiz-adv-x="825" d="M544 1082 L413 314 L281 1082 L21 1082 L306 -19 L290 -49 C270 -182 227 -234 144 -234 C134 -234 123 -232 113 -232 L113 -420 C150 -429 170 -437 214 -437 C390 -437 453 -273 482 -165 L804 1082 L544 1082 Z " />
<glyph glyph-name="z" unicode="z" horiz-adv-x="837" d="M347 198 L752 930 L752 1082 L87 1082 L87 885 L481 885 L77 158 L77 0 L760 0 L760 198 L347 198 Z " />
<glyph glyph-name="braceleft" unicode="&#x7b;" horiz-adv-x="556" d="M400 102 L400 307 C400 440 356 554 257 617 C356 680 400 794 400 927 L400 1132 C400 1285 421 1410 506 1457 L459 1597 C248 1520 183 1342 183 1132 L183 927 C183 793 146 707 56 707 L56 527 C146 527 183 441 183 307 L183 102 C183 -108 248 -287 459 -364 L504 -223 C420 -176 400 -51 400 102 L400 102 Z " />
<glyph glyph-name="bar" unicode="&#x7c;" horiz-adv-x="465" d="M309 -270 L309 1456 L158 1456 L158 -270 L309 -270 Z " />
<glyph glyph-name="braceright" unicode="&#x7d;" horiz-adv-x="556" d="M373 927 L373 1132 C373 1342 308 1520 97 1597 L51 1457 C134 1410 157 1285 157 1132 L157 927 C157 791 203 677 307 617 C203 557 157 443 157 307 L157 102 C157 -51 136 -176 51 -223 L97 -364 C308 -287 373 -108 373 102 L373 307 C373 441 410 527 500 527 L500 707 C410 707 373 793 373 927 L373 927 Z " />
<glyph glyph-name="asciitilde" unicode="&#x7e;" horiz-adv-x="1038" d="M941 788 L764 788 C764 674 724 592 671 592 C634 592 601 621 561 681 C500 771 432 817 353 817 C205 817 96 660 96 425 L275 425 C275 537 311 613 365 613 C403 613 436 581 476 525 C543 430 603 388 684 388 C831 388 941 555 941 788 L941 788 Z " />
<glyph glyph-name="uni00A0" unicode="&#xa0;" horiz-adv-x="431" />
<glyph glyph-name="exclamdown" unicode="&#xa1;" horiz-adv-x="497" d="M150 659 L121 -366 L379 -366 L350 659 L150 659 Z M251 838 C332 838 383 896 383 971 C383 1044 332 1102 251 1102 C170 1102 118 1044 118 971 C118 896 170 838 251 838 L251 838 Z " />
<glyph glyph-name="cent" unicode="&#xa2;" horiz-adv-x="1060" d="M480 178 C360 178 342 297 342 495 L342 587 C342 782 361 905 477 905 C563 905 599 830 600 693 L827 693 C826 922 723 1063 558 1095 L558 1318 L392 1318 L392 1093 C196 1052 100 869 100 587 L100 495 C100 215 195 32 392 -11 L392 -245 L558 -245 L558 -12 C713 21 826 160 827 361 L600 361 C600 231 554 178 480 178 L480 178 Z " />
<glyph glyph-name="sterling" unicode="&#xa3;" horiz-adv-x="969" d="M411 204 C455 261 472 335 469 422 L464 597 L687 597 L687 798 L459 798 L453 1039 C453 1191 497 1272 553 1272 C612 1272 665 1218 665 1071 L904 1071 C904 1313 778 1476 553 1476 C345 1476 201 1315 206 1039 L210 798 L97 798 L97 597 L213 597 L216 412 C218 329 211 221 166 204 L99 204 L99 0 L908 0 L908 204 L411 204 Z " />
<glyph glyph-name="currency" unicode="&#xa4;" horiz-adv-x="1251" d="M1146 608 C1146 746 1111 871 1051 973 L1181 1125 L1059 1265 L933 1117 C847 1191 742 1234 628 1234 C515 1234 410 1192 325 1118 L200 1264 L79 1125 L206 976 C145 874 109 748 109 608 C109 475 142 353 199 252 L79 113 L200 -26 L313 107 C401 27 510 -20 628 -20 C747 -20 857 27 944 108 L1059 -27 L1181 113 L1059 256 C1114 355 1146 476 1146 608 L1146 608 Z M628 161 C429 161 269 359 269 608 C269 858 429 1054 628 1054 C825 1054 986 858 986 608 C986 359 825 161 628 161 L628 161 Z " />
<glyph glyph-name="yen" unicode="&#xa5;" horiz-adv-x="877" d="M850 1456 L590 1456 L440 925 L290 1456 L28 1456 L274 739 L89 739 L89 587 L311 587 L311 449 L89 449 L89 298 L311 298 L311 0 L561 0 L561 298 L767 298 L767 449 L561 449 L561 587 L767 587 L767 739 L605 739 L850 1456 Z " />
<glyph glyph-name="brokenbar" unicode="&#xa6;" horiz-adv-x="463" d="M120 -270 L343 -270 L343 523 L120 523 L120 -270 Z M343 698 L343 1456 L120 1456 L120 698 L343 698 Z " />
<glyph glyph-name="section" unicode="&#xa7;" horiz-adv-x="1019" d="M790 194 C873 250 920 339 920 460 C920 704 790 802 560 887 C388 947 350 992 350 1105 C350 1200 396 1280 506 1280 C611 1280 662 1177 662 1049 L904 1049 C904 1325 752 1477 506 1477 C265 1477 107 1329 107 1103 C107 966 147 877 220 809 C137 752 90 660 90 542 C90 297 223 198 447 115 C614 52 660 0 660 -103 C660 -203 607 -274 506 -274 C420 -274 330 -223 330 -47 L89 -48 C89 -370 298 -470 506 -470 C745 -470 902 -337 902 -100 C902 37 863 127 790 194 L790 194 Z M331 559 C331 623 346 676 378 708 C407 694 439 681 472 668 C636 608 682 549 682 443 C682 380 663 327 629 294 C600 307 569 319 536 332 C365 394 331 442 331 559 L331 559 Z " />
<glyph glyph-name="dieresis" unicode="&#xa8;" horiz-adv-x="845" d="M203 1487 C133 1487 83 1435 83 1369 C83 1303 133 1252 203 1252 C272 1252 322 1303 322 1369 C322 1435 272 1487 203 1487 L203 1487 Z M625 1485 C556 1485 506 1434 506 1367 C506 1302 556 1251 625 1251 C695 1251 744 1302 744 1367 C744 1434 695 1485 625 1485 L625 1485 Z " />
<glyph glyph-name="copyright" unicode="&#xa9;" horiz-adv-x="1414" d="M980 597 L846 597 C846 465 793 415 688 415 C577 415 519 519 519 670 L519 788 C519 937 577 1043 688 1043 C793 1043 846 991 846 861 L981 861 C981 1070 868 1174 688 1174 C502 1174 386 1016 386 787 L386 670 C386 440 502 283 688 283 C868 283 980 387 980 597 L980 597 Z M701 1476 C360 1476 83 1152 83 729 C83 306 360 -21 701 -21 C1041 -21 1319 306 1319 729 C1319 1152 1041 1476 701 1476 L701 1476 Z M701 101 C418 101 189 374 189 729 C189 1084 418 1354 701 1354 C984 1354 1212 1084 1212 729 C1212 374 984 101 701 101 L701 101 Z " />
<glyph glyph-name="guillemotleft" unicode="&#xab;" horiz-adv-x="827" d="M442 934 L290 934 L80 545 L80 526 L290 136 L442 136 L266 535 L442 934 Z M776 936 L624 936 L414 547 L414 528 L624 138 L776 138 L600 537 L776 936 Z " />
<glyph glyph-name="logicalnot" unicode="&#xac;" horiz-adv-x="899" d="M118 803 L118 637 L585 637 L585 375 L753 375 L753 803 L118 803 Z " />
<glyph glyph-name="uni00AD" unicode="&#xad;" horiz-adv-x="660" d="M549 524 L549 722 L116 722 L116 524 L549 524 Z " />
<glyph glyph-name="registered" unicode="&#xae;" horiz-adv-x="1415" d="M701 1476 C360 1476 84 1152 84 729 C84 306 360 -21 701 -21 C1042 -21 1319 306 1319 729 C1319 1152 1042 1476 701 1476 L701 1476 Z M969 515 C969 604 946 678 881 720 C940 760 972 832 972 906 C972 1078 863 1166 689 1166 L446 1166 L446 316 L575 316 L575 654 L714 654 C805 654 839 609 839 514 L839 460 C839 431 839 350 851 316 L984 316 L984 332 C973 362 969 409 969 459 L969 515 Z M701 101 C418 101 189 374 189 729 C189 1084 418 1354 701 1354 C984 1354 1212 1084 1212 729 C1212 374 984 101 701 101 L701 101 Z M695 785 L575 785 L575 1036 L689 1036 C803 1036 842 1002 842 904 C842 825 774 786 695 785 L695 785 Z " />
<glyph glyph-name="macron" unicode="&#xaf;" horiz-adv-x="839" d="M685 1296 L685 1451 L152 1451 L152 1296 L685 1296 Z " />
<glyph glyph-name="degree" unicode="&#xb0;" d="M355 1477 C226 1477 119 1355 119 1208 C119 1060 226 943 355 943 C482 943 587 1060 587 1208 C587 1355 482 1477 355 1477 L355 1477 Z M355 1081 C295 1081 245 1135 245 1208 C245 1282 295 1339 355 1339 C414 1339 461 1282 461 1208 C461 1135 414 1081 355 1081 L355 1081 Z " />
<glyph glyph-name="plusminus" unicode="&#xb1;" horiz-adv-x="877" d="M115 1 L769 1 L769 200 L115 200 L115 1 Z M544 905 L544 1278 L333 1278 L333 905 L91 905 L91 703 L333 703 L333 317 L544 317 L544 703 L782 703 L782 905 L544 905 Z " />
<glyph glyph-name="uni00B2" unicode="&#xb2;" horiz-adv-x="623" d="M556 667 L556 815 L304 815 L385 921 C474 1047 541 1113 541 1225 C541 1377 454 1468 301 1468 C158 1468 67 1346 67 1199 L238 1199 C238 1266 261 1319 309 1319 C350 1319 372 1281 372 1224 C372 1187 351 1127 294 1057 L82 791 L81 667 L556 667 Z " />
<glyph glyph-name="uni00B3" unicode="&#xb3;" horiz-adv-x="623" d="M439 1072 C504 1104 547 1165 547 1242 C547 1389 446 1468 302 1468 C181 1468 71 1387 71 1244 L242 1244 C242 1291 271 1319 306 1319 C360 1319 377 1278 377 1231 C377 1173 354 1133 304 1133 L235 1133 L235 1006 L304 1006 C357 1006 387 978 387 903 C387 847 365 804 311 804 C263 804 234 847 234 897 L62 897 C62 725 188 656 301 656 C446 656 557 741 557 888 C557 986 512 1045 439 1072 L439 1072 Z " />
<glyph glyph-name="acute" unicode="&#xb4;" horiz-adv-x="604" d="M268 1536 L96 1234 L297 1234 L537 1536 L268 1536 Z " />
<glyph glyph-name="uni00B5" unicode="&#xb5;" horiz-adv-x="1009" d="M626 1082 L626 281 C600 216 557 178 489 178 C412 178 366 226 366 461 L366 1082 L125 1082 L125 -416 L366 -416 L366 15 C399 -10 437 -21 483 -21 C546 -21 599 7 640 57 L644 0 L868 0 L868 1082 L626 1082 Z " />
<glyph glyph-name="paragraph" unicode="&#xb6;" horiz-adv-x="807" d="M505 0 L688 0 L688 1456 L447 1456 C207 1456 77 1256 77 988 C77 718 207 520 447 520 L505 520 L505 0 Z " />
<glyph glyph-name="periodcentered" unicode="&#xb7;" horiz-adv-x="523" d="M258 847 C176 847 124 787 124 711 C124 635 176 577 258 577 C340 577 392 635 392 711 C392 787 340 847 258 847 L258 847 Z " />
<glyph glyph-name="cedilla" unicode="&#xb8;" horiz-adv-x="464" d="M297 5 L117 5 L92 -135 C167 -144 196 -161 196 -221 C196 -285 169 -311 123 -311 L128 -451 C307 -451 397 -360 397 -225 C397 -110 342 -65 288 -52 L297 5 Z " />
<glyph glyph-name="uni00B9" unicode="&#xb9;" horiz-adv-x="623" d="M437 667 L437 1455 L422 1455 L131 1337 L131 1192 L267 1240 L267 667 L437 667 Z " />
<glyph glyph-name="guillemotright" unicode="&#xbb;" horiz-adv-x="827" d="M452 526 L452 545 L241 935 L89 935 L265 536 L89 137 L241 137 L452 526 Z M588 935 L436 935 L612 536 L436 137 L588 137 L799 526 L799 545 L588 935 Z " />
<glyph glyph-name="onequarter" unicode="&#xbc;" horiz-adv-x="1292" d="M1079 315 L1019 315 L1019 789 L849 789 L586 285 L596 164 L849 164 L849 0 L1019 0 L1019 164 L1079 164 L1079 315 Z M826 1327 L290 189 L405 118 L942 1256 L826 1327 Z M405 664 L405 1452 L390 1452 L99 1334 L99 1189 L235 1237 L235 664 L405 664 Z M746 315 L841 536 L849 550 L849 315 L746 315 Z " />
<glyph glyph-name="onehalf" unicode="&#xbd;" horiz-adv-x="1375" d="M899 148 L980 254 C1069 380 1136 446 1136 558 C1136 710 1049 801 896 801 C753 801 662 679 662 532 L833 532 C833 599 856 652 904 652 C945 652 967 614 967 557 C967 520 946 460 889 390 L677 124 L676 0 L1151 0 L1151 148 L899 148 Z M578 1319 L379 896 L379 1458 L364 1458 L73 1340 L73 1195 L209 1243 L209 670 L272 670 L42 181 L157 110 L694 1248 L578 1319 Z " />
<glyph glyph-name="threequarters" unicode="&#xbe;" horiz-adv-x="1468" d="M1281 315 L1221 315 L1221 789 L1051 789 L788 285 L798 164 L1051 164 L1051 0 L1221 0 L1221 164 L1281 164 L1281 315 Z M578 1319 L574 1311 C547 1414 457 1468 338 1468 C217 1468 107 1387 107 1244 L278 1244 C278 1291 307 1319 342 1319 C396 1319 413 1278 413 1231 C413 1173 390 1133 340 1133 L271 1133 L271 1006 L340 1006 C374 1006 399 994 412 966 L336 805 C295 811 270 851 270 897 L98 897 C98 759 179 687 270 664 L42 181 L157 110 L419 666 C522 693 593 770 593 888 C593 928 585 961 572 989 L694 1248 L578 1319 Z M948 315 L1043 536 L1051 550 L1051 315 L948 315 Z " />
<glyph glyph-name="questiondown" unicode="&#xbf;" horiz-adv-x="823" d="M540 659 L326 659 C323 558 313 489 259 420 C163 300 71 180 71 1 C71 -246 201 -386 419 -386 C616 -386 769 -253 770 5 L529 5 C528 -124 471 -182 414 -182 C353 -182 313 -120 313 4 C313 127 360 193 426 281 C512 397 540 475 540 659 L540 659 Z M435 839 C516 839 568 897 568 972 C568 1045 516 1103 435 1103 C354 1103 303 1045 303 972 C303 897 354 839 435 839 L435 839 Z " />
<glyph glyph-name="Agrave" unicode="&#xc0;" horiz-adv-x="1098" d="M808 0 L1075 0 L664 1456 L434 1456 L25 0 L291 0 L368 335 L731 335 L808 0 Z M667 1544 L496 1846 L225 1846 L464 1544 L667 1544 Z M415 541 L549 1123 L683 541 L415 541 Z " />
<glyph glyph-name="Aacute" unicode="&#xc1;" horiz-adv-x="1098" d="M808 0 L1075 0 L664 1456 L434 1456 L25 0 L291 0 L368 335 L731 335 L808 0 Z M873 1846 L604 1846 L432 1544 L633 1544 L873 1846 Z M415 541 L549 1123 L683 541 L415 541 Z " />
<glyph glyph-name="Acircumflex" unicode="&#xc2;" horiz-adv-x="1098" d="M808 0 L1075 0 L664 1456 L434 1456 L25 0 L291 0 L368 335 L731 335 L808 0 Z M551 1714 L664 1558 L853 1558 L853 1570 L620 1846 L481 1846 L252 1573 L252 1558 L438 1558 L551 1714 Z M415 541 L549 1123 L683 541 L415 541 Z " />
<glyph glyph-name="Atilde" unicode="&#xc3;" horiz-adv-x="1098" d="M808 0 L1075 0 L664 1456 L434 1456 L25 0 L291 0 L368 335 L731 335 L808 0 Z M458 1660 C536 1660 568 1569 664 1569 C766 1569 840 1678 840 1824 L703 1836 C703 1773 676 1732 643 1732 C567 1732 514 1822 436 1822 C334 1822 261 1709 261 1564 L399 1557 C399 1619 425 1660 458 1660 L458 1660 Z M415 541 L549 1123 L683 541 L415 541 Z " />
<glyph glyph-name="Adieresis" unicode="&#xc4;" horiz-adv-x="1098" d="M808 0 L1075 0 L664 1456 L434 1456 L25 0 L291 0 L368 335 L731 335 L808 0 Z M333 1562 C402 1562 452 1613 452 1679 C452 1745 402 1797 333 1797 C263 1797 213 1745 213 1679 C213 1613 263 1562 333 1562 L333 1562 Z M755 1561 C825 1561 874 1612 874 1677 C874 1744 825 1795 755 1795 C686 1795 636 1744 636 1677 C636 1612 686 1561 755 1561 L755 1561 Z M415 541 L549 1123 L683 541 L415 541 Z " />
<glyph glyph-name="Aring" unicode="&#xc5;" horiz-adv-x="1098" d="M808 0 L1075 0 L664 1456 L434 1456 L25 0 L291 0 L368 335 L731 335 L808 0 Z M554 1527 C664 1527 745 1616 745 1730 C745 1842 664 1935 554 1935 C442 1935 361 1842 361 1730 C361 1616 442 1527 554 1527 L554 1527 Z M415 541 L549 1123 L683 541 L415 541 Z M554 1842 C610 1842 646 1790 646 1730 C646 1669 610 1618 554 1618 C497 1618 461 1671 461 1730 C461 1790 497 1842 554 1842 L554 1842 Z " />
<glyph glyph-name="AE" unicode="&#xc6;" horiz-adv-x="1507" d="M984 199 L969 653 L1332 653 L1332 851 L963 851 L950 1258 L1393 1258 L1393 1456 L603 1456 L19 0 L303 0 L427 343 L737 343 L748 0 L1439 0 L1439 199 L984 199 Z M505 558 L712 1130 L730 558 L505 558 Z " />
<glyph glyph-name="Ccedilla" unicode="&#xc7;" horiz-adv-x="1056" d="M543 184 C388 184 339 338 339 607 L339 852 C339 1132 402 1272 546 1272 C686 1272 733 1189 741 974 L992 974 C971 1295 827 1477 546 1477 C263 1477 87 1243 87 850 L87 607 C87 256 220 34 451 -11 L428 -140 C503 -149 532 -166 532 -226 C532 -290 505 -316 459 -316 L464 -456 C643 -456 733 -365 733 -230 C733 -115 678 -70 624 -57 L631 -13 C852 22 978 196 991 476 L739 476 C731 259 677 184 543 184 L543 184 Z " />
<glyph glyph-name="Egrave" unicode="&#xc8;" horiz-adv-x="911" d="M363 204 L363 650 L783 650 L783 851 L363 851 L363 1251 L856 1251 L856 1456 L113 1456 L113 0 L858 0 L858 204 L363 204 Z M617 1551 L446 1853 L175 1853 L414 1551 L617 1551 Z " />
<glyph glyph-name="Eacute" unicode="&#xc9;" horiz-adv-x="911" d="M363 204 L363 650 L783 650 L783 851 L363 851 L363 1251 L856 1251 L856 1456 L113 1456 L113 0 L858 0 L858 204 L363 204 Z M823 1853 L554 1853 L382 1551 L583 1551 L823 1853 Z " />
<glyph glyph-name="Ecircumflex" unicode="&#xca;" horiz-adv-x="911" d="M363 204 L363 650 L783 650 L783 851 L363 851 L363 1251 L856 1251 L856 1456 L113 1456 L113 0 L858 0 L858 204 L363 204 Z M501 1721 L614 1565 L803 1565 L803 1577 L570 1853 L431 1853 L202 1580 L202 1565 L388 1565 L501 1721 Z " />
<glyph glyph-name="Edieresis" unicode="&#xcb;" horiz-adv-x="911" d="M363 204 L363 650 L783 650 L783 851 L363 851 L363 1251 L856 1251 L856 1456 L113 1456 L113 0 L858 0 L858 204 L363 204 Z M283 1569 C352 1569 402 1620 402 1686 C402 1752 352 1804 283 1804 C213 1804 163 1752 163 1686 C163 1620 213 1569 283 1569 L283 1569 Z M705 1568 C775 1568 824 1619 824 1684 C824 1751 775 1802 705 1802 C636 1802 586 1751 586 1684 C586 1619 636 1568 705 1568 L705 1568 Z " />
<glyph glyph-name="Igrave" unicode="&#xcc;" horiz-adv-x="500" d="M376 0 L376 1456 L126 1456 L126 0 L376 0 Z M366 1551 L195 1853 L-76 1853 L163 1551 L366 1551 Z " />
<glyph glyph-name="Iacute" unicode="&#xcd;" horiz-adv-x="500" d="M376 0 L376 1456 L126 1456 L126 0 L376 0 Z M303 1853 L131 1551 L332 1551 L572 1853 L303 1853 Z " />
<glyph glyph-name="Icircumflex" unicode="&#xce;" horiz-adv-x="500" d="M376 0 L376 1456 L126 1456 L126 0 L376 0 Z M552 1577 L319 1853 L180 1853 L-49 1580 L-49 1565 L137 1565 L250 1721 L363 1565 L552 1565 L552 1577 Z " />
<glyph glyph-name="Idieresis" unicode="&#xcf;" horiz-adv-x="500" d="M376 0 L376 1456 L126 1456 L126 0 L376 0 Z M32 1804 C-38 1804 -88 1752 -88 1686 C-88 1620 -38 1569 32 1569 C101 1569 151 1620 151 1686 C151 1752 101 1804 32 1804 L32 1804 Z M454 1802 C385 1802 335 1751 335 1684 C335 1619 385 1568 454 1568 C524 1568 573 1619 573 1684 C573 1751 524 1802 454 1802 L454 1802 Z " />
<glyph glyph-name="Eth" unicode="&#xd0;" horiz-adv-x="1047" d="M456 1456 L113 1456 L113 821 L-1 821 L-1 652 L113 652 L113 0 L453 0 C757 0 957 221 957 618 L957 838 C957 1234 756 1456 456 1456 L456 1456 Z M706 618 C706 337 643 204 453 204 L363 204 L363 652 L537 652 L537 821 L363 821 L363 1251 L456 1251 C641 1251 706 1128 706 840 L706 618 Z " />
<glyph glyph-name="Ntilde" unicode="&#xd1;" horiz-adv-x="1134" d="M1019 0 L1019 1456 L770 1456 L770 488 L391 1456 L113 1456 L113 0 L363 0 L363 942 L753 0 L1019 0 Z M858 1824 L721 1836 C721 1773 694 1732 661 1732 C585 1732 532 1822 454 1822 C352 1822 279 1709 279 1564 L417 1557 C417 1619 443 1660 476 1660 C554 1660 586 1569 682 1569 C784 1569 858 1678 858 1824 L858 1824 Z " />
<glyph glyph-name="Ograve" unicode="&#xd2;" horiz-adv-x="1114" d="M1025 608 L1025 839 C1025 1256 836 1476 556 1476 C277 1476 88 1256 88 839 L88 608 C88 195 280 -20 558 -20 C837 -20 1025 195 1025 608 L1025 608 Z M673 1546 L502 1848 L231 1848 L470 1546 L673 1546 Z M774 841 L774 608 C774 315 698 188 558 188 C417 188 339 315 339 608 L339 841 C339 1139 416 1267 556 1267 C697 1267 774 1139 774 841 L774 841 Z " />
<glyph glyph-name="Oacute" unicode="&#xd3;" horiz-adv-x="1114" d="M1025 608 L1025 839 C1025 1256 836 1476 556 1476 C277 1476 88 1256 88 839 L88 608 C88 195 280 -20 558 -20 C837 -20 1025 195 1025 608 L1025 608 Z M610 1848 L438 1546 L639 1546 L879 1848 L610 1848 Z M774 841 L774 608 C774 315 698 188 558 188 C417 188 339 315 339 608 L339 841 C339 1139 416 1267 556 1267 C697 1267 774 1139 774 841 L774 841 Z " />
<glyph glyph-name="Ocircumflex" unicode="&#xd4;" horiz-adv-x="1114" d="M1025 608 L1025 839 C1025 1256 836 1476 556 1476 C277 1476 88 1256 88 839 L88 608 C88 195 280 -20 558 -20 C837 -20 1025 195 1025 608 L1025 608 Z M859 1572 L626 1848 L487 1848 L258 1575 L258 1560 L444 1560 L557 1716 L670 1560 L859 1560 L859 1572 Z M774 841 L774 608 C774 315 698 188 558 188 C417 188 339 315 339 608 L339 841 C339 1139 416 1267 556 1267 C697 1267 774 1139 774 841 L774 841 Z " />
<glyph glyph-name="Otilde" unicode="&#xd5;" horiz-adv-x="1114" d="M1025 608 L1025 839 C1025 1256 836 1476 556 1476 C277 1476 88 1256 88 839 L88 608 C88 195 280 -20 558 -20 C837 -20 1025 195 1025 608 L1025 608 Z M846 1826 L709 1838 C709 1775 682 1734 649 1734 C573 1734 520 1824 442 1824 C340 1824 267 1711 267 1566 L405 1559 C405 1621 431 1662 464 1662 C542 1662 574 1571 670 1571 C772 1571 846 1680 846 1826 L846 1826 Z M774 841 L774 608 C774 315 698 188 558 188 C417 188 339 315 339 608 L339 841 C339 1139 416 1267 556 1267 C697 1267 774 1139 774 841 L774 841 Z " />
<glyph glyph-name="Odieresis" unicode="&#xd6;" horiz-adv-x="1114" d="M1025 608 L1025 839 C1025 1256 836 1476 556 1476 C277 1476 88 1256 88 839 L88 608 C88 195 280 -20 558 -20 C837 -20 1025 195 1025 608 L1025 608 Z M339 1799 C269 1799 219 1747 219 1681 C219 1615 269 1564 339 1564 C408 1564 458 1615 458 1681 C458 1747 408 1799 339 1799 L339 1799 Z M761 1797 C692 1797 642 1746 642 1679 C642 1614 692 1563 761 1563 C831 1563 880 1614 880 1679 C880 1746 831 1797 761 1797 L761 1797 Z M774 841 L774 608 C774 315 698 188 558 188 C417 188 339 315 339 608 L339 841 C339 1139 416 1267 556 1267 C697 1267 774 1139 774 841 L774 841 Z " />
<glyph glyph-name="multiply" unicode="&#xd7;" horiz-adv-x="870" d="M798 996 L656 1145 L432 842 L207 1145 L66 996 L306 671 L69 351 L210 202 L432 501 L653 202 L795 351 L558 671 L798 996 Z " />
<glyph glyph-name="Oslash" unicode="&#xd8;" horiz-adv-x="1251" d="M909 1314 L999 1517 L847 1517 L801 1413 C735 1455 657 1476 570 1476 C291 1476 102 1256 102 839 L102 608 C102 401 150 243 234 138 L131 -94 L284 -94 L344 40 C410 0 487 -20 572 -20 C851 -20 1039 195 1039 608 L1039 839 C1039 1048 992 1207 909 1314 L909 1314 Z M788 608 C788 315 712 188 572 188 C517 188 471 208 436 249 L777 1016 C784 966 788 908 788 841 L788 608 Z M353 608 L353 841 C353 1139 430 1267 570 1267 C626 1267 672 1247 707 1203 L365 433 C357 483 353 541 353 608 L353 608 Z " />
<glyph glyph-name="Ugrave" unicode="&#xd9;" horiz-adv-x="1059" d="M957 1456 L705 1456 L705 450 C705 242 644 184 530 184 C417 184 354 242 354 450 L354 1456 L102 1456 L102 450 C102 116 280 -20 530 -20 C777 -20 957 116 957 450 L957 1456 Z M641 1544 L470 1846 L199 1846 L438 1544 L641 1544 Z " />
<glyph glyph-name="Uacute" unicode="&#xda;" horiz-adv-x="1059" d="M957 1456 L705 1456 L705 450 C705 242 644 184 530 184 C417 184 354 242 354 450 L354 1456 L102 1456 L102 450 C102 116 280 -20 530 -20 C777 -20 957 116 957 450 L957 1456 Z M578 1846 L406 1544 L607 1544 L847 1846 L578 1846 Z " />
<glyph glyph-name="Ucircumflex" unicode="&#xdb;" horiz-adv-x="1059" d="M957 1456 L705 1456 L705 450 C705 242 644 184 530 184 C417 184 354 242 354 450 L354 1456 L102 1456 L102 450 C102 116 280 -20 530 -20 C777 -20 957 116 957 450 L957 1456 Z M827 1570 L594 1846 L455 1846 L226 1573 L226 1558 L412 1558 L525 1714 L638 1558 L827 1558 L827 1570 Z " />
<glyph glyph-name="Udieresis" unicode="&#xdc;" horiz-adv-x="1059" d="M957 1456 L705 1456 L705 450 C705 242 644 184 530 184 C417 184 354 242 354 450 L354 1456 L102 1456 L102 450 C102 116 280 -20 530 -20 C777 -20 957 116 957 450 L957 1456 Z M307 1797 C237 1797 187 1745 187 1679 C187 1613 237 1562 307 1562 C376 1562 426 1613 426 1679 C426 1745 376 1797 307 1797 L307 1797 Z M729 1795 C660 1795 610 1744 610 1677 C610 1612 660 1561 729 1561 C799 1561 848 1612 848 1677 C848 1744 799 1795 729 1795 L729 1795 Z " />
<glyph glyph-name="Yacute" unicode="&#xdd;" horiz-adv-x="1003" d="M502 761 L294 1456 L20 1456 L375 535 L375 0 L628 0 L628 535 L982 1456 L708 1456 L502 761 Z M557 1846 L385 1544 L586 1544 L826 1846 L557 1846 Z " />
<glyph glyph-name="Thorn" unicode="&#xde;" horiz-adv-x="986" d="M510 1178 L358 1178 L358 1456 L116 1456 L116 0 L358 0 L358 299 L510 299 C777 299 924 484 924 738 C924 993 777 1178 510 1178 L510 1178 Z M510 496 L358 496 L358 984 L360 982 L510 982 C633 982 682 862 682 736 C682 614 633 496 510 496 L510 496 Z " />
<glyph glyph-name="germandbls" unicode="&#xdf;" horiz-adv-x="1028" d="M363 0 L363 1104 C363 1288 405 1361 475 1361 C540 1361 584 1298 584 1188 C584 1032 501 992 501 820 C501 556 720 507 720 332 C720 241 685 177 614 177 C542 177 485 214 456 240 L411 44 C452 9 542 -20 619 -20 C846 -20 961 105 961 339 C961 593 741 671 741 826 C741 975 822 998 822 1202 C822 1441 676 1558 493 1558 C266 1558 122 1405 122 1106 L122 0 L363 0 Z " />
<glyph glyph-name="agrave" unicode="&#xe0;" horiz-adv-x="874" d="M775 252 L775 753 C775 1001 632 1102 446 1102 C224 1102 89 943 89 768 L331 768 C331 851 366 914 433 914 C500 914 533 871 533 757 L533 659 L450 659 C194 659 72 511 72 305 C72 99 190 -20 345 -20 C432 -20 497 19 543 88 C549 54 556 23 566 0 L809 0 L809 17 C788 74 775 151 775 252 L775 252 Z M552 1234 L381 1536 L110 1536 L349 1234 L552 1234 Z M402 175 C340 175 313 217 313 319 C313 433 355 508 459 508 L533 508 L533 268 C512 219 463 175 402 175 L402 175 Z " />
<glyph glyph-name="aacute" unicode="&#xe1;" horiz-adv-x="874" d="M775 252 L775 753 C775 1001 632 1102 446 1102 C224 1102 89 943 89 768 L331 768 C331 851 366 914 433 914 C500 914 533 871 533 757 L533 659 L450 659 C194 659 72 511 72 305 C72 99 190 -20 345 -20 C432 -20 497 19 543 88 C549 54 556 23 566 0 L809 0 L809 17 C788 74 775 151 775 252 L775 252 Z M758 1536 L489 1536 L317 1234 L518 1234 L758 1536 Z M402 175 C340 175 313 217 313 319 C313 433 355 508 459 508 L533 508 L533 268 C512 219 463 175 402 175 L402 175 Z " />
<glyph glyph-name="acircumflex" unicode="&#xe2;" horiz-adv-x="874" d="M775 252 L775 753 C775 1001 632 1102 446 1102 C224 1102 89 943 89 768 L331 768 C331 851 366 914 433 914 C500 914 533 871 533 757 L533 659 L450 659 C194 659 72 511 72 305 C72 99 190 -20 345 -20 C432 -20 497 19 543 88 C549 54 556 23 566 0 L809 0 L809 17 C788 74 775 151 775 252 L775 252 Z M436 1404 L549 1248 L738 1248 L738 1260 L505 1536 L366 1536 L137 1263 L137 1248 L323 1248 L436 1404 Z M402 175 C340 175 313 217 313 319 C313 433 355 508 459 508 L533 508 L533 268 C512 219 463 175 402 175 L402 175 Z " />
<glyph glyph-name="atilde" unicode="&#xe3;" horiz-adv-x="874" d="M775 252 L775 753 C775 1001 632 1102 446 1102 C224 1102 89 943 89 768 L331 768 C331 851 366 914 433 914 C500 914 533 871 533 757 L533 659 L450 659 C194 659 72 511 72 305 C72 99 190 -20 345 -20 C432 -20 497 19 543 88 C549 54 556 23 566 0 L809 0 L809 17 C788 74 775 151 775 252 L775 252 Z M343 1350 C421 1350 453 1259 549 1259 C651 1259 725 1368 725 1514 L588 1526 C588 1463 561 1422 528 1422 C452 1422 399 1512 321 1512 C219 1512 146 1399 146 1254 L284 1247 C284 1309 310 1350 343 1350 L343 1350 Z M402 175 C340 175 313 217 313 319 C313 433 355 508 459 508 L533 508 L533 268 C512 219 463 175 402 175 L402 175 Z " />
<glyph glyph-name="adieresis" unicode="&#xe4;" horiz-adv-x="874" d="M775 252 L775 753 C775 1001 632 1102 446 1102 C224 1102 89 943 89 768 L331 768 C331 851 366 914 433 914 C500 914 533 871 533 757 L533 659 L450 659 C194 659 72 511 72 305 C72 99 190 -20 345 -20 C432 -20 497 19 543 88 C549 54 556 23 566 0 L809 0 L809 17 C788 74 775 151 775 252 L775 252 Z M218 1252 C287 1252 337 1303 337 1369 C337 1435 287 1487 218 1487 C148 1487 98 1435 98 1369 C98 1303 148 1252 218 1252 L218 1252 Z M640 1251 C710 1251 759 1302 759 1367 C759 1434 710 1485 640 1485 C571 1485 521 1434 521 1367 C521 1302 571 1251 640 1251 L640 1251 Z M402 175 C340 175 313 217 313 319 C313 433 355 508 459 508 L533 508 L533 268 C512 219 463 175 402 175 L402 175 Z " />
<glyph glyph-name="aring" unicode="&#xe5;" horiz-adv-x="874" d="M775 252 L775 753 C775 1001 632 1102 446 1102 C224 1102 89 943 89 768 L331 768 C331 851 366 914 433 914 C500 914 533 871 533 757 L533 659 L450 659 C194 659 72 511 72 305 C72 99 190 -20 345 -20 C432 -20 497 19 543 88 C549 54 556 23 566 0 L809 0 L809 17 C788 74 775 151 775 252 L775 252 Z M439 1217 C549 1217 630 1306 630 1420 C630 1532 549 1625 439 1625 C327 1625 246 1532 246 1420 C246 1306 327 1217 439 1217 L439 1217 Z M402 175 C340 175 313 217 313 319 C313 433 355 508 459 508 L533 508 L533 268 C512 219 463 175 402 175 L402 175 Z M439 1532 C495 1532 531 1480 531 1420 C531 1359 495 1308 439 1308 C382 1308 346 1361 346 1420 C346 1480 382 1532 439 1532 L439 1532 Z " />
<glyph glyph-name="ae" unicode="&#xe6;" horiz-adv-x="1347" d="M1288 471 L1288 614 C1288 914 1159 1102 941 1102 C843 1102 763 1067 702 1004 C643 1069 559 1102 457 1102 C239 1102 96 962 96 771 L337 752 C337 836 381 905 455 905 C522 905 560 832 560 713 L560 644 L448 644 C201 644 69 524 69 313 C69 111 178 -21 375 -21 C517 -21 614 47 669 122 C737 32 835 -21 960 -21 C1099 -21 1216 55 1266 101 L1204 267 C1145 225 1091 177 985 177 C860 177 803 300 795 464 L795 471 L1288 471 Z M422 165 C345 165 310 225 310 309 C310 397 360 477 451 477 L560 477 L560 248 C523 202 468 165 422 165 L422 165 Z M941 905 C1019 905 1051 804 1051 672 L1051 644 L796 644 C806 795 847 905 941 905 L941 905 Z " />
<glyph glyph-name="ccedilla" unicode="&#xe7;" horiz-adv-x="853" d="M448 178 C328 178 310 297 310 495 L310 587 C310 782 329 905 445 905 C531 905 567 830 568 693 L795 693 C794 955 658 1102 450 1102 C193 1102 68 909 68 587 L68 495 C68 219 161 36 352 -9 L329 -140 C404 -149 433 -166 433 -226 C433 -290 406 -316 360 -316 L365 -456 C544 -456 634 -365 634 -230 C634 -115 579 -70 525 -57 L532 -11 C684 24 794 162 795 361 L568 361 C568 231 522 178 448 178 L448 178 Z " />
<glyph glyph-name="egrave" unicode="&#xe8;" horiz-adv-x="885" d="M828 585 C828 927 701 1102 458 1102 C219 1102 76 936 76 574 L76 475 C76 145 227 -20 482 -20 C656 -20 760 65 812 145 L713 288 C662 220 589 177 505 177 C384 177 319 260 317 468 L828 468 L828 585 Z M546 1235 L375 1537 L104 1537 L343 1235 L546 1235 Z M589 644 L318 644 C326 828 366 907 460 907 C553 907 588 822 589 668 L589 644 Z " />
<glyph glyph-name="eacute" unicode="&#xe9;" horiz-adv-x="885" d="M828 585 C828 927 701 1102 458 1102 C219 1102 76 936 76 574 L76 475 C76 145 227 -20 482 -20 C656 -20 760 65 812 145 L713 288 C662 220 589 177 505 177 C384 177 319 260 317 468 L828 468 L828 585 Z M752 1537 L483 1537 L311 1235 L512 1235 L752 1537 Z M589 644 L318 644 C326 828 366 907 460 907 C553 907 588 822 589 668 L589 644 Z " />
<glyph glyph-name="ecircumflex" unicode="&#xea;" horiz-adv-x="885" d="M828 585 C828 927 701 1102 458 1102 C219 1102 76 936 76 574 L76 475 C76 145 227 -20 482 -20 C656 -20 760 65 812 145 L713 288 C662 220 589 177 505 177 C384 177 319 260 317 468 L828 468 L828 585 Z M430 1405 L543 1249 L732 1249 L732 1261 L499 1537 L360 1537 L131 1264 L131 1249 L317 1249 L430 1405 Z M589 644 L318 644 C326 828 366 907 460 907 C553 907 588 822 589 668 L589 644 Z " />
<glyph glyph-name="edieresis" unicode="&#xeb;" horiz-adv-x="885" d="M828 585 C828 927 701 1102 458 1102 C219 1102 76 936 76 574 L76 475 C76 145 227 -20 482 -20 C656 -20 760 65 812 145 L713 288 C662 220 589 177 505 177 C384 177 319 260 317 468 L828 468 L828 585 Z M212 1253 C281 1253 331 1304 331 1370 C331 1436 281 1488 212 1488 C142 1488 92 1436 92 1370 C92 1304 142 1253 212 1253 L212 1253 Z M634 1252 C704 1252 753 1303 753 1368 C753 1435 704 1486 634 1486 C565 1486 515 1435 515 1368 C515 1303 565 1252 634 1252 L634 1252 Z M589 644 L318 644 C326 828 366 907 460 907 C553 907 588 822 589 668 L589 644 Z " />
<glyph glyph-name="igrave" unicode="&#xec;" horiz-adv-x="482" d="M360 0 L360 1082 L118 1082 L118 0 L360 0 Z M357 1225 L186 1527 L-85 1527 L154 1225 L357 1225 Z " />
<glyph glyph-name="iacute" unicode="&#xed;" horiz-adv-x="482" d="M360 0 L360 1082 L118 1082 L118 0 L360 0 Z M294 1527 L122 1225 L323 1225 L563 1527 L294 1527 Z " />
<glyph glyph-name="icircumflex" unicode="&#xee;" horiz-adv-x="482" d="M360 0 L360 1082 L118 1082 L118 0 L360 0 Z M543 1251 L310 1527 L171 1527 L-58 1254 L-58 1239 L128 1239 L241 1395 L354 1239 L543 1239 L543 1251 Z " />
<glyph glyph-name="idieresis" unicode="&#xef;" horiz-adv-x="482" d="M360 0 L360 1082 L118 1082 L118 0 L360 0 Z M23 1478 C-47 1478 -97 1426 -97 1360 C-97 1294 -47 1243 23 1243 C92 1243 142 1294 142 1360 C142 1426 92 1478 23 1478 L23 1478 Z M445 1476 C376 1476 326 1425 326 1358 C326 1293 376 1242 445 1242 C515 1242 564 1293 564 1358 C564 1425 515 1476 445 1476 L445 1476 Z " />
<glyph glyph-name="eth" unicode="&#xf0;" horiz-adv-x="933" d="M656 1312 L767 1404 L704 1511 L573 1403 C484 1487 379 1547 263 1580 L188 1386 C261 1359 333 1316 396 1256 L268 1150 L332 1043 L477 1163 C526 1094 566 1009 591 905 C543 947 485 972 421 972 C205 972 77 771 77 468 C77 196 232 -20 460 -20 C692 -20 862 216 862 560 L862 644 C862 920 784 1147 656 1312 L656 1312 Z M620 543 C620 334 568 178 464 178 C372 178 318 318 318 468 C318 661 374 782 476 782 C545 782 593 743 619 694 C620 678 620 662 620 646 L620 543 Z " />
<glyph glyph-name="ntilde" unicode="&#xf1;" horiz-adv-x="912" d="M558 1102 C463 1102 385 1054 329 969 L322 1082 L95 1082 L95 0 L336 0 L336 801 C362 863 402 903 457 903 C532 903 573 848 573 699 L573 0 L814 0 L814 698 C814 994 709 1102 558 1102 L558 1102 Z M363 1350 C441 1350 473 1259 569 1259 C671 1259 745 1368 745 1514 L608 1526 C608 1463 581 1422 548 1422 C472 1422 419 1512 341 1512 C239 1512 166 1399 166 1254 L304 1247 C304 1309 330 1350 363 1350 L363 1350 Z " />
<glyph glyph-name="ograve" unicode="&#xf2;" horiz-adv-x="922" d="M70 581 L70 501 C70 165 221 -20 462 -20 C701 -20 852 165 852 501 L852 581 C852 917 701 1102 460 1102 C221 1102 70 917 70 581 L70 581 Z M573 1234 L402 1536 L131 1536 L370 1234 L573 1234 Z M311 501 L311 581 C311 793 366 905 460 905 C557 905 610 793 610 581 L610 501 C610 285 560 178 462 178 C365 178 311 285 311 501 L311 501 Z " />
<glyph glyph-name="oacute" unicode="&#xf3;" horiz-adv-x="922" d="M70 581 L70 501 C70 165 221 -20 462 -20 C701 -20 852 165 852 501 L852 581 C852 917 701 1102 460 1102 C221 1102 70 917 70 581 L70 581 Z M510 1536 L338 1234 L539 1234 L779 1536 L510 1536 Z M311 501 L311 581 C311 793 366 905 460 905 C557 905 610 793 610 581 L610 501 C610 285 560 178 462 178 C365 178 311 285 311 501 L311 501 Z " />
<glyph glyph-name="ocircumflex" unicode="&#xf4;" horiz-adv-x="922" d="M70 581 L70 501 C70 165 221 -20 462 -20 C701 -20 852 165 852 501 L852 581 C852 917 701 1102 460 1102 C221 1102 70 917 70 581 L70 581 Z M759 1260 L526 1536 L387 1536 L158 1263 L158 1248 L344 1248 L457 1404 L570 1248 L759 1248 L759 1260 Z M311 501 L311 581 C311 793 366 905 460 905 C557 905 610 793 610 581 L610 501 C610 285 560 178 462 178 C365 178 311 285 311 501 L311 501 Z " />
<glyph glyph-name="otilde" unicode="&#xf5;" horiz-adv-x="922" d="M70 581 L70 501 C70 165 221 -20 462 -20 C701 -20 852 165 852 501 L852 581 C852 917 701 1102 460 1102 C221 1102 70 917 70 581 L70 581 Z M746 1514 L609 1526 C609 1463 582 1422 549 1422 C473 1422 420 1512 342 1512 C240 1512 167 1399 167 1254 L305 1247 C305 1309 331 1350 364 1350 C442 1350 474 1259 570 1259 C672 1259 746 1368 746 1514 L746 1514 Z M311 501 L311 581 C311 793 366 905 460 905 C557 905 610 793 610 581 L610 501 C610 285 560 178 462 178 C365 178 311 285 311 501 L311 501 Z " />
<glyph glyph-name="odieresis" unicode="&#xf6;" horiz-adv-x="922" d="M70 581 L70 501 C70 165 221 -20 462 -20 C701 -20 852 165 852 501 L852 581 C852 917 701 1102 460 1102 C221 1102 70 917 70 581 L70 581 Z M239 1487 C169 1487 119 1435 119 1369 C119 1303 169 1252 239 1252 C308 1252 358 1303 358 1369 C358 1435 308 1487 239 1487 L239 1487 Z M661 1485 C592 1485 542 1434 542 1367 C542 1302 592 1251 661 1251 C731 1251 780 1302 780 1367 C780 1434 731 1485 661 1485 L661 1485 Z M311 501 L311 581 C311 793 366 905 460 905 C557 905 610 793 610 581 L610 501 C610 285 560 178 462 178 C365 178 311 285 311 501 L311 501 Z " />
<glyph glyph-name="divide" unicode="&#xf7;" horiz-adv-x="927" d="M458 414 C376 414 323 357 323 281 C323 205 376 148 458 148 C540 148 592 205 592 281 C592 357 540 414 458 414 L458 414 Z M848 585 L848 794 L69 794 L69 585 L848 585 Z M458 1228 C376 1228 323 1170 323 1093 C323 1018 376 961 458 961 C540 961 592 1018 592 1093 C592 1170 540 1228 458 1228 L458 1228 Z " />
<glyph glyph-name="oslash" unicode="&#xf8;" horiz-adv-x="1030" d="M706 1018 L778 1214 L646 1214 L597 1081 C557 1095 514 1102 467 1102 C228 1102 77 917 77 581 L77 501 C77 301 130 155 224 69 L147 -140 L278 -140 L331 4 C373 -12 419 -20 469 -20 C708 -20 859 165 859 501 L859 581 C859 785 803 933 706 1018 L706 1018 Z M318 501 L318 581 C318 793 373 905 467 905 C489 905 509 899 526 888 L329 354 C322 395 318 444 318 501 L318 501 Z M617 501 C617 285 567 178 469 178 C444 178 422 185 403 199 L604 742 C612 697 617 643 617 581 L617 501 Z " />
<glyph glyph-name="ugrave" unicode="&#xf9;" horiz-adv-x="912" d="M572 1082 L572 284 C547 220 505 180 436 180 C378 180 336 229 336 381 L336 1082 L95 1082 L95 383 C95 96 205 -20 365 -20 C459 -20 531 25 581 101 L587 0 L815 0 L815 1082 L572 1082 Z M569 1234 L398 1536 L127 1536 L366 1234 L569 1234 Z " />
<glyph glyph-name="uacute" unicode="&#xfa;" horiz-adv-x="912" d="M572 1082 L572 284 C547 220 505 180 436 180 C378 180 336 229 336 381 L336 1082 L95 1082 L95 383 C95 96 205 -20 365 -20 C459 -20 531 25 581 101 L587 0 L815 0 L815 1082 L572 1082 Z M775 1536 L506 1536 L334 1234 L535 1234 L775 1536 Z " />
<glyph glyph-name="ucircumflex" unicode="&#xfb;" horiz-adv-x="912" d="M572 1082 L572 284 C547 220 505 180 436 180 C378 180 336 229 336 381 L336 1082 L95 1082 L95 383 C95 96 205 -20 365 -20 C459 -20 531 25 581 101 L587 0 L815 0 L815 1082 L572 1082 Z M453 1404 L566 1248 L755 1248 L755 1260 L522 1536 L383 1536 L154 1263 L154 1248 L340 1248 L453 1404 Z " />
<glyph glyph-name="udieresis" unicode="&#xfc;" horiz-adv-x="912" d="M572 1082 L572 284 C547 220 505 180 436 180 C378 180 336 229 336 381 L336 1082 L95 1082 L95 383 C95 96 205 -20 365 -20 C459 -20 531 25 581 101 L587 0 L815 0 L815 1082 L572 1082 Z M235 1252 C304 1252 354 1303 354 1369 C354 1435 304 1487 235 1487 C165 1487 115 1435 115 1369 C115 1303 165 1252 235 1252 L235 1252 Z M657 1251 C727 1251 776 1302 776 1367 C776 1434 727 1485 657 1485 C588 1485 538 1434 538 1367 C538 1302 588 1251 657 1251 L657 1251 Z " />
<glyph glyph-name="yacute" unicode="&#xfd;" horiz-adv-x="825" d="M544 1082 L413 314 L281 1082 L21 1082 L306 -19 L290 -49 C270 -182 227 -234 144 -234 C134 -234 123 -232 113 -232 L113 -420 C150 -429 170 -437 214 -437 C390 -437 453 -273 482 -165 L804 1082 L544 1082 Z M737 1536 L468 1536 L296 1234 L497 1234 L737 1536 Z " />
<glyph glyph-name="thorn" unicode="&#xfe;" horiz-adv-x="925" d="M531 1102 C452 1102 391 1069 344 1011 L344 1536 L102 1536 L102 -416 L344 -416 L344 72 C391 13 453 -20 533 -20 C740 -20 851 215 851 531 L851 552 C851 882 741 1102 531 1102 L531 1102 Z M610 531 C610 338 574 178 468 178 C405 178 367 215 344 272 L344 802 C368 864 407 903 467 903 C571 903 610 748 610 552 L610 531 Z " />
<glyph glyph-name="ydieresis" unicode="&#xff;" horiz-adv-x="825" d="M544 1082 L413 314 L281 1082 L21 1082 L306 -19 L290 -49 C270 -182 227 -234 144 -234 C134 -234 123 -232 113 -232 L113 -420 C150 -429 170 -437 214 -437 C390 -437 453 -273 482 -165 L804 1082 L544 1082 Z M197 1252 C266 1252 316 1303 316 1369 C316 1435 266 1487 197 1487 C127 1487 77 1435 77 1369 C77 1303 127 1252 197 1252 L197 1252 Z M619 1251 C689 1251 738 1302 738 1367 C738 1434 689 1485 619 1485 C550 1485 500 1434 500 1367 C500 1302 550 1251 619 1251 L619 1251 Z " />
<glyph glyph-name="Amacron" unicode="&#x100;" horiz-adv-x="1098" d="M808 0 L1075 0 L664 1456 L434 1456 L25 0 L291 0 L368 335 L731 335 L808 0 Z M818 1763 L285 1763 L285 1608 L818 1608 L818 1763 Z M415 541 L549 1123 L683 541 L415 541 Z " />
<glyph glyph-name="amacron" unicode="&#x101;" horiz-adv-x="874" d="M775 252 L775 753 C775 1001 632 1102 446 1102 C224 1102 89 943 89 768 L331 768 C331 851 366 914 433 914 C500 914 533 871 533 757 L533 659 L450 659 C194 659 72 511 72 305 C72 99 190 -20 345 -20 C432 -20 497 19 543 88 C549 54 556 23 566 0 L809 0 L809 17 C788 74 775 151 775 252 L775 252 Z M703 1453 L170 1453 L170 1298 L703 1298 L703 1453 Z M402 175 C340 175 313 217 313 319 C313 433 355 508 459 508 L533 508 L533 268 C512 219 463 175 402 175 L402 175 Z " />
<glyph glyph-name="Abreve" unicode="&#x102;" horiz-adv-x="1098" d="M808 0 L1075 0 L664 1456 L434 1456 L25 0 L291 0 L368 335 L731 335 L808 0 Z M546 1540 C730 1540 845 1656 845 1823 L669 1823 C669 1750 635 1684 546 1684 C455 1684 422 1750 422 1823 L245 1823 C245 1656 361 1540 546 1540 L546 1540 Z M415 541 L549 1123 L683 541 L415 541 Z " />
<glyph glyph-name="abreve" unicode="&#x103;" horiz-adv-x="874" d="M775 252 L775 753 C775 1001 632 1102 446 1102 C224 1102 89 943 89 768 L331 768 C331 851 366 914 433 914 C500 914 533 871 533 757 L533 659 L450 659 C194 659 72 511 72 305 C72 99 190 -20 345 -20 C432 -20 497 19 543 88 C549 54 556 23 566 0 L809 0 L809 17 C788 74 775 151 775 252 L775 252 Z M431 1230 C615 1230 730 1346 730 1513 L554 1513 C554 1440 520 1374 431 1374 C340 1374 307 1440 307 1513 L130 1513 C130 1346 246 1230 431 1230 L431 1230 Z M402 175 C340 175 313 217 313 319 C313 433 355 508 459 508 L533 508 L533 268 C512 219 463 175 402 175 L402 175 Z " />
<glyph glyph-name="Aogonek" unicode="&#x104;" horiz-adv-x="1098" d="M936 -265 C903 -265 889 -237 889 -197 C889 -119 927 -60 1003 0 L1075 0 L664 1456 L434 1456 L25 0 L291 0 L368 335 L731 335 L807 4 C731 -65 710 -146 710 -227 C710 -358 790 -427 888 -427 C951 -427 991 -403 1017 -383 L994 -242 C980 -251 963 -265 936 -265 L936 -265 Z M415 541 L549 1123 L683 541 L415 541 Z " />
<glyph glyph-name="aogonek" unicode="&#x105;" horiz-adv-x="874" d="M767 0 L809 0 L809 17 C788 74 775 151 775 252 L775 753 C775 1001 632 1102 446 1102 C224 1102 89 943 89 768 L331 768 C331 851 366 914 433 914 C500 914 533 871 533 757 L533 659 L450 659 C194 659 72 511 72 305 C72 99 190 -20 345 -20 C432 -20 497 19 543 88 C549 54 556 23 566 0 C494 -69 474 -148 474 -227 C474 -358 554 -427 652 -427 C715 -427 755 -403 781 -383 L758 -242 C744 -251 727 -265 700 -265 C667 -265 653 -237 653 -197 C653 -119 691 -60 767 0 L767 0 Z M402 175 C340 175 313 217 313 319 C313 433 355 508 459 508 L533 508 L533 268 C512 219 463 175 402 175 L402 175 Z " />
<glyph glyph-name="Cacute" unicode="&#x106;" horiz-adv-x="1056" d="M991 476 L739 476 C731 259 677 184 543 184 C388 184 339 338 339 607 L339 852 C339 1132 402 1272 546 1272 C686 1272 733 1189 741 974 L992 974 C971 1295 827 1477 546 1477 C263 1477 87 1243 87 850 L87 607 C87 212 255 -20 543 -20 C818 -20 976 161 991 476 L991 476 Z M595 1865 L423 1563 L624 1563 L864 1865 L595 1865 Z " />
<glyph glyph-name="cacute" unicode="&#x107;" horiz-adv-x="853" d="M568 361 C568 231 522 178 448 178 C328 178 310 297 310 495 L310 587 C310 782 329 905 445 905 C531 905 567 830 568 693 L795 693 C794 955 658 1102 450 1102 C193 1102 68 909 68 587 L68 495 C68 174 193 -20 453 -20 C644 -20 794 129 795 361 L568 361 Z M476 1536 L304 1234 L505 1234 L745 1536 L476 1536 Z " />
<glyph glyph-name="Cdotaccent" unicode="&#x10a;" horiz-adv-x="1056" d="M991 476 L739 476 C731 259 677 184 543 184 C388 184 339 338 339 607 L339 852 C339 1132 402 1272 546 1272 C686 1272 733 1189 741 974 L992 974 C971 1295 827 1477 546 1477 C263 1477 87 1243 87 850 L87 607 C87 212 255 -20 543 -20 C818 -20 976 161 991 476 L991 476 Z M540 1834 C462 1834 412 1781 412 1711 C412 1641 462 1588 540 1588 C616 1588 666 1641 666 1711 C666 1781 616 1834 540 1834 L540 1834 Z " />
<glyph glyph-name="cdotaccent" unicode="&#x10b;" horiz-adv-x="853" d="M568 361 C568 231 522 178 448 178 C328 178 310 297 310 495 L310 587 C310 782 329 905 445 905 C531 905 567 830 568 693 L795 693 C794 955 658 1102 450 1102 C193 1102 68 909 68 587 L68 495 C68 174 193 -20 453 -20 C644 -20 794 129 795 361 L568 361 Z M421 1505 C343 1505 293 1452 293 1382 C293 1312 343 1259 421 1259 C497 1259 547 1312 547 1382 C547 1452 497 1505 421 1505 L421 1505 Z " />
<glyph glyph-name="Ccaron" unicode="&#x10c;" horiz-adv-x="1056" d="M991 476 L739 476 C731 259 677 184 543 184 C388 184 339 338 339 607 L339 852 C339 1132 402 1272 546 1272 C686 1272 733 1189 741 974 L992 974 C971 1295 827 1477 546 1477 C263 1477 87 1243 87 850 L87 607 C87 212 255 -20 543 -20 C818 -20 976 161 991 476 L991 476 Z M542 1710 L437 1865 L231 1865 L231 1855 L466 1577 L617 1577 L853 1854 L853 1865 L648 1865 L542 1710 Z " />
<glyph glyph-name="ccaron" unicode="&#x10d;" horiz-adv-x="853" d="M568 361 C568 231 522 178 448 178 C328 178 310 297 310 495 L310 587 C310 782 329 905 445 905 C531 905 567 830 568 693 L795 693 C794 955 658 1102 450 1102 C193 1102 68 909 68 587 L68 495 C68 174 193 -20 453 -20 C644 -20 794 129 795 361 L568 361 Z M423 1381 L318 1536 L112 1536 L112 1526 L347 1248 L498 1248 L734 1525 L734 1536 L529 1536 L423 1381 Z " />
<glyph glyph-name="Dcaron" unicode="&#x10e;" horiz-adv-x="1047" d="M456 1456 L113 1456 L113 0 L453 0 C757 0 957 221 957 618 L957 838 C957 1234 756 1456 456 1456 L456 1456 Z M489 1565 L725 1842 L725 1853 L520 1853 L414 1698 L309 1853 L103 1853 L103 1843 L338 1565 L489 1565 Z M706 618 C706 337 643 204 453 204 L363 204 L363 1251 L456 1251 C641 1251 706 1128 706 840 L706 618 Z " />
<glyph glyph-name="dcaron" unicode="&#x10f;" horiz-adv-x="1157" d="M573 1536 L573 1114 L468 1114 L468 1085 C442 1096 413 1102 382 1102 C176 1102 65 932 65 579 L65 500 C65 162 177 -20 380 -20 C469 -20 536 27 586 107 L597 -1 L816 0 L816 1536 L573 1536 Z M450 180 C342 180 308 283 308 500 L308 579 C308 798 344 903 450 903 L454 903 C444 860 428 822 410 783 L528 709 C544 728 559 751 573 775 L573 272 C549 216 509 180 450 180 L450 180 Z " />
<glyph glyph-name="Dcroat" unicode="&#x110;" horiz-adv-x="1047" d="M456 1456 L113 1456 L113 821 L-1 821 L-1 652 L113 652 L113 0 L453 0 C757 0 957 221 957 618 L957 838 C957 1234 756 1456 456 1456 L456 1456 Z M706 618 C706 337 643 204 453 204 L363 204 L363 652 L537 652 L537 821 L363 821 L363 1251 L456 1251 C641 1251 706 1128 706 840 L706 618 Z " />
<glyph glyph-name="dcroat" unicode="&#x111;" horiz-adv-x="1033" d="M935 1394 L816 1394 L816 1536 L573 1536 L573 1394 L396 1394 L396 1226 L573 1226 L573 1007 C526 1068 464 1102 387 1102 C182 1102 65 879 65 550 L65 529 C65 213 183 -20 386 -20 C472 -20 538 22 587 95 L597 0 L816 0 L816 1226 L935 1226 L935 1394 Z M450 180 C342 180 308 335 308 529 L308 550 C308 745 344 903 450 903 C507 903 548 862 573 796 L573 281 C549 219 509 180 450 180 L450 180 Z " />
<glyph glyph-name="Emacron" unicode="&#x112;" horiz-adv-x="911" d="M363 204 L363 650 L783 650 L783 851 L363 851 L363 1251 L856 1251 L856 1456 L113 1456 L113 0 L858 0 L858 204 L363 204 Z M768 1770 L235 1770 L235 1615 L768 1615 L768 1770 Z " />
<glyph glyph-name="emacron" unicode="&#x113;" horiz-adv-x="885" d="M828 585 C828 927 701 1102 458 1102 C219 1102 76 936 76 574 L76 475 C76 145 227 -20 482 -20 C656 -20 760 65 812 145 L713 288 C662 220 589 177 505 177 C384 177 319 260 317 468 L828 468 L828 585 Z M697 1454 L164 1454 L164 1299 L697 1299 L697 1454 Z M589 644 L318 644 C326 828 366 907 460 907 C553 907 588 822 589 668 L589 644 Z " />
<glyph glyph-name="Edotaccent" unicode="&#x116;" horiz-adv-x="911" d="M363 204 L363 650 L783 650 L783 851 L363 851 L363 1251 L856 1251 L856 1456 L113 1456 L113 0 L858 0 L858 204 L363 204 Z M499 1576 C575 1576 625 1629 625 1699 C625 1769 575 1822 499 1822 C421 1822 371 1769 371 1699 C371 1629 421 1576 499 1576 L499 1576 Z " />
<glyph glyph-name="edotaccent" unicode="&#x117;" horiz-adv-x="885" d="M828 585 C828 927 701 1102 458 1102 C219 1102 76 936 76 574 L76 475 C76 145 227 -20 482 -20 C656 -20 760 65 812 145 L713 288 C662 220 589 177 505 177 C384 177 319 260 317 468 L828 468 L828 585 Z M428 1260 C504 1260 554 1313 554 1383 C554 1453 504 1506 428 1506 C350 1506 300 1453 300 1383 C300 1313 350 1260 428 1260 L428 1260 Z M589 644 L318 644 C326 828 366 907 460 907 C553 907 588 822 589 668 L589 644 Z " />
<glyph glyph-name="Eogonek" unicode="&#x118;" horiz-adv-x="911" d="M734 0 L858 0 L858 204 L363 204 L363 650 L783 650 L783 851 L363 851 L363 1251 L856 1251 L856 1456 L113 1456 L113 0 L533 0 C461 -69 441 -148 441 -227 C441 -358 521 -427 619 -427 C682 -427 722 -403 748 -383 L725 -242 C711 -251 694 -265 667 -265 C634 -265 620 -237 620 -197 C620 -119 658 -60 734 0 L734 0 Z " />
<glyph glyph-name="eogonek" unicode="&#x119;" horiz-adv-x="885" d="M828 585 C828 927 701 1102 458 1102 C219 1102 76 936 76 574 L76 475 C76 169 206 5 428 -17 C389 -74 377 -135 377 -197 C377 -328 457 -397 555 -397 C618 -397 658 -373 684 -353 L661 -212 C647 -221 630 -235 603 -235 C570 -235 556 -207 556 -167 C556 -98 586 -44 646 10 C725 42 779 94 812 145 L713 288 C662 220 589 177 505 177 C384 177 319 260 317 468 L828 468 L828 585 Z M589 644 L318 644 C326 828 366 907 460 907 C553 907 588 822 589 668 L589 644 Z " />
<glyph glyph-name="Ecaron" unicode="&#x11a;" horiz-adv-x="911" d="M363 204 L363 650 L783 650 L783 851 L363 851 L363 1251 L856 1251 L856 1456 L113 1456 L113 0 L858 0 L858 204 L363 204 Z M576 1565 L812 1842 L812 1853 L607 1853 L501 1698 L396 1853 L190 1853 L190 1843 L425 1565 L576 1565 Z " />
<glyph glyph-name="ecaron" unicode="&#x11b;" horiz-adv-x="885" d="M828 585 C828 927 701 1102 458 1102 C219 1102 76 936 76 574 L76 475 C76 145 227 -20 482 -20 C656 -20 760 65 812 145 L713 288 C662 220 589 177 505 177 C384 177 319 260 317 468 L828 468 L828 585 Z M505 1249 L741 1526 L741 1537 L536 1537 L430 1382 L325 1537 L119 1537 L119 1527 L354 1249 L505 1249 Z M589 644 L318 644 C326 828 366 907 460 907 C553 907 588 822 589 668 L589 644 Z " />
<glyph glyph-name="Gbreve" unicode="&#x11e;" horiz-adv-x="1085" d="M995 174 L995 748 L550 748 L550 556 L743 556 L743 259 C721 238 682 184 583 184 C423 184 344 313 344 606 L344 853 C344 1142 415 1272 560 1272 C683 1272 736 1188 751 1010 L994 1010 C972 1306 844 1477 552 1477 C269 1477 92 1269 92 851 L92 606 C92 187 280 -20 568 -20 C814 -20 940 108 995 174 L995 174 Z M839 1842 L663 1842 C663 1769 629 1703 540 1703 C449 1703 416 1769 416 1842 L239 1842 C239 1675 355 1559 540 1559 C724 1559 839 1675 839 1842 L839 1842 Z " />
<glyph glyph-name="gbreve" unicode="&#x11f;" horiz-adv-x="930" d="M613 1082 L604 988 C558 1061 493 1102 397 1102 C191 1102 70 934 70 581 L70 502 C70 163 192 -16 396 -16 C480 -16 543 22 590 88 L590 -6 C590 -173 530 -234 422 -234 C348 -234 267 -196 219 -131 L133 -292 C203 -382 342 -426 434 -426 C672 -426 831 -294 831 -1 L831 1082 L613 1082 Z M434 1230 C618 1230 733 1346 733 1513 L557 1513 C557 1440 523 1374 434 1374 C343 1374 310 1440 310 1513 L133 1513 C133 1346 249 1230 434 1230 L434 1230 Z M465 184 C358 184 311 285 311 502 L311 581 C311 799 360 903 466 903 C523 903 564 871 590 818 L590 264 C565 214 525 184 465 184 L465 184 Z " />
<glyph glyph-name="Gdotaccent" unicode="&#x120;" horiz-adv-x="1085" d="M995 174 L995 748 L550 748 L550 556 L743 556 L743 259 C721 238 682 184 583 184 C423 184 344 313 344 606 L344 853 C344 1142 415 1272 560 1272 C683 1272 736 1188 751 1010 L994 1010 C972 1306 844 1477 552 1477 C269 1477 92 1269 92 851 L92 606 C92 187 280 -20 568 -20 C814 -20 940 108 995 174 L995 174 Z M543 1834 C465 1834 415 1781 415 1711 C415 1641 465 1588 543 1588 C619 1588 669 1641 669 1711 C669 1781 619 1834 543 1834 L543 1834 Z " />
<glyph glyph-name="gdotaccent" unicode="&#x121;" horiz-adv-x="930" d="M613 1082 L604 988 C558 1061 493 1102 397 1102 C191 1102 70 934 70 581 L70 502 C70 163 192 -16 396 -16 C480 -16 543 22 590 88 L590 -6 C590 -173 530 -234 422 -234 C348 -234 267 -196 219 -131 L133 -292 C203 -382 342 -426 434 -426 C672 -426 831 -294 831 -1 L831 1082 L613 1082 Z M437 1259 C513 1259 563 1312 563 1382 C563 1452 513 1505 437 1505 C359 1505 309 1452 309 1382 C309 1312 359 1259 437 1259 L437 1259 Z M465 184 C358 184 311 285 311 502 L311 581 C311 799 360 903 466 903 C523 903 564 871 590 818 L590 264 C565 214 525 184 465 184 L465 184 Z " />
<glyph glyph-name="Gcommaaccent" unicode="&#x122;" horiz-adv-x="1229" d="M995 174 L995 748 L550 748 L550 556 L743 556 L743 259 C721 238 682 184 583 184 C423 184 344 313 344 606 L344 853 C344 1142 415 1272 560 1272 C683 1272 736 1188 751 1010 L994 1010 C972 1306 844 1477 552 1477 C269 1477 92 1269 92 851 L92 606 C92 187 280 -20 568 -20 C814 -20 940 108 995 174 L995 174 Z M133 -589 L133 -517 L-45 -517 L-45 -600 C-45 -702 -68 -774 -103 -848 L15 -922 C83 -840 133 -705 133 -589 L133 -589 Z " />
<glyph glyph-name="gcommaaccent" unicode="&#x123;" horiz-adv-x="930" d="M613 1082 L604 988 C558 1061 493 1102 397 1102 C191 1102 70 934 70 581 L70 502 C70 163 192 -16 396 -16 C480 -16 543 22 590 88 L590 -6 C590 -173 530 -234 422 -234 C348 -234 267 -196 219 -131 L133 -292 C203 -382 342 -426 434 -426 C672 -426 831 -294 831 -1 L831 1082 L613 1082 Z M529 1380 C529 1477 556 1555 582 1624 L460 1703 C391 1647 342 1521 342 1391 L342 1257 L528 1257 L529 1380 Z M465 184 C358 184 311 285 311 502 L311 581 C311 799 360 903 466 903 C523 903 564 871 590 818 L590 264 C565 214 525 184 465 184 L465 184 Z " />
<glyph glyph-name="Hbar" unicode="&#x126;" horiz-adv-x="1314" d="M1129 1199 L1047 1199 L1047 1456 L796 1456 L796 1199 L388 1199 L388 1456 L138 1456 L138 1199 L48 1199 L48 1040 L138 1040 L138 0 L388 0 L388 647 L796 647 L796 0 L1047 0 L1047 1040 L1129 1040 L1129 1199 Z M796 851 L388 851 L388 1040 L796 1040 L796 851 Z " />
<glyph glyph-name="hbar" unicode="&#x127;" horiz-adv-x="910" d="M549 1102 C461 1102 388 1058 335 982 L335 1224 L511 1224 L511 1393 L335 1393 L335 1536 L94 1536 L94 1393 L-27 1393 L-27 1224 L94 1224 L94 0 L335 0 L335 811 C360 868 398 903 454 903 C531 903 572 848 572 696 L572 0 L813 0 L813 694 C813 990 701 1102 549 1102 L549 1102 Z " />
<glyph glyph-name="Itilde" unicode="&#x128;" horiz-adv-x="500" d="M376 0 L376 1456 L126 1456 L126 0 L376 0 Z M539 1831 L402 1843 C402 1780 375 1739 342 1739 C266 1739 213 1829 135 1829 C33 1829 -40 1716 -40 1571 L98 1564 C98 1626 124 1667 157 1667 C235 1667 267 1576 363 1576 C465 1576 539 1685 539 1831 L539 1831 Z " />
<glyph glyph-name="itilde" unicode="&#x129;" horiz-adv-x="482" d="M360 0 L360 1082 L118 1082 L118 0 L360 0 Z M530 1505 L393 1517 C393 1454 366 1413 333 1413 C257 1413 204 1503 126 1503 C24 1503 -49 1390 -49 1245 L89 1238 C89 1300 115 1341 148 1341 C226 1341 258 1250 354 1250 C456 1250 530 1359 530 1505 L530 1505 Z " />
<glyph glyph-name="Imacron" unicode="&#x12a;" horiz-adv-x="500" d="M376 0 L376 1456 L126 1456 L126 0 L376 0 Z M517 1615 L517 1770 L-16 1770 L-16 1615 L517 1615 Z " />
<glyph glyph-name="imacron" unicode="&#x12b;" horiz-adv-x="482" d="M360 0 L360 1082 L118 1082 L118 0 L360 0 Z M508 1289 L508 1444 L-25 1444 L-25 1289 L508 1289 Z " />
<glyph glyph-name="Iogonek" unicode="&#x12e;" horiz-adv-x="500" d="M327 0 L376 0 L376 1456 L126 1456 L126 0 C54 -69 34 -148 34 -227 C34 -358 114 -427 212 -427 C275 -427 315 -403 341 -383 L318 -242 C304 -251 287 -265 260 -265 C227 -265 213 -237 213 -197 C213 -119 251 -60 327 0 L327 0 Z " />
<glyph glyph-name="iogonek" unicode="&#x12f;" horiz-adv-x="465" d="M111 0 L117 0 C45 -69 25 -148 25 -227 C25 -358 105 -427 203 -427 C266 -427 306 -403 332 -383 L309 -242 C295 -251 278 -265 251 -265 C218 -265 204 -237 204 -197 C204 -119 242 -60 318 0 L354 0 L354 1082 L111 1082 L111 0 Z M231 1237 C313 1237 364 1292 364 1367 C364 1441 313 1497 231 1497 C151 1497 99 1441 99 1367 C99 1292 151 1237 231 1237 L231 1237 Z " />
<glyph glyph-name="Idotaccent" unicode="&#x130;" horiz-adv-x="500" d="M376 0 L376 1456 L126 1456 L126 0 L376 0 Z M248 1822 C170 1822 120 1769 120 1699 C120 1629 170 1576 248 1576 C324 1576 374 1629 374 1699 C374 1769 324 1822 248 1822 L248 1822 Z " />
<glyph glyph-name="dotlessi" unicode="&#x131;" horiz-adv-x="482" d="M360 0 L360 1082 L118 1082 L118 0 L360 0 Z " />
<glyph glyph-name="Kcommaaccent" unicode="&#x136;" horiz-adv-x="1151" d="M727 0 L1024 0 L632 824 L1016 1456 L708 1456 L446 962 L363 803 L363 1456 L113 1456 L113 0 L363 0 L363 474 L467 602 L727 0 Z M-106 -538 C-106 -640 -129 -712 -164 -786 L-46 -860 C22 -778 72 -643 72 -527 L72 -455 L-106 -455 L-106 -538 Z " />
<glyph glyph-name="kcommaaccent" unicode="&#x137;" horiz-adv-x="995" d="M601 0 L879 0 L561 642 L852 1082 L582 1082 L372 700 L341 658 L341 1537 L100 1537 L100 0 L341 0 L341 410 L398 463 L601 0 Z M-176 -560 C-176 -662 -199 -734 -234 -808 L-116 -882 C-48 -800 2 -665 2 -549 L2 -477 L-176 -477 L-176 -560 Z " />
<glyph glyph-name="Lacute" unicode="&#x139;" horiz-adv-x="884" d="M363 204 L363 1456 L113 1456 L113 0 L832 0 L832 204 L363 204 Z M566 1844 L297 1844 L125 1542 L326 1542 L566 1844 Z " />
<glyph glyph-name="lacute" unicode="&#x13a;" horiz-adv-x="538" d="M352 1536 L109 1536 L109 287 C109 63 205 -20 353 -20 C409 -20 451 -9 489 4 L492 193 C478 188 456 183 429 183 C375 183 352 203 352 304 L352 1536 Z M286 1935 L114 1633 L315 1633 L555 1935 L286 1935 Z " />
<glyph glyph-name="Lcommaaccent" unicode="&#x13b;" horiz-adv-x="994" d="M363 204 L363 1456 L113 1456 L113 0 L832 0 L832 204 L363 204 Z M-158 -588 C-158 -690 -181 -762 -216 -836 L-98 -910 C-30 -828 20 -693 20 -577 L20 -505 L-158 -505 L-158 -588 Z " />
<glyph glyph-name="lcommaaccent" unicode="&#x13c;" horiz-adv-x="521" d="M352 1536 L109 1536 L109 287 C109 63 205 -20 353 -20 C409 -20 451 -9 489 4 L492 193 C478 188 456 183 429 183 C375 183 352 203 352 304 L352 1536 Z M-248 -577 L-248 -505 L-426 -505 L-426 -588 C-426 -690 -449 -762 -484 -836 L-366 -910 C-298 -828 -248 -693 -248 -577 L-248 -577 Z " />
<glyph glyph-name="Lcaron" unicode="&#x13d;" horiz-adv-x="994" d="M363 204 L363 1456 L113 1456 L113 1033 L47 1033 L47 950 C47 848 24 776 -11 702 L107 628 L113 635 L113 0 L832 0 L832 204 L363 204 Z " />
<glyph glyph-name="lcaron" unicode="&#x13e;" horiz-adv-x="650" d="M429 183 C375 183 352 203 352 304 L352 1536 L109 1536 L109 1114 L-56 1114 L-56 1031 C-56 929 -79 857 -114 783 L4 709 C51 766 90 849 109 933 L109 287 C109 63 205 -20 353 -20 C409 -20 451 -9 489 4 L492 193 C478 188 456 183 429 183 L429 183 Z " />
<glyph glyph-name="Lslash" unicode="&#x141;" horiz-adv-x="1029" d="M400 204 L400 743 L542 797 L542 945 L400 891 L400 1456 L150 1456 L150 797 L47 758 L47 610 L150 649 L150 0 L869 0 L869 204 L400 204 Z " />
<glyph glyph-name="lslash" unicode="&#x142;" horiz-adv-x="595" d="M460 183 C406 183 383 203 383 304 L383 757 L480 799 L480 946 L383 904 L383 1536 L140 1536 L140 800 L46 759 L46 612 L140 653 L140 287 C140 63 236 -20 384 -20 C440 -20 482 -9 520 4 L523 193 C509 188 487 183 460 183 L460 183 Z " />
<glyph glyph-name="Nacute" unicode="&#x143;" horiz-adv-x="1134" d="M1019 0 L1019 1456 L770 1456 L770 488 L391 1456 L113 1456 L113 0 L363 0 L363 942 L753 0 L1019 0 Z M622 1846 L450 1544 L651 1544 L891 1846 L622 1846 Z " />
<glyph glyph-name="nacute" unicode="&#x144;" horiz-adv-x="912" d="M558 1102 C463 1102 385 1054 329 969 L322 1082 L95 1082 L95 0 L336 0 L336 801 C362 863 402 903 457 903 C532 903 573 848 573 699 L573 0 L814 0 L814 698 C814 994 709 1102 558 1102 L558 1102 Z M778 1536 L509 1536 L337 1234 L538 1234 L778 1536 Z " />
<glyph glyph-name="Ncommaaccent" unicode="&#x145;" horiz-adv-x="1273" d="M1019 0 L1019 1456 L770 1456 L770 488 L391 1456 L113 1456 L113 0 L363 0 L363 942 L753 0 L1019 0 Z M131 -585 L131 -513 L-47 -513 L-47 -596 C-47 -698 -70 -770 -105 -844 L13 -918 C81 -836 131 -701 131 -585 L131 -585 Z " />
<glyph glyph-name="ncommaaccent" unicode="&#x146;" horiz-adv-x="1023" d="M558 1102 C463 1102 385 1054 329 969 L322 1082 L95 1082 L95 0 L336 0 L336 801 C362 863 402 903 457 903 C532 903 573 848 573 699 L573 0 L814 0 L814 698 C814 994 709 1102 558 1102 L558 1102 Z M-177 -588 C-177 -690 -200 -762 -235 -836 L-117 -910 C-49 -828 1 -693 1 -577 L1 -505 L-177 -505 L-177 -588 Z " />
<glyph glyph-name="Ncaron" unicode="&#x147;" horiz-adv-x="1134" d="M1019 0 L1019 1456 L770 1456 L770 488 L391 1456 L113 1456 L113 0 L363 0 L363 942 L753 0 L1019 0 Z M569 1691 L464 1846 L258 1846 L258 1836 L493 1558 L644 1558 L880 1835 L880 1846 L675 1846 L569 1691 Z " />
<glyph glyph-name="ncaron" unicode="&#x148;" horiz-adv-x="912" d="M558 1102 C463 1102 385 1054 329 969 L322 1082 L95 1082 L95 0 L336 0 L336 801 C362 863 402 903 457 903 C532 903 573 848 573 699 L573 0 L814 0 L814 698 C814 994 709 1102 558 1102 L558 1102 Z M531 1248 L767 1525 L767 1536 L562 1536 L456 1381 L351 1536 L145 1536 L145 1526 L380 1248 L531 1248 Z " />
<glyph glyph-name="Eng" unicode="&#x14a;" horiz-adv-x="1128" d="M767 1456 L767 523 L363 1456 L111 1456 L111 0 L363 0 L363 933 L767 0 L767 -53 C767 -167 738 -232 687 -232 C659 -232 636 -228 611 -220 L601 -420 C642 -433 675 -437 716 -437 C904 -437 1018 -301 1018 -53 L1018 1456 L767 1456 Z " />
<glyph glyph-name="eng" unicode="&#x14b;" horiz-adv-x="919" d="M558 1102 C464 1102 386 1040 333 937 L323 1082 L98 1082 L98 0 L339 0 L339 815 C370 870 414 903 470 903 C542 903 579 845 579 668 L579 -58 C579 -175 551 -234 499 -234 C473 -234 450 -230 427 -222 L416 -420 C455 -433 487 -437 525 -437 C709 -437 821 -303 821 -58 L821 670 C821 979 714 1102 558 1102 L558 1102 Z " />
<glyph glyph-name="Omacron" unicode="&#x14c;" horiz-adv-x="1114" d="M1025 608 L1025 839 C1025 1256 836 1476 556 1476 C277 1476 88 1256 88 839 L88 608 C88 195 280 -20 558 -20 C837 -20 1025 195 1025 608 L1025 608 Z M824 1610 L824 1765 L291 1765 L291 1610 L824 1610 Z M774 841 L774 608 C774 315 698 188 558 188 C417 188 339 315 339 608 L339 841 C339 1139 416 1267 556 1267 C697 1267 774 1139 774 841 L774 841 Z " />
<glyph glyph-name="omacron" unicode="&#x14d;" horiz-adv-x="922" d="M70 581 L70 501 C70 165 221 -20 462 -20 C701 -20 852 165 852 501 L852 581 C852 917 701 1102 460 1102 C221 1102 70 917 70 581 L70 581 Z M724 1298 L724 1453 L191 1453 L191 1298 L724 1298 Z M311 501 L311 581 C311 793 366 905 460 905 C557 905 610 793 610 581 L610 501 C610 285 560 178 462 178 C365 178 311 285 311 501 L311 501 Z " />
<glyph glyph-name="Ohungarumlaut" unicode="&#x150;" horiz-adv-x="1114" d="M1025 608 L1025 839 C1025 1256 836 1476 556 1476 C277 1476 88 1256 88 839 L88 608 C88 195 280 -20 558 -20 C837 -20 1025 195 1025 608 L1025 608 Z M450 1847 L316 1546 L490 1546 L661 1847 L450 1847 Z M756 1847 L593 1546 L771 1546 L969 1847 L756 1847 Z M774 841 L774 608 C774 315 698 188 558 188 C417 188 339 315 339 608 L339 841 C339 1139 416 1267 556 1267 C697 1267 774 1139 774 841 L774 841 Z " />
<glyph glyph-name="ohungarumlaut" unicode="&#x151;" horiz-adv-x="922" d="M70 581 L70 501 C70 165 221 -20 462 -20 C701 -20 852 165 852 501 L852 581 C852 917 701 1102 460 1102 C221 1102 70 917 70 581 L70 581 Z M350 1535 L216 1234 L390 1234 L561 1535 L350 1535 Z M656 1535 L493 1234 L671 1234 L869 1535 L656 1535 Z M311 501 L311 581 C311 793 366 905 460 905 C557 905 610 793 610 581 L610 501 C610 285 560 178 462 178 C365 178 311 285 311 501 L311 501 Z " />
<glyph glyph-name="OE" unicode="&#x152;" horiz-adv-x="1751" d="M957 204 L957 650 L1377 650 L1377 851 L957 851 L957 1251 L1450 1251 L1450 1456 L771 1456 C705 1467 632 1477 556 1477 C280 1477 93 1233 93 880 L93 576 C93 223 282 -21 558 -21 C632 -21 705 -10 771 0 L1452 0 L1452 204 L957 204 Z M334 576 L334 882 C334 1144 419 1280 556 1280 C608 1280 660 1275 707 1267 L707 190 C660 182 610 177 558 177 C421 177 334 314 334 576 L334 576 Z " />
<glyph glyph-name="oe" unicode="&#x153;" horiz-adv-x="1430" d="M1349 616 C1349 906 1228 1102 998 1102 C892 1102 805 1054 742 971 C677 1053 586 1102 472 1102 C221 1102 84 866 84 551 L84 530 C84 216 221 -21 473 -21 C588 -21 679 29 744 114 C811 29 904 -21 1020 -21 C1164 -21 1275 44 1334 109 L1268 267 C1205 216 1150 177 1046 177 C930 177 877 307 869 471 L1349 471 L1349 616 Z M618 530 C618 337 584 177 473 177 C360 177 326 337 326 530 L326 551 C326 742 361 905 472 905 C585 905 618 742 618 551 L618 530 Z M1113 649 L871 649 C881 796 919 905 998 905 C1082 905 1113 803 1113 674 L1113 649 Z " />
<glyph glyph-name="Racute" unicode="&#x154;" horiz-adv-x="1025" d="M747 620 C868 689 941 820 941 1018 C941 1303 788 1456 530 1456 L114 1456 L114 0 L364 0 L364 562 L503 562 L712 0 L981 0 L981 14 L747 620 Z M794 1846 L525 1846 L353 1544 L554 1544 L794 1846 Z M364 1251 L530 1251 C641 1251 690 1155 690 1004 C690 865 635 763 525 763 L364 763 L364 1251 Z " />
<glyph glyph-name="racute" unicode="&#x155;" horiz-adv-x="613" d="M336 964 L329 1082 L100 1082 L100 0 L342 0 L342 743 C366 814 414 851 490 851 C514 851 549 849 572 843 L574 1089 C559 1096 528 1102 505 1102 C432 1102 375 1050 336 964 L336 964 Z M654 1536 L385 1536 L213 1234 L414 1234 L654 1536 Z " />
<glyph glyph-name="Rcommaaccent" unicode="&#x156;" horiz-adv-x="1155" d="M747 620 C868 689 941 820 941 1018 C941 1303 788 1456 530 1456 L114 1456 L114 0 L364 0 L364 562 L503 562 L712 0 L981 0 L981 14 L747 620 Z M-142 -588 C-142 -690 -165 -762 -200 -836 L-82 -910 C-14 -828 36 -693 36 -577 L36 -505 L-142 -505 L-142 -588 Z M364 1251 L530 1251 C641 1251 690 1155 690 1004 C690 865 635 763 525 763 L364 763 L364 1251 Z " />
<glyph glyph-name="rcommaaccent" unicode="&#x157;" horiz-adv-x="689" d="M505 1102 C432 1102 375 1050 336 964 L329 1082 L100 1082 L100 0 L342 0 L342 743 C366 814 414 851 490 851 C514 851 549 849 572 843 L574 1089 C559 1096 528 1102 505 1102 L505 1102 Z M-434 -588 C-434 -690 -457 -762 -492 -836 L-374 -910 C-306 -828 -256 -693 -256 -577 L-256 -505 L-434 -505 L-434 -588 Z " />
<glyph glyph-name="Rcaron" unicode="&#x158;" horiz-adv-x="1025" d="M747 620 C868 689 941 820 941 1018 C941 1303 788 1456 530 1456 L114 1456 L114 0 L364 0 L364 562 L503 562 L712 0 L981 0 L981 14 L747 620 Z M547 1558 L783 1835 L783 1846 L578 1846 L472 1691 L367 1846 L161 1846 L161 1836 L396 1558 L547 1558 Z M364 1251 L530 1251 C641 1251 690 1155 690 1004 C690 865 635 763 525 763 L364 763 L364 1251 Z " />
<glyph glyph-name="rcaron" unicode="&#x159;" horiz-adv-x="613" d="M336 964 L329 1082 L100 1082 L100 0 L342 0 L342 743 C366 814 414 851 490 851 C514 851 549 849 572 843 L574 1089 C559 1096 528 1102 505 1102 C432 1102 375 1050 336 964 L336 964 Z M438 1536 L332 1381 L227 1536 L21 1536 L21 1526 L256 1248 L407 1248 L643 1525 L643 1536 L438 1536 Z " />
<glyph glyph-name="Sacute" unicode="&#x15a;" horiz-adv-x="997" d="M473 624 C643 546 671 494 671 377 C671 261 628 182 522 182 C395 182 324 257 324 444 L84 444 C84 130 256 -20 522 -20 C793 -20 923 129 923 382 C923 611 800 749 559 852 C427 903 355 967 355 1075 C355 1187 406 1273 512 1273 C625 1273 673 1172 673 1032 L911 1032 C911 1279 807 1476 516 1476 C256 1476 106 1311 106 1074 C106 834 275 708 473 624 L473 624 Z M564 1848 L392 1546 L593 1546 L833 1848 L564 1848 Z " />
<glyph glyph-name="sacute" unicode="&#x15b;" horiz-adv-x="841" d="M363 450 C478 395 534 364 534 280 C534 208 491 162 415 162 C342 162 279 205 276 331 L59 331 C59 153 156 -20 424 -20 C655 -20 769 107 769 300 C769 502 655 560 486 641 C365 697 317 718 317 801 C317 865 350 921 426 921 C505 921 537 852 537 767 L766 767 C766 961 657 1102 421 1102 C183 1102 86 960 86 784 C86 598 191 533 363 450 L363 450 Z M476 1536 L304 1234 L505 1234 L745 1536 L476 1536 Z " />
<glyph glyph-name="Scedilla" unicode="&#x15e;" horiz-adv-x="997" d="M923 382 C923 611 800 749 559 852 C427 903 355 967 355 1075 C355 1187 406 1273 512 1273 C625 1273 673 1172 673 1032 L911 1032 C911 1279 807 1476 516 1476 C256 1476 106 1311 106 1074 C106 834 275 708 473 624 C643 546 671 494 671 377 C671 261 628 182 522 182 C395 182 324 257 324 444 L84 444 C84 170 215 21 425 -13 L403 -135 C478 -144 507 -161 507 -221 C507 -285 480 -311 434 -311 L439 -451 C618 -451 708 -360 708 -225 C708 -110 653 -65 599 -52 L605 -15 C820 13 923 156 923 382 L923 382 Z " />
<glyph glyph-name="scedilla" unicode="&#x15f;" horiz-adv-x="841" d="M769 300 C769 502 655 560 486 641 C365 697 317 718 317 801 C317 865 350 921 426 921 C505 921 537 852 537 767 L766 767 C766 961 657 1102 421 1102 C183 1102 86 960 86 784 C86 598 191 533 363 450 C478 395 534 364 534 280 C534 208 491 162 415 162 C342 162 279 205 276 331 L59 331 C59 174 134 21 336 -13 L312 -145 C387 -154 416 -171 416 -231 C416 -295 389 -321 343 -321 L348 -461 C527 -461 617 -370 617 -235 C617 -120 562 -75 508 -62 L516 -12 C685 18 769 135 769 300 L769 300 Z " />
<glyph glyph-name="Scaron" unicode="&#x160;" horiz-adv-x="997" d="M473 624 C643 546 671 494 671 377 C671 261 628 182 522 182 C395 182 324 257 324 444 L84 444 C84 130 256 -20 522 -20 C793 -20 923 129 923 382 C923 611 800 749 559 852 C427 903 355 967 355 1075 C355 1187 406 1273 512 1273 C625 1273 673 1172 673 1032 L911 1032 C911 1279 807 1476 516 1476 C256 1476 106 1311 106 1074 C106 834 275 708 473 624 L473 624 Z M511 1693 L406 1848 L200 1848 L200 1838 L435 1560 L586 1560 L822 1837 L822 1848 L617 1848 L511 1693 Z " />
<glyph glyph-name="scaron" unicode="&#x161;" horiz-adv-x="841" d="M363 450 C478 395 534 364 534 280 C534 208 491 162 415 162 C342 162 279 205 276 331 L59 331 C59 153 156 -20 424 -20 C655 -20 769 107 769 300 C769 502 655 560 486 641 C365 697 317 718 317 801 C317 865 350 921 426 921 C505 921 537 852 537 767 L766 767 C766 961 657 1102 421 1102 C183 1102 86 960 86 784 C86 598 191 533 363 450 L363 450 Z M423 1381 L318 1536 L112 1536 L112 1526 L347 1248 L498 1248 L734 1525 L734 1536 L529 1536 L423 1381 Z " />
<glyph glyph-name="uni0162" unicode="&#x162;" horiz-adv-x="1002" d="M624 0 L624 1251 L951 1251 L951 1456 L51 1456 L51 1251 L373 1251 L373 0 L409 0 L386 -130 C461 -139 490 -156 490 -216 C490 -280 463 -306 417 -306 L422 -446 C601 -446 691 -355 691 -220 C691 -105 636 -60 582 -47 L589 0 L624 0 Z " />
<glyph glyph-name="uni0163" unicode="&#x163;" horiz-adv-x="571" d="M436 -52 L442 -16 C472 -12 498 -4 522 4 L524 193 C510 188 488 183 461 183 C407 183 384 203 384 304 L384 902 L517 902 L517 1082 L384 1082 L384 1347 L142 1347 L142 1082 L27 1082 L27 902 L142 902 L142 287 C142 132 188 44 265 5 L240 -135 C315 -144 344 -161 344 -221 C344 -285 317 -311 271 -311 L276 -451 C455 -451 545 -360 545 -225 C545 -110 490 -65 436 -52 L436 -52 Z " />
<glyph glyph-name="Tcaron" unicode="&#x164;" horiz-adv-x="1002" d="M951 1456 L51 1456 L51 1251 L373 1251 L373 0 L624 0 L624 1251 L951 1251 L951 1456 Z M573 1558 L809 1835 L809 1846 L604 1846 L498 1691 L393 1846 L187 1846 L187 1836 L422 1558 L573 1558 Z " />
<glyph glyph-name="tcaron" unicode="&#x165;" horiz-adv-x="672" d="M461 183 C407 183 384 203 384 304 L384 902 L517 902 L517 1082 L384 1082 L384 1347 L142 1347 L142 1245 L2 1245 L2 1162 C2 1060 -21 988 -56 914 L62 840 C77 858 91 879 104 902 L142 902 L142 287 C142 63 237 -20 385 -20 C442 -20 484 -9 522 4 L524 193 C510 188 488 183 461 183 L461 183 Z " />
<glyph glyph-name="Tbar" unicode="&#x166;" horiz-adv-x="1002" d="M951 1251 L951 1456 L51 1456 L51 1251 L373 1251 L373 949 L218 949 L218 780 L373 780 L373 0 L624 0 L624 780 L756 780 L756 949 L624 949 L624 1251 L951 1251 Z " />
<glyph glyph-name="tbar" unicode="&#x167;" horiz-adv-x="571" d="M530 562 L530 731 L384 731 L384 902 L517 902 L517 1082 L384 1082 L384 1347 L142 1347 L142 1082 L27 1082 L27 902 L142 902 L142 731 L-8 731 L-8 562 L142 562 L142 287 C142 63 237 -20 385 -20 C442 -20 484 -9 522 4 L524 193 C510 188 488 183 461 183 C407 183 384 203 384 304 L384 562 L530 562 Z " />
<glyph glyph-name="Utilde" unicode="&#x168;" horiz-adv-x="1059" d="M957 1456 L705 1456 L705 450 C705 242 644 184 530 184 C417 184 354 242 354 450 L354 1456 L102 1456 L102 450 C102 116 280 -20 530 -20 C777 -20 957 116 957 450 L957 1456 Z M814 1824 L677 1836 C677 1773 650 1732 617 1732 C541 1732 488 1822 410 1822 C308 1822 235 1709 235 1564 L373 1557 C373 1619 399 1660 432 1660 C510 1660 542 1569 638 1569 C740 1569 814 1678 814 1824 L814 1824 Z " />
<glyph glyph-name="utilde" unicode="&#x169;" horiz-adv-x="912" d="M572 1082 L572 284 C547 220 505 180 436 180 C378 180 336 229 336 381 L336 1082 L95 1082 L95 383 C95 96 205 -20 365 -20 C459 -20 531 25 581 101 L587 0 L815 0 L815 1082 L572 1082 Z M360 1350 C438 1350 470 1259 566 1259 C668 1259 742 1368 742 1514 L605 1526 C605 1463 578 1422 545 1422 C469 1422 416 1512 338 1512 C236 1512 163 1399 163 1254 L301 1247 C301 1309 327 1350 360 1350 L360 1350 Z " />
<glyph glyph-name="Umacron" unicode="&#x16a;" horiz-adv-x="1059" d="M957 1456 L705 1456 L705 450 C705 242 644 184 530 184 C417 184 354 242 354 450 L354 1456 L102 1456 L102 450 C102 116 280 -20 530 -20 C777 -20 957 116 957 450 L957 1456 Z M792 1608 L792 1763 L259 1763 L259 1608 L792 1608 Z " />
<glyph glyph-name="umacron" unicode="&#x16b;" horiz-adv-x="912" d="M572 1082 L572 284 C547 220 505 180 436 180 C378 180 336 229 336 381 L336 1082 L95 1082 L95 383 C95 96 205 -20 365 -20 C459 -20 531 25 581 101 L587 0 L815 0 L815 1082 L572 1082 Z M720 1453 L187 1453 L187 1298 L720 1298 L720 1453 Z " />
<glyph glyph-name="Uring" unicode="&#x16e;" horiz-adv-x="1059" d="M957 1456 L705 1456 L705 450 C705 242 644 184 530 184 C417 184 354 242 354 450 L354 1456 L102 1456 L102 450 C102 116 280 -20 530 -20 C777 -20 957 116 957 450 L957 1456 Z M528 1935 C416 1935 335 1842 335 1730 C335 1616 416 1527 528 1527 C638 1527 719 1616 719 1730 C719 1842 638 1935 528 1935 L528 1935 Z M528 1618 C471 1618 435 1671 435 1730 C435 1790 471 1842 528 1842 C584 1842 620 1790 620 1730 C620 1669 584 1618 528 1618 L528 1618 Z " />
<glyph glyph-name="uring" unicode="&#x16f;" horiz-adv-x="912" d="M572 1082 L572 284 C547 220 505 180 436 180 C378 180 336 229 336 381 L336 1082 L95 1082 L95 383 C95 96 205 -20 365 -20 C459 -20 531 25 581 101 L587 0 L815 0 L815 1082 L572 1082 Z M456 1217 C566 1217 647 1306 647 1420 C647 1532 566 1625 456 1625 C344 1625 263 1532 263 1420 C263 1306 344 1217 456 1217 L456 1217 Z M456 1532 C512 1532 548 1480 548 1420 C548 1359 512 1308 456 1308 C399 1308 363 1361 363 1420 C363 1480 399 1532 456 1532 L456 1532 Z " />
<glyph glyph-name="Uhungarumlaut" unicode="&#x170;" horiz-adv-x="1059" d="M957 1456 L705 1456 L705 450 C705 242 644 184 530 184 C417 184 354 242 354 450 L354 1456 L102 1456 L102 450 C102 116 280 -20 530 -20 C777 -20 957 116 957 450 L957 1456 Z M418 1845 L284 1544 L458 1544 L629 1845 L418 1845 Z M724 1845 L561 1544 L739 1544 L937 1845 L724 1845 Z " />
<glyph glyph-name="uhungarumlaut" unicode="&#x171;" horiz-adv-x="912" d="M572 284 C547 220 505 180 436 180 C378 180 336 229 336 381 L336 1082 L95 1082 L95 383 C95 96 205 -20 365 -20 C459 -20 531 25 581 101 L587 0 L815 0 L815 1082 L572 1082 L572 284 Z M557 1535 L346 1535 L212 1234 L386 1234 L557 1535 Z M667 1234 L865 1535 L652 1535 L489 1234 L667 1234 Z " />
<glyph glyph-name="Uogonek" unicode="&#x172;" horiz-adv-x="1059" d="M705 1456 L705 450 C705 242 644 184 530 184 C417 184 354 242 354 450 L354 1456 L102 1456 L102 450 C102 116 280 -20 530 -20 L533 -20 C508 -68 500 -118 500 -169 C500 -300 580 -369 678 -369 C741 -369 781 -345 807 -325 L784 -184 C770 -193 753 -207 726 -207 C693 -207 679 -179 679 -139 C679 -70 709 -16 769 38 C885 106 957 238 957 450 L957 1456 L705 1456 Z " />
<glyph glyph-name="uogonek" unicode="&#x173;" horiz-adv-x="912" d="M788 0 L815 0 L815 1082 L572 1082 L572 284 C547 220 505 180 436 180 C378 180 336 229 336 381 L336 1082 L95 1082 L95 383 C95 96 205 -20 365 -20 C459 -20 531 25 581 101 L587 0 C515 -69 495 -148 495 -227 C495 -358 575 -427 673 -427 C736 -427 776 -403 802 -383 L779 -242 C765 -251 748 -265 721 -265 C688 -265 674 -237 674 -197 C674 -119 712 -60 788 0 L788 0 Z " />
<glyph glyph-name="Wcircumflex" unicode="&#x174;" horiz-adv-x="1389" d="M1097 1456 L969 468 L807 1456 L584 1456 L427 478 L295 1456 L46 1456 L282 0 L541 0 L695 930 L851 0 L1110 0 L1345 1456 L1097 1456 Z M700 1714 L813 1558 L1002 1558 L1002 1570 L769 1846 L630 1846 L401 1573 L401 1558 L587 1558 L700 1714 Z " />
<glyph glyph-name="wcircumflex" unicode="&#x175;" horiz-adv-x="1175" d="M903 1082 L810 342 L673 1082 L499 1082 L361 350 L270 1082 L38 1082 L242 0 L443 0 L587 705 L730 0 L930 0 L1134 1082 L903 1082 Z M586 1404 L699 1248 L888 1248 L888 1260 L655 1536 L516 1536 L287 1263 L287 1248 L473 1248 L586 1404 Z " />
<glyph glyph-name="Ycircumflex" unicode="&#x176;" horiz-adv-x="1003" d="M502 761 L294 1456 L20 1456 L375 535 L375 0 L628 0 L628 535 L982 1456 L708 1456 L502 761 Z M806 1570 L573 1846 L434 1846 L205 1573 L205 1558 L391 1558 L504 1714 L617 1558 L806 1558 L806 1570 Z " />
<glyph glyph-name="ycircumflex" unicode="&#x177;" horiz-adv-x="825" d="M544 1082 L413 314 L281 1082 L21 1082 L306 -19 L290 -49 C270 -182 227 -234 144 -234 C134 -234 123 -232 113 -232 L113 -420 C150 -429 170 -437 214 -437 C390 -437 453 -273 482 -165 L804 1082 L544 1082 Z M415 1404 L528 1248 L717 1248 L717 1260 L484 1536 L345 1536 L116 1263 L116 1248 L302 1248 L415 1404 Z " />
<glyph glyph-name="Ydieresis" unicode="&#x178;" horiz-adv-x="1003" d="M502 761 L294 1456 L20 1456 L375 535 L375 0 L628 0 L628 535 L982 1456 L708 1456 L502 761 Z M286 1797 C216 1797 166 1745 166 1679 C166 1613 216 1562 286 1562 C355 1562 405 1613 405 1679 C405 1745 355 1797 286 1797 L286 1797 Z M708 1795 C639 1795 589 1744 589 1677 C589 1612 639 1561 708 1561 C778 1561 827 1612 827 1677 C827 1744 778 1795 708 1795 L708 1795 Z " />
<glyph glyph-name="Zacute" unicode="&#x179;" horiz-adv-x="983" d="M354 204 L908 1300 L908 1456 L72 1456 L72 1251 L634 1251 L75 161 L75 0 L919 0 L919 204 L354 204 Z M821 1846 L552 1846 L380 1544 L581 1544 L821 1846 Z " />
<glyph glyph-name="zacute" unicode="&#x17a;" horiz-adv-x="837" d="M347 198 L752 930 L752 1082 L87 1082 L87 885 L481 885 L77 158 L77 0 L760 0 L760 198 L347 198 Z M739 1536 L470 1536 L298 1234 L499 1234 L739 1536 Z " />
<glyph glyph-name="Zdotaccent" unicode="&#x17b;" horiz-adv-x="983" d="M354 204 L908 1300 L908 1456 L72 1456 L72 1251 L634 1251 L75 161 L75 0 L919 0 L919 204 L354 204 Z M497 1569 C573 1569 623 1622 623 1692 C623 1762 573 1815 497 1815 C419 1815 369 1762 369 1692 C369 1622 419 1569 497 1569 L497 1569 Z " />
<glyph glyph-name="zdotaccent" unicode="&#x17c;" horiz-adv-x="837" d="M347 198 L752 930 L752 1082 L87 1082 L87 885 L481 885 L77 158 L77 0 L760 0 L760 198 L347 198 Z M415 1259 C491 1259 541 1312 541 1382 C541 1452 491 1505 415 1505 C337 1505 287 1452 287 1382 C287 1312 337 1259 415 1259 L415 1259 Z " />
<glyph glyph-name="Zcaron" unicode="&#x17d;" horiz-adv-x="983" d="M354 204 L908 1300 L908 1456 L72 1456 L72 1251 L634 1251 L75 161 L75 0 L919 0 L919 204 L354 204 Z M574 1558 L810 1835 L810 1846 L605 1846 L499 1691 L394 1846 L188 1846 L188 1836 L423 1558 L574 1558 Z " />
<glyph glyph-name="zcaron" unicode="&#x17e;" horiz-adv-x="837" d="M347 198 L752 930 L752 1082 L87 1082 L87 885 L481 885 L77 158 L77 0 L760 0 L760 198 L347 198 Z M492 1248 L728 1525 L728 1536 L523 1536 L417 1381 L312 1536 L106 1536 L106 1526 L341 1248 L492 1248 Z " />
<glyph glyph-name="florin" unicode="&#x192;" horiz-adv-x="610" d="M544 902 L544 1082 L396 1082 L396 1186 C396 1296 430 1357 497 1357 C528 1357 549 1353 569 1347 L590 1536 C548 1548 508 1557 466 1557 C270 1557 154 1426 154 1186 L154 1082 L36 1082 L36 902 L154 902 L154 -66 C154 -178 138 -240 80 -240 C64 -240 27 -235 13 -228 L1 -420 C40 -433 73 -437 112 -437 C289 -437 396 -306 396 -66 L397 902 L544 902 Z " />
<glyph glyph-name="Ohorn" unicode="&#x1a0;" horiz-adv-x="1273" d="M1136 1577 L974 1577 C974 1440 956 1346 902 1312 C819 1420 702 1476 561 1476 C282 1476 93 1256 93 839 L93 608 C93 195 285 -20 563 -20 C842 -20 1030 195 1030 608 L1030 839 C1030 973 1011 1086 975 1179 C1084 1235 1136 1373 1136 1577 L1136 1577 Z M779 608 C779 315 703 188 563 188 C422 188 344 315 344 608 L344 841 C344 1139 421 1267 561 1267 C702 1267 779 1139 779 841 L779 608 Z " />
<glyph glyph-name="ohorn" unicode="&#x1a1;" horiz-adv-x="1066" d="M937 1191 L793 1191 C793 1092 783 1017 747 976 C679 1059 584 1102 467 1102 C228 1102 77 917 77 581 L77 501 C77 165 228 -20 469 -20 C708 -20 859 165 859 501 L859 581 C859 691 843 784 813 860 C899 918 937 1033 937 1191 L937 1191 Z M617 501 C617 285 567 178 469 178 C372 178 318 285 318 501 L318 581 C318 793 373 905 467 905 C564 905 617 793 617 581 L617 501 Z " />
<glyph glyph-name="Uhorn" unicode="&#x1af;" horiz-adv-x="1302" d="M1258 1538 L1100 1538 C1100 1361 1088 1254 964 1237 L964 1456 L712 1456 L712 450 C712 242 651 184 537 184 C424 184 361 242 361 450 L361 1456 L109 1456 L109 450 C109 116 287 -20 537 -20 C784 -20 964 116 964 450 L964 1088 C1189 1105 1258 1263 1258 1538 L1258 1538 Z " />
<glyph glyph-name="uhorn" unicode="&#x1b0;" horiz-adv-x="1120" d="M1043 1174 L902 1174 C902 1053 894 981 822 955 L822 1082 L579 1082 L579 284 C554 220 512 180 443 180 C385 180 343 229 343 381 L343 1082 L102 1082 L102 383 C102 96 212 -20 372 -20 C466 -20 538 25 588 101 L594 0 L822 0 L822 823 C988 850 1043 969 1043 1174 L1043 1174 Z " />
<glyph glyph-name="Scommaaccent" unicode="&#x218;" horiz-adv-x="1124" d="M473 624 C643 546 671 494 671 377 C671 261 628 182 522 182 C395 182 324 257 324 444 L84 444 C84 130 256 -20 522 -20 C793 -20 923 129 923 382 C923 611 800 749 559 852 C427 903 355 967 355 1075 C355 1187 406 1273 512 1273 C625 1273 673 1172 673 1032 L911 1032 C911 1279 807 1476 516 1476 C256 1476 106 1311 106 1074 C106 834 275 708 473 624 L473 624 Z M71 -587 L71 -515 L-107 -515 L-107 -598 C-107 -700 -130 -772 -165 -846 L-47 -920 C21 -838 71 -703 71 -587 L71 -587 Z " />
<glyph glyph-name="scommaaccent" unicode="&#x219;" horiz-adv-x="942" d="M363 450 C478 395 534 364 534 280 C534 208 491 162 415 162 C342 162 279 205 276 331 L59 331 C59 153 156 -20 424 -20 C655 -20 769 107 769 300 C769 502 655 560 486 641 C365 697 317 718 317 801 C317 865 350 921 426 921 C505 921 537 852 537 767 L766 767 C766 961 657 1102 421 1102 C183 1102 86 960 86 784 C86 598 191 533 363 450 L363 450 Z M-38 -597 L-38 -525 L-216 -525 L-216 -608 C-216 -710 -239 -782 -274 -856 L-156 -930 C-88 -848 -38 -713 -38 -597 L-38 -597 Z " />
<glyph glyph-name="uni021A" unicode="&#x21a;" horiz-adv-x="1131" d="M951 1456 L51 1456 L51 1251 L373 1251 L373 0 L624 0 L624 1251 L951 1251 L951 1456 Z M-126 -590 C-126 -692 -149 -764 -184 -838 L-66 -912 C2 -830 52 -695 52 -579 L52 -507 L-126 -507 L-126 -590 Z " />
<glyph glyph-name="uni021B" unicode="&#x21b;" horiz-adv-x="637" d="M461 183 C407 183 384 203 384 304 L384 902 L517 902 L517 1082 L384 1082 L384 1347 L142 1347 L142 1082 L27 1082 L27 902 L142 902 L142 287 C142 63 237 -20 385 -20 C442 -20 484 -9 522 4 L524 193 C510 188 488 183 461 183 L461 183 Z M-296 -598 C-296 -700 -319 -772 -354 -846 L-236 -920 C-168 -838 -118 -703 -118 -587 L-118 -515 L-296 -515 L-296 -598 Z " />
<glyph glyph-name="uni0298" unicode="&#x298;" horiz-adv-x="1254" d="M555 868 C473 868 421 809 421 732 C421 656 473 598 555 598 C637 598 689 656 689 732 C689 809 637 868 555 868 L555 868 Z M1032 608 L1032 839 C1032 1256 843 1476 563 1476 C284 1476 95 1256 95 839 L95 608 C95 195 287 -20 565 -20 C844 -20 1032 195 1032 608 L1032 608 Z M781 841 L781 608 C781 315 705 188 565 188 C424 188 346 315 346 608 L346 841 C346 1139 423 1267 563 1267 C704 1267 781 1139 781 841 L781 841 Z " />
<glyph glyph-name="uni02AA" unicode="&#x2aa;" horiz-adv-x="1305" d="M776 642 C680 667 625 705 625 786 C625 857 663 921 725 921 C799 921 832 845 832 759 L1073 759 C1073 954 940 1102 725 1102 C517 1102 393 951 393 775 C393 592 520 505 685 452 C803 415 842 372 842 295 C842 216 807 165 702 165 C625 165 493 192 359 293 L359 304 L359 1536 L116 1536 L116 287 C116 63 212 -20 360 -20 C416 -20 458 -9 496 4 L496 12 C567 -11 636 -20 703 -20 C939 -20 1076 116 1076 307 C1076 492 971 584 776 642 L776 642 Z " />
<glyph glyph-name="uni02AD" unicode="&#x2ad;" horiz-adv-x="808" d="M718 583 L91 583 L91 0 L265 0 L265 437 L544 437 L544 0 L718 0 L718 583 Z M718 1456 L91 1456 L91 873 L265 873 L265 1310 L544 1310 L544 873 L718 873 L718 1456 Z " />
<glyph glyph-name="uni02AF" unicode="&#x2af;" horiz-adv-x="1141" d="M1054 -266 C1000 -266 932 -228 932 -111 L932 1082 L690 1082 L690 277 C667 217 629 180 567 180 C501 180 454 233 454 448 L454 777 C454 1025 285 1102 155 1102 C107 1102 71 1097 39 1089 L38 924 C57 929 73 931 90 931 C145 931 212 894 212 777 L212 450 C212 116 324 -20 485 -20 C571 -20 640 23 690 96 L690 -111 C690 -359 859 -437 987 -437 C1036 -437 1073 -432 1105 -423 L1106 -259 C1088 -263 1070 -266 1054 -266 L1054 -266 Z " />
<glyph glyph-name="uni02B5" unicode="&#x2b5;" horiz-adv-x="566" d="M469 520 C419 520 396 546 396 603 L396 1454 L219 1454 L219 902 C201 855 170 829 128 829 C99 829 73 838 52 849 L52 647 C58 643 75 641 95 641 C146 641 188 676 219 737 L219 586 C219 412 285 335 398 335 C435 335 473 342 515 352 L515 528 C500 524 484 520 469 520 L469 520 Z " />
<glyph glyph-name="uni02B9" unicode="&#x2b9;" horiz-adv-x="424" d="M134 1562 L66 1209 L189 1209 L358 1562 L134 1562 Z " />
<glyph glyph-name="uni02BA" unicode="&#x2ba;" horiz-adv-x="725" d="M141 1562 L73 1209 L196 1209 L365 1562 L141 1562 Z M489 1562 L421 1209 L544 1209 L713 1562 L489 1562 Z " />
<glyph glyph-name="uni02BB" unicode="&#x2bb;" horiz-adv-x="429" d="M82 1192 L82 1001 L286 1001 L286 1193 C286 1319 311 1414 346 1502 L228 1577 C148 1485 82 1325 82 1192 L82 1192 Z " />
<glyph glyph-name="uni02BC" unicode="&#x2bc;" horiz-adv-x="413" d="M330 1393 L330 1536 L138 1536 L138 1392 C138 1275 108 1186 72 1103 L184 1027 C264 1115 330 1267 330 1393 L330 1393 Z " />
<glyph glyph-name="uni02BD" unicode="&#x2bd;" horiz-adv-x="429" d="M82 1387 L82 1577 L286 1577 L286 1386 C286 1260 311 1165 346 1077 L228 1001 C148 1093 82 1253 82 1387 L82 1387 Z " />
<glyph glyph-name="uni02BE" unicode="&#x2be;" horiz-adv-x="310" d="M72 1220 L72 1130 C166 1130 238 1208 238 1320 C238 1432 166 1515 72 1515 L72 1422 C116 1422 144 1380 144 1320 C144 1262 116 1220 72 1220 L72 1220 Z " />
<glyph glyph-name="uni02BF" unicode="&#x2bf;" horiz-adv-x="310" d="M238 1220 L238 1130 C146 1130 72 1208 72 1320 C72 1432 146 1515 238 1515 L238 1422 C195 1422 166 1380 166 1320 C166 1262 195 1220 238 1220 L238 1220 Z " />
<glyph glyph-name="uni02C0" unicode="&#x2c0;" horiz-adv-x="621" d="M289 1807 C142 1807 48 1691 47 1520 L218 1520 C221 1592 235 1643 292 1643 C362 1643 373 1550 373 1410 L373 1266 C373 1140 347 1030 267 1030 L206 1030 L206 652 L391 652 L391 889 C500 940 556 1078 556 1272 L556 1412 C556 1641 467 1807 289 1807 L289 1807 Z " />
<glyph glyph-name="uni02C1" unicode="&#x2c1;" horiz-adv-x="621" d="M352 1030 C273 1030 248 1140 248 1266 L248 1410 C248 1550 259 1643 328 1643 C385 1643 400 1592 403 1520 L573 1520 C572 1691 478 1807 331 1807 C152 1807 65 1641 65 1412 L65 1272 C65 1077 120 939 230 889 L230 652 L413 652 L413 1030 L352 1030 Z " />
<glyph glyph-name="uni02C2" unicode="&#x2c2;" horiz-adv-x="725" d="M650 1144 L650 1334 L75 1045 L75 879 L650 591 L650 780 L329 946 L274 961 L329 975 L650 1144 Z " />
<glyph glyph-name="uni02C3" unicode="&#x2c3;" horiz-adv-x="729" d="M81 1334 L81 1144 L402 975 L457 961 L402 946 L81 780 L81 591 L656 879 L656 1045 L81 1334 Z " />
<glyph glyph-name="uni02C4" unicode="&#x2c4;" horiz-adv-x="712" d="M436 1326 L276 1326 L71 579 L246 579 L351 1032 L355 1056 L359 1032 L466 579 L639 579 L436 1326 Z " />
<glyph glyph-name="uni02C5" unicode="&#x2c5;" horiz-adv-x="709" d="M466 1326 L359 873 L355 849 L351 873 L246 1326 L71 1326 L276 579 L436 579 L639 1326 L466 1326 Z " />
<glyph glyph-name="circumflex" unicode="&#x2c6;" horiz-adv-x="832" d="M714 1260 L481 1536 L342 1536 L113 1263 L113 1248 L299 1248 L412 1404 L525 1248 L714 1248 L714 1260 Z " />
<glyph glyph-name="caron" unicode="&#x2c7;" horiz-adv-x="792" d="M392 1381 L287 1536 L81 1536 L81 1526 L316 1248 L467 1248 L703 1525 L703 1536 L498 1536 L392 1381 Z " />
<glyph glyph-name="uni02C8" unicode="&#x2c8;" horiz-adv-x="303" d="M228 1145 L228 1568 L75 1568 L75 1145 L228 1145 Z " />
<glyph glyph-name="uni02C9" unicode="&#x2c9;" horiz-adv-x="839" d="M692 1296 L692 1451 L159 1451 L159 1296 L692 1296 Z " />
<glyph glyph-name="uni02CA" unicode="&#x2ca;" horiz-adv-x="572" d="M252 1536 L80 1234 L281 1234 L521 1536 L252 1536 Z " />
<glyph glyph-name="uni02CB" unicode="&#x2cb;" horiz-adv-x="569" d="M506 1234 L335 1536 L64 1536 L303 1234 L506 1234 Z " />
<glyph glyph-name="uni02CC" unicode="&#x2cc;" horiz-adv-x="303" d="M228 -518 L228 -100 L75 -100 L75 -518 L228 -518 Z " />
<glyph glyph-name="uni02CD" unicode="&#x2cd;" horiz-adv-x="711" d="M628 -316 L628 -161 L95 -161 L95 -316 L628 -316 Z " />
<glyph glyph-name="uni02CE" unicode="&#x2ce;" horiz-adv-x="569" d="M506 -367 L335 -65 L64 -65 L303 -367 L506 -367 Z " />
<glyph glyph-name="uni02CF" unicode="&#x2cf;" horiz-adv-x="572" d="M252 -65 L80 -367 L281 -367 L521 -65 L252 -65 Z " />
<glyph glyph-name="uni02D0" unicode="&#x2d0;" horiz-adv-x="487" d="M233 242 C233 242 105 0 105 0 L381 0 C381 0 253 242 253 242 L233 242 Z M381 1081 C381 1081 105 1081 105 1081 L233 841 C233 841 253 841 253 841 L381 1081 Z " />
<glyph glyph-name="uni02D1" unicode="&#x2d1;" horiz-adv-x="487" d="M381 1081 C381 1081 105 1081 105 1081 L233 841 C233 841 253 841 253 841 L381 1081 Z " />
<glyph glyph-name="uni02D2" unicode="&#x2d2;" horiz-adv-x="311" d="M79 241 L79 151 C173 151 245 229 245 341 C245 453 173 536 79 536 L79 443 C123 443 151 401 151 341 C151 283 123 241 79 241 L79 241 Z " />
<glyph glyph-name="uni02D3" unicode="&#x2d3;" horiz-adv-x="310" d="M238 151 L238 243 C195 243 166 285 166 342 C166 401 195 443 238 443 L238 536 C146 536 72 453 72 342 C72 229 146 151 238 151 L238 151 Z " />
<glyph glyph-name="uni02D5" unicode="&#x2d5;" horiz-adv-x="528" d="M446 558 L82 558 L82 400 L186 400 L186 162 L341 162 L341 400 L446 400 L446 558 Z " />
<glyph glyph-name="uni02D6" unicode="&#x2d6;" horiz-adv-x="528" d="M446 436 L341 436 L341 589 L186 589 L186 436 L82 436 L82 279 L186 279 L186 125 L341 125 L341 279 L446 279 L446 436 Z " />
<glyph glyph-name="uni02D7" unicode="&#x2d7;" horiz-adv-x="544" d="M469 436 L75 436 L75 279 L469 279 L469 436 Z " />
<glyph glyph-name="breve" unicode="&#x2d8;" horiz-adv-x="805" d="M693 1513 L517 1513 C517 1440 483 1374 394 1374 C303 1374 270 1440 270 1513 L93 1513 C93 1346 209 1230 394 1230 C578 1230 693 1346 693 1513 L693 1513 Z " />
<glyph glyph-name="dotaccent" unicode="&#x2d9;" horiz-adv-x="485" d="M238 1496 C160 1496 110 1443 110 1373 C110 1303 160 1250 238 1250 C314 1250 364 1303 364 1373 C364 1443 314 1496 238 1496 L238 1496 Z " />
<glyph glyph-name="ring" unicode="&#x2da;" horiz-adv-x="608" d="M306 1567 C194 1567 113 1474 113 1362 C113 1248 194 1159 306 1159 C416 1159 497 1248 497 1362 C497 1474 416 1567 306 1567 L306 1567 Z M306 1250 C249 1250 213 1303 213 1362 C213 1422 249 1474 306 1474 C362 1474 398 1422 398 1362 C398 1301 362 1250 306 1250 L306 1250 Z " />
<glyph glyph-name="ogonek" unicode="&#x2db;" horiz-adv-x="523" d="M337 0 L215 58 C78 -22 44 -124 44 -227 C44 -358 124 -427 222 -427 C285 -427 325 -403 351 -383 L328 -242 C314 -251 297 -265 270 -265 C237 -265 223 -237 223 -197 C223 -119 261 -60 337 0 L337 0 Z " />
<glyph glyph-name="tilde" unicode="&#x2dc;" horiz-adv-x="805" d="M693 1514 L556 1526 C556 1463 529 1422 496 1422 C420 1422 367 1512 289 1512 C187 1512 114 1399 114 1254 L252 1247 C252 1309 278 1350 311 1350 C389 1350 421 1259 517 1259 C619 1259 693 1368 693 1514 L693 1514 Z " />
<glyph glyph-name="hungarumlaut" unicode="&#x2dd;" horiz-adv-x="684" d="M191 1535 L57 1234 L231 1234 L402 1535 L191 1535 Z M497 1535 L334 1234 L512 1234 L710 1535 L497 1535 Z " />
<glyph glyph-name="uni02DE" unicode="&#x2de;" horiz-adv-x="447" d="M-123 738 L-123 543 L35 591 C73 432 100 324 247 324 C292 324 334 339 368 361 L335 539 C324 537 313 535 301 535 C210 535 216 633 189 819 L-123 738 Z " />
<glyph glyph-name="uni02DF" unicode="&#x2df;" horiz-adv-x="588" d="M505 1569 L405 1680 L294 1538 L185 1682 L84 1570 L200 1418 L82 1266 L183 1154 L293 1296 L403 1152 L503 1264 L387 1417 L505 1569 Z " />
<glyph glyph-name="uni02E0" unicode="&#x2e0;" horiz-adv-x="725" d="M456 687 L667 1454 L458 1454 L370 956 L363 913 L355 956 L267 1454 L57 1454 L263 703 L205 533 C186 479 171 437 171 404 C171 281 257 220 359 220 C462 220 542 281 542 404 C542 438 528 480 507 538 L456 687 Z M359 367 C340 367 336 390 336 418 C336 442 345 470 361 511 C375 470 382 443 382 418 C382 390 380 367 359 367 L359 367 Z " />
<glyph glyph-name="uni02E1" unicode="&#x2e1;" horiz-adv-x="367" d="M272 653 L272 1845 L96 1845 L96 653 L272 653 Z " />
<glyph glyph-name="uni02E2" unicode="&#x2e2;" horiz-adv-x="659" d="M292 979 C379 952 420 923 420 866 C420 815 387 785 341 785 C273 785 239 815 235 902 L65 902 C65 770 157 636 335 636 C506 636 594 728 594 878 C594 1024 523 1092 377 1134 C292 1158 257 1183 257 1238 C257 1283 283 1318 327 1318 C382 1318 413 1269 414 1212 L592 1212 C592 1356 493 1466 329 1466 C179 1466 84 1372 84 1228 C84 1086 171 1016 292 979 L292 979 Z " />
<glyph glyph-name="uni02E4" unicode="&#x2e4;" horiz-adv-x="705" d="M369 1302 C422 1302 457 1247 459 1163 L626 1163 C626 1346 517 1466 360 1466 C201 1466 91 1337 91 1103 C91 921 163 797 272 762 L272 653 L448 653 L448 905 L362 905 C296 905 267 982 267 1098 C267 1222 301 1302 369 1302 L369 1302 Z " />
<glyph glyph-name="uni02EA" unicode="&#x2ea;" horiz-adv-x="690" d="M351 198 L351 908 L110 908 L110 0 L623 0 L623 198 L351 198 Z " />
<glyph glyph-name="uni02EE" unicode="&#x2ee;" horiz-adv-x="713" d="M346 1373 L346 1560 L143 1560 L143 1372 C143 1247 118 1151 82 1063 L200 988 C280 1080 346 1239 346 1373 L346 1373 Z M630 1373 L630 1560 L426 1560 L426 1372 C426 1247 402 1151 365 1063 L484 988 C564 1080 630 1239 630 1373 L630 1373 Z " />
<glyph glyph-name="uni02EF" unicode="&#x2ef;" horiz-adv-x="547" d="M351 -72 L278 -361 L274 -382 L270 -361 L195 -72 L75 -72 L218 -547 L329 -547 L472 -72 L351 -72 Z " />
<glyph glyph-name="uni02F0" unicode="&#x2f0;" horiz-adv-x="546" d="M329 -72 L218 -72 L75 -547 L195 -547 L270 -259 L273 -243 L276 -259 L351 -547 L471 -547 L329 -72 Z " />
<glyph glyph-name="uni02F1" unicode="&#x2f1;" horiz-adv-x="553" d="M478 -190 L478 -66 L75 -255 L75 -362 L478 -549 L478 -426 L253 -318 L217 -309 L253 -301 L478 -190 Z " />
<glyph glyph-name="uni02F2" unicode="&#x2f2;" horiz-adv-x="553" d="M75 -66 L75 -190 L300 -301 L336 -309 L300 -318 L75 -426 L75 -549 L478 -362 L478 -255 L75 -66 Z " />
<glyph glyph-name="uni02F3" unicode="&#x2f3;" horiz-adv-x="530" d="M272 -66 C189 -66 125 -138 125 -236 C125 -333 189 -402 272 -402 C353 -402 417 -334 417 -236 C417 -138 353 -66 272 -66 L272 -66 Z M272 -314 C240 -314 215 -279 215 -236 C215 -189 240 -155 272 -155 C303 -155 326 -189 326 -236 C326 -281 303 -314 272 -314 L272 -314 Z " />
<glyph glyph-name="uni02F4" unicode="&#x2f4;" horiz-adv-x="569" d="M506 214 L335 516 L64 516 L303 214 L506 214 Z " />
<glyph glyph-name="uni02F5" unicode="&#x2f5;" horiz-adv-x="948" d="M506 214 L335 516 L64 516 L303 214 L506 214 Z M947 215 L776 517 L505 517 L744 215 L947 215 Z " />
<glyph glyph-name="uni02F6" unicode="&#x2f6;" horiz-adv-x="952" d="M252 516 L80 214 L281 214 L521 516 L252 516 Z M691 517 L519 215 L720 215 L960 517 L691 517 Z " />
<glyph glyph-name="uni02F7" unicode="&#x2f7;" horiz-adv-x="739" d="M658 -161 L521 -150 C521 -212 494 -252 461 -252 C386 -252 331 -162 255 -162 C152 -162 79 -276 79 -420 L217 -428 C217 -366 242 -326 277 -326 C355 -326 387 -416 482 -416 C584 -416 658 -308 658 -161 L658 -161 Z " />
<glyph glyph-name="uni02F8" unicode="&#x2f8;" horiz-adv-x="464" d="M247 651 C163 651 107 592 107 515 C107 439 163 380 247 380 C333 380 388 439 388 515 C388 592 333 651 247 651 L247 651 Z M244 1457 C160 1457 104 1398 104 1321 C104 1245 160 1186 244 1186 C330 1186 385 1245 385 1321 C385 1398 330 1457 244 1457 L244 1457 Z " />
<glyph glyph-name="uni02F9" unicode="&#x2f9;" horiz-adv-x="478" d="M396 1536 L82 1536 L82 1142 L237 1142 L237 1379 L396 1379 L396 1536 Z " />
<glyph glyph-name="uni02FA" unicode="&#x2fa;" horiz-adv-x="478" d="M396 1536 L82 1536 L82 1379 L241 1379 L241 1142 L396 1142 L396 1536 Z " />
<glyph glyph-name="uni02FB" unicode="&#x2fb;" horiz-adv-x="478" d="M237 -310 L237 -73 L82 -73 L82 -467 L396 -467 L396 -310 L237 -310 Z " />
<glyph glyph-name="uni02FC" unicode="&#x2fc;" horiz-adv-x="478" d="M241 -73 L241 -310 L82 -310 L82 -467 L396 -467 L396 -73 L241 -73 Z " />
<glyph glyph-name="uni02FD" unicode="&#x2fd;" horiz-adv-x="709" d="M471 -82 L471 -302 L237 -302 L237 -82 L82 -82 L82 -450 L627 -450 L627 -82 L471 -82 Z " />
<glyph glyph-name="uni02FE" unicode="&#x2fe;" horiz-adv-x="668" d="M237 -318 L237 -73 L82 -73 L82 -467 L585 -467 L585 -318 L237 -318 Z " />
<glyph glyph-name="uni02FF" unicode="&#x2ff;" horiz-adv-x="747" d="M666 -57 L308 -57 L483 169 L304 169 L77 -133 L304 -435 L483 -435 L310 -210 L666 -210 L666 -57 Z " />
<glyph glyph-name="gravecomb" unicode="&#x300;" horiz-adv-x="0" d="M-258 1234 L-407 1536 L-669 1536 L-453 1234 L-258 1234 Z " />
<glyph glyph-name="acutecomb" unicode="&#x301;" horiz-adv-x="0" d="M-355 1536 L-504 1234 L-310 1234 L-93 1536 L-355 1536 Z " />
<glyph glyph-name="uni0302" unicode="&#x302;" horiz-adv-x="0" d="M-108 1260 L-341 1536 L-480 1536 L-709 1263 L-709 1248 L-523 1248 L-410 1404 L-297 1248 L-108 1248 L-108 1260 Z " />
<glyph glyph-name="tildecomb" unicode="&#x303;" horiz-adv-x="0" d="M-101 1514 L-238 1526 C-238 1463 -265 1422 -298 1422 C-374 1422 -427 1512 -505 1512 C-607 1512 -680 1399 -680 1254 L-542 1247 C-542 1309 -516 1350 -483 1350 C-405 1350 -373 1259 -277 1259 C-175 1259 -101 1368 -101 1514 L-101 1514 Z " />
<glyph glyph-name="uni0304" unicode="&#x304;" horiz-adv-x="0" d="M-152 1296 L-152 1451 L-685 1451 L-685 1296 L-152 1296 Z " />
<glyph glyph-name="uni0305" unicode="&#x305;" horiz-adv-x="0" d="M-61 1584 L-61 1778 L-755 1778 L-755 1584 L-61 1584 Z " />
<glyph glyph-name="uni0306" unicode="&#x306;" horiz-adv-x="0" d="M-150 1513 L-321 1513 C-321 1440 -347 1374 -417 1374 C-488 1374 -514 1440 -514 1513 L-685 1513 C-685 1346 -581 1230 -417 1230 C-254 1230 -150 1346 -150 1513 L-150 1513 Z " />
<glyph glyph-name="uni0307" unicode="&#x307;" horiz-adv-x="0" d="M-417 1497 C-498 1497 -550 1441 -550 1367 C-550 1292 -498 1237 -417 1237 C-336 1237 -284 1292 -284 1367 C-284 1441 -336 1497 -417 1497 L-417 1497 Z " />
<glyph glyph-name="uni0308" unicode="&#x308;" horiz-adv-x="0" d="M-659 1487 C-725 1487 -772 1435 -772 1369 C-772 1303 -725 1252 -659 1252 C-593 1252 -546 1303 -546 1369 C-546 1435 -593 1487 -659 1487 L-659 1487 Z M-288 1485 C-354 1485 -401 1434 -401 1367 C-401 1302 -354 1251 -288 1251 C-223 1251 -176 1302 -176 1367 C-176 1434 -223 1485 -288 1485 L-288 1485 Z " />
<glyph glyph-name="hookabovecomb" unicode="&#x309;" horiz-adv-x="0" d="M-532 1256 L-352 1256 L-352 1323 C-299 1333 -243 1375 -243 1471 C-243 1588 -342 1663 -538 1663 L-544 1540 C-484 1540 -447 1522 -447 1468 C-447 1421 -475 1403 -544 1397 L-532 1256 Z " />
<glyph glyph-name="uni030A" unicode="&#x30a;" horiz-adv-x="0" d="M-384 1567 C-496 1567 -577 1474 -577 1362 C-577 1248 -496 1159 -384 1159 C-274 1159 -193 1248 -193 1362 C-193 1474 -274 1567 -384 1567 L-384 1567 Z M-384 1250 C-441 1250 -477 1303 -477 1362 C-477 1422 -441 1474 -384 1474 C-328 1474 -292 1422 -292 1362 C-292 1301 -328 1250 -384 1250 L-384 1250 Z " />
<glyph glyph-name="uni030B" unicode="&#x30b;" horiz-adv-x="0" d="M-642 1536 L-814 1234 L-613 1234 L-373 1536 L-642 1536 Z M-335 1536 L-507 1234 L-306 1234 L-66 1536 L-335 1536 Z " />
<glyph glyph-name="uni030C" unicode="&#x30c;" horiz-adv-x="0" d="M-116 1526 L-350 1248 L-488 1248 L-718 1523 L-718 1536 L-531 1536 L-420 1382 L-307 1536 L-116 1536 L-116 1526 Z " />
<glyph glyph-name="uni030D" unicode="&#x30d;" horiz-adv-x="0" d="M-334 1145 L-334 1568 L-487 1568 L-487 1145 L-334 1145 Z " />
<glyph glyph-name="uni030E" unicode="&#x30e;" horiz-adv-x="0" d="M-451 1145 L-451 1568 L-604 1568 L-604 1145 L-451 1145 Z M-291 1145 L-291 1568 L-444 1568 L-444 1145 L-291 1145 Z " />
<glyph glyph-name="uni030F" unicode="&#x30f;" horiz-adv-x="0" d="M-534 1518 L-354 1252 L-551 1252 L-770 1518 L-534 1518 Z M-231 1518 L-86 1252 L-278 1252 L-464 1518 L-231 1518 Z " />
<glyph glyph-name="uni0310" unicode="&#x310;" horiz-adv-x="0" d="M-149 1508 L-321 1508 C-321 1435 -346 1368 -417 1368 C-488 1368 -514 1434 -514 1508 L-685 1508 C-685 1341 -581 1224 -417 1224 C-254 1224 -149 1341 -149 1508 L-149 1508 Z M-417 1730 C-497 1730 -549 1675 -549 1606 C-549 1535 -497 1482 -417 1482 C-335 1482 -284 1535 -284 1606 C-284 1675 -335 1730 -417 1730 L-417 1730 Z " />
<glyph glyph-name="uni0311" unicode="&#x311;" horiz-adv-x="0" d="M-321 1172 L-149 1172 C-149 1340 -254 1456 -417 1456 C-581 1456 -685 1340 -685 1172 L-515 1172 C-515 1246 -488 1312 -417 1312 C-346 1312 -321 1246 -321 1172 L-321 1172 Z " />
<glyph glyph-name="uni0312" unicode="&#x312;" horiz-adv-x="0" d="M-520 1192 L-520 1001 L-318 1001 L-318 1193 C-318 1319 -293 1414 -256 1502 L-375 1577 C-454 1485 -520 1325 -520 1192 L-520 1192 Z " />
<glyph glyph-name="uni0313" unicode="&#x313;" horiz-adv-x="0" d="M-322 1387 L-322 1578 L-524 1578 L-524 1386 C-524 1260 -549 1165 -586 1077 L-467 1002 C-388 1094 -322 1254 -322 1387 L-322 1387 Z " />
<glyph glyph-name="uni0314" unicode="&#x314;" horiz-adv-x="0" d="M-553 1387 L-553 1577 L-351 1577 L-351 1386 C-351 1260 -326 1165 -290 1077 L-408 1001 C-488 1093 -553 1253 -553 1387 L-553 1387 Z " />
<glyph glyph-name="uni0315" unicode="&#x315;" horiz-adv-x="0" d="M100 1387 L100 1578 L-102 1578 L-102 1386 C-102 1260 -127 1165 -164 1077 L-45 1002 C34 1094 100 1254 100 1387 L100 1387 Z " />
<glyph glyph-name="uni0316" unicode="&#x316;" horiz-adv-x="0" d="M-196 -388 L-367 -86 L-638 -86 L-399 -388 L-196 -388 Z " />
<glyph glyph-name="uni0317" unicode="&#x317;" horiz-adv-x="0" d="M-451 -86 L-623 -388 L-422 -388 L-182 -86 L-451 -86 Z " />
<glyph glyph-name="uni0318" unicode="&#x318;" horiz-adv-x="0" d="M-382 -62 L-382 -194 L-614 -194 L-614 -351 L-382 -351 L-382 -482 L-227 -482 L-227 -62 L-382 -62 Z " />
<glyph glyph-name="uni0319" unicode="&#x319;" horiz-adv-x="0" d="M-223 -194 L-455 -194 L-455 -62 L-610 -62 L-610 -482 L-455 -482 L-455 -351 L-223 -351 L-223 -194 Z " />
<glyph glyph-name="uni031A" unicode="&#x31a;" horiz-adv-x="0" d="M-72 1657 L-596 1657 L-596 1510 L-226 1510 L-226 1283 L-72 1283 L-72 1657 Z " />
<glyph glyph-name="uni031B" unicode="&#x31b;" horiz-adv-x="0" d="M-54 1475 L-54 1572 L-257 1572 C-257 1274 -277 1186 -318 1071 L-200 996 C-114 1097 -54 1240 -54 1475 L-54 1475 Z " />
<glyph glyph-name="uni031C" unicode="&#x31c;" horiz-adv-x="0" d="M-330 -371 L-330 -463 C-423 -463 -496 -385 -496 -272 C-496 -160 -423 -77 -330 -77 L-330 -170 C-373 -170 -403 -212 -403 -272 C-403 -330 -373 -371 -330 -371 L-330 -371 Z " />
<glyph glyph-name="uni031D" unicode="&#x31d;" horiz-adv-x="0" d="M-334 -297 L-334 -75 L-489 -75 L-489 -297 L-593 -297 L-593 -455 L-229 -455 L-229 -297 L-334 -297 Z " />
<glyph glyph-name="uni031E" unicode="&#x31e;" horiz-adv-x="0" d="M-236 -88 L-600 -88 L-600 -247 L-497 -247 L-497 -469 L-340 -469 L-340 -247 L-236 -247 L-236 -88 Z " />
<glyph glyph-name="uni031F" unicode="&#x31f;" horiz-adv-x="0" d="M-228 -222 L-333 -222 L-333 -82 L-488 -82 L-488 -222 L-592 -222 L-592 -365 L-488 -365 L-488 -506 L-333 -506 L-333 -365 L-228 -365 L-228 -222 Z " />
<glyph glyph-name="uni0320" unicode="&#x320;" horiz-adv-x="0" d="M-211 -192 L-623 -192 L-623 -351 L-211 -351 L-211 -192 Z " />
<glyph glyph-name="uni0321" unicode="&#x321;" horiz-adv-x="0" d="M-54 193 L-233 193 L-233 -76 C-233 -203 -300 -244 -352 -244 C-369 -244 -386 -241 -406 -235 L-404 -413 C-372 -423 -340 -429 -308 -429 C-149 -429 -54 -304 -54 -76 L-54 193 Z " />
<glyph glyph-name="uni0322" unicode="&#x322;" horiz-adv-x="0" d="M-218 193 L-40 193 L-40 -76 C-40 -203 25 -244 79 -244 C97 -244 113 -241 134 -235 L133 -413 C99 -423 68 -429 35 -429 C-125 -429 -218 -304 -218 -76 L-218 193 Z " />
<glyph glyph-name="dotbelowcomb" unicode="&#x323;" horiz-adv-x="0" d="M-500 -115 C-584 -115 -639 -169 -639 -239 C-639 -308 -584 -362 -500 -362 C-415 -362 -360 -308 -360 -239 C-360 -169 -415 -115 -500 -115 L-500 -115 Z " />
<glyph glyph-name="uni0324" unicode="&#x324;" horiz-adv-x="0" d="M-661 -121 C-727 -121 -774 -173 -774 -239 C-774 -305 -727 -356 -661 -356 C-596 -356 -548 -305 -548 -239 C-548 -173 -596 -121 -661 -121 L-661 -121 Z M-291 -122 C-356 -122 -403 -174 -403 -241 C-403 -306 -356 -357 -291 -357 C-225 -357 -178 -306 -178 -241 C-178 -174 -225 -122 -291 -122 L-291 -122 Z " />
<glyph glyph-name="uni0325" unicode="&#x325;" horiz-adv-x="0" d="M-383 -65 C-495 -65 -576 -158 -576 -270 C-576 -384 -495 -473 -383 -473 C-273 -473 -192 -384 -192 -270 C-192 -158 -273 -65 -383 -65 L-383 -65 Z M-383 -382 C-440 -382 -476 -329 -476 -270 C-476 -210 -440 -158 -383 -158 C-327 -158 -291 -210 -291 -270 C-291 -331 -327 -382 -383 -382 L-383 -382 Z " />
<glyph glyph-name="uni0326" unicode="&#x326;" horiz-adv-x="0" d="M-294 -218 L-294 -146 L-472 -146 L-472 -229 C-472 -331 -495 -403 -530 -477 L-412 -551 C-344 -469 -294 -334 -294 -218 L-294 -218 Z " />
<glyph glyph-name="uni0327" unicode="&#x327;" horiz-adv-x="0" d="M-353 5 L-534 5 L-557 -135 C-484 -144 -454 -161 -454 -221 C-454 -285 -482 -311 -526 -311 L-522 -451 C-344 -451 -252 -360 -252 -225 C-252 -110 -308 -65 -362 -52 L-353 5 Z " />
<glyph glyph-name="uni0328" unicode="&#x328;" horiz-adv-x="0" d="M-314 0 L-422 58 C-558 -22 -608 -124 -608 -227 C-608 -358 -528 -427 -429 -427 C-366 -427 -326 -403 -300 -383 L-324 -242 C-337 -251 -355 -265 -381 -265 C-415 -265 -428 -237 -428 -197 C-428 -119 -390 -60 -314 0 L-314 0 Z " />
<glyph glyph-name="uni0329" unicode="&#x329;" horiz-adv-x="0" d="M-335 -500 L-335 -77 L-488 -77 L-488 -500 L-335 -500 Z " />
<glyph glyph-name="uni032A" unicode="&#x32a;" horiz-adv-x="0" d="M-147 -102 L-691 -102 L-691 -469 L-536 -469 L-536 -250 L-301 -250 L-301 -469 L-147 -469 L-147 -102 Z " />
<glyph glyph-name="uni032B" unicode="&#x32b;" horiz-adv-x="0" d="M-188 -112 C-188 -183 -225 -229 -280 -229 C-338 -229 -371 -183 -371 -113 L-461 -113 C-461 -183 -494 -229 -554 -229 C-607 -229 -646 -183 -646 -112 L-733 -112 C-733 -252 -657 -353 -554 -353 C-497 -353 -449 -325 -417 -278 C-385 -325 -338 -353 -280 -353 C-176 -353 -98 -252 -98 -112 L-188 -112 Z " />
<glyph glyph-name="uni032C" unicode="&#x32c;" horiz-adv-x="0" d="M-116 -129 L-349 -405 L-489 -405 L-718 -130 L-718 -117 L-532 -117 L-419 -273 L-306 -117 L-116 -117 L-116 -129 Z " />
<glyph glyph-name="uni032D" unicode="&#x32d;" horiz-adv-x="0" d="M-109 -381 L-342 -105 L-481 -105 L-710 -378 L-710 -393 L-524 -393 L-411 -237 L-298 -393 L-109 -393 L-109 -381 Z " />
<glyph glyph-name="uni032E" unicode="&#x32e;" horiz-adv-x="0" d="M-150 -90 L-321 -90 C-321 -164 -347 -230 -417 -230 C-488 -230 -515 -164 -515 -90 L-685 -90 C-685 -257 -581 -374 -417 -374 C-254 -374 -150 -257 -150 -90 L-150 -90 Z " />
<glyph glyph-name="uni032F" unicode="&#x32f;" horiz-adv-x="0" d="M-321 -384 L-150 -384 C-150 -217 -254 -100 -417 -100 C-581 -100 -685 -217 -685 -384 L-515 -384 C-515 -310 -488 -244 -417 -244 C-347 -244 -321 -310 -321 -384 L-321 -384 Z " />
<glyph glyph-name="uni0330" unicode="&#x330;" horiz-adv-x="0" d="M-122 -122 L-259 -110 C-259 -173 -286 -214 -319 -214 C-395 -214 -448 -124 -526 -124 C-628 -124 -701 -237 -701 -382 L-563 -389 C-563 -327 -537 -286 -504 -286 C-426 -286 -394 -377 -298 -377 C-196 -377 -122 -268 -122 -122 L-122 -122 Z " />
<glyph glyph-name="uni0331" unicode="&#x331;" horiz-adv-x="0" d="M-144 -316 L-144 -161 L-677 -161 L-677 -316 L-144 -316 Z " />
<glyph glyph-name="uni0332" unicode="&#x332;" horiz-adv-x="0" d="M-63 -344 L-63 -150 L-757 -150 L-757 -344 L-63 -344 Z " />
<glyph glyph-name="uni0333" unicode="&#x333;" horiz-adv-x="0" d="M-69 -253 L-69 -85 L-763 -85 L-763 -253 L-69 -253 Z M-69 -515 L-69 -346 L-763 -346 L-763 -515 L-69 -515 Z " />
<glyph glyph-name="uni0334" unicode="&#x334;" horiz-adv-x="0" d="M-121 671 L-258 683 C-258 620 -285 579 -318 579 C-394 579 -447 669 -525 669 C-627 669 -700 556 -700 411 L-562 404 C-562 466 -536 507 -503 507 C-425 507 -393 416 -297 416 C-195 416 -121 525 -121 671 L-121 671 Z " />
<glyph glyph-name="uni0335" unicode="&#x335;" horiz-adv-x="0" d="M-142 451 L-142 620 L-680 620 L-680 451 L-142 451 Z " />
<glyph glyph-name="uni0336" unicode="&#x336;" horiz-adv-x="0" d="M60 452 L60 620 L-896 620 L-896 452 L60 452 Z " />
<glyph glyph-name="uni0337" unicode="&#x337;" horiz-adv-x="0" d="M-604 -140 L-103 1214 L-236 1214 L-735 -140 L-604 -140 Z " />
<glyph glyph-name="uni0338" unicode="&#x338;" horiz-adv-x="0" d="M-824 -94 L-110 1517 L-214 1517 L-929 -94 L-824 -94 Z " />
<glyph glyph-name="uni0339" unicode="&#x339;" horiz-adv-x="0" d="M-494 -372 L-494 -462 C-400 -462 -328 -384 -328 -272 C-328 -160 -400 -77 -494 -77 L-494 -170 C-450 -170 -422 -212 -422 -272 C-422 -330 -450 -372 -494 -372 L-494 -372 Z " />
<glyph glyph-name="uni033A" unicode="&#x33a;" horiz-adv-x="0" d="M-293 -108 L-293 -328 L-527 -328 L-527 -108 L-682 -108 L-682 -476 L-137 -476 L-137 -108 L-293 -108 Z " />
<glyph glyph-name="uni033B" unicode="&#x33b;" horiz-adv-x="0" d="M-584 -81 L-584 -499 L-249 -499 L-249 -81 L-584 -81 Z M-466 -373 L-466 -207 L-365 -207 L-365 -373 L-466 -373 Z " />
<glyph glyph-name="uni033C" unicode="&#x33c;" horiz-adv-x="0" d="M-280 -109 C-338 -109 -385 -137 -417 -185 C-449 -137 -497 -109 -554 -109 C-657 -109 -733 -211 -733 -350 L-646 -350 C-646 -279 -607 -234 -554 -234 C-494 -234 -461 -279 -461 -349 L-371 -349 C-371 -279 -338 -234 -280 -234 C-225 -234 -188 -279 -188 -350 L-98 -350 C-98 -211 -176 -109 -280 -109 L-280 -109 Z " />
<glyph glyph-name="uni033D" unicode="&#x33d;" horiz-adv-x="0" d="M-217 1628 L-302 1729 L-394 1599 L-486 1730 L-571 1629 L-473 1489 L-572 1349 L-487 1249 L-395 1378 L-303 1247 L-218 1348 L-316 1488 L-217 1628 Z " />
<glyph glyph-name="uni033E" unicode="&#x33e;" horiz-adv-x="0" d="M-517 1252 L-517 1122 C-397 1122 -322 1171 -322 1267 C-322 1357 -367 1434 -367 1496 C-367 1526 -352 1546 -322 1546 L-322 1675 C-427 1675 -512 1633 -512 1533 C-512 1447 -466 1361 -466 1308 C-466 1281 -468 1252 -517 1252 L-517 1252 Z " />
<glyph glyph-name="uni033F" unicode="&#x33f;" horiz-adv-x="0" d="M-69 1497 L-69 1648 L-763 1648 L-763 1497 L-69 1497 Z M-69 1769 L-69 1920 L-764 1920 L-764 1769 L-69 1769 Z " />
<glyph glyph-name="uni0340" unicode="&#x340;" horiz-adv-x="0" d="M242 1234 L71 1536 L-200 1536 L39 1234 L242 1234 Z " />
<glyph glyph-name="uni0341" unicode="&#x341;" horiz-adv-x="0" d="M-9 1536 L-181 1234 L20 1234 L260 1536 L-9 1536 Z " />
<glyph glyph-name="uni0342" unicode="&#x342;" horiz-adv-x="0" d="M-122 1514 L-259 1526 C-259 1463 -286 1422 -319 1422 C-395 1422 -448 1512 -526 1512 C-628 1512 -701 1399 -701 1254 L-563 1247 C-563 1309 -537 1350 -504 1350 C-426 1350 -394 1259 -298 1259 C-196 1259 -122 1368 -122 1514 L-122 1514 Z " />
<glyph glyph-name="uni0343" unicode="&#x343;" horiz-adv-x="0" d="M-872 1152 L-872 1224 L-1050 1224 L-1050 1141 C-1050 1039 -1073 967 -1108 893 L-990 819 C-922 901 -872 1036 -872 1152 L-872 1152 Z " />
<glyph glyph-name="uni0344" unicode="&#x344;" horiz-adv-x="0" d="M-653 1487 C-719 1487 -766 1435 -766 1369 C-766 1303 -719 1252 -653 1252 C-587 1252 -540 1303 -540 1369 C-540 1435 -587 1487 -653 1487 L-653 1487 Z M-448 1718 L-481 1415 L-360 1415 L-233 1718 L-448 1718 Z M-171 1485 C-236 1485 -283 1434 -283 1367 C-283 1302 -236 1251 -171 1251 C-105 1251 -58 1302 -58 1367 C-58 1434 -105 1485 -171 1485 L-171 1485 Z " />
<glyph glyph-name="uni0345" unicode="&#x345;" horiz-adv-x="0" d="M-351 -70 L-498 -70 L-498 -341 C-498 -472 -434 -526 -352 -526 C-322 -526 -301 -521 -282 -514 L-281 -405 C-289 -407 -299 -409 -312 -409 C-341 -409 -351 -392 -351 -338 L-351 -70 Z " />
<glyph glyph-name="uni0346" unicode="&#x346;" horiz-adv-x="0" d="M-146 1605 L-690 1605 L-690 1211 L-535 1211 L-535 1458 L-300 1458 L-300 1211 L-146 1211 L-146 1605 Z " />
<glyph glyph-name="uni0347" unicode="&#x347;" horiz-adv-x="0" d="M-211 -99 L-623 -99 L-623 -253 L-211 -253 L-211 -99 Z M-211 -346 L-623 -346 L-623 -501 L-211 -501 L-211 -346 Z " />
<glyph glyph-name="uni0348" unicode="&#x348;" horiz-adv-x="0" d="M-466 -500 L-466 -77 L-619 -77 L-619 -500 L-466 -500 Z M-271 -503 L-271 -80 L-424 -80 L-424 -503 L-271 -503 Z " />
<glyph glyph-name="uni0349" unicode="&#x349;" horiz-adv-x="0" d="M-234 -111 L-547 -111 L-547 -268 L-387 -268 L-387 -505 L-234 -505 L-234 -111 Z " />
<glyph glyph-name="uni034A" unicode="&#x34a;" horiz-adv-x="0" d="M-258 1526 C-258 1463 -285 1422 -318 1422 C-325 1422 -331 1423 -337 1424 C-322 1465 -301 1524 -301 1524 L-395 1584 C-395 1584 -417 1522 -434 1476 C-462 1495 -491 1512 -525 1512 C-627 1512 -700 1399 -700 1254 L-562 1247 C-562 1309 -536 1350 -503 1350 C-495 1350 -488 1349 -481 1347 L-522 1235 L-427 1176 L-386 1289 C-362 1273 -334 1259 -297 1259 C-195 1259 -121 1368 -121 1514 L-258 1526 Z " />
<glyph glyph-name="uni034B" unicode="&#x34b;" horiz-adv-x="0" d="M-429 1398 C-509 1398 -561 1344 -561 1274 C-561 1204 -509 1150 -429 1150 C-348 1150 -296 1204 -296 1274 C-296 1344 -348 1398 -429 1398 L-429 1398 Z M-142 1676 L-279 1688 C-279 1625 -307 1585 -340 1585 C-415 1585 -469 1675 -546 1675 C-648 1675 -722 1561 -722 1417 L-584 1410 C-584 1471 -557 1512 -524 1512 C-446 1512 -414 1421 -319 1421 C-217 1421 -142 1530 -142 1676 L-142 1676 Z M-429 1949 C-509 1949 -561 1896 -561 1825 C-561 1756 -509 1702 -429 1702 C-348 1702 -296 1756 -296 1825 C-296 1896 -348 1949 -429 1949 L-429 1949 Z " />
<glyph glyph-name="uni034C" unicode="&#x34c;" horiz-adv-x="0" d="M-125 1460 L-261 1470 C-261 1419 -289 1387 -322 1387 C-397 1387 -451 1459 -528 1459 C-630 1459 -704 1367 -704 1252 L-566 1246 C-566 1296 -539 1328 -506 1328 C-429 1328 -396 1255 -301 1255 C-199 1255 -125 1344 -125 1460 L-125 1460 Z M-125 1691 L-261 1700 C-261 1650 -289 1618 -322 1618 C-397 1618 -451 1690 -528 1690 C-630 1690 -704 1598 -704 1484 L-566 1477 C-566 1527 -539 1559 -506 1559 C-429 1559 -396 1486 -301 1486 C-199 1486 -125 1574 -125 1691 L-125 1691 Z " />
<glyph glyph-name="uni034D" unicode="&#x34d;" horiz-adv-x="0" d="M-230 -120 L-356 -120 L-236 -278 L-597 -278 L-478 -120 L-603 -120 L-761 -335 L-603 -551 L-477 -551 L-597 -393 L-236 -393 L-356 -551 L-230 -551 L-73 -335 L-230 -120 Z " />
<glyph glyph-name="uni034E" unicode="&#x34e;" horiz-adv-x="0" d="M-255 -292 L-417 -87 L-579 -292 L-579 -423 L-470 -289 L-470 -551 L-363 -551 L-363 -290 L-255 -423 L-255 -292 Z " />
<glyph glyph-name="uni034F" unicode="&#x34f;" horiz-adv-x="0" />
<glyph glyph-name="uni0350" unicode="&#x350;" horiz-adv-x="0" d="M-649 1827 L-649 1669 L-408 1523 L-361 1509 L-408 1495 L-649 1351 L-649 1194 L-217 1444 L-217 1578 L-649 1827 Z " />
<glyph glyph-name="uni0351" unicode="&#x351;" horiz-adv-x="0" d="M-497 1320 C-497 1208 -425 1130 -331 1130 L-331 1220 C-375 1220 -404 1262 -404 1320 C-404 1380 -375 1422 -331 1422 L-331 1515 C-425 1515 -497 1432 -497 1320 L-497 1320 Z " />
<glyph glyph-name="uni0352" unicode="&#x352;" horiz-adv-x="0" d="M-416 1415 C-498 1415 -549 1360 -549 1290 C-549 1220 -498 1167 -416 1167 C-334 1167 -284 1220 -284 1290 C-284 1360 -334 1415 -416 1415 L-416 1415 Z M-318 1442 L-148 1442 C-148 1609 -252 1726 -416 1726 C-580 1726 -683 1609 -683 1442 L-513 1442 C-513 1517 -486 1582 -416 1582 C-344 1582 -318 1517 -318 1442 L-318 1442 Z " />
<glyph glyph-name="uni0353" unicode="&#x353;" horiz-adv-x="0" d="M-223 -156 L-307 -59 L-397 -185 L-488 -57 L-572 -156 L-475 -293 L-573 -428 L-489 -526 L-399 -401 L-309 -528 L-224 -429 L-321 -292 L-223 -156 Z " />
<glyph glyph-name="uni0354" unicode="&#x354;" horiz-adv-x="0" d="M-209 -190 L-209 -66 L-612 -255 L-612 -362 L-209 -549 L-209 -426 L-434 -318 L-470 -309 L-434 -301 L-209 -190 Z " />
<glyph glyph-name="uni0355" unicode="&#x355;" horiz-adv-x="0" d="M-620 -66 L-620 -190 L-395 -301 L-359 -309 L-395 -318 L-620 -426 L-620 -549 L-217 -362 L-217 -255 L-620 -66 Z " />
<glyph glyph-name="uni0356" unicode="&#x356;" horiz-adv-x="0" d="M-188 -72 L-299 -72 L-354 -253 L-350 -255 L-350 -276 L-361 -279 L-354 -253 L-753 -66 L-753 -190 L-528 -301 L-492 -309 L-528 -318 L-753 -426 L-753 -549 L-392 -382 L-378 -335 L-350 -342 L-350 -362 L-392 -382 L-442 -547 L-322 -547 L-247 -259 L-244 -243 L-241 -259 L-166 -547 L-46 -547 L-188 -72 Z " />
<glyph glyph-name="uni0357" unicode="&#x357;" horiz-adv-x="0" d="M-494 1220 L-494 1130 C-400 1130 -328 1208 -328 1320 C-328 1432 -400 1515 -494 1515 L-494 1422 C-450 1422 -422 1380 -422 1320 C-422 1262 -450 1220 -494 1220 L-494 1220 Z " />
<glyph glyph-name="uni0358" unicode="&#x358;" horiz-adv-x="0" d="M-280 1436 C-364 1436 -419 1382 -419 1312 C-419 1243 -364 1189 -280 1189 C-195 1189 -140 1243 -140 1312 C-140 1382 -195 1436 -280 1436 L-280 1436 Z " />
<glyph glyph-name="uni0359" unicode="&#x359;" horiz-adv-x="0" d="M-470 -331 L-550 -477 L-486 -530 L-420 -381 L-356 -535 L-290 -479 L-366 -337 L-246 -289 L-271 -199 L-384 -261 L-375 -74 L-455 -74 L-446 -258 L-561 -195 L-587 -284 L-470 -331 Z " />
<glyph glyph-name="uni035A" unicode="&#x35a;" horiz-adv-x="0" d="M-272 -70 C-325 -70 -370 -96 -401 -137 C-432 -96 -477 -70 -530 -70 C-631 -70 -704 -162 -704 -276 C-704 -389 -631 -478 -530 -478 C-477 -478 -432 -453 -401 -413 C-370 -453 -325 -478 -272 -478 C-172 -478 -99 -389 -99 -276 C-99 -162 -172 -70 -272 -70 L-272 -70 Z M-530 -386 C-580 -386 -612 -334 -612 -276 C-612 -215 -580 -162 -530 -162 C-480 -162 -450 -215 -450 -276 C-450 -335 -480 -386 -530 -386 L-530 -386 Z M-272 -386 C-320 -386 -352 -334 -352 -276 C-352 -215 -320 -162 -272 -162 C-222 -162 -191 -215 -191 -276 C-191 -335 -222 -386 -272 -386 L-272 -386 Z " />
<glyph glyph-name="uni035B" unicode="&#x35b;" horiz-adv-x="0" d="M-378 1661 C-378 1661 -499 1661 -499 1661 L-588 1355 C-588 1355 -403 1355 -403 1355 L-448 1181 C-448 1181 -327 1181 -327 1181 L-236 1489 C-236 1489 -422 1489 -422 1489 L-378 1661 Z " />
<glyph glyph-name="uni035C" unicode="&#x35c;" horiz-adv-x="0" d="M586 -104 L416 -104 C374 -177 266 -290 29 -290 C-207 -290 -311 -177 -358 -104 L-527 -104 C-467 -271 -315 -435 29 -435 C373 -435 525 -271 586 -104 L586 -104 Z " />
<glyph glyph-name="uni035D" unicode="&#x35d;" horiz-adv-x="0" d="M579 1503 L409 1503 C367 1430 259 1317 22 1317 C-214 1317 -318 1430 -365 1503 L-534 1503 C-474 1336 -322 1172 22 1172 C366 1172 518 1336 579 1503 L579 1503 Z " />
<glyph glyph-name="uni035E" unicode="&#x35e;" horiz-adv-x="0" d="M463 1286 L463 1441 L-418 1441 L-418 1286 L463 1286 Z " />
<glyph glyph-name="uni035F" unicode="&#x35f;" horiz-adv-x="0" d="M470 -304 L470 -149 L-411 -149 L-411 -304 L470 -304 Z " />
<glyph glyph-name="uni0360" unicode="&#x360;" horiz-adv-x="0" d="M793 1487 L668 1527 C653 1451 598 1413 517 1413 C304 1413 -252 1505 -496 1505 C-636 1505 -723 1412 -750 1274 L-624 1239 C-601 1317 -540 1351 -470 1351 C-241 1351 238 1260 546 1260 C681 1260 780 1343 793 1487 L793 1487 Z " />
<glyph glyph-name="uni0361" unicode="&#x361;" horiz-adv-x="0" d="M409 1153 L579 1153 C518 1321 366 1484 22 1484 C-322 1484 -474 1321 -534 1153 L-365 1153 C-318 1228 -214 1340 22 1340 C259 1340 367 1227 409 1153 L409 1153 Z " />
<glyph glyph-name="uni0362" unicode="&#x362;" horiz-adv-x="0" d="M495 -120 L318 -120 L491 -281 L-558 -281 L-558 -390 L493 -390 L317 -553 L495 -553 L723 -336 L495 -120 Z " />
<glyph glyph-name="uni0363" unicode="&#x363;" horiz-adv-x="0" d="M-219 1202 C-229 1241 -235 1278 -235 1335 L-235 1563 C-235 1695 -308 1761 -407 1761 C-517 1761 -587 1687 -587 1587 L-460 1582 C-460 1627 -444 1650 -413 1650 C-379 1650 -364 1621 -364 1564 L-364 1529 L-410 1529 C-539 1529 -602 1465 -602 1356 C-602 1257 -547 1192 -465 1192 C-414 1192 -381 1220 -359 1253 C-357 1235 -353 1217 -348 1202 L-219 1202 Z M-428 1301 C-455 1301 -473 1324 -473 1361 C-473 1405 -456 1444 -409 1444 L-364 1444 L-364 1356 C-373 1328 -398 1301 -428 1301 L-428 1301 Z " />
<glyph glyph-name="uni0364" unicode="&#x364;" horiz-adv-x="0" d="M-216 1490 C-216 1648 -283 1759 -407 1759 C-532 1759 -606 1650 -606 1475 L-606 1454 C-606 1304 -529 1187 -393 1187 C-310 1187 -254 1238 -227 1290 L-288 1365 C-311 1322 -346 1303 -385 1303 C-440 1303 -472 1351 -476 1433 L-216 1433 L-216 1490 Z M-342 1526 L-475 1526 C-470 1599 -451 1645 -408 1645 C-362 1645 -342 1600 -342 1535 L-342 1526 Z " />
<glyph glyph-name="uni0365" unicode="&#x365;" horiz-adv-x="0" d="M-345 1201 L-345 1753 L-474 1753 L-474 1201 L-345 1201 Z M-411 1967 C-453 1967 -481 1935 -481 1891 C-481 1848 -453 1817 -411 1817 C-366 1817 -338 1848 -338 1891 C-338 1935 -366 1967 -411 1967 L-411 1967 Z " />
<glyph glyph-name="uni0366" unicode="&#x366;" horiz-adv-x="0" d="M-611 1467 C-611 1302 -538 1187 -410 1187 C-283 1187 -209 1302 -209 1467 L-209 1478 C-209 1644 -283 1759 -411 1759 C-538 1759 -611 1644 -611 1478 L-611 1467 Z M-338 1467 C-338 1369 -357 1303 -410 1303 C-466 1303 -483 1369 -483 1467 L-483 1478 C-483 1576 -466 1645 -411 1645 C-357 1645 -338 1576 -338 1478 L-338 1467 Z " />
<glyph glyph-name="uni0367" unicode="&#x367;" horiz-adv-x="0" d="M-355 1753 L-355 1352 C-367 1323 -388 1306 -418 1306 C-452 1306 -470 1342 -470 1423 L-470 1753 L-599 1753 L-599 1424 C-599 1258 -542 1191 -458 1191 C-407 1191 -369 1216 -343 1258 L-333 1201 L-224 1201 L-224 1753 L-355 1753 Z " />
<glyph glyph-name="uni0368" unicode="&#x368;" horiz-adv-x="0" d="M-601 1465 C-601 1312 -538 1187 -403 1187 C-303 1187 -226 1273 -226 1381 L-348 1381 C-349 1334 -369 1302 -406 1302 C-462 1302 -472 1373 -472 1465 L-472 1482 C-472 1570 -461 1645 -407 1645 C-364 1645 -348 1599 -348 1551 L-226 1551 C-227 1675 -297 1759 -404 1759 C-537 1759 -601 1635 -601 1482 L-601 1465 Z " />
<glyph glyph-name="uni0369" unicode="&#x369;" horiz-adv-x="0" d="M-347 1992 L-347 1713 C-371 1743 -403 1759 -443 1759 C-551 1759 -610 1648 -610 1480 L-610 1469 C-610 1308 -549 1189 -444 1189 C-398 1189 -363 1211 -338 1249 L-331 1201 L-219 1201 L-219 1992 L-347 1992 Z M-412 1303 C-462 1303 -481 1370 -481 1469 L-481 1480 C-481 1579 -460 1647 -411 1647 C-382 1647 -359 1626 -347 1588 L-347 1360 C-359 1324 -381 1303 -412 1303 L-412 1303 Z " />
<glyph glyph-name="uni036A" unicode="&#x36a;" horiz-adv-x="0" d="M-365 1759 C-408 1759 -444 1737 -470 1698 L-470 1992 L-599 1992 L-599 1201 L-470 1201 L-470 1607 C-458 1631 -439 1645 -412 1645 C-374 1645 -355 1613 -355 1520 L-355 1201 L-224 1201 L-224 1519 C-224 1690 -282 1759 -365 1759 L-365 1759 Z " />
<glyph glyph-name="uni036B" unicode="&#x36b;" horiz-adv-x="0" d="M-244 1759 C-301 1759 -343 1727 -369 1673 C-394 1733 -436 1759 -488 1759 C-539 1759 -577 1734 -604 1692 L-614 1753 L-722 1753 L-722 1201 L-592 1201 L-592 1597 C-580 1628 -560 1645 -530 1645 C-494 1645 -476 1609 -476 1529 L-476 1201 L-347 1201 L-347 1528 C-347 1550 -348 1571 -350 1590 C-338 1625 -317 1645 -284 1645 C-249 1645 -232 1609 -232 1529 L-232 1201 L-103 1201 L-103 1528 C-103 1693 -160 1759 -244 1759 L-244 1759 Z " />
<glyph glyph-name="uni036C" unicode="&#x36c;" horiz-adv-x="0" d="M-306 1759 C-343 1759 -374 1736 -397 1698 L-406 1753 L-514 1753 L-514 1201 L-384 1201 L-384 1588 C-369 1617 -347 1631 -320 1631 C-297 1631 -283 1626 -270 1618 L-270 1754 C-281 1757 -292 1759 -306 1759 L-306 1759 Z " />
<glyph glyph-name="uni036D" unicode="&#x36d;" horiz-adv-x="0" d="M-353 1312 C-380 1312 -390 1329 -390 1384 L-390 1650 L-322 1650 L-322 1759 L-390 1759 L-390 1893 L-520 1893 L-520 1759 L-579 1759 L-579 1650 L-520 1650 L-520 1380 C-520 1250 -473 1196 -392 1196 C-363 1196 -340 1201 -321 1208 L-321 1317 C-327 1315 -339 1312 -353 1312 L-353 1312 Z " />
<glyph glyph-name="uni036E" unicode="&#x36e;" horiz-adv-x="0" d="M-348 1755 L-404 1409 L-411 1364 L-417 1409 L-476 1755 L-613 1755 L-474 1201 L-349 1201 L-211 1755 L-348 1755 Z " />
<glyph glyph-name="uni036F" unicode="&#x36f;" horiz-adv-x="0" d="M-399 1590 L-455 1755 L-594 1755 L-483 1483 L-601 1201 L-461 1201 L-399 1377 L-337 1201 L-197 1201 L-314 1483 L-201 1755 L-341 1755 L-399 1590 Z " />
<glyph glyph-name="uni037E" unicode="&#x37e;" horiz-adv-x="488" d="M260 1106 C176 1106 120 1047 120 970 C120 894 176 835 260 835 C346 835 401 894 401 970 C401 1047 346 1106 260 1106 L260 1106 Z M371 59 L372 235 L161 235 L161 49 C161 -81 114 -169 71 -258 L200 -333 C300 -239 371 -80 371 59 L371 59 Z " />
<glyph glyph-name="tonos" unicode="&#x384;" horiz-adv-x="612" d="M252 1600 L189 1260 L336 1260 L478 1600 L252 1600 Z " />
<glyph glyph-name="dieresistonos" unicode="&#x385;" horiz-adv-x="911" d="M203 1487 C137 1487 90 1435 90 1369 C90 1303 137 1252 203 1252 C269 1252 316 1303 316 1369 C316 1435 269 1487 203 1487 L203 1487 Z M408 1718 L375 1415 L496 1415 L623 1718 L408 1718 Z M685 1485 C620 1485 573 1434 573 1367 C573 1302 620 1251 685 1251 C751 1251 798 1302 798 1367 C798 1434 751 1485 685 1485 L685 1485 Z " />
<glyph glyph-name="anoteleia" unicode="&#x387;" horiz-adv-x="523" d="M265 847 C183 847 131 787 131 711 C131 635 183 577 265 577 C347 577 399 635 399 711 C399 787 347 847 265 847 L265 847 Z " />
<glyph glyph-name="uni03F6" unicode="&#x3f6;" horiz-adv-x="732" d="M276 1091 L52 1091 L52 894 L276 894 C377 894 411 777 418 632 L163 632 L163 451 L418 451 C411 306 378 188 277 188 L52 188 L52 -9 L277 -9 C534 -9 662 224 662 524 L662 557 C662 858 533 1091 276 1091 L276 1091 Z " />
<glyph glyph-name="uni0482" unicode="&#x482;" horiz-adv-x="1010" d="M480 447 L630 811 L847 641 L908 764 L687 935 L856 1342 L720 1342 L585 1014 L364 1185 L306 1057 L525 886 L375 524 L155 695 L97 569 L316 398 L146 0 L285 0 L421 321 L640 151 L698 275 L480 447 Z " />
<glyph glyph-name="uni1AB0" unicode="&#x1ab0;" horiz-adv-x="0" d="M-735 1248 L-622 1404 L-510 1248 L-304 1248 L-191 1404 L-77 1248 L111 1248 L111 1260 L-122 1536 L-261 1536 L-407 1346 L-553 1536 L-692 1536 L-921 1263 L-921 1248 L-735 1248 Z " />
<glyph glyph-name="uni1AB1" unicode="&#x1ab1;" horiz-adv-x="0" d="M-745 1476 C-819 1476 -864 1425 -864 1358 C-864 1294 -819 1242 -745 1242 C-673 1242 -627 1294 -627 1358 C-627 1425 -673 1476 -745 1476 L-745 1476 Z M-411 1672 C-514 1672 -588 1579 -588 1467 C-588 1353 -514 1264 -411 1264 C-310 1264 -236 1353 -236 1467 C-236 1579 -310 1672 -411 1672 L-411 1672 Z M-90 1475 C-163 1475 -209 1424 -209 1357 C-209 1292 -163 1241 -90 1241 C-17 1241 29 1292 29 1357 C29 1424 -17 1475 -90 1475 L-90 1475 Z M-411 1355 C-464 1355 -497 1408 -497 1467 C-497 1527 -464 1579 -411 1579 C-360 1579 -327 1527 -327 1467 C-327 1406 -360 1355 -411 1355 L-411 1355 Z " />
<glyph glyph-name="uni1AB2" unicode="&#x1ab2;" horiz-adv-x="0" d="M-244 1707 C-320 1707 -380 1643 -416 1572 C-452 1643 -512 1707 -588 1707 C-713 1707 -791 1588 -791 1434 L-791 1405 C-791 1252 -713 1134 -587 1134 C-512 1134 -453 1199 -416 1271 C-380 1199 -321 1134 -245 1134 C-118 1134 -42 1252 -42 1405 L-42 1434 C-42 1588 -118 1707 -244 1707 L-244 1707 Z M-478 1413 C-483 1378 -521 1245 -587 1245 C-643 1245 -666 1306 -666 1405 L-666 1434 C-666 1532 -643 1593 -588 1593 C-520 1593 -483 1464 -478 1431 L-478 1413 Z M-173 1405 C-173 1302 -196 1245 -245 1245 C-311 1245 -350 1378 -355 1413 L-355 1431 C-350 1464 -312 1593 -244 1593 C-195 1593 -173 1536 -173 1434 L-173 1405 Z " />
<glyph glyph-name="uni1AB3" unicode="&#x1ab3;" horiz-adv-x="0" d="M-341 1459 L-341 1845 L-490 1845 L-490 1456 L-644 1655 L-644 1461 L-417 1160 L-189 1461 L-189 1655 L-341 1459 Z " />
<glyph glyph-name="uni1AB4" unicode="&#x1ab4;" horiz-adv-x="0" d="M-691 1438 C-775 1438 -830 1384 -830 1314 C-830 1245 -775 1191 -691 1191 C-606 1191 -551 1245 -551 1314 C-551 1384 -606 1438 -691 1438 L-691 1438 Z M-252 1450 C-336 1450 -391 1396 -391 1326 C-391 1257 -336 1203 -252 1203 C-167 1203 -112 1257 -112 1326 C-112 1396 -167 1450 -252 1450 L-252 1450 Z M-487 1738 C-571 1738 -626 1684 -626 1614 C-626 1545 -571 1491 -487 1491 C-402 1491 -347 1545 -347 1614 C-347 1684 -402 1738 -487 1738 L-487 1738 Z " />
<glyph glyph-name="uni1AB5" unicode="&#x1ab5;" horiz-adv-x="0" d="M-503 -267 L-559 -142 L-698 -142 L-587 -348 L-705 -560 L-565 -560 L-503 -428 L-441 -560 L-301 -560 L-418 -348 L-305 -142 L-445 -142 L-503 -267 Z M-26 -257 L-82 -132 L-221 -132 L-110 -338 L-228 -550 L-88 -550 L-26 -418 L36 -550 L176 -550 L59 -338 L172 -132 L32 -132 L-26 -257 Z " />
<glyph glyph-name="uni1AB6" unicode="&#x1ab6;" horiz-adv-x="0" d="M-102 -117 C-181 -117 -203 -207 -262 -207 C-322 -207 -336 -117 -417 -117 C-497 -117 -511 -207 -571 -207 C-630 -207 -652 -117 -729 -117 C-806 -117 -871 -196 -895 -301 L-782 -351 C-769 -306 -754 -272 -725 -272 C-669 -272 -647 -362 -571 -362 C-495 -362 -473 -272 -417 -272 C-359 -272 -339 -362 -262 -362 C-185 -362 -165 -272 -108 -272 C-80 -272 -63 -307 -51 -351 L63 -302 C39 -198 -26 -117 -102 -117 L-102 -117 Z " />
<glyph glyph-name="uni1AB7" unicode="&#x1ab7;" horiz-adv-x="0" d="M-340 -100 L-493 -100 L-493 -283 C-493 -460 -420 -555 -298 -555 C-273 -555 -247 -551 -223 -542 L-221 -397 C-237 -401 -250 -404 -262 -404 C-302 -404 -340 -374 -340 -283 L-340 -100 Z " />
<glyph glyph-name="uni1AB8" unicode="&#x1ab8;" horiz-adv-x="0" d="M-489 -100 L-642 -100 L-642 -283 C-642 -460 -569 -555 -447 -555 C-422 -555 -396 -551 -372 -542 L-370 -397 C-386 -401 -399 -404 -411 -404 C-451 -404 -489 -374 -489 -283 L-489 -100 Z M-191 -100 L-344 -100 L-344 -283 C-344 -460 -271 -555 -149 -555 C-124 -555 -98 -551 -74 -542 L-72 -397 C-88 -401 -101 -404 -113 -404 C-153 -404 -191 -374 -191 -283 L-191 -100 Z " />
<glyph glyph-name="uni1AB9" unicode="&#x1ab9;" horiz-adv-x="0" d="M-402 -480 L-141 71 L-252 144 L-519 -409 L-402 -480 Z " />
<glyph glyph-name="uni1ABA" unicode="&#x1aba;" horiz-adv-x="0" d="M-130 71 L-237 144 L-418 -243 C-471 -252 -511 -304 -511 -366 C-511 -434 -462 -489 -400 -489 C-339 -489 -290 -434 -290 -366 C-290 -345 -294 -326 -302 -309 L-130 71 Z " />
<glyph glyph-name="uni1ABB" unicode="&#x1abb;" horiz-adv-x="0" d="M-847 1500 C-847 1379 -765 1305 -702 1284 L-688 1357 C-721 1379 -761 1417 -761 1500 C-761 1576 -723 1616 -688 1639 L-702 1712 C-765 1691 -847 1617 -847 1500 L-847 1500 Z M-163 1357 L-148 1284 C-85 1305 -2 1379 -2 1500 C-2 1619 -85 1691 -148 1712 L-163 1639 C-127 1616 -89 1579 -89 1500 C-89 1416 -129 1379 -163 1357 L-163 1357 Z " />
<glyph glyph-name="uni1ABC" unicode="&#x1abc;" horiz-adv-x="0" d="M-983 1500 C-983 1379 -901 1305 -837 1284 L-823 1357 C-857 1379 -896 1417 -896 1500 C-896 1576 -859 1616 -823 1639 L-837 1712 C-901 1691 -983 1617 -983 1500 L-983 1500 Z M-827 1500 C-827 1379 -745 1305 -681 1284 L-667 1357 C-700 1379 -740 1417 -740 1500 C-740 1576 -702 1616 -667 1639 L-681 1712 C-745 1691 -827 1617 -827 1500 L-827 1500 Z M-142 1357 L-127 1284 C-64 1305 18 1379 18 1500 C18 1619 -64 1691 -127 1712 L-142 1639 C-106 1616 -69 1579 -69 1500 C-69 1416 -108 1379 -142 1357 L-142 1357 Z M13 1357 L29 1284 C92 1305 174 1379 174 1500 C174 1619 92 1691 29 1712 L13 1639 C49 1616 88 1579 88 1500 C88 1416 47 1379 13 1357 L13 1357 Z " />
<glyph glyph-name="uni1ABD" unicode="&#x1abd;" horiz-adv-x="0" d="M-852 -326 C-852 -447 -770 -520 -707 -542 L-692 -469 C-726 -446 -765 -409 -765 -325 C-765 -249 -728 -210 -692 -187 L-707 -114 C-770 -134 -852 -208 -852 -326 L-852 -326 Z M-167 -469 L-153 -542 C-89 -520 -7 -447 -7 -326 C-7 -207 -89 -134 -153 -114 L-167 -187 C-131 -210 -94 -247 -94 -325 C-94 -409 -133 -446 -167 -469 L-167 -469 Z " />
<glyph glyph-name="uni1ABE" unicode="&#x1abe;" horiz-adv-x="0" d="M-964 590 C-964 469 -882 397 -819 375 L-805 448 C-838 471 -878 507 -878 591 C-878 668 -840 707 -805 730 L-819 804 C-882 783 -964 709 -964 590 L-964 590 Z M-3 448 L12 375 C76 397 157 469 157 590 C157 709 76 783 12 804 L-3 730 C33 707 71 670 71 591 C71 507 31 471 -3 448 L-3 448 Z " />
<glyph glyph-name="uni1DC0" unicode="&#x1dc0;" horiz-adv-x="0" d="M-738 1418 C-819 1418 -870 1364 -870 1292 C-870 1223 -819 1169 -738 1169 C-657 1169 -605 1223 -605 1292 C-605 1364 -657 1418 -738 1418 L-738 1418 Z M-262 1233 L-412 1535 L-676 1535 L-459 1233 L-262 1233 Z M-141 1517 C-222 1517 -273 1462 -273 1392 C-273 1323 -222 1269 -141 1269 C-60 1269 -8 1323 -8 1392 C-8 1462 -60 1517 -141 1517 L-141 1517 Z " />
<glyph glyph-name="uni1DC1" unicode="&#x1dc1;" horiz-adv-x="0" d="M-717 1517 C-797 1517 -849 1462 -849 1392 C-849 1323 -797 1269 -717 1269 C-635 1269 -583 1323 -583 1392 C-583 1462 -635 1517 -717 1517 L-717 1517 Z M-442 1535 L-590 1233 L-396 1233 L-179 1535 L-442 1535 Z M-117 1418 C-199 1418 -250 1364 -250 1292 C-250 1223 -199 1169 -117 1169 C-36 1169 15 1223 15 1292 C15 1364 -36 1418 -117 1418 L-117 1418 Z " />
<glyph glyph-name="uni1DC2" unicode="&#x1dc2;" horiz-adv-x="0" d="M-396 -81 C-446 -81 -507 -99 -551 -135 L-507 -214 C-479 -192 -442 -177 -413 -177 C-403 -177 -392 -181 -392 -198 C-392 -221 -511 -236 -511 -290 C-511 -351 -404 -345 -404 -366 C-404 -390 -510 -378 -510 -445 C-510 -503 -438 -543 -320 -555 L-305 -470 C-361 -464 -386 -452 -386 -441 C-386 -419 -275 -429 -275 -364 C-275 -296 -384 -304 -384 -281 C-384 -256 -282 -259 -282 -181 C-282 -126 -326 -81 -396 -81 L-396 -81 Z " />
<glyph glyph-name="uni1DC3" unicode="&#x1dc3;" horiz-adv-x="0" d="M-165 1580 L-409 1396 L-532 1488 L-610 1344 L-408 1195 L-87 1437 L-165 1580 Z " />
<glyph glyph-name="uni1DC5" unicode="&#x1dc5;" horiz-adv-x="0" d="M-747 1535 L-542 1233 L-133 1233 L-133 1389 L-440 1389 L-494 1535 L-747 1535 Z " />
<glyph glyph-name="uni1DC6" unicode="&#x1dc6;" horiz-adv-x="0" d="M-653 1535 L-653 1380 L-359 1380 L-266 1233 L-68 1233 L-219 1535 L-653 1535 Z " />
<glyph glyph-name="uni1DC7" unicode="&#x1dc7;" horiz-adv-x="0" d="M-548 1535 L-698 1233 L-501 1233 L-409 1380 L-123 1380 L-123 1535 L-548 1535 Z " />
<glyph glyph-name="uni1DC8" unicode="&#x1dc8;" horiz-adv-x="0" d="M-759 1535 L-608 1233 L-367 1233 L-290 1402 L-206 1233 L-40 1233 L-137 1535 L-421 1535 L-484 1372 L-545 1535 L-759 1535 Z " />
<glyph glyph-name="uni1DC9" unicode="&#x1dc9;" horiz-adv-x="0" d="M-631 1535 L-729 1233 L-569 1233 L-486 1401 L-401 1233 L-159 1233 L-6 1535 L-223 1535 L-283 1373 L-346 1535 L-631 1535 Z " />
<glyph glyph-name="uni1DCA" unicode="&#x1dca;" horiz-adv-x="0" d="M-307 -121 C-344 -121 -374 -143 -397 -182 L-406 -127 L-515 -127 L-515 -550 L-385 -550 L-385 -294 C-371 -264 -348 -249 -321 -249 C-298 -249 -284 -255 -270 -263 L-270 -127 C-281 -123 -293 -121 -307 -121 L-307 -121 Z " />
<glyph glyph-name="uni1DCB" unicode="&#x1dcb;" horiz-adv-x="0" d="M-393 1358 L85 1358 L85 1513 L-520 1513 C-520 1440 -546 1374 -617 1374 C-688 1374 -714 1440 -714 1513 L-885 1513 C-885 1346 -782 1230 -617 1230 C-517 1230 -440 1279 -393 1358 L-393 1358 Z " />
<glyph glyph-name="uni1DCC" unicode="&#x1dcc;" horiz-adv-x="0" d="M-438 1358 C-390 1279 -311 1230 -211 1230 C-47 1230 57 1346 57 1513 L-115 1513 C-115 1440 -140 1374 -211 1374 C-283 1374 -309 1440 -309 1513 L-912 1513 L-912 1358 L-438 1358 Z " />
<glyph glyph-name="uni1DCD" unicode="&#x1dcd;" horiz-adv-x="0" d="M657 1276 L88 1516 L-46 1516 L-610 1279 L-610 1252 L-458 1186 L22 1397 L501 1186 L657 1252 L657 1276 Z " />
<glyph glyph-name="uni1DCE" unicode="&#x1dce;" horiz-adv-x="0" d="M-581 1057 L-459 999 C-322 1079 -288 1181 -288 1284 C-288 1415 -368 1484 -466 1484 C-529 1484 -569 1460 -595 1440 L-572 1299 C-558 1308 -541 1322 -514 1322 C-481 1322 -467 1294 -467 1254 C-467 1176 -505 1117 -581 1057 L-581 1057 Z " />
<glyph glyph-name="uni1DCF" unicode="&#x1dcf;" horiz-adv-x="0" d="M-317 -277 C-317 -277 -347 -277 -364 -277 L-440 -277 L-401 -112 L-534 -112 L-599 -389 L-391 -389 L-431 -555 L-298 -555 L-233 -277 L-317 -277 Z " />
<glyph glyph-name="uni1DD0" unicode="&#x1dd0;" horiz-adv-x="0" d="M-370 -63 L-508 -63 C-508 -63 -621 -426 -621 -426 L-525 -475 C-481 -438 -438 -417 -398 -417 C-328 -417 -263 -492 -178 -492 C-80 -492 -36 -394 -28 -286 L-134 -247 C-145 -304 -175 -329 -199 -329 C-244 -329 -283 -264 -338 -264 C-368 -264 -396 -277 -438 -308 L-370 -63 Z " />
<glyph glyph-name="uni1DD1" unicode="&#x1dd1;" horiz-adv-x="0" d="M-286 1319 C-286 1274 -300 1252 -323 1252 C-343 1252 -356 1269 -370 1344 C-387 1427 -426 1492 -502 1492 C-576 1492 -637 1426 -637 1325 C-637 1219 -579 1148 -498 1148 L-498 1253 C-527 1256 -546 1276 -546 1325 C-546 1364 -531 1386 -507 1386 C-488 1386 -474 1367 -461 1304 C-441 1202 -405 1145 -328 1145 C-248 1145 -194 1220 -194 1322 C-194 1440 -272 1506 -342 1506 L-342 1405 C-301 1402 -286 1362 -286 1319 L-286 1319 Z " />
<glyph glyph-name="uni1DD2" unicode="&#x1dd2;" horiz-adv-x="0" d="M-642 1657 C-642 1491 -545 1426 -446 1426 C-397 1426 -365 1441 -339 1464 L-359 1550 C-378 1537 -399 1531 -429 1531 C-475 1531 -513 1569 -513 1663 C-513 1750 -471 1803 -414 1803 C-357 1803 -310 1739 -310 1604 C-310 1366 -435 1303 -530 1261 L-485 1150 C-355 1196 -180 1301 -180 1604 C-180 1798 -282 1914 -424 1914 C-546 1914 -642 1810 -642 1657 L-642 1657 Z " />
<glyph glyph-name="uni1DD3" unicode="&#x1dd3;" horiz-adv-x="0" d="M-267 1387 C-267 1332 -280 1303 -313 1303 C-346 1303 -366 1336 -366 1387 L-485 1387 C-485 1332 -500 1303 -533 1303 C-566 1303 -582 1336 -582 1387 L-709 1387 C-709 1275 -638 1192 -533 1192 C-484 1192 -447 1207 -422 1236 C-396 1208 -360 1192 -313 1192 C-209 1192 -138 1257 -138 1387 L-267 1387 Z " />
<glyph glyph-name="uni1DD4" unicode="&#x1dd4;" horiz-adv-x="0" d="M-79 1490 C-79 1648 -146 1759 -270 1759 C-320 1759 -362 1741 -395 1709 C-425 1744 -469 1761 -520 1761 C-630 1761 -701 1687 -701 1587 L-573 1582 C-573 1627 -557 1650 -526 1650 C-492 1650 -477 1621 -477 1564 L-477 1529 L-523 1529 C-651 1529 -715 1465 -715 1356 C-715 1257 -660 1192 -578 1192 C-503 1192 -464 1252 -443 1316 C-410 1238 -346 1187 -256 1187 C-173 1187 -117 1238 -90 1290 L-151 1365 C-174 1322 -209 1303 -248 1303 C-303 1303 -335 1351 -339 1433 L-79 1433 L-79 1490 Z M-468 1390 C-471 1340 -502 1301 -541 1301 C-568 1301 -586 1324 -586 1361 C-586 1405 -569 1444 -522 1444 L-469 1444 C-468 1414 -464 1386 -458 1360 L-468 1390 Z M-205 1526 L-338 1526 C-333 1599 -314 1645 -271 1645 C-225 1645 -205 1600 -205 1535 L-205 1526 Z " />
<glyph glyph-name="uni1DD5" unicode="&#x1dd5;" horiz-adv-x="0" d="M-280 1759 C-330 1759 -372 1741 -405 1709 C-436 1744 -480 1761 -531 1761 C-641 1761 -712 1687 -712 1587 L-584 1582 C-584 1627 -568 1650 -538 1650 C-504 1650 -488 1621 -488 1564 L-488 1529 L-534 1529 C-663 1529 -726 1465 -726 1356 C-726 1257 -670 1192 -589 1192 C-514 1192 -474 1252 -455 1316 L-456 1321 C-425 1238 -364 1187 -279 1187 C-152 1187 -78 1302 -78 1467 L-78 1478 C-78 1644 -152 1759 -280 1759 L-280 1759 Z M-475 1391 C-485 1340 -514 1301 -553 1301 C-579 1301 -597 1324 -597 1361 C-597 1405 -579 1444 -534 1444 L-480 1444 C-479 1423 -477 1403 -473 1384 L-475 1391 Z M-207 1467 C-207 1369 -226 1303 -279 1303 C-335 1303 -352 1369 -352 1467 L-352 1478 C-352 1576 -335 1645 -280 1645 C-226 1645 -207 1576 -207 1478 L-207 1467 Z " />
<glyph glyph-name="uni1DD6" unicode="&#x1dd6;" horiz-adv-x="0" d="M-272 1757 L-368 1418 L-368 1563 C-368 1695 -441 1761 -540 1761 C-650 1761 -720 1687 -720 1587 L-593 1582 C-593 1627 -577 1650 -546 1650 C-512 1650 -497 1621 -497 1564 L-497 1529 L-543 1529 C-672 1529 -735 1465 -735 1356 C-735 1257 -680 1192 -598 1192 C-547 1192 -514 1220 -492 1253 C-490 1235 -486 1217 -481 1202 L-309 1202 L-135 1757 L-272 1757 Z M-561 1301 C-588 1301 -606 1324 -606 1361 C-606 1405 -589 1444 -542 1444 L-497 1444 L-497 1356 C-506 1328 -531 1301 -561 1301 L-561 1301 Z " />
<glyph glyph-name="uni1DD7" unicode="&#x1dd7;" horiz-adv-x="0" d="M-399 1302 C-455 1302 -465 1373 -465 1465 L-465 1482 C-465 1570 -454 1645 -400 1645 C-357 1645 -341 1599 -341 1551 L-219 1551 C-220 1675 -290 1759 -397 1759 C-530 1759 -594 1635 -594 1482 L-594 1465 C-594 1335 -549 1226 -452 1195 L-465 1124 C-430 1119 -416 1113 -416 1086 C-416 1055 -427 1044 -450 1044 L-447 966 C-353 967 -307 1013 -307 1081 C-307 1140 -335 1161 -365 1169 L-361 1191 C-279 1208 -219 1286 -219 1381 L-341 1381 C-342 1334 -362 1302 -399 1302 L-399 1302 Z " />
<glyph glyph-name="uni1DD8" unicode="&#x1dd8;" horiz-adv-x="0" d="M-465 1986 L-506 1879 C-441 1849 -373 1784 -344 1665 C-371 1686 -402 1699 -436 1699 C-555 1699 -632 1597 -632 1442 C-632 1303 -544 1193 -419 1193 C-298 1193 -201 1315 -201 1493 L-201 1536 C-201 1771 -319 1940 -465 1986 L-465 1986 Z M-330 1493 C-330 1380 -362 1307 -417 1307 C-471 1307 -502 1365 -502 1442 C-502 1528 -473 1588 -417 1588 C-374 1588 -345 1569 -330 1545 L-330 1537 L-330 1493 Z " />
<glyph glyph-name="uni1DD9" unicode="&#x1dd9;" horiz-adv-x="0" d="M-299 1862 L-229 1914 L-260 1969 L-340 1909 C-377 1946 -420 1972 -465 1986 L-506 1879 C-484 1869 -461 1854 -440 1835 L-511 1782 L-480 1727 L-398 1788 C-375 1756 -356 1715 -344 1665 C-371 1686 -402 1699 -436 1699 C-555 1699 -632 1597 -632 1442 C-632 1303 -544 1193 -419 1193 C-298 1193 -201 1315 -201 1493 L-201 1536 C-201 1669 -239 1782 -299 1862 L-299 1862 Z M-330 1493 C-330 1380 -362 1307 -417 1307 C-471 1307 -502 1365 -502 1442 C-502 1528 -473 1588 -417 1588 C-374 1588 -345 1569 -330 1545 L-330 1537 L-330 1493 Z " />
<glyph glyph-name="uni1DDA" unicode="&#x1dda;" horiz-adv-x="0" d="M-328 1755 L-334 1709 C-358 1745 -392 1766 -440 1766 C-546 1766 -616 1653 -616 1485 L-616 1474 C-616 1314 -545 1193 -441 1193 C-400 1193 -369 1210 -345 1241 L-345 1218 C-345 1133 -379 1099 -433 1099 C-472 1099 -508 1120 -534 1166 L-590 1078 C-553 1017 -482 986 -427 986 C-307 986 -216 1060 -216 1220 L-216 1755 L-328 1755 Z M-409 1308 C-464 1308 -486 1376 -486 1474 L-486 1485 C-486 1584 -461 1653 -408 1653 C-377 1653 -357 1637 -345 1609 L-345 1351 C-357 1324 -376 1308 -409 1308 L-409 1308 Z " />
<glyph glyph-name="uni1DDB" unicode="&#x1ddb;" horiz-adv-x="0" d="M-625 1434 C-625 1290 -537 1191 -414 1191 C-300 1191 -238 1243 -209 1281 L-209 1519 L-417 1519 L-417 1415 L-338 1415 L-338 1333 C-351 1321 -368 1305 -414 1305 C-470 1305 -496 1352 -496 1443 L-496 1544 C-496 1642 -469 1687 -418 1687 C-376 1687 -356 1664 -349 1611 L-221 1611 C-233 1731 -302 1801 -418 1801 C-537 1801 -625 1703 -625 1558 L-625 1434 Z " />
<glyph glyph-name="uni1DDC" unicode="&#x1ddc;" horiz-adv-x="0" d="M-334 1201 L-186 1201 L-350 1534 L-209 1753 L-353 1753 L-447 1580 L-465 1552 L-465 1997 L-594 1997 L-594 1201 L-465 1201 L-465 1371 L-428 1421 L-334 1201 Z " />
<glyph glyph-name="uni1DDD" unicode="&#x1ddd;" horiz-adv-x="0" d="M-352 1992 L-482 1992 L-482 1201 L-352 1201 L-352 1992 Z " />
<glyph glyph-name="uni1DDE" unicode="&#x1dde;" horiz-adv-x="0" d="M-419 1316 L-419 1796 L-548 1796 L-548 1201 L-239 1201 L-239 1316 L-419 1316 Z " />
<glyph glyph-name="uni1DDF" unicode="&#x1ddf;" horiz-adv-x="0" d="M-160 1796 L-321 1796 L-418 1360 L-516 1796 L-675 1796 L-675 1201 L-546 1201 L-546 1514 L-465 1201 L-374 1201 L-289 1523 L-289 1201 L-160 1201 L-160 1796 Z " />
<glyph glyph-name="uni1DE0" unicode="&#x1de0;" horiz-adv-x="0" d="M-409 1763 C-460 1763 -498 1738 -524 1696 L-534 1753 L-643 1753 L-643 1201 L-512 1201 L-512 1602 C-500 1631 -479 1648 -449 1648 C-415 1648 -397 1612 -397 1531 L-397 1201 L-268 1201 L-268 1530 C-268 1696 -325 1763 -409 1763 L-409 1763 Z " />
<glyph glyph-name="uni1DE1" unicode="&#x1de1;" horiz-adv-x="0" d="M-341 1797 L-341 1465 L-502 1797 L-631 1797 L-631 1202 L-502 1202 L-502 1536 L-341 1202 L-211 1202 L-211 1797 L-341 1797 Z " />
<glyph glyph-name="uni1DE2" unicode="&#x1de2;" horiz-adv-x="0" d="M-236 1295 L-236 1338 C-236 1404 -256 1456 -315 1479 C-267 1511 -241 1558 -241 1620 C-241 1730 -314 1797 -427 1797 L-611 1797 L-611 1202 L-482 1202 L-482 1414 L-430 1414 C-389 1414 -365 1397 -365 1338 L-365 1296 C-365 1280 -365 1220 -356 1202 L-224 1202 L-224 1210 C-234 1228 -236 1276 -236 1295 L-236 1295 Z M-482 1528 L-482 1682 L-427 1682 C-394 1682 -371 1656 -371 1610 C-371 1560 -395 1528 -427 1528 L-482 1528 Z " />
<glyph glyph-name="uni1DE3" unicode="&#x1de3;" horiz-adv-x="0" d="M-338 1413 C-286 1452 -253 1504 -253 1580 C-253 1691 -322 1757 -406 1757 C-476 1757 -511 1731 -558 1691 L-499 1606 C-468 1626 -448 1644 -421 1644 C-394 1644 -380 1618 -380 1576 C-380 1517 -411 1484 -478 1442 L-373 1201 L-244 1201 L-244 1207 L-338 1413 Z " />
<glyph glyph-name="uni1DE4" unicode="&#x1de4;" horiz-adv-x="0" d="M-442 1428 C-376 1410 -361 1385 -361 1352 C-361 1317 -378 1293 -414 1293 C-452 1293 -484 1313 -483 1373 L-604 1373 C-604 1284 -539 1191 -418 1191 C-310 1191 -235 1254 -235 1357 C-235 1458 -290 1500 -391 1530 C-451 1548 -467 1569 -467 1601 C-467 1639 -446 1660 -419 1660 C-379 1660 -366 1633 -363 1588 L-237 1588 C-237 1687 -310 1763 -419 1763 C-526 1763 -590 1693 -590 1598 C-590 1499 -528 1453 -442 1428 L-442 1428 Z " />
<glyph glyph-name="uni1DE5" unicode="&#x1de5;" horiz-adv-x="0" d="M-485 1201 L-355 1201 L-355 1811 C-355 1868 -332 1893 -298 1893 C-284 1893 -274 1892 -265 1888 L-262 1997 C-281 2003 -302 2008 -323 2008 C-418 2008 -485 1941 -485 1811 L-485 1201 Z " />
<glyph glyph-name="uni1DE6" unicode="&#x1de6;" horiz-adv-x="0" d="M-441 1317 L-247 1661 L-247 1753 L-586 1753 L-586 1638 L-396 1638 L-591 1297 L-591 1201 L-242 1201 L-242 1317 L-441 1317 Z " />
<glyph glyph-name="uni1DE7" unicode="&#x1de7;" horiz-adv-x="0" d="M-214 1306 C-214 1305 -216 1303 -219 1303 C-234 1303 -245 1322 -245 1368 L-245 1754 L-358 1754 L-365 1699 C-388 1740 -419 1764 -461 1764 C-570 1764 -630 1643 -630 1472 L-630 1461 C-630 1303 -569 1191 -462 1191 C-415 1191 -383 1219 -360 1266 C-341 1215 -307 1191 -259 1191 C-238 1191 -221 1193 -204 1205 L-214 1306 Z M-431 1306 C-482 1306 -501 1366 -501 1461 L-501 1472 C-501 1576 -484 1650 -430 1650 C-405 1650 -387 1633 -374 1605 L-374 1368 L-374 1348 C-386 1321 -404 1306 -431 1306 L-431 1306 Z " />
<glyph glyph-name="uni1DE8" unicode="&#x1de8;" horiz-adv-x="0" d="M-388 1759 C-428 1759 -459 1744 -483 1715 L-483 1992 L-612 1992 L-612 1201 L-500 1201 L-493 1247 C-468 1210 -433 1189 -388 1189 C-282 1189 -222 1308 -222 1469 L-222 1480 C-222 1648 -281 1759 -388 1759 L-388 1759 Z M-350 1469 C-350 1370 -369 1303 -420 1303 C-450 1303 -471 1323 -483 1357 L-483 1592 C-471 1627 -449 1647 -421 1647 C-370 1647 -350 1579 -350 1480 L-350 1469 Z " />
<glyph glyph-name="uni1DE9" unicode="&#x1de9;" horiz-adv-x="0" d="M-313 1597 C-266 1629 -237 1686 -237 1760 C-237 1883 -313 1954 -425 1954 C-529 1954 -621 1879 -621 1721 L-621 998 L-491 998 L-491 1222 C-460 1201 -424 1191 -390 1191 C-278 1191 -212 1272 -212 1415 C-212 1501 -249 1567 -313 1597 L-313 1597 Z M-418 1301 C-449 1301 -473 1313 -491 1331 L-491 1722 C-491 1808 -461 1843 -425 1843 C-385 1843 -363 1802 -363 1748 C-363 1682 -381 1642 -425 1642 L-449 1642 L-449 1539 L-416 1539 C-369 1539 -341 1503 -341 1415 C-341 1345 -369 1301 -418 1301 L-418 1301 Z " />
<glyph glyph-name="uni1DEA" unicode="&#x1dea;" horiz-adv-x="0" d="M-435 1759 C-518 1759 -575 1708 -601 1657 L-541 1582 C-517 1626 -482 1644 -443 1644 C-388 1644 -357 1597 -353 1514 L-611 1514 L-611 1458 C-611 1298 -546 1187 -422 1187 C-297 1187 -222 1296 -222 1472 L-222 1492 C-222 1643 -299 1759 -435 1759 L-435 1759 Z M-421 1302 C-467 1302 -487 1347 -487 1412 L-487 1422 L-353 1422 C-358 1348 -376 1302 -421 1302 L-421 1302 Z " />
<glyph glyph-name="uni1DEB" unicode="&#x1deb;" horiz-adv-x="0" d="M-316 2008 C-411 2008 -478 1941 -478 1811 L-478 1759 L-550 1759 L-550 1650 L-478 1650 L-478 1201 L-348 1201 L-348 1650 L-294 1650 L-294 1759 L-348 1759 L-348 1811 C-348 1868 -325 1893 -291 1893 C-277 1893 -267 1892 -258 1888 L-255 1997 C-274 2003 -295 2008 -316 2008 L-316 2008 Z " />
<glyph glyph-name="uni1DEC" unicode="&#x1dec;" horiz-adv-x="0" d="M-345 1549 L-345 1614 C-298 1617 -265 1668 -265 1729 L-331 1750 C-331 1728 -336 1710 -345 1700 L-345 1992 L-475 1992 L-475 1738 C-479 1738 -484 1739 -488 1739 C-537 1739 -571 1683 -571 1621 L-506 1603 C-506 1634 -493 1659 -476 1659 L-475 1659 L-475 1586 C-479 1586 -484 1587 -488 1587 C-537 1587 -571 1532 -571 1469 L-506 1452 C-506 1483 -493 1508 -476 1508 L-475 1508 L-475 1201 L-345 1201 L-345 1461 C-298 1464 -265 1517 -265 1578 L-331 1598 C-331 1577 -336 1559 -345 1549 L-345 1549 Z " />
<glyph glyph-name="uni1DED" unicode="&#x1ded;" horiz-adv-x="0" d="M-410 1759 C-537 1759 -610 1644 -610 1478 L-610 1467 C-610 1390 -594 1324 -564 1275 L-665 1069 L-563 1005 L-470 1197 C-452 1190 -431 1187 -409 1187 C-282 1187 -208 1302 -208 1467 L-208 1478 C-208 1644 -282 1759 -410 1759 L-410 1759 Z M-337 1467 C-337 1369 -356 1303 -409 1303 C-465 1303 -482 1369 -482 1467 L-482 1478 C-482 1576 -465 1645 -410 1645 C-356 1645 -337 1576 -337 1478 L-337 1467 Z " />
<glyph glyph-name="uni1DEE" unicode="&#x1dee;" horiz-adv-x="0" d="M-424 1761 C-470 1761 -505 1739 -530 1701 L-537 1749 L-649 1749 L-649 958 L-521 958 L-521 1237 C-497 1207 -465 1191 -425 1191 C-317 1191 -258 1302 -258 1470 L-258 1481 C-258 1642 -319 1761 -424 1761 L-424 1761 Z M-387 1470 C-387 1371 -408 1303 -457 1303 C-486 1303 -509 1324 -521 1362 L-521 1590 C-509 1626 -487 1647 -456 1647 C-406 1647 -387 1580 -387 1481 L-387 1470 Z " />
<glyph glyph-name="uni1DEF" unicode="&#x1def;" horiz-adv-x="0" d="M-322 2008 C-417 2008 -483 1941 -483 1811 L-483 1152 C-483 1096 -506 1071 -540 1071 C-555 1071 -564 1072 -572 1076 L-575 966 C-555 960 -537 955 -516 955 C-420 955 -354 1023 -354 1152 L-354 1811 C-354 1868 -331 1893 -296 1893 C-283 1893 -272 1892 -264 1888 L-261 1997 C-280 2003 -300 2008 -322 2008 L-322 2008 Z " />
<glyph glyph-name="uni1DF0" unicode="&#x1df0;" horiz-adv-x="0" d="M-353 1753 L-353 1352 C-365 1323 -386 1306 -416 1306 C-450 1306 -468 1342 -468 1423 L-468 1753 L-597 1753 L-597 1424 C-597 1363 -589 1315 -575 1279 L-677 1069 L-575 1005 L-484 1194 C-475 1192 -466 1191 -456 1191 C-405 1191 -367 1216 -341 1258 L-331 1201 L-222 1201 L-222 1753 L-353 1753 Z " />
<glyph glyph-name="uni1DF1" unicode="&#x1df1;" horiz-adv-x="0" d="M-259 1753 L-302 1440 L-370 1753 L-465 1753 L-531 1439 L-574 1753 L-699 1753 L-597 1201 L-490 1201 L-417 1532 L-344 1201 L-237 1201 L-135 1753 L-259 1753 Z " />
<glyph glyph-name="uni1DF2" unicode="&#x1df2;" horiz-adv-x="0" d="M-212 1202 C-222 1241 -228 1278 -228 1335 L-228 1563 C-228 1695 -301 1761 -400 1761 C-510 1761 -580 1687 -580 1587 L-453 1582 C-453 1627 -437 1650 -406 1650 C-372 1650 -357 1621 -357 1564 L-357 1529 L-403 1529 C-532 1529 -595 1465 -595 1356 C-595 1257 -540 1192 -458 1192 C-407 1192 -374 1220 -352 1253 C-350 1235 -346 1217 -341 1202 L-212 1202 Z M-521 1817 C-477 1817 -449 1848 -449 1891 C-449 1935 -477 1967 -521 1967 C-565 1967 -591 1935 -591 1891 C-591 1848 -565 1817 -521 1817 L-521 1817 Z M-311 1817 C-267 1817 -240 1848 -240 1891 C-240 1935 -267 1967 -311 1967 C-355 1967 -382 1935 -382 1891 C-382 1848 -355 1817 -311 1817 L-311 1817 Z M-421 1301 C-448 1301 -466 1324 -466 1361 C-466 1405 -449 1444 -402 1444 L-357 1444 L-357 1356 C-366 1328 -391 1301 -421 1301 L-421 1301 Z " />
<glyph glyph-name="uni1DF3" unicode="&#x1df3;" horiz-adv-x="0" d="M-618 1467 C-618 1302 -544 1187 -416 1187 C-289 1187 -215 1302 -215 1467 L-215 1478 C-215 1644 -289 1759 -417 1759 C-544 1759 -618 1644 -618 1478 L-618 1467 Z M-522 1967 C-566 1967 -593 1935 -593 1891 C-593 1848 -566 1817 -522 1817 C-478 1817 -451 1848 -451 1891 C-451 1935 -478 1967 -522 1967 L-522 1967 Z M-312 1967 C-356 1967 -382 1935 -382 1891 C-382 1848 -356 1817 -312 1817 C-268 1817 -241 1848 -241 1891 C-241 1935 -268 1967 -312 1967 L-312 1967 Z M-344 1467 C-344 1369 -362 1303 -416 1303 C-472 1303 -489 1369 -489 1467 L-489 1478 C-489 1576 -471 1645 -417 1645 C-362 1645 -344 1576 -344 1478 L-344 1467 Z " />
<glyph glyph-name="uni1DF4" unicode="&#x1df4;" horiz-adv-x="0" d="M-353 1753 L-353 1352 C-365 1323 -386 1306 -416 1306 C-450 1306 -468 1342 -468 1423 L-468 1753 L-597 1753 L-597 1424 C-597 1258 -540 1191 -456 1191 C-405 1191 -367 1216 -341 1258 L-331 1201 L-222 1201 L-222 1753 L-353 1753 Z M-524 1817 C-479 1817 -451 1848 -451 1891 C-451 1935 -479 1967 -524 1967 C-567 1967 -594 1935 -594 1891 C-594 1848 -567 1817 -524 1817 L-524 1817 Z M-314 1817 C-270 1817 -241 1848 -241 1891 C-241 1935 -270 1967 -314 1967 C-356 1967 -384 1935 -384 1891 C-384 1848 -356 1817 -314 1817 L-314 1817 Z " />
<glyph glyph-name="uni1DF5" unicode="&#x1df5;" horiz-adv-x="0" d="M-334 1336 L-334 1558 L-489 1558 L-489 1336 L-593 1336 L-593 1178 L-229 1178 L-229 1336 L-334 1336 Z " />
<glyph glyph-name="uni1DFC" unicode="&#x1dfc;" horiz-adv-x="0" d="M402 -424 L571 -424 C511 -258 358 -93 15 -93 C-329 -93 -481 -258 -543 -424 L-373 -424 C-325 -351 -221 -238 15 -238 C251 -238 360 -351 402 -424 L402 -424 Z " />
<glyph glyph-name="uni1DFD" unicode="&#x1dfd;" horiz-adv-x="0" d="M-126 -67 L-263 -57 C-263 -109 -290 -140 -323 -140 C-398 -140 -453 -67 -528 -67 C-632 -67 -705 -159 -705 -274 L-567 -281 C-567 -230 -541 -199 -507 -199 C-429 -199 -397 -272 -302 -272 C-200 -272 -126 -184 -126 -67 L-126 -67 Z M-126 -297 L-263 -288 C-263 -338 -290 -371 -323 -371 C-398 -371 -453 -298 -528 -298 C-632 -298 -705 -390 -705 -505 L-567 -512 C-567 -461 -541 -429 -507 -429 C-429 -429 -397 -502 -302 -502 C-200 -502 -126 -415 -126 -297 L-126 -297 Z " />
<glyph glyph-name="uni1DFE" unicode="&#x1dfe;" horiz-adv-x="0" d="M-123 1734 L-123 1924 L-698 1635 L-698 1469 L-123 1181 L-123 1370 L-444 1536 L-499 1551 L-444 1565 L-123 1734 Z " />
<glyph glyph-name="uni1DFF" unicode="&#x1dff;" horiz-adv-x="0" d="M-1020 -197 L-701 -304 L-1020 -410 L-1020 -540 L-445 -356 L-445 -251 L-1020 -66 L-1020 -197 Z M-21 -73 L-129 -362 L-148 -418 L-167 -362 L-271 -73 L-431 -73 L-227 -549 L-67 -549 L137 -73 L-21 -73 Z " />
<glyph glyph-name="Wgrave" unicode="&#x1e80;" horiz-adv-x="1389" d="M1097 1456 L969 468 L807 1456 L584 1456 L427 478 L295 1456 L46 1456 L282 0 L541 0 L695 930 L851 0 L1110 0 L1345 1456 L1097 1456 Z M816 1544 L645 1846 L374 1846 L613 1544 L816 1544 Z " />
<glyph glyph-name="wgrave" unicode="&#x1e81;" horiz-adv-x="1175" d="M903 1082 L810 342 L673 1082 L499 1082 L361 350 L270 1082 L38 1082 L242 0 L443 0 L587 705 L730 0 L930 0 L1134 1082 L903 1082 Z M702 1234 L531 1536 L260 1536 L499 1234 L702 1234 Z " />
<glyph glyph-name="Wacute" unicode="&#x1e82;" horiz-adv-x="1389" d="M1097 1456 L969 468 L807 1456 L584 1456 L427 478 L295 1456 L46 1456 L282 0 L541 0 L695 930 L851 0 L1110 0 L1345 1456 L1097 1456 Z M1022 1846 L753 1846 L581 1544 L782 1544 L1022 1846 Z " />
<glyph glyph-name="wacute" unicode="&#x1e83;" horiz-adv-x="1175" d="M903 1082 L810 342 L673 1082 L499 1082 L361 350 L270 1082 L38 1082 L242 0 L443 0 L587 705 L730 0 L930 0 L1134 1082 L903 1082 Z M908 1536 L639 1536 L467 1234 L668 1234 L908 1536 Z " />
<glyph glyph-name="Wdieresis" unicode="&#x1e84;" horiz-adv-x="1389" d="M1097 1456 L969 468 L807 1456 L584 1456 L427 478 L295 1456 L46 1456 L282 0 L541 0 L695 930 L851 0 L1110 0 L1345 1456 L1097 1456 Z M482 1562 C551 1562 601 1613 601 1679 C601 1745 551 1797 482 1797 C412 1797 362 1745 362 1679 C362 1613 412 1562 482 1562 L482 1562 Z M904 1561 C974 1561 1023 1612 1023 1677 C1023 1744 974 1795 904 1795 C835 1795 785 1744 785 1677 C785 1612 835 1561 904 1561 L904 1561 Z " />
<glyph glyph-name="wdieresis" unicode="&#x1e85;" horiz-adv-x="1175" d="M903 1082 L810 342 L673 1082 L499 1082 L361 350 L270 1082 L38 1082 L242 0 L443 0 L587 705 L730 0 L930 0 L1134 1082 L903 1082 Z M368 1252 C437 1252 487 1303 487 1369 C487 1435 437 1487 368 1487 C298 1487 248 1435 248 1369 C248 1303 298 1252 368 1252 L368 1252 Z M790 1251 C860 1251 909 1302 909 1367 C909 1434 860 1485 790 1485 C721 1485 671 1434 671 1367 C671 1302 721 1251 790 1251 L790 1251 Z " />
<glyph glyph-name="uni1E9E" unicode="&#x1e9e;" horiz-adv-x="1098" d="M708 844 L959 1239 C807 1378 661 1477 474 1477 C217 1477 83 1302 82 960 L82 0 L325 0 L325 958 C325 1157 378 1280 474 1280 C558 1280 612 1235 662 1184 L474 849 L474 680 L575 680 C700 680 773 604 773 412 C773 270 712 177 607 177 C537 177 478 203 447 225 L378 35 C441 -1 522 -21 634 -21 C840 -21 1013 130 1013 414 C1013 658 901 811 708 844 L708 844 Z " />
<glyph glyph-name="uni1EA0" unicode="&#x1ea0;" horiz-adv-x="1098" d="M1075 0 L664 1456 L434 1456 L25 0 L291 0 L368 335 L731 335 L808 0 L1075 0 Z M569 -111 C485 -111 430 -165 430 -235 C430 -304 485 -358 569 -358 C654 -358 709 -304 709 -235 C709 -165 654 -111 569 -111 L569 -111 Z M415 541 L549 1123 L683 541 L415 541 Z " />
<glyph glyph-name="uni1EA1" unicode="&#x1ea1;" horiz-adv-x="874" d="M775 252 L775 753 C775 1001 632 1102 446 1102 C224 1102 89 943 89 768 L331 768 C331 851 366 914 433 914 C500 914 533 871 533 757 L533 659 L450 659 C194 659 72 511 72 305 C72 99 190 -20 345 -20 C432 -20 497 19 543 88 C549 54 556 23 566 0 L809 0 L809 17 C788 74 775 151 775 252 L775 252 Z M393 -106 C309 -106 254 -160 254 -230 C254 -299 309 -353 393 -353 C478 -353 533 -299 533 -230 C533 -160 478 -106 393 -106 L393 -106 Z M402 175 C340 175 313 217 313 319 C313 433 355 508 459 508 L533 508 L533 268 C512 219 463 175 402 175 L402 175 Z " />
<glyph glyph-name="uni1EA2" unicode="&#x1ea2;" horiz-adv-x="1098" d="M808 0 L1075 0 L664 1456 L434 1456 L25 0 L291 0 L368 335 L731 335 L808 0 Z M448 1712 L460 1571 L640 1571 L640 1638 C693 1648 749 1690 749 1786 C749 1903 650 1978 454 1978 L448 1855 C508 1855 545 1837 545 1783 C545 1736 517 1718 448 1712 L448 1712 Z M415 541 L549 1123 L683 541 L415 541 Z " />
<glyph glyph-name="uni1EA3" unicode="&#x1ea3;" horiz-adv-x="874" d="M775 252 L775 753 C775 1001 632 1102 446 1102 C224 1102 89 943 89 768 L331 768 C331 851 366 914 433 914 C500 914 533 871 533 757 L533 659 L450 659 C194 659 72 511 72 305 C72 99 190 -20 345 -20 C432 -20 497 19 543 88 C549 54 556 23 566 0 L809 0 L809 17 C788 74 775 151 775 252 L775 252 Z M333 1402 L345 1261 L525 1261 L525 1328 C578 1338 634 1380 634 1476 C634 1593 535 1668 339 1668 L333 1545 C393 1545 430 1527 430 1473 C430 1426 402 1408 333 1402 L333 1402 Z M402 175 C340 175 313 217 313 319 C313 433 355 508 459 508 L533 508 L533 268 C512 219 463 175 402 175 L402 175 Z " />
<glyph glyph-name="uni1EA4" unicode="&#x1ea4;" horiz-adv-x="1098" d="M664 1456 L434 1456 L25 0 L291 0 L368 335 L731 335 L808 0 L1075 0 L664 1456 Z M550 1682 L659 1542 L835 1542 L617 1785 L484 1785 L266 1542 L441 1542 L550 1682 Z M1092 1959 L901 1959 L777 1694 L913 1694 L1092 1959 Z M415 541 L549 1123 L683 541 L415 541 Z " />
<glyph glyph-name="uni1EA5" unicode="&#x1ea5;" horiz-adv-x="874" d="M775 753 C775 1001 632 1102 446 1102 C224 1102 89 943 89 768 L331 768 C331 851 366 914 433 914 C500 914 533 871 533 757 L533 659 L450 659 C194 659 72 511 72 305 C72 99 190 -20 345 -20 C432 -20 497 19 543 88 C549 54 556 23 566 0 L809 0 L809 17 C788 74 775 151 775 252 L775 753 Z M435 1372 L544 1232 L720 1232 L502 1475 L369 1475 L151 1232 L326 1232 L435 1372 Z M977 1649 L786 1649 L662 1384 L798 1384 L977 1649 Z M402 175 C340 175 313 217 313 319 C313 433 355 508 459 508 L533 508 L533 268 C512 219 463 175 402 175 L402 175 Z " />
<glyph glyph-name="uni1EA6" unicode="&#x1ea6;" horiz-adv-x="1098" d="M808 0 L1075 0 L664 1456 L434 1456 L25 0 L291 0 L368 335 L731 335 L808 0 Z M325 1692 L201 1957 L10 1957 L188 1692 L325 1692 Z M442 1540 L551 1680 L660 1540 L836 1540 L616 1783 L485 1783 L266 1540 L442 1540 Z M415 541 L549 1123 L683 541 L415 541 Z " />
<glyph glyph-name="uni1EA7" unicode="&#x1ea7;" horiz-adv-x="874" d="M775 252 L775 753 C775 1001 632 1102 446 1102 C224 1102 89 943 89 768 L331 768 C331 851 366 914 433 914 C500 914 533 871 533 757 L533 659 L450 659 C194 659 72 511 72 305 C72 99 190 -20 345 -20 C432 -20 497 19 543 88 C549 54 556 23 566 0 L809 0 L809 17 C788 74 775 151 775 252 L775 252 Z M210 1382 L86 1647 L-105 1647 L73 1382 L210 1382 Z M327 1230 L436 1370 L545 1230 L721 1230 L501 1473 L370 1473 L151 1230 L327 1230 Z M402 175 C340 175 313 217 313 319 C313 433 355 508 459 508 L533 508 L533 268 C512 219 463 175 402 175 L402 175 Z " />
<glyph glyph-name="uni1EA8" unicode="&#x1ea8;" horiz-adv-x="1098" d="M808 0 L1075 0 L664 1456 L434 1456 L25 0 L291 0 L368 335 L731 335 L808 0 Z M549 1690 L666 1533 L834 1533 L619 1777 L479 1777 L265 1533 L433 1533 L549 1690 Z M743 1786 L754 1665 L881 1665 L881 1722 C926 1731 973 1766 973 1848 C973 1948 898 2010 749 2010 L744 1906 C795 1906 829 1891 829 1844 C829 1805 801 1791 743 1786 L743 1786 Z M415 541 L549 1123 L683 541 L415 541 Z " />
<glyph glyph-name="uni1EA9" unicode="&#x1ea9;" horiz-adv-x="874" d="M775 753 C775 1001 632 1102 446 1102 C224 1102 89 943 89 768 L331 768 C331 851 366 914 433 914 C500 914 533 871 533 757 L533 659 L450 659 C194 659 72 511 72 305 C72 99 190 -20 345 -20 C432 -20 497 19 543 88 C549 54 556 23 566 0 L809 0 L809 17 C788 74 775 151 775 252 L775 753 Z M434 1380 L551 1223 L719 1223 L504 1467 L364 1467 L150 1223 L318 1223 L434 1380 Z M634 1700 L629 1596 C680 1596 714 1581 714 1534 C714 1495 686 1481 628 1476 L639 1355 L766 1355 L766 1412 C811 1421 858 1456 858 1538 C858 1638 783 1700 634 1700 L634 1700 Z M402 175 C340 175 313 217 313 319 C313 433 355 508 459 508 L533 508 L533 268 C512 219 463 175 402 175 L402 175 Z " />
<glyph glyph-name="uni1EAA" unicode="&#x1eaa;" horiz-adv-x="1098" d="M808 0 L1075 0 L664 1456 L434 1456 L25 0 L291 0 L368 335 L731 335 L808 0 Z M551 1661 L668 1520 L836 1520 L616 1753 L488 1753 L267 1520 L435 1520 L551 1661 Z M484 1884 C538 1884 578 1816 643 1816 C706 1816 746 1893 746 1973 L665 2004 C665 1965 648 1928 626 1928 C576 1928 520 1994 467 1994 C405 1994 365 1914 365 1836 L447 1811 C447 1850 462 1884 484 1884 L484 1884 Z M415 541 L549 1123 L683 541 L415 541 Z " />
<glyph glyph-name="uni1EAB" unicode="&#x1eab;" horiz-adv-x="874" d="M775 252 L775 753 C775 1001 632 1102 446 1102 C224 1102 89 943 89 768 L331 768 C331 851 366 914 433 914 C500 914 533 871 533 757 L533 659 L450 659 C194 659 72 511 72 305 C72 99 190 -20 345 -20 C432 -20 497 19 543 88 C549 54 556 23 566 0 L809 0 L809 17 C788 74 775 151 775 252 L775 252 Z M436 1351 L553 1210 L721 1210 L501 1443 L373 1443 L152 1210 L320 1210 L436 1351 Z M369 1574 C423 1574 463 1506 528 1506 C591 1506 631 1583 631 1663 L550 1694 C550 1655 533 1618 511 1618 C461 1618 405 1684 352 1684 C290 1684 250 1604 250 1526 L332 1501 C332 1540 347 1574 369 1574 L369 1574 Z M402 175 C340 175 313 217 313 319 C313 433 355 508 459 508 L533 508 L533 268 C512 219 463 175 402 175 L402 175 Z " />
<glyph glyph-name="uni1EAC" unicode="&#x1eac;" horiz-adv-x="1098" d="M1075 0 L664 1456 L434 1456 L25 0 L291 0 L368 335 L731 335 L808 0 L1075 0 Z M551 1714 L664 1558 L853 1558 L853 1570 L620 1846 L481 1846 L252 1573 L252 1558 L438 1558 L551 1714 Z M569 -111 C485 -111 430 -165 430 -235 C430 -304 485 -358 569 -358 C654 -358 709 -304 709 -235 C709 -165 654 -111 569 -111 L569 -111 Z M415 541 L549 1123 L683 541 L415 541 Z " />
<glyph glyph-name="uni1EAD" unicode="&#x1ead;" horiz-adv-x="874" d="M775 252 L775 753 C775 1001 632 1102 446 1102 C224 1102 89 943 89 768 L331 768 C331 851 366 914 433 914 C500 914 533 871 533 757 L533 659 L450 659 C194 659 72 511 72 305 C72 99 190 -20 345 -20 C432 -20 497 19 543 88 C549 54 556 23 566 0 L809 0 L809 17 C788 74 775 151 775 252 L775 252 Z M436 1404 L549 1248 L738 1248 L738 1260 L505 1536 L366 1536 L137 1263 L137 1248 L323 1248 L436 1404 Z M393 -106 C309 -106 254 -160 254 -230 C254 -299 309 -353 393 -353 C478 -353 533 -299 533 -230 C533 -160 478 -106 393 -106 L393 -106 Z M402 175 C340 175 313 217 313 319 C313 433 355 508 459 508 L533 508 L533 268 C512 219 463 175 402 175 L402 175 Z " />
<glyph glyph-name="uni1EAE" unicode="&#x1eae;" horiz-adv-x="1098" d="M808 0 L1075 0 L664 1456 L434 1456 L25 0 L291 0 L368 335 L731 335 L808 0 Z M549 1539 C714 1539 817 1632 817 1762 L658 1762 C658 1702 630 1649 549 1649 C469 1649 440 1702 440 1762 L281 1762 C281 1632 385 1539 549 1539 L549 1539 Z M743 1965 L576 1965 L489 1772 L612 1772 L743 1965 Z M415 541 L549 1123 L683 541 L415 541 Z " />
<glyph glyph-name="uni1EAF" unicode="&#x1eaf;" horiz-adv-x="874" d="M775 252 L775 753 C775 1001 632 1102 446 1102 C224 1102 89 943 89 768 L331 768 C331 851 366 914 433 914 C500 914 533 871 533 757 L533 659 L450 659 C194 659 72 511 72 305 C72 99 190 -20 345 -20 C432 -20 497 19 543 88 C549 54 556 23 566 0 L809 0 L809 17 C788 74 775 151 775 252 L775 252 Z M434 1229 C599 1229 702 1322 702 1452 L543 1452 C543 1392 515 1339 434 1339 C354 1339 325 1392 325 1452 L166 1452 C166 1322 270 1229 434 1229 L434 1229 Z M628 1655 L461 1655 L374 1462 L497 1462 L628 1655 Z M402 175 C340 175 313 217 313 319 C313 433 355 508 459 508 L533 508 L533 268 C512 219 463 175 402 175 L402 175 Z " />
<glyph glyph-name="uni1EB0" unicode="&#x1eb0;" horiz-adv-x="1098" d="M808 0 L1075 0 L664 1456 L434 1456 L25 0 L291 0 L368 335 L731 335 L808 0 Z M549 1541 C714 1541 817 1632 817 1764 L658 1764 C658 1704 630 1650 549 1650 C469 1650 440 1704 440 1764 L281 1764 C281 1632 385 1541 549 1541 L549 1541 Z M620 1772 L533 1965 L365 1965 L497 1772 L620 1772 Z M415 541 L549 1123 L683 541 L415 541 Z " />
<glyph glyph-name="uni1EB1" unicode="&#x1eb1;" horiz-adv-x="874" d="M775 252 L775 753 C775 1001 632 1102 446 1102 C224 1102 89 943 89 768 L331 768 C331 851 366 914 433 914 C500 914 533 871 533 757 L533 659 L450 659 C194 659 72 511 72 305 C72 99 190 -20 345 -20 C432 -20 497 19 543 88 C549 54 556 23 566 0 L809 0 L809 17 C788 74 775 151 775 252 L775 252 Z M434 1231 C599 1231 702 1322 702 1454 L543 1454 C543 1394 515 1340 434 1340 C354 1340 325 1394 325 1454 L166 1454 C166 1322 270 1231 434 1231 L434 1231 Z M505 1462 L418 1655 L250 1655 L382 1462 L505 1462 Z M402 175 C340 175 313 217 313 319 C313 433 355 508 459 508 L533 508 L533 268 C512 219 463 175 402 175 L402 175 Z " />
<glyph glyph-name="uni1EB2" unicode="&#x1eb2;" horiz-adv-x="1098" d="M808 0 L1075 0 L664 1456 L434 1456 L25 0 L291 0 L368 335 L731 335 L808 0 Z M546 1543 C711 1543 815 1633 815 1764 L656 1764 C656 1706 625 1653 546 1653 C465 1653 435 1706 435 1764 L275 1764 C275 1633 380 1543 546 1543 L546 1543 Z M551 1956 C551 1921 522 1907 455 1903 L467 1789 L617 1789 L618 1845 C670 1854 723 1885 723 1960 C723 2050 635 2107 460 2107 L454 2012 C515 2012 551 1999 551 1956 L551 1956 Z M415 541 L549 1123 L683 541 L415 541 Z " />
<glyph glyph-name="uni1EB3" unicode="&#x1eb3;" horiz-adv-x="874" d="M775 252 L775 753 C775 1001 632 1102 446 1102 C224 1102 89 943 89 768 L331 768 C331 851 366 914 433 914 C500 914 533 871 533 757 L533 659 L450 659 C194 659 72 511 72 305 C72 99 190 -20 345 -20 C432 -20 497 19 543 88 C549 54 556 23 566 0 L809 0 L809 17 C788 74 775 151 775 252 L775 252 Z M431 1233 C596 1233 700 1323 700 1454 L541 1454 C541 1396 510 1343 431 1343 C350 1343 320 1396 320 1454 L160 1454 C160 1323 265 1233 431 1233 L431 1233 Z M436 1646 C436 1611 407 1597 340 1593 L352 1479 L502 1479 L503 1535 C555 1544 608 1575 608 1650 C608 1740 520 1797 345 1797 L339 1702 C400 1702 436 1689 436 1646 L436 1646 Z M402 175 C340 175 313 217 313 319 C313 433 355 508 459 508 L533 508 L533 268 C512 219 463 175 402 175 L402 175 Z " />
<glyph glyph-name="uni1EB4" unicode="&#x1eb4;" horiz-adv-x="1098" d="M808 0 L1075 0 L664 1456 L434 1456 L25 0 L291 0 L368 335 L731 335 L808 0 Z M547 1544 C711 1544 816 1637 816 1769 L657 1769 C657 1710 629 1657 547 1657 C466 1657 437 1710 437 1769 L279 1769 C279 1637 383 1544 547 1544 L547 1544 Z M466 1930 C531 1930 565 1859 645 1859 C717 1859 770 1943 770 2038 L671 2069 C671 2020 650 1982 625 1982 C563 1982 512 2053 446 2053 C373 2053 323 1966 323 1871 L420 1843 C420 1892 440 1930 466 1930 L466 1930 Z M415 541 L549 1123 L683 541 L415 541 Z " />
<glyph glyph-name="uni1EB5" unicode="&#x1eb5;" horiz-adv-x="874" d="M775 252 L775 753 C775 1001 632 1102 446 1102 C224 1102 89 943 89 768 L331 768 C331 851 366 914 433 914 C500 914 533 871 533 757 L533 659 L450 659 C194 659 72 511 72 305 C72 99 190 -20 345 -20 C432 -20 497 19 543 88 C549 54 556 23 566 0 L809 0 L809 17 C788 74 775 151 775 252 L775 252 Z M432 1234 C596 1234 701 1327 701 1459 L542 1459 C542 1400 514 1347 432 1347 C351 1347 322 1400 322 1459 L164 1459 C164 1327 268 1234 432 1234 L432 1234 Z M351 1620 C416 1620 450 1549 530 1549 C602 1549 655 1633 655 1728 L556 1759 C556 1710 535 1672 510 1672 C448 1672 397 1743 331 1743 C258 1743 208 1656 208 1561 L305 1533 C305 1582 325 1620 351 1620 L351 1620 Z M402 175 C340 175 313 217 313 319 C313 433 355 508 459 508 L533 508 L533 268 C512 219 463 175 402 175 L402 175 Z " />
<glyph glyph-name="uni1EB6" unicode="&#x1eb6;" horiz-adv-x="1098" d="M1075 0 L664 1456 L434 1456 L25 0 L291 0 L368 335 L731 335 L808 0 L1075 0 Z M546 1540 C730 1540 845 1656 845 1823 L669 1823 C669 1750 635 1684 546 1684 C455 1684 422 1750 422 1823 L245 1823 C245 1656 361 1540 546 1540 L546 1540 Z M569 -111 C485 -111 430 -165 430 -235 C430 -304 485 -358 569 -358 C654 -358 709 -304 709 -235 C709 -165 654 -111 569 -111 L569 -111 Z M415 541 L549 1123 L683 541 L415 541 Z " />
<glyph glyph-name="uni1EB7" unicode="&#x1eb7;" horiz-adv-x="874" d="M775 252 L775 753 C775 1001 632 1102 446 1102 C224 1102 89 943 89 768 L331 768 C331 851 366 914 433 914 C500 914 533 871 533 757 L533 659 L450 659 C194 659 72 511 72 305 C72 99 190 -20 345 -20 C432 -20 497 19 543 88 C549 54 556 23 566 0 L809 0 L809 17 C788 74 775 151 775 252 L775 252 Z M431 1230 C615 1230 730 1346 730 1513 L554 1513 C554 1440 520 1374 431 1374 C340 1374 307 1440 307 1513 L130 1513 C130 1346 246 1230 431 1230 L431 1230 Z M393 -106 C309 -106 254 -160 254 -230 C254 -299 309 -353 393 -353 C478 -353 533 -299 533 -230 C533 -160 478 -106 393 -106 L393 -106 Z M402 175 C340 175 313 217 313 319 C313 433 355 508 459 508 L533 508 L533 268 C512 219 463 175 402 175 L402 175 Z " />
<glyph glyph-name="uni1EB8" unicode="&#x1eb8;" horiz-adv-x="911" d="M363 204 L363 650 L783 650 L783 851 L363 851 L363 1251 L856 1251 L856 1456 L113 1456 L113 0 L858 0 L858 204 L363 204 Z M519 -105 C435 -105 380 -159 380 -229 C380 -298 435 -352 519 -352 C604 -352 659 -298 659 -229 C659 -159 604 -105 519 -105 L519 -105 Z " />
<glyph glyph-name="uni1EB9" unicode="&#x1eb9;" horiz-adv-x="885" d="M828 585 C828 927 701 1102 458 1102 C219 1102 76 936 76 574 L76 475 C76 145 227 -20 482 -20 C656 -20 760 65 812 145 L713 288 C662 220 589 177 505 177 C384 177 319 260 317 468 L828 468 L828 585 Z M467 -115 C383 -115 328 -169 328 -239 C328 -308 383 -362 467 -362 C552 -362 607 -308 607 -239 C607 -169 552 -115 467 -115 L467 -115 Z M589 644 L318 644 C326 828 366 907 460 907 C553 907 588 822 589 668 L589 644 Z " />
<glyph glyph-name="uni1EBA" unicode="&#x1eba;" horiz-adv-x="911" d="M363 204 L363 650 L783 650 L783 851 L363 851 L363 1251 L856 1251 L856 1456 L113 1456 L113 0 L858 0 L858 204 L363 204 Z M398 1719 L410 1578 L590 1578 L590 1645 C643 1655 699 1697 699 1793 C699 1910 600 1985 404 1985 L398 1862 C458 1862 495 1844 495 1790 C495 1743 467 1725 398 1719 L398 1719 Z " />
<glyph glyph-name="uni1EBB" unicode="&#x1ebb;" horiz-adv-x="885" d="M828 585 C828 927 701 1102 458 1102 C219 1102 76 936 76 574 L76 475 C76 145 227 -20 482 -20 C656 -20 760 65 812 145 L713 288 C662 220 589 177 505 177 C384 177 319 260 317 468 L828 468 L828 585 Z M327 1403 L339 1262 L519 1262 L519 1329 C572 1339 628 1381 628 1477 C628 1594 529 1669 333 1669 L327 1546 C387 1546 424 1528 424 1474 C424 1427 396 1409 327 1403 L327 1403 Z M589 644 L318 644 C326 828 366 907 460 907 C553 907 588 822 589 668 L589 644 Z " />
<glyph glyph-name="uni1EBC" unicode="&#x1ebc;" horiz-adv-x="911" d="M363 204 L363 650 L783 650 L783 851 L363 851 L363 1251 L856 1251 L856 1456 L113 1456 L113 0 L858 0 L858 204 L363 204 Z M408 1667 C486 1667 518 1576 614 1576 C716 1576 790 1685 790 1831 L653 1843 C653 1780 626 1739 593 1739 C517 1739 464 1829 386 1829 C284 1829 211 1716 211 1571 L349 1564 C349 1626 375 1667 408 1667 L408 1667 Z " />
<glyph glyph-name="uni1EBD" unicode="&#x1ebd;" horiz-adv-x="885" d="M828 585 C828 927 701 1102 458 1102 C219 1102 76 936 76 574 L76 475 C76 145 227 -20 482 -20 C656 -20 760 65 812 145 L713 288 C662 220 589 177 505 177 C384 177 319 260 317 468 L828 468 L828 585 Z M337 1351 C415 1351 447 1260 543 1260 C645 1260 719 1369 719 1515 L582 1527 C582 1464 555 1423 522 1423 C446 1423 393 1513 315 1513 C213 1513 140 1400 140 1255 L278 1248 C278 1310 304 1351 337 1351 L337 1351 Z M589 644 L318 644 C326 828 366 907 460 907 C553 907 588 822 589 668 L589 644 Z " />
<glyph glyph-name="uni1EBE" unicode="&#x1ebe;" horiz-adv-x="911" d="M363 650 L783 650 L783 851 L363 851 L363 1251 L856 1251 L856 1456 L113 1456 L113 0 L858 0 L858 204 L363 204 L363 650 Z M500 1689 L609 1549 L785 1549 L567 1792 L434 1792 L216 1549 L391 1549 L500 1689 Z M851 1966 L727 1701 L863 1701 L1042 1966 L851 1966 Z " />
<glyph glyph-name="uni1EBF" unicode="&#x1ebf;" horiz-adv-x="885" d="M458 1102 C219 1102 76 936 76 574 L76 475 C76 145 227 -20 482 -20 C656 -20 760 65 812 145 L713 288 C662 220 589 177 505 177 C384 177 319 260 317 468 L828 468 L828 585 C828 927 701 1102 458 1102 L458 1102 Z M429 1373 L538 1233 L714 1233 L496 1476 L363 1476 L145 1233 L320 1233 L429 1373 Z M971 1650 L780 1650 L656 1385 L792 1385 L971 1650 Z M589 644 L318 644 C326 828 366 907 460 907 C553 907 588 822 589 668 L589 644 Z " />
<glyph glyph-name="uni1EC0" unicode="&#x1ec0;" horiz-adv-x="911" d="M363 204 L363 650 L783 650 L783 851 L363 851 L363 1251 L856 1251 L856 1456 L113 1456 L113 0 L858 0 L858 204 L363 204 Z M275 1699 L151 1964 L-40 1964 L138 1699 L275 1699 Z M392 1547 L501 1687 L610 1547 L786 1547 L566 1790 L435 1790 L216 1547 L392 1547 Z " />
<glyph glyph-name="uni1EC1" unicode="&#x1ec1;" horiz-adv-x="885" d="M828 585 C828 927 701 1102 458 1102 C219 1102 76 936 76 574 L76 475 C76 145 227 -20 482 -20 C656 -20 760 65 812 145 L713 288 C662 220 589 177 505 177 C384 177 319 260 317 468 L828 468 L828 585 Z M80 1648 L-111 1648 L67 1383 L204 1383 L80 1648 Z M321 1231 L430 1371 L539 1231 L715 1231 L495 1474 L364 1474 L145 1231 L321 1231 Z M589 644 L318 644 C326 828 366 907 460 907 C553 907 588 822 589 668 L589 644 Z " />
<glyph glyph-name="uni1EC2" unicode="&#x1ec2;" horiz-adv-x="911" d="M363 650 L783 650 L783 851 L363 851 L363 1251 L856 1251 L856 1456 L113 1456 L113 0 L858 0 L858 204 L363 204 L363 650 Z M499 1697 L616 1540 L784 1540 L569 1784 L429 1784 L215 1540 L383 1540 L499 1697 Z M699 2017 L694 1913 C745 1913 779 1898 779 1851 C779 1812 751 1798 693 1793 L704 1672 L831 1672 L831 1729 C876 1738 923 1773 923 1855 C923 1955 848 2017 699 2017 L699 2017 Z " />
<glyph glyph-name="uni1EC3" unicode="&#x1ec3;" horiz-adv-x="885" d="M458 1102 C219 1102 76 936 76 574 L76 475 C76 145 227 -20 482 -20 C656 -20 760 65 812 145 L713 288 C662 220 589 177 505 177 C384 177 319 260 317 468 L828 468 L828 585 C828 927 701 1102 458 1102 L458 1102 Z M428 1381 L545 1224 L713 1224 L498 1468 L358 1468 L144 1224 L312 1224 L428 1381 Z M622 1477 L633 1356 L760 1356 L760 1413 C805 1422 852 1457 852 1539 C852 1639 777 1701 628 1701 L623 1597 C674 1597 708 1582 708 1535 C708 1496 680 1482 622 1477 L622 1477 Z M589 644 L318 644 C326 828 366 907 460 907 C553 907 588 822 589 668 L589 644 Z " />
<glyph glyph-name="uni1EC4" unicode="&#x1ec4;" horiz-adv-x="911" d="M363 204 L363 650 L783 650 L783 851 L363 851 L363 1251 L856 1251 L856 1456 L113 1456 L113 0 L858 0 L858 204 L363 204 Z M501 1668 L618 1527 L786 1527 L566 1760 L438 1760 L217 1527 L385 1527 L501 1668 Z M434 1891 C488 1891 528 1823 593 1823 C656 1823 696 1900 696 1980 L615 2011 C615 1972 598 1935 576 1935 C526 1935 470 2001 417 2001 C355 2001 315 1921 315 1843 L397 1818 C397 1857 412 1891 434 1891 L434 1891 Z " />
<glyph glyph-name="uni1EC5" unicode="&#x1ec5;" horiz-adv-x="885" d="M828 585 C828 927 701 1102 458 1102 C219 1102 76 936 76 574 L76 475 C76 145 227 -20 482 -20 C656 -20 760 65 812 145 L713 288 C662 220 589 177 505 177 C384 177 319 260 317 468 L828 468 L828 585 Z M430 1352 L547 1211 L715 1211 L495 1444 L367 1444 L146 1211 L314 1211 L430 1352 Z M363 1575 C417 1575 457 1507 522 1507 C585 1507 625 1584 625 1664 L544 1695 C544 1656 527 1619 505 1619 C455 1619 399 1685 346 1685 C284 1685 244 1605 244 1527 L326 1502 C326 1541 341 1575 363 1575 L363 1575 Z M589 644 L318 644 C326 828 366 907 460 907 C553 907 588 822 589 668 L589 644 Z " />
<glyph glyph-name="uni1EC6" unicode="&#x1ec6;" horiz-adv-x="911" d="M363 204 L363 650 L783 650 L783 851 L363 851 L363 1251 L856 1251 L856 1456 L113 1456 L113 0 L858 0 L858 204 L363 204 Z M501 1721 L614 1565 L803 1565 L803 1577 L570 1853 L431 1853 L202 1580 L202 1565 L388 1565 L501 1721 Z M519 -105 C435 -105 380 -159 380 -229 C380 -298 435 -352 519 -352 C604 -352 659 -298 659 -229 C659 -159 604 -105 519 -105 L519 -105 Z " />
<glyph glyph-name="uni1EC7" unicode="&#x1ec7;" horiz-adv-x="885" d="M828 585 C828 927 701 1102 458 1102 C219 1102 76 936 76 574 L76 475 C76 145 227 -20 482 -20 C656 -20 760 65 812 145 L713 288 C662 220 589 177 505 177 C384 177 319 260 317 468 L828 468 L828 585 Z M430 1405 L543 1249 L732 1249 L732 1261 L499 1537 L360 1537 L131 1264 L131 1249 L317 1249 L430 1405 Z M467 -115 C383 -115 328 -169 328 -239 C328 -308 383 -362 467 -362 C552 -362 607 -308 607 -239 C607 -169 552 -115 467 -115 L467 -115 Z M589 644 L318 644 C326 828 366 907 460 907 C553 907 588 822 589 668 L589 644 Z " />
<glyph glyph-name="uni1EC8" unicode="&#x1ec8;" horiz-adv-x="500" d="M376 0 L376 1456 L126 1456 L126 0 L376 0 Z M159 1578 L339 1578 L339 1645 C392 1655 448 1697 448 1793 C448 1910 349 1985 153 1985 L147 1862 C207 1862 244 1844 244 1790 C244 1743 216 1725 147 1719 L159 1578 Z " />
<glyph glyph-name="uni1EC9" unicode="&#x1ec9;" horiz-adv-x="482" d="M360 0 L360 1082 L118 1082 L118 0 L360 0 Z M150 1252 L330 1252 L330 1319 C383 1329 439 1371 439 1467 C439 1584 340 1659 144 1659 L138 1536 C198 1536 235 1518 235 1464 C235 1417 207 1399 138 1393 L150 1252 Z " />
<glyph glyph-name="uni1ECA" unicode="&#x1eca;" horiz-adv-x="500" d="M376 0 L376 1456 L126 1456 L126 0 L376 0 Z M266 -110 C182 -110 127 -164 127 -234 C127 -303 182 -357 266 -357 C351 -357 406 -303 406 -234 C406 -164 351 -110 266 -110 L266 -110 Z " />
<glyph glyph-name="uni1ECB" unicode="&#x1ecb;" horiz-adv-x="465" d="M354 0 L354 1082 L111 1082 L111 0 L354 0 Z M231 1497 C151 1497 99 1441 99 1367 C99 1292 151 1237 231 1237 C313 1237 364 1292 364 1367 C364 1441 313 1497 231 1497 L231 1497 Z M248 -105 C164 -105 109 -159 109 -229 C109 -298 164 -352 248 -352 C333 -352 388 -298 388 -229 C388 -159 333 -105 248 -105 L248 -105 Z " />
<glyph glyph-name="uni1ECC" unicode="&#x1ecc;" horiz-adv-x="1114" d="M1025 608 L1025 839 C1025 1256 836 1476 556 1476 C277 1476 88 1256 88 839 L88 608 C88 195 280 -20 558 -20 C837 -20 1025 195 1025 608 L1025 608 Z M576 -115 C492 -115 437 -169 437 -239 C437 -308 492 -362 576 -362 C661 -362 716 -308 716 -239 C716 -169 661 -115 576 -115 L576 -115 Z M774 841 L774 608 C774 315 698 188 558 188 C417 188 339 315 339 608 L339 841 C339 1139 416 1267 556 1267 C697 1267 774 1139 774 841 L774 841 Z " />
<glyph glyph-name="uni1ECD" unicode="&#x1ecd;" horiz-adv-x="922" d="M70 581 L70 501 C70 165 221 -20 462 -20 C701 -20 852 165 852 501 L852 581 C852 917 701 1102 460 1102 C221 1102 70 917 70 581 L70 581 Z M475 -120 C391 -120 336 -174 336 -244 C336 -313 391 -367 475 -367 C560 -367 615 -313 615 -244 C615 -174 560 -120 475 -120 L475 -120 Z M311 501 L311 581 C311 793 366 905 460 905 C557 905 610 793 610 581 L610 501 C610 285 560 178 462 178 C365 178 311 285 311 501 L311 501 Z " />
</font>
</svg>
