<?xml version="1.0" encoding="UTF-8"?>
<svg xmlns="http://www.w3.org/2000/svg" xmlns:xlink="http://www.w3.org/1999/xlink" version="1.1" >
<font id="Gotho-5No800ExBd" horiz-adv-x="774">
<font-face  font-family="Gotho" units-per-em="2048" ascent="2146" descent="-555" font-style="normal" font-weight="800" font-stretch="normal" cap-height="1456" x-height="1082" underline-position="-100" underline-thickness="100" />
<missing-glyph horiz-adv-x="809" d="M707 1456 L103 1456 L103 0 L707 0 L707 1456 Z M403 660 L622 54 L184 54 L403 660 Z M378 728 L149 96 L149 1360 L378 728 Z M428 728 L660 1371 L660 85 L428 728 Z M184 1402 L622 1402 L403 796 L184 1402 Z " />
<glyph glyph-name="NULL" horiz-adv-x="0" />
<glyph glyph-name="CR" unicode="&#xd;" horiz-adv-x="471" />
<glyph glyph-name="space" unicode="&#x20;" horiz-adv-x="471" />
<glyph glyph-name="uni0002" unicode="&#x2;" horiz-adv-x="0" />
<glyph glyph-name="uni0009" unicode="&#x9;" horiz-adv-x="471" />
<glyph glyph-name="exclam" unicode="&#x21;" horiz-adv-x="521" d="M267 266 C180 266 124 205 124 125 C124 46 180 -15 267 -15 C354 -15 409 46 409 125 C409 205 354 266 267 266 L267 266 Z M374 439 L404 1456 L130 1456 L159 439 L374 439 Z " />
<glyph glyph-name="quotedbl" unicode="&#x22;" horiz-adv-x="631" d="M259 1399 L259 1537 L74 1537 L74 1003 L222 1003 L259 1399 Z M559 1399 L559 1537 L375 1537 L375 1003 L524 1003 L559 1399 Z " />
<glyph glyph-name="numbersign" unicode="&#x23;" horiz-adv-x="1088" d="M1030 878 L1030 1040 L848 1040 L911 1456 L748 1456 L685 1040 L528 1040 L591 1456 L428 1456 L365 1040 L144 1040 L144 878 L340 878 L294 572 L79 572 L79 410 L269 410 L207 0 L371 0 L433 410 L590 410 L528 0 L691 0 L753 410 L966 410 L966 572 L777 572 L824 878 L1030 878 Z M614 572 L457 572 L504 878 L661 878 L614 572 Z " />
<glyph glyph-name="dollar" unicode="&#x24;" horiz-adv-x="1039" d="M575 845 C441 903 399 967 399 1074 C399 1183 442 1264 538 1264 C626 1264 684 1172 684 1007 L941 1007 C941 1271 817 1435 622 1470 L622 1688 L477 1688 L477 1473 C275 1447 142 1297 142 1074 C142 817 291 712 512 613 C639 560 684 495 684 381 C684 270 633 192 527 192 C439 192 352 250 352 450 L95 450 C95 136 272 8 458 -17 L458 -214 L602 -214 L602 -16 C808 11 941 152 941 383 C941 638 794 743 575 845 L575 845 Z " />
<glyph glyph-name="percent" unicode="&#x25;" horiz-adv-x="1321" d="M687 357 L687 280 C687 116 783 -21 961 -21 C1140 -21 1231 116 1231 280 L1231 357 C1231 521 1140 657 959 657 C783 657 687 521 687 357 L687 357 Z M420 110 L1027 1248 L902 1321 L294 183 L420 110 Z M98 1176 L98 1099 C98 936 193 800 371 800 C549 800 641 936 641 1099 L641 1176 C641 1341 549 1477 369 1477 C193 1477 98 1341 98 1176 L98 1176 Z M859 280 L859 357 C859 433 891 503 959 503 C1027 503 1061 433 1061 357 L1061 280 C1061 203 1040 134 961 134 C899 134 859 204 859 280 L859 280 Z M269 1099 L269 1176 C269 1253 302 1323 369 1323 C438 1323 471 1253 471 1176 L471 1099 C471 1024 439 954 371 954 C302 954 269 1025 269 1099 L269 1099 Z " />
<glyph glyph-name="ampersand" unicode="&#x26;" horiz-adv-x="1183" d="M1151 0 L960 264 C1037 385 1073 534 1073 703 L854 703 C854 615 839 535 814 466 L604 757 L683 825 C783 910 849 1010 849 1146 C849 1324 722 1477 526 1477 C318 1477 182 1330 182 1102 C182 990 230 891 306 776 C171 663 78 562 78 391 C78 150 234 -21 487 -21 C602 -21 704 14 796 86 L857 0 L1151 0 Z M499 191 C401 191 336 283 336 404 C336 456 340 531 414 594 L426 604 L673 258 C620 215 560 191 499 191 L499 191 Z M525 1266 C594 1266 635 1199 635 1133 C635 1063 620 1015 548 960 L490 916 C445 985 414 1046 414 1107 C414 1194 451 1266 525 1266 L525 1266 Z " />
<glyph glyph-name="quotesingle" unicode="&#x27;" horiz-adv-x="327" d="M264 1397 L264 1536 L70 1536 L70 1383 L69 1005 L237 1005 L264 1397 Z " />
<glyph glyph-name="parenleft" unicode="&#x28;" horiz-adv-x="655" d="M122 592 L122 572 C122 6 366 -356 554 -459 L604 -317 C478 -199 342 79 342 570 L342 594 C342 1084 478 1363 604 1476 L554 1623 C366 1520 122 1157 122 592 L122 592 Z " />
<glyph glyph-name="parenright" unicode="&#x29;" horiz-adv-x="658" d="M547 572 L547 592 C547 1141 296 1520 101 1623 L52 1481 C171 1367 313 1084 313 594 L313 570 C313 79 175 -203 52 -317 L101 -459 C296 -356 547 21 547 572 L547 572 Z " />
<glyph glyph-name="asterisk" unicode="&#x2a;" horiz-adv-x="884" d="M328 969 L125 695 L272 592 L443 875 L614 583 L760 690 L564 958 L864 1049 L809 1221 L524 1101 L542 1457 L361 1457 L378 1108 L87 1230 L32 1059 L328 969 Z " />
<glyph glyph-name="plus" unicode="&#x2b;" horiz-adv-x="990" d="M918 806 L617 806 L617 1206 L371 1206 L371 806 L66 806 L66 568 L371 568 L371 146 L617 146 L617 568 L918 568 L918 806 Z " />
<glyph glyph-name="comma" unicode="&#x2c;" horiz-adv-x="474" d="M360 54 L361 239 L136 239 L136 42 C136 -94 87 -181 39 -271 L176 -347 C285 -251 360 -90 360 54 L360 54 Z " />
<glyph glyph-name="hyphen" unicode="&#x2d;" horiz-adv-x="704" d="M589 518 L589 731 L108 731 L108 518 L589 518 Z " />
<glyph glyph-name="period" unicode="&#x2e;" horiz-adv-x="568" d="M276 275 C185 275 127 212 127 131 C127 51 185 -12 276 -12 C367 -12 425 51 425 131 C425 212 367 275 276 275 L276 275 Z " />
<glyph glyph-name="slash" unicode="&#x2f;" horiz-adv-x="694" d="M196 -125 L654 1456 L463 1456 L4 -125 L196 -125 Z " />
<glyph glyph-name="zero" unicode="0" horiz-adv-x="1039" d="M940 607 L940 854 C940 1298 769 1476 519 1476 C269 1476 98 1298 98 854 L98 607 C98 163 271 -20 521 -20 C770 -20 940 163 940 607 L940 607 Z M683 891 L683 571 C683 295 624 192 521 192 C417 192 355 295 355 571 L355 891 C355 1166 417 1265 519 1265 C622 1265 683 1166 683 891 L683 891 Z " />
<glyph glyph-name="one" unicode="1" horiz-adv-x="1040" d="M707 0 L707 1459 L678 1459 L159 1249 L159 1032 L449 1147 L449 0 L707 0 Z " />
<glyph glyph-name="two" unicode="2" horiz-adv-x="1039" d="M957 0 L957 212 L414 212 L655 521 C812 710 918 880 918 1069 C918 1321 775 1477 512 1477 C240 1477 75 1264 75 1006 L334 1006 C334 1156 392 1266 507 1266 C605 1266 659 1177 659 1043 C659 951 626 853 498 691 L87 180 L86 0 L957 0 Z " />
<glyph glyph-name="three" unicode="3" horiz-adv-x="1040" d="M723 748 C848 813 917 939 917 1063 C917 1334 745 1477 494 1477 C265 1477 85 1315 85 1078 L344 1078 C344 1194 414 1266 500 1266 C607 1266 660 1183 660 1061 C660 933 603 846 484 846 L351 846 L351 641 L484 641 C605 641 678 573 678 410 C678 275 610 192 499 192 C400 192 330 277 330 396 L72 396 C72 115 279 -20 493 -20 C744 -20 935 136 935 408 C935 562 868 690 723 748 L723 748 Z " />
<glyph glyph-name="four" unicode="4" horiz-adv-x="1039" d="M973 534 L837 534 L837 1456 L537 1456 L48 485 L60 323 L594 323 L594 0 L837 0 L837 323 L973 323 L973 534 Z M313 534 L593 1154 L594 1156 L594 534 L313 534 Z " />
<glyph glyph-name="five" unicode="5" horiz-adv-x="1039" d="M137 721 L342 669 C375 714 414 752 502 752 C632 752 694 640 694 479 C694 313 645 192 526 192 C432 192 370 268 358 400 L105 400 C112 131 312 -20 528 -20 C813 -20 951 204 951 467 C951 772 813 956 571 956 C492 956 425 922 390 898 L420 1236 L907 1236 L907 1456 L209 1456 L137 721 Z " />
<glyph glyph-name="six" unicode="6" horiz-adv-x="1039" d="M603 978 C500 978 420 942 361 882 C379 1137 488 1263 667 1263 C722 1263 768 1248 806 1234 L842 1433 C774 1465 708 1477 617 1477 C326 1477 102 1235 102 797 L102 539 C102 175 292 -21 539 -21 C795 -21 961 196 961 486 C961 763 831 978 603 978 L603 978 Z M539 191 C437 191 359 304 359 540 L359 665 C389 728 444 769 526 769 C636 769 705 653 705 486 C705 330 649 191 539 191 L539 191 Z " />
<glyph glyph-name="seven" unicode="7" horiz-adv-x="1038" d="M69 1456 L69 1245 L702 1245 C482 940 359 584 319 147 L306 0 L564 0 L577 147 C612 536 646 845 950 1245 L950 1456 L69 1456 Z " />
<glyph glyph-name="eight" unicode="8" horiz-adv-x="1039" d="M737 750 C845 815 912 930 912 1072 C912 1333 751 1477 519 1477 C290 1477 126 1333 126 1072 C126 930 193 815 301 751 C178 685 99 559 99 397 C99 125 281 -20 520 -20 C760 -20 938 125 938 397 C938 559 860 684 737 750 L737 750 Z M520 192 C419 192 357 275 357 415 C357 553 420 642 519 642 C618 642 680 553 680 415 C680 275 621 192 520 192 L520 192 Z M519 1266 C607 1266 656 1183 656 1060 C656 936 608 853 520 853 C433 853 384 936 384 1060 C384 1187 433 1266 519 1266 L519 1266 Z " />
<glyph glyph-name="nine" unicode="9" horiz-adv-x="1039" d="M502 1477 C264 1477 89 1264 89 959 C89 657 227 456 460 456 C540 456 615 485 673 542 L673 541 C673 309 586 191 433 191 C365 191 304 214 253 237 L212 41 C292 0 379 -21 464 -21 C728 -21 930 187 930 555 L930 895 C930 1277 747 1477 502 1477 L502 1477 Z M516 658 C404 658 345 791 345 959 C345 1136 410 1266 504 1266 C605 1266 673 1155 673 927 L673 757 C643 701 591 658 516 658 L516 658 Z " />
<glyph glyph-name="colon" unicode="&#x3a;" horiz-adv-x="538" d="M281 275 C190 275 132 212 132 131 C132 51 190 -12 281 -12 C372 -12 430 51 430 131 C430 212 372 275 281 275 L281 275 Z M277 1089 C186 1089 128 1026 128 945 C128 865 186 802 277 802 C368 802 426 865 426 945 C426 1026 368 1089 277 1089 L277 1089 Z " />
<glyph glyph-name="semicolon" unicode="&#x3b;" horiz-adv-x="497" d="M264 1111 C173 1111 115 1048 115 967 C115 887 173 824 264 824 C355 824 413 887 413 967 C413 1048 355 1111 264 1111 L264 1111 Z M384 54 L385 239 L160 239 L160 42 C160 -94 111 -181 63 -271 L200 -347 C309 -251 384 -90 384 54 L384 54 Z " />
<glyph glyph-name="less" unicode="&#x3c;" horiz-adv-x="923" d="M796 1102 L64 734 L64 522 L796 153 L796 410 L315 626 L796 846 L796 1102 Z " />
<glyph glyph-name="equal" unicode="&#x3d;" horiz-adv-x="1032" d="M896 335 L896 550 L134 550 L134 335 L896 335 Z M896 763 L896 978 L134 978 L134 763 L896 763 Z " />
<glyph glyph-name="greater" unicode="&#x3e;" horiz-adv-x="940" d="M122 1101 L122 848 L615 630 L122 408 L122 153 L867 522 L867 734 L122 1101 Z " />
<glyph glyph-name="question" unicode="&#x3f;" horiz-adv-x="909" d="M429 269 C341 269 287 208 287 129 C287 50 341 -12 429 -12 C517 -12 571 50 571 129 C571 208 517 269 429 269 L429 269 Z M309 439 L539 439 C541 541 557 614 620 682 C728 803 831 911 831 1088 C831 1334 687 1476 446 1476 C226 1476 58 1347 55 1081 L313 1081 C315 1206 382 1261 446 1261 C529 1261 573 1196 573 1077 C573 969 516 904 440 820 C342 709 310 621 309 439 L309 439 Z " />
<glyph glyph-name="at" unicode="&#x40;" horiz-adv-x="1592" d="M837 1419 C392 1419 108 1014 88 467 C67 -121 326 -453 775 -453 C882 -453 1015 -424 1095 -364 L1062 -222 C991 -263 879 -293 779 -293 C435 -293 244 -21 263 467 C280 931 487 1266 833 1266 C1200 1266 1363 977 1347 523 C1338 301 1269 129 1160 129 C1110 129 1064 160 1075 309 L1119 882 C1050 939 987 990 854 990 C656 990 489 771 459 428 C434 159 535 -19 703 -19 C788 -19 864 29 920 123 C957 32 1030 -21 1127 -21 C1391 -21 1495 263 1504 530 C1523 1065 1278 1419 837 1419 L837 1419 Z M766 150 C684 150 643 249 657 428 C675 689 743 827 871 827 C894 827 914 823 933 817 L897 320 C860 189 803 150 766 150 L766 150 Z " />
<glyph glyph-name="A" unicode="A" horiz-adv-x="1219" d="M914 0 L1198 0 L732 1456 L487 1456 L23 0 L306 0 L394 320 L826 320 L914 0 Z M454 541 L610 1107 L765 541 L454 541 Z " />
<glyph glyph-name="B" unicode="B" horiz-adv-x="1152" d="M842 753 C970 810 1029 927 1029 1061 C1029 1332 857 1456 569 1456 L126 1456 L126 0 L603 0 C892 0 1054 147 1054 426 C1054 573 993 710 842 753 L842 753 Z M603 219 L393 219 L393 647 L612 647 C738 647 786 562 786 428 C786 306 730 219 603 219 L603 219 Z M569 1236 C702 1236 760 1178 760 1038 C760 912 696 843 568 843 L393 843 L393 1236 L569 1236 Z " />
<glyph glyph-name="C" unicode="C" horiz-adv-x="1178" d="M1108 480 L840 480 C828 275 765 200 605 200 C425 200 362 346 362 625 L362 833 C362 1121 440 1256 610 1256 C774 1256 831 1173 842 969 L1109 969 C1086 1287 924 1477 610 1477 C292 1477 93 1235 93 831 L93 625 C93 220 285 -20 605 -20 C915 -20 1091 167 1108 480 L1108 480 Z " />
<glyph glyph-name="D" unicode="D" horiz-adv-x="1171" d="M508 1456 L126 1456 L126 0 L504 0 C847 0 1075 236 1075 635 L1075 820 C1075 1219 846 1456 508 1456 L508 1456 Z M806 635 C806 354 721 219 504 219 L393 219 L393 1236 L508 1236 C719 1236 806 1108 806 823 L806 635 Z " />
<glyph glyph-name="E" unicode="E" horiz-adv-x="1017" d="M393 219 L393 643 L876 643 L876 857 L393 857 L393 1236 L958 1236 L958 1456 L126 1456 L126 0 L961 0 L961 219 L393 219 Z " />
<glyph glyph-name="F" unicode="F" horiz-adv-x="988" d="M934 1236 L934 1456 L126 1456 L126 0 L393 0 L393 609 L873 609 L873 828 L393 828 L393 1236 L934 1236 Z " />
<glyph glyph-name="G" unicode="G" horiz-adv-x="1216" d="M1113 175 L1113 754 L618 754 L618 552 L845 552 L845 271 C819 248 771 199 650 199 C465 199 368 331 368 624 L368 835 C368 1125 453 1258 625 1258 C772 1258 834 1174 852 1003 L1112 1003 C1086 1298 942 1477 618 1477 C298 1477 99 1258 99 833 L99 624 C99 197 313 -20 636 -20 C913 -20 1054 105 1113 175 L1113 175 Z " />
<glyph glyph-name="H" unicode="H" horiz-adv-x="1271" d="M876 1456 L876 857 L393 857 L393 1456 L126 1456 L126 0 L393 0 L393 638 L876 638 L876 0 L1144 0 L1144 1456 L876 1456 Z " />
<glyph glyph-name="I" unicode="I" horiz-adv-x="545" d="M407 0 L407 1456 L140 1456 L140 0 L407 0 Z " />
<glyph glyph-name="J" unicode="J" horiz-adv-x="1010" d="M621 1456 L621 444 C621 287 562 199 468 199 C378 199 317 260 317 424 L49 424 C49 121 225 -20 468 -20 C708 -20 888 153 888 444 L888 1456 L621 1456 Z " />
<glyph glyph-name="K" unicode="K" horiz-adv-x="1141" d="M829 0 L1146 0 L694 816 L1133 1456 L805 1456 L493 962 L393 800 L393 1456 L126 1456 L126 0 L393 0 L393 459 L518 601 L829 0 Z " />
<glyph glyph-name="L" unicode="L" horiz-adv-x="983" d="M393 219 L393 1456 L126 1456 L126 0 L931 0 L931 219 L393 219 Z " />
<glyph glyph-name="M" unicode="M" horiz-adv-x="1567" d="M1440 1456 L1088 1456 L783 450 L477 1456 L126 1456 L126 0 L393 0 L393 442 L361 1079 L690 0 L875 0 L1204 1082 L1172 442 L1172 0 L1440 0 L1440 1456 Z " />
<glyph glyph-name="N" unicode="N" horiz-adv-x="1269" d="M1142 0 L1142 1456 L876 1456 L876 482 L414 1456 L126 1456 L126 0 L393 0 L393 964 L862 0 L1142 0 Z " />
<glyph glyph-name="O" unicode="O" horiz-adv-x="1244" d="M1148 628 L1148 821 C1148 1244 935 1476 621 1476 C308 1476 94 1244 94 821 L94 628 C94 208 311 -20 623 -20 C937 -20 1148 208 1148 628 L1148 628 Z M881 823 L881 628 C881 337 789 203 623 203 C457 203 362 337 362 628 L362 823 C362 1118 455 1252 621 1252 C787 1252 881 1118 881 823 L881 823 Z " />
<glyph glyph-name="P" unicode="P" horiz-adv-x="1166" d="M617 1456 L126 1456 L126 0 L393 0 L393 529 L617 529 C912 529 1088 703 1088 984 C1088 1258 912 1456 617 1456 L617 1456 Z M617 748 L393 748 L393 1236 L617 1236 C758 1236 817 1115 817 982 C817 846 758 748 617 748 L617 748 Z " />
<glyph glyph-name="Q" unicode="Q" horiz-adv-x="1244" d="M1149 -103 L939 86 C1070 193 1147 379 1147 635 L1147 821 C1147 1245 933 1476 619 1476 C306 1476 92 1245 92 821 L92 635 C92 211 309 -20 620 -20 C651 -20 682 -18 711 -13 L980 -258 L1149 -103 Z M361 635 L361 823 C361 1118 454 1252 619 1252 C786 1252 879 1118 879 823 L879 635 C879 340 787 203 620 203 C455 203 361 340 361 635 L361 635 Z " />
<glyph glyph-name="R" unicode="R" horiz-adv-x="1177" d="M1047 247 L1047 354 C1047 521 996 651 840 704 C976 766 1060 869 1060 1032 C1060 1305 909 1456 625 1456 L129 1456 L129 0 L397 0 L397 585 L607 585 C723 585 781 499 781 352 L781 249 C781 202 782 51 835 0 L1110 0 L1110 28 C1059 77 1047 187 1047 247 L1047 247 Z M600 804 L397 804 L397 1236 L611 1236 C740 1236 793 1147 793 1014 C793 880 730 804 600 804 L600 804 Z " />
<glyph glyph-name="S" unicode="S" horiz-adv-x="1108" d="M528 619 C726 542 762 490 762 379 C762 272 706 196 579 196 C434 196 344 266 344 450 L85 450 C85 129 299 -20 579 -20 C874 -20 1030 128 1030 384 C1030 617 891 755 619 856 C463 908 380 970 380 1073 C380 1177 441 1259 568 1259 C704 1259 763 1164 763 1030 L1022 1030 C1022 1284 885 1476 572 1476 C289 1476 114 1313 114 1073 C114 827 301 703 528 619 L528 619 Z " />
<glyph glyph-name="T" unicode="T" horiz-adv-x="1113" d="M1062 1456 L51 1456 L51 1236 L420 1236 L420 0 L688 0 L688 1236 L1062 1236 L1062 1456 Z " />
<glyph glyph-name="U" unicode="U" horiz-adv-x="1181" d="M1070 1456 L801 1456 L801 462 C801 261 726 199 591 199 C458 199 380 261 380 462 L380 1456 L112 1456 L112 462 C112 127 312 -20 591 -20 C866 -20 1070 127 1070 462 L1070 1456 Z " />
<glyph glyph-name="V" unicode="V" horiz-adv-x="1182" d="M864 1456 L591 334 L319 1456 L22 1456 L453 0 L729 0 L1161 1456 L864 1456 Z " />
<glyph glyph-name="W" unicode="W" horiz-adv-x="1560" d="M1251 1456 L1099 461 L904 1456 L661 1456 L472 477 L313 1456 L47 1456 L319 0 L598 0 L782 962 L967 0 L1246 0 L1516 1456 L1251 1456 Z " />
<glyph glyph-name="X" unicode="X" horiz-adv-x="1150" d="M576 927 L353 1456 L46 1456 L405 734 L37 0 L348 0 L576 540 L804 0 L1114 0 L748 734 L1106 1456 L799 1456 L576 927 Z " />
<glyph glyph-name="Y" unicode="Y" horiz-adv-x="1115" d="M558 769 L310 1456 L17 1456 L422 533 L422 0 L692 0 L692 533 L1097 1456 L804 1456 L558 769 Z " />
<glyph glyph-name="Z" unicode="Z" horiz-adv-x="1094" d="M391 219 L1013 1295 L1013 1456 L78 1456 L78 1236 L705 1236 L79 166 L79 0 L1027 0 L1027 219 L391 219 Z " />
<glyph glyph-name="bracketleft" unicode="&#x5b;" horiz-adv-x="528" d="M493 1484 L493 1687 L117 1687 L117 -333 L493 -333 L493 -129 L375 -129 L375 1484 L493 1484 Z " />
<glyph glyph-name="backslash" unicode="&#x5c;" horiz-adv-x="777" d="M17 1456 L535 -125 L796 -125 L278 1456 L17 1456 Z " />
<glyph glyph-name="bracketright" unicode="&#x5d;" horiz-adv-x="529" d="M30 1687 L30 1484 L150 1484 L150 -129 L30 -129 L30 -333 L407 -333 L407 1687 L30 1687 Z " />
<glyph glyph-name="asciicircum" unicode="&#x5e;" horiz-adv-x="799" d="M748 729 L493 1456 L309 1456 L53 729 L259 729 L401 1198 L544 729 L748 729 Z " />
<glyph glyph-name="underscore" unicode="&#x5f;" horiz-adv-x="822" d="M803 -207 L803 0 L19 0 L19 -207 L803 -207 Z " />
<glyph glyph-name="grave" unicode="&#x60;" horiz-adv-x="646" d="M524 1231 L338 1536 L50 1536 L309 1231 L524 1231 Z " />
<glyph glyph-name="a" unicode="a" horiz-adv-x="974" d="M864 257 L864 745 C864 995 706 1102 494 1102 C250 1102 97 945 97 764 L355 764 C355 846 401 904 480 904 C566 904 607 857 607 749 L607 659 L498 659 C213 659 78 514 78 305 C78 101 205 -20 383 -20 C486 -20 565 21 619 88 C624 54 632 24 643 0 L902 0 L902 17 C878 73 864 146 864 257 L864 257 Z M440 185 C363 185 335 227 335 319 C335 426 381 501 509 501 L607 501 L607 280 C581 231 518 185 440 185 L440 185 Z " />
<glyph glyph-name="b" unicode="b" horiz-adv-x="1021" d="M595 1102 C496 1102 422 1061 367 989 L367 1536 L110 1536 L110 0 L346 0 L356 109 C411 28 489 -20 597 -20 C832 -20 949 168 949 508 L949 575 C949 916 833 1102 595 1102 L595 1102 Z M692 508 C692 296 659 194 521 194 C443 194 395 233 367 295 L367 785 C395 849 445 889 520 889 C659 889 692 776 692 575 L692 508 Z " />
<glyph glyph-name="c" unicode="c" horiz-adv-x="948" d="M647 367 C645 245 588 192 498 192 C355 192 330 313 330 503 L330 580 C330 765 357 891 495 891 C598 891 645 816 647 687 L889 687 C886 953 734 1102 501 1102 C213 1102 73 900 73 580 L73 503 C73 183 213 -20 504 -20 C717 -20 886 131 889 367 L647 367 Z " />
<glyph glyph-name="d" unicode="d" horiz-adv-x="1022" d="M651 1536 L651 991 C596 1062 524 1102 430 1102 C200 1102 71 921 71 573 L71 506 C71 173 201 -20 429 -20 C531 -20 608 28 664 109 L676 0 L910 0 L910 1536 L651 1536 Z M500 194 C372 194 329 301 329 506 L329 573 C329 780 375 889 501 889 C571 889 621 852 651 791 L651 289 C621 230 572 194 500 194 L500 194 Z " />
<glyph glyph-name="e" unicode="e" horiz-adv-x="983" d="M922 585 C922 923 780 1102 515 1102 C243 1102 80 927 80 568 L80 482 C80 148 250 -20 537 -20 C726 -20 845 66 904 150 L791 302 C734 232 652 192 559 192 C420 192 343 272 337 463 L922 463 L922 585 Z M668 644 L339 644 C350 813 403 894 516 894 C624 894 667 811 668 669 L668 644 Z " />
<glyph glyph-name="f" unicode="f" horiz-adv-x="667" d="M572 1343 C600 1343 626 1340 646 1334 L649 1539 C609 1550 567 1557 523 1557 C311 1557 178 1425 178 1182 L178 1082 L42 1082 L42 890 L178 890 L178 0 L436 0 L436 890 L615 890 L615 1082 L436 1082 L436 1182 C436 1286 485 1343 572 1343 L572 1343 Z " />
<glyph glyph-name="g" unicode="g" horiz-adv-x="959" d="M581 219 L426 219 C364 219 319 234 319 295 C319 325 329 348 343 365 C380 356 420 351 462 351 C706 351 865 514 865 715 L865 737 C865 811 846 877 812 932 L923 932 L921 1082 L606 1082 C562 1095 513 1102 460 1102 C216 1102 56 952 56 737 L56 715 C56 586 122 472 234 408 C180 367 130 308 130 215 C130 163 146 123 172 93 C85 46 8 -37 8 -162 C8 -309 160 -438 439 -438 C742 -438 916 -244 916 -81 C916 115 795 219 581 219 L581 219 Z M313 737 C313 829 368 902 460 902 C553 902 608 829 608 737 L608 715 C608 630 554 551 462 551 C367 551 313 630 313 715 L313 737 Z M439 -239 C312 -239 251 -176 251 -101 C251 -44 274 3 302 26 C326 21 351 19 377 19 L545 19 C636 19 660 -31 660 -92 C660 -159 593 -239 439 -239 L439 -239 Z " />
<glyph glyph-name="h" unicode="h" horiz-adv-x="1012" d="M606 1102 C505 1102 422 1056 361 977 L361 1536 L104 1536 L104 0 L361 0 L361 792 C391 852 439 889 508 889 C599 889 649 839 649 690 L649 0 L906 0 L906 688 C906 989 782 1102 606 1102 L606 1102 Z " />
<glyph glyph-name="i" unicode="i" horiz-adv-x="503" d="M381 0 L381 1082 L122 1082 L122 0 L381 0 Z M251 1504 C164 1504 109 1445 109 1366 C109 1286 164 1228 251 1228 C339 1228 394 1286 394 1366 C394 1445 339 1504 251 1504 L251 1504 Z " />
<glyph glyph-name="j" unicode="j" horiz-adv-x="492" d="M380 1082 L122 1082 L122 -77 C122 -178 87 -222 20 -222 C-5 -222 -30 -219 -58 -212 L-58 -420 C-17 -432 25 -437 67 -437 C267 -437 380 -310 380 -77 L380 1082 Z M246 1504 C158 1504 104 1445 104 1366 C104 1286 158 1228 246 1228 C333 1228 388 1286 388 1366 C388 1445 333 1504 246 1504 L246 1504 Z " />
<glyph glyph-name="k" unicode="k" horiz-adv-x="974" d="M679 0 L975 0 L610 639 L943 1082 L649 1082 L410 711 L367 657 L367 1537 L110 1537 L110 0 L367 0 L367 393 L439 460 L679 0 Z " />
<glyph glyph-name="l" unicode="l" horiz-adv-x="588" d="M378 1536 L120 1536 L120 293 C120 66 226 -20 387 -20 C450 -20 496 -9 537 5 L539 205 C523 201 497 197 468 197 C407 197 378 218 378 316 L378 1536 Z " />
<glyph glyph-name="m" unicode="m" horiz-adv-x="1543" d="M1134 1102 C1011 1102 920 1043 860 949 C813 1056 726 1102 617 1102 C506 1102 419 1055 359 974 L351 1082 L110 1082 L110 0 L367 0 L367 789 C396 850 442 889 509 889 C593 889 642 844 642 694 L642 0 L900 0 L900 722 C900 739 900 754 899 770 C924 842 972 889 1042 889 C1124 889 1174 850 1174 695 L1174 0 L1432 0 L1432 695 C1432 991 1316 1102 1134 1102 L1134 1102 Z " />
<glyph glyph-name="n" unicode="n" horiz-adv-x="1014" d="M616 1102 C508 1102 418 1053 354 967 L347 1082 L104 1082 L104 0 L361 0 L361 781 C392 847 442 889 510 889 C600 889 650 841 650 695 L650 0 L907 0 L907 694 C907 994 789 1102 616 1102 L616 1102 Z " />
<glyph glyph-name="o" unicode="o" horiz-adv-x="1027" d="M74 575 L74 507 C74 176 241 -20 514 -20 C786 -20 953 176 953 507 L953 575 C953 906 786 1102 512 1102 C241 1102 74 906 74 575 L74 575 Z M331 507 L331 575 C331 774 393 891 512 891 C635 891 695 774 695 575 L695 507 C695 303 637 192 514 192 C392 192 331 303 331 507 L331 507 Z " />
<glyph glyph-name="p" unicode="p" horiz-adv-x="1020" d="M591 1102 C489 1102 413 1058 357 980 L348 1082 L110 1082 L110 -416 L367 -416 L367 90 C422 21 496 -20 594 -20 C826 -20 948 175 948 509 L948 575 C948 923 827 1102 591 1102 L591 1102 Z M691 509 C691 304 645 192 519 192 C443 192 395 227 367 284 L367 794 C396 854 444 889 517 889 C643 889 691 784 691 575 L691 509 Z " />
<glyph glyph-name="q" unicode="q" horiz-adv-x="1025" d="M683 1082 L667 976 C612 1056 535 1102 432 1102 C196 1102 71 922 71 574 L71 507 C71 174 198 -20 430 -20 C525 -20 597 19 651 87 L651 -416 L909 -416 L909 1082 L683 1082 Z M501 192 C374 192 329 303 329 507 L329 574 C329 782 376 891 502 891 C572 891 621 858 651 802 L651 280 C622 225 574 192 501 192 L501 192 Z " />
<glyph glyph-name="r" unicode="r" horiz-adv-x="672" d="M558 1102 C472 1102 406 1049 361 962 L354 1082 L110 1082 L110 0 L367 0 L367 726 C395 798 451 836 541 836 C569 836 606 833 632 828 L634 1089 C617 1097 583 1102 558 1102 L558 1102 Z " />
<glyph glyph-name="s" unicode="s" horiz-adv-x="936" d="M413 445 C538 395 607 367 607 286 C607 216 556 171 467 171 C380 171 305 214 300 334 L64 334 C64 157 175 -20 473 -20 C730 -20 858 110 858 305 C858 519 707 575 529 645 C402 693 342 714 342 796 C342 860 383 912 471 912 C565 912 606 847 606 763 L853 763 C853 961 731 1102 470 1102 C205 1102 95 956 95 779 C95 590 218 521 413 445 L413 445 Z " />
<glyph glyph-name="t" unicode="t" horiz-adv-x="627" d="M506 197 C446 197 416 218 416 316 L416 890 L570 890 L570 1082 L416 1082 L416 1349 L158 1349 L158 1082 L23 1082 L23 890 L158 890 L158 293 C158 66 264 -20 425 -20 C488 -20 535 -9 576 5 L577 205 C562 201 536 197 506 197 L506 197 Z " />
<glyph glyph-name="u" unicode="u" horiz-adv-x="1013" d="M649 1082 L649 299 C620 234 568 194 483 194 C414 194 361 242 361 381 L361 1082 L104 1082 L104 383 C104 96 228 -20 410 -20 C519 -20 602 26 659 104 L665 0 L907 0 L907 1082 L649 1082 Z " />
<glyph glyph-name="v" unicode="v" horiz-adv-x="919" d="M619 1082 L458 321 L296 1082 L27 1082 L337 0 L579 0 L887 1082 L619 1082 Z " />
<glyph glyph-name="w" unicode="w" horiz-adv-x="1318" d="M1029 1082 L914 356 L751 1082 L564 1082 L401 369 L286 1082 L38 1082 L274 0 L488 0 L658 702 L828 0 L1041 0 L1277 1082 L1029 1082 Z " />
<glyph glyph-name="x" unicode="x" horiz-adv-x="926" d="M464 709 L322 1082 L45 1082 L305 552 L34 0 L311 0 L465 394 L620 0 L896 0 L625 552 L887 1082 L611 1082 L464 709 Z " />
<glyph glyph-name="y" unicode="y" horiz-adv-x="911" d="M615 1082 L457 325 L296 1082 L19 1082 L342 -17 L320 -59 C295 -173 249 -221 153 -221 C142 -221 127 -220 116 -219 L116 -419 C155 -429 181 -437 228 -437 C422 -437 493 -272 526 -164 L892 1082 L615 1082 Z " />
<glyph glyph-name="z" unicode="z" horiz-adv-x="927" d="M385 212 L837 924 L837 1082 L92 1082 L92 871 L531 871 L81 165 L81 0 L848 0 L848 212 L385 212 Z " />
<glyph glyph-name="braceleft" unicode="&#x7b;" horiz-adv-x="615" d="M440 102 L440 307 C440 440 391 554 281 617 C391 680 440 794 440 927 L440 1132 C440 1281 466 1404 567 1449 L518 1597 C280 1520 207 1342 207 1132 L207 927 C207 796 163 712 58 712 L58 522 C163 522 207 437 207 307 L207 102 C207 -108 280 -286 518 -363 L566 -215 C465 -169 440 -47 440 102 L440 102 Z " />
<glyph glyph-name="bar" unicode="&#x7c;" horiz-adv-x="499" d="M332 -270 L332 1456 L169 1456 L169 -270 L332 -270 Z " />
<glyph glyph-name="braceright" unicode="&#x7d;" horiz-adv-x="615" d="M408 927 L408 1132 C408 1342 335 1520 97 1597 L48 1449 C148 1404 175 1281 175 1132 L175 927 C175 792 225 678 340 617 C225 557 175 442 175 307 L175 102 C175 -47 149 -169 48 -215 L97 -363 C335 -286 408 -108 408 102 L408 307 C408 437 451 522 557 522 L557 712 C451 712 408 796 408 927 L408 927 Z " />
<glyph glyph-name="asciitilde" unicode="&#x7e;" horiz-adv-x="1167" d="M1061 790 L871 790 C871 681 825 600 760 600 C716 600 678 629 631 687 C559 776 484 821 393 821 C226 821 105 665 105 422 L298 420 C298 529 340 605 405 605 C450 605 488 574 535 519 C614 425 680 383 773 383 C939 383 1061 549 1061 790 L1061 790 Z " />
<glyph glyph-name="uni00A0" unicode="&#xa0;" horiz-adv-x="471" />
<glyph glyph-name="exclamdown" unicode="&#xa1;" horiz-adv-x="535" d="M162 651 L133 -368 L407 -368 L376 651 L162 651 Z M269 821 C357 821 412 882 412 962 C412 1041 357 1102 269 1102 C182 1102 127 1041 127 962 C127 882 182 821 269 821 L269 821 Z " />
<glyph glyph-name="cent" unicode="&#xa2;" horiz-adv-x="1087" d="M530 192 C387 192 362 313 362 503 L362 580 C362 765 389 891 527 891 C630 891 677 816 679 687 L921 687 C918 919 803 1062 619 1095 L619 1318 L436 1318 L436 1093 C214 1052 105 862 105 580 L105 503 C105 222 213 31 436 -11 L436 -245 L619 -245 L619 -12 C791 22 918 163 921 367 L679 367 C677 245 620 192 530 192 L530 192 Z " />
<glyph glyph-name="sterling" unicode="&#xa3;" horiz-adv-x="1076" d="M450 219 C493 274 510 344 507 428 L502 589 L757 589 L757 803 L496 803 L489 1039 C490 1182 544 1257 614 1257 C687 1257 751 1206 751 1065 L1007 1065 C1007 1311 867 1476 616 1476 C383 1476 220 1315 226 1039 L231 803 L101 803 L101 589 L235 589 L238 414 C240 334 231 235 178 219 L104 219 L104 0 L1013 0 L1014 219 L450 219 Z " />
<glyph glyph-name="currency" unicode="&#xa4;" horiz-adv-x="1354" d="M1241 608 C1241 746 1203 871 1139 973 L1280 1125 L1147 1265 L1010 1117 C918 1191 804 1234 680 1234 C558 1234 444 1192 352 1119 L217 1264 L85 1125 L223 976 C157 874 118 747 118 608 C118 475 154 353 215 253 L85 113 L217 -26 L340 106 C434 27 552 -20 680 -20 C809 -20 928 27 1022 108 L1147 -27 L1280 113 L1147 256 C1206 356 1241 476 1241 608 L1241 608 Z M680 163 C465 163 292 359 292 608 C292 857 465 1052 680 1052 C894 1052 1067 857 1067 608 C1067 359 894 163 680 163 L680 163 Z " />
<glyph glyph-name="yen" unicode="&#xa5;" horiz-adv-x="973" d="M949 1456 L671 1456 L488 911 L306 1456 L25 1456 L305 739 L96 739 L96 579 L350 579 L350 449 L96 449 L96 290 L350 290 L350 0 L617 0 L617 290 L857 290 L857 449 L617 449 L617 579 L857 579 L857 739 L672 739 L949 1456 Z " />
<glyph glyph-name="brokenbar" unicode="&#xa6;" horiz-adv-x="497" d="M129 -270 L366 -270 L366 523 L129 523 L129 -270 Z M366 698 L366 1456 L129 1456 L129 698 L366 698 Z " />
<glyph glyph-name="section" unicode="&#xa7;" horiz-adv-x="1134" d="M884 201 C976 257 1028 347 1028 470 C1028 712 880 811 620 894 C420 955 376 996 376 1102 C376 1192 432 1265 564 1265 C689 1265 752 1170 752 1049 L1009 1049 C1009 1325 840 1477 564 1477 C293 1477 117 1328 117 1100 C117 965 161 876 240 809 C148 751 95 659 95 538 C95 295 246 196 500 114 C692 51 747 3 747 -93 C747 -187 683 -251 561 -251 C459 -251 350 -207 350 -42 L93 -42 C93 -364 328 -462 561 -462 C829 -462 1005 -330 1005 -91 C1005 45 963 134 884 201 L884 201 Z M352 561 C352 625 371 678 412 709 C448 694 486 680 527 666 C719 603 774 549 774 447 C774 385 751 332 708 300 C672 315 634 328 593 342 C394 405 352 449 352 561 L352 561 Z " />
<glyph glyph-name="dieresis" unicode="&#xa8;" horiz-adv-x="904" d="M217 1489 C142 1489 89 1436 89 1369 C89 1301 142 1248 217 1248 C292 1248 345 1301 345 1369 C345 1436 292 1489 217 1489 L217 1489 Z M671 1488 C596 1488 544 1436 544 1367 C544 1300 596 1247 671 1247 C746 1247 799 1300 799 1367 C799 1436 746 1488 671 1488 L671 1488 Z " />
<glyph glyph-name="copyright" unicode="&#xa9;" horiz-adv-x="1528" d="M1060 597 L915 597 C915 465 857 415 744 415 C623 415 561 519 561 670 L561 788 C561 937 623 1043 744 1043 C857 1043 915 991 915 861 L1061 861 C1061 1070 939 1174 744 1174 C542 1174 416 1016 416 787 L416 670 C416 440 542 283 744 283 C939 283 1060 387 1060 597 L1060 597 Z M757 1476 C388 1476 88 1152 88 729 C88 306 388 -21 757 -21 C1127 -21 1428 306 1428 729 C1428 1152 1127 1476 757 1476 L757 1476 Z M757 102 C451 102 202 374 202 729 C202 1084 451 1354 757 1354 C1064 1354 1312 1084 1312 729 C1312 374 1064 102 757 102 L757 102 Z " />
<glyph glyph-name="guillemotleft" unicode="&#xab;" horiz-adv-x="912" d="M488 929 L323 929 L84 540 L84 521 L323 131 L488 131 L286 530 L488 929 Z M834 931 L669 931 L430 542 L430 523 L669 133 L834 133 L632 532 L834 931 Z " />
<glyph glyph-name="logicalnot" unicode="&#xac;" horiz-adv-x="1001" d="M126 803 L126 637 L658 637 L658 375 L842 375 L842 803 L126 803 Z " />
<glyph glyph-name="uni00AD" unicode="&#xad;" horiz-adv-x="706" d="M595 518 L595 731 L114 731 L114 518 L595 518 Z " />
<glyph glyph-name="registered" unicode="&#xae;" horiz-adv-x="1528" d="M758 1476 C388 1476 88 1152 88 729 C88 306 388 -21 758 -21 C1127 -21 1428 306 1428 729 C1428 1152 1127 1476 758 1476 L758 1476 Z M1048 515 C1048 605 1023 679 954 721 C1017 761 1051 833 1051 906 C1051 1077 932 1166 745 1166 L481 1166 L481 316 L621 316 L621 654 L772 654 C870 654 907 609 907 514 L907 460 C907 431 907 350 919 316 L1065 316 L1065 332 C1052 362 1048 409 1048 459 L1048 515 Z M758 102 C451 102 203 374 203 729 C203 1084 451 1354 758 1354 C1064 1354 1312 1084 1312 729 C1312 374 1064 102 758 102 L758 102 Z M752 785 L621 785 L621 1036 L745 1036 C868 1036 911 1002 911 904 C911 825 836 786 752 785 L752 785 Z " />
<glyph glyph-name="macron" unicode="&#xaf;" horiz-adv-x="920" d="M759 1294 L759 1452 L161 1452 L161 1294 L759 1294 Z " />
<glyph glyph-name="degree" unicode="&#xb0;" horiz-adv-x="760" d="M381 1477 C242 1477 126 1354 126 1205 C126 1056 242 937 381 937 C519 937 632 1056 632 1205 C632 1354 519 1477 381 1477 L381 1477 Z M381 1079 C316 1079 262 1132 262 1205 C262 1279 316 1336 381 1336 C446 1336 496 1279 496 1205 C496 1132 446 1079 381 1079 L381 1079 Z " />
<glyph glyph-name="plusminus" unicode="&#xb1;" horiz-adv-x="975" d="M122 0 L859 0 L859 214 L122 214 L122 0 Z M602 921 L602 1282 L377 1282 L377 921 L96 921 L96 704 L377 704 L377 326 L602 326 L602 704 L877 704 L877 921 L602 921 Z " />
<glyph glyph-name="uni00B2" unicode="&#xb2;" horiz-adv-x="687" d="M618 667 L618 821 L325 821 L420 921 C530 1039 599 1109 599 1223 C599 1378 501 1468 331 1468 C170 1468 68 1345 68 1197 L253 1197 C253 1261 281 1313 340 1313 C389 1313 416 1277 416 1222 C416 1188 391 1127 327 1058 L84 796 L84 667 L618 667 Z " />
<glyph glyph-name="uni00B3" unicode="&#xb3;" horiz-adv-x="687" d="M487 1072 C559 1104 605 1164 605 1242 C605 1389 493 1468 332 1468 C195 1468 73 1389 73 1244 L257 1244 C257 1288 293 1313 337 1313 C400 1313 422 1272 422 1229 C422 1173 393 1134 332 1134 L255 1134 L255 1005 L332 1005 C396 1005 432 978 432 905 C432 852 405 810 342 810 C284 810 248 852 248 900 L63 900 C63 724 203 656 331 656 C493 656 617 741 617 888 C617 989 568 1046 487 1072 L487 1072 Z " />
<glyph glyph-name="acute" unicode="&#xb4;" horiz-adv-x="649" d="M289 1536 L104 1231 L316 1231 L577 1536 L289 1536 Z " />
<glyph glyph-name="uni00B5" unicode="&#xb5;" horiz-adv-x="1113" d="M704 1082 L704 298 C674 232 622 193 539 193 C449 193 392 239 392 461 L392 1082 L136 1082 L136 -416 L392 -416 L392 22 C431 -7 478 -21 534 -21 C610 -21 671 10 718 64 L723 0 L962 0 L962 1082 L704 1082 Z " />
<glyph glyph-name="paragraph" unicode="&#xb6;" horiz-adv-x="896" d="M565 0 L764 0 L764 1456 L498 1456 C227 1456 79 1256 79 988 C79 718 227 520 498 520 L565 520 L565 0 Z " />
<glyph glyph-name="periodcentered" unicode="&#xb7;" horiz-adv-x="566" d="M279 848 C190 848 134 786 134 705 C134 624 190 563 279 563 C367 563 423 624 423 705 C423 786 367 848 279 848 L279 848 Z " />
<glyph glyph-name="cedilla" unicode="&#xb8;" horiz-adv-x="504" d="M319 6 L127 6 L100 -135 C185 -143 220 -160 220 -219 C220 -281 184 -306 130 -306 L135 -456 C333 -456 434 -363 434 -225 C434 -110 371 -65 309 -52 L319 6 Z " />
<glyph glyph-name="uni00B9" unicode="&#xb9;" horiz-adv-x="687" d="M479 667 L479 1455 L462 1455 L138 1336 L138 1186 L296 1231 L296 667 L479 667 Z " />
<glyph glyph-name="guillemotright" unicode="&#xbb;" horiz-adv-x="912" d="M497 521 L497 540 L257 930 L93 930 L294 531 L93 132 L257 132 L497 521 Z M615 930 L451 930 L652 531 L451 132 L615 132 L855 521 L855 540 L615 930 Z " />
<glyph glyph-name="onequarter" unicode="&#xbc;" horiz-adv-x="1331" d="M1214 319 L1142 319 L1142 789 L958 789 L656 289 L667 163 L958 163 L958 0 L1142 0 L1142 163 L1214 163 L1214 319 Z M905 1329 L299 191 L424 118 L1031 1256 L905 1329 Z M444 664 L444 1452 L427 1452 L103 1333 L103 1183 L261 1228 L261 664 L444 664 Z M830 319 L948 529 L958 546 L958 319 L830 319 Z " />
<glyph glyph-name="onehalf" unicode="&#xbd;" horiz-adv-x="1415" d="M998 154 L1093 254 C1203 372 1272 442 1272 556 C1272 711 1174 801 1004 801 C843 801 741 678 741 530 L926 530 C926 594 954 646 1013 646 C1062 646 1089 610 1089 555 C1089 521 1064 460 1000 391 L757 129 L757 0 L1291 0 L1291 154 L998 154 Z M649 1321 L422 895 L422 1458 L405 1458 L81 1339 L81 1189 L239 1234 L239 670 L302 670 L43 183 L168 110 L775 1248 L649 1321 Z " />
<glyph glyph-name="threequarters" unicode="&#xbe;" horiz-adv-x="1511" d="M1373 319 L1301 319 L1301 789 L1117 789 L815 289 L826 163 L1117 163 L1117 0 L1301 0 L1301 163 L1373 163 L1373 319 Z M649 1321 L638 1301 C612 1410 510 1468 372 1468 C235 1468 113 1389 113 1244 L297 1244 C297 1288 333 1313 377 1313 C440 1313 462 1272 462 1229 C462 1173 433 1134 372 1134 L295 1134 L295 1005 L372 1005 C414 1005 444 993 459 965 L377 810 C322 812 288 853 288 900 L103 900 C103 757 195 685 299 663 L43 183 L168 110 L465 666 C578 693 657 771 657 888 C657 927 650 960 636 987 L775 1248 L649 1321 Z M989 319 L1107 529 L1117 546 L1117 319 L989 319 Z " />
<glyph glyph-name="questiondown" unicode="&#xbf;" horiz-adv-x="909" d="M592 652 L362 652 C360 551 347 485 286 417 C178 296 73 181 73 3 C73 -246 218 -386 461 -386 C681 -386 850 -255 852 13 L595 13 C594 -113 527 -170 456 -170 C380 -170 331 -112 331 6 C331 124 387 189 462 276 C559 388 592 470 592 652 L592 652 Z M478 822 C566 822 621 883 621 963 C621 1042 566 1103 478 1103 C391 1103 336 1042 336 963 C336 883 391 822 478 822 L478 822 Z " />
<glyph glyph-name="Agrave" unicode="&#xc0;" horiz-adv-x="1219" d="M914 0 L1198 0 L732 1456 L487 1456 L23 0 L306 0 L394 320 L826 320 L914 0 Z M738 1541 L552 1846 L264 1846 L523 1541 L738 1541 Z M454 541 L610 1107 L765 541 L454 541 Z " />
<glyph glyph-name="Aacute" unicode="&#xc1;" horiz-adv-x="1219" d="M914 0 L1198 0 L732 1456 L487 1456 L23 0 L306 0 L394 320 L826 320 L914 0 Z M958 1846 L670 1846 L485 1541 L697 1541 L958 1846 Z M454 541 L610 1107 L765 541 L454 541 Z " />
<glyph glyph-name="Acircumflex" unicode="&#xc2;" horiz-adv-x="1219" d="M914 0 L1198 0 L732 1456 L487 1456 L23 0 L306 0 L394 320 L826 320 L914 0 Z M612 1708 L741 1557 L943 1557 L943 1569 L686 1846 L538 1846 L285 1572 L285 1557 L484 1557 L612 1708 Z M454 541 L610 1107 L765 541 L454 541 Z " />
<glyph glyph-name="Atilde" unicode="&#xc3;" horiz-adv-x="1219" d="M914 0 L1198 0 L732 1456 L487 1456 L23 0 L306 0 L394 320 L826 320 L914 0 Z M506 1656 C595 1656 630 1568 739 1568 C852 1568 935 1680 935 1826 L787 1837 C787 1775 756 1737 717 1737 C631 1737 573 1826 484 1826 C370 1826 288 1709 288 1565 L437 1557 C437 1619 467 1656 506 1656 L506 1656 Z M454 541 L610 1107 L765 541 L454 541 Z " />
<glyph glyph-name="Adieresis" unicode="&#xc4;" horiz-adv-x="1219" d="M914 0 L1198 0 L732 1456 L487 1456 L23 0 L306 0 L394 320 L826 320 L914 0 Z M379 1558 C454 1558 507 1611 507 1679 C507 1746 454 1799 379 1799 C304 1799 251 1746 251 1679 C251 1611 304 1558 379 1558 L379 1558 Z M833 1557 C908 1557 961 1610 961 1677 C961 1746 908 1798 833 1798 C758 1798 706 1746 706 1677 C706 1610 758 1557 833 1557 L833 1557 Z M454 541 L610 1107 L765 541 L454 541 Z " />
<glyph glyph-name="Aring" unicode="&#xc5;" horiz-adv-x="1219" d="M914 0 L1198 0 L732 1456 L487 1456 L23 0 L306 0 L394 320 L826 320 L914 0 Z M614 1528 C734 1528 822 1616 822 1729 C822 1841 734 1934 614 1934 C493 1934 405 1841 405 1729 C405 1616 493 1528 614 1528 L614 1528 Z M454 541 L610 1107 L765 541 L454 541 Z M614 1840 C676 1840 715 1789 715 1729 C715 1670 676 1620 614 1620 C552 1620 512 1671 512 1729 C512 1789 552 1840 614 1840 L614 1840 Z " />
<glyph glyph-name="AE" unicode="&#xc6;" horiz-adv-x="1686" d="M1092 214 L1077 644 L1498 644 L1498 857 L1069 857 L1056 1243 L1567 1243 L1567 1456 L685 1456 L13 0 L317 0 L460 340 L830 340 L842 0 L1619 0 L1619 214 L1092 214 Z M556 567 L801 1149 L822 567 L556 567 Z " />
<glyph glyph-name="Ccedilla" unicode="&#xc7;" horiz-adv-x="1178" d="M605 200 C425 200 362 346 362 625 L362 833 C362 1121 440 1256 610 1256 C774 1256 831 1173 842 969 L1109 969 C1086 1287 924 1477 610 1477 C292 1477 93 1235 93 831 L93 625 C93 264 246 33 506 -12 L482 -139 C567 -147 602 -164 602 -223 C602 -285 566 -310 512 -310 L517 -460 C715 -460 816 -367 816 -229 C816 -114 753 -69 691 -56 L698 -14 C950 21 1093 200 1108 480 L840 480 C828 275 765 200 605 200 L605 200 Z " />
<glyph glyph-name="Egrave" unicode="&#xc8;" horiz-adv-x="1017" d="M393 219 L393 643 L876 643 L876 857 L393 857 L393 1236 L958 1236 L958 1456 L126 1456 L126 0 L961 0 L961 219 L393 219 Z M684 1546 L498 1851 L210 1851 L469 1546 L684 1546 Z " />
<glyph glyph-name="Eacute" unicode="&#xc9;" horiz-adv-x="1017" d="M393 219 L393 643 L876 643 L876 857 L393 857 L393 1236 L958 1236 L958 1456 L126 1456 L126 0 L961 0 L961 219 L393 219 Z M904 1851 L616 1851 L431 1546 L643 1546 L904 1851 Z " />
<glyph glyph-name="Ecircumflex" unicode="&#xca;" horiz-adv-x="1017" d="M393 219 L393 643 L876 643 L876 857 L393 857 L393 1236 L958 1236 L958 1456 L126 1456 L126 0 L961 0 L961 219 L393 219 Z M558 1713 L687 1562 L889 1562 L889 1574 L632 1851 L484 1851 L231 1577 L231 1562 L430 1562 L558 1713 Z " />
<glyph glyph-name="Edieresis" unicode="&#xcb;" horiz-adv-x="1017" d="M393 219 L393 643 L876 643 L876 857 L393 857 L393 1236 L958 1236 L958 1456 L126 1456 L126 0 L961 0 L961 219 L393 219 Z M325 1563 C400 1563 453 1616 453 1684 C453 1751 400 1804 325 1804 C250 1804 197 1751 197 1684 C197 1616 250 1563 325 1563 L325 1563 Z M779 1562 C854 1562 907 1615 907 1682 C907 1751 854 1803 779 1803 C704 1803 652 1751 652 1682 C652 1615 704 1562 779 1562 L779 1562 Z " />
<glyph glyph-name="Igrave" unicode="&#xcc;" horiz-adv-x="545" d="M407 0 L407 1456 L140 1456 L140 0 L407 0 Z M398 1546 L212 1851 L-76 1851 L183 1546 L398 1546 Z " />
<glyph glyph-name="Iacute" unicode="&#xcd;" horiz-adv-x="545" d="M407 0 L407 1456 L140 1456 L140 0 L407 0 Z M330 1851 L145 1546 L357 1546 L618 1851 L330 1851 Z " />
<glyph glyph-name="Icircumflex" unicode="&#xce;" horiz-adv-x="545" d="M407 0 L407 1456 L140 1456 L140 0 L407 0 Z M603 1574 L346 1851 L198 1851 L-55 1577 L-55 1562 L144 1562 L272 1713 L401 1562 L603 1562 L603 1574 Z " />
<glyph glyph-name="Idieresis" unicode="&#xcf;" horiz-adv-x="545" d="M407 0 L407 1456 L140 1456 L140 0 L407 0 Z M39 1804 C-36 1804 -89 1751 -89 1684 C-89 1616 -36 1563 39 1563 C114 1563 167 1616 167 1684 C167 1751 114 1804 39 1804 L39 1804 Z M493 1803 C418 1803 366 1751 366 1682 C366 1615 418 1562 493 1562 C568 1562 621 1615 621 1682 C621 1751 568 1803 493 1803 L493 1803 Z " />
<glyph glyph-name="Eth" unicode="&#xd0;" horiz-adv-x="1171" d="M508 1456 L126 1456 L126 822 L-5 822 L-5 649 L126 649 L126 0 L504 0 C847 0 1075 236 1075 635 L1075 820 C1075 1219 846 1456 508 1456 L508 1456 Z M806 635 C806 354 721 219 504 219 L393 219 L393 649 L596 649 L596 822 L393 822 L393 1236 L508 1236 C719 1236 806 1108 806 823 L806 635 Z " />
<glyph glyph-name="Ntilde" unicode="&#xd1;" horiz-adv-x="1269" d="M1142 0 L1142 1456 L876 1456 L876 482 L414 1456 L126 1456 L126 0 L393 0 L393 964 L862 0 L1142 0 Z M959 1826 L811 1837 C811 1775 780 1737 741 1737 C655 1737 597 1826 508 1826 C394 1826 312 1709 312 1565 L461 1557 C461 1619 491 1656 530 1656 C619 1656 654 1568 763 1568 C876 1568 959 1680 959 1826 L959 1826 Z " />
<glyph glyph-name="Ograve" unicode="&#xd2;" horiz-adv-x="1244" d="M1148 628 L1148 821 C1148 1244 935 1476 621 1476 C308 1476 94 1244 94 821 L94 628 C94 208 311 -20 623 -20 C937 -20 1148 208 1148 628 L1148 628 Z M748 1543 L562 1848 L274 1848 L533 1543 L748 1543 Z M881 823 L881 628 C881 337 789 203 623 203 C457 203 362 337 362 628 L362 823 C362 1118 455 1252 621 1252 C787 1252 881 1118 881 823 L881 823 Z " />
<glyph glyph-name="Oacute" unicode="&#xd3;" horiz-adv-x="1244" d="M1148 628 L1148 821 C1148 1244 935 1476 621 1476 C308 1476 94 1244 94 821 L94 628 C94 208 311 -20 623 -20 C937 -20 1148 208 1148 628 L1148 628 Z M680 1848 L495 1543 L707 1543 L968 1848 L680 1848 Z M881 823 L881 628 C881 337 789 203 623 203 C457 203 362 337 362 628 L362 823 C362 1118 455 1252 621 1252 C787 1252 881 1118 881 823 L881 823 Z " />
<glyph glyph-name="Ocircumflex" unicode="&#xd4;" horiz-adv-x="1244" d="M1148 628 L1148 821 C1148 1244 935 1476 621 1476 C308 1476 94 1244 94 821 L94 628 C94 208 311 -20 623 -20 C937 -20 1148 208 1148 628 L1148 628 Z M953 1571 L696 1848 L548 1848 L295 1574 L295 1559 L494 1559 L622 1710 L751 1559 L953 1559 L953 1571 Z M881 823 L881 628 C881 337 789 203 623 203 C457 203 362 337 362 628 L362 823 C362 1118 455 1252 621 1252 C787 1252 881 1118 881 823 L881 823 Z " />
<glyph glyph-name="Otilde" unicode="&#xd5;" horiz-adv-x="1244" d="M1148 628 L1148 821 C1148 1244 935 1476 621 1476 C308 1476 94 1244 94 821 L94 628 C94 208 311 -20 623 -20 C937 -20 1148 208 1148 628 L1148 628 Z M945 1828 L797 1839 C797 1777 766 1739 727 1739 C641 1739 583 1828 494 1828 C380 1828 298 1711 298 1567 L447 1559 C447 1621 477 1658 516 1658 C605 1658 640 1570 749 1570 C862 1570 945 1682 945 1828 L945 1828 Z M881 823 L881 628 C881 337 789 203 623 203 C457 203 362 337 362 628 L362 823 C362 1118 455 1252 621 1252 C787 1252 881 1118 881 823 L881 823 Z " />
<glyph glyph-name="Odieresis" unicode="&#xd6;" horiz-adv-x="1244" d="M1148 628 L1148 821 C1148 1244 935 1476 621 1476 C308 1476 94 1244 94 821 L94 628 C94 208 311 -20 623 -20 C937 -20 1148 208 1148 628 L1148 628 Z M389 1801 C314 1801 261 1748 261 1681 C261 1613 314 1560 389 1560 C464 1560 517 1613 517 1681 C517 1748 464 1801 389 1801 L389 1801 Z M843 1800 C768 1800 716 1748 716 1679 C716 1612 768 1559 843 1559 C918 1559 971 1612 971 1679 C971 1748 918 1800 843 1800 L843 1800 Z M881 823 L881 628 C881 337 789 203 623 203 C457 203 362 337 362 628 L362 823 C362 1118 455 1252 621 1252 C787 1252 881 1118 881 823 L881 823 Z " />
<glyph glyph-name="multiply" unicode="&#xd7;" horiz-adv-x="967" d="M889 994 L737 1150 L480 842 L222 1150 L70 994 L338 673 L73 356 L224 200 L480 505 L735 200 L887 356 L621 674 L889 994 Z " />
<glyph glyph-name="Oslash" unicode="&#xd8;" horiz-adv-x="1287" d="M1016 1305 L1123 1517 L958 1517 L901 1405 C825 1452 734 1476 633 1476 C320 1476 106 1244 106 821 L106 628 C106 413 163 248 261 138 L143 -94 L308 -94 L378 44 C452 2 539 -20 635 -20 C949 -20 1160 208 1160 628 L1160 821 C1160 1031 1107 1194 1016 1305 L1016 1305 Z M893 628 C893 337 801 203 635 203 C575 203 525 220 485 256 L874 1024 C886 968 893 901 893 823 L893 628 Z M374 628 L374 823 C374 1118 467 1252 633 1252 C697 1252 751 1232 792 1190 L398 411 C382 470 374 542 374 628 L374 628 Z " />
<glyph glyph-name="Ugrave" unicode="&#xd9;" horiz-adv-x="1181" d="M1070 1456 L801 1456 L801 462 C801 261 726 199 591 199 C458 199 380 261 380 462 L380 1456 L112 1456 L112 462 C112 127 312 -20 591 -20 C866 -20 1070 127 1070 462 L1070 1456 Z M712 1541 L526 1846 L238 1846 L497 1541 L712 1541 Z " />
<glyph glyph-name="Uacute" unicode="&#xda;" horiz-adv-x="1181" d="M1070 1456 L801 1456 L801 462 C801 261 726 199 591 199 C458 199 380 261 380 462 L380 1456 L112 1456 L112 462 C112 127 312 -20 591 -20 C866 -20 1070 127 1070 462 L1070 1456 Z M644 1846 L459 1541 L671 1541 L932 1846 L644 1846 Z " />
<glyph glyph-name="Ucircumflex" unicode="&#xdb;" horiz-adv-x="1181" d="M1070 1456 L801 1456 L801 462 C801 261 726 199 591 199 C458 199 380 261 380 462 L380 1456 L112 1456 L112 462 C112 127 312 -20 591 -20 C866 -20 1070 127 1070 462 L1070 1456 Z M917 1569 L660 1846 L512 1846 L259 1572 L259 1557 L458 1557 L586 1708 L715 1557 L917 1557 L917 1569 Z " />
<glyph glyph-name="Udieresis" unicode="&#xdc;" horiz-adv-x="1181" d="M1070 1456 L801 1456 L801 462 C801 261 726 199 591 199 C458 199 380 261 380 462 L380 1456 L112 1456 L112 462 C112 127 312 -20 591 -20 C866 -20 1070 127 1070 462 L1070 1456 Z M353 1799 C278 1799 225 1746 225 1679 C225 1611 278 1558 353 1558 C428 1558 481 1611 481 1679 C481 1746 428 1799 353 1799 L353 1799 Z M807 1798 C732 1798 680 1746 680 1677 C680 1610 732 1557 807 1557 C882 1557 935 1610 935 1677 C935 1746 882 1798 807 1798 L807 1798 Z " />
<glyph glyph-name="Yacute" unicode="&#xdd;" horiz-adv-x="1115" d="M558 769 L310 1456 L17 1456 L422 533 L422 0 L692 0 L692 533 L1097 1456 L804 1456 L558 769 Z M618 1846 L433 1541 L645 1541 L906 1846 L618 1846 Z " />
<glyph glyph-name="Thorn" unicode="&#xde;" horiz-adv-x="1096" d="M568 1183 L386 1183 L386 1456 L128 1456 L128 0 L386 0 L386 294 L568 294 C865 294 1029 481 1029 738 C1029 997 865 1183 568 1183 L568 1183 Z M568 505 L386 505 L386 975 L388 972 L568 972 C713 972 771 858 771 736 C771 618 713 505 568 505 L568 505 Z " />
<glyph glyph-name="germandbls" unicode="&#xdf;" horiz-adv-x="1138" d="M388 0 L388 1102 C388 1281 439 1347 522 1347 C599 1347 652 1286 652 1183 C652 1027 556 995 556 819 C556 558 810 510 810 340 C810 251 767 192 680 192 C599 192 532 225 497 250 L449 41 C495 6 599 -20 686 -20 C935 -20 1067 111 1067 346 C1067 599 812 682 812 828 C812 981 905 997 905 1197 C905 1438 744 1558 540 1558 C290 1558 131 1404 131 1105 L131 0 L388 0 Z " />
<glyph glyph-name="agrave" unicode="&#xe0;" horiz-adv-x="974" d="M864 257 L864 745 C864 995 706 1102 494 1102 C250 1102 97 945 97 764 L355 764 C355 846 401 904 480 904 C566 904 607 857 607 749 L607 659 L498 659 C213 659 78 514 78 305 C78 101 205 -20 383 -20 C486 -20 565 21 619 88 C624 54 632 24 643 0 L902 0 L902 17 C878 73 864 146 864 257 L864 257 Z M615 1231 L429 1536 L141 1536 L400 1231 L615 1231 Z M440 185 C363 185 335 227 335 319 C335 426 381 501 509 501 L607 501 L607 280 C581 231 518 185 440 185 L440 185 Z " />
<glyph glyph-name="aacute" unicode="&#xe1;" horiz-adv-x="974" d="M864 257 L864 745 C864 995 706 1102 494 1102 C250 1102 97 945 97 764 L355 764 C355 846 401 904 480 904 C566 904 607 857 607 749 L607 659 L498 659 C213 659 78 514 78 305 C78 101 205 -20 383 -20 C486 -20 565 21 619 88 C624 54 632 24 643 0 L902 0 L902 17 C878 73 864 146 864 257 L864 257 Z M835 1536 L547 1536 L362 1231 L574 1231 L835 1536 Z M440 185 C363 185 335 227 335 319 C335 426 381 501 509 501 L607 501 L607 280 C581 231 518 185 440 185 L440 185 Z " />
<glyph glyph-name="acircumflex" unicode="&#xe2;" horiz-adv-x="974" d="M864 257 L864 745 C864 995 706 1102 494 1102 C250 1102 97 945 97 764 L355 764 C355 846 401 904 480 904 C566 904 607 857 607 749 L607 659 L498 659 C213 659 78 514 78 305 C78 101 205 -20 383 -20 C486 -20 565 21 619 88 C624 54 632 24 643 0 L902 0 L902 17 C878 73 864 146 864 257 L864 257 Z M489 1398 L618 1247 L820 1247 L820 1259 L563 1536 L415 1536 L162 1262 L162 1247 L361 1247 L489 1398 Z M440 185 C363 185 335 227 335 319 C335 426 381 501 509 501 L607 501 L607 280 C581 231 518 185 440 185 L440 185 Z " />
<glyph glyph-name="atilde" unicode="&#xe3;" horiz-adv-x="974" d="M864 257 L864 745 C864 995 706 1102 494 1102 C250 1102 97 945 97 764 L355 764 C355 846 401 904 480 904 C566 904 607 857 607 749 L607 659 L498 659 C213 659 78 514 78 305 C78 101 205 -20 383 -20 C486 -20 565 21 619 88 C624 54 632 24 643 0 L902 0 L902 17 C878 73 864 146 864 257 L864 257 Z M383 1346 C472 1346 507 1258 616 1258 C729 1258 812 1370 812 1516 L664 1527 C664 1465 633 1427 594 1427 C508 1427 450 1516 361 1516 C247 1516 165 1399 165 1255 L314 1247 C314 1309 344 1346 383 1346 L383 1346 Z M440 185 C363 185 335 227 335 319 C335 426 381 501 509 501 L607 501 L607 280 C581 231 518 185 440 185 L440 185 Z " />
<glyph glyph-name="adieresis" unicode="&#xe4;" horiz-adv-x="974" d="M864 257 L864 745 C864 995 706 1102 494 1102 C250 1102 97 945 97 764 L355 764 C355 846 401 904 480 904 C566 904 607 857 607 749 L607 659 L498 659 C213 659 78 514 78 305 C78 101 205 -20 383 -20 C486 -20 565 21 619 88 C624 54 632 24 643 0 L902 0 L902 17 C878 73 864 146 864 257 L864 257 Z M256 1248 C331 1248 384 1301 384 1369 C384 1436 331 1489 256 1489 C181 1489 128 1436 128 1369 C128 1301 181 1248 256 1248 L256 1248 Z M710 1247 C785 1247 838 1300 838 1367 C838 1436 785 1488 710 1488 C635 1488 583 1436 583 1367 C583 1300 635 1247 710 1247 L710 1247 Z M440 185 C363 185 335 227 335 319 C335 426 381 501 509 501 L607 501 L607 280 C581 231 518 185 440 185 L440 185 Z " />
<glyph glyph-name="aring" unicode="&#xe5;" horiz-adv-x="974" d="M864 257 L864 745 C864 995 706 1102 494 1102 C250 1102 97 945 97 764 L355 764 C355 846 401 904 480 904 C566 904 607 857 607 749 L607 659 L498 659 C213 659 78 514 78 305 C78 101 205 -20 383 -20 C486 -20 565 21 619 88 C624 54 632 24 643 0 L902 0 L902 17 C878 73 864 146 864 257 L864 257 Z M491 1218 C611 1218 699 1306 699 1419 C699 1531 611 1624 491 1624 C370 1624 282 1531 282 1419 C282 1306 370 1218 491 1218 L491 1218 Z M440 185 C363 185 335 227 335 319 C335 426 381 501 509 501 L607 501 L607 280 C581 231 518 185 440 185 L440 185 Z M491 1530 C553 1530 592 1479 592 1419 C592 1360 553 1310 491 1310 C429 1310 389 1361 389 1419 C389 1479 429 1530 491 1530 L491 1530 Z " />
<glyph glyph-name="ae" unicode="&#xe6;" horiz-adv-x="1509" d="M1447 614 C1447 914 1304 1102 1058 1102 C946 1102 853 1064 784 997 C718 1067 622 1102 505 1102 C262 1102 102 961 102 768 L359 749 C359 827 413 891 503 891 C584 891 630 822 630 710 L630 647 L495 647 C219 647 72 526 72 315 C72 112 193 -21 413 -21 C577 -21 687 49 749 125 C825 33 936 -21 1080 -21 C1241 -21 1369 51 1424 101 L1356 276 C1291 235 1226 191 1105 191 C958 191 890 308 881 463 L1447 463 L1447 614 Z M463 176 C371 176 329 231 329 311 C329 395 388 472 498 472 L630 472 L630 258 C587 213 520 176 463 176 L463 176 Z M1195 644 L883 644 C896 788 947 891 1058 891 C1155 891 1195 799 1195 672 L1195 644 Z " />
<glyph glyph-name="ccedilla" unicode="&#xe7;" horiz-adv-x="948" d="M498 192 C355 192 330 313 330 503 L330 580 C330 765 357 891 495 891 C598 891 645 816 647 687 L889 687 C886 953 734 1102 501 1102 C213 1102 73 900 73 580 L73 503 C73 226 178 37 394 -9 L369 -139 C454 -147 489 -164 489 -223 C489 -285 453 -310 399 -310 L404 -460 C602 -460 703 -367 703 -229 C703 -114 640 -69 578 -56 L586 -12 C759 21 886 162 889 367 L647 367 C645 245 588 192 498 192 L498 192 Z " />
<glyph glyph-name="egrave" unicode="&#xe8;" horiz-adv-x="983" d="M922 585 C922 923 780 1102 515 1102 C243 1102 80 927 80 568 L80 482 C80 148 250 -20 537 -20 C726 -20 845 66 904 150 L791 302 C734 232 652 192 559 192 C420 192 343 272 337 463 L922 463 L922 585 Z M607 1232 L421 1537 L133 1537 L392 1232 L607 1232 Z M668 644 L339 644 C350 813 403 894 516 894 C624 894 667 811 668 669 L668 644 Z " />
<glyph glyph-name="eacute" unicode="&#xe9;" horiz-adv-x="983" d="M922 585 C922 923 780 1102 515 1102 C243 1102 80 927 80 568 L80 482 C80 148 250 -20 537 -20 C726 -20 845 66 904 150 L791 302 C734 232 652 192 559 192 C420 192 343 272 337 463 L922 463 L922 585 Z M827 1537 L539 1537 L354 1232 L566 1232 L827 1537 Z M668 644 L339 644 C350 813 403 894 516 894 C624 894 667 811 668 669 L668 644 Z " />
<glyph glyph-name="ecircumflex" unicode="&#xea;" horiz-adv-x="983" d="M922 585 C922 923 780 1102 515 1102 C243 1102 80 927 80 568 L80 482 C80 148 250 -20 537 -20 C726 -20 845 66 904 150 L791 302 C734 232 652 192 559 192 C420 192 343 272 337 463 L922 463 L922 585 Z M481 1399 L610 1248 L812 1248 L812 1260 L555 1537 L407 1537 L154 1263 L154 1248 L353 1248 L481 1399 Z M668 644 L339 644 C350 813 403 894 516 894 C624 894 667 811 668 669 L668 644 Z " />
<glyph glyph-name="edieresis" unicode="&#xeb;" horiz-adv-x="983" d="M922 585 C922 923 780 1102 515 1102 C243 1102 80 927 80 568 L80 482 C80 148 250 -20 537 -20 C726 -20 845 66 904 150 L791 302 C734 232 652 192 559 192 C420 192 343 272 337 463 L922 463 L922 585 Z M248 1249 C323 1249 376 1302 376 1370 C376 1437 323 1490 248 1490 C173 1490 120 1437 120 1370 C120 1302 173 1249 248 1249 L248 1249 Z M702 1248 C777 1248 830 1301 830 1368 C830 1437 777 1489 702 1489 C627 1489 575 1437 575 1368 C575 1301 627 1248 702 1248 L702 1248 Z M668 644 L339 644 C350 813 403 894 516 894 C624 894 667 811 668 669 L668 644 Z " />
<glyph glyph-name="igrave" unicode="&#xec;" horiz-adv-x="521" d="M387 0 L387 1082 L129 1082 L129 0 L387 0 Z M386 1219 L200 1524 L-88 1524 L171 1219 L386 1219 Z " />
<glyph glyph-name="iacute" unicode="&#xed;" horiz-adv-x="521" d="M387 0 L387 1082 L129 1082 L129 0 L387 0 Z M318 1524 L133 1219 L345 1219 L606 1524 L318 1524 Z " />
<glyph glyph-name="icircumflex" unicode="&#xee;" horiz-adv-x="521" d="M387 0 L387 1082 L129 1082 L129 0 L387 0 Z M591 1247 L334 1524 L186 1524 L-67 1250 L-67 1235 L132 1235 L260 1386 L389 1235 L591 1235 L591 1247 Z " />
<glyph glyph-name="idieresis" unicode="&#xef;" horiz-adv-x="521" d="M387 0 L387 1082 L129 1082 L129 0 L387 0 Z M27 1477 C-48 1477 -101 1424 -101 1357 C-101 1289 -48 1236 27 1236 C102 1236 155 1289 155 1357 C155 1424 102 1477 27 1477 L27 1477 Z M481 1476 C406 1476 354 1424 354 1355 C354 1288 406 1235 481 1235 C556 1235 609 1288 609 1355 C609 1424 556 1476 481 1476 L481 1476 Z " />
<glyph glyph-name="eth" unicode="&#xf0;" horiz-adv-x="1042" d="M736 1308 L860 1400 L790 1509 L643 1401 C542 1486 422 1547 290 1580 L209 1375 C291 1349 371 1309 442 1253 L302 1150 L373 1040 L537 1161 C597 1091 645 1004 674 898 C618 943 549 969 473 969 C232 969 85 769 85 468 C85 196 259 -20 515 -20 C773 -20 962 219 962 568 L962 646 C962 918 877 1144 736 1308 L736 1308 Z M705 545 C705 343 641 192 519 192 C408 192 342 322 342 468 C342 653 409 768 532 768 C617 768 674 727 705 678 L705 648 L705 545 Z " />
<glyph glyph-name="ntilde" unicode="&#xf1;" horiz-adv-x="1014" d="M616 1102 C508 1102 418 1053 354 967 L347 1082 L104 1082 L104 0 L361 0 L361 781 C392 847 442 889 510 889 C600 889 650 841 650 695 L650 0 L907 0 L907 694 C907 994 789 1102 616 1102 L616 1102 Z M402 1346 C491 1346 526 1258 635 1258 C748 1258 831 1370 831 1516 L683 1527 C683 1465 652 1427 613 1427 C527 1427 469 1516 380 1516 C266 1516 184 1399 184 1255 L333 1247 C333 1309 363 1346 402 1346 L402 1346 Z " />
<glyph glyph-name="ograve" unicode="&#xf2;" horiz-adv-x="1027" d="M74 575 L74 507 C74 176 241 -20 514 -20 C786 -20 953 176 953 507 L953 575 C953 906 786 1102 512 1102 C241 1102 74 906 74 575 L74 575 Z M635 1231 L449 1536 L161 1536 L420 1231 L635 1231 Z M331 507 L331 575 C331 774 393 891 512 891 C635 891 695 774 695 575 L695 507 C695 303 637 192 514 192 C392 192 331 303 331 507 L331 507 Z " />
<glyph glyph-name="oacute" unicode="&#xf3;" horiz-adv-x="1027" d="M74 575 L74 507 C74 176 241 -20 514 -20 C786 -20 953 176 953 507 L953 575 C953 906 786 1102 512 1102 C241 1102 74 906 74 575 L74 575 Z M567 1536 L382 1231 L594 1231 L855 1536 L567 1536 Z M331 507 L331 575 C331 774 393 891 512 891 C635 891 695 774 695 575 L695 507 C695 303 637 192 514 192 C392 192 331 303 331 507 L331 507 Z " />
<glyph glyph-name="ocircumflex" unicode="&#xf4;" horiz-adv-x="1027" d="M74 575 L74 507 C74 176 241 -20 514 -20 C786 -20 953 176 953 507 L953 575 C953 906 786 1102 512 1102 C241 1102 74 906 74 575 L74 575 Z M840 1259 L583 1536 L435 1536 L182 1262 L182 1247 L381 1247 L509 1398 L638 1247 L840 1247 L840 1259 Z M331 507 L331 575 C331 774 393 891 512 891 C635 891 695 774 695 575 L695 507 C695 303 637 192 514 192 C392 192 331 303 331 507 L331 507 Z " />
<glyph glyph-name="otilde" unicode="&#xf5;" horiz-adv-x="1027" d="M74 575 L74 507 C74 176 241 -20 514 -20 C786 -20 953 176 953 507 L953 575 C953 906 786 1102 512 1102 C241 1102 74 906 74 575 L74 575 Z M832 1516 L684 1527 C684 1465 653 1427 614 1427 C528 1427 470 1516 381 1516 C267 1516 185 1399 185 1255 L334 1247 C334 1309 364 1346 403 1346 C492 1346 527 1258 636 1258 C749 1258 832 1370 832 1516 L832 1516 Z M331 507 L331 575 C331 774 393 891 512 891 C635 891 695 774 695 575 L695 507 C695 303 637 192 514 192 C392 192 331 303 331 507 L331 507 Z " />
<glyph glyph-name="odieresis" unicode="&#xf6;" horiz-adv-x="1027" d="M74 575 L74 507 C74 176 241 -20 514 -20 C786 -20 953 176 953 507 L953 575 C953 906 786 1102 512 1102 C241 1102 74 906 74 575 L74 575 Z M276 1489 C201 1489 148 1436 148 1369 C148 1301 201 1248 276 1248 C351 1248 404 1301 404 1369 C404 1436 351 1489 276 1489 L276 1489 Z M730 1488 C655 1488 603 1436 603 1367 C603 1300 655 1247 730 1247 C805 1247 858 1300 858 1367 C858 1436 805 1488 730 1488 L730 1488 Z M331 507 L331 575 C331 774 393 891 512 891 C635 891 695 774 695 575 L695 507 C695 303 637 192 514 192 C392 192 331 303 331 507 L331 507 Z " />
<glyph glyph-name="divide" unicode="&#xf7;" horiz-adv-x="1032" d="M510 420 C422 420 366 361 366 280 C366 200 422 140 510 140 C599 140 654 200 654 280 C654 361 599 420 510 420 L510 420 Z M948 581 L948 797 L71 797 L71 581 L948 581 Z M510 1232 C422 1232 366 1172 366 1091 C366 1011 422 952 510 952 C599 952 654 1011 654 1091 C654 1172 599 1232 510 1232 L510 1232 Z " />
<glyph glyph-name="oslash" unicode="&#xf8;" horiz-adv-x="1058" d="M787 1016 L870 1215 L727 1215 L670 1079 C624 1094 573 1102 518 1102 C247 1102 80 906 80 575 L80 507 C80 307 141 156 249 68 L162 -141 L304 -141 L365 5 C412 -12 464 -20 520 -20 C792 -20 959 176 959 507 L959 575 C959 777 897 928 787 1016 L787 1016 Z M337 507 L337 575 C337 774 399 891 518 891 C543 891 566 886 586 876 L359 331 C344 378 337 437 337 507 L337 507 Z M701 507 C701 303 643 192 520 192 C494 192 470 197 449 207 L678 755 C693 706 701 646 701 575 L701 507 Z " />
<glyph glyph-name="ugrave" unicode="&#xf9;" horiz-adv-x="1013" d="M649 1082 L649 299 C620 234 568 194 483 194 C414 194 361 242 361 381 L361 1082 L104 1082 L104 383 C104 96 228 -20 410 -20 C519 -20 602 26 659 104 L665 0 L907 0 L907 1082 L649 1082 Z M630 1231 L444 1536 L156 1536 L415 1231 L630 1231 Z " />
<glyph glyph-name="uacute" unicode="&#xfa;" horiz-adv-x="1013" d="M649 1082 L649 299 C620 234 568 194 483 194 C414 194 361 242 361 381 L361 1082 L104 1082 L104 383 C104 96 228 -20 410 -20 C519 -20 602 26 659 104 L665 0 L907 0 L907 1082 L649 1082 Z M850 1536 L562 1536 L377 1231 L589 1231 L850 1536 Z " />
<glyph glyph-name="ucircumflex" unicode="&#xfb;" horiz-adv-x="1013" d="M649 1082 L649 299 C620 234 568 194 483 194 C414 194 361 242 361 381 L361 1082 L104 1082 L104 383 C104 96 228 -20 410 -20 C519 -20 602 26 659 104 L665 0 L907 0 L907 1082 L649 1082 Z M504 1398 L633 1247 L835 1247 L835 1259 L578 1536 L430 1536 L177 1262 L177 1247 L376 1247 L504 1398 Z " />
<glyph glyph-name="udieresis" unicode="&#xfc;" horiz-adv-x="1013" d="M649 1082 L649 299 C620 234 568 194 483 194 C414 194 361 242 361 381 L361 1082 L104 1082 L104 383 C104 96 228 -20 410 -20 C519 -20 602 26 659 104 L665 0 L907 0 L907 1082 L649 1082 Z M271 1248 C346 1248 399 1301 399 1369 C399 1436 346 1489 271 1489 C196 1489 143 1436 143 1369 C143 1301 196 1248 271 1248 L271 1248 Z M725 1247 C800 1247 853 1300 853 1367 C853 1436 800 1488 725 1488 C650 1488 598 1436 598 1367 C598 1300 650 1247 725 1247 L725 1247 Z " />
<glyph glyph-name="yacute" unicode="&#xfd;" horiz-adv-x="911" d="M615 1082 L457 325 L296 1082 L19 1082 L342 -17 L320 -59 C295 -173 249 -221 153 -221 C142 -221 127 -220 116 -219 L116 -419 C155 -429 181 -437 228 -437 C422 -437 493 -272 526 -164 L892 1082 L615 1082 Z M807 1536 L519 1536 L334 1231 L546 1231 L807 1536 Z " />
<glyph glyph-name="thorn" unicode="&#xfe;" horiz-adv-x="1031" d="M589 1102 C496 1102 424 1066 370 1002 L370 1536 L112 1536 L112 -416 L370 -416 L370 82 C425 17 497 -20 592 -20 C825 -20 951 216 951 532 L951 553 C951 882 825 1102 589 1102 L589 1102 Z M694 532 C694 345 648 192 521 192 C446 192 398 230 370 290 L370 788 C399 851 447 889 520 889 C645 889 694 742 694 553 L694 532 Z " />
<glyph glyph-name="ydieresis" unicode="&#xff;" horiz-adv-x="911" d="M615 1082 L457 325 L296 1082 L19 1082 L342 -17 L320 -59 C295 -173 249 -221 153 -221 C142 -221 127 -220 116 -219 L116 -419 C155 -429 181 -437 228 -437 C422 -437 493 -272 526 -164 L892 1082 L615 1082 Z M228 1248 C303 1248 356 1301 356 1369 C356 1436 303 1489 228 1489 C153 1489 100 1436 100 1369 C100 1301 153 1248 228 1248 L228 1248 Z M682 1247 C757 1247 810 1300 810 1367 C810 1436 757 1488 682 1488 C607 1488 555 1436 555 1367 C555 1300 607 1247 682 1247 L682 1247 Z " />
<glyph glyph-name="Amacron" unicode="&#x100;" horiz-adv-x="1219" d="M914 0 L1198 0 L732 1456 L487 1456 L23 0 L306 0 L394 320 L826 320 L914 0 Z M912 1762 L314 1762 L314 1604 L912 1604 L912 1762 Z M454 541 L610 1107 L765 541 L454 541 Z " />
<glyph glyph-name="amacron" unicode="&#x101;" horiz-adv-x="974" d="M864 257 L864 745 C864 995 706 1102 494 1102 C250 1102 97 945 97 764 L355 764 C355 846 401 904 480 904 C566 904 607 857 607 749 L607 659 L498 659 C213 659 78 514 78 305 C78 101 205 -20 383 -20 C486 -20 565 21 619 88 C624 54 632 24 643 0 L902 0 L902 17 C878 73 864 146 864 257 L864 257 Z M789 1452 L191 1452 L191 1294 L789 1294 L789 1452 Z M440 185 C363 185 335 227 335 319 C335 426 381 501 509 501 L607 501 L607 280 C581 231 518 185 440 185 L440 185 Z " />
<glyph glyph-name="Abreve" unicode="&#x102;" horiz-adv-x="1219" d="M914 0 L1198 0 L732 1456 L487 1456 L23 0 L306 0 L394 320 L826 320 L914 0 Z M608 1540 C805 1540 929 1659 929 1829 L740 1829 C740 1758 704 1692 608 1692 C510 1692 474 1757 474 1829 L285 1829 C285 1659 410 1540 608 1540 L608 1540 Z M454 541 L610 1107 L765 541 L454 541 Z " />
<glyph glyph-name="abreve" unicode="&#x103;" horiz-adv-x="974" d="M864 257 L864 745 C864 995 706 1102 494 1102 C250 1102 97 945 97 764 L355 764 C355 846 401 904 480 904 C566 904 607 857 607 749 L607 659 L498 659 C213 659 78 514 78 305 C78 101 205 -20 383 -20 C486 -20 565 21 619 88 C624 54 632 24 643 0 L902 0 L902 17 C878 73 864 146 864 257 L864 257 Z M485 1230 C682 1230 806 1349 806 1519 L617 1519 C617 1448 581 1382 485 1382 C387 1382 351 1447 351 1519 L162 1519 C162 1349 287 1230 485 1230 L485 1230 Z M440 185 C363 185 335 227 335 319 C335 426 381 501 509 501 L607 501 L607 280 C581 231 518 185 440 185 L440 185 Z " />
<glyph glyph-name="Aogonek" unicode="&#x104;" horiz-adv-x="1219" d="M1047 -255 C1007 -255 992 -227 992 -189 C992 -113 1038 -59 1123 0 L1198 0 L732 1456 L487 1456 L23 0 L306 0 L394 320 L826 320 L912 7 C825 -62 798 -141 798 -221 C798 -354 887 -424 995 -424 C1065 -424 1110 -400 1139 -380 L1114 -233 C1099 -242 1079 -255 1047 -255 L1047 -255 Z M454 541 L610 1107 L765 541 L454 541 Z " />
<glyph glyph-name="aogonek" unicode="&#x105;" horiz-adv-x="974" d="M858 0 L902 0 L902 17 C878 73 864 146 864 257 L864 745 C864 995 706 1102 494 1102 C250 1102 97 945 97 764 L355 764 C355 846 401 904 480 904 C566 904 607 857 607 749 L607 659 L498 659 C213 659 78 514 78 305 C78 101 205 -20 383 -20 C486 -20 565 21 619 88 C624 55 632 26 642 2 C559 -65 533 -143 533 -221 C533 -354 622 -424 730 -424 C800 -424 845 -400 874 -380 L849 -233 C834 -242 814 -255 782 -255 C742 -255 727 -227 727 -189 C727 -113 773 -59 858 0 L858 0 Z M440 185 C363 185 335 227 335 319 C335 426 381 501 509 501 L607 501 L607 280 C581 231 518 185 440 185 L440 185 Z " />
<glyph glyph-name="Cacute" unicode="&#x106;" horiz-adv-x="1178" d="M1108 480 L840 480 C828 275 765 200 605 200 C425 200 362 346 362 625 L362 833 C362 1121 440 1256 610 1256 C774 1256 831 1173 842 969 L1109 969 C1086 1287 924 1477 610 1477 C292 1477 93 1235 93 831 L93 625 C93 220 285 -20 605 -20 C915 -20 1091 167 1108 480 L1108 480 Z M662 1861 L477 1556 L689 1556 L950 1861 L662 1861 Z " />
<glyph glyph-name="cacute" unicode="&#x107;" horiz-adv-x="948" d="M647 367 C645 245 588 192 498 192 C355 192 330 313 330 503 L330 580 C330 765 357 891 495 891 C598 891 645 816 647 687 L889 687 C886 953 734 1102 501 1102 C213 1102 73 900 73 580 L73 503 C73 183 213 -20 504 -20 C717 -20 886 131 889 367 L647 367 Z M529 1536 L344 1231 L556 1231 L817 1536 L529 1536 Z " />
<glyph glyph-name="Cdotaccent" unicode="&#x10a;" horiz-adv-x="1178" d="M1108 480 L840 480 C828 275 765 200 605 200 C425 200 362 346 362 625 L362 833 C362 1121 440 1256 610 1256 C774 1256 831 1173 842 969 L1109 969 C1086 1287 924 1477 610 1477 C292 1477 93 1235 93 831 L93 625 C93 220 285 -20 605 -20 C915 -20 1091 167 1108 480 L1108 480 Z M602 1840 C518 1840 466 1785 466 1711 C466 1638 518 1583 602 1583 C684 1583 737 1638 737 1711 C737 1785 684 1840 602 1840 L602 1840 Z " />
<glyph glyph-name="cdotaccent" unicode="&#x10b;" horiz-adv-x="948" d="M647 367 C645 245 588 192 498 192 C355 192 330 313 330 503 L330 580 C330 765 357 891 495 891 C598 891 645 816 647 687 L889 687 C886 953 734 1102 501 1102 C213 1102 73 900 73 580 L73 503 C73 183 213 -20 504 -20 C717 -20 886 131 889 367 L647 367 Z M469 1515 C385 1515 333 1460 333 1386 C333 1313 385 1258 469 1258 C551 1258 604 1313 604 1386 C604 1460 551 1515 469 1515 L469 1515 Z " />
<glyph glyph-name="Ccaron" unicode="&#x10c;" horiz-adv-x="1178" d="M1108 480 L840 480 C828 275 765 200 605 200 C425 200 362 346 362 625 L362 833 C362 1121 440 1256 610 1256 C774 1256 831 1173 842 969 L1109 969 C1086 1287 924 1477 610 1477 C292 1477 93 1235 93 831 L93 625 C93 220 285 -20 605 -20 C915 -20 1091 167 1108 480 L1108 480 Z M603 1711 L483 1861 L264 1861 L264 1851 L523 1572 L684 1572 L944 1850 L944 1861 L725 1861 L603 1711 Z " />
<glyph glyph-name="ccaron" unicode="&#x10d;" horiz-adv-x="948" d="M647 367 C645 245 588 192 498 192 C355 192 330 313 330 503 L330 580 C330 765 357 891 495 891 C598 891 645 816 647 687 L889 687 C886 953 734 1102 501 1102 C213 1102 73 900 73 580 L73 503 C73 183 213 -20 504 -20 C717 -20 886 131 889 367 L647 367 Z M470 1386 L350 1536 L131 1536 L131 1526 L390 1247 L551 1247 L811 1525 L811 1536 L592 1536 L470 1386 Z " />
<glyph glyph-name="Dcaron" unicode="&#x10e;" horiz-adv-x="1171" d="M508 1456 L126 1456 L126 0 L504 0 C847 0 1075 236 1075 635 L1075 820 C1075 1219 846 1456 508 1456 L508 1456 Z M549 1562 L809 1840 L809 1851 L590 1851 L468 1701 L348 1851 L129 1851 L129 1841 L388 1562 L549 1562 Z M806 635 C806 354 721 219 504 219 L393 219 L393 1236 L508 1236 C719 1236 806 1108 806 823 L806 635 Z " />
<glyph glyph-name="dcaron" unicode="&#x10f;" horiz-adv-x="1190" d="M651 1536 L651 991 C642 1002 633 1013 623 1022 C624 1030 624 1037 624 1044 L624 1115 L431 1115 L431 1102 L430 1102 C200 1102 71 921 71 573 L71 506 C71 173 201 -20 429 -20 C531 -20 608 28 664 109 L676 0 L910 0 L910 1536 L651 1536 Z M500 194 C372 194 329 301 329 506 L329 573 C329 709 349 803 398 851 C389 828 378 806 366 784 L494 710 C532 751 565 805 588 865 C614 848 635 822 651 791 L651 289 C621 230 572 194 500 194 L500 194 Z " />
<glyph glyph-name="Dcroat" unicode="&#x110;" horiz-adv-x="1171" d="M508 1456 L126 1456 L126 822 L-5 822 L-5 649 L126 649 L126 0 L504 0 C847 0 1075 236 1075 635 L1075 820 C1075 1219 846 1456 508 1456 L508 1456 Z M806 635 C806 354 721 219 504 219 L393 219 L393 649 L596 649 L596 822 L393 822 L393 1236 L508 1236 C719 1236 806 1108 806 823 L806 635 Z " />
<glyph glyph-name="dcroat" unicode="&#x111;" horiz-adv-x="1143" d="M1047 1396 L910 1396 L910 1536 L651 1536 L651 1396 L446 1396 L446 1224 L651 1224 L651 999 C596 1065 525 1102 434 1102 C204 1102 71 879 71 550 L71 529 C71 213 205 -20 433 -20 C533 -20 609 25 666 102 L677 0 L910 0 L910 1224 L1047 1224 L1047 1396 Z M500 194 C372 194 329 342 329 529 L329 550 C329 739 375 889 501 889 C571 889 621 849 651 783 L651 297 C621 233 572 194 500 194 L500 194 Z " />
<glyph glyph-name="Emacron" unicode="&#x112;" horiz-adv-x="1017" d="M393 219 L393 643 L876 643 L876 857 L393 857 L393 1236 L958 1236 L958 1456 L126 1456 L126 0 L961 0 L961 219 L393 219 Z M858 1767 L260 1767 L260 1609 L858 1609 L858 1767 Z " />
<glyph glyph-name="emacron" unicode="&#x113;" horiz-adv-x="983" d="M922 585 C922 923 780 1102 515 1102 C243 1102 80 927 80 568 L80 482 C80 148 250 -20 537 -20 C726 -20 845 66 904 150 L791 302 C734 232 652 192 559 192 C420 192 343 272 337 463 L922 463 L922 585 Z M781 1453 L183 1453 L183 1295 L781 1295 L781 1453 Z M668 644 L339 644 C350 813 403 894 516 894 C624 894 667 811 668 669 L668 644 Z " />
<glyph glyph-name="Edotaccent" unicode="&#x116;" horiz-adv-x="1017" d="M393 219 L393 643 L876 643 L876 857 L393 857 L393 1236 L958 1236 L958 1456 L126 1456 L126 0 L961 0 L961 219 L393 219 Z M556 1573 C638 1573 691 1628 691 1701 C691 1775 638 1830 556 1830 C472 1830 420 1775 420 1701 C420 1628 472 1573 556 1573 L556 1573 Z " />
<glyph glyph-name="edotaccent" unicode="&#x117;" horiz-adv-x="983" d="M922 585 C922 923 780 1102 515 1102 C243 1102 80 927 80 568 L80 482 C80 148 250 -20 537 -20 C726 -20 845 66 904 150 L791 302 C734 232 652 192 559 192 C420 192 343 272 337 463 L922 463 L922 585 Z M479 1259 C561 1259 614 1314 614 1387 C614 1461 561 1516 479 1516 C395 1516 343 1461 343 1387 C343 1314 395 1259 479 1259 L479 1259 Z M668 644 L339 644 C350 813 403 894 516 894 C624 894 667 811 668 669 L668 644 Z " />
<glyph glyph-name="Eogonek" unicode="&#x118;" horiz-adv-x="1017" d="M831 0 L961 0 L961 219 L393 219 L393 643 L876 643 L876 857 L393 857 L393 1236 L958 1236 L958 1456 L126 1456 L126 0 L612 0 C531 -67 506 -144 506 -221 C506 -354 595 -424 703 -424 C773 -424 818 -400 847 -380 L822 -233 C807 -242 787 -255 755 -255 C715 -255 700 -227 700 -189 C700 -113 746 -59 831 0 L831 0 Z " />
<glyph glyph-name="eogonek" unicode="&#x119;" horiz-adv-x="983" d="M922 585 C922 923 780 1102 515 1102 C243 1102 80 927 80 568 L80 482 C80 172 227 5 478 -17 C435 -72 420 -131 420 -190 C420 -323 509 -393 617 -393 C687 -393 732 -369 761 -349 L736 -202 C721 -211 701 -224 669 -224 C629 -224 614 -196 614 -158 C614 -91 650 -41 716 10 C805 42 866 97 904 150 L791 302 C734 232 652 192 559 192 C420 192 343 272 337 463 L922 463 L922 585 Z M668 644 L339 644 C350 813 403 894 516 894 C624 894 667 811 668 669 L668 644 Z " />
<glyph glyph-name="Ecaron" unicode="&#x11a;" horiz-adv-x="1017" d="M393 219 L393 643 L876 643 L876 857 L393 857 L393 1236 L958 1236 L958 1456 L126 1456 L126 0 L961 0 L961 219 L393 219 Z M638 1562 L898 1840 L898 1851 L679 1851 L557 1701 L437 1851 L218 1851 L218 1841 L477 1562 L638 1562 Z " />
<glyph glyph-name="ecaron" unicode="&#x11b;" horiz-adv-x="983" d="M922 585 C922 923 780 1102 515 1102 C243 1102 80 927 80 568 L80 482 C80 148 250 -20 537 -20 C726 -20 845 66 904 150 L791 302 C734 232 652 192 559 192 C420 192 343 272 337 463 L922 463 L922 585 Z M561 1248 L821 1526 L821 1537 L602 1537 L480 1387 L360 1537 L141 1537 L141 1527 L400 1248 L561 1248 Z M668 644 L339 644 C350 813 403 894 516 894 C624 894 667 811 668 669 L668 644 Z " />
<glyph glyph-name="Gbreve" unicode="&#x11e;" horiz-adv-x="1216" d="M1113 175 L1113 754 L618 754 L618 552 L845 552 L845 271 C819 248 771 199 650 199 C465 199 368 331 368 624 L368 835 C368 1125 453 1258 625 1258 C772 1258 834 1174 852 1003 L1112 1003 C1086 1298 942 1477 618 1477 C298 1477 99 1258 99 833 L99 624 C99 197 313 -20 636 -20 C913 -20 1054 105 1113 175 L1113 175 Z M924 1844 L735 1844 C735 1773 699 1707 603 1707 C505 1707 469 1772 469 1844 L280 1844 C280 1674 405 1555 603 1555 C800 1555 924 1674 924 1844 L924 1844 Z " />
<glyph glyph-name="gbreve" unicode="&#x11f;" horiz-adv-x="1034" d="M693 1082 L683 984 C630 1059 555 1102 446 1102 C213 1102 75 924 75 576 L75 509 C75 176 214 -13 444 -13 C541 -13 614 27 668 96 L668 6 C668 -156 596 -221 469 -221 C384 -221 297 -181 239 -117 L140 -286 C220 -379 377 -426 482 -426 C746 -426 925 -286 925 9 L925 1082 L693 1082 Z M485 1230 C682 1230 806 1349 806 1519 L617 1519 C617 1448 581 1382 485 1382 C387 1382 351 1447 351 1519 L162 1519 C162 1349 287 1230 485 1230 L485 1230 Z M515 200 C388 200 332 304 332 509 L332 576 C332 784 390 889 516 889 C587 889 637 857 668 801 L668 286 C638 232 588 200 515 200 L515 200 Z " />
<glyph glyph-name="Gdotaccent" unicode="&#x120;" horiz-adv-x="1216" d="M1113 175 L1113 754 L618 754 L618 552 L845 552 L845 271 C819 248 771 199 650 199 C465 199 368 331 368 624 L368 835 C368 1125 453 1258 625 1258 C772 1258 834 1174 852 1003 L1112 1003 C1086 1298 942 1477 618 1477 C298 1477 99 1258 99 833 L99 624 C99 197 313 -20 636 -20 C913 -20 1054 105 1113 175 L1113 175 Z M605 1840 C521 1840 469 1785 469 1711 C469 1638 521 1583 605 1583 C687 1583 740 1638 740 1711 C740 1785 687 1840 605 1840 L605 1840 Z " />
<glyph glyph-name="gdotaccent" unicode="&#x121;" horiz-adv-x="1034" d="M693 1082 L683 984 C630 1059 555 1102 446 1102 C213 1102 75 924 75 576 L75 509 C75 176 214 -13 444 -13 C541 -13 614 27 668 96 L668 6 C668 -156 596 -221 469 -221 C384 -221 297 -181 239 -117 L140 -286 C220 -379 377 -426 482 -426 C746 -426 925 -286 925 9 L925 1082 L693 1082 Z M487 1258 C569 1258 622 1313 622 1386 C622 1460 569 1515 487 1515 C403 1515 351 1460 351 1386 C351 1313 403 1258 487 1258 L487 1258 Z M515 200 C388 200 332 304 332 509 L332 576 C332 784 390 889 516 889 C587 889 637 857 668 801 L668 286 C638 232 588 200 515 200 L515 200 Z " />
<glyph glyph-name="Gcommaaccent" unicode="&#x122;" horiz-adv-x="1266" d="M1113 175 L1113 754 L618 754 L618 552 L845 552 L845 271 C819 248 771 199 650 199 C465 199 368 331 368 624 L368 835 C368 1125 453 1258 625 1258 C772 1258 834 1174 852 1003 L1112 1003 C1086 1298 942 1477 618 1477 C298 1477 99 1258 99 833 L99 624 C99 197 313 -20 636 -20 C913 -20 1054 105 1113 175 L1113 175 Z M96 -587 L96 -516 L-97 -516 L-97 -599 C-97 -704 -122 -775 -162 -847 L-34 -921 C42 -840 96 -705 96 -587 L96 -587 Z " />
<glyph glyph-name="gcommaaccent" unicode="&#x123;" horiz-adv-x="1034" d="M693 1082 L683 984 C630 1059 555 1102 446 1102 C213 1102 75 924 75 576 L75 509 C75 176 214 -13 444 -13 C541 -13 614 27 668 96 L668 6 C668 -156 596 -221 469 -221 C384 -221 297 -181 239 -117 L140 -286 C220 -379 377 -426 482 -426 C746 -426 925 -286 925 9 L925 1082 L693 1082 Z M586 1382 C586 1483 615 1566 645 1631 L513 1708 C439 1652 383 1527 383 1393 L383 1258 L586 1258 L586 1382 Z M515 200 C388 200 332 304 332 509 L332 576 C332 784 390 889 516 889 C587 889 637 857 668 801 L668 286 C638 232 588 200 515 200 L515 200 Z " />
<glyph glyph-name="Hbar" unicode="&#x126;" horiz-adv-x="1350" d="M1263 1209 L1166 1209 L1166 1456 L898 1456 L898 1209 L415 1209 L415 1456 L148 1456 L148 1209 L46 1209 L46 1044 L148 1044 L148 0 L415 0 L415 638 L898 638 L898 0 L1166 0 L1166 1044 L1263 1044 L1263 1209 Z M898 857 L415 857 L415 1044 L898 1044 L898 857 Z " />
<glyph glyph-name="hbar" unicode="&#x127;" horiz-adv-x="1012" d="M606 1102 C505 1102 422 1056 361 977 L361 1222 L567 1222 L567 1395 L361 1395 L361 1536 L104 1536 L104 1395 L-34 1395 L-34 1222 L104 1222 L104 0 L361 0 L361 792 C391 852 439 889 508 889 C599 889 649 839 649 690 L649 0 L906 0 L906 688 C906 989 782 1102 606 1102 L606 1102 Z " />
<glyph glyph-name="Itilde" unicode="&#x128;" horiz-adv-x="545" d="M407 0 L407 1456 L140 1456 L140 0 L407 0 Z M595 1831 L447 1842 C447 1780 416 1742 377 1742 C291 1742 233 1831 144 1831 C30 1831 -52 1714 -52 1570 L97 1562 C97 1624 127 1661 166 1661 C255 1661 290 1573 399 1573 C512 1573 595 1685 595 1831 L595 1831 Z " />
<glyph glyph-name="itilde" unicode="&#x129;" horiz-adv-x="521" d="M387 0 L387 1082 L129 1082 L129 0 L387 0 Z M583 1504 L435 1515 C435 1453 404 1415 365 1415 C279 1415 221 1504 132 1504 C18 1504 -64 1387 -64 1243 L85 1235 C85 1297 115 1334 154 1334 C243 1334 278 1246 387 1246 C500 1246 583 1358 583 1504 L583 1504 Z " />
<glyph glyph-name="Imacron" unicode="&#x12a;" horiz-adv-x="545" d="M407 0 L407 1456 L140 1456 L140 0 L407 0 Z M572 1609 L572 1767 L-26 1767 L-26 1609 L572 1609 Z " />
<glyph glyph-name="imacron" unicode="&#x12b;" horiz-adv-x="521" d="M387 0 L387 1082 L129 1082 L129 0 L387 0 Z M560 1282 L560 1440 L-38 1440 L-38 1282 L560 1282 Z " />
<glyph glyph-name="Iogonek" unicode="&#x12e;" horiz-adv-x="545" d="M355 0 L407 0 L407 1456 L140 1456 L140 3 C56 -64 30 -142 30 -221 C30 -354 119 -424 227 -424 C297 -424 342 -400 371 -380 L346 -233 C331 -242 311 -255 279 -255 C239 -255 224 -227 224 -189 C224 -113 270 -59 355 0 L355 0 Z " />
<glyph glyph-name="iogonek" unicode="&#x12f;" horiz-adv-x="503" d="M122 0 L125 0 C44 -67 19 -144 19 -221 C19 -354 108 -424 216 -424 C286 -424 331 -400 360 -380 L335 -233 C320 -242 300 -255 268 -255 C228 -255 213 -227 213 -189 C213 -113 259 -59 344 0 L381 0 L381 1082 L122 1082 L122 0 Z M251 1228 C339 1228 394 1286 394 1366 C394 1445 339 1504 251 1504 C164 1504 109 1445 109 1366 C109 1286 164 1228 251 1228 L251 1228 Z " />
<glyph glyph-name="Idotaccent" unicode="&#x130;" horiz-adv-x="545" d="M407 0 L407 1456 L140 1456 L140 0 L407 0 Z M270 1830 C186 1830 134 1775 134 1701 C134 1628 186 1573 270 1573 C352 1573 405 1628 405 1701 C405 1775 352 1830 270 1830 L270 1830 Z " />
<glyph glyph-name="dotlessi" unicode="&#x131;" horiz-adv-x="521" d="M387 0 L387 1082 L129 1082 L129 0 L387 0 Z " />
<glyph glyph-name="Kcommaaccent" unicode="&#x136;" horiz-adv-x="1184" d="M829 0 L1146 0 L694 816 L1133 1456 L805 1456 L493 962 L393 800 L393 1456 L126 1456 L126 0 L393 0 L393 459 L518 601 L829 0 Z M-161 -537 C-161 -642 -186 -713 -226 -785 L-98 -859 C-22 -778 32 -643 32 -525 L32 -454 L-161 -454 L-161 -537 Z " />
<glyph glyph-name="kcommaaccent" unicode="&#x137;" horiz-adv-x="1018" d="M679 0 L975 0 L610 639 L943 1082 L649 1082 L410 711 L367 657 L367 1537 L110 1537 L110 0 L367 0 L367 393 L439 460 L679 0 Z M-234 -559 C-234 -664 -259 -735 -299 -807 L-171 -881 C-95 -800 -41 -665 -41 -547 L-41 -476 L-234 -476 L-234 -559 Z " />
<glyph glyph-name="Lacute" unicode="&#x139;" horiz-adv-x="983" d="M393 219 L393 1456 L126 1456 L126 0 L931 0 L931 219 L393 219 Z M610 1844 L322 1844 L137 1539 L349 1539 L610 1844 Z " />
<glyph glyph-name="lacute" unicode="&#x13a;" horiz-adv-x="588" d="M378 1536 L120 1536 L120 293 C120 66 226 -20 387 -20 C450 -20 496 -9 537 5 L539 205 C523 201 497 197 468 197 C407 197 378 218 378 316 L378 1536 Z M310 1932 L125 1627 L337 1627 L598 1932 L310 1932 Z " />
<glyph glyph-name="Lcommaaccent" unicode="&#x13b;" horiz-adv-x="1019" d="M393 219 L393 1456 L126 1456 L126 0 L931 0 L931 219 L393 219 Z M-212 -587 C-212 -692 -237 -763 -277 -835 L-149 -909 C-73 -828 -19 -693 -19 -575 L-19 -504 L-212 -504 L-212 -587 Z " />
<glyph glyph-name="lcommaaccent" unicode="&#x13c;" horiz-adv-x="527" d="M378 1536 L120 1536 L120 293 C120 66 226 -20 387 -20 C450 -20 496 -9 537 5 L539 205 C523 201 497 197 468 197 C407 197 378 218 378 316 L378 1536 Z M-301 -575 L-301 -504 L-494 -504 L-494 -587 C-494 -692 -519 -763 -559 -835 L-431 -909 C-355 -828 -301 -693 -301 -575 L-301 -575 Z " />
<glyph glyph-name="Lcaron" unicode="&#x13d;" horiz-adv-x="1019" d="M393 219 L393 1456 L126 1456 L126 1034 L-7 1034 L-7 951 C-7 846 -32 775 -72 703 L56 629 C82 657 106 692 126 730 L126 0 L931 0 L931 219 L393 219 Z " />
<glyph glyph-name="lcaron" unicode="&#x13e;" horiz-adv-x="660" d="M77 1044 L77 1115 L-116 1115 L-116 1032 C-116 927 -141 856 -181 784 L-53 710 C23 791 77 926 77 1044 L77 1044 Z M378 1536 L120 1536 L120 293 C120 66 226 -20 387 -20 C450 -20 496 -9 537 5 L539 205 C523 201 497 197 468 197 C407 197 378 218 378 316 L378 1536 Z " />
<glyph glyph-name="Lslash" unicode="&#x141;" horiz-adv-x="1054" d="M428 219 L428 738 L598 795 L598 950 L428 893 L428 1456 L161 1456 L161 802 L45 763 L45 608 L161 647 L161 0 L966 0 L966 219 L428 219 Z " />
<glyph glyph-name="lslash" unicode="&#x142;" horiz-adv-x="603" d="M501 197 C440 197 411 218 411 316 L411 752 L526 797 L526 951 L411 906 L411 1536 L153 1536 L153 806 L45 764 L45 610 L153 652 L153 293 C153 66 259 -20 420 -20 C483 -20 529 -9 570 5 L572 205 C556 201 530 197 501 197 L501 197 Z " />
<glyph glyph-name="Nacute" unicode="&#x143;" horiz-adv-x="1269" d="M1142 0 L1142 1456 L876 1456 L876 482 L414 1456 L126 1456 L126 0 L393 0 L393 964 L862 0 L1142 0 Z M694 1846 L509 1541 L721 1541 L982 1846 L694 1846 Z " />
<glyph glyph-name="nacute" unicode="&#x144;" horiz-adv-x="1014" d="M616 1102 C508 1102 418 1053 354 967 L347 1082 L104 1082 L104 0 L361 0 L361 781 C392 847 442 889 510 889 C600 889 650 841 650 695 L650 0 L907 0 L907 694 C907 994 789 1102 616 1102 L616 1102 Z M854 1536 L566 1536 L381 1231 L593 1231 L854 1536 Z " />
<glyph glyph-name="Ncommaaccent" unicode="&#x145;" horiz-adv-x="1311" d="M1142 0 L1142 1456 L876 1456 L876 482 L414 1456 L126 1456 L126 0 L393 0 L393 964 L862 0 L1142 0 Z M94 -583 L94 -512 L-99 -512 L-99 -595 C-99 -700 -124 -771 -164 -843 L-36 -917 C40 -836 94 -701 94 -583 L94 -583 Z " />
<glyph glyph-name="ncommaaccent" unicode="&#x146;" horiz-adv-x="1051" d="M616 1102 C508 1102 418 1053 354 967 L347 1082 L104 1082 L104 0 L361 0 L361 781 C392 847 442 889 510 889 C600 889 650 841 650 695 L650 0 L907 0 L907 694 C907 994 789 1102 616 1102 L616 1102 Z M-233 -587 C-233 -692 -258 -763 -298 -835 L-170 -909 C-94 -828 -40 -693 -40 -575 L-40 -504 L-233 -504 L-233 -587 Z " />
<glyph glyph-name="Ncaron" unicode="&#x147;" horiz-adv-x="1269" d="M1142 0 L1142 1456 L876 1456 L876 482 L414 1456 L126 1456 L126 0 L393 0 L393 964 L862 0 L1142 0 Z M635 1696 L515 1846 L296 1846 L296 1836 L555 1557 L716 1557 L976 1835 L976 1846 L757 1846 L635 1696 Z " />
<glyph glyph-name="ncaron" unicode="&#x148;" horiz-adv-x="1014" d="M616 1102 C508 1102 418 1053 354 967 L347 1082 L104 1082 L104 0 L361 0 L361 781 C392 847 442 889 510 889 C600 889 650 841 650 695 L650 0 L907 0 L907 694 C907 994 789 1102 616 1102 L616 1102 Z M588 1247 L848 1525 L848 1536 L629 1536 L507 1386 L387 1536 L168 1536 L168 1526 L427 1247 L588 1247 Z " />
<glyph glyph-name="Eng" unicode="&#x14a;" horiz-adv-x="1259" d="M870 1456 L870 496 L391 1456 L124 1456 L124 0 L391 0 L391 963 L870 0 L870 -42 C870 -155 836 -217 776 -217 C745 -217 717 -213 690 -205 L679 -420 C723 -433 759 -437 804 -437 C1012 -437 1138 -298 1138 -42 L1138 1456 L870 1456 Z " />
<glyph glyph-name="eng" unicode="&#x14b;" horiz-adv-x="1024" d="M616 1102 C508 1102 418 1039 358 935 L347 1082 L108 1082 L108 0 L365 0 L365 801 C401 855 454 889 523 889 C611 889 657 835 657 664 L657 -48 C657 -163 623 -222 562 -222 C534 -222 505 -217 480 -209 L468 -420 C510 -433 546 -437 588 -437 C792 -437 915 -299 915 -48 L915 665 C915 979 794 1102 616 1102 L616 1102 Z " />
<glyph glyph-name="Omacron" unicode="&#x14c;" horiz-adv-x="1244" d="M1148 628 L1148 821 C1148 1244 935 1476 621 1476 C308 1476 94 1244 94 821 L94 628 C94 208 311 -20 623 -20 C937 -20 1148 208 1148 628 L1148 628 Z M922 1606 L922 1764 L324 1764 L324 1606 L922 1606 Z M881 823 L881 628 C881 337 789 203 623 203 C457 203 362 337 362 628 L362 823 C362 1118 455 1252 621 1252 C787 1252 881 1118 881 823 L881 823 Z " />
<glyph glyph-name="omacron" unicode="&#x14d;" horiz-adv-x="1027" d="M74 575 L74 507 C74 176 241 -20 514 -20 C786 -20 953 176 953 507 L953 575 C953 906 786 1102 512 1102 C241 1102 74 906 74 575 L74 575 Z M809 1294 L809 1452 L211 1452 L211 1294 L809 1294 Z M331 507 L331 575 C331 774 393 891 512 891 C635 891 695 774 695 575 L695 507 C695 303 637 192 514 192 C392 192 331 303 331 507 L331 507 Z " />
<glyph glyph-name="Ohungarumlaut" unicode="&#x150;" horiz-adv-x="1244" d="M1148 628 L1148 821 C1148 1244 935 1476 621 1476 C308 1476 94 1244 94 821 L94 628 C94 208 311 -20 623 -20 C937 -20 1148 208 1148 628 L1148 628 Z M509 1847 L357 1546 L544 1546 L738 1847 L509 1847 Z M848 1847 L661 1546 L854 1546 L1079 1847 L848 1847 Z M881 823 L881 628 C881 337 789 203 623 203 C457 203 362 337 362 628 L362 823 C362 1118 455 1252 621 1252 C787 1252 881 1118 881 823 L881 823 Z " />
<glyph glyph-name="ohungarumlaut" unicode="&#x151;" horiz-adv-x="1027" d="M74 575 L74 507 C74 176 241 -20 514 -20 C786 -20 953 176 953 507 L953 575 C953 906 786 1102 512 1102 C241 1102 74 906 74 575 L74 575 Z M396 1535 L244 1234 L431 1234 L625 1535 L396 1535 Z M735 1535 L548 1234 L741 1234 L966 1535 L735 1535 Z M331 507 L331 575 C331 774 393 891 512 891 C635 891 695 774 695 575 L695 507 C695 303 637 192 514 192 C392 192 331 303 331 507 L331 507 Z " />
<glyph glyph-name="OE" unicode="&#x152;" horiz-adv-x="1803" d="M1055 219 L1055 643 L1538 643 L1538 857 L1055 857 L1055 1236 L1620 1236 L1620 1456 L860 1456 C786 1467 702 1477 616 1477 C307 1477 99 1233 99 880 L99 576 C99 223 310 -21 618 -21 C703 -21 786 -10 860 0 L1623 0 L1623 219 L1055 219 Z M355 576 L355 882 C355 1136 456 1265 616 1265 C676 1265 734 1260 788 1252 L788 204 C735 196 677 191 618 191 C457 191 355 322 355 576 L355 576 Z " />
<glyph glyph-name="oe" unicode="&#x153;" horiz-adv-x="1605" d="M1523 616 C1523 908 1387 1102 1128 1102 C1007 1102 907 1050 836 961 C762 1050 657 1102 524 1102 C244 1102 89 867 89 551 L89 530 C89 215 244 -21 526 -21 C659 -21 764 32 837 122 C912 32 1020 -21 1153 -21 C1316 -21 1439 43 1504 107 L1432 276 C1363 228 1298 191 1178 191 C1046 191 982 311 971 463 L1523 463 L1523 616 Z M702 530 C702 343 658 191 526 191 C391 191 347 343 347 530 L347 551 C347 734 392 891 524 891 C659 891 702 734 702 551 L702 530 Z M1271 648 L974 648 C988 787 1036 891 1128 891 C1231 891 1271 798 1271 674 L1271 648 Z " />
<glyph glyph-name="Racute" unicode="&#x154;" horiz-adv-x="1142" d="M830 616 C967 686 1051 814 1051 1018 C1051 1303 880 1456 589 1456 L126 1456 L126 0 L393 0 L393 555 L573 555 L811 0 L1097 0 L1097 14 L830 616 Z M874 1846 L586 1846 L401 1541 L613 1541 L874 1846 Z M393 1236 L589 1236 C724 1236 783 1144 783 1000 C783 863 717 767 586 767 L393 767 L393 1236 Z " />
<glyph glyph-name="racute" unicode="&#x155;" horiz-adv-x="672" d="M361 962 L354 1082 L110 1082 L110 0 L367 0 L367 726 C395 798 451 836 541 836 C569 836 606 833 632 828 L634 1089 C617 1097 583 1102 558 1102 C472 1102 406 1049 361 962 L361 962 Z M713 1536 L425 1536 L240 1231 L452 1231 L713 1536 Z " />
<glyph glyph-name="Rcommaaccent" unicode="&#x156;" horiz-adv-x="1190" d="M830 616 C967 686 1051 814 1051 1018 C1051 1303 880 1456 589 1456 L126 1456 L126 0 L393 0 L393 555 L573 555 L811 0 L1097 0 L1097 14 L830 616 Z M-198 -587 C-198 -692 -223 -763 -263 -835 L-135 -909 C-59 -828 -5 -693 -5 -575 L-5 -504 L-198 -504 L-198 -587 Z M393 1236 L589 1236 C724 1236 783 1144 783 1000 C783 863 717 767 586 767 L393 767 L393 1236 Z " />
<glyph glyph-name="rcommaaccent" unicode="&#x157;" horiz-adv-x="703" d="M558 1102 C472 1102 406 1049 361 962 L354 1082 L110 1082 L110 0 L367 0 L367 726 C395 798 451 836 541 836 C569 836 606 833 632 828 L634 1089 C617 1097 583 1102 558 1102 L558 1102 Z M-503 -587 C-503 -692 -528 -763 -568 -835 L-440 -909 C-364 -828 -310 -693 -310 -575 L-310 -504 L-503 -504 L-503 -587 Z " />
<glyph glyph-name="Rcaron" unicode="&#x158;" horiz-adv-x="1142" d="M830 616 C967 686 1051 814 1051 1018 C1051 1303 880 1456 589 1456 L126 1456 L126 0 L393 0 L393 555 L573 555 L811 0 L1097 0 L1097 14 L830 616 Z M608 1557 L868 1835 L868 1846 L649 1846 L527 1696 L407 1846 L188 1846 L188 1836 L447 1557 L608 1557 Z M393 1236 L589 1236 C724 1236 783 1144 783 1000 C783 863 717 767 586 767 L393 767 L393 1236 Z " />
<glyph glyph-name="rcaron" unicode="&#x159;" horiz-adv-x="672" d="M361 962 L354 1082 L110 1082 L110 0 L367 0 L367 726 C395 798 451 836 541 836 C569 836 606 833 632 828 L634 1089 C617 1097 583 1102 558 1102 C472 1102 406 1049 361 962 L361 962 Z M488 1536 L366 1386 L246 1536 L27 1536 L27 1526 L286 1247 L447 1247 L707 1525 L707 1536 L488 1536 Z " />
<glyph glyph-name="Sacute" unicode="&#x15a;" horiz-adv-x="1108" d="M528 619 C726 542 762 490 762 379 C762 272 706 196 579 196 C434 196 344 266 344 450 L85 450 C85 129 299 -20 579 -20 C874 -20 1030 128 1030 384 C1030 617 891 755 619 856 C463 908 380 970 380 1073 C380 1177 441 1259 568 1259 C704 1259 763 1164 763 1030 L1022 1030 C1022 1284 885 1476 572 1476 C289 1476 114 1313 114 1073 C114 827 301 703 528 619 L528 619 Z M626 1848 L441 1543 L653 1543 L914 1848 L626 1848 Z " />
<glyph glyph-name="sacute" unicode="&#x15b;" horiz-adv-x="936" d="M413 445 C538 395 607 367 607 286 C607 216 556 171 467 171 C380 171 305 214 300 334 L64 334 C64 157 175 -20 473 -20 C730 -20 858 110 858 305 C858 519 707 575 529 645 C402 693 342 714 342 796 C342 860 383 912 471 912 C565 912 606 847 606 763 L853 763 C853 961 731 1102 470 1102 C205 1102 95 956 95 779 C95 590 218 521 413 445 L413 445 Z M531 1536 L346 1231 L558 1231 L819 1536 L531 1536 Z " />
<glyph glyph-name="Scedilla" unicode="&#x15e;" horiz-adv-x="1108" d="M1030 384 C1030 617 891 755 619 856 C463 908 380 970 380 1073 C380 1177 441 1259 568 1259 C704 1259 763 1164 763 1030 L1022 1030 C1022 1284 885 1476 572 1476 C289 1476 114 1313 114 1073 C114 827 301 703 528 619 C726 542 762 490 762 379 C762 272 706 196 579 196 C434 196 344 266 344 450 L85 450 C85 170 248 20 476 -13 L453 -135 C538 -143 573 -160 573 -219 C573 -281 537 -306 483 -306 L488 -456 C686 -456 787 -363 787 -225 C787 -110 724 -65 662 -52 L668 -15 C905 13 1030 155 1030 384 L1030 384 Z " />
<glyph glyph-name="scedilla" unicode="&#x15f;" horiz-adv-x="936" d="M858 305 C858 519 707 575 529 645 C402 693 342 714 342 796 C342 860 383 912 471 912 C565 912 606 847 606 763 L853 763 C853 961 731 1102 470 1102 C205 1102 95 956 95 779 C95 590 218 521 413 445 C538 395 607 367 607 286 C607 216 556 171 467 171 C380 171 305 214 300 334 L64 334 C64 177 151 20 379 -13 L354 -145 C439 -153 474 -170 474 -229 C474 -291 438 -316 384 -316 L389 -466 C587 -466 688 -373 688 -235 C688 -120 625 -75 563 -62 L571 -13 C763 17 858 137 858 305 L858 305 Z " />
<glyph glyph-name="Scaron" unicode="&#x160;" horiz-adv-x="1108" d="M528 619 C726 542 762 490 762 379 C762 272 706 196 579 196 C434 196 344 266 344 450 L85 450 C85 129 299 -20 579 -20 C874 -20 1030 128 1030 384 C1030 617 891 755 619 856 C463 908 380 970 380 1073 C380 1177 441 1259 568 1259 C704 1259 763 1164 763 1030 L1022 1030 C1022 1284 885 1476 572 1476 C289 1476 114 1313 114 1073 C114 827 301 703 528 619 L528 619 Z M567 1698 L447 1848 L228 1848 L228 1838 L487 1559 L648 1559 L908 1837 L908 1848 L689 1848 L567 1698 Z " />
<glyph glyph-name="scaron" unicode="&#x161;" horiz-adv-x="936" d="M413 445 C538 395 607 367 607 286 C607 216 556 171 467 171 C380 171 305 214 300 334 L64 334 C64 157 175 -20 473 -20 C730 -20 858 110 858 305 C858 519 707 575 529 645 C402 693 342 714 342 796 C342 860 383 912 471 912 C565 912 606 847 606 763 L853 763 C853 961 731 1102 470 1102 C205 1102 95 956 95 779 C95 590 218 521 413 445 L413 445 Z M472 1386 L352 1536 L133 1536 L133 1526 L392 1247 L553 1247 L813 1525 L813 1536 L594 1536 L472 1386 Z " />
<glyph glyph-name="uni0162" unicode="&#x162;" horiz-adv-x="1113" d="M688 0 L688 1236 L1062 1236 L1062 1456 L51 1456 L51 1236 L420 1236 L420 0 L459 0 L434 -129 C519 -137 554 -154 554 -213 C554 -275 518 -300 464 -300 L469 -450 C667 -450 768 -357 768 -219 C768 -104 705 -59 643 -46 L651 0 L688 0 Z " />
<glyph glyph-name="uni0163" unicode="&#x163;" horiz-adv-x="627" d="M481 -52 L487 -16 C521 -12 550 -4 576 5 L577 205 C562 201 536 197 506 197 C446 197 416 218 416 316 L416 890 L570 890 L570 1082 L416 1082 L416 1349 L158 1349 L158 1082 L23 1082 L23 890 L158 890 L158 293 C158 133 211 43 299 4 L272 -135 C357 -143 392 -160 392 -219 C392 -281 356 -306 302 -306 L307 -456 C505 -456 606 -363 606 -225 C606 -110 543 -65 481 -52 L481 -52 Z " />
<glyph glyph-name="Tcaron" unicode="&#x164;" horiz-adv-x="1113" d="M1062 1456 L51 1456 L51 1236 L420 1236 L420 0 L688 0 L688 1236 L1062 1236 L1062 1456 Z M633 1557 L893 1835 L893 1846 L674 1846 L552 1696 L432 1846 L213 1846 L213 1836 L472 1557 L633 1557 Z " />
<glyph glyph-name="tcaron" unicode="&#x165;" horiz-adv-x="685" d="M506 197 C446 197 416 218 416 316 L416 890 L570 890 L570 1082 L416 1082 L416 1349 L158 1349 L158 1082 L127 1082 C133 1113 137 1145 137 1175 L137 1246 L-56 1246 L-56 1163 C-56 1058 -81 987 -121 915 L7 841 C21 856 34 872 46 890 L158 890 L158 293 C158 66 264 -20 425 -20 C488 -20 535 -9 576 5 L577 205 C562 201 536 197 506 197 L506 197 Z " />
<glyph glyph-name="Tbar" unicode="&#x166;" horiz-adv-x="1113" d="M1062 1236 L1062 1456 L51 1456 L51 1236 L420 1236 L420 941 L243 941 L243 768 L420 768 L420 0 L688 0 L688 768 L844 768 L844 941 L688 941 L688 1236 L1062 1236 Z " />
<glyph glyph-name="tbar" unicode="&#x167;" horiz-adv-x="627" d="M588 550 L588 723 L416 723 L416 890 L570 890 L570 1082 L416 1082 L416 1349 L158 1349 L158 1082 L23 1082 L23 890 L158 890 L158 723 L-13 723 L-13 550 L158 550 L158 293 C158 66 264 -20 425 -20 C488 -20 535 -9 576 5 L577 205 C562 201 536 197 506 197 C446 197 416 218 416 316 L416 550 L588 550 Z " />
<glyph glyph-name="Utilde" unicode="&#x168;" horiz-adv-x="1181" d="M1070 1456 L801 1456 L801 462 C801 261 726 199 591 199 C458 199 380 261 380 462 L380 1456 L112 1456 L112 462 C112 127 312 -20 591 -20 C866 -20 1070 127 1070 462 L1070 1456 Z M909 1826 L761 1837 C761 1775 730 1737 691 1737 C605 1737 547 1826 458 1826 C344 1826 262 1709 262 1565 L411 1557 C411 1619 441 1656 480 1656 C569 1656 604 1568 713 1568 C826 1568 909 1680 909 1826 L909 1826 Z " />
<glyph glyph-name="utilde" unicode="&#x169;" horiz-adv-x="1013" d="M649 1082 L649 299 C620 234 568 194 483 194 C414 194 361 242 361 381 L361 1082 L104 1082 L104 383 C104 96 228 -20 410 -20 C519 -20 602 26 659 104 L665 0 L907 0 L907 1082 L649 1082 Z M398 1346 C487 1346 522 1258 631 1258 C744 1258 827 1370 827 1516 L679 1527 C679 1465 648 1427 609 1427 C523 1427 465 1516 376 1516 C262 1516 180 1399 180 1255 L329 1247 C329 1309 359 1346 398 1346 L398 1346 Z " />
<glyph glyph-name="Umacron" unicode="&#x16a;" horiz-adv-x="1181" d="M1070 1456 L801 1456 L801 462 C801 261 726 199 591 199 C458 199 380 261 380 462 L380 1456 L112 1456 L112 462 C112 127 312 -20 591 -20 C866 -20 1070 127 1070 462 L1070 1456 Z M886 1604 L886 1762 L288 1762 L288 1604 L886 1604 Z " />
<glyph glyph-name="umacron" unicode="&#x16b;" horiz-adv-x="1013" d="M649 1082 L649 299 C620 234 568 194 483 194 C414 194 361 242 361 381 L361 1082 L104 1082 L104 383 C104 96 228 -20 410 -20 C519 -20 602 26 659 104 L665 0 L907 0 L907 1082 L649 1082 Z M804 1452 L206 1452 L206 1294 L804 1294 L804 1452 Z " />
<glyph glyph-name="Uring" unicode="&#x16e;" horiz-adv-x="1181" d="M1070 1456 L801 1456 L801 462 C801 261 726 199 591 199 C458 199 380 261 380 462 L380 1456 L112 1456 L112 462 C112 127 312 -20 591 -20 C866 -20 1070 127 1070 462 L1070 1456 Z M588 1934 C467 1934 379 1841 379 1729 C379 1616 467 1528 588 1528 C708 1528 796 1616 796 1729 C796 1841 708 1934 588 1934 L588 1934 Z M588 1620 C526 1620 486 1671 486 1729 C486 1789 526 1840 588 1840 C650 1840 689 1789 689 1729 C689 1670 650 1620 588 1620 L588 1620 Z " />
<glyph glyph-name="uring" unicode="&#x16f;" horiz-adv-x="1013" d="M649 1082 L649 299 C620 234 568 194 483 194 C414 194 361 242 361 381 L361 1082 L104 1082 L104 383 C104 96 228 -20 410 -20 C519 -20 602 26 659 104 L665 0 L907 0 L907 1082 L649 1082 Z M506 1218 C626 1218 714 1306 714 1419 C714 1531 626 1624 506 1624 C385 1624 297 1531 297 1419 C297 1306 385 1218 506 1218 L506 1218 Z M506 1530 C568 1530 607 1479 607 1419 C607 1360 568 1310 506 1310 C444 1310 404 1361 404 1419 C404 1479 444 1530 506 1530 L506 1530 Z " />
<glyph glyph-name="Uhungarumlaut" unicode="&#x170;" horiz-adv-x="1181" d="M1070 1456 L801 1456 L801 462 C801 261 726 199 591 199 C458 199 380 261 380 462 L380 1456 L112 1456 L112 462 C112 127 312 -20 591 -20 C866 -20 1070 127 1070 462 L1070 1456 Z M473 1845 L321 1544 L508 1544 L702 1845 L473 1845 Z M812 1845 L625 1544 L818 1544 L1043 1845 L812 1845 Z " />
<glyph glyph-name="uhungarumlaut" unicode="&#x171;" horiz-adv-x="1013" d="M649 299 C620 234 568 194 483 194 C414 194 361 242 361 381 L361 1082 L104 1082 L104 383 C104 96 228 -20 410 -20 C519 -20 602 26 659 104 L665 0 L907 0 L907 1082 L649 1082 L649 299 Z M620 1535 L391 1535 L239 1234 L426 1234 L620 1535 Z M736 1234 L961 1535 L730 1535 L543 1234 L736 1234 Z " />
<glyph glyph-name="Uogonek" unicode="&#x172;" horiz-adv-x="1181" d="M801 1456 L801 462 C801 261 726 199 591 199 C458 199 380 261 380 462 L380 1456 L112 1456 L112 462 C112 127 312 -20 590 -20 C564 -65 555 -112 555 -159 C555 -292 644 -362 752 -362 C822 -362 867 -338 896 -318 L871 -171 C856 -180 836 -193 804 -193 C764 -193 749 -165 749 -127 C749 -64 780 -17 839 31 C980 100 1070 239 1070 462 L1070 1456 L801 1456 Z " />
<glyph glyph-name="uogonek" unicode="&#x173;" horiz-adv-x="1013" d="M880 0 L907 0 L907 1082 L649 1082 L649 299 C620 234 568 194 483 194 C414 194 361 242 361 381 L361 1082 L104 1082 L104 383 C104 96 228 -20 410 -20 C519 -20 602 26 659 104 L665 3 C581 -64 555 -142 555 -221 C555 -354 644 -424 752 -424 C822 -424 867 -400 896 -380 L871 -233 C856 -242 836 -255 804 -255 C764 -255 749 -227 749 -189 C749 -113 795 -59 880 0 L880 0 Z " />
<glyph glyph-name="Wcircumflex" unicode="&#x174;" horiz-adv-x="1560" d="M1251 1456 L1099 461 L904 1456 L661 1456 L472 477 L313 1456 L47 1456 L319 0 L598 0 L782 962 L967 0 L1246 0 L1516 1456 L1251 1456 Z M787 1708 L916 1557 L1118 1557 L1118 1569 L861 1846 L713 1846 L460 1572 L460 1557 L659 1557 L787 1708 Z " />
<glyph glyph-name="wcircumflex" unicode="&#x175;" horiz-adv-x="1318" d="M1029 1082 L914 356 L751 1082 L564 1082 L401 369 L286 1082 L38 1082 L274 0 L488 0 L658 702 L828 0 L1041 0 L1277 1082 L1029 1082 Z M657 1398 L786 1247 L988 1247 L988 1259 L731 1536 L583 1536 L330 1262 L330 1247 L529 1247 L657 1398 Z " />
<glyph glyph-name="Ycircumflex" unicode="&#x176;" horiz-adv-x="1115" d="M558 769 L310 1456 L17 1456 L422 533 L422 0 L692 0 L692 533 L1097 1456 L804 1456 L558 769 Z M891 1569 L634 1846 L486 1846 L233 1572 L233 1557 L432 1557 L560 1708 L689 1557 L891 1557 L891 1569 Z " />
<glyph glyph-name="ycircumflex" unicode="&#x177;" horiz-adv-x="911" d="M615 1082 L457 325 L296 1082 L19 1082 L342 -17 L320 -59 C295 -173 249 -221 153 -221 C142 -221 127 -220 116 -219 L116 -419 C155 -429 181 -437 228 -437 C422 -437 493 -272 526 -164 L892 1082 L615 1082 Z M461 1398 L590 1247 L792 1247 L792 1259 L535 1536 L387 1536 L134 1262 L134 1247 L333 1247 L461 1398 Z " />
<glyph glyph-name="Ydieresis" unicode="&#x178;" horiz-adv-x="1115" d="M558 769 L310 1456 L17 1456 L422 533 L422 0 L692 0 L692 533 L1097 1456 L804 1456 L558 769 Z M327 1799 C252 1799 199 1746 199 1679 C199 1611 252 1558 327 1558 C402 1558 455 1611 455 1679 C455 1746 402 1799 327 1799 L327 1799 Z M781 1798 C706 1798 654 1746 654 1677 C654 1610 706 1557 781 1557 C856 1557 909 1610 909 1677 C909 1746 856 1798 781 1798 L781 1798 Z " />
<glyph glyph-name="Zacute" unicode="&#x179;" horiz-adv-x="1094" d="M391 219 L1013 1295 L1013 1456 L78 1456 L78 1236 L705 1236 L79 166 L79 0 L1027 0 L1027 219 L391 219 Z M901 1846 L613 1846 L428 1541 L640 1541 L901 1846 Z " />
<glyph glyph-name="zacute" unicode="&#x17a;" horiz-adv-x="927" d="M385 212 L837 924 L837 1082 L92 1082 L92 871 L531 871 L81 165 L81 0 L848 0 L848 212 L385 212 Z M809 1536 L521 1536 L336 1231 L548 1231 L809 1536 Z " />
<glyph glyph-name="Zdotaccent" unicode="&#x17b;" horiz-adv-x="1094" d="M391 219 L1013 1295 L1013 1456 L78 1456 L78 1236 L705 1236 L79 166 L79 0 L1027 0 L1027 219 L391 219 Z M553 1568 C635 1568 688 1623 688 1696 C688 1770 635 1825 553 1825 C469 1825 417 1770 417 1696 C417 1623 469 1568 553 1568 L553 1568 Z " />
<glyph glyph-name="zdotaccent" unicode="&#x17c;" horiz-adv-x="927" d="M385 212 L837 924 L837 1082 L92 1082 L92 871 L531 871 L81 165 L81 0 L848 0 L848 212 L385 212 Z M461 1258 C543 1258 596 1313 596 1386 C596 1460 543 1515 461 1515 C377 1515 325 1460 325 1386 C325 1313 377 1258 461 1258 L461 1258 Z " />
<glyph glyph-name="Zcaron" unicode="&#x17d;" horiz-adv-x="1094" d="M391 219 L1013 1295 L1013 1456 L78 1456 L78 1236 L705 1236 L79 166 L79 0 L1027 0 L1027 219 L391 219 Z M635 1557 L895 1835 L895 1846 L676 1846 L554 1696 L434 1846 L215 1846 L215 1836 L474 1557 L635 1557 Z " />
<glyph glyph-name="zcaron" unicode="&#x17e;" horiz-adv-x="927" d="M385 212 L837 924 L837 1082 L92 1082 L92 871 L531 871 L81 165 L81 0 L848 0 L848 212 L385 212 Z M543 1247 L803 1525 L803 1536 L584 1536 L462 1386 L342 1536 L123 1536 L123 1526 L382 1247 L543 1247 Z " />
<glyph glyph-name="florin" unicode="&#x192;" horiz-adv-x="668" d="M599 890 L599 1082 L430 1082 L430 1182 C430 1286 470 1343 549 1343 C584 1343 609 1339 631 1333 L654 1536 C607 1548 563 1557 517 1557 C300 1557 172 1425 172 1182 L172 1082 L37 1082 L37 890 L172 890 L172 -59 C172 -167 150 -226 83 -226 C65 -226 22 -220 6 -213 L-7 -420 C36 -433 71 -437 115 -437 C311 -437 430 -303 430 -59 L431 890 L599 890 Z " />
<glyph glyph-name="Ohorn" unicode="&#x1a0;" horiz-adv-x="1311" d="M1275 1571 L1098 1571 C1098 1431 1077 1335 1010 1302 C918 1416 784 1476 625 1476 C312 1476 98 1244 98 821 L98 628 C98 208 315 -20 627 -20 C941 -20 1152 208 1152 628 L1152 821 C1152 956 1130 1071 1091 1166 C1216 1222 1275 1363 1275 1571 L1275 1571 Z M885 628 C885 337 793 203 627 203 C461 203 366 337 366 628 L366 823 C366 1118 459 1252 625 1252 C791 1252 885 1118 885 823 L885 628 Z " />
<glyph glyph-name="ohorn" unicode="&#x1a1;" horiz-adv-x="1094" d="M1051 1188 L895 1188 C895 1083 883 1005 839 964 C763 1054 653 1102 517 1102 C246 1102 79 906 79 575 L79 507 C79 176 246 -20 519 -20 C791 -20 958 176 958 507 L958 575 C958 681 941 773 909 849 C1008 906 1051 1024 1051 1188 L1051 1188 Z M700 507 C700 303 642 192 519 192 C397 192 336 303 336 507 L336 575 C336 774 398 891 517 891 C640 891 700 774 700 575 L700 507 Z " />
<glyph glyph-name="Uhorn" unicode="&#x1af;" horiz-adv-x="1338" d="M1407 1538 L1235 1538 C1235 1361 1217 1251 1076 1233 L1076 1456 L807 1456 L807 462 C807 261 732 199 597 199 C464 199 386 261 386 462 L386 1456 L118 1456 L118 462 C118 127 318 -20 597 -20 C872 -20 1076 127 1076 462 L1076 1082 C1327 1098 1407 1260 1407 1538 L1407 1538 Z " />
<glyph glyph-name="uhorn" unicode="&#x1b0;" horiz-adv-x="1148" d="M1165 1176 L1011 1176 C1011 1048 1001 974 913 949 L913 1082 L655 1082 L655 299 C626 234 574 194 489 194 C420 194 367 242 367 381 L367 1082 L110 1082 L110 383 C110 96 234 -20 416 -20 C525 -20 608 26 665 104 L671 0 L913 0 L913 815 C1103 841 1165 962 1165 1176 L1165 1176 Z " />
<glyph glyph-name="Scommaaccent" unicode="&#x218;" horiz-adv-x="1155" d="M528 619 C726 542 762 490 762 379 C762 272 706 196 579 196 C434 196 344 266 344 450 L85 450 C85 129 299 -20 579 -20 C874 -20 1030 128 1030 384 C1030 617 891 755 619 856 C463 908 380 970 380 1073 C380 1177 441 1259 568 1259 C704 1259 763 1164 763 1030 L1022 1030 C1022 1284 885 1476 572 1476 C289 1476 114 1313 114 1073 C114 827 301 703 528 619 L528 619 Z M32 -585 L32 -514 L-161 -514 L-161 -597 C-161 -702 -186 -773 -226 -845 L-98 -919 C-22 -838 32 -703 32 -585 L32 -585 Z " />
<glyph glyph-name="scommaaccent" unicode="&#x219;" horiz-adv-x="967" d="M413 445 C538 395 607 367 607 286 C607 216 556 171 467 171 C380 171 305 214 300 334 L64 334 C64 157 175 -20 473 -20 C730 -20 858 110 858 305 C858 519 707 575 529 645 C402 693 342 714 342 796 C342 860 383 912 471 912 C565 912 606 847 606 763 L853 763 C853 961 731 1102 470 1102 C205 1102 95 956 95 779 C95 590 218 521 413 445 L413 445 Z M-81 -595 L-81 -524 L-274 -524 L-274 -607 C-274 -712 -299 -783 -339 -855 L-211 -929 C-135 -848 -81 -713 -81 -595 L-81 -595 Z " />
<glyph glyph-name="uni021A" unicode="&#x21a;" horiz-adv-x="1162" d="M1062 1456 L51 1456 L51 1236 L420 1236 L420 0 L688 0 L688 1236 L1062 1236 L1062 1456 Z M-181 -589 C-181 -694 -206 -765 -246 -837 L-118 -911 C-42 -830 12 -695 12 -577 L12 -506 L-181 -506 L-181 -589 Z " />
<glyph glyph-name="uni021B" unicode="&#x21b;" horiz-adv-x="649" d="M506 197 C446 197 416 218 416 316 L416 890 L570 890 L570 1082 L416 1082 L416 1349 L158 1349 L158 1082 L23 1082 L23 890 L158 890 L158 293 C158 66 264 -20 425 -20 C488 -20 535 -9 576 5 L577 205 C562 201 536 197 506 197 L506 197 Z M-357 -597 C-357 -702 -382 -773 -422 -845 L-294 -919 C-218 -838 -164 -703 -164 -585 L-164 -514 L-357 -514 L-357 -597 Z " />
<glyph glyph-name="uni0298" unicode="&#x298;" horiz-adv-x="1290" d="M620 875 C531 875 476 813 476 732 C476 652 531 590 620 590 C709 590 764 652 764 732 C764 813 709 875 620 875 L620 875 Z M1154 628 L1154 821 C1154 1244 941 1476 627 1476 C314 1476 100 1244 100 821 L100 628 C100 208 317 -20 629 -20 C943 -20 1154 208 1154 628 L1154 628 Z M887 823 L887 628 C887 337 795 203 629 203 C463 203 368 337 368 628 L368 823 C368 1118 461 1252 627 1252 C793 1252 887 1118 887 823 L887 823 Z " />
<glyph glyph-name="uni02AA" unicode="&#x2aa;" horiz-adv-x="1335" d="M852 644 C737 670 676 705 676 784 C676 853 721 912 799 912 C889 912 930 843 930 757 L1187 757 C1187 955 1040 1102 799 1102 C568 1102 428 950 428 772 C428 587 569 498 759 446 C897 410 941 370 941 297 C941 222 897 175 778 175 C689 175 537 205 384 308 L384 316 L384 1536 L126 1536 L126 293 C126 66 232 -20 393 -20 C456 -20 502 -9 543 5 L543 12 C624 -11 702 -20 778 -20 C1038 -20 1191 118 1191 308 C1191 496 1073 589 852 644 L852 644 Z " />
<glyph glyph-name="uni02AD" unicode="&#x2ad;" horiz-adv-x="894" d="M800 584 L94 584 L94 0 L281 0 L281 428 L614 428 L614 0 L800 0 L800 584 Z M800 1456 L94 1456 L94 873 L281 873 L281 1301 L614 1301 L614 873 L800 873 L800 1456 Z " />
<glyph glyph-name="uni02AF" unicode="&#x2af;" horiz-adv-x="1260" d="M1173 -253 C1109 -253 1035 -218 1035 -103 L1035 1082 L778 1082 L778 300 C751 235 704 194 625 194 C547 194 490 244 490 450 L490 768 C490 1034 310 1102 163 1102 C112 1102 71 1097 37 1088 L36 912 C57 916 75 919 95 919 C160 919 232 884 232 768 L232 569 L233 569 L233 452 C233 116 358 -20 540 -20 C641 -20 721 25 778 101 L778 -103 C778 -369 959 -437 1104 -437 C1155 -437 1196 -432 1231 -423 L1232 -246 C1212 -251 1192 -253 1173 -253 L1173 -253 Z " />
<glyph glyph-name="uni02B5" unicode="&#x2b5;" horiz-adv-x="617" d="M513 525 C461 525 435 556 435 614 L435 1454 L243 1454 L243 908 C222 864 186 839 137 839 C104 839 75 846 51 857 L51 648 C58 644 78 642 101 642 C159 642 208 678 243 740 L243 594 C243 407 312 337 437 337 C478 337 520 343 566 352 L566 533 C551 529 531 525 513 525 L513 525 Z " />
<glyph glyph-name="uni02B9" unicode="&#x2b9;" horiz-adv-x="446" d="M143 1562 L63 1210 L197 1210 L382 1562 L143 1562 Z " />
<glyph glyph-name="uni02BA" unicode="&#x2ba;" d="M149 1562 L69 1210 L203 1210 L388 1562 L149 1562 Z M503 1562 L423 1210 L557 1210 L742 1562 L503 1562 Z " />
<glyph glyph-name="uni02BB" unicode="&#x2bb;" horiz-adv-x="460" d="M85 1197 L85 1003 L305 1003 L305 1197 C305 1326 333 1420 374 1507 L247 1583 C157 1492 85 1332 85 1197 L85 1197 Z " />
<glyph glyph-name="uni02BC" unicode="&#x2bc;" horiz-adv-x="443" d="M354 1388 L354 1536 L147 1536 L147 1388 C147 1268 113 1179 71 1098 L192 1022 C283 1108 354 1260 354 1388 L354 1388 Z " />
<glyph glyph-name="uni02BD" unicode="&#x2bd;" horiz-adv-x="460" d="M85 1390 L85 1583 L305 1583 L305 1389 C305 1261 333 1166 374 1080 L247 1003 C157 1094 85 1255 85 1390 L85 1390 Z " />
<glyph glyph-name="uni02BE" unicode="&#x2be;" horiz-adv-x="329" d="M72 1226 L72 1134 C176 1134 257 1212 257 1324 C257 1435 176 1518 72 1518 L72 1424 C121 1424 154 1383 154 1324 C154 1266 121 1226 72 1226 L72 1226 Z " />
<glyph glyph-name="uni02BF" unicode="&#x2bf;" horiz-adv-x="329" d="M257 1226 L257 1134 C155 1134 72 1212 72 1324 C72 1435 155 1518 257 1518 L257 1424 C208 1424 175 1383 175 1324 C175 1266 208 1226 257 1226 L257 1226 Z " />
<glyph glyph-name="uni02C0" unicode="&#x2c0;" horiz-adv-x="686" d="M318 1808 C153 1808 46 1694 45 1521 L228 1521 C233 1589 253 1638 321 1638 C406 1638 422 1552 422 1411 L422 1251 C422 1129 393 1031 296 1031 L230 1031 L230 652 L428 652 L428 882 C555 929 620 1065 620 1258 L620 1414 C620 1648 520 1808 318 1808 L318 1808 Z " />
<glyph glyph-name="uni02C1" unicode="&#x2c1;" horiz-adv-x="686" d="M366 1638 C433 1638 454 1589 458 1521 L641 1521 C640 1694 534 1808 368 1808 C166 1808 66 1648 66 1414 L66 1258 C66 1065 131 929 258 882 L258 652 L456 652 L456 1031 L389 1031 C293 1031 265 1129 265 1251 L265 1411 C265 1552 280 1638 366 1638 L366 1638 Z " />
<glyph glyph-name="uni02C2" unicode="&#x2c2;" horiz-adv-x="799" d="M723 1138 L723 1335 L76 1050 L76 874 L723 588 L723 785 L354 947 L299 960 L354 973 L723 1138 Z " />
<glyph glyph-name="uni02C3" unicode="&#x2c3;" horiz-adv-x="802" d="M80 1335 L80 1138 L449 973 L504 960 L449 947 L80 785 L80 588 L727 874 L727 1050 L80 1335 Z " />
<glyph glyph-name="uni02C4" unicode="&#x2c4;" horiz-adv-x="782" d="M477 1330 L305 1330 L70 578 L259 578 L383 1028 L390 1063 L396 1028 L523 578 L711 578 L477 1330 Z " />
<glyph glyph-name="uni02C5" unicode="&#x2c5;" horiz-adv-x="779" d="M523 1330 L396 880 L390 845 L383 880 L259 1330 L70 1330 L305 578 L477 578 L711 1330 L523 1330 Z " />
<glyph glyph-name="circumflex" unicode="&#x2c6;" horiz-adv-x="915" d="M783 1259 L526 1536 L378 1536 L125 1262 L125 1247 L324 1247 L452 1398 L581 1247 L783 1247 L783 1259 Z " />
<glyph glyph-name="caron" unicode="&#x2c7;" horiz-adv-x="870" d="M430 1386 L310 1536 L91 1536 L91 1526 L350 1247 L511 1247 L771 1525 L771 1536 L552 1536 L430 1386 Z " />
<glyph glyph-name="uni02C8" unicode="&#x2c8;" horiz-adv-x="317" d="M241 1143 L241 1571 L76 1571 L76 1143 L241 1143 Z " />
<glyph glyph-name="uni02C9" unicode="&#x2c9;" horiz-adv-x="920" d="M765 1294 L765 1452 L167 1452 L167 1294 L765 1294 Z " />
<glyph glyph-name="uni02CA" unicode="&#x2ca;" horiz-adv-x="617" d="M267 1536 L82 1231 L294 1231 L555 1536 L267 1536 Z " />
<glyph glyph-name="uni02CB" unicode="&#x2cb;" horiz-adv-x="613" d="M539 1231 L353 1536 L65 1536 L324 1231 L539 1231 Z " />
<glyph glyph-name="uni02CC" unicode="&#x2cc;" horiz-adv-x="317" d="M241 -526 L241 -105 L76 -105 L76 -526 L241 -526 Z " />
<glyph glyph-name="uni02CD" unicode="&#x2cd;" horiz-adv-x="782" d="M694 -323 L694 -165 L96 -165 L96 -323 L694 -323 Z " />
<glyph glyph-name="uni02CE" unicode="&#x2ce;" horiz-adv-x="613" d="M539 -370 L353 -65 L65 -65 L324 -370 L539 -370 Z " />
<glyph glyph-name="uni02CF" unicode="&#x2cf;" horiz-adv-x="617" d="M267 -65 L82 -370 L294 -370 L555 -65 L267 -65 Z " />
<glyph glyph-name="uni02D0" unicode="&#x2d0;" horiz-adv-x="519" d="M248 250 C248 250 109 0 109 0 L409 0 C409 0 270 250 270 250 L248 250 Z M409 1081 C409 1081 109 1081 109 1081 L248 832 C248 832 270 832 270 832 L409 1081 Z " />
<glyph glyph-name="uni02D1" unicode="&#x2d1;" horiz-adv-x="519" d="M409 1081 C409 1081 109 1081 109 1081 L248 832 C248 832 270 832 270 832 L409 1081 Z " />
<glyph glyph-name="uni02D2" unicode="&#x2d2;" horiz-adv-x="330" d="M78 249 L78 157 C182 157 263 235 263 347 C263 458 182 541 78 541 L78 447 C127 447 160 406 160 347 C160 289 127 249 78 249 L78 249 Z " />
<glyph glyph-name="uni02D3" unicode="&#x2d3;" horiz-adv-x="329" d="M257 157 L257 249 C208 249 175 290 175 347 C175 406 208 447 257 447 L257 541 C155 541 72 458 72 347 C72 235 155 157 257 157 L257 157 Z " />
<glyph glyph-name="uni02D5" unicode="&#x2d5;" horiz-adv-x="574" d="M489 565 L85 565 L85 399 L203 399 L203 158 L371 158 L371 399 L489 399 L489 565 Z " />
<glyph glyph-name="uni02D6" unicode="&#x2d6;" horiz-adv-x="574" d="M489 442 L371 442 L371 602 L203 602 L203 442 L85 442 L85 276 L203 276 L203 116 L371 116 L371 276 L489 276 L489 442 Z " />
<glyph glyph-name="uni02D7" unicode="&#x2d7;" horiz-adv-x="590" d="M514 442 L76 442 L76 276 L514 276 L514 442 Z " />
<glyph glyph-name="breve" unicode="&#x2d8;" horiz-adv-x="866" d="M746 1519 L557 1519 C557 1448 521 1382 425 1382 C327 1382 291 1447 291 1519 L102 1519 C102 1349 227 1230 425 1230 C622 1230 746 1349 746 1519 L746 1519 Z " />
<glyph glyph-name="dotaccent" unicode="&#x2d9;" horiz-adv-x="519" d="M255 1503 C171 1503 119 1448 119 1374 C119 1301 171 1246 255 1246 C337 1246 390 1301 390 1374 C390 1448 337 1503 255 1503 L255 1503 Z " />
<glyph glyph-name="ring" unicode="&#x2da;" horiz-adv-x="656" d="M329 1550 C208 1550 120 1457 120 1345 C120 1232 208 1144 329 1144 C449 1144 537 1232 537 1345 C537 1457 449 1550 329 1550 L329 1550 Z M329 1236 C267 1236 227 1287 227 1345 C227 1405 267 1456 329 1456 C391 1456 430 1405 430 1345 C430 1286 391 1236 329 1236 L329 1236 Z " />
<glyph glyph-name="ogonek" unicode="&#x2db;" horiz-adv-x="567" d="M369 0 L240 58 C87 -20 44 -120 44 -221 C44 -354 133 -424 241 -424 C311 -424 356 -400 385 -380 L360 -233 C345 -242 325 -255 293 -255 C253 -255 238 -227 238 -189 C238 -113 284 -59 369 0 L369 0 Z " />
<glyph glyph-name="tilde" unicode="&#x2dc;" horiz-adv-x="889" d="M768 1518 L620 1529 C620 1467 589 1429 550 1429 C464 1429 406 1518 317 1518 C203 1518 121 1401 121 1257 L270 1249 C270 1311 300 1348 339 1348 C428 1348 463 1260 572 1260 C685 1260 768 1372 768 1518 L768 1518 Z " />
<glyph glyph-name="hungarumlaut" unicode="&#x2dd;" horiz-adv-x="749" d="M214 1535 L62 1234 L249 1234 L443 1535 L214 1535 Z M553 1535 L366 1234 L559 1234 L784 1535 L553 1535 Z " />
<glyph glyph-name="uni02DE" unicode="&#x2de;" horiz-adv-x="480" d="M-148 743 L-148 541 L32 590 C73 426 104 314 266 314 C316 314 362 329 400 353 L364 537 C351 535 338 534 323 534 C224 534 229 635 200 827 L-148 743 Z " />
<glyph glyph-name="uni02DF" unicode="&#x2df;" horiz-adv-x="641" d="M556 1574 L447 1690 L321 1544 L196 1692 L87 1575 L216 1422 L85 1270 L194 1153 L320 1299 L445 1151 L553 1267 L424 1421 L556 1574 Z " />
<glyph glyph-name="uni02E0" unicode="&#x2e0;" horiz-adv-x="798" d="M502 689 L740 1454 L514 1454 L408 969 L399 922 L391 969 L284 1454 L58 1454 L291 703 L227 541 C205 485 190 441 190 407 C190 281 282 220 395 220 C509 220 596 281 596 407 C596 442 582 487 557 546 L502 689 Z M395 372 C373 372 367 395 367 424 C367 449 379 476 397 519 C414 476 423 449 423 424 C423 395 419 372 395 372 L395 372 Z " />
<glyph glyph-name="uni02E1" unicode="&#x2e1;" horiz-adv-x="393" d="M292 654 L292 1858 L101 1858 L101 654 L292 654 Z " />
<glyph glyph-name="uni02E2" unicode="&#x2e2;" horiz-adv-x="726" d="M323 977 C424 951 470 923 470 867 C470 816 432 786 377 786 C299 786 257 818 251 903 L66 903 C66 772 170 636 371 636 C560 636 659 731 659 879 C659 1025 578 1093 413 1135 C316 1158 276 1185 276 1238 C276 1285 306 1317 361 1317 C428 1317 463 1268 464 1211 L657 1211 C657 1357 545 1466 361 1466 C196 1466 88 1370 88 1225 C88 1084 185 1012 323 977 L323 977 Z " />
<glyph glyph-name="uni02E4" unicode="&#x2e4;" horiz-adv-x="777" d="M405 1296 C468 1296 510 1243 512 1162 L695 1162 C695 1344 571 1466 396 1466 C218 1466 94 1338 94 1102 C94 926 175 798 299 762 L299 654 L491 654 L491 908 L398 908 C318 908 284 982 284 1096 C284 1218 324 1296 405 1296 L405 1296 Z " />
<glyph glyph-name="uni02EA" unicode="&#x2ea;" horiz-adv-x="755" d="M377 212 L377 908 L120 908 L120 0 L689 0 L689 212 L377 212 Z " />
<glyph glyph-name="uni02EE" unicode="&#x2ee;" horiz-adv-x="773" d="M374 1371 L374 1560 L156 1560 L156 1371 C156 1243 128 1148 85 1061 L213 985 C303 1076 374 1236 374 1371 L374 1371 Z M687 1371 L687 1560 L467 1560 L467 1371 C467 1243 440 1148 397 1061 L524 985 C616 1076 687 1236 687 1371 L687 1371 Z " />
<glyph glyph-name="uni02EF" unicode="&#x2ef;" horiz-adv-x="599" d="M392 -72 L305 -357 L300 -383 L294 -357 L206 -72 L76 -72 L240 -548 L359 -548 L524 -72 L392 -72 Z " />
<glyph glyph-name="uni02F0" unicode="&#x2f0;" horiz-adv-x="599" d="M359 -72 L240 -72 L76 -548 L206 -548 L294 -263 L299 -239 L304 -263 L392 -548 L523 -548 L359 -72 Z " />
<glyph glyph-name="uni02F1" unicode="&#x2f1;" horiz-adv-x="605" d="M529 -193 L529 -65 L76 -251 L76 -366 L529 -550 L529 -422 L271 -317 L233 -309 L271 -301 L529 -193 Z " />
<glyph glyph-name="uni02F2" unicode="&#x2f2;" horiz-adv-x="605" d="M76 -65 L76 -193 L334 -301 L372 -309 L334 -317 L76 -422 L76 -550 L529 -366 L529 -251 L76 -65 Z " />
<glyph glyph-name="uni02F3" unicode="&#x2f3;" horiz-adv-x="580" d="M297 -63 C205 -63 134 -135 134 -233 C134 -330 205 -400 297 -400 C387 -400 458 -331 458 -233 C458 -135 387 -63 297 -63 L297 -63 Z M297 -309 C260 -309 231 -276 231 -233 C231 -187 260 -155 297 -155 C333 -155 359 -187 359 -233 C359 -277 333 -309 297 -309 L297 -309 Z " />
<glyph glyph-name="uni02F4" unicode="&#x2f4;" horiz-adv-x="613" d="M539 211 L353 516 L65 516 L324 211 L539 211 Z " />
<glyph glyph-name="uni02F5" unicode="&#x2f5;" horiz-adv-x="1025" d="M539 211 L353 516 L65 516 L324 211 L539 211 Z M988 212 L802 517 L514 517 L773 212 L988 212 Z " />
<glyph glyph-name="uni02F6" unicode="&#x2f6;" horiz-adv-x="1030" d="M267 516 L82 211 L294 211 L555 516 L267 516 Z M718 517 L533 212 L745 212 L1006 517 L718 517 Z " />
<glyph glyph-name="uni02F7" unicode="&#x2f7;" horiz-adv-x="813" d="M730 -155 L581 -145 C581 -206 549 -244 511 -244 C425 -244 366 -155 278 -155 C163 -155 81 -273 81 -416 L230 -425 C230 -363 261 -326 300 -326 C389 -326 424 -414 532 -414 C646 -414 730 -302 730 -155 L730 -155 Z " />
<glyph glyph-name="uni02F8" unicode="&#x2f8;" horiz-adv-x="489" d="M257 664 C166 664 108 601 108 520 C108 440 166 377 257 377 C348 377 406 440 406 520 C406 601 348 664 257 664 L257 664 Z M261 1473 C170 1473 112 1410 112 1329 C112 1249 170 1186 261 1186 C352 1186 410 1249 410 1329 C410 1410 352 1473 261 1473 L261 1473 Z " />
<glyph glyph-name="uni02F9" unicode="&#x2f9;" horiz-adv-x="523" d="M438 1536 L85 1536 L85 1139 L252 1139 L252 1372 L438 1372 L438 1536 Z " />
<glyph glyph-name="uni02FA" unicode="&#x2fa;" horiz-adv-x="523" d="M438 1536 L85 1536 L85 1372 L271 1372 L271 1139 L438 1139 L438 1536 Z " />
<glyph glyph-name="uni02FB" unicode="&#x2fb;" horiz-adv-x="523" d="M252 -300 L252 -67 L85 -67 L85 -464 L438 -464 L438 -300 L252 -300 Z " />
<glyph glyph-name="uni02FC" unicode="&#x2fc;" horiz-adv-x="523" d="M271 -67 L271 -300 L85 -300 L85 -464 L438 -464 L438 -67 L271 -67 Z " />
<glyph glyph-name="uni02FD" unicode="&#x2fd;" horiz-adv-x="781" d="M528 -76 L528 -291 L252 -291 L252 -76 L85 -76 L85 -449 L696 -449 L696 -76 L528 -76 Z " />
<glyph glyph-name="uni02FE" unicode="&#x2fe;" horiz-adv-x="738" d="M252 -306 L252 -67 L85 -67 L85 -464 L652 -464 L652 -306 L252 -306 Z " />
<glyph glyph-name="uni02FF" unicode="&#x2ff;" horiz-adv-x="827" d="M743 -51 L338 -51 L529 169 L335 169 L79 -133 L335 -435 L529 -435 L339 -216 L743 -216 L743 -51 Z " />
<glyph glyph-name="gravecomb" unicode="&#x300;" horiz-adv-x="0" d="M-307 1231 L-476 1536 L-757 1536 L-517 1231 L-307 1231 Z " />
<glyph glyph-name="acutecomb" unicode="&#x301;" horiz-adv-x="0" d="M-404 1536 L-572 1231 L-366 1231 L-123 1536 L-404 1536 Z " />
<glyph glyph-name="uni0302" unicode="&#x302;" horiz-adv-x="0" d="M-145 1259 L-402 1536 L-550 1536 L-803 1262 L-803 1247 L-604 1247 L-476 1398 L-347 1247 L-145 1247 L-145 1259 Z " />
<glyph glyph-name="tildecomb" unicode="&#x303;" horiz-adv-x="0" d="M-126 1518 L-274 1529 C-274 1467 -305 1429 -344 1429 C-430 1429 -488 1518 -577 1518 C-691 1518 -773 1401 -773 1257 L-624 1249 C-624 1311 -594 1348 -555 1348 C-466 1348 -431 1260 -322 1260 C-209 1260 -126 1372 -126 1518 L-126 1518 Z " />
<glyph glyph-name="uni0304" unicode="&#x304;" horiz-adv-x="0" d="M-182 1294 L-182 1452 L-780 1452 L-780 1294 L-182 1294 Z " />
<glyph glyph-name="uni0305" unicode="&#x305;" horiz-adv-x="0" d="M-80 1583 L-80 1790 L-864 1790 L-864 1583 L-80 1583 Z " />
<glyph glyph-name="uni0306" unicode="&#x306;" horiz-adv-x="0" d="M-183 1519 L-367 1519 C-367 1448 -398 1382 -479 1382 C-562 1382 -592 1447 -592 1519 L-776 1519 C-776 1349 -661 1230 -479 1230 C-298 1230 -183 1349 -183 1519 L-183 1519 Z " />
<glyph glyph-name="uni0307" unicode="&#x307;" horiz-adv-x="0" d="M-480 1504 C-567 1504 -622 1445 -622 1366 C-622 1286 -567 1228 -480 1228 C-392 1228 -337 1286 -337 1366 C-337 1445 -392 1504 -480 1504 L-480 1504 Z " />
<glyph glyph-name="uni0308" unicode="&#x308;" horiz-adv-x="0" d="M-750 1489 C-823 1489 -874 1436 -874 1369 C-874 1301 -823 1248 -750 1248 C-679 1248 -627 1301 -627 1369 C-627 1436 -679 1489 -750 1489 L-750 1489 Z M-337 1488 C-409 1488 -459 1436 -459 1367 C-459 1300 -409 1247 -337 1247 C-265 1247 -215 1300 -215 1367 C-215 1436 -265 1488 -337 1488 L-337 1488 Z " />
<glyph glyph-name="hookabovecomb" unicode="&#x309;" horiz-adv-x="0" d="M-601 1261 L-409 1261 L-409 1326 C-348 1336 -284 1379 -284 1473 C-284 1591 -394 1666 -609 1666 L-615 1538 C-546 1538 -500 1521 -500 1467 C-500 1422 -533 1403 -613 1398 L-601 1261 Z " />
<glyph glyph-name="uni030A" unicode="&#x30a;" horiz-adv-x="0" d="M-454 1550 C-575 1550 -663 1457 -663 1345 C-663 1232 -575 1144 -454 1144 C-334 1144 -246 1232 -246 1345 C-246 1457 -334 1550 -454 1550 L-454 1550 Z M-454 1236 C-516 1236 -556 1287 -556 1345 C-556 1405 -516 1456 -454 1456 C-392 1456 -353 1405 -353 1345 C-353 1286 -392 1236 -454 1236 L-454 1236 Z " />
<glyph glyph-name="uni030B" unicode="&#x30b;" horiz-adv-x="0" d="M-730 1536 L-915 1231 L-703 1231 L-442 1536 L-730 1536 Z M-337 1536 L-522 1231 L-310 1231 L-49 1536 L-337 1536 Z " />
<glyph glyph-name="uni030C" unicode="&#x30c;" horiz-adv-x="0" d="M-151 1525 L-407 1247 L-556 1247 L-810 1522 L-810 1536 L-610 1536 L-482 1386 L-354 1536 L-151 1536 L-151 1525 Z " />
<glyph glyph-name="uni030D" unicode="&#x30d;" horiz-adv-x="0" d="M-392 1143 L-392 1571 L-557 1571 L-557 1143 L-392 1143 Z " />
<glyph glyph-name="uni030E" unicode="&#x30e;" horiz-adv-x="0" d="M-520 1143 L-520 1571 L-685 1571 L-685 1143 L-520 1143 Z M-297 1143 L-297 1571 L-462 1571 L-462 1143 L-297 1143 Z " />
<glyph glyph-name="uni030F" unicode="&#x30f;" horiz-adv-x="0" d="M-616 1518 L-410 1252 L-623 1252 L-872 1518 L-616 1518 Z M-282 1518 L-118 1252 L-323 1252 L-533 1518 L-282 1518 Z " />
<glyph glyph-name="uni0310" unicode="&#x310;" horiz-adv-x="0" d="M-183 1515 L-367 1515 C-367 1443 -397 1378 -479 1378 C-562 1378 -592 1443 -592 1515 L-776 1515 C-776 1345 -661 1226 -479 1226 C-298 1226 -183 1345 -183 1515 L-183 1515 Z M-479 1751 C-566 1751 -621 1694 -621 1621 C-621 1547 -566 1491 -479 1491 C-391 1491 -336 1547 -336 1621 C-336 1694 -391 1751 -479 1751 L-479 1751 Z " />
<glyph glyph-name="uni0311" unicode="&#x311;" horiz-adv-x="0" d="M-368 1167 L-183 1167 C-183 1337 -298 1456 -479 1456 C-662 1456 -776 1337 -776 1167 L-594 1167 C-594 1239 -562 1304 -479 1304 C-397 1304 -368 1239 -368 1167 L-368 1167 Z " />
<glyph glyph-name="uni0312" unicode="&#x312;" horiz-adv-x="0" d="M-591 1197 L-591 1003 L-372 1003 L-372 1197 C-372 1326 -344 1420 -301 1507 L-430 1583 C-519 1492 -591 1332 -591 1197 L-591 1197 Z " />
<glyph glyph-name="uni0313" unicode="&#x313;" horiz-adv-x="0" d="M-363 1389 L-363 1583 L-582 1583 L-582 1389 C-582 1260 -610 1166 -653 1079 L-524 1003 C-435 1094 -363 1254 -363 1389 L-363 1389 Z " />
<glyph glyph-name="uni0314" unicode="&#x314;" horiz-adv-x="0" d="M-628 1390 L-628 1583 L-409 1583 L-409 1389 C-409 1261 -381 1166 -339 1080 L-466 1003 C-556 1094 -628 1255 -628 1390 L-628 1390 Z " />
<glyph glyph-name="uni0315" unicode="&#x315;" horiz-adv-x="0" d="M108 1389 L108 1583 L-111 1583 L-111 1389 C-111 1260 -139 1166 -182 1079 L-53 1003 C36 1094 108 1254 108 1389 L108 1389 Z " />
<glyph glyph-name="uni0316" unicode="&#x316;" horiz-adv-x="0" d="M-248 -389 L-434 -84 L-722 -84 L-463 -389 L-248 -389 Z " />
<glyph glyph-name="uni0317" unicode="&#x317;" horiz-adv-x="0" d="M-521 -84 L-706 -389 L-494 -389 L-233 -84 L-521 -84 Z " />
<glyph glyph-name="uni0318" unicode="&#x318;" horiz-adv-x="0" d="M-439 -63 L-439 -197 L-695 -197 L-695 -361 L-439 -361 L-439 -494 L-272 -494 L-272 -63 L-439 -63 Z " />
<glyph glyph-name="uni0319" unicode="&#x319;" horiz-adv-x="0" d="M-268 -197 L-524 -197 L-524 -63 L-691 -63 L-691 -494 L-524 -494 L-524 -361 L-268 -361 L-268 -197 Z " />
<glyph glyph-name="uni031A" unicode="&#x31a;" horiz-adv-x="0" d="M-88 1657 L-677 1657 L-677 1500 L-254 1500 L-254 1283 L-88 1283 L-88 1657 Z " />
<glyph glyph-name="uni031B" unicode="&#x31b;" horiz-adv-x="0" d="M-70 1457 L-70 1578 L-289 1578 C-289 1280 -312 1195 -360 1075 L-232 998 C-139 1097 -70 1244 -70 1457 L-70 1457 Z " />
<glyph glyph-name="uni031C" unicode="&#x31c;" horiz-adv-x="0" d="M-379 -367 L-379 -459 C-482 -459 -564 -381 -564 -268 C-564 -158 -482 -75 -379 -75 L-379 -168 C-428 -168 -461 -209 -461 -268 C-461 -326 -428 -367 -379 -367 L-379 -367 Z " />
<glyph glyph-name="uni031D" unicode="&#x31d;" horiz-adv-x="0" d="M-392 -299 L-392 -71 L-560 -71 L-560 -299 L-678 -299 L-678 -465 L-274 -465 L-274 -299 L-392 -299 Z " />
<glyph glyph-name="uni031E" unicode="&#x31e;" horiz-adv-x="0" d="M-279 -87 L-683 -87 L-683 -253 L-565 -253 L-565 -482 L-396 -482 L-396 -253 L-279 -253 L-279 -87 Z " />
<glyph glyph-name="uni031F" unicode="&#x31f;" horiz-adv-x="0" d="M-272 -218 L-390 -218 L-390 -72 L-558 -72 L-558 -218 L-676 -218 L-676 -370 L-558 -370 L-558 -516 L-390 -516 L-390 -370 L-272 -370 L-272 -218 Z " />
<glyph glyph-name="uni0320" unicode="&#x320;" horiz-adv-x="0" d="M-251 -192 L-708 -192 L-708 -358 L-251 -358 L-251 -192 Z " />
<glyph glyph-name="uni0321" unicode="&#x321;" horiz-adv-x="0" d="M-78 208 L-273 208 L-273 -71 C-273 -195 -344 -232 -407 -232 C-426 -232 -446 -229 -468 -224 L-466 -410 C-431 -421 -394 -426 -358 -426 C-181 -426 -78 -300 -78 -71 L-78 208 Z " />
<glyph glyph-name="uni0322" unicode="&#x322;" horiz-adv-x="0" d="M-251 208 L-56 208 L-56 -71 C-56 -195 13 -232 77 -232 C97 -232 117 -229 139 -224 L138 -410 C102 -421 65 -426 29 -426 C-149 -426 -251 -300 -251 -71 L-251 208 Z " />
<glyph glyph-name="dotbelowcomb" unicode="&#x323;" horiz-adv-x="0" d="M-549 -107 C-639 -107 -696 -164 -696 -236 C-696 -309 -639 -365 -549 -365 C-459 -365 -401 -309 -401 -236 C-401 -164 -459 -107 -549 -107 L-549 -107 Z " />
<glyph glyph-name="uni0324" unicode="&#x324;" horiz-adv-x="0" d="M-753 -116 C-825 -116 -875 -169 -875 -236 C-875 -305 -825 -357 -753 -357 C-680 -357 -630 -305 -630 -236 C-630 -169 -680 -116 -753 -116 L-753 -116 Z M-339 -117 C-411 -117 -461 -170 -461 -238 C-461 -305 -411 -358 -339 -358 C-267 -358 -216 -305 -216 -238 C-216 -170 -267 -117 -339 -117 L-339 -117 Z " />
<glyph glyph-name="uni0325" unicode="&#x325;" horiz-adv-x="0" d="M-453 -70 C-574 -70 -662 -163 -662 -275 C-662 -388 -574 -476 -453 -476 C-333 -476 -245 -388 -245 -275 C-245 -163 -333 -70 -453 -70 L-453 -70 Z M-453 -384 C-515 -384 -555 -333 -555 -275 C-555 -215 -515 -164 -453 -164 C-391 -164 -352 -215 -352 -275 C-352 -334 -391 -384 -453 -384 L-453 -384 Z " />
<glyph glyph-name="uni0326" unicode="&#x326;" horiz-adv-x="0" d="M-346 -216 L-346 -145 L-539 -145 L-539 -228 C-539 -333 -564 -404 -604 -476 L-476 -550 C-400 -469 -346 -334 -346 -216 L-346 -216 Z " />
<glyph glyph-name="uni0327" unicode="&#x327;" horiz-adv-x="0" d="M-411 6 L-603 6 L-630 -135 C-545 -143 -510 -160 -510 -219 C-510 -281 -546 -306 -600 -306 L-595 -456 C-397 -456 -296 -363 -296 -225 C-296 -110 -360 -65 -421 -52 L-411 6 Z " />
<glyph glyph-name="uni0328" unicode="&#x328;" horiz-adv-x="0" d="M-367 0 L-481 58 C-634 -20 -692 -120 -692 -221 C-692 -354 -604 -424 -494 -424 C-424 -424 -380 -400 -350 -380 L-375 -233 C-391 -242 -412 -255 -442 -255 C-483 -255 -497 -227 -497 -189 C-497 -113 -451 -59 -367 0 L-367 0 Z " />
<glyph glyph-name="uni0329" unicode="&#x329;" horiz-adv-x="0" d="M-393 -503 L-393 -75 L-558 -75 L-558 -503 L-393 -503 Z " />
<glyph glyph-name="uni032A" unicode="&#x32a;" horiz-adv-x="0" d="M-176 -99 L-786 -99 L-786 -471 L-619 -471 L-619 -256 L-343 -256 L-343 -471 L-176 -471 L-176 -99 Z " />
<glyph glyph-name="uni032B" unicode="&#x32b;" horiz-adv-x="0" d="M-223 -112 C-223 -182 -265 -226 -326 -226 C-392 -226 -429 -182 -429 -113 L-527 -113 C-527 -182 -565 -226 -632 -226 C-691 -226 -735 -182 -735 -112 L-831 -112 C-831 -252 -748 -355 -632 -355 C-568 -355 -515 -326 -479 -278 C-444 -326 -391 -355 -326 -355 C-211 -355 -124 -252 -124 -112 L-223 -112 Z " />
<glyph glyph-name="uni032C" unicode="&#x32c;" horiz-adv-x="0" d="M-150 -125 L-407 -402 L-556 -402 L-809 -127 L-809 -113 L-609 -113 L-482 -264 L-353 -113 L-150 -113 L-150 -125 Z " />
<glyph glyph-name="uni032D" unicode="&#x32d;" horiz-adv-x="0" d="M-145 -376 L-402 -99 L-550 -99 L-803 -373 L-803 -388 L-604 -388 L-476 -237 L-347 -388 L-145 -388 L-145 -376 Z " />
<glyph glyph-name="uni032E" unicode="&#x32e;" horiz-adv-x="0" d="M-184 -88 L-368 -88 C-368 -160 -398 -225 -479 -225 C-562 -225 -594 -160 -594 -88 L-776 -88 C-776 -259 -662 -378 -479 -378 C-298 -378 -184 -259 -184 -88 L-184 -88 Z " />
<glyph glyph-name="uni032F" unicode="&#x32f;" horiz-adv-x="0" d="M-368 -387 L-184 -387 C-184 -217 -298 -98 -479 -98 C-662 -98 -776 -217 -776 -387 L-594 -387 C-594 -315 -562 -251 -479 -251 C-398 -251 -368 -315 -368 -387 L-368 -387 Z " />
<glyph glyph-name="uni0330" unicode="&#x330;" horiz-adv-x="0" d="M-154 -124 L-302 -113 C-302 -175 -333 -213 -372 -213 C-458 -213 -516 -124 -605 -124 C-719 -124 -801 -241 -801 -385 L-652 -393 C-652 -331 -622 -294 -583 -294 C-494 -294 -459 -382 -350 -382 C-237 -382 -154 -270 -154 -124 L-154 -124 Z " />
<glyph glyph-name="uni0331" unicode="&#x331;" horiz-adv-x="0" d="M-176 -323 L-176 -165 L-774 -165 L-774 -323 L-176 -323 Z " />
<glyph glyph-name="uni0332" unicode="&#x332;" horiz-adv-x="0" d="M-82 -358 L-82 -151 L-866 -151 L-866 -358 L-82 -358 Z " />
<glyph glyph-name="uni0333" unicode="&#x333;" horiz-adv-x="0" d="M-87 -258 L-87 -84 L-871 -84 L-871 -258 L-87 -258 Z M-87 -522 L-87 -348 L-870 -348 L-870 -522 L-87 -522 Z " />
<glyph glyph-name="uni0334" unicode="&#x334;" horiz-adv-x="0" d="M-152 676 L-300 687 C-300 625 -331 587 -370 587 C-456 587 -514 676 -603 676 C-717 676 -799 559 -799 415 L-650 407 C-650 469 -620 506 -581 506 C-492 506 -457 418 -348 418 C-235 418 -152 530 -152 676 L-152 676 Z " />
<glyph glyph-name="uni0335" unicode="&#x335;" horiz-adv-x="0" d="M-175 448 L-175 621 L-776 621 L-776 448 L-175 448 Z " />
<glyph glyph-name="uni0336" unicode="&#x336;" horiz-adv-x="0" d="M60 448 L60 621 L-1021 621 L-1021 448 L60 448 Z " />
<glyph glyph-name="uni0337" unicode="&#x337;" horiz-adv-x="0" d="M-694 -141 L-128 1215 L-271 1215 L-837 -141 L-694 -141 Z " />
<glyph glyph-name="uni0338" unicode="&#x338;" horiz-adv-x="0" d="M-946 -94 L-131 1517 L-245 1517 L-1060 -94 L-946 -94 Z " />
<glyph glyph-name="uni0339" unicode="&#x339;" horiz-adv-x="0" d="M-567 -366 L-567 -458 C-463 -458 -382 -380 -382 -268 C-382 -157 -463 -74 -567 -74 L-567 -168 C-518 -168 -485 -209 -485 -268 C-485 -326 -518 -366 -567 -366 L-567 -366 Z " />
<glyph glyph-name="uni033A" unicode="&#x33a;" horiz-adv-x="0" d="M-337 -103 L-337 -318 L-613 -318 L-613 -103 L-780 -103 L-780 -476 L-169 -476 L-169 -103 L-337 -103 Z " />
<glyph glyph-name="uni033B" unicode="&#x33b;" horiz-adv-x="0" d="M-666 -81 L-666 -505 L-292 -505 L-292 -81 L-666 -81 Z M-539 -372 L-539 -214 L-418 -214 L-418 -372 L-539 -372 Z " />
<glyph glyph-name="uni033C" unicode="&#x33c;" horiz-adv-x="0" d="M-326 -108 C-391 -108 -444 -137 -479 -186 C-515 -137 -568 -108 -632 -108 C-748 -108 -831 -212 -831 -351 L-735 -351 C-735 -281 -691 -236 -632 -236 C-565 -236 -527 -281 -527 -350 L-429 -350 C-429 -281 -392 -236 -326 -236 C-265 -236 -223 -281 -223 -351 L-124 -351 C-124 -212 -211 -108 -326 -108 L-326 -108 Z " />
<glyph glyph-name="uni033D" unicode="&#x33d;" horiz-adv-x="0" d="M-248 1626 L-342 1728 L-449 1598 L-556 1729 L-650 1627 L-539 1490 L-651 1354 L-557 1252 L-450 1381 L-343 1250 L-249 1352 L-361 1489 L-248 1626 Z " />
<glyph glyph-name="uni033E" unicode="&#x33e;" horiz-adv-x="0" d="M-589 1254 L-589 1119 C-456 1119 -374 1165 -374 1263 C-374 1357 -427 1434 -427 1499 C-427 1528 -409 1550 -375 1550 L-375 1684 C-491 1684 -584 1645 -584 1541 C-584 1453 -530 1363 -530 1310 C-530 1284 -536 1254 -589 1254 L-589 1254 Z " />
<glyph glyph-name="uni033F" unicode="&#x33f;" horiz-adv-x="0" d="M-87 1501 L-87 1651 L-871 1651 L-871 1501 L-87 1501 Z M-87 1778 L-87 1928 L-871 1928 L-871 1778 L-87 1778 Z " />
<glyph glyph-name="uni0340" unicode="&#x340;" horiz-adv-x="0" d="M248 1231 L62 1536 L-226 1536 L33 1231 L248 1231 Z " />
<glyph glyph-name="uni0341" unicode="&#x341;" horiz-adv-x="0" d="M-22 1536 L-207 1231 L5 1231 L266 1536 L-22 1536 Z " />
<glyph glyph-name="uni0342" unicode="&#x342;" horiz-adv-x="0" d="M-152 1518 L-300 1529 C-300 1467 -331 1429 -370 1429 C-456 1429 -514 1518 -603 1518 C-717 1518 -799 1401 -799 1257 L-650 1249 C-650 1311 -620 1348 -581 1348 C-492 1348 -457 1260 -348 1260 C-235 1260 -152 1372 -152 1518 L-152 1518 Z " />
<glyph glyph-name="uni0343" unicode="&#x343;" horiz-adv-x="0" d="M-1005 1146 L-1005 1217 L-1198 1217 L-1198 1134 C-1198 1029 -1223 958 -1263 886 L-1135 812 C-1059 893 -1005 1028 -1005 1146 L-1005 1146 Z " />
<glyph glyph-name="uni0344" unicode="&#x344;" horiz-adv-x="0" d="M-746 1489 C-818 1489 -868 1436 -868 1369 C-868 1301 -818 1248 -746 1248 C-674 1248 -623 1301 -623 1369 C-623 1436 -674 1489 -746 1489 L-746 1489 Z M-209 1488 C-281 1488 -332 1436 -332 1367 C-332 1300 -281 1247 -209 1247 C-137 1247 -87 1300 -87 1367 C-87 1436 -137 1488 -209 1488 L-209 1488 Z M-515 1733 L-553 1417 L-420 1417 L-285 1733 L-515 1733 Z " />
<glyph glyph-name="uni0345" unicode="&#x345;" horiz-adv-x="0" d="M-408 -70 L-567 -70 L-567 -340 C-567 -472 -497 -526 -405 -526 C-373 -526 -349 -521 -329 -513 L-328 -402 C-336 -404 -349 -406 -363 -406 C-395 -406 -408 -389 -408 -338 L-408 -70 Z " />
<glyph glyph-name="uni0346" unicode="&#x346;" horiz-adv-x="0" d="M-175 1603 L-786 1603 L-786 1207 L-618 1207 L-618 1446 L-342 1446 L-342 1207 L-175 1207 L-175 1603 Z " />
<glyph glyph-name="uni0347" unicode="&#x347;" horiz-adv-x="0" d="M-251 -94 L-708 -94 L-708 -255 L-251 -255 L-251 -94 Z M-251 -352 L-708 -352 L-708 -513 L-251 -513 L-251 -352 Z " />
<glyph glyph-name="uni0348" unicode="&#x348;" horiz-adv-x="0" d="M-536 -503 L-536 -75 L-701 -75 L-701 -503 L-536 -503 Z M-277 -505 L-277 -77 L-442 -77 L-442 -505 L-277 -505 Z " />
<glyph glyph-name="uni0349" unicode="&#x349;" horiz-adv-x="0" d="M-274 -107 L-627 -107 L-627 -271 L-440 -271 L-440 -505 L-274 -505 L-274 -107 Z " />
<glyph glyph-name="uni034A" unicode="&#x34a;" horiz-adv-x="0" d="M-299 1529 C-299 1467 -330 1429 -369 1429 C-376 1429 -383 1430 -389 1431 C-374 1469 -350 1528 -350 1528 L-452 1587 C-452 1587 -477 1525 -496 1480 C-528 1500 -562 1518 -602 1518 C-716 1518 -798 1401 -798 1257 L-649 1249 C-649 1311 -619 1348 -580 1348 C-570 1348 -560 1347 -551 1345 C-572 1295 -598 1231 -598 1231 L-494 1172 L-447 1289 C-420 1273 -389 1260 -347 1260 C-234 1260 -151 1372 -151 1518 L-299 1529 Z " />
<glyph glyph-name="uni034B" unicode="&#x34b;" horiz-adv-x="0" d="M-495 1413 C-582 1413 -637 1356 -637 1283 C-637 1210 -582 1154 -495 1154 C-407 1154 -352 1210 -352 1283 C-352 1356 -407 1413 -495 1413 L-495 1413 Z M-174 1697 L-322 1708 C-322 1645 -354 1608 -393 1608 C-479 1608 -537 1697 -626 1697 C-740 1697 -822 1579 -822 1435 L-674 1427 C-674 1489 -642 1527 -604 1527 C-514 1527 -480 1438 -372 1438 C-257 1438 -174 1551 -174 1697 L-174 1697 Z M-495 1982 C-582 1982 -637 1926 -637 1852 C-637 1780 -582 1724 -495 1724 C-407 1724 -352 1780 -352 1852 C-352 1926 -407 1982 -495 1982 L-495 1982 Z " />
<glyph glyph-name="uni034C" unicode="&#x34c;" horiz-adv-x="0" d="M-151 1464 L-299 1474 C-299 1423 -331 1392 -370 1392 C-456 1392 -514 1465 -603 1465 C-717 1465 -800 1368 -800 1252 L-651 1245 C-651 1296 -619 1326 -581 1326 C-492 1326 -457 1253 -349 1253 C-235 1253 -151 1346 -151 1464 L-151 1464 Z M-151 1703 L-299 1713 C-299 1662 -331 1631 -370 1631 C-456 1631 -514 1703 -603 1703 C-717 1703 -800 1606 -800 1491 L-651 1483 C-651 1534 -619 1565 -581 1565 C-492 1565 -457 1492 -349 1492 C-235 1492 -151 1584 -151 1703 L-151 1703 Z " />
<glyph glyph-name="uni034D" unicode="&#x34d;" horiz-adv-x="0" d="M-274 -125 L-409 -125 L-278 -278 L-680 -278 L-549 -125 L-685 -125 L-864 -337 L-685 -551 L-549 -551 L-682 -397 L-277 -397 L-409 -551 L-274 -551 L-95 -337 L-274 -125 Z " />
<glyph glyph-name="uni034E" unicode="&#x34e;" horiz-adv-x="0" d="M-293 -287 L-479 -84 L-666 -287 L-666 -422 L-536 -284 L-536 -551 L-421 -551 L-421 -286 L-293 -422 L-293 -287 Z " />
<glyph glyph-name="uni034F" unicode="&#x34f;" horiz-adv-x="0" />
<glyph glyph-name="uni0350" unicode="&#x350;" horiz-adv-x="0" d="M-744 1798 L-744 1645 L-456 1509 L-409 1498 L-456 1486 L-744 1352 L-744 1199 L-239 1432 L-239 1566 L-744 1798 Z " />
<glyph glyph-name="uni0351" unicode="&#x351;" horiz-adv-x="0" d="M-565 1324 C-565 1212 -484 1134 -380 1134 L-380 1226 C-429 1226 -463 1266 -463 1324 C-463 1383 -429 1424 -380 1424 L-380 1518 C-484 1518 -565 1435 -565 1324 L-565 1324 Z " />
<glyph glyph-name="uni0352" unicode="&#x352;" horiz-adv-x="0" d="M-478 1425 C-567 1425 -621 1368 -621 1295 C-621 1221 -567 1166 -478 1166 C-391 1166 -337 1221 -337 1295 C-337 1368 -391 1425 -478 1425 L-478 1425 Z M-366 1453 L-182 1453 C-182 1623 -296 1742 -479 1742 C-660 1742 -775 1623 -775 1453 L-592 1453 C-592 1525 -561 1590 -479 1590 C-396 1590 -366 1525 -366 1453 L-366 1453 Z " />
<glyph glyph-name="uni0353" unicode="&#x353;" horiz-adv-x="0" d="M-256 -159 L-348 -60 L-454 -187 L-559 -57 L-651 -158 L-542 -293 L-652 -425 L-560 -525 L-455 -399 L-351 -527 L-258 -427 L-367 -293 L-256 -159 Z " />
<glyph glyph-name="uni0354" unicode="&#x354;" horiz-adv-x="0" d="M-247 -193 L-247 -65 L-700 -251 L-700 -366 L-247 -550 L-247 -422 L-505 -317 L-543 -309 L-505 -301 L-247 -193 Z " />
<glyph glyph-name="uni0355" unicode="&#x355;" horiz-adv-x="0" d="M-705 -65 L-705 -193 L-447 -301 L-409 -309 L-447 -317 L-705 -422 L-705 -550 L-252 -366 L-252 -251 L-705 -65 Z " />
<glyph glyph-name="uni0356" unicode="&#x356;" horiz-adv-x="0" d="M-403 -366 L-403 -251 L-856 -65 L-856 -193 L-598 -301 L-560 -309 L-598 -317 L-856 -422 L-856 -550 L-403 -366 Z M-179 -72 L-298 -72 L-462 -548 L-332 -548 L-244 -263 L-239 -239 L-234 -263 L-146 -548 L-15 -548 L-179 -72 Z " />
<glyph glyph-name="uni0357" unicode="&#x357;" horiz-adv-x="0" d="M-567 1226 L-567 1134 C-463 1134 -382 1212 -382 1324 C-382 1435 -463 1518 -567 1518 L-567 1424 C-518 1424 -485 1383 -485 1324 C-485 1266 -518 1226 -567 1226 L-567 1226 Z " />
<glyph glyph-name="uni0358" unicode="&#x358;" horiz-adv-x="0" d="M-282 1444 C-372 1444 -429 1387 -429 1315 C-429 1242 -372 1186 -282 1186 C-192 1186 -134 1242 -134 1315 C-134 1387 -192 1444 -282 1444 L-282 1444 Z " />
<glyph glyph-name="uni0359" unicode="&#x359;" horiz-adv-x="0" d="M-538 -333 L-629 -479 L-559 -533 L-483 -384 L-408 -538 L-337 -481 L-424 -339 L-287 -291 L-314 -199 L-443 -262 L-434 -75 L-521 -75 L-513 -259 L-644 -195 L-672 -286 L-538 -333 Z " />
<glyph glyph-name="uni035A" unicode="&#x35a;" horiz-adv-x="0" d="M-317 -74 C-377 -74 -428 -100 -463 -142 C-498 -100 -549 -74 -608 -74 C-721 -74 -803 -166 -803 -279 C-803 -391 -721 -480 -608 -480 C-549 -480 -498 -455 -463 -414 C-428 -455 -377 -480 -317 -480 C-205 -480 -123 -391 -123 -279 C-123 -166 -205 -74 -317 -74 L-317 -74 Z M-608 -387 C-665 -387 -701 -337 -701 -279 C-701 -218 -665 -167 -608 -167 C-552 -167 -517 -218 -517 -279 C-517 -338 -552 -387 -608 -387 L-608 -387 Z M-317 -387 C-372 -387 -409 -337 -409 -279 C-409 -218 -372 -167 -317 -167 C-260 -167 -224 -218 -224 -279 C-224 -338 -260 -387 -317 -387 L-317 -387 Z " />
<glyph glyph-name="uni035B" unicode="&#x35b;" horiz-adv-x="0" d="M-436 1661 C-436 1661 -567 1661 -567 1661 L-666 1352 C-666 1352 -460 1352 -460 1352 L-510 1181 C-510 1181 -379 1181 -379 1181 L-280 1491 C-280 1491 -486 1491 -486 1491 L-436 1661 Z " />
<glyph glyph-name="uni035C" unicode="&#x35c;" horiz-adv-x="0" d="M649 -104 L466 -104 C414 -176 286 -294 23 -294 C-239 -294 -363 -176 -420 -104 L-602 -104 C-530 -274 -353 -446 23 -446 C400 -446 576 -274 649 -104 L649 -104 Z " />
<glyph glyph-name="uni035D" unicode="&#x35d;" horiz-adv-x="0" d="M643 1509 L460 1509 C408 1437 280 1319 17 1319 C-245 1319 -369 1437 -426 1509 L-608 1509 C-536 1339 -359 1167 17 1167 C394 1167 570 1339 643 1509 L643 1509 Z " />
<glyph glyph-name="uni035E" unicode="&#x35e;" horiz-adv-x="0" d="M516 1286 L516 1444 L-481 1444 L-481 1286 L516 1286 Z " />
<glyph glyph-name="uni035F" unicode="&#x35f;" horiz-adv-x="0" d="M522 -309 L522 -151 L-475 -151 L-475 -309 L522 -309 Z " />
<glyph glyph-name="uni0360" unicode="&#x360;" horiz-adv-x="0" d="M881 1485 L747 1528 C729 1453 667 1417 575 1417 C333 1417 -289 1504 -563 1504 C-720 1504 -818 1417 -847 1273 L-712 1235 C-686 1312 -618 1344 -538 1344 C-279 1344 260 1257 603 1257 C756 1257 866 1338 881 1485 L881 1485 Z " />
<glyph glyph-name="uni0361" unicode="&#x361;" horiz-adv-x="0" d="M460 1142 L643 1142 C570 1313 394 1485 17 1485 C-359 1485 -536 1313 -608 1142 L-426 1142 C-369 1215 -245 1333 17 1333 C280 1333 408 1214 460 1142 L460 1142 Z " />
<glyph glyph-name="uni0362" unicode="&#x362;" horiz-adv-x="0" d="M543 -125 L351 -125 L541 -280 L-633 -280 L-633 -396 L543 -396 L351 -552 L543 -552 L800 -338 L543 -125 Z " />
<glyph glyph-name="uni0363" unicode="&#x363;" horiz-adv-x="0" d="M-256 1202 C-267 1240 -274 1276 -274 1336 L-274 1564 C-274 1696 -355 1762 -466 1762 C-590 1762 -668 1687 -668 1586 L-531 1583 C-531 1626 -511 1648 -473 1648 C-432 1648 -414 1619 -414 1565 L-414 1531 L-470 1531 C-614 1531 -686 1466 -686 1356 C-686 1256 -624 1192 -531 1192 C-472 1192 -433 1221 -408 1257 C-405 1236 -401 1218 -395 1202 L-256 1202 Z M-492 1303 C-526 1303 -546 1327 -546 1362 C-546 1406 -525 1445 -469 1445 L-414 1445 L-414 1358 C-425 1330 -456 1303 -492 1303 L-492 1303 Z " />
<glyph glyph-name="uni0364" unicode="&#x364;" horiz-adv-x="0" d="M-254 1490 C-254 1650 -328 1759 -467 1759 C-606 1759 -690 1646 -690 1475 L-690 1454 C-690 1305 -604 1187 -453 1187 C-359 1187 -296 1237 -265 1289 L-332 1367 C-358 1325 -398 1306 -444 1306 C-507 1306 -543 1352 -549 1430 L-254 1430 L-254 1490 Z M-389 1526 L-548 1526 C-541 1595 -518 1641 -468 1641 C-413 1641 -389 1599 -389 1536 L-389 1526 Z " />
<glyph glyph-name="uni0365" unicode="&#x365;" horiz-adv-x="0" d="M-400 1201 L-400 1753 L-540 1753 L-540 1201 L-400 1201 Z M-471 1970 C-518 1970 -548 1937 -548 1893 C-548 1848 -518 1816 -471 1816 C-423 1816 -392 1848 -392 1893 C-392 1937 -423 1970 -471 1970 L-471 1970 Z " />
<glyph glyph-name="uni0366" unicode="&#x366;" horiz-adv-x="0" d="M-697 1467 C-697 1303 -614 1187 -471 1187 C-328 1187 -244 1303 -244 1467 L-244 1478 C-244 1643 -328 1759 -472 1759 C-614 1759 -697 1643 -697 1478 L-697 1467 Z M-384 1467 C-384 1373 -407 1306 -471 1306 C-536 1306 -558 1373 -558 1467 L-558 1478 C-558 1572 -536 1641 -472 1641 C-407 1641 -384 1572 -384 1478 L-384 1467 Z " />
<glyph glyph-name="uni0367" unicode="&#x367;" horiz-adv-x="0" d="M-404 1753 L-404 1358 C-419 1328 -443 1310 -480 1310 C-522 1310 -542 1344 -542 1421 L-542 1753 L-682 1753 L-682 1422 C-682 1258 -618 1191 -523 1191 C-464 1191 -421 1217 -391 1260 L-380 1201 L-263 1201 L-263 1753 L-404 1753 Z " />
<glyph glyph-name="uni0368" unicode="&#x368;" horiz-adv-x="0" d="M-686 1465 C-686 1310 -615 1187 -463 1187 C-351 1187 -264 1272 -264 1384 L-396 1384 C-398 1337 -422 1306 -466 1306 C-531 1306 -546 1376 -546 1465 L-546 1482 C-546 1568 -530 1641 -467 1641 C-416 1641 -396 1597 -396 1548 L-264 1548 C-265 1676 -344 1759 -465 1759 C-614 1759 -686 1636 -686 1482 L-686 1465 Z " />
<glyph glyph-name="uni0369" unicode="&#x369;" horiz-adv-x="0" d="M-396 1992 L-396 1709 C-424 1741 -461 1759 -508 1759 C-629 1759 -696 1648 -696 1480 L-696 1469 C-696 1309 -627 1190 -509 1190 C-455 1190 -415 1213 -386 1253 L-378 1201 L-257 1201 L-257 1992 L-396 1992 Z M-474 1308 C-533 1308 -557 1374 -557 1469 L-557 1480 C-557 1577 -532 1643 -473 1643 C-438 1643 -411 1622 -396 1583 L-396 1366 C-411 1329 -437 1308 -474 1308 L-474 1308 Z " />
<glyph glyph-name="uni036A" unicode="&#x36a;" horiz-adv-x="0" d="M-422 1759 C-472 1759 -513 1737 -542 1699 L-542 1992 L-682 1992 L-682 1201 L-542 1201 L-542 1601 C-528 1626 -505 1641 -472 1641 C-427 1641 -404 1612 -404 1519 L-404 1201 L-263 1201 L-263 1518 C-263 1690 -328 1759 -422 1759 L-422 1759 Z " />
<glyph glyph-name="uni036B" unicode="&#x36b;" horiz-adv-x="0" d="M-284 1759 C-350 1759 -397 1726 -427 1672 C-454 1733 -502 1759 -562 1759 C-620 1759 -664 1734 -694 1691 L-706 1753 L-822 1753 L-822 1201 L-681 1201 L-681 1592 C-667 1623 -642 1641 -606 1641 C-563 1641 -542 1607 -542 1530 L-542 1201 L-403 1201 L-403 1529 C-403 1548 -404 1566 -406 1583 C-392 1619 -367 1641 -326 1641 C-285 1641 -264 1607 -264 1530 L-264 1201 L-124 1201 L-124 1529 C-124 1694 -188 1759 -284 1759 L-284 1759 Z " />
<glyph glyph-name="uni036C" unicode="&#x36c;" horiz-adv-x="0" d="M-353 1759 C-396 1759 -432 1736 -458 1696 L-469 1753 L-586 1753 L-586 1201 L-445 1201 L-445 1580 C-429 1609 -402 1623 -368 1623 C-343 1623 -327 1619 -313 1611 L-313 1754 C-324 1757 -338 1759 -353 1759 L-353 1759 Z " />
<glyph glyph-name="uni036D" unicode="&#x36d;" horiz-adv-x="0" d="M-406 1315 C-437 1315 -449 1332 -449 1383 L-449 1648 L-370 1648 L-370 1759 L-449 1759 L-449 1893 L-589 1893 L-589 1759 L-658 1759 L-658 1648 L-589 1648 L-589 1380 C-589 1249 -538 1195 -447 1195 C-415 1195 -390 1200 -369 1208 L-369 1320 C-376 1318 -390 1315 -406 1315 L-406 1315 Z " />
<glyph glyph-name="uni036E" unicode="&#x36e;" horiz-adv-x="0" d="M-395 1756 L-463 1413 L-471 1363 L-479 1413 L-549 1756 L-698 1756 L-540 1201 L-404 1201 L-247 1756 L-395 1756 Z " />
<glyph glyph-name="uni036F" unicode="&#x36f;" horiz-adv-x="0" d="M-456 1593 L-522 1756 L-675 1756 L-546 1483 L-682 1201 L-529 1201 L-455 1375 L-381 1201 L-228 1201 L-364 1483 L-233 1756 L-386 1756 L-456 1593 Z " />
<glyph glyph-name="uni037E" unicode="&#x37e;" horiz-adv-x="526" d="M276 1111 C185 1111 127 1048 127 967 C127 887 185 824 276 824 C367 824 425 887 425 967 C425 1048 367 1111 276 1111 L276 1111 Z M391 54 L392 239 L167 239 L167 42 C167 -94 118 -181 70 -271 L207 -347 C316 -251 391 -90 391 54 L391 54 Z " />
<glyph glyph-name="tonos" unicode="&#x384;" horiz-adv-x="646" d="M269 1601 L202 1259 L357 1259 L507 1601 L269 1601 Z " />
<glyph glyph-name="dieresistonos" unicode="&#x385;" horiz-adv-x="1001" d="M220 1489 C148 1489 98 1436 98 1369 C98 1301 148 1248 220 1248 C292 1248 343 1301 343 1369 C343 1436 292 1489 220 1489 L220 1489 Z M757 1488 C685 1488 634 1436 634 1367 C634 1300 685 1247 757 1247 C829 1247 879 1300 879 1367 C879 1436 829 1488 757 1488 L757 1488 Z M451 1733 L413 1417 L546 1417 L681 1733 L451 1733 Z " />
<glyph glyph-name="anoteleia" unicode="&#x387;" horiz-adv-x="565" d="M285 848 C196 848 140 786 140 705 C140 624 196 563 285 563 C373 563 429 624 429 705 C429 786 373 848 285 848 L285 848 Z " />
<glyph glyph-name="uni03F6" unicode="&#x3f6;" horiz-adv-x="813" d="M306 1093 L52 1093 L52 882 L306 882 C425 882 468 775 478 637 L180 637 L180 446 L478 446 C468 308 426 200 307 200 L51 200 L51 -11 L307 -11 C595 -11 738 222 738 526 L738 556 C738 860 594 1093 306 1093 L306 1093 Z " />
<glyph glyph-name="uni0482" unicode="&#x482;" horiz-adv-x="1127" d="M534 448 L705 810 L951 640 L1018 765 L768 936 L961 1342 L809 1342 L654 1014 L405 1185 L341 1057 L588 886 L418 524 L169 695 L105 569 L352 398 L160 0 L315 0 L468 320 L716 150 L781 276 L534 448 Z " />
<glyph glyph-name="uni1AB0" unicode="&#x1ab0;" horiz-adv-x="0" d="M-835 1247 L-707 1398 L-579 1247 L-358 1247 L-229 1398 L-101 1247 L101 1247 L101 1259 L-156 1536 L-304 1536 L-468 1349 L-632 1536 L-781 1536 L-1035 1262 L-1035 1247 L-835 1247 Z " />
<glyph glyph-name="uni1AB1" unicode="&#x1ab1;" horiz-adv-x="0" d="M-842 1481 C-922 1481 -970 1428 -970 1360 C-970 1293 -922 1240 -842 1240 C-762 1240 -713 1293 -713 1360 C-713 1428 -762 1481 -842 1481 L-842 1481 Z M-476 1647 C-590 1647 -672 1554 -672 1442 C-672 1329 -590 1241 -476 1241 C-364 1241 -281 1329 -281 1442 C-281 1554 -364 1647 -476 1647 L-476 1647 Z M-119 1480 C-199 1480 -248 1427 -248 1359 C-248 1292 -199 1239 -119 1239 C-40 1239 10 1292 10 1359 C10 1427 -40 1480 -119 1480 L-119 1480 Z M-476 1333 C-534 1333 -572 1384 -572 1442 C-572 1502 -534 1553 -476 1553 C-418 1553 -381 1502 -381 1442 C-381 1383 -418 1333 -476 1333 L-476 1333 Z " />
<glyph glyph-name="uni1AB2" unicode="&#x1ab2;" horiz-adv-x="0" d="M-282 1721 C-370 1721 -438 1657 -479 1585 C-519 1657 -587 1721 -675 1721 C-815 1721 -901 1603 -901 1448 L-901 1420 C-901 1265 -815 1148 -674 1148 C-587 1148 -519 1213 -479 1287 C-438 1213 -370 1148 -283 1148 C-142 1148 -57 1265 -57 1420 L-57 1448 C-57 1603 -142 1721 -282 1721 L-282 1721 Z M-545 1429 C-550 1397 -597 1264 -674 1264 C-740 1264 -767 1325 -767 1420 L-767 1448 C-767 1542 -740 1604 -675 1604 C-595 1604 -550 1475 -545 1445 L-545 1429 Z M-197 1420 C-197 1320 -225 1264 -283 1264 C-361 1264 -408 1397 -413 1429 L-413 1445 C-407 1475 -362 1604 -282 1604 C-223 1604 -197 1547 -197 1448 L-197 1420 Z " />
<glyph glyph-name="uni1AB3" unicode="&#x1ab3;" horiz-adv-x="0" d="M-398 1462 L-398 1858 L-558 1858 L-558 1459 L-737 1665 L-737 1462 L-479 1161 L-221 1462 L-221 1665 L-398 1462 Z " />
<glyph glyph-name="uni1AB4" unicode="&#x1ab4;" horiz-adv-x="0" d="M-764 1449 C-854 1449 -911 1392 -911 1320 C-911 1247 -854 1191 -764 1191 C-674 1191 -616 1247 -616 1320 C-616 1392 -674 1449 -764 1449 L-764 1449 Z M-295 1458 C-385 1458 -442 1401 -442 1329 C-442 1256 -385 1200 -295 1200 C-205 1200 -147 1256 -147 1329 C-147 1401 -205 1458 -295 1458 L-295 1458 Z M-539 1749 C-629 1749 -686 1692 -686 1620 C-686 1547 -629 1491 -539 1491 C-449 1491 -391 1547 -391 1620 C-391 1692 -449 1749 -539 1749 L-539 1749 Z " />
<glyph glyph-name="uni1AB5" unicode="&#x1ab5;" horiz-adv-x="0" d="M-627 -262 L-693 -139 L-846 -139 L-717 -345 L-853 -557 L-700 -557 L-626 -426 L-552 -557 L-399 -557 L-535 -345 L-404 -139 L-557 -139 L-627 -262 Z M-101 -255 L-167 -132 L-320 -132 L-191 -338 L-327 -550 L-174 -550 L-100 -419 L-26 -550 L127 -550 L-9 -338 L122 -132 L-31 -132 L-101 -255 Z " />
<glyph glyph-name="uni1AB6" unicode="&#x1ab6;" horiz-adv-x="0" d="M-120 -114 C-211 -114 -236 -202 -303 -202 C-370 -202 -389 -114 -479 -114 C-570 -114 -588 -202 -655 -202 C-721 -202 -747 -114 -836 -114 C-922 -114 -994 -195 -1020 -303 L-897 -352 C-883 -307 -864 -273 -831 -273 C-765 -273 -742 -362 -655 -362 C-568 -362 -545 -273 -479 -273 C-412 -273 -391 -362 -303 -362 C-215 -362 -194 -273 -128 -273 C-95 -273 -75 -308 -61 -353 L63 -304 C37 -196 -35 -114 -120 -114 L-120 -114 Z " />
<glyph glyph-name="uni1AB7" unicode="&#x1ab7;" horiz-adv-x="0" d="M-395 -100 L-564 -100 L-564 -282 C-564 -459 -483 -555 -344 -555 C-315 -555 -286 -552 -258 -542 L-257 -393 C-275 -397 -290 -399 -305 -399 C-354 -399 -395 -372 -395 -282 L-395 -100 Z " />
<glyph glyph-name="uni1AB8" unicode="&#x1ab8;" horiz-adv-x="0" d="M-570 -100 L-739 -100 L-739 -282 C-739 -459 -658 -555 -519 -555 C-490 -555 -461 -552 -433 -542 L-432 -393 C-450 -397 -465 -399 -480 -399 C-529 -399 -570 -372 -570 -282 L-570 -100 Z M-243 -100 L-412 -100 L-412 -282 C-412 -459 -331 -555 -192 -555 C-163 -555 -134 -552 -106 -542 L-105 -393 C-123 -397 -138 -399 -153 -399 C-202 -399 -243 -372 -243 -282 L-243 -100 Z " />
<glyph glyph-name="uni1AB9" unicode="&#x1ab9;" horiz-adv-x="0" d="M-460 -474 L-164 69 L-284 145 L-585 -401 L-460 -474 Z " />
<glyph glyph-name="uni1ABA" unicode="&#x1aba;" horiz-adv-x="0" d="M-153 69 L-270 145 L-471 -225 C-532 -231 -580 -286 -580 -354 C-580 -425 -526 -483 -459 -483 C-392 -483 -338 -425 -338 -354 C-338 -335 -342 -316 -349 -300 L-153 69 Z " />
<glyph glyph-name="uni1ABB" unicode="&#x1abb;" horiz-adv-x="0" d="M-959 1500 C-959 1380 -866 1306 -795 1285 L-780 1359 C-819 1381 -863 1418 -863 1500 C-863 1576 -821 1615 -780 1638 L-795 1712 C-866 1691 -959 1617 -959 1500 L-959 1500 Z M-191 1359 L-175 1285 C-104 1306 -11 1380 -11 1500 C-11 1618 -104 1691 -175 1712 L-191 1638 C-150 1615 -107 1579 -107 1500 C-107 1418 -152 1381 -191 1359 L-191 1359 Z " />
<glyph glyph-name="uni1ABC" unicode="&#x1abc;" horiz-adv-x="0" d="M-1113 1500 C-1113 1380 -1020 1306 -949 1285 L-934 1359 C-973 1381 -1018 1418 -1018 1500 C-1018 1576 -975 1615 -934 1638 L-949 1712 C-1020 1691 -1113 1617 -1113 1500 L-1113 1500 Z M-939 1500 C-939 1380 -846 1306 -775 1285 L-759 1359 C-798 1381 -843 1418 -843 1500 C-843 1576 -800 1615 -759 1638 L-775 1712 C-846 1691 -939 1617 -939 1500 L-939 1500 Z M-170 1359 L-154 1285 C-84 1306 9 1380 9 1500 C9 1618 -84 1691 -154 1712 L-170 1638 C-129 1615 -87 1579 -87 1500 C-87 1418 -131 1381 -170 1359 L-170 1359 Z M4 1359 L20 1285 C90 1306 183 1380 183 1500 C183 1618 90 1691 20 1712 L4 1638 C45 1615 89 1579 89 1500 C89 1418 43 1381 4 1359 L4 1359 Z " />
<glyph glyph-name="uni1ABD" unicode="&#x1abd;" horiz-adv-x="0" d="M-965 -327 C-965 -447 -872 -520 -802 -542 L-786 -468 C-825 -445 -869 -409 -869 -326 C-869 -251 -827 -213 -786 -189 L-802 -115 C-872 -136 -965 -210 -965 -327 L-965 -327 Z M-197 -468 L-181 -542 C-111 -520 -18 -447 -18 -327 C-18 -209 -111 -136 -181 -115 L-197 -189 C-156 -213 -113 -249 -113 -326 C-113 -409 -158 -445 -197 -468 L-197 -468 Z " />
<glyph glyph-name="uni1ABE" unicode="&#x1abe;" horiz-adv-x="0" d="M-1096 590 C-1096 470 -1003 397 -932 376 L-917 449 C-956 472 -1000 508 -1000 591 C-1000 667 -958 705 -917 728 L-932 803 C-1003 782 -1096 707 -1096 590 L-1096 590 Z M-12 449 L4 376 C74 397 167 470 167 590 C167 708 74 782 4 803 L-12 728 C29 705 72 669 72 591 C72 508 27 472 -12 449 L-12 449 Z " />
<glyph glyph-name="uni1DC0" unicode="&#x1dc0;" horiz-adv-x="0" d="M-827 1424 C-914 1424 -969 1368 -969 1293 C-969 1220 -914 1164 -827 1164 C-740 1164 -685 1220 -685 1293 C-685 1368 -740 1424 -827 1424 L-827 1424 Z M-312 1230 L-481 1535 L-764 1535 L-523 1230 L-312 1230 Z M-182 1523 C-269 1523 -323 1467 -323 1393 C-323 1320 -269 1264 -182 1264 C-95 1264 -39 1320 -39 1393 C-39 1467 -95 1523 -182 1523 L-182 1523 Z " />
<glyph glyph-name="uni1DC1" unicode="&#x1dc1;" horiz-adv-x="0" d="M-808 1523 C-895 1523 -950 1467 -950 1393 C-950 1320 -895 1264 -808 1264 C-720 1264 -665 1320 -665 1393 C-665 1467 -720 1523 -808 1523 L-808 1523 Z M-505 1535 L-672 1230 L-465 1230 L-222 1535 L-505 1535 Z M-161 1424 C-249 1424 -304 1368 -304 1293 C-304 1220 -249 1164 -161 1164 C-73 1164 -19 1220 -19 1293 C-19 1368 -73 1424 -161 1424 L-161 1424 Z " />
<glyph glyph-name="uni1DC2" unicode="&#x1dc2;" horiz-adv-x="0" d="M-457 -78 C-513 -78 -581 -97 -631 -133 L-583 -214 C-551 -192 -509 -178 -475 -178 C-462 -178 -449 -181 -449 -198 C-449 -220 -584 -235 -584 -288 C-584 -350 -461 -342 -461 -363 C-461 -385 -583 -376 -583 -442 C-583 -500 -502 -542 -371 -555 L-354 -466 C-418 -459 -448 -448 -448 -436 C-448 -415 -323 -423 -323 -361 C-323 -292 -447 -301 -447 -278 C-447 -254 -331 -256 -331 -179 C-331 -122 -379 -78 -457 -78 L-457 -78 Z " />
<glyph glyph-name="uni1DC3" unicode="&#x1dc3;" horiz-adv-x="0" d="M-190 1586 L-469 1396 L-610 1490 L-694 1341 L-467 1191 L-106 1437 L-190 1586 Z " />
<glyph glyph-name="uni1DC5" unicode="&#x1dc5;" horiz-adv-x="0" d="M-841 1535 L-616 1230 L-162 1230 L-162 1390 L-508 1390 L-572 1535 L-841 1535 Z " />
<glyph glyph-name="uni1DC6" unicode="&#x1dc6;" horiz-adv-x="0" d="M-739 1535 L-739 1377 L-407 1377 L-300 1230 L-89 1230 L-258 1535 L-739 1535 Z " />
<glyph glyph-name="uni1DC7" unicode="&#x1dc7;" horiz-adv-x="0" d="M-620 1535 L-789 1230 L-579 1230 L-472 1377 L-149 1377 L-149 1535 L-620 1535 Z " />
<glyph glyph-name="uni1DC8" unicode="&#x1dc8;" horiz-adv-x="0" d="M-858 1535 L-686 1230 L-429 1230 L-336 1396 L-239 1230 L-60 1230 L-172 1535 L-479 1535 L-553 1373 L-625 1535 L-858 1535 Z " />
<glyph glyph-name="uni1DC9" unicode="&#x1dc9;" horiz-adv-x="0" d="M-706 1535 L-820 1230 L-646 1230 L-549 1395 L-450 1230 L-191 1230 L-18 1535 L-253 1535 L-324 1374 L-399 1535 L-706 1535 Z " />
<glyph glyph-name="uni1DCA" unicode="&#x1dca;" horiz-adv-x="0" d="M-354 -121 C-397 -121 -433 -144 -459 -184 L-470 -127 L-587 -127 L-587 -550 L-446 -550 L-446 -301 C-429 -271 -403 -257 -369 -257 C-344 -257 -329 -262 -314 -269 L-314 -127 C-325 -123 -339 -121 -354 -121 L-354 -121 Z " />
<glyph glyph-name="uni1DCB" unicode="&#x1dcb;" horiz-adv-x="0" d="M-458 1360 L83 1360 L83 1519 L-595 1519 C-595 1448 -625 1382 -707 1382 C-790 1382 -821 1447 -821 1519 L-1005 1519 C-1005 1349 -890 1230 -707 1230 C-595 1230 -509 1280 -458 1360 L-458 1360 Z " />
<glyph glyph-name="uni1DCC" unicode="&#x1dcc;" horiz-adv-x="0" d="M-498 1360 C-446 1280 -358 1230 -245 1230 C-64 1230 51 1349 51 1519 L-134 1519 C-134 1448 -163 1382 -245 1382 C-329 1382 -359 1447 -359 1519 L-1035 1519 L-1035 1360 L-498 1360 Z " />
<glyph glyph-name="uni1DCD" unicode="&#x1dcd;" horiz-adv-x="0" d="M738 1276 L89 1516 L-56 1516 L-701 1278 L-701 1252 L-530 1183 L17 1395 L564 1183 L738 1252 L738 1276 Z " />
<glyph glyph-name="uni1DCE" unicode="&#x1dce;" horiz-adv-x="0" d="M-643 1054 L-514 996 C-361 1074 -318 1174 -318 1275 C-318 1408 -407 1478 -515 1478 C-585 1478 -630 1454 -659 1434 L-634 1287 C-619 1296 -599 1309 -567 1309 C-527 1309 -512 1281 -512 1243 C-512 1167 -558 1113 -643 1054 L-643 1054 Z " />
<glyph glyph-name="uni1DCF" unicode="&#x1dcf;" horiz-adv-x="0" d="M-366 -277 C-366 -277 -399 -277 -419 -277 L-508 -277 L-464 -112 L-609 -112 L-681 -389 L-449 -389 L-493 -555 L-348 -555 L-275 -277 L-366 -277 Z " />
<glyph glyph-name="uni1DD0" unicode="&#x1dd0;" horiz-adv-x="0" d="M-428 -62 L-577 -62 C-577 -62 -704 -428 -704 -428 L-600 -478 C-550 -440 -502 -420 -457 -420 C-378 -420 -305 -495 -210 -495 C-101 -495 -52 -399 -43 -287 L-157 -247 C-171 -303 -203 -327 -232 -327 C-285 -327 -330 -262 -392 -262 C-427 -262 -459 -273 -506 -305 L-428 -62 Z " />
<glyph glyph-name="uni1DD1" unicode="&#x1dd1;" horiz-adv-x="0" d="M-330 1322 C-330 1277 -346 1255 -373 1255 C-397 1255 -413 1272 -429 1348 C-449 1436 -492 1499 -578 1499 C-662 1499 -728 1432 -728 1327 C-728 1218 -663 1145 -573 1145 L-573 1257 C-607 1260 -629 1280 -629 1327 C-629 1366 -611 1388 -583 1388 C-560 1388 -544 1371 -529 1303 C-506 1200 -466 1143 -378 1143 C-288 1143 -229 1219 -229 1325 C-229 1446 -315 1513 -394 1513 L-394 1406 C-346 1403 -330 1366 -330 1322 L-330 1322 Z " />
<glyph glyph-name="uni1DD2" unicode="&#x1dd2;" horiz-adv-x="0" d="M-731 1657 C-731 1491 -623 1426 -512 1426 C-457 1426 -420 1441 -391 1464 L-413 1552 C-435 1540 -458 1534 -493 1534 C-549 1534 -592 1569 -592 1663 C-592 1750 -544 1801 -477 1801 C-410 1801 -356 1738 -356 1603 C-356 1370 -497 1306 -604 1263 L-556 1150 C-409 1196 -216 1298 -216 1601 C-216 1798 -329 1914 -487 1914 C-623 1914 -731 1810 -731 1657 L-731 1657 Z " />
<glyph glyph-name="uni1DD3" unicode="&#x1dd3;" horiz-adv-x="0" d="M-302 1387 C-302 1333 -319 1305 -358 1305 C-398 1305 -423 1339 -423 1387 L-552 1387 C-552 1333 -571 1305 -610 1305 C-650 1305 -671 1339 -671 1387 L-808 1387 C-808 1277 -728 1192 -610 1192 C-554 1192 -511 1207 -482 1238 C-453 1209 -411 1192 -358 1192 C-242 1192 -162 1256 -162 1387 L-302 1387 Z " />
<glyph glyph-name="uni1DD4" unicode="&#x1dd4;" horiz-adv-x="0" d="M-103 1490 C-103 1650 -177 1759 -316 1759 C-372 1759 -419 1741 -456 1707 C-490 1744 -541 1762 -599 1762 C-722 1762 -801 1687 -801 1586 L-664 1583 C-664 1626 -643 1648 -605 1648 C-565 1648 -546 1619 -546 1565 L-546 1531 L-602 1531 C-747 1531 -819 1466 -819 1356 C-819 1256 -757 1192 -664 1192 C-579 1192 -532 1253 -509 1314 C-472 1238 -401 1187 -302 1187 C-208 1187 -145 1237 -114 1289 L-181 1367 C-207 1325 -247 1306 -293 1306 C-356 1306 -392 1352 -398 1430 L-103 1430 L-103 1490 Z M-535 1390 C-541 1343 -579 1303 -625 1303 C-658 1303 -679 1327 -679 1362 C-679 1406 -657 1445 -602 1445 L-539 1445 C-538 1422 -536 1400 -531 1379 L-535 1390 Z M-238 1526 L-397 1526 C-390 1595 -367 1641 -317 1641 C-262 1641 -238 1599 -238 1536 L-238 1526 Z " />
<glyph glyph-name="uni1DD5" unicode="&#x1dd5;" horiz-adv-x="0" d="M-325 1759 C-382 1759 -430 1740 -466 1707 C-501 1744 -551 1762 -610 1762 C-733 1762 -812 1687 -812 1586 L-674 1583 C-674 1626 -654 1648 -616 1648 C-576 1648 -557 1619 -557 1565 L-557 1531 L-614 1531 C-758 1531 -830 1466 -830 1356 C-830 1256 -767 1192 -675 1192 C-590 1192 -543 1253 -520 1315 C-484 1236 -417 1187 -324 1187 C-181 1187 -97 1303 -97 1467 L-97 1478 C-97 1643 -181 1759 -325 1759 L-325 1759 Z M-636 1303 C-669 1303 -690 1327 -690 1362 C-690 1406 -668 1445 -613 1445 L-549 1445 C-549 1425 -546 1406 -543 1388 C-556 1340 -591 1303 -636 1303 L-636 1303 Z M-237 1467 C-237 1373 -260 1306 -324 1306 C-389 1306 -411 1373 -411 1467 L-411 1478 C-411 1572 -389 1641 -325 1641 C-260 1641 -237 1572 -237 1478 L-237 1467 Z " />
<glyph glyph-name="uni1DD6" unicode="&#x1dd6;" horiz-adv-x="0" d="M-312 1757 L-427 1401 L-427 1564 C-427 1696 -508 1762 -619 1762 C-743 1762 -821 1687 -821 1586 L-684 1583 C-684 1626 -664 1648 -626 1648 C-585 1648 -567 1619 -567 1565 L-567 1531 L-623 1531 C-767 1531 -839 1466 -839 1356 C-839 1256 -777 1192 -684 1192 C-625 1192 -586 1221 -561 1257 C-558 1236 -554 1218 -548 1202 L-360 1202 L-164 1757 L-312 1757 Z M-645 1303 C-679 1303 -699 1327 -699 1362 C-699 1406 -678 1445 -622 1445 L-567 1445 L-567 1358 C-578 1330 -609 1303 -645 1303 L-645 1303 Z " />
<glyph glyph-name="uni1DD7" unicode="&#x1dd7;" horiz-adv-x="0" d="M-461 1306 C-526 1306 -541 1376 -541 1465 L-541 1482 C-541 1568 -525 1641 -462 1641 C-411 1641 -391 1597 -391 1548 L-259 1548 C-260 1676 -339 1759 -460 1759 C-609 1759 -681 1636 -681 1482 L-681 1465 C-681 1332 -629 1223 -518 1194 L-532 1123 C-491 1119 -474 1113 -474 1085 C-474 1055 -489 1044 -517 1044 L-513 962 C-409 963 -357 1010 -357 1080 C-357 1138 -388 1160 -423 1168 L-419 1191 C-327 1208 -259 1285 -259 1384 L-391 1384 C-393 1337 -417 1306 -461 1306 L-461 1306 Z " />
<glyph glyph-name="uni1DD8" unicode="&#x1dd8;" horiz-adv-x="0" d="M-535 1984 L-580 1873 C-504 1844 -426 1780 -393 1663 C-423 1685 -460 1698 -499 1698 C-632 1698 -719 1596 -719 1442 C-719 1303 -621 1193 -481 1193 C-346 1193 -238 1317 -238 1499 L-238 1539 C-238 1772 -371 1938 -535 1984 L-535 1984 Z M-377 1499 C-377 1386 -416 1311 -480 1311 C-543 1311 -579 1367 -579 1442 C-579 1527 -546 1585 -480 1585 C-428 1585 -394 1565 -377 1541 L-377 1540 L-377 1499 Z " />
<glyph glyph-name="uni1DD9" unicode="&#x1dd9;" horiz-adv-x="0" d="M-345 1858 L-266 1910 L-301 1967 L-393 1907 C-435 1943 -484 1970 -535 1984 L-580 1873 C-555 1863 -530 1850 -506 1833 L-585 1781 L-550 1725 L-456 1786 C-429 1754 -407 1714 -393 1663 C-423 1685 -460 1698 -499 1698 C-632 1698 -719 1596 -719 1442 C-719 1303 -621 1193 -481 1193 C-346 1193 -238 1317 -238 1499 L-238 1539 C-238 1670 -280 1779 -345 1858 L-345 1858 Z M-377 1499 C-377 1386 -416 1311 -480 1311 C-543 1311 -579 1367 -579 1442 C-579 1527 -546 1585 -480 1585 C-428 1585 -394 1565 -377 1541 L-377 1540 L-377 1499 Z " />
<glyph glyph-name="uni1DDA" unicode="&#x1dda;" horiz-adv-x="0" d="M-375 1756 L-382 1706 C-410 1745 -448 1767 -504 1767 C-623 1767 -702 1654 -702 1485 L-702 1474 C-702 1314 -622 1194 -505 1194 C-457 1194 -421 1213 -393 1246 L-393 1221 C-393 1139 -433 1102 -496 1102 C-541 1102 -583 1126 -612 1168 L-674 1077 C-632 1017 -553 987 -489 987 C-356 987 -253 1064 -253 1222 L-253 1756 L-375 1756 Z M-471 1313 C-536 1313 -562 1380 -562 1474 L-562 1485 C-562 1582 -533 1649 -470 1649 C-432 1649 -408 1632 -393 1601 L-393 1361 C-407 1331 -431 1313 -471 1313 L-471 1313 Z " />
<glyph glyph-name="uni1DDB" unicode="&#x1ddb;" horiz-adv-x="0" d="M-713 1434 C-713 1290 -614 1191 -476 1191 C-348 1191 -276 1242 -246 1281 L-246 1519 L-478 1519 L-478 1415 L-386 1415 L-386 1334 C-400 1322 -421 1309 -476 1309 C-542 1309 -573 1356 -573 1441 L-573 1548 C-573 1638 -541 1684 -481 1684 C-429 1684 -405 1662 -397 1609 L-259 1610 C-272 1733 -349 1801 -481 1801 C-614 1801 -713 1703 -713 1558 L-713 1434 Z " />
<glyph glyph-name="uni1DDC" unicode="&#x1ddc;" horiz-adv-x="0" d="M-382 1201 L-222 1201 L-409 1532 L-248 1753 L-405 1753 L-516 1582 L-538 1551 L-538 1997 L-678 1997 L-678 1201 L-538 1201 L-538 1372 L-494 1424 L-382 1201 Z " />
<glyph glyph-name="uni1DDD" unicode="&#x1ddd;" horiz-adv-x="0" d="M-409 1992 L-550 1992 L-550 1201 L-409 1201 L-409 1992 Z " />
<glyph glyph-name="uni1DDE" unicode="&#x1dde;" horiz-adv-x="0" d="M-487 1319 L-487 1796 L-627 1796 L-627 1201 L-280 1201 L-280 1319 L-487 1319 Z " />
<glyph glyph-name="uni1DDF" unicode="&#x1ddf;" horiz-adv-x="0" d="M-190 1796 L-364 1796 L-481 1366 L-598 1796 L-770 1796 L-770 1201 L-631 1201 L-631 1530 L-532 1201 L-432 1201 L-330 1534 L-330 1201 L-190 1201 L-190 1796 Z " />
<glyph glyph-name="uni1DE0" unicode="&#x1de0;" horiz-adv-x="0" d="M-459 1763 C-518 1763 -561 1737 -591 1694 L-602 1753 L-719 1753 L-719 1201 L-578 1201 L-578 1596 C-563 1626 -539 1644 -502 1644 C-460 1644 -440 1610 -440 1533 L-440 1201 L-300 1201 L-300 1532 C-300 1696 -364 1763 -459 1763 L-459 1763 Z " />
<glyph glyph-name="uni1DE1" unicode="&#x1de1;" horiz-adv-x="0" d="M-388 1797 L-388 1449 L-582 1797 L-721 1797 L-721 1202 L-582 1202 L-582 1550 L-388 1202 L-248 1202 L-248 1797 L-388 1797 Z " />
<glyph glyph-name="uni1DE2" unicode="&#x1de2;" horiz-adv-x="0" d="M-277 1294 L-277 1334 C-277 1399 -298 1452 -362 1476 C-310 1506 -281 1557 -281 1619 C-281 1729 -362 1797 -488 1797 L-698 1797 L-698 1202 L-558 1202 L-558 1411 L-492 1411 C-443 1411 -416 1392 -416 1334 L-416 1295 C-416 1279 -416 1219 -405 1202 L-262 1202 L-262 1210 C-274 1227 -277 1278 -277 1294 L-277 1294 Z M-558 1529 L-558 1679 L-488 1679 C-449 1679 -422 1651 -422 1608 C-422 1560 -449 1529 -488 1529 L-558 1529 Z " />
<glyph glyph-name="uni1DE3" unicode="&#x1de3;" horiz-adv-x="0" d="M-392 1415 C-334 1452 -296 1502 -296 1577 C-296 1689 -373 1756 -468 1756 C-544 1756 -586 1729 -639 1690 L-575 1600 C-540 1622 -516 1639 -484 1639 C-452 1639 -435 1614 -435 1574 C-435 1519 -471 1486 -547 1447 L-428 1201 L-287 1201 L-287 1208 L-392 1415 Z " />
<glyph glyph-name="uni1DE4" unicode="&#x1de4;" horiz-adv-x="0" d="M-507 1426 C-431 1407 -412 1383 -412 1352 C-412 1318 -433 1295 -476 1295 C-521 1295 -559 1314 -559 1373 L-690 1373 C-690 1284 -616 1190 -480 1190 C-361 1190 -276 1255 -276 1357 C-276 1457 -339 1501 -453 1530 C-521 1547 -540 1569 -540 1600 C-540 1636 -516 1657 -482 1657 C-435 1657 -418 1631 -415 1586 L-278 1586 C-278 1687 -360 1762 -482 1762 C-601 1762 -674 1690 -674 1595 C-674 1497 -603 1451 -507 1426 L-507 1426 Z " />
<glyph glyph-name="uni1DE5" unicode="&#x1de5;" horiz-adv-x="0" d="M-553 1201 L-413 1201 L-413 1811 C-413 1864 -386 1890 -347 1890 C-331 1890 -320 1888 -310 1884 L-306 1997 C-327 2003 -349 2008 -373 2008 C-479 2008 -553 1940 -553 1811 L-553 1201 Z " />
<glyph glyph-name="uni1DE6" unicode="&#x1de6;" horiz-adv-x="0" d="M-509 1320 L-290 1661 L-290 1753 L-669 1753 L-669 1635 L-455 1635 L-675 1297 L-675 1201 L-283 1201 L-283 1320 L-509 1320 Z " />
<glyph glyph-name="uni1DE7" unicode="&#x1de7;" horiz-adv-x="0" d="M-249 1310 C-250 1309 -252 1308 -257 1308 C-274 1308 -286 1326 -286 1373 L-286 1754 L-409 1754 L-418 1694 C-444 1738 -480 1764 -530 1764 C-652 1764 -721 1644 -721 1473 L-721 1462 C-721 1303 -651 1191 -531 1191 C-476 1191 -437 1220 -411 1270 C-391 1216 -354 1191 -301 1191 C-277 1191 -258 1193 -238 1204 L-249 1310 Z M-497 1309 C-558 1309 -581 1370 -581 1462 L-581 1473 C-581 1573 -559 1646 -496 1646 C-464 1646 -441 1628 -426 1596 L-426 1373 L-426 1354 C-440 1325 -463 1309 -497 1309 L-497 1309 Z " />
<glyph glyph-name="uni1DE8" unicode="&#x1de8;" horiz-adv-x="0" d="M-449 1759 C-495 1759 -531 1742 -559 1711 L-559 1992 L-699 1992 L-699 1201 L-578 1201 L-570 1253 C-541 1213 -501 1190 -448 1190 C-329 1190 -260 1309 -260 1469 L-260 1480 C-260 1648 -327 1759 -449 1759 L-449 1759 Z M-399 1469 C-399 1374 -423 1308 -482 1308 C-519 1308 -544 1329 -559 1366 L-559 1584 C-544 1622 -518 1643 -483 1643 C-424 1643 -399 1577 -399 1480 L-399 1469 Z " />
<glyph glyph-name="uni1DE9" unicode="&#x1de9;" horiz-adv-x="0" d="M-364 1596 C-311 1628 -278 1685 -278 1758 C-278 1883 -364 1954 -488 1954 C-605 1954 -710 1876 -710 1721 L-710 996 L-569 996 L-569 1225 C-533 1202 -491 1191 -452 1191 C-325 1191 -249 1272 -249 1413 C-249 1501 -291 1567 -364 1596 L-364 1596 Z M-481 1306 C-518 1306 -548 1318 -569 1337 L-569 1722 C-569 1803 -532 1838 -489 1838 C-441 1838 -415 1798 -415 1745 C-415 1680 -436 1641 -489 1641 L-517 1641 L-517 1535 L-477 1535 C-423 1535 -389 1499 -389 1414 C-389 1349 -422 1306 -481 1306 L-481 1306 Z " />
<glyph glyph-name="uni1DEA" unicode="&#x1dea;" horiz-adv-x="0" d="M-499 1759 C-593 1759 -657 1709 -686 1658 L-620 1579 C-593 1622 -554 1640 -508 1640 C-445 1640 -408 1595 -402 1517 L-697 1517 L-697 1457 C-697 1296 -624 1187 -485 1187 C-346 1187 -261 1300 -261 1472 L-261 1492 C-261 1641 -347 1759 -499 1759 L-499 1759 Z M-484 1306 C-539 1306 -563 1348 -563 1411 L-563 1421 L-403 1421 C-410 1351 -433 1306 -484 1306 L-484 1306 Z " />
<glyph glyph-name="uni1DEB" unicode="&#x1deb;" horiz-adv-x="0" d="M-342 1890 C-326 1890 -315 1888 -305 1884 L-301 1997 C-322 2003 -344 2008 -368 2008 C-474 2008 -548 1940 -548 1811 L-548 1759 L-629 1759 L-629 1648 L-548 1648 L-548 1201 L-408 1201 L-408 1648 L-341 1648 L-341 1759 L-408 1759 L-408 1811 C-408 1864 -381 1890 -342 1890 L-342 1890 Z " />
<glyph glyph-name="uni1DEC" unicode="&#x1dec;" horiz-adv-x="0" d="M-403 1545 L-403 1614 C-350 1615 -311 1667 -311 1730 L-381 1752 C-381 1728 -390 1707 -403 1699 L-403 1992 L-544 1992 L-544 1739 C-549 1740 -553 1740 -558 1740 C-613 1740 -650 1685 -650 1622 L-581 1603 C-581 1634 -566 1659 -545 1659 L-544 1659 L-544 1586 C-549 1587 -553 1587 -558 1587 C-613 1587 -650 1531 -650 1469 L-581 1450 C-581 1481 -566 1506 -545 1506 L-544 1506 L-544 1201 L-403 1201 L-403 1460 C-350 1461 -311 1514 -311 1577 L-381 1599 C-381 1574 -390 1554 -403 1545 L-403 1545 Z " />
<glyph glyph-name="uni1DED" unicode="&#x1ded;" horiz-adv-x="0" d="M-474 1759 C-616 1759 -699 1643 -699 1478 L-699 1467 C-699 1390 -681 1323 -646 1274 L-759 1069 L-648 1003 L-542 1197 C-521 1191 -498 1187 -473 1187 C-330 1187 -246 1303 -246 1467 L-246 1478 C-246 1643 -330 1759 -474 1759 L-474 1759 Z M-386 1467 C-386 1373 -409 1306 -473 1306 C-538 1306 -560 1373 -560 1467 L-560 1478 C-560 1572 -538 1641 -474 1641 C-409 1641 -386 1572 -386 1478 L-386 1467 Z " />
<glyph glyph-name="uni1DEE" unicode="&#x1dee;" horiz-adv-x="0" d="M-475 1760 C-529 1760 -569 1737 -598 1697 L-606 1749 L-727 1749 L-727 958 L-588 958 L-588 1241 C-560 1209 -523 1191 -476 1191 C-355 1191 -288 1302 -288 1470 L-288 1481 C-288 1641 -357 1760 -475 1760 L-475 1760 Z M-427 1470 C-427 1373 -452 1307 -511 1307 C-546 1307 -573 1328 -588 1367 L-588 1584 C-573 1621 -547 1642 -510 1642 C-451 1642 -427 1576 -427 1481 L-427 1470 Z " />
<glyph glyph-name="uni1DEF" unicode="&#x1def;" horiz-adv-x="0" d="M-372 2008 C-477 2008 -552 1940 -552 1811 L-552 1151 C-552 1098 -578 1073 -617 1073 C-634 1073 -645 1074 -654 1079 L-659 965 C-636 959 -615 954 -592 954 C-486 954 -411 1022 -411 1151 L-411 1811 C-411 1864 -385 1890 -345 1890 C-330 1890 -318 1888 -308 1884 L-304 1997 C-326 2003 -347 2008 -372 2008 L-372 2008 Z " />
<glyph glyph-name="uni1DF0" unicode="&#x1df0;" horiz-adv-x="0" d="M-405 1753 L-405 1358 C-420 1328 -444 1310 -481 1310 C-523 1310 -543 1344 -543 1421 L-543 1753 L-683 1753 L-683 1422 C-683 1360 -674 1312 -657 1276 L-770 1069 L-660 1003 L-556 1194 C-546 1192 -535 1191 -524 1191 C-465 1191 -422 1217 -392 1260 L-381 1201 L-264 1201 L-264 1753 L-405 1753 Z " />
<glyph glyph-name="uni1DF1" unicode="&#x1df1;" horiz-adv-x="0" d="M-295 1753 L-348 1421 L-427 1753 L-532 1753 L-610 1422 L-663 1753 L-799 1753 L-680 1201 L-566 1201 L-480 1547 L-479 1549 L-479 1547 L-393 1201 L-278 1201 L-160 1753 L-295 1753 Z " />
<glyph glyph-name="uni1DF2" unicode="&#x1df2;" horiz-adv-x="0" d="M-250 1202 C-261 1240 -268 1276 -268 1336 L-268 1564 C-268 1696 -349 1762 -460 1762 C-584 1762 -662 1687 -662 1586 L-525 1583 C-525 1626 -505 1648 -467 1648 C-426 1648 -408 1619 -408 1565 L-408 1531 L-464 1531 C-608 1531 -680 1466 -680 1356 C-680 1256 -618 1192 -525 1192 C-466 1192 -427 1221 -402 1257 C-399 1236 -395 1218 -389 1202 L-250 1202 Z M-593 1816 C-545 1816 -514 1848 -514 1893 C-514 1937 -545 1970 -593 1970 C-641 1970 -670 1937 -670 1893 C-670 1848 -641 1816 -593 1816 L-593 1816 Z M-360 1816 C-312 1816 -282 1848 -282 1893 C-282 1937 -312 1970 -360 1970 C-408 1970 -437 1937 -437 1893 C-437 1848 -408 1816 -360 1816 L-360 1816 Z M-486 1303 C-520 1303 -540 1327 -540 1362 C-540 1406 -519 1445 -463 1445 L-408 1445 L-408 1358 C-419 1330 -450 1303 -486 1303 L-486 1303 Z " />
<glyph glyph-name="uni1DF3" unicode="&#x1df3;" horiz-adv-x="0" d="M-706 1467 C-706 1303 -622 1187 -479 1187 C-336 1187 -252 1303 -252 1467 L-252 1478 C-252 1643 -336 1759 -480 1759 C-622 1759 -706 1643 -706 1478 L-706 1467 Z M-596 1970 C-644 1970 -673 1937 -673 1893 C-673 1848 -644 1816 -596 1816 C-548 1816 -518 1848 -518 1893 C-518 1937 -548 1970 -596 1970 L-596 1970 Z M-363 1970 C-411 1970 -440 1937 -440 1893 C-440 1848 -411 1816 -363 1816 C-315 1816 -286 1848 -286 1893 C-286 1937 -315 1970 -363 1970 L-363 1970 Z M-392 1467 C-392 1373 -415 1306 -479 1306 C-544 1306 -566 1373 -566 1467 L-566 1478 C-566 1572 -543 1641 -480 1641 C-415 1641 -392 1572 -392 1478 L-392 1467 Z " />
<glyph glyph-name="uni1DF4" unicode="&#x1df4;" horiz-adv-x="0" d="M-405 1753 L-405 1358 C-420 1328 -444 1310 -481 1310 C-523 1310 -543 1344 -543 1421 L-543 1753 L-683 1753 L-683 1422 C-683 1258 -619 1191 -524 1191 C-465 1191 -422 1217 -392 1260 L-381 1201 L-264 1201 L-264 1753 L-405 1753 Z M-598 1816 C-549 1816 -519 1848 -519 1893 C-519 1937 -549 1970 -598 1970 C-645 1970 -674 1937 -674 1893 C-674 1848 -645 1816 -598 1816 L-598 1816 Z M-365 1816 C-317 1816 -286 1848 -286 1893 C-286 1937 -317 1970 -365 1970 C-412 1970 -442 1937 -442 1893 C-442 1848 -412 1816 -365 1816 L-365 1816 Z " />
<glyph glyph-name="uni1DF5" unicode="&#x1df5;" horiz-adv-x="0" d="M-392 1348 L-392 1576 L-560 1576 L-560 1348 L-678 1348 L-678 1182 L-274 1182 L-274 1348 L-392 1348 Z " />
<glyph glyph-name="uni1DFC" unicode="&#x1dfc;" horiz-adv-x="0" d="M450 -432 L633 -432 C561 -262 384 -90 8 -90 C-369 -90 -545 -262 -618 -432 L-435 -432 C-378 -360 -254 -242 8 -242 C269 -242 398 -360 450 -432 L450 -432 Z " />
<glyph glyph-name="uni1DFD" unicode="&#x1dfd;" horiz-adv-x="0" d="M-152 -60 L-300 -50 C-300 -102 -332 -132 -371 -132 C-456 -132 -515 -60 -603 -60 C-718 -60 -800 -156 -800 -272 L-651 -280 C-651 -229 -620 -199 -581 -199 C-492 -199 -457 -272 -349 -272 C-235 -272 -152 -179 -152 -60 L-152 -60 Z M-152 -298 L-300 -289 C-300 -340 -332 -370 -371 -370 C-456 -370 -515 -298 -603 -298 C-718 -298 -800 -395 -800 -510 L-651 -518 C-651 -467 -620 -436 -581 -436 C-492 -436 -457 -509 -349 -509 C-235 -509 -152 -417 -152 -298 L-152 -298 Z " />
<glyph glyph-name="uni1DFE" unicode="&#x1dfe;" horiz-adv-x="0" d="M-151 1730 L-151 1927 L-798 1642 L-798 1466 L-151 1180 L-151 1377 L-520 1539 L-575 1552 L-520 1565 L-151 1730 Z " />
<glyph glyph-name="uni1DFF" unicode="&#x1dff;" horiz-adv-x="0" d="M-1148 -199 L-784 -302 L-1148 -404 L-1148 -538 L-501 -357 L-501 -246 L-1148 -65 L-1148 -199 Z M-25 -73 L-151 -359 L-173 -419 L-196 -359 L-320 -73 L-493 -73 L-258 -550 L-87 -550 L147 -73 L-25 -73 Z " />
<glyph glyph-name="Wgrave" unicode="&#x1e80;" horiz-adv-x="1560" d="M1251 1456 L1099 461 L904 1456 L661 1456 L472 477 L313 1456 L47 1456 L319 0 L598 0 L782 962 L967 0 L1246 0 L1516 1456 L1251 1456 Z M913 1541 L727 1846 L439 1846 L698 1541 L913 1541 Z " />
<glyph glyph-name="wgrave" unicode="&#x1e81;" horiz-adv-x="1318" d="M1029 1082 L914 356 L751 1082 L564 1082 L401 369 L286 1082 L38 1082 L274 0 L488 0 L658 702 L828 0 L1041 0 L1277 1082 L1029 1082 Z M783 1231 L597 1536 L309 1536 L568 1231 L783 1231 Z " />
<glyph glyph-name="Wacute" unicode="&#x1e82;" horiz-adv-x="1560" d="M1251 1456 L1099 461 L904 1456 L661 1456 L472 477 L313 1456 L47 1456 L319 0 L598 0 L782 962 L967 0 L1246 0 L1516 1456 L1251 1456 Z M1133 1846 L845 1846 L660 1541 L872 1541 L1133 1846 Z " />
<glyph glyph-name="wacute" unicode="&#x1e83;" horiz-adv-x="1318" d="M1029 1082 L914 356 L751 1082 L564 1082 L401 369 L286 1082 L38 1082 L274 0 L488 0 L658 702 L828 0 L1041 0 L1277 1082 L1029 1082 Z M1003 1536 L715 1536 L530 1231 L742 1231 L1003 1536 Z " />
<glyph glyph-name="Wdieresis" unicode="&#x1e84;" horiz-adv-x="1560" d="M1251 1456 L1099 461 L904 1456 L661 1456 L472 477 L313 1456 L47 1456 L319 0 L598 0 L782 962 L967 0 L1246 0 L1516 1456 L1251 1456 Z M554 1558 C629 1558 682 1611 682 1679 C682 1746 629 1799 554 1799 C479 1799 426 1746 426 1679 C426 1611 479 1558 554 1558 L554 1558 Z M1008 1557 C1083 1557 1136 1610 1136 1677 C1136 1746 1083 1798 1008 1798 C933 1798 881 1746 881 1677 C881 1610 933 1557 1008 1557 L1008 1557 Z " />
<glyph glyph-name="wdieresis" unicode="&#x1e85;" horiz-adv-x="1318" d="M1029 1082 L914 356 L751 1082 L564 1082 L401 369 L286 1082 L38 1082 L274 0 L488 0 L658 702 L828 0 L1041 0 L1277 1082 L1029 1082 Z M424 1248 C499 1248 552 1301 552 1369 C552 1436 499 1489 424 1489 C349 1489 296 1436 296 1369 C296 1301 349 1248 424 1248 L424 1248 Z M878 1247 C953 1247 1006 1300 1006 1367 C1006 1436 953 1488 878 1488 C803 1488 751 1436 751 1367 C751 1300 803 1247 878 1247 L878 1247 Z " />
<glyph glyph-name="uni1E9E" unicode="&#x1e9e;" horiz-adv-x="1219" d="M781 846 L1061 1234 C897 1378 736 1477 527 1477 C241 1477 93 1301 92 960 L92 0 L350 0 L350 958 C350 1158 409 1266 527 1266 C626 1266 689 1222 745 1170 L525 847 L525 673 L641 673 C789 673 873 602 873 415 C873 278 800 191 675 191 C595 191 529 218 492 239 L419 36 C491 1 581 -21 701 -21 C937 -21 1130 129 1130 416 C1130 663 1002 814 781 846 L781 846 Z " />
<glyph glyph-name="uni1EA0" unicode="&#x1ea0;" horiz-adv-x="1219" d="M1198 0 L732 1456 L487 1456 L23 0 L306 0 L394 320 L826 320 L914 0 L1198 0 Z M628 -101 C538 -101 481 -158 481 -230 C481 -303 538 -359 628 -359 C718 -359 776 -303 776 -230 C776 -158 718 -101 628 -101 L628 -101 Z M454 541 L610 1107 L765 541 L454 541 Z " />
<glyph glyph-name="uni1EA1" unicode="&#x1ea1;" horiz-adv-x="974" d="M864 257 L864 745 C864 995 706 1102 494 1102 C250 1102 97 945 97 764 L355 764 C355 846 401 904 480 904 C566 904 607 857 607 749 L607 659 L498 659 C213 659 78 514 78 305 C78 101 205 -20 383 -20 C486 -20 565 21 619 88 C624 54 632 24 643 0 L902 0 L902 17 C878 73 864 146 864 257 L864 257 Z M435 -95 C345 -95 288 -152 288 -224 C288 -297 345 -353 435 -353 C525 -353 583 -297 583 -224 C583 -152 525 -95 435 -95 L435 -95 Z M440 185 C363 185 335 227 335 319 C335 426 381 501 509 501 L607 501 L607 280 C581 231 518 185 440 185 L440 185 Z " />
<glyph glyph-name="uni1EA2" unicode="&#x1ea2;" horiz-adv-x="1219" d="M914 0 L1198 0 L732 1456 L487 1456 L23 0 L306 0 L394 320 L826 320 L914 0 Z M616 1779 C616 1734 583 1715 503 1710 L515 1573 L707 1573 L707 1638 C768 1648 832 1691 832 1785 C832 1903 722 1978 507 1978 L501 1850 C570 1850 616 1833 616 1779 L616 1779 Z M454 541 L610 1107 L765 541 L454 541 Z " />
<glyph glyph-name="uni1EA3" unicode="&#x1ea3;" horiz-adv-x="974" d="M864 257 L864 745 C864 995 706 1102 494 1102 C250 1102 97 945 97 764 L355 764 C355 846 401 904 480 904 C566 904 607 857 607 749 L607 659 L498 659 C213 659 78 514 78 305 C78 101 205 -20 383 -20 C486 -20 565 21 619 88 C624 54 632 24 643 0 L902 0 L902 17 C878 73 864 146 864 257 L864 257 Z M493 1469 C493 1424 460 1405 380 1400 L392 1263 L584 1263 L584 1328 C645 1338 709 1381 709 1475 C709 1593 599 1668 384 1668 L378 1540 C447 1540 493 1523 493 1469 L493 1469 Z M440 185 C363 185 335 227 335 319 C335 426 381 501 509 501 L607 501 L607 280 C581 231 518 185 440 185 L440 185 Z " />
<glyph glyph-name="uni1EA4" unicode="&#x1ea4;" horiz-adv-x="1219" d="M732 1456 L487 1456 L23 0 L306 0 L394 320 L826 320 L914 0 L1198 0 L732 1456 Z M611 1673 L737 1538 L931 1538 L684 1775 L538 1775 L291 1538 L485 1538 L611 1673 Z M1212 1949 L1004 1949 L866 1682 L1015 1682 L1212 1949 Z M454 541 L610 1107 L765 541 L454 541 Z " />
<glyph glyph-name="uni1EA5" unicode="&#x1ea5;" horiz-adv-x="974" d="M864 745 C864 995 706 1102 494 1102 C250 1102 97 945 97 764 L355 764 C355 846 401 904 480 904 C566 904 607 857 607 749 L607 659 L498 659 C213 659 78 514 78 305 C78 101 205 -20 383 -20 C486 -20 565 21 619 88 C624 54 632 24 643 0 L902 0 L902 17 C878 73 864 146 864 257 L864 745 Z M488 1363 L614 1228 L808 1228 L561 1465 L415 1465 L168 1228 L362 1228 L488 1363 Z M1089 1639 L881 1639 L743 1372 L892 1372 L1089 1639 Z M440 185 C363 185 335 227 335 319 C335 426 381 501 509 501 L607 501 L607 280 C581 231 518 185 440 185 L440 185 Z " />
<glyph glyph-name="uni1EA6" unicode="&#x1ea6;" horiz-adv-x="1219" d="M914 0 L1198 0 L732 1456 L487 1456 L23 0 L306 0 L394 320 L826 320 L914 0 Z M357 1681 L219 1948 L11 1948 L208 1681 L357 1681 Z M485 1537 L612 1672 L738 1537 L932 1537 L684 1774 L539 1774 L292 1537 L485 1537 Z M454 541 L610 1107 L765 541 L454 541 Z " />
<glyph glyph-name="uni1EA7" unicode="&#x1ea7;" horiz-adv-x="974" d="M864 257 L864 745 C864 995 706 1102 494 1102 C250 1102 97 945 97 764 L355 764 C355 846 401 904 480 904 C566 904 607 857 607 749 L607 659 L498 659 C213 659 78 514 78 305 C78 101 205 -20 383 -20 C486 -20 565 21 619 88 C624 54 632 24 643 0 L902 0 L902 17 C878 73 864 146 864 257 L864 257 Z M234 1371 L96 1638 L-112 1638 L85 1371 L234 1371 Z M362 1227 L489 1362 L615 1227 L809 1227 L561 1464 L416 1464 L169 1227 L362 1227 Z M440 185 C363 185 335 227 335 319 C335 426 381 501 509 501 L607 501 L607 280 C581 231 518 185 440 185 L440 185 Z " />
<glyph glyph-name="uni1EA8" unicode="&#x1ea8;" horiz-adv-x="1219" d="M914 0 L1198 0 L732 1456 L487 1456 L23 0 L306 0 L394 320 L826 320 L914 0 Z M610 1678 L746 1532 L930 1532 L688 1769 L531 1769 L290 1532 L474 1532 L610 1678 Z M930 1835 C930 1797 899 1783 832 1778 L843 1661 L980 1661 L980 1717 C1032 1726 1085 1761 1085 1841 C1085 1942 1002 2004 837 2004 L830 1896 C889 1896 930 1882 930 1835 L930 1835 Z M454 541 L610 1107 L765 541 L454 541 Z " />
<glyph glyph-name="uni1EA9" unicode="&#x1ea9;" horiz-adv-x="974" d="M864 745 C864 995 706 1102 494 1102 C250 1102 97 945 97 764 L355 764 C355 846 401 904 480 904 C566 904 607 857 607 749 L607 659 L498 659 C213 659 78 514 78 305 C78 101 205 -20 383 -20 C486 -20 565 21 619 88 C624 54 632 24 643 0 L902 0 L902 17 C878 73 864 146 864 257 L864 745 Z M487 1368 L623 1222 L807 1222 L565 1459 L408 1459 L167 1222 L351 1222 L487 1368 Z M714 1694 L707 1586 C766 1586 807 1572 807 1525 C807 1487 776 1473 709 1468 L720 1351 L857 1351 L857 1407 C909 1416 962 1451 962 1531 C962 1632 879 1694 714 1694 L714 1694 Z M440 185 C363 185 335 227 335 319 C335 426 381 501 509 501 L607 501 L607 280 C581 231 518 185 440 185 L440 185 Z " />
<glyph glyph-name="uni1EAA" unicode="&#x1eaa;" horiz-adv-x="1219" d="M914 0 L1198 0 L732 1456 L487 1456 L23 0 L306 0 L394 320 L826 320 L914 0 Z M612 1657 L748 1522 L932 1522 L683 1751 L542 1751 L292 1522 L476 1522 L612 1657 Z M534 1877 C596 1877 638 1810 714 1810 C785 1810 833 1888 833 1967 L744 2000 C744 1961 724 1924 697 1924 C639 1924 579 1989 518 1989 C446 1989 400 1909 400 1831 L489 1805 C489 1843 508 1877 534 1877 L534 1877 Z M454 541 L610 1107 L765 541 L454 541 Z " />
<glyph glyph-name="uni1EAB" unicode="&#x1eab;" horiz-adv-x="974" d="M864 257 L864 745 C864 995 706 1102 494 1102 C250 1102 97 945 97 764 L355 764 C355 846 401 904 480 904 C566 904 607 857 607 749 L607 659 L498 659 C213 659 78 514 78 305 C78 101 205 -20 383 -20 C486 -20 565 21 619 88 C624 54 632 24 643 0 L902 0 L902 17 C878 73 864 146 864 257 L864 257 Z M489 1347 L625 1212 L809 1212 L560 1441 L419 1441 L169 1212 L353 1212 L489 1347 Z M411 1567 C473 1567 515 1500 591 1500 C662 1500 710 1578 710 1657 L621 1690 C621 1651 601 1614 574 1614 C516 1614 456 1679 395 1679 C323 1679 277 1599 277 1521 L366 1495 C366 1533 385 1567 411 1567 L411 1567 Z M440 185 C363 185 335 227 335 319 C335 426 381 501 509 501 L607 501 L607 280 C581 231 518 185 440 185 L440 185 Z " />
<glyph glyph-name="uni1EAC" unicode="&#x1eac;" horiz-adv-x="1219" d="M1198 0 L732 1456 L487 1456 L23 0 L306 0 L394 320 L826 320 L914 0 L1198 0 Z M612 1708 L741 1557 L943 1557 L943 1569 L686 1846 L538 1846 L285 1572 L285 1557 L484 1557 L612 1708 Z M628 -101 C538 -101 481 -158 481 -230 C481 -303 538 -359 628 -359 C718 -359 776 -303 776 -230 C776 -158 718 -101 628 -101 L628 -101 Z M454 541 L610 1107 L765 541 L454 541 Z " />
<glyph glyph-name="uni1EAD" unicode="&#x1ead;" horiz-adv-x="974" d="M864 257 L864 745 C864 995 706 1102 494 1102 C250 1102 97 945 97 764 L355 764 C355 846 401 904 480 904 C566 904 607 857 607 749 L607 659 L498 659 C213 659 78 514 78 305 C78 101 205 -20 383 -20 C486 -20 565 21 619 88 C624 54 632 24 643 0 L902 0 L902 17 C878 73 864 146 864 257 L864 257 Z M489 1398 L618 1247 L820 1247 L820 1259 L563 1536 L415 1536 L162 1262 L162 1247 L361 1247 L489 1398 Z M435 -95 C345 -95 288 -152 288 -224 C288 -297 345 -353 435 -353 C525 -353 583 -297 583 -224 C583 -152 525 -95 435 -95 L435 -95 Z M440 185 C363 185 335 227 335 319 C335 426 381 501 509 501 L607 501 L607 280 C581 231 518 185 440 185 L440 185 Z " />
<glyph glyph-name="uni1EAE" unicode="&#x1eae;" horiz-adv-x="1219" d="M914 0 L1198 0 L732 1456 L487 1456 L23 0 L306 0 L394 320 L826 320 L914 0 Z M610 1537 C793 1537 907 1631 907 1764 L735 1764 C735 1705 702 1651 610 1651 C518 1651 484 1705 484 1764 L312 1764 C312 1631 427 1537 610 1537 L610 1537 Z M823 1961 L643 1961 L544 1770 L676 1770 L823 1961 Z M454 541 L610 1107 L765 541 L454 541 Z " />
<glyph glyph-name="uni1EAF" unicode="&#x1eaf;" horiz-adv-x="974" d="M864 257 L864 745 C864 995 706 1102 494 1102 C250 1102 97 945 97 764 L355 764 C355 846 401 904 480 904 C566 904 607 857 607 749 L607 659 L498 659 C213 659 78 514 78 305 C78 101 205 -20 383 -20 C486 -20 565 21 619 88 C624 54 632 24 643 0 L902 0 L902 17 C878 73 864 146 864 257 L864 257 Z M487 1227 C670 1227 784 1321 784 1454 L612 1454 C612 1395 579 1341 487 1341 C395 1341 361 1395 361 1454 L189 1454 C189 1321 304 1227 487 1227 L487 1227 Z M700 1651 L520 1651 L421 1460 L553 1460 L700 1651 Z M440 185 C363 185 335 227 335 319 C335 426 381 501 509 501 L607 501 L607 280 C581 231 518 185 440 185 L440 185 Z " />
<glyph glyph-name="uni1EB0" unicode="&#x1eb0;" horiz-adv-x="1219" d="M914 0 L1198 0 L732 1456 L487 1456 L23 0 L306 0 L394 320 L826 320 L914 0 Z M610 1538 C793 1538 907 1632 907 1766 L735 1766 C735 1706 702 1652 610 1652 C518 1652 484 1706 484 1766 L312 1766 C312 1632 427 1538 610 1538 L610 1538 Z M687 1770 L588 1961 L407 1961 L555 1770 L687 1770 Z M454 541 L610 1107 L765 541 L454 541 Z " />
<glyph glyph-name="uni1EB1" unicode="&#x1eb1;" horiz-adv-x="974" d="M864 257 L864 745 C864 995 706 1102 494 1102 C250 1102 97 945 97 764 L355 764 C355 846 401 904 480 904 C566 904 607 857 607 749 L607 659 L498 659 C213 659 78 514 78 305 C78 101 205 -20 383 -20 C486 -20 565 21 619 88 C624 54 632 24 643 0 L902 0 L902 17 C878 73 864 146 864 257 L864 257 Z M487 1228 C670 1228 784 1322 784 1456 L612 1456 C612 1396 579 1342 487 1342 C395 1342 361 1396 361 1456 L189 1456 C189 1322 304 1228 487 1228 L487 1228 Z M564 1460 L465 1651 L284 1651 L432 1460 L564 1460 Z M440 185 C363 185 335 227 335 319 C335 426 381 501 509 501 L607 501 L607 280 C581 231 518 185 440 185 L440 185 Z " />
<glyph glyph-name="uni1EB2" unicode="&#x1eb2;" horiz-adv-x="1219" d="M914 0 L1198 0 L732 1456 L487 1456 L23 0 L306 0 L394 320 L826 320 L914 0 Z M606 1536 C789 1536 903 1627 903 1761 L731 1761 C731 1703 696 1651 606 1651 C513 1651 479 1703 479 1761 L306 1761 C306 1627 422 1536 606 1536 L606 1536 Z M621 1951 C621 1916 587 1902 510 1898 L522 1788 L683 1788 L684 1842 C744 1851 805 1882 805 1956 C805 2048 707 2105 513 2105 L507 2006 C576 2006 621 1993 621 1951 L621 1951 Z M454 541 L610 1107 L765 541 L454 541 Z " />
<glyph glyph-name="uni1EB3" unicode="&#x1eb3;" horiz-adv-x="974" d="M864 257 L864 745 C864 995 706 1102 494 1102 C250 1102 97 945 97 764 L355 764 C355 846 401 904 480 904 C566 904 607 857 607 749 L607 659 L498 659 C213 659 78 514 78 305 C78 101 205 -20 383 -20 C486 -20 565 21 619 88 C624 54 632 24 643 0 L902 0 L902 17 C878 73 864 146 864 257 L864 257 Z M483 1226 C666 1226 780 1317 780 1451 L608 1451 C608 1393 573 1341 483 1341 C390 1341 356 1393 356 1451 L183 1451 C183 1317 299 1226 483 1226 L483 1226 Z M498 1641 C498 1606 464 1592 387 1588 L399 1478 L560 1478 L561 1532 C621 1541 682 1572 682 1646 C682 1738 584 1795 390 1795 L384 1696 C453 1696 498 1683 498 1641 L498 1641 Z M440 185 C363 185 335 227 335 319 C335 426 381 501 509 501 L607 501 L607 280 C581 231 518 185 440 185 L440 185 Z " />
<glyph glyph-name="uni1EB4" unicode="&#x1eb4;" horiz-adv-x="1219" d="M914 0 L1198 0 L732 1456 L487 1456 L23 0 L306 0 L394 320 L826 320 L914 0 Z M608 1535 C789 1535 904 1630 904 1765 L733 1765 C733 1707 700 1654 608 1654 C515 1654 482 1707 482 1765 L310 1765 C310 1630 426 1535 608 1535 L608 1535 Z M517 1926 C590 1926 626 1856 717 1856 C799 1856 858 1940 858 2035 L752 2068 C752 2019 727 1981 697 1981 C627 1981 571 2051 497 2051 C414 2051 357 1964 357 1870 L462 1839 C462 1888 486 1926 517 1926 L517 1926 Z M454 541 L610 1107 L765 541 L454 541 Z " />
<glyph glyph-name="uni1EB5" unicode="&#x1eb5;" horiz-adv-x="974" d="M864 257 L864 745 C864 995 706 1102 494 1102 C250 1102 97 945 97 764 L355 764 C355 846 401 904 480 904 C566 904 607 857 607 749 L607 659 L498 659 C213 659 78 514 78 305 C78 101 205 -20 383 -20 C486 -20 565 21 619 88 C624 54 632 24 643 0 L902 0 L902 17 C878 73 864 146 864 257 L864 257 Z M485 1225 C666 1225 781 1320 781 1455 L610 1455 C610 1397 577 1344 485 1344 C392 1344 359 1397 359 1455 L187 1455 C187 1320 303 1225 485 1225 L485 1225 Z M394 1616 C467 1616 503 1546 594 1546 C676 1546 735 1630 735 1725 L629 1758 C629 1709 604 1671 574 1671 C504 1671 448 1741 374 1741 C291 1741 234 1654 234 1560 L339 1529 C339 1578 363 1616 394 1616 L394 1616 Z M440 185 C363 185 335 227 335 319 C335 426 381 501 509 501 L607 501 L607 280 C581 231 518 185 440 185 L440 185 Z " />
<glyph glyph-name="uni1EB6" unicode="&#x1eb6;" horiz-adv-x="1219" d="M1198 0 L732 1456 L487 1456 L23 0 L306 0 L394 320 L826 320 L914 0 L1198 0 Z M608 1540 C805 1540 929 1659 929 1829 L740 1829 C740 1758 704 1692 608 1692 C510 1692 474 1757 474 1829 L285 1829 C285 1659 410 1540 608 1540 L608 1540 Z M628 -101 C538 -101 481 -158 481 -230 C481 -303 538 -359 628 -359 C718 -359 776 -303 776 -230 C776 -158 718 -101 628 -101 L628 -101 Z M454 541 L610 1107 L765 541 L454 541 Z " />
<glyph glyph-name="uni1EB7" unicode="&#x1eb7;" horiz-adv-x="974" d="M864 257 L864 745 C864 995 706 1102 494 1102 C250 1102 97 945 97 764 L355 764 C355 846 401 904 480 904 C566 904 607 857 607 749 L607 659 L498 659 C213 659 78 514 78 305 C78 101 205 -20 383 -20 C486 -20 565 21 619 88 C624 54 632 24 643 0 L902 0 L902 17 C878 73 864 146 864 257 L864 257 Z M485 1230 C682 1230 806 1349 806 1519 L617 1519 C617 1448 581 1382 485 1382 C387 1382 351 1447 351 1519 L162 1519 C162 1349 287 1230 485 1230 L485 1230 Z M435 -95 C345 -95 288 -152 288 -224 C288 -297 345 -353 435 -353 C525 -353 583 -297 583 -224 C583 -152 525 -95 435 -95 L435 -95 Z M440 185 C363 185 335 227 335 319 C335 426 381 501 509 501 L607 501 L607 280 C581 231 518 185 440 185 L440 185 Z " />
<glyph glyph-name="uni1EB8" unicode="&#x1eb8;" horiz-adv-x="1017" d="M393 219 L393 643 L876 643 L876 857 L393 857 L393 1236 L958 1236 L958 1456 L126 1456 L126 0 L961 0 L961 219 L393 219 Z M573 -97 C483 -97 426 -154 426 -226 C426 -299 483 -355 573 -355 C663 -355 721 -299 721 -226 C721 -154 663 -97 573 -97 L573 -97 Z " />
<glyph glyph-name="uni1EB9" unicode="&#x1eb9;" horiz-adv-x="983" d="M922 585 C922 923 780 1102 515 1102 C243 1102 80 927 80 568 L80 482 C80 148 250 -20 537 -20 C726 -20 845 66 904 150 L791 302 C734 232 652 192 559 192 C420 192 343 272 337 463 L922 463 L922 585 Z M515 -107 C425 -107 368 -164 368 -236 C368 -309 425 -365 515 -365 C605 -365 663 -309 663 -236 C663 -164 605 -107 515 -107 L515 -107 Z M668 644 L339 644 C350 813 403 894 516 894 C624 894 667 811 668 669 L668 644 Z " />
<glyph glyph-name="uni1EBA" unicode="&#x1eba;" horiz-adv-x="1017" d="M393 219 L393 643 L876 643 L876 857 L393 857 L393 1236 L958 1236 L958 1456 L126 1456 L126 0 L961 0 L961 219 L393 219 Z M562 1784 C562 1739 529 1720 449 1715 L461 1578 L653 1578 L653 1643 C714 1653 778 1696 778 1790 C778 1908 668 1983 453 1983 L447 1855 C516 1855 562 1838 562 1784 L562 1784 Z " />
<glyph glyph-name="uni1EBB" unicode="&#x1ebb;" horiz-adv-x="983" d="M922 585 C922 923 780 1102 515 1102 C243 1102 80 927 80 568 L80 482 C80 148 250 -20 537 -20 C726 -20 845 66 904 150 L791 302 C734 232 652 192 559 192 C420 192 343 272 337 463 L922 463 L922 585 Z M485 1470 C485 1425 452 1406 372 1401 L384 1264 L576 1264 L576 1329 C637 1339 701 1382 701 1476 C701 1594 591 1669 376 1669 L370 1541 C439 1541 485 1524 485 1470 L485 1470 Z M668 644 L339 644 C350 813 403 894 516 894 C624 894 667 811 668 669 L668 644 Z " />
<glyph glyph-name="uni1EBC" unicode="&#x1ebc;" horiz-adv-x="1017" d="M393 219 L393 643 L876 643 L876 857 L393 857 L393 1236 L958 1236 L958 1456 L126 1456 L126 0 L961 0 L961 219 L393 219 Z M452 1661 C541 1661 576 1573 685 1573 C798 1573 881 1685 881 1831 L733 1842 C733 1780 702 1742 663 1742 C577 1742 519 1831 430 1831 C316 1831 234 1714 234 1570 L383 1562 C383 1624 413 1661 452 1661 L452 1661 Z " />
<glyph glyph-name="uni1EBD" unicode="&#x1ebd;" horiz-adv-x="983" d="M922 585 C922 923 780 1102 515 1102 C243 1102 80 927 80 568 L80 482 C80 148 250 -20 537 -20 C726 -20 845 66 904 150 L791 302 C734 232 652 192 559 192 C420 192 343 272 337 463 L922 463 L922 585 Z M375 1347 C464 1347 499 1259 608 1259 C721 1259 804 1371 804 1517 L656 1528 C656 1466 625 1428 586 1428 C500 1428 442 1517 353 1517 C239 1517 157 1400 157 1256 L306 1248 C306 1310 336 1347 375 1347 L375 1347 Z M668 644 L339 644 C350 813 403 894 516 894 C624 894 667 811 668 669 L668 644 Z " />
<glyph glyph-name="uni1EBE" unicode="&#x1ebe;" horiz-adv-x="1017" d="M393 643 L876 643 L876 857 L393 857 L393 1236 L958 1236 L958 1456 L126 1456 L126 0 L961 0 L961 219 L393 219 L393 643 Z M557 1678 L683 1543 L877 1543 L630 1780 L484 1780 L237 1543 L431 1543 L557 1678 Z M950 1954 L812 1687 L961 1687 L1158 1954 L950 1954 Z " />
<glyph glyph-name="uni1EBF" unicode="&#x1ebf;" horiz-adv-x="983" d="M515 1102 C243 1102 80 927 80 568 L80 482 C80 148 250 -20 537 -20 C726 -20 845 66 904 150 L791 302 C734 232 652 192 559 192 C420 192 343 272 337 463 L922 463 L922 585 C922 923 780 1102 515 1102 L515 1102 Z M480 1364 L606 1229 L800 1229 L553 1466 L407 1466 L160 1229 L354 1229 L480 1364 Z M1081 1640 L873 1640 L735 1373 L884 1373 L1081 1640 Z M668 644 L339 644 C350 813 403 894 516 894 C624 894 667 811 668 669 L668 644 Z " />
<glyph glyph-name="uni1EC0" unicode="&#x1ec0;" horiz-adv-x="1017" d="M393 219 L393 643 L876 643 L876 857 L393 857 L393 1236 L958 1236 L958 1456 L126 1456 L126 0 L961 0 L961 219 L393 219 Z M303 1686 L165 1953 L-43 1953 L154 1686 L303 1686 Z M431 1542 L558 1677 L684 1542 L878 1542 L630 1779 L485 1779 L238 1542 L431 1542 Z " />
<glyph glyph-name="uni1EC1" unicode="&#x1ec1;" horiz-adv-x="983" d="M922 585 C922 923 780 1102 515 1102 C243 1102 80 927 80 568 L80 482 C80 148 250 -20 537 -20 C726 -20 845 66 904 150 L791 302 C734 232 652 192 559 192 C420 192 343 272 337 463 L922 463 L922 585 Z M88 1639 L-120 1639 L77 1372 L226 1372 L88 1639 Z M354 1228 L481 1363 L607 1228 L801 1228 L553 1465 L408 1465 L161 1228 L354 1228 Z M668 644 L339 644 C350 813 403 894 516 894 C624 894 667 811 668 669 L668 644 Z " />
<glyph glyph-name="uni1EC2" unicode="&#x1ec2;" horiz-adv-x="1017" d="M393 643 L876 643 L876 857 L393 857 L393 1236 L958 1236 L958 1456 L126 1456 L126 0 L961 0 L961 219 L393 219 L393 643 Z M556 1683 L692 1537 L876 1537 L634 1774 L477 1774 L236 1537 L420 1537 L556 1683 Z M783 2009 L776 1901 C835 1901 876 1887 876 1840 C876 1802 845 1788 778 1783 L789 1666 L926 1666 L926 1722 C978 1731 1031 1766 1031 1846 C1031 1947 948 2009 783 2009 L783 2009 Z " />
<glyph glyph-name="uni1EC3" unicode="&#x1ec3;" horiz-adv-x="983" d="M515 1102 C243 1102 80 927 80 568 L80 482 C80 148 250 -20 537 -20 C726 -20 845 66 904 150 L791 302 C734 232 652 192 559 192 C420 192 343 272 337 463 L922 463 L922 585 C922 923 780 1102 515 1102 L515 1102 Z M479 1369 L615 1223 L799 1223 L557 1460 L400 1460 L159 1223 L343 1223 L479 1369 Z M799 1526 C799 1488 768 1474 701 1469 L712 1352 L849 1352 L849 1408 C901 1417 954 1452 954 1532 C954 1633 871 1695 706 1695 L699 1587 C758 1587 799 1573 799 1526 L799 1526 Z M668 644 L339 644 C350 813 403 894 516 894 C624 894 667 811 668 669 L668 644 Z " />
<glyph glyph-name="uni1EC4" unicode="&#x1ec4;" horiz-adv-x="1017" d="M393 219 L393 643 L876 643 L876 857 L393 857 L393 1236 L958 1236 L958 1456 L126 1456 L126 0 L961 0 L961 219 L393 219 Z M558 1662 L694 1527 L878 1527 L629 1756 L488 1756 L238 1527 L422 1527 L558 1662 Z M480 1882 C542 1882 584 1815 660 1815 C731 1815 779 1893 779 1972 L690 2005 C690 1966 670 1929 643 1929 C585 1929 525 1994 464 1994 C392 1994 346 1914 346 1836 L435 1810 C435 1848 454 1882 480 1882 L480 1882 Z " />
<glyph glyph-name="uni1EC5" unicode="&#x1ec5;" horiz-adv-x="983" d="M922 585 C922 923 780 1102 515 1102 C243 1102 80 927 80 568 L80 482 C80 148 250 -20 537 -20 C726 -20 845 66 904 150 L791 302 C734 232 652 192 559 192 C420 192 343 272 337 463 L922 463 L922 585 Z M481 1348 L617 1213 L801 1213 L552 1442 L411 1442 L161 1213 L345 1213 L481 1348 Z M403 1568 C465 1568 507 1501 583 1501 C654 1501 702 1579 702 1658 L613 1691 C613 1652 593 1615 566 1615 C508 1615 448 1680 387 1680 C315 1680 269 1600 269 1522 L358 1496 C358 1534 377 1568 403 1568 L403 1568 Z M668 644 L339 644 C350 813 403 894 516 894 C624 894 667 811 668 669 L668 644 Z " />
<glyph glyph-name="uni1EC6" unicode="&#x1ec6;" horiz-adv-x="1017" d="M393 219 L393 643 L876 643 L876 857 L393 857 L393 1236 L958 1236 L958 1456 L126 1456 L126 0 L961 0 L961 219 L393 219 Z M558 1713 L687 1562 L889 1562 L889 1574 L632 1851 L484 1851 L231 1577 L231 1562 L430 1562 L558 1713 Z M573 -97 C483 -97 426 -154 426 -226 C426 -299 483 -355 573 -355 C663 -355 721 -299 721 -226 C721 -154 663 -97 573 -97 L573 -97 Z " />
<glyph glyph-name="uni1EC7" unicode="&#x1ec7;" horiz-adv-x="983" d="M922 585 C922 923 780 1102 515 1102 C243 1102 80 927 80 568 L80 482 C80 148 250 -20 537 -20 C726 -20 845 66 904 150 L791 302 C734 232 652 192 559 192 C420 192 343 272 337 463 L922 463 L922 585 Z M481 1399 L610 1248 L812 1248 L812 1260 L555 1537 L407 1537 L154 1263 L154 1248 L353 1248 L481 1399 Z M515 -107 C425 -107 368 -164 368 -236 C368 -309 425 -365 515 -365 C605 -365 663 -309 663 -236 C663 -164 605 -107 515 -107 L515 -107 Z M668 644 L339 644 C350 813 403 894 516 894 C624 894 667 811 668 669 L668 644 Z " />
<glyph glyph-name="uni1EC8" unicode="&#x1ec8;" horiz-adv-x="545" d="M407 0 L407 1456 L140 1456 L140 0 L407 0 Z M175 1578 L367 1578 L367 1643 C428 1653 492 1696 492 1790 C492 1908 382 1983 167 1983 L161 1855 C230 1855 276 1838 276 1784 C276 1739 243 1720 163 1715 L175 1578 Z " />
<glyph glyph-name="uni1EC9" unicode="&#x1ec9;" horiz-adv-x="521" d="M387 0 L387 1082 L129 1082 L129 0 L387 0 Z M163 1251 L355 1251 L355 1316 C416 1326 480 1369 480 1463 C480 1581 370 1656 155 1656 L149 1528 C218 1528 264 1511 264 1457 C264 1412 231 1393 151 1388 L163 1251 Z " />
<glyph glyph-name="uni1ECA" unicode="&#x1eca;" horiz-adv-x="545" d="M407 0 L407 1456 L140 1456 L140 0 L407 0 Z M285 -103 C195 -103 138 -160 138 -232 C138 -305 195 -361 285 -361 C375 -361 433 -305 433 -232 C433 -160 375 -103 285 -103 L285 -103 Z " />
<glyph glyph-name="uni1ECB" unicode="&#x1ecb;" horiz-adv-x="503" d="M381 0 L381 1082 L122 1082 L122 0 L381 0 Z M251 1504 C164 1504 109 1445 109 1366 C109 1286 164 1228 251 1228 C339 1228 394 1286 394 1366 C394 1445 339 1504 251 1504 L251 1504 Z M264 -97 C174 -97 117 -154 117 -226 C117 -299 174 -355 264 -355 C354 -355 412 -299 412 -226 C412 -154 354 -97 264 -97 L264 -97 Z " />
</font>
</svg>
