<?xml version="1.0" encoding="UTF-8"?>
<svg xmlns="http://www.w3.org/2000/svg" xmlns:xlink="http://www.w3.org/1999/xlink" version="1.1" >
<font id="Gotho-5No100Th" horiz-adv-x="713">
<font-face  font-family="Gotho" units-per-em="2048" ascent="2146" descent="-555" font-style="normal" font-weight="100" font-stretch="normal" cap-height="1456" x-height="1082" underline-position="-100" underline-thickness="100" />
<missing-glyph horiz-adv-x="808" d="M706 1456 L103 1456 L103 0 L706 0 L706 1456 Z M403 660 L622 54 L184 54 L403 660 Z M378 728 L149 96 L149 1360 L378 728 Z M428 728 L660 1371 L660 85 L428 728 Z M184 1402 L622 1402 L403 796 L184 1402 Z " />
<glyph glyph-name="NULL" horiz-adv-x="0" />
<glyph glyph-name="CR" unicode="&#xd;" horiz-adv-x="452" />
<glyph glyph-name="space" unicode="&#x20;" horiz-adv-x="452" />
<glyph glyph-name="uni0002" unicode="&#x2;" horiz-adv-x="0" />
<glyph glyph-name="uni0009" unicode="&#x9;" horiz-adv-x="452" />
<glyph glyph-name="exclam" unicode="&#x21;" horiz-adv-x="374" d="M190 105 C163 105 142 80 142 49 C142 18 163 -6 190 -6 C217 -6 239 18 239 49 C239 80 217 105 190 105 L190 105 Z M207 401 L207 1456 L159 1456 L159 401 L207 401 Z " />
<glyph glyph-name="quotedbl" unicode="&#x22;" horiz-adv-x="504" d="M204 1393 L204 1536 L151 1536 L151 1390 L147 1122 L195 1122 L204 1393 Z M395 1393 L395 1536 L343 1536 L343 1390 L337 1122 L386 1122 L395 1393 Z " />
<glyph glyph-name="numbersign" unicode="&#x23;" horiz-adv-x="991" d="M1013 986 L1013 1040 L796 1040 L861 1456 L813 1456 L748 1040 L438 1040 L502 1456 L454 1456 L389 1040 L126 1040 L126 986 L381 986 L300 462 L61 462 L61 410 L292 410 L228 0 L278 0 L341 410 L649 410 L585 0 L634 0 L698 410 L949 410 L949 462 L706 462 L788 986 L1013 986 Z M657 462 L349 462 L430 986 L739 986 L657 462 Z " />
<glyph glyph-name="dollar" unicode="&#x24;" horiz-adv-x="991" d="M872 346 C872 586 732 670 523 754 C260 858 208 948 208 1112 C208 1270 304 1424 511 1424 C710 1424 817 1262 817 1047 L865 1047 C865 1312 742 1464 538 1476 L538 1663 L489 1663 L489 1476 C288 1467 160 1323 160 1110 C160 870 292 787 508 700 C750 603 823 518 823 344 C823 183 710 32 517 32 C356 32 168 120 168 409 L120 409 C120 96 309 -14 498 -21 L498 -208 L547 -208 L547 -20 C742 -7 872 131 872 346 L872 346 Z " />
<glyph glyph-name="percent" unicode="&#x25;" horiz-adv-x="1336" d="M758 357 L758 279 C758 115 851 -21 991 -21 C1130 -21 1222 115 1222 279 L1222 357 C1222 521 1130 657 990 657 C851 657 758 521 758 357 L758 357 Z M376 131 L984 1269 L945 1300 L338 162 L376 131 Z M114 1176 L114 1099 C114 936 207 800 348 800 C485 800 578 936 578 1099 L578 1176 C578 1341 484 1477 346 1477 C207 1477 114 1341 114 1176 L114 1176 Z M806 279 L806 357 C806 491 868 602 990 602 C1114 602 1174 491 1174 357 L1174 279 C1174 156 1115 34 991 34 C866 34 806 157 806 279 L806 279 Z M162 1099 L162 1176 C162 1299 224 1422 346 1422 C470 1422 530 1299 530 1176 L530 1099 C530 977 471 855 348 855 C222 855 162 978 162 1099 L162 1099 Z " />
<glyph glyph-name="ampersand" unicode="&#x26;" horiz-adv-x="1098" d="M1038 0 L876 216 C942 327 990 459 990 632 L942 632 C942 485 905 357 845 258 L442 795 L570 918 C634 980 734 1090 734 1213 C734 1358 649 1477 497 1477 C336 1477 236 1349 236 1167 C236 1042 287 934 378 803 L333 762 C216 646 115 518 115 352 C115 124 256 -20 486 -20 C634 -20 752 63 847 176 L979 0 L1038 0 Z M486 34 C266 34 163 187 163 352 C163 440 190 554 364 720 L407 762 L434 725 L816 216 C731 101 611 34 486 34 L486 34 Z M285 1169 C285 1307 359 1423 497 1423 C620 1423 684 1323 684 1213 C684 1115 620 1027 547 960 L412 835 C325 957 285 1069 285 1169 L285 1169 Z " />
<glyph glyph-name="quotesingle" unicode="&#x27;" horiz-adv-x="333" d="M196 1367 L196 1536 L142 1536 L142 1365 L134 1122 L182 1122 L196 1367 Z " />
<glyph glyph-name="parenleft" unicode="&#x28;" horiz-adv-x="553" d="M143 586 L143 566 C143 80 308 -329 497 -470 L514 -427 C345 -296 191 132 191 564 L191 590 C191 1022 345 1450 514 1580 L497 1623 C308 1482 143 1047 143 586 L143 586 Z " />
<glyph glyph-name="parenright" unicode="&#x29;" horiz-adv-x="567" d="M412 566 L412 586 C412 1047 248 1482 57 1623 L41 1580 C209 1450 364 1022 364 590 L364 564 C364 132 210 -296 41 -427 L57 -470 C248 -329 412 80 412 566 L412 566 Z " />
<glyph glyph-name="asterisk" unicode="&#x2a;" horiz-adv-x="820" d="M375 1017 L155 693 L199 661 L413 986 L641 664 L687 697 L452 1014 L791 1151 L772 1204 L440 1061 L447 1456 L392 1456 L392 1062 L51 1195 L34 1141 L375 1017 Z " />
<glyph glyph-name="plus" unicode="&#x2b;" horiz-adv-x="1016" d="M931 702 L521 702 L521 1206 L472 1206 L472 702 L79 702 L79 649 L472 649 L472 146 L521 146 L521 649 L931 649 L931 702 Z " />
<glyph glyph-name="comma" unicode="&#x2c;" horiz-adv-x="373" d="M229 27 L229 159 L176 159 L176 25 C176 -78 148 -145 91 -223 L128 -255 C187 -188 229 -96 229 27 L229 27 Z " />
<glyph glyph-name="hyphen" unicode="&#x2d;" horiz-adv-x="552" d="M471 639 L471 693 L69 693 L69 639 L471 639 Z " />
<glyph glyph-name="period" unicode="&#x2e;" horiz-adv-x="427" d="M198 105 C167 105 145 80 145 49 C145 18 167 -6 198 -6 C227 -6 251 18 251 49 C251 80 227 105 198 105 L198 105 Z " />
<glyph glyph-name="slash" unicode="&#x2f;" horiz-adv-x="702" d="M104 -125 L623 1456 L571 1456 L52 -125 L104 -125 Z " />
<glyph glyph-name="zero" unicode="0" horiz-adv-x="991" d="M868 594 L868 862 C868 1242 735 1477 495 1477 C256 1477 123 1242 123 862 L123 594 C123 214 259 -20 496 -20 C737 -20 868 214 868 594 L868 594 Z M819 862 L819 596 C819 268 716 34 496 34 C278 34 171 268 171 596 L171 862 C171 1196 277 1423 495 1423 C714 1423 819 1196 819 862 L819 862 Z " />
<glyph glyph-name="one" unicode="1" horiz-adv-x="991" d="M581 0 L581 1460 L571 1460 L176 1290 L176 1231 L532 1388 L532 0 L581 0 Z " />
<glyph glyph-name="two" unicode="2" horiz-adv-x="991" d="M891 0 L891 54 L190 54 L569 546 C700 716 825 905 825 1085 C825 1340 689 1476 475 1476 C262 1476 141 1281 141 1045 L189 1045 C189 1261 297 1422 475 1422 C672 1422 776 1291 776 1085 C776 956 713 810 554 604 L127 54 L127 0 L891 0 Z " />
<glyph glyph-name="three" unicode="3" horiz-adv-x="991" d="M618 745 C762 798 849 928 849 1081 C849 1326 712 1476 498 1476 C298 1476 132 1323 132 1074 L179 1074 C179 1290 320 1422 498 1422 C709 1422 801 1268 801 1085 C801 917 684 770 468 770 L373 770 L373 714 L468 714 C678 714 828 620 828 382 C828 165 711 34 505 34 C305 34 153 189 153 405 L105 405 C105 111 318 -20 505 -20 C720 -20 877 128 877 386 C877 577 781 701 618 745 L618 745 Z " />
<glyph glyph-name="four" unicode="4" horiz-adv-x="990" d="M950 451 L737 451 L737 1456 L679 1456 L87 427 L87 397 L688 397 L688 0 L737 0 L737 397 L950 397 L950 451 Z M160 451 L618 1253 L688 1387 L688 451 L160 451 Z " />
<glyph glyph-name="five" unicode="5" horiz-adv-x="991" d="M213 762 L250 746 C315 817 393 862 525 862 C729 862 843 690 843 462 C843 182 744 34 542 34 C351 34 239 157 220 383 L172 383 C190 110 346 -20 542 -20 C792 -20 891 185 891 464 C891 748 739 916 524 916 C408 916 306 860 266 819 L315 1403 L878 1403 L878 1456 L272 1456 L213 762 Z " />
<glyph glyph-name="six" unicode="6" horiz-adv-x="991" d="M523 957 C368 957 247 858 191 727 L191 741 C191 1222 364 1422 565 1422 C646 1422 692 1404 756 1371 L772 1424 C716 1460 634 1476 565 1476 C335 1476 143 1265 143 740 L143 492 C143 177 310 -21 531 -21 C738 -21 882 197 882 480 C882 754 752 957 523 957 L523 957 Z M531 32 C332 32 191 215 191 493 L191 593 C210 768 357 903 517 903 C729 903 834 716 834 480 C834 244 718 32 531 32 L531 32 Z " />
<glyph glyph-name="seven" unicode="7" horiz-adv-x="991" d="M83 1456 L83 1402 L820 1402 C574 1060 396 635 352 91 L345 0 L394 0 L401 91 C448 703 667 1117 878 1402 L878 1456 L83 1456 Z " />
<glyph glyph-name="eight" unicode="8" horiz-adv-x="991" d="M628 745 C763 794 859 920 859 1086 C859 1339 697 1476 496 1476 C292 1476 137 1339 137 1086 C137 920 229 794 365 745 C210 696 102 560 102 379 C102 114 275 -20 499 -20 C718 -20 895 114 895 379 C895 560 783 697 628 745 L628 745 Z M499 34 C302 34 150 154 150 374 C150 584 302 718 497 718 C690 718 844 584 844 374 C844 154 691 34 499 34 L499 34 Z M186 1091 C186 1297 318 1422 496 1422 C669 1422 810 1285 810 1091 C810 894 671 772 497 772 C318 772 186 894 186 1091 L186 1091 Z " />
<glyph glyph-name="nine" unicode="9" horiz-adv-x="991" d="M470 1477 C251 1477 98 1240 98 958 C98 695 245 468 463 468 C612 468 738 564 799 716 L799 618 C799 257 655 34 436 34 C348 34 288 56 217 97 L201 44 C277 2 358 -20 436 -20 C682 -20 848 214 848 620 L848 903 C848 1286 707 1477 470 1477 L470 1477 Z M463 521 C267 521 153 734 153 958 C153 1194 277 1423 472 1423 C678 1423 799 1248 799 902 L799 835 C766 690 657 521 463 521 L463 521 Z " />
<glyph glyph-name="colon" unicode="&#x3a;" horiz-adv-x="346" d="M179 105 C148 105 126 80 126 49 C126 18 148 -6 179 -6 C208 -6 232 18 232 49 C232 80 208 105 179 105 L179 105 Z M178 1067 C147 1067 125 1042 125 1011 C125 980 147 956 178 956 C207 956 231 980 231 1011 C231 1042 207 1067 178 1067 L178 1067 Z " />
<glyph glyph-name="semicolon" unicode="&#x3b;" horiz-adv-x="346" d="M184 1067 C153 1067 131 1042 131 1011 C131 980 153 956 184 956 C213 956 237 980 237 1011 C237 1042 213 1067 184 1067 L184 1067 Z M218 27 L218 159 L165 159 L165 25 C165 -78 137 -145 80 -223 L117 -255 C176 -188 218 -96 218 27 L218 27 Z " />
<glyph glyph-name="less" unicode="&#x3c;" horiz-adv-x="932" d="M801 1069 L87 691 L87 641 L801 262 L801 321 L151 666 L801 1011 L801 1069 Z " />
<glyph glyph-name="equal" unicode="&#x3d;" horiz-adv-x="1009" d="M854 436 L854 490 L142 490 L142 436 L854 436 Z M854 843 L854 897 L142 897 L142 843 L854 843 Z " />
<glyph glyph-name="greater" unicode="&#x3e;" horiz-adv-x="932" d="M114 1072 L114 1013 L759 668 L114 324 L114 265 L827 644 L827 694 L114 1072 Z " />
<glyph glyph-name="question" unicode="&#x3f;" horiz-adv-x="797" d="M381 105 C355 105 333 80 333 49 C333 18 355 -6 381 -6 C409 -6 430 18 430 49 C430 80 409 105 381 105 L381 105 Z M354 400 L402 400 C402 515 429 621 512 700 C645 830 702 934 702 1110 C702 1318 600 1476 409 1476 C241 1476 100 1346 96 1116 L144 1116 C148 1296 244 1423 409 1423 C572 1423 653 1291 653 1112 C653 929 592 857 487 741 C389 631 355 548 354 400 L354 400 Z " />
<glyph glyph-name="at" unicode="&#x40;" horiz-adv-x="1655" d="M871 1411 C440 1411 147 1049 127 478 C106 -96 357 -453 790 -453 C890 -453 1023 -421 1095 -364 L1075 -318 C1005 -366 893 -398 793 -398 C378 -398 154 -17 175 478 C198 1017 493 1354 867 1354 C1318 1354 1497 1033 1475 523 C1462 243 1375 35 1211 35 C1156 35 1038 61 1055 293 L1096 878 C1041 935 990 988 883 988 C688 988 536 773 510 436 C488 162 569 -20 724 -20 C850 -20 945 58 1007 210 C1020 67 1094 -20 1208 -20 C1422 -20 1517 267 1524 523 C1544 1067 1340 1411 871 1411 L871 1411 Z M723 34 C591 34 537 213 558 436 C589 780 731 933 880 933 C956 933 1010 902 1046 852 L1011 345 C940 86 827 34 723 34 L723 34 Z " />
<glyph glyph-name="A" unicode="A" horiz-adv-x="1079" d="M980 0 L1033 0 L568 1456 L510 1456 L45 0 L98 0 L236 435 L842 435 L980 0 Z M253 489 L539 1390 L825 489 L253 489 Z " />
<glyph glyph-name="B" unicode="B" horiz-adv-x="1088" d="M702 754 C844 784 922 914 922 1083 C922 1340 766 1456 515 1456 L187 1456 L187 0 L592 0 C820 0 977 142 977 401 C977 578 858 731 702 754 L702 754 Z M592 54 L235 54 L235 719 L602 719 C821 719 930 566 930 399 C930 182 801 54 592 54 L592 54 Z M515 1402 C750 1402 872 1296 872 1087 C872 874 756 773 532 773 L235 773 L235 1402 L515 1402 Z " />
<glyph glyph-name="C" unicode="C" horiz-adv-x="1167" d="M1034 446 L985 446 C959 132 819 33 590 33 C349 33 194 232 194 577 L194 895 C194 1229 349 1422 590 1422 C824 1422 959 1306 985 1012 L1034 1012 C1008 1350 840 1476 590 1476 C316 1476 144 1256 144 893 L144 577 C144 205 316 -21 590 -21 C840 -21 1008 104 1034 446 L1034 446 Z " />
<glyph glyph-name="D" unicode="D" horiz-adv-x="1177" d="M531 1456 L187 1456 L187 0 L531 0 C825 0 1040 221 1040 583 L1040 873 C1040 1235 825 1456 531 1456 L531 1456 Z M992 583 C992 258 798 54 531 54 L235 54 L235 1402 L531 1402 C797 1402 992 1198 992 876 L992 583 Z " />
<glyph glyph-name="E" unicode="E" horiz-adv-x="1028" d="M943 1402 L943 1456 L187 1456 L187 0 L943 0 L943 54 L235 54 L235 722 L857 722 L857 776 L235 776 L235 1402 L943 1402 Z " />
<glyph glyph-name="F" unicode="F" horiz-adv-x="1033" d="M957 1402 L957 1456 L187 1456 L187 0 L235 0 L235 716 L870 716 L870 772 L235 772 L235 1402 L957 1402 Z " />
<glyph glyph-name="G" unicode="G" horiz-adv-x="1233" d="M1063 156 L1063 660 L637 660 L637 605 L1015 605 L1015 181 C977 133 841 33 639 33 C378 33 213 238 213 564 L213 916 C213 1227 372 1422 624 1422 C882 1422 988 1275 1013 1062 L1062 1062 C1039 1318 893 1476 624 1476 C350 1476 165 1264 165 914 L165 564 C165 201 355 -21 639 -21 C881 -21 1023 101 1063 156 L1063 156 Z " />
<glyph glyph-name="H" unicode="H" horiz-adv-x="1261" d="M1025 1456 L1025 776 L235 776 L235 1456 L187 1456 L187 0 L235 0 L235 722 L1025 722 L1025 0 L1074 0 L1074 1456 L1025 1456 Z " />
<glyph glyph-name="I" unicode="I" horiz-adv-x="491" d="M270 0 L270 1456 L221 1456 L221 0 L270 0 Z " />
<glyph glyph-name="J" unicode="J" horiz-adv-x="993" d="M763 1456 L763 442 C763 173 622 34 452 34 C246 34 142 165 142 401 L94 401 C94 116 232 -20 452 -20 C654 -20 811 143 811 442 L811 1456 L763 1456 Z " />
<glyph glyph-name="K" unicode="K" horiz-adv-x="1143" d="M1001 0 L1064 0 L469 803 L1022 1456 L952 1456 L437 847 L235 615 L235 1456 L187 1456 L187 0 L235 0 L235 551 L433 765 L1001 0 Z " />
<glyph glyph-name="L" unicode="L" horiz-adv-x="936" d="M236 54 L236 1456 L187 1456 L187 0 L873 0 L873 54 L236 54 Z " />
<glyph glyph-name="M" unicode="M" horiz-adv-x="1532" d="M1346 1456 L1275 1456 L765 79 L256 1456 L187 1456 L187 0 L235 0 L235 1365 L746 0 L784 0 L1298 1373 L1297 703 L1297 0 L1346 0 L1346 1456 Z " />
<glyph glyph-name="N" unicode="N" horiz-adv-x="1270" d="M1083 0 L1083 1456 L1035 1456 L1035 95 L236 1456 L187 1456 L187 0 L236 0 L236 1364 L1034 0 L1083 0 Z " />
<glyph glyph-name="O" unicode="O" horiz-adv-x="1199" d="M1064 563 L1064 893 C1064 1256 884 1476 598 1476 C313 1476 135 1256 135 893 L135 563 C135 200 315 -21 600 -21 C886 -21 1064 200 1064 563 L1064 563 Z M1015 895 L1015 563 C1015 237 866 33 600 33 C335 33 184 237 184 563 L184 895 C184 1219 333 1422 598 1422 C865 1422 1015 1219 1015 895 L1015 895 Z " />
<glyph glyph-name="P" unicode="P" horiz-adv-x="1084" d="M576 1456 L187 1456 L187 0 L235 0 L235 615 L576 615 C842 615 978 774 978 1031 C978 1287 841 1456 576 1456 L576 1456 Z M576 669 L235 669 L235 1402 L576 1402 C826 1402 930 1235 930 1029 C930 831 826 669 576 669 L576 669 Z " />
<glyph glyph-name="Q" unicode="Q" horiz-adv-x="1198" d="M1064 563 L1064 893 C1064 1256 884 1476 598 1476 C313 1476 135 1256 135 893 L135 563 C135 200 314 -21 600 -21 C658 -21 711 -12 759 5 L1000 -263 L1034 -228 L809 27 C970 111 1064 299 1064 563 L1064 563 Z M600 33 C335 33 184 237 184 563 L184 895 C184 1219 333 1422 598 1422 C865 1422 1015 1219 1015 895 L1015 563 C1015 237 866 33 600 33 L600 33 Z " />
<glyph glyph-name="R" unicode="R" horiz-adv-x="1177" d="M982 234 L982 371 C982 542 925 674 737 711 C900 753 988 910 988 1065 C988 1323 840 1455 580 1455 L183 1455 L183 -1 L231 -1 L231 683 L607 683 C823 683 934 565 934 369 L934 236 C934 136 955 54 995 -1 L1043 -1 L1043 24 C997 73 982 151 982 234 L982 234 Z M571 737 L231 737 L231 1401 L579 1401 C821 1401 939 1281 939 1065 C939 899 843 737 571 737 L571 737 Z " />
<glyph glyph-name="S" unicode="S" horiz-adv-x="1067" d="M547 718 C829 628 929 533 929 349 C929 162 774 34 556 34 C378 34 147 120 147 411 L99 411 C99 85 344 -20 556 -20 C789 -20 979 113 979 351 C979 596 807 695 561 770 C266 860 187 967 187 1122 C187 1280 318 1422 551 1422 C771 1422 917 1261 917 1046 L965 1046 C965 1303 793 1476 551 1476 C316 1476 138 1342 138 1120 C138 886 295 799 547 718 L547 718 Z " />
<glyph glyph-name="T" unicode="T" horiz-adv-x="1078" d="M1014 1456 L63 1456 L63 1402 L515 1402 L515 0 L563 0 L563 1402 L1014 1402 L1014 1456 Z " />
<glyph glyph-name="U" unicode="U" horiz-adv-x="1199" d="M1024 1456 L976 1456 L976 441 C976 160 813 33 600 33 C385 33 223 160 223 441 L223 1456 L174 1456 L174 441 C174 114 357 -21 600 -21 C842 -21 1024 114 1024 441 L1024 1456 Z " />
<glyph glyph-name="V" unicode="V" horiz-adv-x="1079" d="M980 1456 L563 142 L539 56 L515 142 L100 1456 L46 1456 L510 0 L569 0 L1033 1456 L980 1456 Z " />
<glyph glyph-name="W" unicode="W" horiz-adv-x="1616" d="M1494 1456 L1239 330 L1182 92 L1127 330 L836 1456 L783 1456 L490 330 L435 92 L379 330 L123 1456 L69 1456 L404 0 L459 0 L768 1214 L810 1366 L851 1214 L1159 0 L1213 0 L1547 1456 L1494 1456 Z " />
<glyph glyph-name="X" unicode="X" horiz-adv-x="1078" d="M539 785 L140 1456 L79 1456 L508 743 L63 0 L121 0 L539 701 L955 0 L1015 0 L569 743 L998 1456 L938 1456 L539 785 Z " />
<glyph glyph-name="Y" unicode="Y" horiz-adv-x="1078" d="M537 602 L109 1456 L45 1456 L513 553 L513 0 L561 0 L561 553 L1029 1456 L970 1456 L537 602 Z " />
<glyph glyph-name="Z" unicode="Z" horiz-adv-x="1078" d="M161 54 L954 1418 L954 1456 L131 1456 L131 1403 L889 1403 L97 44 L97 0 L981 0 L981 54 L161 54 Z " />
<glyph glyph-name="bracketleft" unicode="&#x5b;" horiz-adv-x="411" d="M415 1610 L415 1664 L171 1664 L171 -312 L415 -312 L415 -258 L219 -258 L219 1610 L415 1610 Z " />
<glyph glyph-name="backslash" unicode="&#x5c;" horiz-adv-x="694" d="M66 1456 L584 -125 L635 -125 L117 1456 L66 1456 Z " />
<glyph glyph-name="bracketright" unicode="&#x5d;" horiz-adv-x="410" d="M10 1664 L10 1610 L204 1610 L204 -258 L10 -258 L10 -312 L254 -312 L254 1664 L10 1664 Z " />
<glyph glyph-name="asciicircum" unicode="&#x5e;" horiz-adv-x="758" d="M649 729 L394 1456 L350 1456 L94 729 L145 729 L371 1382 L595 729 L649 729 Z " />
<glyph glyph-name="underscore" unicode="&#x5f;" horiz-adv-x="756" d="M739 -54 L739 0 L16 0 L16 -54 L739 -54 Z " />
<glyph glyph-name="grave" unicode="&#x60;" horiz-adv-x="520" d="M386 1270 L209 1536 L144 1536 L329 1270 L386 1270 Z " />
<glyph glyph-name="a" unicode="a" horiz-adv-x="956" d="M790 218 L790 781 C790 1009 654 1102 462 1102 C263 1102 120 963 120 786 L169 784 C169 942 296 1048 462 1048 C641 1048 742 963 742 783 L742 604 L510 604 C242 604 96 467 96 274 C96 83 208 -21 380 -21 C564 -21 681 77 742 189 C743 122 748 49 759 0 L814 0 L814 9 C798 53 790 140 790 218 L790 218 Z M381 32 C241 32 144 120 144 270 C144 434 268 549 513 549 L742 549 L742 280 C681 128 559 32 381 32 L381 32 Z " />
<glyph glyph-name="b" unicode="b" horiz-adv-x="992" d="M522 1102 C372 1102 269 1023 210 904 L210 1536 L162 1536 L162 0 L210 0 L210 154 C268 54 373 -21 524 -21 C742 -21 870 155 870 503 L870 580 C870 941 741 1102 522 1102 L522 1102 Z M821 503 C821 197 724 33 524 33 C353 33 253 128 210 251 L210 794 C245 911 326 1048 523 1048 C725 1048 821 885 821 580 L821 503 Z " />
<glyph glyph-name="c" unicode="c" horiz-adv-x="921" d="M772 328 C761 99 621 33 477 33 C250 33 148 203 148 492 L148 590 C148 877 250 1048 476 1048 C627 1048 764 961 772 725 L820 725 C811 994 655 1102 476 1102 C238 1102 100 925 100 590 L100 492 C100 157 238 -21 477 -21 C657 -21 810 88 820 328 L772 328 Z " />
<glyph glyph-name="d" unicode="d" horiz-adv-x="991" d="M780 1536 L780 903 C722 1022 620 1102 469 1102 C249 1102 120 941 120 580 L120 503 C120 155 248 -21 468 -21 C619 -21 724 55 780 156 L781 0 L829 0 L829 1536 L780 1536 Z M467 33 C266 33 171 197 171 503 L171 580 C171 885 266 1048 468 1048 C662 1048 743 917 780 802 L780 242 C735 123 634 33 467 33 L467 33 Z " />
<glyph glyph-name="e" unicode="e" horiz-adv-x="919" d="M831 577 L831 654 C831 959 685 1102 478 1102 C265 1102 91 924 91 590 L91 490 C91 158 271 -21 496 -21 C644 -21 738 37 798 121 L770 154 C693 60 602 32 496 32 C294 32 139 202 139 490 L139 577 L831 577 Z M478 1048 C663 1048 782 902 782 658 L782 631 L140 631 C153 892 286 1048 478 1048 L478 1048 Z " />
<glyph glyph-name="f" unicode="f" horiz-adv-x="585" d="M477 1503 C523 1503 546 1498 578 1488 L586 1540 C549 1553 511 1557 475 1557 C325 1557 233 1443 233 1236 L233 1082 L73 1082 L73 1027 L233 1027 L233 0 L281 0 L281 1027 L525 1027 L525 1082 L281 1082 L281 1236 C281 1405 356 1503 477 1503 L477 1503 Z " />
<glyph glyph-name="g" unicode="g" horiz-adv-x="951" d="M545 178 L383 178 C330 178 275 198 275 288 C275 362 322 411 355 438 C391 426 430 419 471 419 C660 419 797 565 797 740 L797 762 C797 873 753 967 681 1028 L854 1028 L853 1082 L587 1082 C551 1095 511 1102 469 1102 C280 1102 141 959 141 762 L141 740 C141 622 204 517 304 461 C266 424 227 369 227 288 C227 215 255 171 293 147 C188 96 93 -6 93 -152 C93 -310 211 -438 438 -438 C709 -438 861 -260 861 -107 C861 83 726 178 545 178 L545 178 Z M190 740 L190 762 C190 912 300 1048 469 1048 C639 1048 749 912 749 762 L749 740 C749 609 641 473 471 473 C299 473 190 609 190 740 L190 740 Z M438 -384 C233 -384 141 -280 141 -152 C141 -20 250 103 376 124 L382 124 L545 124 C732 124 813 23 813 -107 C813 -232 680 -384 438 -384 L438 -384 Z " />
<glyph glyph-name="h" unicode="h" horiz-adv-x="991" d="M538 1102 C383 1102 267 984 211 833 L211 1536 L163 1536 L163 0 L211 0 L211 694 C238 835 334 1049 535 1049 C680 1049 783 975 783 700 L783 0 L831 0 L831 700 C831 987 724 1102 538 1102 L538 1102 Z " />
<glyph glyph-name="i" unicode="i" horiz-adv-x="395" d="M223 0 L223 1082 L174 1082 L174 0 L223 0 Z M198 1476 C172 1476 151 1451 151 1420 C151 1389 172 1365 198 1365 C226 1365 247 1389 247 1420 C247 1451 226 1476 198 1476 L198 1476 Z " />
<glyph glyph-name="j" unicode="j" horiz-adv-x="415" d="M224 1082 L175 1082 L175 -129 C175 -290 105 -383 -20 -383 C-52 -383 -84 -373 -101 -365 L-104 -417 C-77 -430 -49 -437 -21 -437 C133 -437 224 -328 224 -129 L224 1082 Z M204 1476 C177 1476 156 1451 156 1420 C156 1389 177 1365 204 1365 C231 1365 252 1389 252 1420 C252 1451 231 1476 204 1476 L204 1476 Z " />
<glyph glyph-name="k" unicode="k" horiz-adv-x="861" d="M832 0 L382 622 L805 1082 L736 1082 L319 627 L211 508 L211 1536 L163 1536 L163 0 L211 0 L211 449 L347 584 L769 0 L832 0 Z " />
<glyph glyph-name="l" unicode="l" horiz-adv-x="542" d="M224 1536 L174 1536 L174 259 C174 42 246 -20 364 -20 C388 -20 436 -18 461 -8 L453 43 C422 38 397 34 362 34 C288 34 224 69 224 259 L224 1536 Z " />
<glyph glyph-name="m" unicode="m" horiz-adv-x="1599" d="M1155 1102 C989 1102 866 990 815 848 C785 1028 684 1102 530 1102 C373 1102 257 982 203 828 L203 1082 L154 1082 L154 0 L203 0 L203 684 C227 825 320 1049 525 1049 C672 1049 777 979 777 720 L777 0 L825 0 L825 720 C833 836 934 1046 1150 1049 C1297 1051 1402 975 1402 700 L1402 0 L1450 0 L1450 700 C1450 987 1341 1102 1155 1102 L1155 1102 Z " />
<glyph glyph-name="n" unicode="n" horiz-adv-x="990" d="M538 1102 C383 1102 267 984 211 833 L211 1082 L163 1082 L163 0 L211 0 L211 694 C238 835 334 1049 535 1049 C680 1049 783 975 783 700 L783 0 L831 0 L831 700 C831 987 724 1102 538 1102 L538 1102 Z " />
<glyph glyph-name="o" unicode="o" horiz-adv-x="993" d="M105 590 L105 492 C105 176 258 -21 498 -21 C737 -21 888 176 888 492 L888 590 C888 906 737 1102 496 1102 C258 1102 105 906 105 590 L105 590 Z M153 492 L153 590 C153 841 273 1048 496 1048 C720 1048 840 841 840 590 L840 492 C840 235 721 33 498 33 C273 33 153 235 153 492 L153 492 Z " />
<glyph glyph-name="p" unicode="p" horiz-adv-x="991" d="M522 1102 C373 1102 270 1024 210 906 L210 1082 L162 1082 L162 -416 L210 -416 L210 152 C268 52 374 -21 524 -21 C742 -21 870 155 870 503 L870 580 C870 941 741 1102 522 1102 L522 1102 Z M821 503 C821 197 724 33 524 33 C356 33 254 124 210 246 L210 801 C246 916 329 1048 522 1048 C724 1048 821 885 821 580 L821 503 Z " />
<glyph glyph-name="q" unicode="q" horiz-adv-x="990" d="M781 1082 L781 907 C722 1024 619 1102 469 1102 C249 1102 120 941 120 580 L120 503 C120 155 248 -21 467 -21 C617 -21 723 53 781 153 L781 -416 L829 -416 L829 1082 L781 1082 Z M467 33 C266 33 171 197 171 503 L171 580 C171 885 266 1048 468 1048 C661 1048 746 909 781 797 L781 247 C738 125 635 33 467 33 L467 33 Z " />
<glyph glyph-name="r" unicode="r" horiz-adv-x="619" d="M511 1102 C361 1102 262 1008 211 859 L211 1082 L163 1082 L163 0 L211 0 L211 706 C240 902 340 1049 511 1049 C532 1049 554 1046 571 1043 L576 1091 C561 1097 539 1102 511 1102 L511 1102 Z " />
<glyph glyph-name="s" unicode="s" horiz-adv-x="904" d="M447 530 C668 442 730 356 730 258 C730 145 634 34 454 34 C320 34 167 82 155 268 L107 268 C107 109 229 -20 454 -20 C652 -20 779 90 779 257 C779 428 666 495 466 576 C233 675 185 733 185 834 C185 935 261 1048 447 1048 C629 1048 729 930 729 796 L777 796 C777 980 653 1102 447 1102 C253 1102 138 983 138 832 C138 674 246 611 447 530 L447 530 Z " />
<glyph glyph-name="t" unicode="t" horiz-adv-x="587" d="M498 43 C467 38 442 34 407 34 C333 34 269 69 269 259 L269 1027 L478 1027 L478 1082 L269 1082 L269 1374 L220 1374 L220 1082 L50 1082 L50 1027 L220 1027 L220 259 C220 42 291 -20 409 -20 C434 -20 481 -18 506 -8 L498 43 Z " />
<glyph glyph-name="u" unicode="u" horiz-adv-x="991" d="M780 1082 L780 313 C753 160 664 34 462 34 C316 34 208 128 208 393 L208 1082 L160 1082 L160 395 C160 93 283 -20 464 -20 C623 -20 725 54 780 171 L781 0 L830 0 L830 1082 L780 1082 Z " />
<glyph glyph-name="v" unicode="v" horiz-adv-x="869" d="M765 1082 L435 88 L105 1082 L54 1082 L411 0 L459 0 L817 1082 L765 1082 Z " />
<glyph glyph-name="w" unicode="w" horiz-adv-x="1356" d="M1204 1082 L1017 313 L966 82 L905 313 L698 1082 L650 1082 L442 313 L381 84 L331 313 L143 1082 L88 1082 L355 0 L403 0 L627 813 L674 1003 L716 813 L943 0 L991 0 L1259 1082 L1204 1082 Z " />
<glyph glyph-name="x" unicode="x" horiz-adv-x="869" d="M435 602 L141 1082 L81 1082 L404 555 L64 0 L123 0 L434 508 L745 0 L804 0 L464 555 L787 1082 L728 1082 L435 602 Z " />
<glyph glyph-name="y" unicode="y" horiz-adv-x="868" d="M770 1082 L451 104 L445 86 L106 1082 L53 1082 L421 6 L366 -170 C327 -295 276 -384 162 -384 C151 -384 117 -380 100 -375 L101 -426 C114 -433 150 -437 170 -437 C338 -437 383 -271 413 -180 L822 1082 L770 1082 Z " />
<glyph glyph-name="z" unicode="z" horiz-adv-x="869" d="M155 54 L761 1034 L761 1082 L118 1082 L118 1027 L697 1027 L91 44 L91 0 L810 0 L810 54 L155 54 Z " />
<glyph glyph-name="braceleft" unicode="&#x7b;" horiz-adv-x="597" d="M340 20 L340 265 C340 416 287 541 159 576 C287 611 340 734 340 885 L340 1132 C340 1331 410 1489 578 1552 L564 1597 C356 1520 292 1342 292 1132 L292 885 C292 717 230 609 79 609 L79 543 C230 543 292 434 292 265 L292 20 C292 -190 356 -364 564 -441 L582 -395 C415 -329 340 -181 340 20 L340 20 Z " />
<glyph glyph-name="bar" unicode="&#x7c;" horiz-adv-x="396" d="M229 -270 L229 1456 L177 1456 L177 -270 L229 -270 Z " />
<glyph glyph-name="braceright" unicode="&#x7d;" horiz-adv-x="597" d="M306 885 L306 1132 C306 1342 244 1520 34 1597 L21 1552 C189 1489 259 1331 259 1132 L259 885 C259 734 312 611 440 576 C312 541 259 416 259 265 L259 20 C259 -181 183 -329 17 -395 L34 -441 C244 -364 306 -190 306 20 L306 265 C306 434 370 543 519 543 L519 609 C370 609 306 717 306 885 L306 885 Z " />
<glyph glyph-name="asciitilde" unicode="&#x7e;" horiz-adv-x="1238" d="M1080 752 L1032 753 C1032 596 968 496 850 496 C777 496 724 531 638 623 C550 717 486 774 383 774 C224 774 153 631 153 462 L202 462 C202 632 270 720 383 720 C464 720 512 682 595 593 C687 495 748 443 850 443 C1004 443 1080 589 1080 752 L1080 752 Z " />
<glyph glyph-name="uni00A0" unicode="&#xa0;" horiz-adv-x="452" />
<glyph glyph-name="exclamdown" unicode="&#xa1;" horiz-adv-x="382" d="M170 696 L169 -359 L218 -359 L218 696 L170 696 Z M186 992 C214 992 235 1017 235 1048 C235 1079 214 1103 186 1103 C159 1103 138 1079 138 1048 C138 1017 159 992 186 992 L186 992 Z " />
<glyph glyph-name="cent" unicode="&#xa2;" horiz-adv-x="1014" d="M514 33 C287 33 185 203 185 492 L185 590 C185 877 287 1048 513 1048 C664 1048 801 961 809 725 L857 725 C848 983 704 1093 534 1101 L534 1318 L485 1318 L485 1101 C264 1088 137 912 137 590 L137 492 C137 171 264 -6 485 -20 L485 -245 L534 -245 L534 -21 C705 -13 847 97 857 328 L809 328 C798 99 658 33 514 33 L514 33 Z " />
<glyph glyph-name="sterling" unicode="&#xa3;" horiz-adv-x="1016" d="M204 54 L102 54 L102 0 L924 0 L923 54 L277 54 C318 112 337 206 334 336 L326 667 L640 667 L640 721 L324 721 L316 1039 C316 1287 419 1422 581 1422 C730 1422 853 1325 853 1089 L902 1089 C902 1317 788 1476 582 1476 C392 1476 267 1315 272 1039 L278 721 L98 721 L98 667 L279 667 L286 336 C289 216 265 75 204 54 L204 54 Z " />
<glyph glyph-name="currency" unicode="&#xa4;" horiz-adv-x="1428" d="M1269 608 C1269 773 1215 919 1126 1029 L1307 1225 L1268 1265 L1088 1072 C988 1173 855 1234 708 1234 C562 1234 428 1174 328 1073 L151 1264 L112 1225 L291 1032 C201 921 146 774 146 608 C146 449 197 305 282 196 L112 13 L151 -26 L318 154 C419 45 556 -20 708 -20 C860 -20 998 46 1099 155 L1268 -27 L1307 13 L1136 199 C1219 308 1269 450 1269 608 L1269 608 Z M708 33 C429 33 198 290 198 608 C198 925 429 1181 708 1181 C986 1181 1217 925 1217 608 C1217 290 986 33 708 33 L708 33 Z " />
<glyph glyph-name="yen" unicode="&#xa5;" horiz-adv-x="920" d="M871 1456 L816 1456 L482 738 L461 687 L455 687 L434 738 L101 1456 L45 1456 L413 676 L101 676 L101 621 L434 621 L434 381 L101 381 L101 326 L434 326 L434 0 L481 0 L481 326 L815 326 L815 381 L481 381 L481 621 L815 621 L815 676 L502 676 L871 1456 Z " />
<glyph glyph-name="brokenbar" unicode="&#xa6;" horiz-adv-x="387" d="M168 -270 L220 -270 L220 482 L168 482 L168 -270 Z M220 698 L220 1456 L168 1456 L168 698 L220 698 Z " />
<glyph glyph-name="section" unicode="&#xa7;" horiz-adv-x="1077" d="M693 165 C852 192 951 292 951 431 C951 656 798 729 544 807 C270 891 206 968 206 1132 C206 1292 311 1422 544 1422 C764 1422 884 1253 884 1045 L932 1045 C932 1323 786 1476 544 1476 C309 1476 158 1339 158 1129 C158 971 232 885 362 822 C211 794 120 696 120 551 C120 325 286 236 534 166 C801 84 865 2 865 -151 C865 -319 744 -441 529 -441 C359 -441 163 -353 163 -62 L115 -64 C115 -388 325 -495 529 -495 C761 -495 913 -367 913 -149 C913 16 835 101 693 165 L693 165 Z M168 553 C168 682 248 785 423 796 C453 784 486 774 520 763 C815 674 903 593 903 428 C903 304 798 200 613 196 C593 203 572 210 550 217 C242 313 168 379 168 553 L168 553 Z " />
<glyph glyph-name="dieresis" unicode="&#xa8;" horiz-adv-x="867" d="M221 1477 C190 1477 168 1452 168 1421 C168 1390 190 1366 221 1366 C250 1366 273 1390 273 1421 C273 1452 250 1477 221 1477 L221 1477 Z M640 1477 C610 1477 588 1452 588 1421 C588 1390 610 1366 640 1366 C670 1366 694 1390 694 1421 C694 1452 670 1477 640 1477 L640 1477 Z " />
<glyph glyph-name="copyright" unicode="&#xa9;" horiz-adv-x="1584" d="M1067 616 L1017 616 C1017 437 933 357 785 357 C626 357 535 502 535 689 L535 769 C535 954 626 1102 785 1102 C933 1102 1018 1016 1018 842 L1068 842 C1068 1051 956 1155 785 1155 C604 1155 483 997 483 768 L483 689 C483 459 604 302 785 302 C956 302 1067 406 1067 616 L1067 616 Z M791 1476 C423 1476 121 1152 121 729 C121 306 423 -21 791 -21 C1162 -21 1462 306 1462 729 C1462 1152 1162 1476 791 1476 L791 1476 Z M791 34 C453 34 175 341 175 729 C175 1117 453 1421 791 1421 C1129 1421 1408 1117 1408 729 C1408 341 1129 34 791 34 L791 34 Z " />
<glyph glyph-name="guillemotleft" unicode="&#xab;" horiz-adv-x="807" d="M459 904 L398 904 L147 534 L147 515 L398 145 L459 145 L209 525 L459 904 Z M710 904 L649 904 L398 534 L398 515 L649 145 L710 145 L460 525 L710 904 Z " />
<glyph glyph-name="logicalnot" unicode="&#xac;" horiz-adv-x="974" d="M121 753 L121 700 L750 700 L750 396 L798 396 L798 753 L121 753 Z " />
<glyph glyph-name="uni00AD" unicode="&#xad;" horiz-adv-x="552" d="M477 639 L477 693 L75 693 L75 639 L477 639 Z " />
<glyph glyph-name="registered" unicode="&#xae;" horiz-adv-x="1591" d="M784 1476 C414 1476 114 1152 114 729 C114 306 414 -21 784 -21 C1154 -21 1454 306 1454 729 C1454 1152 1154 1476 784 1476 L784 1476 Z M1064 916 C1064 1074 972 1156 791 1156 L565 1156 L565 326 L617 326 L617 678 L817 678 C944 678 991 629 991 504 L991 470 C991 441 991 360 1004 326 L1061 326 L1061 342 C1050 372 1044 419 1044 469 L1044 505 C1044 598 1014 679 921 710 C1012 744 1064 817 1064 916 L1064 916 Z M784 34 C446 34 167 341 167 729 C167 1117 446 1421 784 1421 C1122 1421 1401 1117 1401 729 C1401 341 1122 34 784 34 L784 34 Z M811 734 L617 734 L617 1101 L791 1101 C957 1101 1011 1042 1011 917 C1011 797 920 734 811 734 L811 734 Z " />
<glyph glyph-name="macron" unicode="&#xaf;" horiz-adv-x="727" d="M615 1383 L615 1436 L130 1436 L130 1383 L615 1383 Z " />
<glyph glyph-name="degree" unicode="&#xb0;" horiz-adv-x="751" d="M375 1476 C253 1476 153 1367 153 1236 C153 1103 253 999 375 999 C495 999 595 1103 595 1236 C595 1367 495 1476 375 1476 L375 1476 Z M375 1055 C279 1055 205 1131 205 1236 C205 1343 279 1421 375 1421 C471 1421 542 1343 542 1236 C542 1131 471 1055 375 1055 L375 1055 Z " />
<glyph glyph-name="plusminus" unicode="&#xb1;" horiz-adv-x="953" d="M127 -1 L840 -1 L840 53 L127 53 L127 -1 Z M503 805 L503 1267 L456 1267 L456 805 L78 805 L78 751 L456 751 L456 289 L503 289 L503 751 L860 751 L860 805 L503 805 Z " />
<glyph glyph-name="uni00B2" unicode="&#xb2;" horiz-adv-x="656" d="M579 664 L579 713 L174 713 L386 962 C465 1054 540 1150 540 1248 C540 1384 454 1464 327 1464 C184 1464 96 1356 96 1226 L143 1226 C143 1335 206 1415 327 1415 C436 1415 492 1349 492 1247 C492 1181 455 1112 362 1003 L115 708 L115 664 L579 664 Z " />
<glyph glyph-name="uni00B3" unicode="&#xb3;" horiz-adv-x="656" d="M419 1068 C503 1099 551 1170 551 1246 C551 1384 465 1464 332 1464 C207 1464 105 1377 105 1246 L152 1246 C152 1350 231 1415 332 1415 C451 1415 503 1341 503 1249 C503 1162 438 1090 314 1090 L253 1090 L253 1041 L314 1041 C435 1041 520 993 520 874 C520 766 452 701 336 701 C222 701 138 775 138 881 L91 881 C91 725 218 653 336 653 C468 653 567 734 567 875 C567 971 516 1041 419 1068 L419 1068 Z " />
<glyph glyph-name="acute" unicode="&#xb4;" horiz-adv-x="494" d="M303 1536 L124 1270 L182 1270 L367 1536 L303 1536 Z " />
<glyph glyph-name="uni00B5" unicode="&#xb5;" horiz-adv-x="991" d="M783 1082 L783 407 C769 193 697 34 468 34 C335 34 209 118 209 440 L209 1082 L162 1082 L162 -416 L209 -416 L209 171 C266 28 371 -20 476 -20 C633 -20 732 65 784 202 L786 0 L832 0 L832 1082 L783 1082 Z " />
<glyph glyph-name="paragraph" unicode="&#xb6;" horiz-adv-x="842" d="M627 0 L675 0 L675 1456 L521 1456 C249 1456 101 1256 101 988 C101 718 249 520 521 520 L627 520 L627 0 Z " />
<glyph glyph-name="periodcentered" unicode="&#xb7;" horiz-adv-x="438" d="M217 762 C191 762 169 737 169 706 C169 675 191 651 217 651 C245 651 267 675 267 706 C267 737 245 762 217 762 L217 762 Z " />
<glyph glyph-name="cedilla" unicode="&#xb8;" horiz-adv-x="453" d="M195 0 L149 0 L127 -121 C233 -134 288 -157 288 -245 C288 -344 178 -386 87 -386 L93 -435 C244 -435 336 -359 336 -245 C336 -124 262 -85 186 -76 L195 0 Z " />
<glyph glyph-name="uni00B9" unicode="&#xb9;" horiz-adv-x="656" d="M393 664 L393 1455 L386 1455 L135 1358 L135 1305 L345 1386 L345 664 L393 664 Z " />
<glyph glyph-name="guillemotright" unicode="&#xbb;" horiz-adv-x="800" d="M442 541 L442 560 L192 940 L131 940 L381 551 L131 171 L192 171 L442 541 Z M445 940 L384 940 L634 551 L384 171 L445 171 L695 541 L695 560 L445 940 Z " />
<glyph glyph-name="onequarter" unicode="&#xbc;" horiz-adv-x="1330" d="M1193 253 L1069 253 L1069 789 L1016 789 L661 236 L662 204 L1023 204 L1023 0 L1069 0 L1069 204 L1193 204 L1193 253 Z M923 1308 L317 170 L356 139 L963 1277 L923 1308 Z M356 664 L404 664 L404 1455 L397 1455 L146 1358 L146 1305 L356 1386 L356 664 Z M721 253 L986 656 L1023 726 L1023 253 L721 253 Z " />
<glyph glyph-name="onehalf" unicode="&#xbd;" horiz-adv-x="1367" d="M806 49 L1018 298 C1097 390 1172 486 1172 584 C1172 720 1086 800 959 800 C816 800 728 692 728 562 L775 562 C775 671 838 751 959 751 C1068 751 1124 685 1124 583 C1124 517 1087 448 994 339 L747 44 L747 0 L1211 0 L1211 49 L806 49 Z M378 737 L378 1455 L371 1455 L120 1358 L120 1305 L330 1386 L330 664 L339 664 L72 162 L111 131 L718 1269 L678 1300 L378 737 Z " />
<glyph glyph-name="threequarters" unicode="&#xbe;" horiz-adv-x="1436" d="M1335 253 L1211 253 L1211 789 L1158 789 L803 236 L804 204 L1165 204 L1165 0 L1211 0 L1211 204 L1335 204 L1335 253 Z M678 1300 L534 1029 C512 1046 486 1059 455 1068 C539 1099 587 1170 587 1246 C587 1384 501 1464 368 1464 C243 1464 141 1377 141 1246 L188 1246 C188 1350 267 1415 368 1415 C487 1415 539 1341 539 1249 C539 1162 474 1090 350 1090 L289 1090 L289 1041 L350 1041 C419 1041 476 1025 513 990 L359 701 C252 707 174 779 174 881 L127 881 C127 741 229 669 335 655 L72 162 L111 131 L390 653 C513 660 603 740 603 875 C603 920 592 959 570 991 L718 1269 L678 1300 Z M863 253 L1128 656 L1165 726 L1165 253 L863 253 Z M556 874 C556 781 505 720 417 705 L544 943 C552 923 556 900 556 874 L556 874 Z " />
<glyph glyph-name="questiondown" unicode="&#xbf;" horiz-adv-x="812" d="M456 695 L409 695 C409 580 408 522 326 444 C193 313 108 188 108 -15 C108 -232 220 -381 410 -381 C578 -381 712 -263 714 -21 L665 -21 C663 -201 574 -328 410 -328 C247 -328 157 -211 157 -17 C157 193 246 286 350 402 C449 512 454 547 456 695 L456 695 Z M429 990 C457 990 477 1015 477 1046 C477 1077 457 1101 429 1101 C402 1101 381 1077 381 1046 C381 1015 402 990 429 990 L429 990 Z " />
<glyph glyph-name="Agrave" unicode="&#xc0;" horiz-adv-x="1079" d="M980 0 L1033 0 L568 1456 L510 1456 L45 0 L98 0 L236 435 L842 435 L980 0 Z M580 1589 L403 1855 L338 1855 L523 1589 L580 1589 Z M253 489 L539 1390 L825 489 L253 489 Z " />
<glyph glyph-name="Aacute" unicode="&#xc1;" horiz-adv-x="1079" d="M980 0 L1033 0 L568 1456 L510 1456 L45 0 L98 0 L236 435 L842 435 L980 0 Z M745 1855 L681 1855 L502 1589 L560 1589 L745 1855 Z M253 489 L539 1390 L825 489 L253 489 Z " />
<glyph glyph-name="Acircumflex" unicode="&#xc2;" horiz-adv-x="1079" d="M980 0 L1033 0 L568 1456 L510 1456 L45 0 L98 0 L236 435 L842 435 L980 0 Z M540 1779 L698 1583 L758 1583 L758 1593 L558 1836 L522 1836 L326 1597 L326 1583 L382 1583 L540 1779 Z M253 489 L539 1390 L825 489 L253 489 Z " />
<glyph glyph-name="Atilde" unicode="&#xc3;" horiz-adv-x="1079" d="M980 0 L1033 0 L568 1456 L510 1456 L45 0 L98 0 L236 435 L842 435 L980 0 Z M425 1745 C526 1745 547 1620 670 1620 C754 1620 820 1695 820 1806 L773 1806 C773 1722 726 1675 670 1675 C574 1675 543 1799 425 1799 C339 1799 275 1730 275 1620 L322 1620 C322 1704 368 1745 425 1745 L425 1745 Z M253 489 L539 1390 L825 489 L253 489 Z " />
<glyph glyph-name="Adieresis" unicode="&#xc4;" horiz-adv-x="1079" d="M980 0 L1033 0 L568 1456 L510 1456 L45 0 L98 0 L236 435 L842 435 L980 0 Z M330 1685 C359 1685 382 1709 382 1740 C382 1771 359 1796 330 1796 C299 1796 277 1771 277 1740 C277 1709 299 1685 330 1685 L330 1685 Z M749 1685 C779 1685 803 1709 803 1740 C803 1771 779 1796 749 1796 C719 1796 697 1771 697 1740 C697 1709 719 1685 749 1685 L749 1685 Z M253 489 L539 1390 L825 489 L253 489 Z " />
<glyph glyph-name="Aring" unicode="&#xc5;" horiz-adv-x="1079" d="M980 0 L1033 0 L568 1456 L510 1456 L45 0 L98 0 L236 435 L842 435 L980 0 Z M542 1531 C632 1531 703 1603 703 1701 C703 1799 632 1875 542 1875 C452 1875 381 1799 381 1701 C381 1603 452 1531 542 1531 L542 1531 Z M253 489 L539 1390 L825 489 L253 489 Z M542 1821 C606 1821 652 1772 652 1701 C652 1632 606 1585 542 1585 C478 1585 432 1632 432 1701 C432 1772 478 1821 542 1821 L542 1821 Z " />
<glyph glyph-name="AE" unicode="&#xc6;" horiz-adv-x="1584" d="M930 54 L906 732 L1404 732 L1404 786 L904 786 L882 1402 L1474 1402 L1474 1456 L810 1456 L59 0 L118 0 L336 425 L868 425 L883 0 L1526 0 L1526 54 L930 54 Z M363 478 L834 1398 L866 478 L363 478 Z " />
<glyph glyph-name="Ccedilla" unicode="&#xc7;" horiz-adv-x="1167" d="M590 33 C349 33 194 232 194 577 L194 895 C194 1229 349 1422 590 1422 C824 1422 959 1306 985 1012 L1034 1012 C1008 1350 840 1476 590 1476 C316 1476 144 1256 144 893 L144 577 C144 213 309 -11 572 -21 L552 -131 C658 -144 713 -167 713 -255 C713 -354 603 -396 512 -396 L518 -445 C669 -445 761 -369 761 -255 C761 -134 687 -95 611 -86 L619 -20 C853 -11 1009 117 1034 446 L985 446 C959 132 819 33 590 33 L590 33 Z " />
<glyph glyph-name="Egrave" unicode="&#xc8;" horiz-adv-x="1028" d="M943 1402 L943 1456 L187 1456 L187 0 L943 0 L943 54 L235 54 L235 722 L857 722 L857 776 L235 776 L235 1402 L943 1402 Z M585 1589 L408 1855 L343 1855 L528 1589 L585 1589 Z " />
<glyph glyph-name="Eacute" unicode="&#xc9;" horiz-adv-x="1028" d="M943 1402 L943 1456 L187 1456 L187 0 L943 0 L943 54 L235 54 L235 722 L857 722 L857 776 L235 776 L235 1402 L943 1402 Z M750 1855 L686 1855 L507 1589 L565 1589 L750 1855 Z " />
<glyph glyph-name="Ecircumflex" unicode="&#xca;" horiz-adv-x="1028" d="M943 1402 L943 1456 L187 1456 L187 0 L943 0 L943 54 L235 54 L235 722 L857 722 L857 776 L235 776 L235 1402 L943 1402 Z M545 1779 L703 1583 L763 1583 L763 1593 L563 1836 L527 1836 L331 1597 L331 1583 L387 1583 L545 1779 Z " />
<glyph glyph-name="Edieresis" unicode="&#xcb;" horiz-adv-x="1028" d="M943 1402 L943 1456 L187 1456 L187 0 L943 0 L943 54 L235 54 L235 722 L857 722 L857 776 L235 776 L235 1402 L943 1402 Z M335 1685 C364 1685 387 1709 387 1740 C387 1771 364 1796 335 1796 C304 1796 282 1771 282 1740 C282 1709 304 1685 335 1685 L335 1685 Z M754 1685 C784 1685 808 1709 808 1740 C808 1771 784 1796 754 1796 C724 1796 702 1771 702 1740 C702 1709 724 1685 754 1685 L754 1685 Z " />
<glyph glyph-name="Igrave" unicode="&#xcc;" horiz-adv-x="491" d="M270 0 L270 1456 L221 1456 L221 0 L270 0 Z M286 1589 L109 1855 L44 1855 L229 1589 L286 1589 Z " />
<glyph glyph-name="Iacute" unicode="&#xcd;" horiz-adv-x="491" d="M270 0 L270 1456 L221 1456 L221 0 L270 0 Z M387 1855 L208 1589 L266 1589 L451 1855 L387 1855 Z " />
<glyph glyph-name="Icircumflex" unicode="&#xce;" horiz-adv-x="491" d="M270 0 L270 1456 L221 1456 L221 0 L270 0 Z M464 1593 L264 1836 L228 1836 L32 1597 L32 1583 L88 1583 L246 1779 L404 1583 L464 1583 L464 1593 Z " />
<glyph glyph-name="Idieresis" unicode="&#xcf;" horiz-adv-x="491" d="M270 0 L270 1456 L221 1456 L221 0 L270 0 Z M36 1796 C5 1796 -17 1771 -17 1740 C-17 1709 5 1685 36 1685 C65 1685 88 1709 88 1740 C88 1771 65 1796 36 1796 L36 1796 Z M455 1796 C425 1796 403 1771 403 1740 C403 1709 425 1685 455 1685 C485 1685 509 1709 509 1740 C509 1771 485 1796 455 1796 L455 1796 Z " />
<glyph glyph-name="Eth" unicode="&#xd0;" horiz-adv-x="1177" d="M531 1456 L187 1456 L187 767 L68 767 L68 713 L187 713 L187 0 L531 0 C825 0 1040 221 1040 583 L1040 873 C1040 1235 825 1456 531 1456 L531 1456 Z M992 583 C992 258 798 54 531 54 L235 54 L235 713 L570 713 L570 767 L235 767 L235 1402 L531 1402 C797 1402 992 1198 992 876 L992 583 Z " />
<glyph glyph-name="Ntilde" unicode="&#xd1;" horiz-adv-x="1270" d="M1083 0 L1083 1456 L1035 1456 L1035 95 L236 1456 L187 1456 L187 0 L236 0 L236 1364 L1034 0 L1083 0 Z M916 1806 L869 1806 C869 1722 822 1675 766 1675 C670 1675 639 1799 521 1799 C435 1799 371 1730 371 1620 L418 1620 C418 1704 464 1745 521 1745 C622 1745 643 1620 766 1620 C850 1620 916 1695 916 1806 L916 1806 Z " />
<glyph glyph-name="Ograve" unicode="&#xd2;" horiz-adv-x="1199" d="M1064 563 L1064 893 C1064 1256 884 1476 598 1476 C313 1476 135 1256 135 893 L135 563 C135 200 315 -21 600 -21 C886 -21 1064 200 1064 563 L1064 563 Z M634 1610 L457 1876 L392 1876 L577 1610 L634 1610 Z M1015 895 L1015 563 C1015 237 866 33 600 33 C335 33 184 237 184 563 L184 895 C184 1219 333 1422 598 1422 C865 1422 1015 1219 1015 895 L1015 895 Z " />
<glyph glyph-name="Oacute" unicode="&#xd3;" horiz-adv-x="1199" d="M1064 563 L1064 893 C1064 1256 884 1476 598 1476 C313 1476 135 1256 135 893 L135 563 C135 200 315 -21 600 -21 C886 -21 1064 200 1064 563 L1064 563 Z M735 1876 L556 1610 L614 1610 L799 1876 L735 1876 Z M1015 895 L1015 563 C1015 237 866 33 600 33 C335 33 184 237 184 563 L184 895 C184 1219 333 1422 598 1422 C865 1422 1015 1219 1015 895 L1015 895 Z " />
<glyph glyph-name="Ocircumflex" unicode="&#xd4;" horiz-adv-x="1199" d="M1064 563 L1064 893 C1064 1256 884 1476 598 1476 C313 1476 135 1256 135 893 L135 563 C135 200 315 -21 600 -21 C886 -21 1064 200 1064 563 L1064 563 Z M812 1614 L612 1857 L576 1857 L380 1618 L380 1604 L436 1604 L594 1800 L752 1604 L812 1604 L812 1614 Z M1015 895 L1015 563 C1015 237 866 33 600 33 C335 33 184 237 184 563 L184 895 C184 1219 333 1422 598 1422 C865 1422 1015 1219 1015 895 L1015 895 Z " />
<glyph glyph-name="Otilde" unicode="&#xd5;" horiz-adv-x="1199" d="M1064 563 L1064 893 C1064 1256 884 1476 598 1476 C313 1476 135 1256 135 893 L135 563 C135 200 315 -21 600 -21 C886 -21 1064 200 1064 563 L1064 563 Z M874 1827 L827 1827 C827 1743 780 1696 724 1696 C628 1696 597 1820 479 1820 C393 1820 329 1751 329 1641 L376 1641 C376 1725 422 1766 479 1766 C580 1766 601 1641 724 1641 C808 1641 874 1716 874 1827 L874 1827 Z M1015 895 L1015 563 C1015 237 866 33 600 33 C335 33 184 237 184 563 L184 895 C184 1219 333 1422 598 1422 C865 1422 1015 1219 1015 895 L1015 895 Z " />
<glyph glyph-name="Odieresis" unicode="&#xd6;" horiz-adv-x="1199" d="M1064 563 L1064 893 C1064 1256 884 1476 598 1476 C313 1476 135 1256 135 893 L135 563 C135 200 315 -21 600 -21 C886 -21 1064 200 1064 563 L1064 563 Z M384 1817 C353 1817 331 1792 331 1761 C331 1730 353 1706 384 1706 C413 1706 436 1730 436 1761 C436 1792 413 1817 384 1817 L384 1817 Z M803 1817 C773 1817 751 1792 751 1761 C751 1730 773 1706 803 1706 C833 1706 857 1730 857 1761 C857 1792 833 1817 803 1817 L803 1817 Z M1015 895 L1015 563 C1015 237 866 33 600 33 C335 33 184 237 184 563 L184 895 C184 1219 333 1422 598 1422 C865 1422 1015 1219 1015 895 L1015 895 Z " />
<glyph glyph-name="multiply" unicode="&#xd7;" horiz-adv-x="932" d="M823 36 L494 429 L799 793 L765 832 L461 468 L157 832 L123 793 L428 429 L100 36 L134 -1 L461 389 L788 -1 L823 36 Z " />
<glyph glyph-name="Oslash" unicode="&#xd8;" horiz-adv-x="1240" d="M1076 1495 L1018 1495 L932 1336 C852 1426 740 1476 604 1476 C319 1476 141 1256 141 893 L141 563 C141 375 189 225 276 124 L168 -75 L225 -75 L312 86 C389 17 489 -21 606 -21 C892 -21 1070 200 1070 563 L1070 893 C1070 1058 1033 1193 966 1292 L1076 1495 Z M190 563 L190 895 C190 1219 339 1422 604 1422 C733 1422 835 1374 906 1288 L302 172 C229 264 190 398 190 563 L190 563 Z M1021 895 L1021 563 C1021 237 872 33 606 33 C496 33 406 68 338 133 L939 1242 C993 1154 1021 1036 1021 895 L1021 895 Z " />
<glyph glyph-name="Ugrave" unicode="&#xd9;" horiz-adv-x="1199" d="M1024 1456 L976 1456 L976 441 C976 160 813 33 600 33 C385 33 223 160 223 441 L223 1456 L174 1456 L174 441 C174 114 357 -21 600 -21 C842 -21 1024 114 1024 441 L1024 1456 Z M651 1589 L474 1855 L409 1855 L594 1589 L651 1589 Z " />
<glyph glyph-name="Uacute" unicode="&#xda;" horiz-adv-x="1199" d="M1024 1456 L976 1456 L976 441 C976 160 813 33 600 33 C385 33 223 160 223 441 L223 1456 L174 1456 L174 441 C174 114 357 -21 600 -21 C842 -21 1024 114 1024 441 L1024 1456 Z M752 1855 L573 1589 L631 1589 L816 1855 L752 1855 Z " />
<glyph glyph-name="Ucircumflex" unicode="&#xdb;" horiz-adv-x="1199" d="M1024 1456 L976 1456 L976 441 C976 160 813 33 600 33 C385 33 223 160 223 441 L223 1456 L174 1456 L174 441 C174 114 357 -21 600 -21 C842 -21 1024 114 1024 441 L1024 1456 Z M829 1593 L629 1836 L593 1836 L397 1597 L397 1583 L453 1583 L611 1779 L769 1583 L829 1583 L829 1593 Z " />
<glyph glyph-name="Udieresis" unicode="&#xdc;" horiz-adv-x="1199" d="M1024 1456 L976 1456 L976 441 C976 160 813 33 600 33 C385 33 223 160 223 441 L223 1456 L174 1456 L174 441 C174 114 357 -21 600 -21 C842 -21 1024 114 1024 441 L1024 1456 Z M401 1796 C370 1796 348 1771 348 1740 C348 1709 370 1685 401 1685 C430 1685 453 1709 453 1740 C453 1771 430 1796 401 1796 L401 1796 Z M820 1796 C790 1796 768 1771 768 1740 C768 1709 790 1685 820 1685 C850 1685 874 1709 874 1740 C874 1771 850 1796 820 1796 L820 1796 Z " />
<glyph glyph-name="Yacute" unicode="&#xdd;" horiz-adv-x="1078" d="M537 602 L109 1456 L45 1456 L513 553 L513 0 L561 0 L561 553 L1029 1456 L970 1456 L537 602 Z M678 1844 L499 1578 L557 1578 L742 1844 L678 1844 Z " />
<glyph glyph-name="Thorn" unicode="&#xde;" horiz-adv-x="1074" d="M551 1143 L235 1143 L235 1456 L187 1456 L187 0 L235 0 L235 334 L551 334 C799 334 935 505 935 738 C935 970 799 1143 551 1143 L551 1143 Z M551 388 L235 388 L235 1089 L551 1089 C789 1089 887 909 887 736 C887 571 789 388 551 388 L551 388 Z " />
<glyph glyph-name="germandbls" unicode="&#xdf;" horiz-adv-x="1045" d="M205 0 L205 1143 C205 1389 301 1481 448 1481 C550 1481 652 1384 652 1259 C652 1080 554 1036 554 831 C554 585 877 536 877 306 C877 159 763 32 604 32 C514 32 411 75 366 117 L345 68 C391 20 512 -21 611 -21 C752 -21 924 95 924 297 C924 569 603 621 603 829 C603 1037 704 1068 704 1257 C704 1425 574 1535 439 1535 C257 1535 157 1396 157 1143 L157 0 L205 0 Z " />
<glyph glyph-name="agrave" unicode="&#xe0;" horiz-adv-x="956" d="M790 218 L790 781 C790 1009 654 1102 462 1102 C263 1102 120 963 120 786 L169 784 C169 942 296 1048 462 1048 C641 1048 742 963 742 783 L742 604 L510 604 C242 604 96 467 96 274 C96 83 208 -21 380 -21 C564 -21 681 77 742 189 C743 122 748 49 759 0 L814 0 L814 9 C798 53 790 140 790 218 L790 218 Z M550 1269 L373 1535 L308 1535 L493 1269 L550 1269 Z M381 32 C241 32 144 120 144 270 C144 434 268 549 513 549 L742 549 L742 280 C681 128 559 32 381 32 L381 32 Z " />
<glyph glyph-name="aacute" unicode="&#xe1;" horiz-adv-x="956" d="M790 218 L790 781 C790 1009 654 1102 462 1102 C263 1102 120 963 120 786 L169 784 C169 942 296 1048 462 1048 C641 1048 742 963 742 783 L742 604 L510 604 C242 604 96 467 96 274 C96 83 208 -21 380 -21 C564 -21 681 77 742 189 C743 122 748 49 759 0 L814 0 L814 9 C798 53 790 140 790 218 L790 218 Z M715 1535 L651 1535 L472 1269 L530 1269 L715 1535 Z M381 32 C241 32 144 120 144 270 C144 434 268 549 513 549 L742 549 L742 280 C681 128 559 32 381 32 L381 32 Z " />
<glyph glyph-name="acircumflex" unicode="&#xe2;" horiz-adv-x="956" d="M790 218 L790 781 C790 1009 654 1102 462 1102 C263 1102 120 963 120 786 L169 784 C169 942 296 1048 462 1048 C641 1048 742 963 742 783 L742 604 L510 604 C242 604 96 467 96 274 C96 83 208 -21 380 -21 C564 -21 681 77 742 189 C743 122 748 49 759 0 L814 0 L814 9 C798 53 790 140 790 218 L790 218 Z M510 1459 L668 1263 L728 1263 L728 1273 L528 1516 L492 1516 L296 1277 L296 1263 L352 1263 L510 1459 Z M381 32 C241 32 144 120 144 270 C144 434 268 549 513 549 L742 549 L742 280 C681 128 559 32 381 32 L381 32 Z " />
<glyph glyph-name="atilde" unicode="&#xe3;" horiz-adv-x="956" d="M790 218 L790 781 C790 1009 654 1102 462 1102 C263 1102 120 963 120 786 L169 784 C169 942 296 1048 462 1048 C641 1048 742 963 742 783 L742 604 L510 604 C242 604 96 467 96 274 C96 83 208 -21 380 -21 C564 -21 681 77 742 189 C743 122 748 49 759 0 L814 0 L814 9 C798 53 790 140 790 218 L790 218 Z M395 1425 C496 1425 517 1300 640 1300 C724 1300 790 1375 790 1486 L743 1486 C743 1402 696 1355 640 1355 C544 1355 513 1479 395 1479 C309 1479 245 1410 245 1300 L292 1300 C292 1384 338 1425 395 1425 L395 1425 Z M381 32 C241 32 144 120 144 270 C144 434 268 549 513 549 L742 549 L742 280 C681 128 559 32 381 32 L381 32 Z " />
<glyph glyph-name="adieresis" unicode="&#xe4;" horiz-adv-x="956" d="M790 218 L790 781 C790 1009 654 1102 462 1102 C263 1102 120 963 120 786 L169 784 C169 942 296 1048 462 1048 C641 1048 742 963 742 783 L742 604 L510 604 C242 604 96 467 96 274 C96 83 208 -21 380 -21 C564 -21 681 77 742 189 C743 122 748 49 759 0 L814 0 L814 9 C798 53 790 140 790 218 L790 218 Z M300 1365 C329 1365 352 1389 352 1420 C352 1451 329 1476 300 1476 C269 1476 247 1451 247 1420 C247 1389 269 1365 300 1365 L300 1365 Z M719 1365 C749 1365 773 1389 773 1420 C773 1451 749 1476 719 1476 C689 1476 667 1451 667 1420 C667 1389 689 1365 719 1365 L719 1365 Z M381 32 C241 32 144 120 144 270 C144 434 268 549 513 549 L742 549 L742 280 C681 128 559 32 381 32 L381 32 Z " />
<glyph glyph-name="aring" unicode="&#xe5;" horiz-adv-x="956" d="M790 218 L790 781 C790 1009 654 1102 462 1102 C263 1102 120 963 120 786 L169 784 C169 942 296 1048 462 1048 C641 1048 742 963 742 783 L742 604 L510 604 C242 604 96 467 96 274 C96 83 208 -21 380 -21 C564 -21 681 77 742 189 C743 122 748 49 759 0 L814 0 L814 9 C798 53 790 140 790 218 L790 218 Z M512 1211 C602 1211 673 1283 673 1381 C673 1479 602 1555 512 1555 C422 1555 351 1479 351 1381 C351 1283 422 1211 512 1211 L512 1211 Z M381 32 C241 32 144 120 144 270 C144 434 268 549 513 549 L742 549 L742 280 C681 128 559 32 381 32 L381 32 Z M512 1501 C576 1501 622 1452 622 1381 C622 1312 576 1265 512 1265 C448 1265 402 1312 402 1381 C402 1452 448 1501 512 1501 L512 1501 Z " />
<glyph glyph-name="ae" unicode="&#xe6;" horiz-adv-x="1514" d="M761 577 L1431 577 L1431 660 C1431 934 1301 1102 1086 1102 C936 1102 812 992 752 817 C725 1006 617 1102 462 1102 C253 1102 121 965 121 778 L168 771 C168 929 274 1048 462 1048 C630 1048 711 928 711 720 L711 630 L464 630 C223 630 96 489 96 284 C96 100 205 -20 399 -20 C598 -20 717 111 759 218 L759 227 C818 75 934 -20 1099 -20 C1262 -20 1348 50 1407 122 L1382 164 C1316 86 1220 34 1099 34 C862 34 761 241 761 500 L761 564 L761 577 Z M399 32 C235 32 145 126 145 280 C145 438 245 575 465 575 L711 575 L711 229 C694 158 563 32 399 32 L399 32 Z M1086 1048 C1282 1048 1383 880 1383 664 L1383 632 L764 632 C783 868 901 1048 1086 1048 L1086 1048 Z " />
<glyph glyph-name="ccedilla" unicode="&#xe7;" horiz-adv-x="921" d="M477 33 C250 33 148 203 148 492 L148 590 C148 877 250 1048 476 1048 C627 1048 764 961 772 725 L820 725 C811 994 655 1102 476 1102 C238 1102 100 925 100 590 L100 492 C100 165 231 -12 459 -21 L439 -131 C545 -144 600 -167 600 -255 C600 -354 490 -396 399 -396 L405 -445 C556 -445 648 -369 648 -255 C648 -134 574 -95 498 -86 L506 -20 C673 -9 811 101 820 328 L772 328 C761 99 621 33 477 33 L477 33 Z " />
<glyph glyph-name="egrave" unicode="&#xe8;" horiz-adv-x="919" d="M831 577 L831 654 C831 959 685 1102 478 1102 C265 1102 91 924 91 590 L91 490 C91 158 271 -21 496 -21 C644 -21 738 37 798 121 L770 154 C693 60 602 32 496 32 C294 32 139 202 139 490 L139 577 L831 577 Z M540 1268 L363 1534 L298 1534 L483 1268 L540 1268 Z M478 1048 C663 1048 782 902 782 658 L782 631 L140 631 C153 892 286 1048 478 1048 L478 1048 Z " />
<glyph glyph-name="eacute" unicode="&#xe9;" horiz-adv-x="919" d="M831 577 L831 654 C831 959 685 1102 478 1102 C265 1102 91 924 91 590 L91 490 C91 158 271 -21 496 -21 C644 -21 738 37 798 121 L770 154 C693 60 602 32 496 32 C294 32 139 202 139 490 L139 577 L831 577 Z M705 1534 L641 1534 L462 1268 L520 1268 L705 1534 Z M478 1048 C663 1048 782 902 782 658 L782 631 L140 631 C153 892 286 1048 478 1048 L478 1048 Z " />
<glyph glyph-name="ecircumflex" unicode="&#xea;" horiz-adv-x="919" d="M831 577 L831 654 C831 959 685 1102 478 1102 C265 1102 91 924 91 590 L91 490 C91 158 271 -21 496 -21 C644 -21 738 37 798 121 L770 154 C693 60 602 32 496 32 C294 32 139 202 139 490 L139 577 L831 577 Z M500 1458 L658 1262 L718 1262 L718 1272 L518 1515 L482 1515 L286 1276 L286 1262 L342 1262 L500 1458 Z M478 1048 C663 1048 782 902 782 658 L782 631 L140 631 C153 892 286 1048 478 1048 L478 1048 Z " />
<glyph glyph-name="edieresis" unicode="&#xeb;" horiz-adv-x="919" d="M831 577 L831 654 C831 959 685 1102 478 1102 C265 1102 91 924 91 590 L91 490 C91 158 271 -21 496 -21 C644 -21 738 37 798 121 L770 154 C693 60 602 32 496 32 C294 32 139 202 139 490 L139 577 L831 577 Z M290 1364 C319 1364 342 1388 342 1419 C342 1450 319 1475 290 1475 C259 1475 237 1450 237 1419 C237 1388 259 1364 290 1364 L290 1364 Z M709 1364 C739 1364 763 1388 763 1419 C763 1450 739 1475 709 1475 C679 1475 657 1450 657 1419 C657 1388 679 1364 709 1364 L709 1364 Z M478 1048 C663 1048 782 902 782 658 L782 631 L140 631 C153 892 286 1048 478 1048 L478 1048 Z " />
<glyph glyph-name="igrave" unicode="&#xec;" horiz-adv-x="381" d="M219 0 L219 1082 L171 1082 L171 0 L219 0 Z M236 1246 L59 1512 L-6 1512 L179 1246 L236 1246 Z " />
<glyph glyph-name="iacute" unicode="&#xed;" horiz-adv-x="381" d="M219 0 L219 1082 L171 1082 L171 0 L219 0 Z M337 1512 L158 1246 L216 1246 L401 1512 L337 1512 Z " />
<glyph glyph-name="icircumflex" unicode="&#xee;" horiz-adv-x="381" d="M219 0 L219 1082 L171 1082 L171 0 L219 0 Z M414 1250 L214 1493 L178 1493 L-18 1254 L-18 1240 L38 1240 L196 1436 L354 1240 L414 1240 L414 1250 Z " />
<glyph glyph-name="idieresis" unicode="&#xef;" horiz-adv-x="381" d="M219 0 L219 1082 L171 1082 L171 0 L219 0 Z M-14 1453 C-45 1453 -67 1428 -67 1397 C-67 1366 -45 1342 -14 1342 C15 1342 38 1366 38 1397 C38 1428 15 1453 -14 1453 L-14 1453 Z M405 1453 C375 1453 353 1428 353 1397 C353 1366 375 1342 405 1342 C435 1342 459 1366 459 1397 C459 1428 435 1453 405 1453 L405 1453 Z " />
<glyph glyph-name="eth" unicode="&#xf0;" horiz-adv-x="1044" d="M701 1308 L862 1413 L837 1461 L665 1349 C576 1443 462 1517 322 1577 L304 1527 C423 1475 532 1410 621 1320 L433 1197 L456 1149 L657 1280 C757 1162 826 1004 849 783 C781 893 656 953 529 953 C301 953 163 775 163 465 C163 194 323 -20 553 -20 C758 -20 905 206 905 535 L905 615 C905 919 837 1142 701 1308 L701 1308 Z M857 535 C857 246 741 38 557 38 C335 38 213 251 213 465 C213 705 307 895 530 895 C711 895 816 782 856 673 C857 654 857 636 857 617 L857 535 Z " />
<glyph glyph-name="ntilde" unicode="&#xf1;" horiz-adv-x="990" d="M538 1102 C383 1102 267 984 211 833 L211 1082 L163 1082 L163 0 L211 0 L211 694 C238 835 334 1049 535 1049 C680 1049 783 975 783 700 L783 0 L831 0 L831 700 C831 987 724 1102 538 1102 L538 1102 Z M395 1423 C496 1423 517 1298 640 1298 C724 1298 790 1373 790 1484 L743 1484 C743 1400 696 1353 640 1353 C544 1353 513 1477 395 1477 C309 1477 245 1408 245 1298 L292 1298 C292 1382 338 1423 395 1423 L395 1423 Z " />
<glyph glyph-name="ograve" unicode="&#xf2;" horiz-adv-x="993" d="M105 590 L105 492 C105 176 258 -21 498 -21 C737 -21 888 176 888 492 L888 590 C888 906 737 1102 496 1102 C258 1102 105 906 105 590 L105 590 Z M541 1267 L364 1533 L299 1533 L484 1267 L541 1267 Z M153 492 L153 590 C153 841 273 1048 496 1048 C720 1048 840 841 840 590 L840 492 C840 235 721 33 498 33 C273 33 153 235 153 492 L153 492 Z " />
<glyph glyph-name="oacute" unicode="&#xf3;" horiz-adv-x="993" d="M105 590 L105 492 C105 176 258 -21 498 -21 C737 -21 888 176 888 492 L888 590 C888 906 737 1102 496 1102 C258 1102 105 906 105 590 L105 590 Z M642 1533 L463 1267 L521 1267 L706 1533 L642 1533 Z M153 492 L153 590 C153 841 273 1048 496 1048 C720 1048 840 841 840 590 L840 492 C840 235 721 33 498 33 C273 33 153 235 153 492 L153 492 Z " />
<glyph glyph-name="ocircumflex" unicode="&#xf4;" horiz-adv-x="993" d="M105 590 L105 492 C105 176 258 -21 498 -21 C737 -21 888 176 888 492 L888 590 C888 906 737 1102 496 1102 C258 1102 105 906 105 590 L105 590 Z M719 1271 L519 1514 L483 1514 L287 1275 L287 1261 L343 1261 L501 1457 L659 1261 L719 1261 L719 1271 Z M153 492 L153 590 C153 841 273 1048 496 1048 C720 1048 840 841 840 590 L840 492 C840 235 721 33 498 33 C273 33 153 235 153 492 L153 492 Z " />
<glyph glyph-name="otilde" unicode="&#xf5;" horiz-adv-x="993" d="M105 590 L105 492 C105 176 258 -21 498 -21 C737 -21 888 176 888 492 L888 590 C888 906 737 1102 496 1102 C258 1102 105 906 105 590 L105 590 Z M781 1484 L734 1484 C734 1400 687 1353 631 1353 C535 1353 504 1477 386 1477 C300 1477 236 1408 236 1298 L283 1298 C283 1382 329 1423 386 1423 C487 1423 508 1298 631 1298 C715 1298 781 1373 781 1484 L781 1484 Z M153 492 L153 590 C153 841 273 1048 496 1048 C720 1048 840 841 840 590 L840 492 C840 235 721 33 498 33 C273 33 153 235 153 492 L153 492 Z " />
<glyph glyph-name="odieresis" unicode="&#xf6;" horiz-adv-x="993" d="M105 590 L105 492 C105 176 258 -21 498 -21 C737 -21 888 176 888 492 L888 590 C888 906 737 1102 496 1102 C258 1102 105 906 105 590 L105 590 Z M291 1474 C260 1474 238 1449 238 1418 C238 1387 260 1363 291 1363 C320 1363 343 1387 343 1418 C343 1449 320 1474 291 1474 L291 1474 Z M710 1474 C680 1474 658 1449 658 1418 C658 1387 680 1363 710 1363 C740 1363 764 1387 764 1418 C764 1449 740 1474 710 1474 L710 1474 Z M153 492 L153 590 C153 841 273 1048 496 1048 C720 1048 840 841 840 590 L840 492 C840 235 721 33 498 33 C273 33 153 235 153 492 L153 492 Z " />
<glyph glyph-name="divide" unicode="&#xf7;" horiz-adv-x="1024" d="M516 357 C489 357 467 332 467 301 C467 270 489 246 516 246 C543 246 564 270 564 301 C564 332 543 357 516 357 L516 357 Z M932 686 L932 738 L79 738 L79 686 L932 686 Z M516 1135 C489 1135 467 1110 467 1079 C467 1048 489 1024 516 1024 C543 1024 564 1048 564 1079 C564 1110 543 1135 516 1135 L516 1135 Z " />
<glyph glyph-name="oslash" unicode="&#xf8;" horiz-adv-x="1024" d="M731 1023 L812 1219 L757 1219 L688 1053 C635 1085 572 1102 501 1102 C263 1102 110 906 110 590 L110 492 C110 293 171 141 275 56 L192 -145 L246 -145 L317 27 C371 -4 433 -21 503 -21 C742 -21 893 176 893 492 L893 590 C893 788 834 938 731 1023 L731 1023 Z M158 492 L158 590 C158 841 278 1048 501 1048 C565 1048 620 1031 667 1001 L297 109 C206 190 158 330 158 492 L158 492 Z M845 492 C845 235 726 33 503 33 C440 33 385 49 338 78 L708 969 C798 886 845 747 845 590 L845 492 Z " />
<glyph glyph-name="ugrave" unicode="&#xf9;" horiz-adv-x="991" d="M780 1082 L780 313 C753 160 664 34 462 34 C316 34 208 128 208 393 L208 1082 L160 1082 L160 395 C160 93 283 -20 464 -20 C623 -20 725 54 780 171 L781 0 L830 0 L830 1082 L780 1082 Z M552 1270 L375 1536 L310 1536 L495 1270 L552 1270 Z " />
<glyph glyph-name="uacute" unicode="&#xfa;" horiz-adv-x="991" d="M780 1082 L780 313 C753 160 664 34 462 34 C316 34 208 128 208 393 L208 1082 L160 1082 L160 395 C160 93 283 -20 464 -20 C623 -20 725 54 780 171 L781 0 L830 0 L830 1082 L780 1082 Z M717 1536 L653 1536 L474 1270 L532 1270 L717 1536 Z " />
<glyph glyph-name="ucircumflex" unicode="&#xfb;" horiz-adv-x="991" d="M780 1082 L780 313 C753 160 664 34 462 34 C316 34 208 128 208 393 L208 1082 L160 1082 L160 395 C160 93 283 -20 464 -20 C623 -20 725 54 780 171 L781 0 L830 0 L830 1082 L780 1082 Z M512 1460 L670 1264 L730 1264 L730 1274 L530 1517 L494 1517 L298 1278 L298 1264 L354 1264 L512 1460 Z " />
<glyph glyph-name="udieresis" unicode="&#xfc;" horiz-adv-x="991" d="M780 1082 L780 313 C753 160 664 34 462 34 C316 34 208 128 208 393 L208 1082 L160 1082 L160 395 C160 93 283 -20 464 -20 C623 -20 725 54 780 171 L781 0 L830 0 L830 1082 L780 1082 Z M302 1366 C331 1366 354 1390 354 1421 C354 1452 331 1477 302 1477 C271 1477 249 1452 249 1421 C249 1390 271 1366 302 1366 L302 1366 Z M721 1366 C751 1366 775 1390 775 1421 C775 1452 751 1477 721 1477 C691 1477 669 1452 669 1421 C669 1390 691 1366 721 1366 L721 1366 Z " />
<glyph glyph-name="yacute" unicode="&#xfd;" horiz-adv-x="868" d="M770 1082 L451 104 L445 86 L106 1082 L53 1082 L421 6 L366 -170 C327 -295 276 -384 162 -384 C151 -384 117 -380 100 -375 L101 -426 C114 -433 150 -437 170 -437 C338 -437 383 -271 413 -180 L822 1082 L770 1082 Z M664 1536 L600 1536 L421 1270 L479 1270 L664 1536 Z " />
<glyph glyph-name="thorn" unicode="&#xfe;" horiz-adv-x="992" d="M521 1102 C373 1102 270 1018 210 892 L210 1536 L161 1536 L161 -416 L210 -416 L210 166 C268 58 374 -20 523 -20 C742 -20 870 201 870 531 L870 552 C870 893 741 1102 521 1102 L521 1102 Z M821 531 C821 243 724 34 524 34 C356 34 254 134 210 268 L210 779 C246 904 328 1048 522 1048 C724 1048 821 839 821 552 L821 531 Z " />
<glyph glyph-name="ydieresis" unicode="&#xff;" horiz-adv-x="868" d="M770 1082 L451 104 L445 86 L106 1082 L53 1082 L421 6 L366 -170 C327 -295 276 -384 162 -384 C151 -384 117 -380 100 -375 L101 -426 C114 -433 150 -437 170 -437 C338 -437 383 -271 413 -180 L822 1082 L770 1082 Z M249 1366 C278 1366 301 1390 301 1421 C301 1452 278 1477 249 1477 C218 1477 196 1452 196 1421 C196 1390 218 1366 249 1366 L249 1366 Z M668 1366 C698 1366 722 1390 722 1421 C722 1452 698 1477 668 1477 C638 1477 616 1452 616 1421 C616 1390 638 1366 668 1366 L668 1366 Z " />
<glyph glyph-name="Amacron" unicode="&#x100;" horiz-adv-x="1079" d="M980 0 L1033 0 L568 1456 L510 1456 L45 0 L98 0 L236 435 L842 435 L980 0 Z M785 1766 L300 1766 L300 1713 L785 1713 L785 1766 Z M253 489 L539 1390 L825 489 L253 489 Z " />
<glyph glyph-name="amacron" unicode="&#x101;" horiz-adv-x="956" d="M790 218 L790 781 C790 1009 654 1102 462 1102 C263 1102 120 963 120 786 L169 784 C169 942 296 1048 462 1048 C641 1048 742 963 742 783 L742 604 L510 604 C242 604 96 467 96 274 C96 83 208 -21 380 -21 C564 -21 681 77 742 189 C743 122 748 49 759 0 L814 0 L814 9 C798 53 790 140 790 218 L790 218 Z M755 1446 L270 1446 L270 1393 L755 1393 L755 1446 Z M381 32 C241 32 144 120 144 270 C144 434 268 549 513 549 L742 549 L742 280 C681 128 559 32 381 32 L381 32 Z " />
<glyph glyph-name="Abreve" unicode="&#x102;" horiz-adv-x="1079" d="M980 0 L1033 0 L568 1456 L510 1456 L45 0 L98 0 L236 435 L842 435 L980 0 Z M538 1562 C702 1562 801 1664 801 1810 L748 1810 C748 1707 687 1618 538 1618 C382 1618 326 1705 326 1810 L274 1810 C274 1664 374 1562 538 1562 L538 1562 Z M253 489 L539 1390 L825 489 L253 489 Z " />
<glyph glyph-name="abreve" unicode="&#x103;" horiz-adv-x="956" d="M790 218 L790 781 C790 1009 654 1102 462 1102 C263 1102 120 963 120 786 L169 784 C169 942 296 1048 462 1048 C641 1048 742 963 742 783 L742 604 L510 604 C242 604 96 467 96 274 C96 83 208 -21 380 -21 C564 -21 681 77 742 189 C743 122 748 49 759 0 L814 0 L814 9 C798 53 790 140 790 218 L790 218 Z M508 1242 C672 1242 771 1344 771 1490 L718 1490 C718 1387 657 1298 508 1298 C352 1298 296 1385 296 1490 L244 1490 C244 1344 344 1242 508 1242 L508 1242 Z M381 32 C241 32 144 120 144 270 C144 434 268 549 513 549 L742 549 L742 280 C681 128 559 32 381 32 L381 32 Z " />
<glyph glyph-name="Aogonek" unicode="&#x104;" horiz-adv-x="1079" d="M1045 -303 C1024 -320 996 -341 951 -341 C889 -341 872 -295 872 -246 C872 -150 950 -75 1032 0 L1033 0 L568 1456 L510 1456 L45 0 L98 0 L236 435 L842 435 L978 5 C900 -66 824 -158 824 -246 C824 -347 874 -395 950 -395 C1003 -395 1037 -371 1059 -351 L1045 -303 Z M253 489 L539 1390 L825 489 L253 489 Z " />
<glyph glyph-name="aogonek" unicode="&#x105;" horiz-adv-x="956" d="M827 -303 C806 -320 778 -341 733 -341 C671 -341 654 -295 654 -246 C654 -150 732 -75 814 0 L814 9 C798 53 790 140 790 218 L790 781 C790 1009 654 1102 462 1102 C263 1102 120 963 120 786 L169 784 C169 942 296 1048 462 1048 C641 1048 742 963 742 783 L742 604 L510 604 C242 604 96 467 96 274 C96 83 208 -21 380 -21 C564 -21 681 77 742 189 C743 124 748 52 758 3 C681 -68 606 -159 606 -246 C606 -347 656 -395 732 -395 C785 -395 819 -371 841 -351 L827 -303 Z M381 32 C241 32 144 120 144 270 C144 434 268 549 513 549 L742 549 L742 280 C681 128 559 32 381 32 L381 32 Z " />
<glyph glyph-name="Cacute" unicode="&#x106;" horiz-adv-x="1167" d="M1034 446 L985 446 C959 132 819 33 590 33 C349 33 194 232 194 577 L194 895 C194 1229 349 1422 590 1422 C824 1422 959 1306 985 1012 L1034 1012 C1008 1350 840 1476 590 1476 C316 1476 144 1256 144 893 L144 577 C144 205 316 -21 590 -21 C840 -21 1008 104 1034 446 L1034 446 Z M737 1876 L558 1610 L616 1610 L801 1876 L737 1876 Z " />
<glyph glyph-name="cacute" unicode="&#x107;" horiz-adv-x="921" d="M772 328 C761 99 621 33 477 33 C250 33 148 203 148 492 L148 590 C148 877 250 1048 476 1048 C627 1048 764 961 772 725 L820 725 C811 994 655 1102 476 1102 C238 1102 100 925 100 590 L100 492 C100 157 238 -21 477 -21 C657 -21 810 88 820 328 L772 328 Z M624 1533 L445 1267 L503 1267 L688 1533 L624 1533 Z " />
<glyph glyph-name="Cdotaccent" unicode="&#x10a;" horiz-adv-x="1167" d="M1034 446 L985 446 C959 132 819 33 590 33 C349 33 194 232 194 577 L194 895 C194 1229 349 1422 590 1422 C824 1422 959 1306 985 1012 L1034 1012 C1008 1350 840 1476 590 1476 C316 1476 144 1256 144 893 L144 577 C144 205 316 -21 590 -21 C840 -21 1008 104 1034 446 L1034 446 Z M596 1793 C566 1793 543 1768 543 1737 C543 1706 566 1682 596 1682 C625 1682 649 1706 649 1737 C649 1768 625 1793 596 1793 L596 1793 Z " />
<glyph glyph-name="cdotaccent" unicode="&#x10b;" horiz-adv-x="921" d="M772 328 C761 99 621 33 477 33 C250 33 148 203 148 492 L148 590 C148 877 250 1048 476 1048 C627 1048 764 961 772 725 L820 725 C811 994 655 1102 476 1102 C238 1102 100 925 100 590 L100 492 C100 157 238 -21 477 -21 C657 -21 810 88 820 328 L772 328 Z M483 1450 C453 1450 430 1425 430 1394 C430 1363 453 1339 483 1339 C512 1339 536 1363 536 1394 C536 1425 512 1450 483 1450 L483 1450 Z " />
<glyph glyph-name="Ccaron" unicode="&#x10c;" horiz-adv-x="1167" d="M1034 446 L985 446 C959 132 819 33 590 33 C349 33 194 232 194 577 L194 895 C194 1229 349 1422 590 1422 C824 1422 959 1306 985 1012 L1034 1012 C1008 1350 840 1476 590 1476 C316 1476 144 1256 144 893 L144 577 C144 205 316 -21 590 -21 C840 -21 1008 104 1034 446 L1034 446 Z M596 1634 L432 1851 L381 1851 L381 1840 L569 1588 L621 1588 L807 1838 L807 1851 L761 1851 L596 1634 Z " />
<glyph glyph-name="ccaron" unicode="&#x10d;" horiz-adv-x="921" d="M772 328 C761 99 621 33 477 33 C250 33 148 203 148 492 L148 590 C148 877 250 1048 476 1048 C627 1048 764 961 772 725 L820 725 C811 994 655 1102 476 1102 C238 1102 100 925 100 590 L100 492 C100 157 238 -21 477 -21 C657 -21 810 88 820 328 L772 328 Z M483 1291 L319 1508 L268 1508 L268 1497 L456 1245 L508 1245 L694 1495 L694 1508 L648 1508 L483 1291 Z " />
<glyph glyph-name="Dcaron" unicode="&#x10e;" horiz-adv-x="1177" d="M531 1456 L187 1456 L187 0 L531 0 C825 0 1040 221 1040 583 L1040 873 C1040 1235 825 1456 531 1456 L531 1456 Z M545 1567 L731 1817 L731 1830 L685 1830 L520 1613 L356 1830 L305 1830 L305 1819 L493 1567 L545 1567 Z M992 583 C992 258 798 54 531 54 L235 54 L235 1402 L531 1402 C797 1402 992 1198 992 876 L992 583 Z " />
<glyph glyph-name="dcaron" unicode="&#x10f;" horiz-adv-x="1157" d="M780 1536 L780 903 C722 1022 620 1102 469 1102 C439 1102 411 1099 385 1093 C389 1117 391 1143 391 1170 L391 1247 L344 1247 L344 1168 C344 1134 341 1104 335 1077 C198 1020 120 860 120 580 L120 503 C120 155 248 -21 468 -21 C619 -21 724 55 780 156 L781 0 L829 0 L829 1536 L780 1536 Z M467 33 C266 33 171 197 171 503 L171 580 C171 787 215 929 306 999 C300 986 293 973 285 960 L317 928 C339 957 358 992 371 1033 C400 1043 432 1048 468 1048 C662 1048 743 917 780 802 L780 242 C735 123 634 33 467 33 L467 33 Z " />
<glyph glyph-name="Dcroat" unicode="&#x110;" horiz-adv-x="1177" d="M531 1456 L187 1456 L187 767 L68 767 L68 713 L187 713 L187 0 L531 0 C825 0 1040 221 1040 583 L1040 873 C1040 1235 825 1456 531 1456 L531 1456 Z M992 583 C992 258 798 54 531 54 L235 54 L235 713 L570 713 L570 767 L235 767 L235 1402 L531 1402 C797 1402 992 1198 992 876 L992 583 Z " />
<glyph glyph-name="dcroat" unicode="&#x111;" horiz-adv-x="992" d="M965 1335 L829 1335 L829 1536 L780 1536 L780 1335 L464 1335 L464 1281 L780 1281 L780 887 C722 1016 619 1102 469 1102 C249 1102 120 893 120 552 L120 531 C120 201 248 -20 468 -20 C618 -20 723 61 780 170 L781 0 L829 0 L829 1281 L965 1281 L965 1335 Z M467 34 C266 34 171 243 171 531 L171 552 C171 839 266 1048 468 1048 C662 1048 743 905 780 780 L780 264 C735 132 634 34 467 34 L467 34 Z " />
<glyph glyph-name="Emacron" unicode="&#x112;" horiz-adv-x="1028" d="M943 1402 L943 1456 L187 1456 L187 0 L943 0 L943 54 L235 54 L235 722 L857 722 L857 776 L235 776 L235 1402 L943 1402 Z M790 1766 L305 1766 L305 1713 L790 1713 L790 1766 Z " />
<glyph glyph-name="emacron" unicode="&#x113;" horiz-adv-x="919" d="M831 577 L831 654 C831 959 685 1102 478 1102 C265 1102 91 924 91 590 L91 490 C91 158 271 -21 496 -21 C644 -21 738 37 798 121 L770 154 C693 60 602 32 496 32 C294 32 139 202 139 490 L139 577 L831 577 Z M745 1445 L260 1445 L260 1392 L745 1392 L745 1445 Z M478 1048 C663 1048 782 902 782 658 L782 631 L140 631 C153 892 286 1048 478 1048 L478 1048 Z " />
<glyph glyph-name="Edotaccent" unicode="&#x116;" horiz-adv-x="1028" d="M943 1402 L943 1456 L187 1456 L187 0 L943 0 L943 54 L235 54 L235 722 L857 722 L857 776 L235 776 L235 1402 L943 1402 Z M545 1661 C574 1661 598 1685 598 1716 C598 1747 574 1772 545 1772 C515 1772 492 1747 492 1716 C492 1685 515 1661 545 1661 L545 1661 Z " />
<glyph glyph-name="edotaccent" unicode="&#x117;" horiz-adv-x="919" d="M831 577 L831 654 C831 959 685 1102 478 1102 C265 1102 91 924 91 590 L91 490 C91 158 271 -21 496 -21 C644 -21 738 37 798 121 L770 154 C693 60 602 32 496 32 C294 32 139 202 139 490 L139 577 L831 577 Z M500 1340 C529 1340 553 1364 553 1395 C553 1426 529 1451 500 1451 C470 1451 447 1426 447 1395 C447 1364 470 1340 500 1340 L500 1340 Z M478 1048 C663 1048 782 902 782 658 L782 631 L140 631 C153 892 286 1048 478 1048 L478 1048 Z " />
<glyph glyph-name="Eogonek" unicode="&#x118;" horiz-adv-x="1028" d="M943 1402 L943 1456 L187 1456 L187 0 L834 0 C757 -71 685 -160 685 -246 C685 -347 735 -395 811 -395 C864 -395 898 -371 920 -351 L906 -303 C885 -320 857 -341 812 -341 C750 -341 733 -295 733 -246 C733 -150 811 -75 893 0 L943 0 L943 54 L235 54 L235 722 L857 722 L857 776 L235 776 L235 1402 L943 1402 Z " />
<glyph glyph-name="eogonek" unicode="&#x119;" horiz-adv-x="919" d="M831 577 L831 654 C831 959 685 1102 478 1102 C265 1102 91 924 91 590 L91 490 C91 158 271 -21 496 -21 C535 -21 570 -17 602 -9 C555 -66 519 -128 519 -188 C519 -289 569 -337 645 -337 C698 -337 732 -313 754 -293 L740 -245 C719 -262 691 -283 646 -283 C584 -283 567 -237 567 -188 C567 -106 623 -40 690 24 C735 49 770 82 798 121 L770 154 C693 60 602 32 496 32 C294 32 139 202 139 490 L139 577 L831 577 Z M478 1048 C663 1048 782 902 782 658 L782 631 L140 631 C153 892 286 1048 478 1048 L478 1048 Z " />
<glyph glyph-name="Ecaron" unicode="&#x11a;" horiz-adv-x="1028" d="M943 1402 L943 1456 L187 1456 L187 0 L943 0 L943 54 L235 54 L235 722 L857 722 L857 776 L235 776 L235 1402 L943 1402 Z M570 1567 L756 1817 L756 1830 L710 1830 L545 1613 L381 1830 L330 1830 L330 1819 L518 1567 L570 1567 Z " />
<glyph glyph-name="ecaron" unicode="&#x11b;" horiz-adv-x="919" d="M831 577 L831 654 C831 959 685 1102 478 1102 C265 1102 91 924 91 590 L91 490 C91 158 271 -21 496 -21 C644 -21 738 37 798 121 L770 154 C693 60 602 32 496 32 C294 32 139 202 139 490 L139 577 L831 577 Z M525 1246 L711 1496 L711 1509 L665 1509 L500 1292 L336 1509 L285 1509 L285 1498 L473 1246 L525 1246 Z M478 1048 C663 1048 782 902 782 658 L782 631 L140 631 C153 892 286 1048 478 1048 L478 1048 Z " />
<glyph glyph-name="Gbreve" unicode="&#x11e;" horiz-adv-x="1233" d="M1063 156 L1063 660 L637 660 L637 605 L1015 605 L1015 181 C977 133 841 33 639 33 C378 33 213 238 213 564 L213 916 C213 1227 372 1422 624 1422 C882 1422 988 1275 1013 1062 L1062 1062 C1039 1318 893 1476 624 1476 C350 1476 165 1264 165 914 L165 564 C165 201 355 -21 639 -21 C881 -21 1023 101 1063 156 L1063 156 Z M877 1831 L824 1831 C824 1728 763 1639 614 1639 C458 1639 402 1726 402 1831 L350 1831 C350 1685 450 1583 614 1583 C778 1583 877 1685 877 1831 L877 1831 Z " />
<glyph glyph-name="gbreve" unicode="&#x11f;" horiz-adv-x="993" d="M780 1082 L779 903 C721 1022 619 1102 468 1102 C249 1102 120 941 120 580 L120 503 C120 155 248 -21 467 -21 C618 -21 722 54 779 155 L779 -27 C779 -270 681 -383 482 -383 C368 -383 281 -329 209 -232 L177 -268 C243 -367 349 -436 483 -436 C701 -436 829 -304 829 -27 L829 1082 L780 1082 Z M498 1240 C662 1240 761 1342 761 1488 L708 1488 C708 1385 647 1296 498 1296 C342 1296 286 1383 286 1488 L234 1488 C234 1342 334 1240 498 1240 L498 1240 Z M466 33 C266 33 169 197 169 503 L169 580 C169 885 266 1048 468 1048 C667 1048 746 909 779 792 L779 253 C737 129 638 33 466 33 L466 33 Z " />
<glyph glyph-name="Gdotaccent" unicode="&#x120;" horiz-adv-x="1233" d="M1063 156 L1063 660 L637 660 L637 605 L1015 605 L1015 181 C977 133 841 33 639 33 C378 33 213 238 213 564 L213 916 C213 1227 372 1422 624 1422 C882 1422 988 1275 1013 1062 L1062 1062 C1039 1318 893 1476 624 1476 C350 1476 165 1264 165 914 L165 564 C165 201 355 -21 639 -21 C881 -21 1023 101 1063 156 L1063 156 Z M616 1793 C586 1793 563 1768 563 1737 C563 1706 586 1682 616 1682 C645 1682 669 1706 669 1737 C669 1768 645 1793 616 1793 L616 1793 Z " />
<glyph glyph-name="gdotaccent" unicode="&#x121;" horiz-adv-x="993" d="M780 1082 L779 903 C721 1022 619 1102 468 1102 C249 1102 120 941 120 580 L120 503 C120 155 248 -21 467 -21 C618 -21 722 54 779 155 L779 -27 C779 -270 681 -383 482 -383 C368 -383 281 -329 209 -232 L177 -268 C243 -367 349 -436 483 -436 C701 -436 829 -304 829 -27 L829 1082 L780 1082 Z M500 1339 C529 1339 553 1363 553 1394 C553 1425 529 1450 500 1450 C470 1450 447 1425 447 1394 C447 1363 470 1339 500 1339 L500 1339 Z M466 33 C266 33 169 197 169 503 L169 580 C169 885 266 1048 468 1048 C667 1048 746 909 779 792 L779 253 C737 129 638 33 466 33 L466 33 Z " />
<glyph glyph-name="Gcommaaccent" unicode="&#x122;" horiz-adv-x="1277" d="M1063 156 L1063 660 L637 660 L637 605 L1015 605 L1015 181 C977 133 841 33 639 33 C378 33 213 238 213 564 L213 916 C213 1227 372 1422 624 1422 C882 1422 988 1275 1013 1062 L1062 1062 C1039 1318 893 1476 624 1476 C350 1476 165 1264 165 914 L165 564 C165 201 355 -21 639 -21 C881 -21 1023 101 1063 156 L1063 156 Z M1 -465 L1 -388 L-46 -388 L-46 -467 C-46 -554 -65 -609 -105 -675 L-73 -707 C-29 -650 1 -570 1 -465 L1 -465 Z " />
<glyph glyph-name="gcommaaccent" unicode="&#x123;" horiz-adv-x="993" d="M780 1082 L779 903 C721 1022 619 1102 468 1102 C249 1102 120 941 120 580 L120 503 C120 155 248 -21 467 -21 C618 -21 722 54 779 155 L779 -27 C779 -270 681 -383 482 -383 C368 -383 281 -329 209 -232 L177 -268 C243 -367 349 -436 483 -436 C701 -436 829 -304 829 -27 L829 1082 L780 1082 Z M523 1406 C523 1466 540 1512 566 1574 L527 1590 C501 1538 476 1481 476 1402 L476 1274 L523 1274 L523 1406 Z M466 33 C266 33 169 197 169 503 L169 580 C169 885 266 1048 468 1048 C667 1048 746 909 779 792 L779 253 C737 129 638 33 466 33 L466 33 Z " />
<glyph glyph-name="Hbar" unicode="&#x126;" horiz-adv-x="1262" d="M1171 1081 L1044 1081 L1044 1456 L995 1456 L995 1081 L205 1081 L205 1456 L157 1456 L157 1081 L34 1081 L34 1028 L157 1028 L157 0 L205 0 L205 722 L995 722 L995 0 L1044 0 L1044 1028 L1171 1028 L1171 1081 Z M995 776 L205 776 L205 1028 L995 1028 L995 776 Z " />
<glyph glyph-name="hbar" unicode="&#x127;" horiz-adv-x="991" d="M538 1102 C383 1102 267 984 211 833 L211 1281 L545 1281 L545 1335 L211 1335 L211 1536 L163 1536 L163 1335 L43 1335 L43 1281 L163 1281 L163 0 L211 0 L211 694 C238 835 334 1049 535 1049 C680 1049 783 975 783 700 L783 0 L831 0 L831 700 C831 987 724 1102 538 1102 L538 1102 Z " />
<glyph glyph-name="Itilde" unicode="&#x128;" horiz-adv-x="491" d="M270 0 L270 1456 L221 1456 L221 0 L270 0 Z M526 1806 L479 1806 C479 1722 432 1675 376 1675 C280 1675 249 1799 131 1799 C45 1799 -19 1730 -19 1620 L28 1620 C28 1704 74 1745 131 1745 C232 1745 253 1620 376 1620 C460 1620 526 1695 526 1806 L526 1806 Z " />
<glyph glyph-name="itilde" unicode="&#x129;" horiz-adv-x="381" d="M219 0 L219 1082 L171 1082 L171 0 L219 0 Z M476 1463 L429 1463 C429 1379 382 1332 326 1332 C230 1332 199 1456 81 1456 C-5 1456 -69 1387 -69 1277 L-22 1277 C-22 1361 24 1402 81 1402 C182 1402 203 1277 326 1277 C410 1277 476 1352 476 1463 L476 1463 Z " />
<glyph glyph-name="Imacron" unicode="&#x12a;" horiz-adv-x="491" d="M270 0 L270 1456 L221 1456 L221 0 L270 0 Z M491 1713 L491 1766 L6 1766 L6 1713 L491 1713 Z " />
<glyph glyph-name="imacron" unicode="&#x12b;" horiz-adv-x="381" d="M219 0 L219 1082 L171 1082 L171 0 L219 0 Z M441 1370 L441 1423 L-44 1423 L-44 1370 L441 1370 Z " />
<glyph glyph-name="Iogonek" unicode="&#x12e;" horiz-adv-x="491" d="M276 -303 C255 -320 227 -341 182 -341 C120 -341 103 -295 103 -246 C103 -150 181 -75 263 0 L270 0 L270 1456 L221 1456 L221 16 C139 -57 55 -154 55 -246 C55 -347 105 -395 181 -395 C234 -395 268 -371 290 -351 L276 -303 Z " />
<glyph glyph-name="iogonek" unicode="&#x12f;" horiz-adv-x="395" d="M234 -303 C213 -320 185 -341 140 -341 C78 -341 61 -295 61 -246 C61 -150 139 -75 221 0 L223 0 L223 1082 L174 1082 L174 11 C93 -61 13 -156 13 -246 C13 -347 63 -395 139 -395 C192 -395 226 -371 248 -351 L234 -303 Z M198 1365 C226 1365 247 1389 247 1420 C247 1451 226 1476 198 1476 C172 1476 151 1451 151 1420 C151 1389 172 1365 198 1365 L198 1365 Z " />
<glyph glyph-name="Idotaccent" unicode="&#x130;" horiz-adv-x="491" d="M270 0 L270 1456 L221 1456 L221 0 L270 0 Z M246 1772 C216 1772 193 1747 193 1716 C193 1685 216 1661 246 1661 C275 1661 299 1685 299 1716 C299 1747 275 1772 246 1772 L246 1772 Z " />
<glyph glyph-name="dotlessi" unicode="&#x131;" horiz-adv-x="381" d="M219 0 L219 1082 L171 1082 L171 0 L219 0 Z " />
<glyph glyph-name="Kcommaaccent" unicode="&#x136;" horiz-adv-x="1182" d="M1001 0 L1064 0 L469 803 L1022 1456 L952 1456 L437 847 L235 615 L235 1456 L187 1456 L187 0 L235 0 L235 551 L433 765 L1001 0 Z M-140 -357 C-140 -444 -159 -499 -199 -565 L-167 -597 C-123 -540 -93 -460 -93 -355 L-93 -278 L-140 -278 L-140 -357 Z " />
<glyph glyph-name="kcommaaccent" unicode="&#x137;" horiz-adv-x="888" d="M832 0 L382 622 L805 1082 L736 1082 L319 627 L211 508 L211 1536 L163 1536 L163 0 L211 0 L211 449 L347 584 L769 0 L832 0 Z M-234 -353 C-234 -440 -253 -495 -293 -561 L-261 -593 C-217 -536 -187 -456 -187 -351 L-187 -274 L-234 -274 L-234 -353 Z " />
<glyph glyph-name="Lacute" unicode="&#x139;" horiz-adv-x="936" d="M236 54 L236 1456 L187 1456 L187 0 L873 0 L873 54 L236 54 Z M421 1792 L357 1792 L178 1526 L236 1526 L421 1792 Z " />
<glyph glyph-name="lacute" unicode="&#x13a;" horiz-adv-x="542" d="M224 1536 L174 1536 L174 259 C174 42 246 -20 364 -20 C388 -20 436 -18 461 -8 L453 43 C422 38 397 34 362 34 C288 34 224 69 224 259 L224 1536 Z M341 1916 L162 1650 L220 1650 L405 1916 L341 1916 Z " />
<glyph glyph-name="Lcommaaccent" unicode="&#x13b;" horiz-adv-x="967" d="M236 54 L236 1456 L187 1456 L187 0 L873 0 L873 54 L236 54 Z M-139 -457 C-139 -544 -158 -599 -198 -665 L-166 -697 C-122 -640 -92 -560 -92 -455 L-92 -378 L-139 -378 L-139 -457 Z " />
<glyph glyph-name="lcommaaccent" unicode="&#x13c;" horiz-adv-x="402" d="M224 1536 L174 1536 L174 259 C174 42 246 -20 364 -20 C388 -20 436 -18 461 -8 L453 43 C422 38 397 34 362 34 C288 34 224 69 224 259 L224 1536 Z M-457 -455 L-457 -378 L-504 -378 L-504 -457 C-504 -544 -523 -599 -563 -665 L-531 -697 C-487 -640 -457 -560 -457 -455 L-457 -455 Z " />
<glyph glyph-name="Lcaron" unicode="&#x13d;" horiz-adv-x="967" d="M236 54 L236 1456 L187 1456 L187 0 L873 0 L873 54 L236 54 Z M-129 1087 C-129 1000 -148 945 -188 879 L-156 847 C-112 904 -82 984 -82 1089 L-82 1166 L-129 1166 L-129 1087 Z " />
<glyph glyph-name="lcaron" unicode="&#x13e;" horiz-adv-x="536" d="M224 1536 L174 1536 L174 259 C174 42 246 -20 364 -20 C388 -20 436 -18 461 -8 L453 43 C422 38 397 34 362 34 C288 34 224 69 224 259 L224 1536 Z M-216 1170 L-216 1247 L-263 1247 L-263 1168 C-263 1081 -282 1026 -322 960 L-290 928 C-246 985 -216 1065 -216 1170 L-216 1170 Z " />
<glyph glyph-name="Lslash" unicode="&#x141;" horiz-adv-x="970" d="M235 54 L235 736 L528 845 L528 902 L235 793 L235 1456 L186 1456 L186 775 L24 715 L24 658 L186 718 L186 0 L872 0 L872 54 L235 54 Z " />
<glyph glyph-name="lslash" unicode="&#x142;" horiz-adv-x="476" d="M499 43 C468 38 443 34 408 34 C334 34 270 69 270 259 L270 795 L433 871 L433 930 L270 854 L270 1536 L220 1536 L220 831 L31 743 L31 684 L220 772 L220 259 C220 42 292 -20 410 -20 C434 -20 482 -18 507 -8 L499 43 Z " />
<glyph glyph-name="Nacute" unicode="&#x143;" horiz-adv-x="1270" d="M1083 0 L1083 1456 L1035 1456 L1035 95 L236 1456 L187 1456 L187 0 L236 0 L236 1364 L1034 0 L1083 0 Z M777 1855 L598 1589 L656 1589 L841 1855 L777 1855 Z " />
<glyph glyph-name="nacute" unicode="&#x144;" horiz-adv-x="990" d="M538 1102 C383 1102 267 984 211 833 L211 1082 L163 1082 L163 0 L211 0 L211 694 C238 835 334 1049 535 1049 C680 1049 783 975 783 700 L783 0 L831 0 L831 700 C831 987 724 1102 538 1102 L538 1102 Z M715 1533 L651 1533 L472 1267 L530 1267 L715 1533 Z " />
<glyph glyph-name="Ncommaaccent" unicode="&#x145;" horiz-adv-x="1315" d="M1083 0 L1083 1456 L1035 1456 L1035 95 L236 1456 L187 1456 L187 0 L236 0 L236 1364 L1034 0 L1083 0 Z M-2 -455 L-2 -378 L-49 -378 L-49 -457 C-49 -544 -68 -599 -108 -665 L-76 -697 C-32 -640 -2 -560 -2 -455 L-2 -455 Z " />
<glyph glyph-name="ncommaaccent" unicode="&#x146;" horiz-adv-x="1024" d="M538 1102 C383 1102 267 984 211 833 L211 1082 L163 1082 L163 0 L211 0 L211 694 C238 835 334 1049 535 1049 C680 1049 783 975 783 700 L783 0 L831 0 L831 700 C831 987 724 1102 538 1102 L538 1102 Z M-180 -457 C-180 -544 -199 -599 -239 -665 L-207 -697 C-163 -640 -133 -560 -133 -455 L-133 -378 L-180 -378 L-180 -457 Z " />
<glyph glyph-name="Ncaron" unicode="&#x147;" horiz-adv-x="1270" d="M1083 0 L1083 1456 L1035 1456 L1035 95 L236 1456 L187 1456 L187 0 L236 0 L236 1364 L1034 0 L1083 0 Z M636 1613 L472 1830 L421 1830 L421 1819 L609 1567 L661 1567 L847 1817 L847 1830 L801 1830 L636 1613 Z " />
<glyph glyph-name="ncaron" unicode="&#x148;" horiz-adv-x="990" d="M538 1102 C383 1102 267 984 211 833 L211 1082 L163 1082 L163 0 L211 0 L211 694 C238 835 334 1049 535 1049 C680 1049 783 975 783 700 L783 0 L831 0 L831 700 C831 987 724 1102 538 1102 L538 1102 Z M535 1245 L721 1495 L721 1508 L675 1508 L510 1291 L346 1508 L295 1508 L295 1497 L483 1245 L535 1245 Z " />
<glyph glyph-name="Eng" unicode="&#x14a;" horiz-adv-x="1272" d="M1036 1456 L1036 95 L236 1456 L187 1456 L187 0 L236 0 L236 1361 L1036 0 L1036 -89 C1036 -277 964 -383 840 -383 C808 -383 774 -373 755 -365 L744 -417 C777 -430 805 -437 840 -437 C992 -437 1084 -314 1084 -89 L1084 1456 L1036 1456 Z " />
<glyph glyph-name="eng" unicode="&#x14b;" horiz-adv-x="990" d="M529 1102 C369 1102 265 1010 210 861 L204 1082 L161 1082 L161 0 L210 0 L210 691 C236 878 322 1048 530 1048 C672 1048 784 962 784 639 L784 -89 C784 -277 712 -384 588 -384 C549 -384 506 -373 485 -365 L474 -417 C513 -430 547 -437 588 -437 C740 -437 831 -314 831 -89 L831 637 C831 966 728 1102 529 1102 L529 1102 Z " />
<glyph glyph-name="Omacron" unicode="&#x14c;" horiz-adv-x="1199" d="M1064 563 L1064 893 C1064 1256 884 1476 598 1476 C313 1476 135 1256 135 893 L135 563 C135 200 315 -21 600 -21 C886 -21 1064 200 1064 563 L1064 563 Z M839 1734 L839 1787 L354 1787 L354 1734 L839 1734 Z M1015 895 L1015 563 C1015 237 866 33 600 33 C335 33 184 237 184 563 L184 895 C184 1219 333 1422 598 1422 C865 1422 1015 1219 1015 895 L1015 895 Z " />
<glyph glyph-name="omacron" unicode="&#x14d;" horiz-adv-x="993" d="M105 590 L105 492 C105 176 258 -21 498 -21 C737 -21 888 176 888 492 L888 590 C888 906 737 1102 496 1102 C258 1102 105 906 105 590 L105 590 Z M746 1391 L746 1444 L261 1444 L261 1391 L746 1391 Z M153 492 L153 590 C153 841 273 1048 496 1048 C720 1048 840 841 840 590 L840 492 C840 235 721 33 498 33 C273 33 153 235 153 492 L153 492 Z " />
<glyph glyph-name="Ohungarumlaut" unicode="&#x150;" horiz-adv-x="1199" d="M1064 563 L1064 893 C1064 1256 884 1476 598 1476 C313 1476 135 1256 135 893 L135 563 C135 200 315 -21 600 -21 C886 -21 1064 200 1064 563 L1064 563 Z M637 1876 L436 1572 L496 1572 L703 1876 L637 1876 Z M877 1876 L637 1572 L701 1572 L946 1876 L877 1876 Z M1015 895 L1015 563 C1015 237 866 33 600 33 C335 33 184 237 184 563 L184 895 C184 1219 333 1422 598 1422 C865 1422 1015 1219 1015 895 L1015 895 Z " />
<glyph glyph-name="ohungarumlaut" unicode="&#x151;" horiz-adv-x="993" d="M105 590 L105 492 C105 176 258 -21 498 -21 C737 -21 888 176 888 492 L888 590 C888 906 737 1102 496 1102 C258 1102 105 906 105 590 L105 590 Z M544 1533 L343 1229 L403 1229 L610 1533 L544 1533 Z M784 1533 L544 1229 L608 1229 L853 1533 L784 1533 Z M153 492 L153 590 C153 841 273 1048 496 1048 C720 1048 840 841 840 590 L840 492 C840 235 721 33 498 33 C273 33 153 235 153 492 L153 492 Z " />
<glyph glyph-name="OE" unicode="&#x152;" horiz-adv-x="1691" d="M1558 1402 L1558 1456 L837 1456 C750 1467 654 1476 554 1476 C291 1476 112 1233 112 880 L112 576 C112 223 293 -21 556 -21 C655 -21 750 -10 837 0 L1558 0 L1558 54 L850 54 L850 722 L1472 722 L1472 776 L850 776 L850 1402 L1558 1402 Z M160 576 L160 882 C160 1205 314 1422 554 1422 C642 1422 726 1420 802 1409 L802 47 C729 37 637 33 556 33 C316 33 160 260 160 576 L160 576 Z " />
<glyph glyph-name="oe" unicode="&#x153;" horiz-adv-x="1674" d="M909 577 L1599 577 L1599 660 C1599 935 1451 1102 1245 1102 C1077 1102 936 965 883 753 C831 965 690 1102 501 1102 C261 1102 96 879 96 562 L96 520 C96 203 261 -20 501 -20 C689 -20 830 116 882 327 C936 118 1085 -20 1249 -20 C1394 -20 1496 32 1565 123 L1540 165 C1477 81 1392 34 1249 34 C1055 34 909 241 909 500 L909 564 L909 577 Z M856 520 C856 261 725 34 501 34 C275 34 144 261 144 520 L144 562 C144 815 275 1048 501 1048 C725 1048 856 815 856 562 L856 520 Z M1245 1048 C1429 1048 1551 881 1551 664 L1551 631 L912 631 C932 867 1060 1048 1245 1048 L1245 1048 Z " />
<glyph glyph-name="Racute" unicode="&#x154;" horiz-adv-x="1177" d="M709 637 C864 671 988 829 988 1036 C988 1307 817 1456 580 1456 L183 1456 L183 0 L232 0 L232 623 L658 623 L988 0 L1040 0 L1040 14 L709 637 Z M739 1855 L675 1855 L496 1589 L554 1589 L739 1855 Z M232 677 L232 1402 L580 1402 C799 1402 939 1265 939 1036 C939 855 832 677 621 677 L232 677 Z " />
<glyph glyph-name="racute" unicode="&#x155;" horiz-adv-x="619" d="M511 1102 C361 1102 262 1008 211 859 L211 1082 L163 1082 L163 0 L211 0 L211 706 C240 902 340 1049 511 1049 C532 1049 554 1046 571 1043 L576 1091 C561 1097 539 1102 511 1102 L511 1102 Z M574 1533 L510 1533 L331 1267 L389 1267 L574 1533 Z " />
<glyph glyph-name="Rcommaaccent" unicode="&#x156;" horiz-adv-x="1218" d="M709 637 C864 671 988 829 988 1036 C988 1307 817 1456 580 1456 L183 1456 L183 0 L232 0 L232 623 L658 623 L988 0 L1040 0 L1040 14 L709 637 Z M-155 -457 C-155 -544 -174 -599 -214 -665 L-182 -697 C-138 -640 -108 -560 -108 -455 L-108 -378 L-155 -378 L-155 -457 Z M232 677 L232 1402 L580 1402 C799 1402 939 1265 939 1036 C939 855 832 677 621 677 L232 677 Z " />
<glyph glyph-name="rcommaaccent" unicode="&#x157;" horiz-adv-x="636" d="M511 1102 C361 1102 262 1008 211 859 L211 1082 L163 1082 L163 0 L211 0 L211 706 C240 902 340 1049 511 1049 C532 1049 554 1046 571 1043 L576 1091 C561 1097 539 1102 511 1102 L511 1102 Z M-516 -448 C-516 -535 -535 -590 -575 -656 L-543 -688 C-499 -631 -469 -551 -469 -446 L-469 -369 L-516 -369 L-516 -448 Z " />
<glyph glyph-name="Rcaron" unicode="&#x158;" horiz-adv-x="1177" d="M709 637 C864 671 988 829 988 1036 C988 1307 817 1456 580 1456 L183 1456 L183 0 L232 0 L232 623 L658 623 L988 0 L1040 0 L1040 14 L709 637 Z M559 1567 L745 1817 L745 1830 L699 1830 L534 1613 L370 1830 L319 1830 L319 1819 L507 1567 L559 1567 Z M232 677 L232 1402 L580 1402 C799 1402 939 1265 939 1036 C939 855 832 677 621 677 L232 677 Z " />
<glyph glyph-name="rcaron" unicode="&#x159;" horiz-adv-x="619" d="M211 859 L211 1082 L163 1082 L163 0 L211 0 L211 706 C240 902 340 1049 511 1049 C532 1049 554 1046 571 1043 L576 1091 C561 1097 539 1102 511 1102 C361 1102 262 1008 211 859 L211 859 Z M534 1508 L369 1291 L205 1508 L154 1508 L154 1497 L342 1245 L394 1245 L580 1495 L580 1508 L534 1508 Z " />
<glyph glyph-name="Sacute" unicode="&#x15a;" horiz-adv-x="1067" d="M547 718 C829 628 929 533 929 349 C929 162 774 34 556 34 C378 34 147 120 147 411 L99 411 C99 85 344 -20 556 -20 C789 -20 979 113 979 351 C979 596 807 695 561 770 C266 860 187 967 187 1122 C187 1280 318 1422 551 1422 C771 1422 917 1261 917 1046 L965 1046 C965 1303 793 1476 551 1476 C316 1476 138 1342 138 1120 C138 886 295 799 547 718 L547 718 Z M697 1876 L518 1610 L576 1610 L761 1876 L697 1876 Z " />
<glyph glyph-name="sacute" unicode="&#x15b;" horiz-adv-x="904" d="M447 530 C668 442 730 356 730 258 C730 145 634 34 454 34 C320 34 167 82 155 268 L107 268 C107 109 229 -20 454 -20 C652 -20 779 90 779 257 C779 428 666 495 466 576 C233 675 185 733 185 834 C185 935 261 1048 447 1048 C629 1048 729 930 729 796 L777 796 C777 980 653 1102 447 1102 C253 1102 138 983 138 832 C138 674 246 611 447 530 L447 530 Z M595 1533 L416 1267 L474 1267 L659 1533 L595 1533 Z " />
<glyph glyph-name="Scedilla" unicode="&#x15e;" horiz-adv-x="1067" d="M979 351 C979 596 807 695 561 770 C266 860 187 967 187 1122 C187 1280 318 1422 551 1422 C771 1422 917 1261 917 1046 L965 1046 C965 1303 793 1476 551 1476 C316 1476 138 1342 138 1120 C138 886 295 799 547 718 C829 628 929 533 929 349 C929 162 774 34 556 34 C378 34 147 120 147 411 L99 411 C99 98 325 -12 531 -20 L511 -131 C617 -144 672 -167 672 -255 C672 -354 562 -396 471 -396 L477 -445 C628 -445 720 -369 720 -255 C720 -134 646 -95 570 -86 L578 -20 C801 -12 979 120 979 351 L979 351 Z " />
<glyph glyph-name="scedilla" unicode="&#x15f;" horiz-adv-x="904" d="M779 257 C779 428 666 495 466 576 C233 675 185 733 185 834 C185 935 261 1048 447 1048 C629 1048 729 930 729 796 L777 796 C777 980 653 1102 447 1102 C253 1102 138 983 138 832 C138 674 246 611 447 530 C668 442 730 356 730 258 C730 145 634 34 454 34 C320 34 167 82 155 268 L107 268 C107 115 220 -10 429 -19 L410 -126 C516 -139 571 -162 571 -250 C571 -349 461 -391 370 -391 L376 -440 C527 -440 619 -364 619 -250 C619 -129 545 -90 469 -81 L476 -20 C661 -12 779 96 779 257 L779 257 Z " />
<glyph glyph-name="Scaron" unicode="&#x160;" horiz-adv-x="1067" d="M547 718 C829 628 929 533 929 349 C929 162 774 34 556 34 C378 34 147 120 147 411 L99 411 C99 85 344 -20 556 -20 C789 -20 979 113 979 351 C979 596 807 695 561 770 C266 860 187 967 187 1122 C187 1280 318 1422 551 1422 C771 1422 917 1261 917 1046 L965 1046 C965 1303 793 1476 551 1476 C316 1476 138 1342 138 1120 C138 886 295 799 547 718 L547 718 Z M556 1634 L392 1851 L341 1851 L341 1840 L529 1588 L581 1588 L767 1838 L767 1851 L721 1851 L556 1634 Z " />
<glyph glyph-name="scaron" unicode="&#x161;" horiz-adv-x="904" d="M447 530 C668 442 730 356 730 258 C730 145 634 34 454 34 C320 34 167 82 155 268 L107 268 C107 109 229 -20 454 -20 C652 -20 779 90 779 257 C779 428 666 495 466 576 C233 675 185 733 185 834 C185 935 261 1048 447 1048 C629 1048 729 930 729 796 L777 796 C777 980 653 1102 447 1102 C253 1102 138 983 138 832 C138 674 246 611 447 530 L447 530 Z M454 1291 L290 1508 L239 1508 L239 1497 L427 1245 L479 1245 L665 1495 L665 1508 L619 1508 L454 1291 Z " />
<glyph glyph-name="uni0162" unicode="&#x162;" horiz-adv-x="1078" d="M563 1402 L1014 1402 L1014 1456 L63 1456 L63 1402 L515 1402 L515 0 L517 0 L495 -121 C601 -134 656 -157 656 -245 C656 -344 546 -386 455 -386 L461 -435 C612 -435 704 -359 704 -245 C704 -124 630 -85 554 -76 L563 0 L563 1402 Z " />
<glyph glyph-name="uni0163" unicode="&#x163;" horiz-adv-x="587" d="M385 -76 L392 -20 L409 -20 C434 -20 481 -18 506 -8 L498 43 C467 38 442 34 407 34 C333 34 269 69 269 259 L269 1027 L478 1027 L478 1082 L269 1082 L269 1374 L220 1374 L220 1082 L50 1082 L50 1027 L220 1027 L220 259 C220 84 266 10 346 -12 L326 -121 C432 -134 487 -157 487 -245 C487 -344 377 -386 286 -386 L292 -435 C443 -435 535 -359 535 -245 C535 -124 461 -85 385 -76 L385 -76 Z " />
<glyph glyph-name="Tcaron" unicode="&#x164;" horiz-adv-x="1078" d="M1014 1456 L63 1456 L63 1402 L515 1402 L515 0 L563 0 L563 1402 L1014 1402 L1014 1456 Z M562 1559 L748 1809 L748 1822 L702 1822 L537 1605 L373 1822 L322 1822 L322 1811 L510 1559 L562 1559 Z " />
<glyph glyph-name="tcaron" unicode="&#x165;" horiz-adv-x="639" d="M498 43 C467 38 442 34 407 34 C333 34 269 69 269 259 L269 1027 L478 1027 L478 1082 L269 1082 L269 1374 L220 1374 L220 1082 L50 1082 L50 1027 L220 1027 L220 259 C220 42 291 -20 409 -20 C434 -20 481 -18 506 -8 L498 43 Z M-209 1192 C-209 1105 -228 1050 -268 984 L-236 952 C-192 1009 -162 1089 -162 1194 L-162 1271 L-209 1271 L-209 1192 Z " />
<glyph glyph-name="Tbar" unicode="&#x166;" horiz-adv-x="1078" d="M1014 1402 L1014 1456 L63 1456 L63 1402 L515 1402 L515 901 L274 901 L274 847 L515 847 L515 0 L563 0 L563 847 L776 847 L776 901 L563 901 L563 1402 L1014 1402 Z " />
<glyph glyph-name="tbar" unicode="&#x167;" horiz-adv-x="587" d="M554 634 L554 688 L269 688 L269 1027 L478 1027 L478 1082 L269 1082 L269 1374 L220 1374 L220 1082 L50 1082 L50 1027 L220 1027 L220 688 L52 688 L52 634 L220 634 L220 259 C220 42 291 -20 409 -20 C434 -20 481 -18 506 -8 L498 43 C467 38 442 34 407 34 C333 34 269 69 269 259 L269 634 L554 634 Z " />
<glyph glyph-name="Utilde" unicode="&#x168;" horiz-adv-x="1199" d="M1024 1456 L976 1456 L976 441 C976 160 813 33 600 33 C385 33 223 160 223 441 L223 1456 L174 1456 L174 441 C174 114 357 -21 600 -21 C842 -21 1024 114 1024 441 L1024 1456 Z M891 1806 L844 1806 C844 1722 797 1675 741 1675 C645 1675 614 1799 496 1799 C410 1799 346 1730 346 1620 L393 1620 C393 1704 439 1745 496 1745 C597 1745 618 1620 741 1620 C825 1620 891 1695 891 1806 L891 1806 Z " />
<glyph glyph-name="utilde" unicode="&#x169;" horiz-adv-x="991" d="M780 1082 L780 313 C753 160 664 34 462 34 C316 34 208 128 208 393 L208 1082 L160 1082 L160 395 C160 93 283 -20 464 -20 C623 -20 725 54 780 171 L781 0 L830 0 L830 1082 L780 1082 Z M397 1426 C498 1426 519 1301 642 1301 C726 1301 792 1376 792 1487 L745 1487 C745 1403 698 1356 642 1356 C546 1356 515 1480 397 1480 C311 1480 247 1411 247 1301 L294 1301 C294 1385 340 1426 397 1426 L397 1426 Z " />
<glyph glyph-name="Umacron" unicode="&#x16a;" horiz-adv-x="1199" d="M1024 1456 L976 1456 L976 441 C976 160 813 33 600 33 C385 33 223 160 223 441 L223 1456 L174 1456 L174 441 C174 114 357 -21 600 -21 C842 -21 1024 114 1024 441 L1024 1456 Z M856 1713 L856 1766 L371 1766 L371 1713 L856 1713 Z " />
<glyph glyph-name="umacron" unicode="&#x16b;" horiz-adv-x="991" d="M780 1082 L780 313 C753 160 664 34 462 34 C316 34 208 128 208 393 L208 1082 L160 1082 L160 395 C160 93 283 -20 464 -20 C623 -20 725 54 780 171 L781 0 L830 0 L830 1082 L780 1082 Z M757 1447 L272 1447 L272 1394 L757 1394 L757 1447 Z " />
<glyph glyph-name="Uring" unicode="&#x16e;" horiz-adv-x="1199" d="M1024 1456 L976 1456 L976 441 C976 160 813 33 600 33 C385 33 223 160 223 441 L223 1456 L174 1456 L174 441 C174 114 357 -21 600 -21 C842 -21 1024 114 1024 441 L1024 1456 Z M613 1875 C523 1875 452 1799 452 1701 C452 1603 523 1531 613 1531 C703 1531 774 1603 774 1701 C774 1799 703 1875 613 1875 L613 1875 Z M613 1585 C549 1585 503 1632 503 1701 C503 1772 549 1821 613 1821 C677 1821 723 1772 723 1701 C723 1632 677 1585 613 1585 L613 1585 Z " />
<glyph glyph-name="uring" unicode="&#x16f;" horiz-adv-x="991" d="M780 1082 L780 313 C753 160 664 34 462 34 C316 34 208 128 208 393 L208 1082 L160 1082 L160 395 C160 93 283 -20 464 -20 C623 -20 725 54 780 171 L781 0 L830 0 L830 1082 L780 1082 Z M514 1212 C604 1212 675 1284 675 1382 C675 1480 604 1556 514 1556 C424 1556 353 1480 353 1382 C353 1284 424 1212 514 1212 L514 1212 Z M514 1502 C578 1502 624 1453 624 1382 C624 1313 578 1266 514 1266 C450 1266 404 1313 404 1382 C404 1453 450 1502 514 1502 L514 1502 Z " />
<glyph glyph-name="Uhungarumlaut" unicode="&#x170;" horiz-adv-x="1199" d="M1024 1456 L976 1456 L976 441 C976 160 813 33 600 33 C385 33 223 160 223 441 L223 1456 L174 1456 L174 441 C174 114 357 -21 600 -21 C842 -21 1024 114 1024 441 L1024 1456 Z M654 1855 L453 1551 L513 1551 L720 1855 L654 1855 Z M894 1855 L654 1551 L718 1551 L963 1855 L894 1855 Z " />
<glyph glyph-name="uhungarumlaut" unicode="&#x171;" horiz-adv-x="991" d="M780 313 C753 160 664 34 462 34 C316 34 208 128 208 393 L208 1082 L160 1082 L160 395 C160 93 283 -20 464 -20 C623 -20 725 54 780 171 L781 0 L830 0 L830 1082 L780 1082 L780 313 Z M621 1536 L555 1536 L354 1232 L414 1232 L621 1536 Z M619 1232 L864 1536 L795 1536 L555 1232 L619 1232 Z " />
<glyph glyph-name="Uogonek" unicode="&#x172;" horiz-adv-x="1199" d="M976 1456 L976 441 C976 160 813 33 600 33 C385 33 223 160 223 441 L223 1456 L174 1456 L174 441 C174 114 357 -21 600 -21 C640 -21 677 -17 713 -10 C655 -72 608 -144 608 -213 C608 -314 658 -362 734 -362 C787 -362 821 -338 843 -318 L829 -270 C808 -287 780 -308 735 -308 C673 -308 656 -262 656 -213 C656 -124 723 -53 799 17 C935 78 1024 212 1024 441 L1024 1456 L976 1456 Z " />
<glyph glyph-name="uogonek" unicode="&#x173;" horiz-adv-x="991" d="M842 -303 C821 -320 793 -341 748 -341 C686 -341 669 -295 669 -246 C669 -150 747 -75 829 0 L830 0 L830 1082 L780 1082 L780 313 C753 160 664 34 462 34 C316 34 208 128 208 393 L208 1082 L160 1082 L160 395 C160 93 283 -20 464 -20 C623 -20 725 54 780 171 L781 10 C701 -62 621 -156 621 -246 C621 -347 671 -395 747 -395 C800 -395 834 -371 856 -351 L842 -303 Z " />
<glyph glyph-name="Wcircumflex" unicode="&#x174;" horiz-adv-x="1616" d="M1494 1456 L1239 330 L1182 92 L1127 330 L836 1456 L783 1456 L490 330 L435 92 L379 330 L123 1456 L69 1456 L404 0 L459 0 L768 1214 L810 1366 L851 1214 L1159 0 L1213 0 L1547 1456 L1494 1456 Z M807 1779 L965 1583 L1025 1583 L1025 1593 L825 1836 L789 1836 L593 1597 L593 1583 L649 1583 L807 1779 Z " />
<glyph glyph-name="wcircumflex" unicode="&#x175;" horiz-adv-x="1356" d="M1204 1082 L1017 313 L966 82 L905 313 L698 1082 L650 1082 L442 313 L381 84 L331 313 L143 1082 L88 1082 L355 0 L403 0 L627 813 L674 1003 L716 813 L943 0 L991 0 L1259 1082 L1204 1082 Z M671 1460 L829 1264 L889 1264 L889 1274 L689 1517 L653 1517 L457 1278 L457 1264 L513 1264 L671 1460 Z " />
<glyph glyph-name="Ycircumflex" unicode="&#x176;" horiz-adv-x="1078" d="M537 602 L109 1456 L45 1456 L513 553 L513 0 L561 0 L561 553 L1029 1456 L970 1456 L537 602 Z M755 1582 L555 1825 L519 1825 L323 1586 L323 1572 L379 1572 L537 1768 L695 1572 L755 1572 L755 1582 Z " />
<glyph glyph-name="ycircumflex" unicode="&#x177;" horiz-adv-x="868" d="M770 1082 L451 104 L445 86 L106 1082 L53 1082 L421 6 L366 -170 C327 -295 276 -384 162 -384 C151 -384 117 -380 100 -375 L101 -426 C114 -433 150 -437 170 -437 C338 -437 383 -271 413 -180 L822 1082 L770 1082 Z M459 1460 L617 1264 L677 1264 L677 1274 L477 1517 L441 1517 L245 1278 L245 1264 L301 1264 L459 1460 Z " />
<glyph glyph-name="Ydieresis" unicode="&#x178;" horiz-adv-x="1078" d="M537 602 L109 1456 L45 1456 L513 553 L513 0 L561 0 L561 553 L1029 1456 L970 1456 L537 602 Z M327 1785 C296 1785 274 1760 274 1729 C274 1698 296 1674 327 1674 C356 1674 379 1698 379 1729 C379 1760 356 1785 327 1785 L327 1785 Z M746 1785 C716 1785 694 1760 694 1729 C694 1698 716 1674 746 1674 C776 1674 800 1698 800 1729 C800 1760 776 1785 746 1785 L746 1785 Z " />
<glyph glyph-name="Zacute" unicode="&#x179;" horiz-adv-x="1078" d="M161 54 L954 1418 L954 1456 L131 1456 L131 1403 L889 1403 L97 44 L97 0 L981 0 L981 54 L161 54 Z M741 1855 L677 1855 L498 1589 L556 1589 L741 1855 Z " />
<glyph glyph-name="zacute" unicode="&#x17a;" horiz-adv-x="869" d="M155 54 L761 1034 L761 1082 L118 1082 L118 1027 L697 1027 L91 44 L91 0 L810 0 L810 54 L155 54 Z M657 1536 L593 1536 L414 1270 L472 1270 L657 1536 Z " />
<glyph glyph-name="Zdotaccent" unicode="&#x17b;" horiz-adv-x="1078" d="M161 54 L954 1418 L954 1456 L131 1456 L131 1403 L889 1403 L97 44 L97 0 L981 0 L981 54 L161 54 Z M536 1661 C565 1661 589 1685 589 1716 C589 1747 565 1772 536 1772 C506 1772 483 1747 483 1716 C483 1685 506 1661 536 1661 L536 1661 Z " />
<glyph glyph-name="zdotaccent" unicode="&#x17c;" horiz-adv-x="869" d="M155 54 L761 1034 L761 1082 L118 1082 L118 1027 L697 1027 L91 44 L91 0 L810 0 L810 54 L155 54 Z M452 1342 C481 1342 505 1366 505 1397 C505 1428 481 1453 452 1453 C422 1453 399 1428 399 1397 C399 1366 422 1342 452 1342 L452 1342 Z " />
<glyph glyph-name="Zcaron" unicode="&#x17d;" horiz-adv-x="1078" d="M161 54 L954 1418 L954 1456 L131 1456 L131 1403 L889 1403 L97 44 L97 0 L981 0 L981 54 L161 54 Z M561 1567 L747 1817 L747 1830 L701 1830 L536 1613 L372 1830 L321 1830 L321 1819 L509 1567 L561 1567 Z " />
<glyph glyph-name="zcaron" unicode="&#x17e;" horiz-adv-x="869" d="M155 54 L761 1034 L761 1082 L118 1082 L118 1027 L697 1027 L91 44 L91 0 L810 0 L810 54 L155 54 Z M477 1248 L663 1498 L663 1511 L617 1511 L452 1294 L288 1511 L237 1511 L237 1500 L425 1248 L477 1248 Z " />
<glyph glyph-name="florin" unicode="&#x192;" horiz-adv-x="584" d="M523 1027 L523 1082 L280 1082 L280 1236 C280 1405 355 1503 476 1503 C522 1503 544 1498 577 1488 L584 1540 C547 1553 510 1557 474 1557 C323 1557 233 1443 233 1236 L233 1082 L72 1082 L72 1027 L233 1027 L233 -89 C233 -277 162 -383 36 -383 C4 -383 -31 -373 -48 -365 L-60 -417 C-26 -430 2 -437 36 -437 C190 -437 280 -314 280 -89 L280 1027 L523 1027 Z " />
<glyph glyph-name="Ohorn" unicode="&#x1a0;" horiz-adv-x="1317" d="M1263 1541 L1215 1541 C1215 1357 1177 1250 1023 1239 C945 1391 808 1476 630 1476 C345 1476 167 1256 167 893 L167 563 C167 200 347 -21 632 -21 C918 -21 1096 200 1096 563 L1096 893 C1096 1006 1079 1104 1046 1187 C1205 1208 1263 1330 1263 1541 L1263 1541 Z M1047 563 C1047 237 898 33 632 33 C367 33 216 237 216 563 L216 895 C216 1219 365 1422 630 1422 C897 1422 1047 1219 1047 895 L1047 563 Z " />
<glyph glyph-name="ohorn" unicode="&#x1a1;" horiz-adv-x="1024" d="M1006 1196 L957 1196 C957 1049 931 963 795 954 C727 1049 626 1102 501 1102 C263 1102 110 906 110 590 L110 492 C110 176 263 -21 503 -21 C742 -21 893 176 893 492 L893 590 C893 714 870 820 826 903 C960 924 1006 1025 1006 1196 L1006 1196 Z M845 492 C845 235 726 33 503 33 C278 33 158 235 158 492 L158 590 C158 841 278 1048 501 1048 C725 1048 845 841 845 590 L845 492 Z " />
<glyph glyph-name="Uhorn" unicode="&#x1af;" horiz-adv-x="1241" d="M1270 1551 L1224 1551 C1224 1367 1186 1260 1030 1249 L1030 1456 L982 1456 L982 441 C982 160 819 33 606 33 C391 33 229 160 229 441 L229 1456 L180 1456 L180 441 C180 114 363 -21 606 -21 C848 -21 1030 114 1030 441 L1030 1195 C1208 1207 1270 1331 1270 1551 L1270 1551 Z " />
<glyph glyph-name="uhorn" unicode="&#x1b0;" horiz-adv-x="1034" d="M1031 1190 L982 1190 C982 1048 958 963 836 948 L836 1082 L786 1082 L786 313 C759 160 670 34 468 34 C322 34 214 128 214 393 L214 1082 L166 1082 L166 395 C166 93 289 -20 470 -20 C629 -20 731 54 786 171 L787 0 L836 0 L836 894 C983 909 1031 1012 1031 1190 L1031 1190 Z " />
<glyph glyph-name="Scommaaccent" unicode="&#x218;" horiz-adv-x="1103" d="M547 718 C829 628 929 533 929 349 C929 162 774 34 556 34 C378 34 147 120 147 411 L99 411 C99 85 344 -20 556 -20 C789 -20 979 113 979 351 C979 596 807 695 561 770 C266 860 187 967 187 1122 C187 1280 318 1422 551 1422 C771 1422 917 1261 917 1046 L965 1046 C965 1303 793 1476 551 1476 C316 1476 138 1342 138 1120 C138 886 295 799 547 718 L547 718 Z M-85 -475 L-85 -398 L-132 -398 L-132 -477 C-132 -564 -151 -619 -191 -685 L-159 -717 C-115 -660 -85 -580 -85 -475 L-85 -475 Z " />
<glyph glyph-name="scommaaccent" unicode="&#x219;" horiz-adv-x="933" d="M447 530 C668 442 730 356 730 258 C730 145 634 34 454 34 C320 34 167 82 155 268 L107 268 C107 109 229 -20 454 -20 C652 -20 779 90 779 257 C779 428 666 495 466 576 C233 675 185 733 185 834 C185 935 261 1048 447 1048 C629 1048 729 930 729 796 L777 796 C777 980 653 1102 447 1102 C253 1102 138 983 138 832 C138 674 246 611 447 530 L447 530 Z M-192 -470 L-192 -393 L-239 -393 L-239 -472 C-239 -559 -258 -614 -298 -680 L-266 -712 C-222 -655 -192 -575 -192 -470 L-192 -470 Z " />
<glyph glyph-name="uni021A" unicode="&#x21a;" horiz-adv-x="1115" d="M1014 1456 L63 1456 L63 1402 L515 1402 L515 0 L563 0 L563 1402 L1014 1402 L1014 1456 Z M-150 -467 C-150 -554 -169 -609 -209 -675 L-177 -707 C-133 -650 -103 -570 -103 -465 L-103 -388 L-150 -388 L-150 -467 Z " />
<glyph glyph-name="uni021B" unicode="&#x21b;" horiz-adv-x="603" d="M498 43 C467 38 442 34 407 34 C333 34 269 69 269 259 L269 1027 L478 1027 L478 1082 L269 1082 L269 1374 L220 1374 L220 1082 L50 1082 L50 1027 L220 1027 L220 259 C220 42 291 -20 409 -20 C434 -20 481 -18 506 -8 L498 43 Z M-327 -467 C-327 -554 -346 -609 -386 -675 L-354 -707 C-310 -650 -280 -570 -280 -465 L-280 -388 L-327 -388 L-327 -467 Z " />
<glyph glyph-name="uni0298" unicode="&#x298;" horiz-adv-x="1240" d="M600 784 C572 784 551 759 551 728 C551 697 572 673 600 673 C626 673 648 697 648 728 C648 759 626 784 600 784 L600 784 Z M1070 563 L1070 893 C1070 1256 890 1476 604 1476 C319 1476 141 1256 141 893 L141 563 C141 200 321 -21 606 -21 C892 -21 1070 200 1070 563 L1070 563 Z M1021 895 L1021 563 C1021 237 872 33 606 33 C341 33 190 237 190 563 L190 895 C190 1219 339 1422 604 1422 C871 1422 1021 1219 1021 895 L1021 895 Z " />
<glyph glyph-name="uni02AA" unicode="&#x2aa;" horiz-adv-x="1089" d="M618 579 C384 641 339 714 339 831 C339 932 414 1048 600 1048 C782 1048 882 927 882 793 L931 793 C931 977 807 1102 600 1102 C407 1102 290 980 290 829 C290 652 396 584 603 532 C830 475 884 363 884 265 C884 152 788 33 618 33 C467 33 345 92 233 194 C231 214 230 235 230 259 L230 1536 L180 1536 L180 259 C180 42 252 -20 370 -20 C394 -20 442 -18 467 -8 L466 0 C512 -13 563 -21 618 -21 C806 -21 932 97 932 264 C932 439 832 522 618 579 L618 579 Z M368 34 C321 34 278 48 253 108 C284 84 325 57 375 34 L368 34 Z " />
<glyph glyph-name="uni02AD" unicode="&#x2ad;" horiz-adv-x="847" d="M727 581 L120 581 L120 0 L167 0 L167 527 L680 527 L680 0 L727 0 L727 581 Z M727 1455 L120 1455 L120 874 L167 874 L167 1401 L680 1401 L680 874 L727 874 L727 1455 Z " />
<glyph glyph-name="uni02AF" unicode="&#x2af;" horiz-adv-x="1218" d="M1215 -365 C1198 -373 1163 -383 1131 -383 C1006 -383 969 -276 969 -89 L969 1082 L921 1082 L921 392 C895 250 799 33 598 33 C452 33 349 115 349 422 L349 754 C349 979 292 1102 139 1102 C104 1102 76 1095 43 1082 L54 1030 C72 1038 107 1048 138 1048 C264 1048 300 941 300 754 L300 422 C300 107 408 -20 595 -20 C749 -20 865 98 921 249 L921 -89 C921 -314 979 -437 1130 -437 C1166 -437 1193 -430 1227 -417 L1215 -365 Z " />
<glyph glyph-name="uni02B5" unicode="&#x2b5;" horiz-adv-x="560" d="M438 436 C395 436 375 468 375 527 L375 1456 L327 1456 L327 937 C301 793 215 690 111 690 C85 690 64 692 51 694 L51 646 C64 643 83 641 110 641 C204 641 282 708 327 814 L327 525 C327 442 357 382 425 382 C449 382 480 386 509 396 L509 449 C481 438 457 436 438 436 L438 436 Z " />
<glyph glyph-name="uni02B9" unicode="&#x2b9;" horiz-adv-x="320" d="M186 1560 L85 1122 L128 1122 L235 1560 L186 1560 Z " />
<glyph glyph-name="uni02BA" unicode="&#x2ba;" horiz-adv-x="466" d="M192 1560 L91 1122 L134 1122 L241 1560 L192 1560 Z M337 1560 L236 1122 L279 1122 L386 1560 L337 1560 Z " />
<glyph glyph-name="uni02BB" unicode="&#x2bb;" horiz-adv-x="294" d="M85 1296 L85 1128 L133 1128 L133 1298 C133 1401 158 1468 209 1546 L177 1578 C122 1511 85 1419 85 1296 L85 1296 Z " />
<glyph glyph-name="uni02BC" unicode="&#x2bc;" horiz-adv-x="308" d="M212 1433 L212 1536 L164 1536 L164 1431 C164 1328 139 1261 89 1183 L121 1151 C175 1218 212 1310 212 1433 L212 1433 Z " />
<glyph glyph-name="uni02BD" unicode="&#x2bd;" horiz-adv-x="294" d="M85 1410 L85 1578 L133 1578 L133 1408 C133 1305 158 1238 209 1160 L177 1128 C122 1195 85 1287 85 1410 L85 1410 Z " />
<glyph glyph-name="uni02BE" unicode="&#x2be;" horiz-adv-x="284" d="M85 1259 L85 1203 C148 1203 199 1262 199 1338 C199 1414 148 1477 85 1477 L85 1420 C121 1420 149 1386 149 1338 C149 1292 121 1259 85 1259 L85 1259 Z " />
<glyph glyph-name="uni02BF" unicode="&#x2bf;" horiz-adv-x="284" d="M199 1259 L199 1203 C137 1203 85 1262 85 1338 C85 1414 137 1477 199 1477 L199 1420 C162 1420 134 1386 134 1338 C134 1292 162 1259 199 1259 L199 1259 Z " />
<glyph glyph-name="uni02C0" unicode="&#x2c0;" horiz-adv-x="669" d="M305 1806 C174 1806 56 1711 51 1527 L99 1527 C105 1686 205 1752 305 1752 C458 1752 536 1606 536 1407 L536 1313 C536 1112 472 952 304 952 L280 952 L280 651 L329 651 L329 899 C507 914 584 1088 584 1313 L584 1407 C584 1641 482 1806 305 1806 L305 1806 Z " />
<glyph glyph-name="uni02C1" unicode="&#x2c1;" horiz-adv-x="669" d="M363 1806 C186 1806 85 1641 85 1407 L85 1313 C85 1088 162 913 340 899 L340 651 L388 651 L388 952 L364 952 C196 952 133 1112 133 1313 L133 1407 C133 1606 210 1752 363 1752 C464 1752 564 1686 571 1527 L618 1527 C611 1711 495 1806 363 1806 L363 1806 Z " />
<glyph glyph-name="uni02C2" unicode="&#x2c2;" horiz-adv-x="790" d="M705 1269 L705 1329 L85 990 L85 936 L705 596 L705 655 L226 917 L132 963 L226 1006 L705 1269 Z " />
<glyph glyph-name="uni02C3" unicode="&#x2c3;" horiz-adv-x="764" d="M41 1329 L41 1269 L521 1006 L615 963 L521 917 L41 655 L41 596 L661 936 L661 990 L41 1329 Z " />
<glyph glyph-name="uni02C4" unicode="&#x2c4;" horiz-adv-x="753" d="M405 1310 L357 1310 L68 583 L120 583 L342 1146 L381 1255 L418 1146 L641 583 L694 583 L405 1310 Z " />
<glyph glyph-name="uni02C5" unicode="&#x2c5;" horiz-adv-x="778" d="M641 1310 L418 747 L381 638 L342 747 L120 1310 L68 1310 L357 583 L405 583 L694 1310 L641 1310 Z " />
<glyph glyph-name="circumflex" unicode="&#x2c6;" horiz-adv-x="716" d="M579 1274 L379 1517 L343 1517 L147 1278 L147 1264 L203 1264 L361 1460 L519 1264 L579 1264 L579 1274 Z " />
<glyph glyph-name="caron" unicode="&#x2c7;" horiz-adv-x="689" d="M357 1289 L193 1506 L142 1506 L142 1495 L330 1243 L382 1243 L568 1493 L568 1506 L522 1506 L357 1289 Z " />
<glyph glyph-name="uni02C8" unicode="&#x2c8;" horiz-adv-x="216" d="M131 1151 L131 1559 L85 1559 L85 1151 L131 1151 Z " />
<glyph glyph-name="uni02C9" unicode="&#x2c9;" horiz-adv-x="728" d="M621 1383 L621 1436 L136 1436 L136 1383 L621 1383 Z " />
<glyph glyph-name="uni02CA" unicode="&#x2ca;" horiz-adv-x="437" d="M288 1536 L109 1270 L167 1270 L352 1536 L288 1536 Z " />
<glyph glyph-name="uni02CB" unicode="&#x2cb;" horiz-adv-x="446" d="M376 1270 L199 1536 L134 1536 L319 1270 L376 1270 Z " />
<glyph glyph-name="uni02CC" unicode="&#x2cc;" horiz-adv-x="216" d="M131 -540 L131 -141 L85 -141 L85 -540 L131 -540 Z " />
<glyph glyph-name="uni02CD" unicode="&#x2cd;" horiz-adv-x="706" d="M610 -217 L610 -164 L125 -164 L125 -217 L610 -217 Z " />
<glyph glyph-name="uni02CE" unicode="&#x2ce;" horiz-adv-x="446" d="M376 -350 L199 -84 L134 -84 L319 -350 L376 -350 Z " />
<glyph glyph-name="uni02CF" unicode="&#x2cf;" horiz-adv-x="437" d="M288 -84 L109 -350 L167 -350 L352 -84 L288 -84 Z " />
<glyph glyph-name="uni02D0" unicode="&#x2d0;" horiz-adv-x="351" d="M171 101 C171 101 120 0 120 0 L232 0 C232 0 180 101 180 101 L171 101 Z M232 1062 C232 1062 120 1062 120 1062 L171 961 C171 961 180 961 180 961 L232 1062 Z " />
<glyph glyph-name="uni02D1" unicode="&#x2d1;" horiz-adv-x="351" d="M232 1062 C232 1062 120 1062 120 1062 L171 961 C171 961 180 961 180 961 L232 1062 Z " />
<glyph glyph-name="uni02D2" unicode="&#x2d2;" horiz-adv-x="284" d="M91 249 L91 193 C154 193 205 252 205 328 C205 404 154 467 91 467 L91 410 C127 410 155 376 155 328 C155 282 127 249 91 249 L91 249 Z " />
<glyph glyph-name="uni02D3" unicode="&#x2d3;" horiz-adv-x="284" d="M199 193 L199 249 C162 249 134 282 134 328 C134 376 162 410 199 410 L199 467 C137 467 85 404 85 328 C85 252 137 193 199 193 L199 193 Z " />
<glyph glyph-name="uni02D5" unicode="&#x2d5;" horiz-adv-x="519" d="M434 509 L85 509 L85 455 L236 455 L236 171 L283 171 L283 455 L434 455 L434 509 Z " />
<glyph glyph-name="uni02D6" unicode="&#x2d6;" horiz-adv-x="519" d="M434 383 L283 383 L283 559 L236 559 L236 383 L85 383 L85 329 L236 329 L236 151 L283 151 L283 329 L434 329 L434 383 Z " />
<glyph glyph-name="uni02D7" unicode="&#x2d7;" horiz-adv-x="552" d="M467 383 L85 383 L85 329 L467 329 L467 383 Z " />
<glyph glyph-name="breve" unicode="&#x2d8;" horiz-adv-x="821" d="M670 1486 L617 1486 C617 1383 556 1294 407 1294 C251 1294 195 1381 195 1486 L143 1486 C143 1340 243 1238 407 1238 C571 1238 670 1340 670 1486 L670 1486 Z " />
<glyph glyph-name="dotaccent" unicode="&#x2d9;" horiz-adv-x="410" d="M205 1453 C175 1453 152 1428 152 1397 C152 1366 175 1342 205 1342 C234 1342 258 1366 258 1397 C258 1428 234 1453 205 1453 L205 1453 Z " />
<glyph glyph-name="ring" unicode="&#x2da;" horiz-adv-x="566" d="M275 1556 C185 1556 114 1480 114 1382 C114 1284 185 1212 275 1212 C365 1212 436 1284 436 1382 C436 1480 365 1556 275 1556 L275 1556 Z M275 1266 C211 1266 165 1313 165 1382 C165 1453 211 1502 275 1502 C339 1502 385 1453 385 1382 C385 1313 339 1266 275 1266 L275 1266 Z " />
<glyph glyph-name="ogonek" unicode="&#x2db;" horiz-adv-x="437" d="M285 0 L248 20 C164 -53 77 -152 77 -246 C77 -347 127 -395 203 -395 C256 -395 290 -371 312 -351 L298 -303 C277 -320 249 -341 204 -341 C142 -341 125 -295 125 -246 C125 -150 203 -75 285 0 L285 0 Z " />
<glyph glyph-name="tilde" unicode="&#x2dc;" horiz-adv-x="733" d="M640 1472 L593 1472 C593 1388 546 1341 490 1341 C394 1341 363 1465 245 1465 C159 1465 95 1396 95 1286 L142 1286 C142 1370 188 1411 245 1411 C346 1411 367 1286 490 1286 C574 1286 640 1361 640 1472 L640 1472 Z " />
<glyph glyph-name="hungarumlaut" unicode="&#x2dd;" horiz-adv-x="703" d="M342 1536 L141 1232 L201 1232 L408 1536 L342 1536 Z M582 1536 L342 1232 L406 1232 L651 1536 L582 1536 Z " />
<glyph glyph-name="uni02DE" unicode="&#x2de;" horiz-adv-x="392" d="M-141 672 L-141 619 L71 676 C72 419 128 384 207 384 C237 384 271 395 307 411 L297 460 C268 450 235 440 209 440 C161 440 113 459 118 741 L-141 672 Z " />
<glyph glyph-name="uni02DF" unicode="&#x2df;" horiz-adv-x="547" d="M462 1566 L430 1604 L275 1417 L118 1606 L85 1567 L242 1378 L85 1189 L118 1151 L274 1339 L430 1152 L462 1191 L307 1379 L462 1566 Z " />
<glyph glyph-name="uni02E0" unicode="&#x2e0;" horiz-adv-x="667" d="M357 658 L616 1456 L563 1456 L368 842 L333 728 L299 842 L104 1456 L51 1456 L309 660 L251 507 C238 474 227 434 227 404 C227 326 269 283 333 283 C396 283 439 326 439 404 C439 431 431 467 417 503 L357 658 Z M333 337 C294 337 274 360 274 404 C274 441 287 485 313 552 L333 604 L353 551 C378 485 392 441 392 404 C392 360 371 337 333 337 L333 337 Z " />
<glyph glyph-name="uni02E1" unicode="&#x2e1;" horiz-adv-x="287" d="M168 651 L168 1805 L119 1805 L119 651 L168 651 Z " />
<glyph glyph-name="uni02E2" unicode="&#x2e2;" horiz-adv-x="666" d="M338 1040 C504 998 534 919 534 847 C534 763 475 689 342 689 C243 689 141 716 133 854 L85 854 C85 715 175 635 342 635 C489 635 582 722 582 846 C582 987 496 1050 354 1088 C174 1134 155 1194 155 1265 C155 1340 207 1412 337 1412 C470 1412 532 1337 532 1237 L581 1237 C581 1374 490 1466 336 1466 C193 1466 107 1376 107 1264 C107 1133 185 1079 338 1040 L338 1040 Z " />
<glyph glyph-name="uni02E4" unicode="&#x2e4;" horiz-adv-x="635" d="M320 1466 C182 1466 94 1349 94 1125 C94 939 150 826 287 811 L287 651 L334 651 L334 863 L324 863 C188 863 141 951 141 1125 C141 1303 197 1412 320 1412 C407 1412 493 1329 493 1169 L540 1169 C540 1353 437 1466 320 1466 L320 1466 Z " />
<glyph glyph-name="uni02EA" unicode="&#x2ea;" horiz-adv-x="747" d="M235 54 L235 908 L187 908 L187 0 L696 0 L696 54 L235 54 Z " />
<glyph glyph-name="uni02EE" unicode="&#x2ee;" horiz-adv-x="430" d="M209 1393 L209 1560 L161 1560 L161 1391 C161 1288 137 1221 85 1143 L117 1111 C172 1178 209 1270 209 1393 L209 1393 Z M345 1393 L345 1560 L296 1560 L296 1391 C296 1288 272 1221 220 1143 L253 1111 C307 1178 345 1270 345 1393 L345 1393 Z " />
<glyph glyph-name="uni02EF" unicode="&#x2ef;" horiz-adv-x="607" d="M477 -72 L321 -438 L303 -499 L285 -438 L129 -72 L85 -72 L287 -545 L321 -545 L522 -72 L477 -72 Z " />
<glyph glyph-name="uni02F0" unicode="&#x2f0;" horiz-adv-x="607" d="M321 -72 L287 -72 L85 -545 L129 -545 L285 -179 L303 -118 L321 -179 L477 -545 L522 -545 L321 -72 Z " />
<glyph glyph-name="uni02F1" unicode="&#x2f1;" horiz-adv-x="603" d="M519 -120 L519 -71 L85 -291 L85 -326 L519 -547 L519 -499 L184 -329 L127 -309 L184 -291 L519 -120 Z " />
<glyph glyph-name="uni02F2" unicode="&#x2f2;" horiz-adv-x="603" d="M85 -71 L85 -120 L420 -291 L477 -309 L420 -329 L85 -499 L85 -547 L519 -326 L519 -291 L85 -71 Z " />
<glyph glyph-name="uni02F3" unicode="&#x2f3;" horiz-adv-x="581" d="M292 -99 C229 -99 178 -154 178 -219 C178 -284 229 -335 292 -335 C356 -335 406 -284 406 -219 C406 -154 356 -99 292 -99 L292 -99 Z M292 -279 C256 -279 227 -254 227 -219 C227 -183 256 -157 292 -157 C329 -157 357 -183 357 -219 C357 -254 329 -279 292 -279 L292 -279 Z " />
<glyph glyph-name="uni02F4" unicode="&#x2f4;" horiz-adv-x="446" d="M376 232 L199 498 L134 498 L319 232 L376 232 Z " />
<glyph glyph-name="uni02F5" unicode="&#x2f5;" horiz-adv-x="619" d="M376 232 L199 498 L134 498 L319 232 L376 232 Z M548 232 L371 498 L306 498 L491 232 L548 232 Z " />
<glyph glyph-name="uni02F6" unicode="&#x2f6;" horiz-adv-x="610" d="M288 496 L109 230 L167 230 L352 496 L288 496 Z M459 496 L280 230 L338 230 L523 496 L459 496 Z " />
<glyph glyph-name="uni02F7" unicode="&#x2f7;" horiz-adv-x="717" d="M644 -178 L595 -178 C595 -262 549 -309 494 -309 C397 -309 366 -185 248 -185 C163 -185 98 -254 98 -364 L146 -364 C146 -280 191 -239 249 -239 C350 -239 371 -364 493 -364 C577 -364 644 -289 644 -178 L644 -178 Z " />
<glyph glyph-name="uni02F8" unicode="&#x2f8;" horiz-adv-x="339" d="M180 505 C149 505 127 480 127 449 C127 418 149 394 180 394 C209 394 233 418 233 449 C233 480 209 505 180 505 L180 505 Z M179 1467 C148 1467 126 1442 126 1411 C126 1380 148 1356 179 1356 C208 1356 232 1380 232 1411 C232 1442 208 1467 179 1467 L179 1467 Z " />
<glyph glyph-name="uni02F9" unicode="&#x2f9;" horiz-adv-x="510" d="M425 1536 L85 1536 L85 1150 L133 1150 L133 1482 L425 1482 L425 1536 Z " />
<glyph glyph-name="uni02FA" unicode="&#x2fa;" horiz-adv-x="510" d="M425 1536 L85 1536 L85 1482 L377 1482 L377 1150 L425 1150 L425 1536 Z " />
<glyph glyph-name="uni02FB" unicode="&#x2fb;" horiz-adv-x="510" d="M133 -383 L133 -51 L85 -51 L85 -437 L425 -437 L425 -383 L133 -383 Z " />
<glyph glyph-name="uni02FC" unicode="&#x2fc;" horiz-adv-x="510" d="M377 -51 L377 -383 L85 -383 L85 -437 L425 -437 L425 -51 L377 -51 Z " />
<glyph glyph-name="uni02FD" unicode="&#x2fd;" horiz-adv-x="701" d="M568 -51 L568 -343 L134 -343 L134 -51 L85 -51 L85 -397 L616 -397 L616 -51 L568 -51 Z " />
<glyph glyph-name="uni02FE" unicode="&#x2fe;" horiz-adv-x="603" d="M134 -383 L134 -51 L85 -51 L85 -437 L518 -437 L518 -383 L134 -383 Z " />
<glyph glyph-name="uni02FF" unicode="&#x2ff;" horiz-adv-x="779" d="M694 -103 L175 -103 L408 169 L342 169 L85 -133 L342 -435 L408 -435 L172 -157 L694 -157 L694 -103 Z " />
<glyph glyph-name="gravecomb" unicode="&#x300;" horiz-adv-x="0" d="M-400 1270 L-561 1536 L-619 1536 L-452 1270 L-400 1270 Z " />
<glyph glyph-name="acutecomb" unicode="&#x301;" horiz-adv-x="0" d="M-313 1536 L-474 1270 L-422 1270 L-254 1536 L-313 1536 Z " />
<glyph glyph-name="uni0302" unicode="&#x302;" horiz-adv-x="0" d="M-240 1274 L-440 1517 L-476 1517 L-672 1278 L-672 1264 L-616 1264 L-458 1460 L-300 1264 L-240 1264 L-240 1274 Z " />
<glyph glyph-name="tildecomb" unicode="&#x303;" horiz-adv-x="0" d="M-135 1472 L-182 1472 C-182 1388 -229 1341 -285 1341 C-381 1341 -412 1465 -530 1465 C-616 1465 -680 1396 -680 1286 L-633 1286 C-633 1370 -587 1411 -530 1411 C-429 1411 -408 1286 -285 1286 C-201 1286 -135 1361 -135 1472 L-135 1472 Z " />
<glyph glyph-name="uni0304" unicode="&#x304;" horiz-adv-x="0" d="M-212 1383 L-212 1436 L-696 1436 L-696 1383 L-212 1383 Z " />
<glyph glyph-name="uni0305" unicode="&#x305;" horiz-adv-x="0" d="M-96 1626 L-96 1680 L-819 1680 L-819 1626 L-96 1626 Z " />
<glyph glyph-name="uni0306" unicode="&#x306;" horiz-adv-x="0" d="M-225 1486 L-273 1486 C-273 1383 -328 1294 -463 1294 C-603 1294 -653 1381 -653 1486 L-701 1486 C-701 1340 -611 1238 -463 1238 C-314 1238 -225 1340 -225 1486 L-225 1486 Z " />
<glyph glyph-name="uni0307" unicode="&#x307;" horiz-adv-x="0" d="M-463 1476 C-490 1476 -510 1451 -510 1420 C-510 1389 -490 1365 -463 1365 C-436 1365 -414 1389 -414 1420 C-414 1451 -436 1476 -463 1476 L-463 1476 Z " />
<glyph glyph-name="uni0308" unicode="&#x308;" horiz-adv-x="0" d="M-654 1477 C-681 1477 -702 1452 -702 1421 C-702 1390 -681 1366 -654 1366 C-627 1366 -605 1390 -605 1421 C-605 1452 -627 1477 -654 1477 L-654 1477 Z M-275 1477 C-301 1477 -322 1452 -322 1421 C-322 1390 -301 1366 -275 1366 C-248 1366 -226 1390 -226 1421 C-226 1452 -248 1477 -275 1477 L-275 1477 Z " />
<glyph glyph-name="hookabovecomb" unicode="&#x309;" horiz-adv-x="0" d="M-494 1227 L-452 1227 L-452 1281 C-359 1289 -285 1333 -285 1440 C-285 1540 -386 1599 -529 1599 L-535 1550 C-443 1550 -334 1524 -334 1440 C-334 1366 -383 1337 -495 1326 L-494 1227 Z " />
<glyph glyph-name="uni030A" unicode="&#x30a;" horiz-adv-x="0" d="M-488 1556 C-578 1556 -649 1480 -649 1382 C-649 1284 -578 1212 -488 1212 C-398 1212 -327 1284 -327 1382 C-327 1480 -398 1556 -488 1556 L-488 1556 Z M-488 1266 C-552 1266 -598 1313 -598 1382 C-598 1453 -552 1502 -488 1502 C-424 1502 -378 1453 -378 1382 C-378 1313 -424 1266 -488 1266 L-488 1266 Z " />
<glyph glyph-name="uni030B" unicode="&#x30b;" horiz-adv-x="0" d="M-479 1536 L-658 1270 L-600 1270 L-415 1536 L-479 1536 Z M-336 1536 L-515 1270 L-457 1270 L-272 1536 L-336 1536 Z " />
<glyph glyph-name="uni030C" unicode="&#x30c;" horiz-adv-x="0" d="M-246 1507 L-446 1264 L-483 1264 L-679 1503 L-679 1517 L-623 1517 L-465 1321 L-306 1517 L-246 1517 L-246 1507 Z " />
<glyph glyph-name="uni030D" unicode="&#x30d;" horiz-adv-x="0" d="M-435 1151 L-435 1559 L-481 1559 L-481 1151 L-435 1151 Z " />
<glyph glyph-name="uni030E" unicode="&#x30e;" horiz-adv-x="0" d="M-492 1151 L-492 1559 L-538 1559 L-538 1151 L-492 1151 Z M-397 1151 L-397 1559 L-443 1559 L-443 1151 L-397 1151 Z " />
<glyph glyph-name="uni030F" unicode="&#x30f;" horiz-adv-x="0" d="M-740 1518 L-492 1252 L-556 1252 L-810 1518 L-740 1518 Z M-509 1518 L-300 1252 L-360 1252 L-576 1518 L-509 1518 Z " />
<glyph glyph-name="uni0310" unicode="&#x310;" horiz-adv-x="0" d="M-226 1486 L-274 1486 C-274 1383 -328 1294 -464 1294 C-604 1294 -654 1381 -654 1486 L-702 1486 C-702 1340 -612 1238 -464 1238 C-315 1238 -226 1340 -226 1486 L-226 1486 Z M-464 1608 C-491 1608 -511 1583 -511 1552 C-511 1521 -491 1497 -464 1497 C-437 1497 -414 1521 -414 1552 C-414 1583 -437 1608 -464 1608 L-464 1608 Z " />
<glyph glyph-name="uni0311" unicode="&#x311;" horiz-adv-x="0" d="M-274 1208 L-226 1208 C-226 1354 -315 1456 -464 1456 C-612 1456 -702 1354 -702 1208 L-654 1208 C-654 1313 -604 1400 -464 1400 C-328 1400 -274 1311 -274 1208 L-274 1208 Z " />
<glyph glyph-name="uni0312" unicode="&#x312;" horiz-adv-x="0" d="M-489 1296 L-489 1128 L-441 1128 L-441 1298 C-441 1401 -416 1468 -365 1546 L-397 1578 C-452 1511 -489 1419 -489 1296 L-489 1296 Z " />
<glyph glyph-name="uni0313" unicode="&#x313;" horiz-adv-x="0" d="M-428 1410 L-428 1578 L-476 1578 L-476 1408 C-476 1305 -501 1238 -552 1160 L-520 1128 C-465 1195 -428 1287 -428 1410 L-428 1410 Z " />
<glyph glyph-name="uni0314" unicode="&#x314;" horiz-adv-x="0" d="M-488 1410 L-488 1578 L-441 1578 L-441 1408 C-441 1305 -416 1238 -365 1160 L-397 1128 C-452 1195 -488 1287 -488 1410 L-488 1410 Z " />
<glyph glyph-name="uni0315" unicode="&#x315;" horiz-adv-x="0" d="M-85 1410 L-85 1578 L-133 1578 L-133 1408 C-133 1305 -158 1238 -209 1160 L-177 1128 C-122 1195 -85 1287 -85 1410 L-85 1410 Z " />
<glyph glyph-name="uni0316" unicode="&#x316;" horiz-adv-x="0" d="M-310 -350 L-487 -84 L-552 -84 L-367 -350 L-310 -350 Z " />
<glyph glyph-name="uni0317" unicode="&#x317;" horiz-adv-x="0" d="M-394 -84 L-573 -350 L-515 -350 L-330 -84 L-394 -84 Z " />
<glyph glyph-name="uni0318" unicode="&#x318;" horiz-adv-x="0" d="M-381 -60 L-381 -227 L-593 -227 L-593 -280 L-381 -280 L-381 -446 L-334 -446 L-334 -60 L-381 -60 Z " />
<glyph glyph-name="uni0319" unicode="&#x319;" horiz-adv-x="0" d="M-334 -227 L-546 -227 L-546 -60 L-593 -60 L-593 -446 L-546 -446 L-546 -280 L-334 -280 L-334 -227 Z " />
<glyph glyph-name="uni031A" unicode="&#x31a;" horiz-adv-x="0" d="M-211 1609 L-710 1609 L-710 1555 L-258 1555 L-258 1283 L-211 1283 L-211 1609 Z " />
<glyph glyph-name="uni031B" unicode="&#x31b;" horiz-adv-x="0" d="M-144 1387 L-144 1457 L-192 1457 C-192 1240 -197 1172 -267 1039 L-235 1007 C-172 1108 -144 1157 -144 1387 L-144 1387 Z " />
<glyph glyph-name="uni031C" unicode="&#x31c;" horiz-adv-x="0" d="M-435 -334 L-435 -390 C-497 -390 -549 -331 -549 -255 C-549 -179 -497 -116 -435 -116 L-435 -173 C-472 -173 -499 -207 -499 -255 C-499 -301 -472 -334 -435 -334 L-435 -334 Z " />
<glyph glyph-name="uni031D" unicode="&#x31d;" horiz-adv-x="0" d="M-435 -376 L-435 -92 L-482 -92 L-482 -376 L-633 -376 L-633 -430 L-284 -430 L-284 -376 L-435 -376 Z " />
<glyph glyph-name="uni031E" unicode="&#x31e;" horiz-adv-x="0" d="M-289 -101 L-637 -101 L-637 -155 L-487 -155 L-487 -439 L-440 -439 L-440 -155 L-289 -155 L-289 -101 Z " />
<glyph glyph-name="uni031F" unicode="&#x31f;" horiz-adv-x="0" d="M-284 -257 L-435 -257 L-435 -81 L-482 -81 L-482 -257 L-633 -257 L-633 -311 L-482 -311 L-482 -489 L-435 -489 L-435 -311 L-284 -311 L-284 -257 Z " />
<glyph glyph-name="uni0320" unicode="&#x320;" horiz-adv-x="0" d="M-247 -257 L-680 -257 L-680 -311 L-247 -311 L-247 -257 Z " />
<glyph glyph-name="uni0321" unicode="&#x321;" horiz-adv-x="0" d="M-100 54 L-147 54 L-147 -89 C-147 -276 -185 -383 -310 -383 C-341 -383 -375 -373 -395 -365 L-405 -417 C-372 -430 -345 -437 -310 -437 C-157 -437 -100 -314 -100 -89 L-100 54 Z " />
<glyph glyph-name="uni0322" unicode="&#x322;" horiz-adv-x="0" d="M-148 54 L-101 54 L-101 -89 C-101 -276 -64 -383 62 -383 C94 -383 129 -373 146 -365 L157 -417 C124 -430 97 -437 62 -437 C-92 -437 -148 -314 -148 -89 L-148 54 Z " />
<glyph glyph-name="dotbelowcomb" unicode="&#x323;" horiz-adv-x="0" d="M-535 -162 C-566 -162 -588 -187 -588 -218 C-588 -249 -566 -273 -535 -273 C-506 -273 -482 -249 -482 -218 C-482 -187 -506 -162 -535 -162 L-535 -162 Z " />
<glyph glyph-name="uni0324" unicode="&#x324;" horiz-adv-x="0" d="M-654 -162 C-681 -162 -702 -187 -702 -218 C-702 -249 -681 -273 -654 -273 C-627 -273 -605 -249 -605 -218 C-605 -187 -627 -162 -654 -162 L-654 -162 Z M-275 -162 C-301 -162 -322 -187 -322 -218 C-322 -249 -301 -273 -275 -273 C-248 -273 -226 -249 -226 -218 C-226 -187 -248 -162 -275 -162 L-275 -162 Z " />
<glyph glyph-name="uni0325" unicode="&#x325;" horiz-adv-x="0" d="M-490 -74 C-580 -74 -651 -150 -651 -248 C-651 -346 -580 -418 -490 -418 C-400 -418 -329 -346 -329 -248 C-329 -150 -400 -74 -490 -74 L-490 -74 Z M-490 -364 C-554 -364 -600 -317 -600 -248 C-600 -177 -554 -128 -490 -128 C-426 -128 -380 -177 -380 -248 C-380 -317 -426 -364 -490 -364 L-490 -364 Z " />
<glyph glyph-name="uni0326" unicode="&#x326;" horiz-adv-x="0" d="M-428 -250 L-428 -173 L-475 -173 L-475 -252 C-475 -339 -494 -394 -534 -460 L-502 -492 C-458 -435 -428 -355 -428 -250 L-428 -250 Z " />
<glyph glyph-name="uni0327" unicode="&#x327;" horiz-adv-x="0" d="M-429 0 L-476 0 L-498 -121 C-392 -134 -337 -157 -337 -245 C-337 -344 -447 -386 -538 -386 L-532 -435 C-381 -435 -288 -359 -288 -245 C-288 -124 -363 -85 -439 -76 L-429 0 Z " />
<glyph glyph-name="uni0328" unicode="&#x328;" horiz-adv-x="0" d="M-380 0 L-418 20 C-501 -53 -588 -152 -588 -246 C-588 -347 -538 -395 -462 -395 C-409 -395 -375 -371 -354 -351 L-368 -303 C-388 -320 -416 -341 -461 -341 C-524 -341 -540 -295 -540 -246 C-540 -150 -461 -75 -380 0 L-380 0 Z " />
<glyph glyph-name="uni0329" unicode="&#x329;" horiz-adv-x="0" d="M-437 -489 L-437 -81 L-483 -81 L-483 -489 L-437 -489 Z " />
<glyph glyph-name="uni032A" unicode="&#x32a;" horiz-adv-x="0" d="M-199 -119 L-729 -119 L-729 -455 L-681 -455 L-681 -173 L-246 -173 L-246 -455 L-199 -455 L-199 -119 Z " />
<glyph glyph-name="uni032B" unicode="&#x32b;" horiz-adv-x="0" d="M-301 -126 C-301 -169 -329 -202 -371 -202 C-411 -202 -438 -169 -438 -126 L-487 -126 C-487 -169 -516 -202 -558 -202 C-597 -202 -625 -169 -625 -126 L-674 -126 C-674 -199 -623 -259 -558 -259 C-520 -259 -485 -239 -463 -207 C-442 -239 -409 -259 -371 -259 C-306 -259 -251 -199 -251 -126 L-301 -126 Z " />
<glyph glyph-name="uni032C" unicode="&#x32c;" horiz-adv-x="0" d="M-246 -151 L-446 -394 L-483 -394 L-679 -155 L-679 -141 L-623 -141 L-465 -337 L-306 -141 L-246 -141 L-246 -151 Z " />
<glyph glyph-name="uni032D" unicode="&#x32d;" horiz-adv-x="0" d="M-241 -374 L-441 -131 L-477 -131 L-673 -370 L-673 -384 L-617 -384 L-459 -188 L-301 -384 L-241 -384 L-241 -374 Z " />
<glyph glyph-name="uni032E" unicode="&#x32e;" horiz-adv-x="0" d="M-225 -93 L-273 -93 C-273 -196 -328 -285 -463 -285 C-603 -285 -653 -198 -653 -93 L-701 -93 C-701 -239 -611 -341 -463 -341 C-314 -341 -225 -239 -225 -93 L-225 -93 Z " />
<glyph glyph-name="uni032F" unicode="&#x32f;" horiz-adv-x="0" d="M-273 -371 L-225 -371 C-225 -225 -314 -123 -463 -123 C-611 -123 -701 -225 -701 -371 L-653 -371 C-653 -266 -603 -179 -463 -179 C-328 -179 -273 -268 -273 -371 L-273 -371 Z " />
<glyph glyph-name="uni0330" unicode="&#x330;" horiz-adv-x="0" d="M-188 -138 L-235 -138 C-235 -222 -282 -269 -338 -269 C-434 -269 -465 -145 -583 -145 C-669 -145 -733 -214 -733 -324 L-686 -324 C-686 -240 -640 -199 -583 -199 C-482 -199 -461 -324 -338 -324 C-254 -324 -188 -249 -188 -138 L-188 -138 Z " />
<glyph glyph-name="uni0331" unicode="&#x331;" horiz-adv-x="0" d="M-206 -217 L-206 -164 L-691 -164 L-691 -217 L-206 -217 Z " />
<glyph glyph-name="uni0332" unicode="&#x332;" horiz-adv-x="0" d="M-96 -244 L-96 -190 L-819 -190 L-819 -244 L-96 -244 Z " />
<glyph glyph-name="uni0333" unicode="&#x333;" horiz-adv-x="0" d="M-102 -154 L-102 -100 L-824 -100 L-824 -154 L-102 -154 Z M-102 -324 L-102 -270 L-824 -270 L-824 -324 L-102 -324 Z " />
<glyph glyph-name="uni0334" unicode="&#x334;" horiz-adv-x="0" d="M-171 631 L-218 631 C-218 547 -265 500 -321 500 C-417 500 -448 624 -566 624 C-652 624 -716 555 -716 445 L-669 445 C-669 529 -623 570 -566 570 C-465 570 -444 445 -321 445 C-237 445 -171 520 -171 631 L-171 631 Z " />
<glyph glyph-name="uni0335" unicode="&#x335;" horiz-adv-x="0" d="M-206 514 L-206 568 L-708 568 L-708 514 L-206 514 Z " />
<glyph glyph-name="uni0336" unicode="&#x336;" horiz-adv-x="0" d="M85 514 L85 568 L-1012 568 L-1012 514 L85 514 Z " />
<glyph glyph-name="uni0337" unicode="&#x337;" horiz-adv-x="0" d="M-718 -145 L-153 1219 L-208 1219 L-773 -145 L-718 -145 Z " />
<glyph glyph-name="uni0338" unicode="&#x338;" horiz-adv-x="0" d="M-962 -75 L-112 1495 L-169 1495 L-1020 -75 L-962 -75 Z " />
<glyph glyph-name="uni0339" unicode="&#x339;" horiz-adv-x="0" d="M-515 -334 L-515 -390 C-452 -390 -401 -331 -401 -255 C-401 -179 -452 -116 -515 -116 L-515 -173 C-479 -173 -451 -207 -451 -255 C-451 -301 -479 -334 -515 -334 L-515 -334 Z " />
<glyph glyph-name="uni033A" unicode="&#x33a;" horiz-adv-x="0" d="M-241 -101 L-241 -393 L-675 -393 L-675 -101 L-724 -101 L-724 -447 L-193 -447 L-193 -101 L-241 -101 Z " />
<glyph glyph-name="uni033B" unicode="&#x33b;" horiz-adv-x="0" d="M-614 -78 L-614 -429 L-314 -429 L-314 -78 L-614 -78 Z M-567 -375 L-567 -132 L-360 -132 L-360 -375 L-567 -375 Z " />
<glyph glyph-name="uni033C" unicode="&#x33c;" horiz-adv-x="0" d="M-371 -126 C-409 -126 -442 -146 -463 -178 C-485 -146 -520 -126 -558 -126 C-623 -126 -674 -186 -674 -259 L-625 -259 C-625 -216 -597 -183 -558 -183 C-516 -183 -487 -216 -487 -259 L-438 -259 C-438 -216 -411 -183 -371 -183 C-329 -183 -301 -216 -301 -259 L-251 -259 C-251 -186 -306 -126 -371 -126 L-371 -126 Z " />
<glyph glyph-name="uni033D" unicode="&#x33d;" horiz-adv-x="0" d="M-277 1616 L-309 1654 L-464 1467 L-621 1656 L-653 1617 L-496 1428 L-653 1239 L-621 1201 L-465 1390 L-309 1202 L-277 1241 L-432 1429 L-277 1616 Z " />
<glyph glyph-name="uni033E" unicode="&#x33e;" horiz-adv-x="0" d="M-520 1182 L-520 1128 C-439 1128 -380 1175 -380 1255 C-380 1361 -490 1421 -490 1518 C-490 1567 -460 1593 -395 1593 L-395 1647 C-480 1647 -537 1599 -537 1518 C-537 1406 -426 1341 -426 1255 C-426 1207 -467 1182 -520 1182 L-520 1182 Z " />
<glyph glyph-name="uni033F" unicode="&#x33f;" horiz-adv-x="0" d="M-109 1553 L-109 1607 L-833 1607 L-833 1553 L-109 1553 Z M-111 1787 L-111 1841 L-833 1841 L-833 1787 L-111 1787 Z " />
<glyph glyph-name="uni0340" unicode="&#x340;" horiz-adv-x="0" d="M170 1270 L-7 1536 L-72 1536 L113 1270 L170 1270 Z " />
<glyph glyph-name="uni0341" unicode="&#x341;" horiz-adv-x="0" d="M86 1536 L-93 1270 L-35 1270 L150 1536 L86 1536 Z " />
<glyph glyph-name="uni0342" unicode="&#x342;" horiz-adv-x="0" d="M-172 1472 L-219 1472 C-219 1388 -266 1341 -322 1341 C-418 1341 -449 1465 -567 1465 C-653 1465 -717 1396 -717 1286 L-670 1286 C-670 1370 -624 1411 -567 1411 C-466 1411 -445 1286 -322 1286 C-238 1286 -172 1361 -172 1472 L-172 1472 Z " />
<glyph glyph-name="uni0343" unicode="&#x343;" horiz-adv-x="0" d="M-1084 1112 L-1084 1189 L-1131 1189 L-1131 1110 C-1131 1023 -1150 968 -1190 902 L-1158 870 C-1114 927 -1084 1007 -1084 1112 L-1084 1112 Z " />
<glyph glyph-name="uni0344" unicode="&#x344;" horiz-adv-x="0" d="M-645 1477 C-671 1477 -692 1452 -692 1421 C-692 1390 -671 1366 -645 1366 C-618 1366 -596 1390 -596 1421 C-596 1452 -618 1477 -645 1477 L-645 1477 Z M-459 1657 L-479 1417 L-427 1417 L-390 1657 L-459 1657 Z M-263 1477 C-290 1477 -310 1452 -310 1421 C-310 1390 -290 1366 -263 1366 C-236 1366 -215 1390 -215 1421 C-215 1452 -236 1477 -263 1477 L-263 1477 Z " />
<glyph glyph-name="uni0345" unicode="&#x345;" horiz-adv-x="0" d="M-449 -70 L-484 -70 L-484 -373 C-484 -484 -456 -526 -386 -526 C-371 -526 -354 -523 -337 -519 L-341 -482 C-357 -484 -370 -486 -388 -486 C-422 -486 -449 -470 -449 -373 L-449 -70 Z " />
<glyph glyph-name="uni0346" unicode="&#x346;" horiz-adv-x="0" d="M-199 1560 L-729 1560 L-729 1174 L-680 1174 L-680 1506 L-246 1506 L-246 1174 L-199 1174 L-199 1560 Z " />
<glyph glyph-name="uni0347" unicode="&#x347;" horiz-adv-x="0" d="M-247 -157 L-680 -157 L-680 -211 L-247 -211 L-247 -157 Z M-247 -327 L-680 -327 L-680 -381 L-247 -381 L-247 -327 Z " />
<glyph glyph-name="uni0348" unicode="&#x348;" horiz-adv-x="0" d="M-497 -489 L-497 -81 L-543 -81 L-543 -489 L-497 -489 Z M-404 -489 L-404 -81 L-450 -81 L-450 -489 L-404 -489 Z " />
<glyph glyph-name="uni0349" unicode="&#x349;" horiz-adv-x="0" d="M-258 -109 L-598 -109 L-598 -163 L-305 -163 L-305 -495 L-258 -495 L-258 -109 Z " />
<glyph glyph-name="uni034A" unicode="&#x34a;" horiz-adv-x="0" d="M-219 1472 C-219 1388 -266 1341 -322 1341 C-364 1341 -394 1365 -424 1392 C-393 1455 -360 1523 -360 1523 L-400 1551 C-400 1551 -433 1485 -462 1425 C-490 1447 -522 1465 -567 1465 C-653 1465 -717 1396 -717 1286 L-670 1286 C-670 1370 -624 1411 -567 1411 C-533 1411 -508 1397 -486 1378 L-562 1224 L-520 1196 C-520 1196 -484 1271 -448 1344 C-416 1314 -380 1286 -322 1286 C-238 1286 -172 1361 -172 1472 L-219 1472 Z " />
<glyph glyph-name="uni034B" unicode="&#x34b;" horiz-adv-x="0" d="M-464 1308 C-491 1308 -511 1283 -511 1252 C-511 1221 -491 1197 -464 1197 C-437 1197 -415 1221 -415 1252 C-415 1283 -437 1308 -464 1308 L-464 1308 Z M-185 1562 L-233 1562 C-233 1478 -280 1431 -336 1431 C-432 1431 -463 1555 -581 1555 C-666 1555 -732 1486 -732 1376 L-683 1376 C-683 1460 -637 1501 -580 1501 C-480 1501 -458 1376 -336 1376 C-252 1376 -185 1451 -185 1562 L-185 1562 Z M-464 1743 C-491 1743 -511 1718 -511 1687 C-511 1656 -491 1632 -464 1632 C-437 1632 -415 1656 -415 1687 C-415 1718 -437 1743 -464 1743 L-464 1743 Z " />
<glyph glyph-name="uni034C" unicode="&#x34c;" horiz-adv-x="0" d="M-180 1462 L-228 1462 C-228 1378 -274 1331 -331 1331 C-427 1331 -457 1455 -576 1455 C-661 1455 -726 1386 -726 1276 L-678 1276 C-678 1360 -632 1401 -575 1401 C-474 1401 -453 1276 -331 1276 C-247 1276 -180 1351 -180 1462 L-180 1462 Z M-180 1672 L-228 1672 C-228 1588 -274 1541 -331 1541 C-427 1541 -457 1665 -576 1665 C-661 1665 -726 1596 -726 1486 L-678 1486 C-678 1570 -632 1611 -575 1611 C-474 1611 -453 1486 -331 1486 C-247 1486 -180 1561 -180 1672 L-180 1672 Z " />
<glyph glyph-name="uni034D" unicode="&#x34d;" horiz-adv-x="0" d="M-280 -75 L-328 -75 L-162 -295 L-764 -295 L-598 -75 L-644 -75 L-824 -314 L-644 -552 L-598 -552 L-761 -337 L-164 -337 L-327 -552 L-280 -552 L-101 -314 L-280 -75 Z " />
<glyph glyph-name="uni034E" unicode="&#x34e;" horiz-adv-x="0" d="M-244 -315 L-463 -101 L-682 -315 L-682 -369 L-486 -176 L-486 -551 L-445 -551 L-445 -173 L-244 -369 L-244 -315 Z " />
<glyph glyph-name="uni034F" unicode="&#x34f;" horiz-adv-x="0" />
<glyph glyph-name="uni0350" unicode="&#x350;" horiz-adv-x="0" d="M-801 1909 L-801 1849 L-322 1586 L-228 1543 L-322 1497 L-801 1235 L-801 1176 L-182 1516 L-182 1570 L-801 1909 Z " />
<glyph glyph-name="uni0351" unicode="&#x351;" horiz-adv-x="0" d="M-549 1338 C-549 1262 -497 1203 -435 1203 L-435 1259 C-472 1259 -499 1292 -499 1338 C-499 1386 -472 1420 -435 1420 L-435 1477 C-497 1477 -549 1414 -549 1338 L-549 1338 Z " />
<glyph glyph-name="uni0352" unicode="&#x352;" horiz-adv-x="0" d="M-471 1290 C-498 1290 -519 1265 -519 1234 C-519 1203 -498 1179 -471 1179 C-444 1179 -422 1203 -422 1234 C-422 1265 -444 1290 -471 1290 L-471 1290 Z M-280 1308 L-232 1308 C-232 1454 -321 1556 -471 1556 C-619 1556 -708 1454 -708 1308 L-661 1308 C-661 1413 -610 1500 -471 1500 C-335 1500 -280 1411 -280 1308 L-280 1308 Z " />
<glyph glyph-name="uni0353" unicode="&#x353;" horiz-adv-x="0" d="M-273 -104 L-306 -66 L-460 -253 L-617 -64 L-649 -103 L-493 -292 L-649 -481 L-617 -519 L-461 -331 L-307 -518 L-273 -479 L-428 -292 L-273 -104 Z " />
<glyph glyph-name="uni0354" unicode="&#x354;" horiz-adv-x="0" d="M-260 -120 L-260 -71 L-694 -291 L-694 -326 L-260 -547 L-260 -499 L-595 -329 L-652 -309 L-595 -291 L-260 -120 Z " />
<glyph glyph-name="uni0355" unicode="&#x355;" horiz-adv-x="0" d="M-703 -71 L-703 -120 L-368 -291 L-311 -309 L-368 -329 L-703 -499 L-703 -547 L-269 -326 L-269 -291 L-703 -71 Z " />
<glyph glyph-name="uni0356" unicode="&#x356;" horiz-adv-x="0" d="M-417 -326 L-417 -291 L-851 -71 L-851 -120 L-516 -291 L-459 -309 L-516 -329 L-851 -499 L-851 -547 L-417 -326 Z M-259 -71 L-293 -71 L-495 -544 L-451 -544 L-295 -178 L-277 -117 L-259 -178 L-103 -544 L-58 -544 L-259 -71 Z " />
<glyph glyph-name="uni0357" unicode="&#x357;" horiz-adv-x="0" d="M-516 1259 L-516 1203 C-453 1203 -402 1262 -402 1338 C-402 1414 -453 1477 -516 1477 L-516 1420 C-480 1420 -452 1386 -452 1338 C-452 1292 -480 1259 -516 1259 L-516 1259 Z " />
<glyph glyph-name="uni0358" unicode="&#x358;" horiz-adv-x="0" d="M-196 1318 C-227 1318 -249 1293 -249 1262 C-249 1231 -227 1207 -196 1207 C-167 1207 -143 1231 -143 1262 C-143 1293 -167 1318 -196 1318 L-196 1318 Z " />
<glyph glyph-name="uni0359" unicode="&#x359;" horiz-adv-x="0" d="M-495 -312 L-607 -484 L-574 -514 L-465 -343 L-343 -513 L-307 -482 L-434 -314 L-274 -251 L-283 -205 L-443 -272 L-442 -80 L-487 -80 L-485 -272 L-647 -210 L-657 -257 L-495 -312 Z " />
<glyph glyph-name="uni035A" unicode="&#x35a;" horiz-adv-x="0" d="M-349 -37 C-403 -37 -449 -70 -474 -120 C-500 -70 -547 -37 -599 -37 C-682 -37 -746 -113 -746 -211 C-746 -309 -682 -381 -599 -381 C-547 -381 -500 -350 -474 -301 C-449 -350 -403 -381 -349 -381 C-268 -381 -203 -309 -203 -211 C-203 -113 -268 -37 -349 -37 L-349 -37 Z M-599 -327 C-657 -327 -700 -280 -700 -211 C-700 -140 -657 -91 -599 -91 C-541 -91 -500 -140 -500 -211 C-500 -280 -541 -327 -599 -327 L-599 -327 Z M-349 -327 C-407 -327 -449 -280 -449 -211 C-449 -140 -407 -91 -349 -91 C-291 -91 -249 -140 -249 -211 C-249 -280 -291 -327 -349 -327 L-349 -327 Z " />
<glyph glyph-name="uni035B" unicode="&#x35b;" horiz-adv-x="0" d="M-464 1661 C-464 1661 -516 1661 -516 1661 L-592 1395 C-592 1395 -402 1395 -402 1395 L-463 1181 C-463 1181 -411 1181 -411 1181 L-333 1449 C-333 1449 -524 1449 -524 1449 L-464 1661 Z " />
<glyph glyph-name="uni035C" unicode="&#x35c;" horiz-adv-x="0" d="M602 -104 L546 -104 C426 -207 328 -336 23 -336 C-288 -336 -382 -209 -501 -104 L-557 -104 C-438 -250 -296 -392 23 -392 C342 -392 483 -250 602 -104 L602 -104 Z " />
<glyph glyph-name="uni035D" unicode="&#x35d;" horiz-adv-x="0" d="M596 1496 L540 1496 C420 1393 322 1264 17 1264 C-294 1264 -388 1391 -507 1496 L-563 1496 C-444 1350 -302 1208 17 1208 C336 1208 477 1350 596 1496 L596 1496 Z " />
<glyph glyph-name="uni035E" unicode="&#x35e;" horiz-adv-x="0" d="M496 1286 L496 1340 L-463 1340 L-463 1286 L496 1286 Z " />
<glyph glyph-name="uni035F" unicode="&#x35f;" horiz-adv-x="0" d="M502 -244 L502 -190 L-457 -190 L-457 -244 L502 -244 Z " />
<glyph glyph-name="uni0360" unicode="&#x360;" horiz-adv-x="0" d="M794 1472 L746 1482 C721 1378 673 1341 550 1341 C306 1341 -270 1465 -515 1465 C-669 1465 -733 1416 -760 1286 L-711 1276 C-686 1381 -640 1411 -515 1411 C-274 1411 296 1286 550 1286 C701 1286 769 1341 794 1472 L794 1472 Z " />
<glyph glyph-name="uni0361" unicode="&#x361;" horiz-adv-x="0" d="M540 1168 L596 1168 C477 1314 336 1456 17 1456 C-302 1456 -444 1314 -563 1168 L-507 1168 C-388 1273 -294 1400 17 1400 C322 1400 420 1271 540 1168 L540 1168 Z " />
<glyph glyph-name="uni0362" unicode="&#x362;" horiz-adv-x="0" d="M479 -75 L413 -75 L649 -292 L-668 -292 L-668 -334 L646 -334 L413 -546 L479 -546 L736 -311 L479 -75 Z " />
<glyph glyph-name="uni0363" unicode="&#x363;" horiz-adv-x="0" d="M-275 1202 C-289 1229 -296 1273 -296 1313 L-296 1584 C-296 1701 -365 1759 -464 1759 C-565 1759 -638 1684 -638 1598 L-601 1596 C-601 1664 -548 1719 -464 1719 C-373 1719 -332 1674 -332 1585 L-332 1510 L-437 1510 C-580 1510 -650 1440 -650 1339 C-650 1248 -598 1191 -509 1191 C-425 1191 -366 1233 -331 1285 C-329 1255 -323 1223 -314 1202 L-275 1202 Z M-508 1231 C-580 1231 -614 1273 -614 1339 C-614 1426 -552 1470 -436 1470 L-332 1470 L-332 1346 C-365 1276 -426 1231 -508 1231 L-508 1231 Z " />
<glyph glyph-name="uni0364" unicode="&#x364;" horiz-adv-x="0" d="M-274 1479 L-274 1523 C-274 1668 -348 1759 -453 1759 C-562 1759 -651 1657 -651 1483 L-651 1461 C-651 1301 -560 1192 -445 1192 C-369 1192 -320 1229 -288 1282 L-311 1303 C-352 1249 -391 1232 -443 1232 C-536 1232 -615 1323 -615 1461 L-615 1479 L-274 1479 Z M-453 1719 C-359 1719 -310 1636 -310 1525 L-310 1519 L-614 1519 C-604 1637 -547 1719 -453 1719 L-453 1719 Z " />
<glyph glyph-name="uni0365" unicode="&#x365;" horiz-adv-x="0" d="M-447 1202 L-447 1754 L-482 1754 L-482 1202 L-447 1202 Z M-464 1961 C-482 1961 -494 1945 -494 1926 C-494 1907 -482 1892 -464 1892 C-448 1892 -434 1907 -434 1926 C-434 1945 -448 1961 -464 1961 L-464 1961 Z " />
<glyph glyph-name="uni0366" unicode="&#x366;" horiz-adv-x="0" d="M-670 1465 C-670 1297 -592 1192 -464 1192 C-336 1192 -258 1297 -258 1465 L-258 1486 C-258 1654 -335 1759 -464 1759 C-591 1759 -670 1654 -670 1486 L-670 1465 Z M-293 1465 C-293 1333 -346 1232 -464 1232 C-583 1232 -635 1333 -635 1465 L-635 1486 C-635 1618 -582 1719 -464 1719 C-345 1719 -293 1618 -293 1486 L-293 1465 Z " />
<glyph glyph-name="uni0367" unicode="&#x367;" horiz-adv-x="0" d="M-328 1754 L-328 1372 C-340 1293 -379 1231 -480 1231 C-555 1231 -599 1271 -599 1438 L-599 1754 L-635 1754 L-635 1439 C-635 1253 -581 1191 -479 1191 C-407 1191 -357 1223 -328 1275 L-328 1202 L-292 1202 L-292 1754 L-328 1754 Z " />
<glyph glyph-name="uni0368" unicode="&#x368;" horiz-adv-x="0" d="M-651 1462 C-651 1300 -577 1186 -454 1186 C-361 1186 -279 1252 -273 1364 L-309 1364 C-314 1268 -381 1226 -454 1226 C-555 1226 -616 1324 -616 1462 L-616 1483 C-616 1621 -562 1719 -455 1719 C-378 1719 -313 1666 -309 1566 L-273 1566 C-278 1693 -363 1759 -455 1759 C-577 1759 -651 1645 -651 1483 L-651 1462 Z " />
<glyph glyph-name="uni0369" unicode="&#x369;" horiz-adv-x="0" d="M-313 1997 L-313 1654 C-343 1718 -395 1759 -471 1759 C-584 1759 -649 1657 -649 1483 L-649 1473 C-649 1304 -592 1191 -472 1191 C-395 1191 -342 1233 -313 1288 L-312 1202 L-277 1202 L-277 1997 L-313 1997 Z M-472 1231 C-569 1231 -614 1326 -614 1473 L-614 1483 C-614 1630 -569 1719 -471 1719 C-380 1719 -332 1643 -313 1578 L-313 1357 C-335 1288 -388 1231 -472 1231 L-472 1231 Z " />
<glyph glyph-name="uni036A" unicode="&#x36a;" horiz-adv-x="0" d="M-448 1765 C-520 1765 -569 1734 -599 1682 L-599 1991 L-635 1991 L-635 1202 L-599 1202 L-599 1584 C-587 1663 -548 1725 -448 1725 C-372 1725 -328 1685 -328 1518 L-328 1202 L-293 1202 L-293 1517 C-293 1703 -346 1765 -448 1765 L-448 1765 Z " />
<glyph glyph-name="uni036B" unicode="&#x36b;" horiz-adv-x="0" d="M-295 1765 C-380 1765 -434 1721 -460 1653 C-483 1735 -530 1765 -601 1765 C-674 1765 -724 1733 -754 1681 L-753 1754 L-788 1754 L-788 1202 L-754 1202 L-754 1567 C-746 1654 -708 1725 -601 1725 C-526 1725 -481 1685 -481 1518 L-481 1202 L-446 1202 L-446 1517 C-446 1536 -447 1554 -448 1570 C-439 1656 -401 1725 -295 1725 C-218 1725 -175 1685 -175 1518 L-175 1202 L-140 1202 L-140 1517 C-140 1703 -193 1765 -295 1765 L-295 1765 Z " />
<glyph glyph-name="uni036C" unicode="&#x36c;" horiz-adv-x="0" d="M-309 1765 C-371 1765 -418 1733 -447 1680 L-448 1754 L-483 1754 L-483 1202 L-447 1202 L-447 1585 C-436 1664 -399 1725 -309 1725 C-297 1725 -287 1725 -280 1724 L-280 1763 C-285 1764 -299 1765 -309 1765 L-309 1765 Z " />
<glyph glyph-name="uni036D" unicode="&#x36d;" horiz-adv-x="0" d="M-391 1240 C-407 1238 -420 1236 -438 1236 C-471 1236 -498 1252 -498 1349 L-498 1719 L-401 1719 L-401 1759 L-498 1759 L-498 1907 L-534 1907 L-534 1759 L-620 1759 L-620 1719 L-534 1719 L-534 1349 C-534 1238 -506 1196 -436 1196 C-421 1196 -404 1199 -386 1203 L-391 1240 Z " />
<glyph glyph-name="uni036E" unicode="&#x36e;" horiz-adv-x="0" d="M-304 1754 L-445 1316 L-464 1247 L-482 1316 L-623 1754 L-658 1754 L-479 1202 L-449 1202 L-269 1754 L-304 1754 Z " />
<glyph glyph-name="uni036F" unicode="&#x36f;" horiz-adv-x="0" d="M-463 1515 L-604 1754 L-644 1754 L-482 1485 L-652 1202 L-614 1202 L-463 1455 L-313 1202 L-274 1202 L-445 1485 L-283 1754 L-323 1754 L-463 1515 Z " />
<glyph glyph-name="uni037E" unicode="&#x37e;" horiz-adv-x="347" d="M185 1067 C154 1067 132 1042 132 1011 C132 980 154 956 185 956 C214 956 238 980 238 1011 C238 1042 214 1067 185 1067 L185 1067 Z M218 27 L218 159 L165 159 L165 25 C165 -78 137 -145 80 -223 L117 -255 C176 -188 218 -96 218 27 L218 27 Z " />
<glyph glyph-name="tonos" unicode="&#x384;" horiz-adv-x="497" d="M294 1578 L207 1305 L258 1305 L356 1578 L294 1578 Z " />
<glyph glyph-name="dieresistonos" unicode="&#x385;" horiz-adv-x="828" d="M229 1477 C203 1477 182 1452 182 1421 C182 1390 203 1366 229 1366 C256 1366 278 1390 278 1421 C278 1452 256 1477 229 1477 L229 1477 Z M415 1657 L395 1417 L447 1417 L484 1657 L415 1657 Z M611 1477 C584 1477 564 1452 564 1421 C564 1390 584 1366 611 1366 C638 1366 659 1390 659 1421 C659 1452 638 1477 611 1477 L611 1477 Z " />
<glyph glyph-name="anoteleia" unicode="&#x387;" horiz-adv-x="438" d="M223 762 C197 762 175 737 175 706 C175 675 197 651 223 651 C251 651 273 675 273 706 C273 737 251 762 223 762 L223 762 Z " />
<glyph glyph-name="uni03F6" unicode="&#x3f6;" horiz-adv-x="786" d="M316 1082 L56 1082 L56 1028 L316 1028 C540 1028 642 835 644 570 L155 570 L155 516 L644 516 C643 247 541 54 315 54 L56 54 L56 0 L315 0 C555 0 692 203 692 520 L692 562 C692 879 555 1082 316 1082 L316 1082 Z " />
<glyph glyph-name="uni0482" unicode="&#x482;" horiz-adv-x="1076" d="M490 419 L692 839 L937 669 L974 736 L724 907 L938 1342 L854 1342 L667 956 L419 1127 L385 1057 L632 886 L432 466 L182 637 L149 569 L396 398 L204 0 L292 0 L454 349 L703 179 L736 247 L490 419 Z " />
<glyph glyph-name="uni1AB0" unicode="&#x1ab0;" horiz-adv-x="0" d="M-809 1264 L-651 1460 L-492 1264 L-426 1264 L-268 1460 L-109 1264 L-49 1264 L-49 1274 L-250 1517 L-285 1517 L-459 1305 L-632 1517 L-669 1517 L-865 1278 L-865 1264 L-809 1264 Z " />
<glyph glyph-name="uni1AB1" unicode="&#x1ab1;" horiz-adv-x="0" d="M-665 1396 C-691 1396 -712 1371 -712 1340 C-712 1309 -691 1285 -665 1285 C-638 1285 -616 1309 -616 1340 C-616 1371 -638 1396 -665 1396 L-665 1396 Z M-463 1551 C-529 1551 -580 1491 -580 1413 C-580 1336 -529 1279 -463 1279 C-398 1279 -346 1336 -346 1413 C-346 1491 -398 1551 -463 1551 L-463 1551 Z M-264 1396 C-291 1396 -311 1371 -311 1340 C-311 1309 -291 1285 -264 1285 C-237 1285 -215 1309 -215 1340 C-215 1371 -237 1396 -264 1396 L-264 1396 Z M-463 1322 C-510 1322 -543 1359 -543 1413 C-543 1469 -510 1508 -463 1508 C-417 1508 -383 1469 -383 1413 C-383 1359 -417 1322 -463 1322 L-463 1322 Z " />
<glyph glyph-name="uni1AB2" unicode="&#x1ab2;" horiz-adv-x="0" d="M-242 1765 C-366 1765 -441 1623 -464 1537 C-487 1623 -561 1765 -685 1765 C-807 1765 -883 1643 -883 1501 L-883 1456 C-883 1315 -807 1192 -685 1192 C-559 1192 -487 1337 -464 1421 C-441 1337 -369 1192 -243 1192 C-120 1192 -44 1315 -44 1456 L-44 1501 C-44 1643 -120 1765 -242 1765 L-242 1765 Z M-479 1468 C-479 1466 -534 1231 -685 1231 C-793 1231 -848 1342 -848 1456 L-848 1501 C-848 1614 -793 1725 -685 1725 C-534 1725 -479 1491 -479 1489 L-479 1468 Z M-80 1456 C-80 1342 -135 1232 -243 1232 C-393 1232 -449 1466 -448 1468 L-448 1489 C-449 1491 -393 1725 -242 1725 C-135 1725 -80 1614 -80 1501 L-80 1456 Z " />
<glyph glyph-name="uni1AB3" unicode="&#x1ab3;" horiz-adv-x="0" d="M-442 1272 L-442 1805 L-489 1805 L-489 1278 L-720 1548 L-720 1472 L-462 1171 L-205 1472 L-205 1549 L-442 1272 Z " />
<glyph glyph-name="uni1AB4" unicode="&#x1ab4;" horiz-adv-x="0" d="M-689 1303 C-720 1303 -742 1278 -742 1247 C-742 1216 -720 1192 -689 1192 C-660 1192 -636 1216 -636 1247 C-636 1278 -660 1303 -689 1303 L-689 1303 Z M-345 1303 C-376 1303 -398 1278 -398 1247 C-398 1216 -376 1192 -345 1192 C-316 1192 -292 1216 -292 1247 C-292 1278 -316 1303 -345 1303 L-345 1303 Z M-517 1603 C-548 1603 -570 1578 -570 1547 C-570 1516 -548 1492 -517 1492 C-488 1492 -464 1516 -464 1547 C-464 1578 -488 1603 -517 1603 L-517 1603 Z " />
<glyph glyph-name="uni1AB5" unicode="&#x1ab5;" horiz-adv-x="0" d="M-1145 -310 L-1286 -126 L-1326 -126 L-1164 -334 L-1334 -551 L-1296 -551 L-1145 -357 L-995 -551 L-956 -551 L-1127 -334 L-965 -126 L-1005 -126 L-1145 -310 Z M-706 -310 L-847 -126 L-887 -126 L-725 -334 L-895 -551 L-857 -551 L-706 -357 L-556 -551 L-517 -551 L-688 -334 L-526 -126 L-566 -126 L-706 -310 Z " />
<glyph glyph-name="uni1AB6" unicode="&#x1ab6;" horiz-adv-x="0" d="M26 -145 C-93 -145 -123 -269 -218 -269 C-313 -269 -343 -145 -462 -145 C-580 -145 -611 -269 -706 -269 C-801 -269 -832 -145 -950 -145 C-1035 -145 -1101 -214 -1101 -324 L-1053 -334 C-1053 -250 -1007 -199 -950 -199 C-850 -199 -829 -324 -706 -324 C-584 -324 -562 -199 -462 -199 C-362 -199 -341 -324 -218 -324 C-96 -324 -75 -199 26 -199 C82 -199 129 -250 129 -334 L176 -324 C176 -214 111 -145 26 -145 L26 -145 Z " />
<glyph glyph-name="uni1AB7" unicode="&#x1ab7;" horiz-adv-x="0" d="M-437 -100 L-484 -100 L-484 -243 C-484 -442 -428 -555 -275 -555 C-240 -555 -213 -548 -180 -535 L-191 -483 C-209 -491 -244 -501 -274 -501 C-400 -501 -437 -405 -437 -243 L-437 -100 Z " />
<glyph glyph-name="uni1AB8" unicode="&#x1ab8;" horiz-adv-x="0" d="M-602 -100 L-649 -100 L-649 -243 C-649 -442 -593 -555 -440 -555 C-405 -555 -378 -548 -345 -535 L-356 -483 C-374 -491 -409 -501 -439 -501 C-565 -501 -602 -405 -602 -243 L-602 -100 Z M-348 -100 L-395 -100 L-395 -243 C-395 -442 -339 -555 -186 -555 C-151 -555 -124 -548 -91 -535 L-102 -483 C-120 -491 -155 -501 -185 -501 C-311 -501 -348 -405 -348 -243 L-348 -100 Z " />
<glyph glyph-name="uni1AB9" unicode="&#x1ab9;" horiz-adv-x="0" d="M-356 -399 L-126 0 L-173 0 L-395 -369 L-356 -399 Z " />
<glyph glyph-name="uni1ABA" unicode="&#x1aba;" horiz-adv-x="0" d="M-126 0 L-173 0 L-366 -320 C-369 -319 -372 -319 -376 -319 C-407 -319 -432 -348 -432 -384 C-432 -419 -407 -449 -376 -449 C-346 -449 -320 -419 -320 -384 C-320 -372 -323 -361 -328 -351 L-126 0 Z " />
<glyph glyph-name="uni1ABB" unicode="&#x1abb;" horiz-adv-x="0" d="M-889 1517 C-889 1414 -826 1334 -740 1302 L-737 1335 C-803 1361 -854 1430 -854 1517 C-854 1600 -807 1669 -737 1696 L-740 1728 C-826 1696 -889 1611 -889 1517 L-889 1517 Z M-189 1335 L-186 1302 C-100 1334 -36 1414 -36 1517 C-36 1611 -100 1696 -186 1728 L-189 1696 C-119 1669 -71 1600 -71 1517 C-71 1430 -123 1361 -189 1335 L-189 1335 Z " />
<glyph glyph-name="uni1ABC" unicode="&#x1abc;" horiz-adv-x="0" d="M-1018 1517 C-1018 1414 -955 1334 -869 1302 L-866 1335 C-932 1361 -983 1430 -983 1517 C-983 1600 -936 1669 -866 1696 L-869 1728 C-955 1696 -1018 1611 -1018 1517 L-1018 1517 Z M-889 1517 C-889 1414 -826 1334 -740 1302 L-736 1335 C-803 1361 -854 1430 -854 1517 C-854 1600 -807 1669 -736 1696 L-740 1728 C-826 1696 -889 1611 -889 1517 L-889 1517 Z M-190 1335 L-186 1302 C-100 1334 -37 1414 -37 1517 C-37 1611 -100 1696 -186 1728 L-190 1696 C-119 1669 -72 1600 -72 1517 C-72 1430 -123 1361 -190 1335 L-190 1335 Z M-61 1335 L-57 1302 C29 1334 92 1414 92 1517 C92 1611 29 1696 -57 1728 L-61 1696 C10 1669 57 1600 57 1517 C57 1430 6 1361 -61 1335 L-61 1335 Z " />
<glyph glyph-name="uni1ABD" unicode="&#x1abd;" horiz-adv-x="0" d="M-890 -323 C-890 -426 -826 -506 -740 -538 L-737 -505 C-803 -479 -854 -410 -854 -323 C-854 -240 -808 -171 -737 -144 L-740 -112 C-826 -144 -890 -229 -890 -323 L-890 -323 Z M-190 -505 L-186 -538 C-100 -506 -36 -426 -36 -323 C-36 -229 -100 -144 -186 -112 L-190 -144 C-119 -171 -72 -240 -72 -323 C-72 -410 -123 -479 -190 -505 L-190 -505 Z " />
<glyph glyph-name="uni1ABE" unicode="&#x1abe;" horiz-adv-x="0" d="M-993 574 C-993 471 -929 391 -843 359 L-840 392 C-906 418 -957 487 -957 574 C-957 657 -911 726 -840 753 L-843 785 C-929 753 -993 668 -993 574 L-993 574 Z M-2 392 L1 359 C88 391 151 471 151 574 C151 668 88 753 1 785 L-2 753 C69 726 116 657 116 574 C116 487 65 418 -2 392 L-2 392 Z " />
<glyph glyph-name="uni1DC0" unicode="&#x1dc0;" horiz-adv-x="0" d="M-573 1368 C-600 1368 -620 1343 -620 1312 C-620 1281 -600 1257 -573 1257 C-546 1257 -524 1281 -524 1312 C-524 1343 -546 1368 -573 1368 L-573 1368 Z M-365 1250 L-525 1516 L-584 1516 L-417 1250 L-365 1250 Z M-348 1468 C-376 1468 -396 1443 -396 1412 C-396 1381 -376 1357 -348 1357 C-321 1357 -299 1381 -299 1412 C-299 1443 -321 1468 -348 1468 L-348 1468 Z " />
<glyph glyph-name="uni1DC1" unicode="&#x1dc1;" horiz-adv-x="0" d="M-565 1468 C-592 1468 -612 1443 -612 1412 C-612 1381 -592 1357 -565 1357 C-537 1357 -515 1381 -515 1412 C-515 1443 -537 1468 -565 1468 L-565 1468 Z M-398 1516 L-558 1250 L-506 1250 L-338 1516 L-398 1516 Z M-366 1368 C-393 1368 -414 1343 -414 1312 C-414 1281 -393 1257 -366 1257 C-339 1257 -318 1281 -318 1312 C-318 1343 -339 1368 -366 1368 L-366 1368 Z " />
<glyph glyph-name="uni1DC2" unicode="&#x1dc2;" horiz-adv-x="0" d="M-462 -89 C-519 -89 -572 -117 -621 -153 L-599 -192 C-546 -158 -513 -142 -467 -142 C-437 -142 -418 -153 -418 -173 C-418 -215 -536 -215 -536 -274 C-536 -336 -414 -331 -414 -356 C-414 -385 -536 -387 -536 -451 C-536 -501 -473 -527 -385 -555 L-374 -513 C-444 -491 -489 -476 -489 -451 C-489 -417 -368 -417 -368 -356 C-368 -294 -489 -304 -489 -272 C-489 -241 -371 -242 -371 -170 C-371 -127 -397 -89 -462 -89 L-462 -89 Z " />
<glyph glyph-name="uni1DC3" unicode="&#x1dc3;" horiz-adv-x="0" d="M-64 1570 L-464 1298 L-639 1417 L-663 1371 L-464 1236 L-41 1524 L-64 1570 Z " />
<glyph glyph-name="uni1DC5" unicode="&#x1dc5;" horiz-adv-x="0" d="M-715 1516 L-549 1250 L-175 1250 L-175 1303 L-529 1303 L-656 1516 L-715 1516 Z " />
<glyph glyph-name="uni1DC6" unicode="&#x1dc6;" horiz-adv-x="0" d="M-635 1516 L-635 1463 L-277 1463 L-144 1250 L-92 1250 L-252 1516 L-635 1516 Z " />
<glyph glyph-name="uni1DC7" unicode="&#x1dc7;" horiz-adv-x="0" d="M-518 1516 L-679 1250 L-625 1250 L-492 1463 L-141 1463 L-141 1516 L-518 1516 Z " />
<glyph glyph-name="uni1DC8" unicode="&#x1dc8;" horiz-adv-x="0" d="M-754 1516 L-587 1250 L-512 1250 L-362 1491 L-213 1250 L-161 1250 L-321 1516 L-404 1516 L-550 1274 L-695 1516 L-754 1516 Z " />
<glyph glyph-name="uni1DC9" unicode="&#x1dc9;" horiz-adv-x="0" d="M-529 1516 L-690 1250 L-637 1250 L-493 1482 L-349 1250 L-284 1250 L-118 1516 L-177 1516 L-316 1283 L-457 1516 L-529 1516 Z " />
<glyph glyph-name="uni1DCA" unicode="&#x1dca;" horiz-adv-x="0" d="M-309 -116 C-371 -116 -418 -148 -447 -201 L-448 -127 L-483 -127 L-483 -550 L-447 -550 L-447 -296 C-436 -217 -399 -156 -309 -156 C-297 -156 -287 -156 -280 -157 L-280 -118 C-285 -117 -299 -116 -309 -116 L-309 -116 Z " />
<glyph glyph-name="uni1DCB" unicode="&#x1dcb;" horiz-adv-x="0" d="M-479 1433 L28 1433 L28 1486 L-521 1486 C-521 1383 -576 1294 -712 1294 C-852 1294 -903 1381 -903 1486 L-950 1486 C-950 1340 -861 1238 -712 1238 C-583 1238 -498 1316 -479 1433 L-479 1433 Z " />
<glyph glyph-name="uni1DCC" unicode="&#x1dcc;" horiz-adv-x="0" d="M-453 1433 C-434 1316 -349 1238 -220 1238 C-71 1238 18 1340 18 1486 L-29 1486 C-29 1383 -85 1294 -220 1294 C-360 1294 -411 1381 -411 1486 L-966 1486 L-966 1433 L-453 1433 Z " />
<glyph glyph-name="uni1DCD" unicode="&#x1dcd;" horiz-adv-x="0" d="M612 1266 L52 1476 L-17 1476 L-573 1270 L-573 1253 L-532 1226 L17 1432 L568 1226 L612 1253 L612 1266 Z " />
<glyph glyph-name="uni1DCE" unicode="&#x1dce;" horiz-adv-x="0" d="M-540 1074 L-503 1054 C-419 1127 -332 1226 -332 1320 C-332 1421 -382 1469 -458 1469 C-511 1469 -545 1445 -567 1425 L-553 1377 C-532 1394 -504 1415 -459 1415 C-397 1415 -380 1369 -380 1320 C-380 1224 -458 1149 -540 1074 L-540 1074 Z " />
<glyph glyph-name="uni1DCF" unicode="&#x1dcf;" horiz-adv-x="0" d="M-354 -300 C-354 -300 -376 -300 -383 -300 L-532 -300 L-483 -102 L-530 -102 L-591 -353 L-396 -353 L-444 -550 L-397 -550 L-336 -300 L-354 -300 Z " />
<glyph glyph-name="uni1DD0" unicode="&#x1dd0;" horiz-adv-x="0" d="M-438 -66 L-487 -66 C-487 -66 -584 -355 -584 -355 L-558 -400 C-505 -367 -476 -361 -438 -361 C-372 -361 -305 -436 -213 -436 C-138 -436 -93 -391 -77 -271 L-113 -259 C-128 -333 -143 -382 -213 -382 C-293 -382 -359 -307 -433 -307 C-467 -307 -494 -315 -528 -338 L-438 -66 Z " />
<glyph glyph-name="uni1DD1" unicode="&#x1dd1;" horiz-adv-x="0" d="M-284 1307 C-284 1226 -321 1191 -370 1191 C-409 1191 -449 1202 -473 1311 C-494 1410 -531 1459 -606 1459 C-673 1459 -721 1399 -721 1310 C-721 1211 -669 1152 -591 1152 L-591 1192 C-651 1192 -686 1229 -686 1310 C-686 1396 -648 1419 -606 1419 C-566 1419 -528 1396 -506 1293 C-485 1201 -447 1151 -369 1151 C-299 1151 -249 1211 -249 1307 C-249 1414 -303 1466 -374 1473 L-374 1433 C-301 1420 -284 1371 -284 1307 L-284 1307 Z " />
<glyph glyph-name="uni1DD2" unicode="&#x1dd2;" horiz-adv-x="0" d="M-695 1667 C-695 1512 -607 1445 -503 1445 C-448 1445 -412 1460 -382 1483 L-404 1513 C-424 1496 -455 1485 -501 1485 C-605 1485 -660 1558 -660 1667 C-660 1805 -580 1874 -484 1874 C-367 1874 -299 1768 -299 1612 C-299 1315 -438 1242 -570 1190 L-557 1150 C-396 1213 -264 1308 -264 1611 C-264 1793 -344 1914 -487 1914 C-605 1914 -695 1814 -695 1667 L-695 1667 Z " />
<glyph glyph-name="uni1DD3" unicode="&#x1dd3;" horiz-adv-x="0" d="M-139 1366 C-139 1277 -197 1231 -275 1231 C-359 1231 -410 1298 -410 1366 L-445 1366 C-445 1277 -504 1231 -582 1231 C-666 1231 -716 1298 -716 1366 L-752 1366 C-752 1280 -683 1191 -582 1191 C-515 1191 -453 1223 -425 1286 C-398 1233 -344 1191 -275 1191 C-184 1191 -103 1249 -103 1366 L-139 1366 Z " />
<glyph glyph-name="uni1DD4" unicode="&#x1dd4;" horiz-adv-x="0" d="M-96 1479 L-96 1523 C-96 1668 -170 1759 -275 1759 C-350 1759 -415 1711 -449 1624 C-463 1714 -527 1759 -614 1759 C-716 1759 -788 1684 -788 1598 L-752 1596 C-752 1664 -698 1719 -614 1719 C-523 1719 -482 1674 -482 1585 L-482 1510 L-587 1510 C-731 1510 -801 1440 -801 1339 C-801 1248 -748 1191 -659 1191 C-546 1191 -478 1268 -454 1342 C-421 1249 -350 1192 -267 1192 C-191 1192 -142 1229 -110 1282 L-133 1303 C-174 1249 -213 1232 -265 1232 C-358 1232 -437 1323 -437 1461 L-437 1479 L-96 1479 Z M-659 1231 C-731 1231 -765 1273 -765 1339 C-765 1426 -702 1470 -586 1470 L-473 1470 L-473 1461 C-473 1435 -471 1411 -466 1388 C-493 1294 -561 1231 -659 1231 L-659 1231 Z M-275 1719 C-181 1719 -132 1636 -132 1525 L-132 1519 L-436 1519 C-426 1637 -369 1719 -275 1719 L-275 1719 Z " />
<glyph glyph-name="uni1DD5" unicode="&#x1dd5;" horiz-adv-x="0" d="M-269 1759 C-355 1759 -418 1711 -451 1629 C-467 1716 -530 1759 -615 1759 C-717 1759 -789 1684 -789 1598 L-753 1596 C-753 1664 -699 1719 -615 1719 C-524 1719 -483 1674 -483 1585 L-483 1510 L-588 1510 C-732 1510 -802 1440 -802 1339 C-802 1248 -748 1191 -660 1191 C-550 1191 -482 1264 -456 1337 C-426 1245 -360 1192 -269 1192 C-141 1192 -63 1297 -63 1465 L-63 1486 C-63 1654 -140 1759 -269 1759 L-269 1759 Z M-660 1231 C-732 1231 -766 1273 -766 1339 C-766 1426 -703 1470 -587 1470 L-475 1470 L-475 1465 C-475 1436 -473 1408 -468 1383 C-497 1291 -564 1231 -660 1231 L-660 1231 Z M-98 1465 C-98 1333 -151 1232 -269 1232 C-388 1232 -440 1333 -440 1465 L-440 1486 C-440 1618 -387 1719 -269 1719 C-150 1719 -98 1618 -98 1486 L-98 1465 Z " />
<glyph glyph-name="uni1DD6" unicode="&#x1dd6;" horiz-adv-x="0" d="M-188 1759 L-229 1759 L-392 1283 L-398 1259 C-401 1277 -402 1295 -402 1313 L-402 1584 C-402 1701 -471 1759 -570 1759 C-671 1759 -744 1684 -744 1598 L-707 1596 C-707 1664 -654 1719 -570 1719 C-479 1719 -438 1674 -438 1585 L-438 1510 L-543 1510 C-686 1510 -756 1440 -756 1339 C-756 1248 -704 1191 -615 1191 C-531 1191 -472 1233 -437 1285 C-435 1255 -429 1223 -420 1202 L-381 1202 L-384 1209 L-188 1759 Z M-614 1231 C-686 1231 -720 1273 -720 1339 C-720 1426 -658 1470 -542 1470 L-438 1470 L-438 1346 C-471 1276 -532 1231 -614 1231 L-614 1231 Z " />
<glyph glyph-name="uni1DD7" unicode="&#x1dd7;" horiz-adv-x="0" d="M-448 1226 C-549 1226 -610 1324 -610 1462 L-610 1483 C-610 1621 -556 1719 -449 1719 C-372 1719 -307 1666 -303 1566 L-267 1566 C-272 1693 -357 1759 -449 1759 C-571 1759 -645 1645 -645 1483 L-645 1462 C-645 1312 -582 1203 -475 1188 L-484 1126 C-430 1119 -401 1112 -401 1074 C-401 1031 -450 1019 -506 1018 L-502 978 C-425 978 -366 1010 -366 1074 C-366 1131 -400 1148 -444 1161 L-441 1186 C-351 1190 -273 1255 -267 1364 L-303 1364 C-308 1268 -375 1226 -448 1226 L-448 1226 Z " />
<glyph glyph-name="uni1DD8" unicode="&#x1dd8;" horiz-adv-x="0" d="M-499 1980 L-514 1944 C-408 1886 -324 1808 -303 1620 C-338 1667 -395 1693 -459 1693 C-587 1693 -664 1599 -664 1443 C-664 1295 -582 1196 -464 1196 C-342 1196 -263 1312 -263 1479 L-263 1520 C-263 1765 -339 1892 -499 1980 L-499 1980 Z M-298 1479 C-298 1332 -358 1236 -463 1236 C-575 1236 -628 1330 -628 1443 C-628 1562 -585 1653 -459 1653 C-367 1653 -319 1601 -298 1548 L-298 1521 L-298 1479 Z " />
<glyph glyph-name="uni1DD9" unicode="&#x1dd9;" horiz-adv-x="0" d="M-244 1942 L-263 1977 L-384 1895 C-416 1928 -454 1955 -499 1980 L-514 1944 C-478 1924 -445 1902 -415 1875 L-547 1786 L-530 1751 L-388 1846 C-345 1794 -315 1724 -303 1620 C-338 1667 -395 1693 -459 1693 C-587 1693 -664 1599 -664 1443 C-664 1295 -582 1196 -464 1196 C-342 1196 -263 1312 -263 1479 L-263 1520 C-263 1677 -294 1785 -358 1866 L-244 1942 Z M-298 1479 C-298 1332 -358 1236 -463 1236 C-575 1236 -628 1330 -628 1443 C-628 1562 -585 1653 -459 1653 C-367 1653 -319 1601 -298 1548 L-298 1521 L-298 1479 Z " />
<glyph glyph-name="uni1DDA" unicode="&#x1dda;" horiz-adv-x="0" d="M-313 1755 L-312 1653 C-342 1720 -394 1765 -471 1765 C-585 1765 -650 1659 -650 1485 L-650 1474 C-650 1306 -584 1192 -473 1192 C-395 1192 -341 1234 -312 1291 L-312 1211 C-312 1087 -365 1021 -466 1021 C-525 1021 -560 1049 -598 1101 L-621 1074 C-587 1019 -535 981 -466 981 C-355 981 -278 1060 -278 1211 L-278 1755 L-313 1755 Z M-473 1232 C-568 1232 -614 1327 -614 1474 L-614 1485 C-614 1631 -567 1725 -472 1725 C-375 1725 -329 1645 -312 1579 L-312 1360 C-333 1287 -391 1232 -473 1232 L-473 1232 Z " />
<glyph glyph-name="uni1DDB" unicode="&#x1ddb;" horiz-adv-x="0" d="M-660 1435 C-660 1291 -576 1192 -451 1192 C-344 1192 -284 1248 -266 1280 L-266 1485 L-434 1485 L-434 1445 L-301 1445 L-301 1298 C-317 1268 -358 1232 -451 1232 C-555 1232 -626 1309 -626 1435 L-626 1560 C-626 1685 -557 1762 -457 1762 C-340 1762 -309 1711 -299 1625 L-266 1633 C-275 1743 -335 1802 -457 1802 C-578 1802 -660 1704 -660 1559 L-660 1435 Z " />
<glyph glyph-name="uni1DDC" unicode="&#x1ddc;" horiz-adv-x="0" d="M-251 1202 L-468 1528 L-264 1754 L-316 1754 L-524 1519 L-567 1471 L-567 1998 L-602 1998 L-602 1202 L-567 1202 L-567 1422 L-502 1490 L-493 1500 L-294 1202 L-251 1202 Z " />
<glyph glyph-name="uni1DDD" unicode="&#x1ddd;" horiz-adv-x="0" d="M-444 1991 L-480 1991 L-480 1202 L-444 1202 L-444 1991 Z " />
<glyph glyph-name="uni1DDE" unicode="&#x1dde;" horiz-adv-x="0" d="M-550 1242 L-550 1797 L-586 1797 L-586 1202 L-291 1202 L-291 1242 L-550 1242 Z " />
<glyph glyph-name="uni1DDF" unicode="&#x1ddf;" horiz-adv-x="0" d="M-210 1797 L-251 1797 L-463 1254 L-676 1797 L-717 1797 L-717 1202 L-682 1202 L-682 1719 L-476 1202 L-449 1202 L-246 1716 L-246 1202 L-210 1202 L-210 1797 Z " />
<glyph glyph-name="uni1DE0" unicode="&#x1de0;" horiz-adv-x="0" d="M-476 1764 C-548 1764 -598 1732 -627 1680 L-627 1753 L-663 1753 L-663 1201 L-627 1201 L-627 1583 C-615 1662 -576 1724 -475 1724 C-400 1724 -356 1684 -356 1517 L-356 1201 L-320 1201 L-320 1516 C-320 1702 -374 1764 -476 1764 L-476 1764 Z " />
<glyph glyph-name="uni1DE1" unicode="&#x1de1;" horiz-adv-x="0" d="M-289 1797 L-289 1268 L-637 1797 L-672 1797 L-672 1202 L-637 1202 L-637 1733 L-289 1202 L-254 1202 L-254 1797 L-289 1797 Z " />
<glyph glyph-name="uni1DE2" unicode="&#x1de2;" horiz-adv-x="0" d="M-286 1290 L-286 1351 C-286 1414 -304 1467 -360 1489 C-306 1509 -285 1571 -285 1635 C-285 1741 -344 1797 -452 1797 L-650 1797 L-650 1202 L-614 1202 L-614 1476 L-445 1476 C-365 1476 -322 1429 -322 1350 L-322 1291 C-322 1273 -322 1223 -315 1202 L-276 1202 L-276 1213 C-285 1230 -286 1259 -286 1290 L-286 1290 Z M-452 1516 L-614 1516 L-614 1757 L-452 1757 C-356 1757 -320 1721 -320 1635 C-320 1550 -356 1516 -452 1516 L-452 1516 Z " />
<glyph glyph-name="uni1DE3" unicode="&#x1de3;" horiz-adv-x="0" d="M-313 1589 C-313 1696 -385 1762 -477 1762 C-532 1762 -592 1736 -636 1694 L-615 1654 C-572 1685 -537 1709 -477 1709 C-416 1709 -360 1674 -360 1589 C-360 1493 -426 1459 -528 1411 L-405 1202 L-353 1202 L-353 1206 L-460 1388 C-382 1429 -313 1485 -313 1589 L-313 1589 Z " />
<glyph glyph-name="uni1DE4" unicode="&#x1de4;" horiz-adv-x="0" d="M-462 1469 C-347 1439 -327 1387 -327 1337 C-327 1279 -365 1232 -458 1232 C-526 1232 -586 1255 -599 1343 L-635 1343 C-635 1262 -573 1192 -458 1192 C-356 1192 -292 1252 -292 1337 C-292 1431 -348 1477 -447 1503 C-570 1535 -584 1576 -584 1626 C-584 1677 -551 1725 -461 1725 C-375 1725 -328 1680 -328 1607 L-292 1607 C-292 1701 -356 1765 -461 1765 C-556 1765 -619 1708 -619 1626 C-619 1535 -567 1496 -462 1469 L-462 1469 Z " />
<glyph glyph-name="uni1DE5" unicode="&#x1de5;" horiz-adv-x="0" d="M-481 1202 L-445 1202 L-445 1845 C-445 1931 -418 1969 -356 1969 C-338 1969 -322 1967 -305 1961 L-302 2000 C-320 2007 -339 2009 -357 2009 C-434 2009 -481 1951 -481 1845 L-481 1202 Z " />
<glyph glyph-name="uni1DE6" unicode="&#x1de6;" horiz-adv-x="0" d="M-606 1242 L-306 1713 L-306 1754 L-634 1754 L-634 1714 L-345 1714 L-647 1241 L-647 1202 L-280 1202 L-280 1242 L-606 1242 Z " />
<glyph glyph-name="uni1DE7" unicode="&#x1de7;" horiz-adv-x="0" d="M-244 1236 C-255 1233 -263 1232 -273 1232 C-300 1232 -317 1258 -317 1333 L-317 1755 L-351 1755 L-351 1632 C-380 1711 -431 1765 -509 1765 C-621 1765 -687 1653 -687 1479 L-687 1469 C-687 1300 -622 1192 -510 1192 C-431 1192 -379 1242 -351 1311 C-347 1225 -324 1192 -272 1192 C-262 1192 -251 1195 -240 1199 L-244 1236 Z M-510 1232 C-611 1232 -652 1342 -652 1469 L-652 1479 C-652 1635 -600 1725 -509 1725 C-412 1725 -367 1625 -351 1546 L-351 1390 C-370 1300 -418 1232 -510 1232 L-510 1232 Z " />
<glyph glyph-name="uni1DE8" unicode="&#x1de8;" horiz-adv-x="0" d="M-456 1759 C-532 1759 -584 1718 -614 1654 L-614 1997 L-650 1997 L-650 1202 L-615 1202 L-614 1290 C-585 1233 -532 1191 -455 1191 C-334 1191 -278 1304 -278 1473 L-278 1483 C-278 1657 -343 1759 -456 1759 L-456 1759 Z M-313 1473 C-313 1326 -358 1231 -454 1231 C-538 1231 -591 1287 -614 1355 L-614 1579 C-594 1644 -547 1719 -456 1719 C-358 1719 -313 1630 -313 1483 L-313 1473 Z " />
<glyph glyph-name="uni1DE9" unicode="&#x1de9;" horiz-adv-x="0" d="M-392 1601 C-339 1633 -311 1694 -311 1764 C-311 1876 -378 1955 -482 1955 C-574 1955 -661 1876 -661 1739 L-661 992 L-625 992 L-625 1276 C-587 1219 -516 1192 -459 1192 C-343 1192 -265 1267 -265 1399 C-265 1490 -307 1572 -392 1601 L-392 1601 Z M-460 1232 C-534 1232 -600 1278 -625 1337 L-625 1739 C-625 1849 -562 1915 -482 1915 C-389 1915 -346 1844 -346 1764 C-346 1685 -379 1616 -483 1616 L-528 1616 L-528 1576 L-466 1576 C-361 1576 -301 1511 -301 1399 C-301 1288 -356 1232 -460 1232 L-460 1232 Z " />
<glyph glyph-name="uni1DEA" unicode="&#x1dea;" horiz-adv-x="0" d="M-482 1759 C-556 1759 -606 1722 -638 1669 L-614 1648 C-574 1702 -535 1719 -482 1719 C-390 1719 -310 1628 -310 1490 L-310 1472 L-652 1472 L-652 1428 C-652 1283 -578 1192 -473 1192 C-364 1192 -274 1294 -274 1468 L-274 1490 C-274 1650 -367 1759 -482 1759 L-482 1759 Z M-473 1232 C-566 1232 -616 1315 -616 1426 L-616 1432 L-311 1432 C-321 1314 -378 1232 -473 1232 L-473 1232 Z " />
<glyph glyph-name="uni1DEB" unicode="&#x1deb;" horiz-adv-x="0" d="M-351 2009 C-428 2009 -475 1951 -475 1845 L-475 1759 L-573 1759 L-573 1719 L-475 1719 L-475 1202 L-439 1202 L-439 1719 L-354 1719 L-354 1759 L-439 1759 L-439 1845 C-439 1931 -412 1969 -350 1969 C-332 1969 -316 1967 -299 1961 L-296 2000 C-314 2007 -333 2009 -351 2009 L-351 2009 Z " />
<glyph glyph-name="uni1DEC" unicode="&#x1dec;" horiz-adv-x="0" d="M-400 1537 C-415 1537 -427 1543 -438 1551 L-438 1618 C-428 1613 -415 1609 -400 1609 C-357 1609 -323 1647 -323 1703 L-349 1709 C-349 1666 -372 1637 -400 1637 C-415 1637 -427 1643 -438 1651 L-438 1991 L-474 1991 L-474 1682 C-488 1692 -504 1700 -525 1700 C-568 1700 -602 1665 -602 1609 L-576 1603 C-576 1646 -555 1672 -525 1672 C-503 1672 -488 1660 -474 1647 L-474 1582 C-488 1592 -504 1600 -525 1600 C-568 1600 -602 1565 -602 1509 L-576 1503 C-576 1546 -555 1572 -525 1572 C-503 1572 -488 1560 -474 1547 L-474 1202 L-438 1202 L-438 1518 C-428 1513 -415 1509 -400 1509 C-357 1509 -323 1547 -323 1603 L-349 1609 C-349 1566 -372 1537 -400 1537 L-400 1537 Z " />
<glyph glyph-name="uni1DED" unicode="&#x1ded;" horiz-adv-x="0" d="M-457 1759 C-584 1759 -663 1654 -663 1486 L-663 1465 C-663 1374 -640 1301 -598 1253 L-710 1044 L-675 1021 L-567 1225 C-536 1204 -499 1192 -457 1192 C-329 1192 -251 1297 -251 1465 L-251 1486 C-251 1654 -328 1759 -457 1759 L-457 1759 Z M-286 1465 C-286 1333 -339 1232 -457 1232 C-576 1232 -628 1333 -628 1465 L-628 1486 C-628 1618 -575 1719 -457 1719 C-338 1719 -286 1618 -286 1486 L-286 1465 Z " />
<glyph glyph-name="uni1DEE" unicode="&#x1dee;" horiz-adv-x="0" d="M-482 1760 C-559 1760 -612 1718 -641 1663 L-642 1749 L-677 1749 L-677 954 L-641 954 L-641 1297 C-611 1233 -559 1192 -483 1192 C-370 1192 -305 1294 -305 1468 L-305 1478 C-305 1647 -362 1760 -482 1760 L-482 1760 Z M-340 1468 C-340 1321 -385 1232 -483 1232 C-574 1232 -622 1308 -641 1373 L-641 1594 C-619 1663 -566 1720 -482 1720 C-385 1720 -340 1625 -340 1478 L-340 1468 Z " />
<glyph glyph-name="uni1DEF" unicode="&#x1def;" horiz-adv-x="0" d="M-357 2009 C-434 2009 -481 1951 -481 1845 L-481 1118 C-481 1032 -508 994 -570 994 C-589 994 -606 996 -621 1002 L-625 963 C-606 956 -587 954 -568 954 C-492 954 -445 1012 -445 1118 L-445 1845 C-445 1931 -418 1969 -356 1969 C-337 1969 -321 1967 -306 1961 L-302 2000 C-320 2007 -339 2009 -357 2009 L-357 2009 Z " />
<glyph glyph-name="uni1DF0" unicode="&#x1df0;" horiz-adv-x="0" d="M-322 1754 L-322 1372 C-334 1293 -373 1231 -474 1231 C-549 1231 -593 1271 -593 1438 L-593 1754 L-629 1754 L-629 1439 C-629 1355 -618 1296 -596 1257 L-710 1044 L-675 1021 L-569 1222 C-544 1200 -512 1191 -473 1191 C-401 1191 -351 1223 -322 1275 L-322 1202 L-286 1202 L-286 1754 L-322 1754 Z " />
<glyph glyph-name="uni1DF1" unicode="&#x1df1;" horiz-adv-x="0" d="M-199 1754 L-295 1362 L-317 1266 L-339 1362 L-441 1754 L-483 1754 L-584 1362 L-608 1264 L-630 1362 L-726 1754 L-762 1754 L-625 1202 L-592 1202 L-487 1617 L-463 1715 L-441 1617 L-333 1202 L-300 1202 L-163 1754 L-199 1754 Z " />
<glyph glyph-name="uni1DF2" unicode="&#x1df2;" horiz-adv-x="0" d="M-269 1202 C-283 1229 -290 1273 -290 1313 L-290 1584 C-290 1701 -359 1759 -458 1759 C-559 1759 -632 1684 -632 1598 L-595 1596 C-595 1664 -542 1719 -458 1719 C-367 1719 -326 1674 -326 1585 L-326 1510 L-431 1510 C-574 1510 -644 1440 -644 1339 C-644 1248 -592 1191 -503 1191 C-419 1191 -360 1233 -325 1285 C-323 1255 -317 1223 -308 1202 L-269 1202 Z M-549 1892 C-532 1892 -519 1907 -519 1926 C-519 1945 -532 1961 -549 1961 C-567 1961 -578 1945 -578 1926 C-578 1907 -567 1892 -549 1892 L-549 1892 Z M-378 1892 C-361 1892 -347 1907 -347 1926 C-347 1945 -361 1961 -378 1961 C-395 1961 -407 1945 -407 1926 C-407 1907 -395 1892 -378 1892 L-378 1892 Z M-502 1231 C-574 1231 -608 1273 -608 1339 C-608 1426 -546 1470 -430 1470 L-326 1470 L-326 1346 C-359 1276 -420 1231 -502 1231 L-502 1231 Z " />
<glyph glyph-name="uni1DF3" unicode="&#x1df3;" horiz-adv-x="0" d="M-670 1465 C-670 1297 -592 1192 -464 1192 C-336 1192 -258 1297 -258 1465 L-258 1486 C-258 1654 -335 1759 -464 1759 C-590 1759 -670 1654 -670 1486 L-670 1465 Z M-549 1961 C-567 1961 -578 1945 -578 1926 C-578 1907 -567 1892 -549 1892 C-532 1892 -519 1907 -519 1926 C-519 1945 -532 1961 -549 1961 L-549 1961 Z M-377 1961 C-396 1961 -408 1945 -408 1926 C-408 1907 -396 1892 -377 1892 C-362 1892 -348 1907 -348 1926 C-348 1945 -362 1961 -377 1961 L-377 1961 Z M-293 1465 C-293 1333 -346 1232 -464 1232 C-582 1232 -635 1333 -635 1465 L-635 1486 C-635 1618 -582 1719 -464 1719 C-345 1719 -293 1618 -293 1486 L-293 1465 Z " />
<glyph glyph-name="uni1DF4" unicode="&#x1df4;" horiz-adv-x="0" d="M-322 1754 L-322 1372 C-334 1293 -373 1231 -474 1231 C-549 1231 -593 1271 -593 1438 L-593 1754 L-629 1754 L-629 1439 C-629 1253 -575 1191 -473 1191 C-401 1191 -351 1223 -322 1275 L-322 1202 L-286 1202 L-286 1754 L-322 1754 Z M-548 1892 C-532 1892 -519 1907 -519 1926 C-519 1945 -532 1961 -548 1961 C-566 1961 -578 1945 -578 1926 C-578 1907 -566 1892 -548 1892 L-548 1892 Z M-377 1892 C-361 1892 -347 1907 -347 1926 C-347 1945 -361 1961 -377 1961 C-396 1961 -407 1945 -407 1926 C-407 1907 -396 1892 -377 1892 L-377 1892 Z " />
<glyph glyph-name="uni1DF5" unicode="&#x1df5;" horiz-adv-x="0" d="M-435 1225 L-435 1509 L-482 1509 L-482 1225 L-633 1225 L-633 1171 L-284 1171 L-284 1225 L-435 1225 Z " />
<glyph glyph-name="uni1DFC" unicode="&#x1dfc;" horiz-adv-x="0" d="M542 -379 L598 -379 C478 -233 338 -91 19 -91 C-301 -91 -442 -233 -561 -379 L-505 -379 C-386 -274 -292 -147 19 -147 C324 -147 423 -276 542 -379 L542 -379 Z " />
<glyph glyph-name="uni1DFD" unicode="&#x1dfd;" horiz-adv-x="0" d="M-177 -80 L-225 -80 C-225 -164 -272 -211 -327 -211 C-423 -211 -455 -87 -572 -87 C-658 -87 -723 -156 -723 -266 L-675 -266 C-675 -182 -629 -141 -572 -141 C-471 -141 -450 -266 -327 -266 C-244 -266 -177 -191 -177 -80 L-177 -80 Z M-177 -273 L-225 -273 C-225 -357 -272 -404 -327 -404 C-423 -404 -455 -280 -572 -280 C-658 -280 -723 -349 -723 -459 L-675 -459 C-675 -375 -629 -334 -572 -334 C-471 -334 -450 -459 -327 -459 C-244 -459 -177 -384 -177 -273 L-177 -273 Z " />
<glyph glyph-name="uni1DFE" unicode="&#x1dfe;" horiz-adv-x="0" d="M-147 1855 L-147 1915 L-767 1576 L-767 1522 L-147 1182 L-147 1241 L-626 1503 L-720 1549 L-626 1592 L-147 1855 Z " />
<glyph glyph-name="uni1DFF" unicode="&#x1dff;" horiz-adv-x="0" d="M-1135 -120 L-656 -291 L-575 -309 L-656 -329 L-1135 -499 L-1135 -547 L-515 -326 L-515 -291 L-1135 -71 L-1135 -120 Z M3 -78 L-220 -444 L-258 -516 L-297 -444 L-519 -78 L-570 -78 L-281 -551 L-234 -551 L55 -78 L3 -78 Z " />
<glyph glyph-name="Wgrave" unicode="&#x1e80;" horiz-adv-x="1616" d="M1494 1456 L1239 330 L1182 92 L1127 330 L836 1456 L783 1456 L490 330 L435 92 L379 330 L123 1456 L69 1456 L404 0 L459 0 L768 1214 L810 1366 L851 1214 L1159 0 L1213 0 L1547 1456 L1494 1456 Z M847 1589 L670 1855 L605 1855 L790 1589 L847 1589 Z " />
<glyph glyph-name="wgrave" unicode="&#x1e81;" horiz-adv-x="1356" d="M1204 1082 L1017 313 L966 82 L905 313 L698 1082 L650 1082 L442 313 L381 84 L331 313 L143 1082 L88 1082 L355 0 L403 0 L627 813 L674 1003 L716 813 L943 0 L991 0 L1259 1082 L1204 1082 Z M711 1270 L534 1536 L469 1536 L654 1270 L711 1270 Z " />
<glyph glyph-name="Wacute" unicode="&#x1e82;" horiz-adv-x="1616" d="M1494 1456 L1239 330 L1182 92 L1127 330 L836 1456 L783 1456 L490 330 L435 92 L379 330 L123 1456 L69 1456 L404 0 L459 0 L768 1214 L810 1366 L851 1214 L1159 0 L1213 0 L1547 1456 L1494 1456 Z M1012 1855 L948 1855 L769 1589 L827 1589 L1012 1855 Z " />
<glyph glyph-name="wacute" unicode="&#x1e83;" horiz-adv-x="1356" d="M1204 1082 L1017 313 L966 82 L905 313 L698 1082 L650 1082 L442 313 L381 84 L331 313 L143 1082 L88 1082 L355 0 L403 0 L627 813 L674 1003 L716 813 L943 0 L991 0 L1259 1082 L1204 1082 Z M876 1536 L812 1536 L633 1270 L691 1270 L876 1536 Z " />
<glyph glyph-name="Wdieresis" unicode="&#x1e84;" horiz-adv-x="1616" d="M1494 1456 L1239 330 L1182 92 L1127 330 L836 1456 L783 1456 L490 330 L435 92 L379 330 L123 1456 L69 1456 L404 0 L459 0 L768 1214 L810 1366 L851 1214 L1159 0 L1213 0 L1547 1456 L1494 1456 Z M597 1685 C626 1685 649 1709 649 1740 C649 1771 626 1796 597 1796 C566 1796 544 1771 544 1740 C544 1709 566 1685 597 1685 L597 1685 Z M1016 1685 C1046 1685 1070 1709 1070 1740 C1070 1771 1046 1796 1016 1796 C986 1796 964 1771 964 1740 C964 1709 986 1685 1016 1685 L1016 1685 Z " />
<glyph glyph-name="wdieresis" unicode="&#x1e85;" horiz-adv-x="1356" d="M1204 1082 L1017 313 L966 82 L905 313 L698 1082 L650 1082 L442 313 L381 84 L331 313 L143 1082 L88 1082 L355 0 L403 0 L627 813 L674 1003 L716 813 L943 0 L991 0 L1259 1082 L1204 1082 Z M461 1366 C490 1366 513 1390 513 1421 C513 1452 490 1477 461 1477 C430 1477 408 1452 408 1421 C408 1390 430 1366 461 1366 L461 1366 Z M880 1366 C910 1366 934 1390 934 1421 C934 1452 910 1477 880 1477 C850 1477 828 1452 828 1421 C828 1390 850 1366 880 1366 L880 1366 Z " />
<glyph glyph-name="uni1E9E" unicode="&#x1e9e;" horiz-adv-x="1165" d="M640 829 L580 829 L923 1234 C828 1381 709 1476 539 1476 C262 1476 186 1284 186 998 L186 0 L234 0 L234 996 C234 1300 323 1422 539 1422 C669 1422 780 1349 850 1236 L510 833 L510 775 L639 775 C902 775 998 621 998 408 C998 152 861 34 656 34 C574 34 502 61 456 87 L428 29 C508 -6 577 -20 657 -20 C902 -20 1047 135 1047 408 C1047 657 918 829 640 829 L640 829 Z " />
<glyph glyph-name="uni1EA0" unicode="&#x1ea0;" horiz-adv-x="1079" d="M1033 0 L568 1456 L510 1456 L45 0 L98 0 L236 435 L842 435 L980 0 L1033 0 Z M561 -162 C530 -162 508 -187 508 -218 C508 -249 530 -273 561 -273 C590 -273 614 -249 614 -218 C614 -187 590 -162 561 -162 L561 -162 Z M253 489 L539 1390 L825 489 L253 489 Z " />
<glyph glyph-name="uni1EA1" unicode="&#x1ea1;" horiz-adv-x="956" d="M790 218 L790 781 C790 1009 654 1102 462 1102 C263 1102 120 963 120 786 L169 784 C169 942 296 1048 462 1048 C641 1048 742 963 742 783 L742 604 L510 604 C242 604 96 467 96 274 C96 83 208 -21 380 -21 C564 -21 681 77 742 189 C743 122 748 49 759 0 L814 0 L814 9 C798 53 790 140 790 218 L790 218 Z M448 -162 C417 -162 395 -187 395 -218 C395 -249 417 -273 448 -273 C477 -273 501 -249 501 -218 C501 -187 477 -162 448 -162 L448 -162 Z M381 32 C241 32 144 120 144 270 C144 434 268 549 513 549 L742 549 L742 280 C681 128 559 32 381 32 L381 32 Z " />
<glyph glyph-name="uni1EA2" unicode="&#x1ea2;" horiz-adv-x="1079" d="M980 0 L1033 0 L568 1456 L510 1456 L45 0 L98 0 L236 435 L842 435 L980 0 Z M680 1800 C680 1726 631 1697 519 1686 L520 1587 L562 1587 L562 1641 C655 1649 729 1693 729 1800 C729 1900 628 1959 485 1959 L479 1910 C571 1910 680 1884 680 1800 L680 1800 Z M253 489 L539 1390 L825 489 L253 489 Z " />
<glyph glyph-name="uni1EA3" unicode="&#x1ea3;" horiz-adv-x="956" d="M790 218 L790 781 C790 1009 654 1102 462 1102 C263 1102 120 963 120 786 L169 784 C169 942 296 1048 462 1048 C641 1048 742 963 742 783 L742 604 L510 604 C242 604 96 467 96 274 C96 83 208 -21 380 -21 C564 -21 681 77 742 189 C743 122 748 49 759 0 L814 0 L814 9 C798 53 790 140 790 218 L790 218 Z M650 1480 C650 1406 601 1377 489 1366 L490 1267 L532 1267 L532 1321 C625 1329 699 1373 699 1480 C699 1580 598 1639 455 1639 L449 1590 C541 1590 650 1564 650 1480 L650 1480 Z M381 32 C241 32 144 120 144 270 C144 434 268 549 513 549 L742 549 L742 280 C681 128 559 32 381 32 L381 32 Z " />
<glyph glyph-name="uni1EA4" unicode="&#x1ea4;" horiz-adv-x="1079" d="M980 0 L1033 0 L568 1456 L510 1456 L45 0 L98 0 L236 435 L842 435 L980 0 Z M537 1729 L711 1543 L784 1543 L572 1766 L503 1766 L290 1543 L363 1543 L537 1729 Z M935 1905 L871 1905 L740 1701 L794 1701 L935 1905 Z M253 489 L539 1390 L825 489 L253 489 Z " />
<glyph glyph-name="uni1EA5" unicode="&#x1ea5;" horiz-adv-x="956" d="M790 781 C790 1009 654 1102 462 1102 C263 1102 120 963 120 786 L169 784 C169 942 296 1048 462 1048 C641 1048 742 963 742 783 L742 604 L510 604 C242 604 96 467 96 274 C96 83 208 -21 380 -21 C564 -21 681 77 742 189 C743 122 748 49 759 0 L814 0 L814 9 C798 53 790 140 790 218 L790 781 Z M507 1409 L681 1223 L754 1223 L542 1446 L473 1446 L260 1223 L333 1223 L507 1409 Z M905 1585 L841 1585 L710 1381 L764 1381 L905 1585 Z M381 32 C241 32 144 120 144 270 C144 434 268 549 513 549 L742 549 L742 280 C681 128 559 32 381 32 L381 32 Z " />
<glyph glyph-name="uni1EA6" unicode="&#x1ea6;" horiz-adv-x="1079" d="M980 0 L1033 0 L568 1456 L510 1456 L45 0 L98 0 L236 435 L842 435 L980 0 Z M332 1701 L201 1905 L137 1905 L277 1701 L332 1701 Z M361 1543 L535 1729 L708 1543 L782 1543 L568 1766 L500 1766 L288 1543 L361 1543 Z M253 489 L539 1390 L825 489 L253 489 Z " />
<glyph glyph-name="uni1EA7" unicode="&#x1ea7;" horiz-adv-x="956" d="M790 218 L790 781 C790 1009 654 1102 462 1102 C263 1102 120 963 120 786 L169 784 C169 942 296 1048 462 1048 C641 1048 742 963 742 783 L742 604 L510 604 C242 604 96 467 96 274 C96 83 208 -21 380 -21 C564 -21 681 77 742 189 C743 122 748 49 759 0 L814 0 L814 9 C798 53 790 140 790 218 L790 218 Z M302 1381 L171 1585 L107 1585 L247 1381 L302 1381 Z M331 1223 L505 1409 L678 1223 L752 1223 L538 1446 L470 1446 L258 1223 L331 1223 Z M381 32 C241 32 144 120 144 270 C144 434 268 549 513 549 L742 549 L742 280 C681 128 559 32 381 32 L381 32 Z " />
<glyph glyph-name="uni1EA8" unicode="&#x1ea8;" horiz-adv-x="1079" d="M980 0 L1033 0 L568 1456 L510 1456 L45 0 L98 0 L236 435 L842 435 L980 0 Z M541 1778 L714 1592 L788 1592 L576 1815 L506 1815 L295 1592 L367 1592 L541 1778 Z M909 1882 C909 1825 878 1809 782 1801 L782 1708 L823 1708 L823 1752 C900 1760 962 1797 962 1889 C962 1973 876 2024 756 2024 L751 1969 C828 1969 909 1951 909 1882 L909 1882 Z M253 489 L539 1390 L825 489 L253 489 Z " />
<glyph glyph-name="uni1EA9" unicode="&#x1ea9;" horiz-adv-x="956" d="M790 781 C790 1009 654 1102 462 1102 C263 1102 120 963 120 786 L169 784 C169 942 296 1048 462 1048 C641 1048 742 963 742 783 L742 604 L510 604 C242 604 96 467 96 274 C96 83 208 -21 380 -21 C564 -21 681 77 742 189 C743 122 748 49 759 0 L814 0 L814 9 C798 53 790 140 790 218 L790 781 Z M511 1458 L684 1272 L758 1272 L546 1495 L476 1495 L265 1272 L337 1272 L511 1458 Z M726 1704 L721 1649 C798 1649 879 1631 879 1562 C879 1505 848 1489 752 1481 L752 1388 L793 1388 L793 1432 C870 1440 932 1477 932 1569 C932 1653 846 1704 726 1704 L726 1704 Z M381 32 C241 32 144 120 144 270 C144 434 268 549 513 549 L742 549 L742 280 C681 128 559 32 381 32 L381 32 Z " />
<glyph glyph-name="uni1EAA" unicode="&#x1eaa;" horiz-adv-x="1079" d="M980 0 L1033 0 L568 1456 L510 1456 L45 0 L98 0 L236 435 L842 435 L980 0 Z M538 1748 L711 1562 L785 1562 L564 1785 L511 1785 L292 1562 L364 1562 L538 1748 Z M466 1939 C540 1939 558 1834 648 1834 C710 1834 758 1890 758 1974 L715 1982 C715 1919 690 1885 648 1885 C577 1885 554 1991 466 1991 C405 1991 356 1917 356 1834 L399 1826 C399 1890 424 1939 466 1939 L466 1939 Z M253 489 L539 1390 L825 489 L253 489 Z " />
<glyph glyph-name="uni1EAB" unicode="&#x1eab;" horiz-adv-x="956" d="M790 218 L790 781 C790 1009 654 1102 462 1102 C263 1102 120 963 120 786 L169 784 C169 942 296 1048 462 1048 C641 1048 742 963 742 783 L742 604 L510 604 C242 604 96 467 96 274 C96 83 208 -21 380 -21 C564 -21 681 77 742 189 C743 122 748 49 759 0 L814 0 L814 9 C798 53 790 140 790 218 L790 218 Z M508 1428 L681 1242 L755 1242 L534 1465 L481 1465 L262 1242 L334 1242 L508 1428 Z M436 1619 C510 1619 528 1514 618 1514 C680 1514 728 1570 728 1654 L685 1662 C685 1599 660 1565 618 1565 C547 1565 524 1671 436 1671 C375 1671 326 1597 326 1514 L369 1506 C369 1570 394 1619 436 1619 L436 1619 Z M381 32 C241 32 144 120 144 270 C144 434 268 549 513 549 L742 549 L742 280 C681 128 559 32 381 32 L381 32 Z " />
<glyph glyph-name="uni1EAC" unicode="&#x1eac;" horiz-adv-x="1079" d="M1033 0 L568 1456 L510 1456 L45 0 L98 0 L236 435 L842 435 L980 0 L1033 0 Z M540 1779 L698 1583 L758 1583 L758 1593 L558 1836 L522 1836 L326 1597 L326 1583 L382 1583 L540 1779 Z M561 -162 C530 -162 508 -187 508 -218 C508 -249 530 -273 561 -273 C590 -273 614 -249 614 -218 C614 -187 590 -162 561 -162 L561 -162 Z M253 489 L539 1390 L825 489 L253 489 Z " />
<glyph glyph-name="uni1EAD" unicode="&#x1ead;" horiz-adv-x="956" d="M790 218 L790 781 C790 1009 654 1102 462 1102 C263 1102 120 963 120 786 L169 784 C169 942 296 1048 462 1048 C641 1048 742 963 742 783 L742 604 L510 604 C242 604 96 467 96 274 C96 83 208 -21 380 -21 C564 -21 681 77 742 189 C743 122 748 49 759 0 L814 0 L814 9 C798 53 790 140 790 218 L790 218 Z M510 1459 L668 1263 L728 1263 L728 1273 L528 1516 L492 1516 L296 1277 L296 1263 L352 1263 L510 1459 Z M448 -162 C417 -162 395 -187 395 -218 C395 -249 417 -273 448 -273 C477 -273 501 -249 501 -218 C501 -187 477 -162 448 -162 L448 -162 Z M381 32 C241 32 144 120 144 270 C144 434 268 549 513 549 L742 549 L742 280 C681 128 559 32 381 32 L381 32 Z " />
<glyph glyph-name="uni1EAE" unicode="&#x1eae;" horiz-adv-x="1079" d="M980 0 L1033 0 L568 1456 L510 1456 L45 0 L98 0 L236 435 L842 435 L980 0 Z M532 1588 C682 1588 772 1673 772 1796 L724 1796 C724 1710 669 1634 532 1634 C390 1634 339 1708 339 1796 L291 1796 C291 1673 382 1588 532 1588 L532 1588 Z M676 1977 L619 1977 L478 1764 L526 1764 L676 1977 Z M253 489 L539 1390 L825 489 L253 489 Z " />
<glyph glyph-name="uni1EAF" unicode="&#x1eaf;" horiz-adv-x="956" d="M790 218 L790 781 C790 1009 654 1102 462 1102 C263 1102 120 963 120 786 L169 784 C169 942 296 1048 462 1048 C641 1048 742 963 742 783 L742 604 L510 604 C242 604 96 467 96 274 C96 83 208 -21 380 -21 C564 -21 681 77 742 189 C743 122 748 49 759 0 L814 0 L814 9 C798 53 790 140 790 218 L790 218 Z M502 1268 C652 1268 742 1353 742 1476 L694 1476 C694 1390 639 1314 502 1314 C360 1314 309 1388 309 1476 L261 1476 C261 1353 352 1268 502 1268 L502 1268 Z M646 1657 L589 1657 L448 1444 L496 1444 L646 1657 Z M381 32 C241 32 144 120 144 270 C144 434 268 549 513 549 L742 549 L742 280 C681 128 559 32 381 32 L381 32 Z " />
<glyph glyph-name="uni1EB0" unicode="&#x1eb0;" horiz-adv-x="1079" d="M980 0 L1033 0 L568 1456 L510 1456 L45 0 L98 0 L236 435 L842 435 L980 0 Z M581 1764 L441 1977 L384 1977 L534 1764 L581 1764 Z M532 1588 C682 1588 772 1673 772 1796 L724 1796 C724 1710 669 1634 532 1634 C390 1634 339 1708 339 1796 L291 1796 C291 1673 382 1588 532 1588 L532 1588 Z M253 489 L539 1390 L825 489 L253 489 Z " />
<glyph glyph-name="uni1EB1" unicode="&#x1eb1;" horiz-adv-x="956" d="M790 218 L790 781 C790 1009 654 1102 462 1102 C263 1102 120 963 120 786 L169 784 C169 942 296 1048 462 1048 C641 1048 742 963 742 783 L742 604 L510 604 C242 604 96 467 96 274 C96 83 208 -21 380 -21 C564 -21 681 77 742 189 C743 122 748 49 759 0 L814 0 L814 9 C798 53 790 140 790 218 L790 218 Z M551 1444 L411 1657 L354 1657 L504 1444 L551 1444 Z M502 1268 C652 1268 742 1353 742 1476 L694 1476 C694 1390 639 1314 502 1314 C360 1314 309 1388 309 1476 L261 1476 C261 1353 352 1268 502 1268 L502 1268 Z M381 32 C241 32 144 120 144 270 C144 434 268 549 513 549 L742 549 L742 280 C681 128 559 32 381 32 L381 32 Z " />
<glyph glyph-name="uni1EB2" unicode="&#x1eb2;" horiz-adv-x="1079" d="M980 0 L1033 0 L568 1456 L510 1456 L45 0 L98 0 L236 435 L842 435 L980 0 Z M530 1581 C675 1581 763 1665 763 1785 L715 1785 C715 1701 662 1627 530 1627 C392 1627 342 1699 342 1785 L295 1785 C295 1665 384 1581 530 1581 L530 1581 Z M665 1957 C665 1890 619 1865 511 1857 L511 1768 L551 1768 L552 1815 C642 1823 713 1862 713 1957 C713 2046 616 2096 479 2096 L473 2053 C561 2053 665 2030 665 1957 L665 1957 Z M253 489 L539 1390 L825 489 L253 489 Z " />
<glyph glyph-name="uni1EB3" unicode="&#x1eb3;" horiz-adv-x="956" d="M790 218 L790 781 C790 1009 654 1102 462 1102 C263 1102 120 963 120 786 L169 784 C169 942 296 1048 462 1048 C641 1048 742 963 742 783 L742 604 L510 604 C242 604 96 467 96 274 C96 83 208 -21 380 -21 C564 -21 681 77 742 189 C743 122 748 49 759 0 L814 0 L814 9 C798 53 790 140 790 218 L790 218 Z M500 1261 C645 1261 733 1345 733 1465 L685 1465 C685 1381 632 1307 500 1307 C362 1307 312 1379 312 1465 L265 1465 C265 1345 354 1261 500 1261 L500 1261 Z M635 1637 C635 1570 589 1545 481 1537 L481 1448 L521 1448 L522 1495 C612 1503 683 1542 683 1637 C683 1726 586 1776 449 1776 L443 1733 C531 1733 635 1710 635 1637 L635 1637 Z M381 32 C241 32 144 120 144 270 C144 434 268 549 513 549 L742 549 L742 280 C681 128 559 32 381 32 L381 32 Z " />
<glyph glyph-name="uni1EB4" unicode="&#x1eb4;" horiz-adv-x="1079" d="M980 0 L1033 0 L568 1456 L510 1456 L45 0 L98 0 L236 435 L842 435 L980 0 Z M535 1561 C674 1561 759 1649 759 1774 L710 1774 C710 1686 660 1609 535 1609 C406 1609 359 1684 359 1774 L311 1774 C311 1649 395 1561 535 1561 L535 1561 Z M447 1948 C520 1948 535 1859 627 1859 C701 1859 759 1917 759 2003 L718 2013 C718 1950 676 1907 627 1907 C556 1907 532 1998 446 1998 C372 1998 314 1944 314 1860 L355 1851 C355 1912 397 1948 447 1948 L447 1948 Z M253 489 L539 1390 L825 489 L253 489 Z " />
<glyph glyph-name="uni1EB5" unicode="&#x1eb5;" horiz-adv-x="956" d="M790 218 L790 781 C790 1009 654 1102 462 1102 C263 1102 120 963 120 786 L169 784 C169 942 296 1048 462 1048 C641 1048 742 963 742 783 L742 604 L510 604 C242 604 96 467 96 274 C96 83 208 -21 380 -21 C564 -21 681 77 742 189 C743 122 748 49 759 0 L814 0 L814 9 C798 53 790 140 790 218 L790 218 Z M505 1241 C644 1241 729 1329 729 1454 L680 1454 C680 1366 630 1289 505 1289 C376 1289 329 1364 329 1454 L281 1454 C281 1329 365 1241 505 1241 L505 1241 Z M417 1628 C490 1628 505 1539 597 1539 C671 1539 729 1597 729 1683 L688 1693 C688 1630 646 1587 597 1587 C526 1587 502 1678 416 1678 C342 1678 284 1624 284 1540 L325 1531 C325 1592 367 1628 417 1628 L417 1628 Z M381 32 C241 32 144 120 144 270 C144 434 268 549 513 549 L742 549 L742 280 C681 128 559 32 381 32 L381 32 Z " />
<glyph glyph-name="uni1EB6" unicode="&#x1eb6;" horiz-adv-x="1079" d="M1033 0 L568 1456 L510 1456 L45 0 L98 0 L236 435 L842 435 L980 0 L1033 0 Z M538 1562 C702 1562 801 1664 801 1810 L748 1810 C748 1707 687 1618 538 1618 C382 1618 326 1705 326 1810 L274 1810 C274 1664 374 1562 538 1562 L538 1562 Z M561 -162 C530 -162 508 -187 508 -218 C508 -249 530 -273 561 -273 C590 -273 614 -249 614 -218 C614 -187 590 -162 561 -162 L561 -162 Z M253 489 L539 1390 L825 489 L253 489 Z " />
<glyph glyph-name="uni1EB7" unicode="&#x1eb7;" horiz-adv-x="956" d="M790 218 L790 781 C790 1009 654 1102 462 1102 C263 1102 120 963 120 786 L169 784 C169 942 296 1048 462 1048 C641 1048 742 963 742 783 L742 604 L510 604 C242 604 96 467 96 274 C96 83 208 -21 380 -21 C564 -21 681 77 742 189 C743 122 748 49 759 0 L814 0 L814 9 C798 53 790 140 790 218 L790 218 Z M508 1242 C672 1242 771 1344 771 1490 L718 1490 C718 1387 657 1298 508 1298 C352 1298 296 1385 296 1490 L244 1490 C244 1344 344 1242 508 1242 L508 1242 Z M448 -162 C417 -162 395 -187 395 -218 C395 -249 417 -273 448 -273 C477 -273 501 -249 501 -218 C501 -187 477 -162 448 -162 L448 -162 Z M381 32 C241 32 144 120 144 270 C144 434 268 549 513 549 L742 549 L742 280 C681 128 559 32 381 32 L381 32 Z " />
<glyph glyph-name="uni1EB8" unicode="&#x1eb8;" horiz-adv-x="1028" d="M943 1402 L943 1456 L187 1456 L187 0 L943 0 L943 54 L235 54 L235 722 L857 722 L857 776 L235 776 L235 1402 L943 1402 Z M544 -152 C513 -152 491 -177 491 -208 C491 -239 513 -263 544 -263 C573 -263 597 -239 597 -208 C597 -177 573 -152 544 -152 L544 -152 Z " />
<glyph glyph-name="uni1EB9" unicode="&#x1eb9;" horiz-adv-x="919" d="M831 577 L831 654 C831 959 685 1102 478 1102 C265 1102 91 924 91 590 L91 490 C91 158 271 -21 496 -21 C644 -21 738 37 798 121 L770 154 C693 60 602 32 496 32 C294 32 139 202 139 490 L139 577 L831 577 Z M498 -158 C467 -158 445 -183 445 -214 C445 -245 467 -269 498 -269 C527 -269 551 -245 551 -214 C551 -183 527 -158 498 -158 L498 -158 Z M478 1048 C663 1048 782 902 782 658 L782 631 L140 631 C153 892 286 1048 478 1048 L478 1048 Z " />
<glyph glyph-name="uni1EBA" unicode="&#x1eba;" horiz-adv-x="1028" d="M943 1402 L943 1456 L187 1456 L187 0 L943 0 L943 54 L235 54 L235 722 L857 722 L857 776 L235 776 L235 1402 L943 1402 Z M685 1800 C685 1726 636 1697 524 1686 L525 1587 L567 1587 L567 1641 C660 1649 734 1693 734 1800 C734 1900 633 1959 490 1959 L484 1910 C576 1910 685 1884 685 1800 L685 1800 Z " />
<glyph glyph-name="uni1EBB" unicode="&#x1ebb;" horiz-adv-x="919" d="M831 577 L831 654 C831 959 685 1102 478 1102 C265 1102 91 924 91 590 L91 490 C91 158 271 -21 496 -21 C644 -21 738 37 798 121 L770 154 C693 60 602 32 496 32 C294 32 139 202 139 490 L139 577 L831 577 Z M640 1479 C640 1405 591 1376 479 1365 L480 1266 L522 1266 L522 1320 C615 1328 689 1372 689 1479 C689 1579 588 1638 445 1638 L439 1589 C531 1589 640 1563 640 1479 L640 1479 Z M478 1048 C663 1048 782 902 782 658 L782 631 L140 631 C153 892 286 1048 478 1048 L478 1048 Z " />
<glyph glyph-name="uni1EBC" unicode="&#x1ebc;" horiz-adv-x="1028" d="M943 1402 L943 1456 L187 1456 L187 0 L943 0 L943 54 L235 54 L235 722 L857 722 L857 776 L235 776 L235 1402 L943 1402 Z M430 1745 C531 1745 552 1620 675 1620 C759 1620 825 1695 825 1806 L778 1806 C778 1722 731 1675 675 1675 C579 1675 548 1799 430 1799 C344 1799 280 1730 280 1620 L327 1620 C327 1704 373 1745 430 1745 L430 1745 Z " />
<glyph glyph-name="uni1EBD" unicode="&#x1ebd;" horiz-adv-x="919" d="M831 577 L831 654 C831 959 685 1102 478 1102 C265 1102 91 924 91 590 L91 490 C91 158 271 -21 496 -21 C644 -21 738 37 798 121 L770 154 C693 60 602 32 496 32 C294 32 139 202 139 490 L139 577 L831 577 Z M385 1424 C486 1424 507 1299 630 1299 C714 1299 780 1374 780 1485 L733 1485 C733 1401 686 1354 630 1354 C534 1354 503 1478 385 1478 C299 1478 235 1409 235 1299 L282 1299 C282 1383 328 1424 385 1424 L385 1424 Z M478 1048 C663 1048 782 902 782 658 L782 631 L140 631 C153 892 286 1048 478 1048 L478 1048 Z " />
<glyph glyph-name="uni1EBE" unicode="&#x1ebe;" horiz-adv-x="1028" d="M943 1402 L943 1456 L187 1456 L187 0 L943 0 L943 54 L235 54 L235 722 L857 722 L857 776 L235 776 L235 1402 L943 1402 Z M542 1729 L716 1543 L789 1543 L577 1766 L508 1766 L295 1543 L368 1543 L542 1729 Z M940 1905 L876 1905 L745 1701 L799 1701 L940 1905 Z " />
<glyph glyph-name="uni1EBF" unicode="&#x1ebf;" horiz-adv-x="919" d="M478 1102 C265 1102 91 924 91 590 L91 490 C91 158 271 -21 496 -21 C644 -21 738 37 798 121 L770 154 C693 60 602 32 496 32 C294 32 139 202 139 490 L139 577 L831 577 L831 654 C831 959 685 1102 478 1102 L478 1102 Z M497 1408 L671 1222 L744 1222 L532 1445 L463 1445 L250 1222 L323 1222 L497 1408 Z M895 1584 L831 1584 L700 1380 L754 1380 L895 1584 Z M782 631 L140 631 C153 892 286 1048 478 1048 C663 1048 782 902 782 658 L782 631 Z " />
<glyph glyph-name="uni1EC0" unicode="&#x1ec0;" horiz-adv-x="1028" d="M943 1402 L943 1456 L187 1456 L187 0 L943 0 L943 54 L235 54 L235 722 L857 722 L857 776 L235 776 L235 1402 L943 1402 Z M337 1701 L206 1905 L142 1905 L282 1701 L337 1701 Z M366 1543 L540 1729 L713 1543 L787 1543 L573 1766 L505 1766 L293 1543 L366 1543 Z " />
<glyph glyph-name="uni1EC1" unicode="&#x1ec1;" horiz-adv-x="919" d="M831 577 L831 654 C831 959 685 1102 478 1102 C265 1102 91 924 91 590 L91 490 C91 158 271 -21 496 -21 C644 -21 738 37 798 121 L770 154 C693 60 602 32 496 32 C294 32 139 202 139 490 L139 577 L831 577 Z M292 1380 L161 1584 L97 1584 L237 1380 L292 1380 Z M321 1222 L495 1408 L668 1222 L742 1222 L528 1445 L460 1445 L248 1222 L321 1222 Z M478 1048 C663 1048 782 902 782 658 L782 631 L140 631 C153 892 286 1048 478 1048 L478 1048 Z " />
<glyph glyph-name="uni1EC2" unicode="&#x1ec2;" horiz-adv-x="1028" d="M943 1456 L187 1456 L187 0 L943 0 L943 54 L235 54 L235 722 L857 722 L857 776 L235 776 L235 1402 L943 1402 L943 1456 Z M546 1778 L719 1592 L793 1592 L581 1815 L511 1815 L300 1592 L372 1592 L546 1778 Z M914 1882 C914 1825 883 1809 787 1801 L787 1708 L828 1708 L828 1752 C905 1760 967 1797 967 1889 C967 1973 881 2024 761 2024 L756 1969 C833 1969 914 1951 914 1882 L914 1882 Z " />
<glyph glyph-name="uni1EC3" unicode="&#x1ec3;" horiz-adv-x="919" d="M478 1102 C265 1102 91 924 91 590 L91 490 C91 158 271 -21 496 -21 C644 -21 738 37 798 121 L770 154 C693 60 602 32 496 32 C294 32 139 202 139 490 L139 577 L831 577 L831 654 C831 959 685 1102 478 1102 L478 1102 Z M501 1457 L674 1271 L748 1271 L536 1494 L466 1494 L255 1271 L327 1271 L501 1457 Z M716 1703 L711 1648 C788 1648 869 1630 869 1561 C869 1504 838 1488 742 1480 L742 1387 L783 1387 L783 1431 C860 1439 922 1476 922 1568 C922 1652 836 1703 716 1703 L716 1703 Z M782 631 L140 631 C153 892 286 1048 478 1048 C663 1048 782 902 782 658 L782 631 Z " />
<glyph glyph-name="uni1EC4" unicode="&#x1ec4;" horiz-adv-x="1028" d="M943 1402 L943 1456 L187 1456 L187 0 L943 0 L943 54 L235 54 L235 722 L857 722 L857 776 L235 776 L235 1402 L943 1402 Z M543 1748 L716 1562 L790 1562 L569 1785 L516 1785 L297 1562 L369 1562 L543 1748 Z M471 1939 C545 1939 563 1834 653 1834 C715 1834 763 1890 763 1974 L720 1982 C720 1919 695 1885 653 1885 C582 1885 559 1991 471 1991 C410 1991 361 1917 361 1834 L404 1826 C404 1890 429 1939 471 1939 L471 1939 Z " />
<glyph glyph-name="uni1EC5" unicode="&#x1ec5;" horiz-adv-x="919" d="M831 577 L831 654 C831 959 685 1102 478 1102 C265 1102 91 924 91 590 L91 490 C91 158 271 -21 496 -21 C644 -21 738 37 798 121 L770 154 C693 60 602 32 496 32 C294 32 139 202 139 490 L139 577 L831 577 Z M498 1427 L671 1241 L745 1241 L524 1464 L471 1464 L252 1241 L324 1241 L498 1427 Z M426 1618 C500 1618 518 1513 608 1513 C670 1513 718 1569 718 1653 L675 1661 C675 1598 650 1564 608 1564 C537 1564 514 1670 426 1670 C365 1670 316 1596 316 1513 L359 1505 C359 1569 384 1618 426 1618 L426 1618 Z M478 1048 C663 1048 782 902 782 658 L782 631 L140 631 C153 892 286 1048 478 1048 L478 1048 Z " />
<glyph glyph-name="uni1EC6" unicode="&#x1ec6;" horiz-adv-x="1028" d="M943 1402 L943 1456 L187 1456 L187 0 L943 0 L943 54 L235 54 L235 722 L857 722 L857 776 L235 776 L235 1402 L943 1402 Z M545 1779 L703 1583 L763 1583 L763 1593 L563 1836 L527 1836 L331 1597 L331 1583 L387 1583 L545 1779 Z M544 -152 C513 -152 491 -177 491 -208 C491 -239 513 -263 544 -263 C573 -263 597 -239 597 -208 C597 -177 573 -152 544 -152 L544 -152 Z " />
</font>
</svg>
